<svg xmlns="http://www.w3.org/2000/svg" viewBox="0 0 512 512"><!--! Font Awesome Pro 6.4.0 by @fontawesome - https://fontawesome.com License - https://fontawesome.com/license (Commercial License) Copyright 2023 Fonticons, Inc. --><defs><style>.fa-secondary{opacity:.4}</style></defs><path class="fa-primary" d="M496 64c8.8 0 16 7.2 16 16v64c0 8.8-7.2 16-16 16s-16-7.2-16-16V80c0-8.8 7.2-16 16-16zm0 128c8.8 0 16 7.2 16 16v64c0 8.8-7.2 16-16 16s-16-7.2-16-16V208c0-8.8 7.2-16 16-16zm16 144v64c0 8.8-7.2 16-16 16s-16-7.2-16-16V336c0-8.8 7.2-16 16-16s16 7.2 16 16zM128 368c0-44.2 35.8-80 80-80h64c44.2 0 80 35.8 80 80c0 8.8-7.2 16-16 16H144c-8.8 0-16-7.2-16-16zM240 128a64 64 0 1 1 0 128 64 64 0 1 1 0-128z"/><path class="fa-secondary" d="M32 64C32 28.7 60.7 0 96 0H384c35.3 0 64 28.7 64 64V448c0 35.3-28.7 64-64 64H96c-35.3 0-64-28.7-64-64V64zm96 304c0 8.8 7.2 16 16 16H336c8.8 0 16-7.2 16-16c0-44.2-35.8-80-80-80H208c-44.2 0-80 35.8-80 80zM240 256a64 64 0 1 0 0-128 64 64 0 1 0 0 128z"/></svg>