<svg xmlns="http://www.w3.org/2000/svg" viewBox="0 0 640 512"><!--! Font Awesome Pro 6.4.0 by @fontawesome - https://fontawesome.com License - https://fontawesome.com/license (Commercial License) Copyright 2023 Fonticons, Inc. --><defs><style>.fa-secondary{opacity:.4}</style></defs><path class="fa-primary" d="M496 512a144 144 0 1 0 0-288 144 144 0 1 0 0 288zm0-32c-30.2 0-57.5-11.9-77.7-31.3c6.2-19 24-32.7 45.1-32.7h65.2c21 0 38.9 13.7 45.1 32.7C553.5 468.1 526.2 480 496 480zm0-192a48 48 0 1 1 0 96 48 48 0 1 1 0-96z"/><path class="fa-secondary" d="M56 0H456c13.3 0 24 10.7 24 24s-10.7 24-24 24H56C42.7 48 32 37.3 32 24S42.7 0 56 0zM12 176.2C21.1 165.9 34.2 160 48 160H464c13.8 0 26.9 5.9 36 16.2c4.2 4.8 7.4 10.3 9.4 16.3c-4.4-.3-8.9-.5-13.4-.5c-46.9 0-89.5 18.3-121 48.2C342.9 220.1 301.4 208 256 208C154.4 208 72 268.9 72 344s82.4 136 184 136c33.2 0 64.4-6.5 91.3-17.9c12.4 19.6 28.6 36.6 47.5 49.9H80c-24.2 0-44.6-18-47.6-42L.4 214c-1.7-13.7 2.5-27.4 11.6-37.7zM288 352c0 13.3-14.3 24-32 24s-32-10.7-32-24s14.3-24 32-24s32 10.7 32 24zM16 104c0-13.3 10.7-24 24-24H472c13.3 0 24 10.7 24 24s-10.7 24-24 24H40c-13.3 0-24-10.7-24-24z"/></svg>