<svg xmlns="http://www.w3.org/2000/svg" viewBox="0 0 448 512"><!--! Font Awesome Pro 6.4.0 by @fontawesome - https://fontawesome.com License - https://fontawesome.com/license (Commercial License) Copyright 2023 Fonticons, Inc. --><defs><style>.fa-secondary{opacity:.4}</style></defs><path class="fa-primary" d="M32 480c-17.7 0-32-14.3-32-32s14.3-32 32-32H416c17.7 0 32 14.3 32 32s-14.3 32-32 32H32zm0-256c-17.7 0-32-14.3-32-32s14.3-32 32-32H416c17.7 0 32 14.3 32 32s-14.3 32-32 32H32z"/><path class="fa-secondary" d="M32 352c-17.7 0-32-14.3-32-32s14.3-32 32-32H416c17.7 0 32 14.3 32 32s-14.3 32-32 32H32zM32 96C14.3 96 0 81.7 0 64S14.3 32 32 32H416c17.7 0 32 14.3 32 32s-14.3 32-32 32H32z"/></svg>