<svg xmlns="http://www.w3.org/2000/svg" viewBox="0 0 640 512"><!--! Font Awesome Pro 6.4.0 by @fontawesome - https://fontawesome.com License - https://fontawesome.com/license (Commercial License) Copyright 2023 Fonticons, Inc. --><defs><style>.fa-secondary{opacity:.4}</style></defs><path class="fa-primary" d="M5.1 9.2C13.3-1.2 28.4-3.1 38.8 5.1l592 464c10.4 8.2 12.3 23.3 4.1 33.7s-23.3 12.3-33.7 4.1L9.2 42.9C-1.2 34.7-3.1 19.6 5.1 9.2z"/><path class="fa-secondary" d="M406.2 416l81.2 64H128c-17.7 0-32-14.3-32-32s14.3-32 32-32H406.2zM243.7 288l81.2 64H128c-17.7 0-32-14.3-32-32s14.3-32 32-32H243.7zm-143-112.7L162.5 224H128c-17.7 0-32-14.3-32-32c0-6.1 1.7-11.8 4.7-16.7zM399.7 288H512c17.7 0 32 14.3 32 32s-14.3 32-32 32H481.4l-81.7-64zM236.4 160H512c17.7 0 32 14.3 32 32s-14.3 32-32 32H318.1l-81.7-64zM512 96H154.8L98.4 51.8C103.2 40.2 114.6 32 128 32H512c17.7 0 32 14.3 32 32s-14.3 32-32 32z"/></svg>