<svg xmlns="http://www.w3.org/2000/svg" viewBox="0 0 576 512"><!--! Font Awesome Pro 6.4.0 by @fontawesome - https://fontawesome.com License - https://fontawesome.com/license (Commercial License) Copyright 2023 Fonticons, Inc. --><defs><style>.fa-secondary{opacity:.4}</style></defs><path class="fa-primary" d="M256 448V240h64V448h48c53 0 96-43 96-96v-6.1l-7 7c-9.4 9.4-24.6 9.4-33.9 0s-9.4-24.6 0-33.9l56-56c9.4-9.4 24.6-9.4 33.9 0l56 56c9.4 9.4 9.4 24.6 0 33.9s-24.6 9.4-33.9 0l-7-7V352c0 88.4-71.6 160-160 160H288 208c-88.4 0-160-71.6-160-160v-6.1l-7 7c-9.4 9.4-24.6 9.4-33.9 0s-9.4-24.6 0-33.9l56-56c9.4-9.4 24.6-9.4 33.9 0l56 56c9.4 9.4 9.4 24.6 0 33.9s-24.6 9.4-33.9 0l-7-7V352c0 53 43 96 96 96h48z"/><path class="fa-secondary" d="M320 96a32 32 0 1 1 -64 0 32 32 0 1 1 64 0zM288 0c-53 0-96 43-96 96c0 33.4 17 62.8 42.9 80H224c-17.7 0-32 14.3-32 32s14.3 32 32 32H352c17.7 0 32-14.3 32-32s-14.3-32-32-32H341.1C367 158.8 384 129.4 384 96c0-53-43-96-96-96z"/></svg>