<svg xmlns="http://www.w3.org/2000/svg" viewBox="0 0 640 512"><!--! Font Awesome Pro 6.4.0 by @fontawesome - https://fontawesome.com License - https://fontawesome.com/license (Commercial License) Copyright 2023 Fonticons, Inc. --><defs><style>.fa-secondary{opacity:.4}</style></defs><path class="fa-primary" d="M352 368a144 144 0 1 1 288 0 144 144 0 1 1 -288 0zm168 72a24 24 0 1 0 -48 0 24 24 0 1 0 48 0zm-8-152c0-8.8-7.2-16-16-16s-16 7.2-16 16v80c0 8.8 7.2 16 16 16s16-7.2 16-16V288z"/><path class="fa-secondary" d="M288 64a32 32 0 1 0 0 64 32 32 0 1 0 0-64zm96 32c0 33.4-17 62.8-42.9 80H352c17.7 0 32 14.3 32 32s-14.3 32-32 32H320V368v80h19.2c12.6 24.7 30.9 46 53 62.2c-7.9 1.2-16 1.8-24.2 1.8H288 208c-88.4 0-160-71.6-160-160v-6.1l-7 7c-9.4 9.4-24.6 9.4-33.9 0s-9.4-24.6 0-33.9l56-56c9.4-9.4 24.6-9.4 33.9 0l56 56c9.4 9.4 9.4 24.6 0 33.9s-24.6 9.4-33.9 0l-7-7V352c0 53 43 96 96 96h48V240H224c-17.7 0-32-14.3-32-32s14.3-32 32-32h10.9C209 158.8 192 129.4 192 96c0-53 43-96 96-96s96 43 96 96z"/></svg>