<svg xmlns="http://www.w3.org/2000/svg" viewBox="0 0 576 512"><!--! Font Awesome Pro 6.4.0 by @fontawesome - https://fontawesome.com License - https://fontawesome.com/license (Commercial License) Copyright 2023 Fonticons, Inc. --><defs><style>.fa-secondary{opacity:.4}</style></defs><path class="fa-primary" d="M288 64a80 80 0 1 1 0 160 80 80 0 1 1 0-160zM96 512l99.4-198.8C212.9 278.2 248.8 256 288 256s75.1 22.2 92.6 57.2L480 512H96z"/><path class="fa-secondary" d="M384 64.2c0-.1 0-.1 0-.2s0-.1 0-.2s-.1-.3-.2-.6c-.3-.6-.9-1.8-2.3-3.5c-2.9-3.5-8.4-7.9-17.3-12.4C346.4 38.4 319.5 32 288 32s-58.4 6.4-76.2 15.4c-8.9 4.5-14.4 8.9-17.3 12.4c-1.4 1.7-2 2.8-2.3 3.5c-.1 .3-.2 .5-.2 .6s0 .1 0 .2s0 .1 0 .2s.1 .3 .2 .6c.3 .6 .9 1.8 2.3 3.5c1.4 1.7 3.4 3.6 6.2 5.6c-6.7 8.3-12.2 17.6-16.3 27.7C169 91 160 78 160 64c0-35.3 57.3-64 128-64s128 28.7 128 64c0 14-9 27-24.3 37.5c-4.1-10-9.6-19.3-16.3-27.7c2.7-2 4.8-4 6.2-5.6c1.4-1.7 2-2.8 2.3-3.5c.1-.3 .2-.5 .2-.6zM96 512H45.3C20.3 512 0 491.7 0 466.7c0-7 1.6-14 4.8-20.3l39.8-79.7c2.2-4.4 3.4-9.3 3.4-14.3v-.9c0-5-1.2-9.9-3.4-14.3L26.2 300.5C19.5 287 16 272 16 256.9c0-53.1 43.1-96.9 96.2-96.9c25.5 0 50 10.1 68 28.2l73.6 73.6c-25 8.8-46.2 26.9-58.4 51.4L96 512zM380.6 313.2c-12.2-24.5-33.4-42.7-58.4-51.4l73.6-73.6c18-18 42.5-28.2 68-28.2c53.1 0 96.2 43.8 96.2 96.9c0 15.1-3.5 30.1-10.2 43.6l-18.4 36.7c-2.2 4.4-3.4 9.3-3.4 14.3v.9c0 5 1.2 9.9 3.4 14.3l39.8 79.7c3.1 6.3 4.8 13.2 4.8 20.3c0 25-20.3 45.3-45.3 45.3H480L380.6 313.2z"/></svg>