<svg xmlns="http://www.w3.org/2000/svg" viewBox="0 0 512 512"><!-- Font Awesome Pro 6.0.0-alpha2 by @fontawesome - https://fontawesome.com License - https://fontawesome.com/license (Commercial License) --><defs><style>.fa-secondary{opacity:.4}</style></defs><path d="M424.607 80.625C406.481 77.625 372.732 86.75 352.107 98.25C335.107 88.75 309.732 81.375 290.982 80.5C292.857 82.75 294.857 84.625 296.482 87.125C317.357 117.25 322.232 159.375 318.732 192H478.481C483.732 152.5 473.357 89.375 424.607 80.625ZM210.982 50.5C222.357 38.25 225.482 18.5 224.232 0.25C211.357 -0.625 188.607 0.125 174.232 13.5C157.732 30.125 160.482 59.875 160.982 63.75C179.482 65 198.732 61.875 210.982 50.5ZM402.732 50.5C413.982 38.25 417.107 18.5 415.982 0.25C402.982 -0.625 380.232 0.125 365.857 13.5C349.357 30.125 352.107 59.875 352.732 63.75C371.107 65 390.481 61.875 402.732 50.5ZM232.982 80.625C214.857 77.625 181.107 86.75 160.482 98.25C139.857 86.75 106.107 77.625 87.982 80.625C39.357 89.375 28.982 152.875 34.232 192H286.732C291.982 152.5 281.607 89.375 232.982 80.625Z" class="fa-secondary"/><path d="M0 496C0 504.875 7.125 512 16 512H496C504.875 512 512 504.875 512 496V384H0V496ZM448 432C456.875 432 464 439.125 464 448S456.875 464 448 464S432 456.875 432 448S439.125 432 448 432ZM64 432C72.875 432 80 439.125 80 448S72.875 464 64 464S48 456.875 48 448S55.125 432 64 432ZM496 224H16C7.125 224 0 231.125 0 240V352H512V240C512 231.125 504.875 224 496 224ZM64 304C55.125 304 48 296.875 48 288S55.125 272 64 272S80 279.125 80 288S72.875 304 64 304ZM448 304C439.125 304 432 296.875 432 288S439.125 272 448 272S464 279.125 464 288S456.875 304 448 304Z" class="fa-primary"/></svg>