<svg xmlns="http://www.w3.org/2000/svg" viewBox="0 0 512 512"><!--! Font Awesome Pro 6.4.0 by @fontawesome - https://fontawesome.com License - https://fontawesome.com/license (Commercial License) Copyright 2023 Fonticons, Inc. --><defs><style>.fa-secondary{opacity:.4}</style></defs><path class="fa-primary" d="M32 32C14.3 32 0 46.3 0 64S14.3 96 32 96H480c17.7 0 32-14.3 32-32s-14.3-32-32-32H32zM480 160H32v32H480V160z"/><path class="fa-secondary" d="M480 96H32v64H480V96zm0 96H32V416c-17.7 0-32 14.3-32 32s14.3 32 32 32h96 32V416 352c0-53 43-96 96-96s96 43 96 96v64 64h32 96c17.7 0 32-14.3 32-32s-14.3-32-32-32V192z"/></svg>