<svg xmlns="http://www.w3.org/2000/svg" viewBox="0 0 512 512"><!--! Font Awesome Pro 6.4.0 by @fontawesome - https://fontawesome.com License - https://fontawesome.com/license (Commercial License) Copyright 2023 Fonticons, Inc. --><defs><style>.fa-secondary{opacity:.4}</style></defs><path class="fa-primary" d="M35.5 288l0 0h65l0 0h-65zM257.1 95.5c-11.4 0-22.4 1.2-33.1 3.4V34c10.8-1.6 21.9-2.4 33.1-2.4c58.2 0 111.2 22.2 151 58.6l29.4-29.4c10.1-10.1 27.3-2.9 27.3 11.3l0 105.4c0 8.8-7.2 16-16 16l-105.4 0c-14.3 0-21.4-17.2-11.3-27.3l30.6-30.6c-28.2-24.8-65.2-39.9-105.7-39.9zM182.1 348.2l-28.9 28.9c28 23.9 64.3 38.4 104 38.4c10.6 0 20.9-1 30.9-3v64.9c-10.1 1.4-20.4 2.1-30.9 2.1c-57.4 0-109.7-21.6-149.3-57L76.7 453.6c-10.1 10.1-27.3 2.9-27.3-11.3l0-105.4c0-8.8 7.2-16 16-16l105.4 0c14.3 0 21.4 17.2 11.3 27.3z"/><path class="fa-secondary" d="M72 49.4H177.4c8.8 0 16 7.2 16 16V170.7c0 14.3-17.2 21.4-27.3 11.3l-30.5-30.5c-23.9 28-38.4 64.3-38.4 104c0 11.1 1.1 22 3.3 32.5h-65c-1.5-10.6-2.3-21.4-2.3-32.5c0-57.4 21.6-109.7 57-149.3L60.7 76.7C50.6 66.6 57.7 49.4 72 49.4zM348.2 332.2l29 29c24.8-28.2 39.9-65.2 39.9-105.7c0-10.8-1.1-21.3-3.1-31.5h64.9c1.5 10.3 2.2 20.8 2.2 31.5c0 58.2-22.2 111.2-58.6 151l31 31c10.1 10.1 2.9 27.3-11.3 27.3H336.9c-8.8 0-16-7.2-16-16V343.5c0-14.3 17.2-21.4 27.3-11.3z"/></svg>