<svg xmlns="http://www.w3.org/2000/svg" viewBox="0 0 448 512"><!--! Font Awesome Pro 6.4.0 by @fontawesome - https://fontawesome.com License - https://fontawesome.com/license (Commercial License) Copyright 2023 Fonticons, Inc. --><defs><style>.fa-secondary{opacity:.4}</style></defs><path class="fa-primary" d="M438.6 233.4c12.5 12.5 12.5 32.8 0 45.3l-128 128c-12.5 12.5-32.8 12.5-45.3 0s-12.5-32.8 0-45.3L338.7 288 272 288l-112 0c-17.7 0-32-14.3-32-32s14.3-32 32-32l112 0 66.7 0-73.4-73.4c-12.5-12.5-12.5-32.8 0-45.3s32.8-12.5 45.3 0l128 128z"/><path class="fa-secondary" d="M32 64c17.7 0 32 14.3 32 32l0 320c0 17.7-14.3 32-32 32s-32-14.3-32-32L0 96C0 78.3 14.3 64 32 64z"/></svg>