<svg xmlns="http://www.w3.org/2000/svg" viewBox="0 0 512 512"><!--! Font Awesome Pro 6.4.0 by @fontawesome - https://fontawesome.com License - https://fontawesome.com/license (Commercial License) Copyright 2023 Fonticons, Inc. --><defs><style>.fa-secondary{opacity:.4}</style></defs><path class="fa-primary" d="M502.6 233.4c12.5 12.5 12.5 32.8 0 45.3l-128 128c-12.5 12.5-32.8 12.5-45.3 0s-12.5-32.8 0-45.3L402.7 288 192 288c-17.7 0-32-14.3-32-32s14.3-32 32-32l210.7 0-73.4-73.4c-12.5-12.5-12.5-32.8 0-45.3s32.8-12.5 45.3 0l128 128z"/><path class="fa-secondary" d="M192 64c0 17.7-14.3 32-32 32L96 96c-17.7 0-32 14.3-32 32l0 256c0 17.7 14.3 32 32 32l64 0c17.7 0 32 14.3 32 32s-14.3 32-32 32l-64 0c-53 0-96-43-96-96L0 128C0 75 43 32 96 32l64 0c17.7 0 32 14.3 32 32z"/></svg>