<svg xmlns="http://www.w3.org/2000/svg" viewBox="0 0 512 512"><!-- Font Awesome Pro 6.0.0-alpha2 by @fontawesome - https://fontawesome.com License - https://fontawesome.com/license (Commercial License) --><defs><style>.fa-secondary{opacity:.4}</style></defs><path d="M96 256C96 344.219 167.781 416 256 416C290.969 416 324.156 404.938 351.969 384.031C369.562 370.75 394.656 374.313 407.969 391.969C421.25 409.625 417.687 434.688 400.031 447.969C358.25 479.406 308.469 496 256 496C123.656 496 16 388.344 16 256S123.656 16 256 16C323.77 16 387.131 44.781 432 93.297V160H383.943C353.941 120.094 306.754 96 256 96C167.781 96 96 167.781 96 256Z" class="fa-secondary"/><path d="M496 47.996V192.004C496 200.844 492.42 208.844 486.631 214.633S472.842 224 464.004 224H319.996C302.326 224 288 209.676 288 192.004C288 174.336 302.324 160.008 319.994 160.008H383.83C383.828 160.008 383.826 160 383.824 160H432V93.297L432.008 93.305V47.992C432.008 30.324 446.332 16 464.002 16C481.674 16 496 30.324 496 47.996Z" class="fa-primary"/></svg>