<svg xmlns="http://www.w3.org/2000/svg" viewBox="0 0 448 512"><!--! Font Awesome Pro 6.4.0 by @fontawesome - https://fontawesome.com License - https://fontawesome.com/license (Commercial License) Copyright 2023 Fonticons, Inc. --><defs><style>.fa-secondary{opacity:.4}</style></defs><path class="fa-primary" d="M201.4 9.4c12.5-12.5 32.8-12.5 45.3 0l64 64c9.2 9.2 11.9 22.9 6.9 34.9s-16.6 19.8-29.6 19.8H256v32c0 17.7-14.3 32-32 32s-32-14.3-32-32V128H160c-12.9 0-24.6-7.8-29.6-19.8s-2.2-25.7 6.9-34.9l64-64zM192 384V352c0-17.7 14.3-32 32-32s32 14.3 32 32v32h32c12.9 0 24.6 7.8 29.6 19.8s2.2 25.7-6.9 34.9l-64 64c-12.5 12.5-32.8 12.5-45.3 0l-64-64c-9.2-9.2-11.9-22.9-6.9-34.9s16.6-19.8 29.6-19.8h32z"/><path class="fa-secondary" d="M64 256A32 32 0 1 1 0 256a32 32 0 1 1 64 0zm96 0a32 32 0 1 1 -64 0 32 32 0 1 1 64 0zm64 32a32 32 0 1 1 0-64 32 32 0 1 1 0 64zm128-32a32 32 0 1 1 -64 0 32 32 0 1 1 64 0zm64 32a32 32 0 1 1 0-64 32 32 0 1 1 0 64z"/></svg>