<svg xmlns="http://www.w3.org/2000/svg" viewBox="0 0 576 512"><!--! Font Awesome Pro 6.4.0 by @fontawesome - https://fontawesome.com License - https://fontawesome.com/license (Commercial License) Copyright 2023 Fonticons, Inc. --><defs><style>.fa-secondary{opacity:.4}</style></defs><path class="fa-primary" d="M137.4 502.6c12.5 12.5 32.8 12.5 45.3 0l96-96c12.5-12.5 12.5-32.8 0-45.3s-32.8-12.5-45.3 0L192 402.7V288H128V402.7L86.6 361.4c-12.5-12.5-32.8-12.5-45.3 0s-12.5 32.8 0 45.3l96 96zM128 224h64V64c0-17.7-14.3-32-32-32s-32 14.3-32 32V224zM393.4 9.4l-96 96c-12.5 12.5-12.5 32.8 0 45.3s32.8 12.5 45.3 0L384 109.3V224h64V109.3l41.4 41.4c12.5 12.5 32.8 12.5 45.3 0s12.5-32.8 0-45.3l-96-96c-12.5-12.5-32.8-12.5-45.3 0zM448 448V288H384V448c0 17.7 14.3 32 32 32s32-14.3 32-32z"/><path class="fa-secondary" d="M0 256c0-17.7 14.3-32 32-32H544c17.7 0 32 14.3 32 32s-14.3 32-32 32H32c-17.7 0-32-14.3-32-32z"/></svg>