<svg xmlns="http://www.w3.org/2000/svg" viewBox="0 0 512 512"><!--! Font Awesome Pro 6.4.0 by @fontawesome - https://fontawesome.com License - https://fontawesome.com/license (Commercial License) Copyright 2023 Fonticons, Inc. --><defs><style>.fa-secondary{opacity:.4}</style></defs><path class="fa-primary" d="M496 192c0 17.7-14.3 32-32 32H336c-17.7 0-32-14.3-32-32s14.3-32 32-32h96V64c0-17.7 14.3-32 32-32s32 14.3 32 32V192z"/><path class="fa-secondary" d="M386.3 160l-17.1-17.1c-62.5-62.5-163.8-62.5-226.3 0s-62.5 163.8 0 226.3s163.8 62.5 226.3 0c12.5-12.5 32.8-12.5 45.3 0s12.5 32.8 0 45.3c-87.5 87.5-229.3 87.5-316.8 0s-87.5-229.3 0-316.8s229.3-87.5 316.8 0L432 115.2V160H386.3z"/></svg>