<svg xmlns="http://www.w3.org/2000/svg" viewBox="0 0 512 512"><!--! Font Awesome Pro 6.4.0 by @fontawesome - https://fontawesome.com License - https://fontawesome.com/license (Commercial License) Copyright 2023 Fonticons, Inc. --><defs><style>.fa-secondary{opacity:.4}</style></defs><path class="fa-primary" d="M16 192c0 17.7 14.3 32 32 32H176c17.7 0 32-14.3 32-32s-14.3-32-32-32H80V64c0-17.7-14.3-32-32-32S16 46.3 16 64V192z"/><path class="fa-secondary" d="M125.7 160l17.1-17.1c62.5-62.5 163.8-62.5 226.3 0s62.5 163.8 0 226.3s-163.8 62.5-226.3 0c-12.5-12.5-32.8-12.5-45.3 0s-12.5 32.8 0 45.3c87.5 87.5 229.3 87.5 316.8 0s87.5-229.3 0-316.8s-229.3-87.5-316.8 0L80 115.2V160h45.7z"/></svg>