<svg xmlns="http://www.w3.org/2000/svg" viewBox="0 0 448 512"><!--! Font Awesome Pro 6.4.0 by @fontawesome - https://fontawesome.com License - https://fontawesome.com/license (Commercial License) Copyright 2023 Fonticons, Inc. --><defs><style>.fa-secondary{opacity:.4}</style></defs><path class="fa-primary" d="M438.6 105.4c12.5 12.5 12.5 32.8 0 45.3l-96 96c-12.5 12.5-32.8 12.5-45.3 0s-12.5-32.8 0-45.3L338.7 160 32 160c-17.7 0-32-14.3-32-32s14.3-32 32-32l306.7 0L297.4 54.6c-12.5-12.5-12.5-32.8 0-45.3s32.8-12.5 45.3 0l96 96z"/><path class="fa-secondary" d="M9.4 361.4c-12.5 12.5-12.5 32.8 0 45.3l96 96c12.5 12.5 32.8 12.5 45.3 0s12.5-32.8 0-45.3L109.3 416 416 416c17.7 0 32-14.3 32-32s-14.3-32-32-32l-306.7 0 41.4-41.4c12.5-12.5 12.5-32.8 0-45.3s-32.8-12.5-45.3 0l-96 96z"/></svg>