<svg xmlns="http://www.w3.org/2000/svg" viewBox="0 0 512 512"><!--! Font Awesome Pro 6.4.0 by @fontawesome - https://fontawesome.com License - https://fontawesome.com/license (Commercial License) Copyright 2023 Fonticons, Inc. --><defs><style>.fa-secondary{opacity:.4}</style></defs><path class="fa-primary" d="M2.4 275.8c1.6-3.8 3.9-7.3 6.9-10.4l96-96c12.5-12.5 32.8-12.5 45.3 0s12.5 32.8 0 45.3L109.3 256 224 256c70.7 0 128 57.3 128 128c0 35.3 28.7 64 64 64l64 0c17.7 0 32 14.3 32 32s-14.3 32-32 32l-64 0c-70.7 0-128-57.3-128-128c0-35.3-28.7-64-64-64l-114.7 0 41.4 41.4c12.5 12.5 12.5 32.8 0 45.3s-32.8 12.5-45.3 0l-96-96s0 0 0 0c0 0 0 0-.1-.1C3.6 304.8 0 296.9 0 288.1c0-.1 0-.1 0-.2c0-4.1 .8-8.3 2.4-12.2zM0 288.1c0 0 0-.1 0-.1s0-.1 0-.1c0-4.3 .9-8.4 2.4-12.2"/><path class="fa-secondary" d="M246.6 150.6c-12.5 12.5-32.8 12.5-45.3 0s-12.5-32.8 0-45.3l96-96c12.5-12.5 32.8-12.5 45.3 0l96 96c12.5 12.5 12.5 32.8 0 45.3s-32.8 12.5-45.3 0L352 109.3V384c0-47.4-25.7-88.7-64-110.9V109.3l-41.4 41.4z"/></svg>