<svg xmlns="http://www.w3.org/2000/svg" viewBox="0 0 576 512"><!--! Font Awesome Pro 6.4.0 by @fontawesome - https://fontawesome.com License - https://fontawesome.com/license (Commercial License) Copyright 2023 Fonticons, Inc. --><defs><style>.fa-secondary{opacity:.4}</style></defs><path class="fa-primary" d="M352 384c0 17.7 14.3 32 32 32H544c17.7 0 32-14.3 32-32V224c0-17.7-14.3-32-32-32s-32 14.3-32 32V352H384c-17.7 0-32 14.3-32 32z"/><path class="fa-secondary" d="M466.7 352L320 205.3 214.6 310.6c-12.5 12.5-32.8 12.5-45.3 0l-160-160c-12.5-12.5-12.5-32.8 0-45.3s32.8-12.5 45.3 0L192 242.7 297.4 137.4c12.5-12.5 32.8-12.5 45.3 0L512 306.7V352H466.7z"/></svg>