<svg xmlns="http://www.w3.org/2000/svg" viewBox="0 0 576 512"><!--! Font Awesome Pro 6.4.0 by @fontawesome - https://fontawesome.com License - https://fontawesome.com/license (Commercial License) Copyright 2023 Fonticons, Inc. --><defs><style>.fa-secondary{opacity:.4}</style></defs><path class="fa-primary" d="M54.6 278.6c-12.5 12.5-32.8 12.5-45.3 0s-12.5-32.8 0-45.3l96-96c12.5-12.5 32.8-12.5 45.3 0l96 96c12.5 12.5 12.5 32.8 0 45.3s-32.8 12.5-45.3 0L160 237.3 160 448c0 17.7-14.3 32-32 32s-32-14.3-32-32l0-210.7L54.6 278.6zm320 0c-12.5 12.5-32.8 12.5-45.3 0s-12.5-32.8 0-45.3l96-96c12.5-12.5 32.8-12.5 45.3 0l96 96c12.5 12.5 12.5 32.8 0 45.3s-32.8 12.5-45.3 0L480 237.3 480 448c0 17.7-14.3 32-32 32s-32-14.3-32-32l0-210.7-41.4 41.4z"/><path class="fa-secondary" d="M0 64C0 81.7 14.3 96 32 96l512 0c17.7 0 32-14.3 32-32s-14.3-32-32-32L32 32C14.3 32 0 46.3 0 64z"/></svg>