<svg xmlns="http://www.w3.org/2000/svg" viewBox="0 0 448 512"><!--! Font Awesome Pro 6.4.0 by @fontawesome - https://fontawesome.com License - https://fontawesome.com/license (Commercial License) Copyright 2023 Fonticons, Inc. --><defs><style>.fa-secondary{opacity:.4}</style></defs><path class="fa-primary" d="M201.4 41.4c12.5-12.5 32.8-12.5 45.3 0l128 128c12.5 12.5 12.5 32.8 0 45.3s-32.8 12.5-45.3 0L256 141.3V208 320c0 17.7-14.3 32-32 32s-32-14.3-32-32V208 141.3l-73.4 73.4c-12.5 12.5-32.8 12.5-45.3 0s-12.5-32.8 0-45.3l128-128z"/><path class="fa-secondary" d="M64 448A32 32 0 1 1 0 448a32 32 0 1 1 64 0zm96 0a32 32 0 1 1 -64 0 32 32 0 1 1 64 0zm64 32a32 32 0 1 1 0-64 32 32 0 1 1 0 64zm128-32a32 32 0 1 1 -64 0 32 32 0 1 1 64 0zm64 32a32 32 0 1 1 0-64 32 32 0 1 1 0 64z"/></svg>