<svg xmlns="http://www.w3.org/2000/svg" viewBox="0 0 512 512"><!--! Font Awesome Pro 6.4.0 by @fontawesome - https://fontawesome.com License - https://fontawesome.com/license (Commercial License) Copyright 2023 Fonticons, Inc. --><defs><style>.fa-secondary{opacity:.4}</style></defs><path class="fa-primary" d="M502.6 9.4c12.5 12.5 12.5 32.8 0 45.3L381.3 176H432c17.7 0 32 14.3 32 32s-14.3 32-32 32H304c-17.7 0-32-14.3-32-32V80c0-17.7 14.3-32 32-32s32 14.3 32 32v50.7L457.4 9.4c12.5-12.5 32.8-12.5 45.3 0z"/><path class="fa-secondary" d="M48 304c0-17.7 14.3-32 32-32H208c17.7 0 32 14.3 32 32V432c0 17.7-14.3 32-32 32s-32-14.3-32-32V381.3L54.6 502.6c-12.5 12.5-32.8 12.5-45.3 0s-12.5-32.8 0-45.3L130.7 336H80c-17.7 0-32-14.3-32-32z"/></svg>