<svg xmlns="http://www.w3.org/2000/svg" viewBox="0 0 640 512"><!--! Font Awesome Pro 6.4.0 by @fontawesome - https://fontawesome.com License - https://fontawesome.com/license (Commercial License) Copyright 2023 Fonticons, Inc. --><defs><style>.fa-secondary{opacity:.4}</style></defs><path class="fa-primary" d="M329.4 9.4c12.5-12.5 32.8-12.5 45.3 0L525.3 160H576v32c0 88.4-71.6 160-160 160H384V301.3L233.4 150.6c-12.5-12.5-12.5-32.8 0-45.3l96-96z"/><path class="fa-secondary" d="M486.6 9.4l16 16c12.5 12.5 12.5 32.8 0 45.3L469.3 104 408 42.7 441.4 9.4c12.5-12.5 32.8-12.5 45.3 0zM266.7 184L328 245.3 70.6 502.6c-12.5 12.5-32.8 12.5-45.3 0l-16-16c-12.5-12.5-12.5-32.8 0-45.3L266.7 184zM576 160h32c17.7 0 32 14.3 32 32c0 123.7-100.3 224-224 224c-17.7 0-32-14.3-32-32V352h32c11 0 21.7-1.1 32-3.2c62.7-12.7 112.1-62.1 124.8-124.8c2.1-10.3 3.2-21 3.2-32V160z"/></svg>