<svg xmlns="http://www.w3.org/2000/svg" viewBox="0 0 448 512"><!--! Font Awesome Pro 6.4.0 by @fontawesome - https://fontawesome.com License - https://fontawesome.com/license (Commercial License) Copyright 2023 Fonticons, Inc. --><defs><style>.fa-secondary{opacity:.4}</style></defs><path class="fa-primary" d="M0 224C0 153.3 57.3 96 128 96H320c70.7 0 128 57.3 128 128V448c0 35.3-28.7 64-64 64H352V400 336c0-26.5-21.5-48-48-48H144c-26.5 0-48 21.5-48 48v64V512H64c-35.3 0-64-28.7-64-64V224zm144-48c-8.8 0-16 7.2-16 16s7.2 16 16 16H304c8.8 0 16-7.2 16-16s-7.2-16-16-16H144z"/><path class="fa-secondary" d="M184 56c0-4.4 3.6-8 8-8h64c4.4 0 8 3.6 8 8V96h48V56c0-30.9-25.1-56-56-56H192c-30.9 0-56 25.1-56 56V96h48V56zM352 384H96V512H352V384z"/></svg>