<svg xmlns="http://www.w3.org/2000/svg" viewBox="0 0 320 512"><!--! Font Awesome Pro 6.4.0 by @fontawesome - https://fontawesome.com License - https://fontawesome.com/license (Commercial License) Copyright 2023 Fonticons, Inc. --><defs><style>.fa-secondary{opacity:.4}</style></defs><path class="fa-primary" d="M64 224H176c26.5 0 48-21.5 48-48s-21.5-48-48-48H64v96zM0 265.7V224 101.6C0 80.8 16.8 64 37.6 64H176c61.9 0 112 50.1 112 112c0 24.2-7.7 46.6-20.7 64.9c31.7 19.8 52.7 55 52.7 95.1c0 61.9-50.1 112-112 112H41.7C18.7 448 0 429.3 0 406.3V288 265.7zM176 288H64v96H208c26.5 0 48-21.5 48-48s-21.5-48-48-48H176z"/><path class="fa-secondary" d="M144 0c17.7 0 32 14.3 32 32V64H112V32c0-17.7 14.3-32 32-32zm32 288v96H112V288h64zm0-160v96H112V128h64zM112 448h64v32c0 17.7-14.3 32-32 32s-32-14.3-32-32V448z"/></svg>