<svg xmlns="http://www.w3.org/2000/svg" viewBox="0 0 640 512"><!--! Font Awesome Pro 6.4.0 by @fontawesome - https://fontawesome.com License - https://fontawesome.com/license (Commercial License) Copyright 2023 Fonticons, Inc. --><defs><style>.fa-secondary{opacity:.4}</style></defs><path class="fa-primary" d="M160 0c88.4 0 160 71.6 160 160c0 92.5-87.2 174-117.7 199.7c-5.9 5-7.8 13.4-4.4 20.3l24.7 49.3c.9 1.8 1.4 3.8 1.4 5.8c0 7.1-5.8 12.9-12.9 12.9H108.9c-7.1 0-12.9-5.8-12.9-12.9c0-2 .5-4 1.4-5.8L122 379.9c3.5-6.9 1.6-15.3-4.4-20.3C87.2 334 0 252.5 0 160C0 71.6 71.6 0 160 0zM96 144c0-26.5 21.5-48 48-48c8.8 0 16-7.2 16-16s-7.2-16-16-16c-44.2 0-80 35.8-80 80c0 8.8 7.2 16 16 16s16-7.2 16-16z"/><path class="fa-secondary" d="M324.7 261.9c18.5 76.2 86.8 139.7 113 161.8c5.9 5 7.8 13.4 4.4 20.3l-24.7 49.3c-.9 1.8-1.4 3.8-1.4 5.8c0 7.1 5.8 12.9 12.9 12.9H531.1c7.1 0 12.9-5.8 12.9-12.9c0-2-.5-4-1.4-5.8L518 443.9c-3.5-6.9-1.6-15.3 4.4-20.3C552.8 398 640 316.5 640 224c0-88.4-71.6-160-160-160c-53.7 0-101.2 26.4-130.2 67c1.4 9.5 2.2 19.2 2.2 29c0 37.2-11.5 71.8-27.3 101.9zM464 160c-26.5 0-48 21.5-48 48c0 8.8-7.2 16-16 16s-16-7.2-16-16c0-44.2 35.8-80 80-80c8.8 0 16 7.2 16 16s-7.2 16-16 16z"/></svg>