<svg xmlns="http://www.w3.org/2000/svg" viewBox="0 0 384 512"><!--! Font Awesome Pro 6.4.0 by @fontawesome - https://fontawesome.com License - https://fontawesome.com/license (Commercial License) Copyright 2023 Fonticons, Inc. --><defs><style>.fa-secondary{opacity:.4}</style></defs><path class="fa-primary" d="M.2 60C2.4 42.5 18.4 30.1 36 32.2l7.9 1c48 6 84.1 46.8 84.1 95.3V384c0 17.7 14.3 32 32 32h32c70.7 0 128-57.3 128-128V256c0-17.7-14.3-32-32-32H272c-17.7 0-32-14.3-32-32s14.3-32 32-32h16c53 0 96 43 96 96v32c0 106-86 192-192 192H160c-53 0-96-43-96-96V128.5c0-16.1-12-29.8-28-31.8l-7.9-1C10.5 93.6-1.9 77.6 .2 60z"/><path class="fa-secondary" d="M64 160H32c-17.7 0-32 14.3-32 32s14.3 32 32 32H64V160zm64 64h32c17.7 0 32-14.3 32-32s-14.3-32-32-32H128v64z"/></svg>