<svg xmlns="http://www.w3.org/2000/svg" viewBox="0 0 512 512"><!--! Font Awesome Pro 6.4.0 by @fontawesome - https://fontawesome.com License - https://fontawesome.com/license (Commercial License) Copyright 2023 Fonticons, Inc. --><defs><style>.fa-secondary{opacity:.4}</style></defs><path class="fa-primary" d="M0 112C0 85.5 21.5 64 48 64H320V224H48c-26.5 0-48-21.5-48-48V112zM0 336c0-26.5 21.5-48 48-48H192V448H48c-26.5 0-48-21.5-48-48V336z"/><path class="fa-secondary" d="M320 224H464c26.5 0 48-21.5 48-48V112c0-26.5-21.5-48-48-48H320v64H448v32H320v64zM192 448H464c26.5 0 48-21.5 48-48V336c0-26.5-21.5-48-48-48H192v64H448v32H192v64z"/></svg>