<svg xmlns="http://www.w3.org/2000/svg" viewBox="0 0 640 512"><!--! Font Awesome Pro 6.4.0 by @fontawesome - https://fontawesome.com License - https://fontawesome.com/license (Commercial License) Copyright 2023 Fonticons, Inc. --><defs><style>.fa-secondary{opacity:.4}</style></defs><path class="fa-primary" d="M112 240c-13.3 0-24 10.7-24 24s10.7 24 24 24h34.1l7.2 50.3 22.9 160c.9 6.1 5.2 11.2 11.1 13s12.3 .1 16.5-4.4L255.6 451l52.8 56c3 3.2 7.2 5 11.6 5s8.6-1.8 11.6-5l52.8-56 51.9 55.9c4.2 4.5 10.6 6.2 16.5 4.4s10.2-6.9 11.1-13l22.9-160 7.2-50.3H528c13.3 0 24-10.7 24-24s-10.7-24-24-24H112zm349.6 48l-5.2 36.6-44-36.6h49.2zm-99.3 0l.6 .5L320 334.6l-42.8-46.1 .6-.5h84.4zm-134.5 0l-44 36.6L178.4 288h49.2zm159.8 21l48.7 40.5-51.6 54.7-42.7-46L387.5 309zm49.4 151.6l-30.5-32.9 41.5-44-11 76.8zM320 381.7l42.6 45.9L320 472.7l-42.6-45.2L320 381.7zm-21.8-23.5l-42.7 46-51.6-54.7L252.5 309l45.7 49.2zm-64.6 69.5l-30.5 32.9-11-76.8 41.5 44z"/><path class="fa-secondary" d="M6.8 187C24.7 153.1 116.7 0 320 0S615.3 153.1 633.2 187c4.9 9.4 6.8 19.1 6.8 28V331.2c0 25.3-14.9 48.2-38 58.5l-96.4 42.9L526.2 288H528c13.3 0 24-10.7 24-24s-10.7-24-24-24H480V224 160c0-17.7-14.3-32-32-32H192c-17.7 0-32 14.3-32 32v64 16H112c-13.3 0-24 10.7-24 24s10.7 24 24 24h1.8l20.7 144.6L38 389.7C14.9 379.4 0 356.5 0 331.2V214.9c0-8.9 1.8-18.6 6.8-28zM192 240V224 160H448v64 16H192z"/></svg>