<svg xmlns="http://www.w3.org/2000/svg" viewBox="0 0 576 512"><!--! Font Awesome Pro 6.4.0 by @fontawesome - https://fontawesome.com License - https://fontawesome.com/license (Commercial License) Copyright 2023 Fonticons, Inc. --><defs><style>.fa-secondary{opacity:.4}</style></defs><path class="fa-primary" d="M253.9 33.8c5.4-12.1 0-26.3-12.1-31.7s-26.3 0-31.7 12.1l-104 232c-5.4 12.1 0 26.3 12.1 31.7s26.3 0 31.7-12.1l104-232zm68.2 0l104 232c5.4 12.1 19.6 17.5 31.7 12.1s17.5-19.6 12.1-31.7l-104-232C360.5 2.1 346.3-3.3 334.2 2.1s-17.5 19.6-12.1 31.7z"/><path class="fa-secondary" d="M393 192l33.1 73.8c5.4 12.1 19.6 17.5 31.7 12.1s17.5-19.6 12.1-31.7L445.6 192H544c17.7 0 32 14.3 32 32s-14.3 32-32 32L492.1 463.5C485 492 459.4 512 430 512H146c-29.4 0-55-20-62.1-48.5L32 256c-17.7 0-32-14.3-32-32s14.3-32 32-32h98.4l-24.3 54.2c-5.4 12.1 0 26.3 12.1 31.7s26.3 0 31.7-12.1L183 192H393zM192 320c0-8.8-7.2-16-16-16s-16 7.2-16 16v96c0 8.8 7.2 16 16 16s16-7.2 16-16V320zm96-16c-8.8 0-16 7.2-16 16v96c0 8.8 7.2 16 16 16s16-7.2 16-16V320c0-8.8-7.2-16-16-16zm128 16c0-8.8-7.2-16-16-16s-16 7.2-16 16v96c0 8.8 7.2 16 16 16s16-7.2 16-16V320z"/></svg>