<svg xmlns="http://www.w3.org/2000/svg" viewBox="0 0 512 512"><!--! Font Awesome Pro 6.4.0 by @fontawesome - https://fontawesome.com License - https://fontawesome.com/license (Commercial License) Copyright 2023 Fonticons, Inc. --><defs><style>.fa-secondary{opacity:.4}</style></defs><path class="fa-primary" d="M32 256c-17.7 0-32 14.3-32 32s14.3 32 32 32H480c17.7 0 32-14.3 32-32s-14.3-32-32-32H32zm448 96H32v16c0 28.4 12.4 54 32 71.6V480c0 17.7 14.3 32 32 32s32-14.3 32-32V464H384v16c0 17.7 14.3 32 32 32s32-14.3 32-32V439.6c19.6-17.6 32-43.1 32-71.6V352z"/><path class="fa-secondary" d="M109.3 64C101.9 64 96 69.9 96 77.3V256H32V77.3C32 34.6 66.6 0 109.3 0c20.5 0 40.1 8.1 54.6 22.6l14.9 14.9C187.8 34 197.7 32 208 32c19.9 0 38 7.2 52 19.2c9.2-5.3 21.1-4 29 3.8c9.4 9.4 9.4 24.6 0 33.9L185 193c-9.4 9.4-24.6 9.4-33.9 0c-7.9-7.9-9.1-19.8-3.8-29c-12-14-19.2-32.1-19.2-52c0-10.3 2-20.2 5.5-29.2L118.6 67.9c-2.5-2.5-5.9-3.9-9.4-3.9z"/></svg>