<svg xmlns="http://www.w3.org/2000/svg" viewBox="0 0 576 512"><!--! Font Awesome Pro 6.4.0 by @fontawesome - https://fontawesome.com License - https://fontawesome.com/license (Commercial License) Copyright 2023 Fonticons, Inc. --><defs><style>.fa-secondary{opacity:.4}</style></defs><path class="fa-primary" d="M350.3 135.2c3.4-6.7 1.6-14.9-4.2-19.6s-14.2-4.7-20.1-.1l-160 128c-5.3 4.2-7.4 11.4-5.1 17.8s8.3 10.7 15.1 10.7h70.1L193.7 376.8c-3.4 6.7-1.6 14.9 4.3 19.6s14.2 4.7 20.1 .1l160-128c5.3-4.2 7.4-11.4 5.1-17.8s-8.3-10.7-15.1-10.7H297.9l52.4-104.8z"/><path class="fa-secondary" d="M299.2 96l-80 64H80c-8.8 0-16 7.2-16 16V336c0 8.8 7.2 16 16 16h90.3l-5.3 10.5c-8.9 17.8-5.8 39 7.2 53.5H80c-44.2 0-80-35.8-80-80V176c0-44.2 35.8-80 80-80H299.2zm25.7 256H464c8.8 0 16-7.2 16-16V176c0-8.8-7.2-16-16-16H373.7l5.3-10.5c8.9-17.8 5.8-39-7.2-53.5H464c44.2 0 80 35.8 80 80v16c17.7 0 32 14.3 32 32v64c0 17.7-14.3 32-32 32v16c0 44.2-35.8 80-80 80H244.8l80-64z"/></svg>