<svg xmlns="http://www.w3.org/2000/svg" viewBox="0 0 640 512"><!--! Font Awesome Pro 6.4.0 by @fontawesome - https://fontawesome.com License - https://fontawesome.com/license (Commercial License) Copyright 2023 Fonticons, Inc. --><defs><style>.fa-secondary{opacity:.4}</style></defs><path class="fa-primary" d="M5.1 9.2C13.3-1.2 28.4-3.1 38.8 5.1l592 464c10.4 8.2 12.3 23.3 4.1 33.7s-23.3 12.3-33.7 4.1L9.2 42.9C-1.2 34.7-3.1 19.6 5.1 9.2z"/><path class="fa-secondary" d="M570.7 422c3.4-6.6 5.3-14.1 5.3-22c0-26.5-21.5-48-48-48c-12.1 0-23.1 4.5-31.5 11.8L570.7 422zM445 323.5c22.1-33 35-72.8 35-115.5C480 93.1 386.9 0 272 0C211.2 0 156.6 26.1 118.5 67.6L220 147.2c14-11.9 32.1-19.2 52-19.2c44.2 0 80 35.8 80 80c0 12.9-3.1 25.1-8.5 35.9L445 323.5zm-127.6-100c1.7-4.9 2.6-10.1 2.6-15.5c0-26.5-21.5-48-48-48c-9.5 0-18.4 2.8-25.9 7.6l71.3 55.9zm190.9 273L465.8 463c-3.2 .7-6.4 1-9.8 1H416V423.8l-16.1-12.7C362.9 434.5 319 448 272 448c-54 0-103.9-17.9-144-48v64c0 26.5 21.5 48 48 48H384h32 40c19.3 0 37.3-5.7 52.3-15.5zM373 389.9L71.5 152.4C66.6 170.1 64 188.7 64 208c0 114.9 93.1 208 208 208c36.7 0 71.1-9.5 101-26.1z"/></svg>