<svg xmlns="http://www.w3.org/2000/svg" viewBox="0 0 640 512"><!--! Font Awesome Pro 6.4.0 by @fontawesome - https://fontawesome.com License - https://fontawesome.com/license (Commercial License) Copyright 2023 Fonticons, Inc. --><defs><style>.fa-secondary{opacity:.4}</style></defs><path class="fa-primary" d="M64 192H320c17.7 0 32 14.3 32 32v64c0 17.7-14.3 32-32 32H64c-17.7 0-32-14.3-32-32V224c0-17.7 14.3-32 32-32zM0 384c0-17.7 14.3-32 32-32H352c17.7 0 32 14.3 32 32s-14.3 32-32 32v64c0 17.7-14.3 32-32 32s-32-14.3-32-32V416H96v64c0 17.7-14.3 32-32 32s-32-14.3-32-32V416c-17.7 0-32-14.3-32-32z"/><path class="fa-secondary" d="M606.8 111.1c.8-4.9 1.2-10 1.2-15.1c0-53-43-96-96-96s-96 43-96 96c0 5.1 .4 10.2 1.2 15.1C397.1 125.7 384 149.3 384 176c0 44.2 35.8 80 80 80h16V480c0 17.7 14.3 32 32 32s32-14.3 32-32V256h16c44.2 0 80-35.8 80-80c0-26.7-13.1-50.3-33.2-64.9z"/></svg>