<svg xmlns="http://www.w3.org/2000/svg" viewBox="0 0 640 512"><!--! Font Awesome Pro 6.4.0 by @fontawesome - https://fontawesome.com License - https://fontawesome.com/license (Commercial License) Copyright 2023 Fonticons, Inc. --><defs><style>.fa-secondary{opacity:.4}</style></defs><path class="fa-primary" d="M32 224c-17.7 0-32 14.3-32 32s14.3 32 32 32L56.2 457c4.5 31.5 31.5 55 63.4 55h401c31.8 0 58.9-23.4 63.4-55L608 288c17.7 0 32-14.3 32-32s-14.3-32-32-32H32z"/><path class="fa-secondary" d="M128 24c0-13.3 10.7-24 24-24h80c13.3 0 24 10.7 24 24v8c8.8 0 16 7.2 16 16s-7.2 16-16 16H128c-8.8 0-16-7.2-16-16s7.2-16 16-16V24zm0 72H256c24.9 0 47.6 9.5 64.6 25c1.1 1 2.2 2 3.2 3.1C341.3 141.5 352 165.5 352 192H32c0-53 43-96 96-96zm447.1 96H384c0-40.7-19-76.9-48.6-100.4c5.2-5.6 11.5-10.3 18.6-13.6l13.2-6.2c5.3-2.5 10.8-4.4 16.4-5.7V24c0-13.3 10.7-24 24-24h80c13.3 0 24 10.7 24 24V66.1c5.6 1.3 11.1 3.2 16.4 5.7L541.2 78c21 9.9 34.4 31 34.4 54.2c0 12.3-3.7 23.8-10.1 33.3c5 7.8 8.4 16.9 9.6 26.5z"/></svg>