<svg xmlns="http://www.w3.org/2000/svg" viewBox="0 0 576 512"><!--! Font Awesome Pro 6.4.0 by @fontawesome - https://fontawesome.com License - https://fontawesome.com/license (Commercial License) Copyright 2023 Fonticons, Inc. --><defs><style>.fa-secondary{opacity:.4}</style></defs><path class="fa-primary" d="M168.4 2c1.3-1.3 3-2 4.8-2c5 0 8.4 5.2 6.7 9.9C154.3 80.5 190.4 176 288 176s133.7-95.5 108.1-166.1c-1.7-4.7 1.6-9.9 6.7-9.9c1.8 0 3.5 .7 4.8 2c30 30.3 48.4 72 48.4 118c0 26.2-6 50.9-16.6 73c22 2.4 43.8 9.1 64.2 20.5c34.5 19.3 59.1 48.9 72.1 82.5c.7 1.7 .5 3.7-.5 5.2c-2.2 3.7-7.4 4.3-10.6 1.3C511.8 254.3 418 245.1 371 324s8.1 153.1 77.6 173.2c4.2 1.2 6.3 5.9 4.1 9.6c-1 1.6-2.6 2.7-4.5 3c-36.5 5.9-75.2 .1-109.7-19.2c-20.4-11.4-37.4-26.5-50.5-43.8c-13.1 17.3-30.1 32.4-50.5 43.8c-34.5 19.3-73.3 25.2-109.7 19.2c-1.9-.3-3.5-1.4-4.5-3c-2.2-3.7-.1-8.4 4.1-9.6C196.9 477.1 252 403 205 324s-140.7-69.8-193.5-21.4c-3.2 2.9-8.4 2.3-10.6-1.3c-1-1.6-1.1-3.5-.5-5.2c12.9-33.6 37.5-63.2 72.1-82.5c20.4-11.4 42.2-18.1 64.2-20.5C126 170.9 120 146.2 120 120c0-46 18.5-87.7 48.4-118zM288 320a48 48 0 1 0 0-96 48 48 0 1 0 0 96z"/><path class="fa-secondary" d="M122.1 146.5c2.6 16.4 7.6 32 14.6 46.4c-15.4 1.7-30.6 5.4-45.4 11.4c7.2-21 17.7-40.5 30.9-57.9zM80 267.9c21.3-4.2 43.4-3.3 64 4.1c0 55.4 31.3 103.5 77.2 127.6c-3.5 21.6-13.8 41.2-28.5 57.3C125.7 422.3 80 352.5 80 272c0-1.4 0-2.7 0-4.1zM363.9 149.6c-22-13.7-48.1-21.6-75.9-21.6s-53.9 7.9-75.9 21.6c-16.6-14.3-28-33.3-34.3-54C209.7 75.6 247.5 64 288 64s78.3 11.6 110.3 31.6c-6.3 20.8-17.7 39.7-34.3 54zm-9.1 250C400.7 375.5 432 327.4 432 272c20.6-7.3 42.7-8.3 64-4.1c0 1.3 0 2.7 0 4.1c0 80.5-45.7 150.3-112.7 184.9c-14.7-16.2-25.1-35.7-28.5-57.3zm-35.9 78.1c-10.1 1.5-20.4 2.3-30.9 2.3s-20.8-.8-30.9-2.3c11.9-9.1 22.2-19.5 30.9-31c8.7 11.4 19 21.9 30.9 31zM484.8 204.4c-14.8-6-30.1-9.8-45.4-11.4c7-14.4 11.9-30 14.6-46.4c13.2 17.4 23.6 36.9 30.9 57.9z"/></svg>