<svg xmlns="http://www.w3.org/2000/svg" viewBox="0 0 640 512"><!--! Font Awesome Pro 6.4.0 by @fontawesome - https://fontawesome.com License - https://fontawesome.com/license (Commercial License) Copyright 2023 Fonticons, Inc. --><defs><style>.fa-secondary{opacity:.4}</style></defs><path class="fa-primary" d="M433.8 163.6c5.6-5 14.2-5 19.8 0c19.7 17.8 38.2 37 55.5 57.7c7.9-9.9 16.8-20.7 26.5-29.5c5.6-5.1 14.4-5.1 20 0c24.7 22.7 45.6 52.7 60.4 81.1c14.5 28 24.2 56.7 24.2 76.9c0 87.8-71.3 161.9-160 161.9c-89.7 0-160-74.2-160-161.9c0-26.4 12.7-58.6 32.4-90.6c20-32.4 48.1-66.1 81.4-95.8zM481 447.9c18 0 34-5 49-15c30-21 38-63 20-96c-2-4-4-8-7-12l-36 42s-58-74-62-79c-30 37-45 58-45 82c0 49 36 78 81 78z"/><path class="fa-secondary" d="M0 96V320c0 70.7 57.3 128 128 128H314.4c-11.3-19.5-19.4-41.2-23.4-64H128c-35.3 0-64-28.7-64-64s28.7-64 64-64H317.4c2.5-4.5 5.1-8.9 7.8-13.3c21.7-35.2 51.9-71.2 87.3-102.8c10-8.9 23-12.8 35.5-11.7V96c0-53-43-96-96-96H96C43 0 0 43 0 96zM288 350.1c0-20.2 5.3-41.3 13.8-62.1H128c-17.7 0-32 14.3-32 32s14.3 32 32 32H288l0-1.9zm193 97.8c18 0 34-5 49-15c30-21 38-63 20-96c-2-4-4-8-7-12l-36 42s-58-74-62-79c-30 37-45 58-45 82c0 49 36 78 81 78z"/></svg>