<svg xmlns="http://www.w3.org/2000/svg" viewBox="0 0 448 512"><!--! Font Awesome Pro 6.4.0 by @fontawesome - https://fontawesome.com License - https://fontawesome.com/license (Commercial License) Copyright 2023 Fonticons, Inc. --><defs><style>.fa-secondary{opacity:.4}</style></defs><path class="fa-primary" d="M128 288c-35.3 0-64 28.7-64 64s28.7 64 64 64H416c17.7 0 32 14.3 32 32s-14.3 32-32 32H128C57.3 480 0 422.7 0 352s57.3-128 128-128H368c44.2 0 80 35.8 80 80s-35.8 80-80 80H128c-17.7 0-32-14.3-32-32s14.3-32 32-32H368c8.8 0 16-7.2 16-16s-7.2-16-16-16H128z"/><path class="fa-secondary" d="M0 352V128C0 75 43 32 96 32H352c53 0 96 43 96 96V304c0-44.2-35.8-80-80-80H128C57.3 224 0 281.3 0 352z"/></svg>