<svg xmlns="http://www.w3.org/2000/svg" viewBox="0 0 576 512"><!--! Font Awesome Pro 6.4.0 by @fontawesome - https://fontawesome.com License - https://fontawesome.com/license (Commercial License) Copyright 2023 Fonticons, Inc. --><defs><style>.fa-secondary{opacity:.4}</style></defs><path class="fa-primary" d="M147.5 30.7c10.8 6.7 15.3 21 10.6 33.4l-22 57.8c-4.2 10.9-14.5 17.6-25.3 16.4l-33.3-3.6c-13.6 42.2-13.6 88.4 0 130.7l33.3-3.6c10.9-1.2 21.2 5.5 25.3 16.4l22 57.8c4.7 12.4 .2 26.7-10.6 33.4l-44 27.2c-9.7 6-21.9 4.2-29.8-4.3C-24.6 286-24.6 114 73.7 7.8C81.6-.7 93.8-2.5 103.5 3.5l44 27.2zM560 64l-8 32H400c-8.8 0-16-7.2-16-16s7.2-16 16-16H560zm-24 96l-8 32H400c-8.8 0-16-7.2-16-16s7.2-16 16-16H536zm-24 96l-8 32H400c-8.8 0-16-7.2-16-16s7.2-16 16-16H512zM208 384H496c26.5 0 48 21.5 48 48v32c0 26.5-21.5 48-48 48H208c-26.5 0-48-21.5-48-48V432c0-26.5 21.5-48 48-48zm144 96a32 32 0 1 0 0-64 32 32 0 1 0 0 64z"/><path class="fa-secondary" d="M224 384L196.3 52C194 24 216.1 0 244.2 0H535c20.8 0 36.1 19.6 31 39.8L560 64H400c-8.8 0-16 7.2-16 16s7.2 16 16 16H552l-16 64H400c-8.8 0-16 7.2-16 16s7.2 16 16 16H528l-16 64H400c-8.8 0-16 7.2-16 16s7.2 16 16 16H504l-24 96H224z"/></svg>