<svg xmlns="http://www.w3.org/2000/svg" viewBox="0 0 512 512"><!--! Font Awesome Pro 6.4.0 by @fontawesome - https://fontawesome.com License - https://fontawesome.com/license (Commercial License) Copyright 2023 Fonticons, Inc. --><defs><style>.fa-secondary{opacity:.4}</style></defs><path class="fa-primary" d="M0 32C0 14.3 14.3 0 32 0H480c17.7 0 32 14.3 32 32s-14.3 32-32 32H160V418.7c18.6 6.6 32 24.4 32 45.3c0 26.5-21.5 48-48 48s-48-21.5-48-48c0-20.9 13.4-38.7 32-45.3V64H32C14.3 64 0 49.7 0 32z"/><path class="fa-secondary" d="M128 128H20.4C9.1 128 0 118.9 0 107.6c0-2.4 .4-4.7 1.2-7L32 16H480l30.8 84.6c.8 2.2 1.2 4.6 1.2 7c0 11.3-9.1 20.4-20.4 20.4H160V32H128v96zm0 32v64H20.1C9 224 0 215 0 203.9c0-2.6 .5-5.1 1.4-7.5L16 160H128zm32 64V160H496l14.6 36.4c1 2.4 1.4 4.9 1.4 7.5c0 11.1-9 20.1-20.1 20.1H160z"/></svg>