<svg xmlns="http://www.w3.org/2000/svg" viewBox="0 0 512 512"><!--! Font Awesome Pro 6.4.0 by @fontawesome - https://fontawesome.com License - https://fontawesome.com/license (Commercial License) Copyright 2023 Fonticons, Inc. --><defs><style>.fa-secondary{opacity:.4}</style></defs><path class="fa-primary" d="M32 0C14.3 0 0 14.3 0 32S14.3 64 32 64h96V226.7c-18.6 6.6-32 24.4-32 45.3c0 26.5 21.5 48 48 48s48-21.5 48-48c0-20.9-13.4-38.7-32-45.3V64H480c17.7 0 32-14.3 32-32s-14.3-32-32-32H32z"/><path class="fa-secondary" d="M15 59.1L1.1 100.8c-.7 2.1-1.1 4.3-1.1 6.5C0 118.8 9.2 128 20.6 128H128V64H32c-6.3 0-12.1-1.8-17-4.9zM160 64v64H491.4c11.4 0 20.6-9.2 20.6-20.6c0-2.2-.4-4.4-1.1-6.5L497 59.1c-4.9 3.1-10.8 4.9-17 4.9H160zM24 160L1.1 228.8c-.7 2.1-1.1 4.3-1.1 6.5C0 246.8 9.2 256 20.6 256H98.7c4.8-13.6 15.6-24.4 29.3-29.3V160H24zM144 320c-20.9 0-38.7-13.4-45.3-32H24L1.1 356.8c-.7 2.1-1.1 4.3-1.1 6.5C0 374.8 9.2 384 20.6 384H491.4c11.4 0 20.6-9.2 20.6-20.6c0-2.2-.4-4.4-1.1-6.5L488 288H189.3c-6.6 18.6-24.4 32-45.3 32zm16-93.3c13.6 4.8 24.4 15.6 29.3 29.3H491.4c11.4 0 20.6-9.2 20.6-20.6c0-2.2-.4-4.4-1.1-6.5L488 160H160v66.7zM20.6 512H491.4c11.4 0 20.6-9.2 20.6-20.6c0-2.2-.4-4.4-1.1-6.5L488 416H24L1.1 484.8c-.7 2.1-1.1 4.3-1.1 6.5C0 502.8 9.2 512 20.6 512z"/></svg>