<svg xmlns="http://www.w3.org/2000/svg" viewBox="0 0 640 512"><!--! Font Awesome Pro 6.4.0 by @fontawesome - https://fontawesome.com License - https://fontawesome.com/license (Commercial License) Copyright 2023 Fonticons, Inc. --><defs><style>.fa-secondary{opacity:.4}</style></defs><path class="fa-primary" d="M443.7 160c3.5 0 7 1.3 9.8 3.8c19.7 17.8 38.2 37 55.5 57.7c7.9-9.9 16.8-20.7 26.5-29.5c5.6-5.1 14.4-5.1 20 0c24.7 22.7 45.6 52.7 60.4 81.1c14.5 28 24.2 58.8 24.2 79C640 440 568.7 512 480 512c-89.7 0-160-72.1-160-159.8c0-26.4 12.7-60.7 32.4-92.6c20-32.4 48.1-66.1 81.4-95.8c2.8-2.5 6.4-3.8 10-3.7zM481 448c18 0 34-5 49-15c30-21 38-63 20-96c-2-4-4-8-7-12l-36 42s-58-74-62-79c-30 37-45 58-45 82c0 49 36 78 81 78z"/><path class="fa-secondary" d="M384 32H128v80H384V32zM96 32C60.7 32 32 60.7 32 96v16H96V32zM32 240H240V144H32v96zm0 32v96H96V272H32zm0 144c0 35.3 28.7 64 64 64H240V400H32v16zm240 64h65.6c-20.2-22.6-35.1-50-43.1-80H272v80zM480 144.6V144h-.6c.2 .2 .4 .4 .6 .6zm-72.1-.6H272v96h54.9c20.6-32.8 48.5-66.2 81-96zM309 272H128v96H288.8c-.5-5.9-.8-11.9-.8-17.9c0-25.4 8.5-52.4 21-78.1zM480 96c0-35.3-28.7-64-64-64v80h64V96z"/></svg>