<svg xmlns="http://www.w3.org/2000/svg" viewBox="0 0 448 512"><!--! Font Awesome Pro 6.4.0 by @fontawesome - https://fontawesome.com License - https://fontawesome.com/license (Commercial License) Copyright 2023 Fonticons, Inc. --><defs><style>.fa-secondary{opacity:.4}</style></defs><path class="fa-primary" d="M72 128a24 24 0 1 0 0-48 24 24 0 1 0 0 48zm304 0a24 24 0 1 0 0-48 24 24 0 1 0 0 48zM96 408a24 24 0 1 0 -48 0 24 24 0 1 0 48 0zm280 24a24 24 0 1 0 0-48 24 24 0 1 0 0 48z"/><path class="fa-secondary" d="M0 96C0 60.7 28.7 32 64 32H384c35.3 0 64 28.7 64 64V416c0 35.3-28.7 64-64 64H64c-35.3 0-64-28.7-64-64V96zm96 8a24 24 0 1 0 -48 0 24 24 0 1 0 48 0zm280 24a24 24 0 1 0 0-48 24 24 0 1 0 0 48zM96 408a24 24 0 1 0 -48 0 24 24 0 1 0 48 0zm280 24a24 24 0 1 0 0-48 24 24 0 1 0 0 48z"/></svg>