<svg xmlns="http://www.w3.org/2000/svg" viewBox="0 0 448 512"><!--! Font Awesome Pro 6.4.0 by @fontawesome - https://fontawesome.com License - https://fontawesome.com/license (Commercial License) Copyright 2023 Fonticons, Inc. --><defs><style>.fa-secondary{opacity:.4}</style></defs><path class="fa-primary" d="M64 112H0v32H208v96H0v32H64v96H0v32H208v80h32V400H448V368H384V272h64V240H240V144H448V112H384V32H352v80H96V32H64v80zM352 368H96V272H352v96z"/><path class="fa-secondary" d="M96 32v80H352V32H96zM64 112V32C28.7 32 0 60.7 0 96v16H64zM0 144v96H208V144H0zM0 368H64V272H0v96zm0 32v16c0 35.3 28.7 64 64 64H208V400H0zm240 0v80H384c35.3 0 64-28.7 64-64V400H240zm208-32V272H384v96h64zm-96 0V272H96v96H352zm96-224H240v96H448V144zm0-32V96c0-35.3-28.7-64-64-64v80h64z"/></svg>