<svg xmlns="http://www.w3.org/2000/svg" viewBox="0 0 512 512"><!--! Font Awesome Pro 6.4.0 by @fontawesome - https://fontawesome.com License - https://fontawesome.com/license (Commercial License) Copyright 2023 Fonticons, Inc. --><defs><style>.fa-secondary{opacity:.4}</style></defs><path class="fa-primary" d="M48 96c26.5 0 48 21.5 48 48V368c0 26.5 21.5 48 48 48s48-21.5 48-48s-21.5-48-48-48H128V224h16c79.5 0 144 64.5 144 144s-64.5 144-144 144S0 447.5 0 368V144c0-26.5 21.5-48 48-48z"/><path class="fa-secondary" d="M224 0c-17.7 0-32 14.3-32 32s14.3 32 32 32c123.7 0 224 100.3 224 224c0 17.7 14.3 32 32 32s32-14.3 32-32C512 128.9 383.1 0 224 0zm0 96c-17.7 0-32 14.3-32 32s14.3 32 32 32c70.7 0 128 57.3 128 128c0 17.7 14.3 32 32 32s32-14.3 32-32c0-106-86-192-192-192z"/></svg>