<svg xmlns="http://www.w3.org/2000/svg" viewBox="0 0 640 512"><!--! Font Awesome Pro 6.4.0 by @fontawesome - https://fontawesome.com License - https://fontawesome.com/license (Commercial License) Copyright 2023 Fonticons, Inc. --><defs><style>.fa-secondary{opacity:.4}</style></defs><path class="fa-primary" d="M320 0c13.3 0 24 10.7 24 24v80c0 13.3-10.7 24-24 24s-24-10.7-24-24V24c0-13.3 10.7-24 24-24zM167 71c9.4-9.4 24.6-9.4 33.9 0l48 48c9.4 9.4 9.4 24.6 0 33.9s-24.6 9.4-33.9 0l-48-48c-9.4-9.4-9.4-24.6 0-33.9zM473 71c9.4 9.4 9.4 24.6 0 33.9l-48 48c-9.4 9.4-24.6 9.4-33.9 0s-9.4-24.6 0-33.9l48-48c9.4-9.4 24.6-9.4 33.9 0z"/><path class="fa-secondary" d="M80 192c26.1 0 49.3 12.5 63.9 31.8c10.1 13.3 25.7 23.8 42.1 20.5l70.6-14.1c17.3-3.5 34.2 7.8 37.7 25.1L320 384 210.6 405.9C199 408.2 192 420.1 192 432c0 44.2-35.8 80-80 80s-80-35.8-80-80c0-24.5 11.1-46.5 28.5-61.2c3.7-3.1 5.7-7.9 4.8-12.6s-4.7-8.4-9.3-9.8C23.5 338.1 0 307.8 0 272c0-44.2 35.8-80 80-80zm416.1 31.8C510.7 204.5 533.9 192 560 192c44.2 0 80 35.8 80 80c0 35.8-23.5 66.1-55.9 76.3c-4.6 1.5-8.3 5.1-9.3 9.8s1.1 9.5 4.8 12.6C596.9 385.5 608 407.5 608 432c0 44.2-35.8 80-80 80s-80-35.8-80-80c0-11.9-7-23.8-18.6-26.1L320 384l25.7-128.6c3.5-17.3 20.3-28.6 37.7-25.1L454 244.4c16.4 3.3 32.1-7.2 42.1-20.5z"/></svg>