<svg xmlns="http://www.w3.org/2000/svg" viewBox="0 0 640 512"><!--! Font Awesome Pro 6.4.0 by @fontawesome - https://fontawesome.com License - https://fontawesome.com/license (Commercial License) Copyright 2023 Fonticons, Inc. --><defs><style>.fa-secondary{opacity:.4}</style></defs><path class="fa-primary" d="M89.7 405.1L320 451.2l230.3-46.1c15-3 25.7-16.1 25.7-31.4V28.8l25.7-5.1C621.5 19.7 640 34.8 640 55V421.8c0 15.3-10.8 28.4-25.7 31.4L320 512 25.7 453.1C10.8 450.2 0 437 0 421.8V55C0 34.8 18.5 19.7 38.3 23.7L64 28.8v345c0 15.3 10.8 28.4 25.7 31.4z"/><path class="fa-secondary" d="M64 373.8c0 15.3 10.8 28.4 25.7 31.4L304 448V32L100.6 2.2C81.3-.7 64 14.3 64 33.8V373.8zM576 33.8c0-19.5-17.3-34.5-36.6-31.7L336 32V448l214.3-42.9c15-3 25.7-16.1 25.7-31.4V33.8z"/></svg>