<svg xmlns="http://www.w3.org/2000/svg" viewBox="0 0 448 512"><!--! Font Awesome Pro 6.4.0 by @fontawesome - https://fontawesome.com License - https://fontawesome.com/license (Commercial License) Copyright 2023 Fonticons, Inc. --><defs><style>.fa-secondary{opacity:.4}</style></defs><path class="fa-primary" d="M448 96c0-53-43-96-96-96H64 32C14.3 0 0 14.3 0 32V352c0 17.7 14.3 32 32 32H96h96H352c17.7 0 32 14.3 32 32s-14.3 32-32 32H192 96 32c-17.7 0-32 14.3-32 32s14.3 32 32 32H64 352c53 0 96-43 96-96V96zM138.7 208l-13.9 24h27.7l-13.9-24zm13.9-24l27.7 48h55.4l27.7-48-27.7-48H180.3l-27.7 48zm-27.7 0L97.1 136c-6.2-10.7 1.5-24 13.9-24h55.4l27.7-48c6.2-10.7 21.6-10.7 27.7 0l27.7 48H305c12.3 0 20 13.3 13.9 24l-27.7 48 27.7 48c6.2 10.7-1.5 24-13.9 24H249.6l-27.7 48c-6.2 10.7-21.6 10.7-27.7 0l-27.7-48H111c-12.3 0-20-13.3-13.9-24l27.7-48zm27.7-48H124.9l13.9 24 13.9-24zm41.6-24h27.7L208 88l-13.9 24zm69.3 24l13.9 24 13.9-24H263.4zm13.9 72l-13.9 24h27.7l-13.9-24zm-55.4 48H194.1L208 280l13.9-24z"/><path class="fa-secondary" d="M384 416c0-17.7-14.3-32-32-32H32v64H352c17.7 0 32-14.3 32-32z"/></svg>