<svg xmlns="http://www.w3.org/2000/svg" viewBox="0 0 384 512"><!--! Font Awesome Pro 6.4.0 by @fontawesome - https://fontawesome.com License - https://fontawesome.com/license (Commercial License) Copyright 2023 Fonticons, Inc. --><defs><style>.fa-secondary{opacity:.4}</style></defs><path class="fa-primary" d="M0 487.7V48C0 21.5 21.5 0 48 0H96V322.1c0 12.8 14.2 20.4 24.9 13.3L192 288l71.1 47.4c10.6 7.1 24.9-.5 24.9-13.3V0h48c26.5 0 48 21.5 48 48V487.7c0 13.4-10.9 24.3-24.3 24.3c-5 0-9.9-1.5-14-4.4L192 400 38.3 507.6c-4.1 2.9-9 4.4-14 4.4C10.9 512 0 501.1 0 487.7z"/><path class="fa-secondary" d="M192 288l-71.1 47.4c-10.6 7.1-24.9-.5-24.9-13.3V0H288V322.1c0 12.8-14.2 20.4-24.9 13.3L192 288z"/></svg>