<svg xmlns="http://www.w3.org/2000/svg" viewBox="0 0 640 512"><!--! Font Awesome Pro 6.4.0 by @fontawesome - https://fontawesome.com License - https://fontawesome.com/license (Commercial License) Copyright 2023 Fonticons, Inc. --><defs><style>.fa-secondary{opacity:.4}</style></defs><path class="fa-primary" d="M5.1 9.2C13.3-1.2 28.4-3.1 38.8 5.1l592 464c10.4 8.2 12.3 23.3 4.1 33.7s-23.3 12.3-33.7 4.1L9.2 42.9C-1.2 34.7-3.1 19.6 5.1 9.2z"/><path class="fa-secondary" d="M512 376V48c0-26.5-21.5-48-48-48H176c-26.5 0-48 21.5-48 48V75L512 376zm-2.2 121.7L128 196.8V487.7c0 13.4 10.9 24.3 24.3 24.3c5 0 9.9-1.5 14-4.4L320 400 473.7 507.6c4.1 2.9 9 4.4 14 4.4c9.9 0 18.4-5.9 22.2-14.3z"/></svg>