<svg xmlns="http://www.w3.org/2000/svg" viewBox="0 0 448 512"><!--! Font Awesome Pro 6.4.0 by @fontawesome - https://fontawesome.com License - https://fontawesome.com/license (Commercial License) Copyright 2023 Fonticons, Inc. --><defs><style>.fa-secondary{opacity:.4}</style></defs><path class="fa-primary" d="M96 0C43 0 0 43 0 96V416c0 53 43 96 96 96H384h32c17.7 0 32-14.3 32-32s-14.3-32-32-32H352 256 96c-17.7 0-32-14.3-32-32s14.3-32 32-32H256h96 64c17.7 0 32-14.3 32-32V32c0-17.7-14.3-32-32-32H384 96zM320 112c0 20.9-12.6 39.5-32 51.2V176c0 8.8-7.2 16-16 16H208c-8.8 0-16-7.2-16-16V163.2c-19.4-11.7-32-30.3-32-51.2c0-35.3 35.8-64 80-64s80 28.7 80 64zM208 128a16 16 0 1 0 0-32 16 16 0 1 0 0 32zm80-16a16 16 0 1 0 -32 0 16 16 0 1 0 32 0zM134.3 209.3L240 254.6l105.7-45.3c8.1-3.5 17.5 .3 21 8.4s-.3 17.5-8.4 21L280.6 272l77.7 33.3c8.1 3.5 11.9 12.9 8.4 21s-12.9 11.9-21 8.4L240 289.4 134.3 334.7c-8.1 3.5-17.5-.3-21-8.4s.3-17.5 8.4-21L199.4 272l-77.7-33.3c-8.1-3.5-11.9-12.9-8.4-21s12.9-11.9 21-8.4z"/><path class="fa-secondary" d="M64 416c0-17.7 14.3-32 32-32H416v64H96c-17.7 0-32-14.3-32-32z"/></svg>