<svg xmlns="http://www.w3.org/2000/svg" viewBox="0 0 640 512"><!--! Font Awesome Pro 6.4.0 by @fontawesome - https://fontawesome.com License - https://fontawesome.com/license (Commercial License) Copyright 2023 Fonticons, Inc. --><defs><style>.fa-secondary{opacity:.4}</style></defs><path class="fa-primary" d="M120 48C97.9 48 80 65.9 80 88v72H64c-11.7 0-22.6 3.1-32 8.6V88C32 39.4 71.4 0 120 0H520c48.6 0 88 39.4 88 88v80.6c-9.4-5.4-20.3-8.6-32-8.6H560V88c0-22.1-17.9-40-40-40H120zM448 160H384c0-17.7 14.3-32 32-32s32 14.3 32 32zm-96 0H288c0-17.7 14.3-32 32-32s32 14.3 32 32zm-96 0H192c0-17.7 14.3-32 32-32s32 14.3 32 32zM176 416a80 80 0 1 0 0-160 80 80 0 1 0 0 160zm0-192a112 112 0 1 1 0 224 112 112 0 1 1 0-224zM544 336a80 80 0 1 0 -160 0 80 80 0 1 0 160 0zm-192 0a112 112 0 1 1 224 0 112 112 0 1 1 -224 0z"/><path class="fa-secondary" d="M0 224c0-35.3 28.7-64 64-64H576c35.3 0 64 28.7 64 64V448c0 35.3-28.7 64-64 64H64c-35.3 0-64-28.7-64-64V224zM288 336A112 112 0 1 0 64 336a112 112 0 1 0 224 0zM464 448a112 112 0 1 0 0-224 112 112 0 1 0 0 224z"/></svg>