<svg xmlns="http://www.w3.org/2000/svg" viewBox="0 0 512 512"><!--! Font Awesome Pro 6.4.0 by @fontawesome - https://fontawesome.com License - https://fontawesome.com/license (Commercial License) Copyright 2023 Fonticons, Inc. --><defs><style>.fa-secondary{opacity:.4}</style></defs><path class="fa-primary" d="M63.3 0H128V240c0 8.8 7.2 16 16 16s16-7.2 16-16V0H264c13.3 0 24 10.7 24 24V244.7c0 27.3 15.4 52.2 39.8 64.4l112.4 56.2c24.4 12.2 39.8 37.1 39.8 64.4V464H320L160 416H32V391.8c0-12.5 1.6-24.8 4.3-36.6C43.2 325.5 56 265.2 56 232C56 154.3 34.6 47.1 32.6 37.4c-.5-2.3-.6-4.3-.6-6.2C32 14 46 0 63.3 0z"/><path class="fa-secondary" d="M480 464H320L160 416H32v72c0 13.3 10.7 24 24 24h80c13.3 0 24-10.7 24-24V472.9l125 34.7c10.5 2.9 21.3 4.4 32.1 4.4H456h32c13.3 0 24-10.7 24-24s-10.7-24-24-24h-8z"/></svg>