<svg xmlns="http://www.w3.org/2000/svg" viewBox="0 0 448 512"><!--! Font Awesome Pro 6.4.0 by @fontawesome - https://fontawesome.com License - https://fontawesome.com/license (Commercial License) Copyright 2023 Fonticons, Inc. --><defs><style>.fa-secondary{opacity:.4}</style></defs><path class="fa-primary" d="M0 64C0 46.3 14.3 32 32 32H416c17.7 0 32 14.3 32 32s-14.3 32-32 32H32C14.3 96 0 81.7 0 64z"/><path class="fa-secondary" d="M64 160A32 32 0 1 0 0 160a32 32 0 1 0 64 0zm384 0a32 32 0 1 0 -64 0 32 32 0 1 0 64 0zm-256 0a32 32 0 1 0 64 0 32 32 0 1 0 -64 0zM64 352A32 32 0 1 0 0 352a32 32 0 1 0 64 0zm320 0a32 32 0 1 0 64 0 32 32 0 1 0 -64 0zm-128 0a32 32 0 1 0 -64 0 32 32 0 1 0 64 0zM0 256a32 32 0 1 0 64 0A32 32 0 1 0 0 256zm448 0a32 32 0 1 0 -64 0 32 32 0 1 0 64 0zm-256 0a32 32 0 1 0 64 0 32 32 0 1 0 -64 0zM64 448A32 32 0 1 0 0 448a32 32 0 1 0 64 0zm320 0a32 32 0 1 0 64 0 32 32 0 1 0 -64 0zm-128 0a32 32 0 1 0 -64 0 32 32 0 1 0 64 0zM96 256a32 32 0 1 0 64 0 32 32 0 1 0 -64 0zm64 192a32 32 0 1 0 -64 0 32 32 0 1 0 64 0zm128 0a32 32 0 1 0 64 0 32 32 0 1 0 -64 0zm64-192a32 32 0 1 0 -64 0 32 32 0 1 0 64 0z"/></svg>