<svg xmlns="http://www.w3.org/2000/svg" viewBox="0 0 448 512"><!--! Font Awesome Pro 6.4.0 by @fontawesome - https://fontawesome.com License - https://fontawesome.com/license (Commercial License) Copyright 2023 Fonticons, Inc. --><defs><style>.fa-secondary{opacity:.4}</style></defs><path class="fa-primary" d="M192 448c0 17.7 14.3 32 32 32s32-14.3 32-32l0-160 160 0c17.7 0 32-14.3 32-32s-14.3-32-32-32l-160 0 0-160c0-17.7-14.3-32-32-32s-32 14.3-32 32l0 160L32 224c-17.7 0-32 14.3-32 32s14.3 32 32 32l160 0 0 160z"/><path class="fa-secondary" d="M448 448a32 32 0 1 1 -64 0 32 32 0 1 1 64 0zm0-96a32 32 0 1 1 -64 0 32 32 0 1 1 64 0zM64 352A32 32 0 1 1 0 352a32 32 0 1 1 64 0zM384 160a32 32 0 1 1 64 0 32 32 0 1 1 -64 0zM64 160A32 32 0 1 1 0 160a32 32 0 1 1 64 0zM384 64a32 32 0 1 1 64 0 32 32 0 1 1 -64 0zM0 64a32 32 0 1 1 64 0A32 32 0 1 1 0 64zM64 448A32 32 0 1 1 0 448a32 32 0 1 1 64 0zM288 64a32 32 0 1 1 64 0 32 32 0 1 1 -64 0zm64 384a32 32 0 1 1 -64 0 32 32 0 1 1 64 0zM96 64a32 32 0 1 1 64 0A32 32 0 1 1 96 64zm64 384a32 32 0 1 1 -64 0 32 32 0 1 1 64 0z"/></svg>