<svg xmlns="http://www.w3.org/2000/svg" viewBox="0 0 448 512"><!--! Font Awesome Pro 6.4.0 by @fontawesome - https://fontawesome.com License - https://fontawesome.com/license (Commercial License) Copyright 2023 Fonticons, Inc. --><defs><style>.fa-secondary{opacity:.4}</style></defs><path class="fa-primary" d="M448 448c0 17.7-14.3 32-32 32L32 480c-17.7 0-32-14.3-32-32s14.3-32 32-32l384 0c17.7 0 32 14.3 32 32z"/><path class="fa-secondary" d="M384 352a32 32 0 1 0 64 0 32 32 0 1 0 -64 0zM0 352a32 32 0 1 0 64 0A32 32 0 1 0 0 352zm256 0a32 32 0 1 0 -64 0 32 32 0 1 0 64 0zM384 160a32 32 0 1 0 64 0 32 32 0 1 0 -64 0zM64 160A32 32 0 1 0 0 160a32 32 0 1 0 64 0zm128 0a32 32 0 1 0 64 0 32 32 0 1 0 -64 0zm256 96a32 32 0 1 0 -64 0 32 32 0 1 0 64 0zM0 256a32 32 0 1 0 64 0A32 32 0 1 0 0 256zm256 0a32 32 0 1 0 -64 0 32 32 0 1 0 64 0zM384 64a32 32 0 1 0 64 0 32 32 0 1 0 -64 0zM64 64A32 32 0 1 0 0 64a32 32 0 1 0 64 0zm128 0a32 32 0 1 0 64 0 32 32 0 1 0 -64 0zM352 256a32 32 0 1 0 -64 0 32 32 0 1 0 64 0zM288 64a32 32 0 1 0 64 0 32 32 0 1 0 -64 0zM160 64A32 32 0 1 0 96 64a32 32 0 1 0 64 0zM96 256a32 32 0 1 0 64 0 32 32 0 1 0 -64 0z"/></svg>