<svg xmlns="http://www.w3.org/2000/svg" viewBox="0 0 448 512"><!--! Font Awesome Pro 6.4.0 by @fontawesome - https://fontawesome.com License - https://fontawesome.com/license (Commercial License) Copyright 2023 Fonticons, Inc. --><defs><style>.fa-secondary{opacity:.4}</style></defs><path class="fa-primary" d="M0 256c0-17.7 14.3-32 32-32l384 0c17.7 0 32 14.3 32 32s-14.3 32-32 32L32 288c-17.7 0-32-14.3-32-32z"/><path class="fa-secondary" d="M32 416a32 32 0 1 0 0 64 32 32 0 1 0 0-64zm96 0a32 32 0 1 0 0 64 32 32 0 1 0 0-64zm0-384a32 32 0 1 0 0 64 32 32 0 1 0 0-64zM320 480a32 32 0 1 0 0-64 32 32 0 1 0 0 64zm0-448a32 32 0 1 0 0 64 32 32 0 1 0 0-64zM224 480a32 32 0 1 0 0-64 32 32 0 1 0 0 64zm0-448a32 32 0 1 0 0 64 32 32 0 1 0 0-64zM416 480a32 32 0 1 0 0-64 32 32 0 1 0 0 64zm0-384a32 32 0 1 0 0-64 32 32 0 1 0 0 64zM32 32a32 32 0 1 0 0 64 32 32 0 1 0 0-64zM224 384a32 32 0 1 0 0-64 32 32 0 1 0 0 64zm192-64a32 32 0 1 0 0 64 32 32 0 1 0 0-64zM32 384a32 32 0 1 0 0-64 32 32 0 1 0 0 64zM416 128a32 32 0 1 0 0 64 32 32 0 1 0 0-64zM32 192a32 32 0 1 0 0-64 32 32 0 1 0 0 64zm192-64a32 32 0 1 0 0 64 32 32 0 1 0 0-64z"/></svg>