<svg xmlns="http://www.w3.org/2000/svg" viewBox="0 0 512 512"><!--! Font Awesome Pro 6.4.0 by @fontawesome - https://fontawesome.com License - https://fontawesome.com/license (Commercial License) Copyright 2023 Fonticons, Inc. --><defs><style>.fa-secondary{opacity:.4}</style></defs><path class="fa-primary" d="M27.4 256C12.3 256 0 268.3 0 283.4c0 70.5 44.4 130.7 106.7 154.1l1.8 14.4c2 16 15.6 28 31.8 28H371.8c16.1 0 29.8-12 31.8-28l1.8-14.4C467.6 414.1 512 353.9 512 283.4c0-15.1-12.3-27.4-27.4-27.4H27.4z"/><path class="fa-secondary" d="M8.6 224C3.1 214.6 0 203.7 0 192c0-35.3 28.7-64 64-64c.5 0 1.1 0 1.6 0C73 91.5 105.3 64 144 64c15 0 29 4.1 40.9 11.2C198.2 49.6 225.1 32 256 32s57.8 17.6 71.1 43.2C339 68.1 353 64 368 64c38.7 0 71 27.5 78.4 64c.5 0 1.1 0 1.6 0c35.3 0 64 28.7 64 64c0 11.7-3.1 22.6-8.6 32H8.6z"/></svg>