<svg xmlns="http://www.w3.org/2000/svg" viewBox="0 0 512 512"><!--! Font Awesome Pro 6.4.0 by @fontawesome - https://fontawesome.com License - https://fontawesome.com/license (Commercial License) Copyright 2023 Fonticons, Inc. --><defs><style>.fa-secondary{opacity:.4}</style></defs><path class="fa-primary" d="M27.4 256C12.3 256 0 268.3 0 283.4c0 70.5 44.4 130.7 106.7 154.1l1.8 14.4c2 16 15.6 28 31.8 28H371.8c16.1 0 29.8-12 31.8-28l1.8-14.4C467.6 414.1 512 353.9 512 283.4c0-15.1-12.3-27.4-27.4-27.4H27.4z"/><path class="fa-secondary" d="M176 56c0-13.3 10.7-24 24-24h16c13.3 0 24 10.7 24 24s-10.7 24-24 24H200c-13.3 0-24-10.7-24-24zm24 48h16c13.3 0 24 10.7 24 24s-10.7 24-24 24H200c-13.3 0-24-10.7-24-24s10.7-24 24-24zM32 200c0-13.3 10.7-24 24-24H72c13.3 0 24 10.7 24 24s-10.7 24-24 24H56c-13.3 0-24-10.7-24-24zm192 0c0-13.3 10.7-24 24-24h16c13.3 0 24 10.7 24 24s-10.7 24-24 24H248c-13.3 0-24-10.7-24-24zm-96 0c0-13.3 10.7-24 24-24h16c13.3 0 24 10.7 24 24s-10.7 24-24 24H152c-13.3 0-24-10.7-24-24zm-24-96h16c13.3 0 24 10.7 24 24s-10.7 24-24 24H104c-13.3 0-24-10.7-24-24s10.7-24 24-24zm216 96c0-13.3 10.7-24 24-24h16c13.3 0 24 10.7 24 24s-10.7 24-24 24H344c-13.3 0-24-10.7-24-24zm-24-96h16c13.3 0 24 10.7 24 24s-10.7 24-24 24H296c-13.3 0-24-10.7-24-24s10.7-24 24-24zm120 96c0-13.3 10.7-24 24-24h16c13.3 0 24 10.7 24 24s-10.7 24-24 24H440c-13.3 0-24-10.7-24-24zm-24-96h16c13.3 0 24 10.7 24 24s-10.7 24-24 24H392c-13.3 0-24-10.7-24-24s10.7-24 24-24zM296 32h16c13.3 0 24 10.7 24 24s-10.7 24-24 24H296c-13.3 0-24-10.7-24-24s10.7-24 24-24z"/></svg>