<svg xmlns="http://www.w3.org/2000/svg" viewBox="0 0 512 512"><!--! Font Awesome Pro 6.4.0 by @fontawesome - https://fontawesome.com License - https://fontawesome.com/license (Commercial License) Copyright 2023 Fonticons, Inc. --><defs><style>.fa-secondary{opacity:.4}</style></defs><path class="fa-primary" d="M33.6 224C15.4 224 .9 239.3 2 257.5c5.4 91.7 59.7 169.7 136.4 209.7l1.2 9.7c2.5 20 19.5 35 39.7 35H332.7c20.2 0 37.2-15 39.7-35l1.2-9.7c76.8-40 131-118 136.4-209.7c1.1-18.2-13.4-33.5-31.6-33.5H33.6z"/><path class="fa-secondary" d="M217.6 128c-15.4 37.3-56.9 64-105.6 64C50.1 192 0 149 0 96S50.1 0 112 0c48.8 0 90.3 26.7 105.6 64H480c17.7 0 32 14.3 32 32s-14.3 32-32 32H217.6z"/></svg>