<svg xmlns="http://www.w3.org/2000/svg" viewBox="0 0 448 512"><!--! Font Awesome Pro 6.4.0 by @fontawesome - https://fontawesome.com License - https://fontawesome.com/license (Commercial License) Copyright 2023 Fonticons, Inc. --><defs><style>.fa-secondary{opacity:.4}</style></defs><path class="fa-primary" d="M160 160H0V416c0 35.3 28.7 64 64 64H384c35.3 0 64-28.7 64-64V160H288v96c0 17.7-14.3 32-32 32H192c-17.7 0-32-14.3-32-32V160z"/><path class="fa-secondary" d="M50.7 58.5C58.9 42.3 75.5 32 93.7 32H192L160 160H0L50.7 58.5zM288 160v96c0 17.7-14.3 32-32 32H192c-17.7 0-32-14.3-32-32V160H288zm0 0L256 32h98.3c18.2 0 34.8 10.3 42.9 26.5L448 160H288z"/></svg>