<svg xmlns="http://www.w3.org/2000/svg" viewBox="0 0 448 512"><!--! Font Awesome Pro 6.4.0 by @fontawesome - https://fontawesome.com License - https://fontawesome.com/license (Commercial License) Copyright 2023 Fonticons, Inc. --><defs><style>.fa-secondary{opacity:.4}</style></defs><path class="fa-primary" d="M448 160H240V32H208V160H0V416c0 35.3 28.7 64 64 64H384c35.3 0 64-28.7 64-64V160zM337 265L209 393c-9.4 9.4-24.6 9.4-33.9 0l-64-64c-9.4-9.4-9.4-24.6 0-33.9s24.6-9.4 33.9 0l47 47L303 231c9.4-9.4 24.6-9.4 33.9 0s9.4 24.6 0 33.9z"/><path class="fa-secondary" d="M93.7 32C75.5 32 58.9 42.3 50.7 58.5L0 160H208V32H93.7zM240 32V160H448L397.3 58.5C389.1 42.3 372.5 32 354.3 32H240z"/></svg>