<svg xmlns="http://www.w3.org/2000/svg" viewBox="0 0 640 512"><!--! Font Awesome Pro 6.4.0 by @fontawesome - https://fontawesome.com License - https://fontawesome.com/license (Commercial License) Copyright 2023 Fonticons, Inc. --><defs><style>.fa-secondary{opacity:.4}</style></defs><path class="fa-primary" d="M480.9 3.1c24.8 9.3 37.4 37 28.1 61.8l-27.5 73.4L320 158.5l-7.2-.9c4.6-8.8 7.2-18.9 7.2-29.6c0-35.3-28.7-64-64-64s-64 28.7-64 64c0 5.1 .6 10 1.7 14.7l-65.5-8.2c-.1-2.2-.2-4.3-.2-6.5C128 57.3 185.3 0 256 0c69.6 0 126.2 55.6 128 124.7l35.1-93.6c9.3-24.8 37-37.4 61.8-28.1zM236.6 331L320 192l83.4 139c7.4 12.4 22.3 18.3 36.2 14.3l136.4-39V410.5c0 22-15 41.2-36.4 46.6l-204.1 51c-10.2 2.5-20.9 2.5-31 0l-204.1-51C79 451.7 64 432.5 64 410.5V306.3l136.4 39c13.9 4 28.8-1.9 36.2-14.3z"/><path class="fa-secondary" d="M17.2 253.5c-9 17.9 .6 39.6 19.8 45.1l163.3 46.7c13.9 4 28.8-1.9 36.2-14.3L320 192 75.2 161.4c-6.7-.8-13.3 2.7-16.3 8.7L17.2 253.5zm605.5 0l-41.7-83.4c-3-6.1-9.6-9.6-16.3-8.7L320 192l83.4 139c7.4 12.4 22.3 18.3 36.2 14.3l163.3-46.7c19.3-5.5 28.8-27.2 19.8-45.1z"/></svg>