<svg xmlns="http://www.w3.org/2000/svg" viewBox="0 0 576 512"><!--! Font Awesome Pro 6.4.0 by @fontawesome - https://fontawesome.com License - https://fontawesome.com/license (Commercial License) Copyright 2023 Fonticons, Inc. --><defs><style>.fa-secondary{opacity:.4}</style></defs><path class="fa-primary" d="M432 512a144 144 0 1 0 0-288 144 144 0 1 0 0 288zm67.3-164.7l-72 72c-6.2 6.2-16.4 6.2-22.6 0l-40-40c-6.2-6.2-6.2-16.4 0-22.6s16.4-6.2 22.6 0L416 385.4l60.7-60.7c6.2-6.2 16.4-6.2 22.6 0s6.2 16.4 0 22.6z"/><path class="fa-secondary" d="M50.7 58.5L0 160H208V32H93.7C75.5 32 58.9 42.3 50.7 58.5zM240 160H416h32L397.3 58.5C389.1 42.3 372.5 32 354.3 32H240V160zm176 32H0V416c0 35.3 28.7 64 64 64H296.2C271.1 449.6 256 410.5 256 368c0-91.8 70.3-167.2 160-175.3V192z"/></svg>