<svg xmlns="http://www.w3.org/2000/svg" viewBox="0 0 640 512"><!--! Font Awesome Pro 6.4.0 by @fontawesome - https://fontawesome.com License - https://fontawesome.com/license (Commercial License) Copyright 2023 Fonticons, Inc. --><defs><style>.fa-secondary{opacity:.4}</style></defs><path class="fa-primary" d="M16 160H368c8.8 0 16 7.2 16 16v32c0 8.8-7.2 16-16 16H16c-8.8 0-16-7.2-16-16V176c0-8.8 7.2-16 16-16zm16 96H352V480c0 17.7-14.3 32-32 32H64c-17.7 0-32-14.3-32-32V256zm96 80c0 8.8 7.2 16 16 16h96c8.8 0 16-7.2 16-16s-7.2-16-16-16H144c-8.8 0-16 7.2-16 16z"/><path class="fa-secondary" d="M304 0c-26.5 0-48 21.5-48 48v80H368c26.5 0 48 21.5 48 48v32c0 20.9-13.4 38.7-32 45.3V496c0 5.6-1 11-2.7 16H592c26.5 0 48-21.5 48-48V48c0-26.5-21.5-48-48-48H304zM571.3 324.7c6.2 6.2 6.2 16.4 0 22.6s-16.4 6.2-22.6 0L512 310.6V432c0 8.8-7.2 16-16 16s-16-7.2-16-16l0-121.4-36.7 36.7c-6.2 6.2-16.4 6.2-22.6 0s-6.2-16.4 0-22.6l64-64c6.2-6.2 16.4-6.2 22.6 0l64 64z"/></svg>