<svg xmlns="http://www.w3.org/2000/svg" viewBox="0 0 448 512"><!--! Font Awesome Pro 6.4.0 by @fontawesome - https://fontawesome.com License - https://fontawesome.com/license (Commercial License) Copyright 2023 Fonticons, Inc. --><defs><style>.fa-secondary{opacity:.4}</style></defs><path class="fa-primary" d="M0 96C0 60.7 28.7 32 64 32h64c17.7 0 32 14.3 32 32s-14.3 32-32 32H64V416h64c17.7 0 32 14.3 32 32s-14.3 32-32 32H64c-35.3 0-64-28.7-64-64V96z"/><path class="fa-secondary" d="M448 96c0-35.3-28.7-64-64-64H320c-17.7 0-32 14.3-32 32s14.3 32 32 32h64V416H320c-17.7 0-32 14.3-32 32s14.3 32 32 32h64c35.3 0 64-28.7 64-64V96z"/></svg>