<svg xmlns="http://www.w3.org/2000/svg" viewBox="0 0 640 512"><!--! Font Awesome Pro 6.4.0 by @fontawesome - https://fontawesome.com License - https://fontawesome.com/license (Commercial License) Copyright 2023 Fonticons, Inc. --><defs><style>.fa-secondary{opacity:.4}</style></defs><path class="fa-primary" d="M521.9 241.2c6-2.5 12.9-1.1 17.4 3.5l96 96c6.2 6.2 6.2 16.4 0 22.6l-96 96c-4.6 4.6-11.5 5.9-17.4 3.5s-9.9-8.3-9.9-14.8V400H464c-35.3 0-64 28.7-64 64v35.7c0 6.8-5.5 12.3-12.3 12.3c-2.4 0-4.8-.7-6.7-2.2c-10.5-8.2-45-39.5-45-93.8c0-61.9 50.1-112 112-112h64V256c0-6.5 3.9-12.3 9.9-14.8z"/><path class="fa-secondary" d="M184 0c30.9 0 56 25.1 56 56V456c0 30.9-25.1 56-56 56c-28.9 0-52.7-21.9-55.7-50.1c-5.2 1.4-10.7 2.1-16.3 2.1c-35.3 0-64-28.7-64-64c0-7.4 1.3-14.6 3.6-21.2C21.4 367.4 0 338.2 0 304c0-31.9 18.7-59.5 45.8-72.3C37.1 220.8 32 207 32 192c0-30.7 21.6-56.3 50.4-62.6C80.8 123.9 80 118 80 112c0-29.9 20.6-55.1 48.3-62.1C131.3 21.9 155.1 0 184 0zM328 0c28.9 0 52.6 21.9 55.7 49.9c27.8 7 48.3 32.1 48.3 62.1c0 6-.8 11.9-2.4 17.4c28.8 6.2 50.4 31.9 50.4 62.6c0 15-5.1 28.8-13.8 39.7c5.7 2.7 11.1 6.1 16 10c-1.4 4.6-2.2 9.4-2.2 14.3v16H448c-79.5 0-144 64.5-144 144c0 43.3 17.3 75 33.5 95.2c-3.1 .5-6.3 .8-9.5 .8c-30.9 0-56-25.1-56-56V56c0-30.9 25.1-56 56-56z"/></svg>