<svg xmlns="http://www.w3.org/2000/svg" viewBox="0 0 512 512"><!--! Font Awesome Pro 6.4.0 by @fontawesome - https://fontawesome.com License - https://fontawesome.com/license (Commercial License) Copyright 2023 Fonticons, Inc. --><defs><style>.fa-secondary{opacity:.4}</style></defs><path class="fa-primary" d="M32 32C14.3 32 0 46.3 0 64V288 448c0 17.7 14.3 32 32 32s32-14.3 32-32V320h42.3l56 139.9c6.6 16.4 25.2 24.4 41.6 17.8s24.4-25.2 17.8-41.6L170.3 307.7C220.8 285.3 256 234.8 256 176c0-79.5-64.5-144-144-144H32zm80 224H64V96h48c44.2 0 80 35.8 80 80s-35.8 80-80 80z"/><path class="fa-secondary" d="M400 0c17.7 0 32 14.3 32 32V50.2c12.5 2.3 24.7 6.4 36.2 12.1l10.1 5.1c15.8 7.9 22.2 27.1 14.3 42.9s-27.1 22.2-42.9 14.3l-10.2-5.1c-9.9-5-20.9-7.5-32-7.5h-1.7c-29.8 0-53.9 24.1-53.9 53.9c0 22 13.4 41.8 33.9 50l52 20.8c44.7 17.9 74.1 61.2 74.1 109.4v3.4c0 51.2-33.6 94.6-80 109.2V480c0 17.7-14.3 32-32 32s-32-14.3-32-32V460.6c-15-3.5-29.4-9.7-42.3-18.3l-23.4-15.6c-14.7-9.8-18.7-29.7-8.9-44.4s29.7-18.7 44.4-8.9L361.2 389c10.8 7.2 23.4 11 36.3 11c27.9 0 50.5-22.6 50.5-50.5v-3.4c0-22-13.4-41.8-33.9-50l-52-20.8C317.3 257.4 288 214.1 288 165.9C288 114 321.5 70 368 54.2V32c0-17.7 14.3-32 32-32z"/></svg>