<svg xmlns="http://www.w3.org/2000/svg" viewBox="0 0 512 512"><!--! Font Awesome Pro 6.4.0 by @fontawesome - https://fontawesome.com License - https://fontawesome.com/license (Commercial License) Copyright 2023 Fonticons, Inc. --><defs><style>.fa-secondary{opacity:.4}</style></defs><path class="fa-primary" d="M144 384a16 16 0 1 0 0 32 16 16 0 1 0 0-32zm0-96a16 16 0 1 0 0 32 16 16 0 1 0 0-32zm96 96a16 16 0 1 0 0 32 16 16 0 1 0 0-32z"/><path class="fa-secondary" d="M0 192C0 64 192 32 256 32s256 32 256 160c0 35.3-28.7 64-64 64V432c0 26.5-21.5 48-48 48H112c-26.5 0-48-21.5-48-48V256c-35.3 0-64-28.7-64-64zM128 400a16 16 0 1 0 32 0 16 16 0 1 0 -32 0zm0-96a16 16 0 1 0 32 0 16 16 0 1 0 -32 0zm96 96a16 16 0 1 0 32 0 16 16 0 1 0 -32 0z"/></svg>