<svg xmlns="http://www.w3.org/2000/svg" viewBox="0 0 576 512"><!--! Font Awesome Pro 6.4.0 by @fontawesome - https://fontawesome.com License - https://fontawesome.com/license (Commercial License) Copyright 2023 Fonticons, Inc. --><defs><style>.fa-secondary{opacity:.4}</style></defs><path class="fa-primary" d="M32 64C14.3 64 0 78.3 0 96v35.6C0 147.3 12.7 160 28.4 160C65.8 160 96 190.2 96 227.6V352.5c12.9 0 25.8 3.9 36.9 11.7c18 12.4 40.1 20.3 59.1 20.3c0-.2 0-.3 0-.5V256c0-53 43-96 96-96s96 43 96 96V384c0 .2 0 .3 0 .5c0 0 0 0 0 0c19 0 41.2-7.9 59.2-20.3c11.1-7.8 24-11.7 36.8-11.7V227.6c0-37.3 30.2-67.6 67.6-67.6c15.7 0 28.4-12.7 28.4-28.4V96c0-17.7-14.3-32-32-32H32z"/><path class="fa-secondary" d="M269.5 389.9c11.1-7.9 25.9-7.9 37 0C329 405.4 356.5 416 384 416c26.9 0 55.4-10.8 77.4-26.1l0 0c11.9-8.5 28.1-7.8 39.2 1.7c14.4 11.9 32.5 21 50.6 25.2c17.2 4 27.9 21.2 23.9 38.4s-21.2 27.9-38.4 23.9c-24.5-5.7-44.9-16.5-58.2-25C449.5 469.7 417 480 384 480c-31.9 0-60.6-9.9-80.4-18.9c-5.8-2.7-11.1-5.3-15.6-7.7c-4.5 2.4-9.7 5.1-15.6 7.7c-19.8 9-48.5 18.9-80.4 18.9c-33 0-65.5-10.3-94.5-25.8c-13.4 8.4-33.7 19.3-58.2 25c-17.2 4-34.4-6.7-38.4-23.9s6.7-34.4 23.9-38.4c18.1-4.2 36.2-13.3 50.6-25.2c11.1-9.4 27.3-10.1 39.2-1.7l0 0C136.7 405.2 165.1 416 192 416c27.5 0 55-10.6 77.5-26.1z"/></svg>