<svg xmlns="http://www.w3.org/2000/svg" viewBox="0 0 512 512"><!--! Font Awesome Pro 6.4.0 by @fontawesome - https://fontawesome.com License - https://fontawesome.com/license (Commercial License) Copyright 2023 Fonticons, Inc. --><defs><style>.fa-secondary{opacity:.4}</style></defs><path class="fa-primary" d="M160 256a96 96 0 1 1 192 0 96 96 0 1 1 -192 0z"/><path class="fa-secondary" d="M256 112a32 32 0 1 0 0-64 32 32 0 1 0 0 64zm0 352a32 32 0 1 0 0-64 32 32 0 1 0 0 64zM432 288a32 32 0 1 0 0-64 32 32 0 1 0 0 64zM48 256a32 32 0 1 0 64 0 32 32 0 1 0 -64 0zM160 128a32 32 0 1 0 -64 0 32 32 0 1 0 64 0zM416 384a32 32 0 1 0 -64 0 32 32 0 1 0 64 0zm0-256a32 32 0 1 0 -64 0 32 32 0 1 0 64 0zM96 384a32 32 0 1 0 64 0 32 32 0 1 0 -64 0z"/></svg>