<svg xmlns="http://www.w3.org/2000/svg" viewBox="0 0 640 512"><!--! Font Awesome Pro 6.4.0 by @fontawesome - https://fontawesome.com License - https://fontawesome.com/license (Commercial License) Copyright 2023 Fonticons, Inc. --><defs><style>.fa-secondary{opacity:.4}</style></defs><path class="fa-primary" d="M224 96c-35.3 0-64 28.7-64 64V352c0 35.3 28.7 64 64 64H416c35.3 0 64-28.7 64-64V160c0-35.3-28.7-64-64-64H224z"/><path class="fa-secondary" d="M192 64H64V192h96v64H64c-35.3 0-64-28.7-64-64V64C0 28.7 28.7 0 64 0H192c35.3 0 64 28.7 64 64V96H224c-11.7 0-22.6 3.1-32 8.6V64zM384 416h32c11.7 0 22.6-3.1 32-8.6V448H576V320H480V256h96c35.3 0 64 28.7 64 64V448c0 35.3-28.7 64-64 64H448c-35.3 0-64-28.7-64-64V416z"/></svg>