<svg xmlns="http://www.w3.org/2000/svg" viewBox="0 0 512 512"><!--! Font Awesome Pro 6.4.0 by @fontawesome - https://fontawesome.com License - https://fontawesome.com/license (Commercial License) Copyright 2023 Fonticons, Inc. --><defs><style>.fa-secondary{opacity:.4}</style></defs><path class="fa-primary" d="M0 96C0 60.7 28.7 32 64 32H448c35.3 0 64 28.7 64 64V224H0V96zm64 32a32 32 0 1 0 64 0 32 32 0 1 0 -64 0zm120-24c-13.3 0-24 10.7-24 24s10.7 24 24 24H424c13.3 0 24-10.7 24-24s-10.7-24-24-24H184z"/><path class="fa-secondary" d="M96 96a32 32 0 1 0 0 64 32 32 0 1 0 0-64zM448 480c35.3 0 64-28.7 64-64V224L0 224V416c0 35.3 28.7 64 64 64l384 0z"/></svg>