<svg xmlns="http://www.w3.org/2000/svg" viewBox="0 0 448 512"><!--! Font Awesome Pro 6.4.0 by @fontawesome - https://fontawesome.com License - https://fontawesome.com/license (Commercial License) Copyright 2023 Fonticons, Inc. --><defs><style>.fa-secondary{opacity:.4}</style></defs><path class="fa-primary" d="M32 192c-17.7 0-32 14.3-32 32s14.3 32 32 32h5.1L59.5 469c2.6 24.4 23.2 43 47.7 43H340.8c24.6 0 45.2-18.5 47.7-43l22.4-213H416c17.7 0 32-14.3 32-32s-14.3-32-32-32H32z"/><path class="fa-secondary" d="M200 48C142.6 48 96 94.6 96 152v40H48V152C48 68.1 116.1 0 200 0h48c83.9 0 152 68.1 152 152v40H352V152c0-57.4-46.6-104-104-104H200z"/></svg>