<svg xmlns="http://www.w3.org/2000/svg" viewBox="0 0 640 512"><!--! Font Awesome Pro 6.4.0 by @fontawesome - https://fontawesome.com License - https://fontawesome.com/license (Commercial License) Copyright 2023 Fonticons, Inc. --><defs><style>.fa-secondary{opacity:.4}</style></defs><path class="fa-primary" d="M5.1 9.2C13.3-1.2 28.4-3.1 38.8 5.1l592 464c10.4 8.2 12.3 23.3 4.1 33.7s-23.3 12.3-33.7 4.1L9.2 42.9C-1.2 34.7-3.1 19.6 5.1 9.2z"/><path class="fa-secondary" d="M336 360.7l94.8 74.7c-25.1 24.1-58.2 40.1-94.8 43.8V360.7zM166.7 227.3L304 335.5V479.2c-34.5-3.4-65.8-17.8-90.3-39.6l-63.1 63.1c-12.5 12.5-32.8 12.5-45.3 0s-12.5-32.8 0-45.3l64-64c1.9-1.9 3.9-3.4 6-4.8C165.5 367.8 160 344.6 160 320H96c-17.7 0-32-14.3-32-32s14.3-32 32-32h64.3c.8-10 2.9-19.7 6.4-28.7zM480 320c0 9.9-.9 19.5-2.6 28.9L240 162.8c7.7-1.8 15.8-2.8 24-2.8H376c17.1 0 33.2 4.1 47.5 11.4c.6-.7 1.2-1.4 1.9-2.1l64-64c12.5-12.5 32.8-12.5 45.3 0s12.5 32.8 0 45.3l-64 64c-.7 .7-1.4 1.3-2.1 1.9c6.2 12 10.1 25.3 11.1 39.5H544c17.7 0 32 14.3 32 32s-14.3 32-32 32H480zM320 0c53 0 96 43 96 96v3.6c0 15.7-12.7 28.4-28.4 28.4H252.4c-15.7 0-28.4-12.7-28.4-28.4V96c0-53 43-96 96-96z"/></svg>