<svg xmlns="http://www.w3.org/2000/svg" viewBox="0 0 512 512"><!--! Font Awesome Pro 6.4.0 by @fontawesome - https://fontawesome.com License - https://fontawesome.com/license (Commercial License) Copyright 2023 Fonticons, Inc. --><defs><style>.fa-secondary{opacity:.4}</style></defs><path class="fa-primary" d="M86.6 105.4c-12.5-12.5-32.8-12.5-45.3 0s-12.5 32.8 0 45.3l64 64c.7 .7 1.4 1.3 2.1 1.9c-6.2 12-10.1 25.3-11.1 39.5H32c-17.7 0-32 14.3-32 32s14.3 32 32 32H96c0 24.6 5.5 47.8 15.4 68.6c-2.2 1.3-4.2 2.9-6 4.8l-64 64c-12.5 12.5-12.5 32.8 0 45.3s32.8 12.5 45.3 0l63.1-63.1c24.5 21.8 55.8 36.2 90.3 39.6V240c0-8.8 7.2-16 16-16s16 7.2 16 16V479.2c34.5-3.4 65.8-17.8 90.3-39.6l63.1 63.1c12.5 12.5 32.8 12.5 45.3 0s12.5-32.8 0-45.3l-64-64c-1.9-1.9-3.9-3.4-6-4.8c9.9-20.8 15.4-44.1 15.4-68.6h64c17.7 0 32-14.3 32-32s-14.3-32-32-32H415.7c-1.1-14.1-5-27.5-11.1-39.5c.7-.6 1.4-1.2 2.1-1.9l64-64c12.5-12.5 12.5-32.8 0-45.3s-32.8-12.5-45.3 0l-64 64c-.7 .7-1.3 1.4-1.9 2.1C345.2 164.1 329.1 160 312 160H200c-17.1 0-33.2 4.1-47.5 11.4c-.6-.7-1.2-1.4-1.9-2.1l-64-64z"/><path class="fa-secondary" d="M256 0c-53 0-96 43-96 96v3.6c0 15.7 12.7 28.4 28.4 28.4H323.6c15.7 0 28.4-12.7 28.4-28.4V96c0-53-43-96-96-96zm0 480c5.4 0 10.7-.3 16-.8V240c0-8.8-7.2-16-16-16s-16 7.2-16 16V479.2c5.3 .5 10.6 .8 16 .8z"/></svg>