<svg xmlns="http://www.w3.org/2000/svg" viewBox="0 0 640 512"><!--! Font Awesome Pro 6.4.0 by @fontawesome - https://fontawesome.com License - https://fontawesome.com/license (Commercial License) Copyright 2023 Fonticons, Inc. --><defs><style>.fa-secondary{opacity:.4}</style></defs><path class="fa-primary" d="M640 208l0-16-16 0c-44.2 0-80 35.8-80 80l0 16 16 0c44.2 0 80-35.8 80-80zm0 96l-16 0c-44.2 0-80 35.8-80 80l0 16 16 0c44.2 0 80-35.8 80-80l0-16zm0 112l-16 0c-44.2 0-80 35.8-80 80l0 16 16 0c44.2 0 80-35.8 80-80l0-16zM512 512l0-16c0-44.2-35.8-80-80-80l-16 0 0 16c0 44.2 35.8 80 80 80l16 0zm0-128c0-44.2-35.8-80-80-80l-16 0 0 16c0 44.2 35.8 80 80 80l16 0 0-16zm0-96l0-16c0-44.2-35.8-80-80-80l-16 0 0 16c0 44.2 35.8 80 80 80l16 0zM552 56c0-13.3-10.7-24-24-24s-24 10.7-24 24l0 104c0 13.3 10.7 24 24 24s24-10.7 24-24l0-104zm48 16c-13.3 0-24 10.7-24 24l0 32c0 13.3 10.7 24 24 24s24-10.7 24-24l0-32c0-13.3-10.7-24-24-24zM480 96c0-13.3-10.7-24-24-24s-24 10.7-24 24l0 32c0 13.3 10.7 24 24 24s24-10.7 24-24l0-32z"/><path class="fa-secondary" d="M0 48C0 21.5 21.5 0 48 0H336c26.5 0 48 21.5 48 48V464c0 26.5-21.5 48-48 48H240V432c0-26.5-21.5-48-48-48s-48 21.5-48 48v80H48c-26.5 0-48-21.5-48-48V48zM80 224c-8.8 0-16 7.2-16 16v32c0 8.8 7.2 16 16 16h32c8.8 0 16-7.2 16-16V240c0-8.8-7.2-16-16-16H80zm80 16v32c0 8.8 7.2 16 16 16h32c8.8 0 16-7.2 16-16V240c0-8.8-7.2-16-16-16H176c-8.8 0-16 7.2-16 16zm112-16c-8.8 0-16 7.2-16 16v32c0 8.8 7.2 16 16 16h32c8.8 0 16-7.2 16-16V240c0-8.8-7.2-16-16-16H272zM64 112v32c0 8.8 7.2 16 16 16h32c8.8 0 16-7.2 16-16V112c0-8.8-7.2-16-16-16H80c-8.8 0-16 7.2-16 16zM176 96c-8.8 0-16 7.2-16 16v32c0 8.8 7.2 16 16 16h32c8.8 0 16-7.2 16-16V112c0-8.8-7.2-16-16-16H176zm80 16v32c0 8.8 7.2 16 16 16h32c8.8 0 16-7.2 16-16V112c0-8.8-7.2-16-16-16H272c-8.8 0-16 7.2-16 16z"/></svg>