<svg xmlns="http://www.w3.org/2000/svg" viewBox="0 0 512 512"><!--! Font Awesome Pro 6.4.0 by @fontawesome - https://fontawesome.com License - https://fontawesome.com/license (Commercial License) Copyright 2023 Fonticons, Inc. --><defs><style>.fa-secondary{opacity:.4}</style></defs><path class="fa-primary" d="M0 192c0-35.3 28.7-64 64-64H192V320v32V480c0 17.7-14.3 32-32 32H96c-17.7 0-32-14.3-32-32l0-128c-35.3 0-64-28.7-64-64V192zm512 48c0 27.9-13.4 51.6-32 60.4V179.6c18.6 8.8 32 32.5 32 60.4z"/><path class="fa-secondary" d="M480 32c0-12.9-7.8-24.6-19.8-29.6s-25.7-2.2-34.9 6.9L381.7 53c-48 48-113.1 75-181 75H192v32 32 96 32 32h8.7c67.9 0 133 27 181 75l43.6 43.6c9.2 9.2 22.9 11.9 34.9 6.9s19.8-16.6 19.8-29.6V32z"/></svg>