<svg xmlns="http://www.w3.org/2000/svg" viewBox="0 0 640 512"><!--! Font Awesome Pro 6.4.0 by @fontawesome - https://fontawesome.com License - https://fontawesome.com/license (Commercial License) Copyright 2023 Fonticons, Inc. --><defs><style>.fa-secondary{opacity:.4}</style></defs><path class="fa-primary" d="M612.5 319.8c15.2 0 27.5-12.3 27.5-27.5c0-3-.5-5.9-1.7-8.6c-8.1-18.4-48.4-91.9-174.3-91.9s-166.2 73.5-174.3 91.9c-1.2 2.7-1.7 5.7-1.7 8.6c0 15.2 12.3 27.5 27.5 27.5H612.5zM368 255.8a16 16 0 1 1 32 0 16 16 0 1 1 -32 0zm96-32a16 16 0 1 1 0 32 16 16 0 1 1 0-32zm64 32a16 16 0 1 1 32 0 16 16 0 1 1 -32 0zm-240 128c0 17.7 14.3 32 32 32H608c17.7 0 32-14.3 32-32s-14.3-32-32-32H320c-17.7 0-32 14.3-32 32zm0 80c0 26.5 21.5 48 48 48H592c26.5 0 48-21.5 48-48c0-8.8-7.2-16-16-16H304c-8.8 0-16 7.2-16 16z"/><path class="fa-secondary" d="M8.6 10.2C14.6 3.7 23.1 0 32 0H352c8.9 0 17.4 3.7 23.4 10.2s9.1 15.2 8.5 24.1L374 173.6c-24.6 8.3-44.7 19.6-60.9 32c-32.2 24.8-47.2 52.7-52.7 65.3c-3.4 7.7-4.4 15.3-4.4 21.5c0 17.8 7.9 33.9 20.3 44.8C263.8 348.9 256 365.5 256 384c0 16.7 6.4 32 17 43.4c-10.4 8.8-17 21.9-17 36.6c0 18 6 34.6 16 48H108.7c-42 0-76.8-32.4-79.8-74.3L.1 34.3c-.6-8.9 2.4-17.6 8.5-24.1zM66.4 64l6.9 96H310.8l6.9-96H66.4z"/></svg>