<svg xmlns="http://www.w3.org/2000/svg" viewBox="0 0 512 512"><!--! Font Awesome Pro 6.4.0 by @fontawesome - https://fontawesome.com License - https://fontawesome.com/license (Commercial License) Copyright 2023 Fonticons, Inc. --><defs><style>.fa-secondary{opacity:.4}</style></defs><path class="fa-primary" d="M320 160c0-53.6-20.3-102.5-53.6-139.4C280.6 7.8 299.4 0 320 0c11.4 0 22.2 2.4 32 6.7C361.8 2.4 372.6 0 384 0c34.6 0 64.1 22 75.2 52.8C490 63.9 512 93.4 512 128c0 11.4-2.4 22.2-6.7 32c4.3 9.8 6.7 20.6 6.7 32c0 20.6-7.8 39.4-20.6 53.6C454.5 212.3 405.6 192 352 192c-11.9 0-23.6 1-34.9 2.9c1.9-11.4 2.9-23 2.9-34.9z"/><path class="fa-secondary" d="M33.9 270.1L251.4 52.6C274.4 82.3 288 119.6 288 160c0 18-2.7 35.4-7.7 51.7C258.2 283.7 191.2 336 112 336c-37.8 0-72.8-11.9-101.5-32.2c5.7-12.4 13.6-23.9 23.4-33.7zM352 224c40.4 0 77.7 13.6 107.4 36.6L241.9 478.1C220.2 499.8 190.7 512 160 512s-60.2-12.2-81.9-33.9L33.9 433.9C12.2 412.2 0 382.7 0 352c0-5.4 .4-10.7 1.1-16c32.1 20.3 70.1 32 110.9 32c90.5 0 167.5-57.8 196.1-138.5c14-3.6 28.7-5.5 43.9-5.5z"/></svg>