<svg xmlns="http://www.w3.org/2000/svg" viewBox="0 0 512 512"><!--! Font Awesome Pro 6.4.0 by @fontawesome - https://fontawesome.com License - https://fontawesome.com/license (Commercial License) Copyright 2023 Fonticons, Inc. --><defs><style>.fa-secondary{opacity:.4}</style></defs><path class="fa-primary" d="M256 0C380.8 0 464 35.2 464 80V96v16h16c17.7 0 32 14.3 32 32v64c0 17.7-14.3 32-32 32H464v20.3c9.6 5.5 16 15.9 16 27.7V416c0 17.7-14.3 32-32 32H64c-17.7 0-32-14.3-32-32V288c0-11.8 6.4-22.2 16-27.7V240H32c-17.7 0-32-14.3-32-32V144c0-17.7 14.3-32 32-32H48V96 80C48 35.2 131.2 0 256 0zM112 160v64c0 17.7 14.3 32 32 32h96V128H144c-17.7 0-32 14.3-32 32zm160 96h96c17.7 0 32-14.3 32-32V160c0-17.7-14.3-32-32-32H272V256zM112 384a32 32 0 1 0 0-64 32 32 0 1 0 0 64zm288 0a32 32 0 1 0 0-64 32 32 0 1 0 0 64zM352 80c0-8.8-7.2-16-16-16H176c-8.8 0-16 7.2-16 16s7.2 16 16 16H336c8.8 0 16-7.2 16-16z"/><path class="fa-secondary" d="M112 160c0-17.7 14.3-32 32-32h96V256H144c-17.7 0-32-14.3-32-32V160zm160 96V128h96c17.7 0 32 14.3 32 32v64c0 17.7-14.3 32-32 32H272zM64 480V448h96v32c0 17.7-14.3 32-32 32H96c-17.7 0-32-14.3-32-32zm288 0V448h96v32c0 17.7-14.3 32-32 32H384c-17.7 0-32-14.3-32-32z"/></svg>