<svg xmlns="http://www.w3.org/2000/svg" viewBox="0 0 576 512"><!--! Font Awesome Pro 6.4.0 by @fontawesome - https://fontawesome.com License - https://fontawesome.com/license (Commercial License) Copyright 2023 Fonticons, Inc. --><defs><style>.fa-secondary{opacity:.4}</style></defs><path class="fa-primary" d="M288 0C422.4 0 512 35.2 512 80V96l0 32c17.7 0 32 14.3 32 32v64c0 17.7-14.3 32-32 32l0 160c0 17.7-14.3 32-32 32H96c-17.7 0-32-14.3-32-32l0-160c-17.7 0-32-14.3-32-32V160c0-17.7 14.3-32 32-32h0V96h0V80C64 35.2 153.6 0 288 0zM128 160v96c0 17.7 14.3 32 32 32H272V128H160c-17.7 0-32 14.3-32 32zM304 288H416c17.7 0 32-14.3 32-32V160c0-17.7-14.3-32-32-32H304V288zM144 400a32 32 0 1 0 0-64 32 32 0 1 0 0 64zm288 0a32 32 0 1 0 0-64 32 32 0 1 0 0 64zM384 80c0-8.8-7.2-16-16-16H208c-8.8 0-16 7.2-16 16s7.2 16 16 16H368c8.8 0 16-7.2 16-16z"/><path class="fa-secondary" d="M128 160c0-17.7 14.3-32 32-32H272V288H160c-17.7 0-32-14.3-32-32V160zM304 288V128H416c17.7 0 32 14.3 32 32v96c0 17.7-14.3 32-32 32H304zM96 448h96v32c0 17.7-14.3 32-32 32H128c-17.7 0-32-14.3-32-32V448zm288 0h96v32c0 17.7-14.3 32-32 32H416c-17.7 0-32-14.3-32-32V448z"/></svg>