<svg xmlns="http://www.w3.org/2000/svg" viewBox="0 0 640 512"><!--! Font Awesome Pro 6.4.0 by @fontawesome - https://fontawesome.com License - https://fontawesome.com/license (Commercial License) Copyright 2023 Fonticons, Inc. --><defs><style>.fa-secondary{opacity:.4}</style></defs><path class="fa-primary" d="M32 320c-17.7 0-32 14.3-32 32s14.3 32 32 32v32c0 17.7 14.3 32 32 32H576c17.7 0 32-14.3 32-32V384c17.7 0 32-14.3 32-32s-14.3-32-32-32H32z"/><path class="fa-secondary" d="M128 64c-35.3 0-64 28.7-64 64V320H448V64H128zm384 0H480V320h96V128c0-35.3-28.7-64-64-64z"/></svg>