<svg xmlns="http://www.w3.org/2000/svg" viewBox="0 0 512 512"><!--! Font Awesome Pro 6.4.0 by @fontawesome - https://fontawesome.com License - https://fontawesome.com/license (Commercial License) Copyright 2023 Fonticons, Inc. --><defs><style>.fa-secondary{opacity:.4}</style></defs><path class="fa-primary" d="M320 32a32 32 0 1 0 -64 0 32 32 0 1 0 64 0zM192 88a32 32 0 1 0 0-64 32 32 0 1 0 0 64zM96 224c-35.3 0-64 28.7-64 64V448c0 35.3 28.7 64 64 64H416c35.3 0 64-28.7 64-64V288c0-35.3-28.7-64-64-64H96zm0 64h64c8.8 0 16 7.2 16 16v64c0 8.8-7.2 16-16 16H96c-8.8 0-16-7.2-16-16V304c0-8.8 7.2-16 16-16zm112 16c0-8.8 7.2-16 16-16h64c8.8 0 16 7.2 16 16v64c0 8.8-7.2 16-16 16H224c-8.8 0-16-7.2-16-16V304zm144-16h64c8.8 0 16 7.2 16 16v64c0 8.8-7.2 16-16 16H352c-8.8 0-16-7.2-16-16V304c0-8.8 7.2-16 16-16z"/><path class="fa-secondary" d="M492.9 103.5c13-2.7 21.3-15.4 18.6-28.4s-15.4-21.3-28.4-18.6l-232 48-232 48c-13 2.7-21.3 15.4-18.6 28.4s15.4 21.3 28.4 18.6l203.1-42V200v24h48V200 147.5l212.9-44zM96 288c-8.8 0-16 7.2-16 16v64c0 8.8 7.2 16 16 16h64c8.8 0 16-7.2 16-16V304c0-8.8-7.2-16-16-16H96zm112 16v64c0 8.8 7.2 16 16 16h64c8.8 0 16-7.2 16-16V304c0-8.8-7.2-16-16-16H224c-8.8 0-16 7.2-16 16zm144-16c-8.8 0-16 7.2-16 16v64c0 8.8 7.2 16 16 16h64c8.8 0 16-7.2 16-16V304c0-8.8-7.2-16-16-16H352z"/></svg>