<svg xmlns="http://www.w3.org/2000/svg" viewBox="0 0 512 512"><!--! Font Awesome Pro 6.4.0 by @fontawesome - https://fontawesome.com License - https://fontawesome.com/license (Commercial License) Copyright 2023 Fonticons, Inc. --><defs><style>.fa-secondary{opacity:.4}</style></defs><path class="fa-primary" d="M160 0c-17.7 0-32 14.3-32 32V64H80c-26.5 0-48 21.5-48 48v80H480V112c0-26.5-21.5-48-48-48H384V32c0-17.7-14.3-32-32-32s-32 14.3-32 32V64H192V32c0-17.7-14.3-32-32-32zM340.8 267c-14.7-14.7-38.6-14.7-53.3 0L272.6 282l53.3 53.3 14.9-14.9c14.7-14.7 14.7-38.6 0-53.3zM178.1 376.5c-4.1 4.1-7 9.2-8.4 14.9L160.5 428c-1.4 5.5 .2 11.2 4.2 15.2s9.7 5.6 15.2 4.2l36.6-9.2c5.6-1.4 10.8-4.3 14.9-8.4l71.9-71.9L250 304.6l-71.9 71.9z"/><path class="fa-secondary" d="M480 192H32V464c0 26.5 21.5 48 48 48H432c26.5 0 48-21.5 48-48V192zM340.8 267c14.7 14.7 14.7 38.6 0 53.3l-14.9 14.9L272.6 282 287.5 267c14.7-14.7 38.6-14.7 53.3 0zM178.1 376.5L250 304.6l53.3 53.3-71.9 71.9c-4.1 4.1-9.2 7-14.9 8.4l-36.6 9.2c-5.5 1.4-11.2-.2-15.2-4.2s-5.6-9.7-4.2-15.2l9.2-36.6c1.4-5.6 4.3-10.8 8.4-14.9z"/></svg>