<svg xmlns="http://www.w3.org/2000/svg" viewBox="0 0 512 512"><!--! Font Awesome Pro 6.4.0 by @fontawesome - https://fontawesome.com License - https://fontawesome.com/license (Commercial License) Copyright 2023 Fonticons, Inc. --><defs><style>.fa-secondary{opacity:.4}</style></defs><path class="fa-primary" d="M128 32c0-17.7 14.3-32 32-32s32 14.3 32 32V64H320V32c0-17.7 14.3-32 32-32s32 14.3 32 32V64h48c26.5 0 48 21.5 48 48v80H32V112c0-26.5 21.5-48 48-48h48V32zM256 248c13.3 0 24 10.7 24 24v56h56c13.3 0 24 10.7 24 24s-10.7 24-24 24H280v56c0 13.3-10.7 24-24 24s-24-10.7-24-24V376H176c-13.3 0-24-10.7-24-24s10.7-24 24-24h56V272c0-13.3 10.7-24 24-24z"/><path class="fa-secondary" d="M32 192H480V464c0 26.5-21.5 48-48 48H80c-26.5 0-48-21.5-48-48V192zm224 56c-13.3 0-24 10.7-24 24v56H176c-13.3 0-24 10.7-24 24s10.7 24 24 24h56v56c0 13.3 10.7 24 24 24s24-10.7 24-24V376h56c13.3 0 24-10.7 24-24s-10.7-24-24-24H280V272c0-13.3-10.7-24-24-24z"/></svg>