<svg xmlns="http://www.w3.org/2000/svg" viewBox="0 0 448 512"><!--! Font Awesome Pro 6.4.0 by @fontawesome - https://fontawesome.com License - https://fontawesome.com/license (Commercial License) Copyright 2023 Fonticons, Inc. --><defs><style>.fa-secondary{opacity:.4}</style></defs><path class="fa-primary" d="M160 32c0-17.7-14.3-32-32-32S96 14.3 96 32V64H48C21.5 64 0 85.5 0 112v80H448V112c0-26.5-21.5-48-48-48H352V32c0-17.7-14.3-32-32-32s-32 14.3-32 32V64H160V32z"/><path class="fa-secondary" d="M0 192H448V464c0 26.5-21.5 48-48 48H48c-26.5 0-48-21.5-48-48V192z"/></svg>