<svg xmlns="http://www.w3.org/2000/svg" viewBox="0 0 576 512"><!--! Font Awesome Pro 6.4.0 by @fontawesome - https://fontawesome.com License - https://fontawesome.com/license (Commercial License) Copyright 2023 Fonticons, Inc. --><defs><style>.fa-secondary{opacity:.4}</style></defs><path class="fa-primary" d="M64 96c0-35.3 28.7-64 64-64H448c35.3 0 64 28.7 64 64V246.3l53.3 79.9c5.2 7.8 8.6 16.6 10 25.8H.7c1.4-9.2 4.8-18 10-25.8L64 246.3V96zM288 256a64 64 0 1 0 0-128 64 64 0 1 0 0 128zM448 128a32 32 0 1 0 -64 0 32 32 0 1 0 64 0z"/><path class="fa-secondary" d="M288 128a64 64 0 1 1 0 128 64 64 0 1 1 0-128zM0 361.7c0-3.3 .2-6.5 .7-9.7H575.3c.5 3.2 .7 6.4 .7 9.7V416c0 35.3-28.7 64-64 64H64c-35.3 0-64-28.7-64-64V361.7zM112 400c-8.8 0-16 7.2-16 16s7.2 16 16 16H464c8.8 0 16-7.2 16-16s-7.2-16-16-16H112z"/></svg>