<svg xmlns="http://www.w3.org/2000/svg" viewBox="0 0 576 512"><!--! Font Awesome Pro 6.4.0 by @fontawesome - https://fontawesome.com License - https://fontawesome.com/license (Commercial License) Copyright 2023 Fonticons, Inc. --><defs><style>.fa-secondary{opacity:.4}</style></defs><path class="fa-primary" d="M372 7c13.8 11 16 31.2 5 45l-48 60L563.7 405.4c7.9 9.9 12.3 22.3 12.3 35V448H407.5L288 291.7 168.5 448H0v-7.6c0-12.7 4.3-25.1 12.3-35L247 112 199 52c-11-13.8-8.8-33.9 5-45s33.9-8.8 45 5l39 48.8L327 12c11-13.8 31.2-16 45-5zM47.7 512H528.3c-.1 0-.2 0-.3 0H288 48c-.1 0-.2 0-.3 0z"/><path class="fa-secondary" d="M0 448v16c0 26.5 21.5 48 48 48H288 528c26.5 0 48-21.5 48-48V448H407.5l0 0H288 168.5l0 0H0z"/></svg>