<svg xmlns="http://www.w3.org/2000/svg" viewBox="0 0 640 512"><!--! Font Awesome Pro 6.4.0 by @fontawesome - https://fontawesome.com License - https://fontawesome.com/license (Commercial License) Copyright 2023 Fonticons, Inc. --><defs><style>.fa-secondary{opacity:.4}</style></defs><path class="fa-primary" d="M318.1 64c-24.5 .2-47.9 5.1-69.4 13.7L419.9 420c20.3-12.4 38.2-28.5 52.6-47.3L318.1 64zM492.3 340.8C504.9 315.2 512 286.4 512 256c0-93.9-67.4-172.1-156.5-188.7L492.3 340.8zm-101 93.5L220.1 92c-20.3 12.4-38.2 28.5-52.6 47.3L321.9 448c24.5-.2 47.9-5.1 69.4-13.7zM284.5 444.7L147.7 171.2C135.1 196.8 128 225.6 128 256c0 93.9 67.4 172.1 156.5 188.7z"/><path class="fa-secondary" d="M504 310.9c5.2-17.4 8-35.8 8-54.9s-2.8-37.5-8-54.9l93.2-46.6c10.5-5.3 23.3-2.1 30.2 7.4s5.8 22.7-2.5 31l-29.6 29.6 29.1 10.9C633.8 237 640 246 640 256s-6.2 19-15.6 22.5l-29.1 10.9L625 319c8.3 8.3 9.4 21.5 2.5 31s-19.7 12.7-30.2 7.4L504 310.9zM136 201.1c-5.2 17.4-8 35.8-8 54.9s2.8 37.5 8 54.9L42.7 357.5c-10.5 5.3-23.3 2.1-30.2-7.4s-5.8-22.7 2.5-31l29.6-29.6L15.6 278.5C6.2 275 0 266 0 256s6.2-19 15.6-22.5l29.1-10.9L15 193c-8.3-8.3-9.4-21.5-2.5-31s19.7-12.7 30.2-7.4L136 201.1z"/></svg>