<svg xmlns="http://www.w3.org/2000/svg" viewBox="0 0 640 512"><!--! Font Awesome Pro 6.4.0 by @fontawesome - https://fontawesome.com License - https://fontawesome.com/license (Commercial License) Copyright 2023 Fonticons, Inc. --><defs><style>.fa-secondary{opacity:.4}</style></defs><path class="fa-primary" d="M0 224v96H128V224H0zM0 352v32c0 35.3 28.7 64 64 64h64V352H0zm160 96H288V352H160v96zM288 320V224H160v96H288zm0-128V64H160V192H288zM44.2 192H96v0h32V160h0V108.2c0-7.1-9-11.1-15-7.4C101 107.9 87 112 72 112c-4 0-7.9-.3-11.7-.9c-7-1-14.2 6.2-13.1 13.1c.6 3.8 .9 7.7 .9 11.7c0 15-4.1 29-11.3 41c-3.6 6.1 .4 15 7.4 15z"/><path class="fa-secondary" d="M288 64H576c35.3 0 64 28.7 64 64V384c0 35.3-28.7 64-64 64H288V64z"/></svg>