<svg xmlns="http://www.w3.org/2000/svg" viewBox="0 0 448 512"><!--! Font Awesome Pro 6.4.0 by @fontawesome - https://fontawesome.com License - https://fontawesome.com/license (Commercial License) Copyright 2023 Fonticons, Inc. --><defs><style>.fa-secondary{opacity:.4}</style></defs><path class="fa-primary" d="M128 224v48c0 8.8 7.2 16 16 16s16-7.2 16-16V224h64c17.7 0 32 14.3 32 32V464H64V256c0-17.7 14.3-32 32-32h32z"/><path class="fa-secondary" d="M80 112c0 44.2 35.8 80 80 80s80-35.8 80-80c0-39.6-49.1-90.1-66.2-106.6C170.1 1.9 165.2 0 160 0s-10.1 1.9-13.8 5.4C129.1 21.9 80 72.4 80 112zM376 416a24 24 0 1 1 0 48 24 24 0 1 1 0-48zm0 96c39.8 0 72-32.2 72-72s-32.2-72-72-72s-72 32.2-72 72c0 8.4 1.4 16.5 4.1 24H24c-13.3 0-24 10.7-24 24s10.7 24 24 24H376z"/></svg>