<svg xmlns="http://www.w3.org/2000/svg" viewBox="0 0 576 512"><!--! Font Awesome Pro 6.4.0 by @fontawesome - https://fontawesome.com License - https://fontawesome.com/license (Commercial License) Copyright 2023 Fonticons, Inc. --><defs><style>.fa-secondary{opacity:.4}</style></defs><path class="fa-primary" d="M372.3 431.7l-63.1-92L361.6 303l0 0 79.9-55.9 0 0 52.4-36.7 61.9 90.2c35.5 51.7 23.2 123-27.5 159.2s-120.5 23.6-156-28.1zm116.4-22.4c.8-.5 1.6-1 2.4-1.6c.5-.4 1.1-.8 1.6-1.2l-4 2.8zM0 256H32 64h96 32 32v64 48c0 61.9-50.1 112-112 112S0 429.9 0 368V320 256z"/><path class="fa-secondary" d="M224 256H192 160l-96 0H32 0V192 144C0 82.1 50.1 32 112 32s112 50.1 112 112l0 48v64zm85.1 83.7L256 262.2V98.3c4.6-4.7 9.7-9.1 15.3-13.1c50.7-36.2 120.5-23.6 156 28.1l66.6 97.1L309.1 339.7z"/></svg>