<svg xmlns="http://www.w3.org/2000/svg" viewBox="0 0 448 512"><!--! Font Awesome Pro 6.4.0 by @fontawesome - https://fontawesome.com License - https://fontawesome.com/license (Commercial License) Copyright 2023 Fonticons, Inc. --><defs><style>.fa-secondary{opacity:.4}</style></defs><path class="fa-primary" d="M138.8 234.6L119.7 288H328.3l-19.1-53.4c-2.3-6.4-8.3-10.6-15.1-10.6H153.8c-6.8 0-12.8 4.3-15.1 10.6zM50.2 292.4l28.3-79.3C89.9 181.3 120 160 153.8 160H294.2c33.8 0 64 21.3 75.3 53.1l28.3 79.3c20.1 8.5 34.2 28.4 34.2 51.6v40 64 32c0 17.7-14.3 32-32 32H384c-17.7 0-32-14.3-32-32V448H96v32c0 17.7-14.3 32-32 32H48c-17.7 0-32-14.3-32-32V448 384 344c0-23.2 14.1-43.1 34.2-51.6zM120 368a24 24 0 1 0 -48 0 24 24 0 1 0 48 0zm232 24a24 24 0 1 0 0-48 24 24 0 1 0 0 48z"/><path class="fa-secondary" d="M112 80c0 32-21.5 48-48 48s-48-21.5-48-48C16 48 64 0 64 0s48 48 48 80zm160 0c0 32-21.5 48-48 48s-48-21.5-48-48c0-32 48-80 48-80s48 48 48 80zm112 48c-26.5 0-48-21.5-48-48c0-32 48-80 48-80s48 48 48 80s-21.5 48-48 48z"/></svg>