<svg xmlns="http://www.w3.org/2000/svg" viewBox="0 0 640 512"><!--! Font Awesome Pro 6.4.0 by @fontawesome - https://fontawesome.com License - https://fontawesome.com/license (Commercial License) Copyright 2023 Fonticons, Inc. --><defs><style>.fa-secondary{opacity:.4}</style></defs><path class="fa-primary" d="M171.3 128H224v96H111.3l30.4-75.9c4.9-12.1 16.6-20.1 29.7-20.1zM272 224V128h81.2c9.7 0 18.9 4.4 25 12l67.2 84H272zm256.2 1l-100-125c-18.2-22.8-45.8-36-75-36H171.3c-39.3 0-74.6 23.9-89.1 60.3L40.6 228.4C16.8 237.8 0 260.9 0 288V400c0 17.7 14.3 32 32 32c0-61.9 50.1-112 112-112s112 50.1 112 112H384c0-61.9 50.1-112 112-112s112 50.1 112 112c17.7 0 32-14.3 32-32V352c0-65.2-48.8-119-111.8-127z"/><path class="fa-secondary" d="M171.3 128H224v96H111.3l30.4-75.9c4.9-12.1 16.6-20.1 29.7-20.1zM272 224V128h81.2c9.7 0 18.9 4.4 25 12l67.2 84H272zM64 432a80 80 0 1 1 160 0A80 80 0 1 1 64 432zm432-80a80 80 0 1 1 0 160 80 80 0 1 1 0-160z"/></svg>