<svg xmlns="http://www.w3.org/2000/svg" viewBox="0 0 512 512"><!--! Font Awesome Pro 6.4.0 by @fontawesome - https://fontawesome.com License - https://fontawesome.com/license (Commercial License) Copyright 2023 Fonticons, Inc. --><defs><style>.fa-secondary{opacity:.4}</style></defs><path class="fa-primary" d="M170.8 234.6L151.7 288H360.3l-19.1-53.4c-2.3-6.4-8.3-10.6-15.1-10.6H185.8c-6.8 0-12.8 4.3-15.1 10.6zM82.2 292.4l28.3-79.3C121.9 181.3 152 160 185.8 160H326.2c33.8 0 64 21.3 75.3 53.1l28.3 79.3c20.1 8.5 34.2 28.4 34.2 51.6v40 64 32c0 17.7-14.3 32-32 32H416c-17.7 0-32-14.3-32-32V448H128v32c0 17.7-14.3 32-32 32H80c-17.7 0-32-14.3-32-32V448 384 344c0-23.2 14.1-43.1 34.2-51.6zM152 368a24 24 0 1 0 -48 0 24 24 0 1 0 48 0zm232 24a24 24 0 1 0 0-48 24 24 0 1 0 0 48z"/><path class="fa-secondary" d="M163.8 112c-6.4 0-12 3.8-15.3 9.3C134.5 144.5 109.1 160 80 160c-28.1 0-52.8-14.5-67.1-36.4C7 114.6 14.7 104 25.5 104H56c13.3 0 24-10.7 24-24s-10.7-24-24-24H25.5C14.7 56 7 45.4 12.9 36.4C27.2 14.5 51.9 0 80 0c29.1 0 54.5 15.5 68.5 38.7c3.3 5.4 8.9 9.3 15.3 9.3H348.2c6.4 0 12-3.8 15.3-9.3C377.5 15.5 402.9 0 432 0c28.1 0 52.8 14.5 67.1 36.4c5.9 9-1.7 19.6-12.5 19.6H456c-13.3 0-24 10.7-24 24s10.7 24 24 24h30.5c10.8 0 18.4 10.6 12.5 19.6c-14.3 21.9-39 36.4-67.1 36.4c-29.1 0-54.5-15.5-68.5-38.7c-3.3-5.4-8.9-9.3-15.3-9.3H163.8z"/></svg>