<svg xmlns="http://www.w3.org/2000/svg" viewBox="0 0 640 512"><!--! Font Awesome Pro 6.4.0 by @fontawesome - https://fontawesome.com License - https://fontawesome.com/license (Commercial License) Copyright 2023 Fonticons, Inc. --><defs><style>.fa-secondary{opacity:.4}</style></defs><path class="fa-primary" d="M528.2 225l-100-125c-18.2-22.8-45.8-36-75-36H171.3c-39.3 0-74.6 23.9-89.1 60.3L40.6 228.4C16.8 237.8 0 260.9 0 288V400c0 17.7 14.3 32 32 32c0-61.9 50.1-112 112-112s112 50.1 112 112H384c0-61.9 50.1-112 112-112s112 50.1 112 112c17.7 0 32-14.3 32-32V352c0-65.2-48.8-119-111.8-127zm-181-108.4c5.3 5.2 6.3 13.3 2.5 19.6L316.3 192H368c7.1 0 13.4 4.7 15.4 11.6s-.8 14.2-6.9 18l-128 80c-6.3 3.9-14.4 3-19.7-2.2s-6.3-13.3-2.5-19.6L259.7 224H208c-7.1 0-13.4-4.7-15.4-11.6s.8-14.2 6.9-18l128-80c6.3-3.9 14.4-3 19.7 2.2z"/><path class="fa-secondary" d="M347.2 116.6c5.3 5.2 6.3 13.3 2.5 19.6L316.3 192H368c7.1 0 13.4 4.7 15.4 11.6s-.8 14.2-6.9 18l-128 80c-6.3 3.9-14.4 3-19.7-2.2s-6.3-13.3-2.5-19.6L259.7 224H208c-7.1 0-13.4-4.7-15.4-11.6s.8-14.2 6.9-18l128-80c6.3-3.9 14.4-3 19.7 2.2zM64 432a80 80 0 1 1 160 0A80 80 0 1 1 64 432zm352 0a80 80 0 1 1 160 0 80 80 0 1 1 -160 0z"/></svg>