<svg xmlns="http://www.w3.org/2000/svg" viewBox="0 0 640 512"><!--! Font Awesome Pro 6.4.0 by @fontawesome - https://fontawesome.com License - https://fontawesome.com/license (Commercial License) Copyright 2023 Fonticons, Inc. --><defs><style>.fa-secondary{opacity:.4}</style></defs><path class="fa-primary" d="M352 368a144 144 0 1 1 288 0 144 144 0 1 1 -288 0zm194.5-66.2c2.8-5 1.7-11.1-2.6-14.9s-10.6-4-15.1-.6l-96 72c-4.1 3.1-5.8 8.5-4.2 13.4s6.2 8.2 11.4 8.2h35.6l-30.1 54.2c-2.8 5-1.7 11.1 2.6 14.9s10.6 4 15.1 .6l96-72c4.1-3.1 5.8-8.5 4.2-13.4s-6.2-8.2-11.4-8.2H516.4l30.1-54.2z"/><path class="fa-secondary" d="M165.4 96H346.6c13.6 0 25.7 8.6 30.2 21.4L402.9 192H109.1l26.1-74.6c4.5-12.8 16.6-21.4 30.2-21.4zm-90.6 .3L39.6 196.8C16.4 206.4 0 229.3 0 256V400v48c0 17.7 14.3 32 32 32H64c17.7 0 32-14.3 32-32V400H322.9c-1.9-10.4-2.9-21.1-2.9-32c0-88.8 65.8-162.3 151.3-174.3L437.2 96.3C423.7 57.8 387.4 32 346.6 32H165.4c-40.8 0-77.1 25.8-90.6 64.3zM96 256a32 32 0 1 1 0 64 32 32 0 1 1 0-64z"/></svg>