<svg xmlns="http://www.w3.org/2000/svg" viewBox="0 0 512 512"><!--! Font Awesome Pro 6.4.0 by @fontawesome - https://fontawesome.com License - https://fontawesome.com/license (Commercial License) Copyright 2023 Fonticons, Inc. --><defs><style>.fa-secondary{opacity:.4}</style></defs><path class="fa-primary" d="M80 96c0-17.7 14.3-32 32-32h64c17.7 0 32 14.3 32 32H80zm224 0c0-17.7 14.3-32 32-32h64c17.7 0 32 14.3 32 32H304z"/><path class="fa-secondary" d="M0 160c0-35.3 28.7-64 64-64H448c35.3 0 64 28.7 64 64V384c0 35.3-28.7 64-64 64H64c-35.3 0-64-28.7-64-64V160zm368 16c-8.8 0-16 7.2-16 16v32H320c-8.8 0-16 7.2-16 16s7.2 16 16 16h32v32c0 8.8 7.2 16 16 16s16-7.2 16-16V256h32c8.8 0 16-7.2 16-16s-7.2-16-16-16H384V192c0-8.8-7.2-16-16-16zM96 224c-8.8 0-16 7.2-16 16s7.2 16 16 16h96c8.8 0 16-7.2 16-16s-7.2-16-16-16H96z"/></svg>