<svg xmlns="http://www.w3.org/2000/svg" viewBox="0 0 512 512"><!--! Font Awesome Pro 6.4.0 by @fontawesome - https://fontawesome.com License - https://fontawesome.com/license (Commercial License) Copyright 2023 Fonticons, Inc. --><defs><style>.fa-secondary{opacity:.4}</style></defs><path class="fa-primary" d="M170.8 234.6L151.7 288H360.3l-19.1-53.4c-2.3-6.4-8.3-10.6-15.1-10.6H185.8c-6.8 0-12.8 4.3-15.1 10.6zM82.2 292.4l28.3-79.3C121.9 181.3 152 160 185.8 160H326.2c33.8 0 64 21.3 75.3 53.1l28.3 79.3c20.1 8.5 34.2 28.4 34.2 51.6v40 64 32c0 17.7-14.3 32-32 32H416c-17.7 0-32-14.3-32-32V448H128v32c0 17.7-14.3 32-32 32H80c-17.7 0-32-14.3-32-32V448 384 344c0-23.2 14.1-43.1 34.2-51.6zM152 368a24 24 0 1 0 -48 0 24 24 0 1 0 48 0zm232 24a24 24 0 1 0 0-48 24 24 0 1 0 0 48z"/><path class="fa-secondary" d="M256 0c13.3 0 24 10.7 24 24v80c0 13.3-10.7 24-24 24s-24-10.7-24-24V24c0-13.3 10.7-24 24-24zM39 39c9.4-9.4 24.6-9.4 33.9 0l48 48c9.4 9.4 9.4 24.6 0 33.9s-24.6 9.4-33.9 0L39 73c-9.4-9.4-9.4-24.6 0-33.9zm400 0c9.4-9.4 24.6-9.4 33.9 0s9.4 24.6 0 33.9l-48 48c-9.4 9.4-24.6 9.4-33.9 0s-9.4-24.6 0-33.9l48-48z"/></svg>