<svg xmlns="http://www.w3.org/2000/svg" viewBox="0 0 640 512"><!--! Font Awesome Pro 6.4.0 by @fontawesome - https://fontawesome.com License - https://fontawesome.com/license (Commercial License) Copyright 2023 Fonticons, Inc. --><defs><style>.fa-secondary{opacity:.4}</style></defs><path class="fa-primary" d="M27.8 118.8C1.2 134.2-7.9 168.2 7.5 194.9l167 289.3c15.4 26.6 49.4 35.8 76.1 20.4L443.4 393.2c26.6-15.4 35.8-49.4 20.4-76.1L296.8 27.8C281.4 1.2 247.3-7.9 220.7 7.5L27.8 118.8zm143.6 55.5c3-11.1 14.4-17.7 25.6-14.8l26.9 7.2 76.1 20.4c26 7 41.4 33.7 34.4 59.7s-33.7 41.4-59.7 34.4l-8.8-2.4c-.4-.1-.8-.2-1.1-.3l17.7 30.7 12.1-7c6.7-3.8 15.2-1.6 19 5.1s1.6 15.2-5.1 19l-48.2 27.8c-6.7 3.8-15.2 1.6-19-5.1s-1.6-15.2 5.1-19l12.1-7-17.7-30.7c-.1 .4-.2 .7-.3 1.1l-2.4 8.8c-7 26-33.7 41.4-59.7 34.4s-41.4-33.7-34.4-59.7l20.4-76.1 7.2-26.9z"/><path class="fa-secondary" d="M306.4 472.3l137-79.1c3.3-1.9 6.4-4.1 9.2-6.6c19.4-17.2 24.7-46.2 11.2-69.5L324.8 76.4C334.4 68.7 346.7 64 360 64H584c30.9 0 56 25.1 56 56V456c0 30.9-25.1 56-56 56H360c-25.3 0-46.6-16.7-53.6-39.7zM582 187.6c14-14.5 13.2-38.5-2.2-51.9c-14-11.7-34.5-9.5-46.9 3.2l-4.7 5.2-5-5.2c-12.5-12.7-33.2-15-46.7-3.2c-15.7 13.5-16.5 37.5-2.5 51.9l48.4 49.9c3 3.2 8.2 3.2 11.5 0L582 187.6z"/></svg>