<svg xmlns="http://www.w3.org/2000/svg" viewBox="0 0 512 512"><!--! Font Awesome Pro 6.4.0 by @fontawesome - https://fontawesome.com License - https://fontawesome.com/license (Commercial License) Copyright 2023 Fonticons, Inc. --><defs><style>.fa-secondary{opacity:.4}</style></defs><path class="fa-primary" d="M320 72c0-29.7 17.6-55 26.7-66c3.3-4 8.2-6 13.3-6s10 2 13.2 6C382.3 17.4 400 44.3 400 80c0 32-8 40-8 40s8-8 40-8c35.7 0 62.6 17.7 74 26.8c4 3.2 6 8.1 6 13.2s-2 10-6 13.3C495 174.4 469.7 192 440 192c-40 0-55.3-15.3-80-40s-40-40-40-80z"/><path class="fa-secondary" d="M142.9 184.2c24.6-30.1 61.7-48.2 101.7-48.2C317.2 136 376 194.8 376 267.4c0 51.2-29.7 97.7-76.2 119.2L199.7 433l-60.4-60.4c-6.2-6.2-16.4-6.2-22.6 0s-6.2 16.4 0 22.6l52.1 52.1L34.1 509.8C25 514 14.1 512.1 7 505s-9-17.9-4.8-27.1L125.4 212.2c0 0 0-.1 0-.1l55.3 55.3c6.2 6.2 16.4 6.2 22.6 0s6.2-16.4 0-22.6l-60.5-60.5z"/></svg>