<svg xmlns="http://www.w3.org/2000/svg" viewBox="0 0 640 512"><!--! Font Awesome Pro 6.4.0 by @fontawesome - https://fontawesome.com License - https://fontawesome.com/license (Commercial License) Copyright 2023 Fonticons, Inc. --><defs><style>.fa-secondary{opacity:.4}</style></defs><path class="fa-primary" d="M0 32C0 14.3 14.3 0 32 0H48c44.2 0 80 35.8 80 80V368c0 8.8 7.2 16 16 16H608c17.7 0 32 14.3 32 32s-14.3 32-32 32H144c-44.2 0-80-35.8-80-80V80c0-8.8-7.2-16-16-16H32C14.3 64 0 49.7 0 32z"/><path class="fa-secondary" d="M224 32c-17.7 0-32 14.3-32 32V288c0 17.7 14.3 32 32 32H352c17.7 0 32-14.3 32-32V64c0-17.7-14.3-32-32-32H224zm224 0c-17.7 0-32 14.3-32 32v64c0 17.7 14.3 32 32 32h64c17.7 0 32-14.3 32-32V64c0-17.7-14.3-32-32-32H448zM416 224v64c0 17.7 14.3 32 32 32H576c17.7 0 32-14.3 32-32V224c0-17.7-14.3-32-32-32H448c-17.7 0-32 14.3-32 32zM160 464c0 26.5 21.5 48 48 48s48-21.5 48-48c0-5.6-1-11-2.7-16H162.7c-1.8 5-2.7 10.4-2.7 16zm288 0c0 26.5 21.5 48 48 48s48-21.5 48-48c0-5.6-1-11-2.7-16H450.7c-1.8 5-2.7 10.4-2.7 16z"/></svg>