<svg xmlns="http://www.w3.org/2000/svg" viewBox="0 0 576 512"><!--! Font Awesome Pro 6.4.0 by @fontawesome - https://fontawesome.com License - https://fontawesome.com/license (Commercial License) Copyright 2023 Fonticons, Inc. --><defs><style>.fa-secondary{opacity:.4}</style></defs><path class="fa-primary" d="M24 0C10.7 0 0 10.7 0 24S10.7 48 24 48H69.5c3.8 0 7.1 2.7 7.9 6.5l51.6 271c6.5 34 36.2 58.5 70.7 58.5H488c13.3 0 24-10.7 24-24s-10.7-24-24-24H199.7c-11.5 0-21.4-8.2-23.6-19.5l-51.6-271C119.5 19.1 96.4 0 69.5 0H24zM176 512a48 48 0 1 0 0-96 48 48 0 1 0 0 96zm336-48a48 48 0 1 0 -96 0 48 48 0 1 0 96 0zM395.4 128.9c7.8-7.8 7.8-20.5 0-28.3s-20.5-7.8-28.3 0L336 131.7l-31.1-31.1c-7.8-7.8-20.5-7.8-28.3 0s-7.8 20.5 0 28.3L307.7 160l-31.1 31.1c-7.8 7.8-7.8 20.5 0 28.3s20.5 7.8 28.3 0L336 188.3l31.1 31.1c7.8 7.8 20.5 7.8 28.3 0s7.8-20.5 0-28.3L364.3 160l31.1-31.1z"/><path class="fa-secondary" d="M459.2 288H170.7L124.5 45.5c-.9-4.8-2.4-9.3-4.4-13.5h411c26.3 0 45.5 25 38.6 50.4l-41 152.3c-8.5 31.4-37 53.3-69.5 53.3zM395.4 128.9c7.8-7.8 7.8-20.5 0-28.3s-20.5-7.8-28.3 0L336 131.7l-31.1-31.1c-7.8-7.8-20.5-7.8-28.3 0s-7.8 20.5 0 28.3L307.7 160l-31.1 31.1c-7.8 7.8-7.8 20.5 0 28.3s20.5 7.8 28.3 0L336 188.3l31.1 31.1c7.8 7.8 20.5 7.8 28.3 0s7.8-20.5 0-28.3L364.3 160l31.1-31.1z"/></svg>