<svg xmlns="http://www.w3.org/2000/svg" viewBox="0 0 640 512"><!--! Font Awesome Pro 6.4.0 by @fontawesome - https://fontawesome.com License - https://fontawesome.com/license (Commercial License) Copyright 2023 Fonticons, Inc. --><defs><style>.fa-secondary{opacity:.4}</style></defs><path class="fa-primary" d="M64 224a96 96 0 1 1 192 0A96 96 0 1 1 64 224zM0 485.3C0 411.7 59.7 352 133.3 352h53.3C260.3 352 320 411.7 320 485.3c0 14.7-11.9 26.7-26.7 26.7H26.7C11.9 512 0 500.1 0 485.3zM416 288h64c17.7 0 32 14.3 32 32v32H384V320c0-17.7 14.3-32 32-32z"/><path class="fa-secondary" d="M224 0c-35.3 0-64 28.7-64 64V96c23.3 0 45.2 6.2 64 17.1V64l352 0V352H284.4c22.4 16.5 40.6 38.5 52.4 64H576c35.3 0 64-28.7 64-64V64c0-35.3-28.7-64-64-64H224z"/></svg>