<svg xmlns="http://www.w3.org/2000/svg" viewBox="0 0 512 512"><!--! Font Awesome Pro 6.4.0 by @fontawesome - https://fontawesome.com License - https://fontawesome.com/license (Commercial License) Copyright 2023 Fonticons, Inc. --><defs><style>.fa-secondary{opacity:.4}</style></defs><path class="fa-primary" d="M0 80C0 53.5 21.5 32 48 32H176c26.5 0 48 21.5 48 48V192c0 26.5-21.5 48-48 48H48c-26.5 0-48-21.5-48-48V80zm256 0c0-26.5 21.5-48 48-48H464c26.5 0 48 21.5 48 48v32c0 26.5-21.5 48-48 48H304c-26.5 0-48-21.5-48-48V80zm48 272H464c26.5 0 48 21.5 48 48v32c0 26.5-21.5 48-48 48H304c-26.5 0-48-21.5-48-48V400c0-26.5 21.5-48 48-48z"/><path class="fa-secondary" d="M304 192c-26.5 0-48 21.5-48 48v32c0 26.5 21.5 48 48 48H464c26.5 0 48-21.5 48-48V240c0-26.5-21.5-48-48-48H304zM48 272c-26.5 0-48 21.5-48 48V432c0 26.5 21.5 48 48 48H176c26.5 0 48-21.5 48-48V320c0-26.5-21.5-48-48-48H48z"/></svg>