<svg xmlns="http://www.w3.org/2000/svg" viewBox="0 0 512 512"><!--! Font Awesome Pro 6.4.0 by @fontawesome - https://fontawesome.com License - https://fontawesome.com/license (Commercial License) Copyright 2023 Fonticons, Inc. --><defs><style>.fa-secondary{opacity:.4}</style></defs><path class="fa-primary" d="M384 192a64 64 0 1 0 0-128 64 64 0 1 0 0 128zm-96-16a48 48 0 1 0 -96 0 48 48 0 1 0 96 0zm64 176a64 64 0 1 0 0-128 64 64 0 1 0 0 128zm-176 0a48 48 0 1 0 0-96 48 48 0 1 0 0 96z"/><path class="fa-secondary" d="M32 32c17.7 0 32 14.3 32 32V400c0 8.8 7.2 16 16 16H480c17.7 0 32 14.3 32 32s-14.3 32-32 32H80c-44.2 0-80-35.8-80-80V64C0 46.3 14.3 32 32 32z"/></svg>