<svg xmlns="http://www.w3.org/2000/svg" viewBox="0 0 512 512"><!--! Font Awesome Pro 6.4.0 by @fontawesome - https://fontawesome.com License - https://fontawesome.com/license (Commercial License) Copyright 2023 Fonticons, Inc. --><defs><style>.fa-secondary{opacity:.4}</style></defs><path class="fa-primary" d="M406.6 246.6L439 279c15.1 15.1 41 4.4 41-17V152c0-13.3-10.7-24-24-24H345.9c-21.4 0-32.1 25.9-17 41l32.4 32.4L304 258.7l-73.4-73.4c-12.5-12.5-32.8-12.5-45.3 0l-80 80c-12.5 12.5-12.5 32.8 0 45.3s32.8 12.5 45.3 0L208 253.3l73.4 73.4c12.5 12.5 32.8 12.5 45.3 0l80-80z"/><path class="fa-secondary" d="M32 32c17.7 0 32 14.3 32 32V400c0 8.8 7.2 16 16 16H480c17.7 0 32 14.3 32 32s-14.3 32-32 32H80c-44.2 0-80-35.8-80-80V64C0 46.3 14.3 32 32 32z"/></svg>