<svg xmlns="http://www.w3.org/2000/svg" viewBox="0 0 576 512"><!--! Font Awesome Pro 6.4.0 by @fontawesome - https://fontawesome.com License - https://fontawesome.com/license (Commercial License) Copyright 2023 Fonticons, Inc. --><defs><style>.fa-secondary{opacity:.4}</style></defs><path class="fa-primary" d="M480 80c0-8.8-7.2-16-16-16s-16 7.2-16 16v48H432c-8.8 0-16 7.2-16 16v32c0 35.8 23.5 66.1 56 76.3V376c0 13.3-10.7 24-24 24s-24-10.7-24-24V344c0-48.6-39.4-88-88-88H320v48h16c22.1 0 40 17.9 40 40v32c0 39.8 32.2 72 72 72s72-32.2 72-72V252.3c32.5-10.2 56-40.5 56-76.3V144c0-8.8-7.2-16-16-16H544V80c0-8.8-7.2-16-16-16s-16 7.2-16 16v48H480V80zM0 480c0 17.7 14.3 32 32 32H320c17.7 0 32-14.3 32-32s-14.3-32-32-32H32c-17.7 0-32 14.3-32 32z"/><path class="fa-secondary" d="M32 64C32 28.7 60.7 0 96 0H256c35.3 0 64 28.7 64 64V448H32V64zm191.2 37.1c2.3-6.8-.3-14.3-6.3-18.3s-13.9-3.6-19.3 1.1l-112 96c-5.1 4.4-6.9 11.4-4.6 17.7s8.3 10.4 15 10.4h57.8l-25 74.9c-2.3 6.8 .3 14.3 6.3 18.3s13.9 3.6 19.3-1.1l112-96c5.1-4.4 6.9-11.4 4.6-17.7s-8.3-10.4-15-10.4H198.2l25-74.9z"/></svg>