<svg xmlns="http://www.w3.org/2000/svg" viewBox="0 0 256 512"><!--! Font Awesome Pro 6.4.0 by @fontawesome - https://fontawesome.com License - https://fontawesome.com/license (Commercial License) Copyright 2023 Fonticons, Inc. --><defs><style>.fa-secondary{opacity:.4}</style></defs><path class="fa-primary" d="M128 0c8.8 0 16 7.2 16 16V32h16c8.8 0 16 7.2 16 16s-7.2 16-16 16H144V96h51.8c11.2 0 20.2 9.1 20.2 20.2c0 2.5-.5 4.9-1.3 7.3L182.2 208H184c13.3 0 24 10.7 24 24s-10.7 24-24 24h-2.7L208 416H48L74.7 256H72c-13.3 0-24-10.7-24-24s10.7-24 24-24h1.8L41.3 123.5c-.9-2.3-1.3-4.8-1.3-7.3C40 105.1 49.1 96 60.2 96H112V64H96c-8.8 0-16-7.2-16-16s7.2-16 16-16h16V16c0-8.8 7.2-16 16-16z"/><path class="fa-secondary" d="M208 416H48L4.8 473.6C1.7 477.8 0 482.8 0 488c0 13.3 10.7 24 24 24H232c13.3 0 24-10.7 24-24c0-5.2-1.7-10.2-4.8-14.4L208 416z"/></svg>