<svg xmlns="http://www.w3.org/2000/svg" viewBox="0 0 448 512"><!--! Font Awesome Pro 6.4.0 by @fontawesome - https://fontawesome.com License - https://fontawesome.com/license (Commercial License) Copyright 2023 Fonticons, Inc. --><defs><style>.fa-secondary{opacity:.4}</style></defs><path class="fa-primary" d="M192 96H128v64H64v64h64v64H64v64h64v64h64V352h64v64h64V352h64V288H320V224h64V160H320V96H256v64H192V96zm0 128H128V160h64v64zm64 0v64h64v64H256V288H192v64H128V288h64V224h64zm0 0V160h64v64H256z"/><path class="fa-secondary" d="M64 32C28.7 32 0 60.7 0 96V416c0 35.3 28.7 64 64 64H384c35.3 0 64-28.7 64-64V96c0-35.3-28.7-64-64-64H64zM384 96V416H64V96H384z"/></svg>