<svg xmlns="http://www.w3.org/2000/svg" viewBox="0 0 256 512"><!--! Font Awesome Pro 6.4.0 by @fontawesome - https://fontawesome.com License - https://fontawesome.com/license (Commercial License) Copyright 2023 Fonticons, Inc. --><defs><style>.fa-secondary{opacity:.4}</style></defs><path class="fa-primary" d="M176 240c19.4-14.6 32-37.8 32-64c0-44.2-35.8-80-80-80s-80 35.8-80 80c0 26.2 12.6 49.4 32 64H72c-13.3 0-24 10.7-24 24s10.7 24 24 24h4.4L48 416H208L179.6 288H184c13.3 0 24-10.7 24-24s-10.7-24-24-24h-8z"/><path class="fa-secondary" d="M208 416H48L4.8 473.6C1.7 477.8 0 482.8 0 488c0 13.3 10.7 24 24 24H232c13.3 0 24-10.7 24-24c0-5.2-1.7-10.2-4.8-14.4L208 416z"/></svg>