<svg xmlns="http://www.w3.org/2000/svg" viewBox="0 0 640 512"><!--! Font Awesome Pro 6.4.0 by @fontawesome - https://fontawesome.com License - https://fontawesome.com/license (Commercial License) Copyright 2023 Fonticons, Inc. --><defs><style>.fa-secondary{opacity:.4}</style></defs><path class="fa-primary" d="M296.3 201.9l-60.5-48.4L330.3 18.3C339 7.2 352.7 0 368 0c26.5 0 48 21.5 48 48c0 11.2-3.8 21.5-10.3 29.7L296.3 201.9zm175.9 62.4L419 211 560.8 75.6C569.2 68.4 580.1 64 592 64c26.5 0 48 21.5 48 48c0 14.6-6.5 27.6-16.8 36.4l-151 115.8z"/><path class="fa-secondary" d="M235.8 153.5L3.4 486.1c-5.5 6.9-4.3 17 2.7 22.5s17 4.3 22.5-2.7l267.8-304-60.5-48.4zM419 211L133.6 483.9c-6.7 5.8-7.5 15.8-1.7 22.6s15.9 7.5 22.6 1.7L472.3 264.3 419 211z"/></svg>