<svg xmlns="http://www.w3.org/2000/svg" viewBox="0 0 512 512"><!--! Font Awesome Pro 6.4.0 by @fontawesome - https://fontawesome.com License - https://fontawesome.com/license (Commercial License) Copyright 2023 Fonticons, Inc. --><defs><style>.fa-secondary{opacity:.4}</style></defs><path class="fa-primary" d="M1.1 232C6 179.3 26.9 131.3 58.8 92.7l45.5 45.5C83.7 164.8 69.9 196.9 65.5 232H1.1zM407.7 373.7c20.6-26.6 34.5-58.7 38.8-93.7h64.4c-4.9 52.7-25.8 100.7-57.7 139.3l-45.5-45.5zM92.7 453.2l45.5-45.5c26.6 20.6 58.7 34.5 93.7 38.8v64.4c-52.7-4.9-100.7-25.8-139.3-57.7zM419.3 58.8l-45.5 45.5C347.2 83.7 315.1 69.9 280 65.5V1.1C332.7 6 380.7 26.9 419.3 58.8z"/><path class="fa-secondary" d="M138.3 104.3c26.6-20.6 58.7-34.5 93.7-38.8V1.1C179.3 6 131.3 26.9 92.7 58.8l45.5 45.5zM280 446.5v64.4c52.7-4.9 100.7-25.8 139.3-57.7l-45.5-45.5c-26.6 20.6-58.7 34.5-93.7 38.8zM58.8 419.3l45.5-45.5C83.7 347.2 69.9 315.1 65.5 280H1.1C6 332.7 26.9 380.7 58.8 419.3zm348.9-281c20.6 26.6 34.5 58.7 38.8 93.7h64.4c-4.9-52.7-25.8-100.7-57.7-139.3l-45.5 45.5z"/></svg>