<svg xmlns="http://www.w3.org/2000/svg" viewBox="0 0 512 512"><!--! Font Awesome Pro 6.4.0 by @fontawesome - https://fontawesome.com License - https://fontawesome.com/license (Commercial License) Copyright 2023 Fonticons, Inc. --><defs><style>.fa-secondary{opacity:.4}</style></defs><path class="fa-primary" d="M256 384a32 32 0 1 1 0-64 32 32 0 1 1 0 64zm0-96a32 32 0 1 1 0-64 32 32 0 1 1 0 64zM224 160a32 32 0 1 1 64 0 32 32 0 1 1 -64 0z"/><path class="fa-secondary" d="M512 256A256 256 0 1 0 0 256a256 256 0 1 0 512 0zM224 352a32 32 0 1 1 64 0 32 32 0 1 1 -64 0zm32-64a32 32 0 1 1 0-64 32 32 0 1 1 0 64zM224 160a32 32 0 1 1 64 0 32 32 0 1 1 -64 0z"/></svg>