<svg xmlns="http://www.w3.org/2000/svg" viewBox="0 0 512 512"><!--! Font Awesome Pro 6.4.0 by @fontawesome - https://fontawesome.com License - https://fontawesome.com/license (Commercial License) Copyright 2023 Fonticons, Inc. --><defs><style>.fa-secondary{opacity:.4}</style></defs><path class="fa-primary" d="M239 393c9.4 9.4 24.6 9.4 33.9 0L385 281c9.4-9.4 9.4-24.6 0-33.9s-24.6-9.4-33.9 0l-71 71V136c0-13.3-10.7-24-24-24s-24 10.7-24 24V318.1l-71-71c-9.4-9.4-24.6-9.4-33.9 0s-9.4 24.6 0 33.9L239 393z"/><path class="fa-secondary" d="M256 512A256 256 0 1 1 256 0a256 256 0 1 1 0 512zM385 281c9.4-9.4 9.4-24.6 0-33.9s-24.6-9.4-33.9 0l-71 71V136c0-13.3-10.7-24-24-24s-24 10.7-24 24V318.1l-71-71c-9.4-9.4-24.6-9.4-33.9 0s-9.4 24.6 0 33.9L239 393c9.4 9.4 24.6 9.4 33.9 0L385 281z"/></svg>