<svg xmlns="http://www.w3.org/2000/svg" viewBox="0 0 512 512"><!--! Font Awesome Pro 6.4.0 by @fontawesome - https://fontawesome.com License - https://fontawesome.com/license (Commercial License) Copyright 2023 Fonticons, Inc. --><defs><style>.fa-secondary{opacity:.4}</style></defs><path class="fa-primary" d="M231.2 190.5c-.1-16.8 13.5-30.5 30.3-30.5c3.9 0 7.7 .7 11.3 2.2l30.3 12.1c12.3 4.9 26.3-1.1 31.2-13.4s-1.1-26.3-13.4-31.2l-30.3-12.1c-9.2-3.7-19.1-5.6-29.1-5.6c-43.5 0-78.6 35.4-78.3 78.9l.2 33.1c-13 .3-23.5 10.9-23.5 24c0 13.1 10.6 23.8 23.6 24c-.7 14.8-4.6 29.2-11.4 42.4L162.7 333c-3.8 7.4-3.5 16.3 .8 23.5s12.1 11.5 20.5 11.5H328c13.3 0 24-10.7 24-24s-10.7-24-24-24H222.2c5.7-15.4 9-31.6 9.5-48H264c13.3 0 24-10.7 24-24s-10.7-24-24-24H231.5l-.2-33.5z"/><path class="fa-secondary" d="M256 512A256 256 0 1 0 256 0a256 256 0 1 0 0 512zm5.5-352c-16.8 0-30.4 13.7-30.3 30.5l.2 33.5H264c13.3 0 24 10.7 24 24s-10.7 24-24 24H231.7c-.6 16.4-3.8 32.6-9.5 48H328c13.3 0 24 10.7 24 24s-10.7 24-24 24H184c-8.4 0-16.1-4.4-20.5-11.5s-4.7-16-.8-23.5l9.6-18.6c6.8-13.2 10.7-27.6 11.4-42.4c-13.1-.2-23.6-10.9-23.6-24c0-13.1 10.5-23.7 23.5-24l-.2-33.1c-.3-43.5 34.8-78.9 78.3-78.9c10 0 19.8 1.9 29.1 5.6l30.3 12.1c12.3 4.9 18.3 18.9 13.4 31.2s-18.9 18.3-31.2 13.4l-30.3-12.1c-3.6-1.4-7.4-2.2-11.3-2.2z"/></svg>