<svg xmlns="http://www.w3.org/2000/svg" viewBox="0 0 512 512"><!--! Font Awesome Pro 6.4.0 by @fontawesome - https://fontawesome.com License - https://fontawesome.com/license (Commercial License) Copyright 2023 Fonticons, Inc. --><defs><style>.fa-secondary{opacity:.4}</style></defs><path class="fa-primary" d="M240 192h48c17.7 0 32 14.3 32 32s-14.3 32-32 32H240V192zm0 128h48c53 0 96-43 96-96s-43-96-96-96H216c-22.1 0-40 17.9-40 40V288v64c0 17.7 14.3 32 32 32s32-14.3 32-32V320z"/><path class="fa-secondary" d="M256 64a192 192 0 1 1 0 384 192 192 0 1 1 0-384zm0 448A256 256 0 1 0 256 0a256 256 0 1 0 0 512z"/></svg>