<svg xmlns="http://www.w3.org/2000/svg" viewBox="0 0 512 512"><!--! Font Awesome Pro 6.4.0 by @fontawesome - https://fontawesome.com License - https://fontawesome.com/license (Commercial License) Copyright 2023 Fonticons, Inc. --><defs><style>.fa-secondary{opacity:.4}</style></defs><path class="fa-primary" d="M193.8 151.9c-8.9-9.8-24.1-10.5-33.9-1.6s-10.5 24.1-1.6 33.9L209 240H184c-13.3 0-24 10.7-24 24s10.7 24 24 24h48v16H184c-13.3 0-24 10.7-24 24s10.7 24 24 24h48v25c0 13.3 10.7 24 24 24s24-10.7 24-24V352h48c13.3 0 24-10.7 24-24s-10.7-24-24-24H280V288h48c13.3 0 24-10.7 24-24s-10.7-24-24-24H303l50.8-55.9c8.9-9.8 8.2-25-1.6-33.9s-25-8.2-33.9 1.6L256 220.3l-62.2-68.5z"/><path class="fa-secondary" d="M256 512A256 256 0 1 0 256 0a256 256 0 1 0 0 512zM159.9 150.2c9.8-8.9 25-8.2 33.9 1.6L256 220.3l62.2-68.5c8.9-9.8 24.1-10.5 33.9-1.6s10.5 24.1 1.6 33.9L303 240h25c13.3 0 24 10.7 24 24s-10.7 24-24 24H280v16h48c13.3 0 24 10.7 24 24s-10.7 24-24 24H280v25c0 13.3-10.7 24-24 24s-24-10.7-24-24V352H184c-13.3 0-24-10.7-24-24s10.7-24 24-24h48V288H184c-13.3 0-24-10.7-24-24s10.7-24 24-24h25l-50.8-55.9c-8.9-9.8-8.2-25 1.6-33.9z"/></svg>