<svg xmlns="http://www.w3.org/2000/svg" viewBox="0 0 512 512"><!--! Font Awesome Pro 6.4.0 by @fontawesome - https://fontawesome.com License - https://fontawesome.com/license (Commercial License) Copyright 2023 Fonticons, Inc. --><defs><style>.fa-secondary{opacity:.4}</style></defs><path class="fa-primary" d="M210.5 140.3c-3.9-9.3-14-14.2-23.7-11.6l-44 12C134 143.1 128 151 128 160c0 123.7 100.3 224 224 224c9 0 16.9-6 19.3-14.7l12-44c2.6-9.7-2.3-19.9-11.6-23.7l-48-20c-8.2-3.4-17.6-1-23.2 5.8L280.3 312c-35.2-16.6-63.7-45.1-80.3-80.3l24.7-20.2c6.8-5.6 9.2-15 5.8-23.2l-20-48z"/><path class="fa-secondary" d="M256 512A256 256 0 1 0 256 0a256 256 0 1 0 0 512zM186.7 128.7c9.7-2.6 19.9 2.3 23.7 11.6l20 48c3.4 8.2 1 17.6-5.8 23.2L200 231.7c16.6 35.2 45.1 63.7 80.3 80.3l20.2-24.7c5.6-6.8 15-9.2 23.2-5.8l48 20c9.3 3.9 14.2 14 11.6 23.7l-12 44C368.9 378 361 384 352 384c-123.7 0-224-100.3-224-224c0-9 6-16.9 14.7-19.3l44-12z"/></svg>