<svg xmlns="http://www.w3.org/2000/svg" viewBox="0 0 512 512"><!--! Font Awesome Pro 6.4.0 by @fontawesome - https://fontawesome.com License - https://fontawesome.com/license (Commercial License) Copyright 2023 Fonticons, Inc. --><defs><style>.fa-secondary{opacity:.4}</style></defs><path class="fa-primary" d="M320 80a80 80 0 1 1 160 0A80 80 0 1 1 320 80zM256 432a80 80 0 1 1 160 0 80 80 0 1 1 -160 0zM80 128a80 80 0 1 1 0 160 80 80 0 1 1 0-160z"/><path class="fa-secondary" d="M418.4 157.9c-5.9 1.4-12 2.1-18.4 2.1c-16.5 0-31.9-5-44.6-13.6L317.6 354.1c5.9-1.4 12-2.1 18.4-2.1c16.5 0 31.9 5 44.6 13.6l37.8-207.7zM114.1 280.4L259.7 407.8c6.8-21.3 22.2-38.7 42.1-48.2L156.3 232.2c-6.8 21.3-22.2 38.7-42.1 48.2zM160 210.5l183.8-73.5C329.1 122.4 320 102.3 320 80c0-.8 0-1.7 0-2.5L136.2 151.1C150.9 165.6 160 185.7 160 208c0 .8 0 1.7 0 2.5z"/></svg>