<svg xmlns="http://www.w3.org/2000/svg" viewBox="0 0 512 512"><!--! Font Awesome Pro 6.4.0 by @fontawesome - https://fontawesome.com License - https://fontawesome.com/license (Commercial License) Copyright 2023 Fonticons, Inc. --><defs><style>.fa-secondary{opacity:.4}</style></defs><path class="fa-primary" d="M192 112c0-8.8 7.2-16 16-16s16 7.2 16 16v16h64V112c0-8.8 7.2-16 16-16s16 7.2 16 16v16h32c17.7 0 32 14.3 32 32v64H128V160c0-17.7 14.3-32 32-32h32V112z"/><path class="fa-secondary" d="M256 512A256 256 0 1 0 256 0a256 256 0 1 0 0 512zM208 96c8.8 0 16 7.2 16 16v16h64V112c0-8.8 7.2-16 16-16s16 7.2 16 16v16h32c17.7 0 32 14.3 32 32v64V352c0 17.7-14.3 32-32 32H160c-17.7 0-32-14.3-32-32V224 160c0-17.7 14.3-32 32-32h32V112c0-8.8 7.2-16 16-16z"/></svg>