<svg xmlns="http://www.w3.org/2000/svg" viewBox="0 0 512 512"><!--! Font Awesome Pro 6.4.0 by @fontawesome - https://fontawesome.com License - https://fontawesome.com/license (Commercial License) Copyright 2023 Fonticons, Inc. --><defs><style>.fa-secondary{opacity:.4}</style></defs><path class="fa-primary" d="M212.7 116.7L201.4 128H160c-8.8 0-16 7.2-16 16s7.2 16 16 16H352c8.8 0 16-7.2 16-16s-7.2-16-16-16H310.6l-11.3-11.3c-3-3-7.1-4.7-11.3-4.7H224c-4.2 0-8.3 1.7-11.3 4.7zM160 192l13.6 162.7c1.4 16.6 15.2 29.3 31.9 29.3H306.6c16.6 0 30.5-12.8 31.9-29.3L352 192H160z"/><path class="fa-secondary" d="M256 512A256 256 0 1 0 256 0a256 256 0 1 0 0 512zM160 128h41.4l11.3-11.3c3-3 7.1-4.7 11.3-4.7h64c4.2 0 8.3 1.7 11.3 4.7L310.6 128H352c8.8 0 16 7.2 16 16s-7.2 16-16 16H160c-8.8 0-16-7.2-16-16s7.2-16 16-16zm0 64H352L338.4 354.7c-1.4 16.6-15.2 29.3-31.9 29.3H205.4c-16.6 0-30.5-12.8-31.9-29.3L160 192z"/></svg>