<svg xmlns="http://www.w3.org/2000/svg" viewBox="0 0 512 512"><!--! Font Awesome Pro 6.4.0 by @fontawesome - https://fontawesome.com License - https://fontawesome.com/license (Commercial License) Copyright 2023 Fonticons, Inc. --><defs><style>.fa-secondary{opacity:.4}</style></defs><path class="fa-primary" d="M274.2 378.7l84-196c3.6-8.3 1.7-17.9-4.7-24.2c-6.3-6.3-15.8-8.2-24.2-4.7l-196 84c-9.6 4.1-15 14.5-12.9 24.6c2.1 10.2 11.1 17.6 21.5 17.6h90v90c0 10.4 7.4 19.5 17.6 21.6c1.5 .3 2.9 .4 4.4 .4c8.8 0 16.7-5.2 20.2-13.3z"/><path class="fa-secondary" d="M256 512A256 256 0 1 0 256 0a256 256 0 1 0 0 512zM358.2 182.7l-84 196c-3.5 8.1-11.4 13.3-20.2 13.3c-1.4 0-2.9-.1-4.4-.4C239.4 389.5 232 380.4 232 370V280H142c-10.4 0-19.5-7.4-21.5-17.6c-2.1-10.2 3.3-20.5 12.9-24.6l196-84c8.5-3.5 18-1.7 24.2 4.7c6.4 6.3 8.2 15.9 4.7 24.2z"/></svg>