<svg xmlns="http://www.w3.org/2000/svg" viewBox="0 0 512 512"><!--! Font Awesome Pro 6.4.0 by @fontawesome - https://fontawesome.com License - https://fontawesome.com/license (Commercial License) Copyright 2023 Fonticons, Inc. --><defs><style>.fa-secondary{opacity:.4}</style></defs><path class="fa-primary" d="M384 128H304c-8.8 0-16-7.2-16-16V96c0-53 43-96 96-96h80c8.8 0 16 7.2 16 16V32c0 53-43 96-96 96z"/><path class="fa-secondary" d="M304 128h80c19 0 36.8-5.5 51.7-15.1C473.2 155.3 496 211 496 272c0 132.5-107.5 240-240 240S16 404.5 16 272S123.5 32 256 32c17.8 0 35.1 1.9 51.8 5.6C295.4 53.8 288 74 288 96v16c0 8.8 7.2 16 16 16z"/></svg>