<svg xmlns="http://www.w3.org/2000/svg" viewBox="0 0 512 512"><!--! Font Awesome Pro 6.4.0 by @fontawesome - https://fontawesome.com License - https://fontawesome.com/license (Commercial License) Copyright 2023 Fonticons, Inc. --><defs><style>.fa-secondary{opacity:.4}</style></defs><path class="fa-primary" d="M453.8 32.3L327 159l-1 1H233.9L361 33l1-1H448c2 0 3.9 .1 5.8 .3zM393.9 160L498 56c8.8 11 14 24.9 14 40v64H393.9zM201.9 32h92.1L167 159l-1 1H73.9L201 33l1-1zm-67.9 0L7 159l-1 1H0V96C0 60.7 28.7 32 64 32h70.1z"/><path class="fa-secondary" d="M0 160H512V416c0 35.3-28.7 64-64 64H64c-35.3 0-64-28.7-64-64V160z"/></svg>