<svg xmlns="http://www.w3.org/2000/svg" viewBox="0 0 384 512"><!--! Font Awesome Pro 6.4.0 by @fontawesome - https://fontawesome.com License - https://fontawesome.com/license (Commercial License) Copyright 2023 Fonticons, Inc. --><defs><style>.fa-secondary{opacity:.4}</style></defs><path class="fa-primary" d="M113.2 66.3C93.9 72.6 80 90.7 80 112v24c0 13.3 10.7 24 24 24h88 88c13.3 0 24-10.7 24-24V112c0-21.3-13.9-39.4-33.2-45.7C264.4 28.7 231.5 0 192 0s-72.4 28.7-78.8 66.3zM168 80a24 24 0 1 1 48 0 24 24 0 1 1 -48 0zM104 196c-11 0-20 9-20 20v80 64c0 11 9 20 20 20s20-9 20-20V316h20c.7 .9 1.5 1.8 2.3 2.6l64.8 60.8-32.6 29.9c-8.1 7.5-8.7 20.1-1.2 28.3s20.1 8.7 28.3 1.2l34.9-32 33.9 31.8c8.1 7.6 20.7 7.1 28.3-.9s7.1-20.7-.9-28.3L270 379.7l31.6-28.9c8.1-7.5 8.7-20.1 1.2-28.3s-20.1-8.7-28.3-1.2l-33.8 31-43-40.3c22.4-8.7 38.3-30.5 38.3-55.9c0-33.1-26.9-60-60-60H104zm72 80H124V236h52c11 0 20 9 20 20s-9 20-20 20z"/><path class="fa-secondary" d="M113.2 66.3c.1-.8 .3-1.6 .4-2.3H64C28.7 64 0 92.7 0 128V448c0 35.3 28.7 64 64 64H320c35.3 0 64-28.7 64-64V128c0-35.3-28.7-64-64-64H270.4c.2 .8 .3 1.6 .4 2.3C290.1 72.6 304 90.7 304 112v24c0 13.3-10.7 24-24 24H192 104c-13.3 0-24-10.7-24-24V112c0-21.3 13.9-39.4 33.2-45.7zM104 196h72c33.1 0 60 26.9 60 60c0 25.5-15.9 47.2-38.3 55.9l43 40.3 33.8-31c8.1-7.5 20.8-6.9 28.3 1.2s6.9 20.8-1.2 28.3L270 379.7l31.7 29.7c8.1 7.6 8.5 20.2 .9 28.3s-20.2 8.5-28.3 .9l-33.9-31.8-34.9 32c-8.1 7.5-20.8 6.9-28.3-1.2s-6.9-20.8 1.2-28.3l32.6-29.9-64.8-60.8c-.9-.8-1.6-1.7-2.3-2.6H124v44c0 11-9 20-20 20s-20-9-20-20V296 216c0-11 9-20 20-20zm72 80c11 0 20-9 20-20s-9-20-20-20H124v40h52z"/></svg>