<svg xmlns="http://www.w3.org/2000/svg" viewBox="0 0 384 512"><!--! Font Awesome Pro 6.4.0 by @fontawesome - https://fontawesome.com License - https://fontawesome.com/license (Commercial License) Copyright 2023 Fonticons, Inc. --><defs><style>.fa-secondary{opacity:.4}</style></defs><path class="fa-primary" d="M192 0c-39.5 0-72.4 28.7-78.8 66.3C93.9 72.6 80 90.7 80 112v24c0 13.3 10.7 24 24 24h88 88c13.3 0 24-10.7 24-24V112c0-21.3-13.9-39.4-33.2-45.7C264.4 28.7 231.5 0 192 0zm0 56a24 24 0 1 1 0 48 24 24 0 1 1 0-48z"/><path class="fa-secondary" d="M113.6 64c-.2 .8-.3 1.6-.4 2.3C93.9 72.6 80 90.7 80 112v24c0 13.3 10.7 24 24 24h88 88c13.3 0 24-10.7 24-24V112c0-21.3-13.9-39.4-33.2-45.7c-.1-.8-.3-1.6-.4-2.3H320c35.3 0 64 28.7 64 64V448c0 35.3-28.7 64-64 64H64c-35.3 0-64-28.7-64-64V128C0 92.7 28.7 64 64 64h49.6z"/></svg>