<svg xmlns="http://www.w3.org/2000/svg" viewBox="0 0 512 512"><!--! Font Awesome Pro 6.4.0 by @fontawesome - https://fontawesome.com License - https://fontawesome.com/license (Commercial License) Copyright 2023 Fonticons, Inc. --><defs><style>.fa-secondary{opacity:.4}</style></defs><path class="fa-primary" d="M256 416c-13.3 0-24-10.7-24-24V256c0-8 4-15.5 10.7-20l96-64c11-7.4 25.9-4.4 33.3 6.7s4.4 25.9-6.7 33.3L280 268.8V392c0 13.3-10.7 24-24 24z"/><path class="fa-secondary" d="M256 0a256 256 0 1 0 0 512A256 256 0 1 0 256 0zM232 392V256c0-8 4-15.5 10.7-20l96-64c11-7.4 25.9-4.4 33.3 6.7s4.4 25.9-6.7 33.3L280 268.8V392c0 13.3-10.7 24-24 24s-24-10.7-24-24z"/></svg>