<svg xmlns="http://www.w3.org/2000/svg" viewBox="0 0 448 512"><!--! Font Awesome Pro 6.4.0 by @fontawesome - https://fontawesome.com License - https://fontawesome.com/license (Commercial License) Copyright 2023 Fonticons, Inc. --><defs><style>.fa-secondary{opacity:.4}</style></defs><path class="fa-primary" d="M248 120c0-13.3-10.7-24-24-24s-24 10.7-24 24V224c0 6.4 2.5 12.5 7 17l48 48c9.4 9.4 24.6 9.4 33.9 0s9.4-24.6 0-33.9l-41-41V120zM448 224c0 123.7-100.3 224-224 224S0 347.7 0 224V464c0 26.5 21.5 48 48 48H400c26.5 0 48-21.5 48-48V224z"/><path class="fa-secondary" d="M224 448A224 224 0 1 0 224 0a224 224 0 1 0 0 448zm24-328v94.1l41 41c9.4 9.4 9.4 24.6 0 33.9s-24.6 9.4-33.9 0l-48-48c-4.5-4.5-7-10.6-7-17V120c0-13.3 10.7-24 24-24s24 10.7 24 24z"/></svg>