<svg xmlns="http://www.w3.org/2000/svg" viewBox="0 0 512 512"><!--! Font Awesome Pro 6.4.0 by @fontawesome - https://fontawesome.com License - https://fontawesome.com/license (Commercial License) Copyright 2023 Fonticons, Inc. --><defs><style>.fa-secondary{opacity:.4}</style></defs><path class="fa-primary" d="M256 416c13.3 0 24-10.7 24-24V263.3l60-90c7.4-11 4.4-25.9-6.7-33.3s-25.9-4.4-33.3 6.7l-64 96c-2.6 3.9-4 8.6-4 13.3V392c0 13.3 10.7 24 24 24z"/><path class="fa-secondary" d="M256 512A256 256 0 1 1 256 0a256 256 0 1 1 0 512zm24-120V263.3l60-90c7.4-11 4.4-25.9-6.7-33.3s-25.9-4.4-33.3 6.7l-64 96c-2.6 3.9-4 8.6-4 13.3V392c0 13.3 10.7 24 24 24s24-10.7 24-24z"/></svg>