<svg xmlns="http://www.w3.org/2000/svg" viewBox="0 0 640 512"><!--! Font Awesome Pro 6.4.0 by @fontawesome - https://fontawesome.com License - https://fontawesome.com/license (Commercial License) Copyright 2023 Fonticons, Inc. --><defs><style>.fa-secondary{opacity:.4}</style></defs><path class="fa-primary" d="M372.8 177.1c20.9-7.8 43.2 7.6 43.2 30V336v0c0 22.1-21.5 40-48 40s-48-17.9-48-40s21.5-40 48-40c5.6 0 11 .8 16 2.3V239.1l-96 36V368v0c0 22.1-21.5 40-48 40s-48-17.9-48-40s21.5-40 48-40c5.6 0 11 .8 16 2.3V243.1c0-13.3 8.3-25.3 20.8-30l96-36z"/><path class="fa-secondary" d="M144 480C64.5 480 0 415.5 0 336c0-62.8 40.2-116.2 96.2-135.9c-.1-2.7-.2-5.4-.2-8.1c0-88.4 71.6-160 160-160c59.3 0 111 32.2 138.7 80.2C409.9 102 428.3 96 448 96c53 0 96 43 96 96c0 12.2-2.3 23.8-6.4 34.6C596 238.4 640 290.1 640 352c0 70.7-57.3 128-128 128H144zM416 207.1c0-22.3-22.3-37.8-43.2-30l-96 36c-12.5 4.7-20.8 16.6-20.8 30v87.2c-5-1.5-10.4-2.3-16-2.3c-26.5 0-48 17.9-48 40s21.5 40 48 40s48-17.9 48-40v0V275.1l96-36v59.2c-5-1.5-10.4-2.3-16-2.3c-26.5 0-48 17.9-48 40s21.5 40 48 40s48-17.9 48-40v0V207.1z"/></svg>