<svg xmlns="http://www.w3.org/2000/svg" viewBox="0 0 640 512"><!--! Font Awesome Pro 6.4.0 by @fontawesome - https://fontawesome.com License - https://fontawesome.com/license (Commercial License) Copyright 2023 Fonticons, Inc. --><defs><style>.fa-secondary{opacity:.4}</style></defs><path class="fa-primary" d="M128 416c0 53 43 96 96 96H544c53 0 96-43 96-96s-43-96-96-96c-.5 0-1.1 0-1.6 0c1.1-5.2 1.6-10.5 1.6-16c0-44.2-35.8-80-80-80c-24.3 0-46.1 10.9-60.8 28c-18.7-35.7-56.1-60-99.2-60c-61.9 0-112 50.1-112 112c0 7.1 .7 14.1 1.9 20.8C155.6 337.4 128 373.5 128 416z"/><path class="fa-secondary" d="M304 160c-74.1 0-135.2 56-143.1 128H96c-53 0-96-43-96-96s43-96 96-96l1.1 0C104.9 41.7 151.6 0 208 0c47.9 0 88.8 30.1 104.8 72.4C324.8 67 338 64 352 64c53 0 96 43 96 96c0 12.1-2.2 23.6-6.3 34.2c-11.4 2.3-22.2 6.4-32.1 11.9C383.3 177.7 345.7 160 304 160z"/></svg>