<svg xmlns="http://www.w3.org/2000/svg" viewBox="0 0 512 512"><!--! Font Awesome Pro 6.4.0 by @fontawesome - https://fontawesome.com License - https://fontawesome.com/license (Commercial License) Copyright 2023 Fonticons, Inc. --><defs><style>.fa-secondary{opacity:.4}</style></defs><path class="fa-primary" d="M0 224c0 53 43 96 96 96H416c53 0 96-43 96-96s-43-96-96-96c-.5 0-1.1 0-1.6 0c1.1-5.2 1.6-10.5 1.6-16c0-44.2-35.8-80-80-80c-24.3 0-46.1 10.9-60.8 28C256.5 24.3 219.1 0 176 0C114.1 0 64 50.1 64 112c0 7.1 .7 14.1 1.9 20.8C27.6 145.4 0 181.5 0 224z"/><path class="fa-secondary" d="M88 376c0-13.3-10.7-24-24-24s-24 10.7-24 24v16H24c-13.3 0-24 10.7-24 24s10.7 24 24 24H40v16c0 13.3 10.7 24 24 24s24-10.7 24-24V440h16c13.3 0 24-10.7 24-24s-10.7-24-24-24H88V376zm192 32c0-13.3-10.7-24-24-24s-24 10.7-24 24v16H216c-13.3 0-24 10.7-24 24s10.7 24 24 24h16v16c0 13.3 10.7 24 24 24s24-10.7 24-24V472h16c13.3 0 24-10.7 24-24s-10.7-24-24-24H280V408zm168-56c-13.3 0-24 10.7-24 24v16H408c-13.3 0-24 10.7-24 24s10.7 24 24 24h16v16c0 13.3 10.7 24 24 24s24-10.7 24-24V440h16c13.3 0 24-10.7 24-24s-10.7-24-24-24H472V376c0-13.3-10.7-24-24-24z"/></svg>