<svg xmlns="http://www.w3.org/2000/svg" viewBox="0 0 576 512"><!--! Font Awesome Pro 6.4.0 by @fontawesome - https://fontawesome.com License - https://fontawesome.com/license (Commercial License) Copyright 2023 Fonticons, Inc. --><defs><style>.fa-secondary{opacity:.4}</style></defs><path class="fa-primary" d="M0 416c0 53 43 96 96 96H416c53 0 96-43 96-96s-43-96-96-96c-.5 0-1.1 0-1.6 0c1.1-5.2 1.6-10.5 1.6-16c0-44.2-35.8-80-80-80c-24.3 0-46.1 10.9-60.8 28c-18.7-35.7-56.1-60-99.2-60c-61.9 0-112 50.1-112 112c0 7.1 .7 14.1 1.9 20.8C27.6 337.4 0 373.5 0 416z"/><path class="fa-secondary" d="M560 64.4c8.8-.5 16-7.6 16-16.4V16c0-8.8-7.2-16-16-15.6C430.9 6.1 319.9 81.4 263.6 189.7c6.5 5 12.5 10.4 18 16.4c16.1-9 34.7-14.1 54.4-14.1c.2 0 .3 0 .5 0C385.4 119 466.8 69.5 560 64.4zM424 234.7c32.1-41.5 80.7-69.5 136-74c8.8-.7 16-7.8 16-16.7V112c0-8.8-7.2-16.1-16-15.5c-76.9 4.7-144.6 43.4-188.4 101.3c20.9 7 39 20 52.3 36.9zm23.4 57.2c15.2 3.8 29.3 10.4 41.8 19.1c13.2-27.9 39.5-48.4 70.9-53.7c8.7-1.5 15.9-8.5 15.9-17.3V208c0-8.8-7.2-16.1-16-15.2c-49.9 4.9-93 32.8-118.8 72.9c3 8.3 5.1 17.1 6.1 26.2zm-165.8 110c-13.8 14.9-30.8 26.9-49.9 34.9c5.9 6.8 14.6 11.2 24.3 11.2c17.5 0 31.7-14 32-31.4l0-.6 0-1.4v-9.3c-2.2-1-4.3-2.1-6.4-3.3z"/></svg>