<svg xmlns="http://www.w3.org/2000/svg" viewBox="0 0 640 512"><!--! Font Awesome Pro 6.4.0 by @fontawesome - https://fontawesome.com License - https://fontawesome.com/license (Commercial License) Copyright 2023 Fonticons, Inc. --><defs><style>.fa-secondary{opacity:.4}</style></defs><path class="fa-primary" d="M559.9 511.9c44.2 0 80-35.8 80-80c0-39.3-28.4-72.1-65.8-78.7c1.2-5.6 1.9-11.3 1.9-17.2c0-44.2-35.8-80-80-80c-17 0-32.8 5.3-45.8 14.4C433.3 242.6 402.8 224 368 224c-53 0-96 43-96 96l0 1.3c-45.4 7.6-80 47.1-80 94.6c0 53 43 96 96 96H559.9z"/><path class="fa-secondary" d="M294.2 1.2c5.1 2.1 8.7 6.7 9.6 12.1l14.1 84.7 84.7 14.1c5.4 .9 10 4.5 12.1 9.6s1.5 10.9-1.6 15.4l-38.5 55c-2.2-.1-4.4-.2-6.7-.2c-23.3 0-45.1 6.2-64 17.1c0-.4 0-.7 0-1.1c0-53-43-96-96-96s-96 43-96 96s43 96 96 96c8.1 0 15.9-1 23.4-2.9c-36.6 18.1-63.3 53.1-69.8 94.9l-24.4 17.1c-4.5 3.1-10.3 3.8-15.4 1.6s-8.7-6.7-9.6-12.1L98.1 317.9 13.4 303.8c-5.4-.9-10-4.5-12.1-9.6s-1.5-10.9 1.6-15.4L52.5 208 2.9 137.2c-3.2-4.5-3.8-10.3-1.6-15.4s6.7-8.7 12.1-9.6L98.1 98.1l14.1-84.7c.9-5.4 4.5-10 9.6-12.1s10.9-1.5 15.4 1.6L208 52.5 278.8 2.9c4.5-3.2 10.3-3.8 15.4-1.6zM144 208a64 64 0 1 1 128 0 64 64 0 1 1 -128 0z"/></svg>