<svg xmlns="http://www.w3.org/2000/svg" viewBox="0 0 512 512"><!--! Font Awesome Pro 6.4.0 by @fontawesome - https://fontawesome.com License - https://fontawesome.com/license (Commercial License) Copyright 2023 Fonticons, Inc. --><defs><style>.fa-secondary{opacity:.4}</style></defs><path class="fa-primary" d="M256 224c17.7 0 32 14.3 32 32V448h32c17.7 0 32 14.3 32 32s-14.3 32-32 32H192c-17.7 0-32-14.3-32-32s14.3-32 32-32h32V256c0-17.7 14.3-32 32-32z"/><path class="fa-secondary" d="M288 372.7V256c0-17.7-14.3-32-32-32s-32 14.3-32 32V372.7c-23.5 26.6-57.8 43.3-96 43.3C57.3 416 0 358.7 0 288s57.3-128 128-128c1.4 0 2.7 0 4 .1c-2.6-10.2-4-21-4-32.1C128 57.3 185.3 0 256 0s128 57.3 128 128c0 11.1-1.4 21.8-4 32.1c1.3 0 2.7-.1 4-.1c70.7 0 128 57.3 128 128s-57.3 128-128 128c-38.2 0-72.5-16.8-96-43.3z"/></svg>