<svg xmlns="http://www.w3.org/2000/svg" viewBox="0 0 448 512"><!--! Font Awesome Pro 6.4.0 by @fontawesome - https://fontawesome.com License - https://fontawesome.com/license (Commercial License) Copyright 2023 Fonticons, Inc. --><defs><style>.fa-secondary{opacity:.4}</style></defs><path class="fa-primary" d="M80 56a24 24 0 1 1 0 48 24 24 0 1 1 0-48zm0 104A80 80 0 1 0 80 0a80 80 0 1 0 0 160zm0 248a24 24 0 1 1 0 48 24 24 0 1 1 0-48zm0 104a80 80 0 1 0 0-160 80 80 0 1 0 0 160zM344 272a24 24 0 1 1 48 0 24 24 0 1 1 -48 0zm104 0a80 80 0 1 0 -160 0 80 80 0 1 0 160 0z"/><path class="fa-secondary" d="M112.4 153.2c-9.9 4.4-20.9 6.8-32.4 6.8c-11.4 0-22.2-2.4-32-6.7V358.7c9.8-4.3 20.6-6.7 32-6.7s22.2 2.4 32 6.7V272c26.7 20.1 60 32 96 32h86.7c-4.3-9.8-6.7-20.6-6.7-32s2.4-22.2 6.7-32H208c-49.9 0-91-38.1-95.6-86.8z"/></svg>