<svg xmlns="http://www.w3.org/2000/svg" viewBox="0 0 512 512"><!--! Font Awesome Pro 6.4.0 by @fontawesome - https://fontawesome.com License - https://fontawesome.com/license (Commercial License) Copyright 2023 Fonticons, Inc. --><defs><style>.fa-secondary{opacity:.4}</style></defs><path class="fa-primary" d="M329.4 9.4c12.5-12.5 32.8-12.5 45.3 0L400 34.7 425.4 9.4c12.5-12.5 32.8-12.5 45.3 0s12.5 32.8 0 45.3L445.3 80l25.4 25.4c12.5 12.5 12.5 32.8 0 45.3s-32.8 12.5-45.3 0L400 125.3l-25.4 25.4c-12.5 12.5-32.8 12.5-45.3 0s-12.5-32.8 0-45.3L354.7 80 329.4 54.6c-12.5-12.5-12.5-32.8 0-45.3zM136 80A24 24 0 1 0 88 80a24 24 0 1 0 48 0zM32 80a80 80 0 1 1 160 0A80 80 0 1 1 32 80zm80 376a24 24 0 1 0 0-48 24 24 0 1 0 0 48zm0-104a80 80 0 1 1 0 160 80 80 0 1 1 0-160zM400 456a24 24 0 1 0 0-48 24 24 0 1 0 0 48zm0-104a80 80 0 1 1 0 160 80 80 0 1 1 0-160z"/><path class="fa-secondary" d="M144 153.3c-9.8 4.3-20.6 6.7-32 6.7s-22.2-2.4-32-6.7V358.7c9.8-4.3 20.6-6.7 32-6.7s22.2 2.4 32 6.7V153.3zM400 192c-17.7 0-32 14.3-32 32V358.7c9.8-4.3 20.6-6.7 32-6.7s22.2 2.4 32 6.7V224c0-17.7-14.3-32-32-32z"/></svg>