<svg xmlns="http://www.w3.org/2000/svg" viewBox="0 0 512 512"><!--! Font Awesome Pro 6.4.0 by @fontawesome - https://fontawesome.com License - https://fontawesome.com/license (Commercial License) Copyright 2023 Fonticons, Inc. --><defs><style>.fa-secondary{opacity:.4}</style></defs><path class="fa-primary" d="M408 80a24 24 0 1 1 48 0 24 24 0 1 1 -48 0zm104 0A80 80 0 1 0 352 80a80 80 0 1 0 160 0zM104 432a24 24 0 1 1 -48 0 24 24 0 1 1 48 0zM0 432a80 80 0 1 0 160 0A80 80 0 1 0 0 432z"/><path class="fa-secondary" d="M400 153.3c9.8 4.3 20.6 6.7 32 6.7s22.2-2.4 32-6.7V320c0 70.7-57.3 128-128 128H320v40c0 9.5-5.6 18.1-14.2 21.9s-18.8 2.3-25.8-4.1l-80-72c-5.1-4.6-7.9-11-7.9-17.8s2.9-13.3 7.9-17.8l80-72c7-6.3 17.2-7.9 25.8-4.1s14.2 12.4 14.2 21.9v40h16c35.3 0 64-28.7 64-64V153.3zM112 358.7c-9.8-4.3-20.6-6.7-32-6.7s-22.2 2.4-32 6.7V192c0-70.7 57.3-128 128-128h16V24c0-9.5 5.6-18.1 14.2-21.9s18.8-2.3 25.8 4.1l80 72c5.1 4.6 7.9 11 7.9 17.8s-2.9 13.3-7.9 17.8l-80 72c-7 6.3-17.2 7.9-25.8 4.1s-14.2-12.4-14.2-21.9V128H176c-35.3 0-64 28.7-64 64V358.7z"/></svg>