<svg xmlns="http://www.w3.org/2000/svg" viewBox="0 0 448 512"><!--! Font Awesome Pro 6.4.0 by @fontawesome - https://fontawesome.com License - https://fontawesome.com/license (Commercial License) Copyright 2023 Fonticons, Inc. --><defs><style>.fa-secondary{opacity:.4}</style></defs><path class="fa-primary" d="M80 56a24 24 0 1 1 0 48 24 24 0 1 1 0-48zm0 104A80 80 0 1 0 80 0a80 80 0 1 0 0 160zm0 248a24 24 0 1 1 0 48 24 24 0 1 1 0-48zm0 104a80 80 0 1 0 0-160 80 80 0 1 0 0 160zm264-80a24 24 0 1 1 48 0 24 24 0 1 1 -48 0zm104 0a80 80 0 1 0 -160 0 80 80 0 1 0 160 0z"/><path class="fa-secondary" d="M416 80a48 48 0 1 0 -96 0 48 48 0 1 0 96 0zM112 153.3c-9.8 4.3-20.6 6.7-32 6.7s-22.2-2.4-32-6.7V358.7c9.8-4.3 20.6-6.7 32-6.7s22.2 2.4 32 6.7V153.3zM368 288a48 48 0 1 0 0-96 48 48 0 1 0 0 96z"/></svg>