<svg xmlns="http://www.w3.org/2000/svg" viewBox="0 0 512 512"><!--! Font Awesome Pro 6.4.0 by @fontawesome - https://fontawesome.com License - https://fontawesome.com/license (Commercial License) Copyright 2023 Fonticons, Inc. --><defs><style>.fa-secondary{opacity:.4}</style></defs><path class="fa-primary" d="M471 258.5c1 2.3 2 4.6 2.9 6.8c2.8-2.3 5.5-4.7 8.1-7.3c5.9-5.9 11-12.4 15.2-19.4c-8.1-17.8-18.9-38.5-31.3-53.2c-27.7-32.8-61.2-44.7-90.7-55.3l-1-.4c-30.1-10.8-56.2-20.3-78-46.2c-10.9-12.8-21.4-33.6-29.5-52.3c-1-2.3-2-4.6-2.9-6.8c-2.8 2.3-5.5 4.7-8.1 7.3c-5.9 5.9-11 12.4-15.2 19.4c8.1 17.8 18.9 38.5 31.3 53.2c27.7 32.8 61.2 44.7 90.7 55.3l1 .4c30.1 10.8 56.2 20.3 78 46.2c10.9 12.8 21.4 33.6 29.5 52.3zM119.9 504.5c-.9 2.4-1.9 4.7-2.8 6.9c3.6 .4 7.2 .6 10.9 .6c8.4 0 16.6-1 24.5-2.9c6.9-18.3 13.9-40.6 15.5-59.8c3.6-42.8-11.6-74.9-25-103.2l-.4-.9c-13.7-28.9-25.3-54.1-22.5-87.8c1.4-16.7 8.6-38.9 16.1-57.9c.9-2.4 1.9-4.7 2.8-6.9c-3.6-.4-7.2-.6-10.9-.6c-8.4 0-16.6 1-24.5 2.9c-6.9 18.3-13.9 40.6-15.5 59.7c-3.6 42.8 11.6 74.9 25 103.2l.4 .9c13.7 28.9 25.3 54.1 22.5 87.8c-1.4 16.7-8.6 38.9-16.1 57.9z"/><path class="fa-secondary" d="M278.4 235.4c-55.1-55.1-69.5-132.5-37.9-184.3c8.1 17.8 18.9 38.5 31.3 53.2c27.7 32.8 61.2 44.7 90.7 55.3l1 .4c30.1 10.8 56.2 20.3 78 46.2c10.9 12.8 21.4 33.6 29.5 52.3c1 2.3 2 4.6 2.9 6.8c-51.3 41.5-136.3 29.3-195.6-29.9zm181-181c55.1 55.1 69.5 132.5 37.9 184.3c-8.1-17.8-18.9-38.5-31.3-53.2c-27.7-32.8-61.2-44.7-90.7-55.3l-1-.4c-30.1-10.8-56.2-20.3-78-46.2c-10.9-12.8-21.4-33.6-29.5-52.3c-1-2.3-2-4.6-2.9-6.8C315.1-17 400.2-4.9 459.4 54.4zM0 352c0-77.9 44.5-142.8 103.5-157.1c-6.9 18.3-13.9 40.6-15.5 59.7c-3.6 42.8 11.6 74.9 25 103.2l.4 .9c13.7 28.9 25.3 54.1 22.5 87.8c-1.4 16.7-8.6 38.9-16.1 57.9c-.9 2.4-1.9 4.7-2.8 6.9C51.5 504.5 0 435.8 0 352zm256 0c0 77.9-44.5 142.8-103.5 157.1c6.9-18.3 13.9-40.6 15.5-59.8c3.6-42.8-11.6-74.9-25-103.2l-.4-.9c-13.7-28.9-25.3-54.1-22.5-87.8c1.4-16.7 8.6-38.9 16.1-57.9c.9-2.4 1.9-4.7 2.8-6.9C204.5 199.5 256 268.2 256 352z"/></svg>