<svg xmlns="http://www.w3.org/2000/svg" viewBox="0 0 384 512"><!--! Font Awesome Pro 6.4.0 by @fontawesome - https://fontawesome.com License - https://fontawesome.com/license (Commercial License) Copyright 2023 Fonticons, Inc. --><defs><style>.fa-secondary{opacity:.4}</style></defs><path class="fa-primary" d="M216 120c0-13.3-10.7-24-24-24s-24 10.7-24 24v40H120c-13.3 0-24 10.7-24 24s10.7 24 24 24h48V328c0 13.3 10.7 24 24 24s24-10.7 24-24V208h48c13.3 0 24-10.7 24-24s-10.7-24-24-24H216V120z"/><path class="fa-secondary" d="M102.4 10.9l-91 104C4.1 123.3 0 134.2 0 145.4c0 4.4 .6 8.7 1.8 12.9L97.3 488.9c4 13.7 16.5 23.1 30.7 23.1H255.9c14.3 0 26.8-9.4 30.7-23.1l95.5-330.6c1.2-4.2 1.8-8.5 1.8-12.9c0-11.2-4.1-22.1-11.5-30.6l-91-104C275.5 4 266.7 0 257.5 0h-131c-9.2 0-18 4-24.1 10.9zM216 120v40h48c13.3 0 24 10.7 24 24s-10.7 24-24 24H216V328c0 13.3-10.7 24-24 24s-24-10.7-24-24V208H120c-13.3 0-24-10.7-24-24s10.7-24 24-24h48V120c0-13.3 10.7-24 24-24s24 10.7 24 24z"/></svg>