<svg xmlns="http://www.w3.org/2000/svg" viewBox="0 0 512 512"><!--! Font Awesome Pro 6.4.0 by @fontawesome - https://fontawesome.com License - https://fontawesome.com/license (Commercial License) Copyright 2023 Fonticons, Inc. --><defs><style>.fa-secondary{opacity:.4}</style></defs><path class="fa-primary" d="M384 240c0 18-14.3 34.6-38.4 48c-35 19.4-90.8 32-153.6 32c-59.6 0-112.9-11.3-148.2-29.1c-1.9-.9-3.7-1.9-5.5-2.9C14.3 274.6 0 258 0 240c0-44.2 86-80 192-80s192 35.8 192 80zM192 352c56.2 0 108.6-9.4 148.1-25.9c16.3-6.8 31.5-15.2 43.9-25.5V336c0 18-14.3 34.6-38.4 48c-1.8 1-3.6 1.9-5.5 2.9C304.9 404.7 251.6 416 192 416c-62.8 0-118.6-12.6-153.6-32C14.3 370.6 0 354 0 336V300.6c12.5 10.3 27.6 18.7 43.9 25.5C83.4 342.6 135.8 352 192 352zm148.1 70.1c16.3-6.8 31.5-15.2 43.9-25.5V432c0 44.2-86 80-192 80S0 476.2 0 432V396.6c12.5 10.3 27.6 18.7 43.9 25.5C83.4 438.6 135.8 448 192 448s108.6-9.4 148.1-25.9z"/><path class="fa-secondary" d="M512 80c0 18-14.3 34.6-38.4 48c-29.1 16.1-72.5 27.5-122.3 30.9c-3.7-1.8-7.4-3.5-11.3-5C300.6 137.4 248.2 128 192 128c-8.3 0-16.4 .2-24.5 .6c-.4-.2-.7-.4-1.1-.6C142.3 114.6 128 98 128 80c0-44.2 86-80 192-80S512 35.8 512 80zM416 341.3V278.1c19-4.2 36.5-9.5 52.1-16c16.3-6.8 31.5-15.2 43.9-25.5V272c0 29.6-38.6 55.5-96 69.3zm0-96V240c0-21.9-10.6-39.9-24.1-53.4c28.3-4.4 54.2-11.4 76.2-20.5c16.3-6.8 31.5-15.2 43.9-25.5V176c0 18-14.3 34.6-38.4 48c-1.8 1-3.6 1.9-5.5 2.9c-14.6 7.4-32.2 13.6-52.2 18.4z"/></svg>