<svg xmlns="http://www.w3.org/2000/svg" viewBox="0 0 512 512"><!--! Font Awesome Pro 6.4.0 by @fontawesome - https://fontawesome.com License - https://fontawesome.com/license (Commercial License) Copyright 2023 Fonticons, Inc. --><defs><style>.fa-secondary{opacity:.4}</style></defs><path class="fa-primary" d="M0 96C0 43 43 0 96 0s96 43 96 96v32H320v64H192 128 96h0C43 192 0 149 0 96zM320 320h64 32c53 0 96 43 96 96s-43 96-96 96s-96-43-96-96V384H192V320H320zM128 128V96c0-17.7-14.3-32-32-32S64 78.3 64 96s14.3 32 32 32h32zM384 384v32c0 17.7 14.3 32 32 32s32-14.3 32-32s-14.3-32-32-32H384z"/><path class="fa-secondary" d="M320 128V96c0-53 43-96 96-96s96 43 96 96s-43 96-96 96H384V320H320V192 128zM192 320v64 32c0 53-43 96-96 96s-96-43-96-96s43-96 96-96h32V192h64V320zm-64 64H96c-17.7 0-32 14.3-32 32s14.3 32 32 32s32-14.3 32-32V384zM384 128h32c17.7 0 32-14.3 32-32s-14.3-32-32-32s-32 14.3-32 32v32z"/></svg>