<svg xmlns="http://www.w3.org/2000/svg" viewBox="0 0 640 512"><!--! Font Awesome Pro 6.4.0 by @fontawesome - https://fontawesome.com License - https://fontawesome.com/license (Commercial License) Copyright 2023 Fonticons, Inc. --><defs><style>.fa-secondary{opacity:.4}</style></defs><path class="fa-primary" d="M228 72c0-11-9-20-20-20s-20 9-20 20V86c-7.6 1.7-15.2 4.4-22.2 8.5c-13.9 8.3-25.9 22.8-25.8 43.9c.1 20.3 12 33.1 24.7 40.7c11 6.6 24.7 10.8 35.6 14l1.7 .5c12.6 3.8 21.8 6.8 28 10.7c5.1 3.2 5.8 5.4 5.9 8.2c.1 5-1.8 8-5.9 10.5c-5 3.1-12.9 5-21.4 4.7c-11.1-.4-21.5-3.9-35.1-8.5c-2.3-.8-4.7-1.6-7.2-2.4c-10.5-3.5-21.8 2.2-25.3 12.6s2.2 21.8 12.6 25.3c1.9 .6 4 1.3 6.1 2.1l0 0 0 0c8.3 2.9 17.9 6.2 28.2 8.4V280c0 11 9 20 20 20s20-9 20-20V266.2c8-1.7 16-4.5 23.2-9c14.3-8.9 25.1-24.1 24.8-45c-.3-20.3-11.7-33.4-24.6-41.6c-11.5-7.2-25.9-11.6-37.1-15l-.7-.2c-12.8-3.9-21.9-6.7-28.3-10.5c-5.2-3.1-5.3-4.9-5.3-6.7c0-3.7 1.4-6.5 6.2-9.3c5.4-3.2 13.6-5.1 21.5-5c9.6 .1 20.2 2.2 31.2 5.2c10.7 2.8 21.6-3.5 24.5-14.2s-3.5-21.6-14.2-24.5c-6.5-1.7-13.7-3.4-21.1-4.7V72zM448 176c0 112.3-99.1 196.9-216.5 207C255.8 457.4 336.4 512 432 512c38.2 0 73.9-8.7 104.7-23.9c7.5 4 16 7.9 25.2 11.4c18.3 6.9 40.3 12.5 62.1 12.5c6.9 0 13.1-4.5 15.2-11.1c2.1-6.6-.2-13.8-5.8-17.9l0 0 0 0-.2-.2c-.2-.2-.6-.4-1.1-.8c-1-.8-2.5-2-4.3-3.7c-3.6-3.3-8.5-8.1-13.3-14.3c-5.5-7-10.7-15.4-14.2-24.7c24.9-29 39.6-64.7 39.6-103.4c0-92.8-84.9-168.9-192.6-175.5c.4 5.1 .6 10.3 .6 15.5z"/><path class="fa-secondary" d="M208 352c114.9 0 208-78.8 208-176S322.9 0 208 0S0 78.8 0 176c0 38.6 14.7 74.3 39.6 103.4c-3.5 9.4-8.7 17.7-14.2 24.7c-4.8 6.2-9.7 11-13.3 14.3c-1.8 1.6-3.3 2.9-4.3 3.7c-.5 .4-.9 .7-1.1 .8l-.2 .2 0 0 0 0C1 327.2-1.4 334.4 .8 340.9S9.1 352 16 352c21.8 0 43.8-5.6 62.1-12.5c9.2-3.5 17.8-7.4 25.2-11.4C134.1 343.3 169.8 352 208 352zM228 72V85.9c7.5 1.2 14.6 2.9 21.1 4.7c10.7 2.8 17 13.8 14.2 24.5s-13.8 17-24.5 14.2c-11-2.9-21.6-5-31.2-5.2c-7.9-.1-16 1.8-21.5 5c-4.8 2.8-6.2 5.6-6.2 9.3c0 1.8 .1 3.5 5.3 6.7c6.3 3.8 15.5 6.7 28.3 10.5l.7 .2c11.2 3.4 25.6 7.7 37.1 15c12.9 8.1 24.3 21.3 24.6 41.6c.3 20.9-10.5 36.1-24.8 45c-7.2 4.5-15.2 7.3-23.2 9V280c0 11-9 20-20 20s-20-9-20-20V265.4c-10.3-2.2-20-5.5-28.2-8.4l0 0 0 0c-2.1-.7-4.1-1.4-6.1-2.1c-10.5-3.5-16.1-14.8-12.6-25.3s14.8-16.1 25.3-12.6c2.5 .8 4.9 1.7 7.2 2.4c13.6 4.6 24 8.1 35.1 8.5c8.6 .3 16.5-1.6 21.4-4.7c4.1-2.5 6-5.5 5.9-10.5c0-2.9-.8-5-5.9-8.2c-6.3-4-15.4-6.9-28-10.7l-1.7-.5c-10.9-3.3-24.6-7.4-35.6-14c-12.7-7.7-24.6-20.5-24.7-40.7c-.1-21.1 11.8-35.7 25.8-43.9c6.9-4.1 14.5-6.8 22.2-8.5V72c0-11 9-20 20-20s20 9 20 20z"/></svg>