<svg xmlns="http://www.w3.org/2000/svg" viewBox="0 0 512 512"><!--! Font Awesome Pro 6.4.0 by @fontawesome - https://fontawesome.com License - https://fontawesome.com/license (Commercial License) Copyright 2023 Fonticons, Inc. --><defs><style>.fa-secondary{opacity:.4}</style></defs><path class="fa-primary" d="M160 96c0-17.7-14.3-32-32-32s-32 14.3-32 32v64H32c-17.7 0-32 14.3-32 32s14.3 32 32 32h96c17.7 0 32-14.3 32-32V96zM352 416c0 17.7 14.3 32 32 32s32-14.3 32-32V352h64c17.7 0 32-14.3 32-32s-14.3-32-32-32H384c-17.7 0-32 14.3-32 32v96z"/><path class="fa-secondary" d="M352 96c0-17.7 14.3-32 32-32s32 14.3 32 32v64h64c17.7 0 32 14.3 32 32s-14.3 32-32 32H384c-17.7 0-32-14.3-32-32V96zM160 416c0 17.7-14.3 32-32 32s-32-14.3-32-32V352H32c-17.7 0-32-14.3-32-32s14.3-32 32-32h96c17.7 0 32 14.3 32 32v96z"/></svg>