<svg xmlns="http://www.w3.org/2000/svg" viewBox="0 0 640 512"><!--! Font Awesome Pro 6.4.0 by @fontawesome - https://fontawesome.com License - https://fontawesome.com/license (Commercial License) Copyright 2023 Fonticons, Inc. --><defs><style>.fa-secondary{opacity:.4}</style></defs><path class="fa-primary" d="M96 0C78.3 0 64 14.3 64 32V224c0 17.7 14.3 32 32 32H288c17.7 0 32-14.3 32-32V32c0-17.7-14.3-32-32-32H96zM416 64c-17.7 0-32 14.3-32 32V224c0 17.7 14.3 32 32 32H544c17.7 0 32-14.3 32-32V96c0-17.7-14.3-32-32-32H416z"/><path class="fa-secondary" d="M96 320c-53 0-96 43-96 96s43 96 96 96H544c53 0 96-43 96-96s-43-96-96-96H96zm32 64a32 32 0 1 1 0 64 32 32 0 1 1 0-64zm160 32a32 32 0 1 1 64 0 32 32 0 1 1 -64 0zm224-32a32 32 0 1 1 0 64 32 32 0 1 1 0-64z"/></svg>