<svg xmlns="http://www.w3.org/2000/svg" viewBox="0 0 640 512"><!--! Font Awesome Pro 6.4.0 by @fontawesome - https://fontawesome.com License - https://fontawesome.com/license (Commercial License) Copyright 2023 Fonticons, Inc. --><defs><style>.fa-secondary{opacity:.4}</style></defs><path class="fa-primary" d="M256 0H176c-26.5 0-48 21.5-48 48V208c0 26.5 21.5 48 48 48H464c26.5 0 48-21.5 48-48V48c0-26.5-21.5-48-48-48H384V112c0 5.9-3.2 11.3-8.5 14.1s-11.5 2.5-16.4-.8L320 99.2l-39.1 26.1c-4.9 3.3-11.2 3.6-16.4 .8s-8.5-8.2-8.5-14.1V0z"/><path class="fa-secondary" d="M256 0h16 96 16V16v96c0 5.9-3.2 11.3-8.5 14.1s-11.5 2.5-16.4-.8L320 99.2l-39.1 26.1c-4.9 3.3-11.2 3.6-16.4 .8s-8.5-8.2-8.5-14.1V16 0zM0 416c0-53 43-96 96-96H544c53 0 96 43 96 96s-43 96-96 96H96c-53 0-96-43-96-96zm160 0a32 32 0 1 0 -64 0 32 32 0 1 0 64 0zm160 32a32 32 0 1 0 0-64 32 32 0 1 0 0 64zm224-32a32 32 0 1 0 -64 0 32 32 0 1 0 64 0z"/></svg>