<svg xmlns="http://www.w3.org/2000/svg" viewBox="0 0 512 512"><!--! Font Awesome Pro 6.4.0 by @fontawesome - https://fontawesome.com License - https://fontawesome.com/license (Commercial License) Copyright 2023 Fonticons, Inc. --><defs><style>.fa-secondary{opacity:.4}</style></defs><path class="fa-primary" d="M128 0C60 0 4.4 53 .2 120c0 .2 0 .3 0 .5L0 128H7.9l.1 0H0v33.3c0 28.1 16.3 53.6 41.8 65.4L98.9 253C86.9 272.5 80 295.4 80 320v16L192 448H320L432 336V320c0-24.6-6.9-47.5-18.9-67l57.1-26.3c25.5-11.8 41.8-37.3 41.8-65.4V128h-8c0 0 .1 0 .1 0H512l-.2-7.5c0-.1 0-.3 0-.4l0 0 0 0C507.6 53 452 0 384 0H339.3c-7.1 0-10.7 8.6-5.7 13.7l36.7 36.7c5 5 1.5 13.7-5.7 13.7H328c-4.4 0-8.1 3.6-7.5 8c3.9 31.6 30.9 56 63.5 56h80v33.3c0 9.4-5.4 17.9-13.9 21.8L378.7 216c-21-15.1-46.8-24-74.7-24H208c-27.9 0-53.7 8.9-74.7 24L61.9 183.1C53.4 179.2 48 170.6 48 161.3V128h80c32.6 0 59.6-24.4 63.5-56c.5-4.4-3.1-8-7.5-8H147.3c-7.1 0-10.7-8.6-5.7-13.7l36.7-36.7c5-5 1.5-13.7-5.7-13.7H128z"/><path class="fa-secondary" d="M208 128c-8.8 0-16 7.2-16 16v49c5.2-.7 10.6-1 16-1h16V144c0-8.8-7.2-16-16-16zM89.3 272H51.8L23.2 257.7c-7.9-4-17.5-.7-21.5 7.2s-.7 17.5 7.2 21.5l32 16c2.2 1.1 4.7 1.7 7.2 1.7H81c1.4-11.2 4.2-21.9 8.3-32zM80 329.8l-21.1 7c-2.4 .8-4.5 2.1-6.3 3.9l-32 32c-6.2 6.2-6.2 16.4 0 22.6s16.4 6.2 22.6 0L72.6 366l28-9.3L80 336v-6.2zm51.4 57.5L90.9 400.8c-2.4 .8-4.5 2.1-6.3 3.9l-32 32c-6.2 6.2-6.2 16.4 0 22.6s16.4 6.2 22.6 0L104.6 430l52-17.3-25.3-25.3zm41 41l-36.6 21.9c-4.8 2.9-7.8 8.1-7.8 13.7v32c0 8.8 7.2 16 16 16s16-7.2 16-16V473.1L201.8 448H192l-19.7-19.7zM310.2 448L352 473.1V496c0 8.8 7.2 16 16 16s16-7.2 16-16V464c0-5.6-3-10.8-7.8-13.7l-36.6-21.9L320 448h-9.8zm45.1-35.4l52 17.3 29.3 29.3c6.2 6.2 16.4 6.2 22.6 0s6.2-16.4 0-22.6l-32-32c-1.8-1.8-3.9-3.1-6.3-3.9l-40.4-13.5-25.3 25.3zm56-56l28 9.3 29.3 29.3c6.2 6.2 16.4 6.2 22.6 0s6.2-16.4 0-22.6l-32-32c-1.8-1.8-3.9-3.1-6.3-3.9l-21.1-7V336l-20.6 20.6zM431 304h33c2.5 0 4.9-.6 7.2-1.7l32-16c7.9-4 11.1-13.6 7.2-21.5s-13.6-11.1-21.5-7.2L460.2 272H422.7c4.1 10.1 6.9 20.8 8.3 32zM320 193V144c0-8.8-7.2-16-16-16s-16 7.2-16 16v48h16c5.4 0 10.8 .3 16 1z"/></svg>