<svg xmlns="http://www.w3.org/2000/svg" viewBox="0 0 512 512"><!--! Font Awesome Pro 6.4.0 by @fontawesome - https://fontawesome.com License - https://fontawesome.com/license (Commercial License) Copyright 2023 Fonticons, Inc. --><defs><style>.fa-secondary{opacity:.4}</style></defs><path class="fa-primary" d="M32 64C14.3 64 0 78.3 0 96s14.3 32 32 32H64V64H32zM384 480c0 17.7 14.3 32 32 32s32-14.3 32-32l0-352c0-35.3-28.7-64-64-64H128v64l256 0 0 352z"/><path class="fa-secondary" d="M457.4 9.4c12.5-12.5 32.8-12.5 45.3 0s12.5 32.8 0 45.3l-56.8 56.8c-5.9-22-23.2-39.4-45.3-45.3L457.4 9.4zM384 128v45.3L173.3 384H384v64H128c-35.3 0-64-28.7-64-64V32C64 14.3 78.3 0 96 0s32 14.3 32 32V338.7L338.7 128H384zm64 320V384h32c17.7 0 32 14.3 32 32s-14.3 32-32 32H448z"/></svg>