<svg xmlns="http://www.w3.org/2000/svg" viewBox="0 0 512 512"><!--! Font Awesome Pro 6.4.0 by @fontawesome - https://fontawesome.com License - https://fontawesome.com/license (Commercial License) Copyright 2023 Fonticons, Inc. --><defs><style>.fa-secondary{opacity:.4}</style></defs><path class="fa-primary" d="M288 66.7c-10.4-1.7-21.1-2.7-32-2.7s-21.6 .9-32 2.7V128c0 17.7 14.3 32 32 32s32-14.3 32-32V66.7zM66.7 288H128c17.7 0 32-14.3 32-32s-14.3-32-32-32H66.7c-1.7 10.4-2.7 21.1-2.7 32s.9 21.6 2.7 32zM224 445.3c10.4 1.7 21.1 2.7 32 2.7s21.6-.9 32-2.7V384c0-17.7-14.3-32-32-32s-32 14.3-32 32v61.3zM445.3 224H384c-17.7 0-32 14.3-32 32s14.3 32 32 32h61.3c1.7-10.4 2.7-21.1 2.7-32s-.9-21.6-2.7-32z"/><path class="fa-secondary" d="M256 64a192 192 0 1 1 0 384 192 192 0 1 1 0-384zm0 448A256 256 0 1 0 256 0a256 256 0 1 0 0 512z"/></svg>