<svg xmlns="http://www.w3.org/2000/svg" viewBox="0 0 512 512"><!--! Font Awesome Pro 6.4.0 by @fontawesome - https://fontawesome.com License - https://fontawesome.com/license (Commercial License) Copyright 2023 Fonticons, Inc. --><defs><style>.fa-secondary{opacity:.4}</style></defs><path class="fa-primary" d="M256 0c17.7 0 32 14.3 32 32v96c0 17.7-14.3 32-32 32s-32-14.3-32-32V32c0-17.7 14.3-32 32-32zM224 256a32 32 0 1 1 64 0 32 32 0 1 1 -64 0zm256 32H384c-17.7 0-32-14.3-32-32s14.3-32 32-32h96c17.7 0 32 14.3 32 32s-14.3 32-32 32zM256 352c17.7 0 32 14.3 32 32v96c0 17.7-14.3 32-32 32s-32-14.3-32-32V384c0-17.7 14.3-32 32-32zM128 288H32c-17.7 0-32-14.3-32-32s14.3-32 32-32h96c17.7 0 32 14.3 32 32s-14.3 32-32 32z"/><path class="fa-secondary" d="M42.4 224C56.3 130.3 130.3 56.3 224 42.4v65C165.7 119.9 119.9 165.7 107.4 224h-65zm0 64h65c12.5 58.3 58.4 104.1 116.6 116.6v65C130.3 455.7 56.3 381.7 42.4 288zM288 469.6v-65c58.3-12.5 104.1-58.4 116.6-116.6h65c-13.9 93.7-88 167.7-181.6 181.6zM469.6 224h-65C392.1 165.7 346.3 119.9 288 107.4v-65c93.7 13.9 167.7 88 181.6 181.6z"/></svg>