<svg xmlns="http://www.w3.org/2000/svg" viewBox="0 0 640 512"><!--! Font Awesome Pro 6.4.0 by @fontawesome - https://fontawesome.com License - https://fontawesome.com/license (Commercial License) Copyright 2023 Fonticons, Inc. --><defs><style>.fa-secondary{opacity:.4}</style></defs><path class="fa-primary" d="M456 0c-48.6 0-88 39.4-88 88v29.2L12.5 390.6c-14 10.8-16.6 30.9-5.9 44.9s30.9 16.6 44.9 5.9L126.1 384H352c106 0 192-86 192-192V128 88c0-48.6-39.4-88-88-88zm0 64a24 24 0 1 1 0 48 24 24 0 1 1 0-48z"/><path class="fa-secondary" d="M544 120V88c0-21.3-7.5-40.8-20.1-56H574c29.4 0 55 20 62.1 48.5L640 96l-96 24zM355.2 384c16.9-.3 33.4-2.8 49-7.1l42 102c5 12.3-.8 26.3-13.1 31.3s-26.3-.8-31.3-13.1L355.2 384zm-96 0h51.9l39.1 94.9c5 12.3-.8 26.3-13.1 31.3s-26.3-.8-31.3-13.1L259.2 384z"/></svg>