<svg xmlns="http://www.w3.org/2000/svg" viewBox="0 0 512 512"><!--! Font Awesome Pro 6.4.0 by @fontawesome - https://fontawesome.com License - https://fontawesome.com/license (Commercial License) Copyright 2023 Fonticons, Inc. --><defs><style>.fa-secondary{opacity:.4}</style></defs><path class="fa-primary" d="M201.4 153.4L298.7 56 344 101.3 269.3 176 336 242.7 410.7 168 456 213.3l-97.3 97.3c0 0-.1 .1-.1 .1s-.1 .1-.1 .1l-34.7 34.7c-12.9 12.9-29.2 21.9-47.1 25.8L169.1 395.2c-5.9 1.3-11.4 4.3-15.7 8.6L54.6 502.6c-12.5 12.5-32.8 12.5-45.3 0s-12.5-32.8 0-45.3l98.8-98.8c4.3-4.3 7.3-9.7 8.6-15.7l23.9-107.6c4-17.8 12.9-34.1 25.8-47.1l34.8-34.8zM224 221.3l-12.2 12.2c-4.3 4.3-7.3 9.7-8.6 15.7l-17 76.7 76.7-17c5.9-1.3 11.4-4.3 15.7-8.6L290.7 288 224 221.3z"/><path class="fa-secondary" d="M297.4 9.4c12.5-12.5 32.8-12.5 45.3 0l160 160c12.5 12.5 12.5 32.8 0 45.3s-32.8 12.5-45.3 0l-160-160c-12.5-12.5-12.5-32.8 0-45.3z"/></svg>