<svg xmlns="http://www.w3.org/2000/svg" viewBox="0 0 448 512"><!--! Font Awesome Pro 6.4.0 by @fontawesome - https://fontawesome.com License - https://fontawesome.com/license (Commercial License) Copyright 2023 Fonticons, Inc. --><defs><style>.fa-secondary{opacity:.4}</style></defs><path class="fa-primary" d="M224 32c-17.7 0-32 14.3-32 32v64c0 17.7 14.3 32 32 32h64c17.7 0 32-14.3 32-32V64c0-17.7-14.3-32-32-32H224zm32 192v64c0 17.7 14.3 32 32 32h64c17.7 0 32-14.3 32-32V224c0-17.7-14.3-32-32-32H288c-17.7 0-32 14.3-32 32zM160 384v64c0 17.7 14.3 32 32 32h64c17.7 0 32-14.3 32-32V384c0-17.7-14.3-32-32-32H192c-17.7 0-32 14.3-32 32z"/><path class="fa-secondary" d="M71 250.7c-8.8-15.3-3.6-34.9 11.7-43.7l55.4-32c15.3-8.8 34.9-3.6 43.7 11.7l32 55.4c8.8 15.3 3.6 34.9-11.7 43.7l-55.4 32c-15.3 8.8-34.9 3.6-43.7-11.7L71 250.7zM320 384c0-17.7 14.3-32 32-32h64c17.7 0 32 14.3 32 32v64c0 17.7-14.3 32-32 32H352c-17.7 0-32-14.3-32-32V384zM32 352H96c17.7 0 32 14.3 32 32v64c0 17.7-14.3 32-32 32H32c-17.7 0-32-14.3-32-32V384c0-17.7 14.3-32 32-32z"/></svg>