<svg xmlns="http://www.w3.org/2000/svg" viewBox="0 0 448 512"><!--! Font Awesome Pro 6.4.0 by @fontawesome - https://fontawesome.com License - https://fontawesome.com/license (Commercial License) Copyright 2023 Fonticons, Inc. --><defs><style>.fa-secondary{opacity:.4}</style></defs><path class="fa-primary" d="M55.2 17.7L32 64C14.3 64 0 78.3 0 96s14.3 32 32 32H416c17.7 0 32-14.3 32-32s-14.3-32-32-32L392.8 17.7C387.4 6.8 376.3 0 364.2 0H83.8C71.7 0 60.6 6.8 55.2 17.7zM378 392l13.3-160H56.7L70 392H378z"/><path class="fa-secondary" d="M70 392l5.1 61.3c2.8 33.2 30.5 58.7 63.8 58.7H309.1c33.3 0 61-25.5 63.8-58.7L378 392H70zM56.7 232H391.3L400 128H48l8.7 104z"/></svg>