<svg xmlns="http://www.w3.org/2000/svg" viewBox="0 0 448 512"><!--! Font Awesome Pro 6.4.0 by @fontawesome - https://fontawesome.com License - https://fontawesome.com/license (Commercial License) Copyright 2023 Fonticons, Inc. --><defs><style>.fa-secondary{opacity:.4}</style></defs><path class="fa-primary" d="M0 186.1V128c0 44.2 100.3 80 224 80s224-35.8 224-80v58.1c-14.9 11.8-34 21.2-54.8 28.6C348.3 230.7 288.5 240 224 240s-124.3-9.3-169.2-25.3C34 207.3 14.9 197.8 0 186.1zm0 160V288c0 44.2 100.3 80 224 80s224-35.8 224-80v58.1c-14.9 11.8-34 21.2-54.8 28.6C348.3 390.7 288.5 400 224 400s-124.3-9.3-169.2-25.3C34 367.3 14.9 357.8 0 346.1z"/><path class="fa-secondary" d="M448 80v48c0 44.2-100.3 80-224 80S0 172.2 0 128V80C0 35.8 100.3 0 224 0S448 35.8 448 80zM393.2 214.7c20.8-7.4 39.9-16.9 54.8-28.6V288c0 44.2-100.3 80-224 80S0 332.2 0 288V186.1c14.9 11.8 34 21.2 54.8 28.6C99.7 230.7 159.5 240 224 240s124.3-9.3 169.2-25.3zM0 346.1c14.9 11.8 34 21.2 54.8 28.6C99.7 390.7 159.5 400 224 400s124.3-9.3 169.2-25.3c20.8-7.4 39.9-16.9 54.8-28.6V432c0 44.2-100.3 80-224 80S0 476.2 0 432V346.1z"/></svg>