<svg xmlns="http://www.w3.org/2000/svg" viewBox="0 0 512 512"><!--! Font Awesome Pro 6.4.0 by @fontawesome - https://fontawesome.com License - https://fontawesome.com/license (Commercial License) Copyright 2023 Fonticons, Inc. --><defs><style>.fa-secondary{opacity:.4}</style></defs><path class="fa-primary" d="M256 96a160 160 0 1 1 0 320 160 160 0 1 1 0-320zm0 384a224 224 0 1 0 0-448 224 224 0 1 0 0 448zm96-224a96 96 0 1 0 -192 0 96 96 0 1 0 192 0zm-96-32a32 32 0 1 1 0 64 32 32 0 1 1 0-64z"/><path class="fa-secondary" d="M337.8 205.7l48.6-42.5c-10.3-14.5-23-27.2-37.6-37.6l-42.5 48.6c12.8 7.9 23.6 18.7 31.5 31.5zm76 23.7l-64.4 4.3c1.7 7.1 2.6 14.6 2.6 22.3s-.9 15.1-2.6 22.3l64.4 4.3c1.4-8.6 2.2-17.5 2.2-26.6s-.8-17.9-2.2-26.6zm64.1 57.4l1.1 .1c17.9 1.2 33-13 33-30.9s-15.2-32.1-33-30.9l-1.1 .1c1.4 10.1 2.1 20.4 2.1 30.8s-.7 20.8-2.1 30.8zm-91.5 62l-48.6-42.5c-7.9 12.8-18.7 23.6-31.5 31.5l42.5 48.6c14.5-10.3 27.2-23 37.6-37.6zm4.7 85.9l.7 .8c11.8 13.5 32.5 14.2 45.2 1.5s12-33.4-1.5-45.2l-.8-.7c-12.5 16.5-27.1 31.1-43.6 43.6zM282.6 413.8l-4.3-64.4c-7.1 1.7-14.6 2.6-22.3 2.6s-15.1-.9-22.3-2.6l-4.3 64.4c8.6 1.4 17.5 2.2 26.6 2.2s17.9-.8 26.6-2.2zm-57.4 64.1l-.1 1.1c-1.2 17.9 13 33 30.9 33s32.1-15.2 30.9-33l-.1-1.1c-10.1 1.4-20.4 2.1-30.8 2.1s-20.8-.7-30.8-2.1zm-62-91.5l42.5-48.6c-12.8-7.9-23.6-18.7-31.5-31.5l-48.6 42.5c10.3 14.5 23 27.2 37.6 37.6zm-85.9 4.7l-.8 .7C63 403.6 62.3 424.4 75 437s33.4 12 45.2-1.5l.7-.8c-16.5-12.5-31.1-27.1-43.6-43.6zM98.2 282.6l64.4-4.3c-1.7-7.1-2.6-14.6-2.6-22.3s.9-15.1 2.6-22.3l-64.4-4.3C96.8 238.1 96 247 96 256s.8 17.9 2.2 26.6zM34.1 225.2l-1.1-.1c-17.9-1.2-33 13-33 30.9s15.2 32.1 33 30.9l1.1-.1C32.7 276.8 32 266.5 32 256s.7-20.8 2.1-30.8zm91.5-62l48.6 42.5c7.9-12.8 18.7-23.6 31.5-31.5l-42.5-48.6c-14.5 10.3-27.2 23-37.6 37.6zm-4.7-85.9l-.7-.8C108.4 63 87.6 62.3 75 75s-12 33.4 1.5 45.2l.8 .7c12.5-16.5 27.1-31.1 43.6-43.6zM229.4 98.2l4.3 64.4c7.1-1.7 14.6-2.6 22.3-2.6s15.1 .9 22.3 2.6l4.3-64.4C273.9 96.8 265 96 256 96s-17.9 .8-26.6 2.2zm57.4-64.1l.1-1.1c1.2-17.9-13-33-30.9-33s-32.1 15.2-30.9 33l.1 1.1C235.2 32.7 245.5 32 256 32s20.8 .7 30.8 2.1zm147.9 86.8l.8-.7C449 108.4 449.7 87.6 437 75s-33.4-12-45.2 1.5l-.7 .8c16.5 12.5 31.1 27.1 43.6 43.6z"/></svg>