<svg xmlns="http://www.w3.org/2000/svg" viewBox="0 0 512 512"><!--! Font Awesome Pro 6.4.0 by @fontawesome - https://fontawesome.com License - https://fontawesome.com/license (Commercial License) Copyright 2023 Fonticons, Inc. --><defs><style>.fa-secondary{opacity:.4}</style></defs><path class="fa-primary" d="M448 480c35.3 0 64-28.7 64-64l0-64c0-35.3-28.7-64-64-64L64 288c-35.3 0-64 28.7-64 64l0 64c0 35.3 28.7 64 64 64l384 0z"/><path class="fa-secondary" d="M224 224c35.3 0 64-28.7 64-64V96l80 0c8.8 0 16 7.2 16 16v16H345.9c-21.4 0-32.1 25.9-17 41L399 239c9.4 9.4 24.6 9.4 33.9 0L503 169c15.1-15.1 4.4-41-17-41H448V112c0-44.2-35.8-80-80-80H224 208 64C28.7 32 0 60.7 0 96v64c0 35.3 28.7 64 64 64l160 0z"/></svg>