<svg xmlns="http://www.w3.org/2000/svg" viewBox="0 0 576 512"><!--! Font Awesome Pro 6.4.0 by @fontawesome - https://fontawesome.com License - https://fontawesome.com/license (Commercial License) Copyright 2023 Fonticons, Inc. --><defs><style>.fa-secondary{opacity:.4}</style></defs><path class="fa-primary" d="M294.4 44.8c6-8.1 15.5-12.8 25.6-12.8H544c17.7 0 32 14.3 32 32s-14.3 32-32 32H336L249.6 211.2c-6 8.1-15.5 12.8-25.6 12.8H32c-17.7 0-32-14.3-32-32s14.3-32 32-32H208L294.4 44.8z"/><path class="fa-secondary" d="M32 256c-17.7 0-32 14.3-32 32s14.3 32 32 32H141.9l86.7 144.5c5.8 9.6 16.2 15.5 27.4 15.5H544c17.7 0 32-14.3 32-32s-14.3-32-32-32H274.1l-57.6-96H544c17.7 0 32-14.3 32-32s-14.3-32-32-32H32z"/></svg>