<svg xmlns="http://www.w3.org/2000/svg" viewBox="0 0 640 512"><!--! Font Awesome Pro 6.4.0 by @fontawesome - https://fontawesome.com License - https://fontawesome.com/license (Commercial License) Copyright 2023 Fonticons, Inc. --><defs><style>.fa-secondary{opacity:.4}</style></defs><path class="fa-primary" d="M352 352H288c-7.4-9.8-13.7-20.6-18.7-32H370.7c6.5-14.9 10.8-31.1 12.5-48H256.8c-.5-5.3-.8-10.6-.8-16s.3-10.7 .8-16H383.2c-1.7-16.9-6-33.1-12.5-48H269.3c5-11.4 11.3-22.2 18.7-32h64c-29.2-38.9-75.7-64-128-64C135.6 96 64 167.6 64 256s71.6 160 160 160c52.3 0 98.8-25.1 128-64zM0 256a224 224 0 1 1 448 0A224 224 0 1 1 0 256z"/><path class="fa-secondary" d="M192 256c0-61 24.4-116.4 64-156.8c23.6 4.8 45.4 14.8 64 28.8c-38.9 29.2-64 75.7-64 128s25.1 98.8 64 128c-18.6 14-40.3 24-64 28.8C216.4 372.4 192 317 192 256zM384 412.8c39.6-40.4 64-95.7 64-156.8s-24.4-116.4-64-156.8c-8.6-8.8-17.9-16.9-27.9-24.1c-.5-.4-1-.7-1.5-1.1c-10.9-7.8-22.4-14.7-34.6-20.5C349.1 39.7 381.6 32 416 32c123.7 0 224 100.3 224 224s-100.3 224-224 224c-34.4 0-66.9-7.7-96-21.6c12.2-5.8 23.8-12.7 34.6-20.5c10.5-7.5 20.3-16 29.3-25.2z"/></svg>