<svg xmlns="http://www.w3.org/2000/svg" viewBox="0 0 512 512"><!--! Font Awesome Pro 6.4.0 by @fontawesome - https://fontawesome.com License - https://fontawesome.com/license (Commercial License) Copyright 2023 Fonticons, Inc. --><defs><style>.fa-secondary{opacity:.4}</style></defs><path class="fa-primary" d="M448 224c35.3 0 64-28.7 64-64V96c0-35.3-28.7-64-64-64H64C28.7 32 0 60.7 0 96v64c0 35.3 28.7 64 64 64H232v64l-46.1 0c-21.4 0-32.1 25.9-17 41L239 399c9.4 9.4 24.6 9.4 33.9 0L343 329c15.1-15.1 4.4-41-17-41L280 288V224H448z"/><path class="fa-secondary" d="M379.3 337.9c14.4-14.4 17.1-33.7 11.3-49.9H448c35.3 0 64 28.7 64 64v64c0 35.3-28.7 64-64 64L64 480c-35.3 0-64-28.7-64-64V352c0-35.3 28.7-64 64-64l57.4 0c-5.8 16.2-3.1 35.5 11.3 49.9l89.4 89.4c18.7 18.7 49.1 18.7 67.9 0l89.4-89.4z"/></svg>