<svg xmlns="http://www.w3.org/2000/svg" viewBox="0 0 512 512"><!--! Font Awesome Pro 6.4.0 by @fontawesome - https://fontawesome.com License - https://fontawesome.com/license (Commercial License) Copyright 2023 Fonticons, Inc. --><defs><style>.fa-secondary{opacity:.4}</style></defs><path class="fa-primary" d="M161.6 481c2.2 7-5.3 13-11.6 9.3L74.2 446.6c-3.6-2.1-6.7-5.1-8.8-8.8L3.2 330.2c-2.1-3.6-3.2-7.8-3.2-12V233.9c0-7.1 8.6-10.7 13.7-5.7l96.1 96.1c2.7 2.7 4.8 6.1 5.9 9.8L161.6 481zM498.3 228.3c5-5 13.7-1.5 13.7 5.7v84.2c0 4.2-1.1 8.4-3.2 12L446.6 437.8c-2.1 3.6-5.1 6.7-8.8 8.8l-75.8 43.7c-6.3 3.6-13.8-2.4-11.6-9.3l45.9-146.9c1.2-3.7 3.2-7.1 5.9-9.8l96.1-96.1zM310.7 500.8c-2.1 6.7-8.3 11.2-15.3 11.2H216.5c-7 0-13.2-4.5-15.3-11.2L151.4 341.2c-2.3-7.5 1.1-15.6 8.1-19.1l89.3-44.7c4.5-2.3 9.8-2.3 14.3 0l89.3 44.7c7 3.5 10.5 11.6 8.1 19.1L310.7 500.8z"/><path class="fa-secondary" d="M330.2 3.2c-3.6-2.1-7.8-3.2-12-3.2H193.8c-4.2 0-8.4 1.1-12 3.2l-72 41.6c-5.9 3.4-5.1 12.2 1.3 14.5l136.8 48.9c5.2 1.9 10.9 1.9 16.1 0L400.9 59.3c6.4-2.3 7.2-11.1 1.3-14.5l-72-41.6zM12.7 165.3c-3.6 6.3-2.6 14.2 2.5 19.3L123 292.4c4.9 4.9 12.3 6.1 18.5 3l89.7-44.8c5.4-2.7 8.8-8.3 8.8-14.3V150.6c0-6.8-4.3-12.8-10.6-15.1L76.6 80.9c-7.3-2.6-15.4 .4-19.2 7.1L12.7 165.3zM435.4 80.9L282.6 135.5c-6.4 2.3-10.6 8.3-10.6 15.1v85.7c0 6.1 3.4 11.6 8.8 14.3l89.7 44.8c6.2 3.1 13.6 1.9 18.5-3L496.7 184.7c5.1-5.1 6.2-13 2.5-19.3L454.6 88c-3.9-6.7-12-9.7-19.2-7.1z"/></svg>