<svg xmlns="http://www.w3.org/2000/svg" viewBox="0 0 640 512"><!--! Font Awesome Pro 6.4.0 by @fontawesome - https://fontawesome.com License - https://fontawesome.com/license (Commercial License) Copyright 2023 Fonticons, Inc. --><defs><style>.fa-secondary{opacity:.4}</style></defs><path class="fa-primary" d="M5.1 9.2C13.3-1.2 28.4-3.1 38.8 5.1l592 464c10.4 8.2 12.3 23.3 4.1 33.7s-23.3 12.3-33.7 4.1L9.2 42.9C-1.2 34.7-3.1 19.6 5.1 9.2z"/><path class="fa-secondary" d="M446.8 448H378.7L368 416h38.2l-81.2-64H96V171.6L32 121.2V352c0 35.3 28.7 64 64 64H272l-10.7 32H192c-17.7 0-32 14.3-32 32s14.3 32 32 32H448c17.7 0 32-14.3 32-32c0-2.2-.2-4.3-.6-6.3L446.8 448zM544 352H481.4l79 61.9c27.4-7.2 47.6-32.2 47.6-61.9V64c0-35.3-28.7-64-64-64H96C79.6 0 64.6 6.2 53.2 16.4L113.9 64H544V352z"/></svg>