<svg xmlns="http://www.w3.org/2000/svg" viewBox="0 0 512 512"><!--! Font Awesome Pro 6.4.0 by @fontawesome - https://fontawesome.com License - https://fontawesome.com/license (Commercial License) Copyright 2023 Fonticons, Inc. --><defs><style>.fa-secondary{opacity:.4}</style></defs><path class="fa-primary" d="M56 0C42.7 0 32 10.7 32 24V488c0 13.3 10.7 24 24 24s24-10.7 24-24V24C80 10.7 69.3 0 56 0zM456 0c-13.3 0-24 10.7-24 24V488c0 13.3 10.7 24 24 24s24-10.7 24-24V24c0-13.3-10.7-24-24-24z"/><path class="fa-secondary" d="M160 144c0-26.5 21.5-48 48-48h96c26.5 0 48 21.5 48 48V368c0 26.5-21.5 48-48 48H208c-26.5 0-48-21.5-48-48V144z"/></svg>