<svg xmlns="http://www.w3.org/2000/svg" viewBox="0 0 512 512"><!--! Font Awesome Pro 6.4.0 by @fontawesome - https://fontawesome.com License - https://fontawesome.com/license (Commercial License) Copyright 2023 Fonticons, Inc. --><defs><style>.fa-secondary{opacity:.4}</style></defs><path class="fa-primary" d="M24 32C10.7 32 0 42.7 0 56S10.7 80 24 80H488c13.3 0 24-10.7 24-24s-10.7-24-24-24H24zm0 400c-13.3 0-24 10.7-24 24s10.7 24 24 24H488c13.3 0 24-10.7 24-24s-10.7-24-24-24H24z"/><path class="fa-secondary" d="M96 208c0-26.5 21.5-48 48-48H368c26.5 0 48 21.5 48 48v96c0 26.5-21.5 48-48 48H144c-26.5 0-48-21.5-48-48V208z"/></svg>