<svg xmlns="http://www.w3.org/2000/svg" viewBox="0 0 576 512"><!--! Font Awesome Pro 6.4.0 by @fontawesome - https://fontawesome.com License - https://fontawesome.com/license (Commercial License) Copyright 2023 Fonticons, Inc. --><defs><style>.fa-secondary{opacity:.4}</style></defs><path class="fa-primary" d="M0 32C0 14.3 14.3 0 32 0h72.9c27.5 0 52 17.6 60.7 43.8L257.7 320c-.6 0-1.2 0-1.7 0c-22.2 0-42.7 7.6-59 20.2L104.9 64H32C14.3 64 0 49.7 0 32zM352 416c0-22.2-7.6-42.7-20.2-59l202.1-67.4c16.8-5.6 34.9 3.5 40.5 20.2s-3.5 34.9-20.2 40.5L352 417.7c0-.6 0-1.2 0-1.7zM371.8 59.6l19.8 60.9-60.9 19.8L311 79.4l60.9-19.8z"/><path class="fa-secondary" d="M244.8 134.5c-5.5-16.8 3.7-34.9 20.5-40.3L311 79.4l19.8 60.9 60.9-19.8L371.8 59.6l45.7-14.8c16.8-5.5 34.9 3.7 40.3 20.5l49.4 152.2c5.5 16.8-3.7 34.9-20.5 40.3L334.5 307.2c-16.8 5.5-34.9-3.7-40.3-20.5L244.8 134.5zM256 320a96 96 0 1 1 0 192 96 96 0 1 1 0-192z"/></svg>