<svg xmlns="http://www.w3.org/2000/svg" viewBox="0 0 576 512"><!--! Font Awesome Pro 6.4.0 by @fontawesome - https://fontawesome.com License - https://fontawesome.com/license (Commercial License) Copyright 2023 Fonticons, Inc. --><defs><style>.fa-secondary{opacity:.4}</style></defs><path class="fa-primary" d="M320 128H448V480c0 17.7 14.3 32 32 32h64c17.7 0 32-14.3 32-32s-14.3-32-32-32H512V128c0-35.3-28.7-64-64-64H320v64zM32 448c-17.7 0-32 14.3-32 32s14.3 32 32 32H64V448H32zM232 288c13.3 0 24-14.3 24-32s-10.7-32-24-32s-24 14.3-24 32s10.7 32 24 32z"/><path class="fa-secondary" d="M307.7 6.8C315.5 12.8 320 22.1 320 32V480v32l-32 0L96 512l-32 0V480 92.5c0-22 15-41.2 36.4-46.6L280.2 1c9.6-2.4 19.7-.2 27.5 5.8zM232 288c13.3 0 24-14.3 24-32s-10.7-32-24-32s-24 14.3-24 32s10.7 32 24 32z"/></svg>