<svg xmlns="http://www.w3.org/2000/svg" viewBox="0 0 512 512"><!--! Font Awesome Pro 6.4.0 by @fontawesome - https://fontawesome.com License - https://fontawesome.com/license (Commercial License) Copyright 2023 Fonticons, Inc. --><defs><style>.fa-secondary{opacity:.4}</style></defs><path class="fa-primary" d="M209.2 9.3c-16.7 19.3-42.9 60.1-59.4 121.8c-.1 .2-.1 .5-.2 .7C201.9 183.9 276.9 204.4 320 208l0-33.4C282.2 139.4 250.6 90.5 248.6 28c-.4-11.3-7.5-21.5-18.4-24.4c-7.6-2-15.8-.2-21 5.8z"/><path class="fa-secondary" d="M32 176C32 112.1 46.8 65.9 57.9 43c3.4-7.1 10.9-11 18.8-11c11.3 0 20.8 8 24.1 18.8C135 164.2 259.2 202.9 320 208l0-64c0-44.2 35.8-80 80-80h99.7c6.8 0 12.3 5.5 12.3 12.3c0 2.4-.7 4.8-2.1 6.8L480 128V288c0 88.4-71.6 160-160 160H245.6L170 508.5c-2.8 2.3-6.4 3.5-10 3.5C77.3 512 21.7 466.2 3.2 441.6C0 437.4-.9 431.8 .9 426.8s5.8-8.8 10.9-10.2l138.6-37.8C112.1 356.5 32 292.9 32 176zm368-16a16 16 0 1 0 0-32 16 16 0 1 0 0 32z"/></svg>