<svg xmlns="http://www.w3.org/2000/svg" viewBox="0 0 640 512"><!--! Font Awesome Pro 6.4.0 by @fontawesome - https://fontawesome.com License - https://fontawesome.com/license (Commercial License) Copyright 2023 Fonticons, Inc. --><defs><style>.fa-secondary{opacity:.4}</style></defs><path class="fa-primary" d="M300.1 111.5l51.9 13v57V227c0 42.4 16.9 83.1 46.9 113.1l44.4 44.4c3 3 4.7 7.1 4.7 11.4c0 8.4-6.4 15.4-14.7 16.1L29.5 448.1c-3.3 .3-6.6 1-9.5 2.2C11 454 4.2 461.5 1.4 470.7c-1 3.4-1.5 7-1.3 10.7c.2 3.8 1 7.3 2.3 10.7c3.6 9 11.2 15.8 20.4 18.6c3 .9 6.3 1.4 9.6 1.4H432h64 34.2C590.9 512 640 462.9 640 402.2c0-37.8-19.5-73-51.6-93.1L481.8 242.5c-21.1-13.2-33.8-36.2-33.8-61.1V160h32l13.3 13.3c12 12 28.3 18.7 45.3 18.7H560c26.5 0 48-21.5 48-48c0-10.4-3.4-20.5-9.6-28.8L540.8 38.4C522.7 14.2 494.2 0 464 0H448 416 304c-6.9 0-13 4.4-15.2 10.9s.1 13.7 5.6 17.9l43.3 32.5L296.8 81.7c-6 3-9.5 9.4-8.7 16.1s5.5 12.2 12 13.8zM510.7 79.7C507.5 89.2 498.6 96 488 96c-13.3 0-24-10.7-24-24c0-1.3 .1-2.6 .3-3.9l46.4 11.6zm1.3-7.4v-.6c0 .1 0 .2 0 .3s0 .2 0 .3z"/><path class="fa-secondary" d="M130.9 116.5c16.3-14.5 40.4-16.2 58.5-4.1L352 220.8V227c0 33.6 10.6 66.1 29.8 93H112c-6.7 0-12.7-4.2-15-10.4s-.5-13.3 4.6-17.7L171 232.3 18.4 255.8c-7 1.1-13.9-2.6-16.9-9s-1.5-14.1 3.8-18.8L130.9 116.5z"/></svg>