<svg xmlns="http://www.w3.org/2000/svg" viewBox="0 0 512 512"><!--! Font Awesome Pro 6.4.0 by @fontawesome - https://fontawesome.com License - https://fontawesome.com/license (Commercial License) Copyright 2023 Fonticons, Inc. --><defs><style>.fa-secondary{opacity:.4}</style></defs><path class="fa-primary" d="M370.2 104.5C335.8 98.7 297 96 256 96C114.6 96 0 128 0 208V368c0 31.3 27.4 58.8 72 78.7V344c0-13.3 10.7-24 24-24s24 10.7 24 24V463.4c33 8.9 71.1 14.5 112 16.1V376c0-13.3 10.7-24 24-24s24 10.7 24 24V479.5c40.9-1.6 79-7.2 112-16.1V344c0-13.3 10.7-24 24-24s24 10.7 24 24V446.7c44.6-19.9 72-47.4 72-78.7V208c0-41.1-30.2-69.5-78.8-87.4l-53 34.7c14.7 3.2 27.9 7 39.4 11.5C458.4 181.8 464 197.4 464 208c0 .8-2.7 17.2-46 35.9C379.1 260.7 322 272 256 272s-123.1-11.3-162-28.1C50.7 225.2 48 208.8 48 208c0-10.6 5.6-26.2 44.4-41.3C130.6 151.9 187.8 144 256 144c18 0 35.1 .5 51.4 1.6l62.8-41.1z"/><path class="fa-secondary" d="M501.2 76.1c11.1-7.3 14.2-22.1 6.9-33.2s-22.1-14.2-33.2-6.9l-232 152c-11.1 7.3-14.2 22.1-6.9 33.2s22.1 14.2 33.2 6.9l232-152zM256 480c8.1 0 16.1-.2 24-.5V376c0-13.3-10.7-24-24-24s-24 10.7-24 24V479.5c7.9 .3 15.9 .5 24 .5zM72 446.7c14.3 6.4 30.5 12 48 16.7V344c0-13.3-10.7-24-24-24s-24 10.7-24 24V446.7zm320 16.7c17.5-4.7 33.7-10.3 48-16.7V344c0-13.3-10.7-24-24-24s-24 10.7-24 24V463.4z"/></svg>