<svg xmlns="http://www.w3.org/2000/svg" viewBox="0 0 512 512"><!--! Font Awesome Pro 6.4.0 by @fontawesome - https://fontawesome.com License - https://fontawesome.com/license (Commercial License) Copyright 2023 Fonticons, Inc. --><defs><style>.fa-secondary{opacity:.4}</style></defs><path class="fa-primary" d="M160 272V176C160 78.8 238.8 0 336 0c86.5 0 158.5 62.5 173.2 144.8c2.1 11.8-10.3 20.1-22 17.6c-7.5-1.6-15.3-2.4-23.2-2.4c-61.9 0-112 50.1-112 112c0 19.2 4.8 37.2 13.3 53c5.7 10.5 1.1 24.8-10.8 26c-6.1 .6-12.3 1-18.5 1H240c-44.2 0-80-35.8-80-80z"/><path class="fa-secondary" d="M160.2 278.2c3 39.2 34.3 70.5 73.5 73.5l-36.4 36.4c-12.3 12.3-11.4 32.5-7.2 49.4c1.1 4.6 1.8 9.5 1.8 14.5c0 33.1-26.9 60-60 60s-60-26.9-60-60c0-6.3-5.7-12-12-12c-33.1 0-60-26.9-60-60s26.9-60 60-60c5 0 9.8 .6 14.5 1.8c16.9 4.2 37.1 5.2 49.4-7.2l36.4-36.4z"/></svg>