<svg xmlns="http://www.w3.org/2000/svg" viewBox="0 0 448 512"><!--! Font Awesome Pro 6.4.0 by @fontawesome - https://fontawesome.com License - https://fontawesome.com/license (Commercial License) Copyright 2023 Fonticons, Inc. --><defs><style>.fa-secondary{opacity:.4}</style></defs><path class="fa-primary" d="M64 0C28.7 0 0 28.7 0 64V448c0 35.3 28.7 64 64 64H384c35.3 0 64-28.7 64-64V64c0-35.3-28.7-64-64-64H64zM224 160a144 144 0 1 1 0 288 144 144 0 1 1 0-288zM64 88a24 24 0 1 1 48 0A24 24 0 1 1 64 88zM184 64a24 24 0 1 1 0 48 24 24 0 1 1 0-48z"/><path class="fa-secondary" d="M184 64a24 24 0 1 1 0 48 24 24 0 1 1 0-48zM368 304c0 79.5-64.5 144-144 144c-74.1 0-135.2-56-143.1-128H176c8.8 0 16-7.2 16-16s-7.2-16-16-16H80.9c8-72 69-128 143.1-128c79.5 0 144 64.5 144 144z"/></svg>