<svg xmlns="http://www.w3.org/2000/svg" viewBox="0 0 448 512"><!--! Font Awesome Pro 6.4.0 by @fontawesome - https://fontawesome.com License - https://fontawesome.com/license (Commercial License) Copyright 2023 Fonticons, Inc. --><defs><style>.fa-secondary{opacity:.4}</style></defs><path class="fa-primary" d="M64 0C28.7 0 0 28.7 0 64V448c0 35.3 28.7 64 64 64H384c35.3 0 64-28.7 64-64V64c0-35.3-28.7-64-64-64H64zM224 160a144 144 0 1 1 0 288 144 144 0 1 1 0-288zM64 88a24 24 0 1 1 48 0A24 24 0 1 1 64 88zM184 64a24 24 0 1 1 0 48 24 24 0 1 1 0-48z"/><path class="fa-secondary" d="M160 88a24 24 0 1 1 48 0 24 24 0 1 1 -48 0zm-3.3 124.7c6.2-6.2 16.4-6.2 22.6 0L200 233.4c10.2 10.2 16 24.1 16 38.6s-5.8 28.4-16 38.6l-9.4 9.4c-4.2 4.2-6.6 10-6.6 16s2.4 11.8 6.6 16l20.7 20.7c6.2 6.2 6.2 16.4 0 22.6s-16.4 6.2-22.6 0L168 374.6c-10.2-10.2-16-24.1-16-38.6s5.8-28.4 16-38.6l9.4-9.4c4.2-4.2 6.6-10 6.6-16s-2.4-11.8-6.6-16l-20.7-20.7c-6.2-6.2-6.2-16.4 0-22.6zm102.6 0L280 233.4c10.2 10.2 16 24.1 16 38.6s-5.8 28.4-16 38.6l-9.4 9.4c-4.2 4.2-6.6 10-6.6 16s2.4 11.8 6.6 16l20.7 20.7c6.2 6.2 6.2 16.4 0 22.6s-16.4 6.2-22.6 0L248 374.6c-10.2-10.2-16-24.1-16-38.6s5.8-28.4 16-38.6l9.4-9.4c4.2-4.2 6.6-10 6.6-16s-2.4-11.8-6.6-16l-20.7-20.7c-6.2-6.2-6.2-16.4 0-22.6s16.4-6.2 22.6 0z"/></svg>