<svg xmlns="http://www.w3.org/2000/svg" viewBox="0 0 640 512"><!--! Font Awesome Pro 6.4.0 by @fontawesome - https://fontawesome.com License - https://fontawesome.com/license (Commercial License) Copyright 2023 Fonticons, Inc. --><defs><style>.fa-secondary{opacity:.4}</style></defs><path class="fa-primary" d="M128 32c-17.7 0-32 14.3-32 32v64H64c-17.7 0-32 14.3-32 32V352c0 17.7 14.3 32 32 32H96v64c0 17.7 14.3 32 32 32h32c17.7 0 32-14.3 32-32V64c0-17.7-14.3-32-32-32H128zm384 0H480c-17.7 0-32 14.3-32 32V448c0 17.7 14.3 32 32 32h32c17.7 0 32-14.3 32-32V384h32c17.7 0 32-14.3 32-32V160c0-17.7-14.3-32-32-32H544V64c0-17.7-14.3-32-32-32z"/><path class="fa-secondary" d="M0 256c0-17.7 14.3-32 32-32v64c-17.7 0-32-14.3-32-32zm448 32H192V224H448v64zm160 0V224c17.7 0 32 14.3 32 32s-14.3 32-32 32z"/></svg>