<svg xmlns="http://www.w3.org/2000/svg" viewBox="0 0 512 512"><!--! Font Awesome Pro 6.4.0 by @fontawesome - https://fontawesome.com License - https://fontawesome.com/license (Commercial License) Copyright 2023 Fonticons, Inc. --><defs><style>.fa-secondary{opacity:.4}</style></defs><path class="fa-primary" d="M128.7 227.5c6.2-56 53.7-99.5 111.3-99.5c61.9 0 112 50.1 112 112c0 29.3-11.2 55.9-29.6 75.9c-17 18.4-34.4 45.1-34.4 78V400c0 26.5-21.5 48-48 48c-17.7 0-32 14.3-32 32s14.3 32 32 32c61.9 0 112-50.1 112-112v-6.1c0-9.8 5.4-21.7 17.4-34.7C398.3 327.9 416 286 416 240c0-97.2-78.8-176-176-176C149.4 64 74.8 132.5 65.1 220.5c-1.9 17.6 10.7 33.4 28.3 35.3s33.4-10.7 35.3-28.3zM208 240c0-17.7 14.3-32 32-32s32 14.3 32 32c0 13.3 10.7 24 24 24s24-10.7 24-24c0-44.2-35.8-80-80-80s-80 35.8-80 80c0 13.3 10.7 24 24 24s24-10.7 24-24z"/><path class="fa-secondary" d="M502.6 9.4c12.5 12.5 12.5 32.8 0 45.3l-40 40c-12.5 12.5-32.8 12.5-45.3 0s-12.5-32.8 0-45.3l40-40c12.5-12.5 32.8-12.5 45.3 0zm-320 320c12.5 12.5 12.5 32.8 0 45.3l-128 128c-12.5 12.5-32.8 12.5-45.3 0s-12.5-32.8 0-45.3l128-128c12.5-12.5 32.8-12.5 45.3 0z"/></svg>