<svg xmlns="http://www.w3.org/2000/svg" viewBox="0 0 512 512"><!--! Font Awesome Pro 6.4.0 by @fontawesome - https://fontawesome.com License - https://fontawesome.com/license (Commercial License) Copyright 2023 Fonticons, Inc. --><defs><style>.fa-secondary{opacity:.4}</style></defs><path class="fa-primary" d="M241.5 .4C145 5.8 62.7 64.7 23.9 147.8L67 212.4c8.4 12.6 21.1 21.9 35.7 26L163 255.7c17.2 4.9 29 20.6 29 38.5v39.9c0 11 6.2 21 16 25.9s16 14.9 16 25.9v39c0 15.6 14.9 26.9 29.9 22.6c16.1-4.6 28.6-17.5 32.7-33.8l2.8-11.2c4.2-16.9 15.2-31.4 30.3-40l8.1-4.6c15-8.5 24.2-24.5 24.2-41.7v-8.3c0-12.7-5.1-24.9-14.1-33.9l-3.9-3.9c-9-9-21.2-14.1-33.9-14.1H257c-11.1 0-22.1-2.9-31.8-8.4l-34.5-19.7c-4.3-2.5-7.6-6.5-9.2-11.2c-3.2-9.6 1.1-20 10.2-24.5l5.9-3c6.6-3.3 14.3-3.9 21.3-1.5l23.2 7.7c8.2 2.7 17.2-.4 21.9-7.5c4.7-7 4.2-16.3-1.2-22.8l-13.6-16.3c-10-12-9.9-29.5 .3-41.3l16.1-18.8c8.6-10 10.2-24.3 3.9-36L241.5 .4zM481.3 134.3l-70.2 30.1c-15.3 6.6-23 23.7-17.8 39.5l17.6 52.9c3.2 9.6 10.7 17.1 20.2 20.2l76.6 25.5c2.8-15.1 4.2-30.7 4.2-46.6c0-44-11.1-85.5-30.7-121.7z"/><path class="fa-secondary" d="M23.9 147.8L67 212.4c8.4 12.6 21.1 21.9 35.7 26L163 255.7c17.2 4.9 29 20.6 29 38.5v39.9c0 11 6.2 21 16 25.9s16 14.9 16 25.9v39c0 15.6 14.9 26.9 29.9 22.6c16.1-4.6 28.6-17.5 32.7-33.8l2.8-11.2c4.2-16.9 15.2-31.4 30.3-40l8.1-4.6c15-8.5 24.2-24.5 24.2-41.7v-8.3c0-12.7-5.1-24.9-14.1-33.9l-3.9-3.9c-9-9-21.2-14.1-33.9-14.1H257c-11.1 0-22.1-2.9-31.8-8.4l-34.5-19.7c-4.3-2.5-7.6-6.5-9.2-11.2c-3.2-9.6 1.1-20 10.2-24.5l5.9-3c6.6-3.3 14.3-3.9 21.3-1.5l23.2 7.7c8.2 2.7 17.2-.4 21.9-7.5c4.7-7 4.2-16.3-1.2-22.8l-13.6-16.3c-10-12-9.9-29.5 .3-41.3l16.1-18.8c8.6-10 10.2-24.3 3.9-36L241.4 .4c4.8-.3 9.7-.4 14.6-.4c97.3 0 182 54.3 225.3 134.3l-70.2 30.1c-15.3 6.6-23 23.7-17.8 39.5l17.6 52.9c3.2 9.6 10.7 17.1 20.2 20.2l76.6 25.5C485.9 421.7 381.5 512 256 512C114.6 512 0 397.4 0 256c0-38.6 8.6-75.3 23.9-108.2z"/></svg>