<svg xmlns="http://www.w3.org/2000/svg" viewBox="0 0 512 512"><!--! Font Awesome Pro 6.4.0 by @fontawesome - https://fontawesome.com License - https://fontawesome.com/license (Commercial License) Copyright 2023 Fonticons, Inc. --><defs><style>.fa-secondary{opacity:.4}</style></defs><path class="fa-primary" d="M192 210.3v-4.3c0-9 3.6-17.6 9.9-24l17.9-17.9c2.6-2.6 4.1-6.2 4.1-10c0-6.1 3.9-11.5 9.6-13.4l26.5-8.8c7.8-2.6 14.9-7 20.7-12.8l19.9-19.9c2.1-2.1 3.3-5 3.3-8c0-6.2-5.1-11.3-11.3-11.3h-1c-2.4 0-4.8 .7-6.8 2.1l-41.8 27.9c-2 1.3-4.4 2.1-6.8 2.1c-6.8 0-12.3-5.5-12.3-12.3V91.2c0-7 3.5-13.5 9.3-17.3l95.1-63.4C434.5 41.6 512 139.8 512 256c0 22.1-2.8 43.5-8.1 64H446.6c-14.5 0-28.4-5.8-38.6-16l-18.3-18.3C386 282 384 277.1 384 272s2-10 5.7-13.7l7.5-7.5c1.8-1.8 2.8-4.3 2.8-6.8s-1-5-2.8-6.8l-6.5-6.5c-4.2-4.2-10-6.6-16-6.6H363.3c-6.2 0-11.3-5.1-11.3-11.3c0-3 1.2-5.9 3.3-8L360 200c5.1-5.1 12.1-8 19.3-8H400c8.8 0 16-7.2 16-16s-7.2-16-16-16H370.6c-10.3 0-18.6 8.3-18.6 18.6c0 8-5.1 15.1-12.7 17.6l-21.2 7.1c-7.5 2.5-11 11-7.5 18l1.1 2.3c3.8 7.5-1.7 16.4-10.1 16.4c-3.6 0-6.9-1.7-9.1-4.5l-16.3-21.7c-2.7-3.6-6.9-5.7-11.4-5.7c-5.4 0-10.4 3.1-12.8 7.9l-4 8.1c-4.9 9.8-15.1 16-26.1 16c-16.4 0-29.9-13.3-29.9-29.7zM493.4 352C457.3 441.1 372.5 505.3 272 511.5V477.3c0-25-20.3-45.3-45.3-45.3c-12 0-23.5-4.8-32-13.3l-16-16c-12-12-18.7-28.3-18.7-45.3v-3.2c0-21.4 10.7-41.4 28.5-53.2l27.4-18.3c10.5-7 22.9-10.7 35.5-10.7h20.9c15.3 0 30.1 5.5 41.7 15.4l26.6 22.8c7.4 6.3 16.8 9.8 26.6 9.8c10.8 0 21.2 4.3 28.9 12l4 4c10.2 10.2 24.1 16 38.6 16h54.8zM187.3 100.7c6.2 6.2 6.2 16.4 0 22.6l-32 32c-6.2 6.2-16.4 6.2-22.6 0s-6.2-16.4 0-22.6l32-32c6.2-6.2 16.4-6.2 22.6 0z"/><path class="fa-secondary" d="M192 210.3v-4.3c0-9 3.6-17.6 9.9-24l17.9-17.9c2.6-2.6 4.1-6.2 4.1-10c0-6.1 3.9-11.5 9.6-13.4l26.5-8.8c7.8-2.6 14.9-7 20.7-12.8l19.9-19.9c2.1-2.1 3.3-5 3.3-8c0-6.2-5.1-11.3-11.3-11.3h-1c-2.4 0-4.8 .7-6.8 2.1l-41.8 27.9c-2 1.3-4.4 2.1-6.8 2.1c-6.8 0-12.3-5.5-12.3-12.3V91.2c0-7 3.5-13.5 9.3-17.3l95.1-63.4C305.5 3.6 281.2 0 256 0C114.6 0 0 114.6 0 256S114.6 512 256 512c5.4 0 10.7-.2 16-.5V477.3c0-25-20.3-45.3-45.3-45.3c-12 0-23.5-4.8-32-13.3l-16-16c-12-12-18.7-28.3-18.7-45.3v-3.2c0-21.4 10.7-41.4 28.5-53.3l27.4-18.3c10.5-7 22.9-10.7 35.5-10.7h20.9c15.3 0 30.1 5.5 41.7 15.4l26.6 22.8c7.4 6.3 16.8 9.8 26.6 9.8c10.8 0 21.2 4.3 28.9 12l4 4c10.2 10.2 24.1 16 38.6 16h54.8c4.2-10.3 7.7-21 10.5-32H446.6c-14.5 0-28.4-5.8-38.6-16l-18.3-18.3C386 282 384 277.1 384 272s2-10 5.7-13.7l7.5-7.5c1.8-1.8 2.8-4.3 2.8-6.8s-1-5-2.8-6.8l-6.5-6.5c-4.2-4.2-10-6.6-16-6.6H363.3c-6.2 0-11.3-5.1-11.3-11.3c0-3 1.2-5.9 3.3-8L360 200c5.1-5.1 12.1-8 19.3-8H400c8.8 0 16-7.2 16-16s-7.2-16-16-16H370.6c-10.3 0-18.6 8.3-18.6 18.6c0 8-5.1 15.1-12.7 17.6l-21.2 7.1c-7.5 2.5-11 11-7.5 18l1.1 2.3c3.8 7.5-1.7 16.4-10.1 16.4c-3.6 0-6.9-1.7-9.1-4.5l-16.3-21.7c-2.7-3.6-6.9-5.7-11.4-5.7c-5.4 0-10.4 3.1-12.8 7.9l-4 8.1c-4.9 9.8-15.1 16-26.1 16c-16.4 0-29.9-13.3-29.9-29.7zm-4.7-87l-32 32c-6.2 6.2-16.4 6.2-22.6 0s-6.2-16.4 0-22.6l32-32c6.2-6.2 16.4-6.2 22.6 0s6.2 16.4 0 22.6z"/></svg>