<svg xmlns="http://www.w3.org/2000/svg" viewBox="0 0 512 512"><!--! Font Awesome Pro 6.4.0 by @fontawesome - https://fontawesome.com License - https://fontawesome.com/license (Commercial License) Copyright 2023 Fonticons, Inc. --><defs><style>.fa-secondary{opacity:.4}</style></defs><path class="fa-primary" d="M146 24.8l39.9 54.8c4 5.5 6.1 12.1 6.1 18.8v39.5c0 3.9 1.6 7.7 4.3 10.4c6.2 6.2 16.5 5.7 22-1.2l13.6-17c4.7-5.9 12.9-7.7 19.6-4.3l15.2 7.6c3.4 1.7 7.2 2.6 11 2.6c6.5 0 12.8-2.6 17.4-7.2l3.9-3.9c2.9-2.9 7.3-3.6 11-1.8l29.2 14.6c7.8 3.9 12.6 11.8 12.6 20.5c0 10.5-7.1 19.6-17.3 22.2l-35.4 8.8c-7.4 1.8-15.1 1.5-22.4-.9l-32-10.7c-3.3-1.1-6.7-1.7-10.2-1.7c-7 0-13.8 2.3-19.4 6.5L176 212c-10.1 7.6-16 19.4-16 32v28c0 26.5 21.5 48 48 48h32c8.8 0 16 7.2 16 16v48c0 17.7 14.3 32 32 32c10.1 0 19.6-4.7 25.6-12.8l25.6-34.1c8.3-11.1 12.8-24.6 12.8-38.4V318.6c0-3.9 2.6-7.3 6.4-8.2l5.3-1.3c11.9-3 20.3-13.7 20.3-26c0-7.1-2.8-13.9-7.8-18.9l-33.5-33.5c-3.7-3.7-3.7-9.7 0-13.4c5.7-5.7 14.1-7.7 21.8-5.1l12.5 4.2c13.2 4.4 27.6-1.6 33.9-14c3.2-6.3 9.6-10.3 16.7-10.3h76.4C475.5 81.6 375.3 0 256 0c-39.4 0-76.7 8.9-110 24.8z"/><path class="fa-secondary" d="M146 24.8l39.9 54.8c4 5.5 6.1 12.1 6.1 18.8v39.5c0 3.9 1.6 7.7 4.3 10.4c6.2 6.2 16.5 5.7 22-1.2l13.6-17c4.7-5.9 12.9-7.7 19.6-4.3l15.2 7.6c3.4 1.7 7.2 2.6 11 2.6c6.5 0 12.8-2.6 17.4-7.2l3.9-3.9c2.9-2.9 7.3-3.6 11-1.8l29.2 14.6c7.8 3.9 12.6 11.8 12.6 20.5c0 10.5-7.1 19.6-17.3 22.2l-35.4 8.8c-7.4 1.8-15.1 1.5-22.4-.9l-32-10.7c-3.3-1.1-6.7-1.7-10.2-1.7c-7 0-13.8 2.3-19.4 6.5L176 212c-10.1 7.6-16 19.4-16 32v28c0 26.5 21.5 48 48 48h32c8.8 0 16 7.2 16 16v48c0 17.7 14.3 32 32 32c10.1 0 19.6-4.7 25.6-12.8l25.6-34.1c8.3-11.1 12.8-24.6 12.8-38.4V318.6c0-3.9 2.6-7.3 6.4-8.2l5.3-1.3c11.9-3 20.3-13.7 20.3-26c0-7.1-2.8-13.9-7.8-18.9l-33.5-33.5c-3.7-3.7-3.7-9.7 0-13.4c5.7-5.7 14.1-7.7 21.8-5.1l12.5 4.2c13.2 4.4 27.6-1.6 33.9-14c3.2-6.3 9.6-10.3 16.7-10.3h76.4c5.3 20.5 8.1 41.9 8.1 64c0 141.4-114.6 256-256 256S0 397.4 0 256C0 154 59.7 65.9 146 24.8z"/></svg>