<svg xmlns="http://www.w3.org/2000/svg" viewBox="0 0 512 512"><!--! Font Awesome Pro 6.4.0 by @fontawesome - https://fontawesome.com License - https://fontawesome.com/license (Commercial License) Copyright 2023 Fonticons, Inc. --><defs><style>.fa-secondary{opacity:.4}</style></defs><path class="fa-primary" d="M224 352a112 112 0 1 0 0-224 112 112 0 1 0 0 224zM176 232c0 8.8-7.2 16-16 16s-16-7.2-16-16c0-39.8 32.2-72 72-72c8.8 0 16 7.2 16 16s-7.2 16-16 16c-22.1 0-40 17.9-40 40z"/><path class="fa-secondary" d="M415.8 116c-42.4-10.9-101.2-45.1-131.5-76.7c-49-51-130-52.6-181-3.6C80.1 58 67.1 87 64.5 116.8C60.2 166.1 46.2 229.1 21.4 272C-22.7 348.5 3.5 446.4 80 490.6s174.4 18 218.6-58.6c18.8-32.5 66.1-60 103.3-65.2c20.5-2.9 40.6-10.8 58.4-24c56.8-42.1 68.7-122.3 26.6-179.1c-18.2-24.6-43.5-40.7-71-47.8zM224 128a112 112 0 1 1 0 224 112 112 0 1 1 0-224z"/></svg>