<svg xmlns="http://www.w3.org/2000/svg" viewBox="0 0 384 512"><!--! Font Awesome Pro 6.4.0 by @fontawesome - https://fontawesome.com License - https://fontawesome.com/license (Commercial License) Copyright 2023 Fonticons, Inc. --><defs><style>.fa-secondary{opacity:.4}</style></defs><path class="fa-primary" d="M155.8 111.4c6 6.5 5.5 16.7-1 22.6c-18.8 17.1-33.6 42.7-43.7 71.2C101 233.6 96 263.5 96 288c0 8.8-7.2 16-16 16s-16-7.2-16-16c0-28.3 5.7-61.9 16.9-93.5c11.2-31.5 28.4-62.4 52.3-84.2c6.5-6 16.7-5.5 22.6 1z"/><path class="fa-secondary" d="M192 496C86 496 0 394 0 288C0 176 64 16 192 16s192 160 192 272c0 106-86 208-192 208zM154.8 134c6.5-6 7-16.1 1-22.6s-16.1-7-22.6-1c-23.9 21.8-41.1 52.7-52.3 84.2C69.7 226.1 64 259.7 64 288c0 8.8 7.2 16 16 16s16-7.2 16-16c0-24.5 5-54.4 15.1-82.8c10.1-28.5 25-54.1 43.7-71.2z"/></svg>