<svg xmlns="http://www.w3.org/2000/svg" viewBox="0 0 512 512"><!--! Font Awesome Pro 6.4.0 by @fontawesome - https://fontawesome.com License - https://fontawesome.com/license (Commercial License) Copyright 2023 Fonticons, Inc. --><defs><style>.fa-secondary{opacity:.4}</style></defs><path class="fa-primary" d="M132.7 4.7c6.2-6.2 16.4-6.2 22.6 0l64 64c4.6 4.6 5.9 11.5 3.5 17.4s-8.3 9.9-14.8 9.9H80c-6.5 0-12.3-3.9-14.8-9.9s-1.1-12.9 3.5-17.4l64-64zm224 86.6l-64-64c-4.6-4.6-5.9-11.5-3.5-17.4s8.3-9.9 14.8-9.9H432c6.5 0 12.3 3.9 14.8 9.9s1.1 12.9-3.5 17.4l-64 64c-6.2 6.2-16.4 6.2-22.6 0zM160 224a48 48 0 1 1 0 96 48 48 0 1 1 0-96zM80 400c0-26.5 21.5-48 48-48h64c26.5 0 48 21.5 48 48v16c0 17.7-14.3 32-32 32H112c-17.7 0-32-14.3-32-32V400zm192 0c0-26.5 21.5-48 48-48h64c26.5 0 48 21.5 48 48v16c0 17.7-14.3 32-32 32H304c-17.7 0-32-14.3-32-32V400zm32-128a48 48 0 1 1 96 0 48 48 0 1 1 -96 0z"/><path class="fa-secondary" d="M64 128c-35.3 0-64 28.7-64 64V448c0 35.3 28.7 64 64 64H448c35.3 0 64-28.7 64-64V192c0-35.3-28.7-64-64-64H64zm96 96a48 48 0 1 1 0 96 48 48 0 1 1 0-96zM80 400c0-26.5 21.5-48 48-48h64c26.5 0 48 21.5 48 48v16c0 17.7-14.3 32-32 32H112c-17.7 0-32-14.3-32-32V400zm192 0c0-26.5 21.5-48 48-48h64c26.5 0 48 21.5 48 48v16c0 17.7-14.3 32-32 32H304c-17.7 0-32-14.3-32-32V400zm32-128a48 48 0 1 1 96 0 48 48 0 1 1 -96 0z"/></svg>