<svg xmlns="http://www.w3.org/2000/svg" viewBox="0 0 640 512"><!--! Font Awesome Pro 6.4.0 by @fontawesome - https://fontawesome.com License - https://fontawesome.com/license (Commercial License) Copyright 2023 Fonticons, Inc. --><defs><style>.fa-secondary{opacity:.4}</style></defs><path class="fa-primary" d="M96 176c0-17.7 14.3-32 32-32h32 48H409.5c14.5 0 28.6 4.9 40 14L488 188.8c15.2 12.1 24 30.5 24 50V384c0 35.3-28.7 64-64 64H254.8c-19.4 0-37.8-8.8-50-24l-32-40H128c-17.7 0-32-14.3-32-32V176zM288 288a32 32 0 1 0 0-64 32 32 0 1 0 0 64zm-64-32a32 32 0 1 0 -64 0 32 32 0 1 0 64 0zm160 32a32 32 0 1 0 0-64 32 32 0 1 0 0 64z"/><path class="fa-secondary" d="M424 88c0-13.3-10.7-24-24-24H208c-13.3 0-24 10.7-24 24s10.7 24 24 24l72 0v32h48V112l72 0c13.3 0 24-10.7 24-24zM24 136c-13.3 0-24 10.7-24 24V352c0 13.3 10.7 24 24 24s24-10.7 24-24V280H96V232H48V160c0-13.3-10.7-24-24-24zm552 56c-17.7 0-32 14.3-32 32V416c0 17.7 14.3 32 32 32h32c17.7 0 32-14.3 32-32V224c0-17.7-14.3-32-32-32H576z"/></svg>