<svg xmlns="http://www.w3.org/2000/svg" viewBox="0 0 448 512"><!--! Font Awesome Pro 6.4.0 by @fontawesome - https://fontawesome.com License - https://fontawesome.com/license (Commercial License) Copyright 2023 Fonticons, Inc. --><defs><style>.fa-secondary{opacity:.4}</style></defs><path class="fa-primary" d="M0 64C0 46.3 14.3 32 32 32h96c17.7 0 32 14.3 32 32s-14.3 32-32 32H64v64c0 17.7-14.3 32-32 32s-32-14.3-32-32V64zM416 320c17.7 0 32 14.3 32 32v96c0 17.7-14.3 32-32 32H320c-17.7 0-32-14.3-32-32s14.3-32 32-32h64V352c0-17.7 14.3-32 32-32z"/><path class="fa-secondary" d="M448 64c0-17.7-14.3-32-32-32H320c-17.7 0-32 14.3-32 32s14.3 32 32 32h64v64c0 17.7 14.3 32 32 32s32-14.3 32-32V64zM32 320c-17.7 0-32 14.3-32 32v96c0 17.7 14.3 32 32 32h96c17.7 0 32-14.3 32-32s-14.3-32-32-32H64V352c0-17.7-14.3-32-32-32z"/></svg>