<svg xmlns="http://www.w3.org/2000/svg" viewBox="0 0 640 512"><!--! Font Awesome Pro 6.4.0 by @fontawesome - https://fontawesome.com License - https://fontawesome.com/license (Commercial License) Copyright 2023 Fonticons, Inc. --><defs><style>.fa-secondary{opacity:.4}</style></defs><path class="fa-primary" d="M544 0c13.3 0 24 10.7 24 24V72h48c13.3 0 24 10.7 24 24s-10.7 24-24 24H568v48c0 13.3-10.7 24-24 24s-24-10.7-24-24V120H472c-13.3 0-24-10.7-24-24s10.7-24 24-24h48V24c0-13.3 10.7-24 24-24zM144.4 208a32 32 0 1 1 0 64 32 32 0 1 1 0-64zm160 0a32 32 0 1 1 0 64 32 32 0 1 1 0-64z"/><path class="fa-secondary" d="M224 512a224 224 0 1 0 0-448 224 224 0 1 0 0 448zM144.4 208a32 32 0 1 1 0 64 32 32 0 1 1 0-64zm128 32a32 32 0 1 1 64 0 32 32 0 1 1 -64 0zM140 346.1c20.5 23.3 50.6 37.9 84 37.9s63.5-14.6 84-37.9c5.8-6.6 16-7.3 22.6-1.4s7.3 16 1.4 22.6C305.6 397.1 267 416 224 416s-81.6-18.9-108-48.7c-5.8-6.6-5.2-16.7 1.4-22.6s16.7-5.2 22.6 1.4z"/></svg>