<svg xmlns="http://www.w3.org/2000/svg" viewBox="0 0 512 512"><!--! Font Awesome Pro 6.4.0 by @fontawesome - https://fontawesome.com License - https://fontawesome.com/license (Commercial License) Copyright 2023 Fonticons, Inc. --><defs><style>.fa-secondary{opacity:.4}</style></defs><path class="fa-primary" d="M305.2 89.9L282 108.5c-6.9 5.5-17 4.4-22.5-2.5s-4.4-17 2.5-22.5l23.2-18.6C298.9 54 315.9 48 333.5 48c15.2 0 30.1 4.5 42.8 13l8.6 5.7c7.4 4.9 9.3 14.8 4.4 22.2s-14.8 9.3-22.2 4.4l-8.6-5.7c-7.4-5-16.2-7.6-25.1-7.6c-10.3 0-20.2 3.5-28.2 9.9zM416 224a80 80 0 1 0 -160 0 80 80 0 1 0 160 0zm0 169.9V302.4c-20.3 20.7-48.7 33.6-80 33.6c-61.9 0-112-50.1-112-112s50.1-112 112-112s112 50.1 112 112V393.9c0 33.1 17.1 63.9 45.1 81.4l11.4 7.1c7.5 4.7 9.8 14.6 5.1 22s-14.6 9.8-22 5.1l-11.4-7.1C438.7 479.1 416 438.1 416 393.9zM112.4 192a32 32 0 1 1 64 0 32 32 0 1 1 -64 0zm176 32a32 32 0 1 1 64 0 32 32 0 1 1 -64 0z"/><path class="fa-secondary" d="M427.2 446.3C381.9 487.2 321.8 512 256 512C114.6 512 0 397.4 0 256S114.6 0 256 0S512 114.6 512 256c0 62.8-22.6 120.3-60.1 164.9c-2.5-8.6-3.9-17.7-3.9-26.9V224c0-61.9-50.1-112-112-112s-112 50.1-112 112s50.1 112 112 112c31.3 0 59.7-12.9 80-33.6v91.5c0 18.4 3.9 36.2 11.2 52.4zM176.4 192a32 32 0 1 0 -64 0 32 32 0 1 0 64 0zM144 352c0 8.8 7.2 16 16 16c14.3 0 37.9 2.9 60.6 11.7c22.8 8.8 42.7 22.7 53.1 43.4c4 7.9 13.6 11.1 21.5 7.2s11.1-13.6 7.2-21.5c-15.3-30.5-43.3-48.6-70.1-59C205.3 339.5 177.7 336 160 336c-8.8 0-16 7.2-16 16zM305.2 89.9c8-6.4 18-9.9 28.2-9.9c8.9 0 17.6 2.6 25.1 7.6l8.6 5.7c7.4 4.9 17.3 2.9 22.2-4.4s2.9-17.3-4.4-22.2L376.3 61c-12.7-8.5-27.6-13-42.8-13c-17.5 0-34.5 6-48.2 16.9L262 83.5c-6.9 5.5-8 15.6-2.5 22.5s15.6 8 22.5 2.5l23.2-18.6z"/></svg>