<svg xmlns="http://www.w3.org/2000/svg" viewBox="0 0 512 512"><!--! Font Awesome Pro 6.4.0 by @fontawesome - https://fontawesome.com License - https://fontawesome.com/license (Commercial License) Copyright 2023 Fonticons, Inc. --><defs><style>.fa-secondary{opacity:.4}</style></defs><path class="fa-primary" d="M208.4 208a32 32 0 1 0 -64 0 32 32 0 1 0 64 0zm162.8 25.6c5.3 7.1 15.3 8.5 22.4 3.2s8.5-15.3 3.2-22.4c-30.4-40.5-91.2-40.5-121.6 0c-5.3 7.1-3.9 17.1 3.2 22.4s17.1 3.9 22.4-3.2c17.6-23.5 52.8-23.5 70.4 0zM434 352.3c-6-23.2-28.8-37-51.1-30.8s-35.4 30.1-29.5 53.4l22.9 89.3c2.2 8.7 11.2 13.9 19.8 11.4l84.9-23.8c22.2-6.2 35.4-30.1 29.5-53.4s-28.8-37-51.1-30.8l-20.2 5.6-5.4-21z"/><path class="fa-secondary" d="M512 256c0 29.3-4.9 57.4-14 83.7c-11.1-4.7-23.5-6.6-36.2-5c-13.7-33.8-50.3-54.4-87.5-44c-40.1 11.2-61.9 53.1-51.8 92.1l22.9 89.3c1.9 7.6 5.6 14.2 10.4 19.7c-30.6 13-64.4 20.2-99.7 20.2C114.6 512 0 397.4 0 256S114.6 0 256 0S512 114.6 512 256zM288.7 313.7c-4.3-5.2-10.1-9.7-16.7-13.4C258.7 292.9 241.4 288 224 288c-3.6 0-6.8 2.5-7.7 6s.6 7.2 3.8 9l0 0 0 0 0 0 .2 .1c.2 .1 .5 .3 .9 .5c.8 .5 2 1.2 3.4 2.1c2.8 1.9 6.5 4.5 10.2 7.6c3.7 3.1 7.2 6.6 9.6 10.1c2.5 3.5 3.5 6.4 3.5 8.6s-1 5-3.5 8.6c-2.5 3.5-5.9 6.9-9.6 10.1c-3.7 3.1-7.4 5.7-10.2 7.6c-1.4 .9-2.6 1.6-3.4 2.1c-.4 .2-.7 .4-.9 .5l-.2 .1 0 0 0 0 0 0 0 0 0 0c-2.5 1.4-4.1 4.1-4.1 7s1.6 5.6 4.1 7l0 0 0 0 0 0 .2 .1 .3 .2 .6 .4c.8 .5 2 1.2 3.4 2.1c2.8 1.9 6.5 4.5 10.2 7.6c3.7 3.1 7.2 6.6 9.6 10.1c2.5 3.5 3.5 6.4 3.5 8.6s-1 5-3.5 8.6c-2.5 3.5-5.9 6.9-9.6 10.1c-3.7 3.1-7.4 5.7-10.2 7.6c-1.4 .9-2.6 1.6-3.4 2.1c-.4 .2-.7 .4-.9 .5l-.2 .1 0 0 0 0 0 0 0 0c-3.2 1.8-4.7 5.5-3.8 9s4.1 6 7.7 6c17.4 0 34.7-4.9 47.9-12.3c6.6-3.7 12.5-8.2 16.7-13.4c4.3-5.1 7.3-11.4 7.3-18.3s-3.1-13.2-7.3-18.3c-4.3-5.2-10.1-9.7-16.7-13.4c-2.7-1.5-5.7-3-8.7-4.3c3.1-1.3 6-2.7 8.7-4.3c6.6-3.7 12.5-8.2 16.7-13.4c4.3-5.1 7.3-11.4 7.3-18.3s-3.1-13.2-7.3-18.3zM208.4 208a32 32 0 1 0 -64 0 32 32 0 1 0 64 0zm92.4 25.6c17.6-23.5 52.8-23.5 70.4 0c5.3 7.1 15.3 8.5 22.4 3.2s8.5-15.3 3.2-22.4c-30.4-40.5-91.2-40.5-121.6 0c-5.3 7.1-3.9 17.1 3.2 22.4s17.1 3.9 22.4-3.2z"/></svg>