<svg xmlns="http://www.w3.org/2000/svg" viewBox="0 0 640 512"><!--! Font Awesome Pro 6.4.0 by @fontawesome - https://fontawesome.com License - https://fontawesome.com/license (Commercial License) Copyright 2023 Fonticons, Inc. --><defs><style>.fa-secondary{opacity:.4}</style></defs><path class="fa-primary" d="M566.1 185.1C550.5 131 517.6 84.3 473.8 51.3c17-3.3 39.7-8.6 63-15.5c29.8-8.9 59.1-20.2 78.4-33.1c5.4-3.6 12.4-3.6 17.8 0s8.1 10.1 6.8 16.4c-6.2 31-29.3 106.6-73.6 166zM103.3 35.8c23.3 7 46 12.2 63 15.5c-43.8 33-76.7 79.7-92.3 133.8C29.6 125.8 6.5 50.1 .3 19.1C-1 12.8 1.7 6.3 7.1 2.7s12.4-3.6 17.8 0c19.3 12.9 48.5 24.2 78.4 33.1zM240.4 304c-17.7 0-32-14.3-32-32c0-8.8 3.6-16.8 9.3-22.6l-30.7-10.2c-8.4-2.8-12.9-11.9-10.1-20.2s11.9-12.9 20.2-10.1l96 32c8.4 2.8 12.9 11.9 10.1 20.2s-11.9 12.9-20.2 10.1l-10.9-3.6c.2 1.5 .3 2.9 .3 4.4c0 17.7-14.3 32-32 32zm192-32c0 17.7-14.3 32-32 32s-32-14.3-32-32c0-1.6 .1-3.2 .3-4.7l-11.7 3.9c-8.4 2.8-17.4-1.7-20.2-10.1s1.7-17.4 10.1-20.2l96-32c8.4-2.8 17.4 1.7 20.2 10.1s-1.7 17.4-10.1 20.2l-30.2 10.1c5.9 5.8 9.5 13.9 9.5 22.8z"/><path class="fa-secondary" d="M64 256a256 256 0 1 1 512 0A256 256 0 1 1 64 256zm141.5 91.9c-6.7 5.8-7.4 15.9-1.6 22.6c22.2 25.7 61 53.5 116.1 53.5s93.8-27.9 116.1-53.5c5.8-6.7 5.1-16.8-1.6-22.6s-16.8-5.1-22.6 1.6C394 370.2 363.4 392 320 392s-74-21.8-91.9-42.5c-5.8-6.7-15.9-7.4-22.6-1.6zM240.4 304c17.7 0 32-14.3 32-32c0-1.5-.1-3-.3-4.4l10.9 3.6c8.4 2.8 17.4-1.7 20.2-10.1s-1.7-17.4-10.1-20.2l-96-32c-8.4-2.8-17.4 1.7-20.2 10.1s1.7 17.4 10.1 20.2l30.7 10.2c-5.8 5.8-9.3 13.8-9.3 22.6c0 17.7 14.3 32 32 32zm192-32c0-8.9-3.6-17-9.5-22.8l30.2-10.1c8.4-2.8 12.9-11.9 10.1-20.2s-11.9-12.9-20.2-10.1l-96 32c-8.4 2.8-12.9 11.9-10.1 20.2s11.9 12.9 20.2 10.1l11.7-3.9c-.2 1.5-.3 3.1-.3 4.7c0 17.7 14.3 32 32 32s32-14.3 32-32z"/></svg>