<svg xmlns="http://www.w3.org/2000/svg" viewBox="0 0 512 512"><!--! Font Awesome Pro 6.4.0 by @fontawesome - https://fontawesome.com License - https://fontawesome.com/license (Commercial License) Copyright 2023 Fonticons, Inc. --><defs><style>.fa-secondary{opacity:.4}</style></defs><path class="fa-primary" d="M256 416a160 160 0 1 0 0-320 160 160 0 1 0 0 320zM200 192a24 24 0 1 1 0 48 24 24 0 1 1 0-48zm88 24a24 24 0 1 1 48 0 24 24 0 1 1 -48 0zm-95.5 76.9C208.5 309.6 231 320 256 320s47.5-10.4 63.5-27.1c6.1-6.4 16.2-6.6 22.6-.5s6.6 16.2 .5 22.6C320.8 337.8 290 352 256 352s-64.8-14.2-86.6-36.9c-6.1-6.4-5.9-16.5 .5-22.6s16.5-5.9 22.6 .5z"/><path class="fa-secondary" d="M0 56C0 25.1 25.1 0 56 0h80c13.3 0 24 10.7 24 24s-10.7 24-24 24H56c-4.4 0-8 3.6-8 8v80c0 13.3-10.7 24-24 24s-24-10.7-24-24V56zM352 24c0-13.3 10.7-24 24-24h80c30.9 0 56 25.1 56 56v80c0 13.3-10.7 24-24 24s-24-10.7-24-24V56c0-4.4-3.6-8-8-8H376c-13.3 0-24-10.7-24-24zM24 352c13.3 0 24 10.7 24 24v80c0 4.4 3.6 8 8 8h80c13.3 0 24 10.7 24 24s-10.7 24-24 24H56c-30.9 0-56-25.1-56-56V376c0-13.3 10.7-24 24-24zm464 0c13.3 0 24 10.7 24 24v80c0 30.9-25.1 56-56 56H376c-13.3 0-24-10.7-24-24s10.7-24 24-24h80c4.4 0 8-3.6 8-8V376c0-13.3 10.7-24 24-24z"/></svg>