<svg xmlns="http://www.w3.org/2000/svg" viewBox="0 0 512 512"><!--! Font Awesome Pro 6.4.0 by @fontawesome - https://fontawesome.com License - https://fontawesome.com/license (Commercial License) Copyright 2023 Fonticons, Inc. --><defs><style>.fa-secondary{opacity:.4}</style></defs><path class="fa-primary" d="M195.6 180.4c0 19.6-15.9 35.6-35.6 35.6s-35.6-15.9-35.6-35.6c0-3 .4-6 1.1-8.8c9.6-7.3 21.5-11.6 34.5-11.6s24.9 4.3 34.5 11.6c.7 2.8 1.1 5.8 1.1 8.8zM384 184c0 17.7-14.3 32-32 32s-32-14.3-32-32c0-6.9 2.2-13.2 5.8-18.4c8-3.6 16.8-5.6 26.2-5.6s18.2 2 26.2 5.6c3.7 5.2 5.8 11.6 5.8 18.4z"/><path class="fa-secondary" d="M256 512A256 256 0 1 0 256 0a256 256 0 1 0 0 512zM192 368H320c8.8 0 16 7.2 16 16s-7.2 16-16 16H192c-8.8 0-16-7.2-16-16s7.2-16 16-16zM96 224a64 64 0 1 1 128 0A64 64 0 1 1 96 224zm256-64a64 64 0 1 1 0 128 64 64 0 1 1 0-128z"/></svg>