<svg xmlns="http://www.w3.org/2000/svg" viewBox="0 0 512 512"><!--! Font Awesome Pro 6.4.0 by @fontawesome - https://fontawesome.com License - https://fontawesome.com/license (Commercial License) Copyright 2023 Fonticons, Inc. --><defs><style>.fa-secondary{opacity:.4}</style></defs><path class="fa-primary" d="M497.1 14.9c19.6 19.6 20 51 .7 70.3c-14.8 14.8-65.7 23.6-88.3 26.7c-5.6 .9-10.3-3.9-9.5-9.5C403.3 79.9 412 29 426.8 14.2C446-5 477.5-4.6 497.1 14.9zM87.1 285.1c-6.3-6.3-3.6-17.2 4.9-19.8l97.4-29.7c11.6-3.5 22.5 7.3 19 19l-29.7 97.4c-2.6 8.6-13.4 11.3-19.8 4.9c-2-2-3.2-4.6-3.4-7.3l-5.1-56.1-56.1-5.1c-2.8-.3-5.4-1.5-7.3-3.4zM265.3 92c2.6-8.6 13.4-11.3 19.8-4.9c2 2 3.2 4.6 3.4 7.3l5.1 56.1 56.1 5.1c2.8 .3 5.4 1.5 7.3 3.4c6.3 6.3 3.6 17.2-4.9 19.8l-97.4 29.7c-11.6 3.5-22.5-7.3-19-19L265.3 92zM14.9 497.1c-19.6-19.6-20-51-.7-70.3C29 412 79.8 403.2 102.4 400.1c5.6-.9 10.3 3.9 9.5 9.5c-3.2 22.5-11.9 73.5-26.7 88.3C66 517 34.5 516.6 14.9 497.1z"/><path class="fa-secondary" d="M382.2 33.2c-1.5 4.8-2.9 9.6-4.1 14.3c-4.8 18.9-8 38.5-9.7 50.3c-4 26.8 18.9 49.7 45.7 45.8c11.9-1.6 31.5-4.8 50.4-9.6c4.7-1.2 9.5-2.5 14.3-4.1C534.2 227.5 520.2 353.8 437 437c-83.2 83.2-209.5 97.2-307.2 41.8c1.5-4.8 2.8-9.6 4-14.3c4.8-18.9 8-38.5 9.7-50.3c4-26.8-18.9-49.7-45.7-45.8c-11.9 1.6-31.5 4.8-50.4 9.7c-4.7 1.2-9.5 2.5-14.3 4.1C-22.2 284.5-8.2 158.2 75 75C158.2-8.3 284.5-22.2 382.2 33.2zm34.3 169.1c-4.8-11.9-20.9-10.9-26.9 .4c-19.4 36.7-46.3 73.2-79.8 106.7s-70 60.3-106.7 79.8c-11.3 6-12.3 22.1-.4 26.9c59.4 24.1 129.9 12.2 177.9-35.8s59.9-118.5 35.8-177.9zM87.1 285.1c2 2 4.6 3.2 7.3 3.4l56.1 5.1 5.1 56.1c.3 2.8 1.5 5.4 3.4 7.3c6.3 6.3 17.2 3.6 19.8-4.9l29.7-97.4c3.5-11.6-7.3-22.5-19-19L92 265.3c-8.6 2.6-11.3 13.4-4.9 19.8zM265.3 92l-29.7 97.4c-3.5 11.6 7.3 22.5 19 19l97.4-29.7c8.6-2.6 11.3-13.4 4.9-19.8c-2-2-4.6-3.2-7.3-3.4l-56.1-5.1-5.1-56.1c-.3-2.8-1.5-5.4-3.4-7.3c-6.3-6.3-17.2-3.6-19.8 4.9z"/></svg>