<svg xmlns="http://www.w3.org/2000/svg" viewBox="0 0 512 512"><!--! Font Awesome Pro 6.4.0 by @fontawesome - https://fontawesome.com License - https://fontawesome.com/license (Commercial License) Copyright 2023 Fonticons, Inc. --><defs><style>.fa-secondary{opacity:.4}</style></defs><path class="fa-primary" d="M208.4 208a32 32 0 1 0 -64 0 32 32 0 1 0 64 0zm160 0a32 32 0 1 0 -64 0 32 32 0 1 0 64 0zM320 448V402.6c0-14.7-11.9-26.6-26.6-26.6h-2c-11.3 0-21.1 7.9-23.6 18.9c-2.8 12.6-20.8 12.6-23.6 0c-2.5-11.1-12.3-18.9-23.6-18.9h-2c-14.7 0-26.6 11.9-26.6 26.6V448c0 35.3 28.7 64 64 64s64-28.7 64-64z"/><path class="fa-secondary" d="M174.5 498.8C73.1 464.7 0 368.9 0 256C0 114.6 114.6 0 256 0S512 114.6 512 256c0 112.9-73.1 208.7-174.5 242.8C346.7 484 352 466.6 352 448V401.1c24.3-17.5 43.6-41.6 55.4-69.6c5-11.8-7-22.5-19.3-18.7c-39.7 12.2-84.5 19-131.8 19s-92.1-6.8-131.8-19c-12.3-3.8-24.3 6.9-19.3 18.7c11.7 27.8 30.8 51.7 54.8 69.2V448c0 18.6 5.3 36 14.5 50.8zM208.4 208a32 32 0 1 0 -64 0 32 32 0 1 0 64 0zm128 32a32 32 0 1 0 0-64 32 32 0 1 0 0 64z"/></svg>