<svg xmlns="http://www.w3.org/2000/svg" viewBox="0 0 512 512"><!--! Font Awesome Pro 6.4.0 by @fontawesome - https://fontawesome.com License - https://fontawesome.com/license (Commercial License) Copyright 2023 Fonticons, Inc. --><defs><style>.fa-secondary{opacity:.4}</style></defs><path class="fa-primary" d="M16 192H48v56c0 30.9 25.1 56 56 56h80c30.9 0 56-25.1 56-56V192h32v56c0 30.9 25.1 56 56 56h80c30.9 0 56-25.1 56-56V192h32c8.8 0 16-7.2 16-16s-7.2-16-16-16H458.6c-9-18.9-28.3-32-50.6-32H328c-22.3 0-41.6 13.1-50.6 32H234.6c-9-18.9-28.3-32-50.6-32H104c-22.3 0-41.6 13.1-50.6 32H16c-8.8 0-16 7.2-16 16s7.2 16 16 16zm64 56V192v-8c0-13.3 10.7-24 24-24h80c13.3 0 24 10.7 24 24v64c0 13.3-10.7 24-24 24H104c-13.3 0-24-10.7-24-24zm352-56v56c0 13.3-10.7 24-24 24H328c-13.3 0-24-10.7-24-24V184c0-13.3 10.7-24 24-24h80c13.3 0 24 10.7 24 24v8zM184.4 224a24 24 0 1 0 -48 0 24 24 0 1 0 48 0zm168 24a24 24 0 1 0 0-48 24 24 0 1 0 0 48z"/><path class="fa-secondary" d="M512 256c0 141.4-114.6 256-256 256S0 397.4 0 256c0-22.8 3-44.8 8.5-65.8c2.2 1.2 4.8 1.8 7.5 1.8H48v56c0 30.9 25.1 56 56 56h80c30.9 0 56-25.1 56-56V192h32v56c0 30.9 25.1 56 56 56h80c30.9 0 56-25.1 56-56V192h32c2.7 0 5.2-.7 7.5-1.8c5.6 21 8.5 43.1 8.5 65.8zM53.4 160H18.6C56.6 66.2 148.6 0 256 0S455.4 66.2 493.4 160H458.6c-9-18.9-28.3-32-50.6-32H328c-22.3 0-41.6 13.1-50.6 32H234.6c-9-18.9-28.3-32-50.6-32H104c-22.3 0-41.6 13.1-50.6 32zm88.1 179.9c-6.7 5.8-7.4 15.9-1.6 22.6c22.2 25.7 61 53.5 116.1 53.5s93.8-27.9 116.1-53.5c5.8-6.7 5.1-16.8-1.6-22.6s-16.8-5.1-22.6 1.6C330 362.2 299.4 384 256 384s-74-21.8-91.9-42.5c-5.8-6.7-15.9-7.4-22.6-1.6z"/></svg>