<svg xmlns="http://www.w3.org/2000/svg" viewBox="0 0 576 512"><!--! Font Awesome Pro 6.4.0 by @fontawesome - https://fontawesome.com License - https://fontawesome.com/license (Commercial License) Copyright 2023 Fonticons, Inc. --><defs><style>.fa-secondary{opacity:.4}</style></defs><path class="fa-primary" d="M548 182.8c-16.2-16.2-42.5-16.5-59-.5l-150.8 146c29.2 10.2 51.2 28.2 65.9 45.2c1.3 1.5 2.2 3.1 2.9 4.8l25.7-24.7-25.1-25.1c-4.7-4.7-4.7-12.3 0-17s12.3-4.7 17 0l25.4 25.4 15.3-14.8-25.7-25.7c-4.7-4.7-4.7-12.3 0-17s12.3-4.7 17 0l26 26 15.3-14.8-26.3-26.3c-4.7-4.7-4.7-12.3 0-17s12.3-4.7 17 0l26.6 26.6 15.3-14.8-26.9-26.9c-4.7-4.7-4.7-12.3 0-17s12.3-4.7 17 0l27.2 27.2c16.7-16.4 16.9-43.3 .3-59.8zM240.4 208a32 32 0 1 0 -64 0 32 32 0 1 0 64 0zm160 0a32 32 0 1 0 -64 0 32 32 0 1 0 64 0z"/><path class="fa-secondary" d="M544 256c0 141.4-114.6 256-256 256S32 397.4 32 256S146.6 0 288 0C400 0 495.2 72 530 172.2c-14-4.1-29.8-.7-41 10.2l-150.8 146c-14.9-5.2-31.6-8.4-50.2-8.4c-55.1 0-93.8 27.9-116.1 53.5c-5.8 6.7-5.1 16.8 1.6 22.6s16.8 5.1 22.6-1.6C214 373.8 244.6 352 288 352s74 21.8 91.9 42.5c5.8 6.7 15.9 7.4 22.6 1.6c5.2-4.5 6.8-11.6 4.5-17.7l136.8-132c.1 3.2 .2 6.4 .2 9.6zM240.4 208a32 32 0 1 0 -64 0 32 32 0 1 0 64 0zm128 32a32 32 0 1 0 0-64 32 32 0 1 0 0 64z"/></svg>