<svg xmlns="http://www.w3.org/2000/svg" viewBox="0 0 512 512"><!--! Font Awesome Pro 6.4.0 by @fontawesome - https://fontawesome.com License - https://fontawesome.com/license (Commercial License) Copyright 2023 Fonticons, Inc. --><defs><style>.fa-secondary{opacity:.4}</style></defs><path class="fa-primary" d="M154 120.8c22.6 3.5 41.3 18.9 49.5 39.6c-5.6 9.4-15.8 15.6-27.5 15.6c-17.7 0-32-14.3-32-32c0-9.1 3.8-17.4 10-23.2zM360.8 122c22 5.3 40.1 20.6 49.1 40.9c-5.8 8-15.2 13.1-25.9 13.1c-17.7 0-32-14.3-32-32c0-8.5 3.3-16.3 8.8-22zM100.4 307.8c-2.3-10.2 5.5-19.8 15.9-19.8H395.7c10.4 0 18.1 9.6 15.9 19.8c-5 22.3-14.6 42.7-27.7 60.2c-13.4-10-30-16-47.9-16c-44.2 0-80 35.8-80 80c-74.3 0-139.5-51.6-155.6-124.2z"/><path class="fa-secondary" d="M256 512A256 256 0 1 0 256 0a256 256 0 1 0 0 512zM144 120c35.3 0 64 28.7 64 64v10.3c0 16.4-13.3 29.7-29.7 29.7H109.7C93.3 224 80 210.7 80 194.3V184c0-35.3 28.7-64 64-64zm128 72c0-39.8 32.2-72 72-72s72 32.2 72 72v7.5c0 13.5-11 24.5-24.5 24.5H296.5C283 224 272 213 272 199.5V192zM116.3 288H395.7c10.4 0 18.1 9.6 15.9 19.8C395.5 380.4 330.3 432 256 432s-139.5-51.6-155.6-124.2c-2.3-10.2 5.5-19.8 15.9-19.8z"/></svg>