<svg xmlns="http://www.w3.org/2000/svg" viewBox="0 0 576 512"><!--! Font Awesome Pro 6.4.0 by @fontawesome - https://fontawesome.com License - https://fontawesome.com/license (Commercial License) Copyright 2023 Fonticons, Inc. --><defs><style>.fa-secondary{opacity:.4}</style></defs><path class="fa-primary" d="M0 96H192c0-53-43-96-96-96S0 43 0 96zm181.4 32H0V464c0 26.5 21.5 48 48 48h88.6c-5.4-9.4-8.6-20.3-8.6-32V270.3c0-8.4 1.6-16.6 4.8-24.4l48.6-118zM344 224c-13.3 0-24 10.7-24 24v48c0 13.3 10.7 24 24 24h48c13.3 0 24-10.7 24-24V248c0-13.3-10.7-24-24-24H344z"/><path class="fa-secondary" d="M160 270.3V480c0 17.7 14.3 32 32 32H304V448c0-26.5 21.5-48 48-48h32c26.5 0 48 21.5 48 48v64H544c17.7 0 32-14.3 32-32V270.3c0-4.2-.8-8.3-2.4-12.2L524.7 139.4c-3-7.4-8.7-13.3-15.9-16.7L381.7 62.5c-8.7-4.1-18.7-4.1-27.4 0L227.2 122.7c-7.2 3.4-12.9 9.4-15.9 16.7L162.4 258.1c-1.6 3.9-2.4 8-2.4 12.2zM344 224h48c13.3 0 24 10.7 24 24v48c0 13.3-10.7 24-24 24H344c-13.3 0-24-10.7-24-24V248c0-13.3 10.7-24 24-24z"/></svg>