<svg xmlns="http://www.w3.org/2000/svg" viewBox="0 0 512 512"><!--! Font Awesome Pro 6.4.0 by @fontawesome - https://fontawesome.com License - https://fontawesome.com/license (Commercial License) Copyright 2023 Fonticons, Inc. --><defs><style>.fa-secondary{opacity:.4}</style></defs><path class="fa-primary" d="M96 160l128-16 128 16c17.7 0 32-14.3 32-32s-14.3-32-32-32L224 112 96 96c-17.7 0-32 14.3-32 32s14.3 32 32 32z"/><path class="fa-secondary" d="M192 96v12l32 4 32-4V96c0-17.7-14.3-32-32-32s-32 14.3-32 32zm0 52v76H173.3c-8.5 0-16.6 3.4-22.6 9.4L128 256H32c-17.7 0-32 14.3-32 32v64c0 17.7 14.3 32 32 32H132.1c20.2 29 53.9 48 91.9 48s71.7-19 91.9-48H352c17.7 0 32 14.3 32 32s14.3 32 32 32h64c17.7 0 32-14.3 32-32c0-88.4-71.6-160-160-160H320l-22.6-22.6c-6-6-14.1-9.4-22.6-9.4H256V148l-32-4-32 4z"/></svg>