<svg xmlns="http://www.w3.org/2000/svg" viewBox="0 0 512 512"><!--! Font Awesome Pro 6.4.0 by @fontawesome - https://fontawesome.com License - https://fontawesome.com/license (Commercial License) Copyright 2023 Fonticons, Inc. --><defs><style>.fa-secondary{opacity:.4}</style></defs><path class="fa-primary" d="M302.7 36.9c27.7 5.9 53.5 16.9 76.4 31.9c6.3-3.1 13.4-4.8 20.9-4.8c26.5 0 48 21.5 48 48c0 7.5-1.7 14.6-4.8 20.9c15.1 22.9 26 48.7 31.9 76.4c21.1 5 36.9 24 36.9 46.7s-15.7 41.7-36.9 46.7c-5.9 27.7-16.9 53.5-31.9 76.4c3.1 6.3 4.8 13.4 4.8 20.9c0 26.5-21.5 48-48 48c-7.5 0-14.6-1.7-20.9-4.8c-3.4 2.2-6.9 4.4-10.4 6.4l-27.1-58.4c5-3.2 9.8-6.6 14.4-10.3c4.8-11.2 13.8-20.2 25.1-25.1c17.2-21.5 29-47.5 33.2-75.9H297.6c4.1-7.1 6.4-15.3 6.4-24c0-26.5-21.5-48-48-48s-48 21.5-48 48c0 8.7 2.3 16.9 6.4 24H97.8c4.3 28.5 16.1 54.4 33.2 75.9c11.2 4.8 20.2 13.8 25.1 25.1c4.6 3.7 9.4 7.1 14.4 10.3l-27.1 58.4c-3.5-2.1-7-4.2-10.4-6.4c-6.3 3.1-13.4 4.8-20.9 4.8c-26.5 0-48-21.5-48-48c0-7.5 1.7-14.6 4.8-20.9c-15.1-22.9-26.1-48.7-31.9-76.4C15.7 297.7 0 278.7 0 256s15.7-41.7 36.9-46.7c5.9-27.7 16.9-53.5 31.9-76.4C65.7 126.6 64 119.5 64 112c0-26.5 21.5-48 48-48c7.5 0 14.6 1.7 20.9 4.8c22.9-15.1 48.7-26.1 76.4-31.9C214.3 15.7 233.3 0 256 0s41.7 15.7 46.7 36.9zM127.2 161.1c-15.1 20.5-25.4 44.6-29.4 70.9H198.1l-70.9-70.9zm33.9-33.9L232 198.1V97.8c-26.3 4-50.4 14.3-70.9 29.4zM280 97.8V198.1l70.9-70.9c-20.5-15.1-44.6-25.4-70.9-29.4zm104.8 63.3L313.9 232H414.2c-3.9-26.3-14.3-50.4-29.4-70.9z"/><path class="fa-secondary" d="M293 286.6c6.9-8.3 11-19 11-30.6c0-26.5-21.5-48-48-48s-48 21.5-48 48c0 11.6 4.1 22.3 11 30.6L130.2 477.9c-3.5 7.4-2.9 16.1 1.5 23s12 11.1 20.2 11.1H360c8.2 0 15.8-4.2 20.2-11.1s5-15.6 1.5-23L293 286.6z"/></svg>