<svg xmlns="http://www.w3.org/2000/svg" viewBox="0 0 576 512"><!--! Font Awesome Pro 6.4.0 by @fontawesome - https://fontawesome.com License - https://fontawesome.com/license (Commercial License) Copyright 2023 Fonticons, Inc. --><defs><style>.fa-secondary{opacity:.4}</style></defs><path class="fa-primary" d="M192 32H116.9C96.3 32 85.3 56.3 98.8 71.8L120 96H456l21.2-24.2C490.8 56.3 479.7 32 459.1 32H384c0-17.7-14.3-32-32-32H224c-17.7 0-32 14.3-32 32zm288 96H96c-17.7 0-32 14.3-32 32V283.5c0 13.3 4.2 26.3 11.9 37.2l51.4 71.9c1.9 1.1 3.8 2.2 5.6 3.5c15.5 10.7 34 18 51 19.9h16.6c18.2-1.9 35.8-9.7 50.6-19.9c22.1-15.5 51.6-15.5 73.7 0c15.8 10.9 33.7 18.1 50.8 19.9h16.5c17-1.8 35.6-9.2 51-19.9c1.8-1.3 3.6-2.4 5.5-3.5l51.4-71.9c7.8-10.9 11.9-23.9 11.9-37.2V160c0-17.7-14.3-32-32-32zm-32 64v96H128V192H448z"/><path class="fa-secondary" d="M269.5 421.9c11.1-7.9 25.9-7.9 37 0C329 437.4 356.5 448 384 448c26.9 0 55.3-10.8 77.4-26.1l0 0c11.9-8.5 28.1-7.8 39.2 1.7c14.4 11.9 32.5 21 50.6 25.2c17.2 4 27.9 21.2 23.9 38.4s-21.2 27.9-38.4 23.9c-24.5-5.7-44.9-16.5-58.2-25C449.5 501.7 417 512 384 512c-31.9 0-60.6-9.9-80.4-18.9c-5.8-2.7-11.1-5.3-15.6-7.7c-4.5 2.4-9.7 5.1-15.6 7.7c-19.8 9-48.5 18.9-80.4 18.9c-33 0-65.5-10.3-94.5-25.8c-13.4 8.4-33.7 19.3-58.2 25c-17.2 4-34.4-6.7-38.4-23.9s6.7-34.4 23.9-38.4c18.1-4.2 36.2-13.3 50.6-25.2c11.1-9.4 27.3-10.1 39.2-1.7l0 0C136.7 437.2 165.1 448 192 448c27.5 0 55-10.6 77.5-26.1z"/></svg>