<svg xmlns="http://www.w3.org/2000/svg" viewBox="0 0 384 512"><!--! Font Awesome Pro 6.4.0 by @fontawesome - https://fontawesome.com License - https://fontawesome.com/license (Commercial License) Copyright 2023 Fonticons, Inc. --><defs><style>.fa-secondary{opacity:.4}</style></defs><path class="fa-primary" d="M384 160L224 0V128c0 17.7 14.3 32 32 32H384zM208 208c0-8.8-7.2-16-16-16s-16 7.2-16 16v48H128c-8.8 0-16 7.2-16 16s7.2 16 16 16h48v48c0 8.8 7.2 16 16 16s16-7.2 16-16V288h48c8.8 0 16-7.2 16-16s-7.2-16-16-16H208V208zM128 384c-8.8 0-16 7.2-16 16s7.2 16 16 16H256c8.8 0 16-7.2 16-16s-7.2-16-16-16H128z"/><path class="fa-secondary" d="M0 64C0 28.7 28.7 0 64 0H224V128c0 17.7 14.3 32 32 32H384V448c0 35.3-28.7 64-64 64H64c-35.3 0-64-28.7-64-64V64zM208 208c0-8.8-7.2-16-16-16s-16 7.2-16 16v48H128c-8.8 0-16 7.2-16 16s7.2 16 16 16h48v48c0 8.8 7.2 16 16 16s16-7.2 16-16V288h48c8.8 0 16-7.2 16-16s-7.2-16-16-16H208V208zM128 384c-8.8 0-16 7.2-16 16s7.2 16 16 16H256c8.8 0 16-7.2 16-16s-7.2-16-16-16H128z"/></svg>