<svg xmlns="http://www.w3.org/2000/svg" viewBox="0 0 384 512"><!--! Font Awesome Pro 6.4.0 by @fontawesome - https://fontawesome.com License - https://fontawesome.com/license (Commercial License) Copyright 2023 Fonticons, Inc. --><defs><style>.fa-secondary{opacity:.4}</style></defs><path class="fa-primary" d="M384 160L224 0V128c0 17.7 14.3 32 32 32H384zM136 240c-13.3 0-24 10.7-24 24V368v56c0 13.3 10.7 24 24 24s24-10.7 24-24V392h44c42 0 76-34 76-76s-34-76-76-76H136zm68 104H160V288h44c15.5 0 28 12.5 28 28s-12.5 28-28 28z"/><path class="fa-secondary" d="M0 64C0 28.7 28.7 0 64 0H224V128c0 17.7 14.3 32 32 32H384V448c0 35.3-28.7 64-64 64H64c-35.3 0-64-28.7-64-64V64zM136 240c-13.3 0-24 10.7-24 24V368v56c0 13.3 10.7 24 24 24s24-10.7 24-24V392h44c42 0 76-34 76-76s-34-76-76-76H136zm68 104H160V288h44c15.5 0 28 12.5 28 28s-12.5 28-28 28z"/></svg>