<svg xmlns="http://www.w3.org/2000/svg" viewBox="0 0 384 512"><!--! Font Awesome Pro 6.4.0 by @fontawesome - https://fontawesome.com License - https://fontawesome.com/license (Commercial License) Copyright 2023 Fonticons, Inc. --><defs><style>.fa-secondary{opacity:.4}</style></defs><path class="fa-primary" d="M384 160L224 0V128c0 17.7 14.3 32 32 32H384zM155.7 250.2c-7.6-10.9-22.6-13.5-33.4-5.9s-13.5 22.6-5.9 33.4L162.7 344l-46.4 66.2c-7.6 10.9-5 25.8 5.9 33.4s25.8 5 33.4-5.9L192 385.8l36.3 51.9c7.6 10.9 22.6 13.5 33.4 5.9s13.5-22.6 5.9-33.4L221.3 344l46.4-66.2c7.6-10.9 5-25.8-5.9-33.4s-25.8-5-33.4 5.9L192 302.1l-36.3-51.9z"/><path class="fa-secondary" d="M0 64C0 28.7 28.7 0 64 0H224V128c0 17.7 14.3 32 32 32H384V448c0 35.3-28.7 64-64 64H64c-35.3 0-64-28.7-64-64V64zM155.7 250.2c-7.6-10.9-22.6-13.5-33.4-5.9s-13.5 22.6-5.9 33.4L162.7 344l-46.4 66.2c-7.6 10.9-5 25.8 5.9 33.4s25.8 5 33.4-5.9L192 385.8l36.3 51.9c7.6 10.9 22.6 13.5 33.4 5.9s13.5-22.6 5.9-33.4L221.3 344l46.4-66.2c7.6-10.9 5-25.8-5.9-33.4s-25.8-5-33.4 5.9L192 302.1l-36.3-51.9z"/></svg>