<svg xmlns="http://www.w3.org/2000/svg" viewBox="0 0 640 512"><!--! Font Awesome Pro 6.4.0 by @fontawesome - https://fontawesome.com License - https://fontawesome.com/license (Commercial License) Copyright 2023 Fonticons, Inc. --><defs><style>.fa-secondary{opacity:.4}</style></defs><path class="fa-primary" d="M32 312c0-13.3 10.7-24 24-24H168c13.3 0 24 10.7 24 24s-10.7 24-24 24H56c-13.3 0-24-10.7-24-24zm224 0c0-13.3 10.7-24 24-24h80c13.3 0 24 10.7 24 24s-10.7 24-24 24H280c-13.3 0-24-10.7-24-24zm192 0c0-13.3 10.7-24 24-24H584c13.3 0 24 10.7 24 24s-10.7 24-24 24H472c-13.3 0-24-10.7-24-24z"/><path class="fa-secondary" d="M192 0c-35.3 0-64 28.7-64 64V256H512V160H384c-17.7 0-32-14.3-32-32V0H192zM512 368H128v80c0 35.3 28.7 64 64 64H448c35.3 0 64-28.7 64-64V368zM384 0V128H512L384 0z"/></svg>