<svg xmlns="http://www.w3.org/2000/svg" viewBox="0 0 448 512"><!--! Font Awesome Pro 6.4.0 by @fontawesome - https://fontawesome.com License - https://fontawesome.com/license (Commercial License) Copyright 2023 Fonticons, Inc. --><defs><style>.fa-secondary{opacity:.4}</style></defs><path class="fa-primary" d="M448 160L288 0V128c0 17.7 14.3 32 32 32H448zM277.5 221.3c-4.2-8.5-13-13.6-22.5-13.2s-17.8 6.3-21.3 15.1L189.6 333.5l-24.1-48.2c-4.1-8.1-12.4-13.3-21.5-13.3H24c-13.3 0-24 10.7-24 24s10.7 24 24 24H129.2l41.4 82.7c4.2 8.5 13 13.6 22.5 13.2s17.8-6.3 21.3-15.1l44.2-110.4 8.1 16.2c4.1 8.1 12.4 13.3 21.5 13.3h56c13.3 0 24-10.7 24-24s-10.7-24-24-24H302.8l-25.4-50.7z"/><path class="fa-secondary" d="M64 64C64 28.7 92.7 0 128 0H288V128c0 17.7 14.3 32 32 32H448V448c0 35.3-28.7 64-64 64H128c-35.3 0-64-28.7-64-64V320h65.2l41.4 82.7c4.2 8.5 13 13.6 22.5 13.2s17.8-6.3 21.3-15.1l44.2-110.4 8.1 16.2c4.1 8.1 12.4 13.3 21.5 13.3h56c13.3 0 24-10.7 24-24s-10.7-24-24-24H302.8l-25.4-50.7c-4.2-8.5-13-13.6-22.5-13.2s-17.8 6.3-21.3 15.1L189.6 333.5l-24.1-48.2c-4.1-8.1-12.4-13.3-21.5-13.3H64V64z"/></svg>