<svg xmlns="http://www.w3.org/2000/svg" viewBox="0 0 512 512"><!--! Font Awesome Pro 6.4.0 by @fontawesome - https://fontawesome.com License - https://fontawesome.com/license (Commercial License) Copyright 2023 Fonticons, Inc. --><defs><style>.fa-secondary{opacity:.4}</style></defs><path class="fa-primary" d="M384 160L224 0V128c0 17.7 14.3 32 32 32H384zM176 352c-8.8 0-16 7.2-16 16V496c0 8.8 7.2 16 16 16h32c26.5 0 48-21.5 48-48V400c0-26.5-21.5-48-48-48H176zm16 128V384h16c8.8 0 16 7.2 16 16v64c0 8.8-7.2 16-16 16H192zM456 352c-22.1 0-40 17.9-40 40v80c0 22.1 17.9 40 40 40h16c22.1 0 40-17.9 40-40v-8c0-8.8-7.2-16-16-16s-16 7.2-16 16v8c0 4.4-3.6 8-8 8H456c-4.4 0-8-3.6-8-8V392c0-4.4 3.6-8 8-8h16c4.4 0 8 3.6 8 8v8c0 8.8 7.2 16 16 16s16-7.2 16-16v-8c0-22.1-17.9-40-40-40H456zM288 392v80c0 22.1 17.9 40 40 40h16c22.1 0 40-17.9 40-40V392c0-22.1-17.9-40-40-40H328c-22.1 0-40 17.9-40 40zm40-8h16c4.4 0 8 3.6 8 8v80c0 4.4-3.6 8-8 8H328c-4.4 0-8-3.6-8-8V392c0-4.4 3.6-8 8-8z"/><path class="fa-secondary" d="M0 64C0 28.7 28.7 0 64 0H224V128c0 17.7 14.3 32 32 32H384V304H176c-35.3 0-64 28.7-64 64V512H64c-35.3 0-64-28.7-64-64V64z"/></svg>