<svg xmlns="http://www.w3.org/2000/svg" viewBox="0 0 576 512"><!--! Font Awesome Pro 6.4.0 by @fontawesome - https://fontawesome.com License - https://fontawesome.com/license (Commercial License) Copyright 2023 Fonticons, Inc. --><defs><style>.fa-secondary{opacity:.4}</style></defs><path class="fa-primary" d="M96 32c0-17.7 14.3-32 32-32h96c17.7 0 32 14.3 32 32h64c17.7 0 32 14.3 32 32s-14.3 32-32 32H32C14.3 96 0 81.7 0 64S14.3 32 32 32H96zM0 480c0-17.7 14.3-32 32-32H320c17.7 0 32 14.3 32 32s-14.3 32-32 32H32c-17.7 0-32-14.3-32-32zM320 128H544c17.7 0 32 14.3 32 32V288c0 17.7-14.3 32-32 32s-32 14.3-32 32v32c0 17.7-14.3 32-32 32H320V128zm72 56v16c0 8.8 7.2 16 16 16h16c8.8 0 16-7.2 16-16V184c0-8.8-7.2-16-16-16H408c-8.8 0-16 7.2-16 16zm112-16c-8.8 0-16 7.2-16 16v16c0 8.8 7.2 16 16 16h16c8.8 0 16-7.2 16-16V184c0-8.8-7.2-16-16-16H504zM392 344v16c0 8.8 7.2 16 16 16h16c8.8 0 16-7.2 16-16V344c0-8.8-7.2-16-16-16H408c-8.8 0-16 7.2-16 16z"/><path class="fa-secondary" d="M32 96H320V448H32V96z"/></svg>