<svg xmlns="http://www.w3.org/2000/svg" viewBox="0 0 640 512"><!--! Font Awesome Pro 6.4.0 by @fontawesome - https://fontawesome.com License - https://fontawesome.com/license (Commercial License) Copyright 2023 Fonticons, Inc. --><defs><style>.fa-secondary{opacity:.4}</style></defs><path class="fa-primary" d="M5.1 9.2C13.3-1.2 28.4-3.1 38.8 5.1l592 464c10.4 8.2 12.3 23.3 4.1 33.7s-23.3 12.3-33.7 4.1L9.2 42.9C-1.2 34.7-3.1 19.6 5.1 9.2z"/><path class="fa-secondary" d="M400.4 411.5l87 68.5H128c-35.3 0-64-28.7-64-64V146.4l98.8 77.8c-.9-.2-1.8-.2-2.8-.2H128c-8.8 0-16 7.2-16 16v32c0 8.8 7.2 16 16 16h32c8.8 0 16-7.2 16-16V240c0-2.3-.5-4.4-1.3-6.4l71.1 56C233.1 293.9 224 305.9 224 320v64c0 17.7 14.3 32 32 32H384c6 0 11.6-1.7 16.4-4.5zM576 416c0 3.3-.2 6.5-.7 9.6L318.1 224H384c17.7 0 32-14.3 32-32V128c0-17.7-14.3-32-32-32H256c-17.7 0-32 14.3-32 32v22.3L89.5 44.9C100.2 36.8 113.6 32 128 32H512c35.3 0 64 28.7 64 64V416zM112 368v32c0 8.8 7.2 16 16 16h32c8.8 0 16-7.2 16-16V368c0-8.8-7.2-16-16-16H128c-8.8 0-16 7.2-16 16zM464 240v32c0 8.8 7.2 16 16 16h32c8.8 0 16-7.2 16-16V240c0-8.8-7.2-16-16-16H480c-8.8 0-16 7.2-16 16zM480 96c-8.8 0-16 7.2-16 16v32c0 8.8 7.2 16 16 16h32c8.8 0 16-7.2 16-16V112c0-8.8-7.2-16-16-16H480z"/></svg>