<svg xmlns="http://www.w3.org/2000/svg" viewBox="0 0 640 512"><!--! Font Awesome Pro 6.4.0 by @fontawesome - https://fontawesome.com License - https://fontawesome.com/license (Commercial License) Copyright 2023 Fonticons, Inc. --><defs><style>.fa-secondary{opacity:.4}</style></defs><path class="fa-primary" d="M195.4 55.9C201.7 41.4 216.1 32 232 32H600c15.9 0 30.2 9.4 36.6 23.9s3.6 31.5-7.2 43.2L480 261.5V416c0 12.1-6.8 23.2-17.7 28.6s-23.8 4.3-33.5-3l-64-48c-8.1-6-12.8-15.5-12.8-25.6V261.5L202.6 99.1c-10.7-11.7-13.6-28.6-7.2-43.2z"/><path class="fa-secondary" d="M40 96H164.1c3.2 9 8.2 17.4 14.9 24.7L320 274v16.7l-32 34.8V448c0 12.1-6.8 23.2-17.7 28.6s-23.8 4.3-33.5-3l-64-48c-8.1-6-12.8-15.5-12.8-25.6V325.5L10.6 163.1C-.2 151.4-3 134.5 3.4 119.9S24.1 96 40 96z"/></svg>