<svg xmlns="http://www.w3.org/2000/svg" viewBox="0 0 512 512"><!--! Font Awesome Pro 6.4.0 by @fontawesome - https://fontawesome.com License - https://fontawesome.com/license (Commercial License) Copyright 2023 Fonticons, Inc. --><defs><style>.fa-secondary{opacity:.4}</style></defs><path class="fa-primary" d="M416 64h64c17.7 0 32 14.3 32 32s-14.3 32-32 32H416c-17.7 0-32-14.3-32-32s14.3-32 32-32zM320 256c0-17.7 14.3-32 32-32H480c17.7 0 32 14.3 32 32s-14.3 32-32 32H352c-17.7 0-32-14.3-32-32zm0 160c0-17.7 14.3-32 32-32H480c17.7 0 32 14.3 32 32s-14.3 32-32 32H352c-17.7 0-32-14.3-32-32z"/><path class="fa-secondary" d="M3.5 87.7C9.9 73.3 24.2 64 40 64H312c15.8 0 30.1 9.3 36.5 23.7s3.8 31.3-6.8 43L240 243.8V416c0 12.1-6.8 23.2-17.7 28.6s-23.8 4.3-33.5-3l-64-48c-8.1-6-12.8-15.5-12.8-25.6V243.8L10.3 130.8C-.3 119-3 102.2 3.5 87.7z"/></svg>