<svg xmlns="http://www.w3.org/2000/svg" viewBox="0 0 512 512"><!--! Font Awesome Pro 6.4.0 by @fontawesome - https://fontawesome.com License - https://fontawesome.com/license (Commercial License) Copyright 2023 Fonticons, Inc. --><defs><style>.fa-secondary{opacity:.4}</style></defs><path class="fa-primary" d="M48 256C48 141.1 141.1 48 256 48c63.1 0 119.6 28.1 157.8 72.5c8.6 10.1 23.8 11.2 33.8 2.6s11.2-23.8 2.6-33.8C403.3 34.6 333.7 0 256 0C114.6 0 0 114.6 0 256v40c0 13.3 10.7 24 24 24s24-10.7 24-24V256zm458.5-52.9c-2.7-13-15.5-21.3-28.4-18.5s-21.3 15.5-18.5 28.4c2.9 13.9 4.5 28.3 4.5 43.1v40c0 13.3 10.7 24 24 24s24-10.7 24-24V256c0-18.1-1.9-35.8-5.5-52.9zM352 256c0-53-43-96-96-96s-96 43-96 96v24.9c0 35.9-4.6 71.5-13.8 106.1c-3.8 14.3 6.7 29 21.5 29c9.5 0 17.9-6.2 20.4-15.4c10.5-39 15.9-79.2 15.9-119.7V256c0-28.7 23.3-52 52-52s52 23.3 52 52v24.9c0 36.3-3.5 72.4-10.4 107.9c-2.7 13.9 7.7 27.2 21.8 27.2c10.2 0 19-7 21-17c7.7-38.8 11.6-78.3 11.6-118.1V256z"/><path class="fa-secondary" d="M256 80c97.2 0 176 78.8 176 176v24.9c0 27.7-1.7 55.3-5 82.7c-1.4 11.7-11.5 20.3-23.3 20.3c-14.7 0-25.9-13.2-24.2-27.8c3-24.9 4.4-50.1 4.4-75.3V256c0-70.7-57.3-128-128-128c-11.6 0-22.8 1.5-33.4 4.4c-10.6 2.9-22.3 .4-29.4-7.9c-10.4-12.1-6.9-30.9 8.3-35.9C218.6 83 237 80 256 80zM150.7 148.7c8.2 9.6 7.5 23.8 .2 34.2C136.5 203.6 128 228.8 128 256v24.9c0 28.9-3.3 57.7-9.7 85.8C115.9 377 106.6 384 96.1 384c-15.9 0-27.3-15.6-23.9-31.1c5.2-23.6 7.8-47.7 7.8-71.9V256c0-40.6 13.7-78 36.8-107.7c8.5-11 24.8-10.2 33.9 .4zM280 256v24.9c0 65.8-12.1 131-35.7 192.4l-5.9 15.3c-4.8 12.4-18.6 18.5-31 13.8s-18.5-18.6-13.8-31l5.9-15.3C221 400.2 232 340.8 232 280.9V256c0-13.3 10.7-24 24-24s24 10.7 24 24z"/></svg>