<svg xmlns="http://www.w3.org/2000/svg" viewBox="0 0 512 512"><!--! Font Awesome Pro 6.4.0 by @fontawesome - https://fontawesome.com License - https://fontawesome.com/license (Commercial License) Copyright 2023 Fonticons, Inc. --><defs><style>.fa-secondary{opacity:.4}</style></defs><path class="fa-primary" d="M500.3 7.3C507.7 13.3 512 22.4 512 32v96c0 9.6-4.3 18.7-11.7 24.7s-17.2 8.5-26.6 6.6l-160-32c-15-3-25.7-16.1-25.7-31.4V64c0-15.3 10.8-28.4 25.7-31.4l160-32c9.4-1.9 19.1 .6 26.6 6.6zM128 32c0-17.7 14.3-32 32-32h32c17.7 0 32 14.3 32 32V138.8c37.8 18 64 56.5 64 101.2V416H64V240c0-44.7 26.2-83.2 64-101.2V32zm48 64a16 16 0 1 0 0-32 16 16 0 1 0 0 32z"/><path class="fa-secondary" d="M289 56H224v48h65c-.7-2.6-1-5.2-1-8V64c0-2.8 .4-5.4 1-8zM2.5 159.5c-5.8 11.9-.9 26.3 11.1 32.1s26.3 .9 32.1-11.1C62 146.9 91.8 121.1 128 110V60.4C72.7 72.6 26.7 109.8 2.5 159.5zM288 416H64v32c0 35.3 28.7 64 64 64h96c35.3 0 64-28.7 64-64V416z"/></svg>