<svg xmlns="http://www.w3.org/2000/svg" viewBox="0 0 576 512"><!--! Font Awesome Pro 6.4.0 by @fontawesome - https://fontawesome.com License - https://fontawesome.com/license (Commercial License) Copyright 2023 Fonticons, Inc. --><defs><style>.fa-secondary{opacity:.4}</style></defs><path class="fa-primary" d="M238.9 36.9C227.7 44 222 57.3 224.6 70.3l9.7 48.6C264.1 105.1 298.2 96 336 96c5.7 0 11.3 .2 16.8 .6L275.2 38.4c-10.6-8-25-8.5-36.3-1.5zm-4.6 356.2l-9.7 48.6c-2.6 13 3.1 26.3 14.3 33.3s25.6 6.5 36.3-1.5l77.6-58.2c-5.5 .4-11.1 .6-16.8 .6c-37.8 0-71.9-9.1-101.7-22.9z"/><path class="fa-secondary" d="M182 150.4C221.3 120.9 273.7 96 336 96s114.7 24.9 154 54.4c39.2 29.4 67.2 64.7 81.6 89.5c5.8 9.9 5.8 22.2 0 32.1c-14.4 24.8-42.5 60.1-81.6 89.5C450.7 391.1 398.3 416 336 416s-114.7-24.9-154-54.4c-15.3-11.5-29-23.9-40.7-36.3L48.1 379.6c-12.5 7.3-28.4 5.3-38.7-4.9S-3 348.7 4.2 336.1L50 256 4.2 175.9c-7.2-12.6-5-28.4 5.3-38.6s26.1-12.2 38.7-4.9l93.1 54.3c11.8-12.3 25.4-24.8 40.7-36.3zM448 256a32 32 0 1 0 -64 0 32 32 0 1 0 64 0z"/></svg>