<svg xmlns="http://www.w3.org/2000/svg" viewBox="0 0 448 512"><!--! Font Awesome Pro 6.4.0 by @fontawesome - https://fontawesome.com License - https://fontawesome.com/license (Commercial License) Copyright 2023 Fonticons, Inc. --><defs><style>.fa-secondary{opacity:.4}</style></defs><path class="fa-primary" d="M192 122.1V89.9 27c-19.6-2.3-39.6-1.1-59 3.8L64 48V32C64 14.3 49.7 0 32 0S0 14.3 0 32V64v56.8 32.7 63.3 32.7 63.3 32.7V416v64c0 17.7 14.3 32 32 32s32-14.3 32-32V400 331.8 299.1 235.8 224 203.1l63.5-13.6c21.3-4.6 43-5.7 64.5-3.6V122.1zM80 96a16 16 0 1 1 32 0A16 16 0 1 1 80 96zm64-32a16 16 0 1 1 0 32 16 16 0 1 1 0-32zM80 144a16 16 0 1 1 32 0 16 16 0 1 1 -32 0zm64-32a16 16 0 1 1 0 32 16 16 0 1 1 0-32z"/><path class="fa-secondary" d="M192 185.9V122.1c17.4 2.1 34.4 6.7 50.6 13.9l16.1 7.2c49.2 21.9 105 23.8 155.6 5.4L448 136.3v62l-44.7 16.2c-42.8 15.6-90 13.9-131.6-4.6l-16.1-7.2c-20.3-9-41.8-14.7-63.6-16.9zm0-96V27c18.8 2.2 37.2 7.7 54.4 16.3c46.3 23.2 100.8 23.2 147.1 0l9.6-4.8C423.8 28.1 448 43.1 448 66.1v36.1l-44.7 16.2c-42.8 15.6-90 13.9-131.6-4.6l-16.1-7.2c-20.3-9-41.8-14.7-63.6-16.9zM128.3 383.9L64 400V331.8l70.2-15.1c36.4-7.8 74.3-3.9 108.4 11.3l16.1 7.2c49.2 21.9 105 23.8 155.6 5.4L448 328.3v33.5c0 13.3-8.3 25.3-20.8 30l-34.7 13c-46.2 17.3-97.6 14.6-141.7-7.4c-37.9-19-81.3-23.7-122.5-13.4zm-.7-98.5L64 299.1V235.8l70.2-15.1c36.4-7.8 74.3-3.9 108.4 11.3l16.1 7.2c49.2 21.9 105 23.8 155.6 5.4L448 232.3v62l-44.7 16.2c-42.8 15.6-90 13.9-131.6-4.6l-16.1-7.2c-40.2-17.9-85-22.5-128.1-13.3z"/></svg>