<svg xmlns="http://www.w3.org/2000/svg" viewBox="0 0 640 512"><!--! Font Awesome Pro 6.4.0 by @fontawesome - https://fontawesome.com License - https://fontawesome.com/license (Commercial License) Copyright 2023 Fonticons, Inc. --><defs><style>.fa-secondary{opacity:.4}</style></defs><path class="fa-primary" d="M608 96H576V416h32c17.7 0 32-14.3 32-32V128c0-17.7-14.3-32-32-32zM256 224c-17.7 0-32 14.3-32 32s14.3 32 32 32h32c17.7 0 32-14.3 32-32s-14.3-32-32-32H256z"/><path class="fa-secondary" d="M576 96c-112 0-192 64-192 64H48c-26.5 0-48 21.5-48 48v96c0 26.5 21.5 48 48 48H384s80 64 192 64V96zM224 256c0-17.7 14.3-32 32-32h32c17.7 0 32 14.3 32 32s-14.3 32-32 32H256c-17.7 0-32-14.3-32-32z"/></svg>