<svg xmlns="http://www.w3.org/2000/svg" viewBox="0 0 640 512"><!--! Font Awesome Pro 6.4.0 by @fontawesome - https://fontawesome.com License - https://fontawesome.com/license (Commercial License) Copyright 2023 Fonticons, Inc. --><defs><style>.fa-secondary{opacity:.4}</style></defs><path class="fa-primary" d="M480 0H352 320c-17.7 0-32 14.3-32 32s14.3 32 32 32V214.9L202.3 406.2c-6.7 10.9-10.3 23.5-10.3 36.4c0 38.3 31.1 69.4 69.4 69.4H570.6c38.3 0 69.4-31.1 69.4-69.4c0-12.8-3.6-25.4-10.3-36.4L512 214.9V64c17.7 0 32-14.3 32-32s-14.3-32-32-32H480zM384 224V64h64V224c0 5.9 1.6 11.7 4.7 16.8L501.5 320h-171l48.8-79.2c3.1-5 4.7-10.8 4.7-16.8z"/><path class="fa-secondary" d="M175 389.4l49-79.6V64c17.7 0 32-14.3 32-32s-14.3-32-32-32H160 96 32C14.3 0 0 14.3 0 32S14.3 64 32 64V352c0 53 43 96 96 96c11.2 0 22-1.9 32-5.5c0-18.7 5.2-37.1 15-53.1zM96 64h64v96H96V64z"/></svg>