<svg xmlns="http://www.w3.org/2000/svg" viewBox="0 0 448 512"><!--! Font Awesome Pro 6.4.0 by @fontawesome - https://fontawesome.com License - https://fontawesome.com/license (Commercial License) Copyright 2023 Fonticons, Inc. --><defs><style>.fa-secondary{opacity:.4}</style></defs><path class="fa-primary" d="M309.5 320h-171L64.8 439.8c-.5 .9-.8 1.8-.8 2.8c0 3 2.4 5.4 5.4 5.4H378.6c3 0 5.4-2.4 5.4-5.4c0-1-.3-2-.8-2.8L309.5 320z"/><path class="fa-secondary" d="M160 0H288h32c17.7 0 32 14.3 32 32s-14.3 32-32 32V196.8c0 11.8 3.3 23.5 9.5 33.5L437.7 406.2c6.7 10.9 10.3 23.5 10.3 36.4c0 38.3-31.1 69.4-69.4 69.4H69.4C31.1 512 0 480.9 0 442.6c0-12.8 3.6-25.4 10.3-36.4L118.5 230.4c6.2-10.1 9.5-21.7 9.5-33.5V64c-17.7 0-32-14.3-32-32s14.3-32 32-32h32zm32 64V196.8c0 23.7-6.6 46.9-19 67.1L64.8 439.8c-.5 .9-.8 1.8-.8 2.8c0 3 2.4 5.4 5.4 5.4H378.6c3 0 5.4-2.4 5.4-5.4c0-1-.3-2-.8-2.8L275 263.9c-12.4-20.2-19-43.4-19-67.1V64H192z"/></svg>