<svg xmlns="http://www.w3.org/2000/svg" viewBox="0 0 576 512"><!--! Font Awesome Pro 6.4.0 by @fontawesome - https://fontawesome.com License - https://fontawesome.com/license (Commercial License) Copyright 2023 Fonticons, Inc. --><defs><style>.fa-secondary{opacity:.4}</style></defs><path class="fa-primary" d="M288 368a144 144 0 1 1 288 0 144 144 0 1 1 -288 0zm203.3-59.3c-6.2-6.2-16.4-6.2-22.6 0L432 345.4l-36.7-36.7c-6.2-6.2-16.4-6.2-22.6 0s-6.2 16.4 0 22.6L409.4 368l-36.7 36.7c-6.2 6.2-6.2 16.4 0 22.6s16.4 6.2 22.6 0L432 390.6l36.7 36.7c6.2 6.2 16.4 6.2 22.6 0s6.2-16.4 0-22.6L454.6 368l36.7-36.7c6.2-6.2 6.2-16.4 0-22.6z"/><path class="fa-secondary" d="M0 96C0 60.7 28.7 32 64 32H306.7c17 0 33.3 6.7 45.3 18.7L429.3 128c12 12 18.7 28.3 18.7 45.3v19.5c-5.3-.5-10.6-.7-16-.7c-75 0-139.1 47-164.4 113.1C256.1 294.5 240.8 288 224 288c-35.3 0-64 28.7-64 64s28.7 64 64 64c13.3 0 25.7-4.1 35.9-11c6 28.1 18.7 53.7 36.3 75H64c-35.3 0-64-28.7-64-64V96zm96 0c-17.7 0-32 14.3-32 32v64c0 17.7 14.3 32 32 32H288c17.7 0 32-14.3 32-32V128c0-17.7-14.3-32-32-32H96z"/></svg>