<svg xmlns="http://www.w3.org/2000/svg" viewBox="0 0 576 512"><!--! Font Awesome Pro 6.4.0 by @fontawesome - https://fontawesome.com License - https://fontawesome.com/license (Commercial License) Copyright 2023 Fonticons, Inc. --><defs><style>.fa-secondary{opacity:.4}</style></defs><path class="fa-primary" d="M493.2 235.8l-29.4 29.4 71 71 29.4-29.4c15.6-15.6 15.6-40.9 0-56.6l-14.4-14.4c-15.6-15.6-40.9-15.6-56.6 0zm-52 52L311.9 417.1c-4.1 4.1-7 9.2-8.4 14.9l-15 60.1c-1.4 5.5 .2 11.2 4.2 15.2s9.7 5.6 15.2 4.2l60.1-15c5.6-1.4 10.8-4.3 14.9-8.4L512.1 358.8l-71-71z"/><path class="fa-secondary" d="M0 96C0 60.7 28.7 32 64 32H306.7c17 0 33.3 6.7 45.3 18.7L429.3 128c12 12 18.7 28.3 18.7 45.3v62.4L289.3 394.3c-8.2 8.2-14 18.5-16.8 29.7l-14 55.9H64c-35.3 0-64-28.7-64-64V96zm96 0c-17.7 0-32 14.3-32 32v64c0 17.7 14.3 32 32 32H288c17.7 0 32-14.3 32-32V128c0-17.7-14.3-32-32-32H96zM288 352a64 64 0 1 0 -128 0 64 64 0 1 0 128 0z"/></svg>