<svg xmlns="http://www.w3.org/2000/svg" viewBox="0 0 512 512"><!--! Font Awesome Pro 6.4.0 by @fontawesome - https://fontawesome.com License - https://fontawesome.com/license (Commercial License) Copyright 2023 Fonticons, Inc. --><defs><style>.fa-secondary{opacity:.4}</style></defs><path class="fa-primary" d="M320 288c-26.2 0-49.4-12.6-64-32c-14.6 19.4-37.8 32-64 32c-44.2 0-80-35.8-80-80c0-26.2 12.6-49.4 32-64c-19.4-14.6-32-37.8-32-64c0-44.2 35.8-80 80-80c26.2 0 49.4 12.6 64 32c14.6-19.4 37.8-32 64-32c44.2 0 80 35.8 80 80c0 26.2-12.6 49.4-32 64c19.4 14.6 32 37.8 32 64c0 44.2-35.8 80-80 80zm-64-96a48 48 0 1 0 0-96 48 48 0 1 0 0 96z"/><path class="fa-secondary" d="M224 394.8V281.3c12.7-5.6 23.8-14.4 32-25.3c8.2 11 19.3 19.8 32 25.3V394.8c31.9-45.2 84.5-74.8 144-74.8h50.5c16.3 0 29.5 13.2 29.5 29.5C512 439.3 439.3 512 349.5 512H288 256 224 162.5C72.7 512 0 439.3 0 349.5C0 333.2 13.2 320 29.5 320H80c59.5 0 112.1 29.6 144 74.8z"/></svg>