<svg xmlns="http://www.w3.org/2000/svg" viewBox="0 0 512 512"><!--! Font Awesome Pro 6.4.0 by @fontawesome - https://fontawesome.com License - https://fontawesome.com/license (Commercial License) Copyright 2023 Fonticons, Inc. --><defs><style>.fa-secondary{opacity:.4}</style></defs><path class="fa-primary" d="M80 264c0-13.3 10.7-24 24-24h48c13.3 0 24 10.7 24 24v48c0 13.3-10.7 24-24 24H104c-13.3 0-24-10.7-24-24V264zm128 0c0-13.3 10.7-24 24-24h48c13.3 0 24 10.7 24 24v48c0 13.3-10.7 24-24 24H232c-13.3 0-24-10.7-24-24V264zm152-24h48c13.3 0 24 10.7 24 24v48c0 13.3-10.7 24-24 24H360c-13.3 0-24-10.7-24-24V264c0-13.3 10.7-24 24-24z"/><path class="fa-secondary" d="M448 480H64c-35.3 0-64-28.7-64-64V96C0 60.7 28.7 32 64 32H192c20.1 0 39.1 9.5 51.2 25.6l19.2 25.6c6 8.1 15.5 12.8 25.6 12.8H448c35.3 0 64 28.7 64 64V416c0 35.3-28.7 64-64 64zM104 240c-13.3 0-24 10.7-24 24v48c0 13.3 10.7 24 24 24h48c13.3 0 24-10.7 24-24V264c0-13.3-10.7-24-24-24H104zm128 0c-13.3 0-24 10.7-24 24v48c0 13.3 10.7 24 24 24h48c13.3 0 24-10.7 24-24V264c0-13.3-10.7-24-24-24H232zm104 24v48c0 13.3 10.7 24 24 24h48c13.3 0 24-10.7 24-24V264c0-13.3-10.7-24-24-24H360c-13.3 0-24 10.7-24 24z"/></svg>