<svg xmlns="http://www.w3.org/2000/svg" viewBox="0 0 512 512"><!--! Font Awesome Pro 6.4.0 by @fontawesome - https://fontawesome.com License - https://fontawesome.com/license (Commercial License) Copyright 2023 Fonticons, Inc. --><defs><style>.fa-secondary{opacity:.4}</style></defs><path class="fa-primary" d="M256 320a64 64 0 1 0 0-128 64 64 0 1 0 0 128zm-58.7 32c-29.5 0-53.3 23.9-53.3 53.3c0 5.9 4.8 10.7 10.7 10.7H357.3c5.9 0 10.7-4.8 10.7-10.7c0-29.5-23.9-53.3-53.3-53.3H197.3z"/><path class="fa-secondary" d="M512 416c0 35.3-28.7 64-64 64H64c-35.3 0-64-28.7-64-64V96C0 60.7 28.7 32 64 32H192c20.1 0 39.1 9.5 51.2 25.6l19.2 25.6c6 8.1 15.5 12.8 25.6 12.8H448c35.3 0 64 28.7 64 64V416zM320 256a64 64 0 1 0 -128 0 64 64 0 1 0 128 0zM144 405.3c0 5.9 4.8 10.7 10.7 10.7H357.3c5.9 0 10.7-4.8 10.7-10.7c0-29.5-23.9-53.3-53.3-53.3H197.3c-29.5 0-53.3 23.9-53.3 53.3z"/></svg>