<svg xmlns="http://www.w3.org/2000/svg" viewBox="0 0 512 512"><!--! Font Awesome Pro 6.4.0 by @fontawesome - https://fontawesome.com License - https://fontawesome.com/license (Commercial License) Copyright 2023 Fonticons, Inc. --><defs><style>.fa-secondary{opacity:.4}</style></defs><path class="fa-primary" d="M64 224H32c-17.7 0-32 14.3-32 32v64c0 52.3 25.1 98.8 64 128v32c0 17.7 14.3 32 32 32s32-14.3 32-32v-3.2c10.3 2.1 21 3.2 32 3.2H288c11 0 21.7-1.1 32-3.2V480c0 17.7 14.3 32 32 32s32-14.3 32-32V448c38.9-29.2 64-75.7 64-128V288h32c17.7 0 32-14.3 32-32s-14.3-32-32-32H448 384 160v16 32c0 8.8-7.2 16-16 16s-16-7.2-16-16s-7.2-16-16-16s-16 7.2-16 16v32c0 8.8-7.2 16-16 16s-16-7.2-16-16V240 224z"/><path class="fa-secondary" d="M319 39.8l-24 96c-2.9 11.5-11.6 20-22.2 23L256.5 224H224c0-1.3 .2-2.6 .5-3.9L241.8 151c-7.9-7.7-11.7-19.3-8.8-30.8l24-96C261.2 7.1 278.6-3.3 295.8 1s27.6 21.7 23.3 38.8zm62.9 120.2L339.2 224H304c0-3.1 .9-6.1 2.7-8.9l48.6-72.9c-4.9-9.9-4.5-22.1 2.1-31.9l64-96C431.2-.5 451-4.4 465.8 5.4s18.7 29.7 8.9 44.4l-64 96c-6.6 9.9-17.7 14.9-28.7 14.2zM64 240V224h48 48v16 32c0 8.8-7.2 16-16 16s-16-7.2-16-16s-7.2-16-16-16s-16 7.2-16 16v32c0 8.8-7.2 16-16 16s-16-7.2-16-16V240z"/></svg>