<svg xmlns="http://www.w3.org/2000/svg" viewBox="0 0 512 512"><!--! Font Awesome Pro 6.4.0 by @fontawesome - https://fontawesome.com License - https://fontawesome.com/license (Commercial License) Copyright 2023 Fonticons, Inc. --><defs><style>.fa-secondary{opacity:.4}</style></defs><path class="fa-primary" d="M462.5 230.2c17.5-2.2 30.2-18.3 25.7-35.3C461.1 91.9 367.4 16 256 16C123.5 16 16 123.5 16 256c0 56.3 19.4 108.1 51.9 149.1c5.7 7.1 14.4 10.9 23.5 10.9h14c4.3 0 8.6 .9 12.6 2.6l93.4 40c8.3 3.5 17.2 5.4 26.1 5.4h1.7c35.7 0 64.7-29 64.7-64.7c0-10-2.3-20-6.8-28.9L259 294c-2-4-3-8.4-3-12.8c0-14.4 10.7-26.6 25.1-28.4l181.4-22.7zM176 312a24 24 0 1 1 0 48 24 24 0 1 1 0-48z"/><path class="fa-secondary" d="M288 352h39.7l9.6 51c10.1 54 57.2 93 112.1 93h17c25.2 0 45.6-20.4 45.6-45.6V400 368c0-26.5-21.5-48-48-48H354.3l-14-74.5-31.8 4L321.7 320H272l16 32zm78.3 32l-6-32H464c8.8 0 16 7.2 16 16v16H366.3zm8.4 32H480v34.4c0 7.5-6.1 13.6-13.6 13.6h-17c-32.7 0-61.6-19.3-74.7-48z"/></svg>