<svg xmlns="http://www.w3.org/2000/svg" viewBox="0 0 640 512"><!--! Font Awesome Pro 6.4.0 by @fontawesome - https://fontawesome.com License - https://fontawesome.com/license (Commercial License) Copyright 2023 Fonticons, Inc. --><defs><style>.fa-secondary{opacity:.4}</style></defs><path class="fa-primary" d="M160 160l96 96h94L281.4 64H160v96zm-64 0V48c0-26.5 21.5-48 48-48H292.7c20.3 0 38.4 12.8 45.2 31.9l75.3 210.8c1.8 5.2 2.8 10.6 2.8 16.1v94.8c-20.3-20.7-48.7-33.6-80-33.6c-56.4 0-103.1 41.7-110.9 96H190.9c-7.8-54.3-54.4-96-110.9-96c-31.3 0-59.7 12.9-80 33.6V208c0-26.5 21.5-48 48-48H96z"/><path class="fa-secondary" d="M544 32c0-17.7-14.3-32-32-32s-32 14.3-32 32V416c0 17.7 14.3 32 32 32h96c17.7 0 32-14.3 32-32s-14.3-32-32-32H544V32zM160 432A80 80 0 1 0 0 432a80 80 0 1 0 160 0zm256 0a80 80 0 1 0 -160 0 80 80 0 1 0 160 0z"/></svg>