<svg xmlns="http://www.w3.org/2000/svg" viewBox="0 0 512 512"><!--! Font Awesome Pro 6.4.0 by @fontawesome - https://fontawesome.com License - https://fontawesome.com/license (Commercial License) Copyright 2023 Fonticons, Inc. --><defs><style>.fa-secondary{opacity:.4}</style></defs><path class="fa-primary" d="M52.5 440.6c-9.5 7.9-22.8 9.7-34.1 4.4S0 428.4 0 416V96C0 83.6 7.2 72.3 18.4 67s24.5-3.6 34.1 4.4L224 214.3V96c0-12.4 7.2-23.7 18.4-29s24.5-3.6 34.1 4.4L448 214.3v83.3L276.5 440.6c-9.5 7.9-22.8 9.7-34.1 4.4s-18.4-16.6-18.4-29V297.7L52.5 440.6z"/><path class="fa-secondary" d="M480 448c17.7 0 32-14.3 32-32V96c0-17.7-14.3-32-32-32s-32 14.3-32 32V416c0 17.7 14.3 32 32 32z"/></svg>