<svg xmlns="http://www.w3.org/2000/svg" viewBox="0 0 576 512"><!--! Font Awesome Pro 6.4.0 by @fontawesome - https://fontawesome.com License - https://fontawesome.com/license (Commercial License) Copyright 2023 Fonticons, Inc. --><defs><style>.fa-secondary{opacity:.4}</style></defs><path class="fa-primary" d="M96 96c-17.7 0-32 14.3-32 32v96c0 17.7 14.3 32 32 32H352c17.7 0 32-14.3 32-32V128c0-17.7-14.3-32-32-32H96zM528 296V224H480v48H448v48h56c13.3 0 24-10.7 24-24z"/><path class="fa-secondary" d="M64 32C28.7 32 0 60.7 0 96V416c0 35.3 28.7 64 64 64H384c35.3 0 64-28.7 64-64V96c0-35.3-28.7-64-64-64H64zM96 96H352c17.7 0 32 14.3 32 32v96c0 17.7-14.3 32-32 32H96c-17.7 0-32-14.3-32-32V128c0-17.7 14.3-32 32-32zm16 224c8.8 0 16 7.2 16 16v16h16c8.8 0 16 7.2 16 16s-7.2 16-16 16H128v16c0 8.8-7.2 16-16 16s-16-7.2-16-16V384H80c-8.8 0-16-7.2-16-16s7.2-16 16-16H96V336c0-8.8 7.2-16 16-16zm112 40a24 24 0 1 1 48 0 24 24 0 1 1 -48 0zm104-24a24 24 0 1 1 0 48 24 24 0 1 1 0-48zM504 144c-13.3 0-24 10.7-24 24v56h48 24c13.3 0 24-10.7 24-24V168c0-13.3-10.7-24-24-24H504z"/></svg>