<svg xmlns="http://www.w3.org/2000/svg" viewBox="0 0 576 512"><!-- Font Awesome Pro 6.0.0-alpha2 by @fontawesome - https://fontawesome.com License - https://fontawesome.com/license (Commercial License) --><defs><style>.fa-secondary{opacity:.4}</style></defs><path d="M288 32.001C129 32.001 0 161.001 0 320.001C0 372.751 14.25 422.251 39 464.751C44.625 474.376 55.375 480.001 66.5 480.001H509.5C520.625 480.001 531.375 474.376 537 464.751C561.75 422.251 576 372.751 576 320.001C576 161.001 447 32.001 288 32.001ZM96 384.001C78.375 384.001 64 369.626 64 352.001S78.375 320.001 96 320.001S128 334.376 128 352.001S113.625 384.001 96 384.001ZM144 224.001C126.375 224.001 112 209.626 112 192.001S126.375 160.001 144 160.001S176 174.376 176 192.001S161.625 224.001 144 224.001ZM343.125 416.001H232.875C227.375 406.501 224 395.751 224 384.001C224 357.126 240.5 334.251 264 324.751V128.001C264 114.751 274.75 104.001 288 104.001S312 114.751 312 128.001V324.751C335.5 334.251 352 357.126 352 384.001C352 395.751 348.625 406.501 343.125 416.001ZM400 192.001C400 174.376 414.375 160.001 432 160.001S464 174.376 464 192.001S449.625 224.001 432 224.001S400 209.626 400 192.001ZM480 384.001C462.375 384.001 448 369.626 448 352.001S462.375 320.001 480 320.001S512 334.376 512 352.001S497.625 384.001 480 384.001Z" class="fa-secondary"/><path d="M343.125 416.001H232.875C227.375 406.501 224 395.751 224 384.001C224 357.126 240.5 334.251 264 324.751V128.001C264 114.751 274.75 104.001 288 104.001S312 114.751 312 128.001V324.751C335.5 334.251 352 357.126 352 384.001C352 395.751 348.625 406.501 343.125 416.001Z" class="fa-primary"/></svg>