<svg xmlns="http://www.w3.org/2000/svg" viewBox="0 0 512 512"><!--! Font Awesome Pro 6.4.0 by @fontawesome - https://fontawesome.com License - https://fontawesome.com/license (Commercial License) Copyright 2023 Fonticons, Inc. --><defs><style>.fa-secondary{opacity:.4}</style></defs><path class="fa-primary" d="M338.7 140.9c6.1-11.8 20.6-16.3 32.4-10.2s16.3 20.6 10.2 32.4L304.7 310.4c9.6 11.2 15.3 25.7 15.3 41.6c0 35.3-28.7 64-64 64s-64-28.7-64-64s28.7-64 64-64c2.1 0 4.1 .1 6.1 .3l76.6-147.4z"/><path class="fa-secondary" d="M0 256a256 256 0 1 0 512 0A256 256 0 1 0 0 256zm192 96c0-35.3 28.7-64 64-64c2.1 0 4.1 .1 6.1 .3l76.6-147.4c6.1-11.8 20.6-16.3 32.4-10.2s16.3 20.6 10.2 32.4L304.7 310.4c9.6 11.2 15.3 25.7 15.3 41.6c0 35.3-28.7 64-64 64s-64-28.7-64-64z"/></svg>