<svg xmlns="http://www.w3.org/2000/svg" viewBox="0 0 512 512"><!--! Font Awesome Pro 6.4.0 by @fontawesome - https://fontawesome.com License - https://fontawesome.com/license (Commercial License) Copyright 2023 Fonticons, Inc. --><defs><style>.fa-secondary{opacity:.4}</style></defs><path class="fa-primary" d="M173.3 140.9c-6.1-11.8-20.6-16.3-32.4-10.2s-16.3 20.6-10.2 32.4l76.6 147.4C197.8 321.6 192 336.1 192 352c0 35.3 28.7 64 64 64s64-28.7 64-64s-28.7-64-64-64c-2.1 0-4.1 .1-6.1 .3L173.3 140.9z"/><path class="fa-secondary" d="M0 256a256 256 0 1 1 512 0A256 256 0 1 1 0 256zm320 96c0-35.3-28.7-64-64-64c-2.1 0-4.1 .1-6.1 .3L173.3 140.9c-6.1-11.8-20.6-16.3-32.4-10.2s-16.3 20.6-10.2 32.4l76.6 147.4C197.8 321.6 192 336.1 192 352c0 35.3 28.7 64 64 64s64-28.7 64-64z"/></svg>