<svg xmlns="http://www.w3.org/2000/svg" viewBox="0 0 640 512"><!--! Font Awesome Pro 6.4.0 by @fontawesome - https://fontawesome.com License - https://fontawesome.com/license (Commercial License) Copyright 2023 Fonticons, Inc. --><defs><style>.fa-secondary{opacity:.4}</style></defs><path class="fa-primary" d="M48 96C21.5 96 0 117.5 0 144V464c0 26.5 21.5 48 48 48H200.6c-5.4-9.4-8.6-20.3-8.6-32V256c0-29.9 20.5-55 48.2-62c1.8-31 17.1-58.2 40.1-76.1C271.7 104.7 256.9 96 240 96H48zm315.5 89.5L393.1 224H344c-13.3 0-24-10.7-24-24c0-13.1 10.8-24 24.2-24c7.6 0 14.7 3.5 19.3 9.5zM344 272h56 16v80H224v32H416V512h32V384H640V352H448V272h72c39.8 0 72-32.2 72-72c0-39.9-32.5-72-72.2-72c-22.4 0-43.6 10.4-57.3 28.2L432 195.8l-30.5-39.6c-13.7-17.8-35-28.2-57.3-28.2c-39.7 0-72.2 32.1-72.2 72c0 39.8 32.2 72 72 72zm175.8-96c13.4 0 24.2 10.9 24.2 24c0 13.3-10.7 24-24 24H470.9l29.6-38.5c4.6-5.9 11.7-9.5 19.3-9.5z"/><path class="fa-secondary" d="M200.6 32C205 19.5 198.5 5.8 186 1.4S159.8 3.5 155.4 16L144.7 46.2l-9.9-29.8C130.6 3.8 117-3 104.4 1.2S85 19 89.2 31.6l9.4 28.3L71.2 37.4C60.9 29 45.8 30.5 37.4 40.8S30.5 66.2 40.8 74.6L67 96H221l26.2-21.4c10.3-8.4 11.8-23.5 3.4-33.8s-23.5-11.8-33.8-3.4L191.3 58.3 200.6 32zM592 224h-4.1c-9.9 28-36.6 48-67.9 48H448v80H640V272c0-26.5-21.5-48-48-48zM448 384V512H592c26.5 0 48-21.5 48-48V384H448zm-32 0H224v80c0 26.5 21.5 48 48 48H416V384zm0-32V272H400 344c-31.3 0-58-20-67.9-48H272c-26.5 0-48 21.5-48 48v80H416z"/></svg>