<svg xmlns="http://www.w3.org/2000/svg" viewBox="0 0 576 512"><!--! Font Awesome Pro 6.4.0 by @fontawesome - https://fontawesome.com License - https://fontawesome.com/license (Commercial License) Copyright 2023 Fonticons, Inc. --><defs><style>.fa-secondary{opacity:.4}</style></defs><path class="fa-primary" d="M186.2 48H184c-22.1 0-40 17.9-40 40s17.9 40 40 40h73.3L222.5 68.8C214.9 55.9 201.1 48 186.2 48zm57.3 128H184c-48.6 0-88-39.4-88-88s39.4-88 88-88h2.2c31.9 0 61.5 16.9 77.7 44.4l24.1 41 24.1-41C328.3 16.9 357.9 0 389.8 0H392c48.6 0 88 39.4 88 88s-39.4 88-88 88H332.6l53.9 64.6c8.5 10.2 7.1 25.3-3.1 33.8s-25.3 7.1-33.8-3.1L288 197.5l-61.6 73.9c-8.5 10.2-23.6 11.6-33.8 3.1s-11.6-23.6-3.1-33.8L243.4 176zM392 128c22.1 0 40-17.9 40-40s-17.9-40-40-40h-2.2c-14.9 0-28.8 7.9-36.3 20.8L318.7 128H320h72zM576 416H0V320H576v96z"/><path class="fa-secondary" d="M470.4 128H512c35.3 0 64 28.7 64 64V320H0V192c0-35.3 28.7-64 64-64h41.6c14.6 28.5 44.2 48 78.4 48h59.4l-53.9 64.6c-8.5 10.2-7.1 25.3 3.1 33.8s25.3 7.1 33.8-3.1L288 197.5l61.6 73.9c8.5 10.2 23.6 11.6 33.8 3.1s11.6-23.6 3.1-33.8L332.6 176H392c34.2 0 63.8-19.5 78.4-48zM0 416H576v32c0 35.3-28.7 64-64 64H64c-35.3 0-64-28.7-64-64V416z"/></svg>