<svg xmlns="http://www.w3.org/2000/svg" viewBox="0 0 384 512"><!--! Font Awesome Pro 6.4.0 by @fontawesome - https://fontawesome.com License - https://fontawesome.com/license (Commercial License) Copyright 2023 Fonticons, Inc. --><defs><style>.fa-secondary{opacity:.4}</style></defs><path class="fa-primary" d="M301 297.5L288 304c-20.1 10.1-43.9 10.1-64 0s-43.9-10.1-64 0s-43.9 10.1-64 0l-13-6.5 9.7 135.6c.6 8.4 7.6 14.9 16 14.9H275.3c8.4 0 15.4-6.5 16-14.9L301 297.5zM256 196c0-24-33.7-70.1-52.2-93.5c-6.1-7.7-17.5-7.7-23.6 0C161.7 125.9 128 172 128 196c0 33.1 28.7 60 64 60s64-26.9 64-60z"/><path class="fa-secondary" d="M8.6 10.2C14.6 3.7 23.1 0 32 0H352c8.9 0 17.4 3.7 23.4 10.2s9.1 15.2 8.5 24.1L355.1 437.7c-3 41.9-37.8 74.3-79.8 74.3H108.7c-42 0-76.8-32.4-79.8-74.3L.1 34.3c-.6-8.9 2.4-17.6 8.5-24.1zM66.4 64L92.7 433.1c.6 8.4 7.6 14.9 16 14.9H275.3c8.4 0 15.4-6.5 16-14.9L317.6 64H66.4z"/></svg>