<svg xmlns="http://www.w3.org/2000/svg" viewBox="0 0 576 512"><!--! Font Awesome Pro 6.4.0 by @fontawesome - https://fontawesome.com License - https://fontawesome.com/license (Commercial License) Copyright 2023 Fonticons, Inc. --><defs><style>.fa-secondary{opacity:.4}</style></defs><path class="fa-primary" d="M118.6 80c-11.5 0-21.4 7.9-24 19.1L57.1 259.8c25.6-7.8 52.6-11.8 78.6-11.8c40.1 0 82.2 9.6 118.5 27.3c5.8 2.9 10.4 7.3 13.5 12.7h40.6c3.1-5.4 7.7-9.8 13.5-12.7c36.2-17.8 78.4-27.3 118.5-27.3c26 0 53 4.1 78.6 11.8L481.4 99.1c-2.6-11.2-12.6-19.1-24-19.1c-3.1 0-6.2 .6-9.2 1.8L416.9 94.3c-12.3 4.9-26.3-1.1-31.2-13.4s1.1-26.3 13.4-31.2l31.3-12.5c8.6-3.4 17.7-5.2 27-5.2c33.8 0 63.1 23.3 70.8 56.2l43.9 188c1.7 7.3 2.9 14.7 3.5 22.2c.3 1.8 .5 3.7 .5 5.6v5.2c0 .5 0 1 0 1.5V352c0 .2 0 .4 0 .6V368c0 61.9-50.1 112-112 112H419.7c-59.4 0-108.5-46.4-111.8-105.8L306.6 352H269.4l-1.2 22.2C264.9 433.6 215.8 480 156.3 480H112C50.1 480 0 429.9 0 368V352 310.7 304c0-1.9 .2-3.8 .5-5.7c.6-7.4 1.8-14.8 3.5-22.1l43.9-188C55.5 55.3 84.8 32 118.6 32c9.2 0 18.4 1.8 27 5.2l31.3 12.5c12.3 4.9 18.3 18.9 13.4 31.2s-18.9 18.3-31.2 13.4L127.8 81.8c-2.9-1.2-6-1.8-9.2-1.8zM48 352v16c0 35.3 28.7 64 64 64h44.3c34 0 62-26.5 63.9-60.5l3.2-57.5c-27.3-11.7-58.3-18-87.7-18c-29.5 0-60.5 6.4-87.7 18.2V352zm392.3-56c-29.4 0-60.4 6.3-87.7 18l3.2 57.5c1.9 33.9 29.9 60.5 63.9 60.5H464c35.3 0 64-28.7 64-64V314.2c-27.2-11.8-58.2-18.2-87.7-18.2z"/><path class="fa-secondary" d="M223.4 314l-3.2 57.5c-1.9 33.9-29.9 60.5-63.9 60.5H112c-35.3 0-64-28.7-64-64V314.2c27.2-11.8 58.2-18.2 87.7-18.2c29.4 0 60.4 6.3 87.7 18zm129.2 0c27.3-11.7 58.3-18 87.7-18c29.5 0 60.5 6.4 87.7 18.2V368c0 35.3-28.7 64-64 64H419.7c-34 0-62-26.5-63.9-60.5L352.6 314z"/></svg>