<svg xmlns="http://www.w3.org/2000/svg" viewBox="0 0 384 512"><!--! Font Awesome Pro 6.4.0 by @fontawesome - https://fontawesome.com License - https://fontawesome.com/license (Commercial License) Copyright 2023 Fonticons, Inc. --><defs><style>.fa-secondary{opacity:.4}</style></defs><path class="fa-primary" d="M311 156.5l-24.2 12.1c-19.4 9.7-42.2 9.7-61.6 0c-20.9-10.4-45.5-10.4-66.4 0c-19.4 9.7-42.2 9.7-61.6 0L73 156.5 92.7 433.1c.6 8.4 7.6 14.9 16 14.9H275.3c8.4 0 15.4-6.5 16-14.9L311 156.5z"/><path class="fa-secondary" d="M8.6 10.2C14.6 3.7 23.1 0 32 0H352c8.9 0 17.4 3.7 23.4 10.2s9.1 15.2 8.5 24.1L355.1 437.7c-3 41.9-37.8 74.3-79.8 74.3H108.7c-42 0-76.8-32.4-79.8-74.3L.1 34.3c-.6-8.9 2.4-17.6 8.5-24.1zM66.4 64L92.7 433.1c.6 8.4 7.6 14.9 16 14.9H275.3c8.4 0 15.4-6.5 16-14.9L317.6 64H66.4z"/></svg>