<svg xmlns="http://www.w3.org/2000/svg" viewBox="0 0 448 512"><!--! Font Awesome Pro 6.4.0 by @fontawesome - https://fontawesome.com License - https://fontawesome.com/license (Commercial License) Copyright 2023 Fonticons, Inc. --><defs><style>.fa-secondary{opacity:.4}</style></defs><path class="fa-primary" d="M235.3 164.7c-6.2-6.2-16.4-6.2-22.6 0l-64 64c-4.6 4.6-5.9 11.5-3.5 17.4s8.3 9.9 14.8 9.9h25.4l-68.7 68.7c-4.6 4.6-5.9 11.5-3.5 17.4s8.3 9.9 14.8 9.9h64v48H85.4L21.7 473.4c-3.7 4.2-5.7 9.7-5.7 15.3C16 501.6 26.4 512 39.3 512H408.7c12.9 0 23.3-10.4 23.3-23.3c0-5.6-2-11-5.7-15.3L362.6 400H256V352h64c6.5 0 12.3-3.9 14.8-9.9s1.1-12.9-3.5-17.4L262.6 256H288c6.5 0 12.3-3.9 14.8-9.9s1.1-12.9-3.5-17.4l-64-64z"/><path class="fa-secondary" d="M448 224c0 71.4-33.4 135-85.4 176H256V352h64c6.5 0 12.3-3.9 14.8-9.9s1.1-12.9-3.5-17.4L262.6 256H288c6.5 0 12.3-3.9 14.8-9.9s1.1-12.9-3.5-17.4l-64-64c-6.2-6.2-16.4-6.2-22.6 0l-64 64c-4.6 4.6-5.9 11.5-3.5 17.4s8.3 9.9 14.8 9.9h25.4l-68.7 68.7c-4.6 4.6-5.9 11.5-3.5 17.4s8.3 9.9 14.8 9.9h64v48H85.4C33.4 359 0 295.4 0 224C0 100.3 100.3 0 224 0S448 100.3 448 224zM256 80a16 16 0 1 0 -32 0 16 16 0 1 0 32 0zm80 112a16 16 0 1 0 0-32 16 16 0 1 0 0 32zM96 208a16 16 0 1 0 -32 0 16 16 0 1 0 32 0z"/></svg>