<svg xmlns="http://www.w3.org/2000/svg" viewBox="0 0 640 512"><!--! Font Awesome Pro 6.4.0 by @fontawesome - https://fontawesome.com License - https://fontawesome.com/license (Commercial License) Copyright 2023 Fonticons, Inc. --><defs><style>.fa-secondary{opacity:.4}</style></defs><path class="fa-primary" d="M96 96c-17.7 0-32 14.3-32 32V448c0 17.7-14.3 32-32 32s-32-14.3-32-32V128C0 75 43 32 96 32H544c53 0 96 43 96 96V448c0 17.7-14.3 32-32 32s-32-14.3-32-32V128c0-17.7-14.3-32-32-32H96z"/><path class="fa-secondary" d="M160 144c0-8.8 7.2-16 16-16s16 7.2 16 16v48h64V144c0-8.8 7.2-16 16-16s16 7.2 16 16v48h64V144c0-8.8 7.2-16 16-16s16 7.2 16 16v48h64V144c0-8.8 7.2-16 16-16s16 7.2 16 16v48h48c8.8 0 16 7.2 16 16s-7.2 16-16 16H480v64h48c8.8 0 16 7.2 16 16s-7.2 16-16 16H480v64h48c8.8 0 16 7.2 16 16s-7.2 16-16 16H480v48c0 8.8-7.2 16-16 16s-16-7.2-16-16V416H384v48c0 8.8-7.2 16-16 16s-16-7.2-16-16V416H288v48c0 8.8-7.2 16-16 16s-16-7.2-16-16V416H192v48c0 8.8-7.2 16-16 16s-16-7.2-16-16V416H112c-8.8 0-16-7.2-16-16s7.2-16 16-16h48V320H112c-8.8 0-16-7.2-16-16s7.2-16 16-16h48V224H112c-8.8 0-16-7.2-16-16s7.2-16 16-16h48V144zm32 240h64V320H192v64zm96 0h64V320H288v64zm96 0h64V320H384v64zm64-160H384v64h64V224zm-96 0H288v64h64V224zm-96 0H192v64h64V224z"/></svg>