<svg xmlns="http://www.w3.org/2000/svg" viewBox="0 0 384 512"><!--! Font Awesome Pro 6.4.0 by @fontawesome - https://fontawesome.com License - https://fontawesome.com/license (Commercial License) Copyright 2023 Fonticons, Inc. --><defs><style>.fa-secondary{opacity:.4}</style></defs><path class="fa-primary" d="M128 384c-17.7 0-32 14.3-32 32s14.3 32 32 32h16c8.8 0 16 7.2 16 16v16c0 17.7 14.3 32 32 32s32-14.3 32-32V464c0-8.8 7.2-16 16-16h16c17.7 0 32-14.3 32-32s-14.3-32-32-32H192 128z"/><path class="fa-secondary" d="M85.8 352H298.2c51.7-34.4 85.8-93.2 85.8-160C384 86 298 0 192 0S0 86 0 192c0 66.8 34.1 125.6 85.8 160zm122.8-61.9c18.5 0 33.5-15 33.5-33.5c0-4.9 5.1-9.1 8.4-5.4c5.2 5.9 8.4 13.7 8.4 22.1c0 18.5-15 33.5-33.5 33.5c-8.5 0-16.2-3.2-22.1-8.4c-3.7-3.3 .5-8.4 5.4-8.4zm14.7-116.3c0-4.9 5.1-9.1 8.4-5.4c5.2 5.9 8.4 13.7 8.4 22.1c0 18.5-15 33.5-33.5 33.5c-8.5 0-16.2-3.2-22.1-8.4c-3.7-3.3 .5-8.4 5.4-8.4c18.5 0 33.5-15 33.5-33.5zm46.5 49.5c18.5 0 33.5-15 33.5-33.5c0-4.9 5.1-9.1 8.4-5.4c5.2 5.9 8.4 13.7 8.4 22.1c0 18.5-15 33.5-33.5 33.5c-8.5 0-16.2-3.2-22.1-8.4c-3.7-3.3 .5-8.4 5.4-8.4z"/></svg>