<svg xmlns="http://www.w3.org/2000/svg" viewBox="0 0 512 512"><!--! Font Awesome Pro 6.4.0 by @fontawesome - https://fontawesome.com License - https://fontawesome.com/license (Commercial License) Copyright 2023 Fonticons, Inc. --><defs><style>.fa-secondary{opacity:.4}</style></defs><path class="fa-primary" d="M139.4 3.6c7.1-4.4 15.9-4.8 23.4-1.1l208 104c8.1 4.1 13.3 12.4 13.3 21.5s-5.1 17.4-13.3 21.5L176 246.8V416c0 13.3-10.7 24-24 24s-24-10.7-24-24V240c0-1.4 .1-2.7 .3-4c-.2-1.3-.3-2.6-.3-4V24c0-8.3 4.3-16 11.4-20.4z"/><path class="fa-secondary" d="M128 332.8C51.5 349.4 0 380.5 0 416c0 53 114.6 96 256 96s256-43 256-96s-114.6-96-256-96c-27.9 0-54.8 1.7-80 4.8v70.1c11.7-6.6 28.9-10.8 48-10.8c35.3 0 64 14.3 64 32s-28.7 32-64 32c-23.2 0-43.5-6.2-54.7-15.4c-4.4 4.5-10.5 7.4-17.3 7.4c-13.3 0-24-10.7-24-24V332.8z"/></svg>