<svg xmlns="http://www.w3.org/2000/svg" viewBox="0 0 448 512"><!--! Font Awesome Pro 6.4.0 by @fontawesome - https://fontawesome.com License - https://fontawesome.com/license (Commercial License) Copyright 2023 Fonticons, Inc. --><defs><style>.fa-secondary{opacity:.4}</style></defs><path class="fa-primary" d="M40 32C17.9 32 0 49.9 0 72V96C0 219.7 100.3 320 224 320s224-100.3 224-224V72c0-22.1-17.9-40-40-40H40zM72 416a24 24 0 1 1 48 0 24 24 0 1 1 -48 0zm88 0A64 64 0 1 0 32 416a64 64 0 1 0 128 0z"/><path class="fa-secondary" d="M106.1 352.8L129.2 299c14.4 6.7 29.7 12 45.6 15.6L151.8 368H296.2l-22.9-53.4c15.9-3.6 31.1-8.8 45.6-15.6l63.2 147.5c5.2 12.2-.4 26.3-12.6 31.5s-26.3-.4-31.5-12.6L316.7 416H160s0 0 0 0c0-31.9-23.3-58.4-53.9-63.2z"/></svg>