<svg xmlns="http://www.w3.org/2000/svg" viewBox="0 0 448 512"><!--! Font Awesome Pro 6.4.0 by @fontawesome - https://fontawesome.com License - https://fontawesome.com/license (Commercial License) Copyright 2023 Fonticons, Inc. --><defs><style>.fa-secondary{opacity:.4}</style></defs><path class="fa-primary" d="M384 128a48 48 0 1 1 0 96 48 48 0 1 1 0-96zm-160 0a48 48 0 1 1 0 96 48 48 0 1 1 0-96zM112 176a48 48 0 1 1 -96 0 48 48 0 1 1 96 0z"/><path class="fa-secondary" d="M384 288a48 48 0 1 1 0 96 48 48 0 1 1 0-96zm-160 0a48 48 0 1 1 0 96 48 48 0 1 1 0-96zM112 336a48 48 0 1 1 -96 0 48 48 0 1 1 96 0z"/></svg>