<svg xmlns="http://www.w3.org/2000/svg" viewBox="0 0 384 512"><!--! Font Awesome Pro 6.4.0 by @fontawesome - https://fontawesome.com License - https://fontawesome.com/license (Commercial License) Copyright 2023 Fonticons, Inc. --><defs><style>.fa-secondary{opacity:.4}</style></defs><path class="fa-primary" d="M192 128c-70.7 0-128 57.3-128 128s57.3 128 128 128c59.6 0 109.8-40.8 124-96H224V224H352c17.7 0 32 14.3 32 32c0 106-86 192-192 192S0 362 0 256S86 64 192 64c52.3 0 99.8 21 134.4 54.9c12.6 12.4 12.8 32.6 .5 45.3s-32.6 12.8-45.3 .4C258.5 141.9 226.9 128 192 128z"/><path class="fa-secondary" d="M192 0c-17.7 0-32 14.3-32 32V66.7c10.4-1.7 21.1-2.7 32-2.7s21.6 .9 32 2.7V32c0-17.7-14.3-32-32-32zm32 132c-10.2-2.6-20.9-4-32-4s-21.8 1.4-32 4V380c10.2 2.6 21 4 32 4s21.8-1.4 32-4V288 224 132zm0 313.3c-10.4 1.7-21.1 2.7-32 2.7s-21.6-.9-32-2.7V480c0 17.7 14.3 32 32 32s32-14.3 32-32V445.3z"/></svg>