<svg xmlns="http://www.w3.org/2000/svg" viewBox="0 0 576 512"><!--! Font Awesome Pro 6.4.0 by @fontawesome - https://fontawesome.com License - https://fontawesome.com/license (Commercial License) Copyright 2023 Fonticons, Inc. --><defs><style>.fa-secondary{opacity:.4}</style></defs><path class="fa-primary" d="M104 32c13.3 0 24 10.7 24 24v8H448c41.8 0 77.4 26.7 90.5 64H552c13.3 0 24 10.7 24 24v16c0 13.3-10.7 24-24 24H538.5c-13.2 37.3-48.7 64-90.5 64H249L199 455.8C195.5 470 182.7 480 168 480H64c-9.9 0-19.2-4.5-25.2-12.3s-8.2-17.9-5.8-27.5L79.4 254.6C34.3 246.7 0 207.3 0 160c0-47.6 34.6-87.1 80-94.7V56c0-13.3 10.7-24 24-24zm-8 96c-17.7 0-32 14.3-32 32s14.3 32 32 32H448c17.7 0 32-14.3 32-32s-14.3-32-32-32H96z"/><path class="fa-secondary" d="M96 192c-17.7 0-32-14.3-32-32H480c0 17.7-14.3 32-32 32H96zM272 376H219l12-48h41V312c0-13.3 10.7-24 24-24s24 10.7 24 24v40 40c0 13.3-10.7 24-24 24s-24-10.7-24-24V376z"/></svg>