<svg xmlns="http://www.w3.org/2000/svg" viewBox="0 0 576 512"><!--! Font Awesome Pro 6.4.0 by @fontawesome - https://fontawesome.com License - https://fontawesome.com/license (Commercial License) Copyright 2023 Fonticons, Inc. --><defs><style>.fa-secondary{opacity:.4}</style></defs><path class="fa-primary" d="M496.8 68.8C506.3 74.6 512 84.9 512 96V384h32c17.7 0 32 14.3 32 32s-14.3 32-32 32H480 416c-17.7 0-32-14.3-32-32s14.3-32 32-32h32V147.8l-17.7 8.8c-15.8 7.9-35 1.5-42.9-14.3s-1.5-35 14.3-42.9l64-32c9.9-5 21.7-4.4 31.1 1.4z"/><path class="fa-secondary" d="M32 64c17.7 0 32 14.3 32 32V224H256V96c0-17.7 14.3-32 32-32s32 14.3 32 32V256 416c0 17.7-14.3 32-32 32s-32-14.3-32-32V288H64V416c0 17.7-14.3 32-32 32s-32-14.3-32-32V256 96C0 78.3 14.3 64 32 64z"/></svg>