<svg xmlns="http://www.w3.org/2000/svg" viewBox="0 0 640 512"><!--! Font Awesome Pro 6.4.0 by @fontawesome - https://fontawesome.com License - https://fontawesome.com/license (Commercial License) Copyright 2023 Fonticons, Inc. --><defs><style>.fa-secondary{opacity:.4}</style></defs><path class="fa-primary" d="M491.5 128c-15.3 0-30.1 5.5-41.7 15.4l-29 24.9c-13.4 11.5-33.6 9.9-45.1-3.5s-9.9-33.6 3.5-45.1l29-24.9C431.4 74.9 461 64 491.5 64H496c70.7 0 128 57.3 128 128v5.8c0 35.9-15.1 70.1-41.5 94.4L482.3 384H608c17.7 0 32 14.3 32 32s-14.3 32-32 32H400c-13.2 0-25-8.1-29.8-20.4s-1.5-26.3 8.2-35.2L539.2 244.9c13.2-12.1 20.8-29.2 20.8-47.2V192c0-35.3-28.7-64-64-64h-4.5z"/><path class="fa-secondary" d="M32 64c17.7 0 32 14.3 32 32V224H256V96c0-17.7 14.3-32 32-32s32 14.3 32 32V256 416c0 17.7-14.3 32-32 32s-32-14.3-32-32V288H64V416c0 17.7-14.3 32-32 32s-32-14.3-32-32V256 96C0 78.3 14.3 64 32 64z"/></svg>