<svg xmlns="http://www.w3.org/2000/svg" viewBox="0 0 640 512"><!--! Font Awesome Pro 6.4.0 by @fontawesome - https://fontawesome.com License - https://fontawesome.com/license (Commercial License) Copyright 2023 Fonticons, Inc. --><defs><style>.fa-secondary{opacity:.4}</style></defs><path class="fa-primary" d="M400.7 89.4C403.8 74.6 416.9 64 432 64H576c17.7 0 32 14.3 32 32s-14.3 32-32 32H458l-18.5 88H524c64.1 0 116 51.9 116 116s-51.9 116-116 116H456.4c-37.9 0-71.5-24.2-83.5-60.2l-3.2-9.7c-5.6-16.8 3.5-34.9 20.2-40.5s34.9 3.5 40.5 20.2l3.2 9.7c3.3 9.8 12.4 16.4 22.8 16.4H524c28.7 0 52-23.3 52-52s-23.3-52-52-52H400c-9.6 0-18.8-4.3-24.8-11.8s-8.5-17.3-6.5-26.8l32-152z"/><path class="fa-secondary" d="M32 64c17.7 0 32 14.3 32 32V224H256V96c0-17.7 14.3-32 32-32s32 14.3 32 32V256 416c0 17.7-14.3 32-32 32s-32-14.3-32-32V288H64V416c0 17.7-14.3 32-32 32s-32-14.3-32-32V256 96C0 78.3 14.3 64 32 64z"/></svg>