<svg xmlns="http://www.w3.org/2000/svg" viewBox="0 0 640 512"><!--! Font Awesome Pro 6.4.0 by @fontawesome - https://fontawesome.com License - https://fontawesome.com/license (Commercial License) Copyright 2023 Fonticons, Inc. --><defs><style>.fa-secondary{opacity:.4}</style></defs><path class="fa-primary" d="M537 116c11-13.8 8.8-33.9-5-45s-33.9-8.8-45 5L389 198.5c-24 29.9-37 67.1-37 105.5c0 79.5 64.5 144 144 144s144-64.5 144-144c0-77.6-61.4-140.9-138.3-143.9L537 116zm39 188a80 80 0 1 1 -160 0 80 80 0 1 1 160 0z"/><path class="fa-secondary" d="M32 64c17.7 0 32 14.3 32 32V224H256V96c0-17.7 14.3-32 32-32s32 14.3 32 32V256 416c0 17.7-14.3 32-32 32s-32-14.3-32-32V288H64V416c0 17.7-14.3 32-32 32s-32-14.3-32-32V256 96C0 78.3 14.3 64 32 64z"/></svg>