<svg xmlns="http://www.w3.org/2000/svg" viewBox="0 0 512 512"><!--! Font Awesome Pro 6.4.0 by @fontawesome - https://fontawesome.com License - https://fontawesome.com/license (Commercial License) Copyright 2023 Fonticons, Inc. --><defs><style>.fa-secondary{opacity:.4}</style></defs><path class="fa-primary" d="M224 352a32 32 0 1 1 64 0 32 32 0 1 1 -64 0z"/><path class="fa-secondary" d="M80 288H34.6C15.5 288 0 303.5 0 322.6c0 8.6 3.2 16.9 9 23.3L95.4 441c41.1 45.2 99.4 71 160.6 71s119.4-25.8 160.6-71L503 345.9c5.8-6.4 9-14.7 9-23.3c0-19.1-15.5-34.6-34.6-34.6H432c-8.8 0-16-7.2-16-16V72c0-22.1-17.9-40-40-40s-40 17.9-40 40V204c0 11-9 20-20 20s-20-9-20-20V40c0-22.1-17.9-40-40-40s-40 17.9-40 40V204c0 11-9 20-20 20s-20-9-20-20V72c0-22.1-17.9-40-40-40s-40 17.9-40 40V272c0 8.8-7.2 16-16 16zm85.4 50.2C179.2 323.8 217.6 288 256 288s76.8 35.8 90.6 50.2c3.6 3.7 5.4 8.7 5.4 13.8s-1.8 10.1-5.4 13.8C332.8 380.2 294.4 416 256 416s-76.8-35.8-90.6-50.2c-3.6-3.7-5.4-8.7-5.4-13.8s1.8-10.1 5.4-13.8z"/></svg>