<svg xmlns="http://www.w3.org/2000/svg" viewBox="0 0 640 512"><!--! Font Awesome Pro 6.4.0 by @fontawesome - https://fontawesome.com License - https://fontawesome.com/license (Commercial License) Copyright 2023 Fonticons, Inc. --><defs><style>.fa-secondary{opacity:.4}</style></defs><path class="fa-primary" d="M256.6 0C214.3 0 180 34.3 180 76.6c0 20.3 8.1 39.8 22.4 54.1L305.9 234.1c7.8 7.8 20.5 7.8 28.3 0L437.6 130.7C451.9 116.4 460 96.9 460 76.6C460 34.3 425.7 0 383.4 0c-20.3 0-39.8 8.1-54.1 22.4L320 31.7l-9.3-9.3C296.4 8.1 276.9 0 256.6 0z"/><path class="fa-secondary" d="M80 104c0-22.1-17.9-40-40-40S0 81.9 0 104v56 64V325.5c0 25.5 10.1 49.9 28.1 67.9L128 493.3c12 12 28.3 18.7 45.3 18.7H240c26.5 0 48-21.5 48-48V385.1c0-29.7-11.8-58.2-32.8-79.2l-25.3-25.3 0 0-15.2-15.2-32-32c-12.5-12.5-32.8-12.5-45.3 0s-12.5 32.8 0 45.3l32 32 15.2 15.2c11 11 9.2 29.2-3.7 37.8c-9.7 6.5-22.7 5.2-31-3.1L98.7 309.5c-12-12-18.7-28.3-18.7-45.3V224 144 104zm480 0v40 80 40.2c0 17-6.7 33.3-18.7 45.3l-51.1 51.1c-8.3 8.3-21.3 9.6-31 3.1c-12.9-8.6-14.7-26.9-3.7-37.8l15.2-15.2 32-32c12.5-12.5 12.5-32.8 0-45.3s-32.8-12.5-45.3 0l-32 32-15.2 15.2 0 0-25.3 25.3c-21 21-32.8 49.5-32.8 79.2V464c0 26.5 21.5 48 48 48h66.7c17 0 33.3-6.7 45.3-18.7l99.9-99.9c18-18 28.1-42.4 28.1-67.9V224 160 104c0-22.1-17.9-40-40-40s-40 17.9-40 40z"/></svg>