<svg xmlns="http://www.w3.org/2000/svg" viewBox="0 0 576 512"><!--! Font Awesome Pro 6.4.0 by @fontawesome - https://fontawesome.com License - https://fontawesome.com/license (Commercial License) Copyright 2023 Fonticons, Inc. --><defs><style>.fa-secondary{opacity:.4}</style></defs><path class="fa-primary" d="M240 320c-8.8 0-16 7.2-16 16s7.2 16 16 16h8c39.8 0 72 32.2 72 72v8c0 8.8 7.2 16 16 16s16-7.2 16-16v-8c0-27.9-11-53.3-29-72h77c8.8 0 16-7.2 16-16s-7.2-16-16-16H248h-8z"/><path class="fa-secondary" d="M207.7 1.1c17.1-4.6 34.6 5.6 39.2 22.6l57 212.8C307 248 317.4 256 329.3 256c12.4 0 23.2-8.7 25.8-20.9L392.7 57.4c3.7-17.3 20.6-28.3 37.9-24.7s28.3 20.6 24.7 37.9l-36 170.3c-1.6 7.8 4.3 15.1 12.2 15.1c5.5 0 10.4-3.6 12-8.9l37.9-128.1c5-16.9 22.8-26.6 39.8-21.6s26.6 22.8 21.6 39.8L461.5 412c-16.7 56.6-67 96.2-125.3 99.7c-.1 0-.1 .1-.1 .1s-.1 .1-.1 .1h-8.2H316.8c-59.6 0-116.9-22.9-160-64L44.4 341c-16-15.2-16.6-40.6-1.4-56.6s40.6-16.6 56.6-1.4L155 335.8c6 5.7 15.6-.3 13.2-8.1L105.4 121.3c-5.1-16.9 4.4-34.8 21.3-39.9s34.8 4.4 39.9 21.3l43.5 143.1c1.9 6.1 7.5 10.3 13.9 10.3c9.5 0 16.4-9 14-18.2L185.1 40.3c-4.6-17.1 5.6-34.6 22.6-39.2zM224 336c0 8.8 7.2 16 16 16h8c39.8 0 72 32.2 72 72v8c0 8.8 7.2 16 16 16s16-7.2 16-16v-8c0-27.9-11-53.3-29-72h77c8.8 0 16-7.2 16-16s-7.2-16-16-16H248h-8c-8.8 0-16 7.2-16 16z"/></svg>