<svg xmlns="http://www.w3.org/2000/svg" viewBox="0 0 512 512"><!--! Font Awesome Pro 6.4.0 by @fontawesome - https://fontawesome.com License - https://fontawesome.com/license (Commercial License) Copyright 2023 Fonticons, Inc. --><defs><style>.fa-secondary{opacity:.4}</style></defs><path class="fa-primary" d="M208 320c-8.8 0-16 7.2-16 16s7.2 16 16 16h8c39.8 0 72 32.2 72 72v8c0 8.8 7.2 16 16 16s16-7.2 16-16v-8c0-27.9-11-53.3-29-72h77c8.8 0 16-7.2 16-16s-7.2-16-16-16H216h-8z"/><path class="fa-secondary" d="M256 0c17.7 0 32 14.3 32 32V240c0 8.8 7.2 16 16 16s16-7.2 16-16V64c0-17.7 14.3-32 32-32s32 14.3 32 32V240c0 8.8 7.2 16 16 16s16-7.2 16-16V128c0-17.7 14.3-32 32-32s32 14.3 32 32V336c0 97.2-78.8 176-176 176H284.8c-59.6 0-116.9-22.9-160-64L12.4 341c-16-15.2-16.6-40.6-1.4-56.6s40.6-16.6 56.6-1.4l60.5 57.6c0-1.5-.1-3.1-.1-4.6V64c0-17.7 14.3-32 32-32s32 14.3 32 32V240c0 8.8 7.2 16 16 16s16-7.2 16-16V32c0-17.7 14.3-32 32-32zM192 336c0 8.8 7.2 16 16 16h8c39.8 0 72 32.2 72 72v8c0 8.8 7.2 16 16 16s16-7.2 16-16v-8c0-27.9-11-53.3-29-72h77c8.8 0 16-7.2 16-16s-7.2-16-16-16H216h-8c-8.8 0-16 7.2-16 16z"/></svg>