<svg xmlns="http://www.w3.org/2000/svg" viewBox="0 0 576 512"><!--! Font Awesome Pro 6.4.0 by @fontawesome - https://fontawesome.com License - https://fontawesome.com/license (Commercial License) Copyright 2023 Fonticons, Inc. --><defs><style>.fa-secondary{opacity:.4}</style></defs><path class="fa-primary" d="M96 14.5C96 6.5 102.5 0 110.5 0H160c88.4 0 160 71.6 160 160v96c0 17.7-14.3 32-32 32s-32-14.3-32-32V160H241.5C161.1 160 96 94.9 96 14.5zm384 0C480 89 424.1 150.3 352 159c-.2-44.9-15.9-86.2-42-118.8C338.2 15.2 375.3 0 416 0h49.5c8 0 14.5 6.5 14.5 14.5z"/><path class="fa-secondary" d="M559.7 392.2c17.8-13.1 21.6-38.1 8.5-55.9s-38.1-21.6-55.9-8.5L392.6 416H272c-8.8 0-16-7.2-16-16s7.2-16 16-16h16 64c17.7 0 32-14.3 32-32s-14.3-32-32-32H288 272 193.7c-29.1 0-57.3 9.9-80 28L68.8 384H32c-17.7 0-32 14.3-32 32v64c0 17.7 14.3 32 32 32H192 352.5c29 0 57.3-9.3 80.7-26.5l126.6-93.3zm-366.1-8.3a.5 .5 0 1 1 -.9 .2 .5 .5 0 1 1 .9-.2z"/></svg>