<svg xmlns="http://www.w3.org/2000/svg" viewBox="0 0 384 512"><!--! Font Awesome Pro 6.4.0 by @fontawesome - https://fontawesome.com License - https://fontawesome.com/license (Commercial License) Copyright 2023 Fonticons, Inc. --><defs><style>.fa-secondary{opacity:.4}</style></defs><path class="fa-primary" d="M256 160c-17.7 0-32 14.3-32 32v64c0 17.7 14.3 32 32 32s32-14.3 32-32V192c0-17.7-14.3-32-32-32zm96 32c-17.7 0-32 14.3-32 32v64c0 17.7 14.3 32 32 32s32-14.3 32-32V224c0-17.7-14.3-32-32-32z"/><path class="fa-secondary" d="M110.3 55.6L93 18.5C85.5 2.5 66.5-4.5 50.5 3S27.5 29.5 35 45.5l40 85.8 35.3-75.7zM150.6 272l0 0H115.3l0 0H80l0 0H64c-35.3 0-64 28.7-64 64v27c0 33.9 13.5 66.5 37.5 90.5l11.6 11.6c30 30 70.7 46.9 113.1 46.9H224c88.4 0 160-71.6 160-160v-8.6c-9.4 5.4-20.3 8.6-32 8.6c-27.9 0-51.7-17.9-60.4-42.8C281.4 316 269.2 320 256 320c-11.7 0-22.6-3.1-32-8.6c0 .2 0 .4 0 .6c0 39.8-32.2 72-72 72H96c-8.8 0-16-7.2-16-16s7.2-16 16-16h56c22.1 0 40-17.9 40-40s-17.9-40-40-40h-1.4zM192 230.6L181 207l-16 34.2c9.8 1.8 19 5.6 27 11V230.6zM59.6 240h70.6L221 45.5c7.5-16 .5-35.1-15.5-42.5s-35.1-.5-42.5 15.5L59.6 240z"/></svg>