<svg xmlns="http://www.w3.org/2000/svg" viewBox="0 0 448 512"><!-- Font Awesome Pro 6.0.0-alpha2 by @fontawesome - https://fontawesome.com License - https://fontawesome.com/license (Commercial License) --><defs><style>.fa-secondary{opacity:.4}</style></defs><path d="M384.008 64C366.321 64 352.008 78.328 352.008 96V288C352.008 323.344 323.352 352 288.008 352C268.783 352 251.74 343.346 240.008 329.926C236.717 333.689 232.924 336.959 228.865 339.887C221.815 364.203 202.446 384.174 176.008 390.203L114.867 404.15L96.508 375.516L168.914 359C187.454 354.762 200.017 338.278 200.017 320.033C200.017 299.62 183.759 280.002 160.048 280.002C157.103 280.002 154.106 280.326 151.102 281L31.102 308.375C1.885 315.054 0 343.069 0 347.388C0 352.97 1.167 358.554 3.508 363.766L25.602 412.875C52.664 473.094 112.789 512 178.821 512H240.008C337.039 512 416.008 433.047 416.008 336V96C416.008 78.328 401.696 64 384.008 64ZM128.008 32C128.008 14.328 113.696 0 96.008 0S64.008 14.328 64.008 32V268.047L128.008 253.447V32Z" class="fa-secondary"/><path d="M288 192C270.312 192 256 206.328 256 224V288C256 305.672 270.312 320 288 320S320 305.672 320 288V224C320 206.328 305.688 192 288 192ZM192 160C174.312 160 160 174.328 160 192V248.141C186.986 248.166 211.787 263.471 224 287.516V192C224 174.328 209.688 160 192 160Z" class="fa-primary"/></svg>