<svg xmlns="http://www.w3.org/2000/svg" viewBox="0 0 640 512"><!--! Font Awesome Pro 6.4.0 by @fontawesome - https://fontawesome.com License - https://fontawesome.com/license (Commercial License) Copyright 2023 Fonticons, Inc. --><defs><style>.fa-secondary{opacity:.4}</style></defs><path class="fa-primary" d="M48 352H156.2l91.4 83.4c19.6 17.9 49.9 16.5 67.8-3.1c5.5-6.1 9.2-13.2 11.1-20.6l17 15.6c19.5 17.9 49.9 16.6 67.8-2.9c7.4-8.1 11.5-18 12.4-28.2l7.8 7.1c19.5 17.9 49.9 16.6 67.8-2.9c12.9-14 15.8-33.7 9.2-50.3c-2.6-6.5-6.6-12.5-12.1-17.5L354.2 202.3l-13.1-12-57.2 40.8c-21.6 15.4-51.6 10.4-67-11.2s-10.4-51.6 11.2-67l89.3-63.8-2.7-2.3C297.5 72.1 275.5 64 252.8 64C234 64 215.7 69.6 200 80l-72 48H48c-26.5 0-48 21.5-48 48V304c0 26.5 21.5 48 48 48z"/><path class="fa-secondary" d="M576 128h16c26.5 0 48 21.5 48 48V304c0 26.5-21.5 48-48 48H509.3c-2.5-7.2-6.8-13.9-12.8-19.4L341.1 190.2l-57.2 40.8c-21.6 15.4-51.6 10.4-67-11.2s-10.4-51.6 11.2-67l98.6-70.4c16.9-12 37-18.5 57.7-18.5c19.6 0 38.8 5.8 55.1 16.7l71 47.3H576z"/></svg>