<svg xmlns="http://www.w3.org/2000/svg" viewBox="0 0 640 512"><!--! Font Awesome Pro 6.4.0 by @fontawesome - https://fontawesome.com License - https://fontawesome.com/license (Commercial License) Copyright 2023 Fonticons, Inc. --><defs><style>.fa-secondary{opacity:.4}</style></defs><path class="fa-primary" d="M156.2 352H128V128l72-48c15.6-10.4 34-16 52.8-16c22.7 0 44.7 8.1 61.9 22.9l2.7 2.3-89.3 63.8c-21.6 15.4-26.6 45.4-11.2 67s45.4 26.6 67 11.2l57.2-40.8 13.1 12L496.4 332.6c5.5 5 9.6 11.1 12.1 17.5c6.6 16.6 3.7 36.2-9.2 50.3c-17.9 19.5-48.3 20.9-67.8 2.9l-7.8-7.1c-.9 10.1-5 20.1-12.4 28.2c-17.9 19.5-48.3 20.9-67.8 2.9l-17-15.6c-1.9 7.4-5.6 14.5-11.1 20.6c-17.9 19.6-48.2 21-67.8 3.1L156.2 352zM0 144c0-8.8 7.2-16 16-16H96V352c0 17.7-14.3 32-32 32H32c-17.7 0-32-14.3-32-32V144zM64 336a16 16 0 1 0 -32 0 16 16 0 1 0 32 0z"/><path class="fa-secondary" d="M512 352V128h-1.5l-71-47.3C423.2 69.8 404.1 64 384.5 64c-20.7 0-40.9 6.5-57.7 18.5l-98.6 70.4c-21.6 15.4-26.6 45.4-11.2 67s45.4 26.6 67 11.2l57.2-40.8L496.4 332.6c6 5.5 10.3 12.2 12.8 19.4H512zm32 0c0 17.7 14.3 32 32 32h32c17.7 0 32-14.3 32-32V144c0-8.8-7.2-16-16-16H544V352zm48-32a16 16 0 1 1 0 32 16 16 0 1 1 0-32z"/></svg>