<svg xmlns="http://www.w3.org/2000/svg" viewBox="0 0 576 512"><!--! Font Awesome Pro 6.4.0 by @fontawesome - https://fontawesome.com License - https://fontawesome.com/license (Commercial License) Copyright 2023 Fonticons, Inc. --><defs><style>.fa-secondary{opacity:.4}</style></defs><path class="fa-primary" d="M224.6 0C182.3 0 148 34.3 148 76.6c0 20.3 8.1 39.8 22.4 54.1L273.9 234.1c7.8 7.8 20.5 7.8 28.3 0L405.6 130.7C419.9 116.4 428 96.9 428 76.6C428 34.3 393.7 0 351.4 0c-20.3 0-39.8 8.1-54.1 22.4L288 31.7l-9.3-9.3C264.4 8.1 244.9 0 224.6 0z"/><path class="fa-secondary" d="M559.7 392.2c17.8-13.1 21.6-38.1 8.5-55.9s-38.1-21.6-55.9-8.5L392.6 416H272c-8.8 0-16-7.2-16-16s7.2-16 16-16h16 64c17.7 0 32-14.3 32-32s-14.3-32-32-32H288 272 193.7c-29.1 0-57.3 9.9-80 28L68.8 384H32c-17.7 0-32 14.3-32 32v64c0 17.7 14.3 32 32 32H192 352.5c29 0 57.3-9.3 80.7-26.5l126.6-93.3zm-366.1-8.3a.5 .5 0 1 1 -.9 .2 .5 .5 0 1 1 .9-.2z"/></svg>