<svg xmlns="http://www.w3.org/2000/svg" viewBox="0 0 576 512"><!--! Font Awesome Pro 6.4.0 by @fontawesome - https://fontawesome.com License - https://fontawesome.com/license (Commercial License) Copyright 2023 Fonticons, Inc. --><defs><style>.fa-secondary{opacity:.4}</style></defs><path class="fa-primary" d="M432 272v48h64V272c0-17.7-14.3-32-32-32s-32 14.3-32 32zm-48 48V272c0-44.2 35.8-80 80-80s80 35.8 80 80v48c17.7 0 32 14.3 32 32V480c0 17.7-14.3 32-32 32H384c-17.7 0-32-14.3-32-32V352c0-17.7 14.3-32 32-32z"/><path class="fa-secondary" d="M207.6 69.3c2.9-17.4-8.9-33.9-26.3-36.8s-33.9 8.9-36.8 26.3L132.9 128H64c-17.7 0-32 14.3-32 32s14.3 32 32 32h58.2L100.9 320H32c-17.7 0-32 14.3-32 32s14.3 32 32 32H90.2l-9.8 58.7c-2.9 17.4 8.9 33.9 26.3 36.8s33.9-8.9 36.8-26.3L155.1 384h95.1l-9.8 58.7c-2.9 17.4 8.9 33.9 26.3 36.8s33.9-8.9 36.8-26.3L320 354.7V352c0-8.1 1.5-15.9 4.3-23.1L347.1 192h38.5c16.6-16.3 38.2-27.4 62.4-30.9c0-.4 0-.8 0-1.1c0-17.7-14.3-32-32-32H357.8l9.8-58.7c2.9-17.4-8.9-33.9-26.3-36.8s-33.9 8.9-36.8 26.3L292.9 128H197.8l9.8-58.7zM165.8 320l21.3-128h95.1L260.9 320H165.8z"/></svg>