<svg xmlns="http://www.w3.org/2000/svg" viewBox="0 0 512 512"><!--! Font Awesome Pro 6.4.0 by @fontawesome - https://fontawesome.com License - https://fontawesome.com/license (Commercial License) Copyright 2023 Fonticons, Inc. --><defs><style>.fa-secondary{opacity:.4}</style></defs><path class="fa-primary" d="M64 320H448V448c0 35.3-28.7 64-64 64H128c-35.3 0-64-28.7-64-64V320z"/><path class="fa-secondary" d="M256 0c-41.9 0-79 20.1-102.4 51.2C137.6 39.1 117.6 32 96 32c-7.1 0-14.4 .8-21.6 2.5C30 44.7-.1 84.3 0 128c0 7.1 .8 14.4 2.5 21.6C16 224 64 320 64 320h74.4L112.2 162.6c-1.5-8.7 4.4-17 13.2-18.4s17 4.4 18.4 13.2L170.9 320H240V160c0-8.8 7.2-16 16-16s16 7.2 16 16V320h69.1l27.1-162.6c1.5-8.7 9.7-14.6 18.4-13.2s14.6 9.7 13.2 18.4L373.6 320H448s48-96 61.5-170.4c1.7-7.2 2.5-14.5 2.5-21.6c0-43.7-30-83.3-74.4-93.5C430.3 32.8 423.1 32 416 32c-21.6 0-41.5 7.1-57.6 19.2C335 20.1 297.9 0 256 0z"/></svg>