<svg xmlns="http://www.w3.org/2000/svg" viewBox="0 0 640 512"><!--! Font Awesome Pro 6.4.0 by @fontawesome - https://fontawesome.com License - https://fontawesome.com/license (Commercial License) Copyright 2023 Fonticons, Inc. --><defs><style>.fa-secondary{opacity:.4}</style></defs><path class="fa-primary" d="M320 448c176.7 0 320-57.3 320-128c0-19.3-11.8-36.7-29.7-43.9L533 245.2c7 8.2 11 18.7 11 29.5c0 25-20.3 45.3-45.3 45.3c-12 0-23.5-4.8-32-13.3L464 304l-2.7 2.7c-8.5 8.5-20 13.3-32 13.3c-22.3 0-40.9-16.2-44.6-37.4C364.9 286.1 343 288 320 288c-88.4 0-160-28.7-160-64L29.7 276.1C11.8 283.3 0 300.7 0 320c0 70.7 143.3 128 320 128zM470.6 169.8C448.4 108.1 389.3 64 320 64c-70.3 0-130.1 45.4-151.5 108.5C174.7 201.3 240.1 224 320 224c23.6 0 46-2 66-5.5c-1.3-4.2-2-8.7-2-13.2c0-25 20.3-45.3 45.3-45.3c12 0 23.5 4.8 32 13.3L464 176l2.7-2.7c1.2-1.2 2.5-2.4 3.8-3.4z"/><path class="fa-secondary" d="M464 304l-2.7 2.7c-8.5 8.5-20 13.3-32 13.3c-22.3 0-40.9-16.2-44.6-37.4C364.9 286.1 343 288 320 288c-88.4 0-160-28.7-160-64c0-18 3-35.4 8.5-51.5C174.7 201.3 240.1 224 320 224c23.6 0 46-2 66-5.5c-1.3-4.2-2-8.7-2-13.2c0-25 20.3-45.3 45.3-45.3c12 0 23.5 4.8 32 13.3L464 176l2.7-2.7c8.5-8.5 20-13.3 32-13.3c25 0 45.3 20.3 45.3 45.3c0 12-4.8 23.5-13.3 32L528 240l2.7 2.7c8.5 8.5 13.3 20 13.3 32c0 25-20.3 45.3-45.3 45.3c-12 0-23.5-4.8-32-13.3L464 304zm0-40a24 24 0 1 0 0-48 24 24 0 1 0 0 48z"/></svg>