<svg xmlns="http://www.w3.org/2000/svg" viewBox="0 0 512 512"><!--! Font Awesome Pro 6.4.0 by @fontawesome - https://fontawesome.com License - https://fontawesome.com/license (Commercial License) Copyright 2023 Fonticons, Inc. --><defs><style>.fa-secondary{opacity:.4}</style></defs><path class="fa-primary" d="M199 136.1c.1 .2 .3 .3 .4 .4c8.9 8.9 23.2 9.4 32.6 1.2C233 150.2 243.3 160 256 160s23-9.8 23.9-22.2c9.4 8.1 23.7 7.7 32.6-1.2c.1-.1 .3-.3 .4-.4c78.9 24 120.7 96.7 142.8 162.1l-.7 .3c-4.5 2.3-9.8 2.3-14.3 0l-35.4-17.7c-13.5-6.8-29.4-6.8-42.9 0l-35.4 17.7c-4.5 2.3-9.8 2.3-14.3 0l-35.4-17.7c-13.5-6.8-29.4-6.8-42.9 0l-35.4 17.7c-4.5 2.3-9.8 2.3-14.3 0l-35.4-17.7c-13.5-6.8-29.4-6.8-42.9 0L71.2 298.5c-4.5 2.3-9.8 2.3-14.3 0l-.7-.3c22.1-65.3 64-138.1 142.8-162.1zM46.9 329.1c12.5 4.8 26.5 4.1 38.6-1.9l35.4-17.7c4.5-2.3 9.8-2.3 14.3 0l35.4 17.7c13.5 6.8 29.4 6.8 42.9 0l35.4-17.7c4.5-2.3 9.8-2.3 14.3 0l35.4 17.7c13.5 6.8 29.4 6.8 42.9 0l35.4-17.7c4.5-2.3 9.8-2.3 14.3 0l35.4 17.7c12.1 6 26.1 6.7 38.6 1.9C477.9 377.7 480 416 480 416v2.7c-5-1.8-10.4-2.7-16-2.7H48c-5.6 0-11 1-16 2.7V416s2.1-38.3 14.9-86.9z"/><path class="fa-secondary" d="M256 0c-12.7 0-23 9.8-23.9 22.2c-9.4-8.1-23.7-7.7-32.6 1.2s-9.4 23.2-1.2 32.6C185.8 57 176 67.3 176 80s9.8 23 22.2 23.9c-8.1 9.4-7.7 23.7 1.2 32.6s23.2 9.4 32.6 1.2C233 150.2 243.3 160 256 160s23-9.8 23.9-22.2c9.4 8.1 23.7 7.7 32.6-1.2s9.4-23.2 1.2-32.6C326.2 103 336 92.7 336 80s-9.8-23-22.2-23.9c8.1-9.4 7.7-23.7-1.2-32.6s-23.2-9.4-32.6-1.2C279 9.8 268.7 0 256 0zM48 416c-26.5 0-48 21.5-48 48s21.5 48 48 48H464c26.5 0 48-21.5 48-48s-21.5-48-48-48H48z"/></svg>