<svg xmlns="http://www.w3.org/2000/svg" viewBox="0 0 512 512"><!--! Font Awesome Pro 6.4.0 by @fontawesome - https://fontawesome.com License - https://fontawesome.com/license (Commercial License) Copyright 2023 Fonticons, Inc. --><defs><style>.fa-secondary{opacity:.4}</style></defs><path class="fa-primary" d="M304 64H416V224H304c-26.2 0-49.4-12.6-64-32H32c-17.7 0-32-14.3-32-32s14.3-32 32-32H225.6C233 91.5 265.3 64 304 64zM480 224H448V64h32c17.7 0 32 14.3 32 32v96c0 17.7-14.3 32-32 32z"/><path class="fa-secondary" d="M45.9 128H225.6C233 91.5 265.3 64 304 64h95.1C364 24.7 312.9 0 256 0H233.7C148.3 0 75.3 53.1 45.9 128zM32.2 192c-.2 3.2-.2 6.5-.2 9.7c0 44.8 18.3 91.5 46.5 127.7C88.9 342.8 96 358.8 96 375.8V480c0 17.7 14.3 32 32 32H288c17.7 0 32-14.3 32-32V448h64c35.3 0 64-28.7 64-64V320h20.2c24.2 0 43.8-19.6 43.8-43.8c0-10-3.4-19.6-9.6-27.4L482.6 224H304c-26.2 0-49.4-12.6-64-32H32.2z"/></svg>