<svg xmlns="http://www.w3.org/2000/svg" viewBox="0 0 512 512"><!--! Font Awesome Pro 6.4.0 by @fontawesome - https://fontawesome.com License - https://fontawesome.com/license (Commercial License) Copyright 2023 Fonticons, Inc. --><defs><style>.fa-secondary{opacity:.4}</style></defs><path class="fa-primary" d="M144 208c-35.3 0-64 28.7-64 64v48c0 35.3 28.7 64 64 64h16c17.7 0 32-14.3 32-32V240c0-17.7-14.3-32-32-32H144zm224 0H352c-17.7 0-32 14.3-32 32V352c0 17.7 14.3 32 32 32h16c35.3 0 64-28.7 64-64V272c0-35.3-28.7-64-64-64z"/><path class="fa-secondary" d="M48 256C48 141.1 141.1 48 256 48s208 93.1 208 208V400.1c0 22.1-17.9 40-40 40L313.6 440c-8.3-14.4-23.8-24-41.6-24H240c-26.5 0-48 21.5-48 48s21.5 48 48 48h32c17.8 0 33.3-9.7 41.6-24l110.4 .1c48.6 0 88.1-39.4 88.1-88V256C512 114.6 397.4 0 256 0S0 114.6 0 256v40c0 13.3 10.7 24 24 24s24-10.7 24-24V256z"/></svg>