<svg xmlns="http://www.w3.org/2000/svg" viewBox="0 0 512 512"><!--! Font Awesome Pro 6.4.0 by @fontawesome - https://fontawesome.com License - https://fontawesome.com/license (Commercial License) Copyright 2023 Fonticons, Inc. --><defs><style>.fa-secondary{opacity:.4}</style></defs><path class="fa-primary" d="M256 64V.2c-2.7-.1-5.3-.2-8-.2H224c-22.2 0-43.7 3.2-64 9.3V64 86.6c0 12.4-7.4 23.3-17.4 30.5C114.4 137.4 96 170.6 96 208c0 61.9 50.1 112 112 112s112-50.1 112-112c0-37.4-18.4-70.6-46.6-90.9c-10-7.2-17.4-18.2-17.4-30.5V64zM144 208a64 64 0 1 1 128 0 64 64 0 1 1 -128 0zm96 0a32 32 0 1 0 -64 0 32 32 0 1 0 64 0z"/><path class="fa-secondary" d="M160 9.3V86.6c0 12.4-7.4 23.3-17.4 30.5C114.4 137.4 96 170.6 96 208c0 61.9 50.1 112 112 112s112-50.1 112-112c0-37.4-18.4-70.6-46.6-90.9c-10-7.2-17.4-18.2-17.4-30.5V.2c92 3.7 173.6 71.7 189.3 160c2.3 13 6.8 25.7 15.1 36l42 52.6c6.2 7.8 9.6 17.4 9.6 27.4c0 24.2-19.6 43.8-43.8 43.8H448v64c0 35.3-28.7 64-64 64H320v32c0 17.7-14.3 32-32 32H96c-17.7 0-32-14.3-32-32V407.3c0-16.7-6.9-32.5-17.1-45.8C16.6 322.4 0 274.1 0 224.2C0 122.8 67.4 36.9 160 9.3z"/></svg>