<svg xmlns="http://www.w3.org/2000/svg" viewBox="0 0 512 512"><!--! Font Awesome Pro 6.4.0 by @fontawesome - https://fontawesome.com License - https://fontawesome.com/license (Commercial License) Copyright 2023 Fonticons, Inc. --><defs><style>.fa-secondary{opacity:.4}</style></defs><path class="fa-primary" d="M176 128c17.7 0 32 14.3 32 32v64h96V160c0-17.7 14.3-32 32-32s32 14.3 32 32V352c0 17.7-14.3 32-32 32s-32-14.3-32-32V288H208v64c0 17.7-14.3 32-32 32s-32-14.3-32-32V160c0-17.7 14.3-32 32-32z"/><path class="fa-secondary" d="M510 224C495.6 108.2 403.8 16.4 288 2V66.7C368.4 80.1 431.9 143.6 445.3 224H510zm-64.7 64C431.9 368.4 368.4 431.9 288 445.4V510c115.8-14.4 207.6-106.2 222-222H445.3zM66.7 288H2C16.4 403.8 108.2 495.6 224 510V445.4C143.6 431.9 80.1 368.4 66.7 288zm0-64C80.1 143.6 143.6 80.1 224 66.7V2C108.2 16.4 16.4 108.2 2 224H66.7z"/></svg>