<svg xmlns="http://www.w3.org/2000/svg" viewBox="0 0 576 512"><!--! Font Awesome Pro 6.4.0 by @fontawesome - https://fontawesome.com License - https://fontawesome.com/license (Commercial License) Copyright 2023 Fonticons, Inc. --><defs><style>.fa-secondary{opacity:.4}</style></defs><path class="fa-primary" d="M320 352V488c0 18.4 20.8 30.1 36.5 20.5l144-88c9.2-5.6 13.5-16.7 10.6-27.1C494.1 333.6 480 270.2 480 208c0-85-89.1-149.2-153.1-189c-1.9-1.2-4-2.6-6.3-4.1C311.2 8.4 298.7 0 288 0s-23.2 8.4-32.7 14.9c-2.3 1.5-4.4 3-6.3 4.1C185.1 58.8 96 123 96 208c0 62.2-14.1 125.6-31.1 185.4c-3 10.4 1.4 21.4 10.6 27.1l144 88c15.7 9.6 36.5-2.1 36.5-20.5V296h0V267.5c0-6.9-4.4-13-10.9-15.2l-72.3-24.1c-7.6-2.5-12.7-9.6-12.7-17.6c0-10.3 8.3-18.6 18.6-18.6H397.4c10.3 0 18.6 8.3 18.6 18.6c0 8-5.1 15.1-12.7 17.6l-72.3 24.1c-6.5 2.2-10.9 8.3-10.9 15.2V352h0z"/><path class="fa-secondary" d="M66.4 .2c8.3 1.2 14.2 8.6 13.6 17L65.1 225.7c-1.2 17-15.4 30.2-32.5 30.2H30.4C13.6 256 0 242.4 0 225.6c0-2.3 .3-4.6 .8-6.8L48.4 12.4c1.9-8.1 9.7-13.5 18-12.2zm443.2 0c8.3-1.2 16.1 4.1 18 12.2l47.6 206.4c.5 2.2 .8 4.5 .8 6.8c0 16.8-13.6 30.4-30.4 30.4h-2.2c-17.1 0-31.3-13.2-32.5-30.2L496 17.1c-.6-8.3 5.3-15.7 13.6-17z"/></svg>