<svg xmlns="http://www.w3.org/2000/svg" viewBox="0 0 448 512"><!--! Font Awesome Pro 6.4.0 by @fontawesome - https://fontawesome.com License - https://fontawesome.com/license (Commercial License) Copyright 2023 Fonticons, Inc. --><defs><style>.fa-secondary{opacity:.4}</style></defs><path class="fa-primary" d="M263.9 109.6c5 2.8 8.1 8.2 8.1 13.9c0 12.3-13.3 20-23.9 13.9l-24.2-13.8v117h32c8.8 0 16 7.2 16 16s-7.2 16-16 16h-32v128c0 8.8-7.2 16-16 16s-16-7.2-16-16v-144V96.3c0-1.6 .2-3.2 .6-4.7c.5-1.9 1.4-3.7 2.6-5.2c1.1-1.5 2.5-2.8 4-3.7c2.5-1.7 5.6-2.6 8.8-2.6c0 0 .1 0 .1 0c.5 0 1 0 1.4 .1c2.5 .2 4.8 1 6.8 2.2l47.8 27.3zm32.1 55.2c-5-2.8-8.1-8.2-8.1-13.9c0-12.3 13.3-20 23.9-13.9l72 41.1c7.7 4.4 10.3 14.2 6 21.8s-14.2 10.3-21.8 6l-16.2-9.3V352.6c0 8.8-7.2 16-16 16s-16-7.2-16-16V178.4l-23.8-13.6zM159.8 144.6v224c0 7.8-5.7 14.5-13.4 15.8s-15.3-3.3-17.7-10.7L95.8 275.2v61.4c0 8.8-7.2 16-16 16s-16-7.2-16-16v-160c0-7.8 5.7-14.5 13.4-15.8s15.3 3.3 17.7 10.7L127.8 270V144.6c0-8.8 7.2-16 16-16s16 7.2 16 16z"/><path class="fa-secondary" d="M260.9 495.5c-22.3 12.9-49.7 12.9-72 0L36 407.2C13.7 394.4 0 370.6 0 344.9V168.3c0-25.7 13.7-49.5 36-62.4L188.9 17.7c22.3-12.9 49.7-12.9 72 0l152.9 88.3c22.3 12.9 36 36.6 36 62.4V344.9c0 25.7-13.7 49.5-36 62.4L260.9 495.5zm11.1-372c0-5.7-3.1-11-8.1-13.9L216.1 82.3c-2-1.2-4.3-2-6.8-2.2c-.5 0-1-.1-1.4-.1l-.1 0c-3.3 0-6.3 1-8.8 2.6c-1.5 1-2.9 2.2-4 3.7c-1.2 1.5-2.1 3.3-2.6 5.2c-.4 1.6-.6 3.1-.6 4.7V256.6v144c0 8.8 7.2 16 16 16s16-7.2 16-16v-128h32c8.8 0 16-7.2 16-16s-7.2-16-16-16h-32v-117l24.2 13.8c10.7 6.1 23.9-1.6 23.9-13.9zm16 27.4c0 5.7 3.1 11 8.1 13.9l23.8 13.6V352.6c0 8.8 7.2 16 16 16s16-7.2 16-16V196.6l16.2 9.3c7.7 4.4 17.4 1.7 21.8-6s1.7-17.4-6-21.8l-72-41.1c-10.7-6.1-23.9 1.6-23.9 13.9zM143.8 128.6c-8.8 0-16 7.2-16 16V270L95 171.5c-2.5-7.4-10-12-17.7-10.7s-13.4 7.9-13.4 15.8v160c0 8.8 7.2 16 16 16s16-7.2 16-16V275.2l32.8 98.5c2.5 7.4 10 12 17.7 10.7s13.4-7.9 13.4-15.8v-224c0-8.8-7.2-16-16-16z"/></svg>