<svg xmlns="http://www.w3.org/2000/svg" viewBox="0 0 448 512"><!--! Font Awesome Pro 6.4.0 by @fontawesome - https://fontawesome.com License - https://fontawesome.com/license (Commercial License) Copyright 2023 Fonticons, Inc. --><defs><style>.fa-secondary{opacity:.4}</style></defs><path class="fa-primary" d="M77.9 160.9c7.5-1.5 15 2.6 17.9 9.8l33.1 82.9V176.6c0-8.8 7.2-16 16-16s16 7.2 16 16v160c0 7.7-5.4 14.3-13 15.7s-15-2.6-17.9-9.8L96.9 259.7v76.9c0 8.8-7.2 16-16 16s-16-7.2-16-16v-160c0-7.7 5.4-14.3 13-15.7zm115 15.7c0-8.8 7.2-16 16-16h48c8.8 0 16 7.2 16 16s-7.2 16-16 16h-32v48h32c8.8 0 16 7.2 16 16s-7.2 16-16 16h-32v64c0 8.8-7.2 16-16 16s-16-7.2-16-16v-80-80zm112-16h64c8.8 0 16 7.2 16 16s-7.2 16-16 16h-16v144c0 8.8-7.2 16-16 16s-16-7.2-16-16v-144h-16c-8.8 0-16-7.2-16-16s7.2-16 16-16z"/><path class="fa-secondary" d="M260.9 495.5c-22.3 12.9-49.7 12.9-72 0L36 407.2C13.7 394.4 0 370.6 0 344.9V168.3c0-25.7 13.7-49.5 36-62.4L188.9 17.7c22.3-12.9 49.7-12.9 72 0l152.9 88.3c22.3 12.9 36 36.6 36 62.4V344.9c0 25.7-13.7 49.5-36 62.4L260.9 495.5zM95.8 170.6c-2.8-7.1-10.3-11.2-17.9-9.8s-13 8-13 15.7v160c0 8.8 7.2 16 16 16s16-7.2 16-16V259.7l33.1 82.9c2.8 7.1 10.3 11.2 17.9 9.8s13-8 13-15.7v-160c0-8.8-7.2-16-16-16s-16 7.2-16 16v76.9L95.8 170.6zm97.1 5.9v80 80c0 8.8 7.2 16 16 16s16-7.2 16-16v-64h32c8.8 0 16-7.2 16-16s-7.2-16-16-16h-32v-48h32c8.8 0 16-7.2 16-16s-7.2-16-16-16h-48c-8.8 0-16 7.2-16 16zm112-16c-8.8 0-16 7.2-16 16s7.2 16 16 16h16v144c0 8.8 7.2 16 16 16s16-7.2 16-16v-144h16c8.8 0 16-7.2 16-16s-7.2-16-16-16h-64z"/></svg>