<svg xmlns="http://www.w3.org/2000/svg" viewBox="0 0 576 512"><!--! Font Awesome Pro 6.4.0 by @fontawesome - https://fontawesome.com License - https://fontawesome.com/license (Commercial License) Copyright 2023 Fonticons, Inc. --><defs><style>.fa-secondary{opacity:.4}</style></defs><path class="fa-primary" d="M160 184c0-13.3-10.7-24-24-24s-24 10.7-24 24v72 72c0 13.3 10.7 24 24 24s24-10.7 24-24V280h64v48c0 13.3 10.7 24 24 24s24-10.7 24-24V256 184c0-13.3-10.7-24-24-24s-24 10.7-24 24v48H160V184zm168-24c-13.3 0-24 10.7-24 24V328c0 13.3 10.7 24 24 24h56c53 0 96-43 96-96s-43-96-96-96H328zm56 144H352V208h32c26.5 0 48 21.5 48 48s-21.5 48-48 48z"/><path class="fa-secondary" d="M64 32C28.7 32 0 60.7 0 96V416c0 35.3 28.7 64 64 64H512c35.3 0 64-28.7 64-64V96c0-35.3-28.7-64-64-64H64zm72 128c13.3 0 24 10.7 24 24v48h64V184c0-13.3 10.7-24 24-24s24 10.7 24 24v72 72c0 13.3-10.7 24-24 24s-24-10.7-24-24V280H160v48c0 13.3-10.7 24-24 24s-24-10.7-24-24V256 184c0-13.3 10.7-24 24-24zm168 24c0-13.3 10.7-24 24-24h56c53 0 96 43 96 96s-43 96-96 96H328c-13.3 0-24-10.7-24-24V184zm48 120h32c26.5 0 48-21.5 48-48s-21.5-48-48-48H352v96z"/></svg>