<svg xmlns="http://www.w3.org/2000/svg" viewBox="0 0 576 512"><!--! Font Awesome Pro 6.4.0 by @fontawesome - https://fontawesome.com License - https://fontawesome.com/license (Commercial License) Copyright 2023 Fonticons, Inc. --><defs><style>.fa-secondary{opacity:.4}</style></defs><path class="fa-primary" d="M360.7 360.7L183.3 183.3 420.6 8.4C428 2.9 437 0 446.2 0c11.4 0 22.4 4.5 30.5 12.6l54.8 54.8c8.1 8.1 12.6 19 12.6 30.5c0 9.2-2.9 18.2-8.4 25.6L360.7 360.7zM7 466.3l56-56c1.5 4.5 4.1 8.7 7.6 12.2l50.7 50.7c3.6 3.6 7.8 6.1 12.2 7.6l-24 24c-4.5 4.5-10.6 7-17 7H24c-13.3 0-24-10.7-24-24v-4.7c0-6.4 2.5-12.5 7-17z"/><path class="fa-secondary" d="M360.7 360.7L183.3 183.3l-35.7 26.3c-12.3 9-19.5 23.4-19.5 38.6V320l0 0L70.6 377.4c-12.5 12.5-12.5 32.8 0 45.3l50.7 50.7c12.5 12.5 32.8 12.5 45.3 0L224 416h71.7c15.3 0 29.6-7.2 38.6-19.5l26.3-35.7z"/></svg>