<svg xmlns="http://www.w3.org/2000/svg" viewBox="0 0 576 512"><!--! Font Awesome Pro 6.4.0 by @fontawesome - https://fontawesome.com License - https://fontawesome.com/license (Commercial License) Copyright 2023 Fonticons, Inc. --><defs><style>.fa-secondary{opacity:.4}</style></defs><path class="fa-primary" d="M54.6 73.4c-9.2-9.2-22.9-11.9-34.9-6.9S0 83.1 0 96V480c0 17.7 14.3 32 32 32H416c12.9 0 24.6-7.8 29.6-19.8s2.2-25.7-6.9-34.9l-384-384z"/><path class="fa-secondary" d="M439.7 401.9c34.2 23.1 81.1 19.5 111.4-10.8c34.4-34.4 34.4-90.1 0-124.4s-90.1-34.4-124.5 0l33.9 33.9c15.6-15.6 40.9-15.6 56.6 0s15.6 40.9 0 56.6s-40.9 15.6-56.6 0l-81.7-81.7C401.2 261.3 416 236.4 416 208c0-33.9-21.1-62.9-50.9-74.5c1.9-6.8 2.9-14 2.9-21.5c0-44.2-35.8-80-80-80c-27.3 0-51.5 13.7-65.9 34.6C216.3 46.6 197.9 32 176 32c-26.5 0-48 21.5-48 48c0 4 .5 7.9 1.4 11.6L439.7 401.9zM480 64a32 32 0 1 0 -64 0 32 32 0 1 0 64 0zm0 128a32 32 0 1 0 0-64 32 32 0 1 0 0 64z"/></svg>