<svg xmlns="http://www.w3.org/2000/svg" viewBox="0 0 640 512"><!--! Font Awesome Pro 6.4.0 by @fontawesome - https://fontawesome.com License - https://fontawesome.com/license (Commercial License) Copyright 2023 Fonticons, Inc. --><defs><style>.fa-secondary{opacity:.4}</style></defs><path class="fa-primary" d="M96 352H64V512H96V352zm320 64c-17.7 0-32 14.3-32 32v32c0 17.7 14.3 32 32 32H608c17.7 0 32-14.3 32-32V448c0-17.7-14.3-32-32-32H416z"/><path class="fa-secondary" d="M476.6 46.3c7.9-15.8 1.5-35-14.3-42.9s-35-1.5-42.9 14.3L252.2 352H96V480v32h32 32 44.2c24.2 0 46.4-13.7 57.2-35.4L476.6 46.3zM32 352c-17.7 0-32 14.3-32 32v96c0 17.7 14.3 32 32 32H64V352H32z"/></svg>