<svg xmlns="http://www.w3.org/2000/svg" viewBox="0 0 576 512"><!-- Font Awesome Pro 6.0.0-alpha2 by @fontawesome - https://fontawesome.com License - https://fontawesome.com/license (Commercial License) --><defs><style>.fa-secondary{opacity:.4}</style></defs><path d="M511.968 270.531V448C511.968 483.346 483.315 512 447.969 512H128C92.654 512 64 483.346 64 448V270.516L287.975 74.541L511.968 270.531Z " class="fa-secondary"></path><path d="M575.997 256.01C575.997 280.488 553.799 287.998 543.981 287.998C536.512 287.998 528.997 285.405 522.919 280.093L287.998 74.542L53.078 280.093C46.991 285.396 39.479 288 32.005 288C23.533 288 0 281.286 0 256.01C0 248.631 2.669 239.143 10.922 231.908L266.92 7.921C272.952 2.64 280.475 0 287.999 0C295.522 0 303.045 2.641 309.076 7.921L565.074 231.908C573.341 239.154 575.997 248.642 575.997 256.01Z " class="fa-primary"></path></svg>