<svg xmlns="http://www.w3.org/2000/svg" viewBox="0 0 576 512"><!-- Font Awesome Pro 6.0.0-alpha2 by @fontawesome - https://fontawesome.com License - https://fontawesome.com/license (Commercial License) --><defs><style>.fa-secondary{opacity:.4}</style></defs><path d="M287.977 74.541L64 270.516V448C64 483.346 92.654 512 128 512H447.971C483.316 512 511.971 483.346 511.971 448V270.531L287.977 74.541ZM397.666 315.778C397.666 331.149 391.983 346.523 380.619 358.313L297.631 443.871C294.938 446.623 291.45 447.999 287.962 447.999S280.984 446.623 278.291 443.871L195.305 358.313C183.928 346.509 178.247 331.113 178.247 315.725C178.247 286.191 200.655 255.998 235.511 255.998C251.454 255.998 267.5 262.585 279.393 274.879L287.84 283.633L296.285 274.879C308.247 262.585 324.361 255.998 340.329 255.998C375.032 255.998 397.666 286.088 397.666 315.778Z " class="fa-secondary"></path><path d="M565.078 231.908L309.078 7.922C303.047 2.641 295.523 0 288 0S272.953 2.641 266.922 7.922L10.922 231.908C2.656 239.155 0 248.643 0 256.008C0 280.28 21.989 287.998 32 288C39.477 288 46.99 285.396 53.078 280.092L288 74.541L522.922 280.092C529 285.404 536.516 287.998 543.984 287.998C553.824 287.998 576 280.274 576 256.008C576 248.629 573.329 239.142 565.078 231.908ZM340.352 255.998C324.384 255.998 308.271 262.585 296.309 274.879L287.863 283.633L279.416 274.879C267.523 262.585 251.478 255.998 235.535 255.998C200.727 255.998 178.27 286.116 178.27 315.725C178.27 331.113 183.952 346.509 195.328 358.312L278.314 443.871C281.008 446.623 284.497 447.999 287.985 447.999S294.962 446.623 297.654 443.871L380.643 358.312C392.007 346.523 397.689 331.149 397.689 315.778C397.689 286.216 375.103 255.998 340.352 255.998Z " class="fa-primary"></path></svg>