<svg xmlns="http://www.w3.org/2000/svg" viewBox="0 0 576 512"><!-- Font Awesome Pro 6.0.0-alpha2 by @fontawesome - https://fontawesome.com License - https://fontawesome.com/license (Commercial License) --><defs><style>.fa-secondary{opacity:.4}</style></defs><path d="M511.971 270.531V480C511.971 497.672 497.643 512 479.971 512H383.98C366.307 512 351.98 497.672 351.98 480V367.994C351.98 359.158 344.818 351.994 335.982 351.994H239.988C231.152 351.994 223.988 359.158 223.988 367.994V480C223.988 497.672 209.662 512 191.988 512H96C78.326 512 64 497.672 64 480V270.516L287.977 74.541L511.971 270.531Z " class="fa-secondary"></path><path d="M576 256.01C576 280.488 553.738 287.998 543.984 287.998C536.515 287.998 529 285.405 522.921 280.093L288 74.542L53.079 280.093C46.991 285.396 39.479 288 32.005 288C23.533 288 0 281.286 0 256.01C0 248.631 2.669 239.143 10.922 231.908L266.922 7.921C272.953 2.64 280.477 0 288 0C295.524 0 303.047 2.641 309.078 7.921L565.078 231.908C573.338 239.149 576 248.632 576 256.01Z " class="fa-primary"></path></svg>