<svg xmlns="http://www.w3.org/2000/svg" viewBox="0 0 448 512"><!--! Font Awesome Pro 6.4.0 by @fontawesome - https://fontawesome.com License - https://fontawesome.com/license (Commercial License) Copyright 2023 Fonticons, Inc. --><defs><style>.fa-secondary{opacity:.4}</style></defs><path class="fa-primary" d="M64 32h64V136c0 13.3 10.7 24 24 24s24-10.7 24-24V32H384c17.7 0 32 14.3 32 32s-14.3 32-32 32c38.9 29.2 64 75.7 64 128H0c0-52.3 25.1-98.8 64-128C46.3 96 32 81.7 32 64s14.3-32 32-32zM25.5 352h397c-26.3 61.4-66.4 99.8-87.8 117.1c-9.3 7.5-21.1 10.9-33.1 10.9H146.4c-12 0-23.7-3.3-33.1-10.9C91.9 451.8 51.8 413.4 25.5 352z"/><path class="fa-secondary" d="M128 32V136c0 13.3 10.7 24 24 24s24-10.7 24-24V32H128zM448 224H0c0 50.4 10.5 93 25.5 128h397c15-35 25.5-77.6 25.5-128z"/></svg>