<svg xmlns="http://www.w3.org/2000/svg" viewBox="0 0 384 512"><!--! Font Awesome Pro 6.4.0 by @fontawesome - https://fontawesome.com License - https://fontawesome.com/license (Commercial License) Copyright 2023 Fonticons, Inc. --><defs><style>.fa-secondary{opacity:.4}</style></defs><path class="fa-primary" d="M0 480c0 17.7 14.3 32 32 32H352c17.7 0 32-14.3 32-32s-14.3-32-32-32H32c-17.7 0-32 14.3-32 32zM0 32C0 49.7 14.3 64 32 64l64 0V75c0 25.5 10.1 49.9 28.1 67.9L192 210.7l67.9-67.9c18-18 28.1-42.4 28.1-67.9V64l64 0c17.7 0 32-14.3 32-32s-14.3-32-32-32H32C14.3 0 0 14.3 0 32z"/><path class="fa-secondary" d="M32 437v11H96V437c0-25.5 10.1-49.9 28.1-67.9L192 301.3l67.9 67.9c18 18 28.1 42.4 28.1 67.9v11h64V437c0-42.4-16.9-83.1-46.9-113.1L237.3 256l67.9-67.9c30-30 46.9-70.7 46.9-113.1V64H288V75c0 25.5-10.1 49.9-28.1 67.9L192 210.7l-67.9-67.9C106.1 124.9 96 100.4 96 75V64H32V75c0 42.4 16.9 83.1 46.9 113.1L146.7 256 78.9 323.9l22.6 22.6L78.9 323.9C48.9 353.9 32 394.6 32 437z"/></svg>