<svg xmlns="http://www.w3.org/2000/svg" viewBox="0 0 576 512"><!--! Font Awesome Pro 6.4.0 by @fontawesome - https://fontawesome.com License - https://fontawesome.com/license (Commercial License) Copyright 2023 Fonticons, Inc. --><defs><style>.fa-secondary{opacity:.4}</style></defs><path class="fa-primary" d="M0 280c0-13.3 10.7-24 24-24c128.1 0 232 103.9 232 232c0 13.3-10.7 24-24 24s-24-10.7-24-24c0-101.6-82.4-184-184-184c-13.3 0-24-10.7-24-24zM0 480a32 32 0 1 1 64 0A32 32 0 1 1 0 480zM24 352c75.1 0 136 60.9 136 136c0 13.3-10.7 24-24 24s-24-10.7-24-24c0-48.6-39.4-88-88-88c-13.3 0-24-10.7-24-24s10.7-24 24-24z"/><path class="fa-secondary" d="M357.7 8.5c-12.3-11.3-31.2-11.3-43.4 0l-208 192c-9.4 8.6-12.7 22-8.5 34c18.3 5.3 35.9 12.6 52.3 21.6H160v5.7c56.8 34.2 99.6 89.1 118.1 154.3H464c26.5 0 48-21.5 48-48V256h32c13.2 0 25-8.1 29.8-20.3s1.6-26.2-8.1-35.2l-208-192zM288 208c0-8.8 7.2-16 16-16h64c8.8 0 16 7.2 16 16v64c0 8.8-7.2 16-16 16H304c-8.8 0-16-7.2-16-16V208z"/></svg>