<svg xmlns="http://www.w3.org/2000/svg" viewBox="0 0 640 512"><!--! Font Awesome Pro 6.4.0 by @fontawesome - https://fontawesome.com License - https://fontawesome.com/license (Commercial License) Copyright 2023 Fonticons, Inc. --><defs><style>.fa-secondary{opacity:.4}</style></defs><path class="fa-primary" d="M378.3 104.5c12.3-11.3 31.2-11.3 43.4 0l208 192c9.7 8.9 12.9 22.9 8.1 35.2S621.2 352 608 352H576V464c0 26.5-21.5 48-48 48H272c-26.5 0-48-21.5-48-48V352H192c-13.2 0-25-8.1-29.8-20.3s-1.6-26.2 8.1-35.2l208-192zM368 288c-8.8 0-16 7.2-16 16v64c0 8.8 7.2 16 16 16h64c8.8 0 16-7.2 16-16V304c0-8.8-7.2-16-16-16H368z"/><path class="fa-secondary" d="M160.1-.1c5.9 0 11.3 3.2 14.1 8.4l27.6 51.2 55.7-16.7c5.6-1.7 11.7-.1 15.9 4s5.7 10.3 4 15.9l-16.7 55.7 35.3 19-64.7 59.7c5.6-10.9 8.7-23.3 8.7-36.3c0-44.2-35.8-80-80-80s-80 35.8-80 80s35.8 80 80 80c10.8 0 21.1-2.1 30.5-6l-41.7 38.5L133.1 288l-14.6-27.2L62.8 277.5c-5.6 1.7-11.7 .1-15.9-4s-5.7-10.3-4-15.9l16.7-55.7L8.3 174.3c-5.2-2.8-8.4-8.2-8.4-14.1s3.2-11.3 8.4-14.1l51.2-27.6L42.8 62.8c-1.7-5.6-.1-11.7 4-15.9s10.3-5.7 15.9-4l55.7 16.7L146 8.3c2.8-5.2 8.2-8.4 14.1-8.4zM160 112a48 48 0 1 1 0 96 48 48 0 1 1 0-96z"/></svg>