<svg xmlns="http://www.w3.org/2000/svg" viewBox="0 0 640 512"><!--! Font Awesome Pro 6.4.0 by @fontawesome - https://fontawesome.com License - https://fontawesome.com/license (Commercial License) Copyright 2023 Fonticons, Inc. --><defs><style>.fa-secondary{opacity:.4}</style></defs><path class="fa-primary" d="M144 288A144 144 0 1 0 144 0a144 144 0 1 0 0 288zM163.3 76.7l56 56c6.2 6.2 6.2 16.4 0 22.6l-56 56c-6.2 6.2-16.4 6.2-22.6 0s-6.2-16.4 0-22.6L169.4 160H80c-8.8 0-16-7.2-16-16s7.2-16 16-16h89.4L140.7 99.3c-6.2-6.2-6.2-16.4 0-22.6s16.4-6.2 22.6 0z"/><path class="fa-secondary" d="M250.2 284.3c42.4-32.1 69.8-83 69.8-140.3c0-28.6-6.8-55.7-19-79.6L381.2 6.1c11.2-8.2 26.4-8.2 37.6 0l176 128c11.2 8.2 15.9 22.6 11.6 35.8S589.9 192 576 192H559.4l.3 84.4c-2.3-1.5-4.4-3.2-6.5-4.9c-22.2-18.7-54.3-20.1-78.1-3.4c-18 12.4-40.1 20.3-59.2 20.3c-19.6 0-40.8-7.7-59.2-20.3c-22.1-15.5-51.6-15.5-73.7 0c-10 6.9-21.2 12.6-33 16.2zm51.3 25.6c11.1-7.9 25.9-7.9 37 0C361 325.4 388.5 336 416 336c26.9 0 55.4-10.8 77.4-26.1l0 0c11.9-8.5 28.1-7.8 39.2 1.7c14.4 11.9 32.5 21 50.6 25.2c17.2 4 27.9 21.2 23.9 38.4s-21.2 27.9-38.4 23.9c-24.5-5.7-44.9-16.5-58.2-25C481.5 389.7 449 400 416 400c-31.9 0-60.6-9.9-80.4-18.9c-5.8-2.7-11.1-5.3-15.6-7.7c-4.5 2.4-9.7 5.1-15.6 7.7c-19.8 9-48.5 18.9-80.4 18.9c-33 0-65.5-10.3-94.5-25.8c-13.4 8.4-33.7 19.3-58.2 25c-17.2 4-34.4-6.7-38.4-23.9s6.7-34.4 23.9-38.4c18.1-4.2 36.2-13.3 50.6-25.2c11.1-9.5 27.3-10.1 39.2-1.7l0 0C168.7 325.2 197.1 336 224 336c27.5 0 55-10.6 77.5-26.1zM416 448c26.9 0 55.4-10.8 77.4-26.1l0 0c11.9-8.5 28.1-7.8 39.2 1.7c14.4 11.9 32.5 21 50.6 25.2c17.2 4 27.9 21.2 23.9 38.4s-21.2 27.9-38.4 23.9c-24.5-5.7-44.9-16.5-58.2-25C481.5 501.7 449 512 416 512c-31.9 0-60.6-9.9-80.4-18.9c-5.8-2.7-11.1-5.3-15.6-7.7c-4.5 2.4-9.7 5.1-15.6 7.7c-19.8 9-48.5 18.9-80.4 18.9c-33 0-65.5-10.3-94.5-25.8c-13.4 8.4-33.7 19.3-58.2 25c-17.2 4-34.4-6.7-38.4-23.9s6.7-34.4 23.9-38.4c18.1-4.2 36.2-13.3 50.6-25.2c11.1-9.4 27.3-10.1 39.2-1.7l0 0C168.7 437.2 197.1 448 224 448c27.5 0 55-10.6 77.5-26.1c11.1-7.9 25.9-7.9 37 0C361 437.4 388.5 448 416 448z"/></svg>