<svg xmlns="http://www.w3.org/2000/svg" viewBox="0 0 576 512"><!--! Font Awesome Pro 6.4.0 by @fontawesome - https://fontawesome.com License - https://fontawesome.com/license (Commercial License) Copyright 2023 Fonticons, Inc. --><defs><style>.fa-secondary{opacity:.4}</style></defs><path class="fa-primary" d="M266.9 7.9C279-2.6 297-2.6 309.1 7.9l256 224c13.3 11.6 14.6 31.9 3 45.2s-31.9 14.6-45.2 3L288 74.5 53.1 280.1c-13.3 11.6-33.5 10.3-45.2-3s-10.3-33.5 3-45.2l256-224zM224 256a64 64 0 1 1 128 0 64 64 0 1 1 -128 0zm32 96h64c44.2 0 80 35.8 80 80c0 8.8-7.2 16-16 16H192c-8.8 0-16-7.2-16-16c0-44.2 35.8-80 80-80z"/><path class="fa-secondary" d="M64 270.5L64.1 448c0 35.3 28.7 64 64 64H448.5c35.4 0 64.1-28.7 64-64.1l-.4-177.3L288 74.5 64 270.5zM288 192a64 64 0 1 1 0 128 64 64 0 1 1 0-128zM176 432c0-44.2 35.8-80 80-80h64c44.2 0 80 35.8 80 80c0 8.8-7.2 16-16 16H192c-8.8 0-16-7.2-16-16z"/></svg>