<svg xmlns="http://www.w3.org/2000/svg" viewBox="0 0 576 512"><!--! Font Awesome Pro 6.4.0 by @fontawesome - https://fontawesome.com License - https://fontawesome.com/license (Commercial License) Copyright 2023 Fonticons, Inc. --><defs><style>.fa-secondary{opacity:.4}</style></defs><path class="fa-primary" d="M266.9 7.9C279-2.6 297-2.6 309.1 7.9l256 224c13.3 11.6 14.6 31.9 3 45.2s-31.9 14.6-45.2 3L288 74.5 53.1 280.1c-13.3 11.6-33.5 10.3-45.2-3s-10.3-33.5 3-45.2l256-224z"/><path class="fa-secondary" d="M64.1 448L64 270.5l224-196L512.1 270.6l.4 177.3c.1 35.4-28.6 64.1-64 64.1H326.4L288 448l80.8-67.3c7.8-6.5 7.6-18.6-.4-24.9L250.6 263.2c-14.6-11.5-33.8 7-22.8 22L288 368l-85.5 71.2c-6.1 5-7.5 13.8-3.5 20.5L230.4 512H128.1c-35.3 0-64-28.6-64-64z"/></svg>