<svg xmlns="http://www.w3.org/2000/svg" viewBox="0 0 576 512"><!-- Font Awesome Pro 6.0.0-alpha2 by @fontawesome - https://fontawesome.com License - https://fontawesome.com/license (Commercial License) --><defs><style>.fa-secondary{opacity:.4}</style></defs><path d="M32.006 288H64.03V388.912C72.557 381.034 83.572 376.406 95.381 376.406C136.263 376.406 129.835 416.023 192.42 416.023C256.944 416.023 245.647 376.365 287.74 376.001L288.018 375.998L288.295 376.001C330.499 376.366 319.139 416.023 383.643 416.023C446.279 416.023 439.531 376.406 480.678 376.406C492.473 376.406 503.477 381.023 512 388.878V288H544.006C561.742 288 576.006 273.601 576.006 256C576.006 246.947 572.164 238.103 565.084 231.906L512 185.46V47.984C512 39.156 504.844 31.984 496 31.984H432.004C423.162 31.984 416.006 39.156 416.006 47.984V101.472L309.084 7.921C303.054 2.639 295.529 -0.001 288.007 -0.001C281.81 -0.001 273.861 1.851 266.928 7.921L10.928 231.906C-11.245 251.314 2.607 288 32.006 288ZM224.02 213.375C224.02 201.5 233.645 192 245.395 192H330.641C342.391 192 352.016 201.5 352.016 213.375V298.625C352.016 310.5 342.391 320 330.641 320H245.395C233.645 320 224.02 310.375 224.02 298.625V213.375ZM192.358 511.812C192.412 511.812 192.467 511.802 192.522 511.802C192.504 511.802 192.486 511.802 192.469 511.802C187.379 511.802 182.313 511.242 177.235 510.863C182.276 511.24 187.303 511.812 192.358 511.812Z " class="fa-secondary"></path><path d="M562.355 448.398C502.315 442.077 496.338 408.406 480.621 408.406C461.445 408.406 454.071 448.024 383.585 448.024C313.164 448.024 305.746 408.154 287.961 408C270.272 408.153 262.761 448.024 192.364 448.024C122.908 448.024 114.371 408.734 95.529 408.734C95.1 408.734 94.672 408.749 94.246 408.781C94.762 408.706 95.265 408.528 95.791 408.528C95.815 408.528 95.839 408.528 95.863 408.529C95.682 408.523 95.51 408.406 95.328 408.406C95.09 408.406 87.91 409.077 84.121 413.687C46.806 459.084 0 435.848 0 464.015V496.046C0.002 504.672 6.93 512 15.433 512C16.139 512 48.089 510.709 82.809 493.328L82.811 493.33C87.326 491.07 91.857 488.826 96.121 486.187C124.279 503.332 158.373 511.811 192.301 511.811C226.427 511.811 260.385 503.233 287.961 486.265C315.418 503.159 349.188 511.425 383.167 511.425C387.674 511.425 392.185 511.28 396.686 510.99C392.302 511.361 387.923 511.802 383.529 511.802C383.509 511.802 383.49 511.802 383.471 511.802C383.525 511.802 383.58 511.812 383.635 511.812C384.65 511.812 436.488 512.576 479.828 486.187C517.122 509.268 556.504 512 560.515 512C569.019 512 575.947 504.672 575.949 496.046V464.015C575.949 456.164 570.262 449.203 562.355 448.398Z " class="fa-primary"></path></svg>