<svg xmlns="http://www.w3.org/2000/svg" viewBox="0 0 384 512"><!--! Font Awesome Pro 6.4.0 by @fontawesome - https://fontawesome.com License - https://fontawesome.com/license (Commercial License) Copyright 2023 Fonticons, Inc. --><defs><style>.fa-secondary{opacity:.4}</style></defs><path class="fa-primary" d="M179.6 96c-21 0-41.3 7.1-57.7 20.2L116 121c-13.8 11-33.9 8.8-45-5s-8.8-33.9 5-45l5.9-4.7C109.7 44.1 144.1 32 179.6 32H223c62.4 0 113 50.6 113 113c0 40.5-21.7 78-56.9 98.1L136.7 324.5c-15.3 8.7-24.7 25-24.7 42.5c0 27.1 21.9 49 49 49h43.4c21 0 41.3-7.1 57.7-20.2L268 391c13.8-11 33.9-8.8 45 5s8.8 33.9-5 45l-5.9 4.7c-27.7 22.2-62.2 34.3-97.7 34.3H161C98.6 480 48 429.4 48 367c0-40.6 21.7-78 56.9-98.1l142.4-81.4c15.3-8.7 24.7-25 24.7-42.5c0-27.1-21.9-49-49-49H179.6z"/><path class="fa-secondary" d="M260.9 176H32c-17.7 0-32 14.3-32 32s14.3 32 32 32H155.5l91.8-52.5c5.3-3 9.9-7 13.6-11.5zM99.8 272H32c-17.7 0-32 14.3-32 32s14.3 32 32 32H52.3c7.5-26.1 24.2-49 47.5-64zm23.2 64H352c17.7 0 32-14.3 32-32s-14.3-32-32-32H228.5l-91.8 52.5c-5.3 3-9.9 7-13.6 11.5zm161.1-96H352c17.7 0 32-14.3 32-32s-14.3-32-32-32H331.7c-7.5 26.1-24.2 49-47.5 64z"/></svg>