<svg xmlns="http://www.w3.org/2000/svg" viewBox="0 0 576 512"><!--! Font Awesome Pro 6.4.0 by @fontawesome - https://fontawesome.com License - https://fontawesome.com/license (Commercial License) Copyright 2023 Fonticons, Inc. --><defs><style>.fa-secondary{opacity:.4}</style></defs><path class="fa-primary" d="M32 336c0 26.5 21.5 48 48 48H464c26.5 0 48-21.5 48-48V315c0-44.1-30-82.4-72.7-93.1L320 192H272c-8.8 0-16-7.2-16-16s7.2-16 16-16h48V128H272c-8.8 0-16-7.2-16-16s7.2-16 16-16h48V32c0-17.7-14.3-32-32-32s-32 14.3-32 32L66.8 86.1C46.2 91.9 32 110.8 32 132.2V336z"/><path class="fa-secondary" d="M24 464c-13.3 0-24 10.7-24 24s10.7 24 24 24V464zm552-32c0-13.3-10.7-24-24-24s-24 10.7-24 24h48zm0 8v-8H528v8h48zM24 512h96V464H24v48zM96 384V488h48V384H96zm24 128H408V464H120v48zm288 0h96V464H408v48zm24-24V384H384V488h48zm96-48c0 13.3-10.7 24-24 24v48c39.8 0 72-32.2 72-72H528z"/></svg>