<svg xmlns="http://www.w3.org/2000/svg" viewBox="0 0 448 512"><!--! Font Awesome Pro 6.4.0 by @fontawesome - https://fontawesome.com License - https://fontawesome.com/license (Commercial License) Copyright 2023 Fonticons, Inc. --><defs><style>.fa-secondary{opacity:.4}</style></defs><path class="fa-primary" d="M199.8 495.6L80 256H372.6L252.7 495.6c-5 10-15.3 16.4-26.5 16.4s-21.5-6.3-26.5-16.4z"/><path class="fa-secondary" d="M368 144c0 5.4-.3 10.7-.9 16h.9c26.5 0 48 21.5 48 48s-21.5 48-48 48H314.5h-181H80c-26.5 0-48-21.5-48-48s21.5-48 48-48h.9c-.6-5.3-.9-10.6-.9-16C80 64.5 144.5 0 224 0s144 64.5 144 144z"/></svg>