<svg xmlns="http://www.w3.org/2000/svg" viewBox="0 0 512 512"><!--! Font Awesome Pro 6.4.0 by @fontawesome - https://fontawesome.com License - https://fontawesome.com/license (Commercial License) Copyright 2023 Fonticons, Inc. --><defs><style>.fa-secondary{opacity:.4}</style></defs><path class="fa-primary" d="M75.8 304.8L1 35.7c-.7-2.5-1-5-1-7.5C0 12.6 12.6 0 28.2 0H332.5c16.1 0 29.1 13 29.1 29.1c0 1.9-.2 3.8-.6 5.7L336 160 307.2 303.9c-1.9 9.3-10.1 16.1-19.6 16.1c-9.2 0-17.2-6.2-19.4-15.1L240 192 210.6 368.2c-1.5 9.1-9.4 15.8-18.6 15.8s-17.1-6.7-18.6-15.8L144 192 115.9 304.3c-2.3 9.2-10.6 15.7-20.1 15.7c-9.3 0-17.5-6.2-20-15.2z"/><path class="fa-secondary" d="M336 160l61.2 336.4c1.6 9 9.5 15.6 18.7 15.6c9.3 0 17.2-6.7 18.8-15.9L511.6 34.4c.3-1.6 .4-3.2 .4-4.9C512 13.2 498.8 0 482.4 0H342.1c-1.6 0-3.2 .1-4.8 .4c13.8 2.3 24.3 14.3 24.3 28.7c0 1.9-.2 3.8-.6 5.7L336 160l0 0z"/></svg>