<svg xmlns="http://www.w3.org/2000/svg" viewBox="0 0 640 512"><!--! Font Awesome Pro 6.4.0 by @fontawesome - https://fontawesome.com License - https://fontawesome.com/license (Commercial License) Copyright 2023 Fonticons, Inc. --><defs><style>.fa-secondary{opacity:.4}</style></defs><path class="fa-primary" d="M5.1 9.2C13.3-1.2 28.4-3.1 38.8 5.1l592 464c10.4 8.2 12.3 23.3 4.1 33.7s-23.3 12.3-33.7 4.1L9.2 42.9C-1.2 34.7-3.1 19.6 5.1 9.2z"/><path class="fa-secondary" d="M64.7 86.4l63.9 50.1c-.4 2.5-.6 5-.6 7.5c0 26.5 21.5 48 48 48c6.6 0 12.9-1.3 18.6-3.8L301 271.6l-20.4 29.9L259 273.4c-4.4-5.8-11.2-9.2-18.5-9.4s-14.2 3-18.9 8.5l-88 104c-6 7.1-7.4 17.1-3.5 25.6s12.4 13.9 21.8 13.9h96 72H485.2l65.3 51.1c-10.7 8.1-24 12.9-38.5 12.9H128c-35.3 0-64-28.7-64-64V96c0-3.3 .2-6.5 .7-9.6zM223.6 150c.2-2 .4-4 .4-6c0-26.5-21.5-48-48-48c-6.1 0-11.9 1.1-17.2 3.2L89.5 44.9C100.2 36.8 113.6 32 128 32H512c35.3 0 64 28.7 64 64V416c0 3.3-.2 6.5-.7 9.6l-75.9-59.5L387.8 202.5c-4.5-6.6-11.9-10.5-19.8-10.5s-15.4 3.9-19.8 10.5l-20 29.4L223.6 150z"/></svg>