<svg xmlns="http://www.w3.org/2000/svg" viewBox="0 0 512 512"><!--! Font Awesome Pro 6.4.0 by @fontawesome - https://fontawesome.com License - https://fontawesome.com/license (Commercial License) Copyright 2023 Fonticons, Inc. --><defs><style>.fa-secondary{opacity:.4}</style></defs><path class="fa-primary" d="M79.3 160l38.4-96H394.3l38.4 96h-45c-12.1 0-23.2 6.8-28.6 17.7l-14.3 28.6c-5.4 10.8-16.5 17.7-28.6 17.7H195.8c-12.1 0-23.2-6.8-28.6-17.7l-14.3-28.6c-5.4-10.8-16.5-17.7-28.6-17.7h-45zm33-160c-22.9 0-43.5 13.9-52 35.2L4 175.8c-2.6 6.6-4 13.7-4 20.8V264c0 30.9 25.1 56 56 56H456c30.9 0 56-25.1 56-56V196.6c0-7.1-1.4-14.2-4-20.8L451.7 35.2C443.2 13.9 422.6 0 399.8 0H112.2z"/><path class="fa-secondary" d="M79.3 160l38.4-96H394.3l38.4 96h-45c-12.1 0-23.2 6.8-28.6 17.7l-14.3 28.6c-5.4 10.8-16.5 17.7-28.6 17.7H195.8c-12.1 0-23.2-6.8-28.6-17.7l-14.3-28.6c-5.4-10.8-16.5-17.7-28.6-17.7h-45zM48 352h76.2c12.1 0 23.2 6.8 28.6 17.7l14.3 28.6c5.4 10.8 16.5 17.7 28.6 17.7H316.2c12.1 0 23.2-6.8 28.6-17.7l14.3-28.6c5.4-10.8 16.5-17.7 28.6-17.7H464c26.5 0 48 21.5 48 48v64c0 26.5-21.5 48-48 48H48c-26.5 0-48-21.5-48-48V400c0-26.5 21.5-48 48-48z"/></svg>