<svg xmlns="http://www.w3.org/2000/svg" viewBox="0 0 576 512"><!--! Font Awesome Pro 6.4.0 by @fontawesome - https://fontawesome.com License - https://fontawesome.com/license (Commercial License) Copyright 2023 Fonticons, Inc. --><defs><style>.fa-secondary{opacity:.4}</style></defs><path class="fa-primary" d="M363.9 148.8c11.5-6.6 15.5-21.2 8.9-32.7s-21.2-15.5-32.7-8.9L160 210.1v55.3L363.9 148.8zm192 0c11.5-6.6 15.5-21.2 8.9-32.7s-21.2-15.5-32.7-8.9L352 210.1v55.3L555.9 148.8zM136 312c-8.8 0-16 7.2-16 16v48c0 8.8 7.2 16 16 16h48c8.8 0 16-7.2 16-16V328c0-8.8-7.2-16-16-16H136zm128 0c-8.8 0-16 7.2-16 16v48c0 8.8 7.2 16 16 16h48c8.8 0 16-7.2 16-16V328c0-8.8-7.2-16-16-16H264zm112 16v48c0 8.8 7.2 16 16 16h48c8.8 0 16-7.2 16-16V328c0-8.8-7.2-16-16-16H392c-8.8 0-16 7.2-16 16z"/><path class="fa-secondary" d="M32 64c0-17.7 14.3-32 32-32h64c17.7 0 32 14.3 32 32V210.1v5.3 50L352 155.6v54.4 5.3 50L544 155.6V304 432c0 26.5-21.5 48-48 48H80c-26.5 0-48-21.5-48-48V352 304 64zM136 312c-8.8 0-16 7.2-16 16v48c0 8.8 7.2 16 16 16h48c8.8 0 16-7.2 16-16V328c0-8.8-7.2-16-16-16H136zm128 0c-8.8 0-16 7.2-16 16v48c0 8.8 7.2 16 16 16h48c8.8 0 16-7.2 16-16V328c0-8.8-7.2-16-16-16H264zm112 16v48c0 8.8 7.2 16 16 16h48c8.8 0 16-7.2 16-16V328c0-8.8-7.2-16-16-16H392c-8.8 0-16 7.2-16 16z"/></svg>