<svg xmlns="http://www.w3.org/2000/svg" viewBox="0 0 576 512"><!--! Font Awesome Pro 6.4.0 by @fontawesome - https://fontawesome.com License - https://fontawesome.com/license (Commercial License) Copyright 2023 Fonticons, Inc. --><defs><style>.fa-secondary{opacity:.4}</style></defs><path class="fa-primary" d="M372.8 116.1c6.6 11.5 2.6 26.2-8.9 32.7L160 265.4V210.1L340.1 107.2c11.5-6.6 26.2-2.6 32.7 8.9zm192 0c6.6 11.5 2.6 26.2-8.9 32.7L352 265.4V210.1L532.1 107.2c11.5-6.6 26.2-2.6 32.7 8.9z"/><path class="fa-secondary" d="M64 32C46.3 32 32 46.3 32 64V304v48 80c0 26.5 21.5 48 48 48H496c26.5 0 48-21.5 48-48V304 155.6L352 265.4v-50-5.3V155.6L160 265.4v-50-5.3V64c0-17.7-14.3-32-32-32H64z"/></svg>