<svg xmlns="http://www.w3.org/2000/svg" viewBox="0 0 320 512"><!--! Font Awesome Pro 6.4.0 by @fontawesome - https://fontawesome.com License - https://fontawesome.com/license (Commercial License) Copyright 2023 Fonticons, Inc. --><defs><style>.fa-secondary{opacity:.4}</style></defs><path class="fa-primary" d="M64 0H256c17.7 0 32 14.3 32 32s-14.3 32-32 32H64C46.3 64 32 49.7 32 32S46.3 0 64 0zM256 165.8c0 32.1-26 58.2-58.2 58.2L176 224l-32 0-21.8 0C90 224 64 198 64 165.8c0-3.2 2.6-5.8 5.8-5.8H112c19.1 0 36.3 8.4 48 21.7c11.7-13.3 28.9-21.7 48-21.7h42.2c3.2 0 5.8 2.6 5.8 5.8zM250.2 256c3.2 0 5.8 2.6 5.8 5.8c0 32.1-26 58.2-58.2 58.2L176 320l-32 0-21.8 0C90 320 64 294 64 261.8c0-3.2 2.6-5.8 5.8-5.8H112c19.1 0 36.3 8.4 48 21.7c11.7-13.3 28.9-21.7 48-21.7h42.2zm0 96c3.2 0 5.8 2.6 5.8 5.8c0 32.1-26 58.2-58.2 58.2L176 416v32c0 8.8-7.2 16-16 16s-16-7.2-16-16V416l-21.8 0C90 416 64 390 64 357.8c0-3.2 2.6-5.8 5.8-5.8H112c19.1 0 36.3 8.4 48 21.7c11.7-13.3 28.9-21.7 48-21.7h42.2z"/><path class="fa-secondary" d="M64 64C28.7 64 0 92.7 0 128V448c0 35.3 28.7 64 64 64H256c35.3 0 64-28.7 64-64V128c0-35.3-28.7-64-64-64H64zM176 224H122.2C90 224 64 198 64 165.8c0-3.2 2.6-5.8 5.8-5.8H112c19.1 0 36.3 8.4 48 21.7c11.7-13.3 28.9-21.7 48-21.7h42.2c3.2 0 5.8 2.6 5.8 5.8c0 32.1-26 58.2-58.2 58.2L176 224zm74.2 32c3.2 0 5.8 2.6 5.8 5.8c0 32.1-26 58.2-58.2 58.2H176 144 122.2C90 320 64 294 64 261.8c0-3.2 2.6-5.8 5.8-5.8l42.2 0c19.1 0 36.3 8.4 48 21.7c11.7-13.3 28.9-21.7 48-21.7h42.2zm0 96c3.2 0 5.8 2.6 5.8 5.8c0 32.1-26 58.2-58.2 58.2L176 416v32c0 8.8-7.2 16-16 16s-16-7.2-16-16V416l-21.8 0C90 416 64 390 64 357.8c0-3.2 2.6-5.8 5.8-5.8H112c19.1 0 36.3 8.4 48 21.7c11.7-13.3 28.9-21.7 48-21.7h42.2z"/></svg>