<svg xmlns="http://www.w3.org/2000/svg" viewBox="0 0 640 512"><!--! Font Awesome Pro 6.4.0 by @fontawesome - https://fontawesome.com License - https://fontawesome.com/license (Commercial License) Copyright 2023 Fonticons, Inc. --><defs><style>.fa-secondary{opacity:.4}</style></defs><path class="fa-primary" d="M160 24c0 13.3 10.7 24 24 24H296c13.3 0 24-10.7 24-24s-10.7-24-24-24H184c-13.3 0-24 10.7-24 24zm32 168H160l-54.6-54.6c-6-6-14.1-9.4-22.6-9.4H48c-8.8 0-16 7.2-16 16v80c-17.7 0-32 14.3-32 32s14.3 32 32 32v80c0 8.8 7.2 16 16 16H82.7c8.5 0 16.6-3.4 22.6-9.4L160 320h32H500.4c7.7 0 15.3-1.4 22.5-4.1L625 277.6c9-3.4 15-12 15-21.6s-6-18.2-15-21.6L522.9 196.1c-7.2-2.7-14.8-4.1-22.5-4.1H192zM80 240h64c8.8 0 16 7.2 16 16s-7.2 16-16 16H80c-8.8 0-16-7.2-16-16s7.2-16 16-16zM184 464c-13.3 0-24 10.7-24 24s10.7 24 24 24H296c13.3 0 24-10.7 24-24s-10.7-24-24-24H184z"/><path class="fa-secondary" d="M192 192V48h88L384 192H192zm0 128H384L280 464H192V320z"/></svg>