<svg xmlns="http://www.w3.org/2000/svg" viewBox="0 0 640 512"><!--! Font Awesome Pro 6.4.0 by @fontawesome - https://fontawesome.com License - https://fontawesome.com/license (Commercial License) Copyright 2023 Fonticons, Inc. --><defs><style>.fa-secondary{opacity:.4}</style></defs><path class="fa-primary" d="M96 24c0-13.3 10.7-24 24-24h80c13.3 0 24 10.7 24 24V48h8c13.3 0 24 10.7 24 24s-10.7 24-24 24H88C74.7 96 64 85.3 64 72s10.7-24 24-24h8V24zM0 256c0-70.7 57.3-128 128-128H256c70.7 0 128 57.3 128 128V448c0 35.3-28.7 64-64 64H64c-35.3 0-64-28.7-64-64V256zm256 0v96c0 17.7 14.3 32 32 32s32-14.3 32-32V256c0-17.7-14.3-32-32-32s-32 14.3-32 32z"/><path class="fa-secondary" d="M448 88c0-13.3 10.7-24 24-24h80c13.3 0 24 10.7 24 24v40H448V88zM416 392.6c.3-.2 .7-.4 1-.6c-.3-.2-.7-.4-1-.6V256c0-24.7-5.6-48.1-15.6-69c5.1-5.3 11.1-9.8 18-13l13.1-6.2c11-5.1 23-7.8 35.1-7.8h90.6c12.1 0 24.1 2.7 35.1 7.8l13.1 6.2c21 9.9 34.5 31 34.5 54.2c0 22.8-12.7 42.6-31.5 52.7C627.4 292 640 312.5 640 336c0 24.1-13.3 45.1-33 56c19.7 10.9 33 31.9 33 56c0 35.3-28.7 64-64 64H448c-17 0-32.5-6.7-44-17.5c7.6-13.8 12-29.6 12-46.5V392.6z"/></svg>