<svg xmlns="http://www.w3.org/2000/svg" viewBox="0 0 640 512"><!--! Font Awesome Pro 6.4.0 by @fontawesome - https://fontawesome.com License - https://fontawesome.com/license (Commercial License) Copyright 2023 Fonticons, Inc. --><defs><style>.fa-secondary{opacity:.4}</style></defs><path class="fa-primary" d="M448 400a144 144 0 1 0 0-288 144 144 0 1 0 0 288zm0-240a96 96 0 1 1 0 192 96 96 0 1 1 0-192z"/><path class="fa-secondary" d="M592 256c0 55.7-31.7 104.1-78 128h94c17.7 0 32-14.3 32-32V160c0-17.7-14.3-32-32-32H514c46.3 23.9 78 72.3 78 128zM224 384H382c-46.3-23.9-78-72.3-78-128s31.7-104.1 78-128H224c-3 0-6 .4-9 1.3l-192 56C9.4 189.3 0 201.8 0 216v80c0 14.2 9.4 26.7 23 30.7l192 56c2.9 .8 5.9 1.3 9 1.3zM427.3 212.7c-6.2-6.2-16.4-6.2-22.6 0s-6.2 16.4 0 22.6L425.4 256l-20.7 20.7c-6.2 6.2-6.2 16.4 0 22.6s16.4 6.2 22.6 0L448 278.6l20.7 20.7c6.2 6.2 16.4 6.2 22.6 0s6.2-16.4 0-22.6L470.6 256l20.7-20.7c6.2-6.2 6.2-16.4 0-22.6s-16.4-6.2-22.6 0L448 233.4l-20.7-20.7z"/></svg>