<svg xmlns="http://www.w3.org/2000/svg" viewBox="0 0 640 512"><!--! Font Awesome Pro 6.4.0 by @fontawesome - https://fontawesome.com License - https://fontawesome.com/license (Commercial License) Copyright 2023 Fonticons, Inc. --><defs><style>.fa-secondary{opacity:.4}</style></defs><path class="fa-primary" d="M512 64a64 64 0 1 1 0 128 64 64 0 1 1 0-128zm0 192c70.7 0 128-57.3 128-128S582.7 0 512 0C452.4 0 402.2 40.8 388 96L192 96c-17.7 0-32 14.3-32 32l0 64c0 17.7 14.3 32 32 32s32-14.3 32-32l0-32h32v32c0 17.7 14.3 32 32 32s32-14.3 32-32V160h68c14.2 55.2 64.3 96 124 96z"/><path class="fa-secondary" d="M128 448a64 64 0 1 1 0-128 64 64 0 1 1 0 128zm0-192C57.3 256 0 313.3 0 384s57.3 128 128 128c59.6 0 109.8-40.8 124-96l196 0c17.7 0 32-14.3 32-32l0-64c0-17.7-14.3-32-32-32s-32 14.3-32 32l0 32-32 0 0-32c0-17.7-14.3-32-32-32s-32 14.3-32 32l0 32-68 0c-14.2-55.2-64.3-96-124-96z"/></svg>