<svg xmlns="http://www.w3.org/2000/svg" viewBox="0 0 512 512"><!--! Font Awesome Pro 6.4.0 by @fontawesome - https://fontawesome.com License - https://fontawesome.com/license (Commercial License) Copyright 2023 Fonticons, Inc. --><defs><style>.fa-secondary{opacity:.4}</style></defs><path class="fa-primary" d="M168.3 229.7L282.3 343.7l0 0c16.9 5.4 35 8.3 53.7 8.3c97.2 0 176-78.8 176-176S433.2 0 336 0S160 78.8 160 176c0 18.7 2.9 36.8 8.3 53.7l0 0zM336 136a40 40 0 1 1 80 0 40 40 0 1 1 -80 0z"/><path class="fa-secondary" d="M168.3 229.7L282.3 343.7l0 0s0 0 0 0L249 377c-4.5 4.5-10.6 7-17 7H192v40c0 13.3-10.7 24-24 24H128v40c0 13.3-10.7 24-24 24H24c-13.3 0-24-10.7-24-24V408c0-6.4 2.5-12.5 7-17L168.3 229.7s0 0 0 0l0 0z"/></svg>