<svg xmlns="http://www.w3.org/2000/svg" viewBox="0 0 576 512"><!--! Font Awesome Pro 6.4.0 by @fontawesome - https://fontawesome.com License - https://fontawesome.com/license (Commercial License) Copyright 2023 Fonticons, Inc. --><defs><style>.fa-secondary{opacity:.4}</style></defs><path class="fa-primary" d="M80 64h32c8.8 0 16 7.2 16 16v32c0 8.8-7.2 16-16 16H80c-8.8 0-16-7.2-16-16V80c0-8.8 7.2-16 16-16zm73.8 302.8c3.7-9 12.5-14.8 22.2-14.8H400c9.7 0 18.5 5.8 22.2 14.8s1.7 19.3-5.2 26.2L305 505c-9.4 9.4-24.6 9.4-33.9 0L159 393c-6.9-6.9-8.9-17.2-5.2-26.2zM64 176c0-8.8 7.2-16 16-16h32c8.8 0 16 7.2 16 16v32c0 8.8-7.2 16-16 16H80c-8.8 0-16-7.2-16-16V176zm400-16h32c8.8 0 16 7.2 16 16v32c0 8.8-7.2 16-16 16H464c-8.8 0-16-7.2-16-16V176c0-8.8 7.2-16 16-16zM160 80c0-8.8 7.2-16 16-16h32c8.8 0 16 7.2 16 16v32c0 8.8-7.2 16-16 16H176c-8.8 0-16-7.2-16-16V80zM272 64h32c8.8 0 16 7.2 16 16v32c0 8.8-7.2 16-16 16H272c-8.8 0-16-7.2-16-16V80c0-8.8 7.2-16 16-16zm80 16c0-8.8 7.2-16 16-16h32c8.8 0 16 7.2 16 16v32c0 8.8-7.2 16-16 16H368c-8.8 0-16-7.2-16-16V80zM464 64h32c8.8 0 16 7.2 16 16v32c0 8.8-7.2 16-16 16H464c-8.8 0-16-7.2-16-16V80c0-8.8 7.2-16 16-16z"/><path class="fa-secondary" d="M0 64C0 28.7 28.7 0 64 0H512c35.3 0 64 28.7 64 64V224c0 35.3-28.7 64-64 64H64c-35.3 0-64-28.7-64-64V64zM64 80v32c0 8.8 7.2 16 16 16h32c8.8 0 16-7.2 16-16V80c0-8.8-7.2-16-16-16H80c-8.8 0-16 7.2-16 16zm16 80c-8.8 0-16 7.2-16 16v32c0 8.8 7.2 16 16 16h32c8.8 0 16-7.2 16-16V176c0-8.8-7.2-16-16-16H80zm80 16v32c0 8.8 7.2 16 16 16H400c8.8 0 16-7.2 16-16V176c0-8.8-7.2-16-16-16H176c-8.8 0-16 7.2-16 16zm304-16c-8.8 0-16 7.2-16 16v32c0 8.8 7.2 16 16 16h32c8.8 0 16-7.2 16-16V176c0-8.8-7.2-16-16-16H464zM160 80v32c0 8.8 7.2 16 16 16h32c8.8 0 16-7.2 16-16V80c0-8.8-7.2-16-16-16H176c-8.8 0-16 7.2-16 16zM272 64c-8.8 0-16 7.2-16 16v32c0 8.8 7.2 16 16 16h32c8.8 0 16-7.2 16-16V80c0-8.8-7.2-16-16-16H272zm80 16v32c0 8.8 7.2 16 16 16h32c8.8 0 16-7.2 16-16V80c0-8.8-7.2-16-16-16H368c-8.8 0-16 7.2-16 16zM464 64c-8.8 0-16 7.2-16 16v32c0 8.8 7.2 16 16 16h32c8.8 0 16-7.2 16-16V80c0-8.8-7.2-16-16-16H464z"/></svg>