<svg xmlns="http://www.w3.org/2000/svg" viewBox="0 0 576 512"><!--! Font Awesome Pro 6.4.0 by @fontawesome - https://fontawesome.com License - https://fontawesome.com/license (Commercial License) Copyright 2023 Fonticons, Inc. --><defs><style>.fa-secondary{opacity:.4}</style></defs><path class="fa-primary" d="M224 144A80 80 0 1 0 64 144a80 80 0 1 0 160 0zm60.4 32C269.9 240.1 212.5 288 144 288C64.5 288 0 223.5 0 144S64.5 0 144 0c68.5 0 125.9 47.9 140.4 112h71.8c8.8-9.8 21.6-16 35.8-16H496c26.5 0 48 21.5 48 48s-21.5 48-48 48H392c-14.2 0-27-6.2-35.8-16H284.4zM48 320h80 16 32c26.5 0 48 21.5 48 48s-21.5 48-48 48H160c0 17.7-14.3 32-32 32H64c-17.7 0-32-14.3-32-32V336c0-8.8 7.2-16 16-16zm128 64c8.8 0 16-7.2 16-16s-7.2-16-16-16H160v32h16zm336-64V464c0 26.5-21.5 48-48 48H336c-26.5 0-48-21.5-48-48V320H512z"/><path class="fa-secondary" d="M144 224a80 80 0 1 0 0-160 80 80 0 1 0 0 160zM16 480c-8.8 0-16 7.2-16 16s7.2 16 16 16H208c8.8 0 16-7.2 16-16s-7.2-16-16-16H16zM256 296c0 13.3 10.7 24 24 24H520c13.3 0 24-10.7 24-24s-10.7-24-24-24H424v-8c0-13.3-10.7-24-24-24s-24 10.7-24 24v8H280c-13.3 0-24 10.7-24 24z"/></svg>