<svg xmlns="http://www.w3.org/2000/svg" viewBox="0 0 576 512"><!--! Font Awesome Pro 6.4.0 by @fontawesome - https://fontawesome.com License - https://fontawesome.com/license (Commercial License) Copyright 2023 Fonticons, Inc. --><defs><style>.fa-secondary{opacity:.4}</style></defs><path class="fa-primary" d="M291.2 388.4c31.2-18.8 64.7-36.4 101.1-36.4H448c70.7 0 128-57.3 128-128s-57.3-128-128-128H392.3c-36.4 0-69.9-17.6-101.1-36.4C262.3 42.1 228.3 32 192 32C86 32 0 118 0 224S86 416 192 416c36.3 0 70.3-10.1 99.2-27.6zM448 200a24 24 0 1 1 0 48 24 24 0 1 1 0-48z"/><path class="fa-secondary" d="M477.6 348.6L546 471.8c3.5 6.4 10.9 9.5 18 7.7s12-8.2 12-15.5V224.3c-.1 60.4-42.1 111-98.4 124.3zM208 415.3V456c0 13.3 10.7 24 24 24s24-10.7 24-24V405.1c-15.2 5.4-31.3 8.9-48 10.3zm-112-25V456c0 13.3 10.7 24 24 24s24-10.7 24-24V410c-17-4.4-33.1-11-48-19.6z"/></svg>