<svg xmlns="http://www.w3.org/2000/svg" viewBox="0 0 448 512"><!--! Font Awesome Pro 6.4.0 by @fontawesome - https://fontawesome.com License - https://fontawesome.com/license (Commercial License) Copyright 2023 Fonticons, Inc. --><defs><style>.fa-secondary{opacity:.4}</style></defs><path class="fa-primary" d="M224 64c-8.8 0-16 7.2-16 16v24c0 8.8 7.2 16 16 16s16-7.2 16-16V80c0-8.8-7.2-16-16-16zM64 176c0 8.8 7.2 16 16 16h32c8.8 0 16-7.2 16-16s-7.2-16-16-16H80c-8.8 0-16 7.2-16 16zm256 0c0 8.8 7.2 16 16 16h32c8.8 0 16-7.2 16-16s-7.2-16-16-16H336c-8.8 0-16 7.2-16 16zm-96 56c-8.8 0-16 7.2-16 16v24c0 8.8 7.2 16 16 16s16-7.2 16-16V248c0-8.8-7.2-16-16-16zM116.7 92.7c-6.2 6.2-6.2 16.4 0 22.6l16 16c6.2 6.2 16.4 6.2 22.6 0s6.2-16.4 0-22.6l-16-16c-6.2-6.2-16.4-6.2-22.6 0zm192 0l-16 16c-6.2 6.2-6.2 16.4 0 22.6s16.4 6.2 22.6 0l16-16c6.2-6.2 6.2-16.4 0-22.6s-16.4-6.2-22.6 0zm-153.4 128c-6.2-6.2-16.4-6.2-22.6 0l-16 16c-6.2 6.2-6.2 16.4 0 22.6s16.4 6.2 22.6 0l16-16c6.2-6.2 6.2-16.4 0-22.6zm137.4 0c-6.2 6.2-6.2 16.4 0 22.6l16 16c6.2 6.2 16.4 6.2 22.6 0s6.2-16.4 0-22.6l-16-16c-6.2-6.2-16.4-6.2-22.6 0zM224 480c123.7 0 224-100.3 224-224V176c0 79.5-100.3 144-224 144S0 255.5 0 176v80C0 379.7 100.3 480 224 480z"/><path class="fa-secondary" d="M224 320c123.7 0 224-64.5 224-144S347.7 32 224 32S0 96.5 0 176s100.3 144 224 144zM240 80v24c0 8.8-7.2 16-16 16s-16-7.2-16-16V80c0-8.8 7.2-16 16-16s16 7.2 16 16zM80 160h32c8.8 0 16 7.2 16 16s-7.2 16-16 16H80c-8.8 0-16-7.2-16-16s7.2-16 16-16zm256 0h32c8.8 0 16 7.2 16 16s-7.2 16-16 16H336c-8.8 0-16-7.2-16-16s7.2-16 16-16zm-96 88v24c0 8.8-7.2 16-16 16s-16-7.2-16-16V248c0-8.8 7.2-16 16-16s16 7.2 16 16zM116.7 92.7c6.2-6.2 16.4-6.2 22.6 0l16 16c6.2 6.2 6.2 16.4 0 22.6s-16.4 6.2-22.6 0l-16-16c-6.2-6.2-6.2-16.4 0-22.6zm192 0c6.2-6.2 16.4-6.2 22.6 0s6.2 16.4 0 22.6l-16 16c-6.2 6.2-16.4 6.2-22.6 0s-6.2-16.4 0-22.6l16-16zm-153.4 128c6.2 6.2 6.2 16.4 0 22.6l-16 16c-6.2 6.2-16.4 6.2-22.6 0s-6.2-16.4 0-22.6l16-16c6.2-6.2 16.4-6.2 22.6 0zm137.4 0c6.2-6.2 16.4-6.2 22.6 0l16 16c6.2 6.2 6.2 16.4 0 22.6s-16.4 6.2-22.6 0l-16-16c-6.2-6.2-6.2-16.4 0-22.6zM224 200c-30.9 0-56-10.7-56-24s25.1-24 56-24s56 10.7 56 24s-25.1 24-56 24z"/></svg>