<svg xmlns="http://www.w3.org/2000/svg" viewBox="0 0 512 512"><!--! Font Awesome Pro 6.4.0 by @fontawesome - https://fontawesome.com License - https://fontawesome.com/license (Commercial License) Copyright 2023 Fonticons, Inc. --><defs><style>.fa-secondary{opacity:.4}</style></defs><path class="fa-primary" d="M192 65.9C192 29.5 221.5 0 257.9 0c17.5 0 34.3 6.9 46.6 19.3L349.3 64H480c12.9 0 24.6 7.8 29.6 19.8s2.2 25.7-6.9 34.9l-192 192c-9.2 9.2-22.9 11.9-34.9 6.9s-19.8-16.6-19.8-29.6V157.3l-44.7-44.7C198.9 100.2 192 83.4 192 65.9zM32 448H352c17.7 0 32 14.3 32 32s-14.3 32-32 32H32c-17.7 0-32-14.3-32-32s14.3-32 32-32z"/><path class="fa-secondary" d="M105.4 233.4L218.7 120 256 157.3v16l-92.6 92.6L209 448H143L97 263.8c-2.7-10.9 .5-22.4 8.4-30.4zM183.3 512c.5 0 .9 0 1.4 0h-1.4zM446.2 175.1c11 10.2 17.8 24.8 17.8 40.9c0 30.9-25.1 56-56 56c-16.2 0-30.7-6.8-40.9-17.8l79.1-79.1z"/></svg>