<svg xmlns="http://www.w3.org/2000/svg" viewBox="0 0 640 512"><!--! Font Awesome Pro 6.4.0 by @fontawesome - https://fontawesome.com License - https://fontawesome.com/license (Commercial License) Copyright 2023 Fonticons, Inc. --><defs><style>.fa-secondary{opacity:.4}</style></defs><path class="fa-primary" d="M320 0c13.3 0 24 10.7 24 24V168c0 13.3-10.7 24-24 24s-24-10.7-24-24V24c0-13.3 10.7-24 24-24zM36.3 138.3c7.5-10.9 22.5-13.6 33.4-6.1l104 72c10.9 7.5 13.6 22.5 6.1 33.4s-22.5 13.6-33.4 6.1l-104-72c-10.9-7.5-13.6-22.5-6.1-33.4zm534.1-6.1c10.9-7.5 25.8-4.8 33.4 6.1s4.8 25.8-6.1 33.4l-104 72c-10.9 7.5-25.8 4.8-33.4-6.1s-4.8-25.8 6.1-33.4l104-72z"/><path class="fa-secondary" d="M224 288c-17.7 0-32 14.3-32 32v32H448V320c0-17.7-14.3-32-32-32H224zm-66.3 96c-18.2 0-34.8 10.3-42.9 26.5L87.2 465.7C76.5 487 92 512 115.8 512H524.2c23.8 0 39.3-25 28.6-46.3l-27.6-55.2c-8.1-16.3-24.8-26.5-42.9-26.5H157.7z"/></svg>