<svg xmlns="http://www.w3.org/2000/svg" viewBox="0 0 640 512"><!--! Font Awesome Pro 6.4.0 by @fontawesome - https://fontawesome.com License - https://fontawesome.com/license (Commercial License) Copyright 2023 Fonticons, Inc. --><defs><style>.fa-secondary{opacity:.4}</style></defs><path class="fa-primary" d="M400 128H512v96c0 17.7 14.3 32 32 32h96V464c0 26.5-21.5 48-48 48H400c-26.5 0-48-21.5-48-48V176c0-26.5 21.5-48 48-48zm240 96H544V128l96 96z"/><path class="fa-secondary" d="M64 64C64 28.7 92.7 0 128 0H448c35.3 0 64 28.7 64 64V96H448V64H128V288H320v96H76.8C34.4 384 0 349.6 0 307.2C0 296.6 8.6 288 19.2 288H64V64z"/></svg>