<svg xmlns="http://www.w3.org/2000/svg" viewBox="0 0 384 512"><!--! Font Awesome Pro 6.4.0 by @fontawesome - https://fontawesome.com License - https://fontawesome.com/license (Commercial License) Copyright 2023 Fonticons, Inc. --><defs><style>.fa-secondary{opacity:.4}</style></defs><path class="fa-primary" d="M64 288c0-70.7 57.3-128 128-128c61.9 0 113.6 44 125.4 102.4c3.5 17.3 20.4 28.5 37.7 25s28.5-20.4 25-37.7C362.4 162 284.9 96 192 96C86 96 0 182 0 288c0 49.2 18.5 94 48.9 128H32c-17.7 0-32 14.3-32 32s14.3 32 32 32H192 352c17.7 0 32-14.3 32-32s-14.3-32-32-32H192c-70.7 0-128-57.3-128-128z"/><path class="fa-secondary" d="M144 32c-17.7 0-32 14.3-32 32v49.4c19.8-9.1 41.3-14.9 64-16.8L176 64c0-17.7-14.3-32-32-32zM112 188.1V256c0 17.7 14.3 32 32 32s32-14.3 32-32l0-95c-24 3-46 12.7-64 27.1zM208 161v95c0 17.7 14.3 32 32 32s32-14.3 32-32V188.1c-18-14.4-40-24.1-64-27.1zm64-47.6V64c0-17.7-14.3-32-32-32s-32 14.3-32 32V96.7c22.7 1.9 44.2 7.7 64 16.8z"/></svg>