<svg xmlns="http://www.w3.org/2000/svg" viewBox="0 0 512 512"><!-- Font Awesome Pro 6.0.0-alpha2 by @fontawesome - https://fontawesome.com License - https://fontawesome.com/license (Commercial License) --><defs><style>.fa-secondary{opacity:.4}</style></defs><path d="M487.25 236.25L429.125 210.001L267.5 283.25C259.875 286.625 251.875 288.375 243.625 288.375S227.375 286.625 219.75 283.25L58.125 210.001L0 236.25C-16.5 243.75 -16.5 268.75 0 276.25L233 381.875C239.75 385 247.5 385 254.25 381.875L487.25 276.25C503.75 268.75 503.75 243.75 487.25 236.25Z" class="fa-secondary"/><path d="M499.625 364.125L441.75 337.875L279.875 411.25C272.25 414.625 264.25 416.375 256 416.375S239.75 414.625 232.125 411.25L70.25 337.875L12.375 364.125C-4.125 371.625 -4.125 396.625 12.375 404.125L245.375 509.75C252.125 512.75 259.875 512.75 266.625 509.75L499.625 404.125C516.125 396.625 516.125 371.625 499.625 364.125ZM12.375 148L245.375 253.75C252.125 256.75 259.875 256.75 266.625 253.75L499.625 148C516.125 140.5 516.125 115.5 499.625 108L266.625 2.25C259.875 -0.75 252.125 -0.75 245.375 2.25L12.375 108C-4.125 115.5 -4.125 140.5 12.375 148Z" class="fa-primary"/></svg>