<svg xmlns="http://www.w3.org/2000/svg" viewBox="0 0 512 512"><!--! Font Awesome Pro 6.4.0 by @fontawesome - https://fontawesome.com License - https://fontawesome.com/license (Commercial License) Copyright 2023 Fonticons, Inc. --><defs><style>.fa-secondary{opacity:.4}</style></defs><path class="fa-primary" d="M7 505c-9.4-9.4-9.4-24.6 0-33.9L279.9 198.1c9.4-9.4 24.6-9.4 33.9 0s9.4 24.6 0 33.9L41 505c-9.4 9.4-24.6 9.4-33.9 0z"/><path class="fa-secondary" d="M470.6 258.4l-40.8 10.2c-6 1.5-8.1 9-3.7 13.4l22 22c17.7 17.7 17.7 46.3 0 64c-10.1 10.1-24.3 14.8-38.4 12.8l-75.1-10.7c-5.6-.8-9.5 5.4-6.4 10.1c13.9 20.8 11.1 48.5-6.6 66.2l-3.6 3.6c-17.9 17.9-45.2 22.3-67.8 11L219 445.5c-17.8-8.9-37.4-13.5-57.2-13.5H113.9L313.9 232.1c9.4-9.4 9.4-24.6 0-33.9s-24.6-9.4-33.9 0L80 398.1l0-47.8c0-19.9-4.6-39.5-13.5-57.2L50.9 261.9c-11.3-22.6-6.9-49.9 11-67.8l3.6-3.6c17.7-17.7 45.4-20.4 66.2-6.6c4.7 3.1 10.9-.8 10.1-6.4l-10.7-75.1c-2-14.1 2.7-28.3 12.8-38.4c17.7-17.7 46.3-17.7 64 0l22 22c4.4 4.4 11.9 2.3 13.4-3.7l10.2-40.8C259.7 17.1 281.6 0 306.7 0c18.3 0 35.4 9.1 45.5 24.4l9.5 14.3c3.8 5.6 10.6 8.3 17.2 6.6l20.1-5c20.4-5.1 42 .9 56.9 15.8s20.9 36.5 15.8 56.9l-5 20.1c-1.6 6.6 1 13.4 6.6 17.2l14.3 9.5C502.9 169.9 512 187 512 205.3c0 25.1-17.1 47-41.4 53.1z"/></svg>