<svg xmlns="http://www.w3.org/2000/svg" viewBox="0 0 576 512"><!--! Font Awesome Pro 6.4.0 by @fontawesome - https://fontawesome.com License - https://fontawesome.com/license (Commercial License) Copyright 2023 Fonticons, Inc. --><defs><style>.fa-secondary{opacity:.4}</style></defs><path class="fa-primary" d="M572.5 140c-7.3 28.4-8.1 60.8-5 89.9c.3 3.3 .5 6.7 .5 10.1c0 42.1-27.1 77.9-64.9 90.8c-14.3 4.9-28.6 10.6-39.3 21.3l-29.1 29.1c-12 12-28.3 18.7-45.3 18.7h-43c-17 0-33.3 6.7-45.3 18.7l-10.5 10.5c-12 12-28.3 18.7-45.3 18.7H199.8c-17 0-33.3 6.7-45.3 18.7l-35.9 35.9c-12.5 12.5-32.8 12.5-45.3 0s-12.5-32.8 0-45.3l35.9-35.9c12-12 18.7-28.3 18.7-45.3V330.5c0-17 6.7-33.3 18.7-45.3l10.5-10.5c12-12 18.7-28.3 18.7-45.3v-43c0-17 6.7-33.3 18.7-45.3l29.1-29.1c10.7-10.7 16.4-25 21.3-39.3C258.1 35.1 293.9 8 336 8c3.4 0 6.8 .2 10.1 .5c29.1 3.1 61.5 2.3 89.9-5C445 1.2 454.3 0 464 0c61.9 0 112 50.1 112 112c0 9.7-1.2 19-3.5 28zm-97.2-16.6c6.2-6.2 6.2-16.4 0-22.6s-16.4-6.2-22.6 0l-112 112L304 249.4V192c0-8.8-7.2-16-16-16s-16 7.2-16 16v89.4l-43.3 43.3c-6.2 6.2-6.2 16.4 0 22.6s16.4 6.2 22.6 0l48-48L358.6 240H448c8.8 0 16-7.2 16-16s-7.2-16-16-16H390.6l84.7-84.7z"/><path class="fa-secondary" d="M109.3 421.5L94.2 436.6C84 426.2 78.3 412.3 78.3 397.8l0-12.9c0-14.7-5.8-28.8-16.3-39.2L35.7 319.3c-10.4-10.4-16.3-24.5-16.3-39.2V244.4c0-13.1-5.3-25.4-11-37.1c-15.2-31.1-9.9-69.6 15.9-95.4c2.1-2.1 4.3-4.1 6.5-5.9C50.6 89.9 70 69.6 83 47.7c4.1-6.9 9.1-13.4 15-19.3c37.9-37.9 99.4-37.9 137.3 0c5.9 5.9 10.9 12.4 15 19.3c1.2 2.1 2.5 4.1 3.9 6.2c-3.6 5.9-6.6 12.3-8.9 18.9c-4.9 14.3-10.6 28.6-21.3 39.3l-29.1 29.1c-12 12-18.7 28.3-18.7 45.3v43c0 17-6.7 33.3-18.7 45.3l-10.5 10.5c-12 12-18.7 28.3-18.7 45.3v45.7c0 17-6.7 33.3-18.7 45.3zM475.3 123.3L390.6 208H448c8.8 0 16 7.2 16 16s-7.2 16-16 16H358.6l-59.3 59.3-48 48c-6.2 6.2-16.4 6.2-22.6 0s-6.2-16.4 0-22.6L272 281.4V192c0-8.8 7.2-16 16-16s16 7.2 16 16v57.4l36.7-36.7 112-112c6.2-6.2 16.4-6.2 22.6 0s6.2 16.4 0 22.6z"/></svg>