<svg xmlns="http://www.w3.org/2000/svg" viewBox="0 0 512 512"><!--! Font Awesome Pro 6.4.0 by @fontawesome - https://fontawesome.com License - https://fontawesome.com/license (Commercial License) Copyright 2023 Fonticons, Inc. --><defs><style>.fa-secondary{opacity:.4}</style></defs><path class="fa-primary" d="M0 256c0-6.7 2.8-13 7.7-17.6l112-104c7-6.5 17.2-8.2 25.9-4.4s14.4 12.5 14.4 22l0 56 96 0 0 96-96 0 0 56c0 9.5-5.7 18.2-14.4 22s-18.9 2.1-25.9-4.4l-112-104C2.8 269 0 262.7 0 256z"/><path class="fa-secondary" d="M512 256c0-6.7-2.8-13-7.7-17.6l-112-104c-7-6.5-17.2-8.2-25.9-4.4s-14.4 12.5-14.4 22l0 56-96 0 0 96 96 0 0 56c0 9.5 5.7 18.2 14.4 22s18.9 2.1 25.9-4.4l112-104c4.9-4.5 7.7-10.9 7.7-17.6z"/></svg>