<svg xmlns="http://www.w3.org/2000/svg" viewBox="0 0 448 512"><!--! Font Awesome Pro 6.4.0 by @fontawesome - https://fontawesome.com License - https://fontawesome.com/license (Commercial License) Copyright 2023 Fonticons, Inc. --><defs><style>.fa-secondary{opacity:.4}</style></defs><path class="fa-primary" d="M0 448c0-17.7 14.3-32 32-32H416c17.7 0 32 14.3 32 32s-14.3 32-32 32H32c-17.7 0-32-14.3-32-32z"/><path class="fa-secondary" d="M413.7 52.1c6.6 16.4-1.4 35-17.8 41.6L150.2 192l245.7 98.3c16.4 6.6 24.4 25.2 17.8 41.6s-25.2 24.4-41.6 17.8l-320-128C40 216.9 32 205.1 32 192s8-24.9 20.1-29.7l320-128c16.4-6.6 35 1.4 41.6 17.8z"/></svg>