<svg xmlns="http://www.w3.org/2000/svg" viewBox="0 0 448 512"><!--! Font Awesome Pro 6.4.0 by @fontawesome - https://fontawesome.com License - https://fontawesome.com/license (Commercial License) Copyright 2023 Fonticons, Inc. --><defs><style>.fa-secondary{opacity:.4}</style></defs><path class="fa-primary" d="M32 352c-17.7 0-32 14.3-32 32v64c0 17.7 14.3 32 32 32H416c17.7 0 32-14.3 32-32V384c0-17.7-14.3-32-32-32H32z"/><path class="fa-secondary" d="M224 32C135.6 32 64 103.6 64 192V352H384V192c0-88.4-71.6-160-160-160zM144 192c0 8.8-7.2 16-16 16s-16-7.2-16-16c0-61.9 50.1-112 112-112c8.8 0 16 7.2 16 16s-7.2 16-16 16c-44.2 0-80 35.8-80 80z"/></svg>