<svg xmlns="http://www.w3.org/2000/svg" viewBox="0 0 640 512"><!--! Font Awesome Pro 6.4.0 by @fontawesome - https://fontawesome.com License - https://fontawesome.com/license (Commercial License) Copyright 2023 Fonticons, Inc. --><defs><style>.fa-secondary{opacity:.4}</style></defs><path class="fa-primary" d="M60.2 448.8c-56.5-56.5-56.5-148 0-204.5L172.5 132c56.5-56.5 148-56.5 204.5 0c50 50 56.5 128.8 15.4 186.3l-1.1 1.6c-10.3 14.4-30.3 17.7-44.6 7.4s-17.7-30.3-7.4-44.6l1.1-1.6c22.9-32.1 19.3-76-8.6-103.9c-31.5-31.5-82.5-31.5-114 0L105.5 289.5C74 321 74 372 105.5 403.5c27.9 27.9 71.8 31.5 103.8 8.6l1.6-1.1c14.4-10.3 34.4-6.9 44.6 7.4s6.9 34.4-7.4 44.6l-1.6 1.1C189 505.3 110.2 498.7 60.2 448.8z"/><path class="fa-secondary" d="M579.8 63.2c56.5 56.5 56.5 148 0 204.5L467.5 380c-56.5 56.5-148 56.5-204.5 0c-50-50-56.5-128.8-15.4-186.3l1.1-1.6c10.3-14.4 30.3-17.7 44.6-7.4s17.7 30.3 7.4 44.6l-1.1 1.6c-22.9 32.1-19.3 76 8.6 103.8c31.5 31.5 82.5 31.5 114 0L534.5 222.5c31.5-31.5 31.5-82.5 0-114C506.7 80.6 462.7 77 430.7 99.9l-1.6 1.1c-14.4 10.3-34.4 6.9-44.6-7.4s-6.9-34.4 7.4-44.6l1.6-1.1C451 6.7 529.8 13.3 579.8 63.2z"/></svg>