<svg xmlns="http://www.w3.org/2000/svg" viewBox="0 0 576 512"><!--! Font Awesome Pro 6.4.0 by @fontawesome - https://fontawesome.com License - https://fontawesome.com/license (Commercial License) Copyright 2023 Fonticons, Inc. --><defs><style>.fa-secondary{opacity:.4}</style></defs><path class="fa-primary" d="M160 96C71.6 96 0 167.6 0 256s71.6 160 160 160h64c17.7 0 32-14.3 32-32s-14.3-32-32-32H160c-53 0-96-43-96-96s43-96 96-96h64c17.7 0 32-14.3 32-32s-14.3-32-32-32H160zm256 0H352c-17.7 0-32 14.3-32 32s14.3 32 32 32h64c53 0 96 43 96 96s-43 96-96 96H352c-17.7 0-32 14.3-32 32s14.3 32 32 32h64c88.4 0 160-71.6 160-160s-71.6-160-160-160z"/><path class="fa-secondary" d="M160 256c0-17.7 14.3-32 32-32H384c17.7 0 32 14.3 32 32s-14.3 32-32 32H192c-17.7 0-32-14.3-32-32z"/></svg>