<svg xmlns="http://www.w3.org/2000/svg" viewBox="0 0 512 512"><!--! Font Awesome Pro 6.4.0 by @fontawesome - https://fontawesome.com License - https://fontawesome.com/license (Commercial License) Copyright 2023 Fonticons, Inc. --><defs><style>.fa-secondary{opacity:.4}</style></defs><path class="fa-primary" d="M0 96C0 60.7 28.7 32 64 32H448c35.3 0 64 28.7 64 64V416c0 35.3-28.7 64-64 64H64c-35.3 0-64-28.7-64-64V96zm64 96V416H448V192H64zM363.3 96c-7.1 0-10.7 8.6-5.7 13.7l36.7 36.7c3.1 3.1 8.2 3.1 11.3 0l36.7-36.7c5-5 1.5-13.7-5.7-13.7H363.3z"/><path class="fa-secondary" d="M128 232c-13.3 0-24 10.7-24 24s10.7 24 24 24H384c13.3 0 24-10.7 24-24s-10.7-24-24-24H128zm0 88c-13.3 0-24 10.7-24 24s10.7 24 24 24H384c13.3 0 24-10.7 24-24s-10.7-24-24-24H128z"/></svg>