<svg xmlns="http://www.w3.org/2000/svg" viewBox="0 0 384 512"><!--! Font Awesome Pro 6.4.0 by @fontawesome - https://fontawesome.com License - https://fontawesome.com/license (Commercial License) Copyright 2023 Fonticons, Inc. --><defs><style>.fa-secondary{opacity:.4}</style></defs><path class="fa-primary" d="M96 32c17.7 0 32 14.3 32 32V416H352c17.7 0 32 14.3 32 32s-14.3 32-32 32H96c-17.7 0-32-14.3-32-32V64c0-17.7 14.3-32 32-32z"/><path class="fa-secondary" d="M64 213.6L23.2 225.2c-17 4.9-26.8 22.6-22 39.6s22.6 26.8 39.6 22L64 280.1V213.6zm64 48.3l136.8-39.1c17-4.9 26.8-22.6 22-39.6s-22.6-26.8-39.6-22L128 195.3v66.6z"/></svg>