<svg xmlns="http://www.w3.org/2000/svg" viewBox="0 0 640 512"><!--! Font Awesome Pro 6.4.0 by @fontawesome - https://fontawesome.com License - https://fontawesome.com/license (Commercial License) Copyright 2023 Fonticons, Inc. --><defs><style>.fa-secondary{opacity:.4}</style></defs><path class="fa-primary" d="M5.1 9.2C13.3-1.2 28.4-3.1 38.8 5.1l592 464c10.4 8.2 12.3 23.3 4.1 33.7s-23.3 12.3-33.7 4.1L9.2 42.9C-1.2 34.7-3.1 19.6 5.1 9.2z"/><path class="fa-secondary" d="M459 334.5c30-51.6 53-103.7 53-142.5C512 86 426 0 320 0C249.2 0 187.3 38.4 154 95.4l305 239zm-52.8 81.6L128.1 196.9c4.2 88.2 117.8 239.3 168.2 302.2c12.3 15.3 35.1 15.3 47.4 0c16.2-20.2 39-49.6 62.5-83.1z"/></svg>