<svg xmlns="http://www.w3.org/2000/svg" viewBox="0 0 448 512"><!--! Font Awesome Pro 6.4.0 by @fontawesome - https://fontawesome.com License - https://fontawesome.com/license (Commercial License) Copyright 2023 Fonticons, Inc. --><defs><style>.fa-secondary{opacity:.4}</style></defs><path class="fa-primary" d="M0 224C0 100.3 100.3 0 224 0S448 100.3 448 224v96c0 106-86 192-192 192H192C86 512 0 426 0 320V224zm153.6 96.3C121.2 323.5 96 350.8 96 384c0 35.3 28.7 64 64 64H288c35.3 0 64-28.7 64-64c0-33.2-25.2-60.5-57.6-63.7c1-3.7 1.6-7.6 1.6-11.6c0-7.3-1.8-14.4-5.3-20.7H304c44.2 0 80-35.8 80-80c0-26.5-21.5-48-48-48H304c-44.2 0-80 35.8-80 80c0-44.2-35.8-80-80-80H112c-26.5 0-48 21.5-48 48c0 44.2 35.8 80 80 80h13.3c-3.4 6.3-5.3 13.4-5.3 20.7c0 4 .6 7.9 1.6 11.6z"/><path class="fa-secondary" d="M144 288c-44.2 0-80-35.8-80-80c0-26.5 21.5-48 48-48h32c44.2 0 80 35.8 80 80c0-44.2 35.8-80 80-80h32c26.5 0 48 21.5 48 48c0 44.2-35.8 80-80 80H290.7c3.4 6.3 5.3 13.4 5.3 20.7c0 4-.6 7.9-1.6 11.6c32.3 3.2 57.6 30.5 57.6 63.7c0 35.3-28.7 64-64 64H160c-35.3 0-64-28.7-64-64c0-33.2 25.2-60.5 57.6-63.7c-1-3.7-1.6-7.6-1.6-11.6c0-7.3 1.8-14.4 5.3-20.7H144zM96 208c0 26.5 21.5 48 48 48h32c8.8 0 16-7.2 16-16c0-26.5-21.5-48-48-48H112c-8.8 0-16 7.2-16 16zm88 100.7c0 6.2 5.1 11.3 11.3 11.3h11.3 6 .6 21.5 .6 6 11.3c6.2 0 11.3-5.1 11.3-11.3c0-3-1.2-5.9-3.3-8l-8-8-4.2-4.2-.4-.4-10.3-10.3C234 274 229.1 272 224 272s-10 2-13.7 5.7L200 288l-.4 .4-4.2 4.2-8 8c-2.1 2.1-3.3 5-3.3 8zM195.3 352H160c-17.7 0-32 14.3-32 32s14.3 32 32 32H288c17.7 0 32-14.3 32-32s-14.3-32-32-32H252.7 195.3zM336 192H304c-26.5 0-48 21.5-48 48c0 8.8 7.2 16 16 16h32c26.5 0 48-21.5 48-48c0-8.8-7.2-16-16-16z"/></svg>