<svg xmlns="http://www.w3.org/2000/svg" viewBox="0 0 640 512"><!--! Font Awesome Pro 6.4.0 by @fontawesome - https://fontawesome.com License - https://fontawesome.com/license (Commercial License) Copyright 2023 Fonticons, Inc. --><defs><style>.fa-secondary{opacity:.4}</style></defs><path class="fa-primary" d="M352 32c0-17.7-14.3-32-32-32s-32 14.3-32 32V164.1c0 16.4-8.4 31.7-22.2 40.5L126.8 293c-14.9 9.5-19.3 29.3-9.8 44.2s29.3 19.3 44.2 9.8l139-88.4c7.3-4.6 13.9-10.1 19.9-16.1c5.9 6 12.6 11.5 19.9 16.1l139 88.4c14.9 9.5 34.7 5.1 44.2-9.8s5.1-34.7-9.8-44.2l-139-88.4c-13.8-8.8-22.2-24.1-22.2-40.5V32z"/><path class="fa-secondary" d="M256 210.8V165.3C256 127 225 96 186.7 96c-21.7 0-42.8 10.2-55.8 28.8c-15.4 22.1-44.3 65.4-71 116.9C33.4 292.6 7.5 354.2 .2 412c-.2 1.3-.2 2.6-.2 4v7c0 49.1 39.8 89 89 89c7.3 0 14.5-.9 21.6-2.7l72.7-18.2C226 480.5 256 442.1 256 398V286.7L161.2 347c-14.9 9.5-34.7 5.1-44.2-9.8s-5.1-34.7 9.8-44.2L256 210.8zM478.8 347L384 286.7V398c0 44.1 30 82.5 72.7 93.1l72.7 18.2c7.1 1.8 14.3 2.7 21.6 2.7c49.1 0 89-39.8 89-89v-7c0-1.3-.1-2.7-.2-4c-7.2-57.9-33.1-119.4-59.6-170.3c-26.8-51.5-55.6-94.8-71-116.9c-13-18.6-34-28.8-55.8-28.8C415 96 384 127 384 165.3v45.5L513.2 293c14.9 9.5 19.3 29.3 9.8 44.2s-29.3 19.3-44.2 9.8z"/></svg>