<svg xmlns="http://www.w3.org/2000/svg" viewBox="0 0 512 512"><!--! Font Awesome Pro 6.4.0 by @fontawesome - https://fontawesome.com License - https://fontawesome.com/license (Commercial License) Copyright 2023 Fonticons, Inc. --><defs><style>.fa-secondary{opacity:.4}</style></defs><path class="fa-primary" d="M272.8 10.9L244.8 95c-40.4 13.5-72.3 45.4-85.8 85.8l-84.1 28C68.4 211 64 217.1 64 224s4.4 13 10.9 15.2l84.1 28c13.5 40.4 45.4 72.3 85.8 85.8l28 84.1c2.2 6.5 8.3 10.9 15.2 10.9s13-4.4 15.2-10.9l28-84.1c40.4-13.5 72.3-45.4 85.8-85.8l84.1-28c6.5-2.2 10.9-8.3 10.9-15.2s-4.4-13-10.9-15.2l-84.1-28c-13.5-40.4-45.4-72.3-85.8-85.8l-28-84.1C301 4.4 294.9 0 288 0s-13 4.4-15.2 10.9zM288 192a32 32 0 1 1 0 64 32 32 0 1 1 0-64z"/><path class="fa-secondary" d="M171.9 294.9L9.4 457.4c-12.5 12.5-12.5 32.8 0 45.3s32.8 12.5 45.3 0L217.1 340.1c-18.4-11.3-34-26.8-45.3-45.3z"/></svg>