<svg xmlns="http://www.w3.org/2000/svg" viewBox="0 0 576 512"><!--! Font Awesome Pro 6.4.0 by @fontawesome - https://fontawesome.com License - https://fontawesome.com/license (Commercial License) Copyright 2023 Fonticons, Inc. --><defs><style>.fa-secondary{opacity:.4}</style></defs><path class="fa-primary" d="M400 224c-8.8 0-16-7.2-16-16V96 48c0-8.8 7.2-16 16-16h80c8.8 0 16 7.2 16 16V96c0 8.8-7.2 16-16 16H416v96c0 8.8-7.2 16-16 16zM0 208C0 128.5 64.5 64 144 64s144 64.5 144 144V384c0 35.3-28.7 64-64 64H64c-35.3 0-64-28.7-64-64V208zm64 0c0 8.8 7.2 16 16 16H208c8.8 0 16-7.2 16-16s-7.2-16-16-16H80c-8.8 0-16 7.2-16 16z"/><path class="fa-secondary" d="M400 224c-8.8 0-16-7.2-16-16V96 64H144c79.5 0 144 64.5 144 144V384c0 35.3-28.7 64-64 64H512c35.3 0 64-28.7 64-64V208c0-56.5-32.6-105.5-80-129V96c0 8.8-7.2 16-16 16H416v96c0 8.8-7.2 16-16 16z"/></svg>