<svg xmlns="http://www.w3.org/2000/svg" viewBox="0 0 512 512"><!--! Font Awesome Pro 6.4.0 by @fontawesome - https://fontawesome.com License - https://fontawesome.com/license (Commercial License) Copyright 2023 Fonticons, Inc. --><defs><style>.fa-secondary{opacity:.4}</style></defs><path class="fa-primary" d="M352 0h-8c-13.3 0-24 10.7-24 24V128c0 13.3 10.7 24 24 24s24-10.7 24-24V53.1C385.2 79 414.6 96 448 96h40c13.3 0 24-10.7 24-24c0-39.8-32.2-72-72-72H384h-8H352z"/><path class="fa-secondary" d="M320 96c-49.1 0-98.3 18.7-135.8 56.2c-45.8 37.2-67.8 76.7-88.4 113.5c-19.1 34.1-36.9 66-71.2 91.8C15 365 7.4 375.4 3.3 387.9c-11.1 33.5 7.1 69.8 40.6 80.9c0 0 100.1 43.3 244.1 43.3c166.5 0 224-147.4 224-224c0-49.1-18.7-98.3-56.2-135.8c-25.2-25.2-55.6-41.9-87.8-50.2V128c0 13.3-10.7 24-24 24s-24-10.7-24-24V96zm96 192c8.8 0 16 7.2 16 16c0 70.7-57.3 128-128 128c-8.8 0-16-7.2-16-16s7.2-16 16-16c53 0 96-43 96-96c0-8.8 7.2-16 16-16z"/></svg>