<svg xmlns="http://www.w3.org/2000/svg" viewBox="0 0 576 512"><!--! Font Awesome Pro 6.4.0 by @fontawesome - https://fontawesome.com License - https://fontawesome.com/license (Commercial License) Copyright 2023 Fonticons, Inc. --><defs><style>.fa-secondary{opacity:.4}</style></defs><path class="fa-primary" d="M302.8 312C334.9 271.9 408 174.6 408 120C408 53.7 354.3 0 288 0S168 53.7 168 120c0 54.6 73.1 151.9 105.2 192c7.7 9.6 22 9.6 29.6 0zM288 72a40 40 0 1 1 0 80 40 40 0 1 1 0-80z"/><path class="fa-secondary" d="M416 503V200.4c3.5-6.9 6.7-13.8 9.6-20.6c.5-1.2 1-2.5 1.5-3.7l116-46.4C558.9 123.4 576 135 576 152V422.8c0 9.8-6 18.6-15.1 22.3L416 503zM15.1 187.3l122.6-49c2.4 14.1 7.2 28.3 12.8 41.5c2.9 6.8 6.1 13.7 9.6 20.6V451.8L32.9 502.7C17.1 509 0 497.4 0 480.4V209.6c0-9.8 6-18.6 15.1-22.3zM384 255V504.3L192 449.4V255c20.5 31.3 42.3 59.6 56.2 77c20.5 25.6 59.1 25.6 79.6 0c13.9-17.4 35.7-45.7 56.2-77z"/></svg>