<svg xmlns="http://www.w3.org/2000/svg" viewBox="0 0 640 512"><!--! Font Awesome Pro 6.4.0 by @fontawesome - https://fontawesome.com License - https://fontawesome.com/license (Commercial License) Copyright 2023 Fonticons, Inc. --><defs><style>.fa-secondary{opacity:.4}</style></defs><path class="fa-primary" d="M320 64c-27.2 0-53.8 8-76.4 23.1l-37.1 24.8c-15.8 10.5-34.3 16.1-53.3 16.1H128c-17.7 0-32 14.3-32 32v64c0 123.7 100.3 224 224 224s224-100.3 224-224V160c0-17.7-14.3-32-32-32H486.8c-19 0-37.5-5.6-53.3-16.1L396.4 87.1C373.8 72 347.2 64 320 64zM192 208c0-8.8 7.2-16 16-16H432c8.8 0 16 7.2 16 16s-7.2 16-16 16H208c-8.8 0-16-7.2-16-16zm16 48H432c8.8 0 16 7.2 16 16s-7.2 16-16 16H208c-8.8 0-16-7.2-16-16s7.2-16 16-16zm16 80c0-8.8 7.2-16 16-16H400c8.8 0 16 7.2 16 16s-7.2 16-16 16H240c-8.8 0-16-7.2-16-16z"/><path class="fa-secondary" d="M128 128H56c-30.9 0-56 25.1-56 56v85c0 55.1 37.5 103.1 90.9 116.4l108 27c-26.6-17.1-49.3-39.7-66.5-66.1l-29.8-7.4C70.5 330.9 48 302.1 48 269V184c0-4.4 3.6-8 8-8H96V160c0-17.7 14.3-32 32-32zM441.1 412.5l108-27C602.5 372.1 640 324.1 640 269V184c0-30.9-25.1-56-56-56H512c17.7 0 32 14.3 32 32v16h40c4.4 0 8 3.6 8 8v85c0 33-22.5 61.8-54.5 69.9l-29.8 7.4c-17.3 26.4-40 49-66.5 66.1z"/></svg>