<svg xmlns="http://www.w3.org/2000/svg" viewBox="0 0 512 512"><!--! Font Awesome Pro 6.4.0 by @fontawesome - https://fontawesome.com License - https://fontawesome.com/license (Commercial License) Copyright 2023 Fonticons, Inc. --><defs><style>.fa-secondary{opacity:.4}</style></defs><path class="fa-primary" d="M480 56V200c0 9.7-5.8 18.5-14.8 22.2s-19.3 1.7-26.2-5.2l-40-40L177 399l40 40c6.9 6.9 8.9 17.2 5.2 26.2s-12.5 14.8-22.2 14.8H56c-13.3 0-24-10.7-24-24V312c0-9.7 5.8-18.5 14.8-22.2s19.3-1.7 26.2 5.2l40 40L335 113 295 73c-6.9-6.9-8.9-17.2-5.2-26.2s12.5-14.8 22.2-14.8H456c13.3 0 24 10.7 24 24z"/><path class="fa-secondary" d="M56 32H200c9.7 0 18.5 5.8 22.2 14.8s1.7 19.3-5.2 26.2l-40 40 79 79-64 64-79-79L73 217c-6.9 6.9-17.2 8.9-26.2 5.2S32 209.7 32 200V56c0-13.3 10.7-24 24-24zM256 320l64-64 79 79 40-40c6.9-6.9 17.2-8.9 26.2-5.2s14.8 12.5 14.8 22.2V456c0 13.3-10.7 24-24 24H312c-9.7 0-18.5-5.8-22.2-14.8s-1.7-19.3 5.2-26.2l40-40-79-79z"/></svg>