<svg xmlns="http://www.w3.org/2000/svg" viewBox="0 0 512 512"><!--! Font Awesome Pro 6.4.0 by @fontawesome - https://fontawesome.com License - https://fontawesome.com/license (Commercial License) Copyright 2023 Fonticons, Inc. --><defs><style>.fa-secondary{opacity:.4}</style></defs><path class="fa-primary" d="M243.6 19.6C283.7-20.4 371.9 2.8 440.5 71.5s91.9 156.8 51.8 196.9l-40.5 40.5C403.9 357 338.7 384 270.8 384H224c-53 0-96-43-96-96V241.3c0-67.9 27-133 75-181l40.7-40.7zm64 184.8c49.6 49.6 113.3 66.4 142.2 37.4s12.2-92.6-37.4-142.2S299.1 33.2 270.2 62.2s-12.2 92.6 37.4 142.2z"/><path class="fa-secondary" d="M343.9 168.1c-15.3-15.3-20.4-34.9-11.5-43.8s28.5-3.7 43.8 11.5s20.4 34.9 11.5 43.8s-28.5 3.7-43.8-11.5zm-220 146.5l6.3-6.3c7.9 36.7 36.8 65.6 73.5 73.5l-6.3 6.3c-12.3 12.3-11.4 32.5-7.2 49.4c1.1 4.6 1.8 9.5 1.8 14.5c0 33.1-26.9 60-60 60s-60-26.9-60-60c0-6.3-5.7-12-12-12c-33.1 0-60-26.9-60-60s26.9-60 60-60c5 0 9.8 .6 14.5 1.8c16.9 4.2 37.1 5.2 49.4-7.2z"/></svg>