<svg xmlns="http://www.w3.org/2000/svg" viewBox="0 0 512 512"><!--! Font Awesome Pro 6.4.0 by @fontawesome - https://fontawesome.com License - https://fontawesome.com/license (Commercial License) Copyright 2023 Fonticons, Inc. --><defs><style>.fa-secondary{opacity:.4}</style></defs><path class="fa-primary" d="M256 512a176 176 0 1 0 0-352 176 176 0 1 0 0 352zm30.8-225.5c1.4 2.8 4 4.7 7 5.1l50.1 7.3c7.7 1.1 10.7 10.5 5.2 16l-36.3 35.4c-2.2 2.2-3.2 5.2-2.7 8.3l8.6 49.9c1.3 7.6-6.7 13.5-13.6 9.9l-44.8-23.6c-2.7-1.4-6-1.4-8.7 0l-44.8 23.6c-6.9 3.6-14.9-2.2-13.6-9.9l8.6-49.9c.5-3-.5-6.1-2.7-8.3l-36.3-35.4c-5.6-5.4-2.5-14.8 5.2-16l50.1-7.3c3-.4 5.7-2.4 7-5.1l22.4-45.4c3.4-7 13.3-7 16.8 0l22.4 45.4z"/><path class="fa-secondary" d="M124.6 218.9L4.1 38.2C1.4 34.2 0 29.4 0 24.6C0 11 11 0 24.6 0H133.9c11.2 0 21.7 5.9 27.4 15.5L248 160l-.4 .2c-48.9 2.3-92.5 24.5-123 58.7zm262.8 0c-30.5-34.2-74.2-56.4-123-58.7l-.4-.2L350.7 15.5C356.5 5.9 366.9 0 378.1 0H487.4C501 0 512 11 512 24.6c0 4.8-1.4 9.6-4.1 13.6L387.4 218.9z"/></svg>