<svg xmlns="http://www.w3.org/2000/svg" viewBox="0 0 576 512"><!--! Font Awesome Pro 6.4.0 by @fontawesome - https://fontawesome.com License - https://fontawesome.com/license (Commercial License) Copyright 2023 Fonticons, Inc. --><defs><style>.fa-secondary{opacity:.4}</style></defs><path class="fa-primary" d="M544 32c-17.7 0-32 14.3-32 32V448c0 17.7 14.3 32 32 32s32-14.3 32-32V64c0-17.7-14.3-32-32-32zM160 384c0 53 43 96 96 96c46.8 0 85.8-33.5 94.3-77.8L303.7 389c-2.5 24.2-22.9 43-47.7 43c-26.5 0-48-21.5-48-48c0-7.4 1.7-14.5 4.7-20.8L166.2 350c-4 10.6-6.2 22-6.2 34z"/><path class="fa-secondary" d="M64 190.9L512 64V448L64 321.1C63.4 338.2 49.3 352 32 352c-17.7 0-32-14.3-32-32V192c0-17.7 14.3-32 32-32c17.3 0 31.4 13.8 32 30.9z"/></svg>