<svg xmlns="http://www.w3.org/2000/svg" viewBox="0 0 576 512"><!--! Font Awesome Pro 6.4.0 by @fontawesome - https://fontawesome.com License - https://fontawesome.com/license (Commercial License) Copyright 2023 Fonticons, Inc. --><defs><style>.fa-secondary{opacity:.4}</style></defs><path class="fa-primary" d="M192 160v64c0 17.7-14.3 32-32 32s-32-14.3-32-32V160c0-17.7 14.3-32 32-32s32 14.3 32 32zm128 0v64c0 17.7-14.3 32-32 32s-32-14.3-32-32V160c0-17.7 14.3-32 32-32s32 14.3 32 32zm128 0v64c0 17.7-14.3 32-32 32s-32-14.3-32-32V160c0-17.7 14.3-32 32-32s32 14.3 32 32zM0 416V320H576v96c0 17.7-14.3 32-32 32H496V416c0-8.8-7.2-16-16-16s-16 7.2-16 16v32H368V416c0-8.8-7.2-16-16-16s-16 7.2-16 16v32H240V416c0-8.8-7.2-16-16-16s-16 7.2-16 16v32H112V416c0-8.8-7.2-16-16-16s-16 7.2-16 16v32H32c-17.7 0-32-14.3-32-32z"/><path class="fa-secondary" d="M64 64C28.7 64 0 92.7 0 128v7.4c0 6.8 4.4 12.6 10.1 16.3C23.3 160.3 32 175.1 32 192s-8.7 31.7-21.9 40.3C4.4 236 0 241.8 0 248.6V320H576V248.6c0-6.8-4.4-12.6-10.1-16.3C552.7 223.7 544 208.9 544 192s8.7-31.7 21.9-40.3c5.7-3.7 10.1-9.5 10.1-16.3V128c0-35.3-28.7-64-64-64H64zm128 96v64c0 17.7-14.3 32-32 32s-32-14.3-32-32V160c0-17.7 14.3-32 32-32s32 14.3 32 32zm128 0v64c0 17.7-14.3 32-32 32s-32-14.3-32-32V160c0-17.7 14.3-32 32-32s32 14.3 32 32zm128 0v64c0 17.7-14.3 32-32 32s-32-14.3-32-32V160c0-17.7 14.3-32 32-32s32 14.3 32 32z"/></svg>