<svg xmlns="http://www.w3.org/2000/svg" viewBox="0 0 576 512"><!--! Font Awesome Pro 6.4.0 by @fontawesome - https://fontawesome.com License - https://fontawesome.com/license (Commercial License) Copyright 2023 Fonticons, Inc. --><defs><style>.fa-secondary{opacity:.4}</style></defs><path class="fa-primary" d="M288 368a144 144 0 1 1 288 0 144 144 0 1 1 -288 0zm168-72a24 24 0 1 0 -48 0 24 24 0 1 0 48 0zm-40 56c-8.8 0-16 7.2-16 16s7.2 16 16 16h0v48h0c-8.8 0-16 7.2-16 16s7.2 16 16 16h16 16c8.8 0 16-7.2 16-16s-7.2-16-16-16V368c0-8.8-7.2-16-16-16H416z"/><path class="fa-secondary" d="M64 0C28.7 0 0 28.7 0 64V448c0 35.3 28.7 64 64 64H320c3.3 0 6.6-.3 9.7-.7C285.1 479.3 256 427.1 256 368c0-80.6 54.1-148.5 128-169.4V64c0-35.3-28.7-64-64-64H64zM80 128H304c8.8 0 16 7.2 16 16s-7.2 16-16 16H80c-8.8 0-16-7.2-16-16s7.2-16 16-16zM64 240c0-8.8 7.2-16 16-16H240c8.8 0 16 7.2 16 16s-7.2 16-16 16H80c-8.8 0-16-7.2-16-16zm0 96c0-8.8 7.2-16 16-16h96c8.8 0 16 7.2 16 16s-7.2 16-16 16H80c-8.8 0-16-7.2-16-16z"/></svg>