<svg xmlns="http://www.w3.org/2000/svg" viewBox="0 0 640 512"><!--! Font Awesome Pro 6.4.0 by @fontawesome - https://fontawesome.com License - https://fontawesome.com/license (Commercial License) Copyright 2023 Fonticons, Inc. --><defs><style>.fa-secondary{opacity:.4}</style></defs><path class="fa-primary" d="M64 160c0-17.7-14.3-32-32-32s-32 14.3-32 32V288c0 53 43 96 96 96H288v64H160c-17.7 0-32 14.3-32 32s14.3 32 32 32H320 480c17.7 0 32-14.3 32-32s-14.3-32-32-32H352V384H544c53 0 96-43 96-96V160c0-17.7-14.3-32-32-32s-32 14.3-32 32V288c0 17.7-14.3 32-32 32H352V160c0-17.7-14.3-32-32-32s-32 14.3-32 32V320H96c-17.7 0-32-14.3-32-32V160zm96 0c0-17.7-14.3-32-32-32s-32 14.3-32 32v96 32h64V256 160zm96 0c0-17.7-14.3-32-32-32s-32 14.3-32 32v96 32h64V256 160zm192 0c0-17.7-14.3-32-32-32s-32 14.3-32 32v96 32h64V256 160zm96 0c0-17.7-14.3-32-32-32s-32 14.3-32 32v96 32h64V256 160z"/><path class="fa-secondary" d="M2.7 49.7L20.8 7.4C22.8 2.9 27.1 0 32 0s9.2 2.9 11.2 7.4L61.3 49.7c1.8 4.1 2.7 8.6 2.7 13.1V64c0 17.7-14.3 32-32 32S0 81.7 0 64V62.8c0-4.5 .9-8.9 2.7-13.1zm96 0L116.8 7.4C118.8 2.9 123.1 0 128 0s9.2 2.9 11.2 7.4l18.2 42.4c1.8 4.1 2.7 8.6 2.7 13.1V64c0 17.7-14.3 32-32 32s-32-14.3-32-32V62.8c0-4.5 .9-8.9 2.7-13.1zM212.8 7.4C214.8 2.9 219.1 0 224 0s9.2 2.9 11.2 7.4l18.2 42.4c1.8 4.1 2.7 8.6 2.7 13.1V64c0 17.7-14.3 32-32 32s-32-14.3-32-32V62.8c0-4.5 .9-8.9 2.7-13.1L212.8 7.4zm77.8 42.4L308.8 7.4C310.8 2.9 315.1 0 320 0s9.2 2.9 11.2 7.4l18.2 42.4c1.8 4.1 2.7 8.6 2.7 13.1V64c0 17.7-14.3 32-32 32s-32-14.3-32-32V62.8c0-4.5 .9-8.9 2.7-13.1zM404.8 7.4C406.8 2.9 411.1 0 416 0s9.2 2.9 11.2 7.4l18.2 42.4c1.8 4.1 2.7 8.6 2.7 13.1V64c0 17.7-14.3 32-32 32s-32-14.3-32-32V62.8c0-4.5 .9-8.9 2.7-13.1L404.8 7.4zm77.8 42.4L500.8 7.4C502.8 2.9 507.1 0 512 0s9.2 2.9 11.2 7.4l18.2 42.4c1.8 4.1 2.7 8.6 2.7 13.1V64c0 17.7-14.3 32-32 32s-32-14.3-32-32V62.8c0-4.5 .9-8.9 2.7-13.1zM596.8 7.4C598.8 2.9 603.1 0 608 0s9.2 2.9 11.2 7.4l18.2 42.4c1.8 4.1 2.7 8.6 2.7 13.1V64c0 17.7-14.3 32-32 32s-32-14.3-32-32V62.8c0-4.5 .9-8.9 2.7-13.1L596.8 7.4z"/></svg>