<svg xmlns="http://www.w3.org/2000/svg" viewBox="0 0 512 512"><!--! Font Awesome Pro 6.4.0 by @fontawesome - https://fontawesome.com License - https://fontawesome.com/license (Commercial License) Copyright 2023 Fonticons, Inc. --><defs><style>.fa-secondary{opacity:.4}</style></defs><path class="fa-primary" d="M256 320c13.3 0 24-10.7 24-24V177.9l31 31c9.4 9.4 24.6 9.4 33.9 0s9.4-24.6 0-33.9l-72-72c-9.4-9.4-24.6-9.4-33.9 0l-72 72c-9.4 9.4-9.4 24.6 0 33.9s24.6 9.4 33.9 0l31-31V296c0 13.3 10.7 24 24 24z"/><path class="fa-secondary" d="M0 64C0 28.7 28.7 0 64 0H448c35.3 0 64 28.7 64 64V352c0 35.3-28.7 64-64 64H309.3L185.6 508.8c-4.8 3.6-11.3 4.2-16.8 1.5s-8.8-8.2-8.8-14.3V416H64c-35.3 0-64-28.7-64-64V64zM280 296V177.9l31 31c9.4 9.4 24.6 9.4 33.9 0s9.4-24.6 0-33.9l-72-72c-9.4-9.4-24.6-9.4-33.9 0l-72 72c-9.4 9.4-9.4 24.6 0 33.9s24.6 9.4 33.9 0l31-31V296c0 13.3 10.7 24 24 24s24-10.7 24-24z"/></svg>