<svg xmlns="http://www.w3.org/2000/svg" viewBox="0 0 640 512"><!--! Font Awesome Pro 6.4.0 by @fontawesome - https://fontawesome.com License - https://fontawesome.com/license (Commercial License) Copyright 2023 Fonticons, Inc. --><defs><style>.fa-secondary{opacity:.4}</style></defs><path class="fa-primary" d="M136.2 92.4c6.6-18.6 24.2-31.1 44-31.1h48.5c29.1 0 52.6 23.6 52.6 52.6c0 18.8-10.1 36.3-26.4 45.6L228 175c-.2 10.9-9.1 19.6-20 19.6c-11 0-20-9-20-20V163.5c0-7.2 3.8-13.8 10-17.3L235 124.9c3.9-2.3 6.3-6.4 6.3-10.9c0-7-5.7-12.6-12.6-12.6H180.2c-2.8 0-5.3 1.8-6.3 4.4l-.4 1c-3.7 10.4-15.1 15.9-25.5 12.2s-15.9-15.1-12.2-25.5l.4-1zM181.3 248a26.7 26.7 0 1 1 53.3 0 26.7 26.7 0 1 1 -53.3 0zM256 384V352h96c53 0 96-43 96-96V128H576c35.3 0 64 28.7 64 64V384c0 35.3-28.7 64-64 64H544v48c0 6.1-3.4 11.6-8.8 14.3s-11.9 2.1-16.8-1.5L437.3 448H320c-35.3 0-64-28.7-64-64z"/><path class="fa-secondary" d="M64 0C28.7 0 0 28.7 0 64V256c0 35.3 28.7 64 64 64H96v48c0 6.1 3.4 11.6 8.8 14.3s11.9 2.1 16.8-1.5L202.7 320H352c35.3 0 64-28.7 64-64V64c0-35.3-28.7-64-64-64H64zm72.2 92.4c6.6-18.6 24.2-31.1 44-31.1h48.5c29.1 0 52.6 23.6 52.6 52.6c0 18.8-10.1 36.3-26.4 45.6L228 175c-.2 10.9-9.1 19.6-20 19.6c-11 0-20-9-20-20V163.5c0-7.2 3.8-13.8 10-17.3L235 124.9c3.9-2.3 6.3-6.4 6.3-10.9c0-7-5.7-12.6-12.6-12.6H180.2c-2.8 0-5.3 1.8-6.3 4.4l-.4 1c-3.7 10.4-15.1 15.9-25.5 12.2s-15.9-15.1-12.2-25.5l.4-1zM181.3 248a26.7 26.7 0 1 1 53.3 0 26.7 26.7 0 1 1 -53.3 0z"/></svg>