<svg xmlns="http://www.w3.org/2000/svg" viewBox="0 0 640 512"><!--! Font Awesome Pro 6.4.0 by @fontawesome - https://fontawesome.com License - https://fontawesome.com/license (Commercial License) Copyright 2023 Fonticons, Inc. --><defs><style>.fa-secondary{opacity:.4}</style></defs><path class="fa-primary" d="M429.2 347.3l75.3-141.2c4.6-8.7 13.7-14.1 23.5-14.1s18.9 5.4 23.5 14.1l75.3 141.2c8.7 16.2 13.2 34.3 13.2 52.7c0 61.9-50.1 112-112 112s-112-50.1-112-112c0-18.4 4.5-36.5 13.2-52.7z"/><path class="fa-secondary" d="M400.6 467.3C359.5 495.5 309.7 512 256 512C114.6 512 0 397.4 0 256S114.6 0 256 0C366.8 0 461.2 70.4 496.8 169c-8.5 5.3-15.7 12.9-20.6 22.1L400.9 332.2C389.8 353.1 384 376.4 384 400c0 24.3 6 47.2 16.6 67.3zM160 128c-17.7 0-32 14.3-32 32v32c0 17.7 14.3 32 32 32s32-14.3 32-32V160c0-17.7-14.3-32-32-32zm96 0c-17.7 0-32 14.3-32 32v32c0 17.7 14.3 32 32 32s32-14.3 32-32V160c0-17.7-14.3-32-32-32zm96 0c-17.7 0-32 14.3-32 32v32c0 17.7 14.3 32 32 32s32-14.3 32-32V160c0-17.7-14.3-32-32-32z"/></svg>