<svg xmlns="http://www.w3.org/2000/svg" viewBox="0 0 640 512"><!--! Font Awesome Pro 6.4.0 by @fontawesome - https://fontawesome.com License - https://fontawesome.com/license (Commercial License) Copyright 2023 Fonticons, Inc. --><defs><style>.fa-secondary{opacity:.4}</style></defs><path class="fa-primary" d="M5.1 9.2C13.3-1.2 28.4-3.1 38.8 5.1l592 464c10.4 8.2 12.3 23.3 4.1 33.7s-23.3 12.3-33.7 4.1L9.2 42.9C-1.2 34.7-3.1 19.6 5.1 9.2z"/><path class="fa-secondary" d="M401.3 412.2l-43.1-33.9C346.1 382 333.3 384 320 384c-70.7 0-128-57.3-128-128v-8.7L144.7 210c-.5 1.9-.7 3.9-.7 6v40c0 89.1 66.2 162.7 152 174.4V464H248c-13.3 0-24 10.7-24 24s10.7 24 24 24h72 72c13.3 0 24-10.7 24-24s-10.7-24-24-24H344V430.4c20.4-2.8 39.7-9.1 57.3-18.2zm70.8-67.5c15.2-26 23.9-56.3 23.9-88.7V216c0-13.3-10.7-24-24-24s-24 10.7-24 24v24 16c0 21.2-5.1 41.1-14.2 58.7l38.3 30zM408 294.5c5.2-11.8 8-24.8 8-38.5H358.9L408 294.5zM324.4 229c2.9-3.1 7-5 11.6-5h80V192H336c-8.8 0-16-7.2-16-16s7.2-16 16-16h80V128H336c-8.8 0-16-7.2-16-16s7.2-16 16-16h80c0-53-43-96-96-96s-96 43-96 96v54.3L324.4 229z"/></svg>