<svg xmlns="http://www.w3.org/2000/svg" viewBox="0 0 512 512"><!--! Font Awesome Pro 6.4.0 by @fontawesome - https://fontawesome.com License - https://fontawesome.com/license (Commercial License) Copyright 2023 Fonticons, Inc. --><defs><style>.fa-secondary{opacity:.4}</style></defs><path class="fa-primary" d="M56 224H200c13.3 0 24-10.7 24-24V56c0-9.7-5.8-18.5-14.8-22.2s-19.3-1.7-26.2 5.2L143 79 69.7 5.7C66 2 61.1 0 56 0S46 2 42.3 5.7L5.7 42.3C2 46 0 50.9 0 56s2 10 5.7 13.7L79 143 39 183c-6.9 6.9-8.9 17.2-5.2 26.2s12.5 14.8 22.2 14.8zm400 64H312c-13.3 0-24 10.7-24 24V456c0 9.7 5.8 18.5 14.8 22.2s19.3 1.7 26.2-5.2l40-40 73.4 73.4c3.6 3.6 8.5 5.7 13.7 5.7s10-2 13.7-5.7l36.7-36.7c3.6-3.6 5.7-8.5 5.7-13.7s-2-10-5.7-13.7L433 369l40-40c6.9-6.9 8.9-17.2 5.2-26.2s-12.5-14.8-22.2-14.8z"/><path class="fa-secondary" d="M456 224H312c-13.3 0-24-10.7-24-24V56c0-9.7 5.8-18.5 14.8-22.2s19.3-1.7 26.2 5.2l40 40L442.3 5.7C446 2 450.9 0 456 0s10 2 13.7 5.7l36.7 36.7C510 46 512 50.9 512 56s-2 10-5.7 13.7L433 143l40 40c6.9 6.9 8.9 17.2 5.2 26.2s-12.5 14.8-22.2 14.8zM56 288H200c13.3 0 24 10.7 24 24V456c0 9.7-5.8 18.5-14.8 22.2s-19.3 1.7-26.2-5.2l-40-40L69.7 506.3C66 510 61.1 512 56 512s-10-2-13.7-5.7L5.7 469.7C2 466 0 461.1 0 456s2-10 5.7-13.7L79 369 39 329c-6.9-6.9-8.9-17.2-5.2-26.2s12.5-14.8 22.2-14.8z"/></svg>