<svg xmlns="http://www.w3.org/2000/svg" viewBox="0 0 576 512"><!--! Font Awesome Pro 6.4.0 by @fontawesome - https://fontawesome.com License - https://fontawesome.com/license (Commercial License) Copyright 2023 Fonticons, Inc. --><defs><style>.fa-secondary{opacity:.4}</style></defs><path class="fa-primary" d="M376 112a40 40 0 1 0 0-80 40 40 0 1 0 0 80zM216 352a40 40 0 1 0 0-80 40 40 0 1 0 0 80z"/><path class="fa-secondary" d="M312 24c0-13.3-10.7-24-24-24s-24 10.7-24 24v94.1l-98 98L91.3 230.4C38.3 240.6 0 287 0 341c0 41.4 33.6 75 75 75c50.5 0 94.3-33.5 108.1-81.2c-4.5-6.5-7.1-14.3-7.1-22.8c0-14.2 7.4-26.6 18.5-33.7l5.4-28.2L264 185.9v72.4c14.7 13.2 24 32.3 24 53.7c0 39.8-32.2 72-72 72c-7.2 0-14.2-1.1-20.8-3c-2.1 8.4-3.2 17.1-3.2 25.9V416c0 53 43 96 96 96s96-43 96-96v-9.1c0-25.1-9-49.4-25.3-68.4L312 284V185.9L376.1 250l14.4 74.7C400.6 377.7 447 416 501 416c41.4 0 75-33.6 75-75c0-54-38.3-100.3-91.3-110.5L410 216.1l-98-98V24z"/></svg>