<svg xmlns="http://www.w3.org/2000/svg" viewBox="0 0 448 512"><!--! Font Awesome Pro 6.4.0 by @fontawesome - https://fontawesome.com License - https://fontawesome.com/license (Commercial License) Copyright 2023 Fonticons, Inc. --><defs><style>.fa-secondary{opacity:.4}</style></defs><path class="fa-primary" d="M314.7 234.7L283.2 108.9C267.2 44.9 209.7 0 143.8 0h-3.4C62.8 0 0 62.8 0 140.3c0 13 1.8 26 5.4 38.6L64 384H352l79.2-85.8c10.8-11.7 16.8-27 16.8-42.9c0-34.9-28.3-63.3-63.3-63.3H382c-19 0-37.2 8.2-49.7 22.6l-17.6 20.1z"/><path class="fa-secondary" d="M64 384c-17.7 0-32 14.3-32 32v64c0 17.7 14.3 32 32 32H352c17.7 0 32-14.3 32-32V416c0-17.7-14.3-32-32-32H64z"/></svg>