<svg xmlns="http://www.w3.org/2000/svg" viewBox="0 0 384 512"><!--! Font Awesome Pro 6.4.0 by @fontawesome - https://fontawesome.com License - https://fontawesome.com/license (Commercial License) Copyright 2023 Fonticons, Inc. --><defs><style>.fa-secondary{opacity:.4}</style></defs><path class="fa-primary" d="M16 64C16 28.7 44.7 0 80 0H304c35.3 0 64 28.7 64 64V384H16V64z"/><path class="fa-secondary" d="M368 384H16v64c0 35.3 28.7 64 64 64H304c35.3 0 64-28.7 64-64V384zM160 432h64c8.8 0 16 7.2 16 16s-7.2 16-16 16H160c-8.8 0-16-7.2-16-16s7.2-16 16-16z"/></svg>