<svg xmlns="http://www.w3.org/2000/svg" viewBox="0 0 576 512"><!--! Font Awesome Pro 6.4.0 by @fontawesome - https://fontawesome.com License - https://fontawesome.com/license (Commercial License) Copyright 2023 Fonticons, Inc. --><defs><style>.fa-secondary{opacity:.4}</style></defs><path class="fa-primary" d="M64 32C28.7 32 0 60.7 0 96V416c0 35.3 28.7 64 64 64H512c35.3 0 64-28.7 64-64V96c0-35.3-28.7-64-64-64H64zM512 96V416H64V96H512z"/><path class="fa-secondary" d="M512 96H64V256H192c6.1 0 11.6 3.4 14.3 8.8L224 300.2l49.7-99.4c2.7-5.4 8.3-8.8 14.3-8.8s11.6 3.4 14.3 8.8L329.9 256H400c8.8 0 16 7.2 16 16s-7.2 16-16 16H320c-6.1 0-11.6-3.4-14.3-8.8L288 243.8l-49.7 99.4c-2.7 5.4-8.3 8.8-14.3 8.8s-11.6-3.4-14.3-8.8L182.1 288H64V416H512V96z"/></svg>