<svg xmlns="http://www.w3.org/2000/svg" viewBox="0 0 640 512"><!--! Font Awesome Pro 6.4.0 by @fontawesome - https://fontawesome.com License - https://fontawesome.com/license (Commercial License) Copyright 2023 Fonticons, Inc. --><defs><style>.fa-secondary{opacity:.4}</style></defs><path class="fa-primary" d="M528 272c0-8.8-7.2-16-16-16s-16 7.2-16 16v16H448V272c0-8.8-7.2-16-16-16s-16 7.2-16 16v16H400c-8.8 0-16 7.2-16 16s7.2 16 16 16h16l0 48H400c-8.8 0-16 7.2-16 16s7.2 16 16 16h16l0 48H400c-8.8 0-16 7.2-16 16s7.2 16 16 16h16v16c0 8.8 7.2 16 16 16s16-7.2 16-16V480h48v16c0 8.8 7.2 16 16 16s16-7.2 16-16V480h48v16c0 8.8 7.2 16 16 16s16-7.2 16-16V480h16c8.8 0 16-7.2 16-16s-7.2-16-16-16H608V400h16c8.8 0 16-7.2 16-16s-7.2-16-16-16H608V320h16c8.8 0 16-7.2 16-16s-7.2-16-16-16H608V272c0-8.8-7.2-16-16-16s-16 7.2-16 16v16H528V272zm48 48v48H528V320h48zm0 80v48H528V400h48zM448 368V320h48v48H448zm0 80V400h48v48H448z"/><path class="fa-secondary" d="M161.7 440.8c-4 7.9-.7 17.5 7.2 21.5s17.5 .7 21.5-7.2l32-64c1.1-2.2 1.7-4.7 1.7-7.2l0-41.4 32-32v50c0 17.7 14.3 32 32 32s32-14.3 32-32v-50l42.9 42.9c3-3.7 6.6-6.9 10.6-9.5c-12.9-8.6-21.5-23.3-21.5-40c0-2.1 .1-4.2 .4-6.2L320 265.4V242.2l40.2 35c6.1-9.1 15.2-15.9 25.9-19.2c6-19.7 24.3-34.1 45.9-34.1c16.7 0 31.4 8.5 40 21.5c8.6-12.9 23.3-21.5 40-21.5s31.4 8.5 40 21.5c2.1-3.1 4.5-6 7.3-8.6c-12.9-16.9-32.2-28.6-54.7-31.4L344.7 181.6l49.6-41.3c5.1-4.2 7-11.1 4.9-17.4L385.3 81.2l29-58.1c4-7.9 .7-17.5-7.2-21.5s-17.5-.7-21.5 7.2l-32 64c-1.9 3.8-2.2 8.2-.9 12.2l12.5 37.6L320 160.5V137.9c0-14.9-10.1-27.3-23.8-31V63.7c0-4.5-3.7-8.2-8.2-8.2s-8.2 3.7-8.2 8.2V107c-13.7 3.6-23.8 16.1-23.8 31v22.6l-45.4-37.8 12.5-37.6c1.3-4 1-8.4-.9-12.2l-32-64c-4-7.9-13.6-11.1-21.5-7.2s-11.1 13.6-7.2 21.5l29 58.1-13.9 41.7c-2.1 6.2-.1 13.1 4.9 17.4l49.6 41.3L71.4 205.5C30.6 210.6 0 245.2 0 286.3c0 72.6 87.8 109 139.2 57.6L256 242.2v23.1l-59.3 59.3c-3 3-4.7 7.1-4.7 11.3l0 44.2-30.3 60.6z"/></svg>