<svg xmlns="http://www.w3.org/2000/svg" viewBox="0 0 640 512"><!--! Font Awesome Pro 6.4.0 by @fontawesome - https://fontawesome.com License - https://fontawesome.com/license (Commercial License) Copyright 2023 Fonticons, Inc. --><defs><style>.fa-secondary{opacity:.4}</style></defs><path class="fa-primary" d="M463.6 505.6c9.8-8.9 10.7-24.3 2.1-34.3l-42-49V367.6c0-5.5-1.8-10.8-5.1-15.1L352 266v0l-32-29.2L288 266v0l-66.6 86.4c-3.3 4.3-5.1 9.6-5.1 15.1l0 54.7-42 49c-8.6 10.1-7.7 25.5 2.1 34.3s24.7 7.9 33.4-2.1l48-55.9c3.8-4.4 5.9-10.2 5.9-16.1l0-55.4L288 344.4l0 63.2c0 17.7 14.3 32 32 32s32-14.3 32-32l0-63.2 24.4 31.6 0 55.4c0 5.9 2.1 11.7 5.9 16.1l48 55.9c8.6 10.1 23.6 11 33.4 2.1zm-231.3-303l66.4-10.4h42.7l66.3 10.4 40.8-40.8c7.8-7.8 9.4-20.1 3.9-29.8L428.5 90.3l38.2-50.8c8-10.6 6.1-25.9-4.3-34.1s-25.2-6.2-33.2 4.4l-48 63.8c-5.9 7.9-6.6 18.6-1.7 27.2l22.6 39.4L352 190.4l0-38.1c0-14.9-10.2-27.4-24-31l0-57.1c0-4.4-3.6-8-8-8s-8 3.6-8 8l0 57.1c-13.8 3.6-24 16.1-24 31l0 38.1-50.2-50.2 22.6-39.4c4.9-8.6 4.2-19.3-1.7-27.2l-48-63.8c-8-10.6-22.9-12.6-33.2-4.4s-12.3 23.5-4.3 34.1l38.2 50.8L187.6 132c-5.5 9.7-3.9 21.9 3.9 29.8l40.8 40.8z"/><path class="fa-secondary" d="M320 237.1L154.6 388.3C97.6 448.2 0 405.8 0 321.1c0-48 34-88.4 79.3-94.3l219.3-34.4 42.7 0 219.3 34.4c45.3 5.9 79.4 46.4 79.4 94.4c0 84.7-97.6 127.1-154.6 67.2L320 237.1z"/></svg>