<svg xmlns="http://www.w3.org/2000/svg" viewBox="0 0 640 512"><!--! Font Awesome Pro 6.4.0 by @fontawesome - https://fontawesome.com License - https://fontawesome.com/license (Commercial License) Copyright 2023 Fonticons, Inc. --><defs><style>.fa-secondary{opacity:.4}</style></defs><path class="fa-primary" d="M280 32c-13.3 0-24 10.7-24 24s10.7 24 24 24h57.7l16.4 30.3L256 192l-45.3-45.3c-12-12-28.3-18.7-45.3-18.7H64c-17.7 0-32 14.3-32 32v32h96c88.4 0 160 71.6 160 160c0 11-1.1 21.7-3.2 32h70.4c-2.1-10.3-3.2-21-3.2-32c0-52.2 25-98.6 63.7-127.8l75.2 139.2c6.3 11.7 20.9 16 32.5 9.7s16-20.9 9.7-32.5L418.2 128H480c17.7 0 32-14.3 32-32V64c0-17.7-14.3-32-32-32H459.6c-7.5 0-14.7 2.6-20.5 7.4L391.7 78.9l-14-26c-7-12.9-20.5-21-35.2-21H280zM128 384a32 32 0 1 0 0-64 32 32 0 1 0 0 64z"/><path class="fa-secondary" d="M128 416c26.9 0 49.9-16.5 59.3-40h66.4C242.5 435.2 190.5 480 128 480C57.3 480 0 422.7 0 352s57.3-128 128-128c62.5 0 114.5 44.8 125.8 104H187.3c-9.5-23.5-32.5-40-59.3-40c-35.3 0-64 28.7-64 64s28.7 64 64 64zm256-64c0-40 18.4-75.7 47.1-99.2l31.6 58.4C453.5 322.3 448 336.5 448 352c0 35.3 28.7 64 64 64s64-28.7 64-64s-28.7-64-64-64c-2.4 0-4.8 .1-7.1 .4L473.3 230c12.2-3.9 25.2-6 38.7-6c70.7 0 128 57.3 128 128s-57.3 128-128 128s-128-57.3-128-128z"/></svg>