<svg xmlns="http://www.w3.org/2000/svg" viewBox="0 0 512 512"><!--! Font Awesome Pro 6.4.0 by @fontawesome - https://fontawesome.com License - https://fontawesome.com/license (Commercial License) Copyright 2023 Fonticons, Inc. --><defs><style>.fa-secondary{opacity:.4}</style></defs><path class="fa-primary" d="M396.6 224H272c-10.1 0-19.6 4.7-25.6 12.8l-25.6 34.1c-6.4 8.5-19.2 8.5-25.6 0l-59.5-79.3L8.6 394.4C3 403.3 0 413.6 0 424.1C0 455 25 480 55.9 480H456.1c30.9 0 55.9-25 55.9-55.9c0-10.5-3-20.8-8.6-29.7L396.6 224z"/><path class="fa-secondary" d="M396.6 224H272c-10.1 0-19.6 4.7-25.6 12.8l-25.6 34.1c-6.4 8.5-19.2 8.5-25.6 0l-59.5-79.3L225.2 49c6.6-10.6 18.3-17 30.8-17s24.1 6.4 30.8 17L396.6 224z"/></svg>