<svg xmlns="http://www.w3.org/2000/svg" viewBox="0 0 384 512"><!--! Font Awesome Pro 6.4.0 by @fontawesome - https://fontawesome.com License - https://fontawesome.com/license (Commercial License) Copyright 2023 Fonticons, Inc. --><defs><style>.fa-secondary{opacity:.4}</style></defs><path class="fa-primary" d="M96 64H288c17.7 0 32 14.3 32 32v64c0 17.7-14.3 32-32 32H96c-17.7 0-32-14.3-32-32V96c0-17.7 14.3-32 32-32zM224 352a32 32 0 1 0 -64 0 32 32 0 1 0 64 0zM96 352a96 96 0 1 1 192 0A96 96 0 1 1 96 352z"/><path class="fa-secondary" d="M0 64C0 28.7 28.7 0 64 0H320c35.3 0 64 28.7 64 64V448c0 35.3-28.7 64-64 64H64c-35.3 0-64-28.7-64-64V64zM288 352A96 96 0 1 0 96 352a96 96 0 1 0 192 0zM96 64C78.3 64 64 78.3 64 96v64c0 17.7 14.3 32 32 32H288c17.7 0 32-14.3 32-32V96c0-17.7-14.3-32-32-32H96z"/></svg>