<svg xmlns="http://www.w3.org/2000/svg" viewBox="0 0 576 512"><!--! Font Awesome Pro 6.4.0 by @fontawesome - https://fontawesome.com License - https://fontawesome.com/license (Commercial License) Copyright 2023 Fonticons, Inc. --><defs><style>.fa-secondary{opacity:.4}</style></defs><path class="fa-primary" d="M32 96c0-17.7 14.3-32 32-32H384c17.7 0 32 14.3 32 32V352c0 53-43 96-96 96H128c-53 0-96-43-96-96V96z"/><path class="fa-secondary" d="M416 320h32c70.7 0 128-57.3 128-128s-57.3-128-128-128H384c17.7 0 32 14.3 32 32v32h32c35.3 0 64 28.7 64 64s-28.7 64-64 64H416v64z"/></svg>