<svg xmlns="http://www.w3.org/2000/svg" viewBox="0 0 512 512"><!--! Font Awesome Pro 6.4.0 by @fontawesome - https://fontawesome.com License - https://fontawesome.com/license (Commercial License) Copyright 2023 Fonticons, Inc. --><defs><style>.fa-secondary{opacity:.4}</style></defs><path class="fa-primary" d="M416 448c53 0 96-35.8 96-80s-43-80-96-80s-96 35.8-96 80s43 80 96 80zM96 512c53 0 96-35.8 96-80s-43-80-96-80s-96 35.8-96 80s43 80 96 80z"/><path class="fa-secondary" d="M499.1 6.3c8.1 6 12.9 15.6 12.9 25.7v72V368c0-34.8-26.7-64.5-64-75.4V147L192 223.8V432c0-34.8-26.7-64.5-64-75.4V200 128c0-14.1 9.3-26.6 22.8-30.7l320-96c9.7-2.9 20.2-1.1 28.3 5z"/></svg>