<svg xmlns="http://www.w3.org/2000/svg" viewBox="0 0 640 512"><!--! Font Awesome Pro 6.4.0 by @fontawesome - https://fontawesome.com License - https://fontawesome.com/license (Commercial License) Copyright 2023 Fonticons, Inc. --><defs><style>.fa-secondary{opacity:.4}</style></defs><path class="fa-primary" d="M5.1 9.2C13.3-1.2 28.4-3.1 38.8 5.1l592 464c10.4 8.2 12.3 23.3 4.1 33.7s-23.3 12.3-33.7 4.1L9.2 42.9C-1.2 34.7-3.1 19.6 5.1 9.2z"/><path class="fa-secondary" d="M512 32c0-9.9-4.5-19.2-12.3-25.2S481.8-1.4 472.2 1l-128 32C330 36.5 320 49.3 320 64v64 97.5l64 50.2V153L487.8 127C502 123.5 512 110.7 512 96V32zM320 348.1v11.6c-14.5-4.9-30.8-7.7-48-7.7c-61.9 0-112 35.8-112 80s50.1 80 112 80s112-35.8 112-80V398.5l-64-50.4z"/></svg>