<svg xmlns="http://www.w3.org/2000/svg" viewBox="0 0 384 512"><!--! Font Awesome Pro 6.4.0 by @fontawesome - https://fontawesome.com License - https://fontawesome.com/license (Commercial License) Copyright 2023 Fonticons, Inc. --><defs><style>.fa-secondary{opacity:.4}</style></defs><path class="fa-primary" d="M80 176a112 112 0 1 1 224 0A112 112 0 1 1 80 176zM224 349.1c81.9-15 144-86.8 144-173.1C368 78.8 289.2 0 192 0S16 78.8 16 176c0 86.3 62.1 158.1 144 173.1V480c0 17.7 14.3 32 32 32s32-14.3 32-32V349.1z"/><path class="fa-secondary" d="M112 176a80 80 0 1 1 160 0 80 80 0 1 1 -160 0z"/></svg>