<svg xmlns="http://www.w3.org/2000/svg" viewBox="0 0 640 512"><!--! Font Awesome Pro 6.4.0 by @fontawesome - https://fontawesome.com License - https://fontawesome.com/license (Commercial License) Copyright 2023 Fonticons, Inc. --><defs><style>.fa-secondary{opacity:.4}</style></defs><path class="fa-primary" d="M464 192c-6.1 0-11.6 3.4-14.3 8.8L438.1 224H400c-8.8 0-16 7.2-16 16s7.2 16 16 16h48H576h48c8.8 0 16-7.2 16-16s-7.2-16-16-16H585.9l-11.6-23.2c-2.7-5.4-8.2-8.8-14.3-8.8H464zm-64 96l13.9 194.3C415.1 499 429 512 445.8 512H578.2c16.8 0 30.7-13 31.9-29.7L624 288H400z"/><path class="fa-secondary" d="M64 32C28.7 32 0 60.7 0 96V416c0 35.3 28.7 64 64 64H381.6l-6.1-84.8C366.9 407.8 352.4 416 336 416H112c-26.5 0-48-21.5-48-48V144c0-26.5 21.5-48 48-48h32c8.8 0 16 7.2 16 16s-7.2 16-16 16H112c-8.8 0-16 7.2-16 16V368c0 8.8 7.2 16 16 16H336c8.8 0 16-7.2 16-16V240 144c0-8.8-7.2-16-16-16H256c-8.8 0-16 7.2-16 16v66.7c18.6 6.6 32 24.4 32 45.3c0 26.5-21.5 48-48 48s-48-21.5-48-48c0-20.9 13.4-38.7 32-45.3V144c0-26.5 21.5-48 48-48h80c26.5 0 48 21.5 48 48v50.7c5-1.8 10.4-2.7 16-2.7h18.3l2.7-5.5c5.7-11.3 15.4-19.7 26.9-23.8V96c0-35.3-28.7-64-64-64H64z"/></svg>