<svg xmlns="http://www.w3.org/2000/svg" viewBox="0 0 448 512"><!--! Font Awesome Pro 6.4.0 by @fontawesome - https://fontawesome.com License - https://fontawesome.com/license (Commercial License) Copyright 2023 Fonticons, Inc. --><defs><style>.fa-secondary{opacity:.4}</style></defs><path class="fa-primary" d="M124 512c-7.5-10-12-22.5-12-36c0-33.1 26.9-60 60-60h4.8c19.7 0 38.3 9 50.6 24.3l15.4 19.2c25.8 32.3 64.6 51.4 105.8 52.4L124 512z"/><path class="fa-secondary" d="M88 0C74.7 0 64 10.7 64 24V254.5c0 6.6 6.6 11.3 13 9.7c6.7-1.7 13.6-2.9 20.7-3.6l44.7-4.5c8.8-.9 16.6 5.5 17.5 14.3s-5.5 16.6-14.3 17.5l-44.7 4.5C44.3 298 1 345.3 0 401.9c1 61 50.8 110.1 112 110.1h12c-7.5-10-12-22.5-12-36c0-33.1 26.9-60 60-60h4.8c19.7 0 38.3 9 50.6 24.3l15.4 19.2c25.8 32.3 64.6 51.4 105.8 52.4c55.2-1.6 99.4-46.8 99.4-102.3c0-28.1-11.4-54.4-30.4-74.1C369.9 286 259.3 163 181.3 12.9C177.2 5 169 0 160 0H88z"/></svg>