<svg xmlns="http://www.w3.org/2000/svg" viewBox="0 0 448 512"><!--! Font Awesome Pro 6.4.0 by @fontawesome - https://fontawesome.com License - https://fontawesome.com/license (Commercial License) Copyright 2023 Fonticons, Inc. --><defs><style>.fa-secondary{opacity:.4}</style></defs><path class="fa-primary" d="M369.8 37.4c14.7 9.8 18.7 29.7 8.9 44.4l-256 384c-9.8 14.7-29.7 18.7-44.4 8.9s-18.7-29.7-8.9-44.4l256-384c9.8-14.7 29.7-18.7 44.4-8.9z"/><path class="fa-secondary" d="M260.2 144l-42.7 64H48c-17.7 0-32-14.3-32-32s14.3-32 32-32H260.2zM153.5 304l-42.7 64H48c-17.7 0-32-14.3-32-32s14.3-32 32-32H153.5zm34.3 64l42.7-64H400c17.7 0 32 14.3 32 32s-14.3 32-32 32H187.8zM294.5 208l42.7-64H400c17.7 0 32 14.3 32 32s-14.3 32-32 32H294.5z"/></svg>