<svg xmlns="http://www.w3.org/2000/svg" viewBox="0 0 384 512"><!--! Font Awesome Pro 6.4.0 by @fontawesome - https://fontawesome.com License - https://fontawesome.com/license (Commercial License) Copyright 2023 Fonticons, Inc. --><defs><style>.fa-secondary{opacity:.4}</style></defs><path class="fa-primary" d="M64 64V448H320V64H64zM0 48C0 21.5 21.5 0 48 0H336c26.5 0 48 21.5 48 48V464c0 26.5-21.5 48-48 48H48c-26.5 0-48-21.5-48-48V48z"/><path class="fa-secondary" d="M64 64l0 0v57.7L153.5 256 64 390.3V448h38.5L192 313.7 281.5 448H320V390.3L230.5 256 320 121.7V64H281.5L192 198.3 102.5 64H64z"/></svg>