<svg xmlns="http://www.w3.org/2000/svg" viewBox="0 0 512 512"><!--! Font Awesome Pro 6.4.0 by @fontawesome - https://fontawesome.com License - https://fontawesome.com/license (Commercial License) Copyright 2023 Fonticons, Inc. --><defs><style>.fa-secondary{opacity:.4}</style></defs><path class="fa-primary" d="M488 0c13.3 0 24 10.7 24 24l0 464c0 13.3-10.7 24-24 24s-24-10.7-24-24l0-464c0-13.3 10.7-24 24-24z"/><path class="fa-secondary" d="M384 112c0-26.5-21.5-48-48-48L48 64C21.5 64 0 85.5 0 112l0 64c0 26.5 21.5 48 48 48l288 0c26.5 0 48-21.5 48-48l0-64zm0 224c0-26.5-21.5-48-48-48l-160 0c-26.5 0-48 21.5-48 48l0 64c0 26.5 21.5 48 48 48l160 0c26.5 0 48-21.5 48-48l0-64z"/></svg>