<svg xmlns="http://www.w3.org/2000/svg" viewBox="0 0 640 512"><!--! Font Awesome Pro 6.4.0 by @fontawesome - https://fontawesome.com License - https://fontawesome.com/license (Commercial License) Copyright 2023 Fonticons, Inc. --><defs><style>.fa-secondary{opacity:.4}</style></defs><path class="fa-primary" d="M0 64c0 23.7 12.9 44.4 32 55.4V232.6C12.9 243.6 0 264.3 0 288c0 35.3 28.7 64 64 64c23.7 0 44.4-12.9 55.4-32H328.6c11.1 19.1 31.7 32 55.4 32c35.3 0 64-28.7 64-64c0-23.7-12.9-44.4-32-55.4V119.4c19.1-11.1 32-31.7 32-55.4c0-35.3-28.7-64-64-64c-23.7 0-44.4 12.9-55.4 32H119.4C108.4 12.9 87.7 0 64 0C28.7 0 0 28.7 0 64zM328.6 96c5.6 9.7 13.7 17.8 23.4 23.4V232.6c-9.7 5.6-17.8 13.7-23.4 23.4H119.4c-5.6-9.7-13.7-17.8-23.4-23.4V119.4c9.7-5.6 17.8-13.7 23.4-23.4H328.6z"/><path class="fa-secondary" d="M608 279.4c19.1-11.1 32-31.7 32-55.4c0-35.3-28.7-64-64-64c-23.7 0-44.4 12.9-55.4 32H416v40.6c9.7 5.6 17.8 13.7 23.4 23.4h81.1c5.6 9.7 13.7 17.8 23.4 23.4V392.6c-9.7 5.6-17.8 13.7-23.4 23.4H311.4c-5.6-9.7-13.7-17.8-23.4-23.4V320H224v72.6c-19.1 11.1-32 31.7-32 55.4c0 35.3 28.7 64 64 64c23.7 0 44.4-12.9 55.4-32H520.6c11.1 19.1 31.7 32 55.4 32c35.3 0 64-28.7 64-64c0-23.7-12.9-44.4-32-55.4V279.4z"/></svg>