<svg xmlns="http://www.w3.org/2000/svg" viewBox="0 0 576 512"><!--! Font Awesome Pro 6.4.0 by @fontawesome - https://fontawesome.com License - https://fontawesome.com/license (Commercial License) Copyright 2023 Fonticons, Inc. --><defs><style>.fa-secondary{opacity:.4}</style></defs><path class="fa-primary" d="M160 128c-17.7 0-32 14.3-32 32v96c0 17.7 14.3 32 32 32H288c17.7 0 32-14.3 32-32V160c0-17.7-14.3-32-32-32H160zm96 224c0 17.7 14.3 32 32 32H416c17.7 0 32-14.3 32-32V256c0-17.7-14.3-32-32-32H352v32c0 35.3-28.7 64-64 64H256v32z"/><path class="fa-secondary" d="M0 64c0 23.7 12.9 44.4 32 55.4V392.6C12.9 403.6 0 424.3 0 448c0 35.3 28.7 64 64 64c23.7 0 44.4-12.9 55.4-32H456.6c11.1 19.1 31.7 32 55.4 32c35.3 0 64-28.7 64-64c0-23.7-12.9-44.4-32-55.4V119.4c19.1-11.1 32-31.7 32-55.4c0-35.3-28.7-64-64-64c-23.7 0-44.4 12.9-55.4 32H119.4C108.4 12.9 87.7 0 64 0C28.7 0 0 28.7 0 64zM480 392.6c-9.7 5.6-17.8 13.7-23.4 23.4H119.4c-5.6-9.7-13.7-17.8-23.4-23.4V119.4c9.7-5.6 17.8-13.7 23.4-23.4H456.6c5.6 9.7 13.7 17.8 23.4 23.4V392.6z"/></svg>