<svg xmlns="http://www.w3.org/2000/svg" viewBox="0 0 512 512"><!--! Font Awesome Pro 6.4.0 by @fontawesome - https://fontawesome.com License - https://fontawesome.com/license (Commercial License) Copyright 2023 Fonticons, Inc. --><defs><style>.fa-secondary{opacity:.4}</style></defs><path class="fa-primary" d="M448 512c35.3 0 64-28.7 64-64l0-224c0-35.3-28.7-64-64-64l-96 0 0 128c0 35.3-28.7 64-64 64l-128 0 0 96c0 35.3 28.7 64 64 64l224 0z"/><path class="fa-secondary" d="M64 288L64 64l224 0 0 224L64 288zm224 64c35.3 0 64-28.7 64-64l0-224c0-35.3-28.7-64-64-64L64 0C28.7 0 0 28.7 0 64L0 288c0 35.3 28.7 64 64 64l224 0z"/></svg>