<svg xmlns="http://www.w3.org/2000/svg" viewBox="0 0 640 512"><!--! Font Awesome Pro 6.4.0 by @fontawesome - https://fontawesome.com License - https://fontawesome.com/license (Commercial License) Copyright 2023 Fonticons, Inc. --><defs><style>.fa-secondary{opacity:.4}</style></defs><path class="fa-primary" d="M368.9 160c9.9 0 19.7 2.3 28.6 6.8L448 192l167-35.8c18.1-3.9 30.7 17.6 18.4 31.5L451.1 394.3c-12.1 13.8-29.6 21.7-48 21.7H144c-26.5 0-48-21.5-48-48V346.7l-67.5-30C11.2 309 0 291.8 0 272.8V208c0-26.5 21.5-48 48-48H96h48H368.9zM96 208H48v64.8l48 21.3V208z"/><path class="fa-secondary" d="M320 128c17.7 0 32-14.3 32-32s-14.3-32-32-32H192c-17.7 0-32 14.3-32 32s14.3 32 32 32h32v32h64V128h32z"/></svg>