<svg xmlns="http://www.w3.org/2000/svg" viewBox="0 0 512 512"><!--! Font Awesome Pro 6.4.0 by @fontawesome - https://fontawesome.com License - https://fontawesome.com/license (Commercial License) Copyright 2023 Fonticons, Inc. --><defs><style>.fa-secondary{opacity:.4}</style></defs><path class="fa-primary" d="M64 0C28.7 0 0 28.7 0 64v64c0 35.3 28.7 64 64 64H352c35.3 0 64-28.7 64-64V64c0-35.3-28.7-64-64-64H64z"/><path class="fa-secondary" d="M512 160c0-53-43-96-96-96v64c17.7 0 32 14.3 32 32v32c0 17.7-14.3 32-32 32H272c-44.2 0-80 35.8-80 80v16c-17.7 0-32 14.3-32 32V480c0 17.7 14.3 32 32 32h64c17.7 0 32-14.3 32-32V352c0-17.7-14.3-32-32-32V304c0-8.8 7.2-16 16-16H416c53 0 96-43 96-96V160z"/></svg>