<svg xmlns="http://www.w3.org/2000/svg" viewBox="0 0 512 512"><!-- Font Awesome Pro 6.0.0-alpha2 by @fontawesome - https://fontawesome.com License - https://fontawesome.com/license (Commercial License) --><defs><style>.fa-secondary{opacity:.4}</style></defs><path d="M499.516 17.463C490.537 7.182 478.115 1.025 464.508 0.135C450.961 -0.865 437.789 3.713 427.592 12.728L222.299 193.719C215.885 199.437 210.16 206.156 205.781 213.125C196.322 228.078 192.02 244.791 192 261.324L302.35 349.5C325.375 344.064 345.055 330.156 357.764 310.057L504.176 78.49C516.189 59.492 514.281 34.398 499.516 17.463Z" class="fa-secondary"/><path d="M175.186 288.92C150.877 291.076 128.205 301.113 110.807 318.619C88.408 341.129 78.488 371.516 81.062 401.004C83.316 426.828 64.072 448.004 32.035 448.004C14.342 448.004 0 462.328 0 480.002C0 497.672 14.342 512 32.035 512C32.035 512 60.191 512 85.811 512C140.402 512 218.959 504.432 258.098 465.082C281.771 441.258 290.59 408.723 286.289 377.697L175.186 288.92Z" class="fa-primary"/></svg>