<svg xmlns="http://www.w3.org/2000/svg" viewBox="0 0 576 512"><!--! Font Awesome Pro 6.4.0 by @fontawesome - https://fontawesome.com License - https://fontawesome.com/license (Commercial License) Copyright 2023 Fonticons, Inc. --><defs><style>.fa-secondary{opacity:.4}</style></defs><path class="fa-primary" d="M411 331.6c-19.9 32.6-55.3 52.4-93.4 52.4c-4.8 0-9.6-.3-14.3-.9L208 272c.2-35.9 17.8-69.4 47.1-90.1L500.2 8.8c18.6-13.1 43.9-11.4 60.5 4.2s20 40.6 8.2 60.1L411 331.6z"/><path class="fa-secondary" d="M208.1 272.1c-.6 0-1.2-.1-1.8-.1H184c-66.3 0-120 53.7-120 120c0 6.2 .5 12.4 1.4 18.4C68.1 428.2 56.1 448 38 448H32c-17.7 0-32 14.3-32 32s14.3 32 32 32H175.9c.1 0 .1-.1 .1-.1s.1-.1 .1-.1c2.6 .2 5.2 .3 7.9 .3c66.3 0 120-53.7 120-120c0-2.8-.1-5.5-.2-8.3L208.1 272.1z"/></svg>