<svg xmlns="http://www.w3.org/2000/svg" viewBox="0 0 576 512"><!--! Font Awesome Pro 6.4.0 by @fontawesome - https://fontawesome.com License - https://fontawesome.com/license (Commercial License) Copyright 2023 Fonticons, Inc. --><defs><style>.fa-secondary{opacity:.4}</style></defs><path class="fa-primary" d="M559.6 95.6c21.9-21.9 21.9-57.3 0-79.2s-57.3-21.9-79.2 0L205.1 291.7l79.2 79.2L559.6 95.6z"/><path class="fa-secondary" d="M205 291.8l0 0 0 0c-9.2-2.5-19-3.8-29-3.8c-61.9 0-112 50.1-112 112c0 3.9 .2 7.8 .6 11.6C66.4 429.1 54.4 448 36.8 448H32c-17.7 0-32 14.3-32 32s14.3 32 32 32H176c61.9 0 112-50.1 112-112c0-10-1.3-19.7-3.8-29l0 0 0 0c0-.1 0-.1-.1-.2l-78.9-78.9c-.1 0-.1 0-.2-.1z"/></svg>