<svg xmlns="http://www.w3.org/2000/svg" viewBox="0 0 640 512"><!--! Font Awesome Pro 6.4.0 by @fontawesome - https://fontawesome.com License - https://fontawesome.com/license (Commercial License) Copyright 2023 Fonticons, Inc. --><defs><style>.fa-secondary{opacity:.4}</style></defs><path class="fa-primary" d="M96 0C78.3 0 64 14.3 64 32V224c0 17.7 14.3 32 32 32H288c17.7 0 32-14.3 32-32V32c0-17.7-14.3-32-32-32H96zM416 64c-17.7 0-32 14.3-32 32V224c0 17.7 14.3 32 32 32H544c17.7 0 32-14.3 32-32V96c0-17.7-14.3-32-32-32H416z"/><path class="fa-secondary" d="M32 320c-17.7 0-32 14.3-32 32s14.3 32 32 32H64v64H32c-17.7 0-32 14.3-32 32s14.3 32 32 32H96 320 544h64c17.7 0 32-14.3 32-32s-14.3-32-32-32H576V384h32c17.7 0 32-14.3 32-32s-14.3-32-32-32H544 320 96 32zm96 64H288v64H128V384zm224 0H512v64H352V384z"/></svg>