<svg xmlns="http://www.w3.org/2000/svg" viewBox="0 0 640 512"><!--! Font Awesome Pro 6.4.0 by @fontawesome - https://fontawesome.com License - https://fontawesome.com/license (Commercial License) Copyright 2023 Fonticons, Inc. --><defs><style>.fa-secondary{opacity:.4}</style></defs><path class="fa-primary" d="M528 256a208 208 0 1 0 -416 0 208 208 0 1 0 416 0zM64 256a256 256 0 1 1 512 0A256 256 0 1 1 64 256zM48 184V328c0 13.3-10.7 24-24 24s-24-10.7-24-24V184c0-13.3 10.7-24 24-24s24 10.7 24 24zm568-24c13.3 0 24 10.7 24 24V328c0 13.3-10.7 24-24 24s-24-10.7-24-24V184c0-13.3 10.7-24 24-24zM230.1 214.1l-32 32c-7.8 7.8-20.5 7.8-28.3 0s-7.8-20.5 0-28.3l32-32c7.8-7.8 20.5-7.8 28.3 0s7.8 20.5 0 28.3zM296 224a24 24 0 1 1 48 0 24 24 0 1 1 -48 0zm80.2 39.8l79.6-79.6c4.5-4.5 11.9-4.5 16.4 0l2.8 2.8c13.4 13.4 21 31.6 21 50.6v4.8c0 18.7-8.5 36.4-23.1 48.1C462 299.2 448.4 304 434.4 304l-4.1 0c-19.4 0-38-7.7-51.8-21.4l-2.4-2.4c-4.5-4.5-4.5-11.9 0-16.4z"/><path class="fa-secondary" d="M112 256a208 208 0 1 1 416 0 208 208 0 1 1 -416 0zM320 80c-37.2 0-69.3 26.3-76.6 62.8l-.6 3.2c-1.5 7.3 4.1 14 11.5 14H385.7c7.4 0 12.9-6.8 11.5-14l-.6-3.2C389.3 106.3 357.2 80 320 80zM243.3 268.7c-6.2-6.2-16.4-6.2-22.6 0l-8 8-8 8c-6.2 6.2-6.2 16.4 0 22.6c2.1 2.1 4.6 3.5 7.3 4.2c1.7 .4 3.4 .8 5.1 1.1c5.4 1.1 11 2.1 14.7 5.9l3.4 3.4c3 3 4.7 7.1 4.7 11.3V360c0 30.9 25.1 56 56 56s56-25.1 56-56s-25.1-56-56-56H269.3c-4.2 0-8.3-1.7-11.3-4.7l-3.4-3.4c-3.8-3.8-4.8-9.3-5.9-14.7c-.3-1.7-.7-3.5-1.1-5.1c-.7-2.7-2.1-5.2-4.2-7.3zM440 384a24 24 0 1 0 -48 0 24 24 0 1 0 48 0zM230.1 214.1c7.8-7.8 7.8-20.5 0-28.3s-20.5-7.8-28.3 0l-32 32c-7.8 7.8-7.8 20.5 0 28.3s20.5 7.8 28.3 0l32-32zM344 224a24 24 0 1 0 -48 0 24 24 0 1 0 48 0zm32.2 39.8c-4.5 4.5-4.5 11.9 0 16.4l2.4 2.4c13.7 13.7 32.4 21.4 51.8 21.4l4.1 0c14 0 27.6-4.8 38.5-13.5c14.6-11.7 23.1-29.4 23.1-48.1v-4.8c0-19-7.5-37.2-21-50.6l-2.8-2.8c-4.5-4.5-11.9-4.5-16.4 0l-79.6 79.6z"/></svg>