<svg xmlns="http://www.w3.org/2000/svg" viewBox="0 0 512 512"><!--! Font Awesome Pro 6.4.0 by @fontawesome - https://fontawesome.com License - https://fontawesome.com/license (Commercial License) Copyright 2023 Fonticons, Inc. --><defs><style>.fa-secondary{opacity:.4}</style></defs><path class="fa-primary" d="M288 159.4c-17.7 .7-32 15-32 32.6v32c0 17.7-14.3 32-32 32s-32-14.3-32-32V171.7c0-8.1-6.5-14.9-14.5-15.7c-9.4-1-17.5 6.3-17.5 15.7V272c0 17.7-14.3 32-32 32s-32-14.3-32-32V164.8c0-14.2-9.5-26.5-22.7-31.8C47.3 122.6 32 109.8 32 96c0-35.3 100.3-64 224-64s224 28.7 224 64c0 32.2-83.4 58.9-192 63.4zM208 64c-8.8 0-16 7.2-16 16s7.2 16 16 16h96c8.8 0 16-7.2 16-16s-7.2-16-16-16H208z"/><path class="fa-secondary" d="M0 160c0-9.5 5.3-18.6 14.9-27c2.2 2.5 4.5 4.8 6.8 6.8c10.9 9.6 24.9 17 39.6 22.9c1.2 .5 2 1.2 2.4 1.8c.1 .2 .2 .3 .2 .4v48.1C24.2 198.8 0 180.3 0 160zm512 0c0 41-98.7 74.8-225.9 79.5c1.2-4.9 1.9-10.1 1.9-15.5l0-32s.1-.1 .1-.2c.3-.3 .7-.5 1.2-.5c56.2-2.3 107.3-10.4 145.3-22.8c18.8-6.2 36.3-14 49.8-24c4.2-3.1 8.6-7 12.7-11.5c9.7 8.4 14.9 17.5 14.9 27zM64 246.7V272c0 7.8 1.4 15.4 4 22.3C25.8 280 0 261 0 240c0-6.5 2.5-12.8 7.2-18.9c15.7 10.3 35.3 18.7 56.8 25.6zm110.6 69.2c9.2-9.8 15.4-22.5 17-36.7c9.5 5.6 20.6 8.8 32.4 8.8c16.3 0 31.1-6.1 42.4-16.1c69-.8 132.4-9.9 180.2-24.8c22-6.9 42.2-15.5 58.3-26c4.7 6.1 7.2 12.4 7.2 18.9c0 44.2-114.6 80-256 80c-28.5 0-55.8-1.5-81.4-4.1zm330.2-14.8c4.7 6.1 7.2 12.4 7.2 18.9c0 44.2-114.6 80-256 80S0 364.2 0 320c0-6.5 2.5-12.8 7.2-18.9c16.1 10.6 36.2 19.1 58.3 26C115.6 342.8 183 352 256 352s140.4-9.2 190.6-24.9c22-6.9 42.2-15.4 58.3-26zm0 80c4.7 6.1 7.2 12.4 7.2 18.9c0 44.2-114.6 80-256 80S0 444.2 0 400c0-6.5 2.5-12.8 7.2-18.9c16.1 10.6 36.2 19.1 58.3 26C115.6 422.8 183 432 256 432s140.4-9.2 190.6-24.9c22-6.9 42.2-15.4 58.3-26z"/></svg>