<svg xmlns="http://www.w3.org/2000/svg" viewBox="0 0 512 512"><!--! Font Awesome Pro 6.4.0 by @fontawesome - https://fontawesome.com License - https://fontawesome.com/license (Commercial License) Copyright 2023 Fonticons, Inc. --><defs><style>.fa-secondary{opacity:.4}</style></defs><path class="fa-primary" d="M464 0H416C186.2 0 0 186.2 0 416v48c0 26.5 21.5 48 48 48H96c229.8 0 416-186.2 416-416V48c0-26.5-21.5-48-48-48zM256 200a56 56 0 1 1 0 112 56 56 0 1 1 0-112zM88 368a56 56 0 1 1 112 0A56 56 0 1 1 88 368zM368 88a56 56 0 1 1 0 112 56 56 0 1 1 0-112z"/><path class="fa-secondary" d="M368 200a56 56 0 1 0 0-112 56 56 0 1 0 0 112zm-56 56a56 56 0 1 0 -112 0 56 56 0 1 0 112 0zM200 368A56 56 0 1 0 88 368a56 56 0 1 0 112 0z"/></svg>