<svg xmlns="http://www.w3.org/2000/svg" viewBox="0 0 640 512"><!--! Font Awesome Pro 6.4.0 by @fontawesome - https://fontawesome.com License - https://fontawesome.com/license (Commercial License) Copyright 2023 Fonticons, Inc. --><defs><style>.fa-secondary{opacity:.4}</style></defs><path class="fa-primary" d="M5.1 9.2C13.3-1.2 28.4-3.1 38.8 5.1l592 464c10.4 8.2 12.3 23.3 4.1 33.7s-23.3 12.3-33.7 4.1L9.2 42.9C-1.2 34.7-3.1 19.6 5.1 9.2z"/><path class="fa-secondary" d="M195.8 250.3L341.2 364.8l-47.7 47.7c-48 48-109.2 80.8-175.8 94.1l-25 5c-7.9 1.6-16-.9-21.7-6.6s-8.1-13.8-6.6-21.7l5-25c13.3-66.6 46.1-127.8 94.1-175.8l32.3-32.3zm68.5-68.5L318.1 128 305 114.9c-9.4-9.4-24.6-9.4-33.9 0l-40.5 40.5-38.1-29.8L237.1 81c28.1-28.1 73.7-28.1 101.8 0L352 94.1l17 17 96 96 16 16 1 1-17 17-55 55L264.2 181.8zM426.7 19.3c25-25 65.5-25 90.5 0l39.4 39.4c25 25 25 65.5 0 90.5l-52.1 52.1 0 0-1-1 0 0-16-16-96-96-17-17 52.1-52.1z"/></svg>