<svg xmlns="http://www.w3.org/2000/svg" viewBox="0 0 512 512"><!--! Font Awesome Pro 6.4.0 by @fontawesome - https://fontawesome.com License - https://fontawesome.com/license (Commercial License) Copyright 2023 Fonticons, Inc. --><defs><style>.fa-secondary{opacity:.4}</style></defs><path class="fa-primary" d="M368.4 18.3c21.9-21.9 57.3-21.9 79.2 0l46.1 46.1c21.9 21.9 21.9 57.3 0 79.2l-71 71-3.4 3.4 0 0L293.9 92.8l0 0 0 0 3.4-3.4 71-71z"/><path class="fa-secondary" d="M293.9 92.8L419.2 218.1l-4.5 15.1L371.4 377.3c-6 19.9-21.2 35.7-41 42.3L66.2 508.2c-11.3 3.8-23.9 1-32.4-7.4L187.3 347.3c6.3 3 13.3 4.7 20.7 4.7c26.5 0 48-21.5 48-48s-21.5-48-48-48s-48 21.5-48 48c0 7.4 1.7 14.4 4.7 20.7L11.1 478.3C2.8 469.7 0 457.2 3.8 445.8L92.4 181.5c6.6-19.7 22.4-35 42.3-41L278.8 97.4l15.1-4.5 0 0z"/></svg>