<svg xmlns="http://www.w3.org/2000/svg" viewBox="0 0 512 512"><!--! Font Awesome Pro 6.4.0 by @fontawesome - https://fontawesome.com License - https://fontawesome.com/license (Commercial License) Copyright 2023 Fonticons, Inc. --><defs><style>.fa-secondary{opacity:.4}</style></defs><path class="fa-primary" d="M406.1 16L366.4 55.7l89.3 89.3 39.8-38.9c19.1-18.7 19.2-49.4 .4-68.2L473.9 16c-18.8-18.8-49.2-18.7-67.9 0zM343.7 78.4L200.5 221.8c-7 7-12.3 15.6-15.4 25l-23.8 71.3c-2.9 8.6-.6 18.1 5.8 24.6s15.9 8.7 24.6 5.8l71.5-23.9c9.2-3.1 17.6-8.2 24.5-15L432.8 167.5 343.7 78.4z"/><path class="fa-secondary" d="M256 8c30.1 0 59 5.4 85.7 15.2L303.6 61.7C288.3 58 272.4 56 256 56C145.5 56 56 145.5 56 256s89.5 200 200 200c13.3 0 24 10.7 24 24s-10.7 24-24 24C119 504 8 393 8 256S119 8 256 8zM456 256c0-16-1.9-31.7-5.5-46.6L489 170.9c9.7 26.5 15 55.2 15 85.1c0 83.9-68.1 152-152 152c-13.1 0-25.8-1.7-38-4.8c-12.8-3.3-20.6-16.4-17.3-29.2s16.4-20.6 29.2-17.3c8.3 2.1 17 3.3 26 3.3c57.4 0 104-46.6 104-104z"/></svg>