<svg xmlns="http://www.w3.org/2000/svg" viewBox="0 0 640 512"><!--! Font Awesome Pro 6.4.0 by @fontawesome - https://fontawesome.com License - https://fontawesome.com/license (Commercial License) Copyright 2023 Fonticons, Inc. --><defs><style>.fa-secondary{opacity:.4}</style></defs><path class="fa-primary" d="M59.4 304.5L88 256.9V480c0 17.7 14.3 32 32 32s32-14.3 32-32V352h16V480c0 17.7 14.3 32 32 32s32-14.3 32-32V256.9l28.6 47.5c9.1 15.1 28.8 20 43.9 10.9c9.8-5.9 15.3-16.2 15.5-26.9c.2 10.7 5.7 21 15.5 26.9c15.1 9.1 34.8 4.2 43.9-10.9L408 256.9V480c0 17.7 14.3 32 32 32s32-14.3 32-32V352h16V480c0 17.7 14.3 32 32 32s32-14.3 32-32V256.9l28.6 47.5c9.1 15.1 28.8 20 43.9 10.9s20-28.8 10.9-43.9l-58.3-97c-17.4-28.9-48.6-46.6-82.3-46.6H465.1c-33.7 0-64.9 17.7-82.3 46.6l-58.3 97c-3 5-4.5 10.5-4.6 15.9c-.1-5.4-1.6-10.9-4.6-15.9l-58.3-97c-17.4-28.9-48.6-46.6-82.3-46.6H145.1c-33.7 0-64.9 17.7-82.3 46.6l-58.3 97c-9.1 15.1-4.2 34.8 10.9 43.9s34.8 4.2 43.9-10.9z"/><path class="fa-secondary" d="M160 96a48 48 0 1 0 0-96 48 48 0 1 0 0 96zm320 0a48 48 0 1 0 0-96 48 48 0 1 0 0 96z"/></svg>