<svg xmlns="http://www.w3.org/2000/svg" viewBox="0 0 576 512"><!-- Font Awesome Pro 6.0.0-alpha2 by @fontawesome - https://fontawesome.com License - https://fontawesome.com/license (Commercial License) --><defs><style>.fa-secondary{opacity:.4}</style></defs><path d="M96 128C131.375 128 160 99.375 160 64S131.375 0 96 0S32 28.625 32 64S60.625 128 96 128ZM128 160H64C28.654 160 0 188.652 0 224V320C0 337.672 14.328 352 32 352V480C32 497.672 46.328 512 64 512H128C145.674 512 160 497.672 160 480V383.613L109.639 336.084C100.971 327.902 96 316.236 96 304.078C96 291.918 100.971 280.252 109.641 272.07L181.771 203.994C183.422 202.439 185.545 201.684 187.383 200.416C177.98 176.768 155 160 128 160ZM480 128C515.375 128 544 99.375 544 64S515.375 0 480 0S416 28.625 416 64S444.625 128 480 128ZM512 160H448C421.002 160 398.02 176.77 388.617 200.418C390.459 201.689 392.586 202.445 394.24 204.006L466.357 272.068C475.025 280.248 480 291.912 480 304.072C480.002 316.234 475.031 327.902 466.361 336.084L416 383.615V480C416 497.672 430.328 512 448 512H512C529.674 512 544 497.672 544 480V352C561.674 352 576 337.672 576 320V224C576 188.652 547.348 160 512 160Z" class="fa-secondary"/><path d="M444.396 310.439L372.275 378.506C368.785 381.797 363.668 382.697 359.262 380.805C354.857 378.904 352 374.564 352 369.77V333.627H224V369.77C224 374.564 221.143 378.904 216.738 380.803C212.332 382.697 207.215 381.797 203.725 378.506L131.604 310.439C126.799 305.904 126.799 297.504 131.604 292.969L203.725 224.902C207.215 221.611 212.332 220.713 216.738 222.605C221.143 224.506 224 228.844 224 233.639V269.627H352V233.639C352 228.846 354.857 224.504 359.262 222.605C363.668 220.711 368.785 221.611 372.275 224.904L444.396 292.971C449.201 297.504 449.201 305.904 444.396 310.439Z" class="fa-primary"/></svg>