<svg xmlns="http://www.w3.org/2000/svg" viewBox="0 0 512 512"><!--! Font Awesome Pro 6.4.0 by @fontawesome - https://fontawesome.com License - https://fontawesome.com/license (Commercial License) Copyright 2023 Fonticons, Inc. --><defs><style>.fa-secondary{opacity:.4}</style></defs><path class="fa-primary" d="M25.9 233.4C29.3 191.9 64 160 105.6 160h44.8c41.6 0 76.3 31.9 79.7 73.4l4.1 49.3c2.5 29.8-15.7 56.1-42.2 65.6V464c0 26.5-21.5 48-48 48H112c-26.5 0-48-21.5-48-48V348.3c-26.5-9.5-44.7-35.8-42.2-65.6l4.1-49.3zm280.9-26.9c7.8-27.5 33-46.4 61.5-46.4h31.4c28.6 0 53.7 18.9 61.5 46.4l39.1 136.8c5.8 20.4-9.5 40.8-30.8 40.8H448v80c0 26.5-21.5 48-48 48H368c-26.5 0-48-21.5-48-48V384H298.4c-21.3 0-36.6-20.3-30.8-40.8l39.1-136.8z"/><path class="fa-secondary" d="M128 128A64 64 0 1 0 128 0a64 64 0 1 0 0 128zm256 0A64 64 0 1 0 384 0a64 64 0 1 0 0 128z"/></svg>