<svg xmlns="http://www.w3.org/2000/svg" viewBox="0 0 512 512"><!--! Font Awesome Pro 6.4.0 by @fontawesome - https://fontawesome.com License - https://fontawesome.com/license (Commercial License) Copyright 2023 Fonticons, Inc. --><defs><style>.fa-secondary{opacity:.4}</style></defs><path class="fa-primary" d="M461 12.3C454.5 .8 439.9-3.4 428.3 3s-15.8 21-9.3 32.6l4.8 8.7c9.7 17.5 11.5 37.6 6 55.8C406.8 87.3 380.3 80 352 80c-24.3 0-47.3 5.4-67.9 15.1c-19.3 9-10.5 32.9 10.8 32.9l17.1 0c13.3 0 24 10.7 24 24v80c0 13.3 10.7 24 24 24h73.2c9.1 0 17.4 5.1 21.5 13.3l11.7 23.4c8.2 16.4 30.7 17.5 36.8 .1c5.8-16.5 8.9-34.3 8.9-52.8c0-42.1-16.2-80.4-42.8-108.9c16.4-34.3 15.9-75.4-3.4-110L461 12.3z"/><path class="fa-secondary" d="M281.8 124.3c3.5 2.3 7.9 3.7 13 3.7l17.1 0c13.3 0 24 10.7 24 24v80c0 13.3 10.7 24 24 24h73.2c9.1 0 17.4 5.1 21.5 13.3l11.7 23.4c2 4.1 5 7.2 8.3 9.4C397.9 429.6 258.4 512 103.2 512H44.4C19.9 512 0 492.1 0 467.6c0-20.8 14.5-38.8 34.8-43.3l49.8-11.1c37.6-8.4 69.5-33.2 86.7-67.7L281.8 124.3z"/></svg>