<svg xmlns="http://www.w3.org/2000/svg" viewBox="0 0 576 512"><!--! Font Awesome Pro 6.4.0 by @fontawesome - https://fontawesome.com License - https://fontawesome.com/license (Commercial License) Copyright 2023 Fonticons, Inc. --><defs><style>.fa-secondary{opacity:.4}</style></defs><path class="fa-primary" d="M336 0a48 48 0 1 1 0 96 48 48 0 1 1 0-96zM227.2 160c-14.1 0-27.5 5.6-37.5 15.5l-23.1 23.1c-12.5 12.5-32.8 12.5-45.3 0s-12.5-32.8 0-45.3l23.1-23.1C166.4 108.3 196.2 96 227.2 96c11.7 0 23.3 1.7 34.4 5.2l48.7 15c36.4 11.2 65.9 38 80.5 73.1l6.3 15c5 11.9 16.6 19.7 29.5 19.7H448c17.7 0 32 14.3 32 32s-14.3 32-32 32H426.7c-38.8 0-73.7-23.3-88.6-59.1l-5.1-12.3L302 299l56.7 35.4c18.1 11.3 26.6 33.3 20.7 53.9L357.8 464H291.3l23.3-81.6-86.2-53.9c-25.1-15.7-36.1-46.5-26.8-74.5l31.2-93.7c-1.9-.2-3.7-.3-5.6-.3zM202.8 464H132.2l58.7-125.7c5.9 6.6 12.8 12.5 20.6 17.3l32.4 20.3L202.8 464zm-42.1 48c-.4 0-.9 0-1.4 0h1.4zm160.1 0c-.5 0-1 0-1.4 0h1.4z"/><path class="fa-secondary" d="M402.3 464l27.1-176H448c5.1 0 10-1.2 14.2-3.3L434.6 464H504c13.3 0 24-10.7 24-24v-8c0-13.3 10.7-24 24-24s24 10.7 24 24v8c0 39.8-32.2 72-72 72H24c-13.3 0-24-10.7-24-24s10.7-24 24-24H67l55.6-264.2c8.7 7.8 20.7 10 31.3 6.6L99.7 464H402.3z"/></svg>