<svg xmlns="http://www.w3.org/2000/svg" viewBox="0 0 512 512"><!--! Font Awesome Pro 6.4.0 by @fontawesome - https://fontawesome.com License - https://fontawesome.com/license (Commercial License) Copyright 2023 Fonticons, Inc. --><defs><style>.fa-secondary{opacity:.4}</style></defs><path class="fa-primary" d="M71 12.5L182.2 .1C191.7-1 200 6.5 200 16V30.1c0 8.8-7.1 15.9-15.9 16H72.7C63.5 46 56 38.5 56 29.2c0-8.6 6.5-15.8 15-16.8zM189.5 78.1c1.6 5.7 2.5 11.7 2.5 17.9c0 35.3-28.7 64-64 64s-64-28.7-64-64c0-6.2 .9-12.2 2.5-17.9H189.5zM32 256c0-18.8 8.1-35.7 21-47.4l144.2 111c-1.7 .3-3.4 .4-5.2 .4H64c-17.7 0-32-14.3-32-32V256zm190.2 42.5L85.1 192.9c3.6-.6 7.2-.9 10.9-.9h64c35.3 0 64 28.7 64 64v32c0 3.7-.6 7.2-1.8 10.5zM224 432c0 6.9-3 13.5-8.2 18.1l-64 56c-10 8.7-25.1 7.7-33.9-2.3s-7.7-25.1 2.3-33.9L136.1 456 24 456c-13.3 0-24-10.7-24-24s10.7-24 24-24l112.1 0-15.9-13.9c-10-8.7-11-23.9-2.3-33.9s23.9-11 33.9-2.3l64 56c5.2 4.6 8.2 11.1 8.2 18.1z"/><path class="fa-secondary" d="M384 160a64 64 0 1 0 0-128 64 64 0 1 0 0 128zm-32 32c-35.3 0-64 28.7-64 64v32c0 17.7 14.3 32 32 32H448c17.7 0 32-14.3 32-32V256c0-35.3-28.7-64-64-64H352zM288 432c0 6.9 3 13.5 8.2 18.1l64 56c10 8.7 25.1 7.7 33.9-2.3s7.7-25.1-2.3-33.9L375.9 456 488 456c13.3 0 24-10.7 24-24s-10.7-24-24-24l-112.1 0 15.9-13.9c10-8.7 11-23.9 2.3-33.9s-23.9-11-33.9-2.3l-64 56c-5.2 4.6-8.2 11.1-8.2 18.1z"/></svg>