<svg xmlns="http://www.w3.org/2000/svg" viewBox="0 0 384 512"><!--! Font Awesome Pro 6.4.0 by @fontawesome - https://fontawesome.com License - https://fontawesome.com/license (Commercial License) Copyright 2023 Fonticons, Inc. --><defs><style>.fa-secondary{opacity:.4}</style></defs><path class="fa-primary" d="M32 48a48 48 0 1 1 96 0A48 48 0 1 1 32 48zM96 241.7v65.1l51 51c7.1 7.1 11.8 16.2 13.4 26.1l15.2 90.9c2.9 17.4-8.9 33.9-26.3 36.8s-33.9-8.9-36.8-26.3L98.1 399.4 18.7 320C6.7 308 0 291.7 0 274.7V186.6C0 154.2 26.2 128 58.6 128c24.1 0 46.5 12 59.9 32l42.6 64H224c17.7 0 32 14.3 32 32s-14.3 32-32 32H152.6c-16 0-31-8-39.9-21.4L96 241.7zM0 480L0 346.5l64 64V480v0c0 17.7-14.3 32-32 32s-32-14.3-32-32z"/><path class="fa-secondary" d="M224 96c-17.7 0-32 14.3-32 32v96h32c17.7 0 32 14.3 32 32s-14.3 32-32 32H352c17.7 0 32-14.3 32-32V128c0-17.7-14.3-32-32-32H224z"/></svg>