<svg xmlns="http://www.w3.org/2000/svg" viewBox="0 0 320 512"><!--! Font Awesome Pro 6.4.0 by @fontawesome - https://fontawesome.com License - https://fontawesome.com/license (Commercial License) Copyright 2023 Fonticons, Inc. --><defs><style>.fa-secondary{opacity:.4}</style></defs><path class="fa-primary" d="M160 96V0s0 0 0 0c-26.5 0-48 21.5-48 48s21.5 48 48 48c0 0 0 0 0 0zm0 32h-5.8c-39.3 0-75.7 20.6-96 54.3L4.6 271.5c-9.1 15.1-4.2 34.8 10.9 43.9s34.8 4.2 43.9-10.9l33.9-56.3L55 362.9C51.6 373.3 59.3 384 70.2 384H88v96c0 17.7 14.3 32 32 32s32-14.3 32-32V384h8V128z"/><path class="fa-secondary" d="M160 128V352h8V480c0 17.7 14.3 32 32 32s32-14.3 32-32V256.9l28.6 47.5c9.1 15.1 28.8 20 43.9 10.9s20-28.8 10.9-43.9l-58.3-97c-17.4-28.9-48.6-46.6-82.3-46.6H160zm0-32c26.5 0 48-21.5 48-48s-21.5-48-48-48c0 0 0 0 0 0V96s0 0 0 0z"/></svg>