<svg xmlns="http://www.w3.org/2000/svg" viewBox="0 0 640 512"><!--! Font Awesome Pro 6.4.0 by @fontawesome - https://fontawesome.com License - https://fontawesome.com/license (Commercial License) Copyright 2023 Fonticons, Inc. --><defs><style>.fa-secondary{opacity:.4}</style></defs><path class="fa-primary" d="M496 32c-17.7 0-32 14.3-32 32l0 242.7-25.4-25.4c-12.5-12.5-32.8-12.5-45.3 0s-12.5 32.8 0 45.3l80 80c12.5 12.5 32.8 12.5 45.3 0l80-80c12.5-12.5 12.5-32.8 0-45.3s-32.8-12.5-45.3 0L528 306.7 528 64c0-17.7-14.3-32-32-32zM32 448c-17.7 0-32 14.3-32 32s14.3 32 32 32H608c17.7 0 32-14.3 32-32s-14.3-32-32-32H32z"/><path class="fa-secondary" d="M192 96a48 48 0 1 0 0-96 48 48 0 1 0 0 96zm-8 352V352h16v96h64V256.9l28.6 47.5c9.1 15.1 28.8 20 43.9 10.9s20-28.8 10.9-43.9l-58.3-97c-17.4-28.9-48.6-46.6-82.3-46.6H177.1c-33.7 0-64.9 17.7-82.3 46.6l-58.3 97c-9.1 15.1-4.2 34.8 10.9 43.9s34.8 4.2 43.9-10.9L120 256.9V448h64z"/></svg>