<svg xmlns="http://www.w3.org/2000/svg" viewBox="0 0 640 512"><!--! Font Awesome Pro 6.4.0 by @fontawesome - https://fontawesome.com License - https://fontawesome.com/license (Commercial License) Copyright 2023 Fonticons, Inc. --><defs><style>.fa-secondary{opacity:.4}</style></defs><path class="fa-primary" d="M283.7 354l116.1 85.8c13.9 10.3 19.6 28.3 14.2 44.7s-20.7 27.5-38 27.5H168c-22.1 0-40-17.9-40-40s17.9-40 40-40h86.6l-53.2-39.3c-34.9-25.8-45.8-73.3-25.6-111.8l48.7-92.5C238.9 161.1 267.2 144 298 144c26.6 0 51.6 12.7 67.2 34.2l26.2 36L446.7 169c17.1-14 42.3-11.5 56.3 5.6s11.5 42.3-5.6 56.3l-88 72c-8.5 7-19.5 10.1-30.4 8.7s-20.8-7.2-27.2-16.1L328.7 264l-45 90z"/><path class="fa-secondary" d="M320 64a64 64 0 1 1 128 0A64 64 0 1 1 320 64z"/></svg>