<svg xmlns="http://www.w3.org/2000/svg" viewBox="0 0 512 512"><!--! Font Awesome Pro 6.4.0 by @fontawesome - https://fontawesome.com License - https://fontawesome.com/license (Commercial License) Copyright 2023 Fonticons, Inc. --><defs><style>.fa-secondary{opacity:.4}</style></defs><path class="fa-primary" d="M128 80a48 48 0 1 1 96 0 48 48 0 1 1 -96 0zM257 256l8 32h53.8c33.3 0 63.2 20.7 74.9 51.9l25.5 68 18.7-6.2c16.8-5.6 34.9 3.5 40.5 20.2s-3.5 34.9-20.2 40.5l-48 16c-16.3 5.4-34-3-40.1-19.1l-36.3-96.9c-2.3-6.2-8.3-10.4-15-10.4H240.7c-.5 0-.9 0-1.4 0H233c-29.4 0-55-20-62.1-48.5L149.8 219c-7.5-30 15.2-59 46.1-59c20.4 0 38.4 13 44.9 32H320c17.7 0 32 14.3 32 32s-14.3 32-32 32H257z"/><path class="fa-secondary" d="M58.1 128.5c17.4-3.3 34.1 8.2 37.3 25.6l33.3 177.7c5.7 30.3 32.1 52.2 62.9 52.2H272c17.7 0 32 14.3 32 32s-14.3 32-32 32H191.7c-61.6 0-114.5-43.9-125.8-104.4L32.5 165.9c-3.3-17.4 8.2-34.1 25.6-37.3z"/></svg>