<svg xmlns="http://www.w3.org/2000/svg" viewBox="0 0 448 512"><!--! Font Awesome Pro 6.4.0 by @fontawesome - https://fontawesome.com License - https://fontawesome.com/license (Commercial License) Copyright 2023 Fonticons, Inc. --><defs><style>.fa-secondary{opacity:.4}</style></defs><path class="fa-primary" d="M352 48a48 48 0 1 1 96 0 48 48 0 1 1 -96 0zM128 128c0-17.7 14.3-32 32-32H319.4c43.6 0 64.6 53.4 32.8 83.1l-74.4 69.4 60.2 60.2c9 9 14.1 21.2 14.1 33.9V416c0 17.7-14.3 32-32 32s-32-14.3-32-32V349.3l-77.9-77.8c-26.6-26.6-24.6-70.3 4.3-94.4l20.4-17H160c-17.7 0-32-14.3-32-32zM81.4 353.4l86.9-86.9c4.6 10 11 19.3 19.3 27.5l21.8 21.8-82.7 82.7c-12.5 12.5-32.8 12.5-45.3 0s-12.5-32.8 0-45.3z"/><path class="fa-secondary" d="M135.2 478.3c7.9-4 11.1-13.6 7.2-21.5s-13.6-11.1-21.5-7.2l-6.2 3.1c-9.2 4.6-20.4 2.8-27.7-4.5L27.3 388.7c-6.2-6.2-16.4-6.2-22.6 0s-6.2 16.4 0 22.6l59.6 59.6c17 17 43.1 21.3 64.6 10.5l6.2-3.1zm280.4-10.4c2.1-8.6-3.1-17.3-11.6-19.4s-17.3 3.1-19.4 11.6l-.4 1.7c-2.7 10.7-12.3 18.2-23.3 18.2H272c-8.8 0-16 7.2-16 16s7.2 16 16 16h88.8c25.7 0 48.1-17.5 54.3-42.4l.4-1.7z"/></svg>