<svg xmlns="http://www.w3.org/2000/svg" viewBox="0 0 512 512"><!--! Font Awesome Pro 6.4.0 by @fontawesome - https://fontawesome.com License - https://fontawesome.com/license (Commercial License) Copyright 2023 Fonticons, Inc. --><defs><style>.fa-secondary{opacity:.4}</style></defs><path class="fa-primary" d="M400 32a48 48 0 1 1 0 96 48 48 0 1 1 0-96zM361 196.3L301.3 256H336c26.5 0 48 21.5 48 48v80c0 7.6-2.7 14.7-7.2 20.2L320 374.6V320H214.7L171 297.3c-12.2-20.2-9.8-48.8 13.8-64.9L244 192H160c-17.7 0-32-14.3-32-32s14.3-32 32-32H332.7c35.6 0 53.5 43.1 28.3 68.3z"/><path class="fa-secondary" d="M2.7 236.9c6.1-11.8 20.6-16.3 32.4-10.2L418.5 425.8c13.6 7.1 29.8 7.2 43.6 .3l15.2-7.6c11.9-5.9 26.3-1.1 32.2 10.7s1.1 26.3-10.7 32.2l-15.2 7.6c-27.5 13.7-59.9 13.5-87.2-.7L12.9 269.3C1.2 263.2-3.4 248.7 2.7 236.9z"/></svg>