<svg xmlns="http://www.w3.org/2000/svg" viewBox="0 0 576 512"><!--! Font Awesome Pro 6.4.0 by @fontawesome - https://fontawesome.com License - https://fontawesome.com/license (Commercial License) Copyright 2023 Fonticons, Inc. --><defs><style>.fa-secondary{opacity:.4}</style></defs><path class="fa-primary" d="M64 32a48 48 0 1 1 0 96 48 48 0 1 1 0-96zm48 237.3v72.1l38.4 51.2c6.2 8.3 9.6 18.4 9.6 28.8V480c0 17.7-14.3 32-32 32s-32-14.3-32-32V426.7L64 384v96c0 17.7-14.3 32-32 32s-32-14.3-32-32V278.3l0-.9V221.6c0-34 27.6-61.6 61.6-61.6c20.3 0 39.7 8.1 54 22.4L157.3 224H224c17.7 0 32 14.3 32 32s-14.3 32-32 32H150.6c-12.7 0-24.9-5.1-33.9-14.1l-4.7-4.7z"/><path class="fa-secondary" d="M224 0c17.7 0 32 14.3 32 32V192H192V32c0-17.7 14.3-32 32-32zM544 0c17.7 0 32 14.3 32 32V480c0 17.7-14.3 32-32 32s-32-14.3-32-32V32c0-17.7 14.3-32 32-32zM192 480V320h64l0 160c0 17.7-14.3 32-32 32s-32-14.3-32-32zM295.8 11C301.9 4 310.7 0 320 0H448c17.7 0 32 14.3 32 32V416c0 17.7-14.3 32-32 32s-32-14.3-32-32c0 17.7-14.3 32-32 32c-16.8 0-30.6-12.9-31.9-29.4l-.7 3.6c-3.5 17.3-20.3 28.6-37.7 25.1s-28.6-20.3-25.1-37.7l30.9-154.6L288.3 36.5C287 27.3 289.7 18 295.8 11z"/></svg>