<svg xmlns="http://www.w3.org/2000/svg" viewBox="0 0 640 512"><!--! Font Awesome Pro 6.4.0 by @fontawesome - https://fontawesome.com License - https://fontawesome.com/license (Commercial License) Copyright 2023 Fonticons, Inc. --><defs><style>.fa-secondary{opacity:.4}</style></defs><path class="fa-primary" d="M96 240a16 16 0 1 1 32 0 16 16 0 1 1 -32 0zM32 488c0-13.3 10.7-24 24-24H584c13.3 0 24 10.7 24 24s-10.7 24-24 24H56c-13.3 0-24-10.7-24-24zM496 224a16 16 0 1 1 0 32 16 16 0 1 1 0-32z"/><path class="fa-secondary" d="M232 88a88 88 0 1 1 176 0A88 88 0 1 1 232 88zM208 322.7c-47.3 15.8-82.3 37.7-97.3 50.1c-20.4 17-50.6 14.2-67.6-6.1s-14.2-50.6 6.1-67.6c8-6.6 18.6-14.4 31.7-22.5c8.4 7.1 19.2 11.4 31 11.4c26.5 0 48-21.5 48-48c0-.7 0-1.4 0-2.1c45.1-17 99.8-29.9 160-29.9c47.3 0 91.1 7.9 129.6 19.6c-1.1 4-1.6 8.1-1.6 12.4c0 26.5 21.5 48 48 48c17.7 0 33.2-9.6 41.5-23.9c23.1 12.5 41.2 25 53.2 35c20.4 17 23.1 47.2 6.1 67.6s-47.2 23.1-67.6 6.1c-15-12.5-50-34.4-97.3-50.1V432H208V322.7zM304 280a24 24 0 1 0 -48 0 24 24 0 1 0 48 0zm56 104a24 24 0 1 0 0-48 24 24 0 1 0 0 48z"/></svg>