<svg xmlns="http://www.w3.org/2000/svg" viewBox="0 0 640 512"><!--! Font Awesome Pro 6.4.0 by @fontawesome - https://fontawesome.com License - https://fontawesome.com/license (Commercial License) Copyright 2023 Fonticons, Inc. --><defs><style>.fa-secondary{opacity:.4}</style></defs><path class="fa-primary" d="M432 48a48 48 0 1 1 96 0 48 48 0 1 1 -96 0zm40 304V480c0 17.7-14.3 32-32 32s-32-14.3-32-32V256.9l-28.6 47.5c-9.1 15.1-28.8 20-43.9 10.9s-20-28.8-10.9-43.9l58.3-97c17.4-28.9 48.6-46.6 82.3-46.6h29.7c33.7 0 64.9 17.7 82.3 46.6l58.3 97c9.1 15.1 4.2 34.8-10.9 43.9s-34.8 4.2-43.9-10.9L552 256.9V480c0 17.7-14.3 32-32 32s-32-14.3-32-32V352H472z"/><path class="fa-secondary" d="M176 8c6.6 0 12.4 4 14.9 10.1l29.4 74 76.2-23.1c6.3-1.9 13.1 .2 17.2 5.3s4.6 12.2 1.4 17.9l-39.5 69.1 65.6 45.1c5.4 3.7 8 10.3 6.5 16.7s-6.7 11.2-13.1 12.2l-78.7 12.2 5.6 79.4c.5 6.5-3.1 12.7-9 15.5s-12.9 1.8-17.8-2.6L176 286.1l-58.6 53.9c-4.8 4.4-11.9 5.5-17.8 2.6s-9.5-9-9-15.5l5.6-79.4L17.6 235.4c-6.5-1-11.7-5.9-13.1-12.2s1.1-13 6.5-16.7l65.6-45.1L37 92.2c-3.3-5.7-2.7-12.8 1.4-17.9s10.9-7.2 17.2-5.3l76.2 23.1 29.4-74C163.6 12 169.4 8 176 8z"/></svg>