<svg xmlns="http://www.w3.org/2000/svg" viewBox="0 0 384 512"><!--! Font Awesome Pro 6.4.0 by @fontawesome - https://fontawesome.com License - https://fontawesome.com/license (Commercial License) Copyright 2023 Fonticons, Inc. --><defs><style>.fa-secondary{opacity:.4}</style></defs><path class="fa-primary" d="M32 64c0-17.7 14.3-32 32-32H192c88.4 0 160 71.6 160 160s-71.6 160-160 160H96v96c0 17.7-14.3 32-32 32s-32-14.3-32-32V320 64zM96 288h96c53 0 96-43 96-96s-43-96-96-96H96V288z"/><path class="fa-secondary" d="M32 160l0 64c-17.7 0-32-14.3-32-32s14.3-32 32-32zm250.5 64H96V160H282.5c3.5 10 5.5 20.8 5.5 32s-1.9 22-5.5 32zm66.3 0c2.1-10.3 3.2-21 3.2-32s-1.1-21.7-3.2-32H352c17.7 0 32 14.3 32 32s-14.3 32-32 32h-3.2z"/></svg>