<svg xmlns="http://www.w3.org/2000/svg" viewBox="0 0 640 512"><!--! Font Awesome Pro 6.4.0 by @fontawesome - https://fontawesome.com License - https://fontawesome.com/license (Commercial License) Copyright 2023 Fonticons, Inc. --><defs><style>.fa-secondary{opacity:.4}</style></defs><path class="fa-primary" d="M456 136v64c0 13.3 10.7 24 24 24s24-10.7 24-24V136h64c13.3 0 24-10.7 24-24s-10.7-24-24-24H504V24c0-13.3-10.7-24-24-24s-24 10.7-24 24V88H392c-13.3 0-24 10.7-24 24s10.7 24 24 24h64z"/><path class="fa-secondary" d="M228.9 24.6c-7.7-18.6-28-28.5-47.4-23.2l-88 24C76.1 30.2 64 46 64 64c0 247.4 200.6 448 448 448c18 0 33.8-12.1 38.6-29.5l24-88c5.3-19.4-4.6-39.7-23.2-47.4l-96-40c-16.3-6.8-35.2-2.1-46.3 11.6L368.7 368C298.3 334.7 241.3 277.7 208 207.3L257.3 167c13.7-11.2 18.4-30 11.6-46.3l-40-96z"/></svg>