<svg xmlns="http://www.w3.org/2000/svg" viewBox="0 0 576 512"><!--! Font Awesome Pro 6.4.0 by @fontawesome - https://fontawesome.com License - https://fontawesome.com/license (Commercial License) Copyright 2023 Fonticons, Inc. --><defs><style>.fa-secondary{opacity:.4}</style></defs><path class="fa-primary" d="M64 32H96V384c0 17.7 14.3 32 32 32h64c17.7 0 32-14.3 32-32V32H512c35.3 0 64 28.7 64 64V448c0 35.3-28.7 64-64 64H64c-35.3 0-64-28.7-64-64V96C0 60.7 28.7 32 64 32zM352 96c-17.7 0-32 14.3-32 32v32c0 17.7 14.3 32 32 32H480c17.7 0 32-14.3 32-32V128c0-17.7-14.3-32-32-32H352zM320 288a32 32 0 1 0 64 0 32 32 0 1 0 -64 0zm160-32a32 32 0 1 0 0 64 32 32 0 1 0 0-64zM448 416a32 32 0 1 0 64 0 32 32 0 1 0 -64 0zm-96-32a32 32 0 1 0 0 64 32 32 0 1 0 0-64z"/><path class="fa-secondary" d="M128 0C110.3 0 96 14.3 96 32V384c0 17.7 14.3 32 32 32h64c17.7 0 32-14.3 32-32V32c0-17.7-14.3-32-32-32H128zM320 288a32 32 0 1 0 64 0 32 32 0 1 0 -64 0zm128 0a32 32 0 1 0 64 0 32 32 0 1 0 -64 0zm32 96a32 32 0 1 0 0 64 32 32 0 1 0 0-64zM320 416a32 32 0 1 0 64 0 32 32 0 1 0 -64 0z"/></svg>