<svg xmlns="http://www.w3.org/2000/svg" viewBox="0 0 640 512"><!--! Font Awesome Pro 6.4.0 by @fontawesome - https://fontawesome.com License - https://fontawesome.com/license (Commercial License) Copyright 2023 Fonticons, Inc. --><defs><style>.fa-secondary{opacity:.4}</style></defs><path class="fa-primary" d="M192 64c0-35.3 28.7-64 64-64H576c35.3 0 64 28.7 64 64v69.6c-12.9-6.1-27.9-7.1-41.7-2.5l-98.9 33-37.8-60.5c-2.9-4.7-8.1-7.5-13.6-7.5s-10.6 2.8-13.6 7.5L388 177.9l-15.3-19.7c-3-3.9-7.7-6.2-12.6-6.2s-9.6 2.3-12.6 6.2l-56 72c-3.8 4.8-4.4 11.4-1.7 16.9s8.3 9 14.4 9h64v64H256c-35.3 0-64-28.7-64-64V64zM320 96a32 32 0 1 0 -64 0 32 32 0 1 0 64 0z"/><path class="fa-secondary" d="M160 96H64C28.7 96 0 124.7 0 160V384c0 35.3 28.7 64 64 64H289.9c4.4-18.2 15.9-33.1 29.6-43.4c6.8-5.1 14.5-9.4 22.6-12.6H192c-17.7 0-32-14.3-32-32V96zM56 168c0-8.8 7.2-16 16-16H88c8.8 0 16 7.2 16 16v16c0 8.8-7.2 16-16 16H72c-8.8 0-16-7.2-16-16V168zm16 80H88c8.8 0 16 7.2 16 16v16c0 8.8-7.2 16-16 16H72c-8.8 0-16-7.2-16-16V264c0-8.8 7.2-16 16-16zM56 360c0-8.8 7.2-16 16-16H88c8.8 0 16 7.2 16 16v16c0 8.8-7.2 16-16 16H72c-8.8 0-16-7.2-16-16V360zM640 184c0-7.7-3.7-15-10-19.5s-14.3-5.7-21.6-3.3l-192 64c-9.8 3.3-16.4 12.4-16.4 22.8v48V417.5c-5.1-1-10.5-1.5-16-1.5c-35.3 0-64 21.5-64 48s28.7 48 64 48s64-21.5 64-48V313.3l144-48v88.2c-5.1-1-10.5-1.5-16-1.5c-35.3 0-64 21.5-64 48s28.7 48 64 48s64-21.5 64-48c0-1.5-.1-3-.3-4.4c.2-1.2 .3-2.4 .3-3.6V232 184zM461.6 103.5c-2.9-4.7-8.1-7.5-13.6-7.5s-10.6 2.8-13.6 7.5L388 177.9l-15.3-19.7c-3-3.9-7.7-6.2-12.6-6.2s-9.6 2.3-12.6 6.2l-56 72c-3.8 4.8-4.4 11.4-1.7 16.9s8.3 9 14.4 9h64l0-7.9c0-24.1 15.4-45.5 38.3-53.1l93.1-31-37.8-60.5z"/></svg>