<svg xmlns="http://www.w3.org/2000/svg" viewBox="0 0 640 512"><!--! Font Awesome Pro 6.4.0 by @fontawesome - https://fontawesome.com License - https://fontawesome.com/license (Commercial License) Copyright 2023 Fonticons, Inc. --><defs><style>.fa-secondary{opacity:.4}</style></defs><path class="fa-primary" d="M496 512a144 144 0 1 0 0-288 144 144 0 1 0 0 288zm67.3-164.7l-72 72c-6.2 6.2-16.4 6.2-22.6 0l-40-40c-6.2-6.2-6.2-16.4 0-22.6s16.4-6.2 22.6 0L480 385.4l60.7-60.7c6.2-6.2 16.4-6.2 22.6 0s6.2 16.4 0 22.6z"/><path class="fa-secondary" d="M64 128V384c0 17.7-14.3 32-32 32s-32-14.3-32-32V128c0-17.7 14.3-32 32-32s32 14.3 32 32zm448 0v64.7c-5.3-.5-10.6-.7-16-.7c-16.6 0-32.7 2.3-48 6.6V128c0-17.7 14.3-32 32-32s32 14.3 32 32zm-96 83.2c-57 29.1-96 88.4-96 156.8c0 5.4 .2 10.7 .7 16H96V128H416v83.2z"/></svg>