<svg xmlns="http://www.w3.org/2000/svg" viewBox="0 0 512 512"><!--! Font Awesome Pro 6.4.0 by @fontawesome - https://fontawesome.com License - https://fontawesome.com/license (Commercial License) Copyright 2023 Fonticons, Inc. --><defs><style>.fa-secondary{opacity:.4}</style></defs><path class="fa-primary" d="M128 128l128-16 128 16c17.7 0 32-14.3 32-32s-14.3-32-32-32L256 80 128 64c-17.7 0-32 14.3-32 32s14.3 32 32 32zM32 160c-17.7 0-32 14.3-32 32V448c0 17.7 14.3 32 32 32s32-14.3 32-32V192c0-17.7-14.3-32-32-32zm480 32c0-17.7-14.3-32-32-32s-32 14.3-32 32V448c0 17.7 14.3 32 32 32s32-14.3 32-32V192z"/><path class="fa-secondary" d="M256 32c17.7 0 32 14.3 32 32V76l-32 4-32-4V64c0-17.7 14.3-32 32-32zm0 80l32 4v76H448V448H64V192H224V116l32-4z"/></svg>