<svg xmlns="http://www.w3.org/2000/svg" viewBox="0 0 576 512"><!--! Font Awesome Pro 6.4.0 by @fontawesome - https://fontawesome.com License - https://fontawesome.com/license (Commercial License) Copyright 2023 Fonticons, Inc. --><defs><style>.fa-secondary{opacity:.4}</style></defs><path class="fa-primary" d="M403.1 403.1C365.4 440.7 313.4 464 256 464C141.1 464 48 370.9 48 256S141.1 48 256 48c57.4 0 109.4 23.3 147.1 60.9l11.3-11.3C426.9 85.1 427 64.7 413 53.8C369.7 20.1 315.2 0 256 0C114.6 0 0 114.6 0 256S114.6 512 256 512c59.2 0 113.7-20.1 157-53.8c13.9-10.9 13.8-31.3 1.3-43.8l-11.3-11.3zm75.5-12.5l9.9 9.9c13.1 13.1 34.7 12.5 44.9-3C560.3 357 576 308.3 576 256s-15.7-101-42.6-141.5c-10.2-15.4-31.8-16-44.9-3l-9.9 9.9C509.4 157.7 528 204.7 528 256s-18.6 98.3-49.4 134.6zM192 128a32 32 0 1 1 64 0 32 32 0 1 1 -64 0zM128 256a32 32 0 1 1 64 0 32 32 0 1 1 -64 0zM256 416a32 32 0 1 0 0-64 32 32 0 1 0 0 64zM416 256a32 32 0 1 1 64 0 32 32 0 1 1 -64 0z"/><path class="fa-secondary" d="M108.9 403.1c81.2 81.2 212.9 81.2 294.2 0L278.6 278.6c-12.5-12.5-12.5-32.8 0-45.3L403.1 108.9c-81.2-81.2-212.9-81.2-294.2 0s-81.2 212.9 0 294.2zM128 256a32 32 0 1 1 64 0 32 32 0 1 1 -64 0zM224 96a32 32 0 1 1 0 64 32 32 0 1 1 0-64zm0 288a32 32 0 1 1 64 0 32 32 0 1 1 -64 0zM479.6 120.4L366.6 233.4c-12.5 12.5-12.5 32.8 0 45.3l112 112c31.6-36.7 50.5-84.4 50.3-136.6c-.2-51-18.8-97.6-49.4-133.6zM416 256a32 32 0 1 1 64 0 32 32 0 1 1 -64 0z"/></svg>