<svg xmlns="http://www.w3.org/2000/svg" viewBox="0 0 640 512"><!--! Font Awesome Pro 6.4.0 by @fontawesome - https://fontawesome.com License - https://fontawesome.com/license (Commercial License) Copyright 2023 Fonticons, Inc. --><defs><style>.fa-secondary{opacity:.4}</style></defs><path class="fa-primary" d="M352 368a144 144 0 1 1 288 0 144 144 0 1 1 -288 0zm168 72a24 24 0 1 0 -48 0 24 24 0 1 0 48 0zm-8-152c0-8.8-7.2-16-16-16s-16 7.2-16 16v80c0 8.8 7.2 16 16 16s16-7.2 16-16V288z"/><path class="fa-secondary" d="M192 93.7C192 59.5 221 0 256 0c36 0 64 59.5 64 93.7v84.6l77.1 44.1C350.6 254 320 307.4 320 368c0 54.2 24.5 102.7 63.1 135c-2 5.3-7.1 9-13.1 9c-1.3 0-2.6-.2-3.9-.5L256 480 145.9 511.5c-1.3 .4-2.6 .5-3.9 .5c-7.8 0-14-6.3-14-14V456c0-5 2.4-9.8 6.4-12.8L192 400l0-70.9-171.6 49C10.2 381.1 0 373.4 0 362.8V297.3c0-5.7 3.1-11 8.1-13.9L192 178.3V93.7z"/></svg>