<svg xmlns="http://www.w3.org/2000/svg" viewBox="0 0 512 512"><!--! Font Awesome Pro 6.4.0 by @fontawesome - https://fontawesome.com License - https://fontawesome.com/license (Commercial License) Copyright 2023 Fonticons, Inc. --><defs><style>.fa-secondary{opacity:.4}</style></defs><path class="fa-primary" d="M408.3 114.3C370.3 73.5 316.1 48 256 48C141.1 48 48 141.1 48 256c0 60.1 25.5 114.3 66.3 152.3c58.5-37.6 111.3-85 160.1-133.8s96.3-101.7 133.8-160.1zm38 57.5c-32.6 46-75.8 97.1-126.6 147.9s-101.8 94-147.9 126.6C197.6 457.7 226 464 256 464c114.9 0 208-93.1 208-208c0-30-6.3-58.4-17.7-84.2z"/><path class="fa-secondary" d="M503.9 8.1c35.2 35.2-47.3 174.7-184.2 311.6S43.3 539.1 8.1 503.9c-22.1-22.1 2.3-85.6 57.6-163.7c9.1 20.7 21.8 40.2 38 57.5c-5.7 8.8-11.1 17.8-16.3 26.9c69.3-39.6 130.8-94 187-150.1s110.6-117.7 150.1-187c-9.1 5.2-18 10.6-26.9 16.3c-17.4-16.2-36.9-28.9-57.5-38C418.3 10.4 481.7-14 503.9 8.1z"/></svg>