<svg xmlns="http://www.w3.org/2000/svg" viewBox="0 0 640 512"><!--! Font Awesome Pro 6.4.0 by @fontawesome - https://fontawesome.com License - https://fontawesome.com/license (Commercial License) Copyright 2023 Fonticons, Inc. --><defs><style>.fa-secondary{opacity:.4}</style></defs><path class="fa-primary" d="M5.1 9.2C13.3-1.2 28.4-3.1 38.8 5.1l592 464c10.4 8.2 12.3 23.3 4.1 33.7s-23.3 12.3-33.7 4.1L9.2 42.9C-1.2 34.7-3.1 19.6 5.1 9.2z"/><path class="fa-secondary" d="M161.3 223.1L445.9 447.3c1.4 2.4 2.1 5.1 2.1 8V498c0 7.8-6.3 14-14 14c-1.3 0-2.6-.2-3.9-.5L320 480 209.9 511.5c-1.3 .4-2.6 .5-3.9 .5c-7.8 0-14-6.3-14-14V456c0-5 2.4-9.8 6.4-12.8L256 400V320L85.1 377C74.7 380.4 64 372.7 64 361.8V305.1c0-10.7 5.3-20.7 14.2-26.6l83.1-55.4zM554.9 377l-72.5-24.2-237-185.8L256 160V93.7C256 59.5 285 0 320 0c36 0 64 59.5 64 93.7l0 66.3L561.8 278.5c8.9 5.9 14.2 15.9 14.2 26.6v56.7c0 10.9-10.7 18.6-21.1 15.2z"/></svg>