<svg xmlns="http://www.w3.org/2000/svg" viewBox="0 0 576 512"><!--! Font Awesome Pro 6.4.0 by @fontawesome - https://fontawesome.com License - https://fontawesome.com/license (Commercial License) Copyright 2023 Fonticons, Inc. --><defs><style>.fa-secondary{opacity:.4}</style></defs><path class="fa-primary" d="M231.7 317.6L256 320h88l138.3 0c34.2 0 93.7-28 93.7-64c0-35-59.5-64-93.7-64H344 256l-24.3 2.4-110 11L113.8 142c-1-8-7.8-14-15.9-14H62.1c-8.1 0-14.9 6-15.9 14L36 224.2c-1.3-.2-2.6-.2-4-.2c-17.7 0-32 14.3-32 32s14.3 32 32 32c1.3 0 2.7-.1 4-.2L46.2 370c1 8 7.8 14 15.9 14H97.9c8.1 0 14.9-6 15.9-14l7.9-63.4 110 11zM336 128h32v16c0 8.8 7.2 16 16 16s16-7.2 16-16V112c8.8 0 16-7.2 16-16s-7.2-16-16-16V48c0-8.8-7.2-16-16-16s-16 7.2-16 16V64H328l8 64zM248 64H224c-17.7 0-32 14.3-32 32s14.3 32 32 32h16l8-64zm-8 320H224c-17.7 0-32 14.3-32 32s14.3 32 32 32h24l-8-64zm88 64h40v16c0 8.8 7.2 16 16 16s16-7.2 16-16V432c8.8 0 16-7.2 16-16s-7.2-16-16-16V368c0-8.8-7.2-16-16-16s-16 7.2-16 16v16H336l-8 64z"/><path class="fa-secondary" d="M231.7 317.6L254.2 498c1 8 7.8 14 15.9 14h35.8c8.1 0 14.9-6 15.9-14L344 320H256l-24.3-2.4zm0-123.1L256 192h88L321.8 14c-1-8-7.8-14-15.9-14H270.1c-8.1 0-14.9 6-15.9 14L231.7 194.4z"/></svg>