<svg xmlns="http://www.w3.org/2000/svg" viewBox="0 0 576 512"><!--! Font Awesome Pro 6.4.0 by @fontawesome - https://fontawesome.com License - https://fontawesome.com/license (Commercial License) Copyright 2023 Fonticons, Inc. --><defs><style>.fa-secondary{opacity:.4}</style></defs><path class="fa-primary" d="M512 128A64 64 0 1 0 512 0a64 64 0 1 0 0 128zM224 64C124.4 64 40 129 10.9 218.9l18.4 18.4c12 12 28.3 18.7 45.3 18.7h33.6c12.7 0 24.9 5.1 33.9 14.1L192 320v32c0 17.7 14.3 32 32 32v47c0 13.8 11.2 25 25 25c9.2 0 17.7-5.1 22-13.2l41.3-76.6c5-9.3 7.6-19.8 7.6-30.3V320c0-17.7-14.3-32-32-32H222.1c-9 0-17.7-3.6-24.1-10c-12.5-12.5-13.4-32.4-2.1-45.9l52.7-63.2c4.8-5.8 7.4-13 7.4-20.5V66.3c-10.5-1.5-21.1-2.3-32-2.3z"/><path class="fa-secondary" d="M224 512c123.7 0 224-100.3 224-224c0-112.8-83.4-206.2-192-221.7v82.1c0 7.5-2.6 14.7-7.4 20.5l-52.7 63.2c-11.3 13.5-10.4 33.5 2.1 45.9c6.4 6.4 15.1 10 24.1 10H288c17.7 0 32 14.3 32 32v15.9c0 10.6-2.6 21-7.6 30.3l-41.3 76.6c-4.4 8.1-12.8 13.2-22 13.2c-13.8 0-25-11.2-25-25V384c-17.7 0-32-14.3-32-32V320l-49.9-49.9c-9-9-21.2-14.1-33.9-14.1H74.5c-17 0-33.3-6.7-45.3-18.7L10.9 218.9C3.8 240.6 0 263.9 0 288C0 411.7 100.3 512 224 512z"/></svg>