<svg xmlns="http://www.w3.org/2000/svg" viewBox="0 0 448 512"><!--! Font Awesome Pro 6.4.0 by @fontawesome - https://fontawesome.com License - https://fontawesome.com/license (Commercial License) Copyright 2023 Fonticons, Inc. --><defs><style>.fa-secondary{opacity:.4}</style></defs><path class="fa-primary" d="M182.4 72H168c-22.1 0-40 17.9-40 40v32H424c13.3 0 24 10.7 24 24s-10.7 24-24 24H24c-13.3 0-24-10.7-24-24s10.7-24 24-24H80V112c0-48.6 39.4-88 88-88h14.4C190.7 9.7 206.2 0 224 0h64c26.5 0 48 21.5 48 48s-21.5 48-48 48H224c-17.8 0-33.3-9.7-41.6-24z"/><path class="fa-secondary" d="M137.3 512H310.7c32.6 0 60-24.5 63.6-56.9L403.6 192H44.4L73.7 455.1c3.6 32.4 31 56.9 63.6 56.9zm94-251.2l20.2 45.4c1.2 2.6 3.6 4.4 6.3 4.8l47.9 5.9c6.8 .8 9.5 9.5 4.5 14.3l-35.4 34c-2 2-3 4.9-2.4 7.7l9.4 49.1c1.3 6.9-5.8 12.3-11.8 8.9l-42.1-24.4c-2.4-1.4-5.4-1.4-7.8 0L178 430.9c-6 3.5-13.1-1.9-11.8-8.9l9.4-49.1c.5-2.8-.4-5.8-2.4-7.7l-35.4-34c-5-4.8-2.3-13.5 4.5-14.3l47.9-5.9c2.8-.3 5.2-2.1 6.3-4.8l20.2-45.4c2.9-6.4 11.7-6.4 14.5 0z"/></svg>