<svg xmlns="http://www.w3.org/2000/svg" viewBox="0 0 448 512"><!--! Font Awesome Pro 6.4.0 by @fontawesome - https://fontawesome.com License - https://fontawesome.com/license (Commercial License) Copyright 2023 Fonticons, Inc. --><defs><style>.fa-secondary{opacity:.4}</style></defs><path class="fa-primary" d="M182.4 72H168c-22.1 0-40 17.9-40 40v32H424c13.3 0 24 10.7 24 24s-10.7 24-24 24H24c-13.3 0-24-10.7-24-24s10.7-24 24-24H80V112c0-48.6 39.4-88 88-88h14.4C190.7 9.7 206.2 0 224 0h64c26.5 0 48 21.5 48 48s-21.5 48-48 48H224c-17.8 0-33.3-9.7-41.6-24z"/><path class="fa-secondary" d="M310.7 512H137.3c-32.6 0-60-24.5-63.6-56.9L44.4 192H403.6L374.3 455.1c-3.6 32.4-31 56.9-63.6 56.9z"/></svg>