<svg xmlns="http://www.w3.org/2000/svg" viewBox="0 0 384 512"><!--! Font Awesome Pro 6.4.0 by @fontawesome - https://fontawesome.com License - https://fontawesome.com/license (Commercial License) Copyright 2023 Fonticons, Inc. --><defs><style>.fa-secondary{opacity:.4}</style></defs><path class="fa-primary" d="M96 32C78.3 32 64 46.3 64 64C46.3 64 32 78.3 32 96V464H352V96c0-17.7-14.3-32-32-32c0-17.7-14.3-32-32-32H96zm0 104c0-4.4 3.6-8 8-8h24v32H96V136zm0 40h32v32H104c-4.4 0-8-3.6-8-8V176zm72-48c4.4 0 8 3.6 8 8v24H144V128h24zm-24 48h32v24c0 4.4-3.6 8-8 8H144V176zm72-48h24v32H208V136c0-4.4 3.6-8 8-8zm24 48v32H216c-4.4 0-8-3.6-8-8V176h32zm16-48h24c4.4 0 8 3.6 8 8v24H256V128zm32 48v24c0 4.4-3.6 8-8 8H256V176h32zM96 256c0-8.8 7.2-16 16-16h48c8.8 0 16 7.2 16 16v48c0 8.8-7.2 16-16 16H112c-8.8 0-16-7.2-16-16V256z"/><path class="fa-secondary" d="M208 16c0-8.8-7.2-16-16-16s-16 7.2-16 16V32h32V16zM104 128c-4.4 0-8 3.6-8 8v24h32V128H104zm24 48H96v24c0 4.4 3.6 8 8 8h24V176zm16-48v32h32V136c0-4.4-3.6-8-8-8H144zm32 48H144v32h24c4.4 0 8-3.6 8-8V176zM24 464c-13.3 0-24 10.7-24 24s10.7 24 24 24H360c13.3 0 24-10.7 24-24s-10.7-24-24-24H24zM208 136v24h32V128H216c-4.4 0-8 3.6-8 8zm0 40v24c0 4.4 3.6 8 8 8h24V176H208zm72-48H256v32h32V136c0-4.4-3.6-8-8-8zm-24 48v32h24c4.4 0 8-3.6 8-8V176H256z"/></svg>