<svg xmlns="http://www.w3.org/2000/svg" viewBox="0 0 640 512"><!--! Font Awesome Pro 6.4.0 by @fontawesome - https://fontawesome.com License - https://fontawesome.com/license (Commercial License) Copyright 2023 Fonticons, Inc. --><defs><style>.fa-secondary{opacity:.4}</style></defs><path class="fa-primary" d="M80 96A48 48 0 1 0 80 0a48 48 0 1 0 0 96zM64 128c-35.3 0-64 28.7-64 64c0 17.7 14.3 32 32 32h96c17.7 0 32-14.3 32-32c0-35.3-28.7-64-64-64H64zm64 208a48 48 0 1 0 -96 0 48 48 0 1 0 96 0zM64 416c-35.3 0-64 28.7-64 64c0 17.7 14.3 32 32 32h96c17.7 0 32-14.3 32-32c0-35.3-28.7-64-64-64H64zM224 80c0-26.5 21.5-48 48-48H480V192H272c-26.5 0-48-21.5-48-48V80zm0 288c0-26.5 21.5-48 48-48H384V480H272c-26.5 0-48-21.5-48-48V368z"/><path class="fa-secondary" d="M480 192H592c26.5 0 48-21.5 48-48V80c0-26.5-21.5-48-48-48H480V96h96v32H480v64zM384 480H592c26.5 0 48-21.5 48-48V368c0-26.5-21.5-48-48-48H384v64H576v32H384v64z"/></svg>