<svg xmlns="http://www.w3.org/2000/svg" viewBox="0 0 448 512"><!-- Font Awesome Pro 6.0.0-alpha2 by @fontawesome - https://fontawesome.com License - https://fontawesome.com/license (Commercial License) --><defs><style>.fa-secondary{opacity:.4}</style></defs><path d="M304.005 368.006H248.278L286.724 278.309C289.661 271.449 287.442 263.465 281.411 259.074C275.315 254.652 267.065 255.043 261.472 259.965L133.466 371.959C128.433 376.35 126.683 383.396 129.026 389.631C131.372 395.881 137.341 400.006 143.997 400.006H199.724L161.278 489.703C158.341 496.563 160.559 504.547 166.591 508.938C169.405 510.984 172.718 512 175.999 512C179.78 512 183.53 510.672 186.53 508.047L314.536 396.053C319.569 391.662 321.319 384.615 318.975 378.381C316.63 372.131 310.661 368.006 304.005 368.006Z" class="fa-secondary"/><path d="M373.281 226.551C379.883 216.582 384 204.881 384 192C384 156.625 355.375 128 320 128H314.125C317.75 118 320 107.25 320 96C320 43 277 0 224 0C218.875 0 213.875 0.75 208.875 1.5C218.25 14.625 224 30.625 224 48C224 92.125 188.125 128 144 128H128C92.625 128 64 156.625 64 192C64 204.881 68.117 216.582 74.719 226.551C31.979 236.258 0 274.32 0 320C0 373.02 42.98 416 96 416H108.785C104.752 411.586 101.242 406.682 99.074 400.898C92.064 382.256 97.43 360.939 112.393 347.883L240.326 235.941C249.08 228.24 260.318 223.998 271.973 224C282.166 224 291.926 227.174 300.234 233.203C318.461 246.473 324.998 270.201 316.127 290.914L296.801 336.012H303.996C323.887 336.012 341.943 348.525 348.918 367.125C355.275 384.039 351.016 402.848 339.078 416H352C405.02 416 448 373.02 448 320C448 274.32 416.021 236.258 373.281 226.551Z" class="fa-primary"/></svg>