<svg xmlns="http://www.w3.org/2000/svg" viewBox="0 0 512 512"><!--! Font Awesome Pro 6.4.0 by @fontawesome - https://fontawesome.com License - https://fontawesome.com/license (Commercial License) Copyright 2023 Fonticons, Inc. --><defs><style>.fa-secondary{opacity:.4}</style></defs><path class="fa-primary" d="M256 512A256 256 0 1 0 256 0a256 256 0 1 0 0 512zm0-448a128 128 0 1 1 0 256 128 128 0 1 1 0-256z"/><path class="fa-secondary" d="M293.3 174.2C300 166 304 155.5 304 144c0-26.5-21.5-48-48-48s-48 21.5-48 48c0 11.5 4 22 10.7 30.2C207.2 184.5 200 199.4 200 216c0 30.9 25.1 56 56 56s56-25.1 56-56c0-16.6-7.2-31.5-18.7-41.8zM240 144a16 16 0 1 1 32 0 16 16 0 1 1 -32 0zm16 48a24 24 0 1 1 0 48 24 24 0 1 1 0-48z"/></svg>