<svg xmlns="http://www.w3.org/2000/svg" viewBox="0 0 576 512"><!--! Font Awesome Pro 6.4.0 by @fontawesome - https://fontawesome.com License - https://fontawesome.com/license (Commercial License) Copyright 2023 Fonticons, Inc. --><defs><style>.fa-secondary{opacity:.4}</style></defs><path class="fa-primary" d="M0 32C0 14.3 14.3 0 32 0H544c17.7 0 32 14.3 32 32s-14.3 32-32 32H32C14.3 64 0 49.7 0 32zM256 386.7V352h64v34.7l70.6 70.6c12.5 12.5 12.5 32.8 0 45.3s-32.8 12.5-45.3 0L288 445.3l-57.4 57.4c-12.5 12.5-32.8 12.5-45.3 0s-12.5-32.8 0-45.3L256 386.7z"/><path class="fa-secondary" d="M32 288V64H96V288H480V64h64V288c0 35.3-28.7 64-64 64H96c-35.3 0-64-28.7-64-64z"/></svg>