<svg xmlns="http://www.w3.org/2000/svg" viewBox="0 0 448 512"><!--! Font Awesome Pro 6.4.0 by @fontawesome - https://fontawesome.com License - https://fontawesome.com/license (Commercial License) Copyright 2023 Fonticons, Inc. --><defs><style>.fa-secondary{opacity:.4}</style></defs><path class="fa-primary" d="M0 32C0 14.3 14.3 0 32 0H176c61.9 0 112 50.1 112 112c0 52.8-36.6 97.1-85.8 108.9L288 306.7 242.7 352l-128-128H64v64c0 17.7-14.3 32-32 32s-32-14.3-32-32V192 32zM288 397.3L333.3 352 438.6 457.4c12.5 12.5 12.5 32.8 0 45.3s-32.8 12.5-45.3 0L288 397.3zM64 160H176c26.5 0 48-21.5 48-48s-21.5-48-48-48H64v96z"/><path class="fa-secondary" d="M438.6 201.4c12.5 12.5 12.5 32.8 0 45.3l-256 256c-12.5 12.5-32.8 12.5-45.3 0s-12.5-32.8 0-45.3l256-256c12.5-12.5 32.8-12.5 45.3 0z"/></svg>