<svg xmlns="http://www.w3.org/2000/svg" viewBox="0 0 640 512"><!--! Font Awesome Pro 6.4.0 by @fontawesome - https://fontawesome.com License - https://fontawesome.com/license (Commercial License) Copyright 2023 Fonticons, Inc. --><defs><style>.fa-secondary{opacity:.4}</style></defs><path class="fa-primary" d="M5.1 9.2C13.3-1.2 28.4-3.1 38.8 5.1l592 464c10.4 8.2 12.3 23.3 4.1 33.7s-23.3 12.3-33.7 4.1L9.2 42.9C-1.2 34.7-3.1 19.6 5.1 9.2z"/><path class="fa-secondary" d="M446.8 448l51 40.2C486.1 502.7 468.1 512 448 512H192c-35.3 0-64-28.7-64-64V384H96c-17.7 0-32-14.3-32-32V256c0-33.4 25.6-60.8 58.2-63.7L324.9 352H192v16 16 64H446.8zM544 384H522.2l-245-192H512c35.3 0 64 28.7 64 64v96c0 17.7-14.3 32-32 32zM192 64v61.2L128 75V64c0-35.3 28.7-64 64-64H418.7c17 0 33.3 6.7 45.3 18.7L493.3 48c12 12 18.7 28.3 18.7 45.3V160H448V93.3L418.7 64H192zM520 272a24 24 0 1 0 -48 0 24 24 0 1 0 48 0z"/></svg>