<svg xmlns="http://www.w3.org/2000/svg" viewBox="0 0 448 512"><!--! Font Awesome Pro 6.4.0 by @fontawesome - https://fontawesome.com License - https://fontawesome.com/license (Commercial License) Copyright 2023 Fonticons, Inc. --><defs><style>.fa-secondary{opacity:.4}</style></defs><path class="fa-primary" d="M128 32c0-17.7 14.3-32 32-32h64c17.7 0 32 14.3 32 32h60.1c21.2 0 41.6 8.4 56.6 23.4l33.9 33.9c12.5 12.5 12.5 32.8 0 45.3s-32.8 12.5-45.3 0l-33.9-33.9c-3-3-7.1-4.7-11.3-4.7H256v64H128V32zm64 224c13.3 0 24 10.7 24 24v32h32c13.3 0 24 10.7 24 24s-10.7 24-24 24H216v32c0 13.3-10.7 24-24 24s-24-10.7-24-24V360H136c-13.3 0-24-10.7-24-24s10.7-24 24-24h32V280c0-13.3 10.7-24 24-24z"/><path class="fa-secondary" d="M117.4 160c-33.3 0-61 25.5-63.8 58.7L35 442.7C31.9 480 61.3 512 98.8 512H285.2c37.4 0 66.9-32 63.8-69.3l-18.7-224c-2.8-33.2-30.5-58.7-63.8-58.7H117.4zM216 280v32h32c13.3 0 24 10.7 24 24s-10.7 24-24 24H216v32c0 13.3-10.7 24-24 24s-24-10.7-24-24V360H136c-13.3 0-24-10.7-24-24s10.7-24 24-24h32V280c0-13.3 10.7-24 24-24s24 10.7 24 24z"/></svg>