<svg xmlns="http://www.w3.org/2000/svg" viewBox="0 0 448 512"><!--! Font Awesome Pro 6.4.0 by @fontawesome - https://fontawesome.com License - https://fontawesome.com/license (Commercial License) Copyright 2023 Fonticons, Inc. --><defs><style>.fa-secondary{opacity:.4}</style></defs><path class="fa-primary" d="M256 464V304c0-8.8 7.2-16 16-16h64c8.8 0 16 7.2 16 16s7.2 16 16 16h32c8.8 0 16-7.2 16-16s7.2-16 16-16s16 7.2 16 16v96c0 8.8-7.2 16-16 16H368c-8.8 0-16-7.2-16-16s-7.2-16-16-16s-16 7.2-16 16v64c0 8.8-7.2 16-16 16H272c-8.8 0-16-7.2-16-16zm128 0a16 16 0 1 1 -32 0 16 16 0 1 1 32 0zm64 0a16 16 0 1 1 -32 0 16 16 0 1 1 32 0z"/><path class="fa-secondary" d="M48 32C21.5 32 0 53.5 0 80v96c0 26.5 21.5 48 48 48h96c26.5 0 48-21.5 48-48V80c0-26.5-21.5-48-48-48H48zm80 64v64H64V96h64zM48 288c-26.5 0-48 21.5-48 48v96c0 26.5 21.5 48 48 48h96c26.5 0 48-21.5 48-48V336c0-26.5-21.5-48-48-48H48zm80 64v64H64V352h64zM256 80v96c0 26.5 21.5 48 48 48h96c26.5 0 48-21.5 48-48V80c0-26.5-21.5-48-48-48H304c-26.5 0-48 21.5-48 48zm64 16h64v64H320V96z"/></svg>