<svg xmlns="http://www.w3.org/2000/svg" viewBox="0 0 640 512"><!-- Font Awesome Pro 6.0.0-alpha2 by @fontawesome - https://fontawesome.com License - https://fontawesome.com/license (Commercial License) --><defs><style>.fa-secondary{opacity:.4}</style></defs><path d="M496.244 352C452.062 352 416.244 387.816 416.244 432S452.062 512 496.244 512C540.428 512 576.244 476.184 576.244 432S540.428 352 496.244 352ZM636.756 31.012L617.004 6.014C611.504 -0.861 601.504 -1.986 594.504 3.389L362 181.252L401.752 231.375L634.254 53.51C641.131 48.01 642.254 37.887 636.756 31.012Z" class="fa-secondary"/><path d="M93.252 257.748C71.252 275.246 53.002 313.494 38.627 355.242L99.002 333.119C104.752 330.994 109.627 337.869 105.627 342.617L11 454.736C3.75 487.109 0 510.232 0 510.232S206.754 523.732 266.629 476.109C326.631 428.363 343.256 325.994 343.256 325.994L256.504 216.75C256.504 216.75 153.129 209.875 93.252 257.748ZM327.756 138.256C322.631 131.881 312.631 133.131 309.131 140.506L283.756 195.127L370.506 304.246L429.258 291.871C437.258 290.246 440.758 280.746 435.633 274.246L327.756 138.256Z" class="fa-primary"/></svg>