<svg xmlns="http://www.w3.org/2000/svg" viewBox="0 0 448 512"><!--! Font Awesome Pro 6.4.0 by @fontawesome - https://fontawesome.com License - https://fontawesome.com/license (Commercial License) Copyright 2023 Fonticons, Inc. --><defs><style>.fa-secondary{opacity:.4}</style></defs><path class="fa-primary" d="M328 416c66.3 0 120-53.7 120-120V224 192 160c0-35.3-28.7-64-64-64H320c-35.3 0-64 28.7-64 64v64c0 35.3 28.7 64 64 64h64v8c0 30.9-25.1 56-56 56h-8c-17.7 0-32 14.3-32 32s14.3 32 32 32h8z"/><path class="fa-secondary" d="M72 416c66.3 0 120-53.7 120-120V224 192 160c0-35.3-28.7-64-64-64H64C28.7 96 0 124.7 0 160v64c0 35.3 28.7 64 64 64h64v8c0 30.9-25.1 56-56 56H64c-17.7 0-32 14.3-32 32s14.3 32 32 32h8z"/></svg>