<svg xmlns="http://www.w3.org/2000/svg" viewBox="0 0 512 512"><!-- Font Awesome Pro 6.0.0-alpha2 by @fontawesome - https://fontawesome.com License - https://fontawesome.com/license (Commercial License) --><defs><style>.fa-secondary{opacity:.4}</style></defs><path d="M400 256C394.002 256 388.23 256.857 382.486 257.766L384 256V192C384 156.75 412.75 128 448 128H456C469.25 128 480 117.25 480 104V56C480 42.75 469.25 32 456 32H448C359.625 32 288 103.625 288 192V368C288 429.855 338.145 480 400 480S512 429.855 512 368S461.855 256 400 256Z" class="fa-secondary"/><path d="M112 256C106.002 256 100.23 256.857 94.486 257.766L96 256V192C96 156.75 124.75 128 160 128H168C181.25 128 192 117.25 192 104V56C192 42.75 181.25 32 168 32H160C71.625 32 0 103.625 0 192V368C0 429.855 50.145 480 112 480S224 429.855 224 368S173.855 256 112 256Z" class="fa-primary"/></svg>