<svg xmlns="http://www.w3.org/2000/svg" viewBox="0 0 448 512"><!--! Font Awesome Pro 6.4.0 by @fontawesome - https://fontawesome.com License - https://fontawesome.com/license (Commercial License) Copyright 2023 Fonticons, Inc. --><defs><style>.fa-secondary{opacity:.4}</style></defs><path class="fa-primary" d="M120 96C53.7 96 0 149.7 0 216v72 32 32c0 35.3 28.7 64 64 64h64c35.3 0 64-28.7 64-64V288c0-35.3-28.7-64-64-64H64v-8c0-30.9 25.1-56 56-56h8c17.7 0 32-14.3 32-32s-14.3-32-32-32h-8z"/><path class="fa-secondary" d="M376 96c-66.3 0-120 53.7-120 120v72 32 32c0 35.3 28.7 64 64 64h64c35.3 0 64-28.7 64-64V288c0-35.3-28.7-64-64-64H320v-8c0-30.9 25.1-56 56-56h8c17.7 0 32-14.3 32-32s-14.3-32-32-32h-8z"/></svg>