<svg xmlns="http://www.w3.org/2000/svg" viewBox="0 0 512 512"><!--! Font Awesome Pro 6.4.0 by @fontawesome - https://fontawesome.com License - https://fontawesome.com/license (Commercial License) Copyright 2023 Fonticons, Inc. --><defs><style>.fa-secondary{opacity:.4}</style></defs><path class="fa-primary" d="M511 17.2c3.7 12.7-3.6 26.1-16.3 29.8L218.5 128H64c-13.9 0-26.9 4.5-37.4 12c7.3-5.9 15.7-10.4 25.1-13.2L481.3 1C494-2.8 507.3 4.5 511 17.2zM368 240a80 80 0 1 1 0 160 80 80 0 1 1 0-160z"/><path class="fa-secondary" d="M0 192c0-35.3 28.7-64 64-64H448c35.3 0 64 28.7 64 64V448c0 35.3-28.7 64-64 64H64c-35.3 0-64-28.7-64-64V192zM448 320a80 80 0 1 0 -160 0 80 80 0 1 0 160 0zM96 240c-8.8 0-16 7.2-16 16s7.2 16 16 16h96c8.8 0 16-7.2 16-16s-7.2-16-16-16H96zM80 304c-8.8 0-16 7.2-16 16s7.2 16 16 16H208c8.8 0 16-7.2 16-16s-7.2-16-16-16H80zm16 64c-8.8 0-16 7.2-16 16s7.2 16 16 16h96c8.8 0 16-7.2 16-16s-7.2-16-16-16H96z"/></svg>