<svg xmlns="http://www.w3.org/2000/svg" viewBox="0 0 576 512"><!--! Font Awesome Pro 6.4.0 by @fontawesome - https://fontawesome.com License - https://fontawesome.com/license (Commercial License) Copyright 2023 Fonticons, Inc. --><defs><style>.fa-secondary{opacity:.4}</style></defs><path class="fa-primary" d="M288 64H112C50.1 64 0 114.1 0 176s50.1 112 112 112h8.2L51.4 425.7c-7.9 15.8-1.5 35 14.3 42.9l80 40c15.8 7.9 35 1.5 42.9-14.3L288 295.6V64zM416 208h60.9l77.1 30.9c4.9 2 10.5 1.4 14.9-1.6s7-7.9 7-13.2V128c0-5.3-2.6-10.3-7-13.2s-10-3.6-14.9-1.6L476.9 144H416v64zM112 152a24 24 0 1 1 0 48 24 24 0 1 1 0-48zm72 24a24 24 0 1 1 48 0 24 24 0 1 1 -48 0z"/><path class="fa-secondary" d="M64 24.6V74.8C78.5 67.9 94.8 64 112 64h80L102.2 4.1C98.2 1.4 93.4 0 88.6 0C75 0 64 11 64 24.6zM336 56c0-13.3-10.7-24-24-24s-24 10.7-24 24V296c0 13.3 10.7 24 24 24s24-10.7 24-24V56zm80 32c0-13.3-10.7-24-24-24s-24 10.7-24 24V264c0 13.3 10.7 24 24 24s24-10.7 24-24V88z"/></svg>