<svg xmlns="http://www.w3.org/2000/svg" viewBox="0 0 512 512"><!--! Font Awesome Pro 6.4.0 by @fontawesome - https://fontawesome.com License - https://fontawesome.com/license (Commercial License) Copyright 2023 Fonticons, Inc. --><defs><style>.fa-secondary{opacity:.4}</style></defs><path class="fa-primary" d="M256 512A256 256 0 1 0 256 0a256 256 0 1 0 0 512zm0-384a128 128 0 1 1 0 256 128 128 0 1 1 0-256z"/><path class="fa-secondary" d="M256 384a128 128 0 1 0 0-256 128 128 0 1 0 0 256zm0-160a32 32 0 1 1 0 64 32 32 0 1 1 0-64z"/></svg>