<svg xmlns="http://www.w3.org/2000/svg" viewBox="0 0 576 512"><!--! Font Awesome Pro 6.4.0 by @fontawesome - https://fontawesome.com License - https://fontawesome.com/license (Commercial License) Copyright 2023 Fonticons, Inc. --><defs><style>.fa-secondary{opacity:.4}</style></defs><path class="fa-primary" d="M0 80C0 53.5 21.5 32 48 32H272c26.5 0 48 21.5 48 48V208c0 26.5-21.5 48-48 48H48c-26.5 0-48-21.5-48-48V80z"/><path class="fa-secondary" d="M432 32c-26.5 0-48 21.5-48 48V336c0 26.5 21.5 48 48 48h96c26.5 0 48-21.5 48-48V80c0-26.5-21.5-48-48-48H432zM112 304c-26.5 0-48 21.5-48 48v80c0 26.5 21.5 48 48 48H288c26.5 0 48-21.5 48-48V352c0-26.5-21.5-48-48-48H112z"/></svg>