<svg xmlns="http://www.w3.org/2000/svg" viewBox="0 0 576 512"><!--! Font Awesome Pro 6.4.0 by @fontawesome - https://fontawesome.com License - https://fontawesome.com/license (Commercial License) Copyright 2023 Fonticons, Inc. --><defs><style>.fa-secondary{opacity:.4}</style></defs><path class="fa-primary" d="M192 64c0-35.3 28.7-64 64-64H512c35.3 0 64 28.7 64 64V448c0 35.3-28.7 64-64 64H256c-35.3 0-64-28.7-64-64V64z"/><path class="fa-secondary" d="M120 48c-13.3 0-24 10.7-24 24V440c0 13.3 10.7 24 24 24s24-10.7 24-24V72c0-13.3-10.7-24-24-24zM24 96C10.7 96 0 106.7 0 120V392c0 13.3 10.7 24 24 24s24-10.7 24-24V120c0-13.3-10.7-24-24-24z"/></svg>