<svg xmlns="http://www.w3.org/2000/svg" viewBox="0 0 640 512"><!--! Font Awesome Pro 6.4.0 by @fontawesome - https://fontawesome.com License - https://fontawesome.com/license (Commercial License) Copyright 2023 Fonticons, Inc. --><defs><style>.fa-secondary{opacity:.4}</style></defs><path class="fa-primary" d="M496 512a144 144 0 1 0 0-288 144 144 0 1 0 0 288zm0-32c-30.2 0-57.5-11.9-77.7-31.3c6.2-19 24-32.7 45.1-32.7h65.2c21 0 38.9 13.7 45.1 32.7C553.5 468.1 526.2 480 496 480zm0-192a48 48 0 1 1 0 96 48 48 0 1 1 0-96z"/><path class="fa-secondary" d="M394.8 512C349.5 480.1 320 427.5 320 368c0-97.2 78.8-176 176-176c2.5 0 5 .1 7.5 .2c-11-19.2-31.8-32.2-55.5-32.2L64 160c-35.3 0-64 28.7-64 64V448c0 35.3 28.7 64 64 64l330.8 0zM464 104c0-13.3-10.7-24-24-24L72 80c-13.3 0-24 10.7-24 24s10.7 24 24 24l368 0c13.3 0 24-10.7 24-24zM416 24c0-13.3-10.7-24-24-24H120C106.7 0 96 10.7 96 24s10.7 24 24 24l272 0c13.3 0 24-10.7 24-24z"/></svg>