<svg xmlns="http://www.w3.org/2000/svg" viewBox="0 0 448 512"><!--! Font Awesome Pro 6.4.0 by @fontawesome - https://fontawesome.com License - https://fontawesome.com/license (Commercial License) Copyright 2023 Fonticons, Inc. --><defs><style>.fa-secondary{opacity:.4}</style></defs><path class="fa-primary" d="M32 0C14.3 0 0 14.3 0 32S14.3 64 32 64H416c17.7 0 32-14.3 32-32s-14.3-32-32-32H32zm0 448c-17.7 0-32 14.3-32 32s14.3 32 32 32H416c17.7 0 32-14.3 32-32s-14.3-32-32-32H32z"/><path class="fa-secondary" d="M384 64H64V88c0 13.3 10.7 24 24 24H360c13.3 0 24-10.7 24-24V64zM88 400c-13.3 0-24 10.7-24 24v24H384V424c0-13.3-10.7-24-24-24H88zM80 144c-8.8 0-16 7.2-16 16s7.2 16 16 16H368c8.8 0 16-7.2 16-16s-7.2-16-16-16H80zm0 64c-8.8 0-16 7.2-16 16s7.2 16 16 16H432c8.8 0 16-7.2 16-16s-7.2-16-16-16H80zm0 64c-8.8 0-16 7.2-16 16s7.2 16 16 16H368c8.8 0 16-7.2 16-16s-7.2-16-16-16H80zm0 64c-8.8 0-16 7.2-16 16s7.2 16 16 16H368c8.8 0 16-7.2 16-16s-7.2-16-16-16H80z"/></svg>