<svg xmlns="http://www.w3.org/2000/svg" viewBox="0 0 640 512"><!--! Font Awesome Pro 6.4.0 by @fontawesome - https://fontawesome.com License - https://fontawesome.com/license (Commercial License) Copyright 2023 Fonticons, Inc. --><defs><style>.fa-secondary{opacity:.4}</style></defs><path class="fa-primary" d="M160 32C71.6 32 0 103.6 0 192v96H544V192c0-88.4-71.6-160-160-160H160zm261.7 99.4l12.6 24.6 28.2 4c2.4 .3 4.4 2 5.2 4.2s.1 4.7-1.6 6.3l-20.4 19.2 4.8 27.1c.4 2.3-.6 4.7-2.5 6s-4.6 1.6-6.7 .5l-25.2-12.8-25.2 12.8c-2.2 1.1-4.8 .9-6.7-.5s-3-3.7-2.5-6l4.8-27.1-20.4-19.2c-1.7-1.6-2.4-4.1-1.6-6.3s2.8-3.9 5.2-4.2l28.2-4 12.6-24.6c1.1-2.1 3.3-3.4 5.7-3.4s4.7 1.3 5.7 3.4zM271.9 128c2.4 0 4.7 1.3 5.7 3.4l12.6 24.6 28.2 4c2.4 .3 4.4 2 5.2 4.2s.1 4.7-1.6 6.3l-20.4 19.2 4.8 27.1c.4 2.3-.6 4.7-2.5 6s-4.6 1.6-6.7 .5l-25.2-12.8-25.2 12.8c-2.2 1.1-4.8 .9-6.7-.5s-3-3.7-2.5-6l4.8-27.1-20.4-19.2c-1.7-1.6-2.4-4.1-1.6-6.3s2.8-3.9 5.2-4.2l28.2-4 12.6-24.6c1.1-2.1 3.3-3.4 5.7-3.4zm-138.3 3.4l12.6 24.6 28.2 4c2.4 .3 4.4 2 5.2 4.2s.1 4.7-1.6 6.3l-20.4 19.2 4.8 27.1c.4 2.3-.6 4.7-2.5 6s-4.6 1.6-6.7 .5l-25.2-12.8-25.2 12.8c-2.2 1.1-4.8 .9-6.7-.5s-3-3.7-2.5-6l4.8-27.1L77.9 170.5c-1.7-1.6-2.4-4.1-1.6-6.3s2.8-3.9 5.2-4.2l28.2-4 12.6-24.6c1.1-2.1 3.3-3.4 5.7-3.4s4.7 1.3 5.7 3.4z"/><path class="fa-secondary" d="M320 288H128 0v96 64c0 17.7 14.3 32 32 32H96c17.7 0 32-14.3 32-32V384H320v64c0 17.7 14.3 32 32 32h64c17.7 0 32-14.3 32-32V384 352h32v48c0 44.2 35.8 80 80 80s80-35.8 80-80V352c0-17.7-14.3-32-32-32s-32 14.3-32 32v48c0 8.8-7.2 16-16 16s-16-7.2-16-16V320 288H512 448 416 320z"/></svg>