<svg xmlns="http://www.w3.org/2000/svg" viewBox="0 0 512 512"><!--! Font Awesome Pro 6.4.0 by @fontawesome - https://fontawesome.com License - https://fontawesome.com/license (Commercial License) Copyright 2023 Fonticons, Inc. --><defs><style>.fa-secondary{opacity:.4}</style></defs><path class="fa-primary" d="M360.5 409.4c-7 6.6-17.2 8.4-26 4.6s-14.5-12.5-14.5-22l0-72 0-128 0-72c0-9.6 5.7-18.2 14.5-22s19-2 26 4.6l144 136c4.8 4.5 7.5 10.8 7.5 17.4s-2.7 12.9-7.5 17.4l-144 136z"/><path class="fa-secondary" d="M320 320l0-128 0 0 0 0L32 192c-17.7 0-32 14.3-32 32l0 64c0 17.7 14.3 32 32 32l160 0 0 0 128 0z"/></svg>