<svg xmlns="http://www.w3.org/2000/svg" viewBox="0 0 512 512"><!--! Font Awesome Pro 6.4.0 by @fontawesome - https://fontawesome.com License - https://fontawesome.com/license (Commercial License) Copyright 2023 Fonticons, Inc. --><defs><style>.fa-secondary{opacity:.4}</style></defs><path class="fa-primary" d="M176 160c-61.9 0-112 50.1-112 112c0 58.7 45.1 106.8 102.5 111.6c6.5 23.3 17.7 44.6 32.5 62.9c-7.5 1-15.2 1.5-23 1.5C78.8 448 0 369.2 0 272S78.8 96 176 96s176 78.8 176 176c0 52.3-22.8 99.2-59 131.5c-18.7-11.9-32.1-31.5-35.9-54.2C276.2 329.2 288 302 288 272c0-61.9-50.1-112-112-112z"/><path class="fa-secondary" d="M128 0h96c6.1 0 11.6 3.4 14.3 8.8l16 32c2.3 4.5 2.3 9.8 0 14.3l-24.6 49.2c-16.9-5.4-35-8.3-53.7-8.3s-36.8 2.9-53.7 8.3L97.7 55.2c-2.3-4.5-2.3-9.8 0-14.3l16-32C116.4 3.4 121.9 0 128 0zm32 336c0-64.4 34.5-120.7 86.1-151.3c16.8 13.5 29.7 31.8 36.5 52.9c-34.9 19-58.6 56-58.6 98.5c0 61.9 50.1 112 112 112s112-50.1 112-112c0-46.1-27.8-85.7-67.6-102.9c-5-26.2-14.8-50.7-28.6-72.4C441.6 168.7 512 244.1 512 336c0 97.2-78.8 176-176 176s-176-78.8-176-176z"/></svg>