<svg xmlns="http://www.w3.org/2000/svg" viewBox="0 0 512 512"><!--! Font Awesome Pro 6.4.0 by @fontawesome - https://fontawesome.com License - https://fontawesome.com/license (Commercial License) Copyright 2023 Fonticons, Inc. --><defs><style>.fa-secondary{opacity:.4}</style></defs><path class="fa-primary" d="M111.9 157.4C147.1 139.8 198 128 256 128s108.9 11.8 144.1 29.4C437.2 176 448 195.7 448 208s-10.8 32-47.9 50.6C364.9 276.2 314 288 256 288s-108.9-11.8-144.1-29.4C74.8 240 64 220.3 64 208s10.8-32 47.9-50.6zM83.3 100.2C39.4 122.2 0 158.4 0 208v96c0 49.6 39.4 85.8 83.3 107.8C129.1 434.7 190.3 448 256 448s126.9-13.3 172.7-36.2c43.9-22 83.3-58.2 83.3-107.8V208c0-49.6-39.4-85.8-83.3-107.8C382.9 77.3 321.7 64 256 64s-126.9 13.3-172.7 36.2z"/><path class="fa-secondary" d="M411.1 255.2C434.3 242 448 225.6 448 208c0-44.2-86-80-192-80s-192 35.8-192 80c0 17.6 13.7 34 36.9 47.2C141.2 235.9 195.8 224 256 224s114.8 11.9 155.1 31.2z"/></svg>