<svg xmlns="http://www.w3.org/2000/svg" viewBox="0 0 640 512"><!--! Font Awesome Pro 6.4.0 by @fontawesome - https://fontawesome.com License - https://fontawesome.com/license (Commercial License) Copyright 2023 Fonticons, Inc. --><defs><style>.fa-secondary{opacity:.4}</style></defs><path class="fa-primary" d="M64 64c0-17.7-14.3-32-32-32S0 46.3 0 64V448c0 17.7 14.3 32 32 32s32-14.3 32-32V64zm576 0c0-17.7-14.3-32-32-32s-32 14.3-32 32V448c0 17.7 14.3 32 32 32s32-14.3 32-32V64z"/><path class="fa-secondary" d="M405.2 96H330.8l-5.4 10.7L234.8 288h74.3l5.4-10.7L405.2 96zM362.8 288h74.3l5.4-10.7L533.2 96H458.8l-5.4 10.7L362.8 288zM202.8 96l-5.4 10.7L106.8 288h74.3l5.4-10.7L277.2 96H202.8zm288 192H576V117.7L490.8 288zM64 96V266.3L149.2 96H64z"/></svg>