<svg xmlns="http://www.w3.org/2000/svg" viewBox="0 0 512 512"><!--! Font Awesome Pro 6.4.0 by @fontawesome - https://fontawesome.com License - https://fontawesome.com/license (Commercial License) Copyright 2023 Fonticons, Inc. --><defs><style>.fa-secondary{opacity:.4}</style></defs><path class="fa-primary" d="M128 128C128 57.3 185.3 0 256 0s128 57.3 128 128v64H128V128zm96 0a32 32 0 1 0 0-64 32 32 0 1 0 0 64zm96-16a16 16 0 1 0 -32 0 16 16 0 1 0 32 0zM208 256h96c8.8 0 16 7.2 16 16s-7.2 16-16 16H208c-8.8 0-16-7.2-16-16s7.2-16 16-16zm0 64h96c8.8 0 16 7.2 16 16s-7.2 16-16 16H208c-8.8 0-16-7.2-16-16s7.2-16 16-16z"/><path class="fa-secondary" d="M96 192c-26.5 0-48 21.5-48 48V398.3c0 8.7-2.4 17.2-6.8 24.7L2.3 487.8c-3 4.9-3 11.1-.2 16.1s8.2 8.1 13.9 8.1h96c8.8 0 16-7.2 16-16V384l45.3 45.3c12 12 28.3 18.7 45.3 18.7h75c17 0 33.3-6.7 45.3-18.7L384 384V496c0 8.8 7.2 16 16 16h96c5.8 0 11.1-3.1 13.9-8.1s2.8-11.2-.2-16.1L470.8 423c-4.5-7.5-6.8-16-6.8-24.7V240c0-26.5-21.5-48-48-48H96zm112 64h96c8.8 0 16 7.2 16 16s-7.2 16-16 16H208c-8.8 0-16-7.2-16-16s7.2-16 16-16zm0 64h96c8.8 0 16 7.2 16 16s-7.2 16-16 16H208c-8.8 0-16-7.2-16-16s7.2-16 16-16z"/></svg>