<svg xmlns="http://www.w3.org/2000/svg" viewBox="0 0 640 512"><!--! Font Awesome Pro 6.4.0 by @fontawesome - https://fontawesome.com License - https://fontawesome.com/license (Commercial License) Copyright 2023 Fonticons, Inc. --><defs><style>.fa-secondary{opacity:.4}</style></defs><path class="fa-primary" d="M158.1 96c-52 0-94.1 42.1-94.1 94.1V448c0 17.7-14.3 32-32 32s-32-14.3-32-32V190.1C0 102.8 70.8 32 158.1 32c51.8 0 100.3 25.4 129.8 67.9l129 185.7c15 21.5 39.5 34.4 65.7 34.4H496c44.2 0 80-35.8 80-80c0-32.8-19.7-61-48-73.3V264c0 13.3-10.7 24-24 24s-24-10.7-24-24V160.6c-14.2 1.5-28 5.8-40.7 12.5l-7.3 3.9v74.2L357.6 144.2l51.6-27.5C434.7 103.1 463.1 96 492 96h4c79.5 0 144 64.5 144 144c0 2.7-.1 5.4-.2 8h.2V448c0 17.7-14.3 32-32 32s-32-14.3-32-32V359.8c-22.9 15.3-50.4 24.2-80 24.2H482.6c-47.2 0-91.4-23.1-118.3-61.9l-129-185.7C217.7 111.1 188.9 96 158.1 96z"/><path class="fa-secondary" d="M200 105.9c14 7 26.2 17.4 35.3 30.5L248 154.7V456c0 13.3-10.7 24-24 24s-24-10.7-24-24V105.9zm96 117.9l48 69.1V456c0 13.3-10.7 24-24 24s-24-10.7-24-24V223.8zm96 128.2c14.2 11.5 30.5 20.2 48 25.6V456c0 13.3-10.7 24-24 24s-24-10.7-24-24V351.9zM488 384h8c13.9 0 27.3-2 40-5.6V456c0 13.3-10.7 24-24 24s-24-10.7-24-24V384zM104 113.1c13.7-9.7 30.2-15.8 48-16.9V456c0 13.3-10.7 24-24 24s-24-10.7-24-24V113.1z"/></svg>