<svg xmlns="http://www.w3.org/2000/svg" viewBox="0 0 512 512"><!--! Font Awesome Pro 6.4.0 by @fontawesome - https://fontawesome.com License - https://fontawesome.com/license (Commercial License) Copyright 2023 Fonticons, Inc. --><defs><style>.fa-secondary{opacity:.4}</style></defs><path class="fa-primary" d="M280 152c0-13.3-10.7-24-24-24s-24 10.7-24 24V264c0 13.3 10.7 24 24 24s24-10.7 24-24V152zM256 384a32 32 0 1 0 0-64 32 32 0 1 0 0 64z"/><path class="fa-secondary" d="M432 117.4C391 65.4 327.4 32 256 32C158.4 32 75.5 94.4 44.8 181.3c-5.9 16.7 2.8 34.9 19.5 40.8s34.9-2.8 40.8-19.5C127.1 140.5 186.4 96 256 96c52.3 0 98.8 25.1 128 64H352c-17.7 0-32 14.3-32 32s14.3 32 32 32h84.3c.5 0 1 0 1.5 0H464c17.7 0 32-14.3 32-32V80c0-17.7-14.3-32-32-32s-32 14.3-32 32v37.4zm35.2 213.2c5.9-16.7-2.8-34.9-19.5-40.8s-34.9 2.8-40.8 19.5C384.9 371.5 325.6 416 256 416c-52.3 0-98.8-25.1-128-64h32c17.7 0 32-14.3 32-32s-14.3-32-32-32H48c-17.7 0-32 14.3-32 32V432c0 17.7 14.3 32 32 32s32-14.3 32-32V394.6c41 52 104.6 85.4 176 85.4c97.6 0 180.5-62.4 211.2-149.3z"/></svg>