<svg xmlns="http://www.w3.org/2000/svg" viewBox="0 0 384 512"><!--! Font Awesome Pro 6.4.0 by @fontawesome - https://fontawesome.com License - https://fontawesome.com/license (Commercial License) Copyright 2023 Fonticons, Inc. --><defs><style>.fa-secondary{opacity:.4}</style></defs><path class="fa-primary" d="M64 64c0-17.7 14.3-32 32-32H240c79.5 0 144 64.5 144 144s-64.5 144-144 144H128V448c0 17.7-14.3 32-32 32s-32-14.3-32-32V320H32c-17.7 0-32-14.3-32-32s14.3-32 32-32H64V64zm64 192H240c44.2 0 80-35.8 80-80s-35.8-80-80-80H128V256z"/><path class="fa-secondary" d="M64 352H32c-17.7 0-32 14.3-32 32s14.3 32 32 32H64V352zm64 64H288c17.7 0 32-14.3 32-32s-14.3-32-32-32H128v64z"/></svg>