<svg xmlns="http://www.w3.org/2000/svg" viewBox="0 0 640 512"><!--! Font Awesome Pro 6.4.0 by @fontawesome - https://fontawesome.com License - https://fontawesome.com/license (Commercial License) Copyright 2023 Fonticons, Inc. --><defs><style>.fa-secondary{opacity:.4}</style></defs><path class="fa-primary" d="M24 64C10.7 64 0 74.7 0 88s10.7 24 24 24h8v40H24c-13.3 0-24 10.7-24 24s10.7 24 24 24h8v32H24c-13.3 0-24 10.7-24 24s10.7 24 24 24h8v32H24c-13.3 0-24 10.7-24 24s10.7 24 24 24h8v40H24c-13.3 0-24 10.7-24 24s10.7 24 24 24H56 80V424 336 256 176 88 64H56 24zm592 0H584 560V88v88 80 80 88 24h24 32c13.3 0 24-10.7 24-24s-10.7-24-24-24h-8V360h8c13.3 0 24-10.7 24-24s-10.7-24-24-24h-8V280h8c13.3 0 24-10.7 24-24s-10.7-24-24-24h-8V200h8c13.3 0 24-10.7 24-24s-10.7-24-24-24h-8V112h8c13.3 0 24-10.7 24-24s-10.7-24-24-24zM160 64V448h32V64H160zm320 0H448V448h32V64z"/><path class="fa-secondary" d="M80 64V448h80V64H80zm400 0V448h80V64H480zm-32 0H192V448H448V64z"/></svg>