<svg xmlns="http://www.w3.org/2000/svg" viewBox="0 0 640 512"><!--! Font Awesome Pro 6.4.0 by @fontawesome - https://fontawesome.com License - https://fontawesome.com/license (Commercial License) Copyright 2023 Fonticons, Inc. --><defs><style>.fa-secondary{opacity:.4}</style></defs><path class="fa-primary" d="M144 208l0-80H112v80c0 8.8 7.2 16 16 16s16-7.2 16-16zm96-80H208v80c0 8.8 7.2 16 16 16s16-7.2 16-16V128zm96 80V128H304v80c0 8.8 7.2 16 16 16s16-7.2 16-16zm96-80H400v80c0 8.8 7.2 16 16 16s16-7.2 16-16V128zm96 0H496v80c0 8.8 7.2 16 16 16s16-7.2 16-16V128z"/><path class="fa-secondary" d="M0 336c0 26.5 21.5 48 48 48l544 0c26.5 0 48-21.5 48-48l0-160c0-26.5-21.5-48-48-48l-64 0 0 80c0 8.8-7.2 16-16 16s-16-7.2-16-16l0-80-64 0 0 80c0 8.8-7.2 16-16 16s-16-7.2-16-16l0-80-64 0 0 80c0 8.8-7.2 16-16 16s-16-7.2-16-16l0-80-64 0 0 80c0 8.8-7.2 16-16 16s-16-7.2-16-16l0-80-64 0 0 80c0 8.8-7.2 16-16 16s-16-7.2-16-16l0-80-64 0c-26.5 0-48 21.5-48 48L0 336z"/></svg>