<svg xmlns="http://www.w3.org/2000/svg" viewBox="0 0 512 512"><!--! Font Awesome Pro 6.4.0 by @fontawesome - https://fontawesome.com License - https://fontawesome.com/license (Commercial License) Copyright 2023 Fonticons, Inc. --><defs><style>.fa-secondary{opacity:.4}</style></defs><path class="fa-primary" d="M176 112c0-8.8 7.2-16 16-16H320c8.8 0 16 7.2 16 16s-7.2 16-16 16H192c-8.8 0-16-7.2-16-16z"/><path class="fa-secondary" d="M192 96H320l47.4-71.1C374.5 14.2 366.9 0 354.1 0H157.9c-12.8 0-20.4 14.2-13.3 24.9L192 96zm128 32H192c-3.8 2.5-8.1 5.3-13 8.4l0 0C122.3 172.7 0 250.9 0 416c0 53 43 96 96 96H416c53 0 96-43 96-96c0-165.1-122.3-243.3-179-279.6c-4.8-3.1-9.2-5.9-13-8.4z"/></svg>