<svg xmlns="http://www.w3.org/2000/svg" viewBox="0 0 640 512"><!--! Font Awesome Pro 6.4.0 by @fontawesome - https://fontawesome.com License - https://fontawesome.com/license (Commercial License) Copyright 2023 Fonticons, Inc. --><defs><style>.fa-secondary{opacity:.4}</style></defs><path class="fa-primary" d="M102.6 0c2.5 0 4.9 .9 6.9 2.6c13.8 12.4 26.8 25.9 38.8 40.4c5.5-6.9 11.8-14.5 18.5-20.7c3.9-3.6 10.1-3.6 14 0c17.3 15.9 31.9 36.9 42.3 56.8c10.2 19.6 16.9 41.2 16.9 55.3c0 14.6-2.8 28.6-8 41.5H176.8c8.9-15.4 9.3-35.4 .2-52.1c-1.4-2.8-2.8-5.6-4.9-8.4l-25.2 29.4s-40.6-51.8-43.4-55.3C82.5 115.5 72 130.2 72 147c0 11.2 2.7 21 7.5 29H23.9c-5.1-12.9-7.9-26.9-7.9-41.5C16 116 24.9 92 38.7 69.7c14-22.7 33.7-46.3 57-67.1c2-1.8 4.5-2.6 7-2.6zM353 223L319 257l-8-8c-9.4-9.4-9.4-24.6 0-33.9s24.6-9.4 33.9 0l8 8zm48-48L367 209l-8-8c-9.4-9.4-9.4-24.6 0-33.9s24.6-9.4 33.9 0l8 8zm48-48L415 161l-8-8c-9.4-9.4-9.4-24.6 0-33.9s24.6-9.4 33.9 0l8 8zM128 232a24 24 0 1 1 0 48 24 24 0 1 1 0-48zM96 328a24 24 0 1 1 0 48 24 24 0 1 1 0-48z"/><path class="fa-secondary" d="M237.5 224L171.4 338.1c-2.2 3.8-3.4 8.2-3.4 12.6v2.6c0 12.5 10.1 22.6 22.6 22.6c6 0 11.8-2.4 16-6.6L319 257l-8-8c-9.4-9.4-9.4-24.6 0-33.9s24.6-9.4 33.9 0l8 8L367 209l-8-8c-9.4-9.4-9.4-24.6 0-33.9s24.6-9.4 33.9 0l8 8L415 161l-8-8c-9.4-9.4-9.4-24.6 0-33.9s24.6-9.4 33.9 0l8 8 44.3-44.3c12-12 28.3-18.7 45.3-18.7h30.3c15 0 29.5 5.2 41 14.8l24.3 20.3c3.7 3.1 5.9 7.7 5.9 12.6c0 9-7.3 16.3-16.3 16.3H559.5c-9.8 0-19 4.5-25.1 12.1L288.6 450.6C257.9 489.4 211.2 512 161.8 512C72.4 512 0 439.6 0 350.2v-3.1c0-12.7 1.5-25.4 4.4-37.8L24.5 224H24c-13.3 0-24-10.7-24-24s10.7-24 24-24H240c13.3 0 24 10.7 24 24s-10.7 24-24 24h-2.5zM120 352a24 24 0 1 0 -48 0 24 24 0 1 0 48 0zm8-72a24 24 0 1 0 0-48 24 24 0 1 0 0 48z"/></svg>