<svg xmlns="http://www.w3.org/2000/svg" viewBox="0 0 640 512"><!--! Font Awesome Pro 6.4.0 by @fontawesome - https://fontawesome.com License - https://fontawesome.com/license (Commercial License) Copyright 2023 Fonticons, Inc. --><defs><style>.fa-secondary{opacity:.4}</style></defs><path class="fa-primary" d="M510.8 163.8L583.3 288H438.4l72.4-124.2zm-126 141.3C395.7 350 448 384 510.8 384s115.2-34 126-78.9c2.6-11-1-22.3-6.7-32.1L534.9 109.8c-5-8.6-14.2-13.8-24.1-13.8s-19.1 5.3-24.1 13.8L391.6 273.1c-5.7 9.8-9.3 21.1-6.7 32.1zM128 291.8L200.4 416H55.6L128 291.8zM2 433.1C12.8 478 65.1 512 128 512s115.2-34 126-78.9c2.6-11-1-22.3-6.7-32.1L152.1 237.8c-5-8.6-14.2-13.8-24.1-13.8s-19.1 5.3-24.1 13.8L8.7 401.1C3 410.8-.6 422.1 2 433.1z"/><path class="fa-secondary" d="M521 62.4c16.8-5.6 25.8-23.7 20.2-40.5S517.5-3.9 500.7 1.6l-113 37.7C373.8 15.8 348.2 0 318.8 0c-44.2 0-80 35.8-80 80c0 3 .2 5.9 .5 8.8L116.7 129.6c-16.8 5.6-25.8 23.7-20.2 40.5s23.7 25.8 40.5 20.2l135.5-45.2c4.5 3.2 9.3 5.9 14.4 8.2V480c0 17.7 14.3 32 32 32h192c17.7 0 32-14.3 32-32s-14.3-32-32-32h-160V153.3c21-9.2 37.2-27 44.2-49L521 62.4z"/></svg>