<svg xmlns="http://www.w3.org/2000/svg" viewBox="0 0 448 512"><!--! Font Awesome Pro 6.4.0 by @fontawesome - https://fontawesome.com License - https://fontawesome.com/license (Commercial License) Copyright 2023 Fonticons, Inc. --><defs><style>.fa-secondary{opacity:.4}</style></defs><path class="fa-primary" d="M133.5 128H32c-5.9 0-11.3 3.2-14.1 8.5s-2.5 11.5 .8 16.4l7.6 11.4L6.4 179.2C2.4 182.2 0 187 0 192s2.4 9.8 6.4 12.8l19.9 14.9-7.6 11.4c-3.3 4.9-3.6 11.2-.8 16.4s8.2 8.5 14.1 8.5h73c10.1 0 17.7 9.2 15.7 19.1L96.3 396.9c-1.2 6.2 1.2 12.5 6.3 16.1s11.8 4 17.3 .9L160.1 391c4.9-2.8 11-2.8 15.9 0l40.1 22.9c4.9 2.8 11 2.8 15.9 0L272.1 391c4.9-2.8 11-2.8 15.9 0l40.1 22.9c5.4 3.1 12.2 2.8 17.3-.9s7.6-10 6.3-16.1L327.3 275.1c-2-9.9 5.6-19.1 15.7-19.1h73c5.9 0 11.3-3.2 14.1-8.5s2.5-11.5-.8-16.4l-7.6-11.4 19.9-14.9c4-3 6.4-7.8 6.4-12.8s-2.4-9.8-6.4-12.8l-19.9-14.9 7.6-11.4c3.3-4.9 3.6-11.2 .8-16.4s-8.2-8.5-14.1-8.5H314.5c-13.2 37.3-48.7 64-90.5 64s-77.4-26.7-90.5-64z"/><path class="fa-secondary" d="M224 192A96 96 0 1 0 224 0a96 96 0 1 0 0 192zM192 64a16 16 0 1 1 0 32 16 16 0 1 1 0-32zm48 32a16 16 0 1 1 32 0 16 16 0 1 1 -32 0zM192 400.1V480c0 17.7 14.3 32 32 32s32-14.3 32-32V400.1l-24.1 13.8c-4.9 2.8-11 2.8-15.9 0L192 400.1z"/></svg>