<svg xmlns="http://www.w3.org/2000/svg" viewBox="0 0 640 512"><!--! Font Awesome Pro 6.4.0 by @fontawesome - https://fontawesome.com License - https://fontawesome.com/license (Commercial License) Copyright 2023 Fonticons, Inc. --><defs><style>.fa-secondary{opacity:.4}</style></defs><path class="fa-primary" d="M336 144v16h16c8.8 0 16 7.2 16 16s-7.2 16-16 16H320c-8.8 0-16-7.2-16-16V144c0-8.8 7.2-16 16-16s16 7.2 16 16zM80 208c0-8.8 7.2-16 16-16h32c8.8 0 16 7.2 16 16v64c0 8.8-7.2 16-16 16H96c-8.8 0-16-7.2-16-16V208zm416 0c0-8.8 7.2-16 16-16h32c8.8 0 16 7.2 16 16v64c0 8.8-7.2 16-16 16H512c-8.8 0-16-7.2-16-16V208zM96 320h32c8.8 0 16 7.2 16 16v64c0 8.8-7.2 16-16 16H96c-8.8 0-16-7.2-16-16V336c0-8.8 7.2-16 16-16zm400 16c0-8.8 7.2-16 16-16h32c8.8 0 16 7.2 16 16v64c0 8.8-7.2 16-16 16H512c-8.8 0-16-7.2-16-16V336z"/><path class="fa-secondary" d="M337.8 5.4C327-1.8 313-1.8 302.2 5.4L166.3 96H48C21.5 96 0 117.5 0 144V464c0 26.5 21.5 48 48 48H592c26.5 0 48-21.5 48-48V144c0-26.5-21.5-48-48-48H473.7L337.8 5.4zM256 416c0-35.3 28.7-64 64-64s64 28.7 64 64v96H256V416zM96 192h32c8.8 0 16 7.2 16 16v64c0 8.8-7.2 16-16 16H96c-8.8 0-16-7.2-16-16V208c0-8.8 7.2-16 16-16zm400 16c0-8.8 7.2-16 16-16h32c8.8 0 16 7.2 16 16v64c0 8.8-7.2 16-16 16H512c-8.8 0-16-7.2-16-16V208zM96 320h32c8.8 0 16 7.2 16 16v64c0 8.8-7.2 16-16 16H96c-8.8 0-16-7.2-16-16V336c0-8.8 7.2-16 16-16zm400 16c0-8.8 7.2-16 16-16h32c8.8 0 16 7.2 16 16v64c0 8.8-7.2 16-16 16H512c-8.8 0-16-7.2-16-16V336zM320 88a88 88 0 1 1 0 176 88 88 0 1 1 0-176z"/></svg>