<svg xmlns="http://www.w3.org/2000/svg" viewBox="0 0 640 512"><!--! Font Awesome Pro 6.4.0 by @fontawesome - https://fontawesome.com License - https://fontawesome.com/license (Commercial License) Copyright 2023 Fonticons, Inc. --><defs><style>.fa-secondary{opacity:.4}</style></defs><path class="fa-primary" d="M352 368a144 144 0 1 1 288 0 144 144 0 1 1 -288 0zm203.3-59.3c-6.2-6.2-16.4-6.2-22.6 0L496 345.4l-36.7-36.7c-6.2-6.2-16.4-6.2-22.6 0s-6.2 16.4 0 22.6L473.4 368l-36.7 36.7c-6.2 6.2-6.2 16.4 0 22.6s16.4 6.2 22.6 0L496 390.6l36.7 36.7c6.2 6.2 16.4 6.2 22.6 0s6.2-16.4 0-22.6L518.6 368l36.7-36.7c6.2-6.2 6.2-16.4 0-22.6z"/><path class="fa-secondary" d="M302.2 5.4c10.7-7.2 24.8-7.2 35.5 0L473.7 96H592c26.5 0 48 21.5 48 48V266.8C608.1 221.6 555.5 192 496 192c-38.5 0-74.2 12.4-103.1 33.4c9.6-14.1 15.1-31.1 15.1-49.4c0-48.6-39.4-88-88-88s-88 39.4-88 88s39.4 88 88 88c15.6 0 30.2-4 42.9-11.1c-23.4 27.1-38.8 61.4-42.2 99.1h-.5l-.3 0c-35.3 0-64 28.7-64 64v96h64v0H48c-26.5 0-48-21.5-48-48V144c0-26.5 21.5-48 48-48H166.3L302.2 5.4zM80 208v64c0 8.8 7.2 16 16 16h32c8.8 0 16-7.2 16-16V208c0-8.8-7.2-16-16-16H96c-8.8 0-16 7.2-16 16zm0 128v64c0 8.8 7.2 16 16 16h32c8.8 0 16-7.2 16-16V336c0-8.8-7.2-16-16-16H96c-8.8 0-16 7.2-16 16zM336 144v16h16c8.8 0 16 7.2 16 16s-7.2 16-16 16H320c-8.8 0-16-7.2-16-16V144c0-8.8 7.2-16 16-16s16 7.2 16 16z"/></svg>