<svg xmlns="http://www.w3.org/2000/svg" viewBox="0 0 256 512"><!--! Font Awesome Pro 6.4.0 by @fontawesome - https://fontawesome.com License - https://fontawesome.com/license (Commercial License) Copyright 2023 Fonticons, Inc. --><defs><style>.fa-secondary{opacity:.4}</style></defs><path class="fa-primary" d="M64.9 96C67.1 84.4 73.7 76.2 86 70.6c13.8-6.2 34.8-8.9 61.2-4.5c8.8 1.4 36.1 7.1 44.1 9.3c17 4.8 34.7-5.1 39.5-22.2s-5.1-34.7-22.2-39.5c-11.1-3.1-41-9.2-50.9-10.8C123-2.7 88.3-.6 59.7 12.3C29.9 25.8 7.5 50.9 1.6 86.5c-.1 .5-.2 1.1-.2 1.6c-2.2 19.7 .3 37.9 8.1 54.1c7.7 16.1 19.4 28 32 36.9c22.5 16.1 52.1 25.4 75.6 32.8l0 0 3.7 1.2c27.2 8.6 46.8 15.4 59.2 25c5.5 4.2 8.4 8.2 10 12.2c1.6 4 2.8 10.4 1.1 20.9c-2.4 14.7-12.8 26.4-37.1 31l-12.4 2.3c24 7.2 54.3 16.3 76.9 32.9c1 .8 2.1 1.5 3.1 2.3c16.5-13.9 28.5-33.2 32.6-58.2c3.2-19.8 1.9-38.3-4.8-55.1c-6.7-16.8-17.8-29.4-30.2-39c-22.8-17.6-53.6-27.4-77.7-35l-1.4-.5c-27.4-8.7-47.8-15.3-61.5-25c-6.1-4.4-9.5-8.5-11.4-12.4c-1.8-3.7-3.2-9.3-2.3-18.5z"/><path class="fa-secondary" d="M1.7 243c4.8-28 20.6-48.9 41.7-62.5c22.2 15.2 50.8 24.2 73.7 31.4l0 0 3.7 1.2c17.5 5.5 31.8 10.3 43.1 15.5l-16.4-2.6c-26.7-4.2-48-1.7-62.1 4.3c-12.6 5.4-18.6 13-20.5 22.7c-.8 8.1 .5 12.7 2.1 15.7c1.7 3.3 4.9 7.1 11 11.3c13.8 9.3 34.3 15.6 61.7 23.8l1.4 .4c24.1 7.2 54.7 16.4 77.5 33c12.4 9.1 23.7 21.2 30.7 37.6c7 16.5 8.4 34.6 5 53.9c-6 35-29.2 58.9-58.5 71.4c-28.3 12.1-62.7 14.1-97.2 8.7l-.2 0 0 0c-18.8-3-48.7-13.3-67.3-19.6c-3.5-1.2-6.7-2.3-9.2-3.1C5.1 480.7-3.9 462.6 1.6 445.8s23.7-25.8 40.5-20.3c3.8 1.3 8 2.7 12.3 4.1l0 0c19 6.5 41.4 14.1 54.1 16.2c26.6 4.2 48 1.6 62-4.4c13-5.6 18.9-13.4 20.7-23.5c1.6-9.5 .4-14.9-.9-18.1c-1.4-3.3-4.1-6.9-9.5-10.9c-12.5-9.2-32.2-15.6-59.4-23.8l-3.7-1.1 0 0c-23.5-7-53-15.8-75.4-31c-12.5-8.5-24.4-19.9-32.3-35.5c-8-15.9-10.7-33.7-8.4-53c.1-.6 .1-1.1 .2-1.7z"/></svg>