<svg xmlns="http://www.w3.org/2000/svg" viewBox="0 0 512 512"><!--! Font Awesome Pro 6.4.0 by @fontawesome - https://fontawesome.com License - https://fontawesome.com/license (Commercial License) Copyright 2023 Fonticons, Inc. --><defs><style>.fa-secondary{opacity:.4}</style></defs><path class="fa-primary" d="M32 64C14.3 64 0 78.3 0 96C0 219.7 100.3 320 224 320V480c0 17.7 14.3 32 32 32s32-14.3 32-32V320 288C288 164.3 187.7 64 64 64H32z"/><path class="fa-secondary" d="M480 0c17.7 0 32 14.3 32 32c0 123.7-100.3 224-224 224h-2.3c-5.9-41.1-22.9-78.7-48-109.4C269.2 61 351.5 0 448 0h32z"/></svg>