<svg xmlns="http://www.w3.org/2000/svg" viewBox="0 0 512 512"><!--! Font Awesome Pro 6.4.0 by @fontawesome - https://fontawesome.com License - https://fontawesome.com/license (Commercial License) Copyright 2023 Fonticons, Inc. --><defs><style>.fa-secondary{opacity:.4}</style></defs><path class="fa-primary" d="M0 64C0 28.7 28.7 0 64 0H288c35.3 0 64 28.7 64 64v96H224c-35.3 0-64 28.7-64 64V352H64c-35.3 0-64-28.7-64-64V64z"/><path class="fa-secondary" d="M448 224V448H224V224H448zM224 160c-35.3 0-64 28.7-64 64V448c0 35.3 28.7 64 64 64H448c35.3 0 64-28.7 64-64V224c0-35.3-28.7-64-64-64H224z"/></svg>