<svg xmlns="http://www.w3.org/2000/svg" viewBox="0 0 640 512"><!--! Font Awesome Pro 6.4.0 by @fontawesome - https://fontawesome.com License - https://fontawesome.com/license (Commercial License) Copyright 2023 Fonticons, Inc. --><defs><style>.fa-secondary{opacity:.4}</style></defs><path class="fa-primary" d="M256 432c0 44.2 35.8 80 80 80H560c44.2 0 80-35.8 80-80c0-39-27.9-71.5-64.8-78.6c.5-3.1 .8-6.2 .8-9.4c0-30.9-25.1-56-56-56c-18.1 0-34.1 8.6-44.4 21.8C464.8 278.5 435 256 400 256c-44.2 0-80 35.8-80 80c0 5.9 .6 11.7 1.9 17.2C284.4 359.9 256 392.6 256 432z"/><path class="fa-secondary" d="M0 96C0 60.7 28.7 32 64 32H384c35.3 0 64 28.7 64 64V234.8c-14.5-6.9-30.8-10.8-48-10.8c-60.1 0-109.1 47.3-111.9 106.7C250.2 348.7 224 387.3 224 432c0 17.2 3.9 33.5 10.8 48H64c-35.3 0-64-28.7-64-64V96zm88 0c-13.3 0-24 10.7-24 24V264c0 13.3 10.7 24 24 24s24-10.7 24-24V120c0-13.3-10.7-24-24-24zm96 0c-13.3 0-24 10.7-24 24V264c0 13.3 10.7 24 24 24s24-10.7 24-24V120c0-13.3-10.7-24-24-24z"/></svg>