<svg xmlns="http://www.w3.org/2000/svg" viewBox="0 0 512 512"><!--! Font Awesome Pro 6.4.0 by @fontawesome - https://fontawesome.com License - https://fontawesome.com/license (Commercial License) Copyright 2023 Fonticons, Inc. --><defs><style>.fa-secondary{opacity:.4}</style></defs><path class="fa-primary" d="M328 272c-22.1 0-40 17.9-40 40V456c0 22.1 17.9 40 40 40H472c22.1 0 40-17.9 40-40V312c0-22.1-17.9-40-40-40H328z"/><path class="fa-secondary" d="M288 0c-11.2 0-21.7 5.9-27.4 15.5l-96 160c-5.9 9.9-6.1 22.2-.4 32.2s16.3 16.2 27.8 16.2H384c11.5 0 22.2-6.2 27.8-16.2s5.5-22.3-.4-32.2l-96-160C309.7 5.9 299.2 0 288 0zM128 512a128 128 0 1 0 0-256 128 128 0 1 0 0 256z"/></svg>