<svg xmlns="http://www.w3.org/2000/svg" viewBox="0 0 640 512"><!--! Font Awesome Pro 6.4.0 by @fontawesome - https://fontawesome.com License - https://fontawesome.com/license (Commercial License) Copyright 2023 Fonticons, Inc. --><defs><style>.fa-secondary{opacity:.4}</style></defs><path class="fa-primary" d="M384 135.8l-14.5 6.2c-12.2 5.2-26.3-.4-31.5-12.6s.4-26.3 12.6-31.5l47.8-20.5C415.3 50.2 445.5 32 480 32s64.7 18.2 81.6 45.4l47.8 20.5c12.2 5.2 17.8 19.3 12.6 31.5s-19.3 17.8-31.5 12.6L576 135.8V208c0 44.2-35.8 80-80 80H464c-44.2 0-80-35.8-80-80V135.8zM464 160a16 16 0 1 0 0-32 16 16 0 1 0 0 32zm80-16a16 16 0 1 0 -32 0 16 16 0 1 0 32 0zM115.1 485.9L97.5 392c2.8-.1 5.6-.3 8.3-.7c6.8 28 32.1 48.7 62.2 48.7c15 0 28.9-5.2 39.8-13.9l.2 .2V480c0 17.7-14.3 32-32 32H146.6c-15.4 0-28.6-11-31.5-26.1zM304 480V426.3l.2-.2C315.1 434.8 329 440 344 440c30.1 0 55.3-20.8 62.2-48.7c2.7 .4 5.5 .7 8.3 .7l-17.6 93.9C394.1 501 380.8 512 365.4 512H336c-17.7 0-32-14.3-32-32z"/><path class="fa-secondary" d="M308.5 142.1c8 18.6 24.8 30.7 43.5 33.4V208c0 61.9 50.1 112 112 112h15.5c.3 2.6 .5 5.3 .5 8c0 35.3-28.7 64-64 64c-3.3 0-6.6-.3-9.8-.7c-6.8 28-32.1 48.7-62.2 48.7c-15 0-28.9-5.2-39.8-13.9c-11.7 13.4-29 21.9-48.2 21.9s-36.5-8.5-48.2-21.9C196.9 434.8 183 440 168 440c-30.1 0-55.3-20.8-62.2-48.7c-3.2 .5-6.5 .7-9.8 .7c-35.3 0-64-28.7-64-64c0-5.3 .7-10.5 1.9-15.5C13.7 301.7 0 280.5 0 256s13.7-45.7 33.9-56.5c-1.2-5-1.9-10.2-1.9-15.5c0-35.3 28.7-64 64-64c3.3 0 6.6 .3 9.8 .8C112.7 92.8 137.9 72 168 72c15 0 28.9 5.2 39.8 13.9C219.5 72.5 236.8 64 256 64c22.9 0 43 12 54.3 30.1c-7.5 14.4-8.7 31.9-1.8 47.9z"/></svg>