<svg xmlns="http://www.w3.org/2000/svg" viewBox="0 0 384 512"><!--! Font Awesome Pro 6.4.0 by @fontawesome - https://fontawesome.com License - https://fontawesome.com/license (Commercial License) Copyright 2023 Fonticons, Inc. --><defs><style>.fa-secondary{opacity:.4}</style></defs><path class="fa-primary" d="M224 512L384 352H256c-17.7 0-32 14.3-32 32V512z"/><path class="fa-secondary" d="M64 512c-35.3 0-64-28.7-64-64V64C0 28.7 28.7 0 64 0H320c35.3 0 64 28.7 64 64V352H256c-17.7 0-32 14.3-32 32V512H64zM171.3 75.3c6.2-6.2 6.2-16.4 0-22.6s-16.4-6.2-22.6 0l-96 96c-6.2 6.2-6.2 16.4 0 22.6s16.4 6.2 22.6 0l96-96zm96 32c6.2-6.2 6.2-16.4 0-22.6s-16.4-6.2-22.6 0l-160 160c-6.2 6.2-6.2 16.4 0 22.6s16.4 6.2 22.6 0l160-160z"/></svg>