<svg xmlns="http://www.w3.org/2000/svg" viewBox="0 0 640 512"><!--! Font Awesome Pro 6.4.0 by @fontawesome - https://fontawesome.com License - https://fontawesome.com/license (Commercial License) Copyright 2023 Fonticons, Inc. --><defs><style>.fa-secondary{opacity:.4}</style></defs><path class="fa-primary" d="M384 0c-17.7 0-32 14.3-32 32V96c0 17.7 14.3 32 32 32h64c17.7 0 32-14.3 32-32V32c0-17.7-14.3-32-32-32H384zM96 288v64c0 17.7 14.3 32 32 32h64c17.7 0 32-14.3 32-32V288c0-17.7-14.3-32-32-32H128c-17.7 0-32 14.3-32 32zm160 0v64c0 17.7 14.3 32 32 32h64c17.7 0 32-14.3 32-32V288c0-17.7-14.3-32-32-32H288c-17.7 0-32 14.3-32 32z"/><path class="fa-secondary" d="M64 32C64 14.3 49.7 0 32 0S0 14.3 0 32V192 448v32c0 17.7 14.3 32 32 32s32-14.3 32-32H576c0 17.7 14.3 32 32 32s32-14.3 32-32V448 192 32c0-17.7-14.3-32-32-32s-32 14.3-32 32V160H64V32zm0 192H576V416H64V224z"/></svg>