<svg xmlns="http://www.w3.org/2000/svg" viewBox="0 0 512 512"><!--! Font Awesome Pro 6.4.0 by @fontawesome - https://fontawesome.com License - https://fontawesome.com/license (Commercial License) Copyright 2023 Fonticons, Inc. --><defs><style>.fa-secondary{opacity:.4}</style></defs><path class="fa-primary" d="M256.7 0c-.2 0-.5 0-.7 0c-4.6 0-9.2 1-13.4 2.9L54.3 82.8c-22 9.3-38.4 31-38.3 57.2c.5 99.2 41.3 280.7 213.6 363.2c8.3 4 17.4 6 26.4 6V0h.7z"/><path class="fa-secondary" d="M256 0c.2 0 .5 0 .7 0c4.6 0 9.2 1 13.4 2.9L458.4 82.8c22 9.3 38.4 31 38.3 57.2c-.5 99.2-41.3 280.7-213.6 363.2c-8.3 4-17.4 6-26.4 6V0H256z"/></svg>