<svg xmlns="http://www.w3.org/2000/svg" viewBox="0 0 512 512"><!--! Font Awesome Pro 6.4.0 by @fontawesome - https://fontawesome.com License - https://fontawesome.com/license (Commercial License) Copyright 2023 Fonticons, Inc. --><defs><style>.fa-secondary{opacity:.4}</style></defs><path class="fa-primary" d="M168 272l-22.1 44.2c-1.2 2.5-1.9 5.2-1.9 8c0 7.1 4.3 13.6 10.8 16.4l98.7 42.3c1.7 .7 3.4 1.1 5.2 1.1c7.3 0 13.3-5.9 13.3-13.3V320h48c44.2 0 80-35.8 80-80V208c0-8.8-7.2-16-16-16H320l-7.2-14.3c-5.4-10.8-16.5-17.7-28.6-17.7H232 208v72c0 22.1-17.9 40-40 40zm88-64a16 16 0 1 1 32 0 16 16 0 1 1 -32 0z"/><path class="fa-secondary" d="M269.4 2.9C265.2 1 260.7 0 256 0s-9.2 1-13.4 2.9L54.3 82.8c-22 9.3-38.4 31-38.3 57.2c.5 99.2 41.3 280.7 213.6 363.2c16.7 8 36.1 8 52.8 0C454.7 420.7 495.5 239.2 496 140c.1-26.2-16.3-47.9-38.3-57.2L269.4 2.9zM200 160h8 24 52.2c12.1 0 23.2 6.8 28.6 17.7L320 192h64c8.8 0 16 7.2 16 16v32c0 44.2-35.8 80-80 80H272v50.7c0 7.3-5.9 13.3-13.3 13.3c-1.8 0-3.6-.4-5.2-1.1l-98.7-42.3c-6.6-2.8-10.8-9.3-10.8-16.4c0-2.8 .6-5.5 1.9-8L168 272h-8c-17.7 0-32-14.3-32-32V176c0-8.8 7.2-16 16-16h56z"/></svg>