<svg xmlns="http://www.w3.org/2000/svg" viewBox="0 0 512 512"><!-- Font Awesome Pro 6.0.0-alpha2 by @fontawesome - https://fontawesome.com License - https://fontawesome.com/license (Commercial License) --><defs><style>.fa-secondary{opacity:.4}</style></defs><path d="M237.594 3.672L45.594 83.682C27.688 91.073 16 108.575 16 127.983C16 161.88 19.557 193.835 25.625 224.002H256V0.008C250.686 0.02 242.484 1.646 237.594 3.672ZM256 224.002V512C295.098 511.963 447.699 420.071 486.504 224.002H256Z " class="fa-secondary"></path><path d="M256.33 512C256.345 512 256.36 512 256.375 512V224.002H26C65.788 421.762 216.238 512 256.33 512ZM466.875 83.682L274.875 3.672C270 1.641 261.719 0 256.438 0C256.42 0 256.393 0.008 256.375 0.008V224.002H486.879C492.768 194.251 496.375 162.447 496.375 127.983C496.375 108.575 484.688 91.073 466.875 83.682Z " class="fa-primary"></path></svg>