<svg xmlns="http://www.w3.org/2000/svg" viewBox="0 0 640 512"><!--! Font Awesome Pro 6.4.0 by @fontawesome - https://fontawesome.com License - https://fontawesome.com/license (Commercial License) Copyright 2023 Fonticons, Inc. --><defs><style>.fa-secondary{opacity:.4}</style></defs><path class="fa-primary" d="M208 0c0 61.9 50.1 112 112 112s112-50.1 112-112H400c0 44.2-35.8 80-80 80s-80-35.8-80-80H208z"/><path class="fa-secondary" d="M320 112c61.9 0 112-50.1 112-112h8.8c22.5 0 44.2 7.9 61.5 22.3L628.5 127.4c6.6 5.5 10.7 13.5 11.4 22.1s-2.1 17.1-7.8 23.6l-56 64c-11.4 13.1-31.2 14.6-44.6 3.5L480 197.7V448c0 35.3-28.7 64-64 64H224c-35.3 0-64-28.7-64-64V197.7l-51.5 42.9c-13.3 11.1-33.1 9.6-44.6-3.5l-56-64c-5.7-6.5-8.5-15-7.8-23.6s4.8-16.6 11.4-22.1L137.7 22.3C155 7.9 176.7 0 199.2 0H208c0 61.9 50.1 112 112 112z"/></svg>