<svg xmlns="http://www.w3.org/2000/svg" viewBox="0 0 640 512"><!--! Font Awesome Pro 6.4.0 by @fontawesome - https://fontawesome.com License - https://fontawesome.com/license (Commercial License) Copyright 2023 Fonticons, Inc. --><defs><style>.fa-secondary{opacity:.4}</style></defs><path class="fa-primary" d="M208 0c0 61.9 50.1 112 112 112s112-50.1 112-112H400c0 44.2-35.8 80-80 80s-80-35.8-80-80H208z"/><path class="fa-secondary" d="M320 112c61.9 0 112-50.1 112-112h28 15.6H480c1 0 2 .1 3 .3c32.1 2.5 61 20.9 76.7 49.5l66.4 120.7c9.1 16.5 13.9 35.1 13.9 54V384c0 17.7-14.3 32-32 32H576c-17.7 0-32-14.3-32-32V224.4c0-2.7-.7-5.3-2-7.7l-46-83.7V448c0 35.3-28.7 64-64 64H208c-35.3 0-64-28.7-64-64V133.1L98 216.7c-1.3 2.4-2 5-2 7.7V384c0 17.7-14.3 32-32 32H32c-17.7 0-32-14.3-32-32V224.4c0-18.9 4.8-37.4 13.9-54L80.3 49.7C95.9 21.2 124.9 2.8 157 .3c1-.2 2-.3 3-.3h4.4H180h28c0 61.9 50.1 112 112 112z"/></svg>