<svg xmlns="http://www.w3.org/2000/svg" viewBox="0 0 640 512"><!--! Font Awesome Pro 6.4.0 by @fontawesome - https://fontawesome.com License - https://fontawesome.com/license (Commercial License) Copyright 2023 Fonticons, Inc. --><defs><style>.fa-secondary{opacity:.4}</style></defs><path class="fa-primary" d="M496 272v48h64V272c0-17.7-14.3-32-32-32s-32 14.3-32 32zm-48 48V272c0-44.2 35.8-80 80-80s80 35.8 80 80v48c17.7 0 32 14.3 32 32V480c0 17.7-14.3 32-32 32H448c-17.7 0-32-14.3-32-32V352c0-17.7 14.3-32 32-32z"/><path class="fa-secondary" d="M449.6 192H36.8C16.5 192 0 175.5 0 155.2c0-7.3 2.2-14.4 6.2-20.4L81.8 21.4C90.7 8 105.6 0 121.7 0H518.3c16.1 0 31 8 39.9 21.4l75.6 113.3c4 6.1 6.2 13.2 6.2 20.4c0 19.3-14.8 35.1-33.7 36.7C586.1 172.2 558.5 160 528 160c-30.5 0-58.2 12.2-78.4 32zM384 352v32 80c0 26.5-21.5 48-48 48H112c-26.5 0-48-21.5-48-48V384 224h64V384H320V224h64V352z"/></svg>