<svg xmlns="http://www.w3.org/2000/svg" viewBox="0 0 512 512"><!--! Font Awesome Pro 6.4.0 by @fontawesome - https://fontawesome.com License - https://fontawesome.com/license (Commercial License) Copyright 2023 Fonticons, Inc. --><defs><style>.fa-secondary{opacity:.4}</style></defs><path class="fa-primary" d="M0 64C0 46.3 14.3 32 32 32H480c17.7 0 32 14.3 32 32s-14.3 32-32 32H32C14.3 96 0 81.7 0 64z"/><path class="fa-secondary" d="M491.4 224H20.6C9.2 224 0 214.8 0 203.4c0-2.2 .4-4.4 1.1-6.5L24 128H488l22.9 68.8c.7 2.1 1.1 4.3 1.1 6.5c0 11.4-9.2 20.6-20.6 20.6zm0 128H20.6C9.2 352 0 342.8 0 331.4c0-2.2 .4-4.4 1.1-6.5L24 256H488l22.9 68.8c.7 2.1 1.1 4.3 1.1 6.5c0 11.4-9.2 20.6-20.6 20.6zM20.6 480C9.2 480 0 470.8 0 459.4c0-2.2 .4-4.4 1.1-6.5L24 384H488l22.9 68.8c.7 2.1 1.1 4.3 1.1 6.5c0 11.4-9.2 20.6-20.6 20.6H20.6z"/></svg>