<svg xmlns="http://www.w3.org/2000/svg" viewBox="0 0 640 512"><!--! Font Awesome Pro 6.4.0 by @fontawesome - https://fontawesome.com License - https://fontawesome.com/license (Commercial License) Copyright 2023 Fonticons, Inc. --><defs><style>.fa-secondary{opacity:.4}</style></defs><path class="fa-primary" d="M0 168c0-22.1 17.9-40 40-40h64c26.2 0 49.4 12.6 64 32H456c69.3 0 135 22.7 179.2 81.6c6.4 8.5 6.4 20.3 0 28.8C591 329.3 525.3 352 456 352H168c-14.6 19.4-37.8 32-64 32H40c-22.1 0-40-17.9-40-40V328 184 168zM512 268.4V243.6c0-19.6-15.9-35.6-35.6-35.6c-2.5 0-4.4 2-4.4 4.4v87.1c0 2.5 2 4.4 4.4 4.4c19.6 0 35.6-15.9 35.6-35.6z"/><path class="fa-secondary" d="M96 32v96H32V80c0-26.5 21.5-48 48-48H96zm0 352v96H80c-26.5 0-48-21.5-48-48V384H96zm32 96V380.3c16.1-5.1 30.1-15.1 40-28.3H405.3L245.2 448.1C210.4 469 170.6 480 130 480h-2zm0-348.3V32h2c40.6 0 80.4 11 115.2 31.9L405.3 160H168c-9.9-13.2-23.9-23.3-40-28.3z"/></svg>