<svg xmlns="http://www.w3.org/2000/svg" viewBox="0 0 512 512"><!--! Font Awesome Pro 6.4.0 by @fontawesome - https://fontawesome.com License - https://fontawesome.com/license (Commercial License) Copyright 2023 Fonticons, Inc. --><defs><style>.fa-secondary{opacity:.4}</style></defs><path class="fa-primary" d="M129 303c-9.4-9.4-24.6-9.4-33.9 0L79 319c-9.4 9.4-9.4 24.6 0 33.9l7 7L7 439c-9.4 9.4-9.4 24.6 0 33.9l32 32c9.4 9.4 24.6 9.4 33.9 0l79-79 7 7c9.4 9.4 24.6 9.4 33.9 0l16-16c9.4-9.4 9.4-24.6 0-33.9l-24-24-32-32-24-24z"/><path class="fa-secondary" d="M128 181c0 38 11.9 74.7 33.7 105.2L137 311l16 16 32 32 16 16 23-23 24.5-24.5c4.5-4.5 5.9-11.3 3.7-17.3c-7-18.9-12.2-37.9-12.2-58.6v-9.8C240 165.7 301.7 104 377.8 104c41.7 0 81 18.9 107.1 51.1c2.4 3 6.1 4.9 9.9 4.9c7.6 0 13.3-6.8 11.5-14.2C485.8 62.1 410.1 0 320 0H309C209 0 128 81 128 181z"/></svg>