<svg xmlns="http://www.w3.org/2000/svg" viewBox="0 0 640 512"><!--! Font Awesome Pro 6.4.0 by @fontawesome - https://fontawesome.com License - https://fontawesome.com/license (Commercial License) Copyright 2023 Fonticons, Inc. --><defs><style>.fa-secondary{opacity:.4}</style></defs><path class="fa-primary" d="M5.1 9.2C13.3-1.2 28.4-3.1 38.8 5.1l592 464c10.4 8.2 12.3 23.3 4.1 33.7s-23.3 12.3-33.7 4.1L9.2 42.9C-1.2 34.7-3.1 19.6 5.1 9.2z"/><path class="fa-secondary" d="M608 451.2V32c0-17.7-14.3-32-32-32s-32 14.3-32 32V401.1l64 50.2zM480 350.9V128c0-17.7-14.3-32-32-32s-32 14.3-32 32V300.8l64 50.2zM352 250.6V224c0-17.7-14.3-32-32-32c-10.7 0-20.1 5.2-25.9 13.2L352 250.6zM576 512l-.3 0h.6l-.3 0zm-96-32v-5.8l-64-50.4V480c0 17.7 14.3 32 32 32s32-14.3 32-32zM352 373.3l-64-50.4V480c0 17.7 14.3 32 32 32s32-14.3 32-32V373.3zM192 288c-17.7 0-32 14.3-32 32V480c0 17.7 14.3 32 32 32s32-14.3 32-32V320c0-17.7-14.3-32-32-32zM96 416c0-17.7-14.3-32-32-32s-32 14.3-32 32v64c0 17.7 14.3 32 32 32s32-14.3 32-32V416z"/></svg>