<svg xmlns="http://www.w3.org/2000/svg" viewBox="0 0 640 512"><!--! Font Awesome Pro 6.4.0 by @fontawesome - https://fontawesome.com License - https://fontawesome.com/license (Commercial License) Copyright 2023 Fonticons, Inc. --><defs><style>.fa-secondary{opacity:.4}</style></defs><path class="fa-primary" d="M5.1 9.2C13.3-1.2 28.4-3.1 38.8 5.1l592 464c10.4 8.2 12.3 23.3 4.1 33.7s-23.3 12.3-33.7 4.1L9.2 42.9C-1.2 34.7-3.1 19.6 5.1 9.2z"/><path class="fa-secondary" d="M608 451.2V48c0-26.5-21.5-48-48-48s-48 21.5-48 48V376l96 75.2zM448 325.8V176c0-26.5-21.5-48-48-48s-48 21.5-48 48v74.6l96 75.2zM560 512l-.3 0h.7l-.3 0zM448 464V449l-96-75.6V464c0 26.5 21.5 48 48 48s48-21.5 48-48zM288 322.9l-74.7-58.8C200.5 272.7 192 287.4 192 304V464c0 26.5 21.5 48 48 48s48-21.5 48-48V322.9zM80 384c-26.5 0-48 21.5-48 48v32c0 26.5 21.5 48 48 48s48-21.5 48-48V432c0-26.5-21.5-48-48-48z"/></svg>