<svg xmlns="http://www.w3.org/2000/svg" viewBox="0 0 640 512"><!--! Font Awesome Pro 6.4.0 by @fontawesome - https://fontawesome.com License - https://fontawesome.com/license (Commercial License) Copyright 2023 Fonticons, Inc. --><defs><style>.fa-secondary{opacity:.4}</style></defs><path class="fa-primary" d="M5.1 9.2C13.3-1.2 28.4-3.1 38.8 5.1l592 464c10.4 8.2 12.3 23.3 4.1 33.7s-23.3 12.3-33.7 4.1L9.2 42.9C-1.2 34.7-3.1 19.6 5.1 9.2z"/><path class="fa-secondary" d="M576 256c0 51.3-13.4 99.5-36.9 141.2l-51.1-40.1C503.3 326.8 512 292.4 512 256c0-53-18.4-101.6-49.1-140c-11.1-13.8-8.8-33.9 5-45s33.9-8.8 45 5C552.3 125.3 576 187.9 576 256zm-112 0c0 25.2-5.3 49.1-14.8 70.8l-53-41.6c2.5-9.3 3.8-19.1 3.8-29.2c0-28.7-10.8-54.8-28.5-74.7c-11.8-13.2-10.7-33.4 2.5-45.2s33.4-10.7 45.2 2.5C447 169.8 464 210.9 464 256zM288 200c26.5 0 48.7 18.4 54.5 43.2L287.5 200l.5 0zm-164.5-6.7l54.3 42.8c-1.2 6.5-1.8 13.1-1.8 19.9c0 28.7 10.8 54.8 28.5 74.7c11.8 13.2 10.7 33.4-2.5 45.2s-33.4 10.7-45.2-2.5C129 342.2 112 301.1 112 256c0-22.1 4.1-43.2 11.5-62.7zM33 122l51.4 40.5C71.3 190.9 64 222.6 64 256c0 53 18.4 101.6 49.1 140c11.1 13.8 8.8 33.9-5 45s-33.9 8.8-45-5C23.7 386.7 0 324.1 0 256c0-48.4 11.9-94 33-134z"/></svg>