<svg xmlns="http://www.w3.org/2000/svg" viewBox="0 0 640 512"><!--! Font Awesome Pro 6.4.0 by @fontawesome - https://fontawesome.com License - https://fontawesome.com/license (Commercial License) Copyright 2023 Fonticons, Inc. --><defs><style>.fa-secondary{opacity:.4}</style></defs><path class="fa-primary" d="M496 272v48h64V272c0-17.7-14.3-32-32-32s-32 14.3-32 32zm-48 48V272c0-44.2 35.8-80 80-80s80 35.8 80 80v48c17.7 0 32 14.3 32 32V480c0 17.7-14.3 32-32 32H448c-17.7 0-32-14.3-32-32V352c0-17.7 14.3-32 32-32z"/><path class="fa-secondary" d="M128 96c-17.7 0-32 14.3-32 32v32c0 17.7-14.3 32-32 32s-32-14.3-32-32V128c0-53 43-96 96-96s96 43 96 96v7.8c0 20.8-1.2 41.6-3.6 62.3l122.4-36.7c11.4-3.4 23.8-.2 32.2 8.4s11.2 21.1 7.4 32.4l-18 53.9h52.7c-.7 5.2-1.1 10.6-1.1 16v24.6c-9.7 5.6-17.8 13.7-23.4 23.4H320c-10.3 0-19.9-4.9-26-13.3s-7.7-19.1-4.4-28.8l12.5-37.5-94.4 28.3c-11.9 52.8-31.6 103.5-58.4 150.5l-13.9 24.3C122.5 466.1 98.5 480 72.5 480C32.5 480 0 447.5 0 407.5V335.6c0-42.4 27.8-79.8 68.4-92l84.4-25.3c4.8-27.2 7.1-54.9 7.1-82.5V128c0-17.7-14.3-32-32-32zM384 368v48H187.5c8.2-15.7 15.6-31.7 22.3-48H384zM135.8 290.3L86.8 305C73.3 309 64 321.5 64 335.6v71.9c0 4.7 3.8 8.5 8.5 8.5c3 0 5.9-1.6 7.4-4.3l13.9-24.3c17.6-30.8 31.7-63.4 42.1-97.2z"/></svg>