<svg xmlns="http://www.w3.org/2000/svg" viewBox="0 0 448 512"><!--! Font Awesome Pro 6.4.0 by @fontawesome - https://fontawesome.com License - https://fontawesome.com/license (Commercial License) Copyright 2023 Fonticons, Inc. --><defs><style>.fa-secondary{opacity:.4}</style></defs><path class="fa-primary" d="M48 120c0-13.3-10.7-24-24-24S0 106.7 0 120V376c0 75.1 60.9 136 136 136H360c13.3 0 24-10.7 24-24s-10.7-24-24-24H136c-48.6 0-88-39.4-88-88V120zm144 24c-17.7 0-32 14.3-32 32v16h48V144H192zM160 272h64 96 64V224H320 224 160v48zm224-96c0-17.7-14.3-32-32-32H336v48h48V176zM240 144v48h64V144H240zm96 160v48h16c17.7 0 32-14.3 32-32V304H336zm-32 0H240v48h64V304zm-96 0H160v16c0 17.7 14.3 32 32 32h16V304z"/><path class="fa-secondary" d="M96 64c0-35.3 28.7-64 64-64H306.7c17 0 33.3 6.7 45.3 18.7L429.3 96c12 12 18.7 28.3 18.7 45.3V352c0 35.3-28.7 64-64 64H160c-35.3 0-64-28.7-64-64V64zm96 80c-17.7 0-32 14.3-32 32V320c0 17.7 14.3 32 32 32H352c17.7 0 32-14.3 32-32V176c0-17.7-14.3-32-32-32H192z"/></svg>