<svg xmlns="http://www.w3.org/2000/svg" viewBox="0 0 512 512"><!--! Font Awesome Pro 6.4.0 by @fontawesome - https://fontawesome.com License - https://fontawesome.com/license (Commercial License) Copyright 2023 Fonticons, Inc. --><defs><style>.fa-secondary{opacity:.4}</style></defs><path class="fa-primary" d="M288 32c0-17.7-14.3-32-32-32s-32 14.3-32 32V386.3l-67.5-28.9c-8.3-3.5-17.2-5.4-26.1-5.4C93.7 352 64 381.7 64 418.4v1.5c0 18 7.2 35.3 19.9 48l25.8 25.8c11.7 11.7 27.6 18.3 44.1 18.3H358.1c16.6 0 32.4-6.6 44.1-18.3l25.8-25.8c12.7-12.7 19.9-30 19.9-48v-1.5c0-36.7-29.7-66.4-66.4-66.4c-9 0-17.9 1.8-26.1 5.4L288 386.3V32zM136 440a24 24 0 1 1 48 0 24 24 0 1 1 -48 0zm216-24a24 24 0 1 1 0 48 24 24 0 1 1 0-48z"/><path class="fa-secondary" d="M224 64H96C78.3 64 64 78.3 64 96s14.3 32 32 32H224V64zm0 96H32c-17.7 0-32 14.3-32 32s14.3 32 32 32H224V160zm64 64H480c17.7 0 32-14.3 32-32s-14.3-32-32-32H288v64zm-64 32H128c-17.7 0-32 14.3-32 32s14.3 32 32 32h96V256zm64 64h96c17.7 0 32-14.3 32-32s-14.3-32-32-32H288v64zm0-192H416c17.7 0 32-14.3 32-32s-14.3-32-32-32H288v64z"/></svg>