<svg xmlns="http://www.w3.org/2000/svg" viewBox="0 0 640 512"><!--! Font Awesome Pro 6.4.0 by @fontawesome - https://fontawesome.com License - https://fontawesome.com/license (Commercial License) Copyright 2023 Fonticons, Inc. --><defs><style>.fa-secondary{opacity:.4}</style></defs><path class="fa-primary" d="M415.4 38.3c3.5-17.3-7.8-34.2-25.1-37.7s-34.2 7.8-37.7 25.1L351.4 32H269.5c-27.6 157.6-113 195.8-152.7 205L88.6 377.7c-1.9 9.4 .6 19.1 6.6 26.6s15.2 11.7 24.7 11.7H448c17.7 0 32-14.3 32-32V304c0-12.7-7.5-24.2-19.1-29.3L382.2 240H320c-8.8 0-16-7.2-16-16s7.2-16 16-16h61.4l9.6-48H336c-8.8 0-16-7.2-16-16s7.2-16 16-16h61.4L409 70.3l6.4-32z"/><path class="fa-secondary" d="M269.5 32H184c-15.3 0-28.4 10.8-31.4 25.7L116.8 237c39.8-9.3 125.1-47.4 152.7-205zM640 416c0-17.7-14.3-32-32-32s-32 14.3-32 32s-14.3 32-32 32H32c-17.7 0-32 14.3-32 32s14.3 32 32 32H544c53 0 96-43 96-96z"/></svg>