<svg xmlns="http://www.w3.org/2000/svg" viewBox="0 0 640 512"><!--! Font Awesome Pro 6.4.0 by @fontawesome - https://fontawesome.com License - https://fontawesome.com/license (Commercial License) Copyright 2023 Fonticons, Inc. --><defs><style>.fa-secondary{opacity:.4}</style></defs><path class="fa-primary" d="M0 64C0 46.3 14.3 32 32 32H55h9c2.3 0 4.6 .2 6.7 .7c54.2 4.9 103.5 34.9 132.7 81.6l4.3 6.9c40 64 110.1 102.9 185.6 102.9c30.2 0 54.7-24.5 54.7-54.7V128c0-17.7 14.3-32 32-32h32 32c17.7 0 32 14.3 32 32s-14.3 32-32 32v96c0 53-43 96-96 96v64H384V352H192v64H128V352c-53 0-96-43-96-96V96C14.3 96 0 81.7 0 64z"/><path class="fa-secondary" d="M608 352c17.7 0 32 14.3 32 32v8c0 48.6-39.4 88-88 88H64c-17.7 0-32-14.3-32-32s14.3-32 32-32H552c13.3 0 24-10.7 24-24v-8c0-17.7 14.3-32 32-32z"/></svg>