<svg xmlns="http://www.w3.org/2000/svg" viewBox="0 0 512 512"><!--! Font Awesome Pro 6.4.0 by @fontawesome - https://fontawesome.com License - https://fontawesome.com/license (Commercial License) Copyright 2023 Fonticons, Inc. --><defs><style>.fa-secondary{opacity:.4}</style></defs><path class="fa-primary" d="M352 160V352H320l0-192h32zM320 96c-35.3 0-64 28.7-64 64V352c0 35.3 28.7 64 64 64h32c35.3 0 64-28.7 64-64V160c0-35.3-28.7-64-64-64H320z"/><path class="fa-secondary" d="M32 288c-17.7 0-32-14.3-32-32s14.3-32 32-32H224v64H32zm448 0H416V224h64c17.7 0 32 14.3 32 32s-14.3 32-32 32z"/></svg>