<svg xmlns="http://www.w3.org/2000/svg" viewBox="0 0 448 512"><!--! Font Awesome Pro 6.4.0 by @fontawesome - https://fontawesome.com License - https://fontawesome.com/license (Commercial License) Copyright 2023 Fonticons, Inc. --><defs><style>.fa-secondary{opacity:.4}</style></defs><path class="fa-primary" d="M0 288c0-17.7 14.3-32 32-32H192c12.4 0 23.7 7.2 29 18.4s3.6 24.5-4.4 34.1L100.3 448H192c17.7 0 32 14.3 32 32s-14.3 32-32 32H32c-12.4 0-23.7-7.2-29-18.4s-3.6-24.5 4.4-34.1L123.7 320H32c-17.7 0-32-14.3-32-32z"/><path class="fa-secondary" d="M160 32c0-17.7 14.3-32 32-32h96c12.1 0 23.2 6.8 28.6 17.7s4.3 23.8-3 33.5L256 128h32c17.7 0 32 14.3 32 32s-14.3 32-32 32H192c-12.1 0-23.2-6.8-28.6-17.7s-4.3-23.8 3-33.5L224 64H192c-17.7 0-32-14.3-32-32zM288 256c0-17.7 14.3-32 32-32h96c12.1 0 23.2 6.8 28.6 17.7s4.3 23.8-3 33.5L384 352h32c17.7 0 32 14.3 32 32s-14.3 32-32 32H320c-12.1 0-23.2-6.8-28.6-17.7s-4.3-23.8 3-33.5L352 288H320c-17.7 0-32-14.3-32-32z"/></svg>