<svg xmlns="http://www.w3.org/2000/svg" viewBox="0 0 512 512"><!--! Font Awesome Pro 6.4.0 by @fontawesome - https://fontawesome.com License - https://fontawesome.com/license (Commercial License) Copyright 2023 Fonticons, Inc. --><defs><style>.fa-secondary{opacity:.4}</style></defs><path class="fa-primary" d="M224 64a16 16 0 1 1 0 32 16 16 0 1 1 0-32zm32 144a16 16 0 1 1 0 32 16 16 0 1 1 0-32zm-16 80a16 16 0 1 1 32 0 16 16 0 1 1 -32 0zm16 48a16 16 0 1 1 0 32 16 16 0 1 1 0-32zM272 80a16 16 0 1 1 32 0 16 16 0 1 1 -32 0zM80 96c13.3 0 24 10.7 24 24v40.2L152.6 181c-5.5 13.2-8.6 27.8-8.6 43c0 1.9 0 3.7 .1 5.6L70.5 198.1l-56-24C2.4 168.8-3.3 154.7 1.9 142.5s19.3-17.8 31.5-12.6L56 139.6V120c0-13.3 10.7-24 24-24zM368 224c0-15.2-3-29.8-8.6-43L408 160.2V120c0-13.3 10.7-24 24-24s24 10.7 24 24v19.6l22.5-9.7c12.2-5.2 26.3 .4 31.5 12.6s-.4 26.3-12.6 31.5l-56 24-73.6 31.5c.1-1.9 .1-3.7 .1-5.6z"/><path class="fa-secondary" d="M342.3 152.6c-2.8-3.4-3.3-8.1-1.2-12C348 127.2 352 112.1 352 96c0-53-43-96-96-96s-96 43-96 96c0 16.1 4 31.2 10.9 44.6c2 3.9 1.6 8.6-1.2 12C153.7 172 144 196.9 144 224c0 11.5 1.7 22.5 4.9 32.9c1.2 3.8 .1 8-2.8 10.8C115.3 296.9 96 338.2 96 384c0 44.7 18.3 85 47.8 114.1c9.9 9.7 23.7 13.9 37.5 13.9H330.7c13.9 0 27.7-4.2 37.5-13.9C397.7 469 416 428.7 416 384c0-45.8-19.3-87.1-50.1-116.3c-2.9-2.8-4-6.9-2.8-10.8c3.2-10.4 4.9-21.5 4.9-32.9c0-27.1-9.7-52-25.7-71.4zM208 80a16 16 0 1 1 32 0 16 16 0 1 1 -32 0zm48 128a16 16 0 1 1 0 32 16 16 0 1 1 0-32zm-16 80a16 16 0 1 1 32 0 16 16 0 1 1 -32 0zm16 48a16 16 0 1 1 0 32 16 16 0 1 1 0-32zM272 80a16 16 0 1 1 32 0 16 16 0 1 1 -32 0zm-32 43.2V120c0-8.8 7.2-16 16-16s16 7.2 16 16v3.2c0 3.2-.8 6.3-2.3 9l-9 16.9c-.9 1.7-2.7 2.8-4.7 2.8s-3.8-1.1-4.7-2.8l-9-16.9c-1.5-2.8-2.3-5.9-2.3-9z"/></svg>