<svg xmlns="http://www.w3.org/2000/svg" viewBox="0 0 640 512"><!--! Font Awesome Pro 6.4.0 by @fontawesome - https://fontawesome.com License - https://fontawesome.com/license (Commercial License) Copyright 2023 Fonticons, Inc. --><defs><style>.fa-secondary{opacity:.4}</style></defs><path class="fa-primary" d="M298.9 64l68.6 160H256l-64-64V64H298.9zM445.1 242.7l-87.4-204C347.6 15.3 324.5 0 298.9 0H176c-26.5 0-48 21.5-48 48V160H96c-17.7 0-32 14.3-32 32V298.8c14.5-6.9 30.8-10.8 48-10.8H368c44.7 0 83.2 26.2 101.2 64H512v50.7c0 17 6.7 33.3 18.7 45.3l54.6 54.6c12.5 12.5 32.8 12.5 45.3 0s12.5-32.8 0-45.3L576 402.7V320 235.2L633 164c11-13.8 8.8-33.9-5-45s-33.9-8.8-45 5l-57 71.2c-9.1 11.3-14 25.4-14 40V288H448V256.7c.1-2.4-.2-4.8-.6-7.1s-1.2-4.7-2.2-6.8zM144 400a24 24 0 1 0 -48 0 24 24 0 1 0 48 0zm216 24a24 24 0 1 0 0-48 24 24 0 1 0 0 48zm-56-24a24 24 0 1 0 -48 0 24 24 0 1 0 48 0zM200 424a24 24 0 1 0 0-48 24 24 0 1 0 0 48z"/><path class="fa-secondary" d="M368 352c26.5 0 48 21.5 48 48s-21.5 48-48 48H112c-26.5 0-48-21.5-48-48s21.5-48 48-48H368zM112 288C50.1 288 0 338.1 0 400s50.1 112 112 112H368c61.9 0 112-50.1 112-112s-50.1-112-112-112H112z"/></svg>