<svg xmlns="http://www.w3.org/2000/svg" viewBox="0 0 512 512"><!--! Font Awesome Pro 6.4.0 by @fontawesome - https://fontawesome.com License - https://fontawesome.com/license (Commercial License) Copyright 2023 Fonticons, Inc. --><defs><style>.fa-secondary{opacity:.4}</style></defs><path class="fa-primary" d="M385.6 262.1C404.3 244.5 416 219.6 416 192c53 0 96 43 96 96V416c0 53-43 96-96 96H96c-53 0-96-43-96-96V288c0-53 43-96 96-96H224c0 24.6 9.2 47 24.4 64H160c-53 0-96 43-96 96s43 96 96 96H352c53 0 96-43 96-96c0-41.2-25.9-76.3-62.4-89.9zM320 288h32c35.3 0 64 28.7 64 64s-28.7 64-64 64H160c-35.3 0-64-28.7-64-64s28.7-64 64-64H320z"/><path class="fa-secondary" d="M160 48a48 48 0 1 1 96 0 48 48 0 1 1 -96 0zm96 144a64 64 0 1 1 128 0 64 64 0 1 1 -128 0zM384 0a32 32 0 1 1 0 64 32 32 0 1 1 0-64z"/></svg>