<svg xmlns="http://www.w3.org/2000/svg" viewBox="0 0 512 512"><!--! Font Awesome Pro 6.4.0 by @fontawesome - https://fontawesome.com License - https://fontawesome.com/license (Commercial License) Copyright 2023 Fonticons, Inc. --><defs><style>.fa-secondary{opacity:.4}</style></defs><path class="fa-primary" d="M320 128H512V96H320v32zm0 32v80c0 20.1-9.5 39.1-25.6 51.2l-64 48C206.2 357.3 192 385.8 192 416c0 53 43 96 96 96c20.8 0 41-6.7 57.6-19.2l115.2-86.4C493 382.2 512 344.3 512 304V160H320zM512 64V48c0-26.5-21.5-48-48-48H368c-26.5 0-48 21.5-48 48V64H512zM128 64V96H288V64H128zm160 64H128v32H288V128z"/><path class="fa-secondary" d="M298.7 8.1C291 3 281.9 0 272 0H176c-26.5 0-48 21.5-48 48V64H288V48c0-14.5 3.9-28.2 10.7-39.9zM128 96v32H288V96H128zm0 64v80c0 20.1-9.5 39.1-25.6 51.2l-64 48C14.2 357.3 0 385.8 0 416c0 53 43 96 96 96c20.8 0 41-6.7 57.6-19.2l21.6-16.2c-9.7-18-15.2-38.7-15.2-60.6c0-40.3 19-78.2 51.2-102.4l64-48c8.1-6 12.8-15.5 12.8-25.6V160H128zM320 64V96H512V64H320zm192 64H320v32H512V128z"/></svg>