<svg xmlns="http://www.w3.org/2000/svg" viewBox="0 0 384 512"><!--! Font Awesome Pro 6.4.0 by @fontawesome - https://fontawesome.com License - https://fontawesome.com/license (Commercial License) Copyright 2023 Fonticons, Inc. --><defs><style>.fa-secondary{opacity:.4}</style></defs><path class="fa-primary" d="M80 304c-17.7 0-32 14.3-32 32v16c0 17.7 14.3 32 32 32h1.8l11.1 99.5c1.8 16.2 15.5 28.5 31.8 28.5H259.4c16.3 0 30-12.3 31.8-28.5L302.2 384H304c17.7 0 32-14.3 32-32V336c0-17.7-14.3-32-32-32H80z"/><path class="fa-secondary" d="M310.6 161.5c6-9.7 9.4-21.2 9.4-33.5C320 57.3 262.7 0 192 0l6.1 6.1c6.4 6.4 9.9 15 9.9 24C208 48.8 192.8 64 174.1 64H128c-35.3 0-64 28.7-64 64c0 12.3 3.5 23.7 9.4 33.5C40.7 168.2 16 197.2 16 232c0 39.8 32.2 72 72 72H296c39.8 0 72-32.2 72-72c0-34.8-24.7-63.8-57.4-70.5z"/></svg>