<svg xmlns="http://www.w3.org/2000/svg" viewBox="0 0 512 512"><!--! Font Awesome Pro 6.4.0 by @fontawesome - https://fontawesome.com License - https://fontawesome.com/license (Commercial License) Copyright 2023 Fonticons, Inc. --><defs><style>.fa-secondary{opacity:.4}</style></defs><path class="fa-primary" d="M96 144a48 48 0 1 0 0-96 48 48 0 1 0 0 96zM416 464a48 48 0 1 0 0-96 48 48 0 1 0 0 96zM392 168a40 40 0 1 0 -80 0 40 40 0 1 0 80 0zM256 320a64 64 0 1 0 0-128 64 64 0 1 0 0 128z"/><path class="fa-secondary" d="M411.8 368.2C434.6 336.6 448 297.9 448 256c0-106-86-192-192-192c-29 0-56.6 6.4-81.2 18c-4-22.5-17.4-41.8-36-53.6C173.9 10.2 213.7 0 256 0C397.4 0 512 114.6 512 256c0 56.3-18.2 108.3-48.9 150.6c-4.4-22-23.8-38.6-47.1-38.6c-1.4 0-2.8 .1-4.2 .2zm-74.7 61.9c3.8 22.6 17.1 41.9 35.6 53.8c-35 18-74.7 28.1-116.8 28.1C114.6 512 0 397.4 0 256c0-56.3 18.2-108.3 48.9-150.6C53.3 127.4 72.7 144 96 144c1.4 0 2.8-.1 4.2-.2C77.4 175.4 64 214.1 64 256c0 106 86 192 192 192c29 0 56.5-6.4 81.1-17.9zM256 152c-57.4 0-104 46.6-104 104s46.6 104 104 104s104-46.6 104-104c0-17.4-4.3-33.8-11.8-48.2c1.3 .1 2.5 .2 3.8 .2c16.9 0 31.3-10.5 37.2-25.3c12 21.7 18.8 46.7 18.8 73.3c0 83.9-68.1 152-152 152s-152-68.1-152-152s68.1-152 152-152c31.3 0 60.4 9.5 84.5 25.7C324 134.6 312 149.9 312 168c0 .1 0 .2 0 .4C295.8 158 276.6 152 256 152z"/></svg>