<svg xmlns="http://www.w3.org/2000/svg" viewBox="0 0 640 512"><!--! Font Awesome Pro 6.4.0 by @fontawesome - https://fontawesome.com License - https://fontawesome.com/license (Commercial License) Copyright 2023 Fonticons, Inc. --><defs><style>.fa-secondary{opacity:.4}</style></defs><path class="fa-primary" d="M379.1 64H260.9L250.5 168h139L379.1 64zM212.7 64H122.2L101.4 168H202.3L212.7 64zM197.5 216H91.8L71 320h116l10.4-104zm196.8 0H245.7L235.3 320l169.4 0L394.3 216zm58.6 104H569L548.2 216H442.5l10.4 104zM517.8 64H427.3l10.4 104H538.6L517.8 64zM416 448H352V384H288v64H224c-17.7 0-32 14.3-32 32s14.3 32 32 32H416c17.7 0 32-14.3 32-32s-14.3-32-32-32z"/><path class="fa-secondary" d="M59.5 51.4C65.5 21.5 91.7 0 122.2 0H517.8c30.5 0 56.8 21.5 62.8 51.4l51.2 256c7.9 39.6-22.4 76.6-62.8 76.6H71C30.6 384 .4 347 8.3 307.4l51.2-256zM517.8 64H122.2L71 320 569 320 517.8 64l31.4-6.3L517.8 64z"/></svg>