<svg xmlns="http://www.w3.org/2000/svg" viewBox="0 0 640 512"><!--! Font Awesome Pro 6.4.0 by @fontawesome - https://fontawesome.com License - https://fontawesome.com/license (Commercial License) Copyright 2023 Fonticons, Inc. --><defs><style>.fa-secondary{opacity:.4}</style></defs><path class="fa-primary" d="M176 224c31.3 0 59.7 12.9 80 33.6V414.4c-20.3 20.7-48.7 33.6-80 33.6c-61.9 0-112-50.1-112-112s50.1-112 112-112zm0-160a48 48 0 1 1 0 96 48 48 0 1 1 0-96zm64 272a64 64 0 1 0 -128 0 64 64 0 1 0 128 0zM416 112a48 48 0 1 1 96 0 48 48 0 1 1 -96 0zM352 336a112 112 0 1 1 224 0 112 112 0 1 1 -224 0zm112 64a64 64 0 1 0 0-128 64 64 0 1 0 0 128z"/><path class="fa-secondary" d="M256 64c0-24.6 9.2-47 24.4-64H64C28.7 0 0 28.7 0 64V448c0 35.3 28.7 64 64 64H280.4c-15.2-17-24.4-39.4-24.4-64V414.4c-20.3 20.7-48.7 33.6-80 33.6c-61.9 0-112-50.1-112-112s50.1-112 112-112c31.3 0 59.7 12.9 80 33.6V64zM128 112a48 48 0 1 1 96 0 48 48 0 1 1 -96 0zM352 0c-35.3 0-64 28.7-64 64V448c0 35.3 28.7 64 64 64H576c35.3 0 64-28.7 64-64V64c0-35.3-28.7-64-64-64H352zM464 224a112 112 0 1 1 0 224 112 112 0 1 1 0-224zM416 112a48 48 0 1 1 96 0 48 48 0 1 1 -96 0z"/></svg>