<svg xmlns="http://www.w3.org/2000/svg" viewBox="0 0 576 512"><!--! Font Awesome Pro 6.4.0 by @fontawesome - https://fontawesome.com License - https://fontawesome.com/license (Commercial License) Copyright 2023 Fonticons, Inc. --><defs><style>.fa-secondary{opacity:.4}</style></defs><path class="fa-primary" d="M133.8 22.2c4.8-12.7 18-20.2 31.4-17.7l69 12.9c35.6 6.7 72.1 6.7 107.6 0l69-12.9c13.4-2.5 26.6 5 31.4 17.7l28.9 77.2c11.5 30.7 28.1 59.2 49.1 84.4l45.3 54.3c8.7 10.4 8.7 25.5 0 35.9l-45.3 54.3c-21 25.2-37.6 53.7-49.1 84.4l-28.9 77.2c-4.8 12.7-18 20.2-31.4 17.7l-69-12.9c-35.6-6.7-72.1-6.7-107.6 0l-69 12.9c-13.4 2.5-26.6-5-31.4-17.7l-28.9-77.2C93.3 382 76.7 353.4 55.7 328.2L10.5 273.9c-8.7-10.4-8.7-25.5 0-35.9l45.3-54.3c21-25.2 37.6-53.7 49.1-84.4l28.9-77.2zM178 63.9L157.3 119c-13.7 36.6-33.5 70.6-58.5 100.6L68.4 256l30.3 36.4c25 30 44.8 64 58.5 100.6L178 448.1l45.9-8.6c42.4-7.9 85.9-7.9 128.3 0l45.9 8.6L418.7 393c13.7-36.6 33.5-70.6 58.5-100.6L507.6 256l-30.3-36.4c-25-30-44.8-64-58.5-100.6L398 63.9l-45.9 8.6c-42.4 7.9-85.9 7.9-128.3 0L178 63.9z"/><path class="fa-secondary" d="M165.3 97.7L178 63.9l36.4 6.8L235.1 107l.8 .1c34.4 6.1 69.7 6.1 104.1 0l.8-.1 20.8-36.4L398 63.9l12.7 33.8-22.2 38.9 .7 2c11.5 32.5 28.5 62.8 50.4 89.4h44.6l23.3 28-23.3 28H439.6c-21.9 26.6-38.9 56.9-50.4 89.4l-.7 2 22.2 38.9L398 448.1l-36.4-6.8L340.9 405l-.8-.2c-34.4-6.1-69.7-6.1-104.1 0l-.8 .2-20.8 36.4L178 448.1l-12.7-33.8 22.2-38.9-.7-2c-11.5-32.5-28.5-62.8-50.4-89.4H91.8L68.4 256l23.3-28h44.6c21.9-26.6 38.9-56.9 50.4-89.4l.7-2L165.3 97.7zM239.8 228l-22.1-38.7c-6.4 13.4-13.7 26.3-21.8 38.7h43.9zM288 199.6L311.2 159c-15.4 1-30.9 1-46.3 0L288 199.6zM336.2 228h43.9c-8.1-12.4-15.4-25.3-21.8-38.7L336.2 228zm0 56l22.1 38.7c6.4-13.4 13.7-26.3 21.8-38.7H336.2zM288 312.4L264.8 353c15.4-1 30.9-1 46.3 0L288 312.4zM239.8 284H195.8c8.1 12.4 15.4 25.3 21.8 38.7L239.8 284z"/></svg>