<svg xmlns="http://www.w3.org/2000/svg" viewBox="0 0 512 512"><!--! Font Awesome Pro 6.4.0 by @fontawesome - https://fontawesome.com License - https://fontawesome.com/license (Commercial License) Copyright 2023 Fonticons, Inc. --><defs><style>.fa-secondary{opacity:.4}</style></defs><path class="fa-primary" d="M304 48a48 48 0 1 0 -96 0 48 48 0 1 0 96 0zM96 256A48 48 0 1 0 0 256a48 48 0 1 0 96 0zM75 142.9A48 48 0 1 0 142.9 75 48 48 0 1 0 75 142.9z"/><path class="fa-secondary" d="M369.1 75A48 48 0 1 1 437 142.9 48 48 0 1 1 369.1 75zM416 256a48 48 0 1 1 96 0 48 48 0 1 1 -96 0zM208 464a48 48 0 1 1 96 0 48 48 0 1 1 -96 0zM75 369.1A48 48 0 1 1 142.9 437 48 48 0 1 1 75 369.1zm294.2 0A48 48 0 1 1 437 437a48 48 0 1 1 -67.9-67.9z"/></svg>