<svg xmlns="http://www.w3.org/2000/svg" viewBox="0 0 512 512"><!--! Font Awesome Pro 6.4.0 by @fontawesome - https://fontawesome.com License - https://fontawesome.com/license (Commercial License) Copyright 2023 Fonticons, Inc. --><defs><style>.fa-secondary{opacity:.4}</style></defs><path class="fa-primary" d="M245.8 220.9c2 2.4 4.1 4.7 6.3 6.9l32 32c2.2 2.2 4.6 4.3 6.9 6.3L54.6 502.6c-12.5 12.5-32.8 12.5-45.3 0s-12.5-32.8 0-45.3L245.8 220.9z"/><path class="fa-secondary" d="M224 160.2c0 24.5 9.4 49 28.1 67.7l32 32c18.7 18.7 43.2 28.1 67.7 28.1C432 288 512 192 512 96c0-53-43-96-96-96C320 0 224 80 224 160.2z"/></svg>