<svg xmlns="http://www.w3.org/2000/svg" viewBox="0 0 512 512"><!--! Font Awesome Pro 6.4.0 by @fontawesome - https://fontawesome.com License - https://fontawesome.com/license (Commercial License) Copyright 2023 Fonticons, Inc. --><defs><style>.fa-secondary{opacity:.4}</style></defs><path class="fa-primary" d="M288 96c0-17.7-14.3-32-32-32s-32 14.3-32 32V256H123.8C108.4 256 96 268.4 96 283.8c0 7.8 3.3 15.2 9 20.5L192 384v96c0 17.7 14.3 32 32 32h64c17.7 0 32-14.3 32-32V384l87-79.7c5.7-5.3 9-12.7 9-20.5c0-15.3-12.4-27.8-27.8-27.8H288V96z"/><path class="fa-secondary" d="M0 24a24 24 0 1 1 48 0A24 24 0 1 1 0 24zm24 80a24 24 0 1 1 0 48 24 24 0 1 1 0-48zm0 104a24 24 0 1 1 0 48 24 24 0 1 1 0-48zM88 48a24 24 0 1 1 0 48 24 24 0 1 1 0-48zM64 184a24 24 0 1 1 48 0 24 24 0 1 1 -48 0zm88-80a24 24 0 1 1 0 48 24 24 0 1 1 0-48zM512 232a24 24 0 1 1 -48 0 24 24 0 1 1 48 0zM488 104a24 24 0 1 1 0 48 24 24 0 1 1 0-48zm24-80a24 24 0 1 1 -48 0 24 24 0 1 1 48 0zM424 48a24 24 0 1 1 0 48 24 24 0 1 1 0-48zm24 136a24 24 0 1 1 -48 0 24 24 0 1 1 48 0zm-88-80a24 24 0 1 1 0 48 24 24 0 1 1 0-48z"/></svg>