<svg xmlns="http://www.w3.org/2000/svg" viewBox="0 0 448 512"><!--! Font Awesome Pro 6.4.0 by @fontawesome - https://fontawesome.com License - https://fontawesome.com/license (Commercial License) Copyright 2023 Fonticons, Inc. --><defs><style>.fa-secondary{opacity:.4}</style></defs><path class="fa-primary" d="M128 152c0-13.3 10.7-24 24-24H296c8.4 0 16.3 4.4 20.6 11.7s4.5 16.2 .5 23.7l-112 208c-6.3 11.7-20.8 16-32.5 9.8s-16-20.8-9.8-32.5l93-172.6H152c-13.3 0-24-10.7-24-24z"/><path class="fa-secondary" d="M64 32C28.7 32 0 60.7 0 96V416c0 35.3 28.7 64 64 64H384c35.3 0 64-28.7 64-64V96c0-35.3-28.7-64-64-64H64zm88 96H296c8.4 0 16.3 4.4 20.6 11.7s4.5 16.2 .5 23.7l-112 208c-6.3 11.7-20.8 16-32.5 9.8s-16-20.8-9.8-32.5l93-172.6H152c-13.3 0-24-10.7-24-24s10.7-24 24-24z"/></svg>