<svg xmlns="http://www.w3.org/2000/svg" viewBox="0 0 448 512"><!--! Font Awesome Pro 6.4.0 by @fontawesome - https://fontawesome.com License - https://fontawesome.com/license (Commercial License) Copyright 2023 Fonticons, Inc. --><defs><style>.fa-secondary{opacity:.4}</style></defs><path class="fa-primary" d="M152 128c-13.3 0-24 10.7-24 24V256 360c0 13.3 10.7 24 24 24H260c42 0 76-34 76-76c0-24.6-11.7-46.4-29.8-60.3c8.7-12.4 13.8-27.4 13.8-43.7c0-42-34-76-76-76H152zm92 104H176V176h68c15.5 0 28 12.5 28 28s-12.5 28-28 28zm-68 48h68 16c15.5 0 28 12.5 28 28s-12.5 28-28 28H176V280z"/><path class="fa-secondary" d="M64 32C28.7 32 0 60.7 0 96V416c0 35.3 28.7 64 64 64H384c35.3 0 64-28.7 64-64V96c0-35.3-28.7-64-64-64H64zm64 120c0-13.3 10.7-24 24-24h92c42 0 76 34 76 76c0 16.2-5.1 31.3-13.8 43.7C324.3 261.6 336 283.4 336 308c0 42-34 76-76 76H152c-13.3 0-24-10.7-24-24V256 152zm144 52c0-15.5-12.5-28-28-28H176v56h68c15.5 0 28-12.5 28-28zM176 336h84c15.5 0 28-12.5 28-28s-12.5-28-28-28H244 176v56z"/></svg>