<svg xmlns="http://www.w3.org/2000/svg" viewBox="0 0 448 512"><!--! Font Awesome Pro 6.4.0 by @fontawesome - https://fontawesome.com License - https://fontawesome.com/license (Commercial License) Copyright 2023 Fonticons, Inc. --><defs><style>.fa-secondary{opacity:.4}</style></defs><path class="fa-primary" d="M128 224c0-53 43-96 96-96s96 43 96 96v64c0 53-43 96-96 96s-96-43-96-96V224zm96-48c-26.5 0-48 21.5-48 48v64c0 26.5 21.5 48 48 48s48-21.5 48-48V224c0-26.5-21.5-48-48-48z"/><path class="fa-secondary" d="M64 32C28.7 32 0 60.7 0 96V416c0 35.3 28.7 64 64 64H384c35.3 0 64-28.7 64-64V96c0-35.3-28.7-64-64-64H64zm160 96c53 0 96 43 96 96v64c0 53-43 96-96 96s-96-43-96-96V224c0-53 43-96 96-96zm-48 96v64c0 26.5 21.5 48 48 48s48-21.5 48-48V224c0-26.5-21.5-48-48-48s-48 21.5-48 48z"/></svg>