<svg xmlns="http://www.w3.org/2000/svg" viewBox="0 0 448 512"><!--! Font Awesome Pro 6.4.0 by @fontawesome - https://fontawesome.com License - https://fontawesome.com/license (Commercial License) Copyright 2023 Fonticons, Inc. --><defs><style>.fa-secondary{opacity:.4}</style></defs><path class="fa-primary" d="M152 200a72 72 0 1 1 144 0 72 72 0 1 1 -144 0zM81.1 416c7.8-54.3 54.4-96 110.9-96h64c56.4 0 103.1 41.7 110.9 96H81.1z"/><path class="fa-secondary" d="M81.1 416H366.9c-7.8-54.3-54.4-96-110.9-96H192c-56.4 0-103.1 41.7-110.9 96zM0 96C0 60.7 28.7 32 64 32H384c35.3 0 64 28.7 64 64V416c0 35.3-28.7 64-64 64H64c-35.3 0-64-28.7-64-64V96zM224 272a72 72 0 1 0 0-144 72 72 0 1 0 0 144z"/></svg>