<svg xmlns="http://www.w3.org/2000/svg" viewBox="0 0 576 512"><!--! Font Awesome Pro 6.4.0 by @fontawesome - https://fontawesome.com License - https://fontawesome.com/license (Commercial License) Copyright 2023 Fonticons, Inc. --><defs><style>.fa-secondary{opacity:.4}</style></defs><path class="fa-primary" d="M288 368a144 144 0 1 1 288 0 144 144 0 1 1 -288 0zm144-80c-8.8 0-16 7.2-16 16v48H368c-8.8 0-16 7.2-16 16s7.2 16 16 16h48v48c0 8.8 7.2 16 16 16s16-7.2 16-16V384h48c8.8 0 16-7.2 16-16s-7.2-16-16-16H448V304c0-8.8-7.2-16-16-16z"/><path class="fa-secondary" d="M128 32V96H96c-17.7 0-32 14.3-32 32v32H0V128C0 75 43 32 96 32h32zM0 320V192H64V320H0zm0 32H64v32c0 17.7 14.3 32 32 32h32v64H96c-53 0-96-43-96-96V352zM448 192.7c-5.3-.5-10.6-.7-16-.7c-16.6 0-32.7 2.3-48 6.6V128c0-17.7-14.3-32-32-32H320V32h32c53 0 96 43 96 96v64.7zM262.6 416c5.5 19.3 14.1 37.2 25.4 53.2V480H160V416H262.6zM288 96H160V32H288V96z"/></svg>