<svg xmlns="http://www.w3.org/2000/svg" viewBox="0 0 448 512"><!--! Font Awesome Pro 6.4.0 by @fontawesome - https://fontawesome.com License - https://fontawesome.com/license (Commercial License) Copyright 2023 Fonticons, Inc. --><defs><style>.fa-secondary{opacity:.4}</style></defs><path class="fa-primary" d="M104.3 149.9c10-8.7 25.2-7.6 33.9 2.4L224 251.4l85.9-99.1c8.7-10 23.8-11.1 33.9-2.4s11.1 23.8 2.4 33.9L248 297v79c0 13.3-10.7 24-24 24s-24-10.7-24-24V297L101.9 183.7c-8.7-10-7.6-25.2 2.4-33.9z"/><path class="fa-secondary" d="M64 32C28.7 32 0 60.7 0 96V416c0 35.3 28.7 64 64 64H384c35.3 0 64-28.7 64-64V96c0-35.3-28.7-64-64-64H64zm74.1 120.3L224 251.4l85.9-99.1c8.7-10 23.8-11.1 33.9-2.4s11.1 23.8 2.4 33.9L248 297v79c0 13.3-10.7 24-24 24s-24-10.7-24-24V297L101.9 183.7c-8.7-10-7.6-25.2 2.4-33.9s25.2-7.6 33.9 2.4z"/></svg>