<svg xmlns="http://www.w3.org/2000/svg" viewBox="0 0 512 512"><!--! Font Awesome Pro 6.4.0 by @fontawesome - https://fontawesome.com License - https://fontawesome.com/license (Commercial License) Copyright 2023 Fonticons, Inc. --><defs><style>.fa-secondary{opacity:.4}</style></defs><path class="fa-primary" d="M284.2 44.2C297.8 17.1 325.5 0 355.8 0H432c44.2 0 80 35.8 80 80V183.9c0 35.7-23.7 67.1-58 76.9L269.1 313.6c-2.6 .7-5 2.1-6.9 4.1L81.9 497.9c-18.7 18.7-49.1 18.7-67.9 0s-18.7-49.1 0-67.9L200.2 243.9c9.6-9.6 21.5-16.6 34.6-20.4l169.6-48.5c6.9-2 11.6-8.2 11.6-15.4V112c0-8.8-7.2-16-16-16H371.8c-3.7 0-7.2 2.1-8.8 5.5v0c-11.9 23.7-40.7 33.3-64.4 21.5s-33.3-40.7-21.5-64.4l7.2-14.3z"/><path class="fa-secondary" d="M156.1 288H112c-8.8 0-16 7.2-16 16v44.1L156.1 288zm205-.7l38.6 21.8c7.7 4.3 17.5 1.6 21.8-6.1l22.2-39.4-82.6 23.6z"/></svg>