<svg xmlns="http://www.w3.org/2000/svg" viewBox="0 0 576 512"><!--! Font Awesome Pro 6.4.0 by @fontawesome - https://fontawesome.com License - https://fontawesome.com/license (Commercial License) Copyright 2023 Fonticons, Inc. --><defs><style>.fa-secondary{opacity:.4}</style></defs><path class="fa-primary" d="M328 160c-13.3 0-24 10.7-24 24V328c0 13.3 10.7 24 24 24h56c53 0 96-43 96-96s-43-96-96-96H328zm24 144V208h32c26.5 0 48 21.5 48 48s-21.5 48-48 48H352zM167.1 208.1c7.4-2.4 19.5-2.9 36.2-.7c5.1 .7 21.1 3.4 25.7 4.4c12.1 2.8 24.1-4.8 26.8-16.9s-4.8-24.1-16.9-26.8c-6.5-1.5-23.9-4.4-29.7-5.1c-18.9-2.5-38.9-3.1-56 2.5c-18.8 6.1-33.9 19.7-38.5 42.3c-.1 .4-.1 .8-.2 1.2c-1.7 11.4-.2 22.4 5 32.3c5.1 9.6 12.9 16.1 20.5 20.7c13.7 8.2 31.5 12.3 45.1 15.5l1.7 .4c16 3.7 27.1 6.5 34.1 10.7c3 1.8 3.8 3 3.9 3.3l0 0c.1 .1 .7 1.2 .2 4.7c-.4 2.7-1.2 3.8-1.7 4.3c-.7 .7-2.3 2-5.8 3.1c-7.7 2.4-20.1 2.9-36.9 .6c-7.4-1-20.3-4.8-31.4-8c-2.5-.7-5-1.4-7.2-2.1c-11.9-3.4-24.3 3.5-27.7 15.4s3.5 24.3 15.4 27.7c1.5 .4 3.3 1 5.3 1.6l0 0 0 0c10.8 3.2 28.4 8.3 39.4 9.9l0 0 .1 0c18.9 2.5 39.2 3.1 56.4-2.3c8.9-2.8 17.8-7.5 24.9-15.2c7.3-7.8 11.8-17.6 13.4-28.5c1.7-11.4 .2-22.4-5-32.3c-5.1-9.6-12.9-16.1-20.5-20.7c-13.7-8.2-31.5-12.3-45.1-15.5l0 0-1.7-.4c-16-3.7-27.1-6.5-34.1-10.7c-3-1.8-3.8-3-3.9-3.3l0 0c-.1-.1-.6-1.1-.3-4.1c.9-4 2.8-6.2 8.3-8z"/><path class="fa-secondary" d="M64 32C28.7 32 0 60.7 0 96V416c0 35.3 28.7 64 64 64H512c35.3 0 64-28.7 64-64V96c0-35.3-28.7-64-64-64H64zM304 184c0-13.3 10.7-24 24-24h56c53 0 96 43 96 96s-43 96-96 96H328c-13.3 0-24-10.7-24-24V184zm48 24v96h32c26.5 0 48-21.5 48-48s-21.5-48-48-48H352zm-193.2 8.1c-.3 3 .2 3.9 .3 4.1l0 0c.2 .3 .9 1.5 3.9 3.3c7 4.2 18 7 34.1 10.7l1.7 .4 0 0c13.6 3.2 31.5 7.3 45.1 15.5c7.7 4.6 15.4 11.1 20.5 20.7c5.3 9.8 6.7 20.8 5 32.3c-1.6 10.9-6 20.7-13.4 28.5c-7.2 7.6-16 12.3-24.9 15.2c-17.2 5.4-37.5 4.9-56.4 2.3l-.1 0 0 0c-11-1.5-28.6-6.7-39.4-9.9l0 0 0 0 0 0c-2-.6-3.8-1.1-5.3-1.5c-11.9-3.4-18.8-15.8-15.4-27.7s15.8-18.8 27.7-15.4c2.3 .6 4.7 1.4 7.2 2.1c11.1 3.2 24 7 31.4 8c16.8 2.2 29.2 1.8 36.9-.6c3.5-1.1 5.1-2.4 5.8-3.1c.5-.6 1.3-1.6 1.7-4.3c.5-3.4-.1-4.5-.2-4.7l0 0c-.2-.3-.9-1.5-3.9-3.3c-7-4.2-18-7-34.1-10.7l-1.7-.4 0 0c-13.6-3.2-31.5-7.3-45.1-15.5c-7.7-4.6-15.4-11.1-20.5-20.7c-5.3-9.8-6.7-20.8-5-32.3c.1-.4 .1-.8 .2-1.2c4.6-22.6 19.7-36.2 38.5-42.3c17.1-5.5 37.1-5 56-2.5c5.8 .8 23.2 3.7 29.7 5.1c12.1 2.8 19.6 14.8 16.9 26.8s-14.8 19.6-26.8 16.9c-4.7-1.1-20.6-3.7-25.7-4.4c-16.8-2.2-28.8-1.7-36.2 .7c-5.5 1.8-7.3 3.9-8.3 8z"/></svg>