<svg xmlns="http://www.w3.org/2000/svg" viewBox="0 0 512 512"><!--! Font Awesome Pro 6.4.0 by @fontawesome - https://fontawesome.com License - https://fontawesome.com/license (Commercial License) Copyright 2023 Fonticons, Inc. --><defs><style>.fa-secondary{opacity:.4}</style></defs><path class="fa-primary" d="M283 112L256 68 140.6 256l-32.9-53.5 111.7-182C227.2 7.7 241.1 0 256 0s28.8 7.7 36.6 20.5L348.7 112H283zm100.1 56L490.5 343c3.6 5.9 5.5 12.7 5.5 19.6c0 20.7-16.8 37.4-37.4 37.4H348.7l34.4-56h42.3l-108-176h65.7zM283 400H53.4C32.8 400 16 383.2 16 362.6c0-6.9 1.9-13.7 5.5-19.6l53.4-87 32.9 53.5L86.6 344H317.4L283 400z"/><path class="fa-secondary" d="M229 400l27 44L371.4 256l32.9 53.5-111.7 182C284.8 504.3 270.9 512 256 512s-28.8-7.7-36.6-20.5L163.3 400H229zM128.9 344L21.5 169c-3.6-5.9-5.5-12.7-5.5-19.6C16 128.8 32.8 112 53.4 112H163.3l-34.4 56H86.6l108 176H128.9zM229 112H458.6c20.7 0 37.4 16.8 37.4 37.4c0 6.9-1.9 13.7-5.5 19.6l-53.4 87-32.9-53.5L425.4 168H194.6L229 112z"/></svg>