<svg xmlns="http://www.w3.org/2000/svg" viewBox="0 0 640 512"><!--! Font Awesome Pro 6.4.0 by @fontawesome - https://fontawesome.com License - https://fontawesome.com/license (Commercial License) Copyright 2023 Fonticons, Inc. --><defs><style>.fa-secondary{opacity:.4}</style></defs><path class="fa-primary" d="M148.8 7.7c-13.4-11.5-33.6-9.9-45.1 3.5l-88.3 103C5.5 125.8 0 140.6 0 155.8V356.2c0 15.3 5.5 30.1 15.4 41.7l88.3 103c11.5 13.4 31.7 15 45.1 3.5s15-31.7 3.5-45.1L64 356.2V155.8l88.3-103c11.5-13.4 9.9-33.6-3.5-45.1zM414.7 272c-2.4 14.6-8.2 28.1-16.4 39.6l-23.1-23.1c3-5.1 5.3-10.6 6.8-16.5h32.7zm-39 62.3c-11.6 8.2-25 14-39.6 16.4V318c5.9-1.5 11.4-3.8 16.5-6.8l23.1 23.1zM304 350.7c-14.6-2.4-28.1-8.2-39.6-16.4l23.1-23.1c5.1 3 10.6 5.3 16.5 6.8v32.7zm-62.3-39c-8.2-11.6-14-25-16.4-39.6H258c1.5 5.9 3.8 11.4 6.8 16.5l-23.1 23.1zM414.7 240H382c-1.5-5.9-3.8-11.4-6.8-16.5l23.1-23.1c8.2 11.6 14 25 16.4 39.6zm-39-62.3l-23.1 23.1c-5.1-3-10.6-5.3-16.5-6.8V161.3c14.6 2.4 28.1 8.2 39.6 16.4zM304 194c-5.9 1.5-11.4 3.8-16.5 6.8l-23.1-23.1c11.6-8.2 25-14 39.6-16.4V194zm-39.1 29.5c-3 5.1-5.3 10.6-6.8 16.5H225.3c2.4-14.6 8.2-28.1 16.4-39.6l23.1 23.1zM320 416a160 160 0 1 0 0-320 160 160 0 1 0 0 320zm22.8-137.5l-.3 .3c-5.8 5.7-13.7 9.2-22.5 9.2c-17.7 0-32-14.3-32-32s14.3-32 32-32s32 14.3 32 32c0 8.8-3.5 16.7-9.2 22.5zM488.5 53.7L576 148.5V348.8L487 460c-11 13.8-8.8 33.9 5 45s33.9 8.8 45-5l89-111.2c9.1-11.3 14-25.4 14-40V148.5c0-16.1-6.1-31.6-17-43.4L535.5 10.3c-12-13-32.2-13.8-45.2-1.8s-13.8 32.2-1.8 45.2z"/><path class="fa-secondary" d="M171.6 196.1C164.1 214.6 160 234.8 160 256s4.1 41.4 11.6 59.9L64 294.4V217.6l107.6-21.5zM480 256c0-21.2-4.1-41.4-11.6-59.9L576 217.6v76.8L468.4 315.9c7.5-18.5 11.6-38.7 11.6-59.9z"/></svg>