<svg xmlns="http://www.w3.org/2000/svg" viewBox="0 0 576 512"><!--! Font Awesome Pro 6.4.0 by @fontawesome - https://fontawesome.com License - https://fontawesome.com/license (Commercial License) Copyright 2023 Fonticons, Inc. --><defs><style>.fa-secondary{opacity:.4}</style></defs><path class="fa-primary" d="M32 32c17.7 0 32 14.3 32 32V448c0 17.7-14.3 32-32 32s-32-14.3-32-32V64C0 46.3 14.3 32 32 32zm512 0c17.7 0 32 14.3 32 32V448c0 17.7-14.3 32-32 32s-32-14.3-32-32V64c0-17.7 14.3-32 32-32zM272 350.7V318c-5.9-1.5-11.4-3.8-16.5-6.8l-23.1 23.1c11.6 8.2 25 14 39.6 16.4zm-62.3-39l23.1-23.1c-3-5.1-5.3-10.6-6.8-16.5H193.3c2.4 14.6 8.2 28.1 16.4 39.6zM193.3 240H226c1.5-5.9 3.8-11.4 6.8-16.5l-23.1-23.1c-8.2 11.6-14 25-16.4 39.6zm39-62.3l23.1 23.1c5.1-3 10.6-5.3 16.5-6.8V161.3c-14.6 2.4-28.1 8.2-39.6 16.4zM343.6 334.3l-23.1-23.1c-5.1 3-10.6 5.3-16.5 6.8v32.7c14.6-2.4 28.1-8.2 39.6-16.4zm22.6-22.6c8.2-11.6 14-25 16.4-39.6H350c-1.5 5.9-3.8 11.4-6.8 16.5l23.1 23.1zM350 240h32.7c-2.4-14.6-8.2-28.1-16.4-39.6l-23.1 23.1c3 5.1 5.3 10.6 6.8 16.5zm-6.4-62.3c-11.6-8.2-25-14-39.6-16.4V194c5.9 1.5 11.4 3.8 16.5 6.8l23.1-23.1zM128 256a160 160 0 1 1 320 0 160 160 0 1 1 -320 0zm182.8 22.5c5.7-5.8 9.2-13.7 9.2-22.5c0-17.7-14.3-32-32-32s-32 14.3-32 32s14.3 32 32 32c8.8 0 16.7-3.5 22.5-9.2l.3-.3z"/><path class="fa-secondary" d="M139.6 196.1C132.1 214.6 128 234.8 128 256s4.1 41.4 11.6 59.9L64 300.8V211.2l75.6-15.1zM436.4 315.9c7.5-18.5 11.6-38.7 11.6-59.9s-4.1-41.4-11.6-59.9L512 211.2v89.6l-75.6 15.1z"/></svg>