<svg xmlns="http://www.w3.org/2000/svg" viewBox="0 0 640 512"><!--! Font Awesome Pro 6.4.0 by @fontawesome - https://fontawesome.com License - https://fontawesome.com/license (Commercial License) Copyright 2023 Fonticons, Inc. --><defs><style>.fa-secondary{opacity:.4}</style></defs><path class="fa-primary" d="M321.7 0H320V87.1 376.4v63.5L191.8 508.3C181 514 167.9 513.1 158 506s-14.9-19.3-12.9-31.3L169.8 329 65.6 225.9c-8.6-8.5-11.7-21.2-7.9-32.7s13.7-19.9 25.7-21.7L227 150.3 291.4 18c5.4-11 16.5-18 28.8-18c.5 0 1.1 0 1.6 0zM465.2 512c-1.1 .1-2.1 .1-3.2 0h3.2z"/><path class="fa-secondary" d="M320.1 376.3l-.1 .1v63.5l.1-.1 128.3 68.5c10.8 5.7 23.9 4.9 33.8-2.3s14.9-19.3 12.9-31.3L470.5 329 574.7 225.9c8.6-8.5 11.7-21.2 7.9-32.7s-13.7-19.9-25.7-21.7L413.2 150.3 348.9 18C343.6 7 332.4 0 320.1 0c-.5 0-1.1 0-1.6 0H320V87.1l.1-.3 42.7 87.9 12.9 26.6 29.3 4.3 96.1 14.2-70.1 69.3-20.7 20.5 4.8 28.7 16.5 97.6-85.2-45.5-26.4-14.1zM178.3 512c-1.1 .1-2.1 .1-3.2 0h3.2z"/></svg>