<svg xmlns="http://www.w3.org/2000/svg" viewBox="0 0 576 512"><!--! Font Awesome Pro 6.4.0 by @fontawesome - https://fontawesome.com License - https://fontawesome.com/license (Commercial License) Copyright 2023 Fonticons, Inc. --><defs><style>.fa-secondary{opacity:.4}</style></defs><path class="fa-primary" d="M254.4 50.4L214.5 176H90.3 88 74.7 56c-10.3 0-19.4 6.5-22.7 16.2s-.1 20.4 8 26.7L56 230.4l10.5 8.2 1.8 1.4 103.7 80.7L132 446.7l-1.1 3.5L126.1 465l-5 15.7c-3.2 10 .5 21 9.1 27s20.2 5.7 28.5-.7l13-10.1 12.3-9.5 2.9-2.3L288 406.4V325.3 155.9 0c-10.5 0-19.7 6.8-22.9 16.7L260 32.9l0 0-4.6 14.3-1 3.2z"/><path class="fa-secondary" d="M288 406.4l0 0 112.2 87.3 .3 .3 3.7 2.9 13 10.1c8.3 6.5 19.8 6.8 28.5 .7s12.3-16.9 9.1-27l-5-15.7-1.4-4.5-.1-.4L403.9 320.7l114-88.7 .1-.1 2-1.5 14.7-11.5c8.1-6.3 11.3-17 8-26.7s-12.4-16.2-22.7-16.2H501.3h-2.5-.1H361.6L317.4 37.2l-.1-.3-1.3-4-5.2-16.2C307.7 6.8 298.5 0 288 0c0 0 0 0 0 0V129.5l0 0L308.2 193l12.4 39h41 65.2l-57.2 44.5-30.8 24 11.8 37.2 19.7 61.8-47.9-37.2L288 335.5l0 0v70.9z"/></svg>