<svg xmlns="http://www.w3.org/2000/svg" viewBox="0 0 576 512"><!--! Font Awesome Pro 6.4.0 by @fontawesome - https://fontawesome.com License - https://fontawesome.com/license (Commercial License) Copyright 2023 Fonticons, Inc. --><defs><style>.fa-secondary{opacity:.4}</style></defs><path class="fa-primary" d="M254.4 50.4L214.5 176H90.3 88 74.7 56c-10.3 0-19.4 6.5-22.7 16.2s-.1 20.4 8 26.7L56 230.4l10.5 8.2 1.8 1.4 103.7 80.7L132 446.7l-1.1 3.5L126.1 465l-5 15.7c-3.2 10 .5 21 9.1 27s20.2 5.7 28.5-.7l13-10.1 12.3-9.5 2.9-2.3L288 406.4V325.3 155.9 0c-10.5 0-19.7 6.8-22.9 16.7L260 32.9l0 0-4.6 14.3-1 3.2z"/><path class="fa-secondary" d="M321.6 50.4l40 125.6H485.7 488h13.3H520c10.3 0 19.4 6.5 22.7 16.2s.1 20.4-8 26.7L520 230.4l-10.5 8.2-1.8 1.4L403.9 320.7l40.1 126 1.1 3.5 4.7 14.8 5 15.7c3.2 10-.5 21-9.1 27s-20.2 5.7-28.5-.7l-13-10.1L392 487.3l-2.9-2.3L288 406.4V325.3 155.9 0c10.5 0 19.7 6.8 22.9 16.7L316 32.9l0 0 4.6 14.3 1 3.2z"/></svg>