<svg xmlns="http://www.w3.org/2000/svg" viewBox="0 0 512 512"><!--! Font Awesome Pro 6.4.0 by @fontawesome - https://fontawesome.com License - https://fontawesome.com/license (Commercial License) Copyright 2023 Fonticons, Inc. --><defs><style>.fa-secondary{opacity:.4}</style></defs><path class="fa-primary" d="M256 64a192 192 0 1 1 0 384 192 192 0 1 1 0-384zm0 448A256 256 0 1 0 256 0a256 256 0 1 0 0 512z"/><path class="fa-secondary" d="M288 445.3c-10.4 1.7-21.1 2.7-32 2.7s-21.6-.9-32-2.7V358.9L168.9 288H66.7c-1.7-10.4-2.7-21.1-2.7-32s.9-21.6 2.7-32H160l7.2-14.3c5.4-10.8 16.5-17.7 28.6-17.7H316.2c12.1 0 23.2 6.8 28.6 17.7L352 224h93.3c1.7 10.4 2.7 21.1 2.7 32s-.9 21.6-2.7 32H343.1L288 358.9v86.5z"/></svg>