<svg xmlns="http://www.w3.org/2000/svg" viewBox="0 0 576 512"><!--! Font Awesome Pro 6.4.0 by @fontawesome - https://fontawesome.com License - https://fontawesome.com/license (Commercial License) Copyright 2023 Fonticons, Inc. --><defs><style>.fa-secondary{opacity:.4}</style></defs><path class="fa-primary" d="M122.1 62.4c16.8-5.6 25.8-23.7 20.2-40.5S118.6-3.9 101.9 1.6L75.8 10.3C49.6 19.1 32 43.5 32 71.1V192c0 88.4 71.6 160 160 160s160-71.6 160-160V71.1c0-27.5-17.6-52-43.8-60.7L282.1 1.6c-16.8-5.6-34.9 3.5-40.5 20.2s3.5 34.9 20.2 40.5L288 71.1V192c0 53-43 96-96 96s-96-43-96-96V71.1l26.1-8.7zM512 192a32 32 0 1 1 -64 0 32 32 0 1 1 64 0zm-32-80a80 80 0 1 0 0 160 80 80 0 1 0 0-160z"/><path class="fa-secondary" d="M448 265.3V336c0 61.9-50.1 112-112 112c-57.6 0-105-43.4-111.3-99.3c-10.6 2.2-21.5 3.3-32.7 3.3c-10.8 0-21.3-1.1-31.5-3.1C167.1 440.1 243.1 512 336 512c97.2 0 176-78.8 176-176V265.3c-9.8 4.3-20.6 6.7-32 6.7s-22.2-2.4-32-6.7z"/></svg>