<svg xmlns="http://www.w3.org/2000/svg" viewBox="0 0 448 512"><!--! Font Awesome Pro 6.4.0 by @fontawesome - https://fontawesome.com License - https://fontawesome.com/license (Commercial License) Copyright 2023 Fonticons, Inc. --><defs><style>.fa-secondary{opacity:.4}</style></defs><path class="fa-primary" d="M144 32c0-17.7 14.3-32 32-32h48 48c17.7 0 32 14.3 32 32s-14.3 32-32 32H256V98.4c-10.4-1.6-21.1-2.4-32-2.4s-21.6 .8-32 2.4V64H176c-17.7 0-32-14.3-32-32zM355.7 143l21.6-21.6c12.5-12.5 32.8-12.5 45.3 0s12.5 32.8 0 45.3l-24.1 24.1c-11.7-18-26.2-34.1-42.8-47.7zM248 192V320c0 13.3-10.7 24-24 24s-24-10.7-24-24V192c0-13.3 10.7-24 24-24s24 10.7 24 24z"/><path class="fa-secondary" d="M224 512a208 208 0 1 0 0-416 208 208 0 1 0 0 416zm24-320V320c0 13.3-10.7 24-24 24s-24-10.7-24-24V192c0-13.3 10.7-24 24-24s24 10.7 24 24z"/></svg>