<svg xmlns="http://www.w3.org/2000/svg" viewBox="0 0 640 512"><!--! Font Awesome Pro 6.4.0 by @fontawesome - https://fontawesome.com License - https://fontawesome.com/license (Commercial License) Copyright 2023 Fonticons, Inc. --><defs><style>.fa-secondary{opacity:.4}</style></defs><path class="fa-primary" d="M496 272v48h64V272c0-17.7-14.3-32-32-32s-32 14.3-32 32zm-48 48V272c0-44.2 35.8-80 80-80s80 35.8 80 80v48c17.7 0 32 14.3 32 32V480c0 17.7-14.3 32-32 32H448c-17.7 0-32-14.3-32-32V352c0-17.7 14.3-32 32-32z"/><path class="fa-secondary" d="M490.3 13.1l57.3 90.7c11.9 18.8 14.8 40.5 10.4 60.3c-9.6-2.7-19.7-4.1-30.1-4.1c-38.7 0-72.8 19.6-92.9 49.5c-6.2-4.1-11.9-9-16.8-14.4c-15.9 17.6-39 29-65.2 29c-26.1 0-49.3-11.4-65.2-29c-15.9 17.6-39 29-65.2 29c-26.1 0-49.3-11.4-65.2-29c-15.9 17.6-39.1 29-65.2 29c-4.1 0-8.2-.3-12.1-.8c-55.3-7.4-81.5-72.6-51.9-119.4L85.7 13.1C90.8 5 99.9 0 109.6 0H466.4c9.7 0 18.8 5 23.9 13.1zM384 384v96c0 11.7 3.1 22.6 8.6 32H128c-35.3 0-64-28.7-64-64V384 252.6c3.9 1 7.9 1.7 12 2.3l.1 0c5.3 .7 10.7 1.1 16.3 1.1c12.5 0 24.4-1.9 35.6-5.4V384H384z"/></svg>