<svg xmlns="http://www.w3.org/2000/svg" viewBox="0 0 384 512"><!--! Font Awesome Pro 6.4.0 by @fontawesome - https://fontawesome.com License - https://fontawesome.com/license (Commercial License) Copyright 2023 Fonticons, Inc. --><defs><style>.fa-secondary{opacity:.4}</style></defs><path class="fa-primary" d="M64 128c-35.3 0-64 28.7-64 64V416c0 35.3 28.7 64 64 64H320c35.3 0 64-28.7 64-64V192c0-35.3-28.7-64-64-64H64zm48 96H272c8.8 0 16 7.2 16 16s-7.2 16-16 16H112c-8.8 0-16-7.2-16-16s7.2-16 16-16zm0 128H272c8.8 0 16 7.2 16 16s-7.2 16-16 16H112c-8.8 0-16-7.2-16-16s7.2-16 16-16z"/><path class="fa-secondary" d="M144 56c0-4.4 3.6-8 8-8h80c4.4 0 8 3.6 8 8v72h48V56c0-30.9-25.1-56-56-56H152C121.1 0 96 25.1 96 56v72h48V56zM96 512c17.7 0 32-14.3 32-32H64c0 17.7 14.3 32 32 32zm192 0c17.7 0 32-14.3 32-32H256c0 17.7 14.3 32 32 32z"/></svg>