<svg xmlns="http://www.w3.org/2000/svg" viewBox="0 0 640 512"><!--! Font Awesome Pro 6.4.0 by @fontawesome - https://fontawesome.com License - https://fontawesome.com/license (Commercial License) Copyright 2023 Fonticons, Inc. --><defs><style>.fa-secondary{opacity:.4}</style></defs><path class="fa-primary" d="M536 144c-17.7 0-32 14.3-32 32v96 8V448H608c17.7 0 32 14.3 32 32s-14.3 32-32 32H32c-17.7 0-32-14.3-32-32s14.3-32 32-32H456V280v-8c0-17.7-14.3-32-32-32s-32 14.3-32 32v21.4c14.8 7.7 24 23.1 24 44.6c0 16.6-16 43.9-37.4 67.2c-5.7 6.2-15.5 6.2-21.2 0C336 382 320 354.9 320 338c0-21.5 9.2-37 24-44.6V272c0-44.2 35.8-80 80-80c11.4 0 22.2 2.4 32 6.7V176c0-44.2 35.8-80 80-80s80 35.8 80 80v53.4c14.8 7.7 24 23.1 24 44.6c0 16.6-16 43.9-37.4 67.2c-5.7 6.2-15.5 6.2-21.2 0C560 318 544 290.9 544 274c0-21.5 9.2-37 24-44.6V176c0-17.7-14.3-32-32-32z"/><path class="fa-secondary" d="M174.6 9.5C172 3.7 166.3 0 160 0s-12 3.7-14.6 9.5L120.6 64.9 63.9 43.2c-5.9-2.3-12.6-.8-17 3.6s-5.9 11.1-3.6 17l21.7 56.7L9.5 145.4C3.7 148 0 153.7 0 160s3.7 12 9.5 14.6l55.4 24.8L43.2 256.1c-2.3 5.9-.8 12.6 3.6 17s11.1 5.9 17 3.6l56.7-21.7 24.8 55.4c2.6 5.8 8.3 9.5 14.6 9.5s12-3.7 14.6-9.5l24.8-55.4 56.7 21.7c5.9 2.3 12.6 .8 17-3.6s5.9-11.1 3.6-17l-21.7-56.7 55.4-24.8c5.8-2.6 9.5-8.3 9.5-14.6s-3.7-12-9.5-14.6l-55.4-24.8 21.7-56.7c2.3-5.9 .8-12.6-3.6-17s-11.1-5.9-17-3.6L199.4 64.9 174.6 9.5zM96 160a64 64 0 1 1 128 0A64 64 0 1 1 96 160zm64 32a32 32 0 1 0 0-64 32 32 0 1 0 0 64z"/></svg>