<svg xmlns="http://www.w3.org/2000/svg" viewBox="0 0 512 512"><!--! Font Awesome Pro 6.4.0 by @fontawesome - https://fontawesome.com License - https://fontawesome.com/license (Commercial License) Copyright 2023 Fonticons, Inc. --><defs><style>.fa-secondary{opacity:.4}</style></defs><path class="fa-primary" d="M464.8 4.8C474.3 10.6 480 20.9 480 32V160c17.7 0 32 14.3 32 32s-14.3 32-32 32H448 416c-17.7 0-32-14.3-32-32s14.3-32 32-32V80c-11.7 0-23-6.5-28.6-17.7c-7.9-15.8-1.5-35 14.3-42.9l32-16c9.9-5 21.7-4.4 31.1 1.4z"/><path class="fa-secondary" d="M0 96C0 78.3 14.3 64 32 64H64c10.4 0 20.2 5.1 26.2 13.6L176 200.2 261.8 77.6c6-8.6 15.8-13.6 26.2-13.6h32c17.7 0 32 14.3 32 32s-14.3 32-32 32H304.7L215.1 256l89.6 128H320c17.7 0 32 14.3 32 32s-14.3 32-32 32H288c-10.4 0-20.2-5.1-26.2-13.6L176 311.8 90.2 434.4C84.2 442.9 74.4 448 64 448H32c-17.7 0-32-14.3-32-32s14.3-32 32-32H47.3l89.6-128L47.3 128H32C14.3 128 0 113.7 0 96z"/></svg>