<svg xmlns="http://www.w3.org/2000/svg" viewBox="0 0 448 512"><!--! Font Awesome Pro 6.4.0 by @fontawesome - https://fontawesome.com License - https://fontawesome.com/license (Commercial License) Copyright 2023 Fonticons, Inc. --><defs><style>.fa-secondary{opacity:.4}</style></defs><path class="fa-primary" d="M448 368V144C448 82.1 347.7 32 224 32S0 82.1 0 144V368c0 61.9 100.3 112 224 112s224-50.1 224-112zM224 208c-88.4 0-160-28.7-160-64s71.6-64 160-64s160 28.7 160 64s-71.6 64-160 64z"/><path class="fa-secondary" d="M308.2 198.4c-35.3-13.5-63.8-36.1-82-63.4c-16 3.8-36.4 10.5-56.9 20.8c-18.6 9.3-36.6 21.3-51.4 36.1c-15.1-5.4-27.7-11.8-36.9-19.1c20.4-23.3 45.9-40.4 70.3-52.7c20.1-10.1 40.2-17.3 57.5-21.9c-1.7-5.8-3-11.7-3.8-17.7c6.2-.3 12.5-.4 18.9-.4c7.4 0 14.7 .2 21.8 .6c9.3 42.5 53.3 85.3 122.8 90.8c-13.2 11.2-34.3 20.6-60.4 27z"/></svg>