<svg xmlns="http://www.w3.org/2000/svg" viewBox="0 0 512 512"><!--! Font Awesome Pro 6.4.0 by @fontawesome - https://fontawesome.com License - https://fontawesome.com/license (Commercial License) Copyright 2023 Fonticons, Inc. --><defs><style>.fa-secondary{opacity:.4}</style></defs><path class="fa-primary" d="M155.3 270.1c9-9 21.2-14.1 33.9-14.1H304c6.5 0 12.3 3.9 14.8 9.9s1.1 12.9-3.5 17.4L193 405.7l-27.3-27.3-32-32L106.3 319l49-49zM95 330.3L116.7 352 11 457.7l-3.5-3.5C2.7 449.3 0 442.8 0 436s2.7-13.3 7.5-18.1L95 330.3zM22.3 469L128 363.3 148.7 384 43 489.7 22.3 469zm32 32L160 395.3 181.7 417 94.1 504.5C89.3 509.3 82.8 512 76 512s-13.3-2.7-18.1-7.5L54.3 501z"/><path class="fa-secondary" d="M505 7c9.1 9.1 9.4 23.7 .7 33.2L307.8 256.5c-1.2-.3-2.5-.5-3.8-.5H198.9L471.8 6.3c9.5-8.7 24.1-8.3 33.2 .7z"/></svg>