<svg xmlns="http://www.w3.org/2000/svg" viewBox="0 0 512 512"><!--! Font Awesome Pro 6.4.0 by @fontawesome - https://fontawesome.com License - https://fontawesome.com/license (Commercial License) Copyright 2023 Fonticons, Inc. --><defs><style>.fa-secondary{opacity:.4}</style></defs><path class="fa-primary" d="M107.3 228.7c-6.2-6.2-16.4-6.2-22.6 0l-16 16c-5.4 5.4-6.2 13.8-2 20.2l53.1 79.6c2.1 3.2 1.7 7.4-1 10.1L79.2 394.2c-2.1 2.1-5.3 2.9-8.2 1.9L37.1 384.8c-5.7-1.9-12.1-.4-16.4 3.9l-16 16c-6.2 6.2-6.2 16.4 0 22.6l80 80c6.2 6.2 16.4 6.2 22.6 0l16-16c4.3-4.3 5.8-10.6 3.9-16.4L115.9 441c-1-2.9-.2-6 1.9-8.2l39.6-39.6c2.7-2.7 6.9-3.1 10.1-1l79.6 53.1c6.3 4.2 14.8 3.4 20.2-2l16-16c6.2-6.2 6.2-16.4 0-22.6l-176-176z"/><path class="fa-secondary" d="M507.3 4.7c3.7 3.7 5.3 8.8 4.5 13.9L499.2 94.4c-2.7 16.4-10.6 31.6-22.3 43.4L246.6 368 144 265.4 374.2 35.2c11.8-11.8 27-19.6 43.4-22.3L493.4 .2c5.1-.8 10.3 .8 13.9 4.5z"/></svg>