<svg xmlns="http://www.w3.org/2000/svg" viewBox="0 0 512 512"><!--! Font Awesome Pro 6.4.0 by @fontawesome - https://fontawesome.com License - https://fontawesome.com/license (Commercial License) Copyright 2023 Fonticons, Inc. --><defs><style>.fa-secondary{opacity:.4}</style></defs><path class="fa-primary" d="M172.7 236.7c-6.1 6.1-6.2 15.8-.5 22.1l81 81c6.3 5.8 16 5.6 22.1-.5c6.2-6.2 6.2-16.4 0-22.6l-80-80c-6.2-6.2-16.4-6.2-22.6 0zm-11.3 33.9l-23.7 23.7 80 80 23.7-23.7-80-80zm45 115l-80-80-20.7 20.7 80 80 20.7-20.7zM181.7 425L87 330.3l-2.3 2.3L10.3 407C3.7 413.7 0 422.6 0 432s3.7 18.3 10.3 25L55 501.7c6.6 6.6 15.6 10.3 25 10.3s18.3-3.7 25-10.3l74.3-74.3 2.3-2.3z"/><path class="fa-secondary" d="M505.7 40.2c8.7-9.5 8.3-24.1-.7-33.2s-23.7-9.4-33.2-.7L207.1 248.5l56.4 56.4L505.7 40.2z"/></svg>