<svg xmlns="http://www.w3.org/2000/svg" viewBox="0 0 448 512"><!--! Font Awesome Pro 6.4.0 by @fontawesome - https://fontawesome.com License - https://fontawesome.com/license (Commercial License) Copyright 2023 Fonticons, Inc. --><defs><style>.fa-secondary{opacity:.4}</style></defs><path class="fa-primary" d="M0 64C0 28.7 28.7 0 64 0H384c35.3 0 64 28.7 64 64V384H0V64z"/><path class="fa-secondary" d="M448 384H0v64c0 35.3 28.7 64 64 64H384c35.3 0 64-28.7 64-64V384zM176 432h96c8.8 0 16 7.2 16 16s-7.2 16-16 16H176c-8.8 0-16-7.2-16-16s7.2-16 16-16z"/></svg>