<svg xmlns="http://www.w3.org/2000/svg" viewBox="0 0 640 512"><!--! Font Awesome Pro 6.4.0 by @fontawesome - https://fontawesome.com License - https://fontawesome.com/license (Commercial License) Copyright 2023 Fonticons, Inc. --><defs><style>.fa-secondary{opacity:.4}</style></defs><path class="fa-primary" d="M316.5 385.5c2-9.3-5.5-17.5-15-17.5H18.5c-9.5 0-16.9 8.2-15 17.5C18.9 457.8 83.1 512 160 512s141.1-54.2 156.5-126.5zm0-66.9C301.1 246.2 236.9 192 160 192S18.9 246.2 3.5 318.5c-2 9.3 5.5 17.5 15 17.5H301.5c9.5 0 16.9-8.2 15-17.5z"/><path class="fa-secondary" d="M591.4 248.8L391.2 48.6c-6.7-6.7-6.2-17.8 1.8-22.9C418.1 9.4 447.9 0 480 0c88.4 0 160 71.6 160 160c0 32.1-9.4 61.9-25.7 87c-5.2 7.9-16.2 8.5-22.9 1.8zm-22.6 22.6c6.7 6.7 6.2 17.8-1.8 22.9c-25 16.3-54.9 25.7-87 25.7c-88.4 0-160-71.6-160-160c0-32.1 9.4-61.9 25.7-87c5.2-7.9 16.2-8.5 22.9-1.8L568.8 271.4z"/></svg>