<svg xmlns="http://www.w3.org/2000/svg" viewBox="0 0 640 512"><!--! Font Awesome Pro 6.4.0 by @fontawesome - https://fontawesome.com License - https://fontawesome.com/license (Commercial License) Copyright 2023 Fonticons, Inc. --><defs><style>.fa-secondary{opacity:.4}</style></defs><path class="fa-primary" d="M384 32c17.7 0 32 14.3 32 32V448c0 17.7-14.3 32-32 32s-32-14.3-32-32V64c0-17.7 14.3-32 32-32z"/><path class="fa-secondary" d="M160 64c0-17.7-14.3-32-32-32s-32 14.3-32 32V448c0 17.7 14.3 32 32 32s32-14.3 32-32V64zm128 0c0-17.7-14.3-32-32-32s-32 14.3-32 32V448c0 17.7 14.3 32 32 32s32-14.3 32-32V64z"/></svg>