<svg xmlns="http://www.w3.org/2000/svg" viewBox="0 0 640 512"><!--! Font Awesome Pro 6.4.0 by @fontawesome - https://fontawesome.com License - https://fontawesome.com/license (Commercial License) Copyright 2023 Fonticons, Inc. --><defs><style>.fa-secondary{opacity:.4}</style></defs><path class="fa-primary" d="M638.4 149.9c5.6 16.8-3.5 34.9-20.2 40.5l-576 192c-16.8 5.6-34.9-3.5-40.5-20.2s3.5-34.9 20.2-40.5l576-192c16.8-5.6 34.9 3.5 40.5 20.2z"/><path class="fa-secondary" d="M128 32c-17.7 0-32 14.3-32 32V296.9l64-21.3V64c0-17.7-14.3-32-32-32zM96 364.4V448c0 17.7 14.3 32 32 32s32-14.3 32-32V343.1L96 364.4zm128-42.7V448c0 17.7 14.3 32 32 32s32-14.3 32-32V300.4l-64 21.3zm128-42.7V448c0 17.7 14.3 32 32 32s32-14.3 32-32V257.7l-64 21.3zm64-88.8V64c0-17.7-14.3-32-32-32s-32 14.3-32 32V211.6l64-21.3zm64 46.1V448c0 17.7 14.3 32 32 32s32-14.3 32-32V215.1l-64 21.3zm64-88.8V64c0-17.7-14.3-32-32-32s-32 14.3-32 32V168.9l64-21.3zM288 232.9V64c0-17.7-14.3-32-32-32s-32 14.3-32 32V254.3l64-21.3z"/></svg>