<svg xmlns="http://www.w3.org/2000/svg" viewBox="0 0 320 512"><!--! Font Awesome Pro 6.4.0 by @fontawesome - https://fontawesome.com License - https://fontawesome.com/license (Commercial License) Copyright 2023 Fonticons, Inc. --><defs><style>.fa-secondary{opacity:.4}</style></defs><path class="fa-primary" d="M24 240c-8.8 0-16 7.2-16 16s7.2 16 16 16H128L99.2 310.4c-5.3 7.1-3.9 17.1 3.2 22.4s17.1 3.9 22.4-3.2L160 282.7l35.2 46.9c5.3 7.1 15.3 8.5 22.4 3.2s8.5-15.3 3.2-22.4L192 272H296c8.8 0 16-7.2 16-16s-7.2-16-16-16H160 24z"/><path class="fa-secondary" d="M48.1 18.3C72.3 8.6 108.4 0 160 0s87.7 8.6 111.9 18.3c12.1 4.8 21 9.9 27.4 14.1c12.7 8.5 23.1 20.4 20.3 36.9L291.1 240H233.4L248 72.7c.4-4.4-2.9-8.3-7.3-8.7s-8.3 2.9-8.7 7.3L217.4 240H168l0-176c0-4.4-3.6-8-8-8s-8 3.6-8 8l0 176H102.6L88 71.3c-.4-4.4-4.3-7.7-8.7-7.3s-7.7 4.3-7.3 8.7L86.6 240H28.9L.4 69.3C-2.3 52.8 8.1 40.8 20.8 32.4c6.3-4.2 15.3-9.3 27.4-14.1zM28.9 272H86.6L72 439.3c-.4 4.4 2.9 8.3 7.3 8.7s8.3-2.9 8.7-7.3l9.9-113.3c1.1 2.1 2.6 3.9 4.6 5.4c7.1 5.3 17.1 3.9 22.4-3.2L152 293.3 152 448c0 4.4 3.6 8 8 8s8-3.6 8-8l0-154.7 27.2 36.3c5.3 7.1 15.3 8.5 22.4 3.2c2-1.5 3.5-3.3 4.6-5.4L232 440.7c.4 4.4 4.3 7.7 8.7 7.3s7.7-4.3 7.3-8.7L233.4 272h57.7l28.4 170.7c1.7 10.2-1.6 20.6-8.9 27.9l0 0c-10.6 10.5-25.1 17.6-38.7 23C247.7 503.4 211.6 512 160 512s-87.7-8.6-111.9-18.3c-13.7-5.5-28.1-12.5-38.7-23l0 0c-7.3-7.3-10.6-17.7-8.9-27.9L28.9 272zm191.8 38.2L192 272h25.4l3.3 38.2zM102.6 272H128L99.3 310.2l3.3-38.2z"/></svg>