<svg xmlns="http://www.w3.org/2000/svg" viewBox="0 0 576 512"><!--! Font Awesome Pro 6.4.0 by @fontawesome - https://fontawesome.com License - https://fontawesome.com/license (Commercial License) Copyright 2023 Fonticons, Inc. --><defs><style>.fa-secondary{opacity:.4}</style></defs><path class="fa-primary" d="M576 288L416 448l0-128c0-17.7 14.3-32 32-32l128 0z"/><path class="fa-secondary" d="M512 64c35.3 0 64 28.7 64 64V288l-128 0c-17.7 0-32 14.3-32 32l0 128L64 448c-35.3 0-64-28.7-64-64V128C0 92.7 28.7 64 64 64H512zM96 192a32 32 0 1 0 0-64 32 32 0 1 0 0 64z"/></svg>