<svg xmlns="http://www.w3.org/2000/svg" viewBox="0 0 512 512"><!--! Font Awesome Pro 6.4.0 by @fontawesome - https://fontawesome.com License - https://fontawesome.com/license (Commercial License) Copyright 2023 Fonticons, Inc. --><defs><style>.fa-secondary{opacity:.4}</style></defs><path class="fa-primary" d="M135.2 149.4L109.1 224H402.9l-26.1-74.6c-4.5-12.8-16.6-21.4-30.2-21.4H165.4c-13.6 0-25.7 8.6-30.2 21.4zM39.6 228.8L74.8 128.3C88.3 89.8 124.6 64 165.4 64H346.6c40.8 0 77.1 25.8 90.6 64.3l35.2 100.5c23.2 9.6 39.6 32.5 39.6 59.2V432H0V288c0-26.7 16.4-49.6 39.6-59.2zM128 320a32 32 0 1 0 -64 0 32 32 0 1 0 64 0zm288 32a32 32 0 1 0 0-64 32 32 0 1 0 0 64z"/><path class="fa-secondary" d="M192 0H320c17.7 0 32 14.3 32 32V64H160V32c0-17.7 14.3-32 32-32zM135.2 149.4c4.5-12.8 16.6-21.4 30.2-21.4H346.6c13.6 0 25.7 8.6 30.2 21.4L402.9 224H109.1l26.1-74.6zM96 432v48c0 17.7-14.3 32-32 32H32c-17.7 0-32-14.3-32-32V432H96zm320 0h96v48c0 17.7-14.3 32-32 32H448c-17.7 0-32-14.3-32-32V432z"/></svg>