<svg xmlns="http://www.w3.org/2000/svg" viewBox="0 0 576 512"><!--! Font Awesome Pro 6.4.0 by @fontawesome - https://fontawesome.com License - https://fontawesome.com/license (Commercial License) Copyright 2023 Fonticons, Inc. --><defs><style>.fa-secondary{opacity:.4}</style></defs><path class="fa-primary" d="M288 256c-75.1 0-136-57.3-136-128s60.9-96 136-96s136 25.3 136 96s-60.9 128-136 128zM240 128a16 16 0 1 0 0-32 16 16 0 1 0 0 32zm112-16a16 16 0 1 0 -32 0 16 16 0 1 0 32 0zm0 64c0-26.5-28.7-48-64-48s-64 21.5-64 48s28.7 48 64 48s64-21.5 64-48zm-32-8c0 13.3-14.3 24-32 24s-32-10.7-32-24s14.3-24 32-24s32 10.7 32 24zM50.3 178.3c20.8-16.4 51-12.8 67.4 8L143.5 219c73.7 93.5 215.4 93.5 289.1 0l25.8-32.7c16.4-20.8 46.6-24.4 67.4-8s24.4 46.6 8 67.4l-25.8 32.7c-17.7 22.4-37.9 41.3-59.9 56.7V400h16.6c3.9-27.1 27.2-48 55.4-48c30.9 0 56 25.1 56 56c0 2.7-.2 5.4-.6 8l-13 53.3c-5.8 23.8-26.3 40.9-50.4 42.6v.1h-4H480 96 68 64v-.1c-24.1-1.7-44.6-18.8-50.4-42.6L.6 416c-.4-2.6-.6-5.3-.6-8c0-30.9 25.1-56 56-56c28.2 0 51.6 20.9 55.4 48H128V335.1c-22-15.4-42.3-34.3-59.9-56.7L42.3 245.7c-16.4-20.8-12.8-51 8-67.4zM256 352c-35.3 0-64 28.7-64 64H384c0-35.3-28.7-64-64-64H256z"/><path class="fa-secondary" d="M236.6 36.7C228.7 15.3 208.2 0 184 0c-30.9 0-56 25.1-56 56c0 20.2 10.7 37.9 26.7 47.7c9.1-37.9 40.4-58.5 81.9-67zM448 56c0-30.9-25.1-56-56-56c-24.2 0-44.7 15.3-52.6 36.7c41.5 8.5 72.8 29.1 81.9 67C437.3 93.9 448 76.2 448 56zM288 224c35.3 0 64-21.5 64-48s-28.7-48-64-48s-64 21.5-64 48s28.7 48 64 48zm0-32c-17.7 0-32-10.7-32-24s14.3-24 32-24s32 10.7 32 24s-14.3 24-32 24zM192 416H384c0-35.3-28.7-64-64-64H256c-35.3 0-64 28.7-64 64z"/></svg>