<svg xmlns="http://www.w3.org/2000/svg" viewBox="0 0 640 512"><!--! Font Awesome Pro 6.4.0 by @fontawesome - https://fontawesome.com License - https://fontawesome.com/license (Commercial License) Copyright 2023 Fonticons, Inc. --><defs><style>.fa-secondary{opacity:.4}</style></defs><path class="fa-primary" d="M204.6 166.5c11.5-8.7 27.3-8.7 38.8 0l168 128c6.6 5 11 12.5 12.3 20.7l24 160c1.4 9.2-1.3 18.6-7.4 25.6s-14.9 11.1-24.2 11.1H320L224 352V512H32c-9.3 0-18.2-4.1-24.2-11.1S-1 484.5 .4 475.3l24-160c1.2-8.2 5.6-15.7 12.3-20.7l168-128z"/><path class="fa-secondary" d="M435.4 6.5c-11.5-8.7-27.3-8.7-38.8 0L235.8 129.1c9.6 1.8 18.9 5.8 27 12l168 128c13.2 10.1 22 24.9 24.5 41.4l6.2 41.5H608c9.3 0 18.2-4.1 24.2-11.1s8.8-16.4 7.4-25.6l-24-160c-1.2-8.2-5.6-15.7-12.3-20.7l-168-128z"/></svg>