<svg xmlns="http://www.w3.org/2000/svg" viewBox="0 0 640 512"><!--! Font Awesome Pro 6.4.0 by @fontawesome - https://fontawesome.com License - https://fontawesome.com/license (Commercial License) Copyright 2023 Fonticons, Inc. --><defs><style>.fa-secondary{opacity:.4}</style></defs><path class="fa-primary" d="M384 288v16c0 17.7-14.3 32-32 32s-32-14.3-32-32V272c0-26.5 21.5-48 48-48H592c26.5 0 48 21.5 48 48v32c0 17.7-14.3 32-32 32s-32-14.3-32-32V288H512l0 128h16c17.7 0 32 14.3 32 32s-14.3 32-32 32H432c-17.7 0-32-14.3-32-32s14.3-32 32-32h16l0-128H384z"/><path class="fa-secondary" d="M64 96v32c0 17.7-14.3 32-32 32s-32-14.3-32-32V80C0 53.5 21.5 32 48 32H192 336c26.5 0 48 21.5 48 48v48c0 17.7-14.3 32-32 32s-32-14.3-32-32V96H224l0 320h32c17.7 0 32 14.3 32 32s-14.3 32-32 32H128c-17.7 0-32-14.3-32-32s14.3-32 32-32h32l0-320H64z"/></svg>