<svg xmlns="http://www.w3.org/2000/svg" viewBox="0 0 512 512"><!--! Font Awesome Pro 6.4.0 by @fontawesome - https://fontawesome.com License - https://fontawesome.com/license (Commercial License) Copyright 2023 Fonticons, Inc. --><defs><style>.fa-secondary{opacity:.4}</style></defs><path class="fa-primary" d="M296 0c13.3 0 24 10.7 24 24V40c0 .4 0 .8 0 1.3c14.9 4.4 29.2 10.4 42.6 17.7c.3-.3 .6-.6 .9-.9l11.3-11.3c9.4-9.4 24.6-9.4 33.9 0l56.6 56.6c9.4 9.4 9.4 24.6 0 33.9L454 148.5c-.3 .3-.6 .6-.9 .9c7.3 13.4 13.2 27.7 17.7 42.6c.4 0 .8 0 1.3 0h16c13.3 0 24 10.7 24 24v80c0 13.3-10.7 24-24 24H472c-.4 0-.8 0-1.3 0c-4.4 14.9-10.4 29.2-17.7 42.6c.3 .3 .6 .6 .9 .9l11.3 11.3c9.4 9.4 9.4 24.6 0 33.9l-56.6 56.6c-9.4 9.4-24.6 9.4-33.9 0L363.5 454c-.3-.3-.6-.6-.9-.9c-13.4 7.3-27.7 13.2-42.6 17.7c0 .4 0 .8 0 1.3v16c0 13.3-10.7 24-24 24H216c-13.3 0-24-10.7-24-24V472c0-.4 0-.8 0-1.3c-14.9-4.4-29.2-10.4-42.6-17.7c-.3 .3-.6 .6-.9 .9l-11.3 11.3c-9.4 9.4-24.6 9.4-33.9 0L46.7 408.7c-9.4-9.4-9.4-24.6 0-33.9L58 363.5c.3-.3 .6-.6 .9-.9c-7.3-13.4-13.2-27.7-17.7-42.6c-.4 0-.8 0-1.3 0H24c-13.3 0-24-10.7-24-24V216c0-13.3 10.7-24 24-24H40c.4 0 .8 0 1.3 0c4.4-14.9 10.4-29.2 17.7-42.6c-.3-.3-.6-.6-.9-.9L46.7 137.2c-9.4-9.4-9.4-24.6 0-33.9l56.6-56.6c9.4-9.4 24.6-9.4 33.9 0L148.5 58c.3 .3 .6 .6 .9 .9c13.4-7.3 27.7-13.2 42.6-17.7c0-.4 0-.8 0-1.3V24c0-13.3 10.7-24 24-24h80zm88 256a128 128 0 1 0 -256 0 128 128 0 1 0 256 0z"/><path class="fa-secondary" d="M256 384a128 128 0 1 0 0-256 128 128 0 1 0 0 256zm0-224a24 24 0 1 1 0 48 24 24 0 1 1 0-48zm-75.9 96.6a24 24 0 1 1 14.8-45.7 24 24 0 1 1 -14.8 45.7zm167.2-30.2a24 24 0 1 1 -45.7 14.8 24 24 0 1 1 45.7-14.8zm-29.6 73.8a24 24 0 1 1 -38.8 28.2 24 24 0 1 1 38.8-28.2zM199.6 333.7a24 24 0 1 1 28.2-38.8 24 24 0 1 1 -28.2 38.8z"/></svg>