<svg xmlns="http://www.w3.org/2000/svg" viewBox="0 0 640 512"><!--! Font Awesome Pro 6.4.0 by @fontawesome - https://fontawesome.com License - https://fontawesome.com/license (Commercial License) Copyright 2023 Fonticons, Inc. --><defs><style>.fa-secondary{opacity:.4}</style></defs><path class="fa-primary" d="M399.6 384H512c53 0 96-86 96-192S565 0 512 0s-96 86-96 192c0 81.9-7.3 145-16.4 192zM544 192c0 35.3-14.3 64-32 64s-32-28.7-32-64s14.3-64 32-64s32 28.7 32 64z"/><path class="fa-secondary" d="M20.2 495.8C25.8 505.8 36.5 512 48 512H317.9c22.3 0 45.4-12.1 55.4-36.1C388.7 439 416 350.8 416 192C416 86 459 0 512 0H160C107 0 64 86 64 192c0 85.3-.4 193.7-43.5 271.6c-5.9 9.9-6.1 22.1-.4 32.2zM313 193l-72 72c-9.4 9.4-24.6 9.4-33.9 0l-40-40c-9.4-9.4-9.4-24.6 0-33.9s24.6-9.4 33.9 0l23 23 55-55c9.4-9.4 24.6-9.4 33.9 0s9.4 24.6 0 33.9z"/></svg>