<svg xmlns="http://www.w3.org/2000/svg" viewBox="0 0 512 512"><!--! Font Awesome Pro 6.4.0 by @fontawesome - https://fontawesome.com License - https://fontawesome.com/license (Commercial License) Copyright 2023 Fonticons, Inc. --><defs><style>.fa-secondary{opacity:.4}</style></defs><path class="fa-primary" d="M320 195.9c1 104.2 43.6 188.1 96 188.1H160v80c0 26.5 21.5 48 48 48H464c26.5 0 48-21.5 48-48V192C512 86 469 0 416 0s-96 86-96 192c0 1.3 0 2.6 0 3.9zM448 192c0 35.3-14.3 64-32 64s-32-28.7-32-64s14.3-64 32-64s32 28.7 32 64zM80 208a16 16 0 1 0 -32 0 16 16 0 1 0 32 0zm64 0a16 16 0 1 0 -32 0 16 16 0 1 0 32 0zm48 16a16 16 0 1 0 0-32 16 16 0 1 0 0 32zm80-16a16 16 0 1 0 -32 0 16 16 0 1 0 32 0z"/><path class="fa-secondary" d="M96 384C43 384 0 298 0 192S43 0 96 0H416c-53 0-96 86-96 192s43 192 96 192H128 96zM80 208a16 16 0 1 0 -32 0 16 16 0 1 0 32 0zm64 0a16 16 0 1 0 -32 0 16 16 0 1 0 32 0zm48 16a16 16 0 1 0 0-32 16 16 0 1 0 0 32zm80-16a16 16 0 1 0 -32 0 16 16 0 1 0 32 0z"/></svg>