<svg xmlns="http://www.w3.org/2000/svg" viewBox="0 0 640 512"><!--! Font Awesome Pro 6.4.0 by @fontawesome - https://fontawesome.com License - https://fontawesome.com/license (Commercial License) Copyright 2023 Fonticons, Inc. --><defs><style>.fa-secondary{opacity:.4}</style></defs><path class="fa-primary" d="M5.1 9.2C13.3-1.2 28.4-3.1 38.8 5.1l592 464c10.4 8.2 12.3 23.3 4.1 33.7s-23.3 12.3-33.7 4.1L9.2 42.9C-1.2 34.7-3.1 19.6 5.1 9.2z"/><path class="fa-secondary" d="M576 426.2V343.1c-9.9 19.5-23.2 38.2-39.9 51.8L576 426.2zm-66-51.7c22.6-14.8 41.4-46 53.1-86.4c8.2-28.2 12.8-61 12.8-96C576 86 533 0 480 0c-11.2 0-22 3.8-32 10.9c-37.3 26.4-64 97.5-64 181.1c0 33.8 4.4 65.5 12 93.1l114 89.3zM356.7 254.3c-3.1-19.9-4.7-40.8-4.7-62.3c0-56.9 11.5-110 31.5-150.1c7.5-15 17.1-29.7 28.7-41.9H160c-24.8 0-47.4 18.8-64.4 49.6L356.7 254.3zM528 512L406.2 416H224v48c0 26.5 21.5 48 48 48H528l.3 0H528zM64 192c0 106 43 192 96 192H365.5L66.5 148.4C64.9 162.4 64 177 64 192zm416 64c-17.7 0-32-28.7-32-64s14.3-64 32-64s32 28.7 32 64s-14.3 64-32 64z"/></svg>