<svg xmlns="http://www.w3.org/2000/svg" viewBox="0 0 448 512"><!--! Font Awesome Pro 6.4.0 by @fontawesome - https://fontawesome.com License - https://fontawesome.com/license (Commercial License) Copyright 2023 Fonticons, Inc. --><defs><style>.fa-secondary{opacity:.4}</style></defs><path class="fa-primary" d="M248 152c0-13.3-10.7-24-24-24s-24 10.7-24 24v40H152c-13.3 0-24 10.7-24 24s10.7 24 24 24h48V360c0 13.3 10.7 24 24 24s24-10.7 24-24V240h48c13.3 0 24-10.7 24-24s-10.7-24-24-24H248V152zM32 448c-17.7 0-32 14.3-32 32s14.3 32 32 32H416c17.7 0 32-14.3 32-32s-14.3-32-32-32H32z"/><path class="fa-secondary" d="M224 0C118 0 32 86 32 192V448H416V192C416 86 330 0 224 0zm24 152v40h48c13.3 0 24 10.7 24 24s-10.7 24-24 24H248V360c0 13.3-10.7 24-24 24s-24-10.7-24-24V240H152c-13.3 0-24-10.7-24-24s10.7-24 24-24h48V152c0-13.3 10.7-24 24-24s24 10.7 24 24z"/></svg>