<svg xmlns="http://www.w3.org/2000/svg" viewBox="0 0 512 512"><!--! Font Awesome Pro 6.4.0 by @fontawesome - https://fontawesome.com License - https://fontawesome.com/license (Commercial License) Copyright 2023 Fonticons, Inc. --><defs><style>.fa-secondary{opacity:.4}</style></defs><path class="fa-primary" d="M0 13.4V80c0 26.5 21.5 48 48 48H464c26.5 0 48-21.5 48-48V13.4C512 6 506 0 498.6 0c-1.7 0-3.4 .3-5 1l-49 19.6C425.7 28.1 405.5 32 385.2 32H126.8c-20.4 0-40.5-3.9-59.4-11.4L18.4 1c-1.6-.6-3.3-1-5-1C6 0 0 6 0 13.4zM32 224c-17.7 0-32 14.3-32 32s14.3 32 32 32H480c17.7 0 32-14.3 32-32s-14.3-32-32-32H32z"/><path class="fa-secondary" d="M64 128h64v96H64V128zm160 0h64v96H224V128zm160 0h64v96H384V128zM64 480V256h64V480c0 17.7-14.3 32-32 32s-32-14.3-32-32zm320 0V256h64V480c0 17.7-14.3 32-32 32s-32-14.3-32-32z"/></svg>