<svg xmlns="http://www.w3.org/2000/svg" viewBox="0 0 448 512"><!--! Font Awesome Pro 6.4.0 by @fontawesome - https://fontawesome.com License - https://fontawesome.com/license (Commercial License) Copyright 2023 Fonticons, Inc. --><defs><style>.fa-secondary{opacity:.4}</style></defs><path class="fa-primary" d="M160 24c0-13.3 10.7-24 24-24h40 40c13.3 0 24 10.7 24 24s-10.7 24-24 24H248V96h40c17.7 0 32 14.3 32 32H288 248 200 160 128c0-17.7 14.3-32 32-32h40V48H184c-13.3 0-24-10.7-24-24zM368 384v96c0 17.7-14.3 32-32 32H112c-17.7 0-32-14.3-32-32V384H368z"/><path class="fa-secondary" d="M74.4 192H128V320H111c-.1-.3-.1-.5-.2-.8L74.4 192zM176 192h96V320H176V192zm144 0h53.6L337.2 319.2c-.1 .3-.1 .5-.2 .8H320V192zM4.1 179L44.5 320.2C28.5 321.9 16 335.5 16 352c0 17.7 14.3 32 32 32l352 0c17.7 0 32-14.3 32-32c0-16.5-12.5-30.1-28.5-31.8L443.9 179c7.3-25.6-11.9-51-38.5-51H42.6C16 128-3.2 153.4 4.1 179z"/></svg>