<svg xmlns="http://www.w3.org/2000/svg" viewBox="0 0 448 512"><!--! Font Awesome Pro 6.4.0 by @fontawesome - https://fontawesome.com License - https://fontawesome.com/license (Commercial License) Copyright 2023 Fonticons, Inc. --><defs><style>.fa-secondary{opacity:.4}</style></defs><path class="fa-primary" d="M0 96C0 43 43 0 96 0H352c53 0 96 43 96 96V352c0 53-43 96-96 96H96c-53 0-96-43-96-96V96zm64 0v96c0 17.7 14.3 32 32 32H352c17.7 0 32-14.3 32-32V96c0-17.7-14.3-32-32-32H96C78.3 64 64 78.3 64 96zM224 384a48 48 0 1 0 0-96 48 48 0 1 0 0 96z"/><path class="fa-secondary" d="M96 64C78.3 64 64 78.3 64 96v96c0 17.7 14.3 32 32 32H352c17.7 0 32-14.3 32-32V96c0-17.7-14.3-32-32-32H96zM35.1 492.9C28.1 499.9 33.1 512 43 512H82.7c8.5 0 16.6-3.4 22.6-9.4L160 448H96c-5.1 0-10-.4-14.9-1.1l-46 46zm307.5 9.7c6 6 14.1 9.4 22.6 9.4H405c10 0 15-12.1 7.9-19.1l-46-46c-4.8 .8-9.8 1.1-14.9 1.1H288l54.6 54.6z"/></svg>