<svg xmlns="http://www.w3.org/2000/svg" viewBox="0 0 576 512"><!--! Font Awesome Pro 6.4.0 by @fontawesome - https://fontawesome.com License - https://fontawesome.com/license (Commercial License) Copyright 2023 Fonticons, Inc. --><defs><style>.fa-secondary{opacity:.4}</style></defs><path class="fa-primary" d="M202.1 33.6c16.8 5.6 25.8 23.7 20.2 40.5l-128 384c-5.6 16.8-23.7 25.8-40.5 20.2s-25.8-23.7-20.2-40.5l128-384c5.6-16.8 23.7-25.8 40.5-20.2zm171.8 0c16.8-5.6 34.9 3.5 40.5 20.2l128 384c5.6 16.8-3.5 34.9-20.2 40.5s-34.9-3.5-40.5-20.2l-128-384c-5.6-16.8 3.5-34.9 20.2-40.5z"/><path class="fa-secondary" d="M147.6 96l-21.3 64H112c-17.7 0-32-14.3-32-32s14.3-32 32-32h35.6zM104.9 224L83.6 288H72c-17.7 0-32-14.3-32-32s14.3-32 32-32h32.9zm46.1 64l21.3-64H403.6l21.3 64H151.1zM62.3 352L40.9 416H32c-17.7 0-32-14.3-32-32s14.3-32 32-32H62.3zm46.1 64l21.3-64H446.3l21.3 64H108.4zm426.7 0l-21.3-64H544c17.7 0 32 14.3 32 32s-14.3 32-32 32h-8.9zM492.4 288l-21.3-64H504c17.7 0 32 14.3 32 32s-14.3 32-32 32H492.4zM449.7 160L428.4 96H464c17.7 0 32 14.3 32 32s-14.3 32-32 32H449.7zM360.9 96l21.3 64H193.7l21.3-64H360.9z"/></svg>