<svg xmlns="http://www.w3.org/2000/svg" viewBox="0 0 512 512"><!--! Font Awesome Pro 6.4.0 by @fontawesome - https://fontawesome.com License - https://fontawesome.com/license (Commercial License) Copyright 2023 Fonticons, Inc. --><defs><style>.fa-secondary{opacity:.4}</style></defs><path class="fa-primary" d="M112 192c0-35.3 28.7-64 64-64H336c35.3 0 64 28.7 64 64V384c0 35.3-28.7 64-64 64H176c-35.3 0-64-28.7-64-64V192zm48 24v80c0 13.3 10.7 24 24 24H328c13.3 0 24-10.7 24-24V216c0-13.3-10.7-24-24-24H184c-13.3 0-24 10.7-24 24zm96 200a32 32 0 1 0 0-64 32 32 0 1 0 0 64z"/><path class="fa-secondary" d="M256 0C114.6 0 0 114.6 0 256V448c0 35.3 28.7 64 64 64h41.4l64.3-64.3C137.3 444.5 112 417.2 112 384V192c0-35.3 28.7-64 64-64H336c35.3 0 64 28.7 64 64V384c0 33.2-25.3 60.5-57.7 63.7L406.6 512H448c35.3 0 64-28.7 64-64V256C512 114.6 397.4 0 256 0zM361.4 512l-64-64H214.6l-64 64H361.4zM160 216v80c0 13.3 10.7 24 24 24H328c13.3 0 24-10.7 24-24V216c0-13.3-10.7-24-24-24H184c-13.3 0-24 10.7-24 24z"/></svg>