<svg xmlns="http://www.w3.org/2000/svg" viewBox="0 0 384 512"><!--! Font Awesome Pro 6.4.0 by @fontawesome - https://fontawesome.com License - https://fontawesome.com/license (Commercial License) Copyright 2023 Fonticons, Inc. --><defs><style>.fa-secondary{opacity:.4}</style></defs><path class="fa-primary" d="M0 192c0-17.7 14.3-32 32-32H352c17.7 0 32 14.3 32 32s-14.3 32-32 32V448c17.7 0 32 14.3 32 32s-14.3 32-32 32H32c-17.7 0-32-14.3-32-32s14.3-32 32-32V224c-17.7 0-32-14.3-32-32zm232.9 34.7c-6-4-13.9-3.6-19.3 1.1l-112 96c-5.1 4.4-6.9 11.4-4.6 17.7s8.3 10.4 15 10.4h57.8l-25 74.9c-2.3 6.8 .3 14.3 6.3 18.3s13.9 3.6 19.3-1.1l112-96c5.1-4.4 6.9-11.4 4.6-17.7s-8.3-10.4-15-10.4H214.2l25-74.9c2.3-6.8-.3-14.3-6.3-18.3z"/><path class="fa-secondary" d="M136 24c0-13.3-10.7-24-24-24S88 10.7 88 24v8H64c-8.8 0-16 7.2-16 16s7.2 16 16 16h48 48c8.8 0 16-7.2 16-16s-7.2-16-16-16H136V24zm160 0c0-13.3-10.7-24-24-24s-24 10.7-24 24v8H224c-8.8 0-16 7.2-16 16s7.2 16 16 16h48 48c8.8 0 16-7.2 16-16s-7.2-16-16-16H296V24zM48 112c0 8.8 7.2 16 16 16h96c8.8 0 16-7.2 16-16s-7.2-16-16-16H64c-8.8 0-16 7.2-16 16zm160 0c0 8.8 7.2 16 16 16h96c8.8 0 16-7.2 16-16s-7.2-16-16-16H224c-8.8 0-16 7.2-16 16zm31.2 133.1c2.3-6.8-.3-14.3-6.3-18.3s-13.9-3.6-19.3 1.1l-112 96c-5.1 4.4-6.9 11.4-4.6 17.7s8.3 10.4 15 10.4h57.8l-25 74.9c-2.3 6.8 .3 14.3 6.3 18.3s13.9 3.6 19.3-1.1l112-96c5.1-4.4 6.9-11.4 4.6-17.7s-8.3-10.4-15-10.4H214.2l25-74.9z"/></svg>