<svg xmlns="http://www.w3.org/2000/svg" viewBox="0 0 512 512"><!--! Font Awesome Pro 6.4.0 by @fontawesome - https://fontawesome.com License - https://fontawesome.com/license (Commercial License) Copyright 2023 Fonticons, Inc. --><defs><style>.fa-secondary{opacity:.4}</style></defs><path class="fa-primary" d="M208 48a48 48 0 1 1 96 0 48 48 0 1 1 -96 0zm8 464H128c-17.7 0-32-14.3-32-32s14.3-32 32-32H384c17.7 0 32 14.3 32 32s-14.3 32-32 32H296 216zM351.3 164l48.1 60H112.6l48.1-60c18.2-22.7 45.8-36 74.9-36h40.7c29.1 0 56.7 13.2 74.9 36zM96 256.5v-1c0 .3 0 .7 0 1z"/><path class="fa-secondary" d="M64 32L56.7 6.6C55.6 2.7 52.1 0 48 0s-7.6 2.7-8.7 6.6L32 32 6.6 39.3C2.7 40.4 0 43.9 0 48s2.7 7.6 6.6 8.7L32 64l7.3 25.4C40.4 93.3 43.9 96 48 96s7.6-2.7 8.7-6.6L64 64l25.4-7.3C93.3 55.6 96 52.1 96 48s-2.7-7.6-6.6-8.7L64 32zM480 352l-7.3-25.4c-1.1-3.9-4.7-6.6-8.7-6.6s-7.6 2.7-8.7 6.6L448 352l-25.4 7.3c-3.9 1.1-6.6 4.7-6.6 8.7s2.7 7.6 6.6 8.7L448 384l7.3 25.4c1.1 3.9 4.7 6.6 8.7 6.6s7.6-2.7 8.7-6.6L480 384l25.4-7.3c3.9-1.1 6.6-4.7 6.6-8.7s-2.7-7.6-6.6-8.7L480 352zM112 256c-8.8 0-16 7.2-16 16s7.2 16 16 16H400c8.8 0 16-7.2 16-16s-7.2-16-16-16H112zm64 64c-8.8 0-16 7.2-16 16s7.2 16 16 16H336c8.8 0 16-7.2 16-16s-7.2-16-16-16H176zm0 64c-8.8 0-16 7.2-16 16s7.2 16 16 16H336c8.8 0 16-7.2 16-16s-7.2-16-16-16H176z"/></svg>