<svg xmlns="http://www.w3.org/2000/svg" viewBox="0 0 640 512"><!--! Font Awesome Pro 6.4.0 by @fontawesome - https://fontawesome.com License - https://fontawesome.com/license (Commercial License) Copyright 2023 Fonticons, Inc. --><defs><style>.fa-secondary{opacity:.4}</style></defs><path class="fa-primary" d="M147.8 0c-12.1 0-23.2 6.8-28.6 17.7L112 32H32C14.3 32 0 46.3 0 64S14.3 96 32 96H384c17.7 0 32-14.3 32-32s-14.3-32-32-32H304l-7.2-14.3C291.4 6.8 280.3 0 268.2 0H147.8zM448 160c0 17.7 14.3 32 32 32H608c17.7 0 32-14.3 32-32s-14.3-32-32-32H480c-17.7 0-32 14.3-32 32zm0 128c0 17.7 14.3 32 32 32h96c17.7 0 32-14.3 32-32s-14.3-32-32-32H480c-17.7 0-32 14.3-32 32zm32 96c-17.7 0-32 14.3-32 32s14.3 32 32 32h32c17.7 0 32-14.3 32-32s-14.3-32-32-32H480z"/><path class="fa-secondary" d="M362.6 466.8L384 96H32L53.4 466.8c1.5 25.4 22.5 45.2 47.9 45.2H314.7c25.4 0 46.5-19.8 47.9-45.2z"/></svg>