<svg xmlns="http://www.w3.org/2000/svg" viewBox="0 0 448 512"><!--! Font Awesome Pro 6.4.0 by @fontawesome - https://fontawesome.com License - https://fontawesome.com/license (Commercial License) Copyright 2023 Fonticons, Inc. --><defs><style>.fa-secondary{opacity:.4}</style></defs><path class="fa-primary" d="M135.2 17.7L128 32H32C14.3 32 0 46.3 0 64S14.3 96 32 96H416c17.7 0 32-14.3 32-32s-14.3-32-32-32H320l-7.2-14.3C307.4 6.8 296.3 0 284.2 0H163.8c-12.1 0-23.2 6.8-28.6 17.7zM337 241c9.4-9.4 9.4-24.6 0-33.9s-24.6-9.4-33.9 0l-111 111-47-47c-9.4-9.4-24.6-9.4-33.9 0s-9.4 24.6 0 33.9l64 64c9.4 9.4 24.6 9.4 33.9 0L337 241z"/><path class="fa-secondary" d="M416 96H32L53.4 466.8c1.5 25.4 22.5 45.2 47.9 45.2H346.7c25.4 0 46.5-19.8 47.9-45.2L416 96zM337 241L209 369c-9.4 9.4-24.6 9.4-33.9 0l-64-64c-9.4-9.4-9.4-24.6 0-33.9s24.6-9.4 33.9 0l47 47L303 207c9.4-9.4 24.6-9.4 33.9 0s9.4 24.6 0 33.9z"/></svg>