<svg xmlns="http://www.w3.org/2000/svg" viewBox="0 0 640 512"><!--! Font Awesome Pro 6.4.0 by @fontawesome - https://fontawesome.com License - https://fontawesome.com/license (Commercial License) Copyright 2023 Fonticons, Inc. --><defs><style>.fa-secondary{opacity:.4}</style></defs><path class="fa-primary" d="M5.1 9.2C13.3-1.2 28.4-3.1 38.8 5.1l592 464c10.4 8.2 12.3 23.3 4.1 33.7s-23.3 12.3-33.7 4.1L9.2 42.9C-1.2 34.7-3.1 19.6 5.1 9.2z"/><path class="fa-secondary" d="M431.5 436l66.3 52.2C486.1 502.7 468.1 512 448 512H192c-35.3 0-64-28.7-64-64V196.8l80 63V432c0 8.8 7.2 16 16 16s16-7.2 16-16V285.1l64 50.4V432c0 8.8 7.2 16 16 16s16-7.2 16-16V360.7l64 50.4V432c0 8.8 7.2 16 16 16c7.5 0 13.7-5.1 15.5-12zM336 208c0-8.8-7.2-16-16-16s-16 7.2-16 16v5L195.6 128H512V376l-80-62.7V208c0-8.8-7.2-16-16-16s-16 7.2-16 16v80.2L336 238V208zM512 96H154.8L98.4 51.8C103.2 40.2 114.6 32 128 32h96l7.2-14.3C236.6 6.8 247.7 0 259.8 0H380.2c12.1 0 23.2 6.8 28.6 17.7L416 32h96c17.7 0 32 14.3 32 32s-14.3 32-32 32z"/></svg>