<svg xmlns="http://www.w3.org/2000/svg" viewBox="0 0 576 512"><!--! Font Awesome Pro 6.4.0 by @fontawesome - https://fontawesome.com License - https://fontawesome.com/license (Commercial License) Copyright 2023 Fonticons, Inc. --><defs><style>.fa-secondary{opacity:.4}</style></defs><path class="fa-primary" d="M160 32V256H96V36c10.2-2.6 21-4 32-4h32zM416 256V32h32c11 0 21.8 1.4 32 4V256H416zM224 224c0-17.7 14.3-32 32-32h64c17.7 0 32 14.3 32 32v96c0 17.7-14.3 32-32 32H256c-17.7 0-32-14.3-32-32V224zm64 0c-8.8 0-16 7.2-16 16v64c0 8.8 7.2 16 16 16s16-7.2 16-16V240c0-8.8-7.2-16-16-16zM160 480H96V288h64V480zm256 0V288h64V480H416z"/><path class="fa-secondary" d="M96 36V256H0V160C0 100.4 40.8 50.2 96 36zM224 256H160V32H416V256H352V224c0-17.7-14.3-32-32-32H256c-17.7 0-32 14.3-32 32v32zm256 0V36c55.2 14.2 96 64.3 96 124v96H480zM0 288H96V480H48c-26.5 0-48-21.5-48-48V288zM416 480H160V288h64v32c0 17.7 14.3 32 32 32h64c17.7 0 32-14.3 32-32V288h64V480zm64 0V288h96V432c0 26.5-21.5 48-48 48H480z"/></svg>