<svg xmlns="http://www.w3.org/2000/svg" viewBox="0 0 640 512"><!--! Font Awesome Pro 6.4.0 by @fontawesome - https://fontawesome.com License - https://fontawesome.com/license (Commercial License) Copyright 2023 Fonticons, Inc. --><defs><style>.fa-secondary{opacity:.4}</style></defs><path class="fa-primary" d="M222 176c1-5 2-10 2-16c0-53-43-96-96-96c-54 0-96 43-96 96c0 6 0 11 1 16C13 190 0 214 0 240c0 45 35 80 80 80H96V480c0 18 14 32 32 32c17 0 32-14 32-32V320h16c44 0 80-35 80-80c0-26-14-50-34-64z"/><path class="fa-secondary" d="M336 0c-26.5 0-48 21.5-48 48V464c0 26.5 21.5 48 48 48h96H592c26.5 0 48-21.5 48-48V240c0-26.5-21.5-48-48-48H568V120c0-13.3-10.7-24-24-24s-24 10.7-24 24v72H480V48c0-26.5-21.5-48-48-48H336zm32 64h32c8.8 0 16 7.2 16 16v32c0 8.8-7.2 16-16 16H368c-8.8 0-16-7.2-16-16V80c0-8.8 7.2-16 16-16zM352 176c0-8.8 7.2-16 16-16h32c8.8 0 16 7.2 16 16v32c0 8.8-7.2 16-16 16H368c-8.8 0-16-7.2-16-16V176zm16 80h32c8.8 0 16 7.2 16 16v32c0 8.8-7.2 16-16 16H368c-8.8 0-16-7.2-16-16V272c0-8.8 7.2-16 16-16zm144 16c0-8.8 7.2-16 16-16h32c8.8 0 16 7.2 16 16v32c0 8.8-7.2 16-16 16H528c-8.8 0-16-7.2-16-16V272zm16 80h32c8.8 0 16 7.2 16 16v32c0 8.8-7.2 16-16 16H528c-8.8 0-16-7.2-16-16V368c0-8.8 7.2-16 16-16z"/></svg>