<svg xmlns="http://www.w3.org/2000/svg" viewBox="0 0 576 512"><!--! Font Awesome Pro 6.4.0 by @fontawesome - https://fontawesome.com License - https://fontawesome.com/license (Commercial License) Copyright 2023 Fonticons, Inc. --><defs><style>.fa-secondary{opacity:.4}</style></defs><path class="fa-primary" d="M133.2 141.9L102.9 91.4c-3.1-5.2-10.6-5.2-13.7 0L69.5 124.1c-1.4 2.4-4 3.9-6.9 3.9H16c-8.8 0-16.1-7.2-14.4-15.9C10.7 64.2 59.6 0 160 0c88 0 136.5 49.4 153.2 93.8C338.4 76.2 372.3 64 416 64c100.4 0 149.3 64.2 158.4 112.1c1.7 8.7-5.6 15.9-14.4 15.9H513.3c-2.8 0-5.4-1.5-6.9-3.9l-19.6-32.7c-3.1-5.2-10.6-5.2-13.7 0l-19.6 32.7c-1.4 2.4-4.1 3.9-6.9 3.9H272c-2.5 0-5-.6-7.1-1.7L109.8 345.5c-6.2 6.2-16.5 6.3-21.4-1C61 304.1 50.2 224.1 121.1 153.1c4-4 8-7.7 12-11.2z"/><path class="fa-secondary" d="M248.4 206.9c4 10.8 7.8 26.2 9.7 47.2c4.2 46.5-1.6 116.8-32.7 216.4c-3 9.7-1.3 20.3 4.8 28.5s15.6 13 25.8 13h64c16.1 0 29.8-12 31.8-28c12.4-99-2.3-207.2-31.7-292H272c-2.5 0-5-.6-7.1-1.7l-16.5 16.5z"/></svg>