<svg xmlns="http://www.w3.org/2000/svg" viewBox="0 0 512 512"><!--! Font Awesome Pro 6.4.0 by @fontawesome - https://fontawesome.com License - https://fontawesome.com/license (Commercial License) Copyright 2023 Fonticons, Inc. --><defs><style>.fa-secondary{opacity:.4}</style></defs><path class="fa-primary" d="M256 128c17.7 0 32 14.3 32 32V480c0 17.7-14.3 32-32 32s-32-14.3-32-32V160c0-17.7 14.3-32 32-32z"/><path class="fa-secondary" d="M351.6 86.8c9.9-4.4 20.9-6.8 32.4-6.8c44.2 0 80 35.8 80 80c0 14.4-3.8 27.9-10.5 39.6C487.9 214.2 512 248.3 512 288c0 53-43 96-96 96H288V160c0-17.7-14.3-32-32-32s-32 14.3-32 32V384H96c-53 0-96-43-96-96c0-39.7 24.1-73.8 58.5-88.4C51.8 187.9 48 174.4 48 160c0-44.2 35.8-80 80-80c11.5 0 22.5 2.4 32.4 6.8C165 38.1 206.1 0 256 0s91 38.1 95.6 86.8z"/></svg>