<svg xmlns="http://www.w3.org/2000/svg" viewBox="0 0 640 512"><!--! Font Awesome Pro 6.4.0 by @fontawesome - https://fontawesome.com License - https://fontawesome.com/license (Commercial License) Copyright 2023 Fonticons, Inc. --><defs><style>.fa-secondary{opacity:.4}</style></defs><path class="fa-primary" d="M96 32C60.7 32 32 60.7 32 96v32c-17.7 0-32 14.3-32 32v96c0 17.7 14.3 32 32 32v32c-17.7 0-32 14.3-32 32s14.3 32 32 32H65.1c7.8-54.3 54.4-96 110.9-96s103.1 41.7 110.9 96h66.3c7.8-54.3 54.4-96 110.9-96s103.1 41.7 110.9 96H608c17.7 0 32-14.3 32-32s-14.3-32-32-32V288c0-35.3-28.7-64-64-64h-4.2c-.4-1.1-.9-2.1-1.3-3.2L485.7 102c-10.3-23.1-33.2-38-58.5-38H375.4C364.4 44.9 343.7 32 320 32H96zm288 96h43.2l42.7 96H384V128zm-130.7 7.1l34.7 52V144c0-8.8 7.2-16 16-16s16 7.2 16 16v96c0 7.1-4.6 13.3-11.4 15.3s-14-.6-17.9-6.4l-34.7-52V240c0 8.8-7.2 16-16 16s-16-7.2-16-16V144c0-7.1 4.6-13.3 11.4-15.3s14 .6 17.9 6.4zM128 144v64c0 8.8 7.2 16 16 16s16-7.2 16-16V144c0-8.8 7.2-16 16-16s16 7.2 16 16v64c0 26.5-21.5 48-48 48s-48-21.5-48-48V144c0-8.8 7.2-16 16-16s16 7.2 16 16z"/><path class="fa-secondary" d="M176 480a80 80 0 1 0 0-160 80 80 0 1 0 0 160zm288 0a80 80 0 1 0 0-160 80 80 0 1 0 0 160z"/></svg>