<svg xmlns="http://www.w3.org/2000/svg" viewBox="0 0 640 512"><!--! Font Awesome Pro 6.4.0 by @fontawesome - https://fontawesome.com License - https://fontawesome.com/license (Commercial License) Copyright 2023 Fonticons, Inc. --><defs><style>.fa-secondary{opacity:.4}</style></defs><path class="fa-primary" d="M416 96c-17.7 0-32 14.3-32 32V256H48c-26.5 0-48 21.5-48 48v64c0 26.5 21.5 48 48 48H65.1c7.8-54.3 54.4-96 110.9-96s103.1 41.7 110.9 96H384h1.1c7.8-54.3 54.4-96 110.9-96c56.2 0 102.8 41.4 110.8 95.4c18.9-3.2 33.2-19.6 33.2-39.4V288 256 237.3c0-17-6.7-33.3-18.7-45.3L544 114.7c-12-12-28.3-18.7-45.3-18.7H416zM576 256H448V160h50.7L576 237.3V256z"/><path class="fa-secondary" d="M96 0h49.5c9.2 0 18 4 24.1 10.9L384 256H192L96 64V176c0 26.5-21.5 48-48 48s-48-21.5-48-48V160c0-8.8 7.2-16 16-16s16 7.2 16 16v16c0 8.8 7.2 16 16 16s16-7.2 16-16V32C64 14.3 78.3 0 96 0zm0 432a80 80 0 1 1 160 0A80 80 0 1 1 96 432zm400-80a80 80 0 1 1 0 160 80 80 0 1 1 0-160z"/></svg>