<svg xmlns="http://www.w3.org/2000/svg" viewBox="0 0 512 512"><!--! Font Awesome Pro 6.4.0 by @fontawesome - https://fontawesome.com License - https://fontawesome.com/license (Commercial License) Copyright 2023 Fonticons, Inc. --><defs><style>.fa-secondary{opacity:.4}</style></defs><path class="fa-primary" d="M80 0C35.8 0 0 35.8 0 80V368c0 44.2 35.8 80 80 80H432c44.2 0 80-35.8 80-80V80c0-44.2-35.8-80-80-80H80zm32 224l17.9-71.8c3.6-14.2 16.4-24.2 31-24.2H351c14.7 0 27.5 10 31 24.2L400 224H112zM64 320a32 32 0 1 1 64 0 32 32 0 1 1 -64 0zm352-32a32 32 0 1 1 0 64 32 32 0 1 1 0-64z"/><path class="fa-secondary" d="M112 224l17.9-71.8c3.6-14.2 16.4-24.2 31-24.2H351c14.7 0 27.5 10 31 24.2L400 224H112zM32 480V432c13.4 10 30 16 48 16h48v32c0 17.7-14.3 32-32 32H64c-17.7 0-32-14.3-32-32zm352 0V448h48c18 0 34.6-6 48-16v48c0 17.7-14.3 32-32 32H416c-17.7 0-32-14.3-32-32z"/></svg>