<svg xmlns="http://www.w3.org/2000/svg" viewBox="0 0 640 512"><!--! Font Awesome Pro 6.4.0 by @fontawesome - https://fontawesome.com License - https://fontawesome.com/license (Commercial License) Copyright 2023 Fonticons, Inc. --><defs><style>.fa-secondary{opacity:.4}</style></defs><path class="fa-primary" d="M456 144c-13.3 0-24 10.7-24 24v88 32 16H32c-17.7 0-32 14.3-32 32v16c0 8.8 3.6 16.8 9.4 22.6C24.8 342.3 57.8 320 96 320c33.4 0 62.8 17 80 42.9C193.2 337 222.6 320 256 320c41.8 0 77.4 26.7 90.5 64H432h21.5c13.2-37.3 48.7-64 90.5-64c38.2 0 71.2 22.3 86.6 54.6c5.8-5.8 9.4-13.8 9.4-22.6V288 272 261.7c0-9.2-3.2-18.2-9-25.3l-58.8-71.8c-10.6-13-26.5-20.5-43.3-20.5H456zM585 256H480V192h48.8c2.4 0 4.7 1.1 6.2 2.9L585 256z"/><path class="fa-secondary" d="M96 352a64 64 0 1 0 0 128 64 64 0 1 0 0-128zm160 0a64 64 0 1 0 0 128 64 64 0 1 0 0-128zm288 0a64 64 0 1 0 0 128 64 64 0 1 0 0-128z"/></svg>