<svg xmlns="http://www.w3.org/2000/svg" viewBox="0 0 640 512"><!--! Font Awesome Pro 6.4.0 by @fontawesome - https://fontawesome.com License - https://fontawesome.com/license (Commercial License) Copyright 2023 Fonticons, Inc. --><defs><style>.fa-secondary{opacity:.4}</style></defs><path class="fa-primary" d="M544 288c-66.1 0-120.6 50.2-127.3 114.5L48.4 502.9c-17.1 4.6-34.6-5.4-39.3-22.5s5.4-34.6 22.5-39.3L352 353.8V64c0-35.3 28.7-64 64-64H640V331.3c-23.5-26.6-57.8-43.3-96-43.3zM153.9 139.5l20.7 77.3c2.3 8.5-2.8 17.3-11.3 19.6l-30.9 8.3c-8.5 2.3-17.3-2.8-19.6-11.3L92.1 156.1l61.8-16.6z"/><path class="fa-secondary" d="M23.1 207.7c-4.6-17.1 5.6-34.6 22.6-39.2l154.5-41.4c17.1-4.6 34.6 5.6 39.2 22.6l41.4 154.5c4.6 17.1-5.6 34.6-22.6 39.2L103.7 384.9c-17.1 4.6-34.6-5.6-39.2-22.6L23.1 207.7zm69-51.6l20.7 77.3c2.3 8.5 11.1 13.6 19.6 11.3l30.9-8.3c8.5-2.3 13.6-11.1 11.3-19.6l-20.7-77.3L92.1 156.1zM544 320a96 96 0 1 1 0 192 96 96 0 1 1 0-192z"/></svg>