<svg xmlns="http://www.w3.org/2000/svg" viewBox="0 0 640 512"><!--! Font Awesome Pro 6.4.0 by @fontawesome - https://fontawesome.com License - https://fontawesome.com/license (Commercial License) Copyright 2023 Fonticons, Inc. --><defs><style>.fa-secondary{opacity:.4}</style></defs><path class="fa-primary" d="M0 48C0 21.5 21.5 0 48 0H368c26.5 0 48 21.5 48 48V96h50.7c17 0 33.3 6.7 45.3 18.7L589.3 192c12 12 18.7 28.3 18.7 45.3V256v32 64c17.7 0 32 14.3 32 32s-14.3 32-32 32H576h-1.1c-7.8-54.3-54.4-96-110.9-96s-103.1 41.7-110.9 96H286.9c-7.8-54.3-54.4-96-110.9-96s-103.1 41.7-110.9 96H48c-26.5 0-48-21.5-48-48V48zM416 256H544V237.3L466.7 160H416v96zM266.3 51.7c-5.7-4.8-13.9-5-19.9-.5l-128 96c-5.5 4.1-7.8 11.3-5.6 17.9s8.3 10.9 15.2 10.9h54.1l-36.4 72.8c-3.3 6.6-1.6 14.7 4.1 19.4s13.9 5 19.9 .5l128-96c5.5-4.1 7.8-11.3 5.6-17.9S294.9 144 288 144H233.9l36.4-72.8c3.3-6.6 1.6-14.7-4.1-19.4z"/><path class="fa-secondary" d="M266.3 51.7c5.7 4.8 7.4 12.8 4.1 19.4L233.9 144H288c6.9 0 13 4.4 15.2 10.9s-.1 13.7-5.6 17.9l-128 96c-5.9 4.5-14.2 4.2-19.9-.5s-7.4-12.8-4.1-19.4L182.1 176H128c-6.9 0-13-4.4-15.2-10.9s.1-13.7 5.6-17.9l128-96c5.9-4.5 14.2-4.2 19.9 .5zM96 432a80 80 0 1 1 160 0A80 80 0 1 1 96 432zm288 0a80 80 0 1 1 160 0 80 80 0 1 1 -160 0z"/></svg>