<svg xmlns="http://www.w3.org/2000/svg" viewBox="0 0 640 512"><!--! Font Awesome Pro 6.4.0 by @fontawesome - https://fontawesome.com License - https://fontawesome.com/license (Commercial License) Copyright 2023 Fonticons, Inc. --><defs><style>.fa-secondary{opacity:.4}</style></defs><path class="fa-primary" d="M48 0C21.5 0 0 21.5 0 48V368c0 26.5 21.5 48 48 48H65.1c7.8-54.3 54.4-96 110.9-96s103.1 41.7 110.9 96h66.3c7.8-54.3 54.4-96 110.9-96s103.1 41.7 110.9 96H576h32c17.7 0 32-14.3 32-32s-14.3-32-32-32V288 256 237.3c0-17-6.7-33.3-18.7-45.3L512 114.7c-12-12-28.3-18.7-45.3-18.7H416V48c0-26.5-21.5-48-48-48H48zM416 160h50.7L544 237.3V256H416V160z"/><path class="fa-secondary" d="M176 512a80 80 0 1 0 0-160 80 80 0 1 0 0 160zm288 0a80 80 0 1 0 0-160 80 80 0 1 0 0 160z"/></svg>