<svg xmlns="http://www.w3.org/2000/svg" viewBox="0 0 640 512"><!--! Font Awesome Pro 6.4.0 by @fontawesome - https://fontawesome.com License - https://fontawesome.com/license (Commercial License) Copyright 2023 Fonticons, Inc. --><defs><style>.fa-secondary{opacity:.4}</style></defs><path class="fa-primary" d="M269.9 96l57.6 96H192V96h77.9zm132.2 96L324.8 63.1C313.2 43.8 292.4 32 269.9 32H176c-26.5 0-48 21.5-48 48V192H32c-17.7 0-32 14.3-32 32v96c0 16 11.7 29.2 27 31.6C45 314 83.5 288 128 288c44.7 0 83.2 26.2 101.2 64h21.6c18-37.8 56.5-64 101.2-64s83.2 26.2 101.2 64H512v16c0 7.3 2.5 14.3 7 20l64 80c11 13.8 31.2 16 45 5s16-31.2 5-45l-57-71.2V320 187.2L633 116c11-13.8 8.8-33.9-5-45s-33.9-8.8-45 5l-64 80c-4.5 5.7-7 12.7-7 20V288H480V224c0-17.7-14.3-32-32-32H402.1z"/><path class="fa-secondary" d="M128 480a80 80 0 1 0 0-160 80 80 0 1 0 0 160zm224 0a80 80 0 1 0 0-160 80 80 0 1 0 0 160z"/></svg>