<svg xmlns="http://www.w3.org/2000/svg" viewBox="0 0 640 512"><!--! Font Awesome Pro 6.4.0 by @fontawesome - https://fontawesome.com License - https://fontawesome.com/license (Commercial License) Copyright 2023 Fonticons, Inc. --><defs><style>.fa-secondary{opacity:.4}</style></defs><path class="fa-primary" d="M336 128c-26.5 0-48 21.5-48 48V400c0 20.9 13.4 38.7 32 45.3V488c0 13.3 10.7 24 24 24h16c13.3 0 24-10.7 24-24V448H544v40c0 13.3 10.7 24 24 24h16c13.3 0 24-10.7 24-24V445.3c18.6-6.6 32-24.4 32-45.3V176c0-26.5-21.5-48-48-48H336zm16 176l15.8-49.3c3.3-8.7 11.2-14.7 20.5-14.7H539.7c9.2 0 17.2 6 20.5 14.7L576 304H352zm192 72a24 24 0 1 1 48 0 24 24 0 1 1 -48 0zM360 352a24 24 0 1 1 0 48 24 24 0 1 1 0-48z"/><path class="fa-secondary" d="M144 86.1C144 54.7 169.4 0 200 0c31.5 0 56 54.7 56 86.1v96.9l0 0c0 .4 0 .7 0 1.1V325.5 408v3.5l.1 .1c1.2 22.2 13.7 41.3 31.9 51.8V496c0 5.2 .8 10.3 2.4 15L200 480.9l-90.9 30.3c-4.9 1.6-10.2 .8-14.4-2.2s-6.6-7.8-6.6-13V464c0-4.9 2.2-9.5 6-12.5l50-40V330.3l-123.4 37c-4.8 1.5-10.1 .5-14.1-2.5S0 357.1 0 352V288c0-5.6 2.9-10.8 7.8-13.7L144 192.5V86.1z"/></svg>