<svg xmlns="http://www.w3.org/2000/svg" viewBox="0 0 512 512"><!--! Font Awesome Pro 6.4.0 by @fontawesome - https://fontawesome.com License - https://fontawesome.com/license (Commercial License) Copyright 2023 Fonticons, Inc. --><defs><style>.fa-secondary{opacity:.4}</style></defs><path class="fa-primary" d="M151.5 441.4c7 6.6 17.2 8.4 26 4.6s14.5-12.5 14.5-22l0-272c0-9.6-5.7-18.2-14.5-22s-19-2-26 4.6l-144 136C2.7 275.1 0 281.4 0 288s2.7 12.9 7.5 17.4l144 136z"/><path class="fa-secondary" d="M192 240v96H400c61.9 0 112-50.1 112-112V64c0-17.7-14.3-32-32-32H448c-17.7 0-32 14.3-32 32V224c0 8.8-7.2 16-16 16H192z"/></svg>