<svg xmlns="http://www.w3.org/2000/svg" viewBox="0 0 576 512"><!--! Font Awesome Pro 6.4.0 by @fontawesome - https://fontawesome.com License - https://fontawesome.com/license (Commercial License) Copyright 2023 Fonticons, Inc. --><defs><style>.fa-secondary{opacity:.4}</style></defs><path class="fa-primary" d="M64 256a160 160 0 1 1 320 0A160 160 0 1 1 64 256zm192 0a32 32 0 1 0 -64 0 32 32 0 1 0 64 0zM496 96c8.8 0 16 7.2 16 16V272.4c0 7.5-1.7 14.8-5.1 21.5l-16.2 32.4c6.1 9.2 7.2 21.4 1.9 31.9l-16 32c-7.9 15.8-27.1 22.2-42.9 14.3s-22.2-27.1-14.3-42.9l16-32c5.3-10.6 15.7-17 26.7-17.6l16.2-32.5c1.1-2.2 1.7-4.7 1.7-7.2V112c0-8.8 7.2-16 16-16z"/><path class="fa-secondary" d="M64 32C28.7 32 0 60.7 0 96V416c0 35.3 28.7 64 64 64H512c35.3 0 64-28.7 64-64V96c0-35.3-28.7-64-64-64H64zM224 96a160 160 0 1 1 0 320 160 160 0 1 1 0-320zm272 0c8.8 0 16 7.2 16 16V272.4c0 7.5-1.7 14.8-5.1 21.5l-16.2 32.4c6.1 9.2 7.2 21.4 1.9 31.9l-16 32c-7.9 15.8-27.1 22.2-42.9 14.3s-22.2-27.1-14.3-42.9l16-32c5.3-10.6 15.7-17 26.7-17.6l16.2-32.5c1.1-2.2 1.7-4.7 1.7-7.2V112c0-8.8 7.2-16 16-16z"/></svg>