<svg xmlns="http://www.w3.org/2000/svg" viewBox="0 0 576 512"><!--! Font Awesome Pro 6.4.0 by @fontawesome - https://fontawesome.com License - https://fontawesome.com/license (Commercial License) Copyright 2023 Fonticons, Inc. --><defs><style>.fa-secondary{opacity:.4}</style></defs><path class="fa-primary" d="M384 249.2V208c0-97.2-78.8-176-176-176S32 110.8 32 208v41.2C32 270.6 49.4 288 70.8 288H345.2c21.4 0 38.8-17.4 38.8-38.8z"/><path class="fa-secondary" d="M474.1 287.7c1.9 .2 3.9 .3 5.9 .3h32c35.3 0 64-28.7 64-64V208c0-53-43-96-96-96c-35.3 0-64 28.7-64 64v16 32 24c0 39.8-32.2 72-72 72H312 264 152 104 32c-17.7 0-32 14.3-32 32s14.3 32 32 32H64v56c0 22.1 17.9 40 40 40h48c22.1 0 40-17.9 40-40V384h32v56c0 22.1 17.9 40 40 40h48c22.1 0 40-17.9 40-40V383.8c57.8-3.4 105.9-42.8 122.1-96zM496 192a16 16 0 1 1 0 32 16 16 0 1 1 0-32z"/></svg>