<svg xmlns="http://www.w3.org/2000/svg" viewBox="0 0 512 512"><!--! Font Awesome Pro 6.4.0 by @fontawesome - https://fontawesome.com License - https://fontawesome.com/license (Commercial License) Copyright 2023 Fonticons, Inc. --><defs><style>.fa-secondary{opacity:.4}</style></defs><path class="fa-primary" d="M448 93.3V96H384c-17.7 0-32-14.3-32-32V0h2.7c17 0 33.3 6.7 45.3 18.7L429.3 48c12 12 18.7 28.3 18.7 45.3zM0 256V224c0-17.7 14.3-32 32-32H146.7c8.5 0 16.6 3.4 22.6 9.4l13.3 13.3c6 6 14.1 9.4 22.6 9.4H306.7c8.5 0 16.6-3.4 22.6-9.4l13.3-13.3c6-6 14.1-9.4 22.6-9.4H480c17.7 0 32 14.3 32 32v32c0 17.7-14.3 32-32 32V448c0 35.3-28.7 64-64 64H96c-35.3 0-64-28.7-64-64V288c-17.7 0-32-14.3-32-32zm176 48a16 16 0 1 0 -32 0 16 16 0 1 0 32 0zm32 0a16 16 0 1 0 32 0 16 16 0 1 0 -32 0zm96 0a16 16 0 1 0 -32 0 16 16 0 1 0 32 0zm32 0a16 16 0 1 0 32 0 16 16 0 1 0 -32 0zm96 0a16 16 0 1 0 -32 0 16 16 0 1 0 32 0zM80 304a16 16 0 1 0 32 0 16 16 0 1 0 -32 0zm64 128c0 8.8 7.2 16 16 16H352c8.8 0 16-7.2 16-16s-7.2-16-16-16H160c-8.8 0-16 7.2-16 16zm0-64a16 16 0 1 0 -32 0 16 16 0 1 0 32 0zm64 0a16 16 0 1 0 -32 0 16 16 0 1 0 32 0zm48 16a16 16 0 1 0 0-32 16 16 0 1 0 0 32zm80-16a16 16 0 1 0 -32 0 16 16 0 1 0 32 0zm48 16a16 16 0 1 0 0-32 16 16 0 1 0 0 32z"/><path class="fa-secondary" d="M64 64C64 28.7 92.7 0 128 0H354.7c17 0 33.3 6.7 45.3 18.7L429.3 48c12 12 18.7 28.3 18.7 45.3V192H365.3c-8.5 0-16.6 3.4-22.6 9.4l-13.3 13.3c-6 6-14.1 9.4-22.6 9.4H205.3c-8.5 0-16.6-3.4-22.6-9.4l-13.3-13.3c-6-6-14.1-9.4-22.6-9.4H64V64z"/></svg>