<svg xmlns="http://www.w3.org/2000/svg" viewBox="0 0 576 512"><!--! Font Awesome Pro 6.4.0 by @fontawesome - https://fontawesome.com License - https://fontawesome.com/license (Commercial License) Copyright 2023 Fonticons, Inc. --><defs><style>.fa-secondary{opacity:.4}</style></defs><path class="fa-primary" d="M288 192c110.8 0 144-53.3 144-53.3c0-9.3-1-18.8-2.9-28.3C516.8 129.5 576 166.1 576 208c0 61.9-128.9 112-288 112S0 269.9 0 208c0-41.9 59.2-78.5 146.9-97.7c-2 9.5-2.9 19-2.9 28.3c0 0 33.2 53.3 144 53.3zM120 208a24 24 0 1 0 -48 0 24 24 0 1 0 48 0zm360 24a24 24 0 1 0 0-48 24 24 0 1 0 0 48zM312 256a24 24 0 1 0 -48 0 24 24 0 1 0 48 0z"/><path class="fa-secondary" d="M288 192c110.8 0 144-53.3 144-53.3C432 74.7 385.9 0 288 0S144 74.7 144 138.7c0 0 33.2 53.3 144 53.3zM2.3 477.7c-5.7 12-.6 26.3 11.4 32s26.3 .6 32-11.4l92.2-194.7c-16.7-4-32.3-8.6-46.6-13.8L2.3 477.7zm528 20.5c5.7 12 20 17.1 32 11.4s17.1-20 11.4-32l-89-187.9c-14.2 5.2-29.9 9.8-46.6 13.8l92.2 194.7z"/></svg>