<svg xmlns="http://www.w3.org/2000/svg" viewBox="0 0 640 512"><!--! Font Awesome Pro 6.4.0 by @fontawesome - https://fontawesome.com License - https://fontawesome.com/license (Commercial License) Copyright 2023 Fonticons, Inc. --><defs><style>.fa-secondary{opacity:.4}</style></defs><path class="fa-primary" d="M320 288c124.2 0 176-50.9 176-50.9c0-8.3-.6-16.5-1.7-24.5C582 235.5 640 275 640 320c0 70.7-143.3 128-320 128S0 390.7 0 320c0-45 58-84.5 145.7-107.4c-1.2 8-1.7 16.2-1.7 24.5c0 0 51.8 50.9 176 50.9zm24 88a24 24 0 1 0 -48 0 24 24 0 1 0 48 0zM128 352a24 24 0 1 0 0-48 24 24 0 1 0 0 48zm408-24a24 24 0 1 0 -48 0 24 24 0 1 0 48 0z"/><path class="fa-secondary" d="M496 237.1s-51.8 50.9-176 50.9s-176-50.9-176-50.9C144 141.5 222.8 64 320 64s176 77.5 176 173.1z"/></svg>