<svg xmlns="http://www.w3.org/2000/svg" viewBox="0 0 512 512"><!--! Font Awesome Pro 6.4.0 by @fontawesome - https://fontawesome.com License - https://fontawesome.com/license (Commercial License) Copyright 2023 Fonticons, Inc. --><defs><style>.fa-secondary{opacity:.4}</style></defs><path class="fa-primary" d="M288 32c0-17.7-14.3-32-32-32s-32 14.3-32 32v2C108.2 48.4 16.4 140.2 2 256.1C-.2 273.6 14.3 288 32 288H480c17.7 0 32.2-14.4 30-31.9C495.6 140.2 403.8 48.4 288 34V32z"/><path class="fa-secondary" d="M288 288V430.6c0 45-36.5 81.4-81.4 81.4c-30.8 0-59-17.4-72.8-45l-2.3-4.7c-7.9-15.8-1.5-35 14.3-42.9s35-1.5 42.9 14.3l2.3 4.7c3 5.9 9 9.6 15.6 9.6c9.6 0 17.4-7.8 17.4-17.4V288h64z"/></svg>