<svg xmlns="http://www.w3.org/2000/svg" viewBox="0 0 576 512"><!--! Font Awesome Pro 6.4.0 by @fontawesome - https://fontawesome.com License - https://fontawesome.com/license (Commercial License) Copyright 2023 Fonticons, Inc. --><defs><style>.fa-secondary{opacity:.4}</style></defs><path class="fa-primary" d="M320 32c0-17.7-14.3-32-32-32s-32 14.3-32 32V49.7C124.2 63.4 18.3 161 2.1 285.9c-2 15.6 17.3 24.4 27.8 12.7C43.9 283 71.2 272 96 272c38.7 0 71 27.5 78.4 64.1c1.7 8.7 8.7 15.9 17.6 15.9s15.8-7.2 17.6-15.9C217 299.5 249.3 272 288 272s71 27.5 78.4 64.1c1.7 8.7 8.7 15.9 17.6 15.9s15.8-7.2 17.6-15.9C409 299.5 441.3 272 480 272c24.8 0 52.1 11 66.1 26.7c10.5 11.7 29.8 2.9 27.8-12.7C557.7 161 451.8 63.4 320 49.7V32z"/><path class="fa-secondary" d="M256 278.7c9.8-4.3 20.6-6.7 32-6.7s22.2 2.4 32 6.7V430.6c0 45-36.5 81.4-81.4 81.4c-30.8 0-59-17.4-72.8-45l-2.3-4.7c-7.9-15.8-1.5-35 14.3-42.9s35-1.5 42.9 14.3l2.3 4.7c3 5.9 9 9.6 15.6 9.6c9.6 0 17.4-7.8 17.4-17.4V278.7z"/></svg>