<svg xmlns="http://www.w3.org/2000/svg" viewBox="0 0 640 512"><!--! Font Awesome Pro 6.4.0 by @fontawesome - https://fontawesome.com License - https://fontawesome.com/license (Commercial License) Copyright 2023 Fonticons, Inc. --><defs><style>.fa-secondary{opacity:.4}</style></defs><path class="fa-primary" d="M448 238.1V160l9.8 19.6c12.5 25.1 42.2 36.4 68.3 26c20.5-8.2 33.9-28 33.9-50.1V80c0-19.1-8.4-36.3-21.7-48H544c8.8 0 16-7.2 16-16s-7.2-16-16-16H480 464 448C377.3 0 320 57.3 320 128H224 203.2 148.8C102 128 64 166 64 212.8c0 16.8 5 33.1 14.2 47.1l28.2 42.4c8.3 12.4 6.4 28.7-1.2 41.6c-16.5 28-20.6 62.2-10 93.9l17.5 52.4c4.4 13.1 16.6 21.9 30.4 21.9h33.7c21.8 0 37.3-21.4 30.4-42.1l-20.8-62.5c-2.1-6.4-.5-13.4 4.3-18.2l12.7-12.7c13.2-13.2 20.6-31.1 20.6-49.7c0-2.3-.1-4.6-.3-6.9l84 24c4.1 1.2 8.2 2.1 12.3 2.8V480c0 17.7 14.3 32 32 32h32c17.7 0 32-14.3 32-32V315.7c19.2-19.2 31.5-45.7 32-75.7h0v-1.9zM496 64a16 16 0 1 1 0 32 16 16 0 1 1 0-32z"/><path class="fa-secondary" d="M560 90.7l73.6-24.5c3.8-1.3 6.4-4.8 6.4-8.8c0-5.1-4.2-9.3-9.3-9.3H551.4c5.4 9.4 8.6 20.3 8.6 32V90.7zM48 256c0-13.4 6.6-25.2 16.7-32.5c-.4-3.5-.7-7.1-.7-10.7c0-16.1 4.5-31.2 12.3-44.1C33.2 174.5 0 211.4 0 256v56c0 13.3 10.7 24 24 24s24-10.7 24-24V256z"/></svg>