<svg xmlns="http://www.w3.org/2000/svg" viewBox="0 0 320 512"><!--! Font Awesome Pro 6.4.0 by @fontawesome - https://fontawesome.com License - https://fontawesome.com/license (Commercial License) Copyright 2023 Fonticons, Inc. --><defs><style>.fa-secondary{opacity:.4}</style></defs><path class="fa-primary" d="M313.4 151.5c6.6 7 8.4 17.2 4.6 26s-12.5 14.5-22 14.5H224L96 192H24c-9.6 0-18.2-5.7-22-14.5s-2-19 4.6-26l136-144C147.1 2.7 153.4 0 160 0s12.9 2.7 17.4 7.5l136 144z"/><path class="fa-secondary" d="M224 192H96v0h0l0 288c0 17.7 14.3 32 32 32h64c17.7 0 32-14.3 32-32l0-160h0V192z"/></svg>