<svg xmlns="http://www.w3.org/2000/svg" viewBox="0 0 448 512"><!--! Font Awesome Pro 6.4.0 by @fontawesome - https://fontawesome.com License - https://fontawesome.com/license (Commercial License) Copyright 2023 Fonticons, Inc. --><defs><style>.fa-secondary{opacity:.4}</style></defs><path class="fa-primary" d="M176 112H128h0v32c0 53 43 96 96 96s96-43 96-96V128h0V96h-8c-22.8 0-42.8-11.9-54.1-29.8C241 93.7 210.6 112 176 112zm48 160H70.6C58.1 272 48 261.9 48 249.4c0-6 2.4-11.8 6.6-16l3.9-3.9c24-24 37.5-56.6 37.5-90.5V128h0C96 57.3 153.3 0 224 0c70.6 0 127.8 57.1 128 127.6v.8l0 .2V139c0 33.9 13.5 66.5 37.5 90.5l3.9 3.9c4.2 4.2 6.6 10 6.6 16c0 12.5-10.1 22.6-22.6 22.6H224zm-78.1 42.9L210.7 412c6.3 9.5 20.3 9.5 26.6 0l64.8-97.1c3.5-5.2 9.8-8 15.9-6.6c74.5 17.2 130 84 130 163.7v8c0 17.7-14.3 32-32 32H32c-17.7 0-32-14.3-32-32v-8c0-79.7 55.5-146.5 130-163.7c6.1-1.4 12.4 1.4 15.9 6.6z"/><path class="fa-secondary" d="M257.9 66.2C241 93.7 210.6 112 176 112H128l0 32c0 53 43 96 96 96s96-43 96-96l0-48h-8c-22.8 0-42.8-11.9-54.1-29.8z"/></svg>