<svg xmlns="http://www.w3.org/2000/svg" viewBox="0 0 448 512"><!--! Font Awesome Pro 6.4.0 by @fontawesome - https://fontawesome.com License - https://fontawesome.com/license (Commercial License) Copyright 2023 Fonticons, Inc. --><defs><style>.fa-secondary{opacity:.4}</style></defs><path class="fa-primary" d="M224 16c-6.7 0-10.8-2.8-15.5-6.1C201.9 5.4 194 0 176 0c-30.5 0-52 43.7-66 89.4C62.7 98.1 32 112.2 32 128c0 17.8 38.6 33.3 96 41.6V184c0 22.1 17.9 40 40 40h12.4c16.5 0 31.1-10.6 36.3-26.2c2.3-7 12.2-7 14.5 0c5.2 15.6 19.9 26.2 36.3 26.2H280c22.1 0 40-17.9 40-40V169.6c57.4-8.3 96-23.8 96-41.6c0-15.8-30.7-29.9-78-38.6C324 43.7 302.5 0 272 0c-18 0-25.9 5.4-32.5 9.9c-4.8 3.3-8.8 6.1-15.5 6.1zm44.1 496H417.3c17 0 30.7-13.8 30.7-30.7c0-57-29.6-107.1-74.2-135.8L415 242.4c.6-1.6 1-3.3 1-5c0-7.4-6-13.4-13.4-13.4h-59L273.7 490.5l-34-116.6 17.8-29.6c6.4-10.7-1.3-24.2-13.7-24.2H224 204.3c-12.4 0-20.1 13.6-13.7 24.2l17.8 29.6-34 116.6L104.4 224h-59C38 224 32 230 32 237.4c0 1.7 .3 3.4 1 5L74.2 345.5C29.6 374.2 0 424.3 0 481.3c0 17 13.8 30.7 30.7 30.7H179.9h88.1z"/><path class="fa-secondary" d="M128 169.6V184c0 22.1 17.9 40 40 40h12.4c16.5 0 31.1-10.6 36.3-26.2c2.3-7 12.2-7 14.5 0c5.2 15.6 19.9 26.2 36.3 26.2H280c22.1 0 40-17.9 40-40V169.6c5.5-.8 10.9-1.7 16-2.6v17c0 61.9-50.1 112-112 112s-112-50.1-112-112V167c5.1 .9 10.5 1.8 16 2.6z"/></svg>