<svg xmlns="http://www.w3.org/2000/svg" viewBox="0 0 448 512"><!--! Font Awesome Pro 6.4.0 by @fontawesome - https://fontawesome.com License - https://fontawesome.com/license (Commercial License) Copyright 2023 Fonticons, Inc. --><defs><style>.fa-secondary{opacity:.4}</style></defs><path class="fa-primary" d="M144 112h0c33.4 0 62.8-17 80-42.9C241.2 95 270.6 112 304 112h0 8 32c8.8 0 16-7.2 16-16V94.8c0-9.1-5.1-17.4-13.3-21.5l-9.2-4.6C316.1 27.9 273.3 0 224 0c-48.4 0-90.5 26.8-112.2 66.4l-11.7 6.7C92.6 77.4 88 85.3 88 93.9V96c0 8.8 7.2 16 16 16h32 8zm196.1 49.9c-11.4 47.7-46.9 84.3-95.4 92.4L283 287.2c4.2 3.6 9.7 5.3 15.2 4.7s10.5-3.5 13.8-7.9l14-18.6 17.1 8.5c8.8 4.4 19.4 1.8 25.2-6.2s4.9-18.9-2.1-25.8c-13.9-13.9-19.7-24.7-22.7-37.4c-2.6-11-3.3-23.9-3.4-42.5zM204.5 254.5c-49.1-7.7-85-44.5-96.6-92.6c-.2 18.6-.8 31.5-3.4 42.5c-3 12.7-8.8 23.6-22.7 37.4c-6.9 6.9-7.8 17.9-2.1 25.8s16.4 10.6 25.2 6.2l17.1-8.5L136 284c3.3 4.4 8.2 7.2 13.6 7.9s10.9-1 15.1-4.5l39.8-32.9zM161.3 320C72.2 320 0 392.2 0 481.3c0 17 13.8 30.7 30.7 30.7H417.3c17 0 30.7-13.8 30.7-30.7C448 392.2 375.8 320 286.7 320H161.3z"/><path class="fa-secondary" d="M144 112h0c33.4 0 62.8-17 80-42.9C241.2 95 270.6 112 304 112h0 8 31.1c.6 5.2 .9 10.6 .9 16c0 70.7-49.3 128-120 128s-120-57.3-120-128c0-5.4 .3-10.8 .9-16H136h8z"/></svg>