<svg xmlns="http://www.w3.org/2000/svg" viewBox="0 0 448 512"><!--! Font Awesome Pro 6.4.0 by @fontawesome - https://fontawesome.com License - https://fontawesome.com/license (Commercial License) Copyright 2023 Fonticons, Inc. --><defs><style>.fa-secondary{opacity:.4}</style></defs><path class="fa-primary" d="M348 96c-6.7-25.9-21.3-48.7-41.1-65.5L222.6 96H348zM224 0C164.4 0 114.2 40.8 100 96h70.5L278.4 12.1C261.9 4.3 243.4 0 224 0zm38.4 512L140.1 308.1c-28.5 6.2-54.5 19.3-76.1 37.3V512H262.4z"/><path class="fa-secondary" d="M96 128c0-11 1.4-21.8 4-32H348c2.6 10.2 4 21 4 32c0 70.7-57.3 128-128 128s-128-57.3-128-128zM272 512h-9.6l-57.6-96H272c26.5 0 48 21.5 48 48s-21.5 48-48 48zm0-128H185.6l-45.5-75.9c12.3-2.7 25.1-4.1 38.2-4.1h91.4C368.2 304 448 383.8 448 482.3c0 16.4-13.3 29.7-29.7 29.7H336c10-13.4 16-30 16-48c0-44.2-35.8-80-80-80zM0 482.3c0-55 24.9-104.1 64-136.8V512H29.7C13.3 512 0 498.7 0 482.3z"/></svg>