<svg xmlns="http://www.w3.org/2000/svg" viewBox="0 0 448 512"><!--! Font Awesome Pro 6.4.0 by @fontawesome - https://fontawesome.com License - https://fontawesome.com/license (Commercial License) Copyright 2023 Fonticons, Inc. --><defs><style>.fa-secondary{opacity:.4}</style></defs><path class="fa-primary" d="M80 128c0-35.3 28.7-64 64-64H304c35.3 0 64 28.7 64 64V256c0 35.3-28.7 64-64 64H144c-35.3 0-64-28.7-64-64V128zm64 128a16 16 0 1 0 32 0 16 16 0 1 0 -32 0zm80-16a16 16 0 1 0 0 32 16 16 0 1 0 0-32zm48 16a16 16 0 1 0 32 0 16 16 0 1 0 -32 0zM136.5 119.5c-4.7-4.7-12.3-4.7-17 0s-4.7 12.3 0 17L143 160l-23.5 23.5c-4.7 4.7-4.7 12.3 0 17s12.3 4.7 17 0L160 177l23.5 23.5c4.7 4.7 12.3 4.7 17 0s4.7-12.3 0-17L177 160l23.5-23.5c4.7-4.7 4.7-12.3 0-17s-12.3-4.7-17 0L160 143l-23.5-23.5zm111 0c-4.7 4.7-4.7 12.3 0 17L271 160l-23.5 23.5c-4.7 4.7-4.7 12.3 0 17s12.3 4.7 17 0L288 177l23.5 23.5c4.7 4.7 12.3 4.7 17 0s4.7-12.3 0-17L305 160l23.5-23.5c4.7-4.7 4.7-12.3 0-17s-12.3-4.7-17 0L288 143l-23.5-23.5c-4.7-4.7-12.3-4.7-17 0zM0 448c0-53 43-96 96-96H352c53 0 96 43 96 96v32c0 17.7-14.3 32-32 32H352V448c0-17.7-14.3-32-32-32H128c-17.7 0-32 14.3-32 32v64H32c-17.7 0-32-14.3-32-32V448z"/><path class="fa-secondary" d="M240 16c0-8.8-7.2-16-16-16s-16 7.2-16 16V64h32V16zM64 128c-17.7 0-32 14.3-32 32v64c0 17.7 14.3 32 32 32H80V128H64zM176 464c0-8.8-7.2-16-16-16s-16 7.2-16 16v48h32V464zm64 0c0-8.8-7.2-16-16-16s-16 7.2-16 16v48h32V464zm48-16c-8.8 0-16 7.2-16 16v48h32V464c0-8.8-7.2-16-16-16zM416 160c0-17.7-14.3-32-32-32H368V256h16c17.7 0 32-14.3 32-32V160z"/></svg>