<svg xmlns="http://www.w3.org/2000/svg" viewBox="0 0 640 512"><!--! Font Awesome Pro 6.4.0 by @fontawesome - https://fontawesome.com License - https://fontawesome.com/license (Commercial License) Copyright 2023 Fonticons, Inc. --><defs><style>.fa-secondary{opacity:.4}</style></defs><path class="fa-primary" d="M640 184c0-7.7-3.7-15-10-19.5s-14.3-5.7-21.6-3.3l-192 64c-9.8 3.3-16.4 12.4-16.4 22.8v48V417.5c-5.1-1-10.5-1.5-16-1.5c-35.3 0-64 21.5-64 48s28.7 48 64 48s64-21.5 64-48V313.3l144-48v88.2c-5.1-1-10.5-1.5-16-1.5c-35.3 0-64 21.5-64 48s28.7 48 64 48s64-21.5 64-48c0-1.5-.1-3-.3-4.4c.2-1.2 .3-2.4 .3-3.6V232 184z"/><path class="fa-secondary" d="M96 128a128 128 0 1 1 256 0A128 128 0 1 1 96 128zM0 482.3C0 383.8 79.8 304 178.3 304h91.4c36.3 0 70.1 10.9 98.3 29.5v51.6c-18 2.5-34.8 9.1-48.5 19.4c-17.6 13.2-31.5 34-31.5 59.5c0 19.1 7.7 35.4 18.9 48H29.7C13.3 512 0 498.7 0 482.3z"/></svg>