<svg xmlns="http://www.w3.org/2000/svg" viewBox="0 0 640 512"><!--! Font Awesome Pro 6.4.0 by @fontawesome - https://fontawesome.com License - https://fontawesome.com/license (Commercial License) Copyright 2023 Fonticons, Inc. --><defs><style>.fa-secondary{opacity:.4}</style></defs><path class="fa-primary" d="M5.1 9.2C13.3-1.2 28.4-3.1 38.8 5.1l592 464c10.4 8.2 12.3 23.3 4.1 33.7s-23.3 12.3-33.7 4.1L9.2 42.9C-1.2 34.7-3.1 19.6 5.1 9.2z"/><path class="fa-secondary" d="M448 128c0 59.2-40.1 109-94.7 123.6L192 125.2C193.5 55.8 250.2 0 320 0c70.7 0 128 57.3 128 128zM264.3 304.3l261 205.6c-3.4 1.4-7.1 2.1-11 2.1H125.7C109.3 512 96 498.7 96 482.3c0-95.1 74.5-172.9 168.3-178z"/></svg>