<svg xmlns="http://www.w3.org/2000/svg" viewBox="0 0 512 512"><!--! Font Awesome Pro 6.4.0 by @fontawesome - https://fontawesome.com License - https://fontawesome.com/license (Commercial License) Copyright 2023 Fonticons, Inc. --><defs><style>.fa-secondary{opacity:.4}</style></defs><path class="fa-primary" d="M0 256a256 256 0 1 1 512 0A256 256 0 1 1 0 256zM155.3 155.3c55.6-55.6 145.8-55.6 201.4 0s55.6 145.8 0 201.4c-6.2 6.2-6.2 16.4 0 22.6s16.4 6.2 22.6 0c68.1-68.1 68.1-178.5 0-246.6s-178.5-68.1-246.6 0c-6.2 6.2-6.2 16.4 0 22.6s16.4 6.2 22.6 0zm80 57.4c-6.2-6.2-16.4-6.2-22.6 0s-6.2 16.4 0 22.6l64 64c6.2 6.2 16.4 6.2 22.6 0s6.2-16.4 0-22.6l-64-64zm-80 16c-6.2-6.2-16.4-6.2-22.6 0s-6.2 16.4 0 22.6l128 128c6.2 6.2 16.4 6.2 22.6 0s6.2-16.4 0-22.6l-128-128zm-38.6 80c-6.2 6.2-6.2 16.4 0 22.6l64 64c6.2 6.2 16.4 6.2 22.6 0s6.2-16.4 0-22.6l-64-64c-6.2-6.2-16.4-6.2-22.6 0z"/><path class="fa-secondary" d="M212.7 212.7c6.2-6.2 16.4-6.2 22.6 0l64 64c6.2 6.2 6.2 16.4 0 22.6s-16.4 6.2-22.6 0l-64-64c-6.2-6.2-6.2-16.4 0-22.6zm-80 16c6.2-6.2 16.4-6.2 22.6 0l128 128c6.2 6.2 6.2 16.4 0 22.6s-16.4 6.2-22.6 0l-128-128c-6.2-6.2-6.2-16.4 0-22.6zm-16 102.6c-6.2-6.2-6.2-16.4 0-22.6s16.4-6.2 22.6 0l64 64c6.2 6.2 6.2 16.4 0 22.6s-16.4 6.2-22.6 0l-64-64z"/></svg>