<svg xmlns="http://www.w3.org/2000/svg" viewBox="0 0 448 512"><!--! Font Awesome Pro 6.4.0 by @fontawesome - https://fontawesome.com License - https://fontawesome.com/license (Commercial License) Copyright 2023 Fonticons, Inc. --><defs><style>.fa-secondary{opacity:.4}</style></defs><path class="fa-primary" d="M131.6 10.9C129.5 4.4 123.4 0 116.5 0H112C85.5 0 64 21.5 64 48v97.5c0 9.5-2.8 18.7-8.1 26.6L8.1 243.9C2.8 251.8 0 261.1 0 270.5V464c0 26.5 21.5 48 48 48H176c9.9 0 19-3 26.7-8.1C195.9 492.2 192 478.5 192 464V295.8c0-8.6 1.4-17.1 4.1-25.3l11-33.1L131.6 10.9zM224 295.8V464c0 26.5 21.5 48 48 48H400c26.5 0 48-21.5 48-48V270.5c0-9.5-2.8-18.7-8.1-26.6l-47.9-71.8c-5.3-7.9-8.1-17.1-8.1-26.6V48c0-26.5-21.5-48-48-48h-4.5c-6.9 0-13 4.4-15.2 10.9L226.5 280.6c-1.6 4.9-2.5 10-2.5 15.2zm123.3 60.9l48 48c6.2 6.2 6.2 16.4 0 22.6s-16.4 6.2-22.6 0l-48-48c-6.2-6.2-6.2-16.4 0-22.6s16.4-6.2 22.6 0zm-246.6 0c6.2-6.2 16.4-6.2 22.6 0s6.2 16.4 0 22.6l-48 48c-6.2 6.2-16.4 6.2-22.6 0s-6.2-16.4 0-22.6l48-48z"/><path class="fa-secondary" d="M224 88c-31.4 0-55.4-8.3-72.8-18.3L131.6 10.9C129.5 4.6 123.7 .3 117.1 0c.4 0 .8 0 1.2 0c18.8 0 34.1 9.7 44.1 18.8C171.6 27.2 190.8 40 224 40s52.4-12.8 61.7-21.2C295.7 9.7 311 0 329.7 0c.4 0 .8 0 1.2 0c-6.6 .3-12.4 4.6-14.6 10.9L296.8 69.7C279.4 79.7 255.4 88 224 88zM123.3 356.7c6.2 6.2 6.2 16.4 0 22.6l-48 48c-6.2 6.2-16.4 6.2-22.6 0s-6.2-16.4 0-22.6l48-48c6.2-6.2 16.4-6.2 22.6 0zm201.4 0c6.2-6.2 16.4-6.2 22.6 0l48 48c6.2 6.2 6.2 16.4 0 22.6s-16.4 6.2-22.6 0l-48-48c-6.2-6.2-6.2-16.4 0-22.6z"/></svg>