<svg xmlns="http://www.w3.org/2000/svg" viewBox="0 0 448 512"><!--! Font Awesome Pro 6.4.0 by @fontawesome - https://fontawesome.com License - https://fontawesome.com/license (Commercial License) Copyright 2023 Fonticons, Inc. --><defs><style>.fa-secondary{opacity:.4}</style></defs><path class="fa-primary" d="M207.1 237.4l-11 33.1c-2.7 8.2-4.1 16.7-4.1 25.3V464c0 14.5 3.9 28.2 10.7 39.9C195 509 185.9 512 176 512H48c-26.5 0-48-21.5-48-48V270.5c0-9.5 2.8-18.7 8.1-26.6l47.9-71.8c5.3-7.9 8.1-17.1 8.1-26.6V48C64 21.5 85.5 0 112 0h4.5c6.9 0 13 4.4 15.2 10.9l75.5 226.5zM224 464V295.8c0-5.2 .8-10.3 2.5-15.2L316.4 10.9C318.5 4.4 324.6 0 331.5 0H336c26.5 0 48 21.5 48 48v97.5c0 9.5 2.8 18.7 8.1 26.6l47.9 71.8c5.3 7.9 8.1 17.1 8.1 26.6V464c0 26.5-21.5 48-48 48H272c-26.5 0-48-21.5-48-48zM96 456a40 40 0 1 0 0-80 40 40 0 1 0 0 80zM63.5 255.5c-4.7 4.7-4.7 12.3 0 17L79 288 63.5 303.5c-4.7 4.7-4.7 12.3 0 17s12.3 4.7 17 0L96 305l15.5 15.5c4.7 4.7 12.3 4.7 17 0s4.7-12.3 0-17L113 288l15.5-15.5c4.7-4.7 4.7-12.3 0-17s-12.3-4.7-17 0L96 271 80.5 255.5c-4.7-4.7-12.3-4.7-17 0zM304 280v8 32c0 8.8 7.2 16 16 16h32 8c13.3 0 24-10.7 24-24s-10.7-24-24-24h-8v-8c0-13.3-10.7-24-24-24s-24 10.7-24 24z"/><path class="fa-secondary" d="M224 88c-31.4 0-55.4-8.3-72.8-18.3L131.6 10.9C129.5 4.6 123.7 .3 117.1 0c.4 0 .8 0 1.2 0c18.8 0 34.1 9.7 44.1 18.8C171.6 27.2 190.8 40 224 40s52.4-12.8 61.7-21.2C295.7 9.7 311 0 329.7 0c.4 0 .8 0 1.2 0c-6.6 .3-12.4 4.6-14.6 10.9L296.8 69.7C279.4 79.7 255.4 88 224 88zm80 200v-8c0-13.3 10.7-24 24-24s24 10.7 24 24v8h8c13.3 0 24 10.7 24 24s-10.7 24-24 24h-8H320c-8.8 0-16-7.2-16-16V288zM56 416a40 40 0 1 1 80 0 40 40 0 1 1 -80 0z"/></svg>