<svg xmlns="http://www.w3.org/2000/svg" viewBox="0 0 512 512"><!--! Font Awesome Pro 6.4.0 by @fontawesome - https://fontawesome.com License - https://fontawesome.com/license (Commercial License) Copyright 2023 Fonticons, Inc. --><defs><style>.fa-secondary{opacity:.4}</style></defs><path class="fa-primary" d="M306.7 256H205.3L73.4 387.9c-6 6-9.4 14.1-9.4 22.6V416c0 17.7 14.3 32 32 32h5.5c8.5 0 16.6-3.4 22.6-9.4L306.7 256z"/><path class="fa-secondary" d="M297.4 9.4c12.5-12.5 32.8-12.5 45.3 0l32 32 96 96 32 32c12.5 12.5 12.5 32.8 0 45.3s-32.8 12.5-45.3 0l-9.4-9.4L169.4 483.9c-18 18-42.4 28.1-67.9 28.1H96c-53 0-96-43-96-96v-5.5c0-25.5 10.1-49.9 28.1-67.9L306.7 64l-9.4-9.4c-12.5-12.5-12.5-32.8 0-45.3zM352 109.3L73.4 387.9c-6 6-9.4 14.1-9.4 22.6V416c0 17.7 14.3 32 32 32h5.5c8.5 0 16.6-3.4 22.6-9.4L402.7 160 352 109.3z"/></svg>