<svg xmlns="http://www.w3.org/2000/svg" viewBox="0 0 576 512"><!--! Font Awesome Pro 6.4.0 by @fontawesome - https://fontawesome.com License - https://fontawesome.com/license (Commercial License) Copyright 2023 Fonticons, Inc. --><defs><style>.fa-secondary{opacity:.4}</style></defs><path class="fa-primary" d="M559.1 99.8c10.4 5.6 16.9 16.4 16.9 28.2V384c0 11.8-6.5 22.6-16.9 28.2s-23 5-32.9-1.6L384 315.8V196.2l142.2-94.8c9.8-6.5 22.4-7.2 32.9-1.6zM152 160H264c13.3 0 24 10.7 24 24V296c0 13.3-10.7 24-24 24s-24-10.7-24-24V241.9L137 345c-9.4 9.4-24.6 9.4-33.9 0s-9.4-24.6 0-33.9l103-103H152c-13.3 0-24-10.7-24-24s10.7-24 24-24z"/><path class="fa-secondary" d="M64 64C28.7 64 0 92.7 0 128V384c0 35.3 28.7 64 64 64H320c35.3 0 64-28.7 64-64V128c0-35.3-28.7-64-64-64H64zm88 96H264c13.3 0 24 10.7 24 24V296c0 13.3-10.7 24-24 24s-24-10.7-24-24V241.9L137 345c-9.4 9.4-24.6 9.4-33.9 0s-9.4-24.6 0-33.9l103-103H152c-13.3 0-24-10.7-24-24s10.7-24 24-24z"/></svg>