<svg xmlns="http://www.w3.org/2000/svg" viewBox="0 0 512 512"><!--! Font Awesome Pro 6.4.0 by @fontawesome - https://fontawesome.com License - https://fontawesome.com/license (Commercial License) Copyright 2023 Fonticons, Inc. --><defs><style>.fa-secondary{opacity:.4}</style></defs><path class="fa-primary" d="M160 144c14.7 0 28.3-5 39.1-13.3l32 48C236.7 187 246 192 256 192s19.3-5 24.9-13.3l32-48C323.7 139 337.3 144 352 144c35.3 0 64-28.7 64-64s-28.7-64-64-64c-15.7 0-30 5.6-41.2 15C299.6 12.4 279.3 0 256 0s-43.6 12.4-54.8 31C190 21.6 175.7 16 160 16c-35.3 0-64 28.7-64 64s28.7 64 64 64zm31.1 187.2c11-7.3 23.9-11.2 37.1-11.2c17.8 0 34.8 7.1 47.3 19.6l34.5 34.5c6.3 6.3 14.9 9.9 23.8 9.9c11.3 0 21.8-5.6 28-15l37.2-55.8-50.6-56.9c-18.2-20.5-44.3-32.2-71.8-32.2H235.1c-27.4 0-53.5 11.7-71.8 32.2L96.7 331.2l17.9 12c8.7 5.8 18.9 8.9 29.3 8.9s20.6-3.1 29.3-8.9l17.8-11.9z"/><path class="fa-secondary" d="M173.3 343.1l17.8-11.9c11-7.3 23.9-11.2 37.1-11.2c17.8 0 34.8 7.1 47.3 19.6l34.5 34.5c6.3 6.3 14.9 9.9 23.8 9.9c11.3 0 21.8-5.6 28-15l37.2-55.8 99.6 112c8.5 9.6 13.2 21.9 13.2 34.7c0 28.8-23.4 52.2-52.2 52.2H52.2C23.4 512 0 488.6 0 459.8c0-12.8 4.7-25.1 13.2-34.7l83.6-94 17.9 12c8.7 5.8 18.9 8.9 29.3 8.9s20.6-3.1 29.3-8.9z"/></svg>