<svg xmlns="http://www.w3.org/2000/svg" viewBox="0 0 512 512"><!-- Font Awesome Pro 6.0.0-alpha2 by @fontawesome - https://fontawesome.com License - https://fontawesome.com/license (Commercial License) --><defs><style>.fa-secondary{opacity:.4}</style></defs><path d="M240.17 246.422C240.086 228.824 237.367 185.535 215.258 135.27C180.836 148.16 72.197 199.859 33.633 346.066C47.418 380.059 68.816 410.043 95.639 434.199C130.367 318.742 212.752 262.348 240.17 246.422ZM200.609 106.652C188.039 84.801 171.389 62.48 149.695 41.066C70.549 80.297 16 161.676 16 256C16 267.496 17.086 278.719 18.648 289.785C67.943 169.801 162.389 121.672 200.609 106.652ZM380.932 281.113C386.98 244.91 396.535 125.09 289.393 18.59C278.451 17.062 267.363 16 256 16C230.049 16 205.117 20.238 181.709 27.859C264.502 115.723 272.119 215.402 272.221 247.105C287.5 255.848 326.342 275.137 380.932 281.113ZM154.383 378.602C141.721 400.441 130.957 426.34 123.252 455.887C161.279 481.191 206.896 496 256 496C311.938 496 363.275 476.699 404.084 444.617C387.816 446.809 372.055 448.035 357.094 448.035C253.158 448.035 182.176 400.836 154.383 378.602ZM345.246 33.332C424.699 136.121 419.15 242.102 413.051 282.73C438.236 282.762 465.857 279.496 495.221 271.43C495.547 266.301 496 261.207 496 256C496 155.02 433.559 68.766 345.246 33.332ZM255.691 274.465C240.545 283.301 204.348 307.301 171.812 351.66C200.193 375.02 299.279 443.137 444.959 403.629C467.055 375.387 483.068 342.184 490.748 305.832C463.404 312.301 437.51 315.004 413.594 315.004C333.971 315.004 276.334 286.391 255.691 274.465Z" class="fa-secondary"/><path d="M172.164 351.66C200.545 375.02 299.631 443.137 445.311 403.629C433.371 418.887 419.666 432.645 404.436 444.617C388.168 446.809 372.406 448.035 357.445 448.035C253.51 448.035 182.527 400.836 154.734 378.602C142.072 400.441 131.309 426.34 123.604 455.887C113.822 449.379 104.689 442.031 95.99 434.199C130.719 318.742 213.104 262.348 240.521 246.422C240.437 228.824 237.719 185.535 215.609 135.27C181.187 148.16 72.549 199.859 33.984 346.066C26.771 328.277 21.771 309.402 19 289.785C68.295 169.801 162.74 121.672 200.961 106.652C188.391 84.801 171.74 62.48 150.047 41.066C160.348 35.965 170.988 31.465 182.061 27.859C264.854 115.723 272.471 215.402 272.572 247.105C287.852 255.848 326.693 275.137 381.283 281.113C387.332 244.91 396.887 125.09 289.744 18.59C309.203 21.309 327.926 26.238 345.598 33.332C425.051 136.121 419.502 242.102 413.402 282.73C438.588 282.762 466.209 279.496 495.572 271.43C494.826 283.129 493.463 294.652 491.1 305.832C463.756 312.301 437.861 315.004 413.945 315.004C334.322 315.004 276.686 286.391 256.043 274.465C240.896 283.301 204.699 307.301 172.164 351.66Z" class="fa-primary"/></svg>