<svg xmlns="http://www.w3.org/2000/svg" viewBox="0 0 640 512"><!--! Font Awesome Pro 6.4.0 by @fontawesome - https://fontawesome.com License - https://fontawesome.com/license (Commercial License) Copyright 2023 Fonticons, Inc. --><defs><style>.fa-secondary{opacity:.4}</style></defs><path class="fa-primary" d="M5.1 9.2C13.3-1.2 28.4-3.1 38.8 5.1l592 464c10.4 8.2 12.3 23.3 4.1 33.7s-23.3 12.3-33.7 4.1L9.2 42.9C-1.2 34.7-3.1 19.6 5.1 9.2z"/><path class="fa-secondary" d="M82.9 161.3L352 373.3V448c0 12.6-7.4 24-18.9 29.2s-25 3.1-34.4-5.3L163.8 352H96c-35.3 0-64-28.7-64-64V224c0-30.9 21.8-56.6 50.9-62.7zM410.8 296.7c1-1.2 2.2-2.4 3.4-3.4C425.1 284.4 432 271 432 256s-6.9-28.4-17.7-37.3c-10.3-8.4-11.8-23.5-3.5-33.8s23.5-11.8 33.8-3.5C466.1 199.1 480 225.9 480 256c0 27.9-12 53.1-31 70.6l-38.2-29.9zm76.3 59.8c25.3-26 40.9-61.4 40.9-100.5c0-45.1-20.7-85.3-53.2-111.8c-10.3-8.4-11.8-23.5-3.5-33.8s23.5-11.8 33.8-3.5c43.2 35.2 70.9 88.9 70.9 149c0 50.3-19.3 96-50.9 130.2l-37.9-29.7zM197.8 129.8L298.7 40.1c9.4-8.4 22.9-10.4 34.4-5.3S352 51.4 352 64V250.6L197.8 129.8z"/></svg>