<svg xmlns="http://www.w3.org/2000/svg" viewBox="0 0 448 512"><!--! Font Awesome Pro 6.4.0 by @fontawesome - https://fontawesome.com License - https://fontawesome.com/license (Commercial License) Copyright 2023 Fonticons, Inc. --><defs><style>.fa-secondary{opacity:.4}</style></defs><path class="fa-primary" d="M320 64c0-12.6-7.4-24-18.9-29.2s-25-3.1-34.4 5.3L131.8 160H64c-35.3 0-64 28.7-64 64v64c0 35.3 28.7 64 64 64h67.8L266.7 471.9c9.4 8.4 22.9 10.4 34.4 5.3S320 460.6 320 448V64z"/><path class="fa-secondary" d="M378.8 185c8.4-10.3 23.5-11.8 33.8-3.5C434.1 199.1 448 225.9 448 256s-13.9 56.9-35.4 74.5c-10.3 8.4-25.4 6.8-33.8-3.5s-6.8-25.4 3.5-33.8C393.1 284.4 400 271 400 256s-6.9-28.4-17.7-37.3c-10.3-8.4-11.8-23.5-3.5-33.8z"/></svg>