<svg xmlns="http://www.w3.org/2000/svg" viewBox="0 0 576 512"><!--! Font Awesome Pro 6.4.0 by @fontawesome - https://fontawesome.com License - https://fontawesome.com/license (Commercial License) Copyright 2023 Fonticons, Inc. --><defs><style>.fa-secondary{opacity:.4}</style></defs><path class="fa-primary" d="M320 64c0-12.6-7.4-24-18.9-29.2s-25-3.1-34.4 5.3L131.8 160H64c-35.3 0-64 28.7-64 64v64c0 35.3 28.7 64 64 64h67.8L266.7 471.9c9.4 8.4 22.9 10.4 34.4 5.3S320 460.6 320 448V64z"/><path class="fa-secondary" d="M391 167c9.4-9.4 24.6-9.4 33.9 0l55 55 55-55c9.4-9.4 24.6-9.4 33.9 0s9.4 24.6 0 33.9l-55 55 55 55c9.4 9.4 9.4 24.6 0 33.9s-24.6 9.4-33.9 0l-55-55-55 55c-9.4 9.4-24.6 9.4-33.9 0s-9.4-24.6 0-33.9l55-55-55-55c-9.4-9.4-9.4-24.6 0-33.9z"/></svg>