<svg xmlns="http://www.w3.org/2000/svg" viewBox="0 0 640 512"><!--! Font Awesome Pro 6.4.0 by @fontawesome - https://fontawesome.com License - https://fontawesome.com/license (Commercial License) Copyright 2023 Fonticons, Inc. --><defs><style>.fa-secondary{opacity:.4}</style></defs><path class="fa-primary" d="M0 171.3V488c0 13.3 10.7 24 24 24H72c13.3 0 24-10.7 24-24V224c0-17.7 14.3-32 32-32H512c17.7 0 32 14.3 32 32V488c0 13.3 10.7 24 24 24h48c13.3 0 24-10.7 24-24V171.3c0-26.2-15.9-49.7-40.2-59.4L331.9 4.8c-7.6-3.1-16.1-3.1-23.8 0L40.2 111.9C15.9 121.6 0 145.2 0 171.3z"/><path class="fa-secondary" d="M512 488c0 13.3-10.7 24-24 24l-336 0c-13.3 0-24-10.7-24-24V432H512l0 56zm0-88H128V336H512v64zm0-96H128V224H512l0 80z"/></svg>