<svg xmlns="http://www.w3.org/2000/svg" viewBox="0 0 384 512"><!--! Font Awesome Pro 6.4.0 by @fontawesome - https://fontawesome.com License - https://fontawesome.com/license (Commercial License) Copyright 2023 Fonticons, Inc. --><defs><style>.fa-secondary{opacity:.4}</style></defs><path class="fa-primary" d="M64 48C64 21.5 85.5 0 112 0H272c26.5 0 48 21.5 48 48v64.9C286 82.5 241.2 64 192 64s-94 18.5-128 48.9V48zM192 448c49.2 0 94-18.5 128-48.9V464c0 26.5-21.5 48-48 48H112c-26.5 0-48-21.5-48-48V399.1C98 429.5 142.8 448 192 448zm24-272v67.2L253.3 268c11 7.4 14 22.3 6.7 33.3s-22.3 14-33.3 6.7l-48-32C172 271.5 168 264 168 256V176c0-13.3 10.7-24 24-24s24 10.7 24 24z"/><path class="fa-secondary" d="M192 448a192 192 0 1 0 0-384 192 192 0 1 0 0 384zm24-272v67.2L253.3 268c11 7.4 14 22.3 6.7 33.3s-22.3 14-33.3 6.7l-48-32C172 271.5 168 264 168 256V176c0-13.3 10.7-24 24-24s24 10.7 24 24z"/></svg>