<svg xmlns="http://www.w3.org/2000/svg" viewBox="0 0 512 512"><!--! Font Awesome Pro 6.4.0 by @fontawesome - https://fontawesome.com License - https://fontawesome.com/license (Commercial License) Copyright 2023 Fonticons, Inc. --><defs><style>.fa-secondary{opacity:.4}</style></defs><path class="fa-primary" d="M282.8 27.3c6.2-6.2 16.4-6.2 22.6 0l11.3 11.3c34.1 34.1 44.9 82.6 32.5 125.9c43.3-12.4 91.8-1.5 125.9 32.5l11.3 11.3c6.2 6.2 6.2 16.4 0 22.6l-11.3 11.3c-37.5 37.5-98.3 37.5-135.8 0l-22.6-22.6 0 0-45.3-45.3c-37.5-37.5-37.5-98.3 0-135.8l11.3-11.3zM203.6 129.1L215 140.5c34.1 34.1 44.9 82.6 32.5 125.9c43.3-12.4 91.8-1.5 125.9 32.5l11.3 11.3c6.2 6.2 6.2 16.4 0 22.6l-11.3 11.3c-37.5 37.5-98.3 37.5-135.8 0L215 321.5l0 0-45.3-45.3c-37.5-37.5-37.5-98.3 0-135.8L181 129.1c6.2-6.2 16.4-6.2 22.6 0zM79.2 231c6.2-6.2 16.4-6.2 22.6 0l11.3 11.3c34.1 34.1 44.9 82.6 32.5 125.9c43.3-12.4 91.8-1.5 125.9 32.5L282.8 412c6.2 6.2 6.2 16.4 0 22.6l-11.3 11.3c-37.5 37.5-98.3 37.5-135.8 0l-22.6-22.6s0 0 0 0L67.9 378c-37.5-37.5-37.5-98.3 0-135.8L79.2 231z"/><path class="fa-secondary" d="M505 7c9.4 9.4 9.4 24.6 0 33.9l-88 88c-9.4 9.4-24.6 9.4-33.9 0s-9.4-24.6 0-33.9L471 7c9.4-9.4 24.6-9.4 33.9 0zm-177.8 223L295.3 262c-16-1.6-32.2-.1-47.8 4.3c4.8-16.6 6.1-34 4-51l30.5-30.5L294.2 197l22.6 22.6 10.4 10.4zm131.6-46.9c-14.4-10.3-30.5-17.2-47.1-20.8L471 103c9.4-9.4 24.6-9.4 33.9 0s9.4 24.6 0 33.9l-46.2 46.2zm-108-84c-3.9-16.4-11.1-32.2-21.6-46.3L375 7c9.4-9.4 24.6-9.4 33.9 0s9.4 24.6 0 33.9L350.7 99.2zM225.4 331.9l-31.9 31.9c-16-1.6-32.2-.1-47.8 4.3c4.8-16.6 6.1-34 4-51l30.5-30.5L215 321.5l0 0 10.4 10.4zM123.5 433.7L54.6 502.6c-12.5 12.5-32.8 12.5-45.3 0s-12.5-32.8 0-45.3l68.9-68.9 34.8 34.8 0 0 10.4 10.4z"/></svg>