<svg xmlns="http://www.w3.org/2000/svg" viewBox="0 0 448 512"><!--! Font Awesome Pro 6.4.0 by @fontawesome - https://fontawesome.com License - https://fontawesome.com/license (Commercial License) Copyright 2023 Fonticons, Inc. --><defs><style>.fa-secondary{opacity:.4}</style></defs><path class="fa-primary" d="M320 48a48 48 0 1 1 96 0 48 48 0 1 1 -96 0zM172.8 54.4c9.5-7.1 22.1-8.4 32.8-3.4l116.5 54.8c29.1 13.7 36.8 51.6 15.2 75.5L299.1 224h97.4c30.3 0 53 27.7 47.1 57.4L415.4 422.3c-3.5 17.3-20.3 28.6-37.7 25.1s-28.6-20.3-25.1-37.7L377 288H306.7c-20.5-46.9-62.9-82.1-114.3-92.7l54.2-54.2-50.8-23.9-48.6 36.4c-14.1 10.6-34.2 7.7-44.8-6.4s-7.7-34.2 6.4-44.8l64-48z"/><path class="fa-secondary" d="M160 512a160 160 0 1 0 0-320 160 160 0 1 0 0 320zm0-256a96 96 0 1 1 0 192 96 96 0 1 1 0-192z"/></svg>