<svg xmlns="http://www.w3.org/2000/svg" viewBox="0 0 640 512"><!--! Font Awesome Pro 6.4.0 by @fontawesome - https://fontawesome.com License - https://fontawesome.com/license (Commercial License) Copyright 2023 Fonticons, Inc. --><defs><style>.fa-secondary{opacity:.4}</style></defs><path class="fa-primary" d="M320 32c-27.2 0-48.7 23.1-46.8 50.2l14.9 208C289.3 307 303.2 320 320 320s30.7-13 31.9-29.7l14.9-208C368.7 55.1 347.2 32 320 32zm0 448a64 64 0 1 0 0-128 64 64 0 1 0 0 128z"/><path class="fa-secondary" d="M253.2 37c-8.6 13.7-13.1 30.1-11.9 47.6l1.4 19.3c-72.3 14.8-137.2 49.9-188.5 99.1c-12.8 12.2-33 11.8-45.2-.9s-11.8-33 .9-45.2C75.1 94.1 159.4 51 253.2 37zm133.7 0c93.8 14 178 57.1 243.3 119.8c12.8 12.2 13.2 32.5 .9 45.2s-32.5 13.2-45.2 .9c-51.3-49.2-116.2-84.3-188.5-99.1l1.4-19.3c1.2-17.4-3.3-33.9-11.9-47.6zM249.6 200.7l4.7 65.1c-30.8 9.4-58.8 25.4-82.4 46.2c-13.3 11.7-33.5 10.4-45.2-2.8s-10.4-33.5 2.8-45.2c33.9-29.9 74.9-52 120.1-63.3zm136.2 65.1l4.6-65.1c45.2 11.4 86.2 33.4 120.1 63.3c13.2 11.7 14.5 31.9 2.8 45.2s-31.9 14.5-45.2 2.8c-23.6-20.8-51.6-36.7-82.4-46.2z"/></svg>