<svg xmlns="http://www.w3.org/2000/svg" viewBox="0 0 512 512"><!--! Font Awesome Pro 6.4.0 by @fontawesome - https://fontawesome.com License - https://fontawesome.com/license (Commercial License) Copyright 2023 Fonticons, Inc. --><defs><style>.fa-secondary{opacity:.4}</style></defs><path class="fa-primary" d="M384 88a24 24 0 1 1 48 0 24 24 0 1 1 -48 0z"/><path class="fa-secondary" d="M288 96c0-53 43-96 96-96h38.4C471.9 0 512 40.1 512 89.6V176v16V360c0 83.9-68.1 152-152 152s-152-68.1-152-152V312c0-30.9-25.1-56-56-56s-56 25.1-56 56V464c0 26.5-21.5 48-48 48s-48-21.5-48-48V312c0-83.9 68.1-152 152-152s152 68.1 152 152v48c0 30.9 25.1 56 56 56s56-25.1 56-56V192H384c-53 0-96-43-96-96zm144-8a24 24 0 1 0 -48 0 24 24 0 1 0 48 0z"/></svg>