<svg xmlns="http://www.w3.org/2000/svg" viewBox="0 0 512 512"><!--! Font Awesome Pro 6.4.0 by @fontawesome - https://fontawesome.com License - https://fontawesome.com/license (Commercial License) Copyright 2023 Fonticons, Inc. --><defs><style>.fa-secondary{opacity:.4}</style></defs><path class="fa-primary" d="M32 32C14.3 32 0 46.3 0 64S14.3 96 32 96H480c17.7 0 32-14.3 32-32s-14.3-32-32-32H32zm0 384c-17.7 0-32 14.3-32 32s14.3 32 32 32H480c17.7 0 32-14.3 32-32s-14.3-32-32-32H32z"/><path class="fa-secondary" d="M480 96H32V416H480V96zM256 128c8.8 0 16 7.2 16 16v16h80c8.8 0 16 7.2 16 16s-7.2 16-16 16H272v32H384c8.8 0 16 7.2 16 16s-7.2 16-16 16H272v48c0 .4 0 .8 0 1.2l50.4-21.6c5.5-2.4 11.4-3.6 17.4-3.6h7.4c20.4 0 36.9 16.5 36.9 36.9c0 8.2-2.8 16.3-7.9 22.8l-19.4 24.8C347 376.8 332.1 384 316.4 384H195.6c-15.7 0-30.6-7.2-40.3-19.6l-19.4-24.8c-5.1-6.5-7.9-14.5-7.9-22.8c0-20.4 16.5-36.9 36.9-36.9h7.4c6 0 11.9 1.2 17.4 3.6L240 305.2c0-.4 0-.8 0-1.2V256H128c-8.8 0-16-7.2-16-16s7.2-16 16-16H240V192H160c-8.8 0-16-7.2-16-16s7.2-16 16-16h80V144c0-8.8 7.2-16 16-16zM208 352a16 16 0 1 0 0-32 16 16 0 1 0 0 32zm112-16a16 16 0 1 0 -32 0 16 16 0 1 0 32 0z"/></svg>