<svg xmlns="http://www.w3.org/2000/svg" viewBox="0 0 320 512"><!--! Font Awesome Pro 6.4.0 by @fontawesome - https://fontawesome.com License - https://fontawesome.com/license (Commercial License) Copyright 2023 Fonticons, Inc. --><defs><style>.fa-secondary{opacity:.4}</style></defs><path class="fa-primary" d="M58.6 46.2C48.8 31.5 29 27.6 14.3 37.4S-4.4 67 5.4 81.7L128 265.7V448c0 17.7 14.3 32 32 32s32-14.3 32-32V265.7L314.6 81.7c9.8-14.7 5.8-34.6-8.9-44.4s-34.6-5.8-44.4 8.9L160 198.3 58.6 46.2z"/><path class="fa-secondary" d="M100.2 224H48c-17.7 0-32 14.3-32 32s14.3 32 32 32h80V265.7L100.2 224zM192 288h80c17.7 0 32-14.3 32-32s-14.3-32-32-32H219.8L192 265.7V288zm-64 32H48c-17.7 0-32 14.3-32 32s14.3 32 32 32h80V320zm64 64h80c17.7 0 32-14.3 32-32s-14.3-32-32-32H192v64z"/></svg>