<svg xmlns="http://www.w3.org/2000/svg" viewBox="0 0 320 512"><!--! Font Awesome Pro 6.4.0 by @fontawesome - https://fontawesome.com License - https://fontawesome.com/license (Commercial License) Copyright 2023 Fonticons, Inc. --><path d="M304 32V78.1l-10.4 9.5L162.3 208H184c75.1 0 136 60.9 136 136s-60.9 136-136 136H111.4C64.8 480 23 451 6.6 407.3L2 395.2 62 372.8l4.5 12.1c7 18.7 24.9 31.1 44.9 31.1H184c39.8 0 72-32.2 72-72s-32.2-72-72-72H80 48V225.9l10.4-9.5L189.7 96H32 0V32H32 272h32z"/></svg>