<svg xmlns="http://www.w3.org/2000/svg" viewBox="0 0 640 512"><!--! Font Awesome Pro 6.4.0 by @fontawesome - https://fontawesome.com License - https://fontawesome.com/license (Commercial License) Copyright 2023 Fonticons, Inc. --><path d="M32 0H56 456h24V48H456 56 32V0zm8 512L0 160H512l-3.7 32.4c-4.1-.3-8.2-.4-12.3-.4c-46.9 0-89.5 18.3-121 48.2C342.9 220.1 301.4 208 256 208C154.4 208 72 268.9 72 344s82.4 136 184 136c33.2 0 64.4-6.5 91.3-17.9c12.4 19.6 28.6 36.6 47.5 49.9H40zM256 376c-17.7 0-32-10.7-32-24s14.3-24 32-24s32 10.7 32 24s-14.3 24-32 24zM40 80H472h24v48H472 40 16V80H40zM352 368a144 144 0 1 1 288 0 144 144 0 1 1 -288 0zm224.7 77.7L552 416H440l-24.7 29.7c20.4 21.2 49 34.3 80.7 34.3s60.3-13.2 80.7-34.3zM544 336a48 48 0 1 0 -96 0 48 48 0 1 0 96 0z"/></svg>