<svg xmlns="http://www.w3.org/2000/svg" viewBox="0 0 512 512"><!--! Font Awesome Pro 6.4.0 by @fontawesome - https://fontawesome.com License - https://fontawesome.com/license (Commercial License) Copyright 2023 Fonticons, Inc. --><path d="M320 32H288V96h32 50.7L256 210.7 141.3 96H192h32V32H192 64 32V64 192v32H96V192 141.3L210.7 256 96 370.7V320 288H32v32V448v32H64 192h32V416H192 141.3L256 301.3 370.7 416H320 288v64h32H448h32V448 320 288H416v32 50.7L301.3 256 416 141.3V192v32h64V192 64 32H448 320z"/></svg>