<svg xmlns="http://www.w3.org/2000/svg" viewBox="0 0 576 512"><!--! Font Awesome Pro 6.4.0 by @fontawesome - https://fontawesome.com License - https://fontawesome.com/license (Commercial License) Copyright 2023 Fonticons, Inc. --><path d="M160 0H128V64h32 50.7L25.4 249.4 2.7 272 48 317.3l22.6-22.6L256 109.3V160v32h64V160 32 0H288 160zM576 80a48 48 0 1 0 -96 0 48 48 0 1 0 96 0zM448 208a48 48 0 1 0 -96 0 48 48 0 1 0 96 0zM400 384a48 48 0 1 0 0-96 48 48 0 1 0 0 96zm48 80a48 48 0 1 0 -96 0 48 48 0 1 0 96 0zm128 0a48 48 0 1 0 -96 0 48 48 0 1 0 96 0zM272 384a48 48 0 1 0 0-96 48 48 0 1 0 0 96zm48 80a48 48 0 1 0 -96 0 48 48 0 1 0 96 0zM144 512a48 48 0 1 0 0-96 48 48 0 1 0 0 96zM576 336a48 48 0 1 0 -96 0 48 48 0 1 0 96 0zm-48-80a48 48 0 1 0 0-96 48 48 0 1 0 0 96z"/></svg>