<svg xmlns="http://www.w3.org/2000/svg" viewBox="0 0 576 512"><!--! Font Awesome Pro 6.4.0 by @fontawesome - https://fontawesome.com License - https://fontawesome.com/license (Commercial License) Copyright 2023 Fonticons, Inc. --><path d="M240.2 112.2C272.6 79.8 312.9 64 349 64c28.2 0 53.2 9.6 71.3 27.7S448 134.9 448 163c0 36-15.8 76.4-48.2 108.8c-59.4 59.4-139.7 60.9-180.1 20.5C201.6 274.1 192 249.1 192 221c0-36 15.8-76.4 48.2-108.8zM349 0c-54.2 0-110.5 23.4-154 66.9s-67 99.8-66.9 154c0 32.4 8.4 64.2 26.2 91.6l-48.8 48.8L96 352 0 448l64 64 96-96-9.4-9.4 48.8-48.8c73.3 48.1 177.5 27.4 245.7-40.8c43.6-43.6 67-99.8 66.9-154c0-42.8-14.8-84.9-46.5-116.6S391.8 0 349 0zM514.5 352c-26.5 0-48 21.5-48 48v32h96V400c0-26.5-21.5-48-48-48zM463 448l-11.2 38.9-4.4 15.4 30.7 8.9 4.4-15.4L496 449.2V496v16h32V496 449.2l13.5 46.7 4.4 15.4 30.7-8.9-4.4-15.4L561 448H463z"/></svg>