<svg xmlns="http://www.w3.org/2000/svg" viewBox="0 0 512 512"><!--! Font Awesome Pro 6.4.0 by @fontawesome - https://fontawesome.com License - https://fontawesome.com/license (Commercial License) Copyright 2023 Fonticons, Inc. --><path d="M32 0H480L448 64H64L32 0zM56 96H456l10.6 42.5c8.9 35.5 13.4 72 13.4 108.7v17.7c0 36.6-4.5 73.1-13.4 108.7L456 416H56L45.4 373.5C36.5 338 32 301.5 32 264.8V247.2c0-36.6 4.5-73.1 13.4-108.7L56 96zm8 352H448l32 64H32l32-64zm96-288H128v16c0 59.2 45.9 107.6 104 111.7V328v24h48V328 287.7c58.1-4.1 104-52.6 104-111.7V160H352c-40.7 0-76.4 21.8-96 54.3c-19.6-32.5-55.3-54.3-96-54.3z"/></svg>