<svg xmlns="http://www.w3.org/2000/svg" viewBox="0 0 576 512"><!--! Font Awesome Pro 6.4.0 by @fontawesome - https://fontawesome.com License - https://fontawesome.com/license (Commercial License) Copyright 2023 Fonticons, Inc. --><path d="M353.2 10.4C411.4 63.1 448 139.3 448 224c0 12.3-.8 24.4-2.3 36.3L329.8 284.7 279 254.6c16.1-33.5 25-71 25-110.6c0-31.4-5.6-61.3-15.9-89l65.1-44.6zm-29 308.2l115.1-24.2 27.7-5.8 12.7-2.7L489 295l80 80 17 17L552 425.9l-17-17-70.8-70.8-43.9 9.2C374.1 444.7 274.9 512 160 512L0 512V400H48c72.9 0 138.7-30.5 185.4-79.4l-22.1-13.1-80.2 41.8-21.3 11.1L87.6 317.8l21.3-11.1 92-48 11.8-6.2 11.5 6.8 39.1 23.2 60.9 36.1z"/></svg>