<svg xmlns="http://www.w3.org/2000/svg" viewBox="0 0 512 512"><!--! Font Awesome Pro 6.4.0 by @fontawesome - https://fontawesome.com License - https://fontawesome.com/license (Commercial License) Copyright 2023 Fonticons, Inc. --><path d="M0 160v32C0 294.3 68.5 380.5 162.1 407.4L217.6 512h54.3l-.7-1.2L221 416c1 0 2 0 3 0c12.6 0 25-1 37.1-3.1L313.6 512h54.3l-.7-1.2L308.3 399.6C390.3 366.3 448 285.9 448 192V170.7L512 128 447.4 84.9C441.9 37.1 401.3 0 352 0c-53 0-96 43-96 96v64H0zM352 96a24 24 0 1 1 0 48 24 24 0 1 1 0-48z"/></svg>