<svg xmlns="http://www.w3.org/2000/svg" viewBox="0 0 576 512"><!--! Font Awesome Pro 6.4.0 by @fontawesome - https://fontawesome.com License - https://fontawesome.com/license (Commercial License) Copyright 2023 Fonticons, Inc. --><path d="M376 248l40 40v32H364.3L256 211.7V160h32l40 40L528 0l48 48L376 248zM222.6 234.9L341.1 353.4c3.7 42.7-11.7 85.2-42.3 115.8C271.4 496.6 234.2 512 195.5 512L0 512V480L160 336 64 384l0-3.5c0-38.8 15.4-75.9 42.8-103.4c30.6-30.6 73.1-45.9 115.8-42.3zM464 352a80 80 0 1 1 0 160 80 80 0 1 1 0-160z"/></svg>