<svg xmlns="http://www.w3.org/2000/svg" viewBox="0 0 576 512"><!--! Font Awesome Pro 6.4.0 by @fontawesome - https://fontawesome.com License - https://fontawesome.com/license (Commercial License) Copyright 2023 Fonticons, Inc. --><path d="M416 0H160V64h25L133.8 320H64v70.9c3.8-2.6 7.8-5.5 12.3-8.7l1.1-.8L96 368l18.6 13.4 1.1 .8 0 0 0 0c13.9 10 23.6 17 35.5 22.5c13.1 6 27.7 10.3 40.7 10.3s27.6-4.3 40.7-10.3c12-5.5 21.7-12.5 35.5-22.5l0 0 0 0 1.1-.8L288 368l19.7 14.2 0 0 0 0c13.9 10 23.6 17 35.5 22.5c13.1 6 27.7 10.3 40.7 10.3s27.6-4.3 40.7-10.3c12-5.5 21.7-12.5 35.5-22.5l0 0L480 368l19.7 14.2 0 0c4.4 3.2 8.5 6.1 12.3 8.7V320H442.2L391 64h25V0zM325.8 64l9.8 49L288 168.5 240.4 113l9.8-49h75.5zm21.8 108.8l17 84.9-44.9-52.4 27.9-32.6zm-91.1 32.6l-44.9 52.4 17-84.9 27.9 32.6zM221.3 320L288 242.2 354.7 320H221.3zm51.1 173.1c5.8-2.7 11.1-5.3 15.6-7.7c4.5 2.4 9.7 5.1 15.6 7.7c19.8 9 48.5 18.9 80.4 18.9s60.6-9.9 80.4-18.9c5.8-2.7 11.1-5.3 15.6-7.7c4.5 2.4 9.7 5.1 15.6 7.7c19.8 9 48.5 18.9 80.4 18.9V448c-19.3 0-38.6-6.1-54-13.1c-14.9-6.8-26.9-15.4-40-24.7c-.7-.5-1.4-1-2.1-1.5c-.7 .5-1.4 1-2.1 1.5c-13.1 9.3-25.1 17.9-40 24.7c-15.4 7-34.7 13.1-54 13.1s-38.6-6.1-54-13.1c-14.9-6.8-26.9-15.4-40-24.7c-.7-.5-1.4-1-2.1-1.5c-.7 .5-1.4 1-2.1 1.5c-13.1 9.3-25.1 17.9-40 24.7c-15.4 7-34.7 13.1-54 13.1s-38.6-6.1-54-13.1c-14.9-6.8-26.9-15.4-40-24.7c-.7-.5-1.4-1-2.1-1.5c-.7 .5-1.4 1-2.1 1.5c-13.1 9.3-25.1 17.9-40 24.7C38.6 441.9 19.3 448 0 448v64c31.9 0 60.6-9.9 80.4-18.9c5.8-2.7 11.1-5.3 15.6-7.7c4.5 2.4 9.7 5.1 15.6 7.7c19.8 9 48.5 18.9 80.4 18.9s60.6-9.9 80.4-18.9z"/></svg>