<svg xmlns="http://www.w3.org/2000/svg" viewBox="0 0 640 512"><!--! Font Awesome Pro 6.4.0 by @fontawesome - https://fontawesome.com License - https://fontawesome.com/license (Commercial License) Copyright 2023 Fonticons, Inc. --><path d="M64 32L97.4 221.4 117.7 272H128V90.7L112 0 64 32zM18.7 192H59.7L41.8 90.5 0 80 18.7 192zM384 80L342.7 90.3 325.8 192h7.3c10.4-6.1 22-11.7 35-16.5L384 80zM256 512V304H96L64 224H0L64 512H256zm0-240h4c2.2-5.2 4.7-10.3 7.6-15.3c3.1-5.3 7-11.3 11.9-17.7l10.2-25.5L320 32 256 48V272zm-96 0h64V240 32L160 0V272zm480 15.8s-32-96-176-96s-176 96-176 96v32H640v-32zm-256-48a16 16 0 1 1 0 32 16 16 0 1 1 0-32zm64 0a16 16 0 1 1 32 0 16 16 0 1 1 -32 0zm96 0a16 16 0 1 1 0 32 16 16 0 1 1 0-32zm-256 112v64H640v-64H288zm0 96v64H640v-64H288z"/></svg>