<svg xmlns="http://www.w3.org/2000/svg" viewBox="0 0 512 512"><!--! Font Awesome Pro 6.4.0 by @fontawesome - https://fontawesome.com License - https://fontawesome.com/license (Commercial License) Copyright 2023 Fonticons, Inc. --><path d="M0 0V24 136v24H48V136 48h88 24V0H136 24 0zM192 96l-12 32H96V384H416V128H332L320 96H192zm64 96a64 64 0 1 1 0 128 64 64 0 1 1 0-128zM488 0H376 352V48h24 88v88 24h48V136 24 0H488zM0 512H24 136h24V464H136 48V376 352H0v24V488v24zm488 0h24V488 376 352H464v24 88H376 352v48h24H488z"/></svg>