<svg xmlns="http://www.w3.org/2000/svg" viewBox="0 0 512 512"><!--! Font Awesome Pro 6.4.0 by @fontawesome - https://fontawesome.com License - https://fontawesome.com/license (Commercial License) Copyright 2023 Fonticons, Inc. --><path d="M80 0c32.8 0 61 19.7 73.3 48H358.7C371 19.7 399.2 0 432 0c12.5 0 24.4 2.9 34.9 8c19.6 9.5 34.8 26.9 41.4 48H480 453.2 432v48h21.2H480h28.3c-6.6 21.1-21.8 38.5-41.4 48c-10.6 5.1-22.4 8-34.9 8c-32.8 0-61-19.7-73.3-48H153.3C141 140.3 112.8 160 80 160c-12.5 0-24.4-2.9-34.9-8c-19.6-9.5-34.8-26.9-41.4-48H32 58.8 80V56H58.8 32 3.7C10.3 34.9 25.4 17.5 45.1 8C55.6 2.9 67.5 0 80 0zm49.4 160H152 360h22.6l7.6 21.2L428.3 288H464v96 64 64H384V448H128v64H48V448 384 288H83.7l38.1-106.8 7.6-21.2zm208 64H174.6l-22.9 64H360.3l-22.9-64zM128 392a24 24 0 1 0 0-48 24 24 0 1 0 0 48zm280-24a24 24 0 1 0 -48 0 24 24 0 1 0 48 0z"/></svg>