<svg xmlns="http://www.w3.org/2000/svg" viewBox="0 0 640 512"><!--! Font Awesome Pro 6.4.0 by @fontawesome - https://fontawesome.com License - https://fontawesome.com/license (Commercial License) Copyright 2023 Fonticons, Inc. --><path d="M106.3 64H128 384h15.4L409 76 527.4 224H640V432H574.7c-7.6 45.4-47.1 80-94.7 80s-87.1-34.6-94.7-80H254.7c-7.6 45.4-47.1 80-94.7 80s-87.1-34.6-94.7-80H0V224H42.3l56-139.9 8-20.1zM434.7 432a48 48 0 1 0 90.5-32 48 48 0 1 0 -90.5 32zM208 416a48 48 0 1 0 -96 0 48 48 0 1 0 96 0zM111.3 224H224V128H149.7l-38.4 96zM272 224H445.4l-76.8-96H272v96z"/></svg>