<svg xmlns="http://www.w3.org/2000/svg" viewBox="0 0 512 512"><!--! Font Awesome Pro 6.4.0 by @fontawesome - https://fontawesome.com License - https://fontawesome.com/license (Commercial License) Copyright 2023 Fonticons, Inc. --><path d="M256 0C114.6 0 0 114.6 0 256V512H96V448 320h28.4l30.2-80.4 5.8-15.6H177 336h16.8l5.7 15.8L387.7 320H416V448l0 64h96V256C512 114.6 397.4 0 256 0zm96 512V448H160v64H352zM319.2 272H193.6l-18 48h161l-17.5-48zM168 408a24 24 0 1 0 0-48 24 24 0 1 0 0 48zm200-24a24 24 0 1 0 -48 0 24 24 0 1 0 48 0z"/></svg>