<svg xmlns="http://www.w3.org/2000/svg" viewBox="0 0 576 512"><!--! Font Awesome Pro 6.4.0 by @fontawesome - https://fontawesome.com License - https://fontawesome.com/license (Commercial License) Copyright 2023 Fonticons, Inc. --><path d="M0 0H24 96h19.9l3.7 19.5L122 32H576L496 288H360V177.9l23 23 17 17L433.9 184l-17-17-64-64-17-17-17 17-64 64-17 17L272 217.9l17-17 23-23V288H170.7l9.1 48H312h48H488h24v48H488 160 140.1l-3.7-19.5L76.1 48H24 0V0zM128 464a48 48 0 1 1 96 0 48 48 0 1 1 -96 0zm336-48a48 48 0 1 1 0 96 48 48 0 1 1 0-96z"/></svg>