<svg xmlns="http://www.w3.org/2000/svg" viewBox="0 0 512 512"><!--! Font Awesome Pro 6.4.0 by @fontawesome - https://fontawesome.com License - https://fontawesome.com/license (Commercial License) Copyright 2023 Fonticons, Inc. --><path d="M64 32H0V96H64V32zM288 64V32H224V64 273L43.5 423.4 18.9 443.9l41 49.2 24.6-20.5L256 329.7 427.5 472.6l24.6 20.5 41-49.2-24.6-20.5L288 273V64zM0 224v64H64V224H0zm160-96H96v64h64V128zM352 32V96h64V32H352zm160 96H448v64h64V128zM352 224v64h64V224H352zM288 416H224v64h64V416z"/></svg>