<svg xmlns="http://www.w3.org/2000/svg" viewBox="0 0 640 512"><!--! Font Awesome Pro 6.4.0 by @fontawesome - https://fontawesome.com License - https://fontawesome.com/license (Commercial License) Copyright 2023 Fonticons, Inc. --><path d="M256 32H96V80h56v48H0V480H640V128H544V96H384v32H200V80h56V32zM576 304a112 112 0 1 1 -224 0 112 112 0 1 1 224 0zm-41.4-48L512 233.4l-11.3 11.3-48 48L441.4 304 464 326.6l11.3-11.3 48-48L534.6 256zM176 192a112 112 0 1 1 0 224 112 112 0 1 1 0-224zm-16 48v64 16h32V304 240 224H160v16z"/></svg>