<svg xmlns="http://www.w3.org/2000/svg" viewBox="0 0 512 512"><!--! Font Awesome Pro 6.4.0 by @fontawesome - https://fontawesome.com License - https://fontawesome.com/license (Commercial License) Copyright 2023 Fonticons, Inc. --><path d="M200 56a56 56 0 1 1 112 0A56 56 0 1 1 200 56zM64 480l48-48H400l48 48v32H64V480zM424 192c20.6 0 39-9.7 50.7-24.9L512 192 400 400H112L0 192l37.3-24.9C49 182.3 67.4 192 88 192c35.3 0 64-28.7 64-64h42c6.2 24 26 42.6 50.7 47c3.4 .6 7.2 1 11.3 1s7.8-.3 11.3-1c24.7-4.4 44.5-23 50.7-47h42c0 35.3 28.7 64 64 64z"/></svg>