<svg xmlns="http://www.w3.org/2000/svg" viewBox="0 0 320 512"><!--! Font Awesome Pro 6.4.0 by @fontawesome - https://fontawesome.com License - https://fontawesome.com/license (Commercial License) Copyright 2023 Fonticons, Inc. --><path d="M128 0H96V64h27C78.1 107.2 8 190.2 8 288c0 47.4 30.8 72.3 56 84.7V400H256V372.7c25.2-12.5 56-37.4 56-84.7c0-37.3-10.2-72.4-25.3-104.1l-99.4 99.4L176 294.6 153.4 272l11.3-11.3L270.8 154.6c-23-37.9-51.5-69.2-73.8-90.6h27V0H192 128zM0 512H320V480l-48-48H48L0 480v32z"/></svg>