<svg xmlns="http://www.w3.org/2000/svg" viewBox="0 0 640 512"><!--! Font Awesome Pro 6.4.0 by @fontawesome - https://fontawesome.com License - https://fontawesome.com/license (Commercial License) Copyright 2023 Fonticons, Inc. --><path d="M80 96c-8.8 0-16 7.2-16 16V384v16c0 8.8 7.2 16 16 16s16-7.2 16-16V384h64v16c0 44.2-35.8 80-80 80s-80-35.8-80-80V384 112C0 67.8 35.8 32 80 32s80 35.8 80 80v16H96V112c0-8.8-7.2-16-16-16zM256 32V64 224h96V64 32h64V64 448v32H352V448 288H256V448v32H192V448 64 32h64zm192 0h32H608h32V96H608 512V224h64 32v64H576 512V448v32H448V448 64 32z"/></svg>