<svg xmlns="http://www.w3.org/2000/svg" viewBox="0 0 512 512"><!--! Font Awesome Pro 6.4.0 by @fontawesome - https://fontawesome.com License - https://fontawesome.com/license (Commercial License) Copyright 2023 Fonticons, Inc. --><path d="M256 512A256 256 0 1 0 256 0a256 256 0 1 0 0 512zm5.5-352c-16.8 0-30.4 13.7-30.3 30.5l.2 33.5H272h16v32H272 231.7l.3 41.2 0 5.9-2.7 5.3-6 11.6H328h24v48H328 184 144.7l18-35L184 291.6l-.3-35.6H176 160V224h16 7.5l-.2-33.1c-.3-43.5 34.8-78.9 78.3-78.9c10 0 19.8 1.9 29.1 5.6l30.3 12.1 22.3 8.9-17.8 44.6-22.3-8.9-30.3-12.1c-3.6-1.4-7.4-2.2-11.3-2.2z"/></svg>