<svg xmlns="http://www.w3.org/2000/svg" viewBox="0 0 512 512"><!--! Font Awesome Pro 6.4.0 by @fontawesome - https://fontawesome.com License - https://fontawesome.com/license (Commercial License) Copyright 2023 Fonticons, Inc. --><path d="M96 320H0V224c0-41.8 26.7-77.4 64-90.5V112C64 50.1 114.1 0 176 0c43.1 0 80.5 24.3 99.2 60c14.7-17.1 36.5-28 60.8-28c44.2 0 80 35.8 80 80v16c53 0 96 43 96 96v96H416 96zm24 32L48 512H0L72 352h48zm256 0L304 512H256l72-160h48zm-160 0v24 16h16 24v48H232 216v16 24H168V456 440H152 128V392h24 16V376 352h48zm256 0v24 16h16 24v48H488 472v16 24H424V456 440H408 384V392h24 16V376 352h48z"/></svg>