<svg xmlns="http://www.w3.org/2000/svg" viewBox="0 0 448 512"><!--! Font Awesome Pro 6.4.0 by @fontawesome - https://fontawesome.com License - https://fontawesome.com/license (Commercial License) Copyright 2023 Fonticons, Inc. --><path d="M398 71.7c1 .9 1.9 1.8 2.9 2.8c74.2 74.2 54.2 214.6-44.8 313.6C269 475.3 149.7 501.2 71.7 455.5l68.4-124.3L328.9 205.3l3.5-2.4 1.9-3.8L398 71.7zM45.9 436.1c-1.1-1.1-2.2-2.1-3.3-3.2c-74.2-74.2-54.2-214.6 44.8-313.6C174.6 32 294.1 6.1 372 52.2L307.6 181 119.1 306.7l-3.3 2.2-1.9 3.4L45.9 436.1z"/></svg>