<svg xmlns="http://www.w3.org/2000/svg" viewBox="0 0 640 512"><!--! Font Awesome Pro 6.4.0 by @fontawesome - https://fontawesome.com License - https://fontawesome.com/license (Commercial License) Copyright 2023 Fonticons, Inc. --><path d="M480 64H272 256 144C77.7 64 24 117.7 24 184v54C9.4 249.8 0 267.8 0 288v32H8c35.3 0 64-28.7 64-64V224 184c0-21.3 9.3-40.5 24-53.7V192v64V448h96V327.8c9.9 6.6 20.6 12 32 16.1V368v16h32V368 351.1c5.3 .6 10.6 .9 16 .9s10.7-.3 16-.9V368v16h32V368 343.8c11.4-4 22.1-9.4 32-16.1V448h96V256l32 32v64l64 96h64l32-160-16-22.4V184 160H576v24 14.4L480 64zm80 272a16 16 0 1 1 32 0 16 16 0 1 1 -32 0zM160 128H384v32l-30.1 30.1C332.2 211.8 302.7 224 272 224s-60.2-12.2-81.9-33.9L160 160V128z"/></svg>