<svg xmlns="http://www.w3.org/2000/svg" viewBox="0 0 640 512"><!--! Font Awesome Pro 6.4.0 by @fontawesome - https://fontawesome.com License - https://fontawesome.com/license (Commercial License) Copyright 2023 Fonticons, Inc. --><path d="M448 0H424L408 32 368 48v80h80 32c35.3 0 64 28.7 64 64v64H490.7l-66.1-49.6c-40.2-30.1-89-46.4-139.2-46.4c-57.7 0-113.4 21.5-156.1 60.3L10.5 328.3 0 337.8V352 480v32H32 192h32 16 16 32V461.6L109.4 431.8 96 429.6V416 368 352h32v16 34.4l178.6 29.8 13.4 2.2V448v15.3c5.3 .4 10.6 .7 16 .7c16.6 0 32.7-2.1 48-6v54H512V424.1c76.5-35.9 128-113.5 128-201.5V192C640 86 554 0 448 0zm0 48a16 16 0 1 1 32 0 16 16 0 1 1 -32 0z"/></svg>