<svg xmlns="http://www.w3.org/2000/svg" viewBox="0 0 640 512"><!--! Font Awesome Pro 6.4.0 by @fontawesome - https://fontawesome.com License - https://fontawesome.com/license (Commercial License) Copyright 2023 Fonticons, Inc. --><path d="M0 0H576V211.2c-19.5-10-41.1-16.4-64-18.5V64H64V352H320.7c-.5 5.3-.7 10.6-.7 16c0 59.5 29.5 112.1 74.8 144H160 128V448h32 69.3L240 416H0V0zM480 120v72.7c-16.8 1.5-32.9 5.4-48 11.3v-4V177.9L321 289l-17 17-17-17-63-63-87 87L103 279 207 175l17-17 17 17 63 63L398.1 144H376 352V96h24 80 24v24zM352 368a144 144 0 1 1 288 0 144 144 0 1 1 -288 0zm118.6-25.4a35.9 35.9 0 1 1 50.7 50.7 35.9 35.9 0 1 1 -50.7-50.7zM531.3 426l25.3 25.3 22.6-22.6L554 403.3c13.2-21.6 13.2-49.1 0-70.7l25.3-25.3-22.6-22.6L531.3 310c-21.6-13.2-49.1-13.2-70.7 0l-25.3-25.3-22.6 22.6L438 332.7c-13.2 21.6-13.2 49.1 0 70.7l-25.3 25.3 22.6 22.6L460.7 426c21.6 13.2 49.1 13.2 70.7 0z"/></svg>