<svg xmlns="http://www.w3.org/2000/svg" viewBox="0 0 512 512"><!--! Font Awesome Pro 6.4.0 by @fontawesome - https://fontawesome.com License - https://fontawesome.com/license (Commercial License) Copyright 2023 Fonticons, Inc. --><path d="M50.4 288H128l32 32h64V224h48V144l32-32V53.6c-15.4-3.6-31.5-5.6-48-5.6C141.1 48 48 141.1 48 256c0 10.9 .8 21.6 2.4 32zM454 320H416V288H352l-64 64v64h64l15.6 15.6C408 405.8 439 366.5 454 320zM0 256a256 256 0 1 1 512 0A256 256 0 1 1 0 256zm128 96v32h64V352H128zm160-96H256v64h32V256zm32-128v64h32V128H320z"/></svg>