<svg xmlns="http://www.w3.org/2000/svg" viewBox="0 0 512 512"><!--! Font Awesome Pro 6.4.0 by @fontawesome - https://fontawesome.com License - https://fontawesome.com/license (Commercial License) Copyright 2023 Fonticons, Inc. --><path d="M256 512A256 256 0 1 0 256 0a256 256 0 1 0 0 512zM96 192h16 64c17.7 0 32 14.3 32 32s-14.3 32-32 32s-32-14.3-32-32H112 96V192zm208 0h64c17.7 0 32 14.3 32 32s-14.3 32-32 32s-32-14.3-32-32H304 288V192h16zm12.1 202.7c-11.7-13-31.6-26.7-60.1-26.7s-48.4 13.7-60.1 26.7l-10.7 11.9-23.8-21.4 10.7-11.9C188.2 355.4 216.3 336 256 336s67.8 19.4 83.9 37.3l10.7 11.9-23.8 21.4-10.7-11.9z"/></svg>