<svg xmlns="http://www.w3.org/2000/svg" viewBox="0 0 512 512"><!--! Font Awesome Pro 6.4.0 by @fontawesome - https://fontawesome.com License - https://fontawesome.com/license (Commercial License) Copyright 2023 Fonticons, Inc. --><path d="M256 512c141.4 0 256-114.6 256-256c0-31.8-5.8-62.2-16.4-90.3l.4-1.3V160 128 96H464h-8.1C408.9 37.5 336.8 0 256 0S103.1 37.5 56.1 96H48 16v32 32 4.5l.4 1.3C5.8 193.8 0 224.2 0 256C0 397.4 114.6 512 256 512zM208 272H80L48 160V128H240v16h32V128H464v32L432 272H304l-27.4-96H235.4L208 272zm-78.3 71.2l28.6-14.3c8.7 17.5 41.3 55.2 97.7 55.2s88.9-37.7 97.7-55.2l28.6 14.3C369.7 368.3 327.6 416 256 416s-113.7-47.7-126.3-72.8z"/></svg>