<svg xmlns="http://www.w3.org/2000/svg" viewBox="0 0 512 512"><!--! Font Awesome Pro 6.4.0 by @fontawesome - https://fontawesome.com License - https://fontawesome.com/license (Commercial License) Copyright 2023 Fonticons, Inc. --><path d="M24 0H136h24V48H136 48v88 24H0V136 24 0H24zM376 0H488h24V24 136v24H464V136 48H376 352V0h24zM48 376v88h88 24v48H136 24 0V488 376 352H48v24zm464 0V488v24H488 376 352V464h24 88V376 352h48v24zM96 256a160 160 0 1 1 320 0A160 160 0 1 1 96 256zm128-40a24 24 0 1 0 -48 0 24 24 0 1 0 48 0zm88 24a24 24 0 1 0 0-48 24 24 0 1 0 0 48zM192.5 292.9l-23.1 22.2C191.2 337.8 222 352 256 352s64.8-14.2 86.6-36.9l-23.1-22.2C303.5 309.6 281 320 256 320s-47.5-10.4-63.5-27.1z"/></svg>