<svg xmlns="http://www.w3.org/2000/svg" viewBox="0 0 512 512"><!--! Font Awesome Pro 6.4.0 by @fontawesome - https://fontawesome.com License - https://fontawesome.com/license (Commercial License) Copyright 2023 Fonticons, Inc. --><path d="M514.8 58.9L487.5 98.4l-36.3 52.5L371.3 97.5l37.2-53.8L435.8 4.3l79 54.6zm-161.6 65L433 177.2 241 454.9c-24.6 35.5-64.9 56.8-108.1 56.9C59.5 512 .1 452.3 .6 378.9l0-2.2c.2-25.7 7.8-50.8 21.8-72.4l17.3-26.5 26.3-40.2 80.4 52.5-26.3 40.2-17.3 26.5c-4 6.1-6.2 13.3-6.2 20.6l0 2.2c-.1 20 16 36.2 36 36.1c11.7 0 22.7-5.8 29.4-15.5L353.1 123.9zM432 352a80 80 0 1 1 0 160 80 80 0 1 1 0-160z"/></svg>