<svg xmlns="http://www.w3.org/2000/svg" viewBox="0 0 576 512"><!--! Font Awesome Pro 6.4.0 by @fontawesome - https://fontawesome.com License - https://fontawesome.com/license (Commercial License) Copyright 2023 Fonticons, Inc. --><path d="M0 0H224V160H384v38.6C310.1 219.5 256 287.4 256 368c0 59.5 29.6 112.1 74.8 144H0V0zM384 128H256V0L384 128zM288 368a144 144 0 1 1 288 0 144 144 0 1 1 -288 0zm222.6-32L488 313.4l-11.3 11.3L416 385.4l-28.7-28.7L376 345.4 353.4 368l11.3 11.3 40 40L416 430.6l11.3-11.3 72-72L510.6 336z"/></svg>