<svg xmlns="http://www.w3.org/2000/svg" viewBox="0 0 512 512"><!--! Font Awesome Pro 6.4.0 by @fontawesome - https://fontawesome.com License - https://fontawesome.com/license (Commercial License) Copyright 2023 Fonticons, Inc. --><path d="M0 0H224V160H384V304H112V512H0V0zM384 128H256V0L384 128zM176 352h32c30.9 0 56 25.1 56 56s-25.1 56-56 56H192v32 16H160V496 448 368 352h16zm32 80c13.3 0 24-10.7 24-24s-10.7-24-24-24H192v48h16zm96-80h32c26.5 0 48 21.5 48 48v64c0 26.5-21.5 48-48 48H304 288V496 368 352h16zm32 128c8.8 0 16-7.2 16-16V400c0-8.8-7.2-16-16-16H320v96h16zm80-128h16 48 16v32H480 448v32h32 16v32H480 448v48 16H416V496 432 368 352z"/></svg>