<svg xmlns="http://www.w3.org/2000/svg" viewBox="0 0 512 512"><!--! Font Awesome Pro 6.4.0 by @fontawesome - https://fontawesome.com License - https://fontawesome.com/license (Commercial License) Copyright 2023 Fonticons, Inc. --><path d="M352 0H128V134.7l23.6-9.7 22.5-9.2L189 135.1l15.6 20.2 25.3 3.4 24.1 3.3 3.3 24.1 3.4 25.3L280.9 227l19.2 14.9L291 264.4 281.3 288l9.7 23.6 9.2 22.5L280.9 349l-20.2 15.6-3.4 25.3L254 414l-24.1 3.3-5.9 .8V512v0H512V160H352V0zm32 0V128H512L384 0zM92.3 154.6l-3.7 4.8L68.6 185.2l-32.2 4.4-6 .8-.8 6-4.4 32.2L-.5 248.5l-4.8 3.7 2.3 5.6L9.3 288-3 318.1l-2.3 5.6 4.8 3.7 25.7 19.9 4.4 32.2 .8 6 6 .8L64 390.2V512l64-40 64 40V390.2l27.6-3.8 6-.8 .8-6 4.4-32.2 25.7-19.9 4.8-3.7-2.3-5.6L246.7 288 259 257.9l2.3-5.6-4.8-3.7-25.7-19.9-4.4-32.2-.8-6-6-.8-32.2-4.4-19.9-25.7-3.7-4.8-5.6 2.3L128 169.3 97.9 157l-5.6-2.3zM64 288a64 64 0 1 1 128 0A64 64 0 1 1 64 288z"/></svg>