<svg xmlns="http://www.w3.org/2000/svg" viewBox="0 0 576 512"><!--! Font Awesome Pro 6.4.0 by @fontawesome - https://fontawesome.com License - https://fontawesome.com/license (Commercial License) Copyright 2023 Fonticons, Inc. --><path d="M0 0H224V160H384v38.6C310.1 219.5 256 287.4 256 368c0 59.5 29.6 112.1 74.8 144H0V0zM384 128H256V0L384 128zm48 96a144 144 0 1 1 0 288 144 144 0 1 1 0-288zm15.3 64h-32v32h32V288zm1.2 64l-16 0L416 352l-16 0 0 32 16 0 .5 0v48l-.5 0-16 0 0 32 16 0 32 0h.5l15.5 0 0-32-15.5 0V368 352z"/></svg>