<svg xmlns="http://www.w3.org/2000/svg" viewBox="0 0 640 512"><!--! Font Awesome Pro 6.4.0 by @fontawesome - https://fontawesome.com License - https://fontawesome.com/license (Commercial License) Copyright 2023 Fonticons, Inc. --><path d="M160 0H288h32 32V64H320V214.9l19 30.9-36.4 63-41.9-68.1-4.7-7.7V224 64H192V224v9.1l-4.7 7.7L118.8 352H325.5l-35.6 20.5L360 493.8V512H32 0V480 432v-9.1l4.7-7.7L128 214.9V64H96V0h32 32zM436 206.4h88.1v42.4c7.9 3.4 15.4 7.7 22.3 12.8l35-20.2 45 77.8-35.2 20.3c.4 4 .7 8.1 .7 12.3s-.2 8.2-.7 12.3l35.2 20.3-45 77.8-35.1-20.2c-6.9 5.1-14.3 9.4-22.3 12.8V497H436V454.8c-8-3.4-15.6-7.7-22.5-12.9l-34.9 20.1-45-77.8 34.9-20.1c-.4-4.1-.7-8.2-.7-12.4s.2-8.3 .7-12.4l-34.9-20.2 44.9-77.8 34.9 20.2c6.9-5.1 14.5-9.4 22.5-12.9V206.4zm92.1 145.3a48.1 48.1 0 1 0 -96.1 0 48.1 48.1 0 1 0 96.1 0z"/></svg>