<svg xmlns="http://www.w3.org/2000/svg" viewBox="0 0 640 512"><!--! Font Awesome Pro 6.4.0 by @fontawesome - https://fontawesome.com License - https://fontawesome.com/license (Commercial License) Copyright 2023 Fonticons, Inc. --><path d="M64 32H512V480H64V32zM448 96H128V256H448V96zM192 336V320H160v16 16H144 128v32h16 16v16 16h32V400 384h16 16V352H208 192V336zm144 24a24 24 0 1 0 -48 0 24 24 0 1 0 48 0zm56 24a24 24 0 1 0 0-48 24 24 0 1 0 0 48zM544 144h24 48 24v24 32 24H616 592v72 24H568 544V272 256 200 168 144z"/></svg>