<svg xmlns="http://www.w3.org/2000/svg" viewBox="0 0 640 512"><!--! Font Awesome Pro 6.4.0 by @fontawesome - https://fontawesome.com License - https://fontawesome.com/license (Commercial License) Copyright 2023 Fonticons, Inc. --><path d="M0 128V512H96V192H544V512h96V128L320 0 0 128zM176.7 320l-15.1 39.4-1.6 4.2V368v24 24 64 32h64V480 464H416v16 32h64V480 416 392 366.2v-4.5l-1.7-4.2L463.7 320H412.1l6.3 16H222l6.2-16H176.7zM240 376a24 24 0 1 1 0 48 24 24 0 1 1 0-48zm136 24a24 24 0 1 1 48 0 24 24 0 1 1 -48 0zM512 224H128v64H512V224z"/></svg>