<svg xmlns="http://www.w3.org/2000/svg" viewBox="0 0 448 512"><!--! Font Awesome Pro 6.4.0 by @fontawesome - https://fontawesome.com License - https://fontawesome.com/license (Commercial License) Copyright 2023 Fonticons, Inc. --><path d="M320 96c0 33.4-17 62.8-42.9 80H368h64V304H368 320v24.8l80 96V512H306l-82-98.4L142 512H48V424.8l80-96V304H80 16V176H80h90.9C145 158.8 128 129.4 128 96c0-53 43-96 96-96s96 43 96 96zM192 96a16 16 0 1 0 0-32 16 16 0 1 0 0 32zm80-16a16 16 0 1 0 -32 0 16 16 0 1 0 32 0zM224 240a16 16 0 1 0 0-32 16 16 0 1 0 0 32zm16 112a16 16 0 1 0 -32 0 16 16 0 1 0 32 0zm-16-48a16 16 0 1 0 0-32 16 16 0 1 0 0 32z"/></svg>