<svg xmlns="http://www.w3.org/2000/svg" viewBox="0 0 512 512"><!--! Font Awesome Pro 6.4.0 by @fontawesome - https://fontawesome.com License - https://fontawesome.com/license (Commercial License) Copyright 2023 Fonticons, Inc. --><path d="M128 224a96 96 0 1 1 0-192 96 96 0 1 1 0 192zm0 256a96 96 0 1 1 0-192 96 96 0 1 1 0 192zM480 128a96 96 0 1 1 -192 0 96 96 0 1 1 192 0zM384 272c13.3 0 24 10.7 24 24v64h64c13.3 0 24 10.7 24 24s-10.7 24-24 24H408v64c0 13.3-10.7 24-24 24s-24-10.7-24-24V408H296c-13.3 0-24-10.7-24-24s10.7-24 24-24h64V296c0-13.3 10.7-24 24-24z"/></svg>