<svg xmlns="http://www.w3.org/2000/svg" viewBox="0 0 640 512"><!--! Font Awesome Pro 6.4.0 by @fontawesome - https://fontawesome.com License - https://fontawesome.com/license (Commercial License) Copyright 2023 Fonticons, Inc. --><path d="M48.4 14.8L29.4 .1 0 38 19 52.7 591.5 497.2l19 14.7L639.9 474l-19-14.7L509 372.4l6.8-7.4-35.4-32.4-134.2-123-23.4 18.2-26.1-20.3 77.4-60.2 12.6-9.8 19.6 25.3-12.6 9.8-20.9 16.2L512 316.8V128h-.7l-3.9-2.5L411.3 64H349.7L233.2 158.3l-26-20.2L298.8 64H224l-60.4 40.3L48.4 14.8zM96 171.6L40.6 128H0V384H96V171.6zM405.1 415.2L128 196.9V352h28.2l73.9 67.4 35.4 32.4 47.7-52.2 22.3 20.5 35.4 32.4 34.2-37.3zM32 336a16 16 0 1 1 32 0 16 16 0 1 1 -32 0zM640 128H544V384h96V128zM592 320a16 16 0 1 1 0 32 16 16 0 1 1 0-32z"/></svg>