<svg xmlns="http://www.w3.org/2000/svg" viewBox="0 0 640 512"><!--! Font Awesome Pro 6.4.0 by @fontawesome - https://fontawesome.com License - https://fontawesome.com/license (Commercial License) Copyright 2023 Fonticons, Inc. --><path d="M0 224.3C0 100.4 100.4 0 224.3 0H256C358.1 0 441.6 79.7 447.7 180.3L505 252l7 8.8V272v16 32H480 448v32L320 368v40l128 8v64H320v32H288 256 96 64V480 381.2C23 339.3 0 283 0 224.3zm352-.3a32 32 0 1 0 0-64 32 32 0 1 0 0 64zM464 384a24 24 0 1 1 48 0 24 24 0 1 1 -48 0zm152-24a24 24 0 1 1 0 48 24 24 0 1 1 0-48zM592 480a24 24 0 1 1 48 0 24 24 0 1 1 -48 0zM552 312a24 24 0 1 1 0 48 24 24 0 1 1 0-48zm40-24a24 24 0 1 1 48 0 24 24 0 1 1 -48 0zM552 408a24 24 0 1 1 0 48 24 24 0 1 1 0-48z"/></svg>