<svg xmlns="http://www.w3.org/2000/svg" viewBox="0 0 640 512"><!--! Font Awesome Pro 6.4.0 by @fontawesome - https://fontawesome.com License - https://fontawesome.com/license (Commercial License) Copyright 2023 Fonticons, Inc. --><path d="M448 325l46 35.7c6.5 1.7 11.9 6 15 11.7l46.1 35.8c8.7 1.1 16 7 19.2 14.9L616.7 456c10.7 .3 19.6 7.6 22.4 17.4l.8 .6-29.4 37.9-19-14.7L19 52.7 0 38 29.4 .1l19 14.7 40 31.1C126.1 17.1 173.2 0 224.3 0H256C358.1 0 441.6 79.7 447.7 180.3L505 252l7 8.8V272v16 32H480 448v5zM0 224.3c0-38.7 9.8-75.2 27.1-107L341.8 365.3 320 368v40l82.5 5.2L448 449v31H320v32H288 256 96 64V480 381.2C23 339.3 0 283 0 224.3zM616 360a24 24 0 1 1 0 48 24 24 0 1 1 0-48zm-64-48a24 24 0 1 1 0 48 24 24 0 1 1 0-48zm40-24a24 24 0 1 1 48 0 24 24 0 1 1 -48 0z"/></svg>