<svg xmlns="http://www.w3.org/2000/svg" viewBox="0 0 512 512"><!--! Font Awesome Pro 6.4.0 by @fontawesome - https://fontawesome.com License - https://fontawesome.com/license (Commercial License) Copyright 2023 Fonticons, Inc. --><path d="M272 24c0 26.7 14.3 46.4 35 73.4l1.4 1.9C327.5 124 352 155.8 352 200v24H304V200c0-26.7-14.3-46.4-35-73.4l-1.4-1.9C248.5 100 224 68.2 224 24V0h48V24zm112 0c0 26.7 14.3 46.4 35 73.4l1.4 1.9C439.5 124 464 155.8 464 200v24H416V200c0-26.7-14.3-46.4-35-73.4l-1.4-1.9C360.5 100 336 68.2 336 24V0h48V24zM0 512V336 256 160H128l128 96H512V512H0zM128 320H96v16 96 16h32V432 336 320zm96 0H192v16 96 16h32V432 336 320zm96 0H288v16 96 16h32V432 336 320zm96 0H384v16 96 16h32V432 336 320zM0 64a64 64 0 1 1 128 0A64 64 0 1 1 0 64z"/></svg>