<svg xmlns="http://www.w3.org/2000/svg" viewBox="0 0 576 512"><!--! Font Awesome Pro 6.4.0 by @fontawesome - https://fontawesome.com License - https://fontawesome.com/license (Commercial License) Copyright 2023 Fonticons, Inc. --><path d="M336 0L96 208v32.4c81.8 28.9 146.7 93.8 175.6 175.6H512V256h64V208L336 0zM288 192h96v96H288V192zM0 304c114.9 0 208 93.1 208 208h48C256 370.6 141.4 256 0 256v48zM32 512a32 32 0 1 0 0-64 32 32 0 1 0 0 64zm80 0h48c0-88.4-71.6-160-160-160v48c61.9 0 112 50.1 112 112z"/></svg>