<svg xmlns="http://www.w3.org/2000/svg" viewBox="0 0 640 512"><!--! Font Awesome Pro 6.4.0 by @fontawesome - https://fontawesome.com License - https://fontawesome.com/license (Commercial License) Copyright 2023 Fonticons, Inc. --><path d="M448 128a64 64 0 1 1 128 0 64 64 0 1 1 -128 0zm-60 32c14.2 55.2 64.3 96 124 96c70.7 0 128-57.3 128-128S582.7 0 512 0C452.4 0 402.2 40.8 388 96L192 96H160l0 32 0 64 0 32 64 0 0-32 0-32h32v32 32h64V192 160h68zM192 384A64 64 0 1 1 64 384a64 64 0 1 1 128 0zm60-32c-14.2-55.2-64.3-96-124-96C57.3 256 0 313.3 0 384s57.3 128 128 128c59.6 0 109.8-40.8 124-96l196 0h32l0-32 0-64 0-32-64 0 0 32 0 32H384V320 288H320v32 32l-68 0z"/></svg>