<svg xmlns="http://www.w3.org/2000/svg" viewBox="0 0 640 512"><!--! Font Awesome Pro 6.4.0 by @fontawesome - https://fontawesome.com License - https://fontawesome.com/license (Commercial License) Copyright 2023 Fonticons, Inc. --><path d="M344 0H318.6l-5.8 24.8-80 344-1.4 5.8L142.1 464H120V356.7l-24-10-24 10V488v24H96h56 9.9l7-7 96.4-96.4 5.8-1.4 344-80 24.8-5.8V296 32 0H608 344zM24 128H0v48H24 72V286L0 256v96l72-30 24-10 24 10 72 30V256l-72 30V152 128H96 24zM427.3 84.7L480 137.4l52.7-52.7L544 73.4 566.6 96l-11.3 11.3L502.6 160l52.7 52.7L566.6 224 544 246.6l-11.3-11.3L480 182.6 363.3 299.3 352 310.6 329.4 288l11.3-11.3L457.4 160l-52.7-52.7L393.4 96 416 73.4l11.3 11.3z"/></svg>