<svg xmlns="http://www.w3.org/2000/svg" viewBox="0 0 576 512"><!--! Font Awesome Pro 6.4.0 by @fontawesome - https://fontawesome.com License - https://fontawesome.com/license (Commercial License) Copyright 2023 Fonticons, Inc. --><path d="M225.9 372.5l6.6 11.5H112c-9.6-31.9-29.5-59.1-49.2-86.2l0 0c-5.2-7.1-10.4-14.2-15.4-21.4C27.6 247.9 16 213.3 16 176C16 78.8 94.8 0 192 0c96.7 0 175.1 77.9 176 174.4H340v44.6l-37.1-21.4L225.9 330.9 262 351.7l-36.1 20.8zM112 416H251l21 36.3V512H112V416zm0-240c0-44.2 35.8-80 80-80V64C130.1 64 80 114.1 80 176h32zm260 30.4h88.1v42.4c7.9 3.4 15.4 7.7 22.3 12.8l35-20.2 45 77.8-35.2 20.3c.4 4 .7 8.1 .7 12.3s-.2 8.2-.7 12.3l35.2 20.3-45 77.8-35.1-20.2c-6.9 5.1-14.3 9.4-22.3 12.8V497H372V454.8c-8-3.4-15.6-7.7-22.5-12.9l-34.9 20.1-45-77.8 34.9-20.1c-.4-4.1-.7-8.2-.7-12.4s.2-8.3 .7-12.4l-34.9-20.2 44.9-77.8 34.9 20.2c6.9-5.1 14.5-9.4 22.5-12.9V206.4zm92.1 145.3a48.1 48.1 0 1 0 -96.1 0 48.1 48.1 0 1 0 96.1 0z"/></svg>