<svg xmlns="http://www.w3.org/2000/svg" viewBox="0 0 512 512"><!--! Font Awesome Pro 6.4.0 by @fontawesome - https://fontawesome.com License - https://fontawesome.com/license (Commercial License) Copyright 2023 Fonticons, Inc. --><path d="M169.9 54.2L153.8 72.1l-72 80L64.9 170.9 47 153 7 113l-17-17L24 62.1 41 79l22.1 22.1 55.1-61.2 16.1-17.8 35.7 32.1zm0 160l-16.1 17.8-72 80L64.9 330.9 47 313 7 273l-17-17L24 222.1l17 17 22.1 22.1 55.1-61.2 16.1-17.8 35.7 32.1zM224 64h32H480h32v64H480 256 224V64zm0 160h32H480h32v64H480 256 224V224zM160 384h32H480h32v64H480 192 160V384zM48 368a48 48 0 1 1 0 96 48 48 0 1 1 0-96z"/></svg>