<svg xmlns="http://www.w3.org/2000/svg" viewBox="0 0 512 512"><!--! Font Awesome Pro 6.4.0 by @fontawesome - https://fontawesome.com License - https://fontawesome.com/license (Commercial License) Copyright 2023 Fonticons, Inc. --><path d="M80 2V96l42.9-57.2c3.3 7.7 5.1 16.2 5.1 25.2v64c0 14.9-5.1 28.6-13.6 39.4L151.3 192h46.5c2.7-7.3 6.2-14 10.2-20.2V53.6l-34.6-5.8-15.8-2.6 5.3-31.6 15.8 2.6 48 8L240 26.4V40v98c5.9-4.4 11.4-7.7 16-10c4.6 2.3 10.1 5.6 16 10V40 26.4l13.4-2.2 48-8 15.8-2.6 5.3 31.6-15.8 2.6L304 53.6V171.8c4 6.2 7.5 13 10.2 20.2h46.5l36.9-24.6C389.1 156.6 384 142.9 384 128V64c0-8.9 1.8-17.4 5.1-25.2L432 96V2c5.1-1.3 10.5-2 16-2c35.3 0 64 28.7 64 64v64c0 35.3-28.7 64-64 64l-.7 0-66 44-6 4H368 320v16h60.2l44.6-22.3 14.3-7.2 14.3 28.6-14.3 7.2-48 24-3.4 1.7H384 320v16h77.4l45.5-15.2 15.2-5.1 10.1 30.4-15.2 5.1-48 16-2.5 .8H400 320v16h32 3.8l3.4 1.7 32 16 14.3 7.2-14.3 28.6-14.3-7.2L348.2 384H320l-21.6 64.8c30.4 5 53.6 31.4 53.6 63.2H160c0-31.8 23.2-58.2 53.6-63.2L192 384H163.8l-28.6 14.3-14.3 7.2-14.3-28.6 14.3-7.2 32-16 3.4-1.7H160h32V336H112h-2.6l-2.5-.8-48-16-15.2-5.1 10.1-30.4 15.2 5.1L114.6 304H192V288H128h-3.8l-3.4-1.7-48-24-14.3-7.2 14.3-28.6 14.3 7.2L131.8 256H192V240H144h-7.3l-6-4-66-44-.7 0c-35.3 0-64-28.7-64-64V64C0 28.7 28.7 0 64 0c5.5 0 10.9 .7 16 2z"/></svg>