<svg xmlns="http://www.w3.org/2000/svg" viewBox="0 0 576 512"><!--! Font Awesome Pro 6.4.0 by @fontawesome - https://fontawesome.com License - https://fontawesome.com/license (Commercial License) Copyright 2023 Fonticons, Inc. --><path d="M384 0H0V512H330.8C285.6 480.1 256 427.5 256 368c0-80.6 54.1-148.5 128-169.4V0zM80 128H304h16v32H304 80 64V128H80zm0 96H240h16v32H240 80 64V224H80zm0 96h96 16v32H176 80 64V320H80zM432 512a144 144 0 1 0 0-288 144 144 0 1 0 0 288zm15.3-224v32h-32V288h32zm1.2 64v16 64l15.5 0 0 32-15.5 0H448l-32 0-16 0 0-32 16 0 .5 0V384l-.5 0-16 0 0-32 16 0 16.5 0 16 0z"/></svg>