<svg xmlns="http://www.w3.org/2000/svg" viewBox="0 0 640 512"><!--! Font Awesome Pro 6.4.0 by @fontawesome - https://fontawesome.com License - https://fontawesome.com/license (Commercial License) Copyright 2023 Fonticons, Inc. --><path d="M512 112v64h24L640 88 536 0H512V64L384 64l-24 0 0 48 24 0 128 0zM256 400l-128 0 0-64H104L0 424l104 88h24l0-64 128 0 24 0 0-48-24 0zm64-248l0-88H32V355l51.3-43.4 8.9-7.6H104h24 32v32 24l96 0 64 0 0 88H608V157l-51.3 43.4-8.9 7.6H536 512 480V176 152l-96 0-64 0zM96 192V128h64c0 35.3-28.7 64-64 64zM480 384c0-35.3 28.7-64 64-64v64H480zM320 192a64 64 0 1 1 0 128 64 64 0 1 1 0-128z"/></svg>