<svg xmlns="http://www.w3.org/2000/svg" viewBox="0 0 640 512"><!--! Font Awesome Pro 6.4.0 by @fontawesome - https://fontawesome.com License - https://fontawesome.com/license (Commercial License) Copyright 2023 Fonticons, Inc. --><path d="M48.4 14.8L29.4 .1 0 38 19 52.7 591.5 497.2l19 14.7L639.9 474l-19-14.7L384 275.4V165.8l103.8-25.9 24.2-6.1v-25-64V3.8l-39.8 9.9-128 32L320 51.8v25 64 84.9L48.4 14.8zM384 411.2L317.8 359c-14-4.5-29.5-7-45.8-7c-61.9 0-112 35.8-112 80s50.1 80 112 80s112-35.8 112-80V411.2z"/></svg>