<svg xmlns="http://www.w3.org/2000/svg" viewBox="0 0 448 512"><!--! Font Awesome Pro 6.4.0 by @fontawesome - https://fontawesome.com License - https://fontawesome.com/license (Commercial License) Copyright 2023 Fonticons, Inc. --><path d="M0 0V160H448V0H0zM56 80a24 24 0 1 1 48 0A24 24 0 1 1 56 80zM176 56a24 24 0 1 1 0 48 24 24 0 1 1 0-48zm72 24a24 24 0 1 1 48 0 24 24 0 1 1 -48 0zM368 56a24 24 0 1 1 0 48 24 24 0 1 1 0-48zm16 200V448H64V256H384zM64 192H0v64V448v64H64 384h64V448 256 192H384 64zm272 96H112 96v32h16H336h16V288H336z"/></svg>