<svg xmlns="http://www.w3.org/2000/svg" viewBox="0 0 640 512"><!--! Font Awesome Pro 6.4.0 by @fontawesome - https://fontawesome.com License - https://fontawesome.com/license (Commercial License) Copyright 2023 Fonticons, Inc. --><path d="M320 512A256 256 0 1 0 320 0a256 256 0 1 0 0 512zm0-448c39.8 0 72 32.2 72 72v8H248v-8c0-39.8 32.2-72 72-72zM244.3 200l-14.1 14.1-32 32L184 260.3 155.7 232l14.1-14.1 32-32L216 171.7 244.3 200zM296 224a24 24 0 1 1 48 0 24 24 0 1 1 -48 0zM416 360a24 24 0 1 1 0 48 24 24 0 1 1 0-48zM238.6 296l-8 8 16 16H280c30.9 0 56 25.1 56 56s-25.1 56-56 56s-56-25.1-56-56V342.6l-16-16-8 8L177.4 312l11.3-11.3 8-8 8-8L216 273.4 238.6 296zM464 176l11 11c13.4 13.4 21 31.6 21 50.6v4.8c0 18.7-8.5 36.4-23.1 48.1C462 299.2 448.4 304 434.4 304l-4.1 0c-19.4 0-38-7.7-51.8-21.4L368 272l96-96zM48 160H0v24V328v24H48V328 184 160zm592 24V160H592v24V328v24h48V328 184z"/></svg>