<svg xmlns="http://www.w3.org/2000/svg" viewBox="0 0 640 512"><!--! Font Awesome Pro 6.4.0 by @fontawesome - https://fontawesome.com License - https://fontawesome.com/license (Commercial License) Copyright 2023 Fonticons, Inc. --><path d="M74.2 460.4L64 511.4l51-10.2 109-21.8L339.7 363.7l-76.8-60.5-27.6 27.6L224 342.1l-22.6-22.6 11.3-11.3 24.9-24.9-41-32.3L96 351.4l-21.8 109zM408.8 294.6l75.9-75.9-16-16-96-96-16-16-92 92L48.4 14.8 29.4 .1 0 38 19 52.7 591.5 497.2l19 14.7L639.9 474l-19-14.7L408.8 294.6zM306 214.8l50.7-50.7L368 152.8l22.6 22.6-11.3 11.3-47.8 47.8L306 214.8zM379.3 68.1l16 16 96 96 16 16 34.7-34.7L576 127.4 542.1 93.5 481.9 33.4 448-.6 414.1 33.4 379.3 68.1zM163.9 351.4H176v48h48v12.1l-23.7 23.7-75.1 15 15-75.1 23.7-23.7z"/></svg>