<svg xmlns="http://www.w3.org/2000/svg" viewBox="0 0 512 512"><!--! Font Awesome Pro 6.4.0 by @fontawesome - https://fontawesome.com License - https://fontawesome.com/license (Commercial License) Copyright 2023 Fonticons, Inc. --><path d="M256 96a48 48 0 1 0 0-96 48 48 0 1 0 0 96zm-51.1 32H187.4L178 142.8l-81.7 128 53.9 34.4 33.8-53V480v32h64V480 352h16V480v32h64V480 252.2l33.8 53 53.9-34.4L334 142.8 324.6 128H307.1 204.9zM57 23L40 6.1 6.1 40 23 57l64 64 17 17L137.9 104 121 87 57 23zM489 57l17-17L472 6.1 455 23 391 87l-17 17L408 137.9l17-17 64-64zM121 425l17-17L104 374.1 87 391 23 455l-17 17L40 505.9l17-17 64-64zM425 391l-17-17L374.1 408l17 17 64 64 17 17L505.9 472l-17-17-64-64z"/></svg>