<svg xmlns="http://www.w3.org/2000/svg" viewBox="0 0 576 512"><!--! Font Awesome Pro 6.4.0 by @fontawesome - https://fontawesome.com License - https://fontawesome.com/license (Commercial License) Copyright 2023 Fonticons, Inc. --><path d="M112 48a48 48 0 1 1 96 0 48 48 0 1 1 -96 0zM91.4 128h17.5H211.1h17.5l9.4 14.8 66.4 104c-15.5 16.3-28 35.7-36.3 57l-2.3 1.4-33.8-53V480v32H168V480 352H152V480v32H88V480 252.2l-33.8 53L.2 270.8 82 142.8 91.4 128zM288 368a144 144 0 1 1 288 0 144 144 0 1 1 -288 0zm224 16V352H496 368 352v32h16H496h16z"/></svg>