<svg xmlns="http://www.w3.org/2000/svg" viewBox="0 0 640 512"><!--! Font Awesome Pro 6.4.0 by @fontawesome - https://fontawesome.com License - https://fontawesome.com/license (Commercial License) Copyright 2023 Fonticons, Inc. --><path d="M448 48a48 48 0 1 0 -96 0 48 48 0 1 0 96 0zM427.2 160L336 88 223.2 175.2c-30.7 23.8-28.5 70.8 4.3 91.6L288 305.1V448h64V270.9l-57-38 60.3-48.5L404.8 224H512V160H427.2zM176 176L304 80 256 20H213.3L112 96l64 80zm-16 80H96v20.6c-7.4 2.2-14.6 5.2-21.3 8.8L60.1 270.9 14.9 316.1l14.6 14.6c-3.6 6.7-6.6 13.8-8.8 21.3H0v64H20.6c2.2 7.4 5.2 14.6 8.8 21.3L14.9 451.9l45.3 45.3 14.6-14.6c6.7 3.6 13.8 6.6 21.3 8.8V512h64V491.4c7.4-2.2 14.6-5.2 21.3-8.8l14.6 14.6 45.3-45.3-14.6-14.6c3.6-6.7 6.6-13.8 8.8-21.3H256V352H235.4c-2.2-7.4-5.2-14.6-8.8-21.3l14.6-14.6-45.3-45.3-14.6 14.6c-6.7-3.6-13.8-6.6-21.3-8.8V256zm-32 64a64 64 0 1 1 0 128 64 64 0 1 1 0-128zm352-64v20.6c-7.4 2.2-14.6 5.2-21.3 8.8l-14.6-14.6-45.3 45.3 14.6 14.6c-3.6 6.7-6.6 13.8-8.8 21.3H384v64h20.6c2.2 7.4 5.2 14.6 8.8 21.3l-14.6 14.6 45.3 45.3 14.6-14.6c6.7 3.6 13.8 6.6 21.3 8.8V512h64V491.4c7.4-2.2 14.6-5.2 21.3-8.8l14.6 14.6 45.3-45.3-14.6-14.6c3.6-6.7 6.6-13.8 8.8-21.3H640V352H619.4c-2.2-7.4-5.2-14.6-8.8-21.3l14.6-14.6-45.3-45.3-14.6 14.6c-6.7-3.6-13.8-6.6-21.3-8.8V256H480zM448 384a64 64 0 1 1 128 0 64 64 0 1 1 -128 0z"/></svg>