<svg xmlns="http://www.w3.org/2000/svg" viewBox="0 0 640 512"><!--! Font Awesome Pro 6.4.0 by @fontawesome - https://fontawesome.com License - https://fontawesome.com/license (Commercial License) Copyright 2023 Fonticons, Inc. --><path d="M32 48a48 48 0 1 1 96 0A48 48 0 1 1 32 48zM0 128H32 80 97.1l9.5 14.3L161.1 224H224h32v18.2l292.1-48.7L513.6 90.1 512 85.2V80 32 0h32 64 32V32 178.2 216v8 32V480v32H576V480 384H256v96 32H192V480 288H144 126.9l-9.5-14.3L96 241.7v65.1l54.6 54.6 9.4 9.4V384v96 32H96V480 397.3L41.4 342.6 18.7 320C6.7 308 0 291.7 0 274.7V160 128zM0 480L0 346.5l64 64V480v0l0 32L0 512l0-32zM280 336a24 24 0 1 0 0-48 24 24 0 1 0 0 48z"/></svg>