<svg xmlns="http://www.w3.org/2000/svg" viewBox="0 0 576 512"><!--! Font Awesome Pro 6.4.0 by @fontawesome - https://fontawesome.com License - https://fontawesome.com/license (Commercial License) Copyright 2023 Fonticons, Inc. --><path d="M416 1.4l-192 16v48H416V1.4zm-176 112c0 44.2 35.8 80 80 80s80-35.8 80-80c0-5.5-.6-10.8-1.6-16H241.6c-1 5.2-1.6 10.5-1.6 16zM72 225.4H32v80H72 224v89.4L393.4 225.4H240 72zm356.7 9.9L246.6 417.4H416V371.1l53.6 90.6 20.3 34.4 68.9-40.7L538.4 421l-104-176-5.7-9.7zM224 449.4v64H416v-64H224z"/></svg>