<svg xmlns="http://www.w3.org/2000/svg" viewBox="0 0 448 512"><!--! Font Awesome Pro 6.4.0 by @fontawesome - https://fontawesome.com License - https://fontawesome.com/license (Commercial License) Copyright 2023 Fonticons, Inc. --><path d="M272 96a48 48 0 1 0 0-96 48 48 0 1 0 0 96zM128 96H114.7l-9.4 9.4-48 48L34.7 176 80 221.3l22.6-22.6L141.3 160h27.7l-31.3 94c-9.3 28 1.7 58.8 26.8 74.5l86.2 53.9-9.4 32.8-16 56L213.6 512h66.6l6.6-23.2 16-56 16-56 6.6-23.2L305 340.9 238 299l29-77.4 24.3 48.6 8.8 17.7H320h48 32V224H368 339.8l-39.2-78.3-5.4-10.9-11.3-4.5-80-32L198.2 96H192 128zM109.5 310.7L91.2 352H32 0v64H32h80 20.8l8.4-19L157 361.6l-9.5-6c-17.5-10.9-30.5-26.8-37.9-44.9z"/></svg>