<svg xmlns="http://www.w3.org/2000/svg" viewBox="0 0 640 512"><!--! Font Awesome Pro 6.4.0 by @fontawesome - https://fontawesome.com License - https://fontawesome.com/license (Commercial License) Copyright 2023 Fonticons, Inc. --><path d="M208 0L64 32l0 32c0 247.4 200.6 448 448 448h32l32-144L432 288l-67 83.8C296.5 335.7 240.3 279.5 204.2 211L288 144 208 0zm362 40L536 6.1 519 23l-47 47L425 23l-17-17L374.1 40l17 17 47 47-47 47-17 17L408 201.9l17-17 47-47 47 47 17 17L569.9 168l-17-17-47-47 47-47 17-17z"/></svg>