<svg xmlns="http://www.w3.org/2000/svg" viewBox="0 0 640 512"><!--! Font Awesome Pro 6.4.0 by @fontawesome - https://fontawesome.com License - https://fontawesome.com/license (Commercial License) Copyright 2023 Fonticons, Inc. --><path d="M64 96v32V384v32H0V384 128 96H64zm448 0v32 64.7c-5.3-.5-10.6-.7-16-.7c-16.6 0-32.7 2.3-48 6.6V128 96h64zM320 368c0 5.4 .2 10.7 .7 16H96V128H416v83.2c-57 29.1-96 88.4-96 156.8zm32 0a144 144 0 1 1 288 0 144 144 0 1 1 -288 0zm222.6-32L552 313.4l-11.3 11.3L480 385.4l-28.7-28.7L440 345.4 417.4 368l11.3 11.3 40 40L480 430.6l11.3-11.3 72-72L574.6 336z"/></svg>