<svg xmlns="http://www.w3.org/2000/svg" viewBox="0 0 640 512"><!--! Font Awesome Pro 6.4.0 by @fontawesome - https://fontawesome.com License - https://fontawesome.com/license (Commercial License) Copyright 2023 Fonticons, Inc. --><path d="M128 48A48 48 0 1 0 32 48a48 48 0 1 0 96 0zM576 96v32H480V96h96zM288 32H224V96v32 64h64H576h64V128 96 32H576 288zM576 384v32H352V384H576zM288 320H224v64 32 64h64H576h64V416 384 320H576 288zM160 224l-32-96H32L0 224H160zM128 336a48 48 0 1 0 -96 0 48 48 0 1 0 96 0zm32 176l-32-96H32L0 512H160z"/></svg>