<svg xmlns="http://www.w3.org/2000/svg" viewBox="0 0 448 512"><!--! Font Awesome Pro 6.4.0 by @fontawesome - https://fontawesome.com License - https://fontawesome.com/license (Commercial License) Copyright 2023 Fonticons, Inc. --><path d="M208 0c64 0 112 43 112 96c0 11.2-1.9 22-5.5 32H320c35.3 0 64 28.7 64 64c0 12.7-3.7 24.6-10.1 34.5c42.5 9.9 74.1 48 74.1 93.5v64H352V320H275.5l40-128h-51L64 344.3V384H0V320c0-45.5 31.6-83.6 74.1-93.5C67.7 216.6 64 204.7 64 192c0-35.3 28.7-64 64-64h32C272 96 208 0 208 0zM184 384H96V360L272 224 232 352h88v24L144 512l40-128z"/></svg>