<svg xmlns="http://www.w3.org/2000/svg" viewBox="0 0 512 512"><!--! Font Awesome Pro 6.4.0 by @fontawesome - https://fontawesome.com License - https://fontawesome.com/license (Commercial License) Copyright 2023 Fonticons, Inc. --><path d="M64 184.3v51C106.8 212.1 170 192 256 192s149.2 20.1 192 43.3v-51c-23.1-20-82.6-56.3-192-56.3s-168.9 36.3-192 56.3zM512 192v88.1V288v16 32 16c-21.3 32-102.4 96-256 96S21.3 384 0 352V336 304 288v-7.9V192 160c21.3-32 102.4-96 256-96s234.7 64 256 96v32zM400.1 265.6C365.8 251.5 318.4 240 256 240s-109.8 11.5-144.1 25.6C150 278.8 197.8 288 256 288s106-9.2 144.1-22.4z"/></svg>