<svg xmlns="http://www.w3.org/2000/svg" viewBox="0 0 640 512"><!--! Font Awesome Pro 6.4.0 by @fontawesome - https://fontawesome.com License - https://fontawesome.com/license (Commercial License) Copyright 2023 Fonticons, Inc. --><path d="M352 0V32 96H544V512H96V96H288V32 0h64zM208 384H192v32h16 32 16V384H240 208zm96 0H288v32h16 32 16V384H336 304zm96 0H384v32h16 32 16V384H432 400zM264 256a40 40 0 1 0 -80 0 40 40 0 1 0 80 0zm152 40a40 40 0 1 0 0-80 40 40 0 1 0 0 80zM64 224V416H0V224H64zm576 0V416H576V224h64z"/></svg>