<svg xmlns="http://www.w3.org/2000/svg" viewBox="0 0 448 512"><!--! Font Awesome Pro 6.4.0 by @fontawesome - https://fontawesome.com License - https://fontawesome.com/license (Commercial License) Copyright 2023 Fonticons, Inc. --><path d="M320 96c0 11.2-1.9 22-5.5 32H432l-16 32 32 32-32 32 16 32H320l32 160-64-32-64 32-64-32L96 416l32-160H16l16-32L0 192l32-32L16 128H133.5c-3.5-10-5.5-20.8-5.5-32c0-53 43-96 96-96s96 43 96 96zM208 80a16 16 0 1 0 -32 0 16 16 0 1 0 32 0zm48 32a16 16 0 1 0 0-32 16 16 0 1 0 0 32zM192 480V435.8l17.7 8.8 14.3 7.2 14.3-7.2 17.7-8.8V480v32H192V480z"/></svg>