<svg xmlns="http://www.w3.org/2000/svg" viewBox="0 0 576 512"><!--! Font Awesome Pro 6.4.0 by @fontawesome - https://fontawesome.com License - https://fontawesome.com/license (Commercial License) Copyright 2023 Fonticons, Inc. --><path d="M320 0h96V96H320.7l89.6 64H544h32v32V480v32H544 336V400c0-26.5-21.5-48-48-48s-48 21.5-48 48V512H32 0V480 192 160H32 165.7L256 95.5V32 0h32 32zm16 240a48 48 0 1 0 -96 0 48 48 0 1 0 96 0zM128 224H64v96h64V224zm320 0v96h64V224H448zM128 352H64v96h64V352zm384 0H448v96h64V352z"/></svg>