<svg xmlns="http://www.w3.org/2000/svg" viewBox="0 0 512 512"><!--! Font Awesome Pro 6.4.0 by @fontawesome - https://fontawesome.com License - https://fontawesome.com/license (Commercial License) Copyright 2023 Fonticons, Inc. --><path d="M267.6 4.5L256 0 244.4 4.5 36.9 85 17.8 92.5 16.6 113c-2.9 49.9 4.9 126.3 37.3 200.9c32.7 75.3 91 150 189.4 192.6L256 512l12.7-5.5c98.4-42.6 156.7-117.3 189.4-192.6c32.4-74.7 40.2-151 37.3-200.9l-1.2-20.5L475.1 85 267.6 4.5zM224 81.1l32-12.4 32 12.4V160H431c-1.5 19.5-4.7 41.3-10.1 64H288V423.8c-10 6.5-20.7 12.6-32 18.1c-11.3-5.5-22-11.6-32-18.1V224H91.2c-5.4-22.7-8.6-44.5-10.1-64H224V81.1z"/></svg>