<svg xmlns="http://www.w3.org/2000/svg" viewBox="0 0 512 512"><!--! Font Awesome Pro 6.4.0 by @fontawesome - https://fontawesome.com License - https://fontawesome.com/license (Commercial License) Copyright 2023 Fonticons, Inc. --><path d="M256 0l11.6 4.5L475.1 85l19.2 7.4 1.2 20.5c2.9 50-4.9 126.3-37.3 200.9c-32.7 75.2-91.1 150-189.4 192.6L256 512l-12.7-5.5C144.9 463.9 86.5 389.2 53.9 313.9C21.4 239.3 13.6 162.9 16.6 113l1.2-20.5L36.9 85 244.4 4.5 256 0zm56 208c0-30.9-25.1-56-56-56s-56 25.1-56 56c0 22.3 13.1 41.6 32 50.6V328v24h48V328 258.6c18.9-9 32-28.3 32-50.6z"/></svg>