<svg xmlns="http://www.w3.org/2000/svg" viewBox="0 0 512 512"><!--! Font Awesome Pro 6.4.0 by @fontawesome - https://fontawesome.com License - https://fontawesome.com/license (Commercial License) Copyright 2023 Fonticons, Inc. --><path d="M256 0l11.6 4.5L475.1 85l19.2 7.4 1.2 20.5c2.9 50-4.9 126.3-37.3 200.9c-32.7 75.2-91.1 150-189.4 192.6L256 512l-12.7-5.5C144.9 463.9 86.5 389.2 53.9 313.9C21.4 239.3 13.6 162.9 16.6 113l1.2-20.5L36.9 85 244.4 4.5 256 0zM160.9 286.2L144 320l128 64V320h48c44.2 0 80-35.8 80-80V192H320l-16-32H240v64c0 35.3-28.7 64-64 64c-5.2 0-10.3-.6-15.1-1.8zM144 160v64c0 17.7 14.3 32 32 32s32-14.3 32-32V192 160h-8H144zm112 48a16 16 0 1 1 32 0 16 16 0 1 1 -32 0z"/></svg>