<svg xmlns="http://www.w3.org/2000/svg" viewBox="0 0 512 512"><!--! Font Awesome Pro 6.4.0 by @fontawesome - https://fontawesome.com License - https://fontawesome.com/license (Commercial License) Copyright 2023 Fonticons, Inc. --><path d="M256 0l11.6 4.5L475.1 85l19.2 7.4 1.2 20.5c2.9 50-4.9 126.3-37.3 200.9c-32.7 75.3-91.1 150-189.4 192.6L256 512l-12.7-5.5C144.9 463.9 86.5 389.2 53.9 313.9C21.4 239.3 13.6 162.9 16.6 113l1.2-20.5L36.9 85 244.4 4.5 256 0zM80 137c.3 24.7 3.5 54.9 11.1 87H256V68.7L80 137zM256 441.9c72.8-35.5 117.2-93.2 143.5-153.5c9.4-21.6 16.4-43.4 21.4-64.4H256V441.9z"/></svg>