<svg xmlns="http://www.w3.org/2000/svg" viewBox="0 0 512 512"><!--! Font Awesome Pro 6.4.0 by @fontawesome - https://fontawesome.com License - https://fontawesome.com/license (Commercial License) Copyright 2023 Fonticons, Inc. --><path d="M288 0V32 64H416h32v64H416 288v32H480h32v64H480 288v32h96 32v64H384 288v64 2.3L368 352h80v96l-64 64H128L64 448V352h80l80 34.3V384 320H128 96V256h32 96V224H32 0V160H32 224V128H96 64V64H96 224V32 0h64zM184 440a24 24 0 1 0 -48 0 24 24 0 1 0 48 0zm192 0a24 24 0 1 0 -48 0 24 24 0 1 0 48 0z"/></svg>