<svg xmlns="http://www.w3.org/2000/svg" viewBox="0 0 512 512"><!--! Font Awesome Pro 6.4.0 by @fontawesome - https://fontawesome.com License - https://fontawesome.com/license (Commercial License) Copyright 2023 Fonticons, Inc. --><path d="M24 0a24 24 0 1 1 0 48A24 24 0 1 1 24 0zM0 128a24 24 0 1 1 48 0A24 24 0 1 1 0 128zM0 232a24 24 0 1 1 48 0A24 24 0 1 1 0 232zM64 72a24 24 0 1 1 48 0A24 24 0 1 1 64 72zm24 88a24 24 0 1 1 0 48 24 24 0 1 1 0-48zm40-32a24 24 0 1 1 48 0 24 24 0 1 1 -48 0zm360 80a24 24 0 1 1 0 48 24 24 0 1 1 0-48zm24-80a24 24 0 1 1 -48 0 24 24 0 1 1 48 0zM488 0a24 24 0 1 1 0 48 24 24 0 1 1 0-48zM448 72a24 24 0 1 1 -48 0 24 24 0 1 1 48 0zm-24 88a24 24 0 1 1 0 48 24 24 0 1 1 0-48zm-40-32a24 24 0 1 1 -48 0 24 24 0 1 1 48 0zM288 64V96 256H416v40l-96 88V512H192V384L96 296V256H224V96 64h64z"/></svg>