<svg xmlns="http://www.w3.org/2000/svg" viewBox="0 0 576 512"><!--! Font Awesome Pro 6.4.0 by @fontawesome - https://fontawesome.com License - https://fontawesome.com/license (Commercial License) Copyright 2023 Fonticons, Inc. --><path d="M224 480C100.3 480 0 379.7 0 256S100.3 32 224 32c42.3 0 84.2 7.9 123.6 23.2L576 144v80H445.7 416v64h29.7H576v80l-96 37.3V480H352l-29.2-14.6c-32 9.7-65.3 14.6-98.8 14.6zm0-272a48 48 0 1 1 0 96 48 48 0 1 1 0-96zm0 128a80 80 0 1 0 0-160 80 80 0 1 0 0 160zM80 272a16 16 0 1 0 0-32 16 16 0 1 0 0 32zm48-112a16 16 0 1 0 -32 0 16 16 0 1 0 32 0zM112 368a16 16 0 1 0 0-32 16 16 0 1 0 0 32z"/></svg>