<svg xmlns="http://www.w3.org/2000/svg" viewBox="0 0 320 512"><!--! Font Awesome Pro 6.4.0 by @fontawesome - https://fontawesome.com License - https://fontawesome.com/license (Commercial License) Copyright 2023 Fonticons, Inc. --><path d="M112 159.2c0-34.9 28.3-63.2 63.2-63.2c7.4 0 14.7 1.3 21.6 3.8l72.2 26.3L299.1 137 321 76.9 290.9 65.9 218.7 39.7c-13.9-5.1-28.6-7.7-43.5-7.7C105 32 48 89 48 159.2V224H0v64H48v48.4L3.4 425.7 0 432.4V440v8 32H32 288h32V416H288 79.8l28.8-57.7 3.4-6.8V344 288H256V224H112V159.2z"/></svg>