<svg xmlns="http://www.w3.org/2000/svg" viewBox="0 0 640 512"><!--! Font Awesome Pro 6.4.0 by @fontawesome - https://fontawesome.com License - https://fontawesome.com/license (Commercial License) Copyright 2023 Fonticons, Inc. --><path d="M480 288c-50.1 0-93.6 28.8-114.6 70.8L132.9 126.3l60.7-60.7c87.5-87.5 229.3-87.5 316.8 0c67.1 67.1 82.7 166.3 46.8 248.3C535.8 297.6 509 288 480 288zM110.3 148.9L354.1 392.7c-1.4 7.5-2.1 15.3-2.1 23.3c0 23.3 6.2 45.2 17.1 64H304l-75.4-75.4L128 512 64 448 171.4 347.4 96 272l0-108.8 14.3-14.3zM480 320a96 96 0 1 1 0 192 96 96 0 1 1 0-192z"/></svg>