<svg xmlns="http://www.w3.org/2000/svg" viewBox="0 0 448 512"><!--! Font Awesome Pro 6.4.0 by @fontawesome - https://fontawesome.com License - https://fontawesome.com/license (Commercial License) Copyright 2023 Fonticons, Inc. --><path d="M184 0H160V48h24 16V96H144 128v16 16H40-1L9 167.8 47 320H16l0 64H48 80V512H368V384h32 32V320H401L439 167.8 449 128H408 320V112 96H304 248V48h16 24V0H264 224 184zM128 320H113l-1.9-7.8L81 192h47V320zm48 0V192h96V320H176zm159 0l-15 0V192h47L337 312.2 335 320z"/></svg>