<svg xmlns="http://www.w3.org/2000/svg" viewBox="0 0 320 512"><!--! Font Awesome Pro 6.4.0 by @fontawesome - https://fontawesome.com License - https://fontawesome.com/license (Commercial License) Copyright 2023 Fonticons, Inc. --><path d="M320 0H0V352c0 88.4 71.6 160 160 160s160-71.6 160-160V0zM160 416a48 48 0 1 1 0-96 48 48 0 1 1 0 96zm0-200a24 24 0 1 0 0 48 24 24 0 1 0 0-48zm0 72a48 48 0 1 1 0-96 48 48 0 1 1 0 96zM136 112a24 24 0 1 0 48 0 24 24 0 1 0 -48 0zm72 0a48 48 0 1 1 -96 0 48 48 0 1 1 96 0z"/></svg>