<svg xmlns="http://www.w3.org/2000/svg" viewBox="0 0 640 512"><!--! Font Awesome Pro 6.4.0 by @fontawesome - https://fontawesome.com License - https://fontawesome.com/license (Commercial License) Copyright 2023 Fonticons, Inc. --><path d="M231.2 17.7C236.6 6.8 247.7 0 259.8 0H380.2c12.1 0 23.2 6.8 28.6 17.7L416 32h96c17.7 0 32 14.3 32 32s-14.3 32-32 32H153l41.2 32H512L497.3 363.3l123.6 96 19 14.7-29.4 37.9-19-14.7L19 52.7 0 38 29.4 .1l19 14.7L97.9 53.2C102.3 40.8 114.1 32 128 32h96l7.2-14.3zM149.2 467L132.5 200.4 488 480.5C481.2 499 463.5 512 442.9 512H197.1c-25.3 0-46.3-19.7-47.9-45z"/></svg>