<svg xmlns="http://www.w3.org/2000/svg" viewBox="0 0 640 512"><!--! Font Awesome Pro 6.4.0 by @fontawesome - https://fontawesome.com License - https://fontawesome.com/license (Commercial License) Copyright 2023 Fonticons, Inc. --><path d="M400 32V288H0V32H400zM96 80H64V240H96V80zm128 0V240h32V80H224zm-48 0H144V240h32V80zm128 0V240h32V80H304zm128 80h24 88 9.9l7 7 72 72 7 7V256v32 96H606.4c1 5.2 1.6 10.5 1.6 16c0 44.2-35.8 80-80 80s-80-35.8-80-80c0-5.5 .6-10.8 1.6-16H432 286.4c1 5.2 1.6 10.5 1.6 16c0 44.2-35.8 80-80 80c-26.2 0-49.4-12.6-64-32c-14.6 19.4-37.8 32-64 32c-44.2 0-80-35.8-80-80V384 352 320H32 80 208 432V288 256 184 160zm48 96H582.1l-48-48H480v48zm80 144a32 32 0 1 0 -64 0 32 32 0 1 0 64 0zM208 432a32 32 0 1 0 0-64 32 32 0 1 0 0 64zm-96-32a32 32 0 1 0 -64 0 32 32 0 1 0 64 0z"/></svg>