<svg xmlns="http://www.w3.org/2000/svg" viewBox="0 0 640 512"><!--! Font Awesome Pro 6.4.0 by @fontawesome - https://fontawesome.com License - https://fontawesome.com/license (Commercial License) Copyright 2023 Fonticons, Inc. --><path d="M480 32H0V304v80 16c0 44.2 35.8 80 80 80c26.2 0 49.4-12.6 64-32c14.6 19.4 37.8 32 64 32c44.2 0 80-35.8 80-80c0-5.5-.6-10.8-1.6-16H416h33.6c-1 5.2-1.6 10.5-1.6 16c0 44.2 35.8 80 80 80s80-35.8 80-80c0-5.5-.6-10.8-1.6-16H640V288 256v-9.9l-7-7-72-72-7-7H544 480V32zM582.1 256H480V208h54.1l48 48zM528 368a32 32 0 1 1 0 64 32 32 0 1 1 0-64zM176 400a32 32 0 1 1 64 0 32 32 0 1 1 -64 0zM80 368a32 32 0 1 1 0 64 32 32 0 1 1 0-64z"/></svg>