<svg xmlns="http://www.w3.org/2000/svg" viewBox="0 0 640 512"><!--! Font Awesome Pro 6.4.0 by @fontawesome - https://fontawesome.com License - https://fontawesome.com/license (Commercial License) Copyright 2023 Fonticons, Inc. --><path d="M200 0c31.5 0 56 54.7 56 86.1l0 9.9V500.7l-56-19.8L88 512V456l56-44.5V330.3L0 368V288l144-95.5V86.1C144 54.7 169.4 0 200 0zm88 128H640V448H608v64H544V448H384v64H320V448H288V128zM552 240H376l-24 64H576l-24-64zm16 160a24 24 0 1 0 0-48 24 24 0 1 0 0 48zM384 376a24 24 0 1 0 -48 0 24 24 0 1 0 48 0z"/></svg>