<svg xmlns="http://www.w3.org/2000/svg" viewBox="0 0 640 512"><!--! Font Awesome Pro 6.4.0 by @fontawesome - https://fontawesome.com License - https://fontawesome.com/license (Commercial License) Copyright 2023 Fonticons, Inc. --><path d="M384 32H32v96H0V288H32v32H0v64H32 64c0 53 43 96 96 96s96-43 96-96H384c0 53 43 96 96 96s96-43 96-96h32 32V320H608V224H539.9L477.2 83l-8.4-19H448 384V32zm0 96h43.2l42.7 96H384V128zM160 336a48 48 0 1 1 0 96 48 48 0 1 1 0-96zm320 96a48 48 0 1 1 0-96 48 48 0 1 1 0 96zM128 144v64c0 8.8 7.2 16 16 16s16-7.2 16-16V144 128h32v16 64c0 26.5-21.5 48-48 48s-48-21.5-48-48V144 128h32v16zm112-16h8 9.9l4.4 8.8L288 188.2V144 128h32v16 96 16H304h-8-9.9l-4.4-8.8L256 195.8V240v16H224V240 144 128h16z"/></svg>