<svg xmlns="http://www.w3.org/2000/svg" viewBox="0 0 640 512"><!--! Font Awesome Pro 6.4.0 by @fontawesome - https://fontawesome.com License - https://fontawesome.com/license (Commercial License) Copyright 2023 Fonticons, Inc. --><path d="M144 0L0 32 0 64C0 311.4 200.6 512 448 512h32l32-144L368 288l-67 83.8C232.5 335.7 176.3 279.5 140.2 211L224 144 144 0zM352 64H288v64h64V64zm0 96H288v64h64V160zm32-96v64h64V64H384zm160 0H480v64h64V64zm32 0v64h64V64H576zm64 96H576v64h64V160zm-256 0v64H544V160H384z"/></svg>