<svg xmlns="http://www.w3.org/2000/svg" viewBox="0 0 512 512"><!--! Font Awesome Pro 6.4.0 by @fontawesome - https://fontawesome.com License - https://fontawesome.com/license (Commercial License) Copyright 2023 Fonticons, Inc. --><path d="M51.2 264L0 174C29.9 132 122.9 48 256 48s226.1 84 256 126l-51.2 90-128-42V144c-49.6-18.1-104-18.1-153.6 0v78l-128 42zM32 320H96v64H32V320zm0 96H96v64H32V416zm160-96v64H128V320h64zm32 0h64v64H224V320zm160 0v64H320V320h64zm32 0h64v64H416V320zm64 96v64H416V416h64zm-352 0H384v64H128V416z"/></svg>