<svg xmlns="http://www.w3.org/2000/svg" viewBox="0 0 576 512"><!--! Font Awesome Pro 6.4.0 by @fontawesome - https://fontawesome.com License - https://fontawesome.com/license (Commercial License) Copyright 2023 Fonticons, Inc. --><path d="M320 0V32 49.7C451.8 63.4 557.7 161 573.9 285.9l2.3 18.1H558h-6.5-7.2l-4.8-5.3C525 282.3 503.7 272 480 272c-44.2 0-80 35.8-80 80H384 368c0-44.2-35.8-80-80-80s-80 35.8-80 80H192 176c0-44.2-35.8-80-80-80c-23.7 0-45 10.3-59.6 26.7L31.6 304H24.4 18-.2l2.3-18.1C18.3 161 124.2 63.4 256 49.7V32 0h64zM256 316.2c8.5-7.6 19.7-12.2 32-12.2s23.5 4.6 32 12.2V430.6c0 45-36.5 81.4-81.4 81.4c-30.8 0-59-17.4-72.8-45l-2.3-4.7-14.3-28.6 57.2-28.6 14.3 28.6 2.3 4.7c3 5.9 9 9.6 15.6 9.6c9.6 0 17.4-7.8 17.4-17.4V316.2z"/></svg>