<svg xmlns="http://www.w3.org/2000/svg" viewBox="0 0 640 512"><!--! Font Awesome Pro 6.4.0 by @fontawesome - https://fontawesome.com License - https://fontawesome.com/license (Commercial License) Copyright 2023 Fonticons, Inc. --><path d="M40 6.1L6.1 40 23 57l56 56 17 17L129.9 96 113 79 57 23 40 6.1zm560 0L583 23 527 79l-17 17L544 129.9l17-17 56-56 17-17L600 6.1zM57 489l56-56 17-17L96 382.1 79 399 23 455l-17 17L40 505.9l17-17zm543 17L633.9 472l-17-17-56-56-17-17L510.1 416l17 17 56 56 17 17zM223.8 176a48 48 0 1 0 -96 0 48 48 0 1 0 96 0zM120 256L96 336h94.3l19.4-58.1 7.3-21.9H120zm329.7 80H544l-24-80H423.1l7.3 21.9L449.7 336zM432 384l-16-48-16-48H382.4 257.6 240l-16 48-16 48H432zm80-208a48 48 0 1 0 -96 0 48 48 0 1 0 96 0zM320 256a64 64 0 1 0 0-128 64 64 0 1 0 0 128z"/></svg>