<svg xmlns="http://www.w3.org/2000/svg" viewBox="0 0 640 512"><!--! Font Awesome Pro 6.4.0 by @fontawesome - https://fontawesome.com License - https://fontawesome.com/license (Commercial License) Copyright 2023 Fonticons, Inc. --><path d="M211.2 96a64 64 0 1 0 -128 0 64 64 0 1 0 128 0zM64 192L32 288H167.4l28.2-75.2 7.8-20.8H64zm411.8 96H608l-32-96H439.8l7.8 20.8L475.8 288zm-10.2 64l-24-64-24-64H405.3 234.7h-9.1l-24 64-24 64h288zM563.2 96a64 64 0 1 0 -128 0 64 64 0 1 0 128 0zM321.6 192a80 80 0 1 0 0-160 80 80 0 1 0 0 160zM32 416H0v64H32 608h32V416H608 32z"/></svg>