<svg xmlns="http://www.w3.org/2000/svg" viewBox="0 0 448 512"><!--! Font Awesome Pro 6.4.0 by @fontawesome - https://fontawesome.com License - https://fontawesome.com/license (Commercial License) Copyright 2023 Fonticons, Inc. --><path d="M64 167C64 74.8 135.6 0 224 0s160 74.8 160 167c0 119.3-160 217-160 217s-160-97.7-160-217zm80 9H128 112v16c0 35.3 28.7 64 64 64h16 16V240c0-35.3-28.7-64-64-64zm96 64v16h16 16c35.3 0 64-28.7 64-64V176H320 304c-35.3 0-64 28.7-64 64zM400 352l48 160H0L48 352h80l96 72 96-72h80z"/></svg>