<svg xmlns="http://www.w3.org/2000/svg" viewBox="0 0 640 512"><!--! Font Awesome Pro 6.4.0 by @fontawesome - https://fontawesome.com License - https://fontawesome.com/license (Commercial License) Copyright 2023 Fonticons, Inc. --><path d="M0 0V48H24 616h24V0H616 24 0zM0 464v48H24 616h24V464H616 24 0zM211.2 160a64 64 0 1 0 -128 0 64 64 0 1 0 128 0zM64 256L32 352H167.4l28.2-75.2 7.8-20.8H64zm411.8 96H608l-32-96H439.8l7.8 20.8L475.8 352zm-10.2 64l-24-64-24-64H405.3 234.7h-9.1l-24 64-24 64h288zm97.6-256a64 64 0 1 0 -128 0 64 64 0 1 0 128 0zM321.6 256a80 80 0 1 0 0-160 80 80 0 1 0 0 160z"/></svg>