<svg xmlns="http://www.w3.org/2000/svg" viewBox="0 0 640 512"><!--! Font Awesome Pro 6.4.0 by @fontawesome - https://fontawesome.com License - https://fontawesome.com/license (Commercial License) Copyright 2023 Fonticons, Inc. --><path d="M144 0a80 80 0 1 1 0 160A80 80 0 1 1 144 0zM512 0a80 80 0 1 1 0 160A80 80 0 1 1 512 0zM48 192H196c-2.6 10.2-4 21-4 32c0 38.2 16.8 72.5 43.3 96H0L48 192zM640 320H404.7c26.6-23.5 43.3-57.8 43.3-96c0-11-1.4-21.8-4-32H592l48 128zM224 224a96 96 0 1 1 192 0 96 96 0 1 1 -192 0zM464 352l48 160H128l48-160H464z"/></svg>