<svg xmlns="http://www.w3.org/2000/svg" viewBox="0 0 384 512"><!--! Font Awesome Pro 6.4.0 by @fontawesome - https://fontawesome.com License - https://fontawesome.com/license (Commercial License) Copyright 2023 Fonticons, Inc. --><path d="M64 0H320V48H64V0zm0 464H320v48H64V464zM0 80H384V432H0V80zm139.2 80C106.5 160 80 186.5 80 219.2c0 16.1 6.6 31.5 18.2 42.7l82.8 79.6L192 352.1l11.1-10.7 82.8-79.6c11.6-11.2 18.2-26.6 18.2-42.7c0-32.7-26.5-59.2-59.2-59.2h-2.4c-15.9 0-31.2 6.2-42.7 17.2l-7.7 7.4-7.7-7.4c-11.5-11-26.8-17.2-42.7-17.2h-2.4z"/></svg>