<svg xmlns="http://www.w3.org/2000/svg" viewBox="0 0 640 512"><!--! Font Awesome Pro 6.4.0 by @fontawesome - https://fontawesome.com License - https://fontawesome.com/license (Commercial License) Copyright 2023 Fonticons, Inc. --><path d="M0 128c0 28.4 18.5 52.5 44.1 60.8C36.3 209.7 32 232.4 32 256c0 106 86 192 192 192c64.9 0 122.3-32.2 157-81.5L544 448l96-112L492.2 221.5 448 248l-32-24 13.8-50.8L352.2 113c-6.9-6.2-14.3-11.9-22-17C299.8 75.8 263.3 64 224 64c-38.8 0-74.8 11.5-105 31.2C107.8 76.5 87.4 64 64 64C28.7 64 0 92.7 0 128zm224 64a64 64 0 1 1 0 128 64 64 0 1 1 0-128zM48 128a16 16 0 1 1 32 0 16 16 0 1 1 -32 0z"/></svg>