<svg xmlns="http://www.w3.org/2000/svg" viewBox="0 0 320 512"><!--! Font Awesome Pro 6.4.0 by @fontawesome - https://fontawesome.com License - https://fontawesome.com/license (Commercial License) Copyright 2023 Fonticons, Inc. --><path d="M70.9 95.8C91.2 75.5 119.2 64 148 64c59.2 0 108 48 108 106.8c0 29.5-12.2 57.7-33.8 77.9L5.1 452.3 0 457.1V480H16 304h16V448H304 56.5L244.1 272.1c28-26.2 43.9-62.9 43.9-101.3C288 93.9 224.5 32 148 32c-37.2 0-73.4 14.8-99.8 41.1L20.7 100.7 9.4 112 32 134.6l11.3-11.3L70.9 95.8z"/></svg>