<svg xmlns="http://www.w3.org/2000/svg" viewBox="0 0 320 512"><!--! Font Awesome Pro 6.4.0 by @fontawesome - https://fontawesome.com License - https://fontawesome.com/license (Commercial License) Copyright 2023 Fonticons, Inc. --><path d="M304 152c0-66.3-53.7-120-120-120H136C69.7 32 16 85.7 16 152c0 41.4 20.9 77.9 52.8 99.4C28.1 270.6 0 312 0 360c0 66.3 53.7 120 120 120h80c66.3 0 120-53.7 120-120c0-48-28.1-89.4-68.8-108.6C283.1 229.9 304 193.4 304 152zM184.1 272H200c48.6 0 88 39.4 88 88s-39.4 88-88 88H120c-48.6 0-88-39.4-88-88s39.4-88 88-88h15.9c0 0 .1 0 .1 0h48c0 0 0 0 .1 0zm0-32c0 0 0 0-.1 0H136c0 0 0 0-.1 0C87.4 240 48 200.6 48 152c0-48.6 39.4-88 88-88l48 0c48.6 0 88 39.4 88 88c0 48.6-39.4 88-87.9 88z"/></svg>