<svg xmlns="http://www.w3.org/2000/svg" viewBox="0 0 512 512"><!--! Font Awesome Pro 6.4.0 by @fontawesome - https://fontawesome.com License - https://fontawesome.com/license (Commercial License) Copyright 2023 Fonticons, Inc. --><path d="M32 0V32H48 464h16V0H464 48 32zM16 64V96H32 480h16V64H480 32 16zm19.5 96h441L443.2 480H68.8L35.5 160zM40 512H472l36.7-352 3.3-32H479.8 32.2 0l3.3 32L40 512zm216-96c-77.7 0-128-49.3-128-96s50.3-96 128-96s128 49.3 128 96s-50.3 96-128 96zm0 32c88.4 0 160-57.3 160-128s-71.6-128-160-128s-160 57.3-160 128s71.6 128 160 128zm0-104c13.3 0 24-9 24-20s-10.7-20-24-20s-24 9-24 20s10.7 20 24 20z"/></svg>