<svg xmlns="http://www.w3.org/2000/svg" viewBox="0 0 512 512"><!--! Font Awesome Pro 6.4.0 by @fontawesome - https://fontawesome.com License - https://fontawesome.com/license (Commercial License) Copyright 2023 Fonticons, Inc. --><path d="M256 0c-45.9 0-87.7 27.2-116.4 51.9c-4.8 4.1-9.3 8.2-13.4 12.1H32 0V96 256v16 16V480v32H32 480h32V480 288 272 256 96 64H480 385.8c-4.2-4-8.7-8.1-13.4-12.1C343.7 27.2 301.9 0 256 0zm80.4 64H175.6C199.9 46 228 32 256 32s56.1 14 80.4 32zM480 288V480H32V288H480zm0-32H32V96H480V256zM120 176a24 24 0 1 0 -48 0 24 24 0 1 0 48 0zm72 24a24 24 0 1 0 0-48 24 24 0 1 0 0 48zm152-24a24 24 0 1 0 -48 0 24 24 0 1 0 48 0zm72 24a24 24 0 1 0 0-48 24 24 0 1 0 0 48zM112 352V320H80v32h32zm0 96V416H80v32h32zm32-128v32h32V320H144zm32 96H144v32h32V416zm-64-48v32h32V368H112zm128-48H208v32h32V320zm-32 96v32h32V416H208zm0-16V368H176v32h32zm64-80v32h32V320H272zm32 96H272v32h32V416zm-64-48v32h32V368H240zm128-48H336v32h32V320zm32 32h32V320H400v32zm-32 64H336v32h32V416zm32 32h32V416H400v32zm-64-48V368H304v32h32zm32-32v32h32V368H368z"/></svg>