<svg xmlns="http://www.w3.org/2000/svg" viewBox="0 0 576 512"><!--! Font Awesome Pro 6.4.0 by @fontawesome - https://fontawesome.com License - https://fontawesome.com/license (Commercial License) Copyright 2023 Fonticons, Inc. --><path d="M384 64.2c0-.1 0-.1 0-.2s0-.1 0-.2s-.1-.3-.2-.6c-.3-.6-.9-1.8-2.3-3.5c-2.9-3.5-8.4-7.9-17.3-12.4C346.4 38.4 319.5 32 288 32s-58.4 6.4-76.2 15.4c-8.9 4.5-14.4 8.9-17.3 12.4c-1.4 1.7-2 2.8-2.3 3.5c-.1 .3-.2 .5-.2 .6s0 .1 0 .2s0 .1 0 .2s.1 .3 .2 .6c.3 .6 .9 1.8 2.3 3.5c1.4 1.7 3.4 3.6 6.2 5.6c-6.7 8.3-12.2 17.6-16.3 27.7C169 91 160 78 160 64c0-35.3 57.3-64 128-64s128 28.7 128 64c0 14-9 27-24.3 37.5c-4.1-10-9.6-19.3-16.3-27.7c2.7-2 4.8-4 6.2-5.6c1.4-1.7 2-2.8 2.3-3.5c.1-.3 .2-.5 .2-.6zM288 192a48 48 0 1 0 0-96 48 48 0 1 0 0 96zm0-128a80 80 0 1 1 0 160 80 80 0 1 1 0-160zM74.6 334.2l9.9 14.9-7.5 16.3L32 463v17h80L216.9 270.2 138.7 192H32v78.3l42.6 63.9zM248 256h80l96-96H544h32v32 88l-48 72 48 104v24 32H544 480 444.2 131.8 96 32 0V480 456L48 352 0 280V192 160H32 152l96 96zm111.1 14.2L464 480h80V463l-45.1-97.6-7.5-16.3 9.9-14.9L544 270.3V192H437.3l-78.2 78.2zM428.2 480l-96-192H243.8l-96 192H428.2z"/></svg>