<svg xmlns="http://www.w3.org/2000/svg" viewBox="0 0 640 512"><!--! Font Awesome Pro 6.4.0 by @fontawesome - https://fontawesome.com License - https://fontawesome.com/license (Commercial License) Copyright 2023 Fonticons, Inc. --><path d="M128 510.6l11.3-11.3 96-96L246.6 392 224 369.4l-11.3 11.3L144 449.4V272H304h32l80 0c0-11.1 1.6-21.9 4.6-32H336V62.6l68.7 68.7L416 142.6 438.6 120l-11.3-11.3-96-96L320 1.4 308.7 12.7l-96 96L201.4 120 224 142.6l11.3-11.3L304 62.6V240H144 112 16 0v32H16h96V449.4L43.3 380.7 32 369.4 9.4 392l11.3 11.3 96 96L128 510.6zM112 48V200h32V48 32H112V48zM336 312H304V464v16h32V464 312zm192-88c26.5 0 48 21.5 48 48v48H480V272c0-26.5 21.5-48 48-48zm-80 48v48H416v32V480v32h32H608h32V480 352 320H608V272c0-44.2-35.8-80-80-80s-80 35.8-80 80zm0 80H608V480H448V352z"/></svg>