<svg xmlns="http://www.w3.org/2000/svg" viewBox="0 0 448 512"><!--! Font Awesome Pro 6.4.0 by @fontawesome - https://fontawesome.com License - https://fontawesome.com/license (Commercial License) Copyright 2023 Fonticons, Inc. --><path d="M224 1.4l11.3 11.3 80 80L326.6 104 304 126.6l-11.3-11.3L240 62.6V176v16H208V176 62.6l-52.7 52.7L144 126.6 121.4 104l11.3-11.3 80-80L224 1.4zm0 509.3l-11.3-11.3-80-80L121.4 408 144 385.4l11.3 11.3L208 449.4 208 336V320h32v16l0 113.4 52.7-52.7L304 385.4 326.6 408l-11.3 11.3-80 80L224 510.6zM16 240H432h16v32H432 16 0V240H16z"/></svg>