<svg xmlns="http://www.w3.org/2000/svg" viewBox="0 0 576 512"><!--! Font Awesome Pro 6.4.0 by @fontawesome - https://fontawesome.com License - https://fontawesome.com/license (Commercial License) Copyright 2023 Fonticons, Inc. --><path d="M320 32h32H512h32V64 224v32H512 352 320V224 64 32zm32 192H512V64H352V224zM160 33.4l11.3 11.3 88 88L270.6 144 248 166.6l-11.3-11.3L176 94.6V464v16H144V464 94.6L83.3 155.3 72 166.6 49.4 144l11.3-11.3 88-88L160 33.4zM352 320h96 32v32 96 32H448 352 320V448 352 320h32zm96 32H352v96h96V352z"/></svg>