<svg xmlns="http://www.w3.org/2000/svg" viewBox="0 0 576 512"><!--! Font Awesome Pro 6.4.0 by @fontawesome - https://fontawesome.com License - https://fontawesome.com/license (Commercial License) Copyright 2023 Fonticons, Inc. --><path d="M160 478.6l11.3-11.3 88-88L270.6 368 248 345.4l-11.3 11.3L176 417.4V48 32H144V48 417.4L83.3 356.7 72 345.4 49.4 368l11.3 11.3 88 88L160 478.6zM296 224h37.7H498.3 536l-20-32L434.9 62.2 416 32 397.1 62.2 316 192l-20 32zm182.3-32H353.7L416 92.4 478.3 192zM352 448V320H480V448H352zM320 288v32V448v32h32H480h32V448 320 288H480 352 320z"/></svg>