<svg xmlns="http://www.w3.org/2000/svg" viewBox="0 0 512 512"><!--! Font Awesome Pro 6.4.0 by @fontawesome - https://fontawesome.com License - https://fontawesome.com/license (Commercial License) Copyright 2023 Fonticons, Inc. --><path d="M260.7 36.7l-80 80L169.4 128l11.3 11.3 80 80L272 230.6 294.6 208l-11.3-11.3L230.6 144 480 144v96 16h32V240 128 112H496l-265.4 0 52.7-52.7L294.6 48 272 25.4 260.7 36.7zm-9.4 256L240 281.4 217.4 304l11.3 11.3L281.4 368 16 368H0v16V496v16H32V496 400l249.4 0-52.7 52.7L217.4 464 240 486.6l11.3-11.3 80-80L342.6 384l-11.3-11.3-80-80zM448 352a32 32 0 1 1 0 64 32 32 0 1 1 0-64zm0 96a64 64 0 1 0 0-128 64 64 0 1 0 0 128zM96 128a32 32 0 1 1 -64 0 32 32 0 1 1 64 0zM0 128a64 64 0 1 0 128 0A64 64 0 1 0 0 128z"/></svg>