<svg xmlns="http://www.w3.org/2000/svg" viewBox="0 0 576 512"><!--! Font Awesome Pro 6.4.0 by @fontawesome - https://fontawesome.com License - https://fontawesome.com/license (Commercial License) Copyright 2023 Fonticons, Inc. --><path d="M128 406.6l11.3-11.3 104-104L254.6 280 232 257.4l-11.3 11.3L144 345.4 144 48l0-16H112l0 16 0 297.4L35.3 268.7 24 257.4 1.4 280l11.3 11.3 104 104L128 406.6zm320 0l11.3-11.3 104-104L574.6 280 552 257.4l-11.3 11.3L464 345.4V48 32H432V48 345.4l-76.7-76.7L344 257.4 321.4 280l11.3 11.3 104 104L448 406.6zM16 448H0v32H16 560h16V448H560 16z"/></svg>