<svg xmlns="http://www.w3.org/2000/svg" viewBox="0 0 576 512"><!--! Font Awesome Pro 6.4.0 by @fontawesome - https://fontawesome.com License - https://fontawesome.com/license (Commercial License) Copyright 2023 Fonticons, Inc. --><path d="M160 478.6l11.3-11.3 88-88L270.6 368 248 345.4l-11.3 11.3L176 417.4V48 32H144V48 417.4L83.3 356.7 72 345.4 49.4 368l11.3 11.3 88 88L160 478.6zM336 32V64h16 99.5L340 189.4l-4 4.5V200v8 16h16H480h16V192H480 380.5L492 66.6l4-4.5V56 48 32H480 352 336zm65.4 265.5l-80 180-1.1 2.5h35l14.2-32h93l14.2 32h35l-1.1-2.5-80-180-4.2-9.5H405.6l-4.2 9.5zM416 343.4L448.3 416H383.7L416 343.4z"/></svg>