<svg xmlns="http://www.w3.org/2000/svg" viewBox="0 0 512 512"><!--! Font Awesome Pro 6.4.0 by @fontawesome - https://fontawesome.com License - https://fontawesome.com/license (Commercial License) Copyright 2023 Fonticons, Inc. --><path d="M235.3 131.3L224 142.6 201.4 120l11.3-11.3L304 17.4V16h1.4l3.3-3.3L320 1.4l11.3 11.3 3.3 3.3H336v1.4l91.3 91.3L438.6 120 416 142.6l-11.3-11.3L336 62.6 336 272v16l0 96v16l0 80H496h16v32H496 320 304V496l0-96V384l0-80H62.6l68.7 68.7L142.6 384 120 406.6l-11.3-11.3-96-96L1.4 288l11.3-11.3 96-96L120 169.4 142.6 192l-11.3 11.3L62.6 272H304V62.6l-68.7 68.7z"/></svg>