<svg xmlns="http://www.w3.org/2000/svg" viewBox="0 0 576 512"><!--! Font Awesome Pro 6.4.0 by @fontawesome - https://fontawesome.com License - https://fontawesome.com/license (Commercial License) Copyright 2023 Fonticons, Inc. --><path d="M160 478.6l11.3-11.3 88-88L270.6 368 248 345.4l-11.3 11.3L176 417.4V48 32H144V48 417.4L83.3 356.7 72 345.4 49.4 368l11.3 11.3 88 88L160 478.6zM296 480h37.7H498.3 536l-20-32L434.9 318.2 416 288l-18.9 30.2L316 448l-20 32zm182.3-32H353.7L416 348.4 478.3 448zM352 64H480V192H352V64zM320 32V64 192v32h32H480h32V192 64 32H480 352 320z"/></svg>