<svg xmlns="http://www.w3.org/2000/svg" viewBox="0 0 448 512"><!--! Font Awesome Pro 6.4.0 by @fontawesome - https://fontawesome.com License - https://fontawesome.com/license (Commercial License) Copyright 2023 Fonticons, Inc. --><path d="M322.5 11.9L310.4 1.4l-21 24.2 12.1 10.5L389.1 112 16 112 0 112v16V272v16H32V272 144l357.1 0-87.6 75.9-12.1 10.5 21 24.2 12.1-10.5 120-104 14-12.1-14-12.1-120-104zm-96 256l-12.1-10.5-21 24.2 12.1 10.5L293.1 368 16 368 0 368v16V496v16H32V496 400l261.1 0-87.6 75.9-12.1 10.5 21 24.2 12.1-10.5 120-104 14-12.1-14-12.1-120-104z"/></svg>