<svg xmlns="http://www.w3.org/2000/svg" viewBox="0 0 576 512"><!--! Font Awesome Pro 6.4.0 by @fontawesome - https://fontawesome.com License - https://fontawesome.com/license (Commercial License) Copyright 2023 Fonticons, Inc. --><path d="M160 478.6l11.3-11.3 88-88L270.6 368 248 345.4l-11.3 11.3L176 417.4V48 32H144V48 417.4L83.3 356.7 72 345.4 49.4 368l11.3 11.3 88 88L160 478.6zM368 320h16 32V448H384 368v32h16 48 48 16V448H480 448V304 288H432 384 368v32zm60-152a52 52 0 1 1 0-104 52 52 0 1 1 0 104zm-84-52c0 46.4 37.6 84 84 84c2 0 3.9-.1 5.8-.2l-42.4 53.5c-.7 .9-1.2 1.7-1.7 2.7h40.4l61.7-77.9c13.1-16.5 20.2-37 20.2-58.1h-.1c.1-1.3 .1-2.7 .1-4c0-46.4-37.6-84-84-84s-84 37.6-84 84z"/></svg>