<svg xmlns="http://www.w3.org/2000/svg" viewBox="0 0 512 512"><!--! Font Awesome Pro 6.4.0 by @fontawesome - https://fontawesome.com License - https://fontawesome.com/license (Commercial License) Copyright 2023 Fonticons, Inc. --><path d="M0 256v16H32V256 112H390.3l-49 44.1-11.9 10.7 21.4 23.8 11.9-10.7 80-72L455.9 96 442.7 84.1l-80-72L350.8 1.4 329.4 25.2l11.9 10.7 49 44.1H16 0V96 256zm512 0V240H480v16V400H121.7l49-44.1 11.9-10.7-21.4-23.8-11.9 10.7-80 72L56.1 416l13.2 11.9 80 72 11.9 10.7 21.4-23.8-11.9-10.7-49-44.1H496h16V416 256zM240 192H224v32h16 16v80 16h32V304 208 192H272 240z"/></svg>