<svg xmlns="http://www.w3.org/2000/svg" viewBox="0 0 640 512"><!--! Font Awesome Pro 6.4.0 by @fontawesome - https://fontawesome.com License - https://fontawesome.com/license (Commercial License) Copyright 2023 Fonticons, Inc. --><path d="M128 16V145.4L91.3 108.7 80 97.4 57.4 120l11.3 11.3 64 64L144 206.6l11.3-11.3 64-64L230.6 120 208 97.4l-11.3 11.3L160 145.4V16 0H128V16zM409.4 120l11.3 11.3 64 64L496 206.6l11.3-11.3 64-64L582.6 120 560 97.4l-11.3 11.3L512 145.4V16 0H480V16 145.4l-36.7-36.7L432 97.4 409.4 120zM304 192a16 16 0 1 1 32 0 16 16 0 1 1 -32 0zm64 0a48 48 0 1 0 -96 0 48 48 0 1 0 96 0zm-96 64h-8.9l-4.7 7.6-55.9 90.9-1.5-2.5H192 96 87.1l-4.7 7.6-64 104L10 477.2 37.2 494l8.4-13.6L88 411.5V496v16h16 80 16V496 411.5l42.4 68.9 8.4 13.6L278 477.2l-8.4-13.6L221.3 385l.4-.6L264 315.5V416v16h16 80 16V416 315.5l42.4 68.9 .4 .6-48.4 78.6L362 477.2 389.2 494l8.4-13.6L440 411.5V496v16h16 80 16V496 411.5l42.4 68.9 8.4 13.6L630 477.2l-8.4-13.6-64-104-4.7-7.6H544 448h-8.9l-1.5 2.5-55.9-90.9-4.7-7.6H368 272zm24 144V288h48V400H296zM144 272a16 16 0 1 1 0 32 16 16 0 1 1 0-32zm0 64a48 48 0 1 0 0-96 48 48 0 1 0 0 96zm-24 48h48v96H120V384zm360-96a16 16 0 1 1 32 0 16 16 0 1 1 -32 0zm64 0a48 48 0 1 0 -96 0 48 48 0 1 0 96 0zM520 480H472V384h48v96z"/></svg>