<svg xmlns="http://www.w3.org/2000/svg" viewBox="0 0 576 512"><!--! Font Awesome Pro 6.4.0 by @fontawesome - https://fontawesome.com License - https://fontawesome.com/license (Commercial License) Copyright 2023 Fonticons, Inc. --><path d="M171.3 467.3L160 478.6l-11.3-11.3-88-88L49.4 368 72 345.4l11.3 11.3L144 417.4V48 32h32V48 417.4l60.7-60.7L248 345.4 270.6 368l-11.3 11.3-88 88zM352 288H480h16v16 8 6.1l-4 4.5L380.5 448H480h16v32H480 352 336V464v-8-6.1l4-4.5L451.5 320H352 336V288h16zm17.5-96l-14.2 32h-35l1.1-2.5 80-180 4.2-9.5h20.8l4.2 9.5 80 180 1.1 2.5h-35l-14.2-32h-93zm78.8-32L416 87.4 383.7 160h64.5z"/></svg>