<svg xmlns="http://www.w3.org/2000/svg" viewBox="0 0 576 512"><!--! Font Awesome Pro 6.4.0 by @fontawesome - https://fontawesome.com License - https://fontawesome.com/license (Commercial License) Copyright 2023 Fonticons, Inc. --><path d="M96 32V256H256V32H96zm192 0V256H432l0-193.4-68.7 68.7L352 142.6 329.4 120l11.3-11.3 96-96L448 1.4l11.3 11.3 96 96L566.6 120 544 142.6l-11.3-11.3L464 62.6 464 256h80 32v32V415c-10.2 0-21.3-2.7-32-6.7V288H288 256 96 64 32V408.3c-10.7 4-21.8 6.7-32 6.7V288 256H32 64V32 0H96 256h32V32zM192 480c20.9 0 41.6-9.9 58.2-21.2c14.7-10 25.9-21.5 37.8-34.2c11.9 12.8 23.1 24.2 37.8 34.2C342.3 470.1 363.1 480 384 480s41.6-9.9 58.2-21.2c14.7-10 25.9-21.5 37.8-34.2c11.9 12.8 23.1 24.2 37.8 34.2C534.4 470.1 555.1 480 576 480v32c-30.3 0-57.6-14.1-76.2-26.8c-7.9-5.4-14.7-10.8-19.8-15.3c-5.1 4.5-11.9 9.9-19.8 15.3C441.5 497.9 414.3 512 384 512s-57.6-14.1-76.2-26.8c-7.9-5.4-14.7-10.8-19.8-15.3c-5.1 4.5-11.8 9.9-19.8 15.3C249.5 497.9 222.3 512 192 512s-57.6-14.1-76.2-26.8c-7.9-5.4-14.6-10.8-19.8-15.3c-5.1 4.5-11.8 9.8-19.8 15.3C57.6 497.9 30.3 512 0 512V480c20.9 0 41.6-9.9 58.2-21.2c14.7-10 25.9-21.5 37.8-34.2c11.9 12.7 23.2 24.3 37.8 34.2C150.3 470.1 171.1 480 192 480z"/></svg>