<svg xmlns="http://www.w3.org/2000/svg" viewBox="0 0 512 512"><!--! Font Awesome Pro 6.4.0 by @fontawesome - https://fontawesome.com License - https://fontawesome.com/license (Commercial License) Copyright 2023 Fonticons, Inc. --><path d="M0 272V256 96 80H16 390.3l-49-44.1L329.4 25.2 350.8 1.4l11.9 10.7 80 72L455.9 96l-13.2 11.9-80 72-11.9 10.7-21.4-23.8 11.9-10.7 49-44.1H32V256v16H0zm512-32v16V416v16H496 121.7l49 44.1 11.9 10.7-21.4 23.8-11.9-10.7-80-72L56.1 416l13.2-11.9 80-72 11.9-10.7 21.4 23.8-11.9 10.7-49 44.1H480V256 240h32z"/></svg>