<svg xmlns="http://www.w3.org/2000/svg" viewBox="0 0 448 512"><!--! Font Awesome Pro 6.4.0 by @fontawesome - https://fontawesome.com License - https://fontawesome.com/license (Commercial License) Copyright 2023 Fonticons, Inc. --><path d="M224 198.6l11.3-11.3 80-80L326.6 96 304 73.4 292.7 84.7 240 137.4 240 16V0H208V16l0 121.4L155.3 84.7 144 73.4 121.4 96l11.3 11.3 80 80L224 198.6zM0 240v32H16 432h16V240H432 16 0zm235.3 84.7L224 313.4l-11.3 11.3-80 80L121.4 416 144 438.6l11.3-11.3L208 374.6V496v16h32V496 374.6l52.7 52.7L304 438.6 326.6 416l-11.3-11.3-80-80z"/></svg>