<svg xmlns="http://www.w3.org/2000/svg" viewBox="0 0 576 512"><!--! Font Awesome Pro 6.4.0 by @fontawesome - https://fontawesome.com License - https://fontawesome.com/license (Commercial License) Copyright 2023 Fonticons, Inc. --><path d="M544 64V448H32V64H544zM32 32H0V64 448v32H32 544h32V448 64 32H544 32zM304 160v16V336v16h16 64c53 0 96-43 96-96s-43-96-96-96H320 304zm32 32h48c35.3 0 64 28.7 64 64s-28.7 64-64 64H336V192zM202.3 160H181.7l-4.3 9.3L93.4 352h35.2l22.1-48H152h80 1.3l22.1 48h35.2l-84-182.7-4.3-9.3zM165.5 272L192 214.3 218.5 272H165.5z"/></svg>