<svg xmlns="http://www.w3.org/2000/svg" viewBox="0 0 448 512"><!--! Font Awesome Pro 6.4.0 by @fontawesome - https://fontawesome.com License - https://fontawesome.com/license (Commercial License) Copyright 2023 Fonticons, Inc. --><path d="M205.1 32H216h16 10.9l4 10.1L318.9 224H432h16v32H432 331.6L357 320h75 16v32H432 369.7l45.2 114.1 5.5 13.9H386l-.8-2.1L335.2 352H112.8L62.9 477.9 62 480H27.6l5.5-13.9L78.3 352H16 0V320H16 91l25.4-64H16 0V224H16 129.1L201.1 42.1l4-10.1zM224 71.2L163.5 224H284.5L224 71.2zM125.4 320H322.6l-25.4-64H150.8l-25.4 64z"/></svg>