<svg xmlns="http://www.w3.org/2000/svg" viewBox="0 0 640 512"><!--! Font Awesome Pro 6.4.0 by @fontawesome - https://fontawesome.com License - https://fontawesome.com/license (Commercial License) Copyright 2023 Fonticons, Inc. --><path d="M64 512L41.4 489.4 22.6 470.6 0 448l22.6-22.6L249.4 198.6 272 221.3 45.3 448 64 466.7 290.7 240l22.6 22.6L86.6 489.4 64 512zM489.4 86.6L464 112l48 48h96 32v32c0 123.7-100.3 224-224 224H384V384 288L246.6 150.6 224 128l22.6-22.6 82.7-82.7L352 0l22.6 22.6L400 48l25.4-25.4L448 0l22.6 22.6 18.7 18.7L512 64 489.4 86.6zm-66.7-16l18.7 18.7L466.7 64 448 45.3 422.6 70.6zM512 192H498.7l-9.4-9.4L352 45.3 269.3 128 406.6 265.4l9.4 9.4V288v96c106 0 192-86 192-192H512z"/></svg>