<svg xmlns="http://www.w3.org/2000/svg" viewBox="0 0 512 512"><!--! Font Awesome Pro 6.4.0 by @fontawesome - https://fontawesome.com License - https://fontawesome.com/license (Commercial License) Copyright 2023 Fonticons, Inc. --><path d="M256 192L123 0C52.3 35.8 3.1 108 .1 192H0v16c0 2.5 0 4.9 .1 7.4c.1 2.9 .3 5.8 .5 8.6c1.8 22.2 7.5 44 16.8 64.5C28.9 314 45.7 336.9 66.6 356s45.6 34.2 72.6 44.5S195 416 224 416s57.9-5.2 84.8-15.5s51.6-25.3 72.6-44.5s37.7-42.1 49.2-67.5c9.3-20.5 14.9-42.3 16.8-64.5c.2-2.7 .4-5.3 .5-8h.2v-8V192 128h48 16V96H496 432 416v16 80H264v0h-8zm-38.9 0H32.2c2.5-61.6 34.1-115.9 81.6-149.2L217.1 192zm38.7 32c.1 0 .1 0 .2 0H415.2c-1.8 17.6-6.4 34.9-13.8 51.4c-9.6 21.4-23.8 40.8-41.6 57.1s-39 29.3-62.3 38.2S249.2 384 224 384s-50.2-4.6-73.5-13.4s-44.5-21.8-62.3-38.2s-32-35.7-41.6-57.1c-7.4-16.4-12.1-33.7-13.8-51.4h223zM80 448a16 16 0 1 1 0 32 16 16 0 1 1 0-32zm0 64a48 48 0 1 0 0-96 48 48 0 1 0 0 96zm272-48a16 16 0 1 1 32 0 16 16 0 1 1 -32 0zm64 0a48 48 0 1 0 -96 0 48 48 0 1 0 96 0z"/></svg>