<svg xmlns="http://www.w3.org/2000/svg" viewBox="0 0 384 512"><!--! Font Awesome Pro 6.4.0 by @fontawesome - https://fontawesome.com License - https://fontawesome.com/license (Commercial License) Copyright 2023 Fonticons, Inc. --><path d="M205.6 405.8l0 0 0 0 0 0L192 415.3l-13.6-9.5 0 0 0 0 0 0 0 0-.2-.2-1.1-.8c-1-.7-2.6-1.9-4.6-3.4c-4-3-9.9-7.6-17-13.5c-14.2-11.8-33.1-28.8-51.8-49.4C65 295.9 32 243.6 32 192c0-88.4 71.6-160 160-160s160 71.6 160 160c0 51.6-33 103.9-71.7 146.5c-18.8 20.6-37.6 37.6-51.8 49.4c-7.1 5.9-12.9 10.5-17 13.5c-2 1.5-3.6 2.7-4.6 3.4l-1.1 .8-.2 .2 0 0zM192 438.2l2.3 5.7L208.7 480H175.3l14.4-36.1 2.3-5.7zM256 512l-12.8-32L224 432s160-112 160-240C384 86 298 0 192 0S0 86 0 192C0 320 160 432 160 432l-19.2 48L128 512h34.5 59.1H256zM112 192c0-44.2 35.8-80 80-80V80C130.1 80 80 130.1 80 192h32z"/></svg>