<svg xmlns="http://www.w3.org/2000/svg" viewBox="0 0 576 512"><!--! Font Awesome Pro 6.4.0 by @fontawesome - https://fontawesome.com License - https://fontawesome.com/license (Commercial License) Copyright 2023 Fonticons, Inc. --><path d="M80 96H208v32H80c-26.5 0-48 21.5-48 48V336c0 26.5 21.5 48 48 48H208v32H80c-44.2 0-80-35.8-80-80V176c0-44.2 35.8-80 80-80zM432 384c26.5 0 48-21.5 48-48V176c0-26.5-21.5-48-48-48H336V96h96c44.2 0 80 35.8 80 80V336c0 44.2-35.8 80-80 80H336V384h96zM560 192c8.8 0 16 7.2 16 16v96c0 8.8-7.2 16-16 16s-16-7.2-16-16V208c0-8.8 7.2-16 16-16zM288 96v16V304v16H256V304 112 96h32zM248 352h48v48H248V352z"/></svg>