<svg xmlns="http://www.w3.org/2000/svg" viewBox="0 0 640 512"><!--! Font Awesome Pro 6.4.0 by @fontawesome - https://fontawesome.com License - https://fontawesome.com/license (Commercial License) Copyright 2023 Fonticons, Inc. --><path d="M464 0h8 11.1L487 10.4 507.1 64H624h16V96H624 496 484.9L481 85.6 467.6 50l-52.8 132-4 10.1H400h-8H381.3l-4.1-9.8L341.3 96H208 192V64h16H352h10.7l4.1 9.8 29 69.6L449.1 10.1l4-10.1H464zM272 160h61.3l13.3 32H288V352H608V272c0-44.2-35.8-80-80-80H445.3l12.8-32H528c61.9 0 112 50.1 112 112v96 64 64 16H608V496 448H32v48 16H0V496 432 368 80 64H32V80 352H256V176 160h16zM32 416H608V384H272 32v32zM192 240a48 48 0 1 0 -96 0 48 48 0 1 0 96 0zM64 240a80 80 0 1 1 160 0A80 80 0 1 1 64 240z"/></svg>