<svg xmlns="http://www.w3.org/2000/svg" viewBox="0 0 640 512"><!--! Font Awesome Pro 6.4.0 by @fontawesome - https://fontawesome.com License - https://fontawesome.com/license (Commercial License) Copyright 2023 Fonticons, Inc. --><path d="M32 48V32H0V48 336v64 64 16H32V464 416H608v48 16h32V464 400 336 240c0-61.9-50.1-112-112-112H272 256v16V320H32V48zM608 384H32V352H272 608v32zm0-144v80H288V160H528c44.2 0 80 35.8 80 80zM96 208a48 48 0 1 1 96 0 48 48 0 1 1 -96 0zm128 0A80 80 0 1 0 64 208a80 80 0 1 0 160 0z"/></svg>