<svg xmlns="http://www.w3.org/2000/svg" viewBox="0 0 512 512"><!--! Font Awesome Pro 6.4.0 by @fontawesome - https://fontawesome.com License - https://fontawesome.com/license (Commercial License) Copyright 2023 Fonticons, Inc. --><path d="M208 0c-26.9 0-51.2 11-68.6 28.8C126.9 20.7 112 16 96 16C51.8 16 16 51.8 16 96s35.8 80 80 80c16 0 30.9-4.7 43.4-12.8C156.8 181 181.1 192 208 192s51.2-11 68.6-28.8C289.1 171.3 304 176 320 176c44.2 0 80-35.8 80-80s-35.8-80-80-80c-16 0-30.9 4.7-43.4 12.8C259.2 11 234.9 0 208 0zM155 60.2c11.5-17 31-28.2 53-28.2s41.5 11.1 53 28.2l11 16.2 13.7-14C294.4 53.5 306.6 48 320 48c26.5 0 48 21.5 48 48s-21.5 48-48 48c-13.4 0-25.6-5.5-34.3-14.4l-13.7-14-11 16.2c-11.5 17-31 28.2-53 28.2s-41.5-11.1-53-28.2l-11-16.2-13.7 14C121.6 138.5 109.4 144 96 144c-26.5 0-48-21.5-48-48s21.5-48 48-48c13.4 0 25.6 5.5 34.3 14.4l13.7 14 11-16.2zM32 187.9V480v32H64 352h32V480 434.5l118.4-51.8 9.6-4.2V368 208 192H496 384v-4.1c-9.7 6.7-20.4 12-32 15.4V423.7c0 .2 0 .5 0 .7V480H64V203.4c-11.6-3.4-22.3-8.7-32-15.4zM208 224H192v16V400v16h32V400 240 224H208zM480 357.5l-96 42V224h96V357.5zM160 240V224H128v16V400v16h32V400 240zm128 0V224H256v16V400v16h32V400 240z"/></svg>