<svg xmlns="http://www.w3.org/2000/svg" viewBox="0 0 640 512"><!--! Font Awesome Pro 6.4.0 by @fontawesome - https://fontawesome.com License - https://fontawesome.com/license (Commercial License) Copyright 2023 Fonticons, Inc. --><path d="M378.8 384H128V366.6l59.3-59.3 4.7-4.7V296 236.5l-32-25.3v78.1l-59.3 59.3L96 353.4V360v40 16h16H419.4l-40.5-32zM304 32.8C264.5 36.7 229.2 55 203.4 82.4l25.2 19.9C251.9 78.7 284.2 64 320 64c70.7 0 128 57.3 128 128v83.5l86.2 68L480 289.4V192c0-83-63.1-151.2-144-159.2V0H304V32.8zM256 448c0 35.3 28.7 64 64 64s64-28.7 64-64H352c0 17.7-14.3 32-32 32s-32-14.3-32-32H256zM40.4 18L27.8 8.1 8.1 33.4l12.6 9.8L599.8 494.3l12.6 9.8 19.7-25.2L619.5 469 40.4 18z"/></svg>