<svg xmlns="http://www.w3.org/2000/svg" viewBox="0 0 640 512"><!--! Font Awesome Pro 6.4.0 by @fontawesome - https://fontawesome.com License - https://fontawesome.com/license (Commercial License) Copyright 2023 Fonticons, Inc. --><path d="M304 0h32V32.8c80.9 8 144 76.2 144 159.2v97.4l59.3 59.3 4.7 4.7V360v40 16H528 112 96V400 360v-6.6l4.7-4.7L160 289.4V192c0-83 63.1-151.2 144-159.2V0zm16 64c-70.7 0-128 57.3-128 128V296v6.6l-4.7 4.7L128 366.6V384H512V366.6l-59.3-59.3-4.7-4.7V296 192c0-70.7-57.3-128-128-128zM256 448h32c0 17.7 14.3 32 32 32s32-14.3 32-32h32c0 35.3-28.7 64-64 64s-64-28.7-64-64zM0 160H16 96h16v32H96 16 0V160zm544 0h80 16v32H624 544 528V160h16zM605.5 31.2l-14.3 7.2-64 32-14.3 7.2L498.5 48.8l14.3-7.2 64-32 14.3-7.2 14.3 28.6zM48.8 38.3L34.5 31.2 48.8 2.5 63.2 9.7l64 32 14.3 7.2L127.2 77.5l-14.3-7.2-64-32z"/></svg>