<svg xmlns="http://www.w3.org/2000/svg" viewBox="0 0 640 512"><!--! Font Awesome Pro 6.4.0 by @fontawesome - https://fontawesome.com License - https://fontawesome.com/license (Commercial License) Copyright 2023 Fonticons, Inc. --><path d="M368 64v37.2V112v22 26H272V134 112 101.2 64h96zm67.4 64H514c7.1 27.6 32.2 48 62 48c35.3 0 64-28.7 64-64s-28.7-64-64-64c-29.8 0-54.9 20.4-62 48H400V64 32H368 272 240V64 96H126c-7.1-27.6-32.2-48-62-48C28.7 48 0 76.7 0 112s28.7 64 64 64c29.8 0 54.9-20.4 62-48h78.6C139.5 167.2 96 238.5 96 320l-32 0H32v32 96 32H64h96 32V448 352 320H160l-32 0c0-77.5 45.9-144.3 112-174.6V160v32h32 96 32V160 145.4c66.1 30.3 112 97.1 112 174.6l-32 0H448v32 96 32h32 96 32V448 352 320H576l-32 0c0-81.5-43.5-152.8-108.6-192zM544 352l32 0v96H480V352l32 0h32zm-416 0l32 0v96H64V352l32 0h32zM32 112a32 32 0 1 1 64 0 32 32 0 1 1 -64 0zm512 0a32 32 0 1 1 64 0 32 32 0 1 1 -64 0z"/></svg>