<svg xmlns="http://www.w3.org/2000/svg" viewBox="0 0 640 512"><!--! Font Awesome Pro 6.4.0 by @fontawesome - https://fontawesome.com License - https://fontawesome.com/license (Commercial License) Copyright 2023 Fonticons, Inc. --><path d="M384 0h16 96 16V32H496 400 384V0zM352 192H320h-.4v-.1V163.6L248.4 128H135.6L64 163.8V192H32V144l96-48H256l63.6 31.8 32 16 .4 .2v45.5l0 0V192zm223.6 0h-.5-32c0-1.9 .2-3.8 .5-5.6V114.5L504.2 96H391l-32.8 15.3L321.8 93.1 383.9 64H511.3l64.3 30.1V160v31.9 .1zM608 256h-1.9L576 512H64L33.9 256H32 0V224H32h1.9H48 62.3 577.7 592h14.1H608h32v32H608zm-34.1 0H66.1L92.5 480H547.5l26.4-224zM295.4 288H304h32 8.6l4.7 7.2 26.3 40-27.1 17L327.4 320H312.6l-20.3 30.5-27.1-17 25.6-38.4 4.8-7.1zm70.7 90.9l27.1-17 19.3 29.3 2.6 4V400v32 16h-16H337.7V416h45.5V404.8l-17.1-25.9zM305.7 416v32H240 224V432 400v-4.8l2.7-4 20.6-31 27.1 17L256 404.8V416h49.7zM144 0h96 16V16 32h16V64H256 240 224V48 32H160V48 64H144 128 112V32h16V16 0h16z"/></svg>