<svg xmlns="http://www.w3.org/2000/svg" viewBox="0 0 384 512"><!--! Font Awesome Pro 6.4.0 by @fontawesome - https://fontawesome.com License - https://fontawesome.com/license (Commercial License) Copyright 2023 Fonticons, Inc. --><path d="M240 0H224V32h16 48V192H240 224v32h16 64 64 16V192H368 320V16 0H304 240zM16 288H0v32H16 64V480H16 0v32H16 80h64 16V480H144 96V304 288H80 16zM0 0V16 208v16H16 176h16V208 16 0H176 16 0zM32 32H160V192H32V32zM208 288H192v16V496v16h16H368h16V496 304 288H368 208zm16 192V320H352V480H224z"/></svg>