<svg xmlns="http://www.w3.org/2000/svg" viewBox="0 0 640 512"><!--! Font Awesome Pro 6.4.0 by @fontawesome - https://fontawesome.com License - https://fontawesome.com/license (Commercial License) Copyright 2023 Fonticons, Inc. --><path d="M432 224h64 16V192H496 448V16 0H432 368 352V32h16 48V192H368 352v7.7L382.8 224H432zM320 16V0H304 144 128V16v6.9l32 25.3V32H288V149.2l32 25.3V16zm0 480v16h16H496h16V496v-6.9l-32-25.3V480H352V362.8l-32-25.3V496zM144 288H128v32h16 48V480H144 128v32h16 64 64 16V480H272 224V304 288H208 144zM40.4 18L27.8 8.1 8.1 33.4l12.6 9.8L599.8 494.3l12.6 9.8 19.7-25.2L619.5 469 40.4 18z"/></svg>