<svg xmlns="http://www.w3.org/2000/svg" viewBox="0 0 512 512"><!--! Font Awesome Pro 6.4.0 by @fontawesome - https://fontawesome.com License - https://fontawesome.com/license (Commercial License) Copyright 2023 Fonticons, Inc. --><path d="M224 192H32v8c0 101.6 82.4 184 184 184s184-82.4 184-184V104c0-39.8-32.2-72-72-72s-72 32.2-72 72v56 32H224zM0 200v-8V160H32 192h32V128 104C224 46.6 270.6 0 328 0c43.2 0 80.2 26.3 95.9 63.8L494.8 115l17 12.3-16.3 13.1L432 191.7V200c0 88.6-53.4 164.8-129.7 198.1L362.6 512H326.4L271.7 408.7c-17.8 4.7-36.4 7.3-55.7 7.3c-.1 0-.2 0-.2 0l50.8 96H230.4l-52.6-99.4C76.7 394.6 0 306.2 0 200zm432-49.5l27.1-21.8L432 109.1v41.4zM304 120a24 24 0 1 1 48 0 24 24 0 1 1 -48 0z"/></svg>