<svg xmlns="http://www.w3.org/2000/svg" viewBox="0 0 512 512"><!--! Font Awesome Pro 6.4.0 by @fontawesome - https://fontawesome.com License - https://fontawesome.com/license (Commercial License) Copyright 2023 Fonticons, Inc. --><path d="M0 0H16 128h24 8.1H479h33l-8 32-24 96L424 352h24 32v32 96 32H448 128 96V480 384 352h32 29.3L148 240H16 0V224 16 0zM423 224H304 288V192h16H431l16-64H304 288V96h16H455l16-64H162.8l26.7 320H391l32-128zM128 384v96H448V384H416 160 128zM32 32V208H145.3L130.7 32H32zM288 408a24 24 0 1 1 0 48 24 24 0 1 1 0-48z"/></svg>