<svg xmlns="http://www.w3.org/2000/svg" viewBox="0 0 512 512"><!--! Font Awesome Pro 6.4.0 by @fontawesome - https://fontawesome.com License - https://fontawesome.com/license (Commercial License) Copyright 2023 Fonticons, Inc. --><path d="M0 0H16 496h16V16 80 96H496 160V258.7c18.6 6.6 32 24.4 32 45.3c0 26.5-21.5 48-48 48s-48-21.5-48-48c0-20.9 13.4-38.7 32-45.3V96H16 0V80 16 0zM32 32V64H480V32H32zM96 192v32H33 0l8-32 16-64H57L41 192H96zm96 32V192H471l-16-64h33l16 64 8 32H479 192zM65.6 288c-1 5.2-1.6 10.5-1.6 16s.6 10.8 1.6 16H33 0l8-32 8-32H49l-8 32H65.6zm156.8 32c1-5.2 1.6-10.5 1.6-16s-.6-10.8-1.6-16H471l-8-32h33l8 32 8 32H479 222.4zM144 384H471l-8-32h33l8 32 8 32H479 33 0l8-32 8-32H49l-8 32H144zM512 512H479 33 0l8-32 8-32H49l-8 32H471l-8-32h33l8 32 8 32zM144 320a16 16 0 1 0 0-32 16 16 0 1 0 0 32z"/></svg>