<svg xmlns="http://www.w3.org/2000/svg" viewBox="0 0 448 512"><!--! Font Awesome Pro 6.4.0 by @fontawesome - https://fontawesome.com License - https://fontawesome.com/license (Commercial License) Copyright 2023 Fonticons, Inc. --><path d="M32 64V448H416V64H32zM0 32H32 416h32V64 448v32H416 32 0V448 64 32zM88 96a24 24 0 1 1 0 48 24 24 0 1 1 0-48zm248 24a24 24 0 1 1 48 0 24 24 0 1 1 -48 0zM88 368a24 24 0 1 1 0 48 24 24 0 1 1 0-48zm248 24a24 24 0 1 1 48 0 24 24 0 1 1 -48 0zM136 192c0-30.9 25.1-56 56-56h56c35.5 0 64 29 64 64.3c0 24-13.4 46.2-34.9 57.2L240 276.3V280v16H208V280 266.5v-9.8l8.7-4.5 45.8-23.4c10.7-5.4 17.5-16.6 17.5-28.7c0-17.8-14.4-32.3-32-32.3H192c-13.3 0-24 10.7-24 24v8H136v-8zm64 136h48v48H200V328z"/></svg>