<svg xmlns="http://www.w3.org/2000/svg" viewBox="0 0 448 512"><!--! Font Awesome Pro 6.4.0 by @fontawesome - https://fontawesome.com License - https://fontawesome.com/license (Commercial License) Copyright 2023 Fonticons, Inc. --><path d="M112 245.4l16-9.2V217.7 32H256V217.7v18.5l16 9.2c29.5 17.1 53 43.2 66.7 74.6H45.3C59 288.6 82.5 262.4 112 245.4zM35.2 352H348.8c2.1 10.3 3.2 21 3.2 32c0 36-11.9 69.3-32 96H64c-20.1-26.7-32-60-32-96c0-11 1.1-21.7 3.2-32zM288 217.7V32h16 16V0H304 288 256 128 96 80 64V32H80 96V217.7C38.6 250.9 0 312.9 0 384c0 49.2 18.5 94 48.9 128H335.1c30.4-34 48.9-78.8 48.9-128c0-39-11.7-75.4-31.7-105.7L400 230.6l20.7 20.7L432 262.6 454.6 240l-11.3-11.3-32-32-32-32L368 153.4 345.4 176l11.3 11.3L377.4 208l-45 45c-12.9-13.8-27.9-25.8-44.4-35.3z"/></svg>