<svg xmlns="http://www.w3.org/2000/svg" viewBox="0 0 576 512"><!--! Font Awesome Pro 6.4.0 by @fontawesome - https://fontawesome.com License - https://fontawesome.com/license (Commercial License) Copyright 2023 Fonticons, Inc. --><path d="M192 480H96V416h96v64zm0-96H96 64v16 16 64 32H96h96 32 96 32V480 416 400 384 230.6l41.6 155.2 4.1 15.5 4.1 15.5 17.2 64.4 8.3 30.9 30.9-8.3 85.8-23 30.9-8.3-8.3-30.9-17.2-64.4-4.1-15.5-4.1-15.5-59-220.1-4.1-15.5L474 95.3 456.7 30.9 448.4 0 417.5 8.3 352 25.8V0H320 224 192 96 64V32 96v16 16H96h96 32 16 80V384H240 224 192zm0-352V96H96V32h96zM352 59l73.8-19.8 17.2 64.4-85.8 23L352 107V96 59zM320 480H224V416h96v64zm0-384H224V32h96V96zM450 472.8l-17.2-64.4 85.8-23 17.2 64.4-85.8 23zm-25.5-95.3l-59-220.1 85.8-23 59 220.1-85.8 23zM64 160H48v16 32H16L0 208v16 64 16H16 48v32 16H64h64 16V336 304h32 16V288 224 208H176 144V176 160H128 64zm16 80V224 192h32v32 16h16 32v32H128 112v16 32H80V288 272H64 32V240H64 80z"/></svg>