<svg xmlns="http://www.w3.org/2000/svg" viewBox="0 0 640 512"><!--! Font Awesome Pro 6.4.0 by @fontawesome - https://fontawesome.com License - https://fontawesome.com/license (Commercial License) Copyright 2023 Fonticons, Inc. --><path d="M64 0C28.7 0 0 28.7 0 64L0 448l0 0c0 35.3 28.7 64 64 64H394.8c-12.9-9.1-24.5-19.9-34.6-32H64c-17.7 0-32-14.3-32-32s14.3-32 32-32H326.6c-2.9-10.3-4.9-21-5.9-32H64c-11.7 0-22.6 3.1-32 8.6L32 64c0-17.7 14.3-32 32-32H416V211.2c10.1-5.2 20.8-9.4 32-12.6V16 0H432 64zM384 368a112 112 0 1 1 224 0 112 112 0 1 1 -224 0zm256 0a144 144 0 1 0 -288 0 144 144 0 1 0 288 0zm-222.6-8L440 382.6l11.3-11.3 .1-.1 .1-.1 .1-.1 .1-.1 .1-.1 .1-.1 .1-.1 .1-.1 .1-.1 .1-.1 .1-.1 .1-.1 .1-.1 .1-.1 .1-.1 .1-.1 .1-.1 .1-.1 .1-.1 .1-.1 .1-.1 .1-.1 .1-.1 .1-.1 .1-.1 .1-.1 .1-.1 .1-.1 .1-.1 .1-.1 .1-.1 .1-.1 .1-.1 .1-.1 .1-.1 .1-.1 .1-.1 .1-.1 .1-.1 .1-.1 .1-.1 .1-.1 .1-.1 .1-.1 .1-.1 .1-.1 .1-.1 .1-.1 .1-.1 .1-.1 .1-.1 .1-.1 .1-.1 .1-.1 .1-.1 .1-.1 .1-.1 .1-.1 .1-.1 .1-.1 .1-.1 .1-.1 .1-.1 .1-.1 .1-.1 .1-.1 .1-.1 .1-.1 .1-.1 .1-.1 .1-.1 .1-.1 .1-.1 .1-.1 .1-.1 .1-.1 .1-.1 .1-.1 .1-.1 .1-.1 .1-.1 .1-.1 .1-.1 .1-.1 .1-.1 .1-.1 .1-.1 .1-.1 .1-.1 .1-.1 .1-.1 .1-.1 .1-.1 .1-.1 .1-.1 .1-.1 .1-.1 .1-.1 .1-.1 .1-.1 .1-.1 .1-.1 .1-.1 .1-.1 .1-.1 .1-.1 .1-.1 .1-.1 .1-.1 .1-.1 .1-.1 .1-.1 .1-.1 .1-.1 .1-.1 .1-.1 .1-.1 .1-.1 .1-.1 .1-.1 .1-.1 .1-.1 .1-.1 .1-.1 .1-.1 .1-.1 .1-.1 .1-.1 .1-.1 .1-.1 .1-.1 .1-.1 .1-.1 .1-.1 .1-.1 .1-.1 .1-.1 .1-.1 .1-.1 .1-.1 .1-.1 .1-.1 .1-.1 .1-.1 .1-.1 .1-.1 .1-.1 .1-.1 .1-.1 .1-.1 .1-.1 .1-.1 .1-.1 .1-.1 .1-.1 .1-.1 .1-.1 .1-.1 .1-.1 .1-.1 .1-.1 .1-.1 .1-.1 .1-.1 .1-.1 .1-.1 .1-.1 .1-.1 .1-.1 .1-.1 .1-.1 .1-.1 .1-.1 .1-.1 .1-.1 .1-.1 .1-.1 .1-.1 .1-.1 .1-.1 .1-.1 .1-.1 .1-.1 .1-.1 .1-.1 .1-.1 .1-.1 .1-.1 .1-.1 .1-.1 .1-.1 .1-.1 .1-.1 .1-.1 .1-.1 .1-.1 .1-.1 .1-.1 .1-.1 .1-.1 .1-.1 .1-.1V432v16h32V432 342.6l28.7 28.7L552 382.6 574.6 360l-11.3-11.3-56-56L496 281.4l-11.3 11.3L496 304l-11.3-11.3 0 0 0 0 0 0 0 0 0 0 0 0 0 0 0 0 0 0 0 0 0 0 0 0 0 0 0 0 0 0 0 0 0 0 0 0 0 0 0 0 0 0 0 0 0 0 0 0 0 0 0 0 0 0 0 0 0 0 0 0 0 0 0 0 0 0 0 0 0 0 0 0 0 0 0 0 0 0 0 0 0 0 0 0 0 0 0 0 0 0 0 0 0 0 0 0 0 0 0 0 0 0 0 0 0 0 0 0 0 0 0 0 0 0 0 0 0 0 0 0 0 0 0 0 0 0 0 0 0 0 0 0 0 0 0 0-.1 0 0 0-.1 .1-.1 .1-.1 .1-.1 .1-.1 .1-.1 .1-.1 .1-.1 .1-.1 .1-.1 .1-.1 .1-.1 .1-.1 .1-.1 .1-.1 .1-.1 .1-.1 .1-.1 .1-.1 .1-.1 .1-.1 .1-.1 .1-.1 .1-.1 .1-.1 .1-.1 .1-.1 .1-.1 .1-.1 .1-.1 .1-.1 .1-.1 .1-.1 .1-.1 .1-.1 .1-.1 .1-.1 .1-.1 .1-.1 .1-.1 .1-.1 .1-.1 .1-.1 .1-.1 .1-.1 .1-.1 .1-.1 .1-.1 .1-.1 .1-.1 .1-.1 .1-.1 .1-.1 .1-.1 .1-.1 .1-.1 .1-.1 .1-.1 .1-.1 .1-.1 .1-.1 .1-.1 .1-.1 .1-.1 .1-.1 .1-.1 .1-.1 .1-.1 .1-.1 .1-.1 .1-.1 .1-.1 .1-.1 .1-.1 .1-.1 .1-.1 .1-.1 .1-.1 .1-.1 .1-.1 .1-.1 .1-.1 .1-.1 .1-.1 .1-.1 .1-.1 .1-.1 .1-.1 .1-.1 .1-.1 .1-.1 .1-.1 .1-.1 .1-.1 .1-.1 .1-.1 .1-.1 .1-.1 .1-.1 .1-.1 .1-.1 .1-.1 .1-.1 .1-.1 .1-.1 .1-.1 .1-.1 .1-.1 .1-.1 .1-.1 .1-.1 .1-.1 .1-.1 .1-.1 .1-.1 .1-.1 .1-.1 .1-.1 .1-.1 .1-.1 .1-.1 .1-.1 .1-.1 .1-.1 .1-.1 .1-.1 .1-.1 .1-.1 .1-.1 .1-.1 .1-.1 .1-.1 .1-.1 .1-.1 .1-.1 .1-.1 .1-.1 .1-.1 .1-.1 .1-.1 .1-.1 .1-.1 .1-.1 .1-.1 .1-.1 .1-.1 .1-.1 .1-.1 .1-.1 .1-.1 .1-.1 .1-.1 .1-.1 .1-.1 .1-.1 .1-.1 .1-.1 .1-.1 .1-.1 .1-.1 .1-.1 .1-.1 .1-.1 .1-.1 .1-.1 .1-.1 .1-.1 .1-.1 .1-.1 .1-.1 .1-.1 .1-.1 .1-.1 .1-.1 .1-.1 .1-.1 .1-.1 .1-.1 .1-.1 .1-.1 .1-.1 .1-.1 .1-.1 .1-.1 .1-.1 .1-.1 .1-.1 .1-.1 .1-.1 .1-.1 .1-.1 .1-.1 .1-.1 .1-.1 .1-.1 .1-.1 .1-.1 .1-.1 .1-.1 .1-.1 .1-.1 .1-.1 .1-.1 .1-.1 .1-.1 .1-.1 .1-.1 .1-.1 .1-.1 .1-.1 .1-.1 .1-.1 .1-.1 .1-.1 .1-.1 .1-.1 .1-.1 .1-.1 .1-.1 .1-.1 .1-.1 .1-.1 .1-.1 .1-.1 .1-.1 .1-.1 .1-.1 .1-.1 .1-.1 .1-.1 .1-.1 .1-.1 .1-.1 .1-.1 .1-.1 .1-.1 .1-.1 .1-.1 .1-.1 .1-.1 .1-.1 .1-.1 .1-.1 .1-.1 .1-.1 .1-.1 .1-.1 .1-.1 .1-.1 .1-.1 .1-.1 .1-.1 .1-.1 .1-.1 .1-.1 .1-.1 .1-.1 .1-.1 .1-.1 .1-.1 .1-.1 .1-.1 .1-.1 .1-.1 .1-.1 .1-.1 .1-.1 .1-.1 .1-.1 .1-.1 .1-.1 .1-.1 .1-.1 .1-.1 .1-.1 .1-.1 .1-.1 .1-.1 .1-.1 .1-.1 .1-.1 .1-.1 .1-.1 .1-.1 .1-.1 .1-.1 .1-.1 .1-.1 .1-.1 .1-.1 .1-.1 .1-.1 .1-.1 .1-.1 .1-.1 .1-.1 .1-.1 .1-.1 .1-.1 .1-.1 .1-.1 .1-.1 .1-.1 .1-.1 .1-.1 .1-.1 .1-.1 .1-.1 .1-.1 .1-.1 .1-.1 .1-.1 .1-.1 .1-.1 .1-.1 .1-.1 .1-.1 .1-.1 .1-.1 .1-.1 .1-.1 .1-.1 .1-.1 .1-.1 .1-.1 .1-.1 .1-.1 .1-.1 .1-.1 .1-.1 .1-.1 .1-.1 .1-.1 .1-.1 .1-.1 .1-.1 .1-.1 .1-.1 .1-.1 .1-.1 .1-.1 .1-.1 .1-.1 .1-.1 .1-.1 .1-.1 .1-.1 .1-.1 .1-.1 .1-.1 .1-.1 .1-.1 .1-.1 .1-.1 .1-.1 .1-.1 .1-.1 .1-.1 .1-.1 .1-.1 .1-.1 .1-.1 .1-.1 .1-.1 .1-.1 .1-.1 .1-.1 .1-.1 .1-.1 .1-.1 .1-.1 .1-.1 .1-.1 .1-.1 .1-.1 .1-.1 .1-.1 .1-.1 .1-.1 .1-.1 .1-.1 .1-.1 .1-.1 .1-.1 .1-.1 .1-.1 .1-.1 .1-.1 .1-.1 .1-.1 .1-.1 .1-.1 .1-.1 .1-.1 .1-.1 .1-.1 .1-.1 .1-.1 .1-.1 .1-.1 .1-.1 .1-.1 .1-.1 .1-.1 .1-.1 .1-.1 .1-.1 .1-.1 .1-.1 .1-.1 .1-.1 .1-.1 .1-.1 .1-.1 .1-.1 .1-.1 .1-.1 .1-.1 .1-.1 .1-.1 .1-.1 .1-.1 .1-.1 .1-.1 .1-.1 .1-.1 .1-.1 .1-.1 .1-.1 .1-.1 .1-.1 .1-.1 .1-.1 .1-.1 .1-.1 .1-.1 .1-.1 .1-.1 .1-.1 .1-.1 .1-.1 .1L417.4 360z"/></svg>