<svg xmlns="http://www.w3.org/2000/svg" viewBox="0 0 512 512"><!--! Font Awesome Pro 6.4.0 by @fontawesome - https://fontawesome.com License - https://fontawesome.com/license (Commercial License) Copyright 2023 Fonticons, Inc. --><path d="M256 32a64 64 0 1 1 0 128 64 64 0 1 1 0-128zm0 160A96 96 0 1 0 256 0a96 96 0 1 0 0 192zm0 48s-56.8-42.6-224-47.5c-10.2-.3-20.9-.5-32-.5v32V432v32c160 0 256 48 256 48s96-48 256-48V432 224 192c-11.1 0-21.8 .2-32 .5C312.8 197.4 256 240 256 240zm224-15.5V432.6c-68.5 2.7-124.2 13.5-164.4 24.5c-17.5 4.8-32.1 9.6-43.6 13.7V268l2.9-2.2c.2-.1 .5-.3 1.1-.7c1.3-.8 3.7-2.2 7.4-4c7.3-3.6 19.6-9 37.9-14.5c32.2-9.7 83.3-19.9 158.8-22.2zM240 470.9c-11.5-4.2-26.1-9-43.6-13.7c-40.3-11-96-21.8-164.4-24.5V224.5c75.5 2.3 126.6 12.5 158.8 22.2c18.3 5.5 30.6 10.8 37.9 14.5c3.7 1.8 6.1 3.2 7.4 4c.6 .3 .9 .6 1.1 .7L240 268V470.9z"/></svg>