<svg xmlns="http://www.w3.org/2000/svg" viewBox="0 0 448 512"><!--! Font Awesome Pro 6.4.0 by @fontawesome - https://fontawesome.com License - https://fontawesome.com/license (Commercial License) Copyright 2023 Fonticons, Inc. --><path d="M0 64C0 28.7 28.7 0 64 0h96 16H336h16 80 16V16 400v16H432 416v64h16 16v32H432 64c-35.3 0-64-28.7-64-64l0 0L0 64zM320 32H192V206.7l54-43.2 10-8 10 8 54 43.2V32zM160 32H64C46.3 32 32 46.3 32 64l0 328.6c9.4-5.4 20.3-8.6 32-8.6H416V32H352V240v33.3l-26-20.8-70-56-70 56-26 20.8V240 32zM64 416c-17.7 0-32 14.3-32 32s14.3 32 32 32H384V416H64z"/></svg>