<svg xmlns="http://www.w3.org/2000/svg" viewBox="0 0 448 512"><!--! Font Awesome Pro 6.4.0 by @fontawesome - https://fontawesome.com License - https://fontawesome.com/license (Commercial License) Copyright 2023 Fonticons, Inc. --><path d="M384 0c35.3 0 64 28.7 64 64l0 384 0 0c0 35.3-28.7 64-64 64H16 0V480H16 32V416H16 0V400 16 0H16 384zM64 416v64H384c17.7 0 32-14.3 32-32s-14.3-32-32-32H64zm320-32c11.7 0 22.6 3.1 32 8.6L416 64c0-17.7-14.3-32-32-32H32V384H384zM216 64l13.9 24 27.7 48H313h27.7l-13.9 24-27.7 48 27.7 48 13.9 24H313 257.6l-27.7 48L216 352l-13.9-24-27.7-48H119 91.3l13.9-24 27.7-48-27.7-48L91.3 136H119h55.4l27.7-48L216 64zm27.7 96H188.3l-27.7 48 27.7 48h55.4l27.7-48-27.7-48zm-13.9-24L216 112l-13.9 24h27.7zm55.4 48l13.9-24H271.4l13.9 24zm0 48l-13.9 24h27.7l-13.9-24zm-55.4 48H202.1L216 304l13.9-24zm-69.3-24l-13.9-24-13.9 24h27.7zm-13.9-72l13.9-24H132.9l13.9 24z"/></svg>