<svg xmlns="http://www.w3.org/2000/svg" viewBox="0 0 448 512"><!--! Font Awesome Pro 6.4.0 by @fontawesome - https://fontawesome.com License - https://fontawesome.com/license (Commercial License) Copyright 2023 Fonticons, Inc. --><path d="M0 64C0 28.7 28.7 0 64 0H432h16V16 400v16H432 416v64h16 16v32H432 64c-35.3 0-64-28.7-64-64l0 0L0 64zM64 416c-17.7 0-32 14.3-32 32s14.3 32 32 32H384V416H64zM32 392.6c9.4-5.4 20.3-8.6 32-8.6H416V32H64C46.3 32 32 46.3 32 64l0 328.6zM240 96c-38.9 0-64 24.6-64 48c0 14.1 8.4 28 24.2 37.5l7.8 4.7v9.1V208h64V195.2v-9.1l7.8-4.7C295.6 172 304 158.1 304 144c0-23.4-25.1-48-64-48zm-96 48c0-47.3 46.5-80 96-80s96 32.7 96 80c0 24.6-13 45.6-32 59.7V224v16H288 192 176V224 203.7c-19-14.1-32-35.1-32-59.7zm56 0a16 16 0 1 1 32 0 16 16 0 1 1 -32 0zm64-16a16 16 0 1 1 0 32 16 16 0 1 1 0-32zM135.4 235.1l14.8 6.2L240 278.7l89.8-37.4 14.8-6.2 12.3 29.5-14.8 6.2L281.6 296l60.6 25.2 14.8 6.2-12.3 29.5-14.8-6.2L240 313.3l-89.8 37.4-14.8 6.2-12.3-29.5 14.8-6.2L198.4 296l-60.6-25.2-14.8-6.2 12.3-29.5z"/></svg>