<svg xmlns="http://www.w3.org/2000/svg" viewBox="0 0 640 512"><!--! Font Awesome Pro 6.4.0 by @fontawesome - https://fontawesome.com License - https://fontawesome.com/license (Commercial License) Copyright 2023 Fonticons, Inc. --><path d="M64 0H80 560h16V16 160h32 32v32V480v32H608 32 0V480 192 160H32 64V16 0zM96 32V160H544V32H96zM32 192V480H608V192H560 80 32zM256 336A80 80 0 1 0 96 336a80 80 0 1 0 160 0zM64 336a112 112 0 1 1 224 0A112 112 0 1 1 64 336zm400 80a80 80 0 1 0 0-160 80 80 0 1 0 0 160zm0-192a112 112 0 1 1 0 224 112 112 0 1 1 0-224zM208 96h32 16v32H240 208 192V96h16zm96 0h32 16v32H336 304 288V96h16zm96 0h32 16v32H432 400 384V96h16z"/></svg>