<svg xmlns="http://www.w3.org/2000/svg" viewBox="0 0 512 512"><!--! Font Awesome Pro 6.4.0 by @fontawesome - https://fontawesome.com License - https://fontawesome.com/license (Commercial License) Copyright 2023 Fonticons, Inc. --><path d="M141 418.8L278.8 480H432h16V419.8L241.7 316.6 224 307.8V288 32H128V240v16H96V240 32H32V62L55.8 252l.6 5-.9 4.9L32 387v29h96 6.8l6.2 2.8zM128 0h96 32V32 288L480 400v80h16 16v32H496 480 448 432 272L160 462.2V496v16H144 16 0V496 448 432 416 384L24 256 0 64V32 0H32 96h32zm0 448H32v32h96V448z"/></svg>