<svg xmlns="http://www.w3.org/2000/svg" viewBox="0 0 320 512"><!--! Font Awesome Pro 6.4.0 by @fontawesome - https://fontawesome.com License - https://fontawesome.com/license (Commercial License) Copyright 2023 Fonticons, Inc. --><path d="M128 32V96h2.7 58.6H192V32H128zM96 102.3V96 32 0h32 64 32V32 96v6.3c6.4 2.4 12.6 5.5 18.4 9.2l13.6 8.6c20 12.7 32.1 34.8 32.1 58.5c0 10.9-2.5 21.2-7 30.4c4.5 9.4 7 19.9 7 31c0 11.5-2.7 22.4-7.5 32c4.8 9.6 7.5 20.5 7.5 32s-2.7 22.4-7.5 32c4.8 9.6 7.5 20.5 7.5 32c0 13.1-3.5 25.4-9.6 36c6.1 10.6 9.6 22.9 9.6 36v40 32H256 64 32V480 440c0-13.1 3.5-25.4 9.6-36c-6.1-10.6-9.6-22.9-9.6-36c0-11.5 2.7-22.4 7.5-32c-4.8-9.6-7.5-20.5-7.5-32s2.7-22.4 7.5-32c-4.8-9.6-7.5-20.5-7.5-32c0-11.1 2.5-21.6 7-31c-4.5-9.2-7-19.5-7-30.4c0-23.7 12.1-45.8 32.1-58.5l13.6-8.6c5.8-3.7 12-6.8 18.4-9.2zM130.7 128c-12.7 0-25.1 3.6-35.9 10.5l-13.6 8.6C70.5 154 64 165.8 64 178.6c0 5.3 1.1 10.3 3.1 14.9c2.6 6.1 6.8 11.3 12.1 15.2c-5.5 4.3-9.8 10.1-12.4 16.7C65 229.9 64 234.8 64 240c0 5 .9 9.7 2.6 14.1C69.3 261.3 74 267.5 80 272c-6 4.5-10.7 10.7-13.4 17.9C64.9 294.3 64 299 64 304s.9 9.7 2.6 14.1C69.3 325.3 74 331.5 80 336c-6 4.5-10.7 10.7-13.4 17.9C64.9 358.3 64 363 64 368c0 3.9 .5 7.6 1.6 11.1c3.2 11 10.9 20 21 24.9c-10.1 4.9-17.8 13.9-21 24.9c-1 3.5-1.6 7.3-1.6 11.1v8 32H96 224h32V448v-8c0-3.9-.5-7.6-1.6-11.1c-3.2-11-10.9-20-21-24.9c10.1-4.9 17.8-13.9 21-24.9c1-3.5 1.6-7.3 1.6-11.1c0-5-.9-9.7-2.6-14.1c-2.7-7.2-7.4-13.4-13.4-17.9c6-4.5 10.7-10.7 13.4-17.9c1.7-4.4 2.6-9.2 2.6-14.1s-.9-9.7-2.6-14.1c-2.7-7.2-7.4-13.4-13.4-17.9c6-4.5 10.7-10.7 13.4-17.9c1.7-4.4 2.6-9.2 2.6-14.1c0-5.2-1-10.1-2.8-14.7c-2.6-6.6-6.9-12.3-12.4-16.7c5.2-3.9 9.4-9.1 12.1-15.2c2-4.6 3.1-9.6 3.1-14.9c0-12.8-6.5-24.7-17.3-31.5l-13.6-8.6C214.5 131.6 202 128 189.3 128H130.7zM96 224H224v32H96V224zM224 352v32H96V352H224z"/></svg>