<svg xmlns="http://www.w3.org/2000/svg" viewBox="0 0 512 512"><!--! Font Awesome Pro 6.4.0 by @fontawesome - https://fontawesome.com License - https://fontawesome.com/license (Commercial License) Copyright 2023 Fonticons, Inc. --><path d="M72 176L14.7 367.9 55.9 512H200.1l41.2-144.1L184 176l21.1-75.6c1.9-6.9 2.9-14.1 2.9-21.3C208 35.4 172.6 0 128.9 0h-1.7C83.4 0 48 35.4 48 79.1c0 7.2 1 14.3 2.9 21.3L72 176zM208 368.1L176 480H80L48 368.1 100.6 192h54.8L208 368.1zM174.3 91.8l-19 68.2H100.8l-19-68.2C80.6 87.7 80 83.4 80 79.1c0-26 21.1-47.1 47.1-47.1h1.7c26 0 47.1 21.1 47.1 47.1c0 4.3-.6 8.5-1.7 12.7zM328 176L270.7 367.9 311.9 512H456.1l41.2-144.1L440 176l21.1-75.6c1.9-6.9 2.9-14.1 2.9-21.3C464 35.4 428.6 0 384.9 0h-1.7C339.4 0 304 35.4 304 79.1c0 7.2 1 14.3 2.9 21.3L328 176zM464 368.1L432 480H336L304 368.1 356.6 192h54.8L464 368.1zM430.3 91.8l-19 68.2H356.8l-19-68.2c-1.2-4.1-1.7-8.4-1.7-12.7c0-26 21.1-47.1 47.1-47.1h1.7c26 0 47.1 21.1 47.1 47.1c0 4.3-.6 8.5-1.7 12.7z"/></svg>