<svg xmlns="http://www.w3.org/2000/svg" viewBox="0 0 576 512"><!--! Font Awesome Pro 6.4.0 by @fontawesome - https://fontawesome.com License - https://fontawesome.com/license (Commercial License) Copyright 2023 Fonticons, Inc. --><path d="M416 32V192h32V32 0H416 352 320 256 224 160 128V32 192h32V32h64V96v32h32 64 32V96 32h64zM256 32h64V96H256V32zm96 480H544h32V480 256 224H544 480 448 384 352l0 128h32 64 32V320 256h64V480H352v32zm32-256h64v64H384V256zM288 480H32V256H96v64 32h32 64 32V320 256h64V480zM128 320V256h64v64H128zm160-96H224 192 128 96 32 0v32V480v32H32 288h32V480 256 224H288z"/></svg>