<svg xmlns="http://www.w3.org/2000/svg" viewBox="0 0 576 512"><!--! Font Awesome Pro 6.4.0 by @fontawesome - https://fontawesome.com License - https://fontawesome.com/license (Commercial License) Copyright 2023 Fonticons, Inc. --><path d="M16 32H0V64H16 80v64H16 0v32H16 80h32 96 32 96 32 96 32 64 16V128H560 496V64h64 16V32H560 496 464 368 336 240 208 112 80 16zM464 64v64H368V64h96zM336 64v64H240V64h96zM208 64v64H112V64h96zM16 240H0v32H16 32c35.3 0 64 28.7 64 64V464v16h16 96 16V464 336c0-35.3 28.7-64 64-64s64 28.7 64 64V464v16h16 96 16V464 336c0-35.3 28.7-64 64-64h16 16V240H560 544c-53 0-96 43-96 96V448H384V336c0-53-43-96-96-96s-96 43-96 96V448H128V336c0-53-43-96-96-96H16z"/></svg>