<svg xmlns="http://www.w3.org/2000/svg" viewBox="0 0 640 512"><!--! Font Awesome Pro 6.4.0 by @fontawesome - https://fontawesome.com License - https://fontawesome.com/license (Commercial License) Copyright 2023 Fonticons, Inc. --><path d="M112 0h-1.9l-4.4 8.8c-23 46-61.3 91.7-98.7 117L25 152.3c31.7-21.4 62.8-54.7 87-90.9V256H16 0v32H16 624h16V256H624 528V61.4c24.2 36.2 55.4 69.5 87 90.9L633 125.8c-37.4-25.3-75.7-71-98.7-117L529.9 0H528h-8H504h-8-1.3l-4.6 8.1C452.1 74.6 390.8 128 320 128S187.9 74.6 149.9 8.1L145.3 0H144h-8H120h-8zM304 159.3V256H240V141.1c19.9 9.7 41.3 16.1 64 18.2zm-96-37.4V128 256H144V57.6c17.9 24.4 39.5 46.7 64 64.3zm128 37.4c22.7-2.1 44.1-8.5 64-18.2V256H336V159.3zm96-37.4c24.5-17.6 46.1-39.9 64-64.3V256H432V128v-6.1zM0 320v32H16 96V496v16h16 96 16V496 352H416V496v16h16 96 16V496 352h80 16V320H624 528 512v16V480H448V336 320H432 208 192v16V480H128V336 320H112 16 0z"/></svg>