<svg xmlns="http://www.w3.org/2000/svg" viewBox="0 0 640 512"><!--! Font Awesome Pro 6.4.0 by @fontawesome - https://fontawesome.com License - https://fontawesome.com/license (Commercial License) Copyright 2023 Fonticons, Inc. --><path d="M32 32H48h64 32 96 32 96 32 96 32 64 16V64H592 528v64h64 16v32H592 528 496 400 368 272 240 144 112 48 32V128H48h64V64H48 32V32zM384 264.4V288v48c0-35.3-28.7-64-64-64s-64 28.7-64 64V464v16H240 144 128V464 336c0-35.3-28.7-64-64-64H48 32V240H48 64c53 0 96 43 96 96V448h64V336c0-53 43-96 96-96c24.6 0 47 9.2 64 24.4zM400 64v64h96V64H400zm-32 64V64H272v64h96zM144 64v64h96V64H144zM528 224c-26.5 0-48 21.5-48 48v48h96V272c0-26.5-21.5-48-48-48zm-80 48c0-44.2 35.8-80 80-80s80 35.8 80 80v48h32v32V480v32H608 448 416V480 352 320h32V272zm0 80V480H608V352H448z"/></svg>