<svg xmlns="http://www.w3.org/2000/svg" viewBox="0 0 512 512"><!--! Font Awesome Pro 6.4.0 by @fontawesome - https://fontawesome.com License - https://fontawesome.com/license (Commercial License) Copyright 2023 Fonticons, Inc. --><path d="M128 0h16H368h16V16 96h96 32v32V448v32H480 32 0V448 128 96H32h96V16 0zM352 32H160V96H352V32zM32 128V448H480V128H368 144 32zm192 48h64 16v16 48h48 16v16 64 16H352 304v48 16H288 224 208V384 336H160 144V320 256 240h16 48V192 176h16zm16 80v16H224 176v32h48 16v16 48h32V320 304h16 48V272H288 272V256 208H240v48z"/></svg>