<svg xmlns="http://www.w3.org/2000/svg" viewBox="0 0 640 512"><!--! Font Awesome Pro 6.4.0 by @fontawesome - https://fontawesome.com License - https://fontawesome.com/license (Commercial License) Copyright 2023 Fonticons, Inc. --><path d="M32 32H224V64h32V32 0H224 32 0V32 224v32H32h96V224H32V32zM384 480v32h32H608h32V480 288 256H608 512v32h96V480H416V448H384v32zm64-352V384H192V128H448zM192 96H160v32V384v32h32H448h32V384 128 96H448 192zm64 96H384V320H256V192zm-32-32v32V320v32h32H384h32V320 192 160H384 256 224z"/></svg>