<svg xmlns="http://www.w3.org/2000/svg" viewBox="0 0 384 512"><!--! Font Awesome Pro 6.4.0 by @fontawesome - https://fontawesome.com License - https://fontawesome.com/license (Commercial License) Copyright 2023 Fonticons, Inc. --><path d="M352 32H32V48H0V32 0H32 352h32V32 48H352V32zM0 240H32V480h96V400 368h32 64 32v32 80h96V240h32V480v32H352 256 224 160 128 32 0V480 240zM224 480V400H160v80h64zM32 80H48h8 9.9l4.4 8.8L96 140.2V96 80h32V96v96 16H112h-8H94.1l-4.4-8.8L64 147.8V192v16H32V192 96 80zm136 0h48 16v32H216 184v64h16V160 144h32v16 32 16H216 168 152V192 96 80h16zm120 48v32c0 8.8 7.2 16 16 16s16-7.2 16-16V128c0-8.8-7.2-16-16-16s-16 7.2-16 16zm16-48c26.5 0 48 21.5 48 48v32c0 26.5-21.5 48-48 48s-48-21.5-48-48V128c0-26.5 21.5-48 48-48zM288 240h16v16 64 16H288 224 208V320 256 240h16 64zm-48 32v32h32V272H240zM96 240h64 16v16 64 16H160 96 80V320 256 240H96zm16 64h32V272H112v32z"/></svg>