<svg xmlns="http://www.w3.org/2000/svg" viewBox="0 0 576 512"><!--! Font Awesome Pro 6.4.0 by @fontawesome - https://fontawesome.com License - https://fontawesome.com/license (Commercial License) Copyright 2023 Fonticons, Inc. --><path d="M32 32H352V272c0-30.5 12.2-58.2 32-78.4V32 0H352 32 0V32 480v32H32h96 32 64 32 64l0-32H256V400 368H224 160 128v32 80H32V32zM320 240V224H304 240 224v16 64 16h16 64 16V304 288 240zM160 480V400h64v80H160zM64 96v16 64 16H80h64 16V176 112 96H144 80 64zm32 32h32v32H96V128zM240 96H224v16 64 16h16 64 16V176 112 96H304 240zm16 64V128h32v32H256zM64 224v16 64 16H80h64 16V304 240 224H144 80 64zm32 32h32v32H96V256zm160 32V256h32v32H256zm208-64c26.5 0 48 21.5 48 48v48H416V272c0-26.5 21.5-48 48-48zm-80 48v48H352v32V480v32h32H544h32V480 352 320H544V272c0-44.2-35.8-80-80-80s-80 35.8-80 80zm0 80H544V480H384V352z"/></svg>