<svg xmlns="http://www.w3.org/2000/svg" viewBox="0 0 512 512"><!--! Font Awesome Pro 6.4.0 by @fontawesome - https://fontawesome.com License - https://fontawesome.com/license (Commercial License) Copyright 2023 Fonticons, Inc. --><path d="M480 32V480H256V32H480zM256 0H224V32 480v32h32H480h32V480 32 0H480 256zM192 128H176 16 0v16V496v16H16 176h16V480H176 32V160H176h16V128zM80 320H64v16 64 16H80h64 16V400 336 320H144 80zm16 64V352h32v32H96zm224 32h16 64 16V400 336 320H400 336 320v16 64 16zm32-32V352h32v32H352zM80 192H64v16 64 16H80h64 16V272 208 192H144 80zm16 64V224h32v32H96zM320 64V80v64 16h16 64 16V144 80 64H400 336 320zm32 32h32v32H352V96zM336 288h64 16V272 208 192H400 336 320v16 64 16h16zm16-64h32v32H352V224z"/></svg>