<svg xmlns="http://www.w3.org/2000/svg" viewBox="0 0 512 512"><!--! Font Awesome Pro 6.4.0 by @fontawesome - https://fontawesome.com License - https://fontawesome.com/license (Commercial License) Copyright 2023 Fonticons, Inc. --><path d="M418.8 0l6 0L432 0l16 0V16 464v16l-16 0-7.2 0-6 0-4.5-4-62.1-54.5c-44.7-39.2-100.9-62.6-160.2-66.8V496v16H176 80 64V496 352H16 0V336 144 128H16 143.6l44.4-2.5c60.7-3.4 118.5-27 164.2-67.1L414.3 4l4.5-4zM96 352V480h64V352.9l-16.4-.9H96zM416 45L373.3 82.5c-42.4 37.2-94.1 61.7-149.3 71.1V326.4c55.1 9.4 106.9 33.9 149.3 71.1L416 435V45zM192 322.6V157.3c-.8 0-1.5 .1-2.3 .1L144.9 160l-.4 0H144 32V320H144h.4l.4 0 44.8 2.5c.8 0 1.5 .1 2.3 .1zM512 192v16 64 16H480V272 208 192h32z"/></svg>