<svg xmlns="http://www.w3.org/2000/svg" viewBox="0 0 640 512"><!--! Font Awesome Pro 6.4.0 by @fontawesome - https://fontawesome.com License - https://fontawesome.com/license (Commercial License) Copyright 2023 Fonticons, Inc. --><path d="M47.1 192L69.6 480H256v32H40L2.5 32 0 0H32.1 351.9 384l-2.5 32L370.3 174.7c-13.9 4.9-26.2 10.8-37.2 17.3H47.1zm-2.5-32H339.4l10-128H34.6l10 128zM325.5 285.6c-2.4 2.9-4.2 5.3-5.5 7.1v11.1H608V292.7c-1.3-1.8-3.1-4.2-5.5-7.1c-5.6-6.8-14.3-15.9-26.2-25.1c-4.9-3.8-10.3-7.5-16.3-11.1c-.8 8.1-7.6 14.5-15.9 14.5c-8.8 0-16-7.2-16-16c0-4.6 1.9-8.7 5-11.6c-15.7-6.1-33.9-10.5-54.9-11.9c1.2 2.2 1.9 4.8 1.9 7.5c0 8.8-7.2 16-16 16s-16-7.2-16-16c0-2.7 .7-5.3 1.9-7.5c-21 1.4-39.2 5.9-54.9 11.9c3.1 2.9 5 7 5 11.6c0 8.8-7.2 16-16 16c-8.3 0-15.1-6.3-15.9-14.5c-6 3.6-11.4 7.4-16.3 11.1c-11.9 9.2-20.6 18.3-26.2 25.1zm312.2-6l2.3 3.8v4.4 32 16H624 304 288v-16-32-4.4l2.3-3.8 13.7 8.2c-13.7-8.2-13.7-8.2-13.7-8.2l0 0 0 0 .1-.1 .2-.3c.1-.2 .3-.5 .6-.9c.5-.7 1.2-1.8 2-3c1.8-2.5 4.3-6 7.8-10.1c6.9-8.2 17.2-19.1 31.3-29.9c28.3-21.8 71.6-43.3 131.8-43.3s103.5 21.6 131.8 43.3c14.1 10.8 24.4 21.7 31.3 29.9c3.4 4.1 6 7.6 7.8 10.1c.9 1.3 1.6 2.3 2 3c.2 .4 .4 .7 .6 .9l.2 .3 .1 .1 0 0 0 0s0 0-13.7 8.2l13.7-8.2zM288 359.8h16H624h16v32H624 304 288v-32zm0 56h16H624h16v16 64 16H624 304 288v-16-64-16zm32 32v32H608v-32H320z"/></svg>