<svg xmlns="http://www.w3.org/2000/svg" viewBox="0 0 448 512"><!--! Font Awesome Pro 6.4.0 by @fontawesome - https://fontawesome.com License - https://fontawesome.com/license (Commercial License) Copyright 2023 Fonticons, Inc. --><path d="M83.2 70.4C81.1 73.2 80 76.5 80 80c0 8.8 7.2 16 16 16s16-7.2 16-16c0-3.5-1.1-6.8-3.2-9.6L96 53.3 83.2 70.4zM57.6 51.2L76 26.7 96 0l20 26.7 18.4 24.5c6.2 8.3 9.6 18.4 9.6 28.8c0 26.5-21.5 48-48 48s-48-21.5-48-48c0-10.4 3.4-20.5 9.6-28.8zM211.2 70.4c-2.1 2.8-3.2 6.1-3.2 9.6c0 8.8 7.2 16 16 16s16-7.2 16-16c0-3.5-1.1-6.8-3.2-9.6L224 53.3 211.2 70.4zM185.6 51.2L204 26.7 224 0l20 26.7 18.4 24.5c6.2 8.3 9.6 18.4 9.6 28.8c0 26.5-21.5 48-48 48s-48-21.5-48-48c0-10.4 3.4-20.5 9.6-28.8zM352 53.3L339.2 70.4c-2.1 2.8-3.2 6.1-3.2 9.6c0 8.8 7.2 16 16 16s16-7.2 16-16c0-3.5-1.1-6.8-3.2-9.6L352 53.3zM332 26.7L352 0l20 26.7 18.4 24.5c6.2 8.3 9.6 18.4 9.6 28.8c0 26.5-21.5 48-48 48s-48-21.5-48-48c0-10.4 3.4-20.5 9.6-28.8L332 26.7zM32 372.8l57.1-27.2 7-3.4 7 3.5L160 374.1l56.8-28.4 7.2-3.6 7.2 3.6L288 374.1l56.8-28.4 7-3.5 7.1 3.4L416 372.8V256H368v16 16H336V272 256H240v16 16H208V272 256H112v16 16H80V272 256H32V372.8zm0 34.9V480H416V407.7c-1.2-.3-2.5-.7-3.7-1.2l-60.2-28.6-57 28.5-7.2 3.6-7.2-3.6L224 377.9l-56.8 28.4-7.2 3.6-7.2-3.6-57-28.5L35.7 406.4c-1.2 .6-2.4 1-3.7 1.2zM32 224H80V176 160h32v16 48h96V176 160h32v16 48h96V176 160h32v16 48h48 32v32V480v32H416 32 0V480 256 224H32z"/></svg>