<svg xmlns="http://www.w3.org/2000/svg" viewBox="0 0 512 512"><!--! Font Awesome Pro 6.4.0 by @fontawesome - https://fontawesome.com License - https://fontawesome.com/license (Commercial License) Copyright 2023 Fonticons, Inc. --><path d="M296 64L52.3 256H480c0-64-28-112-65-144s-83-48-119-48zM0 272V256.5l12.2-9.6 264-208 8.7-6.9H296c44.3 0 97.6 19.2 139.9 55.8C479.2 125.2 512 181.7 512 256v.7 .7 .7 .7 .7 .7 .7 .7 .7 .7 .7 .7 .7 .7 .7 .7 .7 .7 .7 .7 .7 .6 .1 .7 .7 .7 .7 .7 .7 .7 .7 .7 .7 .7 .7 .7 .7 .7 .7 .7 .7 .7 .7 .7 .7 .7 .7 .7 .7 .7 .7 .7 .7 .7 .7 .7 .7 .7 .7 .7 .7 .6 .6 .6 .6 .6 .6 .6 .6 .6 .6 .6 .6 .6 .6 .6 .6 .6 .6 .6 .6 .6 .6 .6 .6 .6 .6 .6 .6 .6 .6 .6 .6 .6 .6 .6 .6 .6 .6 .6 .6 .6 .6 .6 .6 .6 .6 .6 .6 .6 .6 .6 .6 .6 .6 .6 .6 .6 .6 .6 .6 .6 .6 .6 .6 .5 .5 .5 .5 .5 .5 .5 .5 .5 .5 .5 .5 .5 .5 .5 .5 .5 .5 .5 .5 .5 .5 .5 .5 .5 .5 .5 .5 .5 .5 .5 .5 .5 .5 .5 .5 .5 .5 .5 .5 .5 .5 .5 .5 .5 .5 .5 .5 .5 .5 .5 .5 .5 .5 .5 .5 .5 .5 .5 .5 .5 .5 .5 .1 .4 .5 .5 .4 .5 .4 .4 .4 .4 .4 .4 .4 .4 .4 .4 .4 .4 .4 .4 .4 .4 .4 .4 .4 .4 .4 .4 .4 .4 .4 .4 .4 .4 .4 .4 .4 .4 .4 .4 .4 .4 .4 .4 .4 .4 .4 .4 .4 .4 .4 .4 .4 .4 .4 .4 .4 .4 .4 .4 .4 .4 .4 .4 .4 .4 .4 .4 .4 .4 .4 .4 .4 .4 .4 .4 .4 .3 .3 .3 .3 .3 .3 .3 .3 .3 .3 .3 .3 .3 .3 .3 .3 .3 .3 .3 .3 .3 .3 .3 .3 .3 .3 .3 .3 .3 .3 .3 .3 .3 .3 .3 .3 .3 .3 .3 .3 .3 .3 .3 .3 .3 .3 .3 .3 .3 .3 .3 .3 .3 .3 .3 .3 .3 .3 .3 .3 .3 .3 .3 .3 .3 .3 .3 .3 .3 .3 .3 .3 .3 .3 .3 .3 .2 .3 .2 .2 .2 .2 .2 .2 .2 .2 .2 .2 .2 .2 .2 .2 .2 .2 .2 .2 .2 .2 .2 .2 .2 .2 .2 .2 .2 .2 .2 .2 .2 .2 .2 .2 .2 .2 .2 .2 .2 .2 .2 .2 .2 .2 .2 .2 .2 .2 .2 .2 .2 .2 .2 .2 .2 .2 .2 .2 .2 .2 .2 .2 .2 .2 .2 .2 .2 .2 .2 .2 .2 .2 .2 .2 .2 .2 .2 .2 .2 .2 .2 .2 .2 .2 .2 .2 .2 .1 .1 .1 .1 .1 .1 .1 .1 .1 .1 .1 .1 .1 .1 .1 .1 .1 .1 .1 .1 .1 .1 .1 .1 .1 .1 .1 .1 .1 .1 .1 .1 .1 .1 .1 .1 .1 .1 .1 .1 .1 .1 .1 .1 .1 .1 .1 .1 .1 .1 .1 .1 .1 .1 .1 .1 .1 .1 .1 .1 .1 .1 .1 .1 .1 .1 .1 .1 .1 .1 .1 .1 .1 .1 .1 .1 .1 .1 .1 .1 .1 .1 .1 .1 32H480 32 0V448 368 272zm32 80H480v-.4-.5-.5-.5-.5-.5-.5V348v-.5V347v-.5V346v-.5-.5-.5-.5-.5-.5-.5-.5-.5-.5-.5-.5V339v-.5V338v-.5-.5-.5-.6-.6-.6-.6-.6V333v-.6-.6-.6-.6-.6-.6V329v-.6-.6-.6-.6-.6-.6V325v-.6-.6-.6-.6-.6-.6-.6-.6-.6-.6-.6V318v-.6-.6-.6-.6-.6-.6-.6-.6-.6-.6-.6-.6V310v-.6-.6-.6-.6-.6-.6-.6V305v-.6-.6-.6-.6-.6-.6-.6-.6-.6-.6V298v-.7-.7V296v-.7-.7V294v-.7-.7-.7-.7-.7-.7-.7-.7V288v0H32v64zm0 32v64H480v-.1-.1-.1-.1-.1-.1-.1-.1-.1-.1-.1-.1-.1V447 447v-.1-.1-.1-.1-.1-.1-.1-.1-.1-.1V446 446v-.1-.1-.1-.1-.1-.1-.1-.1-.1V445v-.1-.1-.1-.1-.1-.1-.1-.1-.1V444v-.1-.1-.1-.1-.1-.1-.1V443v-.1-.1-.1-.1-.1-.1-.1-.1-.1-.1-.1-.1-.1-.1-.1V441v-.1-.1-.1-.1-.1-.1V440v-.1-.1-.1-.1-.1-.1V439v-.2-.2-.2-.2-.2-.2-.2-.2-.2-.2-.2-.2V437v-.2-.2-.2-.2-.2V436v-.2-.2-.2-.2-.2-.2-.2-.2-.2-.2V434v-.2-.2-.2-.2-.2-.2-.2-.2-.2-.2-.2-.2-.2-.2-.2-.2-.2-.2-.2-.2-.2-.2-.2-.2V429v-.2-.2-.2-.2-.2-.2-.2-.2-.2-.2-.2-.2-.2-.2-.2-.2-.2V425v-.2-.2-.2V424v-.2-.2-.2-.2-.2-.2-.2-.2-.2-.3-.2-.3-.3-.3-.3-.3-.3-.3-.3V419v-.3-.3-.3-.3-.3-.3-.3-.3-.3-.3V416v-.3-.3-.3-.3-.3-.3-.3-.3-.3-.3-.3-.3-.3V412v-.3-.3-.3-.3-.3-.3-.3-.3-.3V409v-.3-.3-.3-.3-.3-.3-.3-.3-.3-.3-.3-.3-.3-.3-.3-.3-.3-.3-.3-.3-.3-.3-.3-.3-.3-.3-.3-.3-.3-.3-.3-.3-.4-.4-.4-.4-.4-.4V396v-.4-.4-.4-.4-.4-.4-.4-.4-.4-.4V392v-.4-.4-.4-.4-.4-.4-.4-.4-.4-.4-.4-.4V387v-.4-.4-.4-.4V385v-.4-.4V384H32z"/></svg>