<svg xmlns="http://www.w3.org/2000/svg" viewBox="0 0 512 512"><!--! Font Awesome Pro 6.4.0 by @fontawesome - https://fontawesome.com License - https://fontawesome.com/license (Commercial License) Copyright 2023 Fonticons, Inc. --><path d="M160 0V16 64H352V16 0h32V16 64h64 32V96v64 32V480v32H448 64 32V480 192 160 96 64H64h64V16 0h32zM448 192H64V480H448V192zm0-96H64v64H448V96zM312.1 209.4l11.3 11.3 47.9 47.9 11.3 11.3-11.3 11.3L233.4 429.1l-3.3 3.3-4.5 1-62.1 14.2-24.9 5.7 5.7-24.9 14.2-62.1 1-4.5 3.3-3.3L300.8 220.7l11.3-11.3zM188.8 377.9l-7.5 32.7 32.7-7.5 83.2-83.2-25.2-25.2-83.2 83.2zM294.7 272.1l25.2 25.2 17.4-17.4-25.2-25.2-17.4 17.4z"/></svg>