<svg xmlns="http://www.w3.org/2000/svg" viewBox="0 0 448 512"><!--! Font Awesome Pro 6.4.0 by @fontawesome - https://fontawesome.com License - https://fontawesome.com/license (Commercial License) Copyright 2023 Fonticons, Inc. --><path d="M128 0V16 64H320V16 0h32V16 64h64 32V96v64 32V480v32H416 32 0V480 192 160 96 64H32 96V16 0h32zM416 192H312v72H416V192zm0 104H312v80H416V296zm0 112H312v72H416V408zM280 376V296H168v80H280zM168 408v72H280V408H168zm-32-32V296H32v80H136zM32 408v72H136V408H32zm0-144H136V192H32v72zm136 0H280V192H168v72zM416 96H32v64H416V96z"/></svg>