<svg xmlns="http://www.w3.org/2000/svg" viewBox="0 0 576 512"><!--! Font Awesome Pro 6.4.0 by @fontawesome - https://fontawesome.com License - https://fontawesome.com/license (Commercial License) Copyright 2023 Fonticons, Inc. --><path d="M128 16V0H96V16 64H32 0V96v64 32V480v32H32 253.4l4.6-32H32V192H384h32 32V160 96 64H416 352V16 0H320V16 64H128V16zM32 96H416v64H32V96zm80 256H96v32h16H240h16V352H240 112zM96 256v32h16H336h16V256H336 112 96zm393.3 13.3l41.5 41.5L508 333.5 466.5 292l22.8-22.8zM334 424.5L443.9 314.6l41.5 41.5L375.5 466l-49.1 7.7 7.7-49.1zM553.4 288.1L489.3 224 304 409.3l-10.8 69.5L288 512l33.2-5.2L390.7 496 553.4 333.3 576 310.7l-22.6-22.6z"/></svg>