<svg xmlns="http://www.w3.org/2000/svg" viewBox="0 0 512 512"><!--! Font Awesome Pro 6.4.0 by @fontawesome - https://fontawesome.com License - https://fontawesome.com/license (Commercial License) Copyright 2023 Fonticons, Inc. --><path d="M160 16V0H128V16 64H64 32V96v64 32V480v32H64 448h32V480 192 160 96 64H448 384V16 0H352V16 64H160V16zM64 192H448V480H64V192zm0-96H448v64H64V96zM270.4 240.9L256 211.7l-14.4 29.2-23.5 47.7-52.5 7.7-32 4.7 23.1 22.6 38 37.2-9 52.5-5.5 32 28.7-15.1L256 405.4l46.9 24.8 28.7 15.1-5.5-32-9-52.5 38-37.2L378.3 301l-32-4.7-52.5-7.7-23.5-47.7zm-27.2 69.4L256 284.3l12.8 26.1 3.7 7.6 8.3 1.2 28.8 4.2-20.9 20.4-6 5.9 1.4 8.3 4.9 28.8-25.7-13.6-7.5-3.9-7.5 3.9-25.7 13.6 4.9-28.8 1.4-8.3-6-5.9-20.9-20.4 28.8-4.2 8.3-1.2 3.7-7.6z"/></svg>