<svg xmlns="http://www.w3.org/2000/svg" viewBox="0 0 448 512"><!--! Font Awesome Pro 6.4.0 by @fontawesome - https://fontawesome.com License - https://fontawesome.com/license (Commercial License) Copyright 2023 Fonticons, Inc. --><path d="M128 0V16 64H320V16 0h32V16 64h64 32V96v64 32V480v32H416 32 0V480 192 160 96 64H32 96V16 0h32zM416 192H32V480H416V192zm0-96H32v64H416V96zM250.9 252.1l13.3 18.6L373 422.7 391.1 448H360 88 57.2l17.7-25.2 68-96.7 11-15.7L167.4 324l20.3 20.7L238 271l12.9-18.9zm.6 55.9l-48.3 70.9-11 16.1L178.6 381l-20.5-20.9L118.8 416H328.9L251.5 307.9zM96 232a24 24 0 1 1 0 48 24 24 0 1 1 0-48z"/></svg>