<svg xmlns="http://www.w3.org/2000/svg" viewBox="0 0 640 512"><!--! Font Awesome Pro 6.4.0 by @fontawesome - https://fontawesome.com License - https://fontawesome.com/license (Commercial License) Copyright 2023 Fonticons, Inc. --><path d="M544 224C544 100.3 443.7 0 320 0C262.8 0 210.5 21.5 170.9 56.8L196.5 77C229.9 48.9 273 32 320 32c106 0 192 86 192 192c0 30.9-7.3 60.1-20.3 86l25.6 20.2C534.3 298.6 544 262.4 544 224zM398.3 399.4C374.4 410.1 347.9 416 320 416c-106 0-192-86-192-192c0-12.1 1.1-24 3.3-35.5l-27.8-22C98.6 184.9 96 204.1 96 224c0 76.4 38.3 143.9 96.7 184.3L136.9 480 112 512h40.5H487.5 528l-20.7-26.6-6.9-5.4H462.6l0 0H177.4l43-55.3c30 14.9 63.8 23.3 99.6 23.3s69.6-8.4 99.6-23.3l1.6 2.1 5.2-5.2-28.1-22.2zM176 224c0 79.5 64.5 144 144 144c11.6 0 22.8-1.4 33.6-3.9L318 336c-51.4-.9-94.3-36.3-106.5-84.1l-35.5-28 0 .1zm256 0c0 12.1-1.9 23.7-5.4 34.6l26.4 20.8c7.1-17.1 11.1-35.8 11.1-55.4c0-79.5-64.5-144-144-144c-31.7 0-61 10.2-84.7 27.6l26.4 20.8c17-10.4 37-16.4 58.4-16.4c61.9 0 112 50.1 112 112zM40.4 18L27.8 8.1 8.1 33.4l12.6 9.8L599.8 494.3l12.6 9.8 19.7-25.2L619.5 469 40.4 18z"/></svg>