<svg xmlns="http://www.w3.org/2000/svg" viewBox="0 0 512 512"><!--! Font Awesome Pro 6.4.0 by @fontawesome - https://fontawesome.com License - https://fontawesome.com/license (Commercial License) Copyright 2023 Fonticons, Inc. --><path d="M192 112H32V224H145.1c22.1-38.3 63.5-64 110.9-64s88.7 25.7 110.9 64H480V64H266.7l-55.5 41.6c-5.5 4.2-12.3 6.4-19.2 6.4zM32 256V448H480V256H380c2.6 10.2 4 21 4 32c0 70.7-57.3 128-128 128s-128-57.3-128-128c0-11 1.4-21.8 4-32H32zM192 80l64-48H480h32V64 448v32H480 32 0V448 112 80H32 192zM352 288a96 96 0 1 0 -192 0 96 96 0 1 0 192 0zM64 32h96V64H64V32z"/></svg>