<svg xmlns="http://www.w3.org/2000/svg" viewBox="0 0 512 512"><!--! Font Awesome Pro 6.4.0 by @fontawesome - https://fontawesome.com License - https://fontawesome.com/license (Commercial License) Copyright 2023 Fonticons, Inc. --><path d="M285.4 102.8l22.2-25.4c2.1-2.4 4.1-4.6 6-6.7c6.2 6.8 13.2 14.9 20.2 24c21.2 27.5 37.1 57.1 37.1 80.1C370.9 239.2 319.2 291 256 291s-114.9-51.8-114.9-116.4c0-13.4 4.9-29.5 14.5-47.4c9.5-17.7 22.5-35.2 36.1-51.1c12.7-14.8 25.5-27.7 35.5-37.1c10.2 9.6 23.3 22.8 36.3 38l21.9 25.7zM227.2 .1s-115.2 94.2-115.2 174.5s64.5 145.5 144 145.5s144-65.1 144-145.5c0-66.9-86.4-145.5-86.4-145.5s-3 2.8-8 7.7c-5.1 5.1-12.1 12.4-20 21.4C279 50.5 272.3 43.2 266 36.6C244.7 14.4 227.2 .1 227.2 .1zm.6 90.6l-12.5 15.6c-12.1 15-22 27.8-28.8 39.6c-7 12.1-11.3 24.1-11.3 37.6c0 24.2 8.9 44.5 24.4 58.7c15.2 14 35.8 21.1 57.5 21.1c17.9 0 34-5.1 48.7-15l0 0 .3-.2c31.6-22.3 39.1-65.7 21.2-99l0-.1c-1.6-3.1-3.7-7.5-7-12l-9.5-12.8-12.8 9.5-23.7 17.6L263.4 137c-10.3-13.7-21.3-28.3-23.1-30.6L227.8 90.7zm74.1 79.9c7 19.1 1 40.4-14.2 51.2c-9.6 6.4-19.5 9.5-30.7 9.5c-14.9 0-27.3-4.8-35.8-12.6c-8.3-7.7-14-19.3-14-35.2c0-6.1 1.8-12.6 7-21.5c3.3-5.7 7.6-11.9 13.3-19.4l10.3 13.7c5.2 6.9 10.3 13.7 14.1 18.8l4.6 6.1 1.3 1.7 .3 .4 .1 .1 0 0 0 0 0 0 12.8-9.6-12.8 9.6 9.6 12.8 12.8-9.5 21.5-16zM37.9 295.5l-14.9-5.9L11.2 319.3l14.9 5.9L212.9 400 26.1 474.7l-14.9 5.9 11.9 29.7 14.9-5.9L256 417.2l218.1 87.2 14.9 5.9 11.9-29.7-14.9-5.9L299.1 400l186.9-74.7 14.9-5.9-11.9-29.7-14.9 5.9L256 382.8 37.9 295.5z"/></svg>