<svg xmlns="http://www.w3.org/2000/svg" viewBox="0 0 640 512"><!--! Font Awesome Pro 6.4.0 by @fontawesome - https://fontawesome.com License - https://fontawesome.com/license (Commercial License) Copyright 2023 Fonticons, Inc. --><path d="M159.2 64h11.3H320h16 16H608h32V96 416v32H608 352 336 320 16 0V432 234.5 223.2l10.7-3.8C41.8 208.5 64 178.8 64 144V128H80c34.8 0 64.5-22.2 75.5-53.3L159.2 64zM192 96v96H320V96H192zm-32 30.4c-17 17.4-39.7 29.2-65 32.6c-1.6 11.7-4.9 22.8-9.8 33H160V126.4zm-96 96c-9.2 9.4-20 17.1-32 22.8V320H160V224H64v-1.6zM32 352v64H160V352H32zm160 64H320V352H192v64zm128-96V224H192v96H320zm32 96H608V96H352V416z"/></svg>