<svg xmlns="http://www.w3.org/2000/svg" viewBox="0 0 512 512"><!--! Font Awesome Pro 6.4.0 by @fontawesome - https://fontawesome.com License - https://fontawesome.com/license (Commercial License) Copyright 2023 Fonticons, Inc. --><path d="M256 32C132.3 32 32 132.3 32 256V496v16H0V496 256C0 114.6 114.6 0 256 0S512 114.6 512 256V496v16H480V496 256C480 132.3 379.7 32 256 32zM175.1 224H336.9h11.6l3.6 11.1L379.6 320H400h16v16V496v16H384V496 480H128v16 16H96V496 336 320h16 20.4l27.5-84.9 3.6-11.1h11.6zM384 448V352H128v96H384zM346 320l-20.7-64H186.7L166 320H346zM160 400a24 24 0 1 1 48 0 24 24 0 1 1 -48 0zm168-24a24 24 0 1 1 0 48 24 24 0 1 1 0-48z"/></svg>