<svg xmlns="http://www.w3.org/2000/svg" viewBox="0 0 640 512"><!--! Font Awesome Pro 6.4.0 by @fontawesome - https://fontawesome.com License - https://fontawesome.com/license (Commercial License) Copyright 2023 Fonticons, Inc. --><path d="M128 32H117.2l-4 10.1L53.2 192H32 0v32V368v32H32 65.3c7.6 45.4 47.1 80 94.7 80s87.1-34.6 94.7-80H385.3c7.6 45.4 47.1 80 94.7 80s87.1-34.6 94.7-80H608h32V368 224 192H608 519.7L396.5 38l-4.8-6H384 128zM542 400c-7.1 27.6-32.2 48-62 48s-54.9-20.4-62-48c-1.3-5.1-2-10.5-2-16s.7-10.9 2-16c7.1-27.6 32.2-48 62-48s54.9 20.4 62 48c1.3 5.1 2 10.5 2 16s-.7 10.9-2 16zM385.3 368H254.7c-7.6-45.4-47.1-80-94.7-80s-87.1 34.6-94.7 80H32V224H160V192H87.6L138.8 64H376.3L478.7 192H448v32H608V368H574.7c-7.6-45.4-47.1-80-94.7-80s-87.1 34.6-94.7 80zM160 448c-29.8 0-54.9-20.4-62-48c-1.3-5.1-2-10.5-2-16s.7-10.9 2-16c7.1-27.6 32.2-48 62-48s54.9 20.4 62 48c1.3 5.1 2 10.5 2 16s-.7 10.9-2 16c-7.1 27.6-32.2 48-62 48zM331.3 139.3L342.6 128 320 105.4l-11.3 11.3-80 80L201.4 224H240h89.4l-52.7 52.7L265.4 288 288 310.6l11.3-11.3 80-80L406.6 192H368 278.6l52.7-52.7z"/></svg>