<svg xmlns="http://www.w3.org/2000/svg" viewBox="0 0 640 512"><!--! Font Awesome Pro 6.4.0 by @fontawesome - https://fontawesome.com License - https://fontawesome.com/license (Commercial License) Copyright 2023 Fonticons, Inc. --><path d="M32 96H192 352V84.3C341.3 68.5 297.3 32 192 32S42.7 68.5 32 84.3V96zm0 32v96H176V128H32zm0 128V384H224v32H64v48 16H32V464 416H16 0V400 80 76.2l1.7-3.4C16.2 43.8 73.8 0 192 0S367.8 43.8 382.3 72.8l1.7 3.4V80v64H352V128H208v96h76.9l-9.1 32H224 192 32zm72 32a24 24 0 1 1 0 48 24 24 0 1 1 0-48zM331.9 176H344 552h12.1l3.3 11.6L596.1 288H608h32v32 96 16 32 48H608V464H288v48H256V464 432 416 320 288h32 11.9l28.7-100.4 3.3-11.6zM608 320H584.4c-.2 0-.5 0-.7 0H312.4c-.2 0-.5 0-.7 0H288v96 16H608V416 320zM539.9 208H356.1l-22.9 80H562.8l-22.9-80zM336 352a24 24 0 1 1 0 48 24 24 0 1 1 0-48zm200 24a24 24 0 1 1 48 0 24 24 0 1 1 -48 0z"/></svg>