<svg xmlns="http://www.w3.org/2000/svg" viewBox="0 0 640 512"><!--! Font Awesome Pro 6.4.0 by @fontawesome - https://fontawesome.com License - https://fontawesome.com/license (Commercial License) Copyright 2023 Fonticons, Inc. --><path d="M117.2 32H128 384h7.7l4.8 6L519.7 192H608h32v32V368v32H608 574.7c-7.6 45.4-47.1 80-94.7 80s-87.1-34.6-94.7-80H254.7c-7.6 45.4-47.1 80-94.7 80s-87.1-34.6-94.7-80H32 0V368 224 192H32 53.2l60-149.9 4-10.1zM418 368c-1.3 5.1-2 10.5-2 16s.7 10.9 2 16c7.1 27.6 32.2 48 62 48s54.9-20.4 62-48c1.3-5.1 2-10.5 2-16s-.7-10.9-2-16c-7.1-27.6-32.2-48-62-48s-54.9 20.4-62 48zm156.7 0H608V224H32V368H65.3c7.6-45.4 47.1-80 94.7-80s87.1 34.6 94.7 80H385.3c7.6-45.4 47.1-80 94.7-80s87.1 34.6 94.7 80zM96 384c0 5.5 .7 10.9 2 16c7.1 27.6 32.2 48 62 48s54.9-20.4 62-48c1.3-5.1 2-10.5 2-16s-.7-10.9-2-16c-7.1-27.6-32.2-48-62-48s-54.9 20.4-62 48c-1.3 5.1-2 10.5-2 16zM87.6 192H224V176 80 64H138.8L87.6 192zM256 192H478.7L376.3 64H256V80v96 16z"/></svg>