<svg xmlns="http://www.w3.org/2000/svg" viewBox="0 0 512 512"><!--! Font Awesome Pro 6.4.0 by @fontawesome - https://fontawesome.com License - https://fontawesome.com/license (Commercial License) Copyright 2023 Fonticons, Inc. --><path d="M100.1 32H112 400h11.9l3.4 11.4L459.9 192H480h32v32 64 32 64 32H480v64H448V416H352 320 192 160 64v64H32V416H0V384 320 288 224 192H32 52.1L96.7 43.4 100.1 32zM32 320v64H160V336 320h16H336h16v16 48H480V320H432 416V288h16 48V224H32v64H80 96v32H80 32zm160 64H320V352H192v32zM388.1 64H123.9L85.5 192h341L388.1 64z"/></svg>