<svg xmlns="http://www.w3.org/2000/svg" viewBox="0 0 512 512"><!--! Font Awesome Pro 6.4.0 by @fontawesome - https://fontawesome.com License - https://fontawesome.com/license (Commercial License) Copyright 2023 Fonticons, Inc. --><path d="M88 40C62.6 40 41.2 56.9 34.3 80H80 96v32H80 34.3c6.9 23.1 28.3 40 53.7 40c22 0 41-12.6 50.2-31.1l4.4-8.9h9.9 207 9.9l4.4 8.9C383 139.4 402 152 424 152c25.4 0 46.8-16.9 53.7-40H432 416V80h16 45.7c-6.9-23.1-28.3-40-53.7-40c-22 0-41 12.6-50.2 31.1L369.4 80h-9.9-207-9.9l-4.4-8.9C129 52.6 110 40 88 40zM0 96C0 47.4 39.4 8 88 8c30.9 0 58.1 15.9 73.8 40H350.2C365.9 23.9 393.1 8 424 8c48.6 0 88 39.4 88 88s-39.4 88-88 88c-30.9 0-58.1-15.9-73.8-40H161.8c-15.7 24.1-42.9 40-73.8 40C39.4 184 0 144.6 0 96zm166.1 80H176 336h9.9l4.4 8.8L401.9 288H416h32v32 96 16 32 48H416V464H96v48H64V464 432 416 320 288H96h14.1l51.6-103.2 4.4-8.8zM416 320H392.3c-.2 0-.4 0-.7 0H120.3c-.2 0-.4 0-.7 0H96v96 16H416V416 320zM326.1 208H185.9l-40 80H366.1l-40-80zM144 352a24 24 0 1 1 0 48 24 24 0 1 1 0-48zm200 24a24 24 0 1 1 48 0 24 24 0 1 1 -48 0z"/></svg>