<svg xmlns="http://www.w3.org/2000/svg" viewBox="0 0 576 512"><!--! Font Awesome Pro 6.4.0 by @fontawesome - https://fontawesome.com License - https://fontawesome.com/license (Commercial License) Copyright 2023 Fonticons, Inc. --><path d="M132.1 32H144 432h11.9l3.4 11.4L491.9 192H512h32 16 16v32H560 544V384v16 16 64H512V416H64v64H32V416 400 384 224H16 0V192H16 32 64 84.1L128.7 43.4 132.1 32zM112 224H96 64V384H512V224H480 464 112zM420.1 64H155.9L117.5 192h341L420.1 64zM112 296a24 24 0 1 1 48 0 24 24 0 1 1 -48 0zm328-24a24 24 0 1 1 0 48 24 24 0 1 1 0-48z"/></svg>