<svg xmlns="http://www.w3.org/2000/svg" viewBox="0 0 512 512"><!--! Font Awesome Pro 6.4.0 by @fontawesome - https://fontawesome.com License - https://fontawesome.com/license (Commercial License) Copyright 2023 Fonticons, Inc. --><path d="M112 32H100.1L96.7 43.4 52.1 192H32 0v32V384v16 16 64H32V416H480v64h32V416 400 384 224 192H480 459.9L415.3 43.4 411.9 32H400 112zM426.5 192H85.5L123.9 64H388.1l38.4 128zM480 224V384H32V224H480zM104 320a24 24 0 1 0 0-48 24 24 0 1 0 0 48zm328-24a24 24 0 1 0 -48 0 24 24 0 1 0 48 0z"/></svg>