<svg xmlns="http://www.w3.org/2000/svg" viewBox="0 0 640 512"><!--! Font Awesome Pro 6.4.0 by @fontawesome - https://fontawesome.com License - https://fontawesome.com/license (Commercial License) Copyright 2023 Fonticons, Inc. --><path d="M416 64c70.7 0 128 57.3 128 128V384H480V160 128H448 352 320v32V384H282.5c-13.2-37.3-48.7-64-90.5-64s-77.4 26.7-90.5 64H32V64H416zM32 416H96c0 53 43 96 96 96s96-43 96-96h32 32 96 32 64 32l48 0h16V384H624l-48 0V192c0-88.4-71.6-160-160-160H32 0V64 384v32H32zM448 224H416 400v32h16 32V384H352V160h96v64zM128 160H256v64H128V160zM96 128v32 64 32h32H256h32V224 160 128H256 128 96zm96 224a64 64 0 1 1 0 128 64 64 0 1 1 0-128z"/></svg>