<svg xmlns="http://www.w3.org/2000/svg" viewBox="0 0 576 512"><!--! Font Awesome Pro 6.4.0 by @fontawesome - https://fontawesome.com License - https://fontawesome.com/license (Commercial License) Copyright 2023 Fonticons, Inc. --><path d="M16 0H0V32H16 67.2l77.2 339.5 2.8 12.5H160 496h16V352H496 172.8l-14.5-64H488h12l3.4-11.5L575.3 32H541.9L476 256H151L95.6 12.5 92.8 0H80 16zM160 456a24 24 0 1 1 48 0 24 24 0 1 1 -48 0zm80 0a56 56 0 1 0 -112 0 56 56 0 1 0 112 0zm216-24a24 24 0 1 1 0 48 24 24 0 1 1 0-48zm0 80a56 56 0 1 0 0-112 56 56 0 1 0 0 112zM240 112v32h16 48v48 16h32V192 144h48 16V112H384 336V64 48H304V64v48H256 240z"/></svg>