<svg xmlns="http://www.w3.org/2000/svg" viewBox="0 0 576 512"><!--! Font Awesome Pro 6.4.0 by @fontawesome - https://fontawesome.com License - https://fontawesome.com/license (Commercial License) Copyright 2023 Fonticons, Inc. --><path d="M16 0H0V32H16 67.2l77.2 339.5 2.8 12.5H160 496h16V352H496 172.8l-14.5-64H496L566 64l10-32H542.5 100L95.6 12.5 92.8 0H80 16zm91.3 64H532.5l-60 192H151L107.3 64zM184 432a24 24 0 1 1 0 48 24 24 0 1 1 0-48zm0 80a56 56 0 1 0 0-112 56 56 0 1 0 0 112zm248-56a24 24 0 1 1 48 0 24 24 0 1 1 -48 0zm80 0a56 56 0 1 0 -112 0 56 56 0 1 0 112 0z"/></svg>