<svg xmlns="http://www.w3.org/2000/svg" viewBox="0 0 576 512"><!--! Font Awesome Pro 6.4.0 by @fontawesome - https://fontawesome.com License - https://fontawesome.com/license (Commercial License) Copyright 2023 Fonticons, Inc. --><path d="M0 0H16 80 92.8l2.8 12.5L151 256H476L541.9 32h33.4L503.4 276.5 500 288H488 158.2l14.5 64H496h16v32H496 160 147.2l-2.8-12.5L67.2 32H16 0V0zM184 480a24 24 0 1 0 0-48 24 24 0 1 0 0 48zm0-80a56 56 0 1 1 0 112 56 56 0 1 1 0-112zm296 56a24 24 0 1 0 -48 0 24 24 0 1 0 48 0zm-80 0a56 56 0 1 1 112 0 56 56 0 1 1 -112 0zM336 16l0 137.4 36.7-36.7L384 105.4 406.6 128l-11.3 11.3-64 64L320 214.6l-11.3-11.3-64-64L233.4 128 256 105.4l11.3 11.3L304 153.4 304 16V0h32V16z"/></svg>