<svg xmlns="http://www.w3.org/2000/svg" viewBox="0 0 576 512"><!--! Font Awesome Pro 6.4.0 by @fontawesome - https://fontawesome.com License - https://fontawesome.com/license (Commercial License) Copyright 2023 Fonticons, Inc. --><path d="M544 64V448H478.1L447 362.5 443.2 352H432 144 132.8L129 362.5 97.9 448H32V64H544zM444.1 448H131.9l23.3-64H420.8l23.3 64zM32 32H0V64 448v32H32 544h32V448 64 32H544 32zM160 192a32 32 0 1 1 0 64 32 32 0 1 1 0-64zm55.4 64c5.4-9.4 8.6-20.3 8.6-32s-3.1-22.6-8.6-32H360.6c-5.4 9.4-8.6 20.3-8.6 32s3.1 22.6 8.6 32H215.4zM160 288H416c35.3 0 64-28.7 64-64s-28.7-64-64-64H160c-35.3 0-64 28.7-64 64s28.7 64 64 64zm256-96a32 32 0 1 1 0 64 32 32 0 1 1 0-64z"/></svg>