<svg xmlns="http://www.w3.org/2000/svg" viewBox="0 0 640 512"><!--! Font Awesome Pro 6.4.0 by @fontawesome - https://fontawesome.com License - https://fontawesome.com/license (Commercial License) Copyright 2023 Fonticons, Inc. --><path d="M192 32V96h64V32H192zM160 0h32 64 32V32 96v21.3L314.7 194c6.9-1.3 14-2 21.3-2c31.7 0 60.2 13.1 80.6 34.2L512 157.6V96 64h32 64 32V96v64 32H608 544 518.9l-83.6 60.2c8.1 15.5 12.7 33.1 12.7 51.8c0 12.3-2 24.2-5.7 35.3L531.8 384H544h64 32v32 64 32H608 544 512V480 416v-6.1l-84-42C407.8 397 374.1 416 336 416c-56.4 0-103.1-41.7-110.9-96H128v16 32H96 32 0V336 272 240H32 96h32v32 16h97.1c5.2-36.4 27.9-67.2 59.3-83.5L257.8 128H256 192 160V96 32 0zM336 384a80 80 0 1 0 0-160 80 80 0 1 0 0 160zM96 272H32v64H96V272zM608 96H544v64h64V96zM544 416v64h64V416H544z"/></svg>