<svg xmlns="http://www.w3.org/2000/svg" viewBox="0 0 576 512"><!--! Font Awesome Pro 6.4.0 by @fontawesome - https://fontawesome.com License - https://fontawesome.com/license (Commercial License) Copyright 2023 Fonticons, Inc. --><path d="M288 32V480H64V32H288zM32 32V480L0 480v32H32 64 288h32 32V480l-32 0V288h16c26.5 0 48 21.5 48 48v48c0 35.3 28.7 64 64 64s64-28.7 64-64V270.4c36.5-7.4 64-39.7 64-78.4V144 128H560 544V80 64H512V80v48H480V80 64H448V80v48H432 416v16 48c0 38.7 27.5 71 64 78.4V384c0 17.7-14.3 32-32 32s-32-14.3-32-32V336c0-44.2-35.8-80-80-80H320V32 0H288 64 32V32zM512 160h32v32c0 26.5-21.5 48-48 48s-48-21.5-48-48V160h32 32zM204.8 121.6l9.6-12.8L188.8 89.6l-9.6 12.8-72 96L88 224h32 80l-52.8 70.4-9.6 12.8 25.6 19.2 9.6-12.8 72-96L264 192H232 152l52.8-70.4z"/></svg>