<svg xmlns="http://www.w3.org/2000/svg" viewBox="0 0 576 512"><!--! Font Awesome Pro 6.4.0 by @fontawesome - https://fontawesome.com License - https://fontawesome.com/license (Commercial License) Copyright 2023 Fonticons, Inc. --><path d="M128 64V384H448V64H128zm352 0V384h16 16v32H496 480 448 128 96 80 64V384H80 96V64 32h32H448h32V64zM32 320H64v32H32v96H544V352H512V320h32 32v32 96 32H544 32 0V448 352 320H32zM379.3 174L272.6 280.6 261.3 292 250 280.6l-53.3-53.3L185.4 216 208 193.4l11.3 11.3 42 42 95.4-95.4L368 140l22.6 22.6L379.3 174z"/></svg>