<svg xmlns="http://www.w3.org/2000/svg" viewBox="0 0 448 512"><!--! Font Awesome Pro 6.4.0 by @fontawesome - https://fontawesome.com License - https://fontawesome.com/license (Commercial License) Copyright 2023 Fonticons, Inc. --><path d="M240 16V0H208V16 48H168 152V80h16 40v48H32 0v32 40L66.1 352H101L32 193.3V160H208h32H416v33.3L347 352h34.9L448 200V160 128H416 240V80h40 16V48H280 240V16zM64 470.5L97.8 416H350.2L384 470.5V480H64v-9.5zM80 384L32 461.3V480v32H64 384h32V480 461.3L368 384H80z"/></svg>