<svg xmlns="http://www.w3.org/2000/svg" viewBox="0 0 448 512"><!--! Font Awesome Pro 6.4.0 by @fontawesome - https://fontawesome.com License - https://fontawesome.com/license (Commercial License) Copyright 2023 Fonticons, Inc. --><path d="M80 0H64V16 48v9.9l8.8 4.4L85 68.4 68.7 84.7 64 89.4 64 96l-.4 159.6 0 8.3 6.7 4.8L98.9 289 71.4 306.5 64 311.2l0 8.8 0 32H96l0-23.2L264.6 221.5l13.5-8.6-17.2-27-13.5 8.6L128 270.5 95.6 247.4 96 102.6l27.3-27.3L139 59.6l-19.9-9.9L96 38.1V32H230.6C315.3 32 384 100.7 384 185.4c0 8.8-.8 17.6-2.3 26.3L357.3 352h32.5l23.5-134.9c1.8-10.5 2.7-21.1 2.7-31.8C416 83 333 0 230.6 0H80zM48 470.5L81.8 416H366.2L400 470.5V480H48v-9.5zM64 384L16 461.3V480v32H48 400h32V480 461.3L384 384H64zm84-216a20 20 0 1 0 0-40 20 20 0 1 0 0 40z"/></svg>