<svg xmlns="http://www.w3.org/2000/svg" viewBox="0 0 448 512"><!--! Font Awesome Pro 6.4.0 by @fontawesome - https://fontawesome.com License - https://fontawesome.com/license (Commercial License) Copyright 2023 Fonticons, Inc. --><path d="M32 64V448H416V64H32zM0 32H32 416h32V64 448v32H416 32 0V448 64 32zM80 96h72 72 72 72 16v16 72 72 72 72 16H368 296 224 152 80 64V400 328 256 184 112 96H80zm16 72h40V128H96v40zm72 0h40V128H168v40zm72 0h40V128H240v40zm72 0h40V128H312v40zm0 32v40h40V200H312zm0 72v40h40V272H312zm0 72v40h40V344H312zm-32 0H240v40h40V344zm-72 0H168v40h40V344zm-72 0H96v40h40V344zm0-32V272H96v40h40zm0-72V200H96v40h40zm32 0h40V200H168v40zm72 0h40V200H240v40zm0 32v40h40V272H240zm-32 0H168v40h40V272z"/></svg>