<svg xmlns="http://www.w3.org/2000/svg" viewBox="0 0 640 512"><!--! Font Awesome Pro 6.4.0 by @fontawesome - https://fontawesome.com License - https://fontawesome.com/license (Commercial License) Copyright 2023 Fonticons, Inc. --><path d="M240 32h16V64H240 192v64H608h32v32V448v32H608 32 0V448 160 128H32 160V64H112 96V32h16 64 64zM544 64V96H528 400 384V64h16H528h16zM32 160V448H608V160H32zM176 384a80 80 0 1 0 0-160 80 80 0 1 0 0 160zm0-192a112 112 0 1 1 0 224 112 112 0 1 1 0-224zM520.6 360.6A80 80 0 1 0 407.4 247.4 80 80 0 1 0 520.6 360.6zM384.8 224.8A112 112 0 1 1 543.2 383.2 112 112 0 1 1 384.8 224.8zM160 240h32v16 48 16H160V304 256 240zm349.3 41.4l-33.9 33.9L464 326.6 441.4 304l11.3-11.3 33.9-33.9 11.3-11.3 22.6 22.6-11.3 11.3z"/></svg>