<svg xmlns="http://www.w3.org/2000/svg" viewBox="0 0 320 512"><!--! Font Awesome Pro 6.4.0 by @fontawesome - https://fontawesome.com License - https://fontawesome.com/license (Commercial License) Copyright 2023 Fonticons, Inc. --><path d="M240 144A80 80 0 1 0 80 144a80 80 0 1 0 160 0zm16 112H235.4L254 352H221.4l-18.6-96H160 117.2L98.6 352H66l18.6-96H64 48V224H64 81.6C60.9 203.7 48 175.3 48 144C48 82.1 98.1 32 160 32s112 50.1 112 112c0 31.3-12.9 59.7-33.6 80H256h16v32H256zM32 480H288v-9.5L254.2 416H65.8L32 470.5V480zm240-96l48 77.3V480v32H288 32 0V480 461.3L48 384H272z"/></svg>