<svg xmlns="http://www.w3.org/2000/svg" viewBox="0 0 512 512"><!--! Font Awesome Pro 6.4.0 by @fontawesome - https://fontawesome.com License - https://fontawesome.com/license (Commercial License) Copyright 2023 Fonticons, Inc. --><path d="M256 80a24 24 0 1 0 0-48 24 24 0 1 0 0 48zm0-80a56 56 0 1 1 0 112A56 56 0 1 1 256 0zM176 128h32s0 48 48 48s48-48 48-48h32 32c0 26.2 5.4 52.5 33.8 61.1c13.9 4.2 28.4-2 39.7-11.1L464 160l48 32L418.7 352h-37l87.6-150.1-3.5-2.3-4.2 3.4c-14.6 11.7-40.1 25.5-69 16.8c-23.7-7.2-39.1-22.7-47.5-41.5c-2.7-6-4.6-12.2-6-18.3h-9.6c-.8 2.1-1.8 4.2-2.8 6.3c-4.9 9.8-12.7 20.6-25.1 28.8C288.9 203.5 273.6 208 256 208s-32.9-4.5-45.5-12.9c-12.4-8.2-20.2-19-25.1-28.8c-1.1-2.1-2-4.2-2.8-6.3h-9.6c-1.4 6.1-3.3 12.3-6 18.3c-8.4 18.7-23.8 34.3-47.5 41.5c-28.9 8.7-54.4-5.1-69-16.8l-4.2-3.4-3.5 2.3L130.4 352h-37L0 192l48-32 22.5 18c11.3 9.1 25.8 15.3 39.7 11.1c28.4-8.6 33.8-34.8 33.8-61.1h32zM96 480H416V463.3L383.2 416H128.8L96 463.3V480zm-32 0V453.3L112 384H400l48 69.3V480v32H416 96 64V480z"/></svg>