<svg xmlns="http://www.w3.org/2000/svg" viewBox="0 0 256 512"><!--! Font Awesome Pro 6.4.0 by @fontawesome - https://fontawesome.com License - https://fontawesome.com/license (Commercial License) Copyright 2023 Fonticons, Inc. --><path d="M144 0V16 32h16 16V64H160 144V96h48 32v32 24l-32.7 72H200h16v32H200 186.2l13.1 96H167l-13.1-96H102.1L89 352H56.7l13.1-96H56 40V224H56h8.7L32 152V128 96H64h48V64H96 80V32H96h16V16 0h32zM99.9 224h56.2L192 145.1V128H144 112 64v17.1L99.9 224zM32 480H224V463.3L191.2 416H64.8L32 463.3V480zM0 480V453.3L48 384H208l48 69.3V480v32H224 32 0V480z"/></svg>