<svg xmlns="http://www.w3.org/2000/svg" viewBox="0 0 640 512"><!--! Font Awesome Pro 6.4.0 by @fontawesome - https://fontawesome.com License - https://fontawesome.com/license (Commercial License) Copyright 2023 Fonticons, Inc. --><path d="M188.6 64a32 32 0 1 0 -64 0 32 32 0 1 0 64 0zm-96 0a64 64 0 1 1 128 0 64 64 0 1 1 -128 0zm-24 336H47.7l5.4-20.2 41.5-154L25.1 313.9 0 294.1l100.9-128 4.8-6.1h6.6 1.2 11.1 64 11.1 1.2 6.6l4.8 6.1 100.9 128L288 313.9l-69.5-88.1 41.5 154 5.4 20.2H244.6h-24v96 16h-32V496 400h-64v96 16h-32V496 400h-24zm68.3-208L89.4 368H223.7L176.3 192H136.8zM476.6 96a32 32 0 1 0 0-64 32 32 0 1 0 0 64zm0-96a64 64 0 1 1 0 128 64 64 0 1 1 0-128zM402.1 160h9 131 9l4.7 7.6 78.5 128-27.3 16.7-50.4-82.1V496v16h-32V496 384h-96V496v16h-32V496 230.2l-50.4 82.1-27.3-16.7 78.5-128 4.7-7.6zm122.5 40v-8h-96v8V352h96V200z"/></svg>