<svg xmlns="http://www.w3.org/2000/svg" viewBox="0 0 576 512"><!--! Font Awesome Pro 6.4.0 by @fontawesome - https://fontawesome.com License - https://fontawesome.com/license (Commercial License) Copyright 2023 Fonticons, Inc. --><path d="M208 64a32 32 0 1 0 -64 0 32 32 0 1 0 64 0zm-96 0a64 64 0 1 1 128 0A64 64 0 1 1 112 64zM416 224H384V368h32v32 80h57l-14.7-73.7L457 400l-5.1-25.7-1.3-6.3-1.9-9.7-.6-3.1V352 329v-3.7V302.3 288 160H416v32 32zm116.2 83.9L480 325.3V352l3.2 16h6.4H512h32v32H522.2 512 489.6l6.4 32 9.6 48 6.4 32H479.4 416 384V480 432 400H352V368 224 192h32V160 128h32V96 64 32H400V0h16 16 16V16 32 96v32h32v32 32 63 25 8l32-8V224 192h32v32 56 24l-11.8 3.9zM117 160h9.5 99H235l4.6 8.3 70.5 128 7.7 14-28 15.4-7.7-14-42-76.2V496v16H208V496 384H144V496v16H112V496 235.5L70 311.7l-7.7 14-28-15.4 7.7-14 70.5-128L117 160zm27 192h64V200v-8H144v8V352z"/></svg>