<svg xmlns="http://www.w3.org/2000/svg" viewBox="0 0 640 512"><!--! Font Awesome Pro 6.4.0 by @fontawesome - https://fontawesome.com License - https://fontawesome.com/license (Commercial License) Copyright 2023 Fonticons, Inc. --><path d="M336 16V0H304V16 48H264 248V80h16 40v39.4L167.1 210.7l-7.1 4.8V224 480H32V360.7l96-62.1V260.5L7.3 338.6 0 343.3V352 496v16H16 184v0h72 32 64 32 72v0H624h16V496 352v-8.7l-7.3-4.7L512 260.5v38.1l96 62.1V480H480V224v-8.6l-7.1-4.8L336 119.4V80h40 16V48H376 336V16zM448 480H384V384c0-35.3-28.7-64-64-64s-64 28.7-64 64v96H192V232.6l128-85.3 128 85.3V480zm-96-96v96H288V384c0-17.7 14.3-32 32-32s32 14.3 32 32z"/></svg>