<svg xmlns="http://www.w3.org/2000/svg" viewBox="0 0 512 512"><!--! Font Awesome Pro 6.4.0 by @fontawesome - https://fontawesome.com License - https://fontawesome.com/license (Commercial License) Copyright 2023 Fonticons, Inc. --><path d="M480 256A224 224 0 1 0 32 256a224 224 0 1 0 448 0zM0 256a256 256 0 1 1 512 0A256 256 0 1 1 0 256zM288 144V368v16H256V368 144 128h32v16zM160 176V336v16H128V336 176 160h32v16zm192 24V312v16H320V312 200 184h32v16zM224 216v80 16H192V296 216 200h32v16zm192 24v32 16H384V272 240 224h32v16z"/></svg>