<svg xmlns="http://www.w3.org/2000/svg" viewBox="0 0 512 512"><!--! Font Awesome Pro 6.4.0 by @fontawesome - https://fontawesome.com License - https://fontawesome.com/license (Commercial License) Copyright 2023 Fonticons, Inc. --><path d="M256 32a224 224 0 1 0 0 448 224 224 0 1 0 0-448zm0 480A256 256 0 1 1 256 0a256 256 0 1 1 0 512zM160 368H144V352 192v-6.6l4.7-4.7 16-16L176 153.4l11.3 11.3L228 205.4l64.7-64.7L304 129.4l11.3 11.3 56 56L382.6 208l-11.3 11.3L306.6 284l40.7 40.7L358.6 336l-11.3 11.3-16 16-4.7 4.7H320 160zm16-169.4V336H313.4l-40.7-40.7L261.4 284l11.3-11.3L337.4 208 304 174.6l-64.7 64.7L228 250.6l-11.3-11.3L176 198.6z"/></svg>