<svg xmlns="http://www.w3.org/2000/svg" viewBox="0 0 512 512"><!--! Font Awesome Pro 6.4.0 by @fontawesome - https://fontawesome.com License - https://fontawesome.com/license (Commercial License) Copyright 2023 Fonticons, Inc. --><path d="M256 480a224 224 0 1 1 0-448 224 224 0 1 1 0 448zM256 0a256 256 0 1 0 0 512A256 256 0 1 0 256 0zm96 368h16V352 192v-6.6l-4.7-4.7-16-16L336 153.4l-11.3 11.3L284 205.4l-64.7-64.7L208 129.4l-11.3 11.3-56 56L129.4 208l11.3 11.3L205.4 284l-40.7 40.7L153.4 336l11.3 11.3 16 16 4.7 4.7H192 352zM336 198.6V336H198.6l40.7-40.7L250.6 284l-11.3-11.3L174.6 208 208 174.6l64.7 64.7L284 250.6l11.3-11.3L336 198.6z"/></svg>