<svg xmlns="http://www.w3.org/2000/svg" viewBox="0 0 512 512"><!--! Font Awesome Pro 6.4.0 by @fontawesome - https://fontawesome.com License - https://fontawesome.com/license (Commercial License) Copyright 2023 Fonticons, Inc. --><path d="M32 256a224 224 0 1 1 448 0A224 224 0 1 1 32 256zm480 0A256 256 0 1 0 0 256a256 256 0 1 0 512 0zM176 288H144v32l112 96 112-96V288H336 176zm142.8 32L256 373.9 193.2 320H318.8zM244.7 108.7l-88 88L145.4 208 168 230.6l11.3-11.3L256 142.6l76.7 76.7L344 230.6 366.6 208l-11.3-11.3-88-88L256 97.4l-11.3 11.3z"/></svg>