<svg xmlns="http://www.w3.org/2000/svg" viewBox="0 0 512 512"><!--! Font Awesome Pro 6.4.0 by @fontawesome - https://fontawesome.com License - https://fontawesome.com/license (Commercial License) Copyright 2023 Fonticons, Inc. --><path d="M256 32a224 224 0 1 1 0 448 224 224 0 1 1 0-448zm0 480A256 256 0 1 0 256 0a256 256 0 1 0 0 512zM208 96H192v16V256c0 35.3 28.7 64 64 64s64-28.7 64-64V224 192 160 112 96H304 208zm80 64H272 256v32h16 16v32H272 256v32h16 16c0 17.7-14.3 32-32 32s-32-14.3-32-32V128h64v32zM160 240V224H128v16 16c0 65.3 48.9 119.1 112 127v17 16h32V400 383c63.1-7.9 112-61.7 112-127V240 224H352v16 16c0 53-43 96-96 96s-96-43-96-96V240z"/></svg>