<svg xmlns="http://www.w3.org/2000/svg" viewBox="0 0 512 512"><!--! Font Awesome Pro 6.4.0 by @fontawesome - https://fontawesome.com License - https://fontawesome.com/license (Commercial License) Copyright 2023 Fonticons, Inc. --><path d="M256 32a224 224 0 1 1 0 448 224 224 0 1 1 0-448zm0 480A256 256 0 1 0 256 0a256 256 0 1 0 0 512zM176 128v16 37.4c0 15.9 5.9 31.3 16.7 43.1l16.6 18.2-37.5 25.8c-17.4 11.9-27.7 31.7-27.7 52.7V368v16h16 96 16 8.2l4.8-6.7 20.5-28.7L337.8 384h43.3l-5.3-5.8-51.3-56.3L365 265.3l9.3-13-26-18.6-9.3 13-36.4 51-44.9-49.4 18.7-12.8c17.4-11.9 27.7-31.7 27.7-52.7V144 128H288 192 176zm59.9 96.4L216.3 203c-5.4-5.9-8.3-13.6-8.3-21.5V160h64v22.8c0 10.5-5.2 20.4-13.9 26.4l-22.3 15.3zM231 266.6l52.5 57.7L263.8 352H176V321.2c0-10.5 5.2-20.4 13.9-26.4L231 266.6z"/></svg>