<svg xmlns="http://www.w3.org/2000/svg" viewBox="0 0 512 512"><!--! Font Awesome Pro 6.4.0 by @fontawesome - https://fontawesome.com License - https://fontawesome.com/license (Commercial License) Copyright 2023 Fonticons, Inc. --><path d="M256 32a224 224 0 1 1 0 448 224 224 0 1 1 0-448zm0 480A256 256 0 1 0 256 0a256 256 0 1 0 0 512zM160 144H144v16V320v6.6l4.7 4.7 16 16L176 358.6l11.3-11.3L228 306.6l64.7 64.7L304 382.6l11.3-11.3 56-56L382.6 304l-11.3-11.3L306.6 228l40.7-40.7L358.6 176l-11.3-11.3-16-16-4.7-4.7H320 160zm16 169.4V176H313.4l-40.7 40.7L261.4 228l11.3 11.3L337.4 304 304 337.4l-64.7-64.7L228 261.4l-11.3 11.3L176 313.4z"/></svg>