<svg xmlns="http://www.w3.org/2000/svg" viewBox="0 0 512 512"><!--! Font Awesome Pro 6.4.0 by @fontawesome - https://fontawesome.com License - https://fontawesome.com/license (Commercial License) Copyright 2023 Fonticons, Inc. --><path d="M256 32a224 224 0 1 1 0 448 224 224 0 1 1 0-448zm0 480A256 256 0 1 0 256 0a256 256 0 1 0 0 512zm32-320v24 80 24H160V192H288zm32 12V192 160H288 160 128v32V320v32h32H288h32V320 308l64 24 32 12V309.8 202.2 168l-32 12-64 24zm0 34.2l64-24v83.6l-64-24V238.2z"/></svg>