<svg xmlns="http://www.w3.org/2000/svg" viewBox="0 0 512 512"><!--! Font Awesome Pro 6.4.0 by @fontawesome - https://fontawesome.com License - https://fontawesome.com/license (Commercial License) Copyright 2023 Fonticons, Inc. --><path d="M304 128h16 64c53 0 96-43 96-96V16 0H464 448 384c-31 0-58.7 14.7-76.2 37.6c-16.7-3.7-34-5.6-51.8-5.6C123.5 32 16 139.5 16 272s107.5 240 240 240s240-107.5 240-240c0-49.5-15-95.5-40.7-133.7c-8.9 6-18.6 10.9-28.9 14.5C450.1 186.5 464 227.7 464 272c0 114.9-93.1 208-208 208S48 386.9 48 272S141.1 64 256 64c12.4 0 24.6 1.1 36.4 3.2C289.5 76.3 288 86 288 96v16 16h16zm80-96h64c0 35.3-28.7 64-64 64H320c0-35.3 28.7-64 64-64z"/></svg>