<svg xmlns="http://www.w3.org/2000/svg" viewBox="0 0 512 512"><!--! Font Awesome Pro 6.4.0 by @fontawesome - https://fontawesome.com License - https://fontawesome.com/license (Commercial License) Copyright 2023 Fonticons, Inc. --><path d="M480 192H32V448H480V192zm0-32V64h-1.4l-96 96H480zm-249.4 0H337.4l96-96H326.6l-96 96zm-45.3 0l96-96H174.6l-96 96H185.4zM32 64v96h1.4l96-96H32zm480 96v16 16V448v32H480 32 0V448 192 176 160 64 32H32 480h32V64v96zM216.1 226.2l136 80L375.6 320l-23.4 13.8-136 80L192 428V400 240 212l24.1 14.2zM312.4 320L224 268V372l88.4-52z"/></svg>