<svg xmlns="http://www.w3.org/2000/svg" viewBox="0 0 576 512"><!--! Font Awesome Pro 6.4.0 by @fontawesome - https://fontawesome.com License - https://fontawesome.com/license (Commercial License) Copyright 2023 Fonticons, Inc. --><path d="M160 150.6L36.7 27.3 59.3 4.7l128 128 4.7 4.7V144v48h48 6.6l4.7 4.7 128 128 4.7 4.7V336v48h48 6.6l4.7 4.7 96 96-22.6 22.6L425.4 416H368 352V400 342.6L233.4 224H176 160V208 150.6zm-32 192L36.7 251.3l22.6-22.6 96 96 4.7 4.7V336v48h48 6.6l4.7 4.7 96 96-22.6 22.6L201.4 416H144 128V400 342.6zM260.7 27.3L283.3 4.7l32 32 4.7 4.7V48 96h48 6.6l4.7 4.7 64 64 4.7 4.7V176v48h48 6.6l4.7 4.7 32 32-22.6 22.6L489.4 256H432 416V240 182.6L361.4 128H304 288V112 54.6L260.7 27.3z"/></svg>