<svg xmlns="http://www.w3.org/2000/svg" viewBox="0 0 384 512"><!--! Font Awesome Pro 6.4.0 by @fontawesome - https://fontawesome.com License - https://fontawesome.com/license (Commercial License) Copyright 2023 Fonticons, Inc. --><path d="M192 32c-22.3 0-41.2 15.3-46.5 36l-3.1 12H130 96v48h96 96V80H254 241.6l-3.1-12c-5.3-20.7-24.1-36-46.5-36zM118.7 48C131 19.8 159.2 0 192 0s61 19.8 73.3 48H304h16V64 80h32 32v32V480v32H352 32 0V480 112 80H32 64V64 48H80h38.7zM320 160H304 192 80 64V144 112H32V480H352V112H320v32 16zM192 64a16 16 0 1 1 0 32 16 16 0 1 1 0-32z"/></svg>