<svg xmlns="http://www.w3.org/2000/svg" viewBox="0 0 576 512"><!--! Font Awesome Pro 6.4.0 by @fontawesome - https://fontawesome.com License - https://fontawesome.com/license (Commercial License) Copyright 2023 Fonticons, Inc. --><path d="M544 64V448H32V64H544zM32 32H0V64 448v32H32 544h32V448 64 32H544 32zM200 192c21.9 0 41.2 11 52.8 27.8l26.4-18.1C261.8 176.5 232.9 160 200 160c-53 0-96 43-96 96s43 96 96 96c32.9 0 61.8-16.5 79.1-41.6l-26.4-18.1C241.2 309 221.9 320 200 320c-35.3 0-64-28.7-64-64s28.7-64 64-64zm128 64c0-35.3 28.7-64 64-64c21.9 0 41.2 11 52.8 27.8l26.4-18.1C453.8 176.5 424.9 160 392 160c-53 0-96 43-96 96s43 96 96 96c32.9 0 61.8-16.5 79.1-41.6l-26.4-18.1C433.2 309 413.9 320 392 320c-35.3 0-64-28.7-64-64z"/></svg>