<svg xmlns="http://www.w3.org/2000/svg" viewBox="0 0 512 512"><!--! Font Awesome Pro 6.4.0 by @fontawesome - https://fontawesome.com License - https://fontawesome.com/license (Commercial License) Copyright 2023 Fonticons, Inc. --><path d="M384 128v32h32c35.3 0 64 28.7 64 64v64H416 400v16h0v16h16 64 32V288 224c0-53-43-96-96-96c0-53-43-96-96-96c-19.3 0-37.3 5.7-52.4 15.5C247.3 18.8 213.9 0 176 0C114.1 0 64 50.1 64 112v21.5C26.7 146.6 0 182.2 0 224v64 32H32 96h52.1l32-32H96 32V224c0-27.8 17.8-51.6 42.7-60.4L96 156.1V133.5 112c0-44.2 35.8-80 80-80c27 0 50.9 13.4 65.5 34l17.8 25.2 25.9-16.9c10-6.5 22-10.3 34.9-10.3c35.3 0 64 28.7 64 64zm-88 96h-6.6l-4.7 4.7-136 136-4.7 4.7V376v8 16h16 45.6l-13.4 93.7L189.6 512H208h8 6.6l4.7-4.7 136-136 4.7-4.7V360v-8V336H352 306.4l13.4-93.7 2.6-18.3H304h-8zM190.6 368l92.1-92.1-10.5 73.8L269.6 368H288h33.4l-92.1 92.1 10.5-73.8 2.6-18.3H224 190.6z"/></svg>