<svg xmlns="http://www.w3.org/2000/svg" viewBox="0 0 512 512"><!--! Font Awesome Pro 6.4.0 by @fontawesome - https://fontawesome.com License - https://fontawesome.com/license (Commercial License) Copyright 2023 Fonticons, Inc. --><path d="M384 160V128c0-35.3-28.7-64-64-64c-12.9 0-24.9 3.8-34.9 10.3L259.2 91.2 241.5 66C226.9 45.4 203 32 176 32c-44.2 0-80 35.8-80 80v21.5 22.6l-21.3 7.5C49.8 172.4 32 196.2 32 224v64H96 416h64V224c0-35.3-28.7-64-64-64H384zM32 320H0V288 224c0-41.8 26.7-77.4 64-90.5V112C64 50.1 114.1 0 176 0c37.9 0 71.3 18.8 91.6 47.5C282.7 37.7 300.7 32 320 32c53 0 96 43 96 96c53 0 96 43 96 96v64 32H480 416 96 32zm64 72a24 24 0 1 1 48 0 24 24 0 1 1 -48 0zM56 464a24 24 0 1 1 0 48 24 24 0 1 1 0-48zm168-72a24 24 0 1 1 48 0 24 24 0 1 1 -48 0zm-40 72a24 24 0 1 1 0 48 24 24 0 1 1 0-48zm168-72a24 24 0 1 1 48 0 24 24 0 1 1 -48 0zm-40 72a24 24 0 1 1 0 48 24 24 0 1 1 0-48z"/></svg>