<svg xmlns="http://www.w3.org/2000/svg" viewBox="0 0 640 512"><!--! Font Awesome Pro 6.4.0 by @fontawesome - https://fontawesome.com License - https://fontawesome.com/license (Commercial License) Copyright 2023 Fonticons, Inc. --><path d="M448 128v32h32c35.3 0 64 28.7 64 64v64H480 160 96V224c0-27.8 17.8-51.6 42.7-60.4l21.3-7.5V133.5 112c0-44.2 35.8-80 80-80c27 0 50.9 13.4 65.5 34l17.8 25.2 25.9-16.9c10-6.5 22-10.3 34.9-10.3c35.3 0 64 28.7 64 64zM64 320H96h64H480h64 32V288 224c0-53-43-96-96-96c0-53-43-96-96-96c-19.3 0-37.3 5.7-52.4 15.5C311.3 18.8 277.9 0 240 0C178.1 0 128 50.1 128 112v21.5C90.7 146.6 64 182.2 64 224v64 32zM0 384v32H16 560h16V384H560 16 0zm64 96v32H80 208h16V480H208 80 64zm224 0v32h16H624h16V480H624 304 288z"/></svg>