<svg xmlns="http://www.w3.org/2000/svg" viewBox="0 0 448 512"><!--! Font Awesome Pro 6.4.0 by @fontawesome - https://fontawesome.com License - https://fontawesome.com/license (Commercial License) Copyright 2023 Fonticons, Inc. --><path d="M128 32v96H96 64 32V32h96zM32 160H64V352H32 0v32 96 32H32h96 32V480 384 352H128 96V234.5c26.4 32.6 66.8 53.5 112 53.5h80v32 32h32 96 32V320 224 192H416 320 288v32 32H208c-56.4 0-103.1-41.7-110.9-96H128h32V128 32 0H128 32 0V32v96 32H32zM320 288V256 224h96v96H320V288zM64 384H96h32v96H32V384H64z"/></svg>