<svg xmlns="http://www.w3.org/2000/svg" viewBox="0 0 512 512"><!--! Font Awesome Pro 6.4.0 by @fontawesome - https://fontawesome.com License - https://fontawesome.com/license (Commercial License) Copyright 2023 Fonticons, Inc. --><path d="M64 32v96h96V32H64zM32 0H64h96 32V32v96 32H160 128V352h32 32v32 96 32H160 64 32V480 384 352H64 96V160H64 32V128 32 0zM355.3 12.7L400 57.4l44.7-44.7L456 1.4 478.6 24 467.3 35.3 422.6 80l44.7 44.7L478.6 136 456 158.6l-11.3-11.3L400 102.6l-44.7 44.7L344 158.6 321.4 136l11.3-11.3L377.4 80 332.7 35.3 321.4 24 344 1.4l11.3 11.3zM416 192v16V352h32 32v32 96 32H448 352 320V480 384 352h32 32V208 192h32zM384 384H352v96h96V384H416v0H384v0zm-224 0H64v96h96V384z"/></svg>