<svg xmlns="http://www.w3.org/2000/svg" viewBox="0 0 512 512"><!--! Font Awesome Pro 6.4.0 by @fontawesome - https://fontawesome.com License - https://fontawesome.com/license (Commercial License) Copyright 2023 Fonticons, Inc. --><path d="M32 32h96v96H32V32zM0 0V32v96 32H32 64V352H32 0v32 96 32H32h96 32V480 384 352H128 96V160h32 32V128 32 0H128 32 0zM301.2 4.2l-88 80L200.2 96l13 11.8 88 80 21.5-23.7L265.4 112H336c44.2 0 80 35.8 80 80V352H384 352v32 96 32h32 96 32V480 384 352H480 448V192c0-61.9-50.1-112-112-112H265.4l57.4-52.2L301.2 4.2zM32 384h96v96H32V384zm448 0v96H384V384l32 0h32l32 0z"/></svg>