<svg xmlns="http://www.w3.org/2000/svg" viewBox="0 0 448 512"><!--! Font Awesome Pro 6.4.0 by @fontawesome - https://fontawesome.com License - https://fontawesome.com/license (Commercial License) Copyright 2023 Fonticons, Inc. --><path d="M32 32v96h96V32H32zM0 0H32h96 32V32v96 32H128 96V352h32 32v32 96 32H128 32 0V480 384 352H32 64V160H32 0V128 32 0zM336 32h32 32V64 96H368 336V64 32zm80 352H320v96h96V384zM288 352h32 96 32v32 96 32H416 320 288V480 384 352zm80-160h32v32 32H368 336V224 192h32zM128 384H32v96h96V384z"/></svg>