<svg xmlns="http://www.w3.org/2000/svg" viewBox="0 0 640 512"><!--! Font Awesome Pro 6.4.0 by @fontawesome - https://fontawesome.com License - https://fontawesome.com/license (Commercial License) Copyright 2023 Fonticons, Inc. --><path d="M32 32H0V64 384v32H32 288V384H32V64H288V32H32zm80 416H96v32h16H288V448H112zM608 64V448H352V64H608zM352 32H320V64 448v32h32H608h32V448 64 32H608 352zM480 384a64 64 0 1 1 0-128 64 64 0 1 1 0 128zm-96-64a96 96 0 1 0 192 0 96 96 0 1 0 -192 0zM496 144a16 16 0 1 1 -32 0 16 16 0 1 1 32 0zM480 96a48 48 0 1 0 0 96 48 48 0 1 0 0-96zm24 224a24 24 0 1 0 -48 0 24 24 0 1 0 48 0z"/></svg>