<svg xmlns="http://www.w3.org/2000/svg" viewBox="0 0 640 512"><!--! Font Awesome Pro 6.4.0 by @fontawesome - https://fontawesome.com License - https://fontawesome.com/license (Commercial License) Copyright 2023 Fonticons, Inc. --><path d="M16 32H0V64H16 32V448H16 0v32H16 32 64 576h32 16 16V448H624 608V64h16 16V32H624 608 576 64 32 16zM64 448V64H576V448H64zM192 144V128H160v16V368v16h32V368 144zm96 0V128H256v16V368v16h32V368 144zm96 0V128H352v16V368v16h32V368 144zm96 0V128H448v16V368v16h32V368 144z"/></svg>