<svg xmlns="http://www.w3.org/2000/svg" viewBox="0 0 640 512"><!--! Font Awesome Pro 6.4.0 by @fontawesome - https://fontawesome.com License - https://fontawesome.com/license (Commercial License) Copyright 2023 Fonticons, Inc. --><path d="M480 32V256H160V32h80v90.7V160l32-19.2L320 112l48 28.8L400 160V122.7 32h80zM272 32h96v71.5L336.5 84.6 320 74.7l-16.5 9.9L272 103.5V32zM480 0H400 368 272 240 160 128V32 256v32h32H480h32V256 32 0H480zM608 416c0 35.3-28.7 64-64 64H96c-35.3 0-64-28.7-64-64s28.7-64 64-64H544c35.3 0 64 28.7 64 64zM96 320c-53 0-96 43-96 96s43 96 96 96H544c53 0 96-43 96-96s-43-96-96-96H96zm56 96a24 24 0 1 0 -48 0 24 24 0 1 0 48 0zm168 24a24 24 0 1 0 0-48 24 24 0 1 0 0 48zm216-24a24 24 0 1 0 -48 0 24 24 0 1 0 48 0z"/></svg>