<svg xmlns="http://www.w3.org/2000/svg" viewBox="0 0 640 512"><!--! Font Awesome Pro 6.4.0 by @fontawesome - https://fontawesome.com License - https://fontawesome.com/license (Commercial License) Copyright 2023 Fonticons, Inc. --><path d="M320 32V256H96V32H320zM96 0H64V32 256v32H96 320h32V256 32 0H320 96zM544 96V256H416V96H544zM416 64H384V96 256v32h32H544h32V256 96 64H544 416zM608 416c0 35.3-28.7 64-64 64H96c-35.3 0-64-28.7-64-64s28.7-64 64-64H544c35.3 0 64 28.7 64 64zM96 320c-53 0-96 43-96 96s43 96 96 96H544c53 0 96-43 96-96s-43-96-96-96H96zm56 96a24 24 0 1 0 -48 0 24 24 0 1 0 48 0zm168 24a24 24 0 1 0 0-48 24 24 0 1 0 0 48zm216-24a24 24 0 1 0 -48 0 24 24 0 1 0 48 0z"/></svg>