<svg xmlns="http://www.w3.org/2000/svg" viewBox="0 0 512 512"><!--! Font Awesome Pro 6.4.0 by @fontawesome - https://fontawesome.com License - https://fontawesome.com/license (Commercial License) Copyright 2023 Fonticons, Inc. --><path d="M192 0H176 112C50.1 0 0 50.1 0 112v64 9.3l8.1 4.6 96.3 55c-6 8.3-11.1 17.4-15 27.1H51.8L23.2 257.7 8.8 250.5-5.5 279.2l14.3 7.2 32 16 3.4 1.7H48 81c-.7 5.2-1 10.6-1 16v8l-22.2 9.2-2.9 1.2-2.2 2.2-32 32L9.4 384 32 406.6l11.3-11.3 29.8-29.8 25.7-10.7 31.1 31.1L90.3 401l-3.2 1.2-2.4 2.4-32 32L41.4 448 64 470.6l11.3-11.3 29.6-29.6 49.8-19 15.1 15.1L134.7 451l-6.7 4.8V464v32 16h32V496 472.2L193.9 448H318.1L352 472.2V496v16h32V496 464v-8.2l-6.7-4.8-35.2-25.1 15.1-15.1 49.8 19 29.6 29.6L448 470.6 470.6 448l-11.3-11.3-32-32-2.4-2.4-3.2-1.2-39.6-15.1 31.1-31.1 25.7 10.7 29.8 29.8L480 406.6 502.6 384l-11.3-11.3-32-32-2.2-2.2-2.9-1.2L432 328v-8c0-5.4-.3-10.8-1-16h33 3.8l3.4-1.7 32-16 14.3-7.2-14.3-28.6-14.3 7.2L460.2 272H422.7c-3.9-9.7-9-18.8-15-27.1l96.3-55 8.1-4.6V176 112C512 50.1 461.9 0 400 0H336 320V24l6.4 4.8 64 48 12.8 9.6 19.2-25.6-12.8-9.6L384 32h16c38.7 0 71 27.5 78.4 64H374.6L363.3 84.7 352 73.4 329.4 96l11.3 11.3 16 16 4.7 4.7H368 480v38.7L385.1 221C366.9 206 344.5 196 320 193V144 128H288v16 48H224V144 128H192v16 49c-24.5 3.1-46.9 13.1-65.1 28L32 166.7V128H144h6.6l4.7-4.7 16-16L182.6 96 160 73.4 148.7 84.7 137.4 96H33.6C41 59.5 73.3 32 112 32h16L102.4 51.2 89.6 60.8l19.2 25.6 12.8-9.6 64-48L192 24V0zM112 322.7V320c0-53 43-96 96-96h96c53 0 96 43 96 96v2.7L306.7 416H205.3L112 322.7z"/></svg>