<svg xmlns="http://www.w3.org/2000/svg" viewBox="0 0 512 512"><!--! Font Awesome Pro 6.4.0 by @fontawesome - https://fontawesome.com License - https://fontawesome.com/license (Commercial License) Copyright 2023 Fonticons, Inc. --><path d="M219.3 27.3L196.7 4.7l-32 32L153.4 48 176 70.6l11.3-11.3 32-32zm192 0L388.7 4.7l-32 32L345.4 48 368 70.6l11.3-11.3 32-32zM160 98.3L96 80c-43.6 0-64 47.8-64 91.4c0 7 .4 13.9 1.2 20.6H65.5c-1-6.6-1.5-13.4-1.5-20.6c0-17.5 4.2-34.2 11-45.5c5.3-8.8 11-12.7 17.4-13.7l58.8 16.8 8.8 2.5 8.8-2.5 58.8-16.8c6.4 1 12.1 4.9 17.4 13.7c6.8 11.2 11 28 11 45.5c0 7.1-.5 14-1.5 20.6h32.3c.8-6.7 1.2-13.5 1.2-20.6c0-43.6-20.4-91.4-64-91.4L160 98.3zM478.8 192c.8-6.7 1.2-13.5 1.2-20.6c0-43.6-20.4-91.4-64-91.4L352 98.3 291.4 81c3 3.8 5.8 7.7 8.3 11.8c5.2 8.5 9.3 17.8 12.4 27.4l31.1 8.9 8.8 2.5 8.8-2.5 58.8-16.8c6.4 1 12.1 4.9 17.4 13.7c6.8 11.2 11 28 11 45.5c0 7.1-.5 14-1.5 20.6h32.3zM32 480V384H480v96H32zm0-224H480v96H32V256zM512 368V352 256 224H480 32 0v32 96 16 16 96 32H32 480h32V480 384 368zM80 320a16 16 0 1 0 0-32 16 16 0 1 0 0 32zm368-16a16 16 0 1 0 -32 0 16 16 0 1 0 32 0zM80 448a16 16 0 1 0 0-32 16 16 0 1 0 0 32zm368-16a16 16 0 1 0 -32 0 16 16 0 1 0 32 0z"/></svg>