<svg xmlns="http://www.w3.org/2000/svg" viewBox="0 0 448 512"><!--! Font Awesome Pro 6.4.0 by @fontawesome - https://fontawesome.com License - https://fontawesome.com/license (Commercial License) Copyright 2023 Fonticons, Inc. --><path d="M416 224c0 49.2-18.5 94-48.9 128h40.7c25.3-36.3 40.2-80.4 40.2-128C448 100.3 347.7 0 224 0S0 100.3 0 224c0 47.6 14.8 91.7 40.2 128H80.9C50.5 318 32 273.2 32 224C32 118 118 32 224 32s192 86 192 192zM34.9 512H413.1 448l-14-32-42-96H56L14 480 0 512H34.9zm336.1-96l28 64H48.9l28-64H371.1zM304 144H272v16 48H224 208v32h16 48v48 16h32V288 240h48 16V208H352 304V160 144zM160 96H128v16 16H112 96v32h16 16v16 16h32V176 160h16 16V128H176 160V112 96z"/></svg>