<svg xmlns="http://www.w3.org/2000/svg" viewBox="0 0 448 512"><!--! Font Awesome Pro 6.4.0 by @fontawesome - https://fontawesome.com License - https://fontawesome.com/license (Commercial License) Copyright 2023 Fonticons, Inc. --><path d="M288 64H224v64h64V64zM224 32h64 32V64v64 32H288 224 192V128 64 32h32zM98.7 234.7l32 55.4 55.4-32-32-55.4-55.4 32zM55 223l27.7-16 55.4-32 27.7-16 16 27.7 32 55.4 16 27.7-27.7 16-55.4 32-27.7 16-16-27.7L71 250.7 55 223zm297 1H288v64h64V224zm-96-32h32 64 32v32 64 32H352 288 256V288 224 192zm96 256h64V384H352v64zm-32-96h32 64 32v32 64 32H416 352 320V448 384 352zm-64 32H192v64h64V384zm-64-32h64 32v32 64 32H256 192 160V448 384 352h32zM32 384v64H96V384H32zM0 352H32 96h32v32 64 32H96 32 0V448 384 352z"/></svg>