<svg xmlns="http://www.w3.org/2000/svg" viewBox="0 0 576 512"><!--! Font Awesome Pro 6.4.0 by @fontawesome - https://fontawesome.com License - https://fontawesome.com/license (Commercial License) Copyright 2023 Fonticons, Inc. --><path d="M288 4.9l5.4 1.9 136 48.5L440 59.2V70.4 212.8l125.4 44.7 10.6 3.8v11.3V434.8v10.7l-9.9 4.1-136 56.3-6.1 2.5-6.1-2.5L288 452.1 158.1 505.8l-6.1 2.5-6.1-2.5L9.9 449.6 0 445.5V434.8 272.6 261.4l10.6-3.8L136 212.8V70.4 59.2l10.6-3.8 136-48.5L288 4.9zM408 106.3L304 146.2V249.9l104-37.1V106.3zM272 146.2L168 106.3V212.8l104 37.1V146.2zm32 277.9l112 46.3V348.6L304 308.2V424.1zm144 39.7l96-39.7V308.9l-96 39.2V463.8zM272 308.2L160 348.6V470.4l112-46.3V308.2zM32 424.1l96 39.7V348.1L32 308.9V424.1zM288 38.9L181.1 77 288 118 394.9 77 288 38.9zM152 241.1L44.6 279.4l99.8 40.8 114.1-41.1L152 241.1zm379.4 38.3L424 241.1l-106.5 38 114.1 41.1 99.8-40.8z"/></svg>