<svg xmlns="http://www.w3.org/2000/svg" viewBox="0 0 576 512"><!--! Font Awesome Pro 6.4.0 by @fontawesome - https://fontawesome.com License - https://fontawesome.com/license (Commercial License) Copyright 2023 Fonticons, Inc. --><path d="M176 32H160V48 160H112 96v16 48H64L0 288v24 24 80l64 64H512l64-64V336 312 288l-64-64H480V176 160H464 192V64H400h16V32H400 176zM448 224H128V192h32 32H448v32zM32 312V301.3L77.3 256H498.7L544 301.3V312v24H32V312zm0 56H544v34.7L498.7 448H77.3L32 402.7V368z"/></svg>