<svg xmlns="http://www.w3.org/2000/svg" viewBox="0 0 512 512"><!--! Font Awesome Pro 6.4.0 by @fontawesome - https://fontawesome.com License - https://fontawesome.com/license (Commercial License) Copyright 2023 Fonticons, Inc. --><path d="M256 16V0H224V16 40c0 30.9 25.1 56 56 56h8 8 23.2l-40 26.7-13.3 8.9 17.8 26.6 13.3-8.9 13.8-9.2-10 35.9H120 104 96c-53 0-96 43-96 96v48 16H32V320v-9.4l16 16v22.8L32.8 394.9 31.1 400l1.7 5.1 32 96L68.5 512H80h80 22.2l-7-21.1L147 406.5l37.8-25.2 8.6-5.7-1.7-10.2-1.9-11.6 17.3 11.5 4 2.7H216h56V496v16h16 80 16V496 311c0-3.1 .5-6.2 1.4-9.2L403.9 240H496h16V224 168v-6.6l-4.7-4.7L440.8 90.2C459.3 81.1 472 62 472 40V16 0H440V16 40c0 13.3-10.7 24-24 24h-1.4H408 346.6c3.5-7.3 5.4-15.4 5.4-24V16 0H320V16 40c0 13.3-10.7 24-24 24h-8-8c-13.3 0-24-10.7-24-24V16zM401.4 96L480 174.6V208H392 380.1l-3.4 11.4-22 73.3c-1.8 6-2.7 12.2-2.7 18.4V480H304V352 336H288 220.8l-44-29.3-24.7 15.9 6.3 37.8-39.4 26.3L109 393.5l3.9 11.6 25 74.9H91.5L64.9 400l14.3-42.9 .8-2.5V352 320v-6.6l-4.7-4.7L48 281.4V264c0-30.9 25.1-56 56-56h16H312.9h12.2l3.3-11.7L356.2 96h45.2zM416 144a16 16 0 1 0 -32 0 16 16 0 1 0 32 0z"/></svg>