<svg xmlns="http://www.w3.org/2000/svg" viewBox="0 0 576 512"><!--! Font Awesome Pro 6.4.0 by @fontawesome - https://fontawesome.com License - https://fontawesome.com/license (Commercial License) Copyright 2023 Fonticons, Inc. --><path d="M32 0H240V32H32V256H544V32H336V0H544h32V32 256v32 96 32H544 362.9l10.7 64H432h16v32H432 360 216 144 128V480h16 58.4l10.7-64H32 0V384 288 256 32 0H32zm0 288v96H231.7c.2 0 .4 0 .6 0H343.7c.2 0 .4 0 .6 0H544V288H32zM234.9 480H341.1l-10.7-64H245.6l-10.7 64zM304 16V169.4l52.7-52.7L368 105.4 390.6 128l-11.3 11.3-80 80L288 230.6l-11.3-11.3-80-80L185.4 128 208 105.4l11.3 11.3L272 169.4V16 0h32V16z"/></svg>