<svg xmlns="http://www.w3.org/2000/svg" viewBox="0 0 576 512"><!--! Font Awesome Pro 6.4.0 by @fontawesome - https://fontawesome.com License - https://fontawesome.com/license (Commercial License) Copyright 2023 Fonticons, Inc. --><path d="M312 8H264V56h48V8zM120 72H72v48h48V72zm336 0v48h48V72H456zM568 264H520v48h48V264zM8 264v48H56V264H8zM120 456H72v48h48V456zm336 0v48h48V456H456zM272 288V415c-63.1-7.9-112-61.7-112-127c0-70.7 57.3-128 128-128s128 57.3 128 128c0 65.3-48.9 119.1-112 127V288 272H272v16zm16 160a160 160 0 1 0 0-320 160 160 0 1 0 0 320z"/></svg>