<svg xmlns="http://www.w3.org/2000/svg" viewBox="0 0 576 512"><!--! Font Awesome Pro 6.4.0 by @fontawesome - https://fontawesome.com License - https://fontawesome.com/license (Commercial License) Copyright 2023 Fonticons, Inc. --><path d="M312 8H264V56h48V8zM120 72H72v48h48V72zm336 0v48h48V72H456zM568 264H520v48h48V264zM8 264v48H56V264H8zM120 456H72v48h48V456zm336 0v48h48V456H456zM288 416c-65.3 0-119.1-48.9-127-112H288h16V272H288 161c7.9-63.1 61.7-112 127-112c70.7 0 128 57.3 128 128s-57.3 128-128 128zM128 288a160 160 0 1 0 320 0 160 160 0 1 0 -320 0z"/></svg>