<svg xmlns="http://www.w3.org/2000/svg" viewBox="0 0 512 512"><!--! Font Awesome Pro 6.4.0 by @fontawesome - https://fontawesome.com License - https://fontawesome.com/license (Commercial License) Copyright 2023 Fonticons, Inc. --><path d="M240 502.9l16 9.1 16-9.1L480 384V368s0 0 0 0V147.7 128l-15.3-8.7L269.8 7.9 256 0 242.2 7.9 47.3 119.3 32 128v19.7V368s0 0 0 0v16L240 502.9zM104.1 388.4L240 398.8V466L104.1 388.4zM272 398.8l135.9-10.5L272 466V398.8zm176-88.6l-58.7-97.8L448 170.5V310.2zM373 184.8L302 63.2l134 76.6-63.1 45zM210 63.2L139 184.8 76 139.7 210 63.2zM122.7 212.4L64 310.2V170.5l58.7 41.9zM75 354l69.4-115.6 80.9 127.2L75 354zm98.1-130H338.9L256 354.2 173.1 224zm194.5 14.4L437 354 286.7 365.6l80.9-127.2zM171.9 192L256 47.8 340.1 192H171.9z"/></svg>