<svg xmlns="http://www.w3.org/2000/svg" viewBox="0 0 640 512"><!--! Font Awesome Pro 6.4.0 by @fontawesome - https://fontawesome.com License - https://fontawesome.com/license (Commercial License) Copyright 2023 Fonticons, Inc. --><path d="M432 0h8 32c92.8 0 168 75.2 168 168v52.7c0 77.2-39.8 149-105.3 190L512 424.9V496v16H496 400 384V496 461c-3.5 .9-7.5 1.8-11.7 2.6c-14.2 3-32.3 6-52.3 7.5V439c17.3-1.4 33.1-4 45.7-6.7c9.1-1.9 16.5-3.8 21.6-5.3c2.5-.7 4.5-1.3 5.8-1.7c.6-.2 1.1-.4 1.4-.5l.3-.1 .1 0 0 0 0 0 0 0 0 0 21-7V440v40h64V416v-8.9l7.5-4.7 30.2-18.9c56.1-35.1 90.2-96.6 90.2-162.8V168c0-75.1-60.9-136-136-136H448L428.8 57.6l-2.7 3.6-4.2 1.7L392 74.8v30.5L414.6 128H496c35.3 0 64 28.7 64 64v64 16H544 464h-5.1l-4.2-3-56-40c-33.7-24.1-74-37-115.4-37c-49.6 0-97.3 18.5-133.9 51.9L32 351.1V480H256V455.5L108.6 423.6 96 420.9V408 368 352h32v16 27.1L275.4 427l12.6 2.7v12.9V496v16H272 16 0V496 344v-7.1l5.2-4.8L127.7 220.3c42.5-38.8 97.9-60.3 155.5-60.3c48.1 0 94.9 15 134 43l51.9 37H528V192c0-17.7-14.3-32-32-32H408h-6.6l-4.7-4.7-32-32-4.7-4.7V112 64 53.2l10.1-4 35.8-14.3L427.2 6.4 432 0zm32 64a16 16 0 1 1 0 32 16 16 0 1 1 0-32z"/></svg>