<svg xmlns="http://www.w3.org/2000/svg" viewBox="0 0 576 512"><!--! Font Awesome Pro 6.4.0 by @fontawesome - https://fontawesome.com License - https://fontawesome.com/license (Commercial License) Copyright 2023 Fonticons, Inc. --><path d="M544 32V384H344.3c-.2 0-.4 0-.6 0H232.3c-.2 0-.4 0-.6 0H32V32H544zM32 416H213.1l-10.7 64H144 128v32h16 72H360h72 16V480H432 373.6l-10.7-64H544h32V384 32 0H544 32 0V32 384v32H32zm202.9 64l10.7-64h84.9l10.7 64H234.9zM256 96H240v16 48H192 176v16 64 16h16 48v48 16h16 64 16V304 256h48 16V240 176 160H384 336V112 96H320 256zm16 80V128h32v48 16h16 48v32H320 304v16 48H272V240 224H256 208V192h48 16V176z"/></svg>