<svg xmlns="http://www.w3.org/2000/svg" viewBox="0 0 640 512"><!--! Font Awesome Pro 6.4.0 by @fontawesome - https://fontawesome.com License - https://fontawesome.com/license (Commercial License) Copyright 2023 Fonticons, Inc. --><path d="M32 32H544V198.6c11.2 3.2 21.9 7.4 32 12.6V32 0H544 32 0V32 384v32H32 213.1l-10.7 64H144 128v32h16 72H360h34.8c-12.9-9.1-24.5-19.9-34.6-32H341.1 288 234.9l10.7-64H288h38.6c-2.9-10.3-4.9-21-5.9-32H232.3c-.2 0-.4 0-.6 0H32V32zM480 192.7V112 96H464 368 352v32h16 57.4L304 249.4l-68.7-68.7L224 169.4l-11.3 11.3-112 112L89.4 304 112 326.6l11.3-11.3L224 214.6l68.7 68.7L304 294.6l11.3-11.3L448 150.6v48c10.3-2.9 21-4.9 32-5.9zM496 256a112 112 0 1 1 0 224 112 112 0 1 1 0-224zm0 256a144 144 0 1 0 0-288 144 144 0 1 0 0 288zM470.6 342.6a35.9 35.9 0 1 1 50.7 50.7 35.9 35.9 0 1 1 -50.7-50.7zM531.3 426l17.3 17.3 22.6-22.6L554 403.3c13.2-21.6 13.2-49.1 0-70.7l17.3-17.3-22.6-22.6L531.3 310c-21.6-13.2-49.1-13.2-70.7 0l-17.3-17.3-22.6 22.6L438 332.7c-13.2 21.6-13.2 49.1 0 70.7l-17.3 17.3 22.6 22.6L460.7 426c21.6 13.2 49.1 13.2 70.7 0z"/></svg>