<svg xmlns="http://www.w3.org/2000/svg" viewBox="0 0 640 512"><!--! Font Awesome Pro 6.4.0 by @fontawesome - https://fontawesome.com License - https://fontawesome.com/license (Commercial License) Copyright 2023 Fonticons, Inc. --><path d="M32 32H544V198.6c11.2 3.2 21.9 7.4 32 12.6V32 0H544 32 0V32 384v32H32 213.1l-10.7 64H144 128v32h16 72H360h34.8c-12.9-9.1-24.5-19.9-34.6-32H341.1 288 234.9l10.7-64H288h38.6c-2.9-10.3-4.9-21-5.9-32H232.3c-.2 0-.4 0-.6 0H32V32zM480 192.7V112 96H464 368 352v32h16 57.4L304 249.4l-68.7-68.7L224 169.4l-11.3 11.3-112 112L89.4 304 112 326.6l11.3-11.3L224 214.6l68.7 68.7L304 294.6l11.3-11.3L448 150.6v48c10.3-2.9 21-4.9 32-5.9zM496 256a112 112 0 1 1 0 224 112 112 0 1 1 0-224zm0 256a144 144 0 1 0 0-288 144 144 0 1 0 0 288zM472.8 335.4c.6-.9 1.8-2.1 4.2-3.4c5.1-2.7 12.5-4.1 18.7-4c8.2 .1 17.1 1.8 26.4 4.1l15.5 3.9 7.7-31.1L529.9 301c-5.6-1.4-11.6-2.7-17.9-3.7V288 272H480v16 9.5c-6.1 1.2-12.3 3.2-18 6.3c-11.8 6.3-23 18.4-21.8 37.2c1 16 11.7 25.3 21.6 30.7c8.8 4.7 19.7 7.8 28.6 10.3l1.8 .5c10.3 2.9 17.9 5.2 23.2 8.3c4.5 2.7 4.7 4.2 4.7 5.6c.1 2.4-.5 3.7-1 4.5c-.6 1-1.8 2.2-4 3.3c-4.7 2.5-11.8 3.8-18.5 3.6c-9.5-.3-18.5-3.1-29.9-6.8c-1.9-.6-3.8-1.2-5.8-1.8l-15.3-4.8L436 425.2l15.3 4.8c1.6 .5 3.3 1 5 1.6l0 0 0 0c7 2.3 15.1 4.8 23.7 6.6v11.4 16h32v-16V438.7c6.2-1.1 12.5-3.1 18.3-6.2c12.1-6.5 22.3-18.7 21.7-36.9c-.5-16.2-10.3-26.3-20.5-32.3c-9.4-5.6-21.2-8.9-30.5-11.5l-.2 0c-10.4-2.9-18.3-5.2-23.9-8.2c-4.8-2.6-4.8-4-4.8-4.5l0-.1c-.1-1.9 .3-2.9 .8-3.6z"/></svg>