<svg xmlns="http://www.w3.org/2000/svg" viewBox="0 0 512 512"><!--! Font Awesome Pro 6.4.0 by @fontawesome - https://fontawesome.com License - https://fontawesome.com/license (Commercial License) Copyright 2023 Fonticons, Inc. --><path d="M272 16V0H240V16 329.4L139.3 228.7 128 217.4 105.4 240l11.3 11.3 128 128L256 390.6l11.3-11.3 128-128L406.6 240 384 217.4l-11.3 11.3L272 329.4V16zM140.1 320H32 0v32V480v32H32 480h32V480 352 320H480 371.9l-32 32H480V480H32V352H172.1l-32-32zM432 416a24 24 0 1 0 -48 0 24 24 0 1 0 48 0z"/></svg>