<svg xmlns="http://www.w3.org/2000/svg" viewBox="0 0 448 512"><!--! Font Awesome Pro 6.4.0 by @fontawesome - https://fontawesome.com License - https://fontawesome.com/license (Commercial License) Copyright 2023 Fonticons, Inc. --><path d="M56 40H8V88H56V40zm96 0H104V88h48V40zm48 0V88h48V40H200zm144 0H296V88h48V40zm48 0V88h48V40H392zM272 272v32h32 48v17.7L224 436.9 96 321.7V304h48 32V272 160h96V272zm112 0H352 336 304V240 160 128H272 176 144v32 80 32H112 96 64v32 32L224 480 384 336V304 272z"/></svg>