<svg xmlns="http://www.w3.org/2000/svg" viewBox="0 0 640 512"><!--! Font Awesome Pro 6.4.0 by @fontawesome - https://fontawesome.com License - https://fontawesome.com/license (Commercial License) Copyright 2023 Fonticons, Inc. --><path d="M256 0h48H432h16 80 7.4l4.8 5.6 96 112 3.9 4.5V128v64 16H624 528h-6.6l-4.7-4.7L489.4 176H480v40L614.4 316.8l19.2 14.4L640 336v8 24 80 48 16H624 576 560 528 440 48.3h-.7H16 0V496 464.3v-.7V432 416H16 45.8l376.1-34.8-58.7-70.5-7.4-8.9-3.7-4.4v-5.8V280.2l0 0V272 248 153.9l-55.2-27.6-23.2-11.6 20.7-15.5L341.3 64 294.4 28.8 256 0zM384 263.8l0 0V272v8 5.8l3.7 4.5 72.6 87.1 3.7 4.4v5.8 7.2 14.6l-14.5 1.3L48 447.9l-.7 .1h-.7H32v15.6 .7V480H47.6h.7H440h88 32 16 32V448 368 352l-12.8-9.6L454.4 236.8 448 232v-8V160 144h16 32 6.6l4.7 4.7L534.6 176H608V133.9L520.6 32H448 432 352l25.6 19.2L394.7 64 377.6 76.8l-43.3 32.5 40.8 20.4 8.8 4.4V144 248v15.8zm-64-74.4l0 37L165.2 136.1 81.6 219.7l68.7-3.6 69.9-3.7-43 55.3L161.4 288H320l0 8.7 0 0V309l9.2 11H320 136.5 96l24.9-32 5.1-6.6L152 248l-42.3 2.2-62 3.3L0 256l33.8-33.8L160 96l160 93.3zM495.2 57.7l32 16 14.3 7.2-14.3 28.6-14.3-7.2-32-16-14.3-7.2 14.3-28.6 14.3 7.2z"/></svg>