<svg xmlns="http://www.w3.org/2000/svg" viewBox="0 0 576 512"><!--! Font Awesome Pro 6.4.0 by @fontawesome - https://fontawesome.com License - https://fontawesome.com/license (Commercial License) Copyright 2023 Fonticons, Inc. --><path d="M304 64H410.4l18.2 96H304V64zM447.7 192h.6H510h32.2 1.1H576l-6.4-32L544 32H424c-.2 0-.4 0-.6 0H288l0 0 0 0H152.3c-.2 0-.4 0-.6 0H32L6.4 160 0 192H32.6h1.1H66h61.7 .6L288 192l159.7 0zM69.8 224H37.5l3.8 32H16 0v32H16 45.1L64 448.9V464v16H96V464 448H480v16 16h32V464 448.9L530.9 288H560h16V256H560 534.7l3.8-32H506.2L483.7 416H92.3L69.8 224zM272 64v96H147.3l18-96H272zM132.7 64l-18 96H39L58.2 64h74.5zm385 0L537 160H461.2L443 64h74.8z"/></svg>