<svg xmlns="http://www.w3.org/2000/svg" viewBox="0 0 640 512"><!--! Font Awesome Pro 6.4.0 by @fontawesome - https://fontawesome.com License - https://fontawesome.com/license (Commercial License) Copyright 2023 Fonticons, Inc. --><path d="M304 64H410.4l8.9 47c9.2-8 18.6-15.8 28.1-23.6L443 64h74.8l13 64.9c2-1.8 4-3.6 6.1-5.4l0 0c2.4-2.1 4.8-4.3 7.2-6.4c7.1 6.4 14 12.7 20.9 19.2L544 32H424c-.2 0-.4 0-.6 0H288l0 0 0 0H152.3c-.2 0-.4 0-.6 0H32L6.4 160 0 192H32.6h1.1H66h61.7 .6L288 192h53.7c5.9-7.6 12-14.9 18.1-21.9c3-3.4 5.9-6.8 9-10.1H304V64zm32.8 384c-8.8-9.8-16.5-20.5-23.2-32H92.3L69.8 224H37.5l3.8 32H16 0v32H16 45.1L64 448.9V464v16H96V464 448H336.8zM272 64v96H147.3l18-96H272zM132.7 64l-18 96H39L58.2 64h74.5zM512.7 240.8L537 213.3c2.4-2.8 4.8-5.4 7-7.8c7 7.5 14.9 16.6 22.8 26.7C590.4 262.5 608 295 608 320.2c0 70.7-57.3 128-128 128s-128-57.3-128-128c0-14.7 5.5-32.3 16.1-52c10.5-19.4 25-38.7 40.1-56.2c14.3-16.5 28.6-30.7 39.8-41.1c11.4 10.6 26.1 25.3 40.7 42.2l24 27.8zM448 128.2s-128 103.6-128 192s71.6 160 160 160s160-71.6 160-160c0-73.6-96-160-96-160s-3.4 3.1-9 8.6c-5.6 5.6-13.4 13.6-22.1 23.4c-7.4-8.5-14.7-16.5-21.7-23.7c-23.8-24.5-43.2-40.2-43.2-40.2zm.7 102.4l-12.5 15.4c-13.5 16.5-24.4 30.5-31.9 43.3c-7.7 13.1-12.3 26.1-12.3 40.6c0 26.2 9.8 48.2 26.5 63.5c16.6 15.1 38.9 22.7 62.6 22.7c19.5 0 37-5.5 53.1-16.2l0 0 .3-.2c34.4-24 42.6-70.9 23.1-106.9l0-.1c-1.7-3.5-4.1-8.2-7.7-12.9L540.4 267l-12.7 9.4-27.8 20.4-13.1-17.3c-11.4-15-23.6-31.1-25.6-33.6l-12.4-15.4zM531.9 313c9.2 22.1 2.6 47.5-15.5 60.3c-10.9 7.2-22.3 10.7-35.2 10.7c-16.9 0-31.2-5.4-41-14.4c-9.7-8.8-16.1-21.9-16.1-39.8c0-7.1 2.1-14.4 8-24.4c4-6.8 9.3-14.3 16.4-23.4c3.9 5.2 8.4 11 12.9 16.9c5.8 7.6 11.4 15.1 15.6 20.6l5.1 6.7 1.4 1.9 .4 .5 .1 .1 0 0 0 0 0 0 12.8-9.7-12.8 9.7 9.5 12.6 12.7-9.4 25.8-19z"/></svg>