<svg xmlns="http://www.w3.org/2000/svg" viewBox="0 0 384 512"><!--! Font Awesome Pro 6.4.0 by @fontawesome - https://fontawesome.com License - https://fontawesome.com/license (Commercial License) Copyright 2023 Fonticons, Inc. --><path d="M271.7 330.8l-17.3 9.9 1.3 19.9c.2 2.5 .2 4.9 .2 7.4c0 61.9-50.1 112-112 112S32 429.9 32 368V192c0-88.4 71.6-160 160-160s160 71.6 160 160c0 59.3-32.2 111.1-80.3 138.8zM288 368c0-3.2-.1-6.4-.3-9.5C345.3 325.3 384 263.2 384 192C384 86 298 0 192 0S0 86 0 192V368c0 79.5 64.5 144 144 144s144-64.5 144-144zM112 192c0-44.2 35.8-80 80-80s80 35.8 80 80v16 16h32V208 192c0-61.9-50.1-112-112-112S80 130.1 80 192v32 8.6l7.1 4.8L128 264.6v23.9L85.8 323.7 73.5 334 94 358.5l12.3-10.2 48-40 5.8-4.8V296 256v-8.6l-7.1-4.8L112 215.4V192z"/></svg>