<svg xmlns="http://www.w3.org/2000/svg" viewBox="0 0 512 512"><!--! Font Awesome Pro 6.4.0 by @fontawesome - https://fontawesome.com License - https://fontawesome.com/license (Commercial License) Copyright 2023 Fonticons, Inc. --><path d="M480 256A224 224 0 1 0 32 256a224 224 0 1 0 448 0zM0 256a256 256 0 1 1 512 0A256 256 0 1 1 0 256zM395.3 387.3l-24 24L360 422.6 337.4 400l11.3-11.3 24-24L384 353.4 406.6 376l-11.3 11.3zM288 416v32H224V416h64zM432 256v64H400V256h32zM137.4 208H144h32 16v16 16h32V224 208h16 32 6.6l4.7 4.7 48 48 4.7 4.7V272v96 16H320 224h-6.6l-4.7-4.7L185.4 352H96 80V336 272v-6.6l4.7-4.7 48-48 4.7-4.7zM256 240v16 16H240 176 160V256 240h-9.4L112 278.6V320h80 6.6l4.7 4.7L230.6 352H304V278.6L265.4 240H256zm-64-96V112 80h32 64 32v32 32 32H288 224l-32-32zm96-32H224v18.7L237.3 144H288V112z"/></svg>