<svg xmlns="http://www.w3.org/2000/svg" viewBox="0 0 512 512"><!--! Font Awesome Pro 6.4.0 by @fontawesome - https://fontawesome.com License - https://fontawesome.com/license (Commercial License) Copyright 2023 Fonticons, Inc. --><path d="M272 479.4V448H224h-6.6l-4.7-4.7-48-48-4.7-4.7V384 304 288h16H320h6.6l4.7 4.7L374.6 336H408h6.6l4.7 4.7L446.6 368H450c8.7-15 15.7-31.1 20.7-48H448h-6.6l-4.7-4.7-48-48-4.7-4.7V256 176H352v32 16l-16 0-48 0v16 16H272 192 176V240 208v-6.6l4.7-4.7L249.4 128H224 208V112 80 73.4l4.7-4.7 32-32 1.1-1.1 1.3-.9 4-2.6C129.6 34.7 32 133.9 32 256c0 123.7 100.3 224 224 224c5.4 0 10.7-.2 16-.6zm32-4.6c50.6-11 94.8-39.2 126.2-78l-1.5-1.5L401.4 368H368h-6.6l-4.7-4.7L313.4 320H192v57.4L230.6 416H288h16v16 42.8zM477.7 288c1.5-10.5 2.3-21.1 2.3-32c0-108-76.4-198.2-178.2-219.3L266.2 60.4 240 86.6V96h32 16v16 16 6.6l-4.7 4.7L208 214.6V224h48V208 192l16 0 48 0V160 144h16 64 16v16 89.4L454.6 288h23.1zM0 256a256 256 0 1 1 512 0A256 256 0 1 1 0 256zM182.6 112l-11.3 11.3-32 32L128 166.6 105.4 144l11.3-11.3 32-32L160 89.4 182.6 112z"/></svg>