<svg xmlns="http://www.w3.org/2000/svg" viewBox="0 0 640 512"><!--! Font Awesome Pro 6.4.0 by @fontawesome - https://fontawesome.com License - https://fontawesome.com/license (Commercial License) Copyright 2023 Fonticons, Inc. --><path d="M208 0H192V16 34.7C101.2 49.9 32 128.9 32 224v40 0l0 58.4L3.5 358l25 20 32-40 3.5-4.4 0-5.6 0-64v0V224c0-77.4 55-142 128-156.8v44.5c0 58.2 44.7 106.8 102.7 111.6l8 .7 2.7-31.9-8-.7c-41.5-3.5-73.4-38.1-73.4-79.7V32h79.7c41.6 0 76.3 31.9 79.7 73.4l.7 8 31.9-2.7-.7-8c-1.1-13.1-4.4-25.5-9.5-36.9C466.1 76.2 512 128.7 512 192V319.8c13-.8 23.6-3.6 32-7.7V192c0-88.4-71.6-160-160-160h-2C361.8 12.1 334 0 303.7 0H208zM504 384c36.6 0 73.4-10.3 99.4-36.8l-22.9-22.4c-18 18.4-45.3 27.2-76.6 27.2c-20.5 0-35.4-3.6-48.6-11.7c-13.5-8.3-26.7-22.1-42.1-45.2L384 304V480H320V379.9 349.3l-25.2 17.5C279.3 377.6 260.4 384 240 384s-39.3-6.4-54.8-17.2L160 349.3v30.7V480H96V368 352H64v16V496v16H80h96 16V496 406.7c14.8 6 31 9.3 48 9.3s33.2-3.3 48-9.3V496v16h16 96 16V496 349.6c7.2 7.2 14.7 13.2 22.8 18.1c3 1.9 6.1 3.5 9.2 5v10.4c0 53.5 43.4 96.9 96.9 96.9c44.4 0 83.2-30.2 94-73.4l.7-2.7-31-7.8-.7 2.7c-7.2 28.9-33.2 49.1-62.9 49.1C509 448 480 419 480 383.1v-.8c7.7 1.1 15.6 1.7 24 1.7zM480 208a16 16 0 1 0 -32 0 16 16 0 1 0 32 0z"/></svg>