<svg xmlns="http://www.w3.org/2000/svg" viewBox="0 0 640 512"><!--! Font Awesome Pro 6.4.0 by @fontawesome - https://fontawesome.com License - https://fontawesome.com/license (Commercial License) Copyright 2023 Fonticons, Inc. --><path d="M416 96l-16 0-80 0v32h16 80l96 64V416v32H480 224l-51.2-64H128 96V352 272H88 32v80 16H0V352 160 144H32v16 80H88h8V160 128h32 32H288V96l-80 0H192V64h16H400h16V96zM304 160l-144 0H128V352h44.8 15.4l9.6 12 41.6 52H480V209.1L406.3 160H336l-32 0zm-88 72v48H168V232h48zm96 48H264V232h48v48zm48-48h48v48H360V232zm216-8V416h32V224H576zm-32-32h32 32 32v32V416v32H608 576 544V416 224 192z"/></svg>