<svg xmlns="http://www.w3.org/2000/svg" viewBox="0 0 512 512"><!--! Font Awesome Pro 6.4.0 by @fontawesome - https://fontawesome.com License - https://fontawesome.com/license (Commercial License) Copyright 2023 Fonticons, Inc. --><path d="M416 32H96V222.5L77.5 207.2c-4.2-3.4-8.7-6.3-13.5-8.6V32 0H96 416h32V32 198.6c-4.8 2.3-9.3 5.2-13.4 8.6L416 222.5V32zM256 414.8l-18.1-12.5L32 260.8V480H480V260.8L274.1 402.4 256 414.8zM480 222l32-22v38.8V480v32H480 32 0V480 238.8 200l32 22L256 376 480 222zM176 128H336h16v32H336 176 160V128h16zm0 96H336h16v32H336 176 160V224h16z"/></svg>