<svg xmlns="http://www.w3.org/2000/svg" viewBox="0 0 640 512"><!--! Font Awesome Pro 6.4.0 by @fontawesome - https://fontawesome.com License - https://fontawesome.com/license (Commercial License) Copyright 2023 Fonticons, Inc. --><path d="M96 32H416V64h32V32 0H416 96 64V32 192H96V32zM224 192V128H608V384H416v32H608h32V384 128 96H608 224 192v32 64h32zM32 256H352v20.8L192 389.9 32 276.8V256zm0 224V315.9L182.8 422.5l9.2 6.5 9.2-6.5L352 315.9V480H32zm0-256H0v32V480v32H32 352h32V480 256 224H352 32zm464-64H480v16 64 16h16 64 16V240 176 160H560 496zm16 64V192h32v32H512z"/></svg>