<svg xmlns="http://www.w3.org/2000/svg" viewBox="0 0 320 512"><!--! Font Awesome Pro 6.4.0 by @fontawesome - https://fontawesome.com License - https://fontawesome.com/license (Commercial License) Copyright 2023 Fonticons, Inc. --><path d="M34.3 224c-1.5 10.5-2.3 21.1-2.3 32s.8 21.5 2.3 32H0v32H41.3C68.8 412.5 154.5 480 256 480h49 16V448H305 256c-83.6 0-154.7-53.4-181.1-128H288V288H66.7c-1.7-10.4-2.7-21.1-2.7-32s.9-21.6 2.7-32H288V192H74.9C101.3 117.4 172.4 64 256 64h49 16V32H305 256C154.5 32 68.8 99.5 41.3 192H0v32H34.3z"/></svg>