<svg xmlns="http://www.w3.org/2000/svg" viewBox="0 0 512 512"><!--! Font Awesome Pro 6.4.0 by @fontawesome - https://fontawesome.com License - https://fontawesome.com/license (Commercial License) Copyright 2023 Fonticons, Inc. --><path d="M32 256C32 132.3 132.3 32 256 32s224 100.3 224 224c0 57.4-21.6 109.7-57 149.3l23.8 21.3C487.3 381.4 512 321.6 512 256C512 114.6 397.4 0 256 0S0 114.6 0 256c0 57.6 19.1 110.8 51.2 153.6l25.6-19.2C48.7 353 32 306.5 32 256zm296 1.4l9.4 9.4 3.9 3.9 9.4 9.4-11.3 11.3-4.7 4.7-6.6 6.6-4.7 4.7-33.4 33.4-22.6 22.6 9.4 9.4 22.6-22.6L321.4 328l11.3-11.3L344 305.4l13.3 13.3 9.4 9.4-9.4 9.4-1.9 1.9L344 350.6l-9.4 9.4-11.3 11.3-1.4 1.4-22.6 22.6 9.4 9.4L321.4 392l9.9-9.9 1.4-1.4L344 369.4l13.3 13.3 9.4 9.4-11.3 11.3L344 414.6l-12.7 12.7-22.6 22.6-2.2 2.2C288.7 470 264.4 480 239.2 480c-52.6 0-95.2-42.6-95.2-95.2V372 352 334.4v-12-20h8 21.7H176h8v20 12 3l6.1-6.1 8.9-8.9 13.7-13.7 3.3-3.3L257.4 264l11.3-11.3L280 241.4l9.4 9.4L302.6 264l-11.3 11.3L280 286.6l-22.1 22.1-22.6 22.6 9.4 9.4 22.6-22.6 33.4-33.4 4.7-4.7 6.6-6.6 4.7-4.7L328 257.4zm0-45.3l-16 16-9.4-9.4L280 196.1l-22.6 22.6-11.3 11.3-40.3 40.3H184 144 112v32 20V352v20 12.8C112 455.1 168.9 512 239.2 512c33.7 0 66.1-13.4 89.9-37.3l48.8-48.8 11.3-11.3L411.9 392l-22.6-22.6-9.4-9.4 9.4-9.4L411.9 328l-22.6-22.6-9.4-9.4 16-16-22.6-22.6-22.6-22.6L328 212.1zm-97.5-89.6l-20-25-12.5 10-80 64-12.5 10 20 25 12.5-10 80-64 12.5-10zm63.5 10l80 64 12.5 10 20-25-12.5-10-80-64-12.5-10-20 25 12.5 10z"/></svg>