<svg xmlns="http://www.w3.org/2000/svg" viewBox="0 0 512 512"><!--! Font Awesome Pro 6.4.0 by @fontawesome - https://fontawesome.com License - https://fontawesome.com/license (Commercial License) Copyright 2023 Fonticons, Inc. --><path d="M256 32a224 224 0 1 0 0 448 224 224 0 1 0 0-448zM512 256A256 256 0 1 1 0 256a256 256 0 1 1 512 0zM144 320v48h32V320H144zm64 0v48h32V320H208zm96 48V320H272v48h32zm32 0h32V320H336v48zM144 288H368h32v32 48 32H368 144 112V368 320 288h32zm8.4-80a24 24 0 1 1 48 0 24 24 0 1 1 -48 0zm184-24a24 24 0 1 1 0 48 24 24 0 1 1 0-48z"/></svg>