<svg xmlns="http://www.w3.org/2000/svg" viewBox="0 0 640 512"><!--! Font Awesome Pro 6.4.0 by @fontawesome - https://fontawesome.com License - https://fontawesome.com/license (Commercial License) Copyright 2023 Fonticons, Inc. --><path d="M320 32c66.3 0 125.9 28.8 167 74.7l23.8-21.3C464 33 395.8 0 320 0C262.4 0 209.2 19.1 166.4 51.2l19.2 25.6C223 48.7 269.6 32 320 32zM130.5 375.5l-27.1 17.1C148.7 464.3 228.8 512 320 512c65.6 0 125.4-24.7 170.7-65.2L469.3 423c-39.6 35.5-91.9 57-149.3 57c-79.8 0-149.8-41.7-189.5-104.5zM360 254.7v32 24h16v16 24h24 16v16.9 24h24 80.8c31.6 0 61.9-12.6 84.3-34.9c46.2-46.2 46.5-120.9 1-167.6l-1.3-1.3-1.5-1.1-60.9-45.9L518.8 123l-12.6 26.8-11.7 24.9-47.7-32.8-19.4-13.3-13.7 19.2-18.6 26-13.5 18.9c-1.8-.4-3.7-.7-5.7-.7c-13.3 0-24 10.7-24 24c0 7.1 3.1 13.5 8 17.9v20.8zm35-24c3.2-4.1 5-9.2 5-14.7c0-4.1-1-7.9-2.8-11.3l3.6 2.5 32.8 23.5-38.6 0zM280 392c0-4.5 2.5-10.2 9.7-15.3c7.1-5.1 17.8-8.7 30.3-8.7s23.2 3.6 30.3 8.7c7.2 5.1 9.7 10.7 9.7 15.3s-2.5 10.2-9.7 15.3c-7.1 5.1-17.8 8.7-30.3 8.7s-23.2-3.6-30.3-8.7c-7.2-5.1-9.7-10.7-9.7-15.3zm40-56c-18.4 0-35.8 5.3-48.9 14.7C258 360.1 248 374.4 248 392s10 31.9 23.1 41.3c13.1 9.4 30.5 14.7 48.9 14.7s35.8-5.3 48.9-14.7C382 423.9 392 409.6 392 392s-10-31.9-23.1-41.3C355.8 341.3 338.4 336 320 336zm4-112c0-30.4 20-56.2 47.6-64.9l-7.2-22.9C327.1 147.9 300 182.8 300 224c0 20.7 6.8 39.8 18.4 55.2l19.2-14.4C329.1 253.4 324 239.3 324 224zm223.6-49.2l41.3 31.1c36.4 37.2 36.1 96.9-.8 133.8c-17.9 17.9-42.1 27.9-67.3 27.9H464 440v-8-8.9-7.1-8h16 8 16v-8.9H456 440l-16 0h-8H400v-8-8-16h24 32 24v-8H456 408h-8H384v-8-8-8-8h24l59.2 0h.2 15.3 8.7V242.5l-16.6-11.8-40.6-29-19.5-13.9 13.9-19.5 4.6-6.5 66.6 45.7 21.6 14.8 12.4 8.5 11.6 8V219.1l-30.2-30.2-.6-.6 2.9-6.1L528 160l19.6 14.8zM264 174.7v-24H240 156.8l1.5-1.5 17-17-17-17L129.9 87l-17-17L96 87 34.9 148.1l0 0-.8 .8 0 0-.1 .2c-45.5 46.6-45.2 121.3 1 167.6c22.4 22.4 52.7 34.9 84.3 34.9H192h24v-24V310.7h24.3 24.2l-.2-24.2-.2-15.8H280v-24-32-24H264v-16zM118.2 155.4l-5.7 5.7L98.8 174.7h19.3 8 6.6H216h24v8 8 8 8H216 184 160v8h24 48 8 16v8 8 8 8H240h-8l-48 0H160v8h24 56l.1 8 .1 8 .2 16h-24H216 192h-8H160v8.9h8 16 8v8 7.1l0 8.9 0 8H168 119.2c-25.2 0-49.5-10-67.3-27.9c-36.9-36.9-37.2-96.6-.8-133.8l.8-.8L96 121l17-17 11.3 11.3 5.7 5.7 11.3 11.3-17 17-1.5 1.5-4.7 4.7z"/></svg>