<svg xmlns="http://www.w3.org/2000/svg" viewBox="0 0 512 512"><!--! Font Awesome Pro 6.4.0 by @fontawesome - https://fontawesome.com License - https://fontawesome.com/license (Commercial License) Copyright 2023 Fonticons, Inc. --><path d="M128 96a32 32 0 1 0 0-64 32 32 0 1 0 0 64zm0-96a64 64 0 1 1 0 128A64 64 0 1 1 128 0zM88.1 192L42.4 352H144v32H96V496v16H64V496 384H33.3 0l9.1-32L64 160H171.3c-2.2 7.6-3.3 15.7-3.3 24c0 3.6 .2 7.2 .7 10.8l-.8-2.8H88.1zm88 29.1c.5 1 .9 2 1.4 2.9H177l-.8-2.9zM340.7 160H448l54.9 192 9.1 32H478.7 448V496v16H416V496 384H368V352H469.6L423.9 192H344.1l-.8 2.8c.4-3.5 .7-7.1 .7-10.8c0-8.3-1.2-16.4-3.3-24zm-4.9 61.1L335 224h-.6c.5-1 1-1.9 1.4-2.9zM384 96a32 32 0 1 0 0-64 32 32 0 1 0 0 64zm0-96a64 64 0 1 1 0 128A64 64 0 1 1 384 0zM256 208a24 24 0 1 0 0-48 24 24 0 1 0 0 48zm0-80a56 56 0 1 1 0 112 56 56 0 1 1 0-112zm48 160H208v96h32 32 32V288zM208 416H176V384 288 256h32 96 32v32 96 32H304v80 16H272V496 416H240v80 16H208V496 416z"/></svg>