<svg xmlns="http://www.w3.org/2000/svg" viewBox="0 0 512 512"><!--! Font Awesome Pro 6.4.0 by @fontawesome - https://fontawesome.com License - https://fontawesome.com/license (Commercial License) Copyright 2023 Fonticons, Inc. --><path d="M128 32a32 32 0 1 1 0 64 32 32 0 1 1 0-64zm0 96A64 64 0 1 0 128 0a64 64 0 1 0 0 128zM62.7 192H168.4c-.2-2.6-.4-5.3-.4-8c0-8.3 1.2-16.4 3.3-24H32L25.3 320 24 352H56h8V496v16H96V496 352h48V320H96 64 57.4l5.3-128zM368 384h48V496v16h32V496 384h30.7H512l-9.1-32L448 160H340.7c2.2 7.6 3.3 15.7 3.3 24c0 3.6-.2 7.2-.7 10.8l.8-2.8h79.7l45.7 160H368v32zM335 224l.8-2.9c-.5 1-.9 2-1.4 2.9h.6zM384 32a32 32 0 1 1 0 64 32 32 0 1 1 0-64zm0 96A64 64 0 1 0 384 0a64 64 0 1 0 0 128zM256 160a24 24 0 1 1 0 48 24 24 0 1 1 0-48zm0 80a56 56 0 1 0 0-112 56 56 0 1 0 0 112zm48 48v96H272 240 208V288h96zM208 416v80 16h32V496 416h32v80 16h32V496 416h32V384 288 256H304 208 176v32 96 32h32z"/></svg>