<svg xmlns="http://www.w3.org/2000/svg" viewBox="0 0 512 512"><!--! Font Awesome Pro 6.4.0 by @fontawesome - https://fontawesome.com License - https://fontawesome.com/license (Commercial License) Copyright 2023 Fonticons, Inc. --><path d="M128 0h16H408h6.6l4.7 4.7 56 56 4.7 4.7V72v88H448V78.6L401.4 32H160v96 32 32H496h16v16V496v16H496 160 128 96 32 0V480 160 128H32h96V16 0zM480 224H160V480H480V224zm-352 0V208 160H32V480H96h32V224zM296 376v48H248V376h48zm-48-96h48v48H248V280zm144 0v48H344V280h48zm-48 96h48v48H344V376z"/></svg>