<svg xmlns="http://www.w3.org/2000/svg" viewBox="0 0 512 512"><!--! Font Awesome Pro 6.4.0 by @fontawesome - https://fontawesome.com License - https://fontawesome.com/license (Commercial License) Copyright 2023 Fonticons, Inc. --><path d="M240 32V48c0 8.8 7.2 16 16 16s16-7.2 16-16V32H240zM211.8 66.7C193.3 71 176 78 160 87.2V96v16c0 7.4-1.7 14.4-4.7 20.7l68.2 68.2c5.1-3 10.6-5.3 16.5-6.8V93.3c-12.7-4.5-23-14.2-28.2-26.6zM272 194c5.9 1.5 11.4 3.8 16.5 6.8l68.2-68.2c-3-6.3-4.7-13.3-4.7-20.7V96 87.2C336 78 318.7 71 300.2 66.7C295 79 284.7 88.8 272 93.3V194zm39.1 29.5c3 5.1 5.3 10.6 6.8 16.5h98V208h26.6c-4.6-18.8-11.9-36.6-21.6-52.8c-6.3 3.1-13.4 4.8-20.9 4.8c-7.4 0-14.4-1.7-20.7-4.7l-68.2 68.2zM418.7 272H318c-5 19.3-18.7 35.1-36.8 42.8L352 480v32H320 192 160V480l70.8-165.2c-18-7.7-31.8-23.5-36.8-42.8H93.3c-4.2 11.8-12.8 21.5-23.9 27c4.6 18.9 12 36.8 21.7 53H96h32 32v32 16c0 26.5-21.5 48-48 48s-48-21.5-48-48V384 369c-12.2-20.2-21.2-42.5-26.6-66.2C16 298 0 278.9 0 256V240 208H32h4.6c5.7-27.7 16.6-53.6 31.5-76.5c-2.7-6-4.1-12.6-4.1-19.5V96 64H96h32 8.6c21.6-13.6 45.7-23.7 71.4-29.3V32 0h32 32 32V32v2.7c25.7 5.6 49.8 15.7 71.4 29.3H384h32 32V96v16c0 6.9-1.5 13.6-4.1 19.5c14.9 22.9 25.8 48.8 31.5 76.5H480h32v32 16c0 22.9-16 42-37.4 46.8c-5.3 23.7-14.4 46-26.6 66.2v15 16c0 26.5-21.5 48-48 48s-48-21.5-48-48V384 352h32 32 4.9c9.7-16.3 17.1-34.1 21.7-53c-11.1-5.5-19.7-15.2-23.9-27zM194 240c1.5-5.9 3.8-11.4 6.8-16.5l-68.2-68.2c-6.3 3-13.3 4.7-20.7 4.7c-7.5 0-14.6-1.7-20.9-4.8c-9.7 16.2-17 34-21.6 52.8H96v32h98zM64 256V240H32v16c0 8.8 7.2 16 16 16s16-7.2 16-16zm384-16v16c0 8.8 7.2 16 16 16s16-7.2 16-16V240H448zM96 96v16c0 8.8 7.2 16 16 16s16-7.2 16-16V96H96zm320 0H384v16c0 8.8 7.2 16 16 16s16-7.2 16-16V96zM96 400c0 8.8 7.2 16 16 16s16-7.2 16-16V384H96v16zm288-16v16c0 8.8 7.2 16 16 16s16-7.2 16-16V384H384zM256 337.2L194.8 480H317.2L256 337.2zm0-49.2a32 32 0 1 0 0-64 32 32 0 1 0 0 64z"/></svg>