<svg xmlns="http://www.w3.org/2000/svg" viewBox="0 0 512 512"><!--! Font Awesome Pro 6.4.0 by @fontawesome - https://fontawesome.com License - https://fontawesome.com/license (Commercial License) Copyright 2023 Fonticons, Inc. --><path d="M484 131.9L520 79 414 7.1l-35.9 53-45.7 67.4-2.8 3.8 .2 .1L164.4 375.2c-3.6 5.4-9.7 8.6-16.1 8.6c-10.9 0-19.7-8.8-19.6-19.7l0-2.6c0-4.2 1.3-8.4 3.6-11.9L149.6 323l35-53.6-107.2-70L42.4 253 25.1 279.5C9.3 303.6 .8 331.8 .6 360.5l0 2.6C0 445.2 66.5 512 148.6 511.8c48.8-.1 94.3-24.4 121.7-64.7L484 131.9zM404.6 78l18-26.5 53 35.9-18 26.5-32.9 48.5L373.4 124l31.2-46zM190.9 393.1L355.4 150.6l51 38.2 .3 .2L243.8 429.1c-21.4 31.6-57.1 50.6-95.3 50.7c-64.3 .2-116.4-52.1-115.9-116.4l0-2.6c.2-22.6 6.8-44.8 19.2-63.7l17.3-26.5 17.5-26.8 53.6 35-17.5 26.8L105.4 332c-5.7 8.7-8.7 18.8-8.8 29.2l0 2.6c-.2 28.7 23 52 51.7 51.9c17-.1 33-8.5 42.5-22.6zM384 432a48 48 0 1 1 96 0 48 48 0 1 1 -96 0zm128 0a80 80 0 1 0 -160 0 80 80 0 1 0 160 0z"/></svg>