<svg xmlns="http://www.w3.org/2000/svg" viewBox="0 0 384 512"><!--! Font Awesome Pro 6.4.0 by @fontawesome - https://fontawesome.com License - https://fontawesome.com/license (Commercial License) Copyright 2023 Fonticons, Inc. --><path d="M352 480H32V32H192V176v16h16H352V480zM224 37.3L346.7 160H224V37.3zM232 0H32 0V32 480v32H32 352h32V480 152L232 0zM208 400V278.6l52.7 52.7L272 342.6 294.6 320l-11.3-11.3-80-80L192 217.4l-11.3 11.3-80 80L89.4 320 112 342.6l11.3-11.3L176 278.6V400v16h32V400z"/></svg>