<svg xmlns="http://www.w3.org/2000/svg" viewBox="0 0 384 512"><!--! Font Awesome Pro 6.4.0 by @fontawesome - https://fontawesome.com License - https://fontawesome.com/license (Commercial License) Copyright 2023 Fonticons, Inc. --><path d="M352 480H32V32H192V176v16h16H352V480zM224 37.3L346.7 160H224V37.3zM232 0H32 0V32 480v32H32 352h32V480 152L232 0zM176 216v16 96 16h16 96 16V328c0-61.9-50.1-112-112-112H176zm32 33.6c31.3 6.4 56 31.1 62.4 62.4H208V249.6zm-56-21C105.7 242.4 72 285.3 72 336c0 61.9 50.1 112 112 112c50.7 0 93.6-33.7 107.4-80h-34c-12.3 28.3-40.5 48-73.3 48c-44.2 0-80-35.8-80-80c0-32.8 19.7-61 48-73.3v-34z"/></svg>