<svg xmlns="http://www.w3.org/2000/svg" viewBox="0 0 384 512"><!--! Font Awesome Pro 6.4.0 by @fontawesome - https://fontawesome.com License - https://fontawesome.com/license (Commercial License) Copyright 2023 Fonticons, Inc. --><path d="M352 480H32V32H192V176v16h16H352V480zM224 37.3L346.7 160H224V37.3zM232 0H32 0V32 480v32H32 352h32V480 152L232 0zM176 256v32H96V256h80zM96 320h80v32H96V320zm112 0h80v32H208V320zM96 384h80v32H96V384zm112 0h80v32H208V384zm-16 64h16 80 32V416 384 368 352 320 304 288 256 224H288 208 192 176 96 64v32 32 16 16 32 16 16 32 32H96h80 16zm16-160V256h80v32H208z"/></svg>