<svg xmlns="http://www.w3.org/2000/svg" viewBox="0 0 384 512"><!--! Font Awesome Pro 6.4.0 by @fontawesome - https://fontawesome.com License - https://fontawesome.com/license (Commercial License) Copyright 2023 Fonticons, Inc. --><path d="M352 480H32V32H192V176v16h16H352V480zM224 37.3L346.7 160H224V37.3zM232 0H32 0V32 480v32H32 352h32V480 152L232 0zm22.2 447.9C293.4 426.1 320 384.1 320 336s-26.6-90.1-65.8-111.9l-15.5 28C268.1 268.5 288 299.9 288 336s-19.9 67.5-49.4 83.9l15.5 28zm-31.1-56C242.7 381 256 360.1 256 336s-13.3-45-32.9-56l-15.5 28c9.8 5.5 16.5 15.9 16.5 28s-6.6 22.5-16.5 28l15.5 28zm-91.5-40H120 96V320h24 11.6l8.9-7.4L160 296.3v79.4l-19.5-16.3-8.9-7.4zM96 384h24l40 33.3 8 6.7h24V392 280 248H168l-8 6.7L120 288H96 64v32 32 32H96z"/></svg>