<svg xmlns="http://www.w3.org/2000/svg" viewBox="0 0 384 512"><!--! Font Awesome Pro 6.4.0 by @fontawesome - https://fontawesome.com License - https://fontawesome.com/license (Commercial License) Copyright 2023 Fonticons, Inc. --><path d="M32 480V32H192V176v16h16H352V480H32zM224 37.3L346.7 160H224V37.3zM232 0H32 0V32 480v32H32 352h32V480 152L232 0zM64 64V96H80h64 16V64H144 80 64zm0 64v32H80h64 16V128H144 80 64zM224 448h16 64 16V416H304 240 224v32zm64-112H96V272H288v64zM96 240H64v32 64 32H96 288h32V336 272 240H288 96z"/></svg>