<svg xmlns="http://www.w3.org/2000/svg" viewBox="0 0 384 512"><!--! Font Awesome Pro 6.4.0 by @fontawesome - https://fontawesome.com License - https://fontawesome.com/license (Commercial License) Copyright 2023 Fonticons, Inc. --><path d="M352 480H32V32H192V176v16h16H352V480zM224 37.3L346.7 160H224V37.3zM232 0H32 0V32 480v32H32 352h32V480 152L232 0zm46.7 240H239.7L192 308.1 144.3 240H105.3l3.6 5.2L172.5 336l-63.6 90.8-3.6 5.2h39.1L192 363.9 239.7 432h39.1l-3.6-5.2L211.5 336l63.6-90.8 3.6-5.2z"/></svg>