<svg xmlns="http://www.w3.org/2000/svg" viewBox="0 0 384 512"><!--! Font Awesome Pro 6.4.0 by @fontawesome - https://fontawesome.com License - https://fontawesome.com/license (Commercial License) Copyright 2023 Fonticons, Inc. --><path d="M352 480H32V32H192V176v16h16H352V480zM224 37.3L346.7 160H224V37.3zM232 0H32 0V32 480v32H32 352h32V480 152L232 0zM160 224H144v16 48H96 80v16 64 16H96h48v48 16h16 64 16V432 384h48 16V368 304 288H288 240V240 224H224 160zm16 80V256h32v48 16h16 48v32H224 208v16 48H176V368 352H160 112V320h48 16V304z"/></svg>