<svg xmlns="http://www.w3.org/2000/svg" viewBox="0 0 384 512"><!--! Font Awesome Pro 6.4.0 by @fontawesome - https://fontawesome.com License - https://fontawesome.com/license (Commercial License) Copyright 2023 Fonticons, Inc. --><path d="M352 480H32V32H192V176v16h16H352V480zM224 37.3L346.7 160H224V37.3zM232 0H32 0V32 480v32H32 352h32V480 152L232 0zM120 256a24 24 0 1 0 -48 0 24 24 0 1 0 48 0zm104.4 2.5l-13.7 20.6-37.2 55.8-18.2-18.2-13.2-13.2-11 15.1-64 88L64 410.8V416v16 16H80 304h16V432 416v-4.6l-2.4-3.9-80-128-13.1-21zm-.9 59L285.1 416H99.8l46.1-63.4 18.8 18.8 13.8 13.8 10.8-16.2 34.3-51.4z"/></svg>