<svg xmlns="http://www.w3.org/2000/svg" viewBox="0 0 384 512"><!--! Font Awesome Pro 6.4.0 by @fontawesome - https://fontawesome.com License - https://fontawesome.com/license (Commercial License) Copyright 2023 Fonticons, Inc. --><path d="M352 480H32V32H192V176v16h16H352V480zM224 37.3L346.7 160H224V37.3zM232 0H32 0V32 480v32H32 352h32V480 152L232 0zM127.4 248.8l-22.6 22.6 11.3 11.3L169.4 336l-53.3 53.3-11.3 11.3 22.6 22.6 11.3-11.3L192 358.6l53.3 53.3 11.3 11.3 22.6-22.6-11.3-11.3L214.6 336l53.3-53.3 11.3-11.3-22.6-22.6-11.3 11.3L192 313.4l-53.3-53.3-11.3-11.3z"/></svg>