<svg xmlns="http://www.w3.org/2000/svg" viewBox="0 0 384 512"><!--! Font Awesome Pro 6.4.0 by @fontawesome - https://fontawesome.com License - https://fontawesome.com/license (Commercial License) Copyright 2023 Fonticons, Inc. --><path d="M352 480H32V32H192V176v16h16H352V480zM224 37.3L346.7 160H224V37.3zM232 0H32 0V32 480v32H32 352h32V480 152L232 0zM208 288v13.2V312v48 10.8V384H96V288H208zm32 96v-.4l58.1 23.2 21.9 8.8V392 280 256.4l-21.9 8.8L240 288.4V288 256H208 96 64v32 96 32H96 208h32V384zm48-15.6l-48-19.2V322.8l48-19.2v64.7z"/></svg>