<svg xmlns="http://www.w3.org/2000/svg" viewBox="0 0 384 512"><!--! Font Awesome Pro 6.4.0 by @fontawesome - https://fontawesome.com License - https://fontawesome.com/license (Commercial License) Copyright 2023 Fonticons, Inc. --><path d="M352 480H32V32H192V176v16h16H352V480zM224 37.3L346.7 160H224V37.3zM232 0H32 0V32 480v32H32 352h32V480 152L232 0zM170.1 296.5L192 316.9l21.9-20.4 5.2-4.8c4.3-4 10-6.3 15.9-6.3h3.5c10.9 0 19.8 8.9 19.8 19.8c0 5.5-2.3 10.7-6.3 14.4l-60 56.1-60-56.1c-4-3.7-6.3-9-6.3-14.4c0-10.9 8.9-19.8 19.8-19.8H149c5.9 0 11.6 2.2 15.9 6.3l5.2 4.8zm-76.4 8.7c0 14.3 5.9 28 16.4 37.8l70.9 66.4L192 419.5l10.9-10.2 70.9-66.4c10.5-9.8 16.4-23.5 16.4-37.8c0-28.6-23.2-51.8-51.8-51.8H235c-14 0-27.5 5.3-37.8 14.9l-5.2 4.8-5.2-4.8c-10.3-9.6-23.8-14.9-37.8-14.9h-3.5c-28.6 0-51.8 23.2-51.8 51.8z"/></svg>