<svg xmlns="http://www.w3.org/2000/svg" viewBox="0 0 640 512"><!--! Font Awesome Pro 6.4.0 by @fontawesome - https://fontawesome.com License - https://fontawesome.com/license (Commercial License) Copyright 2023 Fonticons, Inc. --><path d="M480 192v64h32V144L368 0H160 128V32 256h32V32H320V176v16h16H480zM160 480V352H128V480v32h32H480h32V480 352H480V480H160zM480 160H352V32h2.7L480 157.3V160zM48 288H32v32H48 176h16V288H176 48zm224 0H256v32h16 96 16V288H368 272zm192 0H448v32h16H592h16V288H592 464z"/></svg>