<svg xmlns="http://www.w3.org/2000/svg" viewBox="0 0 448 512"><!--! Font Awesome Pro 6.4.0 by @fontawesome - https://fontawesome.com License - https://fontawesome.com/license (Commercial License) Copyright 2023 Fonticons, Inc. --><path d="M416 192V480H96V384H64v96 32H96 416h32V480 152L296 0H96 64V32 288H96V32H256V176v16h16H416zm-5.3-32H288V37.3L410.7 160zM270.3 264.8L256 236.2l-14.3 28.6L189.3 369.7l-32.5-43.3L152 320h-8H16 0v32H16 136l43.2 57.6 15.5 20.7 11.6-23.2L256 307.8l17.7 35.4 4.4 8.8H288h64 16V320H352 297.9l-27.6-55.2z"/></svg>