<svg xmlns="http://www.w3.org/2000/svg" viewBox="0 0 384 512"><!--! Font Awesome Pro 6.4.0 by @fontawesome - https://fontawesome.com License - https://fontawesome.com/license (Commercial License) Copyright 2023 Fonticons, Inc. --><path d="M352 480H32V32H192V176v16h16H352V480zM224 37.3L346.7 160H224V37.3zM232 0H32 0V32 480v32H32 352h32V480 152L232 0zM176 256a64 64 0 1 1 0 128 64 64 0 1 1 0-128zm0 160c20.7 0 39.9-6.5 55.5-17.7l45.1 45.1L288 454.8l22.6-22.6-11.3-11.3-45.1-45.1C265.4 360 272 340.8 272 320c0-53-43-96-96-96s-96 43-96 96s43 96 96 96z"/></svg>