<svg xmlns="http://www.w3.org/2000/svg" viewBox="0 0 512 512"><!--! Font Awesome Pro 6.4.0 by @fontawesome - https://fontawesome.com License - https://fontawesome.com/license (Commercial License) Copyright 2023 Fonticons, Inc. --><path d="M480 192V480H224v32 0H480h32V480 152L360 0H160 128V32 134.7l23.6-9.7 8.4-3.4V32H320V176v16h16H480zm-5.3-32H352V37.3L474.7 160zM128 177.9L94.9 164.4 73 192.7l-35.5 4.8L32.7 233 4.4 254.9 17.9 288 4.4 321.1 32.7 343l4.8 35.5L64 382.1v94.1V512l32-16 32-16 32 16 32 16V476.2 382.1l26.5-3.6 4.8-35.5 28.3-21.9L238.1 288l13.6-33.1L223.3 233l-4.8-35.5L183 192.7l-21.9-28.3L128 177.9zm32 233.3v49.1l-17.7-8.8L128 444.2l-14.3 7.2L96 460.2V411.2l32-13.1 32 13.1zm-9.3-208l7 9.1 8 10.4 13 1.8 11.4 1.5 1.5 11.4 1.8 13 10.4 8 9.1 7-4.3 10.6-5 12.1 5 12.1 4.3 10.6-9.1 7-10.4 8-1.8 13-1.5 11.4-11.4 1.5-13 1.8-8 10.4-7 9.1-10.6-4.3-12.1-5-12.1 5-10.6 4.3-7-9.1-8-10.4-13-1.8-11.4-1.5-1.5-11.4-1.8-13-10.4-8-9.1-7 4.3-10.6 5-12.1-5-12.1-4.3-10.6 9.1-7 10.4-8 1.8-13 1.5-11.4 11.4-1.5 13-1.8 8-10.4 7-9.1 10.6 4.3 12.1 5 12.1-5 10.6-4.3z"/></svg>