<svg xmlns="http://www.w3.org/2000/svg" viewBox="0 0 640 512"><!--! Font Awesome Pro 6.4.0 by @fontawesome - https://fontawesome.com License - https://fontawesome.com/license (Commercial License) Copyright 2023 Fonticons, Inc. --><path d="M40.4 18L27.8 8.1 8.1 33.4l12.6 9.8L599.8 494.3l12.6 9.8 19.7-25.2L619.5 469 40.4 18zm460 462L448 438.6V448H192V352 256 240H160 96V176 160.7L64 135.4V448v32H96 500.4zM139.6 32L192 73.4V64H448v96 96 16h32 64v64 15.3l32 25.3V64 32H544 139.6zM160 448H96V368h64v80zM96 336V272h64v64H96zM480 176h64v64H480V176zm64-32H480V64h64v80z"/></svg>