<svg xmlns="http://www.w3.org/2000/svg" viewBox="0 0 384 512"><!--! Font Awesome Pro 6.4.0 by @fontawesome - https://fontawesome.com License - https://fontawesome.com/license (Commercial License) Copyright 2023 Fonticons, Inc. --><path d="M208 0V16 33c57.9 7.2 103.8 53.1 111 111h17 16v32H336 48 32V144H48 65C72.2 86.1 118.1 40.2 176 33V16 0h32zM192 64c-47.6 0-87.1 34.6-94.7 80H286.7c-7.6-45.4-47.1-80-94.7-80zM32 480H48 64V400H16 0V384 256 240H16 64V208H96v48V384v96H288V384 256 208h32v32h48 16v16V384v16H368 320v80h16 16v32H336 304 80 48 32V480zM64 368V272H32v96H64zm160-48a32 32 0 1 0 -64 0 32 32 0 1 0 64 0zm128 48V272H320v96h32zM128 320a64 64 0 1 1 128 0 64 64 0 1 1 -128 0z"/></svg>