<svg xmlns="http://www.w3.org/2000/svg" viewBox="0 0 448 512"><!--! Font Awesome Pro 6.4.0 by @fontawesome - https://fontawesome.com License - https://fontawesome.com/license (Commercial License) Copyright 2023 Fonticons, Inc. --><path d="M272 0h-2.4l-2.3 .7-208 64L48 68.2V80 288H32 0v32V480v32H32 96h32V480 320 288H96 80V91.8L274.4 32H320V136v16h32V136 16 0H336 272zm71.2 177.7l-7.2-3.6-7.2 3.6c-17.9 8.9-43.7 27.1-65.2 53.4C242 257.5 224 292.9 224 336c0 33.2 14.9 80.2 57.1 115L259.5 478l-3.5 4.4V488v8 16h16H400h16V496v-8-5.6l-3.5-4.4L390.9 451c42.3-34.8 57.1-81.7 57.1-115c0-43.1-18-78.5-39.6-104.9c-21.5-26.3-47.4-44.4-65.2-53.4zM256 336c0-33.7 14-62.3 32.4-84.7c15.6-19 33.8-33 47.6-41.1c13.8 8.1 32 22.1 47.6 41.1C402 273.7 416 302.3 416 336c0 27.3-13.9 70-56.9 98.7l-14.5 9.7L355.5 458l17.6 22H298.9l17.6-22 10.9-13.6-14.5-9.7C269.9 406 256 363.3 256 336zM32 320H96V480H32V320zm352-8a24 24 0 1 0 -48 0 24 24 0 1 0 48 0z"/></svg>