<svg xmlns="http://www.w3.org/2000/svg" viewBox="0 0 448 512"><!--! Font Awesome Pro 6.4.0 by @fontawesome - https://fontawesome.com License - https://fontawesome.com/license (Commercial License) Copyright 2023 Fonticons, Inc. --><path d="M32 16V0H0V16 64 367v33 96 16H32V496 392l96.3-24.1c41.1-10.3 84.6-5.5 122.5 13.4c44.2 22.1 95.5 24.8 141.7 7.4L448 368V51.8 16L416 32 393.6 43.2c-46.3 23.2-100.8 23.2-147.1 0c-35.1-17.6-75.4-22-113.5-12.5L32 56V16zm0 73L140.7 61.8c30.7-7.7 63.1-4.1 91.4 10c55.3 27.7 120.4 27.7 175.8 0l8.1-4.1v278l-34.7 13c-37.9 14.2-80 12-116.2-6.1c-44.7-22.4-96-28-144.5-15.9L32 359V89z"/></svg>