<svg xmlns="http://www.w3.org/2000/svg" viewBox="0 0 576 512"><!--! Font Awesome Pro 6.4.0 by @fontawesome - https://fontawesome.com License - https://fontawesome.com/license (Commercial License) Copyright 2023 Fonticons, Inc. --><path d="M32 480H0V448 64 32H32 336L448 144v48.7c-5.3-.5-10.6-.7-16-.7s-10.7 .2-16 .7V157.3L322.7 64H320V176v16H304 80 64V176 64H32V448H275.2c5.9 11.4 12.9 22.2 21 32H32zM224 240c25.1 0 47.4 11.5 62.1 29.5c-6.9 10.2-12.8 21.2-17.4 32.8c-7-17.8-24.4-30.4-44.7-30.4c-26.5 0-48 21.5-48 48s21.5 48 48 48c12.5 0 23.9-4.8 32.4-12.6c-.3 4.2-.4 8.4-.4 12.6c0 8.3 .6 16.5 1.7 24.6C247.5 397.3 236 400 224 400c-44.2 0-80-35.8-80-80s35.8-80 80-80zM96 64v96H288V64H96zM544 368a112 112 0 1 0 -224 0 112 112 0 1 0 224 0zm-256 0a144 144 0 1 1 288 0 144 144 0 1 1 -288 0zm203.3-36.7L454.6 368l36.7 36.7L502.6 416 480 438.6l-11.3-11.3L432 390.6l-36.7 36.7L384 438.6 361.4 416l11.3-11.3L409.4 368l-36.7-36.7L361.4 320 384 297.4l11.3 11.3L432 345.4l36.7-36.7L480 297.4 502.6 320l-11.3 11.3z"/></svg>