<svg xmlns="http://www.w3.org/2000/svg" viewBox="0 0 576 512"><!--! Font Awesome Pro 6.4.0 by @fontawesome - https://fontawesome.com License - https://fontawesome.com/license (Commercial License) Copyright 2023 Fonticons, Inc. --><path d="M32 480H0V448 64 32H32 336L448 144v76.9l-32 32V157.3L322.7 64H320V176v16H304 80 64V176 64H32V448H263.7l-5 32H32zM96 64v96H288V64H96zm80 256a48 48 0 1 0 96 0 48 48 0 1 0 -96 0zm48 80a80 80 0 1 1 0-160 80 80 0 1 1 0 160zM489.3 269.4l-22.8 22.8L508 333.6l22.8-22.8-41.5-41.5zM334 424.7l-7.7 49.1 49.1-7.7L485.4 356.2l-41.5-41.5L334 424.7zM553.4 288.2L576 310.8l-22.6 22.6L390.7 496.1 321.2 507 288 512.1l5.2-33.2L304 409.4 489.3 224.1l64.1 64.1z"/></svg>