<svg xmlns="http://www.w3.org/2000/svg" viewBox="0 0 448 512"><!--! Font Awesome Pro 6.4.0 by @fontawesome - https://fontawesome.com License - https://fontawesome.com/license (Commercial License) Copyright 2023 Fonticons, Inc. --><path d="M416 64V448H32V64H416zM32 32H0V64 448v32H32 416h32V448 64 32H416 32zM292.7 255.2c3.7 .5 7.5 .8 11.3 .8c44.2 0 80-35.8 80-80s-35.8-80-80-80s-80 35.8-80 80c0-44.2-35.8-80-80-80s-80 35.8-80 80s35.8 80 80 80c3.8 0 7.6-.3 11.3-.8L86.1 185.9l67.9-67.9L224 188.1l70.1-70.1 67.9 67.9-69.3 69.3zM173.8 273.7C155.6 288.4 144 310.8 144 336c0 44.2 35.8 80 80 80s80-35.8 80-80c0-25.2-11.6-47.6-29.8-62.3l-2.2 2.2V368H224 176V275.9l-2.2-2.2zm-41.1-86.4L208 262.6V336h32V262.6l75.3-75.3-22.6-22.6L224 233.4l-68.7-68.7-22.6 22.6z"/></svg>