<svg xmlns="http://www.w3.org/2000/svg" viewBox="0 0 512 512"><!--! Font Awesome Pro 6.4.0 by @fontawesome - https://fontawesome.com License - https://fontawesome.com/license (Commercial License) Copyright 2023 Fonticons, Inc. --><path d="M32 32H224l48 64H480h32v32V448v32H480 32 0V448 64 32H32zm240 96H256l-9.6-12.8L208 64H32V448H480V128H272zm-64 40h16 64 16v16 20.8c.8 .5 1.6 1 2.4 1.4l15-8.1 13.7-7.4 7.8 13.5 32 55.4 8.2 14.3-14.5 7.8L357.1 288l11.5 6.2 14.5 7.8-8.2 14.3-32 55.4-7.8 13.5-13.7-7.4-15-8.1c-.8 .5-1.6 1-2.4 1.4V392v16H288 224 208V392 371.2c-.8-.5-1.6-1-2.4-1.4l-15 8.1-13.7 7.4-7.8-13.5-32-55.4L128.9 302l14.5-7.8 11.5-6.2-11.5-6.2L128.9 274l8.2-14.3 32-55.4 7.8-13.5 13.7 7.4 15 8.1c.8-.5 1.6-1 2.4-1.4V184 168zm32 32v14.7 10.5l-9.6 4.2c-5 2.2-9.6 5-13.9 8.3l-8.2 6.5-9.2-5-10-5.4-16 27.7 10.8 5.8 9.2 5-.9 10.4c-.1 1.8-.2 3.5-.2 5.3s.1 3.6 .2 5.3l.9 10.4-9.2 5-10.8 5.8 16 27.7 10-5.4 9.2-5 8.2 6.5c4.2 3.3 8.9 6.1 13.9 8.3l9.6 4.2v10.5V376h32V361.3 350.9l9.6-4.2c5-2.2 9.6-5 13.9-8.3l8.2-6.5 9.2 5 10 5.4 16-27.7-10.8-5.8-9.2-5 .9-10.4c.1-1.8 .2-3.5 .2-5.3s-.1-3.6-.2-5.3l-.9-10.4 9.2-5 10.8-5.8-16-27.7-10 5.4-9.2 5-8.2-6.5c-4.2-3.3-8.9-6.1-13.9-8.3l-9.6-4.2V214.7 200H240zm-8 88a24 24 0 1 1 48 0 24 24 0 1 1 -48 0z"/></svg>