<svg xmlns="http://www.w3.org/2000/svg" viewBox="0 0 512 512"><!--! Font Awesome Pro 6.4.0 by @fontawesome - https://fontawesome.com License - https://fontawesome.com/license (Commercial License) Copyright 2023 Fonticons, Inc. --><path d="M32 32H224l48 64H480h32v32V448v32H480 32 0V448 64 32H32zm240 96H256l-9.6-12.8L208 64H32V448H480V128H272zM240 336a64 64 0 1 0 0-128 64 64 0 1 0 0 128zm0 32c-53 0-96-43-96-96s43-96 96-96s96 43 96 96c0 20.8-6.6 40-17.8 55.7l45.1 45.1 11.3 11.3L352 406.8l-11.3-11.3-45.1-45.1C279.9 361.5 260.7 368 240 368z"/></svg>