<svg xmlns="http://www.w3.org/2000/svg" viewBox="0 0 576 512"><!--! Font Awesome Pro 6.4.0 by @fontawesome - https://fontawesome.com License - https://fontawesome.com/license (Commercial License) Copyright 2023 Fonticons, Inc. --><path d="M0 0V112 400v16H16 256V384H32V128H256V96H32V0H0zM426.7 64H440 544V192H320V32h74.7l22.6 22.6 9.4 9.4zM544 32H440L408 0H320 288V32 192v32h32H544h32V192 64 32H544zM426.7 352H440 544V480H320V320h74.7l22.6 22.6 9.4 9.4zM544 320H440l-32-32H320 288v32V480v32h32H544h32V480 352 320H544z"/></svg>