<svg xmlns="http://www.w3.org/2000/svg" viewBox="0 0 512 512"><!--! Font Awesome Pro 6.4.0 by @fontawesome - https://fontawesome.com License - https://fontawesome.com/license (Commercial License) Copyright 2023 Fonticons, Inc. --><path d="M315.8 60.7l-19.3 70.6-2 7.2-2.1 7.7-2.1 7.6-6.4 23.3-22.6-6.2L255.1 192H221.7l8.8-29.5-23.7-6.5 8.4-30.9 2.1-7.7 21.2-77.9 2.1-7.7L249.2 1 280 9.5l15.4 4.2 30.9 8.4L317.9 53l-2.1 7.7zM224.6 256c-.4 0-.8 0-1.2 0h1.2zm87.9 0c-.4 0-.7 0-1.1 0h1.1zm11-64l24.9-39.2-19.7-12.6 17.2-27 4.3-6.7 44.1-69.3 4.3-6.7 17.2-27 27 17.2 13.5 8.6 27 17.2-17.2 27-4.3 6.7-44.1 69.3-4.3 6.7-17.2 27L375.5 170l-14 22H323.6zm-59.9-61.9L285 52.3l2.1-7.7-15.4-4.2L269.5 48l-21.2 77.9-2.1 7.7 15.4 4.2 2.1-7.7zm122.7 8.9l4.3-6.7L434.9 63l4.3-6.7-13.5-8.6-4.3 6.7-44.1 69.3-4.3 6.7 13.5 8.6zM32 256v64c0 70.7 57.3 128 128 128H288c70.7 0 128-57.3 128-128V256h-8H160v64H128V256H96v96H64V256H32zm416 0v64c0 52.3-25.1 98.8-64 128v48 16H352V496 466.7c-19.6 8.6-41.2 13.3-64 13.3H160c-22.8 0-44.4-4.8-64-13.3V496v16H64V496 448C25.1 418.8 0 372.3 0 320V256 224H32 408h8 8 24 48 16v32H496 448z"/></svg>