<svg xmlns="http://www.w3.org/2000/svg" viewBox="0 0 448 512"><!--! Font Awesome Pro 6.4.0 by @fontawesome - https://fontawesome.com License - https://fontawesome.com/license (Commercial License) Copyright 2023 Fonticons, Inc. --><path d="M32 32V48 79.9c22.1-.8 43.9-4.7 64.9-11.7l35.3-11.8C148.9 50.8 166.4 48 184 48s35.1 2.8 51.8 8.4L282.5 72c16 5.3 32.7 8 49.5 8s33.5-2.7 49.5-8l45.4-15.1 21.1-7V72 216v24V376v11.5l-10.9 3.6-45.4 15.1c-19.2 6.4-39.4 9.7-59.6 9.7s-40.4-3.3-59.6-9.7l-46.7-15.6c-13.4-4.5-27.5-6.8-41.7-6.8s-28.3 2.3-41.7 6.8L96 406.2V372.5l36.2-12.1c16.7-5.6 34.2-8.4 51.8-8.4s35.1 2.8 51.8 8.4L282.5 376c16 5.3 32.7 8 49.5 8s33.5-2.7 49.5-8L416 364.5V240 216 94.2l-24.4 8.1c-19.2 6.4-39.4 9.7-59.6 9.7s-40.4-3.3-59.6-9.7L225.7 86.8C212.3 82.3 198.2 80 184 80s-28.3 2.3-41.7 6.8L107 98.5c-24.2 8.1-49.5 12.6-75 13.3V464v16H0V464 48 32H32z"/></svg>