<svg xmlns="http://www.w3.org/2000/svg" viewBox="0 0 384 512"><!--! Font Awesome Pro 6.4.0 by @fontawesome - https://fontawesome.com License - https://fontawesome.com/license (Commercial License) Copyright 2023 Fonticons, Inc. --><path d="M144 2.9l23.2 11.6 64 32 8.8 4.4v9.9V256v16H208V256 70.7l-32-16V256v16H144V256 28.8 2.9zM301.8 205.6L272 248.2l0-39.6L299.1 84.5 272 89.9V57.3l44.9-9 24-4.8-5.2 23.9L307 198.2l-5.2 7.5zM332.5 192l19.8-99.1 31.4 6.3L365.1 192H332.5zM18.9 192L.3 99.1l31.4-6.3L51.5 192H18.9zm63.3 13.6l-2-2.8L56.2 58.6 54.3 47l10.6-5.3L112 18.1V53.9L89.7 65l33.1 198.7-40.6-58zM64 224l48 80H272l48-80h31.2H384l-7.1 32L320 512H64L7.1 256 0 224H32.8 64zm235.4 96.5L290.1 336H272 112 93.9l-9.3-15.5L45.9 256h-6L89.7 480H294.3l49.8-224h-6l-38.7 64.5z"/></svg>