<svg xmlns="http://www.w3.org/2000/svg" viewBox="0 0 576 512"><!--! Font Awesome Pro 6.4.0 by @fontawesome - https://fontawesome.com License - https://fontawesome.com/license (Commercial License) Copyright 2023 Fonticons, Inc. --><path d="M544 32V320H32V32H544zM32 0H0V32 320v32H32 544h32V320 32 0H544 32zM64 448v32H32V448H64zM32 416H0v32 32 32H32 64 96V480 448 416H64 32zm160 32h32v32H192V448zm-32-32v32 32 32h32 32 32V480 448 416H224 192 160zm224 32v32H352V448h32zm-32-32H320v32 32 32h32 32 32V480 448 416H384 352zm160 32h32v32H512V448zm-32-32v32 32 32h32 32 32V480 448 416H544 512 480z"/></svg>