<svg xmlns="http://www.w3.org/2000/svg" viewBox="0 0 576 512"><!--! Font Awesome Pro 6.4.0 by @fontawesome - https://fontawesome.com License - https://fontawesome.com/license (Commercial License) Copyright 2023 Fonticons, Inc. --><path d="M32 64V448H416V288 256 64H32zm416 0V256h32V208 144 128h16 64 16v16 64 16H560 512v48 16H496 448V448v32H416 32 0V448 64 32H32 416h32V64zM96 128V256H352V128H96zM64 96H96 352h32v32V256v32H352 96 64V256 128 96zm448 96h32V160H512v32zM128 336v16h16 16v32H144 128v16 16H96V400 384H80 64V352H80 96V336 320h32v16zm96 24a24 24 0 1 1 48 0 24 24 0 1 1 -48 0zm104-24a24 24 0 1 1 0 48 24 24 0 1 1 0-48z"/></svg>