<svg xmlns="http://www.w3.org/2000/svg" viewBox="0 0 384 512"><!--! Font Awesome Pro 6.4.0 by @fontawesome - https://fontawesome.com License - https://fontawesome.com/license (Commercial License) Copyright 2023 Fonticons, Inc. --><path d="M32 32V480H352V32H32zM0 0H32 352h32V32 480v32H352 32 0V480 32 0zM96 96V224H288V96H96zM64 64H96 288h32V96 224v32H288 96 64V224 96 64zM208 360a24 24 0 1 1 48 0 24 24 0 1 1 -48 0zm88-72a24 24 0 1 1 0 48 24 24 0 1 1 0-48zM96 288h32v32h32v32H128v32H96V352H64V320H96V288z"/></svg>