<svg xmlns="http://www.w3.org/2000/svg" viewBox="0 0 640 512"><!--! Font Awesome Pro 6.4.0 by @fontawesome - https://fontawesome.com License - https://fontawesome.com/license (Commercial License) Copyright 2023 Fonticons, Inc. --><path d="M320 6.8l5.9 2.3 304 120 10.1 4V144 496v16H608V496 154.9L320 41.2 32 154.9V496v16H0V496 144 133.1l10.1-4 304-120L320 6.8zM96 192h16H528h16v16V496v16H512V496 224H128V496v16H96V496 208 192zm148.9 64H395.1h11.6l3.6 11.1L435.3 344H448h16v16V496v16H432V496 480H208v16 16H176V496 360 344h16 12.7l24.9-76.9 3.6-11.1h11.6zM432 448V376H208v72H432zM401.6 344l-18.2-56h-127l-18.1 56H401.6zM232 416a16 16 0 1 1 32 0 16 16 0 1 1 -32 0zm160-16a16 16 0 1 1 0 32 16 16 0 1 1 0-32z"/></svg>