<svg xmlns="http://www.w3.org/2000/svg" viewBox="0 0 512 512"><!--! Font Awesome Pro 6.4.0 by @fontawesome - https://fontawesome.com License - https://fontawesome.com/license (Commercial License) Copyright 2023 Fonticons, Inc. --><path d="M156.9 155.5L72.7 222.8C47 243.4 32 274.6 32 307.5c0 56 42.4 102.1 96.9 107.9C99 390 80 352.1 80 309.9c0-38.8 16.5-75.9 45.3-101.8c15.7-14.1 26.6-32.5 31.6-52.7zM224 416c61.8 0 112-50.4 112-112.3c0-26.9-9.6-53-27.1-73.3l-17.1-19.9c-33.5-39-51.9-88.8-51.9-140.2V32H192V96v16 15.4 2.8c0 38.8-16.5 75.8-45.3 101.7c-22.1 19.9-34.7 48.3-34.7 78C112 368.4 159.4 416 217.8 416H224zM272 70.2c0 43.8 15.7 86.1 44.1 119.3l17.1 19.9c22.5 26.2 34.8 59.7 34.8 94.2c0 45.3-20.9 85.8-53.7 112.3h57.2C431.4 416 480 367.4 480 307.5c0-33-15-64.1-40.7-84.7L332 137l-12-9.6V112 32H272V70.2zM208 448H176v48 16H144V496 448h-3.5C62.9 448 0 385.1 0 307.5c0-42.7 19.4-83 52.7-109.7L160 112V96 32 0h32H320h32V32v80l107.3 85.8c33.3 26.7 52.7 67 52.7 109.7C512 385.1 449.1 448 371.5 448H368v48 16H336V496 448H304v48 16H272V496 448H240v48 16H208V496 448z"/></svg>