<svg xmlns="http://www.w3.org/2000/svg" viewBox="0 0 512 512"><!--! Font Awesome Pro 6.4.0 by @fontawesome - https://fontawesome.com License - https://fontawesome.com/license (Commercial License) Copyright 2023 Fonticons, Inc. --><path d="M288 32V192H64V32H288zm0 192V480H64V224H288zM32 32V480L0 480v32H32 64 288h32 32V480l-32 0V288h16c26.5 0 48 21.5 48 48v48c0 35.3 28.7 64 64 64s64-28.7 64-64V136v-7l-5.2-4.8-96-88L399 25.4 377.4 49l11.8 10.8L416 84.4V160c0 35.3 28.7 64 64 64V384c0 17.7-14.3 32-32 32s-32-14.3-32-32V336c0-44.2-35.8-80-80-80H320V32 0H288 64 32V32zM480 192c-17.7 0-32-14.3-32-32V113.7L480 143v49z"/></svg>