<svg xmlns="http://www.w3.org/2000/svg" viewBox="0 0 640 512"><!--! Font Awesome Pro 6.4.0 by @fontawesome - https://fontawesome.com License - https://fontawesome.com/license (Commercial License) Copyright 2023 Fonticons, Inc. --><path d="M352 362.8V480H128V186L96 160.7V480l-32 0v32H96h32H352h32 32V480l-32 0V388.1l-32-25.3zM139.6 32H352V199.7L384 225V32 0H352 128 99l40.5 32zM576 136v-7l-5.2-4.8-96-88L463 25.4 441.4 49l11.8 10.8L480 84.4V160c0 35.3 28.7 64 64 64V351.3l32 25.3V136zm-64-22.3L544 143v49c-17.7 0-32-14.3-32-32V113.7zM40.4 18L27.8 8.1 8.1 33.4l12.6 9.8L599.8 494.3l12.6 9.8 19.7-25.2L619.5 469 40.4 18z"/></svg>