<svg xmlns="http://www.w3.org/2000/svg" viewBox="0 0 640 512"><!--! Font Awesome Pro 6.4.0 by @fontawesome - https://fontawesome.com License - https://fontawesome.com/license (Commercial License) Copyright 2023 Fonticons, Inc. --><path d="M16 32H0V48 464v16H32V464 64H608V464v16h32V464 48 32H624 16zm176 80H160v80H80v32h80v64H80v32h80v64H80v32h80v64h32V416h64v64h32V416h64v64h32V416h64v64h32V416h80V384H480V320h80V288H480V224h80V192H480V112H448v80H384V112H352v80H288V112H256v80H192V112zm0 112h64v64H192V224zm96 0h64v64H288V224zm96 0h64v64H384V224zM192 384V320h64v64H192zm96 0V320h64v64H288zm96 0V320h64v64H384z"/></svg>