<svg xmlns="http://www.w3.org/2000/svg" viewBox="0 0 384 512"><!--! Font Awesome Pro 6.4.0 by @fontawesome - https://fontawesome.com License - https://fontawesome.com/license (Commercial License) Copyright 2023 Fonticons, Inc. --><path d="M288 320c38.9-29.2 64-75.7 64-128c0-88.4-71.6-160-160-160S32 103.6 32 192c0 52.3 25.1 98.8 64 128H48.9C18.5 286 0 241.2 0 192C0 86 86 0 192 0S384 86 384 192c0 49.2-18.5 94-48.9 128H288zM80 352h96 32 96 16v32H304 208V496v16H176V496 384H80 64V352H80zM226.1 248.6c0-4.9-1.1-9.6-3-13.8c11.6 5.3 19.7 16.9 19.7 30.5c0 18.5-15 33.5-33.5 33.5c-13.6 0-25.3-8.1-30.5-19.7c4.2 1.9 8.9 3 13.8 3c18.5 0 33.5-15 33.5-33.5zm-52.3-49.3c18.5 0 33.5-15 33.5-33.5c0-4.9-1.1-9.6-3-13.8c11.6 5.3 19.7 16.9 19.7 30.5c0 18.5-15 33.5-33.5 33.5c-13.6 0-25.3-8.1-30.5-19.7c4.2 1.9 8.9 3 13.8 3zm113.5-17.5c0-4.9-1.1-9.6-3-13.8c11.6 5.3 19.7 16.9 19.7 30.5c0 18.5-15 33.5-33.5 33.5c-13.6 0-25.3-8.1-30.5-19.7c4.2 1.9 8.9 3 13.8 3c18.5 0 33.5-15 33.5-33.5z"/></svg>