<svg xmlns="http://www.w3.org/2000/svg" viewBox="0 0 512 512"><!--! Font Awesome Pro 6.4.0 by @fontawesome - https://fontawesome.com License - https://fontawesome.com/license (Commercial License) Copyright 2023 Fonticons, Inc. --><path d="M192 64H64V192H192V64zM64 32H192h32V64 192v32H192 64 32V192 64 32H64zM192 320H64V448H192V320zM64 288H192h32v32V448v32H192 64 32V448 320 288H64zM320 64V192H448V64H320zM288 32h32H448h32V64 192v32H448 320 288V192 64 32zM400 272v16 80h80 16v32H480 400v80 16H368V480 400H288 272V368h16 80V288 272h32z"/></svg>