<svg xmlns="http://www.w3.org/2000/svg" viewBox="0 0 512 512"><!--! Font Awesome Pro 6.4.0 by @fontawesome - https://fontawesome.com License - https://fontawesome.com/license (Commercial License) Copyright 2023 Fonticons, Inc. --><path d="M0 0H512V32H0V0zM64 128v64h64V128H64zM32 96H64h64 32v32 64 32H128 64 32V192 128 96zM64 416v64h64V416H64zM32 384H64h64 32v32 64 32H128 64 32V480 416 384zM288 128H224v64h64V128zM224 96h64 32v32 64 32H288 224 192V192 128 96h32zm0 320v64h64V416H224zm-32-32h32 64 32v32 64 32H288 224 192V480 416 384zM448 128H384v64h64V128zM384 96h64 32v32 64 32H448 384 352V192 128 96h32zm0 320v64h64V416H384zm-32-32h32 64 32v32 64 32H448 384 352V480 416 384zm160-96v32H0V288H512z"/></svg>