<svg xmlns="http://www.w3.org/2000/svg" viewBox="0 0 448 512"><!--! Font Awesome Pro 6.4.0 by @fontawesome - https://fontawesome.com License - https://fontawesome.com/license (Commercial License) Copyright 2023 Fonticons, Inc. --><path d="M416 64V96c0 106-86 192-192 192S32 202 32 96V64H416zM32 32H0V64 96c0 92.5 56 171.9 136 206.1l-23.7 52c-5.2-1.4-10.7-2.1-16.4-2.1c-35.3 0-64 28.7-64 64s28.7 64 64 64s64-28.7 64-64H328.6l24.8 54.6 29.1-13.2L312 302.1C392 267.9 448 188.5 448 96V64 32H416 32zM140.4 369.9l26.1-57.3c18.4 4.9 37.7 7.5 57.6 7.5s39.2-2.6 57.6-7.5L314.1 384H151.4c-3-5.2-6.8-10-11.1-14.1zM96 448a32 32 0 1 1 0-64 32 32 0 1 1 0 64z"/></svg>