<svg xmlns="http://www.w3.org/2000/svg" viewBox="0 0 384 512"><!--! Font Awesome Pro 6.4.0 by @fontawesome - https://fontawesome.com License - https://fontawesome.com/license (Commercial License) Copyright 2023 Fonticons, Inc. --><path d="M192 0H160V66.7C69.2 81.9 0 160.9 0 256s69.2 174.1 160 189.3V512h32l0-64c106 0 192-86 192-192V240H368 192V96c43.6 0 83.1 17.4 112 45.7l22.4-22.9C291.8 85 244.3 64 192 64l0-64zM160 99.2V412.8C87 398 32 333.4 32 256s55-142 128-156.8zM192 416V272H351.2c-8 80.9-76.2 144-159.2 144z"/></svg>