<svg xmlns="http://www.w3.org/2000/svg" viewBox="0 0 512 512"><!--! Font Awesome Pro 6.4.0 by @fontawesome - https://fontawesome.com License - https://fontawesome.com/license (Commercial License) Copyright 2023 Fonticons, Inc. --><path d="M80 0H96h64 16V16 88v4.8l-2.7 4-29.3 44v36c29.1 3.3 54.6 15.3 72 32.7v19.9c0 13 2.9 24.8 5.7 34.3c1.4 4.8 3 9.4 4.4 13.5l0 .1 0 0 0 0c1.4 4.2 2.6 7.7 3.7 11.1c.8 2.5 1.4 5.4 1.8 8.9c-1 1.9-2.1 3.8-3.3 5.7c-5.4 8.6-6.9 19.7-4.4 29.6c-2.4 5.4-5.3 11.7-8.7 19l0 0 0 0 0 0-.3 .6c-2.3 5-4.8 10.3-7.2 16l-.3-.3c-20.9-23.2-21.3-58-6.2-82c4.5-7.1 6.7-14.5 6.7-22c0-21.6-22.4-49.2-64-54.9v65.7c18.6 6.6 32 24.4 32 45.3c0 26.5-21.5 48-48 48s-48-21.5-48-48c0-20.9 13.4-38.7 32-45.3V209.1c-41.6 5.7-64 33.4-64 54.9c0 7.5 2.2 14.9 6.7 22c15.1 23.9 14.7 58.8-6.2 82C37.6 380.1 32 393.9 32 408c0 33.9 36.5 72 96 72c27.4 0 49.9-8.1 66.2-20.1c2.3 10.9 6.2 21.2 11.6 30.6C184.3 504 157.3 512 128 512C57.3 512 0 465.4 0 408c0-23 9.2-44.3 24.8-61.5c10.3-11.4 11.1-30.4 2.9-43.4C20.2 291.3 16 278 16 264c0-44.3 41.7-81 96-87.1v-36l-29.3-44-2.7-4V88 16 0zm32 320a16 16 0 1 0 32 0 16 16 0 1 0 -32 0zm16-212.8l16-24V32H112V83.2l16 24zM248 176h31.7 .3s0 64 64 64h8V198l-52-59.5-5.3-6 1.7-7.8 24-112L323.1 0H336h36c28.7 0 52 23.3 52 52c0 24.6-17.1 45.2-40 50.6V192v48h8c64 0 64-48 64-48h.3H488v31.7 5.8c0 12.9-4.3 25.4-8.5 37.8l0 0 0 0 0 0c-1.4 4-2.7 7.9-3.9 11.8c-2.1 6.8-3.6 15.1-3.6 24.8c0 19.2 8.6 37.5 17.8 57.2c10.7 22.8 22.2 47.3 22.2 77c0 40.8-33 73.8-73.8 73.8H297.8C257 512 224 479 224 438.2c0-29.7 11.5-54.3 22.2-77c9.2-19.7 17.8-38 17.8-57.2c0-9.8-1.5-18-3.6-24.8c-1.2-3.9-2.5-7.9-3.9-11.8l0 0 0 0 0 0c-4.2-12.4-8.5-25-8.5-37.8V207.7 176zm96 95.7c-21.5 0-39.8-5.5-54.6-15.3c-1.4-1-2.8-2-4.2-3l1.1 3.3 .2 .5c1.3 3.8 2.8 8.2 4.2 12.7c2.9 9.6 4.9 21 4.9 34.1c0 26.7-11.8 51.5-20.5 69.9l0 0c-.9 1.8-1.7 3.6-2.5 5.3c-9.9 21.3-17 38.9-17 59c0 23.3 18.9 42.1 42.1 42.1H438.2c23.3 0 42.1-18.9 42.1-42.1c0-20.1-7.1-37.7-17-59c-.8-1.7-1.6-3.5-2.5-5.3l0 0 0 0c-8.7-18.4-20.5-43.2-20.5-69.9c0-13 2-24.4 4.9-34.1c1.3-4.4 2.8-8.7 4.1-12.5c-14.6 8.8-33.5 14.3-57.4 14.3H371.2c-1 .2-2.1 .3-3.2 .3s-2.2-.1-3.2-.3H344zm8-122.3V88 72h16 4c11 0 20-9 20-20s-9-20-20-20H348.9l-19.6 91.5L352 149.4zM336 336h64 16v32H400 336 320V336h16zm0 64h64 16v32H400 336 320V400h16z"/></svg>