<svg xmlns="http://www.w3.org/2000/svg" viewBox="0 0 576 512"><!--! Font Awesome Pro 6.4.0 by @fontawesome - https://fontawesome.com License - https://fontawesome.com/license (Commercial License) Copyright 2023 Fonticons, Inc. --><path d="M512 48V32H480V48 64H16 0V80 224v16H16 92L40 448l-8 32H65 208l32-128H344h11.3l3.8-10.6L395.3 240H448h6.6l4.7-4.7L486.6 208H560h16V192 80 64H560 512V48zM248 320l20-80h93.3l-28.6 80H248zm-13-80L183 448H73l52-208H235zm41-32H243 100 32V96H480h32 32v80H480h-6.6l-4.7 4.7L441.4 208H276z"/></svg>