<svg xmlns="http://www.w3.org/2000/svg" viewBox="0 0 640 512"><!--! Font Awesome Pro 6.4.0 by @fontawesome - https://fontawesome.com License - https://fontawesome.com/license (Commercial License) Copyright 2023 Fonticons, Inc. --><path d="M32 80V64H0V80 256 432v16H32V432 272H288V432v16h32V432 256 80 64H288V80 240H32V80zM501.2 96H507c47 0 85 38.1 85 85c0 23.1-9.4 45.2-26.1 61.2l-185 178.2-4.9 4.7V448h16H624h16V416H624 431.7L588.1 265.3C611.1 243.3 624 212.8 624 181c0-64.6-52.4-117-117-117h-5.8c-33 0-64.8 11.8-89.9 33.2l-21.7 18.6-12.1 10.4 20.8 24.3 12.1-10.4 21.7-18.6c19.2-16.5 43.7-25.5 69-25.5z"/></svg>