<svg xmlns="http://www.w3.org/2000/svg" viewBox="0 0 640 512"><!--! Font Awesome Pro 6.4.0 by @fontawesome - https://fontawesome.com License - https://fontawesome.com/license (Commercial License) Copyright 2023 Fonticons, Inc. --><path d="M32 80V64H0V80 256 432v16H32V432 272H288V432v16h32V432 256 80 64H288V80 240H32V80zM487.9 64L383.3 207.8C363 235.7 352 269.4 352 304c0 79.5 64.5 144 144 144s144-64.5 144-144s-64.5-144-144-144c-15 0-29.6 2.3-43.2 6.6L527.4 64H487.9zM496 192a112 112 0 1 1 0 224 112 112 0 1 1 0-224z"/></svg>