<svg xmlns="http://www.w3.org/2000/svg" viewBox="0 0 384 512"><!--! Font Awesome Pro 6.4.0 by @fontawesome - https://fontawesome.com License - https://fontawesome.com/license (Commercial License) Copyright 2023 Fonticons, Inc. --><path d="M208 16V0H176V16 60.4L48 32H32 0V64 256v32H32 48l144-32 144 32h16 32V256 64 32H352 336L208 60.4V16zm0 276.3l-16-3.6-16 3.6V496v16h32V496 292.3zm-22.9-67.6L44.5 256H32V64H44.5L185.1 95.2c4.6 1 9.3 1 13.9 0L339.5 64H352V256H339.5L198.9 224.8c-4.6-1-9.3-1-13.9 0z"/></svg>