<svg xmlns="http://www.w3.org/2000/svg" viewBox="0 0 448 512"><!--! Font Awesome Pro 6.4.0 by @fontawesome - https://fontawesome.com License - https://fontawesome.com/license (Commercial License) Copyright 2023 Fonticons, Inc. --><path d="M96 0H80V16 248v8.6c-3.2 2-6.4 4.2-9.5 6.5L22.4 299.2 16 304v8 51.5c0 53 29.1 101.7 75.7 126.8l8.3 4.5c21 11.3 44.4 17.2 68.3 17.2H304c61.9 0 112-50.1 112-112V304 256 240H400 352V224 208H336 280V192 176H264 192V16 0H176 96zM80 296v48 16h32V344 275.3v-9.5V264 248 32h48V192v16h16 72v16 16h16 56v16 16h16 48v32 96c0 44.2-35.8 80-80 80H168.3c-18.5 0-36.8-4.6-53.1-13.4l-7.6 14.1 7.6-14.1-8.3-4.5C70.6 442.6 48 404.7 48 363.5V320l32-24z"/></svg>