<svg xmlns="http://www.w3.org/2000/svg" viewBox="0 0 576 512"><!--! Font Awesome Pro 6.4.0 by @fontawesome - https://fontawesome.com License - https://fontawesome.com/license (Commercial License) Copyright 2023 Fonticons, Inc. --><path d="M208 32v96 25.9l23.2-11.6L288 113.9l56.8 28.4L368 153.9V128 32h80V224H128V32h80zM224 0H128 96V32 224v32h32H448h32V224 32 0H448 352 224zm16 32h96v70.1L295.2 81.7 288 78.1l-7.2 3.6L240 102.1V32zM176 304h-4.8l-4 2.7L75.2 368H16 0v32H16 80h4.8l4-2.7 92-61.3H368v48H320 304 256 240v32h16 48 16 64 16 4.6H409l3.8-2.3 94-56L530 395 395.4 480H16 0v32H16 400h4.6l3.9-2.5 152-96L574 405l-8.4-13.5-40-64-8.3-13.3-13.5 8L400.2 384H400V320 304H384 176z"/></svg>