<svg xmlns="http://www.w3.org/2000/svg" viewBox="0 0 416 512"><!--! Font Awesome Pro 6.4.0 by @fontawesome - https://fontawesome.com License - https://fontawesome.com/license (Commercial License) Copyright 2023 Fonticons, Inc. --><path d="M177 7.7L162.2 1.5 156 16.3 144 44.6 132 16.3 125.8 1.5 111 7.7 37.3 38.9 22.6 45.2l6.2 14.7L44.4 96.7l38.8 91.6L61.3 240H48 32v16 96c0 88.4 71.6 160 160 160h64c83 0 151.2-63.1 159.2-144h.8V352v0V240 224 208 192H400 336V176H320 240 224v16 41.7l-19.2-45.4 38.8-91.6 15.6-36.8 6.2-14.7-14.7-6.2L177 7.7zm10.5 221.7l4.5 10.6H183l4.5-10.6zm-86.9-82.1l-26.7-63L64.5 62.2l44.2-18.7 9.4 22.1 8.5 20.1-26.1 61.6zM69.3 272H224v48H144 128v32h16 80 16 16 48v16h16 63c-7.9 63.1-61.7 112-127 112H192c-70.7 0-128-57.3-128-128V280l5.3-8zM169.9 65.6l9.4-22.1 44.2 18.7-9.4 22.1L148.2 240H96.1L169.9 65.6zM336 224h48v16 96H336V224zm-32 96H256l0-64V240l0-32h48V320z"/></svg>