<svg xmlns="http://www.w3.org/2000/svg" viewBox="0 0 576 512"><!--! Font Awesome Pro 6.4.0 by @fontawesome - https://fontawesome.com License - https://fontawesome.com/license (Commercial License) Copyright 2023 Fonticons, Inc. --><path d="M176 128c0 33.3 20 63.5 51.9 81l10.8 5.9-3 12L228.5 256h119l-7.3-29.1-3-12 10.8-5.9C380 191.5 400 161.3 400 128c0-51.1-48.1-96-112-96s-112 44.9-112 96zM288 0c77.5 0 144 55.4 144 128c0 42.6-23.3 79.6-57.9 102.6l9.4 37.5 5 19.9H368 208 187.5l5-19.9 9.4-37.5c-34.6-23-57.9-60-57.9-102.6C144 55.4 210.5 0 288 0zM248 112a24 24 0 1 1 0 48 24 24 0 1 1 0-48zm56 24a24 24 0 1 1 48 0 24 24 0 1 1 -48 0zM171.2 304H176 384h16v16 64h.2l103.6-61.7 13.5-8 8.3 13.3 40 64L574 405l-13.5 8.5-152 96-3.9 2.5H400 16 0V480H16 395.4L530 395l-23.3-37.2-94 56L409 416h-4.4H400 384 320 304 256 240V384h16 48 16 48V336H180.8l-92 61.3-4 2.7H80 16 0V368H16 75.2l92-61.3 4-2.7z"/></svg>