<svg xmlns="http://www.w3.org/2000/svg" viewBox="0 0 640 512"><!--! Font Awesome Pro 6.4.0 by @fontawesome - https://fontawesome.com License - https://fontawesome.com/license (Commercial License) Copyright 2023 Fonticons, Inc. --><path d="M365.6 11.9L378.9 .5 389 14.7l120 168 3 4.2V192 292.2l116.8 36.5-9.5 30.5-128-40L480 315.8V304 197.1L373.1 47.5l-32 27.4 72.1 108.2 2.7 4V192 304l0 16H384V304 208H336V388.3l292.8 92.5-9.6 30.5L320 416.8 20.8 511.3l-9.6-30.5L304 388.3V208H256v96h0v16H224V304 224h0V192v-4.8l2.7-4L298.8 74.9l-32-27.4L160 197.1V304v11.8l-11.2 3.5-128 40-9.5-30.5L128 292.2V192v-5.1l3-4.2 120-168L261.1 .5l13.3 11.4L320 50.9l45.6-39.1zm-45.6 89L269.9 176H304h16 0 16 34.1L320 100.8z"/></svg>