<svg xmlns="http://www.w3.org/2000/svg" viewBox="0 0 640 512"><!--! Font Awesome Pro 6.4.0 by @fontawesome - https://fontawesome.com License - https://fontawesome.com/license (Commercial License) Copyright 2023 Fonticons, Inc. --><path d="M16 0H32 96h16V16 154.3l59.6 72.9 13.8-8.3-38.7-58-8.9-13.3 13.3-8.9 48-32 12.4-8.3 9.1 11.9 80 104 3.3 4.3V224 352h32V224v-5.4l3.3-4.3 80-104 9.1-11.9 12.4 8.3 48 32 13.3 8.9-8.9 13.3-38.7 58 13.8 8.3L528 154.3V16 0h16 64 16V16 192v5.6l-3.5 4.4-120 150H528h16v32H528 112 96V352h16 27.5L19.5 202 16 197.6V192 16 0zM176 352h96V229.4l-67.6-87.8-22.2 14.8 39.1 58.7 9.3 14-14.4 8.6-40 24-11.9 7.1-8.8-10.7-72-88L80 165.7V160 32H48V186.4L172.5 342l3.5 4.4V352zm288 0v-5.6l3.5-4.4L592 186.4V32H560V160v5.7l-3.6 4.4-72 88-8.8 10.7-11.9-7.1-40-24-14.4-8.6 9.3-14 39.1-58.7-22.2-14.8L368 229.4V352h96zM144 496V448H112 96V416h16H528h16v32H528 496v48 16H464V496 448H368v48 16H336V496 448H304v48 16H272V496 448H176v48 16H144V496z"/></svg>