<svg xmlns="http://www.w3.org/2000/svg" viewBox="0 0 640 512"><!--! Font Awesome Pro 6.4.0 by @fontawesome - https://fontawesome.com License - https://fontawesome.com/license (Commercial License) Copyright 2023 Fonticons, Inc. --><path d="M336 48a16 16 0 1 0 -32 0 16 16 0 1 0 32 0zm-64 0a48 48 0 1 1 96 0 48 48 0 1 1 -96 0zm18.5 64h59.1 6.6l4.7 4.7 50.5 50.7 11.3 11.3L400 201.3 388.7 190l-27.1-27.2L368 271.1l.9 16L337 288.9l-.9-16L334.1 240H305.9L304 272.9l-.9 16L271.1 287l.9-16 6.4-108.3L251.3 190 240 201.3l-22.7-22.6 11.3-11.3 50.5-50.7 4.7-4.7h6.6zm41.7 96l-3.8-64H311.6l-3.8 64h24.4zM112 64h16V80 265.4l36.7-36.7L176 217.4l11.3 11.3L320 361.4 452.7 228.7 464 217.4l11.3 11.3L512 265.4V80 64h16 96 16V80 384v6.6l-4.7 4.7-104 104L520 510.6 497.4 488l11.3-11.3L608 377.4V96H544V288v6.6l-1.4 1.4-3.3 3.3-8 8-72 72L448 390.6l-4.7 4.7L432 406.6 409.4 384l11.3-11.3 4.7-4.7 11.3-11.3L497.4 296 464 262.6l-128 128V496v16H304V496 390.6l-128-128L142.6 296l60.7 60.7 0 0 16 16L230.6 384 208 406.6l-11.3-11.3-16-16 0 0-72-72-8-8L97.4 296 96 294.6V288 96H32V377.4l99.3 99.3L142.6 488 120 510.6l-11.3-11.3-104-104L0 390.6V384 80 64H16h96z"/></svg>