<svg xmlns="http://www.w3.org/2000/svg" viewBox="0 0 448 512"><!--! Font Awesome Pro 6.4.0 by @fontawesome - https://fontawesome.com License - https://fontawesome.com/license (Commercial License) Copyright 2023 Fonticons, Inc. --><path d="M112 0H96V16 288.4L74.2 261.6 64.1 249.2 51.7 259.3 5.9 296.5 0 301.3V309v33.2 5.7l3.6 4.4 9 11 75.2 92.5c28.9 35.5 72.2 56.2 118 56.2H256h16 64c61.9 0 112-50.1 112-112V336 320 240 224H432 368V208 192H352 288V176 160H272 208V16 0H192 112zM272 224h64v16 16h16 64v64 16 64c0 44.2-35.8 80-80 80H272 256 205.7c-36.1 0-70.3-16.3-93.1-44.3L37.4 343.1 32 336.5V316.6l27.5-22.3 15.1 18.6 18.9 23.3 11.2 13.8 12.5-12.5 6-6 4.7-4.7V320 32h48V176v16h16 64v16 16h16zm-48 96V304H192v16 96 16h32V416 320zm64 0V304H256v16 96 16h32V416 320zm64 0V304H320v16 96 16h32V416 320z"/></svg>