<svg xmlns="http://www.w3.org/2000/svg" viewBox="0 0 512 512"><!--! Font Awesome Pro 6.4.0 by @fontawesome - https://fontawesome.com License - https://fontawesome.com/license (Commercial License) Copyright 2023 Fonticons, Inc. --><path d="M208 0h16 80 16l0 16 0 16h64 16V48 96h0 64 16v16V336c0 97.2-78.8 176-176 176l0 0h-8.5c-65.8 0-128.9-26.1-175.4-72.6L16.4 335.6 4.7 323.9 0 319.2v-6.6V279.4v-6.6l4.7-4.7 40-40L56 216.8l11.3 11.3 28.3 28.3L128 288.8V48 32h16 64V16 0zM368 128V112 64H320V80 240v16H288V240 80 64h0l0-16 0-16H240V48 240v16H208V240 64H160V304v6.6l-4.7 4.7L143.6 327l-11.3 11.3L121 327 73 279l-17-17-24 24v19.9l7 7L142.8 416.7c40.5 40.5 95.4 63.3 152.7 63.3H304l0 0c79.5 0 144-64.5 144-144V128H400V240v16H368V240 128h0zM266.1 328.5l-5.2-4.8c-4.3-4-10-6.3-15.9-6.3h-3.5c-10.9 0-19.8 8.9-19.8 19.8c0 5.5 2.3 10.7 6.3 14.4l60 56.1 60-56.1c4-3.7 6.3-9 6.3-14.4c0-10.9-8.9-19.8-19.8-19.8H331c-5.9 0-11.6 2.2-15.9 6.3l-5.2 4.8L288 348.9l-21.9-20.4zm-76.4 8.7c0-28.6 23.2-51.8 51.8-51.8H245c14 0 27.5 5.3 37.8 14.9l5.2 4.8 5.2-4.8c10.3-9.6 23.8-14.9 37.8-14.9h3.5c28.6 0 51.8 23.2 51.8 51.8c0 14.3-5.9 28-16.4 37.8l-70.9 66.4L288 451.5l-10.9-10.2-70.9-66.4c-10.5-9.8-16.4-23.5-16.4-37.8z"/></svg>