<svg xmlns="http://www.w3.org/2000/svg" viewBox="0 0 576 512"><!--! Font Awesome Pro 6.4.0 by @fontawesome - https://fontawesome.com License - https://fontawesome.com/license (Commercial License) Copyright 2023 Fonticons, Inc. --><path d="M112 0h32c83 0 151.2 63.1 159.2 144h.8v16 96 16H272V256 176H240C160.5 176 96 111.5 96 32V16 0h16zm32 32H128c0 61.9 50.1 112 112 112h31C263.1 80.9 209.3 32 144 32zM336 176V160c0-5.4-.2-10.7-.7-16h.7c61.9 0 112-50.1 112-112H416c-40.2 0-75.4 21.2-95.2 53c-4.7-11-10.4-21.5-16.9-31.3C330.3 20.9 370.7 0 416 0h48 16V16 32c0 79.5-64.5 144-144 144zM171.2 304H176 384h16v16 64h.2l103.6-61.7 13.5-8 8.3 13.3 40 64L574 405l-13.5 8.5-152 96-3.9 2.5H400 16 0V480H16 395.4L530 395l-23.3-37.2-94 56L409 416h-4.4H400 384 320 304 256 240V384h16 48 16 48V336H180.8l-92 61.3-4 2.7H80 16 0V368H16 75.2l92-61.3 4-2.7z"/></svg>