<svg xmlns="http://www.w3.org/2000/svg" viewBox="0 0 448 512"><!--! Font Awesome Pro 6.4.0 by @fontawesome - https://fontawesome.com License - https://fontawesome.com/license (Commercial License) Copyright 2023 Fonticons, Inc. --><path d="M36.7 164.7L96 105.4V64 48 16 0h16 96 16V16 32h48 16V48 64h48 16V80 96h48 16v16 64 16 16 48c0 49.9-25.4 93.9-64 119.8V496v16H320V496 366.9v-9.2l8-4.6c33.5-19.4 56-55.6 56-97V208 192 176 128H336 320V112 96H272 256V80 64H224 208 192V48 32H128V48 64v48 96 16H96V208 150.6l-32 32V256v16c0 48.3 35.8 88.4 82.3 95l13.7 2v13.9V496v16H128V496 396c-55.2-14.2-96-64.3-96-124V256 176v-6.6l4.7-4.7z"/></svg>