<svg xmlns="http://www.w3.org/2000/svg" viewBox="0 0 576 512"><!--! Font Awesome Pro 6.4.0 by @fontawesome - https://fontawesome.com License - https://fontawesome.com/license (Commercial License) Copyright 2023 Fonticons, Inc. --><path d="M278.4 21.5l9.6 9.2 9.6-9.2C311.9 7.7 331.1 0 351 0h3c40.9 0 74 33.1 74 74c0 20.1-8.2 39.4-22.7 53.3L301.9 226.8 288 240.2l-13.9-13.3L170.7 127.3C156.2 113.4 148 94.1 148 74c0-40.9 33.1-74 74-74h3c19.9 0 39.1 7.7 53.4 21.5zm104.7 82.7C391.4 96.3 396 85.4 396 74c0-23.2-18.8-42-42-42h-3c-11.6 0-22.8 4.5-31.2 12.6l-9.6 9.2L288 75.1 265.8 53.8l-9.6-9.2C247.9 36.5 236.7 32 225 32h-3c-23.2 0-42 18.8-42 42c0 11.4 4.6 22.3 12.9 30.3L288 195.8l95.1-91.5zM171.2 304H176 384h16v16 64h.2l103.6-61.7 13.5-8 8.3 13.3 40 64L574 405l-13.5 8.5-152 96-3.9 2.5H400 16 0V480H16 395.4L530 395l-23.3-37.2-94 56L409 416h-4.4H400 384 320 304 256 240V384h16 48 16 48V336H180.8l-92 61.3-4 2.7H80 16 0V368H16 75.2l92-61.3 4-2.7z"/></svg>