<svg xmlns="http://www.w3.org/2000/svg" viewBox="0 0 576 512"><!--! Font Awesome Pro 6.4.0 by @fontawesome - https://fontawesome.com License - https://fontawesome.com/license (Commercial License) Copyright 2023 Fonticons, Inc. --><path d="M250.7 0h74.7 16V16 74.7H400h16v16 74.7 16H400 341.3V240v16h-16H250.7h-16V240 181.3H176 160v-16V90.7v-16h16 58.7V16 0h16zm16 90.7v16h-16H192v42.7h58.7 16v16V224h42.7V165.3v-16h16H384V106.7H325.3h-16v-16V32H266.7V90.7zM171.2 304H176 384h16v16 64h.2l103.6-61.7 13.5-8 8.3 13.3 40 64L574 405l-13.5 8.5-152 96-3.9 2.5H400 16 0V480H16 395.4L530 395l-23.3-37.2-94 56L409 416h-4.4H400 384 320 304 256 240V384h16 48 16 48V336H180.8l-92 61.3-4 2.7H80 16 0V368H16 75.2l92-61.3 4-2.7z"/></svg>