<svg xmlns="http://www.w3.org/2000/svg" viewBox="0 0 640 512"><!--! Font Awesome Pro 6.4.0 by @fontawesome - https://fontawesome.com License - https://fontawesome.com/license (Commercial License) Copyright 2023 Fonticons, Inc. --><path d="M40.4 18L27.8 8.1 8.1 33.4l12.6 9.8L599.8 494.3l12.6 9.8 19.7-25.2L619.5 469 40.4 18zM626 416h14V384 160 128H608 560 528v32V338.7l32 25.3V160h48v96V384v17.8L626 416zM372.1 378.7l-46.7 46.6-26.6-26.6-11.3-11.3-11.3 11.3-29 29-32.6-32.6-11.3-11.3-7-7-52-52.1-4.7-4.7h-6.6H112V173.3L54.6 128H32 0v32V384v32H32 80h32V384 352h14.3l47.4 47.4 7 7L192 417.7l43.9 43.9 11.3 11.3 11.3-11.3 29-29 26.6 26.6 11.3 11.3 11.3-11.3 60.6-60.6-25.3-20zM261.3 128.1l25.4 20L342.1 96h73.4l71.7 60.2 4.5 3.8H496V121.8L431.6 67.8 427.2 64h-5.8H335.8h-6.3l-4.6 4.3-63.5 59.8zM221.9 97l1.2-1h17.5l32-32H217.3h-5.8L207 67.8l-10.7 9L221.9 97zm121.2 95.7L366.3 211l25.4-20.6-21.2-22.9-11.8 10.9-15.6 14.4zM32 160H80V384H32V160z"/></svg>