<svg xmlns="http://www.w3.org/2000/svg" viewBox="0 0 569 512"><!--! Font Awesome Pro 6.4.0 by @fontawesome - https://fontawesome.com License - https://fontawesome.com/license (Commercial License) Copyright 2023 Fonticons, Inc. --><path d="M92.4 33.4L79.1 28.3 74 41.6 7.7 214C2.6 227.1 .1 241.1 .1 255.1c0 63.3 51.3 114.6 114.6 114.6h70.3c25.1 0 48-9.3 65.4-24.5l0 .2 13.8 55.2 3.4 13.8 13.8-3.5 27.6-6.9 14.9-3.7-8.9 7-11.2 8.8 8.8 11.2 35.1 44.8 8.8 11.2 11.2-8.8 49.1-38.4-1.4 3.7-5.1 13.3 13.3 5.1 53.1 20.4 13.3 5.1 5.1-13.3L561.3 298c5-13.1 7.6-27.1 7.6-41.2c0-63.3-51.3-114.6-114.6-114.6H384.1c-25.1 0-48 9.3-65.4 24.5l0-.2-13.8-55.2-3.5-13.8L287.5 101l-27.6 6.9L245 111.7l8.9-7 11.2-8.8-8.8-11.2L221.3 39.9l-8.8-11.2-11.2 8.8L152.2 75.9l1.4-3.7 5.1-13.3-13.3-5.1L92.4 33.4zM302 185.4c-1.5 2.1-2.9 4.3-4.2 6.6l-7.1 12.3 12.3 7.1 49.2 28.5 3.3 1.9-3.3 1.9L303 272.2l-12.3 7.1 7.1 12.3c4.9 8.5 11 16.1 18.1 22.8l-27.6 6.9L267 326.6c1.5-2.1 2.9-4.3 4.2-6.6l7.1-12.3L266 300.6l-49.2-28.5-3.3-1.9 3.3-1.9L266 239.8l12.3-7.1-7.1-12.3c-4.9-8.5-11-16.1-18.1-22.8l27.6-6.9 21.4-5.3zM197.3 263.1l4.1 7.1-4.1 7.1c-2.5 4.3-7.1 7.1-12.3 7.1c-7.9 0-14.2-6.4-14.2-14.2s6.4-14.2 14.2-14.2c5.2 0 9.8 2.8 12.3 7.1zm-163-38.9L95.5 65.1 122 75.3l-14.8 38.5-18.5 48L129.3 130l78.4-61.4 17.5 22.4-50.4 39.4-52.7 41.2L187 155.5l79.8-19.9 13.8-3.4 6.9 27.6-13.8 3.4-58.9 14.7-41.2 10.3 39 16.6c9.8 4.2 18.5 10.5 25.4 18.3l-25.5 14.7c-7.5-6.4-17.2-10.2-27.7-10.2c-23.6 0-42.7 19.1-42.7 42.7s19.1 42.7 42.7 42.7c10.6 0 20.3-3.8 27.7-10.2l25.5 14.7c-13 14.7-32 24-53.2 24H114.7c-47.6 0-86.2-38.6-86.2-86.2c0-10.6 1.9-21.1 5.7-30.9zm337.5 24.7l-4.1-7.1 4.1-7.1c2.5-4.3 7.1-7.1 12.3-7.1c7.9 0 14.2 6.4 14.2 14.2s-6.4 14.2-14.2 14.2c-5.2 0-9.8-2.8-12.3-7.1zm163 38.9L473.5 446.9 447 436.7l14.8-38.5 18.5-48L439.7 382l-78.4 61.4-17.5-22.4 50.4-39.4 52.7-41.2L382 356.5l-79.8 20-13.8 3.4-6.9-27.6 13.8-3.5 58.9-14.7 41.2-10.3-39-16.6c-9.8-4.2-18.5-10.5-25.4-18.3l25.5-14.7c7.5 6.4 17.2 10.2 27.7 10.2c23.6 0 42.7-19.1 42.7-42.7s-19.1-42.7-42.7-42.7c-10.6 0-20.3 3.8-27.7 10.2l-25.5-14.7c13-14.7 32-24 53.2-24h70.3c47.6 0 86.2 38.6 86.2 86.2c0 10.6-1.9 21.1-5.7 30.9z"/></svg>