<svg xmlns="http://www.w3.org/2000/svg" viewBox="0 0 576 512"><!--! Font Awesome Pro 6.4.0 by @fontawesome - https://fontawesome.com License - https://fontawesome.com/license (Commercial License) Copyright 2023 Fonticons, Inc. --><path d="M160 80c0 26.5 21.5 48 48 48h80 16v32H288 208c-44.2 0-80-35.8-80-80s35.8-80 80-80H328c66.3 0 120 53.7 120 120s-53.7 120-120 120H272v24 16H240V264 224 208h16 72c48.6 0 88-39.4 88-88s-39.4-88-88-88H208c-26.5 0-48 21.5-48 48zm11.2 224H176 384h16v16 64h.2l103.6-61.7 13.5-8 8.3 13.3 40 64L574 405l-13.5 8.5-152 96-3.9 2.5H400 16 0V480H16 395.4L530 395l-23.3-37.2-94 56L409 416h-4.4H400 384 320 304 256 240V384h16 48 16 48V336H180.8l-92 61.3-4 2.7H80 16 0V368H16 75.2l92-61.3 4-2.7z"/></svg>