<svg xmlns="http://www.w3.org/2000/svg" viewBox="0 0 576 512"><!--! Font Awesome Pro 6.4.0 by @fontawesome - https://fontawesome.com License - https://fontawesome.com/license (Commercial License) Copyright 2023 Fonticons, Inc. --><path d="M432 144h13.9l-3.6 18.1c-12.9 2.5-25.1 7.3-36 13.9H338.9L268.7 480H235.9l25.8-112H134.6L108.7 480H75.9l25.8-112H16 2.1l6.4-32H16h93.1L146 176H48 40.5l6.4-32H48 153.4L179.3 32h32.8L186.3 144H313.4L339.3 32h32.8L346.3 144H432zM178.9 176L142 336H269.1L306 176H178.9zM464 224c-26.5 0-48 21.5-48 48v48h96V272c0-26.5-21.5-48-48-48zm-80 48c0-44.2 35.8-80 80-80s80 35.8 80 80v48h32v32V480v32H544 384 352V480 352 320h32V272zm0 80V480H544V352H384z"/></svg>