<svg xmlns="http://www.w3.org/2000/svg" viewBox="0 0 448 512"><!--! Font Awesome Pro 6.4.0 by @fontawesome - https://fontawesome.com License - https://fontawesome.com/license (Commercial License) Copyright 2023 Fonticons, Inc. --><path d="M445.9 144H432 346.3L372.1 32H339.3L313.4 144H186.3L212.1 32H179.3L153.4 144H48 46.9l-6.4 32H48h98L109.1 336H16 8.5L2.1 368H16h85.7L75.9 480h32.8l25.8-112H261.7L235.9 480h32.8l25.8-112H400h1.1l6.4-32H400 302l36.9-160H432h7.5l6.4-32zm-267 32H306L269.1 336H142l36.9-160z"/></svg>