<svg xmlns="http://www.w3.org/2000/svg" viewBox="0 0 576 512"><!--! Font Awesome Pro 6.4.0 by @fontawesome - https://fontawesome.com License - https://fontawesome.com/license (Commercial License) Copyright 2023 Fonticons, Inc. --><path d="M492.2 194.2L480 176H432l-16 32 64 176H445.9l-60-165.1L381.2 206l6.2-12.3 16-32 8.8-17.7H432h48 17.1l9.5 14.2 3.3 4.9 25.3-44.3L443.6 38.6 232.9 151 130.9 384H96L208 128 448 0 576 112l-46.2 80.9L512 224l-19.8-29.8zM71.6 448l64 32H440.4l64-32H71.6zM576 448L448 512H128L0 448V416H32 544h32v32zM320 352H256v32H224V352 320h32 64 32v32 32H320V352z"/></svg>