<svg xmlns="http://www.w3.org/2000/svg" viewBox="0 0 640 512"><!--! Font Awesome Pro 6.4.0 by @fontawesome - https://fontawesome.com License - https://fontawesome.com/license (Commercial License) Copyright 2023 Fonticons, Inc. --><path d="M422.5 68.7l-233.9 39-11.3 84.5c36.3 1.8 71.1 15.2 99.2 38.4L307.5 256h151l-36-187.3zM464.6 288H346.3L486.9 403.8 464.6 288zM560 448H496 464 16 0V432 361.1c0-85.2 62.9-155.6 144.8-167.4L160 80 448 32l31.8 165.4c4.3 2 9.9 4.6 16.3 7.8c15.5 7.7 36.2 19.1 57 33.7c20.7 14.5 42.2 32.6 58.5 53.9C628.1 314 640 339.4 640 368c0 44.2-35.8 80-80 80zM534.8 265.1c-16.8-11.8-33.8-21.4-47.5-28.5L521.8 416H560c26.5 0 48-21.5 48-48c0-19.4-8.1-38-21.7-55.7c-13.7-17.7-32.2-33.7-51.5-47.1zM169.1 224C93.4 224 32 285.4 32 361.1V416H451.4L256.2 255.3c-24.5-20.2-55.3-31.3-87.1-31.3z"/></svg>