<svg xmlns="http://www.w3.org/2000/svg" viewBox="0 0 512 512"><!--! Font Awesome Pro 6.4.0 by @fontawesome - https://fontawesome.com License - https://fontawesome.com/license (Commercial License) Copyright 2023 Fonticons, Inc. --><path d="M32 256C32 132.3 132.3 32 256 32s224 100.3 224 224V448.1L352 448v0V416H320 224 192v32 32 32h32 96 32V480l144 .1 16 0v-16V256C512 114.6 397.4 0 256 0S0 114.6 0 256v48 16H32V304 256zM320 464l0 16h0v0H224V448h96v16zM96 224h64V352H96V224zM64 192v32V352v32H96h64 32V352 224 192H160 96 64zm288 32h64V352H352V224zm64-32H352 320v32V352v32h32 64 32V352 224 192H416z"/></svg>