<svg xmlns="http://www.w3.org/2000/svg" viewBox="0 0 512 512"><!--! Font Awesome Pro 6.4.0 by @fontawesome - https://fontawesome.com License - https://fontawesome.com/license (Commercial License) Copyright 2023 Fonticons, Inc. --><path d="M240 32c114.9 0 208 93.1 208 208v16H256 244.5l-3.6 10.9L212.5 352H32V240C32 125.1 125.1 32 240 32zm96 419.4l-93.6-88.1L267.5 288H336V451.4zM368 480V288H496h16V256H496 480V240C480 107.5 372.5 0 240 0S0 107.5 0 240V368v16H16 217.7L349 507.7l4.6 4.3H360 464h16V480H464 368zM160 112V96H128v16 64c0 26.5 21.5 48 48 48s48-21.5 48-48V112 96H192v16 64c0 8.8-7.2 16-16 16s-16-7.2-16-16V112zM272 96H256v16 96 16h32V208 164.4l31.1 51.8 4.7 7.8h9.1H336h16V208 112 96H320v16 43.6l-31.1-51.8L284.3 96h-9.1H272z"/></svg>