<svg xmlns="http://www.w3.org/2000/svg" viewBox="0 0 512 512"><!--! Font Awesome Pro 6.4.0 by @fontawesome - https://fontawesome.com License - https://fontawesome.com/license (Commercial License) Copyright 2023 Fonticons, Inc. --><path d="M36.9 256L146.6 64H365.4L475.1 256 365.4 448H146.6L36.9 256zM128 32L0 256 128 480H384L512 256 384 32H128zm63.4 136.8l-22.6 22.6 11.3 11.3L233.4 256l-53.3 53.3-11.3 11.3 22.6 22.6 11.3-11.3L256 278.6l53.3 53.3 11.3 11.3 22.6-22.6-11.3-11.3L278.6 256l53.3-53.3 11.3-11.3-22.6-22.6-11.3 11.3L256 233.4l-53.3-53.3-11.3-11.3z"/></svg>