<svg xmlns="http://www.w3.org/2000/svg" viewBox="0 0 512 512"><!--! Font Awesome Pro 6.4.0 by @fontawesome - https://fontawesome.com License - https://fontawesome.com/license (Commercial License) Copyright 2023 Fonticons, Inc. --><path d="M136.5 430.4L91 350.8l53.2-53.2 61.3 59.2-69 73.5zM340.3 213.1l-113 120.5-72.3-69.8-11.3-10.9-11.1 11.1L74.6 322 36.9 256 146.6 64H365.4L475.1 256l-27 47.2-84.5-90.1L352 200.6l-11.7 12.5zm91.2 119.2L365.4 448H163.9L352 247.4l79.6 84.9zM128 32L0 256 128 480H384L512 256 384 32H128zm48 128a16 16 0 1 1 32 0 16 16 0 1 1 -32 0zm64 0a48 48 0 1 0 -96 0 48 48 0 1 0 96 0z"/></svg>