<svg xmlns="http://www.w3.org/2000/svg" viewBox="0 0 576 512"><!--! Font Awesome Pro 6.4.0 by @fontawesome - https://fontawesome.com License - https://fontawesome.com/license (Commercial License) Copyright 2023 Fonticons, Inc. --><path d="M336 416H263.4L214 465.4 191.4 488 175 471.6l-35.7 35.7-4.7 4.7H128 16 0V496 480v-6.6l4.7-4.7L88.4 385 72 368.6 94.6 346 144 296.6V224L480 0l80 80L336 416zm-225-8.4L38.6 480h82.7l31-31L111 407.6zm129.8-14.2l9.4-9.4h13.3 55.5l23.4-35.1L211.1 217.7 176 241.1v55.5 13.3l-9.4 9.4-49.4 49.4 74.1 74.1 49.4-49.4zm119.6-71.6L518.8 84.1 475.9 41.2 238.2 199.6 360.4 321.7zM272 480H560h16v32H560 272 256V480h16z"/></svg>