<svg xmlns="http://www.w3.org/2000/svg" viewBox="0 0 576 512"><!--! Font Awesome Pro 6.4.0 by @fontawesome - https://fontawesome.com License - https://fontawesome.com/license (Commercial License) Copyright 2023 Fonticons, Inc. --><path d="M263.4 416H336L560 80 480 0 144 224v72.6L94.6 346 72 368.6 88.4 385 4.7 468.7 0 473.4V480v16 16H16 128h6.6l4.7-4.7L175 471.6 191.4 488 214 465.4 263.4 416zm-111 33l-31 31H38.6L111 407.6 152.4 449zm39-6.2l-74.1-74.1 49.4-49.4 9.4-9.4V296.6 241.1l35.1-23.4L342.3 348.9 318.9 384H263.4 250.1l-9.4 9.4-49.4 49.4zm46.9-243.1L475.9 41.2l42.9 42.9L360.4 321.7 238.2 199.6z"/></svg>