<svg xmlns="http://www.w3.org/2000/svg" viewBox="0 0 576 512"><!--! Font Awesome Pro 6.4.0 by @fontawesome - https://fontawesome.com License - https://fontawesome.com/license (Commercial License) Copyright 2023 Fonticons, Inc. --><path d="M229.6 112l4.4-7.8 36-64 4.6-8.2H284h72 9.4l4.6 8.2 36 64 4.4 7.8-4.4 7.8-36 64-4.6 8.2H356 284h-9.4l-4.6-8.2-36-64-4.4-7.8zm63.7 48l53.3 0 27-48-27-48-53.3 0-27 48 27 48zM0 41.4L27.3 68.7l416 416L470.6 512H432 16 0V496 80 41.4zm32 77.3V480H393.4L32 118.6zM488.2 437.9l-64-36-8.2-4.6V388 316v-9.4l8.2-4.6 64-36 7.8-4.4 7.8 4.4 64 36 8.2 4.6V316v72 9.4l-8.2 4.6-64 36-7.8 4.4-7.8-4.4zM544 325.4l-48-27-48 27v53.3l48 27 48-27V325.4zM128 64a32 32 0 1 1 64 0 32 32 0 1 1 -64 0zM352 256a32 32 0 1 1 0 64 32 32 0 1 1 0-64z"/></svg>