<svg xmlns="http://www.w3.org/2000/svg" viewBox="0 0 640 512"><!--! Font Awesome Pro 6.4.0 by @fontawesome - https://fontawesome.com License - https://fontawesome.com/license (Commercial License) Copyright 2023 Fonticons, Inc. --><path d="M96 256C96 132.3 196.3 32 320 32s224 100.3 224 224v96H512 496v32h16 1.9l12 96H512v32h16 1.9H544h32 14.1H592h16V480H594.1l12-96H608h16V352H608 576V256C576 114.6 461.4 0 320 0S64 114.6 64 256s114.6 256 256 256c57.6 0 110.8-19 153.6-51.2l-19.2-25.6C417 463.3 370.4 480 320 480C196.3 480 96 379.7 96 256zM573.9 384l-12 96h-3.8l-12-96H560h13.9zM464 256a144 144 0 1 1 -288 0 144 144 0 1 1 288 0zM320 80a176 176 0 1 0 0 352 176 176 0 1 0 0-352zm0 240a64 64 0 1 1 0-128 64 64 0 1 1 0 128zm-96-64a96 96 0 1 0 192 0 96 96 0 1 0 -192 0z"/></svg>