<svg xmlns="http://www.w3.org/2000/svg" viewBox="0 0 576 512"><!--! Font Awesome Pro 6.4.0 by @fontawesome - https://fontawesome.com License - https://fontawesome.com/license (Commercial License) Copyright 2023 Fonticons, Inc. --><path d="M544 32H288V64H256V32 0h32H544h32V32 480v32H544 320V480H544V416H320V384H544V320H320V288H544V32zM448 80v48h48v32H448v48H416V160H368V128h48V80h32zM256 128H32V352H256V128zM32 480H256V384H32v96zm96-304h32v48h48v32H160v48H128V256H80V224h48V176zM32 96H256h32v32V480v32H256 32 0V480 128 96H32z"/></svg>