<svg xmlns="http://www.w3.org/2000/svg" viewBox="0 0 512 512"><!--! Font Awesome Pro 6.4.0 by @fontawesome - https://fontawesome.com License - https://fontawesome.com/license (Commercial License) Copyright 2023 Fonticons, Inc. --><path d="M256 0V16c0 24.6 12.3 47.6 32.8 61.3l16.1 10.7C334.3 107.7 352 140.7 352 176v16H320V176c0-24.6-12.3-47.6-32.8-61.3l-16.1-10.7C241.7 84.3 224 51.3 224 16V0h32zM128 160l128 96h16H480h32v32V480v32H480 32 0V480 336 272 256 192 160H32h96zM32 288v48V480H480V288H272 256 245.3 32zm0-32H202.7l-85.3-64H32v64zM384 16c0 24.6 12.3 47.6 32.8 61.3l16.1 10.7C462.3 107.7 480 140.7 480 176v16H448V176c0-24.6-12.3-47.6-32.8-61.3l-16.1-10.7C369.7 84.3 352 51.3 352 16V0h32V16zM128 336v16 80 16H96V432 352 336h32zm96 0v16 80 16H192V432 352 336h32zm96 0v16 80 16H288V432 352 336h32zm96 0v16 80 16H384V432 352 336h32zM96 64A32 32 0 1 0 32 64a32 32 0 1 0 64 0zM0 64a64 64 0 1 1 128 0A64 64 0 1 1 0 64z"/></svg>