<svg xmlns="http://www.w3.org/2000/svg" viewBox="0 0 384 512"><!--! Font Awesome Pro 6.4.0 by @fontawesome - https://fontawesome.com License - https://fontawesome.com/license (Commercial License) Copyright 2023 Fonticons, Inc. --><path d="M16 512H0V480H16 32l0-88v-5.4l3.3-4.3L131.9 256 35.3 129.7 32 125.4V120 32H16 0V0H16 368h16V32H368 352v88 5.4l-3.3 4.3L252.1 256l96.6 126.3 3.3 4.3V392v88h16 16v32H368 16zm304-32V397.4L219.3 265.7l-7.4-9.7 7.4-9.7L320 114.6V32H64v82.6L164.7 246.3l7.4 9.7-7.4 9.7L64 397.4 64 480H320zM192 217.6L179.5 202l-64-80L94.7 96H128h64 64 33.3l-20.8 26-64 80L192 217.6zM161.3 128L192 166.4 222.7 128H192 161.3zM144 352h96 8.6l4.7 7.1 32 48 2.7 4 0 4.8 0 16 0 16H272 192 112 96l0-16 0-16 0-4.8 2.7-4 32-48 4.7-7.1H144zm-12.8 64H192h60.8l-21.3-32H152.6l-21.3 32z"/></svg>