<svg xmlns="http://www.w3.org/2000/svg" viewBox="0 0 576 512"><!--! Font Awesome Pro 6.4.0 by @fontawesome - https://fontawesome.com License - https://fontawesome.com/license (Commercial License) Copyright 2023 Fonticons, Inc. --><path d="M298.6 12L288 2.7 277.4 12 5.4 252l21.2 24L64 243V390.9c3.8-2.6 7.8-5.5 12.3-8.7l1.1-.8L96 368l0-153.3L288 45.3 480 214.7 480 368l19.7 14.2 0 0c4.4 3.2 8.5 6.1 12.3 8.7V243l37.4 33 21.2-24L298.6 12zM208 176v16V320v16h16H352h16V320 192 176H352 224 208zm32 32h96v96H240V208zM192 480c-20.9 0-41.7-9.9-58.2-21.2c-14.6-10-26-21.5-37.8-34.2c-11.9 12.8-23.1 24.2-37.8 34.2C41.7 470.1 20.9 480 0 480v32c30.3 0 57.5-14.1 76.2-26.8c7.9-5.4 14.6-10.8 19.8-15.3c5.1 4.5 11.9 9.9 19.8 15.3C134.4 497.9 161.7 512 192 512s57.5-14.1 76.2-26.8c7.9-5.4 14.6-10.8 19.8-15.3c5.1 4.5 11.9 9.9 19.8 15.3C326.4 497.9 353.7 512 384 512s57.5-14.1 76.2-26.8c7.9-5.4 14.6-10.8 19.8-15.3c5.1 4.5 11.9 9.9 19.8 15.3C518.5 497.9 545.7 512 576 512V480c-20.9 0-41.7-9.9-58.2-21.2c-14.7-10-25.9-21.5-37.8-34.2c-11.9 12.8-23.1 24.2-37.8 34.2C425.6 470.1 404.9 480 384 480s-41.7-9.9-58.2-21.2c-14.7-10-25.9-21.5-37.8-34.2c-11.9 12.8-23.1 24.2-37.8 34.2C233.6 470.1 212.9 480 192 480z"/></svg>