<svg xmlns="http://www.w3.org/2000/svg" viewBox="0 0 576 512"><!--! Font Awesome Pro 6.4.0 by @fontawesome - https://fontawesome.com License - https://fontawesome.com/license (Commercial License) Copyright 2023 Fonticons, Inc. --><path d="M288 2.7L298.6 12 384 87.4V48 32h16 96 16V48 200h-.3l58.9 52-21.2 24L512 243V496v16H496 80 64V496 243L26.6 276 5.4 252l272-240L288 2.7zM480 172.1V64H416v51.6l64 56.5zM96 214.7V480H480V214.7L288 45.3 96 214.7zm192 33.8l7.7-7.4c11.5-11 26.8-17.2 42.7-17.2h2.4c32.7 0 59.2 26.5 59.2 59.2c0 16.1-6.6 31.5-18.2 42.7l-82.8 79.6L288 416.1l-11.1-10.7-82.8-79.6c-11.6-11.2-18.2-26.6-18.2-42.7c0-32.7 26.5-59.2 59.2-59.2h2.4c15.9 0 31.2 6.2 42.7 17.2l7.7 7.4zm0 123.1l71.7-68.9c5.3-5.1 8.3-12.2 8.3-19.6c0-15-12.2-27.2-27.2-27.2h-2.4c-7.7 0-15 3-20.5 8.3l-7.7 7.4L288 293l-22.2-21.3-7.7-7.4c-5.5-5.3-12.9-8.3-20.5-8.3h-2.4c-15 0-27.2 12.2-27.2 27.2c0 7.4 3 14.5 8.3 19.6L288 371.7z"/></svg>