<svg xmlns="http://www.w3.org/2000/svg" viewBox="0 0 576 512"><!--! Font Awesome Pro 6.4.0 by @fontawesome - https://fontawesome.com License - https://fontawesome.com/license (Commercial License) Copyright 2023 Fonticons, Inc. --><path d="M288 2.7L298.6 12 384 87.4V48 32h16 96 16V48 200h-.3l58.9 52-21.2 24L512 243V496v16H496 80 64V496 243L26.6 276 5.4 252l272-240L288 2.7zM480 172.1V64H416v51.6l64 56.5zM96 214.7V480H480V214.7L288 45.3 96 214.7zM240 176h16 64 16v16 48h48 16v16 64 16H384 336v48 16H320 256 240V384 336H192 176V320 256 240h16 48V192 176zm32 32v48 16H256 208v32h48 16v16 48h32V320 304h16 48V272H320 304V256 208H272z"/></svg>