<svg xmlns="http://www.w3.org/2000/svg" viewBox="0 0 576 512"><!--! Font Awesome Pro 6.4.0 by @fontawesome - https://fontawesome.com License - https://fontawesome.com/license (Commercial License) Copyright 2023 Fonticons, Inc. --><path d="M298.6 12L288 2.7 277.4 12 5.4 252l21.2 24L64 243V496v16H80 496h16V496 243l37.4 33 21.2-24-58.9-52h.3V48 32H496 400 384V48 87.4L298.6 12zM480 64V172.1l-64-56.5V64h64zM96 480V214.7L288 45.3 480 214.7V480H96zM256 224a32 32 0 1 1 64 0 32 32 0 1 1 -64 0zm96 0a64 64 0 1 0 -128 0 64 64 0 1 0 128 0zM231.1 352H344.9l21.3 64H400l-32-96H208l-32 96h33.7l21.3-64z"/></svg>