<svg xmlns="http://www.w3.org/2000/svg" viewBox="0 0 576 512"><!--! Font Awesome Pro 6.4.0 by @fontawesome - https://fontawesome.com License - https://fontawesome.com/license (Commercial License) Copyright 2023 Fonticons, Inc. --><path d="M320 16V0H288V16v7.4l-4.1 1.1-240 64L32 91.7V104 368v16H48 496h16V368 256 243.5l-12.1-3L320 195.5V144 16zM64 116.3L288 56.6V128H240 224v32h16 48v32H240 224v32h16 62l178 44.5V352H64V116.3zM128 432V416H96v16 48H16 0v32H16h96H400 560h16V496 432 416H544v16 48H416V432 416H384v16 48H128V432z"/></svg>