<svg xmlns="http://www.w3.org/2000/svg" viewBox="0 0 576 512"><!--! Font Awesome Pro 6.4.0 by @fontawesome - https://fontawesome.com License - https://fontawesome.com/license (Commercial License) Copyright 2023 Fonticons, Inc. --><path d="M576 320v32 96 32H544 384 192 32 0V448 320C0 160.9 128.9 32 288 32s288 128.9 288 288zm-32 32H480 448 384v96H544V352zm0-32c0-46.6-12.5-90.3-34.2-128H480V320h64zM352 192H320 128V320h69.5c13.2-37.3 48.7-64 90.5-64s77.4 26.7 90.5 64H448V192H352zM96 352H32v96H192V352H128 96zm0-32V192H66.2C44.5 229.7 32 273.4 32 320H96zM487.9 160C453.8 117.5 406.4 86.1 352 72.1V160H487.9zM320 66c-10.5-1.3-21.2-2-32-2c-80.8 0-152.9 37.5-199.9 96H320V66zM288 288c-35.3 0-64 28.7-64 64v96H352V352c0-35.3-28.7-64-64-64z"/></svg>