<svg xmlns="http://www.w3.org/2000/svg" viewBox="0 0 448 512"><!--! Font Awesome Pro 6.4.0 by @fontawesome - https://fontawesome.com License - https://fontawesome.com/license (Commercial License) Copyright 2023 Fonticons, Inc. --><path d="M416 384v64H32V384H416zM105.4 352H32v-9.4l96-96L169.4 288l-60.7 60.7-3.3 3.3zm45.3 0l52.7-52.7L288 214.6l128 128V352H150.6zM416 297.4L299.3 180.7 288 169.4l-11.3 11.3L192 265.4l-52.7-52.7L128 201.4l-11.3 11.3L32 297.4V64H416V297.4zM448 336V64 32H416 32 0V64 336s0 0 0 0v16 16 16 64 32H32 416h32V448 384 368 352 336s0 0 0 0zM128 136a24 24 0 1 0 -48 0 24 24 0 1 0 48 0z"/></svg>