<svg xmlns="http://www.w3.org/2000/svg" viewBox="0 0 512 512"><!--! Font Awesome Pro 6.4.0 by @fontawesome - https://fontawesome.com License - https://fontawesome.com/license (Commercial License) Copyright 2023 Fonticons, Inc. --><path d="M272 304v16H240V304 62.6l-84.7 84.7L144 158.6 121.4 136l11.3-11.3 112-112L256 1.4l11.3 11.3 112 112L390.6 136 368 158.6l-11.3-11.3L272 62.6V304zM32 320H144l32 64H336l32-64H480h32v32V480v32H480 32 0V480 352 320H32zm332.6 78.3L355.8 416H336 176 156.2l-8.8-17.7L124.2 352H32V480H480V352H387.8l-23.2 46.3z"/></svg>