<svg xmlns="http://www.w3.org/2000/svg" viewBox="0 0 320 512"><!--! Font Awesome Pro 6.4.0 by @fontawesome - https://fontawesome.com License - https://fontawesome.com/license (Commercial License) Copyright 2023 Fonticons, Inc. --><path d="M0 32H16 96h16H304h16V64H304 202.5c28.7 23.2 48.3 57.3 52.6 96H304h16v32H304 255.1c-8 72-69 128-143.1 128H62.7L241.1 442.8l13.2 9.1-18.1 26.4-13.2-9.1L6.9 320.4 0 315.7v-8.4V304 288H16h96c56.4 0 103.1-41.7 110.9-96H16 0V160H16 222.9c-7.8-54.3-54.4-96-110.9-96H96 16 0V32z"/></svg>