<svg xmlns="http://www.w3.org/2000/svg" viewBox="0 0 512 512"><!--! Font Awesome Pro 6.4.0 by @fontawesome - https://fontawesome.com License - https://fontawesome.com/license (Commercial License) Copyright 2023 Fonticons, Inc. --><path d="M165.8 125.8c11.4-11.4 22.8-19.8 33.9-26l-15.5-28C173 78.1 161.8 86 150.8 96H66.9C76.3 68.5 108.7 32 176 32c45.5 0 75.1 16.8 92.3 35.9l7.2 8 10.2-3.7C299.5 67.2 316.2 64 336 64c67.3 0 99.7 36.5 109.1 64H260.8h-6.6l-4.7 4.7L134 248.2c-12.9-26.1-15.7-74.8 31.9-122.4l0 0 0 0zM176 0C78.6 0 32 66.2 32 112v16H48h74.1C77.8 190.3 92 255.7 120.6 284.2l11.3 11.3 11.3-11.3 94.4-94.4c-.4 3.9-.9 7.9-1.4 12.1c-5.3 40.7-17 94.1-42.4 150.1H160C89.3 352 32 409.3 32 480v32H64 384h32V480c0-65-48.4-118.6-111.1-126.9c19.6-64.1 20.6-123.6 16.1-168.7c-.9-8.7-1.9-16.8-3.1-24.4H464h16V144c0-45.8-46.6-112-144-112c-19 0-36.1 2.5-51.4 6.9C260.8 16.5 224.7 0 176 0zM285.4 160c1.4 8.4 2.7 17.6 3.7 27.6c4.4 44 3.2 102.1-17.4 164.4h-43c23-54.6 34-106.1 39.2-145.9c2.3-18 3.5-33.6 4-46.1h13.5zM160 384H288c53 0 96 43 96 96H64c0-53 43-96 96-96z"/></svg>