<svg xmlns="http://www.w3.org/2000/svg" viewBox="0 0 640 512"><!--! Font Awesome Pro 6.4.0 by @fontawesome - https://fontawesome.com License - https://fontawesome.com/license (Commercial License) Copyright 2023 Fonticons, Inc. --><path d="M224 32h23.9L352.6 176H224V32zM384.2 208H493.1L608 251.1v9.8L493.1 304H384.2h-.4H208 160h-6.6l-4.7 4.7L105.4 352H64V272h80 16V240H144 64V160h41.4l43.3 43.3 4.7 4.7H160h48H383.8h.4zM32 272v96 16H48h64 6.6l4.7-4.7L166.6 336H192V480H176v32h16 16 47.8 .4H304h16V480H304 287.4L392.1 336H496h2.9l2.7-1 128-48 10.4-3.9V272 240 228.9L629.6 225l-128-48-2.7-1H496 392.1L287.4 32H304h16V0H304 256.2h-.4H208 192 176V32h16V176H166.6l-43.3-43.3-4.7-4.7H112 48 32v16 96H16 0v32H16 32zM224 480V336H352.6L247.9 480H224z"/></svg>