<svg xmlns="http://www.w3.org/2000/svg" viewBox="0 0 512 512"><!--! Font Awesome Pro 6.4.0 by @fontawesome - https://fontawesome.com License - https://fontawesome.com/license (Commercial License) Copyright 2023 Fonticons, Inc. --><path d="M248 0H237.5l-4.2 9.6-56 128-1.3 3.1V144v66.1l-.4 .3L32 299.3V272 256H0v16 56 40 32 16H32V400 384H176v2.9l-45.1 63.9-2.9 4.1V460v36 16h16H368h16V496 460v-5.1l-2.9-4.1L336 386.9V384H480v16 16h32V400 368 328 272 256H480v16 27.3L336.4 210.4l-.4-.3V144v-3.3l-1.3-3.1-56-128L274.5 0H264 248zM32 336.9l144-89.1V352H32V336.9zm304-89.1l144 89.1V352H336V247.8zM208 147.3L256 37.6l48 109.7V392v5.1l2.9 4.1L352 465.1V480H272V432 416H240v16 48H160V465.1l45.1-63.9 2.9-4.1V392 147.3z"/></svg>