<svg xmlns="http://www.w3.org/2000/svg" viewBox="0 0 384 512"><!--! Font Awesome Pro 6.4.0 by @fontawesome - https://fontawesome.com License - https://fontawesome.com/license (Commercial License) Copyright 2023 Fonticons, Inc. --><path d="M128 32h64V64H128V32zM96 64H64V96H96h32 64 32 32V64H224V32 0H192 128 96V32 64zm256 96V480H32V256c0-53 43-96 96-96H352zM128 128C57.3 128 0 185.3 0 256V480v32H32 352h32V480 160 128H352 128zm96 80H208v16V384v16h16 64 16V384 224 208H288 224zm16 160V240h32V368H240z"/></svg>