<svg xmlns="http://www.w3.org/2000/svg" viewBox="0 0 640 512"><!--! Font Awesome Pro 6.4.0 by @fontawesome - https://fontawesome.com License - https://fontawesome.com/license (Commercial License) Copyright 2023 Fonticons, Inc. --><path d="M416 144a112 112 0 1 1 0 224 112 112 0 1 1 0-224zm0 256c23.8 0 46.3-5.8 66-16H608h32V352 160 128H608 482c-19.8-10.2-42.2-16-66-16s-46.3 5.8-66 16H224L0 192V320l224 64H350c19.8 10.2 42.2 16 66 16zm106.6-47.2c.2-.3 .5-.5 .7-.8l-.7 .8zm.7-.8c22.8-25.5 36.7-59.1 36.7-96s-13.9-70.5-36.7-96l0 0H608V352H523.3zM228.5 160h80.2c-22.8 25.5-36.7 59.1-36.7 96s13.9 70.5 36.7 96H228.5L32 295.9V216.1L228.5 160zm158.8 44.7L376 193.4 353.4 216l11.3 11.3L393.4 256l-28.7 28.7L353.4 296 376 318.6l11.3-11.3L416 278.6l28.7 28.7L456 318.6 478.6 296l-11.3-11.3L438.6 256l28.7-28.7L478.6 216 456 193.4l-11.3 11.3L416 233.4l-28.7-28.7z"/></svg>