<svg xmlns="http://www.w3.org/2000/svg" viewBox="0 0 576 512"><!--! Font Awesome Pro 6.4.0 by @fontawesome - https://fontawesome.com License - https://fontawesome.com/license (Commercial License) Copyright 2023 Fonticons, Inc. --><path d="M32 32V256H544V32H32zM0 0H32 544h32V32 256v32H544 32 0V256 32 0zM216 72v48H168V72h48zM72 168h48v48H72V168zm48-96v48H72V72h48zm144 0h48v48H264V72zm144 0v48H360V72h48zm48 0h48v48H456V72zm48 96v48H456V168h48zm-328 8H400h16v32H400 176 160V176h16zm-4.7 172.7L288 465.4 404.7 348.7 416 337.4 438.6 360l-11.3 11.3-128 128L288 510.6l-11.3-11.3-128-128L137.4 360 160 337.4l11.3 11.3z"/></svg>