<svg xmlns="http://www.w3.org/2000/svg" viewBox="0 0 576 512"><!--! Font Awesome Pro 6.4.0 by @fontawesome - https://fontawesome.com License - https://fontawesome.com/license (Commercial License) Copyright 2023 Fonticons, Inc. --><path d="M128 448V64H448V448H128zm-32 0H32V64H96V448zM112 32H96 32 0V64 448v32H32 96h16 16H448h16 16 64 32V448 64 32H544 480 464 448 128 112zM544 448H480V64h64V448zM256 144H240v16 48H192 176v16 64 16h16 48v48 16h16 64 16V352 304h48 16V288 224 208H384 336V160 144H320 256zm16 80V176h32v48 16h16 48v32H320 304v16 48H272V288 272H256 208V240h48 16V224z"/></svg>