<svg xmlns="http://www.w3.org/2000/svg" viewBox="0 0 640 512"><!--! Font Awesome Pro 6.4.0 by @fontawesome - https://fontawesome.com License - https://fontawesome.com/license (Commercial License) Copyright 2023 Fonticons, Inc. --><path d="M270.9 346.5L457.4 160 341.2 43.9 270.9 346.5zm-14.9 64.2l-5.2 1.2-95.4 95.4-4.7 4.7H144 96 80V496 316.3L24.2 349.7 0 364.3V336 240 211.7l24.2 14.5L80 259.7V160H16 0V128H16 96h16v16V259.7l55.8-33.5L192 211.7V240v96 28.3l-24.2-14.5L112 316.3V480h25.4L228 389.3l1.2-5.2 3.6-15.3 80-344L318.6 0H344 608h32V32 296v25.4l-24.8 5.8-344 80-15.3 3.6zM480 182.6L293.5 369.1l302.6-70.4L480 182.6zM502.6 160L608 265.4V54.6L502.6 160zM374.6 32L480 137.4 585.4 32H374.6zM32 268.3v39.5L64.9 288 32 268.3zm128 39.5V268.3L127.1 288 160 307.7z"/></svg>