<svg xmlns="http://www.w3.org/2000/svg" viewBox="0 0 448 512"><!--! Font Awesome Pro 6.4.0 by @fontawesome - https://fontawesome.com License - https://fontawesome.com/license (Commercial License) Copyright 2023 Fonticons, Inc. --><path d="M416 176c0-25.2-15.9-52.4-50.9-74.9C330.4 78.8 280.6 64 224 64s-106.4 14.8-141.1 37.1C47.9 123.6 32 150.8 32 176s15.9 52.4 50.9 74.9C117.6 273.2 167.4 288 224 288s106.4-14.8 141.1-37.1c35-22.5 50.9-49.7 50.9-74.9zm32 0v80c0 123.7-100.3 224-224 224S0 379.7 0 256V176C0 96.5 100.3 32 224 32s224 64.5 224 144zm-32 74.2C376.8 292 305.5 320 224 320s-152.8-28-192-69.8V256c0 106 86 192 192 192s192-86 192-192v-5.8zM280 176c0 13.3-25.1 24-56 24s-56-10.7-56-24s25.1-24 56-24s56 10.7 56 24zM240 88v24 16H208V112 88 72h32V88zm-84.7 12.7l8 8L174.6 120 152 142.6l-11.3-11.3-8-8L121.4 112 144 89.4l11.3 11.3zm160 22.6l-8 8L296 142.6 273.4 120l11.3-11.3 8-8L304 89.4 326.6 112l-11.3 11.3zM96 160h32 16v32H128 96 80V160H96zm224 0h32 16v32H352 320 304V160h16zM163.3 243.3l-8 8L144 262.6 121.4 240l11.3-11.3 8-8L152 209.4 174.6 232l-11.3 11.3zm144-22.6l8 8L326.6 240 304 262.6l-11.3-11.3-8-8L273.4 232 296 209.4l11.3 11.3zM240 264v16H208V264 240 224h32v16 24z"/></svg>