<svg xmlns="http://www.w3.org/2000/svg" viewBox="0 0 512 512"><!--! Font Awesome Pro 6.4.0 by @fontawesome - https://fontawesome.com License - https://fontawesome.com/license (Commercial License) Copyright 2023 Fonticons, Inc. --><path d="M32 168C32 92.9 92.9 32 168 32c72.7 0 132 57 135.8 128.7C216 168 145 234.4 130.7 320c-1.7 10.4-2.7 21.1-2.7 32h32H480h32c0-10.9-.9-21.6-2.7-32C495 234.3 423.8 167.8 335.8 160.6C332 71.3 258.3 0 168 0C75.2 0 0 75.2 0 168V496v16H32V496 168zm288 24c77.4 0 142 55 156.8 128H163.2C178 247 242.6 192 320 192zM241.6 384c7.4 36.5 39.7 64 78.4 64s71-27.5 78.4-64H365.3c-6.6 18.6-24.4 32-45.3 32s-38.7-13.4-45.3-32H241.6z"/></svg>