<svg xmlns="http://www.w3.org/2000/svg" viewBox="0 0 512 512"><!--! Font Awesome Pro 6.4.0 by @fontawesome - https://fontawesome.com License - https://fontawesome.com/license (Commercial License) Copyright 2023 Fonticons, Inc. --><path d="M368 96l-9.4-9.4L320.6 48.6C310 38 295.6 32 280.6 32C249.3 32 224 57.3 224 88.6c0 15 6 29.4 16.6 40l38.1 38.1L288 176v13.3 69.5l16 16L466.7 112l-16-16H381.3 368zm96-32l25.4 25.4L512 112l-22.6 22.6L326.6 297.4 304 320l-22.6-22.6L256 272V189.3l-19.3-19.3-90.8 90.8L204.3 480H368h16v32H368 192 16 0V480H16 171.2L112.5 260.1l-2.4-8.9 6.5-6.5 97.5-97.5c-14.3-16.1-22.2-37-22.2-58.6C192 39.7 231.7 0 280.6 0c23.5 0 46 9.3 62.6 25.9L381.3 64H464zM378.6 287.9L401.5 265c6.4 4.4 14.2 7 22.5 7c22.1 0 40-17.9 40-40c0-8.4-2.6-16.1-7-22.5l22.8-22.8C490 199 496 214.8 496 232c0 39.8-32.2 72-72 72c-17.2 0-33-6-45.4-16.1z"/></svg>