<svg xmlns="http://www.w3.org/2000/svg" viewBox="0 0 512 512"><!--! Font Awesome Pro 6.4.0 by @fontawesome - https://fontawesome.com License - https://fontawesome.com/license (Commercial License) Copyright 2023 Fonticons, Inc. --><path d="M272 32V64h64V32H272zm64 64H272v32H464h16v32H464 48 32V128H48 240V96 64 32 16 0h16 16 64 32V32 64 96H336zM48 352H64V192H96V352h80V192h32V352h96V192h32V352h80V192h32V352h16v32H448 64 48V352zm440 64v32H472 40 24V416H40 472h16zM0 480H16 496h16v32H496 16 0V480z"/></svg>