<svg xmlns="http://www.w3.org/2000/svg" viewBox="0 0 640 512"><!--! Font Awesome Pro 6.4.0 by @fontawesome - https://fontawesome.com License - https://fontawesome.com/license (Commercial License) Copyright 2023 Fonticons, Inc. --><path d="M96 64H544V352h32V64 32H544 96 64V64 352H96V64zM32 418.7V416H608v2.7L578.7 448H61.3L32 418.7zM608 384H32 0v32 16l48 48H592l48-48V416 384H608zM176 128H160v16 80 16h16 64 16V224 144 128H240 176zm16 80V160h32v48H192zm112-80H288v32h16v64 16h32V224 144 128H320 304zm80 0v16 80 16h16 64 16V224 144 128H464 400 384zm32 32h32v48H416V160zM192 272H176v32h16v48h32V288 272H208 192zm256 16V272H432 416 400v32h16v48h32V288zm-80 0V272H352 288 272v16 64h32V304h32v48h32V288z"/></svg>