<svg xmlns="http://www.w3.org/2000/svg" viewBox="0 0 576 512"><!--! Font Awesome Pro 6.4.0 by @fontawesome - https://fontawesome.com License - https://fontawesome.com/license (Commercial License) Copyright 2023 Fonticons, Inc. --><path d="M408 64H392V96h16H520h16V64H520 408zM288 349L78.8 256 288 163l209.2 93L288 349zM536.6 238.5L288 128 39.4 238.5 0 256l39.4 17.5L288 384 536.6 273.5 576 256l-39.4-17.5zM144 355l-39.4-17.5-65.2 29L0 384l39.4 17.5L288 512 536.6 401.5 576 384l-39.4-17.5-65.2-29L432 355l65.2 29L288 477 78.8 384 144 355z"/></svg>