<svg xmlns="http://www.w3.org/2000/svg" viewBox="0 0 320 512"><!--! Font Awesome Pro 6.4.0 by @fontawesome - https://fontawesome.com License - https://fontawesome.com/license (Commercial License) Copyright 2023 Fonticons, Inc. --><path d="M160 28V7.5l-19.9 5-128 32L0 47.5V60v67.5V140v0 20.5 47V220v20.5V300v20.5l19.9-5 111.9-28 .1 0 64-16 92.1-23v47l-99.9 25-12.1 3V336v48H144V333.5l-32 8V384H96 64v32 32 32H96h48v16 16h32V496 480h48 32V448 416 384H224 208V348.5l99.9-25 12.1-3V308 228 207.5l0 0v-47V148 127.5 68 47.5l-19.9 5L160 87.5V28zM288 215.5l-163.9 41L32 279.5v-47l256-64v47zm-128-95l128-32v47l-256 64v-47l115.9-29 12.1-3zm-32-25l-96 24v-47l96-24v47zM224 448H176 144 96V416H224v32z"/></svg>