<svg xmlns="http://www.w3.org/2000/svg" viewBox="0 0 576 512"><!--! Font Awesome Pro 6.4.0 by @fontawesome - https://fontawesome.com License - https://fontawesome.com/license (Commercial License) Copyright 2023 Fonticons, Inc. --><path d="M107.3 44.7L96 33.4 84.7 44.7l-72 72L1.4 128 24 150.6l11.3-11.3L80 94.6V417.4L35.3 372.7 24 361.4 1.4 384l11.3 11.3 72 72L96 478.6l11.3-11.3 72-72L190.6 384 168 361.4l-11.3 11.3L112 417.4V94.6l44.7 44.7L168 150.6 190.6 128l-11.3-11.3-72-72zM272 80H256v32h16H560h16V80H560 272zm0 160H256v32h16H560h16V240H560 272zM256 400v32h16H560h16V400H560 272 256z"/></svg>