<svg xmlns="http://www.w3.org/2000/svg" viewBox="0 0 512 512"><!--! Font Awesome Pro 6.4.0 by @fontawesome - https://fontawesome.com License - https://fontawesome.com/license (Commercial License) Copyright 2023 Fonticons, Inc. --><path d="M16 48H0V80H16 208h16V48H208 16zm0 128H0v32H16 208h16V176H208 16zM0 304v32H16 208h16V304H208 16 0zM16 432H0v32H16 208h16V432H208 16zM288 176v32h16H496h16V176H496 304 288zM304 48H288V80h16H496h16V48H496 304zM288 304v32h16H496h16V304H496 304 288zm16 128H288v32h16H496h16V432H496 304z"/></svg>