<svg xmlns="http://www.w3.org/2000/svg" viewBox="0 0 512 512"><!--! Font Awesome Pro 6.4.0 by @fontawesome - https://fontawesome.com License - https://fontawesome.com/license (Commercial License) Copyright 2023 Fonticons, Inc. --><path d="M384 71.8L480 43v93.2L384 165V128 71.8zM352 48v80 46.6V208 376c-20.3-14.8-48.7-24-80-24c-61.9 0-112 35.8-112 80s50.1 80 112 80s112-35.8 112-80V198.4L512 160V33.4 0L480 9.6 352 48zm0 384c0 9.1-5.1 20.3-19.4 30.5C318.3 472.7 297 480 272 480s-46.3-7.3-60.6-17.5C197.1 452.3 192 441.1 192 432s5.1-20.3 19.4-30.5C225.7 391.3 247 384 272 384s46.3 7.3 60.6 17.5C346.9 411.7 352 422.9 352 432zM16 64H0V96H16 272h16V64H272 16zm0 128H0v32H16 272h16V192H272 16zm0 128H0v32H16 144h16V320H144 16z"/></svg>