<svg xmlns="http://www.w3.org/2000/svg" viewBox="0 0 512 512"><!--! Font Awesome Pro 6.4.0 by @fontawesome - https://fontawesome.com License - https://fontawesome.com/license (Commercial License) Copyright 2023 Fonticons, Inc. --><path d="M32 32H48 80 96V48 192h32 16v32H128 32 16V192H32 64V64H48 32V32zM192 80h16H496h16v32H496 208 192V80zm0 160h16H496h16v32H496 208 192V240zm0 160h16H496h16v32H496 208 192V400zM80 288h4.5c32.9 0 59.5 26.6 59.5 59.5c0 17.7-7.9 34.6-21.6 45.9L56.4 448H128h16v32H128 32 16V464 447.4v-7.5l5.8-4.8L102 368.7c6.3-5.2 10-13 10-21.2c0-15.2-12.3-27.5-27.5-27.5H80c-17.7 0-32 14.3-32 32H16c0-35.3 28.7-64 64-64z"/></svg>