<svg xmlns="http://www.w3.org/2000/svg" viewBox="0 0 512 512"><!--! Font Awesome Pro 6.4.0 by @fontawesome - https://fontawesome.com License - https://fontawesome.com/license (Commercial License) Copyright 2023 Fonticons, Inc. --><path d="M272 16v96 16H240V112 16 0h32V16zm0 384v96 16H240V496 400 384h32v16zM0 240H16h96 16v32H112 16 0V240zm400 0h96 16v32H496 400 384V240h16zM448.3 86.3L437 97.6l-67.9 67.9-11.3 11.3-22.6-22.6 11.3-11.3L414.4 75l11.3-11.3 22.6 22.6zM165.5 369.1L97.6 437 86.3 448.3 63.7 425.7 75 414.4l67.9-67.9 11.3-11.3 22.6 22.6-11.3 11.3zM86.3 63.7L97.6 75l67.9 67.9 11.3 11.3-22.6 22.6-11.3-11.3L75 97.6 63.7 86.3 86.3 63.7zM369.1 346.5L437 414.4l11.3 11.3-22.6 22.6L414.4 437l-67.9-67.9-11.3-11.3 22.6-22.6 11.3 11.3z"/></svg>