<svg xmlns="http://www.w3.org/2000/svg" viewBox="0 0 512 512"><!--! Font Awesome Pro 6.4.0 by @fontawesome - https://fontawesome.com License - https://fontawesome.com/license (Commercial License) Copyright 2023 Fonticons, Inc. --><path d="M59.6 36.6C43.3 44.2 32 60.8 32 80v48c0 17.7 14.3 32 32 32s32-14.3 32-32V80 64h32V80v48c0 16.7-6.4 31.9-16.9 43.3L149.3 200H176c0-25.6 14.7-48.9 32-67.2V53.6l-34.6-5.8-15.8-2.6 5.3-31.6 15.8 2.6 48 8L240 26.4V40v65.6c3.2-2.2 6.3-4.1 9-5.8c4.3-2.6 9.7-2.6 14 0c2.8 1.6 5.8 3.6 9 5.8V40 26.4l13.4-2.2 48-8 15.8-2.6 5.3 31.6-15.8 2.6L304 53.6v79.2c17.3 18.3 32 41.6 32 67.2h26.7l38.2-28.7C390.4 159.9 384 144.7 384 128V80 64h32V80v48c0 17.7 14.3 32 32 32s32-14.3 32-32V80c0-19.2-11.3-35.8-27.6-43.4l11.3 56.3 3.1 15.7-31.4 6.3-3.1-15.7-16-80L412.5 0H432c44.2 0 80 35.8 80 80v48c0 35.3-28.7 64-64 64c-6.2 0-12.2-.9-17.9-2.5l-52.5 39.3-4.3 3.2H368 336v24h44.2l44.6-22.3 14.3-7.2 14.3 28.6-14.3 7.2-48 24-3.4 1.7H384 336v16h61.4l45.5-15.2 15.2-5.1 10.1 30.4-15.2 5.1-48 16-2.5 .8H400 336v16h16 3.8l3.4 1.7 32 16 14.3 7.2-14.3 28.6-14.3-7.2L348.2 384H336v0l-18.5 51.7c19.8 7.1 35.1 23.7 40.5 44.3c1.3 5.1 2 10.5 2 16v16H328 184 152V496c0-5.5 .7-10.9 2-16c5.3-20.6 20.6-37.2 40.5-44.3L176 384v0H163.8l-28.6 14.3-14.3 7.2-14.3-28.6 14.3-7.2 32-16 3.4-1.7H160h16V336H112h-2.6l-2.5-.8-48-16-15.2-5.1 10.1-30.4 15.2 5.1L114.6 304H176V288H128h-3.8l-3.4-1.7-48-24-14.3-7.2 14.3-28.6 14.3 7.2L131.8 256H176V232H144h-5.3l-4.3-3.2L81.9 189.5C76.2 191.1 70.2 192 64 192c-35.3 0-64-28.7-64-64V80C0 35.8 35.8 0 80 0H99.5L95.7 19.1l-16 80-3.1 15.7-31.4-6.3 3.1-15.7L59.6 36.6zM208 256v32 9.9l48 6 48-6V288 256 232 200s0 0 0 0c0-12.1-6.5-26.2-19.3-40.9c-9-10.4-19.7-19.2-28.7-25.7c-9.1 6.4-19.7 15.3-28.7 25.7C214.5 173.8 208 187.9 208 200c0 0 0 0 0 0v32 24zm96 74.1l-46 5.8-2 .2-2-.2-46-5.8V336v9.9l48 6 48-6V336v-5.9zm0 48l-46 5.8-2 .2-2-.2-46-5.8v.3l6.2 17.3c6.4 .9 15.7 1.9 24.4 2.7c5.1 .5 9.8 .9 13.2 1.2l4 .3 .2 0 .2 0 4-.3c3.4-.3 8.1-.7 13.2-1.2c8.7-.8 18-1.8 24.4-2.7l6.2-17.3v-.3zm-18.2 51.2c-3.2 .3-6.4 .6-9.4 .9c-5.2 .5-10 .9-13.5 1.2l-4.1 .3-1.1 .1-.3 0-.1 0 0 0 0 0 0 0L256 416l-1.3 15.9 0 0 0 0 0 0-.1 0-.3 0-1.1-.1-4.1-.3c-3.5-.3-8.3-.7-13.5-1.2c-3-.3-6.2-.6-9.4-.9l9.2 25.7-30.1 10.8c-7.2 2.6-13.2 7.6-17 14.2H323.7c-3.8-6.5-9.8-11.6-17-14.2l-30.1-10.8 9.2-25.7zM256 416l-1.3 15.9 1.3 .1 1.3-.1L256 416z"/></svg>