<svg xmlns="http://www.w3.org/2000/svg" viewBox="0 0 512 512"><!--! Font Awesome Pro 6.4.0 by @fontawesome - https://fontawesome.com License - https://fontawesome.com/license (Commercial License) Copyright 2023 Fonticons, Inc. --><path d="M352 130.4V87.6c17 15.2 39.4 24.4 64 24.4h80 16V96c0-53-43-96-96-96H352 336 320V16 128c-48.7 .2-97.4 17.5-134.6 51.9c-45.7 34.4-67.6 72.9-88.1 108.8c-19 33.2-36.7 64.3-70.8 88L0 393.8l1.8 59.1 43.7 19.2s99.8 39.9 243.3 39.9C454.7 512 512 375.9 512 305.2c0-45.4-18.7-90.7-56-125.3c-16.6-15.4-35.5-27.4-55.7-35.9H384v27.9c18.3 7.2 35.4 17.7 50.2 31.5C465.1 232 480 268.8 480 305.2c0 28.2-11.9 72.7-42.1 109.6c-29.2 35.7-76 65.1-149.1 65.1c-68.8 0-127.2-9.6-168.2-19.1c-20.5-4.8-36.6-9.5-47.4-13c-5.4-1.7-9.5-3.2-12.2-4.2c-1.3-.5-2.3-.9-2.9-1.1l-.3-.1L33.2 431.7l-.6-20.8 11.3-7.3 .4-.3 .4-.3c40.2-28 61.2-64.8 79.7-97.2l3-5.3c19.5-34.2 38.9-66.1 77.3-95.1l1.3-1 1.2-1.1c31.1-28.8 71.9-43.2 112.9-43.4v16 16h32V176 162.8 144 130.4zM320 432c61.9 0 112-50.1 112-112H400c0 44.2-35.8 80-80 80v32zM416 80c-29.8 0-54.9-20.4-62-48h62c29.8 0 54.9 20.4 62 48H416z"/></svg>