<svg xmlns="http://www.w3.org/2000/svg" viewBox="0 0 640 512"><!--! Font Awesome Pro 6.4.0 by @fontawesome - https://fontawesome.com License - https://fontawesome.com/license (Commercial License) Copyright 2023 Fonticons, Inc. --><path d="M304 32h16H432h16V48 160v16H416V160 86.6L311.3 191.4C336.7 221.9 352 261.2 352 304c0 97.2-78.8 176-176 176S0 401.2 0 304s78.8-176 176-176c42.8 0 82.1 15.3 112.6 40.7L393.4 64H320 304V32zM176 448a144 144 0 1 0 0-288 144 144 0 1 0 0 288zM480 202.7V169.4L585.4 64H512 496V32h16H624h16V48 160v16H608V160 86.6l-100 100c22.6 30.6 36 68.4 36 109.4c0 101.6-82.4 184-184 184c-20.7 0-40.5-3.4-59.1-9.7c10.1-7.6 19.5-16.2 28.1-25.5c10 2.1 20.3 3.2 30.9 3.2c83.9 0 152-68.1 152-152c0-35.2-11.9-67.5-32-93.3z"/></svg>