<svg xmlns="http://www.w3.org/2000/svg" viewBox="0 0 640 512"><!--! Font Awesome Pro 6.4.0 by @fontawesome - https://fontawesome.com License - https://fontawesome.com/license (Commercial License) Copyright 2023 Fonticons, Inc. --><path d="M218.9 86.9L193.8 36.1 176 0 158.2 36.1 133.1 86.9l-55.3-12L38.4 66.3l17.1 36.5L79.6 154 35.7 189.7 4.4 215.2l39.2 9.4 55.1 13.1 .6 56.6 .4 40.3 31.8-24.8L176 274.9l44.6 34.9L233.7 320c-10.2-17.6-17.7-37.1-21.8-57.7l-16.1-12.6L176 234.3l-19.7 15.4L131 269.5l-.3-32.1-.2-25-24.3-5.8-31.2-7.5 24.9-20.3L119.2 163l-10.6-22.6L94.9 111.3l31.4 6.8 24.4 5.3 11.1-22.4L176 72.3l14.2 28.8 11.1 22.4 24.4-5.3 16.5-3.6C253 99 266.1 85.1 280.9 73.4l-6.7 1.5-55.3 12zM528 0H512V32h16 57.4l-75.6 75.6C481.1 80.6 442.5 64 400 64c-88.4 0-160 71.6-160 160c0 83 63.1 151.2 144 159.2V416H344 328v32h16 40v48 16h32V496 448h40 16V416H456 416V383.2c80.9-8 144-76.2 144-159.2c0-34.3-10.8-66.1-29.2-92.2L608 54.6V104v16h32V104 16 0H624 528zM272 224a128 128 0 1 1 256 0 128 128 0 1 1 -256 0z"/></svg>