<svg xmlns="http://www.w3.org/2000/svg" viewBox="0 0 640 512"><!--! Font Awesome Pro 6.4.0 by @fontawesome - https://fontawesome.com License - https://fontawesome.com/license (Commercial License) Copyright 2023 Fonticons, Inc. --><path d="M64 256a144 144 0 1 1 288 0A144 144 0 1 1 64 256zm319.3-16C375.2 150.3 299.8 80 208 80C110.8 80 32 158.8 32 256s78.8 176 176 176c91.8 0 167.2-70.3 175.3-160H432v48 16h32V320 272h81.4l-44.7 44.7L489.4 328 512 350.6l11.3-11.3 72-72L606.6 256l-11.3-11.3-72-72L512 161.4 489.4 184l11.3 11.3L545.4 240H464V192 176H432v16 48H383.3z"/></svg>