<svg xmlns="http://www.w3.org/2000/svg" viewBox="0 0 512 512"><!--! Font Awesome Pro 6.4.0 by @fontawesome - https://fontawesome.com License - https://fontawesome.com/license (Commercial License) Copyright 2023 Fonticons, Inc. --><path d="M368 0H352V32h16 73.4l-75.6 75.6C337.1 80.6 298.5 64 256 64C167.6 64 96 135.6 96 224c0 83 63.1 151.2 144 159.2V416H208 192v32h16 32v48 16h32V496 448h32 16V416H304 272V383.2c80.9-8 144-76.2 144-159.2c0-34.3-10.8-66.1-29.2-92.2L464 54.6V128v16h32V128 16 0H480 368zM256 96a128 128 0 1 1 0 256 128 128 0 1 1 0-256z"/></svg>