<svg xmlns="http://www.w3.org/2000/svg" viewBox="0 0 576 512"><!--! Font Awesome Pro 6.4.0 by @fontawesome - https://fontawesome.com License - https://fontawesome.com/license (Commercial License) Copyright 2023 Fonticons, Inc. --><path d="M544 144c0-61.9-50.1-112-112-112c-44.7 0-83.2 26.2-101.2 64H296.2C316 40.1 369.3 0 432 0c79.5 0 144 64.5 144 144s-64.5 144-144 144c-28.2 0-54.5-8.1-76.7-22.1l23.4-23.4c15.8 8.6 34 13.5 53.3 13.5c61.9 0 112-50.1 112-112zM0 160V128H32 384h32v32L230.6 345.4 224 352V480h96v32H224 208 96V480h96V352l-6.6-6.6L0 160zM208 322.7L370.7 160H45.3L208 322.7z"/></svg>