<svg xmlns="http://www.w3.org/2000/svg" viewBox="0 0 640 512"><!--! Font Awesome Pro 6.4.0 by @fontawesome - https://fontawesome.com License - https://fontawesome.com/license (Commercial License) Copyright 2023 Fonticons, Inc. --><path d="M223.2 418.3c-9.7-16.7-15.2-36.2-15.2-57c0-25.4 9.1-54.2 21.6-80.1c12.6-26.1 29.6-51 47.1-68.5l4.7-4.7H288h64 6.6l4.7 4.7c17.5 17.5 34.5 42.4 47.1 68.5C422.9 307.2 432 336 432 361.3c0 20.7-5.5 40-15 56.5c38.5-27.1 63-69.9 63-117.1c0-45.1-22.1-112-58.4-164.5L367.9 64H272l-54 72.3c-36.2 52.4-58 119.4-58 164.5c0 47.2 24.3 90.3 63.2 117.5zM192 117.6L256 32H384l63.6 85.6c2.4 3.4 4.7 6.9 6.9 10.4H624h16v16V336v12.3l-11.9 3.1-140.6 37C462.1 430.6 419 462 368 474.3V426c19.3-14.7 32-38 32-64.7c0-18.6-6.9-42.5-18.4-66.2c-10.2-21.1-23.4-40.9-36.4-55.1H294.8c-13.1 14.3-26.2 34-36.4 55.1c-11.5 23.7-18.4 47.6-18.4 66.2c0 26.6 12.5 50.1 32 64.9v48.2c-51.6-12.3-94.5-43.9-119.7-86L11.9 351.5 0 348.3V336 144 128H16 185.1c2.3-3.5 4.6-7 6.9-10.4zM166.8 160H32V323.7l103.5 27.2c-4.9-15.9-7.5-32.7-7.5-50.1c0-40.5 14.4-93 38.8-140.8zM504.4 350.9L608 323.7V160H472.9C497.4 207.8 512 260.3 512 300.8c0 17.4-2.7 34.3-7.6 50.1zM304 304h32V512H304V304z"/></svg>