<svg xmlns="http://www.w3.org/2000/svg" viewBox="0 0 576 512"><!--! Font Awesome Pro 6.4.0 by @fontawesome - https://fontawesome.com License - https://fontawesome.com/license (Commercial License) Copyright 2023 Fonticons, Inc. --><path d="M352 32H32V480H296.2c10 12.1 21.7 22.9 34.6 32H32 0V480 32 0H32 352h32V32 198.6c-11.2 3.2-21.9 7.4-32 12.6V32zM64 128H80 304h16v32H304 80 64V128zm16 96H272h16v32H272 80 64V224H80zm0 96H208h16v32H208 80 64V320H80zm464 48a112 112 0 1 0 -224 0 112 112 0 1 0 224 0zm-256 0a144 144 0 1 1 288 0 144 144 0 1 1 -288 0zm160-80v32H416V288h32zM400 448V416h16V368H400V336h16 16 16v16 64h0 16v32H448h0H416h0H400z"/></svg>