<svg xmlns="http://www.w3.org/2000/svg" viewBox="0 0 576 512"><!--! Font Awesome Pro 6.4.0 by @fontawesome - https://fontawesome.com License - https://fontawesome.com/license (Commercial License) Copyright 2023 Fonticons, Inc. --><path d="M352 32H32V480H296.2c10 12.1 21.7 22.9 34.6 32H32 0V480 32 0H32 352h32V32 198.6c-11.2 3.2-21.9 7.4-32 12.6V32zM64 128H80 304h16v32H304 80 64V128zm16 96H272h16v32H272 80 64V224H80zm0 96H208h16v32H208 80 64V320H80zM432 480a112 112 0 1 0 0-224 112 112 0 1 0 0 224zm0-256a144 144 0 1 1 0 288 144 144 0 1 1 0-288zm78.6 112l-11.3 11.3-72 72L416 430.6l-11.3-11.3-40-40L353.4 368 376 345.4l11.3 11.3L416 385.4l60.7-60.7L488 313.4 510.6 336z"/></svg>