<svg xmlns="http://www.w3.org/2000/svg" viewBox="0 0 512 512"><!--! Font Awesome Pro 6.4.0 by @fontawesome - https://fontawesome.com License - https://fontawesome.com/license (Commercial License) Copyright 2023 Fonticons, Inc. --><path d="M160 416H128 32 0V384 32 0H32 480h32V32 384v32H480 304L192 490.7 160 512V473.5 448 416zm0-32h32v32 36.2l94.2-62.8 8.1-5.4H304 480V32H32V384H160zM352 96V240c0 .5 0 1-.1 1.5c0 .8 .1 1.6 .1 2.5c0 24.3-21.5 44-48 44s-48-19.7-48-44s21.5-44 48-44c5.6 0 11 .9 16 2.5V119.1l-96 36V272c0 .5 0 1-.1 1.5c0 .8 .1 1.6 .1 2.5c0 24.3-21.5 44-48 44s-48-19.7-48-44s21.5-44 48-44c5.6 0 11 .9 16 2.5V144 132.9l10.4-3.9 128-48L352 72.9V96zM192 276c0-4.1-4.5-12-16-12s-16 7.9-16 12s4.5 12 16 12s16-7.9 16-12zm112-20c11.5 0 16-7.9 16-12s-4.5-12-16-12s-16 7.9-16 12s4.5 12 16 12z"/></svg>