<svg xmlns="http://www.w3.org/2000/svg" viewBox="0 0 512 512"><!--! Font Awesome Pro 6.4.0 by @fontawesome - https://fontawesome.com License - https://fontawesome.com/license (Commercial License) Copyright 2023 Fonticons, Inc. --><path d="M160 416H128 32 0V384 32 0H32 480h32V32 384v32H480 304L192 490.7 160 512V473.5 448 416zm0-32h32v32 36.2l94.2-62.8 8.1-5.4H304 480V32H32V384H160zm31.4-263.2l11.3 11.3L256 185.4l53.3-53.3 11.3-11.3 22.6 22.6-11.3 11.3L278.6 208l53.3 53.3 11.3 11.3-22.6 22.6-11.3-11.3L256 230.6l-53.3 53.3-11.3 11.3-22.6-22.6 11.3-11.3L233.4 208l-53.3-53.3-11.3-11.3 22.6-22.6z"/></svg>