<svg xmlns="http://www.w3.org/2000/svg" viewBox="0 0 512 512"><!--! Font Awesome Pro 6.4.0 by @fontawesome - https://fontawesome.com License - https://fontawesome.com/license (Commercial License) Copyright 2023 Fonticons, Inc. --><path d="M160 416H128 32 0V384 32 0H32 480h32V32 384v32H480 304L192 490.7 160 512V473.5 448 416zm0-32h32v32 36.2l94.2-62.8 8.1-5.4H304 480V32H32V384H160zM272 112V265.4l52.7-52.7L336 201.4 358.6 224l-11.3 11.3-80 80L256 326.6l-11.3-11.3-80-80L153.4 224 176 201.4l11.3 11.3L240 265.4V112 96h32v16z"/></svg>