<svg xmlns="http://www.w3.org/2000/svg" viewBox="0 0 640 512"><!--! Font Awesome Pro 6.4.0 by @fontawesome - https://fontawesome.com License - https://fontawesome.com/license (Commercial License) Copyright 2023 Fonticons, Inc. --><path d="M128 368L96 384V352v-3.8V320H64 32 0V288 32 0H32 384h32V32 288v32H384 224l-96 48zm0-35.8l81.7-40.8 6.8-3.4H224 384V32H32V288H96h32v32 12.2zM256 416V352h32v64H416h7.6l6.8 3.4L512 460.2V448 416h32 64V160H448V128H608h32v32V416v32H608 576 544v28.2V480v32l-32-16-96-48H288 256V416zM146.7 109c0-21.4 17.3-38.7 38.7-38.7h40.3c24.2 0 43.7 19.6 43.7 43.7c0 15.7-8.4 30.1-22 37.9L224 165.4v5.9 16H192v-16V156.1v-9.3l8-4.6 31.4-18c3.6-2.1 5.9-6 5.9-10.2c0-6.5-5.3-11.7-11.7-11.7H185.3c-3.7 0-6.7 3-6.7 6.7l0 4.6-32 0 0-4.6zM191 216.7h34v34H191v-34z"/></svg>