<svg xmlns="http://www.w3.org/2000/svg" viewBox="0 0 512 512"><!--! Font Awesome Pro 6.4.0 by @fontawesome - https://fontawesome.com License - https://fontawesome.com/license (Commercial License) Copyright 2023 Fonticons, Inc. --><path d="M160 416H128 32 0V384 32 0H32 480h32V32 384v32H480 304L192 490.7 160 512V473.5 448 416zm0-32h32v32 36.2l94.2-62.8 8.1-5.4H304 480V32H32V384H160zm59.3-228.7L166.6 208l52.7 52.7L230.6 272 208 294.6l-11.3-11.3-64-64L121.4 208l11.3-11.3 64-64L208 121.4 230.6 144l-11.3 11.3zm96-22.6l64 64L390.6 208l-11.3 11.3-64 64L304 294.6 281.4 272l11.3-11.3L345.4 208l-52.7-52.7L281.4 144 304 121.4l11.3 11.3z"/></svg>