<svg xmlns="http://www.w3.org/2000/svg" viewBox="0 0 512 512"><!--! Font Awesome Pro 6.4.0 by @fontawesome - https://fontawesome.com License - https://fontawesome.com/license (Commercial License) Copyright 2023 Fonticons, Inc. --><path d="M160 448V416H128 32 0V384 32 0H32 480h32V32 384v32H480 304L192 490.7 160 512V473.5 448zm0-64h32v32 36.2l94.2-62.8 8.1-5.4H304 480V32H32V384H160zm88.3-254.8l7.7 7.4 7.7-7.4c11.5-11 26.8-17.2 42.7-17.2h2.4c32.7 0 59.2 26.5 59.2 59.2c0 16.1-6.6 31.5-18.2 42.7l-82.8 79.6L256 304.1l-11.1-10.7-82.8-79.6c-11.6-11.2-18.2-26.6-18.2-42.7c0-32.7 26.5-59.2 59.2-59.2h2.4c15.9 0 31.2 6.2 42.7 17.2zm79.3 61.6c5.3-5.1 8.3-12.2 8.3-19.6c0-15-12.2-27.2-27.2-27.2h-2.4c-7.7 0-15 3-20.5 8.3l-7.7 7.4L256 181l-22.2-21.3-7.7-7.4c-5.5-5.3-12.9-8.3-20.5-8.3h-2.4c-15 0-27.2 12.2-27.2 27.2c0 7.4 3 14.5 8.3 19.6L256 259.7l71.7-68.9z"/></svg>