<svg xmlns="http://www.w3.org/2000/svg" viewBox="0 0 512 512"><!--! Font Awesome Pro 6.4.0 by @fontawesome - https://fontawesome.com License - https://fontawesome.com/license (Commercial License) Copyright 2023 Fonticons, Inc. --><path d="M160 416H128 32 0V384 32 0H32 480h32V32 384v32H480 304L192 490.7 160 512V473.5 448 416zm0-32h32v32 36.2l94.2-62.8 8.1-5.4H304 480V32H32V384H160zm32-256h64 64c8.8 0 16 7.2 16 16s-7.2 16-16 16H272V272c0 8.8-7.2 16-16 16s-16-7.2-16-16V160H192c-8.8 0-16-7.2-16-16s7.2-16 16-16z"/></svg>