<svg xmlns="http://www.w3.org/2000/svg" viewBox="0 0 640 512"><!--! Font Awesome Pro 6.4.0 by @fontawesome - https://fontawesome.com License - https://fontawesome.com/license (Commercial License) Copyright 2023 Fonticons, Inc. --><path d="M480 256c0 1.4 0 2.8 0 4.2l30.7-30.7C497.4 100.6 388.4 0 256 0C114.6 0 0 114.6 0 256S114.6 512 256 512c72.4 0 137.9-30.1 184.4-78.5l.2-1.5H394.6c-38.1 30.1-86.3 48-138.6 48C132.3 480 32 379.7 32 256S132.3 32 256 32s224 100.3 224 224zM176 144V128H144v16 64 16h32V208 144zm96 0V128H240v16 64 16h32V208 144zm96 0V128H336v16 64 16h32V208 144zm200 80h-6.6l-4.7 4.7-136 136-4.7 4.7V376v8 16h16 45.6l-13.4 93.7L461.6 512H480h8 6.6l4.7-4.7 136-136 4.7-4.7V360v-8V336H624 578.4l13.4-93.7 2.6-18.3H576h-8zM462.6 368l92.1-92.1-10.5 73.8L541.6 368H560h33.4l-92.1 92.1 10.5-73.8 2.6-18.3H496 462.6z"/></svg>