<svg xmlns="http://www.w3.org/2000/svg" viewBox="0 0 640 512"><!--! Font Awesome Pro 6.4.0 by @fontawesome - https://fontawesome.com License - https://fontawesome.com/license (Commercial License) Copyright 2023 Fonticons, Inc. --><path d="M474.8 296.7c3.4-13 5.2-26.6 5.2-40.7V208 192H448v16 48c0 6.3-.5 12.4-1.3 18.5l28.1 22.2zM416 250.2V32 0H384 256 224V32 98.7l32 25.3V32H384V225l32 25.3zM192 236.5l-32-25.3V256c0 83 63.1 151.2 144 159.2V480H240 224v32h16 80 80 16V480H400 336V415.2c21.3-2.1 41.4-8.4 59.5-18.1l-28.1-22.2c-14.7 5.8-30.6 9.1-47.4 9.1c-70.7 0-128-57.3-128-128V236.5zM40.4 18L27.8 8.1 8.1 33.4l12.6 9.8L599.8 494.3l12.6 9.8 19.7-25.2L619.5 469 40.4 18z"/></svg>