<svg xmlns="http://www.w3.org/2000/svg" viewBox="0 0 512 512"><!--! Font Awesome Pro 6.4.0 by @fontawesome - https://fontawesome.com License - https://fontawesome.com/license (Commercial License) Copyright 2023 Fonticons, Inc. --><path d="M43.3 20.7l96 96 46.1-46.1L192 64l16-16 16 16V77.3 192v32H192 77.3 64L48 208l16-16 6.6-6.6 46.1-46.1-96-96L9.4 32 32 9.4 43.3 20.7zm448 22.6l-96 96 46.1 46.1L448 192l16 16-16 16H434.7 320 288V192 77.3 64l16-16 16 16 6.6 6.6 46.1 46.1 96-96L480 9.4 502.6 32 491.3 43.3zm-352 352l-96 96L32 502.6 9.4 480l11.3-11.3 96-96L70.6 326.6 64 320 48 304l16-16H77.3 192h32v32V434.7 448l-16 16-16-16-6.6-6.6-46.1-46.1zm233.4 0l-46.1 46.1L320 448l-16 16-16-16V434.7 320 288h32H434.7 448l16 16-16 16-6.6 6.6-46.1 46.1 96 96L502.6 480 480 502.6l-11.3-11.3-96-96zM192 109.3L109.3 192H192V109.3zm0 293.5V320H109.3L192 402.7zM320 320v82.7L402.7 320H320zm0-210.7V192h82.7L320 109.3z"/></svg>