<svg xmlns="http://www.w3.org/2000/svg" viewBox="0 0 448 512"><!--! Font Awesome Pro 6.4.0 by @fontawesome - https://fontawesome.com License - https://fontawesome.com/license (Commercial License) Copyright 2023 Fonticons, Inc. --><path d="M0 135.4C0 60.6 60.6 0 135.4 0C195.1 0 247.7 39.1 265 96.2l30.8 101.7 18.7-30.3 8.2-13.3 13.5 7.9 96 56 13.2 7.7-7.1 13.6L370.5 368H334.3l68.4-129.9-69.3-40.4L304.3 245l-18.6 30.3-10.3-34.1L234.3 105.5C221.1 61.8 180.9 32 135.4 32C78.3 32 32 78.3 32 135.4v8.9c0 9.2 1.1 18.3 3.3 27.2L84.5 368h-33L4.3 179.2C1.4 167.7 0 156 0 144.2v-8.9zM64 432v48H352V432H64zM32 400H64 352h32v32 48 32H352 64 32V480 432 400z"/></svg>