<svg xmlns="http://www.w3.org/2000/svg" viewBox="0 0 320 512"><!--! Font Awesome Pro 6.4.0 by @fontawesome - https://fontawesome.com License - https://fontawesome.com/license (Commercial License) Copyright 2023 Fonticons, Inc. --><path d="M288 32V480H32V32H288zM32 0H0V32 480v32H32 288h32V480 32 0H288 32zM224 160v64H96V160H224zM96 128H64v32 64 32H96 224h32V224 160 128H224 96zm8 176H56v48h48V304zM56 384v48h48V384H56zm128-80H136v48h48V304zm-48 80v48h48V384H136zm128-80H216v48h48V304zm-48 80v48h48V384H216zM128 64H112V96h16 64 16V64H192 128z"/></svg>