<svg xmlns="http://www.w3.org/2000/svg" viewBox="0 0 640 512"><!--! Font Awesome Pro 6.4.0 by @fontawesome - https://fontawesome.com License - https://fontawesome.com/license (Commercial License) Copyright 2023 Fonticons, Inc. --><path d="M608 64v64c-35.3 0-64-28.7-64-64h64zM224 64H512c0 53 43 96 96 96v96c-53 0-96 43-96 96H224c0-53-43-96-96-96V160c53 0 96-43 96-96zM128 288c35.3 0 64 28.7 64 64H128V288zm416 64c0-35.3 28.7-64 64-64v64H544zM192 64c0 35.3-28.7 64-64 64V64h64zM128 32H96V64 352v32h32H608h32V352 64 32H608 128zM368 272a64 64 0 1 1 0-128 64 64 0 1 1 0 128zm-96-64a96 96 0 1 0 192 0 96 96 0 1 0 -192 0zM32 112V96H0v16V464v16H16 528h16V448H528 32V112z"/></svg>