<svg xmlns="http://www.w3.org/2000/svg" viewBox="0 0 640 512"><!--! Font Awesome Pro 6.4.0 by @fontawesome - https://fontawesome.com License - https://fontawesome.com/license (Commercial License) Copyright 2023 Fonticons, Inc. --><path d="M512 80a48 48 0 1 1 96 0 48 48 0 1 1 -96 0zm128 0A80 80 0 1 0 480 80a80 80 0 1 0 160 0zM32 449.9l224-329 224 329V480H32V449.9zM0 440v40 32H32 457h23 32 96 32V480 433.7L499.2 221 480 192l-19.2 29-48.3 72.9L275.4 92.4 256 64 236.6 92.4 0 440zm608 40H512V440L432 322.5 480 250 608 443.3V480z"/></svg>