<svg xmlns="http://www.w3.org/2000/svg" viewBox="0 0 512 512"><!--! Font Awesome Pro 6.4.0 by @fontawesome - https://fontawesome.com License - https://fontawesome.com/license (Commercial License) Copyright 2023 Fonticons, Inc. --><path d="M379.4 36.6c6.2-3 13.2-4.6 20.6-4.6c26.5 0 48 21.5 48 48c0 9.6-2.8 18.6-7.7 26.1c-12.5-5.5-26-8.9-40.3-9.8V96c0-22.4-7.7-43-20.6-59.4zm88.2 86.2C475.4 110.4 480 95.7 480 80c0-44.2-35.8-80-80-80c-16.9 0-32.7 5.3-45.6 14.3C339.7 5.2 322.5 0 304 0c-53.1 0-96 43.4-96 96.3c0 25.7 10.2 49.8 27.5 67.5C155.8 180.6 96 251.3 96 336v48H64c-35.3 0-64 28.7-64 64s28.7 64 64 64H464h16V480H464 64c-17.7 0-32-14.3-32-32s14.3-32 32-32H96h16H344h16 24 16V400 352 340.5l-10.9-3.6-31.9-10.6L378.8 272H496h16V256 216c0-37.6-17.3-71.2-44.4-93.2zM360 384H344 128V336c0-79.5 64.5-144 144-144h16l5.6-31-12.1-4.5c-24.9-9.3-41.5-33.4-41.5-60.2C240 60.9 268.7 32 304 32c35.3 0 64 28.7 64 64v16 16h16 8c48.6 0 88 39.4 88 88v24H368 357.2l-4 10.1-26.4 66-33.7-11.2-15.2-5.1-10.1 30.4 15.2 5.1L368 363.5V384h-8zM336 80V64H304V80 96H288 272v32h16 32 16V112 80zm96 108a20 20 0 1 0 -40 0 20 20 0 1 0 40 0z"/></svg>