<svg xmlns="http://www.w3.org/2000/svg" viewBox="0 0 576 512"><!--! Font Awesome Pro 6.4.0 by @fontawesome - https://fontawesome.com License - https://fontawesome.com/license (Commercial License) Copyright 2023 Fonticons, Inc. --><path d="M144 96H64V416H384V272 96H352 176v40.5l42.2 35.2 5.8 4.8V184v88 16H208 112 96V272 184v-7.5l5.8-4.8L144 136.5V96zm16-32H352h32 32 48c61.9 0 112 50.1 112 112s-50.1 112-112 112H416V416v32H384 64 32V416 96 64H64h96zM464 96H416V256h48c44.2 0 80-35.8 80-80s-35.8-80-80-80zM128 256h64V191.5l-32-26.7-32 26.7V256z"/></svg>