<svg xmlns="http://www.w3.org/2000/svg" viewBox="0 0 640 512"><!--! Font Awesome Pro 6.4.0 by @fontawesome - https://fontawesome.com License - https://fontawesome.com/license (Commercial License) Copyright 2023 Fonticons, Inc. --><path d="M512 160V33 0L480 8 320 48v80 46.5l32.3 25.5L512 160zM320 337.5V376c-20.3-14.8-48.7-24-80-24c-61.9 0-112 35.8-112 80s50.1 80 112 80s112-35.8 112-80V362.8l-32-25.3zM352 128V73L480 41v94L352 167V128zM300.6 401.5C314.9 411.7 320 422.9 320 432s-5.1 20.3-19.4 30.5C286.4 472.7 265 480 240 480s-46.3-7.3-60.6-17.5C165.1 452.3 160 441.1 160 432s5.1-20.3 19.4-30.5C193.7 391.3 215 384 240 384s46.3 7.3 60.6 17.5zM40.4 18L27.8 8.1 8.1 33.4l12.6 9.8L599.8 494.3l12.6 9.8 19.7-25.2L619.5 469 40.4 18z"/></svg>