<svg xmlns="http://www.w3.org/2000/svg" viewBox="0 0 640 512"><!--! Font Awesome Pro 6.4.0 by @fontawesome - https://fontawesome.com License - https://fontawesome.com/license (Commercial License) Copyright 2023 Fonticons, Inc. --><path d="M192 32c53 0 96 43 96 96v80 16h32V208 128C320 57.3 262.7 0 192 0S64 57.3 64 128v80 16H96V208 128c0-53 43-96 96-96zM317.3 288c5-11.4 11.3-22.2 18.7-32H42.3c-1.4 2.8-2.9 5.7-4.3 8.6l0 0 0 0C20.2 299.6 0 339.6 0 384c0 80 48 128 48 128H250.7l9.9-16.5 0 0 0 0 0 0 0 0 .1-.1 .3-.6c.3-.5 .8-1.3 1.4-2.4c1.2-2.1 3-5.2 5.1-9.1c.6-1.1 1.2-2.2 1.9-3.4H63c-3.2-4.4-7.1-10.2-10.9-17.3C42 444.2 32 417.5 32 384c0-32.6 13.6-63.3 30-96H317.3zM70.7 489.4l.1 .1 0 0 0-.1 0 0zM206.4 67.9l-28.8 0c-9.5 19.5-28.5 33.4-50.8 35.7l-16.1 1.7 1.9 16.1c2 17.2 9.7 33.9 22.9 47.1c31.2 31.2 81.9 31.2 113.1 0c13.2-13.2 20.8-29.9 22.9-47.1l1.9-16.1-16.1-1.7c-22.4-2.3-41.4-16.3-50.8-35.7zm-58.1 63.9c17.1-5.3 32.2-15.2 43.8-28.3c11.6 13.1 26.6 23 43.8 28.3c-2.3 5.1-5.6 9.9-9.8 14.2c-18.7 18.7-49.1 18.7-67.9 0c-4.2-4.2-7.5-9-9.8-14.2zM449.6 307.9c-9.5 19.5-28.5 33.4-50.8 35.7l-16.1 1.7 1.9 16.1c2 17.2 9.7 33.9 22.9 47.1c31.2 31.2 81.9 31.2 113.1 0c13.2-13.2 20.8-29.9 22.9-47.1l1.9-16.1-16.1-1.7c-22.4-2.3-41.4-16.3-50.8-35.7l-28.8 0zM464 343.5c11.6 13.1 26.6 23 43.8 28.3c-2.3 5.1-5.6 9.9-9.8 14.2c-18.7 18.7-49.1 18.7-67.9 0c-4.2-4.2-7.5-9-9.8-14.2c17.1-5.3 32.2-15.2 43.8-28.3zM640 512s-7.9-13.2-17.3-32C609 452.4 592 412.5 592 384V352c0-70.7-57.3-128-128-128s-128 57.3-128 128v32c0 28.5-17 68.4-30.7 96c-9.4 18.8-17.3 32-17.3 32h36.7H603.3 640zm-53.1-32.6l.3 .6H340.8l.3-.6C353 453.5 368 415.7 368 384V352c0-53 43-96 96-96s96 43 96 96v32c0 31.7 15 69.5 26.9 95.4z"/></svg>