<svg xmlns="http://www.w3.org/2000/svg" viewBox="0 0 640 512"><!--! Font Awesome Pro 6.4.0 by @fontawesome - https://fontawesome.com License - https://fontawesome.com/license (Commercial License) Copyright 2023 Fonticons, Inc. --><path d="M32 64H416V200.2L429.4 160H448V64 32H416 32 0V64 448v32H32 381.6l-2.3-32H32V64zm352 48V96H368 224 208v16 98.7c-18.6 6.6-32 24.4-32 45.3c0 26.5 21.5 48 48 48s48-21.5 48-48c0-20.9-13.4-38.7-32-45.3V128H352v80h32V112zm-6.9 304l-8-112H352v80H96V128h48 16V96H144 80 64v16V400v16H80 368h9.1zM240 256a16 16 0 1 1 -32 0 16 16 0 1 1 32 0zm212.5-64l-3.6 10.9L436.5 240H400 384v32h16 48H576h48 16V240H624 587.5l-12.4-37.1L571.5 192H560 464 452.5zm17.7 48l5.3-16h72.9l5.3 16H470.2zm-69 64.1L416 512H608l14.9-207.9H590.8L578.2 480H445.8L433.2 304.1H401.1z"/></svg>