<svg xmlns="http://www.w3.org/2000/svg" viewBox="0 0 640 512"><!--! Font Awesome Pro 6.4.0 by @fontawesome - https://fontawesome.com License - https://fontawesome.com/license (Commercial License) Copyright 2023 Fonticons, Inc. --><path d="M40.4 18L27.8 8.1 8.1 33.4l12.6 9.8L599.8 494.3l12.6 9.8 19.7-25.2L619.5 469 40.4 18zM544 351.3V64 32H512 139.6l40.5 32H192h64H512V326l32 25.3zm-64-50.5V112 96H464 320 304v16 49.8l32 25.3V128H448V275.5l32 25.3zM378.8 384H192V236.5l-32-25.3V400v16h16H419.4l-40.5-32zM128 186L96 160.7V448v32h32H500.4l-40.5-32H128V186z"/></svg>