<svg xmlns="http://www.w3.org/2000/svg" viewBox="0 0 448 512"><!--! Font Awesome Pro 6.4.0 by @fontawesome - https://fontawesome.com License - https://fontawesome.com/license (Commercial License) Copyright 2023 Fonticons, Inc. --><path d="M416 64H32V448H288V336 320h16H416V64zM394.7 352H320v74.7L394.7 352zm53.3-8L312 480H32 0V448 64 32H32 416h32V64 344zM192 112h64 16v16 48h48 16v16 64 16H320 272v48 16H256 192 176V320 272H128 112V256 192 176h16 48V128 112h16zm16 80v16H192 144v32h48 16v16 48h32V256 240h16 48V208H256 240V192 144H208v48z"/></svg>