<svg xmlns="http://www.w3.org/2000/svg" viewBox="0 0 512 512"><!--! Font Awesome Pro 6.4.0 by @fontawesome - https://fontawesome.com License - https://fontawesome.com/license (Commercial License) Copyright 2023 Fonticons, Inc. --><path d="M128 416H96V384 64 32h32H448h32V64 320l-96 96H128zm242.7-32L448 306.7V64H128V384H370.7zM320 480v32H304 16 0V496 144 128H32v16l0 336H304h16zM256 112h64 16v16 48h48 16v16 64 16H384 336v48 16H320 256 240V320 272H192 176V256 192 176h16 48V128 112h16zm16 80v16H256 208v32h48 16v16 48h32V256 240h16 48V208H320 304V192 144H272v48z"/></svg>