<svg xmlns="http://www.w3.org/2000/svg" viewBox="0 0 512 512"><!--! Font Awesome Pro 6.4.0 by @fontawesome - https://fontawesome.com License - https://fontawesome.com/license (Commercial License) Copyright 2023 Fonticons, Inc. --><path d="M96 32H32V96H0V32 0H32 96V32zm32 0V0h96V32H128zM0 128H32v96H0V128zM320 32H256V0h64 32V32v96H320V32zm0 128h32v32 64 64 32H320 224 192 160V320 256 192 160h32 96 32zM160 384h32v96h64v32H192 160V480 384zm-32-32H32 0V320 256H32v64h96v32zM384 192V160h96 32v32 64H480V192H384zM288 512V480h96v32H288zm192 0H416V480h64V416h32v64 32H480zm32-128H480V288h32v96zM320 192H192V320H320V192z"/></svg>