<svg xmlns="http://www.w3.org/2000/svg" viewBox="0 0 512 512"><!--! Font Awesome Pro 6.4.0 by @fontawesome - https://fontawesome.com License - https://fontawesome.com/license (Commercial License) Copyright 2023 Fonticons, Inc. --><path d="M32 32H320v96h32V32 0H320 32 0V32 320v32H32h96V320H32V32zM160 384v96 32h32H480h32V480 192 160H480 384v32h96V480H192V384H160zm64-32l0-32H192V256H160v64 32h32 32zM160 224l32 0V192h64V160H192 160v32 32zm96 128h64 32V320 288H320v32H256v32zm96-96V192 160H320 288v32h32v64h32z"/></svg>