<svg xmlns="http://www.w3.org/2000/svg" viewBox="0 0 512 512"><!--! Font Awesome Pro 6.4.0 by @fontawesome - https://fontawesome.com License - https://fontawesome.com/license (Commercial License) Copyright 2023 Fonticons, Inc. --><path d="M329.4 41.4l16-16L368 2.7l22.6 22.6 16 16L429.3 64 406.6 86.6l-16 16L368 125.3l-22.6-22.6-16-16L306.7 64l22.6-22.6zM368 80l16-16L368 48 352 64l16 16zM144 128c-20.9 0-39.5 10-51.2 25.6l-9.6 12.8L57.6 147.2l9.6-12.8C84.7 111.1 112.6 96 144 96c53 0 96 43 96 96c0 24.6-9.2 47-24.4 64h82.8L374 195.5l4.4-3.5H384h16c61.9 0 112 50.1 112 112v80.9c0 52.5-42.6 95.1-95.1 95.1c-36 0-69-20.4-85.1-52.6l-10.1-20.3-7.2-14.3 28.6-14.3 7.2 14.3 10.1 20.3C371.1 434.5 393 448 416.9 448c34.9 0 63.1-28.3 63.1-63.1V304c0-44.2-35.8-80-80-80H389.6L314 284.5l-4.4 3.5H304 244.7c26.6 23.5 43.3 57.8 43.3 96c0 70.7-57.3 128-128 128H144C64.5 512 0 447.5 0 368V352H32v16c0 61.9 50.1 112 112 112h16c53 0 96-43 96-96s-43-96-96-96H144 128V256h16l0 0c35.3 0 64-28.7 64-64c0-35.3-28.7-64-64-64zm135.5 13.6s0 0 8.5-13.6s8.5-13.6 8.5-13.6l0 0 .2 .1c.2 .1 .6 .3 1.1 .6c1 .6 2.4 1.4 4.4 2.4c3.9 2 9.5 4.8 16.3 7.6c13.8 5.6 31.6 10.8 49.6 10.8s35.8-5.2 49.6-10.8c6.8-2.8 12.4-5.5 16.3-7.6c1.9-1 3.4-1.9 4.4-2.4c.5-.3 .8-.5 1.1-.6l.2-.1 0 0s0 0 8.5 13.6s8.5 13.6 8.5 13.6l0 0 0 0 0 0-.1 .1-.4 .3c-.4 .2-.9 .5-1.5 .9c-1.3 .8-3.1 1.8-5.5 3c-4.6 2.5-11.2 5.7-19.2 8.9c-15.8 6.4-38 13.2-61.6 13.2s-45.8-6.8-61.6-13.2c-8-3.2-14.6-6.5-19.2-8.9c-2.3-1.2-4.2-2.3-5.5-3c-.6-.4-1.2-.7-1.5-.9l-.4-.3-.1-.1 0 0 0 0 0 0z"/></svg>