<svg xmlns="http://www.w3.org/2000/svg" viewBox="0 0 384 512"><!--! Font Awesome Pro 6.4.0 by @fontawesome - https://fontawesome.com License - https://fontawesome.com/license (Commercial License) Copyright 2023 Fonticons, Inc. --><path d="M208 64H176V48c0-8.8 7.2-16 16-16s16 7.2 16 16V64zm32 0V48c0-26.5-21.5-48-48-48s-48 21.5-48 48V64H128 96V96v48 9.7C38.6 186.9 0 248.9 0 320C0 426 86 512 192 512s192-86 192-192c0-71.1-38.6-133.1-96-166.3V144 96 64H256 240zm21.8 112c23 11.2 43 27.7 58.2 48H64c15.2-20.3 35.2-36.8 58.2-48H128 256h5.8zM144 96h32 32 32 16v48H128V96h16zM32 320c0-22.8 4.8-44.4 13.3-64H338.7c8.6 19.6 13.3 41.2 13.3 64s-4.7 44.4-13.3 64H45.3C36.8 364.4 32 342.8 32 320zM192 480c-52.3 0-98.8-25.1-128-64H320c-29.2 38.9-75.7 64-128 64z"/></svg>