<svg xmlns="http://www.w3.org/2000/svg" viewBox="0 0 448 512"><!--! Font Awesome Pro 6.4.0 by @fontawesome - https://fontawesome.com License - https://fontawesome.com/license (Commercial License) Copyright 2023 Fonticons, Inc. --><path d="M32 32V160H416V32H32zm0 160V480H416V192H32zM0 0H32 416h32V32 480v32H416 32 0V480 32 0zM104 80a24 24 0 1 1 0 48 24 24 0 1 1 0-48zm56 24a24 24 0 1 1 48 0 24 24 0 1 1 -48 0zM264 80a24 24 0 1 1 0 48 24 24 0 1 1 0-48zm56 24a24 24 0 1 1 48 0 24 24 0 1 1 -48 0zM96 256V416H352V256H96zM64 224H96 352h32v32V416v32H352 96 64V416 256 224zm64 64h16H304h16v32H304 144 128V288z"/></svg>