<svg xmlns="http://www.w3.org/2000/svg" viewBox="0 0 576 512"><!--! Font Awesome Pro 6.4.0 by @fontawesome - https://fontawesome.com License - https://fontawesome.com/license (Commercial License) Copyright 2023 Fonticons, Inc. --><path d="M248.4 214.2l259.5-173 26.9 26.9-173 259.5-76 40.9-78.3-78.3 0 0 0 0 40.9-76zM254 382s0 0 0 0l0 0c1.3 5.8 2 11.8 2 18c0 44.2-35.8 80-80 80h0H96V400c0-44.2 35.8-80 80-80c6.2 0 12.2 .7 18 2c0 0 0 0 0 0L254 382zM512 0L224 192l-51.7 96.1C112.1 290 64 339.4 64 400v48 32H32h0H16 0v32H16 32 64 96h80 0c60.6 0 110-48.1 111.9-108.3L384 352 576 64 512 0z"/></svg>