<svg xmlns="http://www.w3.org/2000/svg" viewBox="0 0 640 512"><!--! Font Awesome Pro 6.4.0 by @fontawesome - https://fontawesome.com License - https://fontawesome.com/license (Commercial License) Copyright 2023 Fonticons, Inc. --><path d="M480 32V256H160V32h80v90.7V160l32-19.2L320 112l48 28.8L400 160V122.7 32h80zM272 32h96v71.5L336.5 84.6 320 74.7l-16.5 9.9L272 103.5V32zM480 0H400 368 272 240 160 128V32 256v32h32H480h32V256 32 0H480zM0 352v32H16 64v96H16 0v32H16 64 80 96 304h16 16H544h16 16 48 16V480H624 576V384h48 16V352H624 576 560 544 336 320 304 96 80 64 16 0zM96 480V384H304v96H96zm240 0V384H544v96H336z"/></svg>