<svg xmlns="http://www.w3.org/2000/svg" viewBox="0 0 640 512"><!--! Font Awesome Pro 6.4.0 by @fontawesome - https://fontawesome.com License - https://fontawesome.com/license (Commercial License) Copyright 2023 Fonticons, Inc. --><path d="M522.4 352c4.5-9.4 8.3-19.3 11.5-29.4c.3-.9 .5-1.7 .8-2.6c6-20.3 9.3-41.8 9.3-64s-3.2-43.7-9.3-64c-3.1-10.6-7-20.8-11.6-30.7l-.6-1.3C486.5 84.3 409.4 32 320 32s-166.5 52.3-202.4 128c-4.9 10.2-9 20.9-12.3 32l0 0c-6 20.3-9.3 41.8-9.3 64s3.2 43.7 9.3 64c3.1 10.6 7 20.8 11.6 30.7l.6 1.3c36 75.7 113.1 128 202.4 128s166.5-52.3 202.4-128zm34.9 0c-38 93.8-130 160-237.4 160s-199.4-66.2-237.4-160H32 0V320 192 160H32 82.6C120.6 66.2 212.6 0 320 0S519.4 66.2 557.4 160H608h32v32V320v32H608 557.4zm10.5-160c5.3 20.5 8.1 41.9 8.1 64s-2.8 43.5-8.1 64H608V192H567.9zM72.1 192H32V320H72.1c-5.3-20.5-8.1-41.9-8.1-64s2.8-43.5 8.1-64zM496 257.3v2.4c0 27.4-14.7 52.6-38.4 66.2c-11.5 6.6-24.6 10-37.8 10l-1.6 0c-14.7 0-29.1-4-41.6-11.3c-6-3.5-11.6-7.8-16.7-12.9L352 304l22.6-22.6L464 192l8.4 8.4 .2 .2c4.8 4.8 8.8 10.1 12.2 15.8c7.3 12.3 11.2 26.4 11.2 40.9zM419.8 304c7.7 0 15.3-2 22-5.8c13.8-7.9 22.3-22.5 22.3-38.4v-2.4c0-5.9-1.1-11.6-3.1-17l-60.5 60.5c5.6 2.1 11.6 3.2 17.7 3.2l1.6 0zM203.3 203.3l-32 32L160 246.6 137.4 224l11.3-11.3 32-32L192 169.4 214.6 192l-11.3 11.3zM296 224a24 24 0 1 1 48 0 24 24 0 1 1 -48 0zM416 360a24 24 0 1 1 0 48 24 24 0 1 1 0-48zM235.3 299.3l-4.7 4.7 16 16H256h32c35.3 0 64 28.7 64 64s-28.7 64-64 64s-64-28.7-64-64V352v-9.4l-16-16-4.7 4.7L192 342.6 169.4 320l11.3-11.3 16-16 16-16L224 265.4 246.6 288l-11.3 11.3zM320 384c0-17.7-14.3-32-32-32H256v32c0 17.7 14.3 32 32 32s32-14.3 32-32zm80-240v16H368 272 240V144c0-5.5 .6-10.8 1.6-16C249 91.5 281.3 64 320 64s71 27.5 78.4 64c1 5.2 1.6 10.5 1.6 16zM320 96c-20.9 0-38.7 13.4-45.3 32h90.5c-6.6-18.6-24.4-32-45.3-32z"/></svg>