<svg xmlns="http://www.w3.org/2000/svg" viewBox="0 0 384 512"><!--! Font Awesome Pro 6.4.0 by @fontawesome - https://fontawesome.com License - https://fontawesome.com/license (Commercial License) Copyright 2023 Fonticons, Inc. --><path d="M320 32h16 16V0H336 224 208 176 144C82.1 0 32 50.1 32 112s50.1 112 112 112h48v80 16h32V304l0-80V208 32h64V304v16h32V304 32zM192 32V192H144c-44.2 0-80-35.8-80-80s35.8-80 80-80h32 16zM114.7 355.9l11.9-10.7-21.4-23.8L93.3 332.1l-80 72L.1 416l13.2 11.9 80 72 11.9 10.7 21.4-23.8-11.9-10.7L65.7 432H368h16V400H368 65.7l49-44.1z"/></svg>