<svg xmlns="http://www.w3.org/2000/svg" viewBox="0 0 512 512"><!--! Font Awesome Pro 6.4.0 by @fontawesome - https://fontawesome.com License - https://fontawesome.com/license (Commercial License) Copyright 2023 Fonticons, Inc. --><path d="M512 224c0-10.4-.9-21.1-2.7-32C494.2 101.9 415.9 0 256 0S17.8 101.9 2.7 192C.9 202.9 0 213.6 0 224H32 49.1L160 341.4V352 480v32h32H320h32V480 352 341.4L462.9 224H480h32zm-93.1 0l-90.7 96H320 272V224h95.5 32 19.3zM240 224v96H192h-8.2L93.1 224h19.3 32H240zm0 128h32 48V480H192V352h48zM35.2 192C46.3 135.7 86.8 73.6 165.5 46.2c-29.9 35-50 87-53.1 145.8H35.2zM180.5 79.1C202.5 47.4 229.7 32 256 32s53.5 15.4 75.5 47.1c19.6 28.3 33.4 67.8 36 112.9H144.5c2.7-45.1 16.4-84.5 36-112.9zm166-32.9C425.2 73.6 465.7 135.7 476.8 192H399.6c-3.1-58.8-23.1-110.8-53.1-145.8z"/></svg>