<svg xmlns="http://www.w3.org/2000/svg" viewBox="0 0 640 512"><!--! Font Awesome Pro 6.4.0 by @fontawesome - https://fontawesome.com License - https://fontawesome.com/license (Commercial License) Copyright 2023 Fonticons, Inc. --><path d="M294.3 318.3L288 352l33.7-6.3L416 328 617.4 126.6 640 104 617.4 81.4 558.6 22.6 536 0 513.4 22.6 312 224l-17.7 94.3zm33.7-6.3l13.6-72.3L479.3 101.9l58.7 58.7L400.4 298.4l-72.3 13.6zM594.7 104l-34.1 34.1L501.9 79.3 536 45.3 594.7 104zM16 128H0v16V496v16H16 560h16V496 272 256H544v16V480H32V160H304h16V128H304 16zM152 296H104v48h48V296zm48 0v48h48V296H200z"/></svg>