<svg xmlns="http://www.w3.org/2000/svg" viewBox="0 0 640 512"><!--! Font Awesome Pro 6.4.0 by @fontawesome - https://fontawesome.com License - https://fontawesome.com/license (Commercial License) Copyright 2023 Fonticons, Inc. --><path d="M552.6 125.8L576 104 553.4 81.4 494.6 22.6 472 0 450.2 23.4 314 169.7l25.2 19.9L472.8 46.1l57.1 57.1L392.2 231.4l25.4 20.1 135-125.7zM295.8 318.5L307.4 330l-28.9 92.4L130.8 467.8 198.7 400c.4 0 .9 0 1.3 0c13.3 0 24-10.7 24-24s-10.7-24-24-24s-24 10.7-24 24c0 .4 0 .9 0 1.3l-67.8 67.8 45.4-147.7 82.9-25.9-30.4-24L128 272 64 480l32 32 208-64 30.9-98.7-39-30.8zM32.5 10L19.9 .1 .1 25.3l12.6 9.9L607.8 502.2l12.6 9.9 19.8-25.2-12.6-9.9L32.5 10z"/></svg>