<svg xmlns="http://www.w3.org/2000/svg" viewBox="0 0 640 512"><!--! Font Awesome Pro 6.4.0 by @fontawesome - https://fontawesome.com License - https://fontawesome.com/license (Commercial License) Copyright 2023 Fonticons, Inc. --><path d="M468.7 235.3l0 0 22.6-22.6 0 0 62.1-62.1L576 128l-22.6-22.6L470.6 22.6 448 0 425.4 22.6 363.3 84.7l-48-48L304 25.4 292.7 36.7l-64.9 64.9 25.3 20 51-51 36.7 36.7L294 154l25.3 20 44-44 82.7 82.7-34.2 34.3 25.3 20 31.6-31.6zm-148 102.8L208.2 450.5 104.8 471.2l20.7-103.4L228.2 265.1l-25.3-20L96 352 70.8 478 64 512l34-6.8L224 480 346 358l-25.3-20zm148-148l-82.7-82.7L448 45.3 530.7 128l-62.1 62.1zM32.4 10L19.9 .1 .1 25.3l12.6 9.9L607.8 502.2l12.6 9.9 19.8-25.2-12.6-9.9L32.4 10z"/></svg>