<svg xmlns="http://www.w3.org/2000/svg" viewBox="0 0 640 512"><!--! Font Awesome Pro 6.4.0 by @fontawesome - https://fontawesome.com License - https://fontawesome.com/license (Commercial License) Copyright 2023 Fonticons, Inc. --><path d="M104 88a24 24 0 1 1 48 0 24 24 0 1 1 -48 0zm80 0A56 56 0 1 0 72 88a56 56 0 1 0 112 0zm8 88h-8H160 72 62.9l-4.7 7.8-48 80-5.3 8.9 6 8.5L64 357v75 16H80h96 16V432 344.8L170.5 318 160 304.8V416H96V208h64v64.9l8.7-12.4L192 227.2V192 176zM448 432v16h16 96 16V432 357l53.1-75.9 6-8.5-5.3-8.9-48-80-4.7-7.8H568 480 456h-8v16 35.2l23.3 33.3 8.7 12.4V208h64V416H480V304.8L469.5 318 448 344.8V432zM43.1 271.3L64 236.4v64.8L43.1 271.3zM536 88a24 24 0 1 1 -48 0 24 24 0 1 1 48 0zm-80 0a56 56 0 1 0 112 0A56 56 0 1 0 456 88zM596.9 271.3L576 301.2V236.4l20.9 34.9zM288 96a32 32 0 1 1 64 0 32 32 0 1 1 -64 0zm96 0A64 64 0 1 0 256 96a64 64 0 1 0 128 0zM264 192h-8.3l-4.8 6.8-56 80-6.9 9.8 7.5 9.4L256 373.6V464v16h16 96 16V464 373.6L444.5 298l7.5-9.4-6.9-9.8-56-80-4.8-6.8H376 264zm-8 55.3v75.1l-28-35 28-40zM288 448V224h64V448H288zm96-125.6V247.3l28 40-28 35z"/></svg>