<svg xmlns="http://www.w3.org/2000/svg" viewBox="0 0 640 512"><!--! Font Awesome Pro 6.4.0 by @fontawesome - https://fontawesome.com License - https://fontawesome.com/license (Commercial License) Copyright 2023 Fonticons, Inc. --><path d="M304 80a16 16 0 1 1 32 0 16 16 0 1 1 -32 0zm64 0a48 48 0 1 0 -96 0 48 48 0 1 0 96 0zm-96 64h-8.9l-4.7 7.6-55.9 90.9-1.5-2.5H192 96 87.1l-4.7 7.6-64 104L10 365.2 37.2 382l8.4-13.6L88 299.5V384v16h16 80 16V384 299.5l42.4 68.9 8.4 13.6L278 365.2l-8.4-13.6L221.3 273l.4-.6L264 203.5V304v16h16 80 16V304 203.5l42.4 68.9 .4 .6-48.4 78.6L362 365.2 389.2 382l8.4-13.6L440 299.5V384v16h16 80 16V384 299.5l42.4 68.9 8.4 13.6L630 365.2l-8.4-13.6-64-104-4.7-7.6H544 448h-8.9l-1.5 2.5-55.9-90.9-4.7-7.6H368 272zm24 144V176h48V288H296zM16 448H0v32H16 624h16V448H624 16zM144 160a16 16 0 1 1 0 32 16 16 0 1 1 0-32zm0 64a48 48 0 1 0 0-96 48 48 0 1 0 0 96zm-24 48h48v96H120V272zm360-96a16 16 0 1 1 32 0 16 16 0 1 1 -32 0zm64 0a48 48 0 1 0 -96 0 48 48 0 1 0 96 0zM520 368H472V272h48v96z"/></svg>