<svg xmlns="http://www.w3.org/2000/svg" viewBox="0 0 640 512"><!--! Font Awesome Pro 6.4.0 by @fontawesome - https://fontawesome.com License - https://fontawesome.com/license (Commercial License) Copyright 2023 Fonticons, Inc. --><path d="M328.5 10.5L320 5.1l-8.5 5.4-304 192 17.1 27.1L320 42.9 615.5 229.5l17.1-27.1-304-192zM304 192a16 16 0 1 1 32 0 16 16 0 1 1 -32 0zm64 0a48 48 0 1 0 -96 0 48 48 0 1 0 96 0zm-96 64h-8.9l-4.7 7.6-55.9 90.9-1.5-2.5H192 96 87.1l-4.7 7.6-64 104L10 477.2 37.2 494l8.4-13.6L88 411.5V496v16h16 80 16V496 411.5l42.4 68.9 8.4 13.6L278 477.2l-8.4-13.6L221.3 385l.4-.6L264 315.5V416v16h16 80 16V416 315.5l42.4 68.9 .4 .6-48.4 78.6L362 477.2 389.2 494l8.4-13.6L440 411.5V496v16h16 80 16V496 411.5l42.4 68.9 8.4 13.6L630 477.2l-8.4-13.6-64-104-4.7-7.6H544 448h-8.9l-1.5 2.5-55.9-90.9-4.7-7.6H368 272zm24 144V288h48V400H296zM144 272a16 16 0 1 1 0 32 16 16 0 1 1 0-32zm0 64a48 48 0 1 0 0-96 48 48 0 1 0 0 96zm-24 48h48v96H120V384zm360-96a16 16 0 1 1 32 0 16 16 0 1 1 -32 0zm64 0a48 48 0 1 0 -96 0 48 48 0 1 0 96 0zM472 480V384h48v96H472z"/></svg>