<svg xmlns="http://www.w3.org/2000/svg" viewBox="0 0 512 512"><!--! Font Awesome Pro 6.4.0 by @fontawesome - https://fontawesome.com License - https://fontawesome.com/license (Commercial License) Copyright 2023 Fonticons, Inc. --><path d="M308.8 0L298.1 30.1 256 148.4l82.8 30.8-18.2 49.5-55.4-18.5L212 149.5l-4.8-5.5H200 88 78.1l-4.4 8.8-72 144 28.6 14.3L80 211.8V336 496v16h32V496 352h70.9L224 420.4V496v16h32V496 416v-4.4l-2.3-3.8L208 331.6V193.4l36 41.1 2.9 3.3 4.1 1.4 58.6 19.5L289 314.5l-5.5 15 30 11.1 5.5-15 49.8-135.2 60.4 22.5 30 11.2 10.7-30.2L512 75.6l-88.7-33L434.5 12 404.5 1 393.3 31.4 338.8 11.2 308.8 0zM112 320V176h64V320H112zM328.1 41.3L471.3 94.6l-31.4 88.1L296.7 129.4l31.4-88.1zM120 56a24 24 0 1 1 48 0 24 24 0 1 1 -48 0zm80 0A56 56 0 1 0 88 56a56 56 0 1 0 112 0z"/></svg>