<svg xmlns="http://www.w3.org/2000/svg" viewBox="0 0 640 512"><!--! Font Awesome Pro 6.4.0 by @fontawesome - https://fontawesome.com License - https://fontawesome.com/license (Commercial License) Copyright 2023 Fonticons, Inc. --><path d="M168 56a24 24 0 1 1 48 0 24 24 0 1 1 -48 0zm80 0A56 56 0 1 0 136 56a56 56 0 1 0 112 0zM140.9 128h-9.6l-4.5 8.5-76.9 144-7.5 14.1 28.2 15.1 7.5-14.1L128 202.1V496v16h32V496 352h64V496v16h32V496 160H400h16V128H400 352V32H608V288H352V192H320v96 32h32H608h32V288 32 0H608 352 320V32v96H243.1 140.9zM224 320H160V160h64V320z"/></svg>