<svg xmlns="http://www.w3.org/2000/svg" viewBox="0 0 640 512"><!--! Font Awesome Pro 6.4.0 by @fontawesome - https://fontawesome.com License - https://fontawesome.com/license (Commercial License) Copyright 2023 Fonticons, Inc. --><path d="M256 56a24 24 0 1 0 -48 0 24 24 0 1 0 48 0zm-80 0a56 56 0 1 1 112 0A56 56 0 1 1 176 56zM349.5 66l8.2 13.7 43.8 73L576 240v96l-90.4 60.3 63.1 82c.4 .6 .8 1.2 1.2 1.8h11.5l43.3-43.3L616 425.4 638.6 448l-11.3 11.3-48 48-4.7 4.7H568 432 416V480h16 77.7l-61.5-80H313.3c4.3 9.8 6.7 20.6 6.7 32c0 44.2-35.8 80-80 80H80c-44.2 0-80-35.8-80-80c0-26.2 12.6-49.4 32-64l48-96H288l36-48H280h-8l-4.8-6.4L224 160H186.4l-27.8 62.5-6.5 14.6-29.2-13 6.5-14.6 32-72 4.2-9.5H176h56 8l4.8 6.4L288 192h60l22.1-29.4L330.3 96.2 322 82.5 349.5 66zm45.1 119l-2.6 1.6L313.6 291.2c-6 8.1-15.5 12.8-25.6 12.8H99.8L75.7 352.1c1.4-.1 2.8-.1 4.3-.1H240c18 0 34.6 6 48 16H455.8h.3 14.2L544 318.9V259.8L394.6 185.1zM80 384c-26.5 0-48 21.5-48 48s21.5 48 48 48H240c26.5 0 48-21.5 48-48s-21.5-48-48-48H80z"/></svg>