<svg xmlns="http://www.w3.org/2000/svg" viewBox="0 0 512 512"><!--! Font Awesome Pro 6.4.0 by @fontawesome - https://fontawesome.com License - https://fontawesome.com/license (Commercial License) Copyright 2023 Fonticons, Inc. --><path d="M232 56a24 24 0 1 1 48 0 24 24 0 1 1 -48 0zm80 0A56 56 0 1 0 200 56a56 56 0 1 0 112 0zM204.9 128h-9.6l-4.5 8.5-76.9 144-7.5 14.1 28.2 15.1 7.5-14.1L192 202.1V496v16h32V496 352h64V496v16h32V496 202.2l49.9 93.4 7.5 14.1 28.2-15.1-7.5-14.1-76.9-144-4.5-8.5h-9.6H204.9zM288 320H224V160h64V320zM100.7 123.3l22.6-22.6-96-96L4.7 27.3l96 96zm310.6 0l96-96L484.7 4.7l-96 96 22.6 22.6zM4.7 484.7l22.6 22.6 96-96-22.6-22.6-96 96zm406.6-96l-22.6 22.6 96 96 22.6-22.6-96-96z"/></svg>