<svg xmlns="http://www.w3.org/2000/svg" viewBox="0 0 384 512"><!--! Font Awesome Pro 6.4.0 by @fontawesome - https://fontawesome.com License - https://fontawesome.com/license (Commercial License) Copyright 2023 Fonticons, Inc. --><path d="M192 80a24 24 0 1 0 0-48 24 24 0 1 0 0 48zm0-80a56 56 0 1 1 0 112A56 56 0 1 1 192 0zM160 384V496v16H128V496l0-112H96V352 211.1L62.9 293.9 33.1 282.1l57.6-144 4-10.1H96h9.6H128h64 64l18.3 97.7c44.3 8.6 77.7 47.5 77.7 94.3v32 32H320 304 256V496v16H224V496 384H192 160zm32-224H128l0 192h32 32 32 32 48 16V320c0-31.1-22.3-57.1-51.7-62.8L246.9 253l-4-21.4L229.4 160H192z"/></svg>