<svg xmlns="http://www.w3.org/2000/svg" viewBox="0 0 576 512"><!--! Font Awesome Pro 6.4.0 by @fontawesome - https://fontawesome.com License - https://fontawesome.com/license (Commercial License) Copyright 2023 Fonticons, Inc. --><path d="M256 56a24 24 0 1 1 48 0 24 24 0 1 1 -48 0zm80 0A56 56 0 1 0 224 56a56 56 0 1 0 112 0zM128 112h-6.6l-4.7 4.7-64 64L41.4 192 64 214.6l11.3-11.3L134.6 144h39.1l15.9 4.5L153.2 257.9c-7.3 21.8 2 45.7 22 57l93.3 52.5L217.4 512h33.9l51.8-146.7 4.5-12.7-11.7-6.6-49.2-27.7c.2-.4 .4-.9 .5-1.3l37.2-111.6 20.3 70.9 3.3 11.6H320h80 16V256H400 332.1L303.4 155.6l-2.4-8.5-8.5-2.4-112-32-2.2-.6H176 128zm55.5 156l36.9-110.7 42.2 12.1-44.3 133L190.9 287c-6.7-3.8-9.8-11.7-7.3-19zM101.3 384H16 0v32H16h96 10.7l4.1-9.9 27.4-66.6c-10-6.7-18.2-15.5-24.1-25.4L101.3 384zM544 32V480H416V320H384V480v32h32H544h32V480 32 0H544 416 384V32 224h32V32H544z"/></svg>