<svg xmlns="http://www.w3.org/2000/svg" viewBox="0 0 512 512"><!--! Font Awesome Pro 6.4.0 by @fontawesome - https://fontawesome.com License - https://fontawesome.com/license (Commercial License) Copyright 2023 Fonticons, Inc. --><path d="M32 162.7V512H0V144L256 0 512 144V512H480V162.7L256 36.7 32 162.7zM272 168a16 16 0 1 0 -32 0 16 16 0 1 0 32 0zm-64 0a48 48 0 1 1 96 0 48 48 0 1 1 -96 0zm0 64h96 8.9l4.7 7.6 64 104 8.4 13.6L362.8 374l-8.4-13.6L312 291.5V496v16H280V496 400H232v96 16H200V496 291.5l-42.4 68.9L149.2 374 122 357.2l8.4-13.6 64-104 4.7-7.6H208zm72 32H232V368h48V264z"/></svg>