<svg xmlns="http://www.w3.org/2000/svg" viewBox="0 0 320 512"><!--! Font Awesome Pro 6.4.0 by @fontawesome - https://fontawesome.com License - https://fontawesome.com/license (Commercial License) Copyright 2023 Fonticons, Inc. --><path d="M160 80a24 24 0 1 0 0-48 24 24 0 1 0 0 48zm0-80a56 56 0 1 1 0 112A56 56 0 1 1 160 0zM133.5 248.8l-7.2 14.3L73.9 368H96h32 64 32 22.1L193.7 263.2l-7.2-14.3 28.6-14.3 7.2 14.3 64 128L297.9 400H272 224v96 16H192V496 400H128v96 16H96V496 400H48 22.1l11.6-23.2 64-128 7.2-14.3 28.6 14.3zM108.9 128H211.1h9.6l4.5 8.5 76.9 144 7.5 14.1-28.2 15.1-7.5-14.1L201.5 160h-83L46.1 295.5l-7.5 14.1L10.3 294.6l7.5-14.1 76.9-144 4.5-8.5h9.6z"/></svg>