<svg xmlns="http://www.w3.org/2000/svg" viewBox="0 0 576 512"><!--! Font Awesome Pro 6.4.0 by @fontawesome - https://fontawesome.com License - https://fontawesome.com/license (Commercial License) Copyright 2023 Fonticons, Inc. --><path d="M320 56a24 24 0 1 1 48 0 24 24 0 1 1 -48 0zm80 0A56 56 0 1 0 288 56a56 56 0 1 0 112 0zM192 112h-6.6l-4.7 4.7-64 64L105.4 192 121 207.6 64.3 476.7c-.2 1.1-.3 2.2-.3 3.3H16 0v32H16l265.4 0h33.9L560 512h16V496 432 416H544v16 48H432.2l29.5-192H464h16V256H464 448.2h-.5H396.1L367.4 155.6l-2.4-8.5-8.5-2.4-112-32-2.2-.6H240 192zM96.4 480l62.3-296 40-40h39.1l15.9 4.5L217.2 257.9c-7.3 21.8 2 45.7 22 57l93.3 52.5L292.7 480H167.2l52.9-139.2c-10.2-6.4-18.6-14.9-24.8-24.7L133 480H96.4zm303.8-2.4c-.1 .8-.2 1.6-.2 2.4H326.6l40.5-114.7 4.5-12.7-11.7-6.6-49.2-27.7c.2-.4 .4-.9 .5-1.3l37.2-111.6 20.3 70.9 3.3 11.6H384h45.3L400.2 477.6zM247.5 268l36.9-110.7 42.2 12.1-44.3 133L254.9 287c-6.7-3.8-9.8-11.7-7.3-19z"/></svg>