<svg xmlns="http://www.w3.org/2000/svg" viewBox="0 0 512 512"><!--! Font Awesome Pro 6.4.0 by @fontawesome - https://fontawesome.com License - https://fontawesome.com/license (Commercial License) Copyright 2023 Fonticons, Inc. --><path d="M192 64v0H320v0V37.8L192 59.1V64zM352 96H334.4c1 5.2 1.6 10.5 1.6 16c0 44.2-35.8 80-80 80s-80-35.8-80-80c0-5.5 .6-10.8 1.6-16H160V64 32L320 5.3 352 0V32.4 64 96zM210.7 96c-1.8 5-2.7 10.4-2.7 16c0 26.5 21.5 48 48 48s48-21.5 48-48c0-5.6-1-11-2.7-16H210.7zM158.1 224H160h8 24H312.2l35.5-61.4 16-27.7 27.7 16 16-27.7 16-27.7 16-27.7-13.9-8 16-27.7 13.9 8 13.9 8 13.9 8-8 13.9-8 13.9-32 55.4-16 27.7 27.7 16-16 27.7L386 288.2l84.3 168.6 7.2 14.3-28.6 14.3-7.2-14.3L352 291.8V480v32H320 192 160V480 291.8L70.3 471.2l-7.2 14.3L34.5 471.2l7.2-14.3 112-224 4.4-8.8zm210.7 29.9l34.3-59.4-27.7-16L349.2 224H352h1.9l4.4 8.8 10.5 21.1zM320 447.8V256H210.4L320 447.8zM192 288.3V480H301.6L192 288.3zm96-.3a16 16 0 1 1 0 32 16 16 0 1 1 0-32z"/></svg>