<svg xmlns="http://www.w3.org/2000/svg" viewBox="0 0 640 512"><!--! Font Awesome Pro 6.4.0 by @fontawesome - https://fontawesome.com License - https://fontawesome.com/license (Commercial License) Copyright 2023 Fonticons, Inc. --><path d="M168 56a24 24 0 1 1 48 0 24 24 0 1 1 -48 0zm80 0A56 56 0 1 0 136 56a56 56 0 1 0 112 0zM140.9 128h-9.6l-4.5 8.5-76.9 144-7.5 14.1 28.2 15.1 7.5-14.1L128 202.1V480H16 0v32H16l112 0h32 64 32l368 0h16V480H624 256V202.2l49.9 93.4 7.5 14.1 28.2-15.1-7.5-14.1-76.9-144-4.5-8.5h-9.6H140.9zM224 480H160V352h64V480zm0-160H160V160h64V320zM480 48l0 313.4-68.7-68.7L400 281.4 377.4 304l11.3 11.3 96 96L496 422.6l11.3-11.3 96-96L614.6 304 592 281.4l-11.3 11.3L512 361.4 512 48V32l-32 0V48z"/></svg>