<svg xmlns="http://www.w3.org/2000/svg" viewBox="0 0 384 512"><!--! Font Awesome Pro 6.4.0 by @fontawesome - https://fontawesome.com License - https://fontawesome.com/license (Commercial License) Copyright 2023 Fonticons, Inc. --><path d="M56 56a24 24 0 1 1 48 0A24 24 0 1 1 56 56zm80 0A56 56 0 1 0 24 56a56 56 0 1 0 112 0zM0 496l0 16 32 0 0-16 0-130.5L1.6 341.6c-.5-.4-1.1-.9-1.6-1.3L0 496zM16 144H0v16V278.9c0 16 8 31 21.4 39.9l100.2 66.8L146.9 512h32.6L151.7 372.9l-1.3-6.5-5.5-3.7L112 340.8V214.5l42.5 66.2 4.7 7.3H168h24 32 16 16 96 32V256 128 96H352 224 192v32V256H176.7L109.5 151.3l-4.7-7.3H96 16zM224 256V128H352V256H256 240 224zM80 176V319.4L39.1 292.2c-4.5-3-7.1-8-7.1-13.3V176H80z"/></svg>