<svg xmlns="http://www.w3.org/2000/svg" viewBox="0 0 512 512"><!--! Font Awesome Pro 6.4.0 by @fontawesome - https://fontawesome.com License - https://fontawesome.com/license (Commercial License) Copyright 2023 Fonticons, Inc. --><path d="M208 88a24 24 0 1 1 -48 0 24 24 0 1 1 48 0zM184 32a56 56 0 1 0 0 112 56 56 0 1 0 0-112zM32.2 146.6l48 288L82.4 448H96 288h16V416H288 109.6L63.8 141.4l-31.6 5.3zM160 176H141.1l3.1 18.6 19.5 117.3c3.9 23.1 23.9 40.1 47.3 40.1h60.6l.3 0 .3 0h68.6L385 469.6l5 13.4 13.8-3.5 64-16-7.8-31L410 445 367 330.4 363.1 320H352 285.6l-10.7-64H336h16V224H336 269.6l-5.8-34.6L261.6 176H248 160zm74.4 32l18.7 112h-42c-7.8 0-14.5-5.7-15.8-13.4L178.9 208h55.6z"/></svg>