<svg xmlns="http://www.w3.org/2000/svg" viewBox="0 0 640 512"><!--! Font Awesome Pro 6.4.0 by @fontawesome - https://fontawesome.com License - https://fontawesome.com/license (Commercial License) Copyright 2023 Fonticons, Inc. --><path d="M104 56A24 24 0 1 0 56 56a24 24 0 1 0 48 0zM24 56a56 56 0 1 1 112 0A56 56 0 1 1 24 56zm8 136l0 95.6 48 33V176H32v0h0l0 16zM80 359.4l-48-33L32 496l0 16L0 512l0-16L0 304.4l0 0V296 160 144H16 96h8.7l4.7 7.3L176.7 256h29.7l316.4-60.8-42-126.1-.8-2.5V64 16 0h16H624h16V16 172.6 192 400v96 16H608V496 416H224v80 16H192V496 400 288H168h-8.7l-4.7-7.3L112 214.5V342.6l41.1 28.2 6.9 4.8V384 496v16H128V496 392.4L80.9 360H80v-.6zM608 178.8V32H512V61.4l42.6 127.7L608 178.8zM224 285.2V288v96H608V211.4L224 285.2zM288 304a16 16 0 1 1 0 32 16 16 0 1 1 0-32z"/></svg>