<svg xmlns="http://www.w3.org/2000/svg" viewBox="0 0 640 512"><!--! Font Awesome Pro 6.4.0 by @fontawesome - https://fontawesome.com License - https://fontawesome.com/license (Commercial License) Copyright 2023 Fonticons, Inc. --><path d="M416 264v96l160 32 64-144c-37.3-48-153.6-144-320-144S37.3 200 0 248L64 392l160-32V264c62.3-20.8 129.7-20.8 192 0zM192 333.8L82.8 355.6 37.5 253.5C80.3 208.3 181.3 136 320 136s239.7 72.3 282.5 117.5L557.2 355.6 448 333.8V264 240.9l-21.9-7.3c-68.9-23-143.4-23-212.2 0L192 240.9V264v69.8z"/></svg>