<svg xmlns="http://www.w3.org/2000/svg" viewBox="0 0 640 512"><!--! Font Awesome Pro 6.4.0 by @fontawesome - https://fontawesome.com License - https://fontawesome.com/license (Commercial License) Copyright 2023 Fonticons, Inc. --><path d="M112 0H240h16V32H240 150.6l112 112H377.4L500.7 20.7 512 9.4 534.6 32 523.3 43.3l-128 128-4.7 4.7H384 256h-6.6l-4.7-4.7L128 54.6V144v16H96V144 16 0h16zM416 464V368c-62.3-20.8-129.7-20.8-192 0v96L64 512 0 368c37.3-48 153.6-144 320-144s282.7 96 320 144L576 512 416 464zM192 368V344.9l21.9-7.3c68.9-23 143.4-23 212.2 0l21.9 7.3V368v72.2l110.2 33.1 44.3-99.7C559.7 328.3 458.7 256 320 256S80.3 328.3 37.5 373.5l44.3 99.7L192 440.2V368z"/></svg>