<svg xmlns="http://www.w3.org/2000/svg" viewBox="0 0 640 512"><!--! Font Awesome Pro 6.4.0 by @fontawesome - https://fontawesome.com License - https://fontawesome.com/license (Commercial License) Copyright 2023 Fonticons, Inc. --><path d="M63.9 64l0-32 176-32 64 160-55.6 55.6c2 3.5 4.1 7 6.3 10.4l-25.2 19.9c-3-4.7-6-9.5-8.8-14.4l-12.3-21.3 17.3-17.3 40.7-40.7L219.9 36.2 95.9 58.7l0 5.3c0 85.8 26 165.5 70.5 231.7l-25.2 19.9C92.4 243.9 63.9 157.3 63.9 64zM227.7 410.3L253.4 390c71 56.3 160.8 90 258.4 90h5.3l22.5-124L423.6 309.5l-40.7 40.7-17.3 17.4-21.3-12.3c-8.9-5.1-17.6-10.7-25.9-16.6L344.7 318c5.1 3.4 10.3 6.6 15.6 9.6L415.9 272l160 64-32 176h-32C404 512 305 473.9 227.7 410.3zM607.4 10L620 .1l19.8 25.2-12.6 9.9L32.1 502.2l-12.6 9.9L-.2 486.9l12.6-9.9L607.4 10z"/></svg>