<svg xmlns="http://www.w3.org/2000/svg" viewBox="0 0 512 512"><!--! Font Awesome Pro 6.4.0 by @fontawesome - https://fontawesome.com License - https://fontawesome.com/license (Commercial License) Copyright 2023 Fonticons, Inc. --><path d="M280.4 355.3l21.3 12.3L319 350.2l40.7-40.7L475.8 356 453.3 480H448C218.2 480 32 293.7 32 64l0-5.3L156 36.2l46.5 116.1-40.7 40.7-17.3 17.3 12.3 21.3c29.6 51.4 72.4 94.1 123.7 123.7zM512 336L352 272l-55.6 55.6c-46.5-26.8-85.2-65.5-112-112L240 160 176 0 0 32 0 64C0 311.4 200.6 512 448 512h32l32-176zM499.3 35.3L510.6 24 488 1.4 476.7 12.7 320 169.4V80 64H288V80 208v16h16H432h16V192H432 342.6L499.3 35.3z"/></svg>