<svg xmlns="http://www.w3.org/2000/svg" viewBox="0 0 576 512"><!--! Font Awesome Pro 6.4.0 by @fontawesome - https://fontawesome.com License - https://fontawesome.com/license (Commercial License) Copyright 2023 Fonticons, Inc. --><path d="M288 80C187.6 80 101.5 141.7 65.7 229.3l-2.4 6-5.9 2.6-1.7 .8L52.6 240H49.2 48 32v32H48h8 3.4l3.1-1.4 59.7-26.5 6.2-2.7 6.3 2.5 67.5 27 5.9 2.4 5.9-2.4 68.1-27.2 5.9-2.4 5.9 2.4 68.1 27.2 5.9 2.4 5.9-2.4 67.5-27 6.3-2.5 6.2 2.7 59.7 26.5 3.1 1.4H520h8 16V240H528h-1.2-3.4l-3.1-1.4-1.7-.8-5.9-2.6-2.4-6C474.5 141.7 388.4 80 288 80zM40.1 208C82.7 113.7 177.7 48 288 48s205.3 65.7 247.9 160H560h16v16 64 16H560 528h-8-6.8-3.4l-3.1-1.4-6.2-2.8L447 276.1l-61.2 24.5-11.9 4.8-5.9 2.4-5.9-2.4-11.9-4.8L288 275.7l-62.2 24.9-11.9 4.8-5.9 2.4-5.9-2.4-11.9-4.8L129 276.1 75.5 299.9l0 0-6.2 2.8L66.2 304H62.8 56 48 16 0V288 224 208H16 40.1zm35.4 91.9l13 29.2-6.2 2.8L73 336H62.8 58.7L96 448H480l37.3-112h-4.1H503l-9.3-4.1-6.2-2.8-1.4-.6L456.9 416H119.1L89.9 328.5l-1.4 .6-13-29.2zM206.3 151.2l-16 32-7.2 14.3-28.6-14.3 7.2-14.3 16-32 7.2-14.3 28.6 14.3-7.2 14.3zm192-14.3l16 32 7.2 14.3-28.6 14.3-7.2-14.3-16-32-7.2-14.3 28.6-14.3 7.2 14.3zM304 144v32 16H272V176 144 128h32v16z"/></svg>