<svg xmlns="http://www.w3.org/2000/svg" viewBox="0 0 640 512"><!--! Font Awesome Pro 6.4.0 by @fontawesome - https://fontawesome.com License - https://fontawesome.com/license (Commercial License) Copyright 2023 Fonticons, Inc. --><path d="M480 32h-2.4l-2.3 .7L416.6 50.8C399.7 56 385.5 66.4 375.5 80H240C162.6 80 98 135 83.2 208H47.4c-8.5 0-15.4-6.9-15.4-15.4c0-7.1 4.8-13.3 11.7-15l8.2-2 15.5-3.9-7.8-31-15.5 3.9-8.2 2C14.8 151.8 0 170.8 0 192.6C0 218.8 21.2 240 47.4 240H80v16c0 53.4 29.1 100 72.2 124.8l31.6 88.6 3.8 10.6h11.3H272h16V464 416h32 48v48 16h16 73.1 11.3l3.8-10.6L494 408.5c26.2-9.1 49.3-25.9 65.9-48.5H624h16V344 216 200H624 581.3c-5.9-4-11.2-8.8-15.8-14.2C591.9 166.5 608 135.5 608 102V96 80H592 528V48 32H512 480zM112 256V240c0-70.7 57.3-128 128-128H380.5c1.1 0 2.2 0 3.4 0l9.6 .2 4.7-8.4c5.9-10.6 15.7-18.8 27.9-22.5L482.4 64H496V90.1c0 12.5-4.5 24.1-12 33.3l-10.9 13.1 13.8 10c17.9 13 33.5 29.3 45.8 48.5c9.1 14.2 21.3 26 35.7 34.7l3.8 2.3h4.4H608v96H551.4h-8.8l-4.7 7.4c-14 22-35.7 37.9-60.6 44.8l-8 2.2-2.8 7.8L445.9 448H400V400 384H384 320 272 256v16 48H210.1l-29.9-83.7-2.1-5.9-5.6-2.9c-36-18.7-60.5-56.2-60.5-99.5zM525.1 112h50.2c-2.7 19.2-13.1 36.5-28.5 47.9c-8.7-10.9-18.4-20.8-28.9-29.7c3.1-5.7 5.6-11.8 7.3-18.2zM468 256a20 20 0 1 0 0-40 20 20 0 1 0 0 40z"/></svg>