<svg xmlns="http://www.w3.org/2000/svg" viewBox="0 0 640 512"><!--! Font Awesome Pro 6.4.0 by @fontawesome - https://fontawesome.com License - https://fontawesome.com/license (Commercial License) Copyright 2023 Fonticons, Inc. --><path d="M514.7 0h8H624h16V32H624 530.7L395.2 212.2l21.7 14.4 13.2 8.8-8.7 13.3L296 439.8C266.5 484.9 216.2 512 162.3 512H160C71.6 512 0 440.4 0 352V240 224H16 240h16v16 32l67.2-89.6 9.1-12.1 12.6 8.4 23.7 15.8L509.9 6.4 514.7 0zM252.8 329.6L224 320V256H32v96c0 70.7 57.3 128 128 128h2.3c43.1 0 83.4-21.7 107-57.8L385.9 244.5l-46.2-30.8L252.8 329.6z"/></svg>