<svg xmlns="http://www.w3.org/2000/svg" viewBox="0 0 512 512"><!--! Font Awesome Pro 6.4.0 by @fontawesome - https://fontawesome.com License - https://fontawesome.com/license (Commercial License) Copyright 2023 Fonticons, Inc. --><path d="M221.2 13.3C230.8 5.7 242.6 0 256 0c26.9 0 47.1 21.6 59.2 41.8C327.9 62.9 336 89.1 336 109.7v52.5l167.9 96 8.1 4.6V272v96 22.7l-21.4-7.6L336 327.8V376l57.6 43.2L400 424v8 64 16H384 368h-2.2l-2.2-.6L256 480.6 148.4 511.4l-2.2 .6H144 128 112V496 432v-8l6.4-4.8L176 376l0-50.6L20.9 375.2 0 381.9V360 264v-9.3l8.1-4.6 167.9-96V109.7c0-20.7 8.4-46.9 21.2-67.9c6.5-10.7 14.5-20.8 24-28.4zm3.3 45C214.1 75.6 208 96.2 208 109.7v53.7 9.3l-8.1 4.6L32 273.3v64.8l155.1-49.9 20.9-6.7v21.9l0 80.6v8l-6.4 4.8L144 440v39.4l107.6-30.7 4.4-1.3 4.4 1.3L368 479.4V440l-57.6-43.2L304 392v-8V305.1 282.4l21.4 7.6L480 345.3v-64l-167.9-96-8.1-4.6v-9.3V109.7c0-13.6-5.9-34.2-16.2-51.4C276.9 40.2 265.1 32 256 32c-4.1 0-9 1.7-14.8 6.3c-5.8 4.6-11.5 11.5-16.7 20z"/></svg>