<svg xmlns="http://www.w3.org/2000/svg" viewBox="0 0 640 512"><!--! Font Awesome Pro 6.4.0 by @fontawesome - https://fontawesome.com License - https://fontawesome.com/license (Commercial License) Copyright 2023 Fonticons, Inc. --><path d="M181.5 65l-6.2-2.3-6 2.7-88 40L54.1 117.8l25.4 15.8 136.3 84.6-57.9 29L91.5 232.4l-6-1.3-5.4 3.1-56 32L5.9 276.5l14.8 14.8 88 88 4.7 4.7H120 256h3.8l3.4-1.7L543.3 242.2c39.4-19.7 70.9-52.2 89.3-92.2c15.1-32.7-8.8-70-44.8-70H526.2c-22.4 0-44.4 5.2-64.4 15.2l-83.7 41.9L181.5 65zm-59.6 57.2l54.8-24.9 196.9 72.2 6.5 2.4 6.2-3.1 89.9-44.9c15.6-7.8 32.7-11.8 50.1-11.8h61.6c12.7 0 21.1 13.1 15.8 24.6c-15.4 33.4-41.7 60.5-74.6 77L252.2 352H126.6L58.1 283.5 90.6 265l66 14.7 5.5 1.2 5.1-2.5L255.8 234l25.6-12.8-24.3-15.1L121.9 122.2zM16 480H0v32H16 624h16V480H624 16z"/></svg>