<svg xmlns="http://www.w3.org/2000/svg" viewBox="0 0 512 512"><!--! Font Awesome Pro 6.4.0 by @fontawesome - https://fontawesome.com License - https://fontawesome.com/license (Commercial License) Copyright 2023 Fonticons, Inc. --><path d="M288 96c0-35.3 28.7-64 64-64s64 28.7 64 64v33.1c-38.4 5.7-64 32.2-64 73.9c0 29.3 35.8 79.4 80 116.9c44.2-37.5 80-88 80-116.9c0-41.7-25.6-68.3-64-73.9V96c0-53-43-96-96-96s-96 43-96 96v65.6c-20.3-20.7-48.7-33.6-80-33.6c-61.9 0-112 50.1-112 112v17.1c-38.4 5.7-64 32.2-64 73.9C0 360.4 35.8 410.5 80 448c44.2-37.5 80-88 80-116.9c0-41.7-25.6-68.3-64-73.9V240c0-44.2 35.8-80 80-80s80 35.8 80 80v40 16V496v16h32V496 296 280 240 96zm128 65.7V192v16h32V192 161.7c8.9 2 15.5 5.6 20.1 9.8c6.6 6 11.9 15.8 11.9 31.6c0 4.1-3.9 17-17.8 37c-8.2 11.8-18.6 24.3-30.3 36.2c-11.7-11.9-22.1-24.3-30.2-36.1c-13.8-20-17.7-32.9-17.7-37.1c0-15.8 5.3-25.6 11.9-31.6c4.6-4.2 11.2-7.8 20.1-9.8zM43.9 299.5c4.6-4.2 11.2-7.8 20.1-9.8v30.6 16H96v-16V289.7c8.9 2 15.5 5.6 20.1 9.8c6.6 6 11.9 15.8 11.9 31.6c0 4.1-3.9 17-17.8 37c-8.2 11.8-18.6 24.3-30.3 36.2C68.3 392.4 57.9 380 49.7 368.2C35.9 348.3 32 335.3 32 331.1c0-15.8 5.3-25.6 11.9-31.6z"/></svg>