<svg xmlns="http://www.w3.org/2000/svg" viewBox="0 0 640 512"><!--! Font Awesome Pro 6.4.0 by @fontawesome - https://fontawesome.com License - https://fontawesome.com/license (Commercial License) Copyright 2023 Fonticons, Inc. --><path d="M432 426v53.4L324.4 448.6l-4.4-1.3-4.4 1.3L208 479.4V440l57.6-43.2L272 392v-8V303.4v-3.8l-16.4-12.9-4.5 1.5L96 338.1V273.3L178.7 226l-27.1-21.4L72.1 250.1 64 254.7V264v96 21.9l20.9-6.7L240 325.4l0 50.6-57.6 43.2L176 424v8 64 16h16 16 2.2l2.2-.6L320 480.6l107.6 30.7 2.2 .6H432h16 16V496 451.2L432 426zM240 109.7v1.6l32 25.3V109.7c0-13.5 6.1-34.1 16.6-51.3c5.2-8.5 10.9-15.4 16.7-20C311 33.7 315.9 32 320 32c9.1 0 20.9 8.2 31.8 26.3C362.1 75.5 368 96.1 368 109.7v61.7 9.3l8.1 4.6 167.9 96v70l32 25.3V272v-9.3l-8.1-4.6L400 162.1V109.7c0-20.6-8.1-46.8-20.8-67.9C367.1 21.6 346.9 0 320 0c-13.4 0-25.2 5.7-34.8 13.3c-9.5 7.6-17.6 17.7-24 28.4C248.4 62.7 240 89 240 109.7zM32.5 10L19.9 .1 .1 25.3l12.6 9.9L607.8 502.2l12.6 9.9 19.8-25.2-12.6-9.9L32.5 10z"/></svg>