<svg xmlns="http://www.w3.org/2000/svg" viewBox="0 0 576 512"><!--! Font Awesome Pro 6.4.0 by @fontawesome - https://fontawesome.com License - https://fontawesome.com/license (Commercial License) Copyright 2023 Fonticons, Inc. --><path d="M576 256c0-13.4-5.7-25.2-13.3-34.8s-17.7-17.6-28.4-24c-21-12.8-47.3-21.2-68-21.2l-100.5 0-9.1-16H368h16V144 80 64H368 301.9l-32-55.9L265.3 0H256 160 138.8l5.8 20.4L189.1 176 144 176l-43.2-57.6L96 112H88 24 3.5l5 19.9 23 92.1C14.1 224.3 0 238.5 0 256s14.1 31.7 31.5 32l-23 92.1L3.5 400H24 88h8l4.8-6.4L144 336h45.1L144.6 491.6 138.8 512H160l96 0h9.3l4.6-8.1 32-55.9H368h16V432 368 352H368 356.7l9.1-16H466.3c20.6 0 46.8-8.1 67.9-20.8C554.4 303.1 576 282.9 576 256zM338.4 384H352v32H320.1l18.3-32zM352 128H338.4L320.1 96H352v32zm114.3 80c13.5 0 34.1 6.1 51.3 16.6c8.5 5.2 15.4 10.9 20 16.7c4.6 5.8 6.3 10.7 6.3 14.8c0 9.1-8.2 20.9-26.3 31.8c-17.2 10.3-37.8 16.2-51.4 16.2H356.6h-9.3l-4.6 8.1L246.7 480l-65.5 0 44.5-155.6 5.8-20.4-21.2 0H136h-8l-4.8 6.4L80 368H44.5l27-108.1 1-3.9-1-3.9L44.5 144H80l43.2 57.6L128 208h8l74.3 0h21.2l-5.8-20.4L181.2 32l65.5 0 96 167.9 4.6 8.1h9.3l109.8 0z"/></svg>