<svg xmlns="http://www.w3.org/2000/svg" viewBox="0 0 576 512"><!--! Font Awesome Pro 6.4.0 by @fontawesome - https://fontawesome.com License - https://fontawesome.com/license (Commercial License) Copyright 2023 Fonticons, Inc. --><path d="M512 32a32 32 0 1 1 0 64 32 32 0 1 1 0-64zm0 96A64 64 0 1 0 512 0a64 64 0 1 0 0 128zM224 480C118 480 32 394 32 288c0-8.1 .5-16.1 1.5-24h71.9L152 310.6V360v9.9l8.8 4.4L184 385.9V440v16h16 48 8.9l4.7-7.6 64-104 2.4-3.9V336 264 248H312 209.9l-7.4-14.9 58.8-88.3 3-4.5-.4-5.4-2.4-35.3C349.6 117.2 416 194.8 416 288c0 106-86 192-192 192zM40.3 232C64.3 153.3 137.4 96 224 96c1.8 0 3.5 0 5.3 .1l2.4 35.6-61 91.5-5.2 7.7 4.2 8.3 16 32 4.4 8.8H200h96v51.5L239.1 424H216V376v-9.9l-8.8-4.4L184 350.1V304v-6.6l-4.7-4.7-56-56-4.7-4.7H112 40.3zM227.2 64c-1.1 0-2.1 0-3.2 0C100.3 64 0 164.3 0 288S100.3 512 224 512s224-100.3 224-224c0-111.7-81.7-204.2-188.6-221.2l0 0c-10.5-1.7-21.3-2.6-32.3-2.8l0 0z"/></svg>