<svg xmlns="http://www.w3.org/2000/svg" viewBox="0 0 512 512"><!--! Font Awesome Pro 6.4.0 by @fontawesome - https://fontawesome.com License - https://fontawesome.com/license (Commercial License) Copyright 2023 Fonticons, Inc. --><path d="M-11.8 0H8 120h6.5l4.7 4.5 248 240 11.5 11.1-.4 .4H496h16v32H496 258.1L32 348.3v48.5L258.8 480H496h16v32H496 256h-2.8l-2.7-1-240-88L0 419.2V408 336 323.7l11.9-3.2L55 309-7.6 19.4-11.8 0zM113.5 32H27.8L85.9 300.8l165.9-44.2 2-.5H256h89L113.5 32zM208 352H368h16v32H368 208 192V352h16z"/></svg>