<svg xmlns="http://www.w3.org/2000/svg" viewBox="0 0 640 512"><!--! Font Awesome Pro 6.4.0 by @fontawesome - https://fontawesome.com License - https://fontawesome.com/license (Commercial License) Copyright 2023 Fonticons, Inc. --><path d="M256 0c-13.4 0-25.2 5.7-34.8 13.3c-9.5 7.6-17.6 17.7-24 28.4C184.4 62.7 176 89 176 109.7v44.5L8.1 250.1 0 254.7V264v96 21.9l20.9-6.7L176 325.4l0 50.6-57.6 43.2L112 424v8 64 16h16 16 2.2l2.2-.6L256 480.6l107.6 30.7 2.2 .6H368V479.4L260.4 448.6l-4.4-1.3-4.4 1.3L144 479.4V440l57.6-43.2L208 392v-8l0-80.6V281.5l-20.9 6.7L32 338.1V273.3l167.9-96 8.1-4.6v-9.3V109.7c0-13.5 6.1-34.1 16.6-51.3c5.2-8.5 10.9-15.4 16.7-20C247 33.7 251.9 32 256 32c9.1 0 20.9 8.2 31.8 26.3C298.1 75.5 304 96.1 304 109.7v61.7 9.3l8.1 4.6 106.9 61.1c2.5-10.7 6.5-20.8 11.9-30.1L336 162.1V109.7c0-20.6-8.1-46.8-20.8-67.9C303.1 21.6 282.9 0 256 0zm80 376V327.8L384 345l0-34-58.6-20.9L304 282.4v22.7V384v8l6.4 4.8L368 440V400l-32-24zM528 224c26.5 0 48 21.5 48 48v48H480V272c0-26.5 21.5-48 48-48zm-80 48v48H416v32V480v32h32H608h32V480 352 320H608V272c0-44.2-35.8-80-80-80s-80 35.8-80 80zm0 80H608V480H448V352z"/></svg>