<svg xmlns="http://www.w3.org/2000/svg" viewBox="0 0 640 512"><!--! Font Awesome Pro 6.4.0 by @fontawesome - https://fontawesome.com License - https://fontawesome.com/license (Commercial License) Copyright 2023 Fonticons, Inc. --><path d="M256 0c-13.4 0-25.2 5.7-34.8 13.3c-9.5 7.6-17.6 17.7-24 28.4C184.4 62.7 176 89 176 109.7v44.5L8.1 250.1 0 254.7V264v96 21.9l20.9-6.7L176 325.4l0 50.6-57.6 43.2L112 424v8 64 16h16 16 2.2l2.2-.6L256 480.6l107.6 30.7 2.2 .6H368h16 10.8c-14.2-10-26.9-22-37.5-35.7l-96.8-27.7-4.4-1.3-4.4 1.3L144 479.4V440l57.6-43.2L208 392v-8l0-80.6V281.5l-20.9 6.7L32 338.1V273.3l167.9-96 8.1-4.6v-9.3V109.7c0-13.5 6.1-34.1 16.6-51.3c5.2-8.5 10.9-15.4 16.7-20C247 33.7 251.9 32 256 32c9.1 0 20.9 8.2 31.8 26.3C298.1 75.5 304 96.1 304 109.7v61.7 9.3l8.1 4.6 76.2 43.5c9.6-7.4 19.9-13.9 30.9-19.2L336 162.1V109.7c0-20.6-8.1-46.8-20.8-67.9C303.1 21.6 282.9 0 256 0zM384 368a112 112 0 1 1 224 0 112 112 0 1 1 -224 0zm256 0a144 144 0 1 0 -288 0 144 144 0 1 0 288 0zM512 448V416H480v32h32zm0-160H480v16 80 16h32V384 304 288z"/></svg>