<svg xmlns="http://www.w3.org/2000/svg" viewBox="0 0 576 512"><!--! Font Awesome Pro 6.4.0 by @fontawesome - https://fontawesome.com License - https://fontawesome.com/license (Commercial License) Copyright 2023 Fonticons, Inc. --><path d="M128 16V0H96V16v96h32V16zm160 0V0H256V16v96h32V16zM16 144H0v32H16 32v64c0 83 63.1 151.2 144 159.2V496v16h32V496 399.2c17.3-1.7 33.7-6.2 48.9-12.9c-.6-6-.9-12.1-.9-18.3c0-6 .3-11.8 .9-17.6c-19 11.2-41.2 17.6-64.9 17.6c-70.7 0-128-57.3-128-128V176H320v56.2c9.8-8.1 20.6-15.2 32-21V176h16 16V144H368 352 320 64 32 16zM320 368a112 112 0 1 1 224 0 112 112 0 1 1 -224 0zm256 0a144 144 0 1 0 -288 0 144 144 0 1 0 288 0zM448 448V416H416v32h32zm0-160H416v16 80 16h32V384 304 288z"/></svg>