<svg xmlns="http://www.w3.org/2000/svg" viewBox="0 0 448 512"><!--! Font Awesome Pro 6.4.0 by @fontawesome - https://fontawesome.com License - https://fontawesome.com/license (Commercial License) Copyright 2023 Fonticons, Inc. --><path d="M288 32H208V64h80c8.8 0 16-7.2 16-16s-7.2-16-16-16zM176 64h-8c-26.5 0-48 21.5-48 48v48H432h16v32H432 16 0V160H16 88V112c0-44.2 35.8-80 80-80h8V0h32 80c26.5 0 48 21.5 48 48s-21.5 48-48 48H208 176V64zM80 512L47.3 224H79.5l29.1 256H339.4l29.1-256h32.2L368 512H80z"/></svg>