<svg xmlns="http://www.w3.org/2000/svg" viewBox="0 0 384 512"><!--! Font Awesome Pro 6.4.0 by @fontawesome - https://fontawesome.com License - https://fontawesome.com/license (Commercial License) Copyright 2023 Fonticons, Inc. --><path d="M208 16V0H176V16 32H80 64V48 64H48 32V80 480H16 0v32H16 368h16V480H368 352V80 64H336 320V48 32H304 208V16zM320 480H64V96H80 96V80 64h80 32 80V80 96h16 16V480zM112 280h48v48H112V280zM88 256v24 48 24h24 48 24V328 280 256H160 112 88zm44-104v20H112V152h20zm0 28v20H112V180h20zm28 0v20H140V180h20zm-20-8V152h20v20H140zm-28-44H88v24 48 24h24 48 24V200 152 128H160 112zm140 24h20v20H252V152zm-8 0v20H224V152h20zm0 28v20H224V180h20zm8 20V180h20v20H252zm-52-72v24 48 24h24 48 24V200 152 128H272 224 200z"/></svg>