<svg xmlns="http://www.w3.org/2000/svg" viewBox="0 0 640 512"><!--! Font Awesome Pro 6.4.0 by @fontawesome - https://fontawesome.com License - https://fontawesome.com/license (Commercial License) Copyright 2023 Fonticons, Inc. --><path d="M96 32a16 16 0 1 1 0 32 16 16 0 1 1 0-32zm0 64A48 48 0 1 0 96 0a48 48 0 1 0 0 96zM608 64v96H512V64h96zM256 64H480v96H256V64zm0-32H224V64v96 32h32H608h32V160 64 32H608 256zM608 352v96H384V352H608zm-352 0h96v96H256V352zm0-32H224v32 96 32h32H608h32V448 352 320H608 256zM80 336a16 16 0 1 1 32 0 16 16 0 1 1 -32 0zm64 0a48 48 0 1 0 -96 0 48 48 0 1 0 96 0zM40 416H27.9l-3.3 11.6L.4 512H33.7l18.3-64h87.9l18.3 64h33.3l-24.2-84.4L164.1 416H152 40zM27.9 128l-3.3 11.6L.4 224H33.7l18.3-64h87.9l18.3 64h33.3l-24.2-84.4L164.1 128H152 40 27.9z"/></svg>