<svg xmlns="http://www.w3.org/2000/svg" viewBox="0 0 448 512"><!--! Font Awesome Pro 6.4.0 by @fontawesome - https://fontawesome.com License - https://fontawesome.com/license (Commercial License) Copyright 2023 Fonticons, Inc. --><path d="M164.4 0h22.4c70 0 138.5 45.4 148.1 118.2C363.7 130.3 384 158.7 384 192v13.5c37.3 13.2 64 48.7 64 90.5v88 16H432 347.9L368 379.9V368h48V296c0-30.9-22-56.8-51.2-62.7L352 230.7V217.6 192c0-22.4-15.3-41.2-36.1-46.5l-11.5-2.9-.6-11.8c-2.4-50.4-43.2-88-94.1-96.8c.4 1.4 .8 2.7 1.3 4.1c2.3 7.8 5 17.8 5 25.4c0 43.5-27.5 67.3-46.4 78.4l-3.7 2.2h-4.3H144c-26.5 0-48 21.5-48 48v25.6 13.1l-12.8 2.6C54 239.2 32 265.1 32 296v72H80v32H16 0V384 296c0-41.8 26.7-77.4 64-90.5V192c0-44.2 35.8-80 80-80h13c13-8.5 27-23.3 27-48.6c0-2.2-1.2-7.8-3.7-16.2c-2.3-7.6-5.1-15.6-7.1-21.5l-.1-.2 0 0 0 0c-.6-1.6-1.1-3.1-1.5-4.3L164.4 0zM264 224h8 18.4l-2.6 18.3L274.4 336H320h16v16 8 6.6l-4.7 4.7-136 136-4.7 4.7H184h-8H157.6l2.6-18.3L173.6 400H128 112V384v-8-6.6l4.7-4.7 136-136 4.7-4.7H264zM158.6 368H192h18.4l-2.6 18.3-10.5 73.8L289.4 368H256 237.6l2.6-18.3 10.5-73.8L158.6 368z"/></svg>