<svg xmlns="http://www.w3.org/2000/svg" viewBox="0 0 576 512"><!--! Font Awesome Pro 6.4.0 by @fontawesome - https://fontawesome.com License - https://fontawesome.com/license (Commercial License) Copyright 2023 Fonticons, Inc. --><path d="M352 32V96H32V32H352zM32 0H0V32 96v32H32 352h32V96 32 0H352 32zm0 160V480v32H64 320h10.8c-12.9-9.1-24.5-19.9-34.6-32H64V416h80 16V384H144 64V320h80 16V288H144 64V224h80 16V192H144 64V160H32zm320 0H320v72.2c9.8-8.1 20.6-15.2 32-21V160zm80 96a112 112 0 1 1 0 224 112 112 0 1 1 0-224zm0 256a144 144 0 1 0 0-288 144 144 0 1 0 0 288zM384 297.4L361.4 320l11.3 11.3 96 96L480 438.6 502.6 416l-11.3-11.3-96-96L384 297.4z"/></svg>