<svg xmlns="http://www.w3.org/2000/svg" viewBox="0 0 384 512"><!--! Font Awesome Pro 6.4.0 by @fontawesome - https://fontawesome.com License - https://fontawesome.com/license (Commercial License) Copyright 2023 Fonticons, Inc. --><path d="M352 32V96H32V32H352zM32 0H0V32 96v32H32 352h32V96 32 0H352 32zm0 160V480v32H64 320h32V480 160H320V480H64V160H32zm133.3 32h-16v16 37.3H112 96v16 53.3 16h16 37.3V368v16h16 53.3 16V368 330.7H272h16v-16V261.3v-16H272 234.7V208 192h-16H165.3zm16 69.3V224h21.3v37.3 16h16H256v21.3H218.7h-16v16V352H181.3V314.7v-16h-16H128V277.3h37.3 16v-16z"/></svg>