<svg xmlns="http://www.w3.org/2000/svg" viewBox="0 0 640 512"><!--! Font Awesome Pro 6.4.0 by @fontawesome - https://fontawesome.com License - https://fontawesome.com/license (Commercial License) Copyright 2023 Fonticons, Inc. --><path d="M76.9 0h-16V32h16H96V208H32V192 176H0v16 32V384v32 16H32V416 400H320V368H32V240h80 16V224 32H256V224v16h16 48V208H288V32h16 16V0H304 272 112 76.9zM384 177.1L457.7 128H608V480H457.7L384 430.9V177.1zM448 96l-96 64V448l96 64H608h32V480 128 96H608 448zm0 112v32h16 80 16V208H544 464 448zm0 80v32h16 80 16V288H544 464 448zm0 80v32h16 80 16V368H544 464 448z"/></svg>