<svg xmlns="http://www.w3.org/2000/svg" viewBox="0 0 512 512"><!--! Font Awesome Pro 6.4.0 by @fontawesome - https://fontawesome.com License - https://fontawesome.com/license (Commercial License) Copyright 2023 Fonticons, Inc. --><path d="M304 0H288V16 72 88h16 32c8.8 0 16 7.2 16 16s-7.2 16-16 16H304 288v16 56 16h16 48c0 26.5 21.5 48 48 48s48-21.5 48-48h48 16V192 16 0H496 304zm16 56V32H480V176H432 416v16 16c0 8.8-7.2 16-16 16s-16-7.2-16-16V192 176H368 320V152h16c26.5 0 48-21.5 48-48s-21.5-48-48-48H320zM16 64H0V80 288 496v16H16 224 432h16V496 288 272H432 352 336v16 32c0 8.8-7.2 16-16 16s-16-7.2-16-16V288 272H288 240V80 64H224 16zM208 96V272H176V256c0-26.5-21.5-48-48-48s-48 21.5-48 48v16H32V96H208zM96 304h16V288 256c0-8.8 7.2-16 16-16s16 7.2 16 16v32 16h16 48v32H192c-26.5 0-48 21.5-48 48s21.5 48 48 48h16v48H32V304H96zM240 416V400H224 192c-8.8 0-16-7.2-16-16s7.2-16 16-16h32 16V352 304h32v16c0 26.5 21.5 48 48 48s48-21.5 48-48V304h48V480H240V416z"/></svg>