<svg xmlns="http://www.w3.org/2000/svg" viewBox="0 0 512 512"><!--! Font Awesome Pro 6.4.0 by @fontawesome - https://fontawesome.com License - https://fontawesome.com/license (Commercial License) Copyright 2023 Fonticons, Inc. --><path d="M256 105.6l-6.4-14.7L240 95.1v10.5h16zm0 38.4H240v16h16V144zm112 0h16V128H368v16zm0 112H352v16h16V256zm38.4 0v16h10.5l4.2-9.6L406.4 256zm0 64l14.7-6.4-4.2-9.6H406.4v16zM368 320V304H352v16h16zm0 176v16h16V496H368zm-112 0H240v16h16V496zm0-38.4l-6.4-14.7-9.6 4.2v10.5h16zm-64 0h16V447.1l-9.6-4.2L192 457.6zm0 38.4v16h16V496H192zM16 496H0v16H16V496zm0-176V304H0v16H16zm38.4 0l14.7-6.4L64.9 304H54.4v16zm0-64v16H64.9l4.2-9.6L54.4 256zM16 256H0v16H16V256zm0-112V128H0v16H16zm176 0v16h16V144H192zm0-38.4h16V95.1l-9.6-4.2L192 105.6zM304 64c0-19.4-10.5-35.8-25.1-46.7S244.8 0 224 0V32c14.5 0 27.1 4.4 35.7 10.9S272 56.9 272 64h32zm-41.6 56.3C285.2 110.3 304 90.2 304 64H272c0 9.4-7 20.2-22.4 26.9l12.7 29.4zM272 144V105.6H240V144h32zm96-16H256v32H368V128zm16 128V144H352V256h32zm22.4-16H368v32h38.4V240zM448 208c-26.2 0-46.3 18.8-56.3 41.6l29.4 12.7C427.8 247 438.6 240 448 240V208zm64 80c0-20.8-6.3-40.2-17.3-54.9s-27.3-25.1-46.7-25.1v32c7.1 0 14.7 3.8 21.1 12.3s10.9 21.1 10.9 35.7h32zm-64 80c19.4 0 35.8-10.5 46.7-25.1s17.3-34.1 17.3-54.9H480c0 14.5-4.4 27.1-10.9 35.7s-14.1 12.3-21.1 12.3v32zm-56.3-41.6c9.9 22.9 30.1 41.6 56.3 41.6V336c-9.4 0-20.2-7-26.9-22.4l-29.4 12.7zM368 336h38.4V304H368v32zm16 160V320H352V496h32zM256 512H368V480H256v32zm-16-54.4V496h32V457.6H240zM272 416c0 9.4-7 20.2-22.4 26.9l12.7 29.4c22.9-9.9 41.6-30.1 41.6-56.3H272zm-48-32c14.5 0 27.1 4.4 35.7 10.9s12.3 14.1 12.3 21.1h32c0-19.4-10.5-35.8-25.1-46.7s-34.1-17.3-54.9-17.3v32zm-48 32c0-7.1 3.8-14.7 12.3-21.1s21.1-10.9 35.7-10.9V352c-20.8 0-40.2 6.3-54.9 17.3s-25.1 27.3-25.1 46.7h32zm22.4 26.9C183 436.2 176 425.4 176 416H144c0 26.2 18.8 46.3 41.6 56.3l12.7-29.4zM208 496V457.6H176V496h32zM16 512H192V480H16v32zM0 320V496H32V320H0zm54.4-16H16v32H54.4V304zM96 336c-9.4 0-20.2-7-26.9-22.4L39.7 326.4C49.7 349.2 69.8 368 96 368V336zm32-48c0 14.5-4.4 27.1-10.9 35.7S103.1 336 96 336v32c19.4 0 35.8-10.5 46.7-25.1s17.3-34.1 17.3-54.9H128zM96 240c7.1 0 14.7 3.8 21.1 12.3s10.9 21.1 10.9 35.7h32c0-20.8-6.3-40.2-17.3-54.9S115.4 208 96 208v32zM69.1 262.4C75.8 247 86.6 240 96 240V208c-26.2 0-46.3 18.8-56.3 41.6l29.4 12.7zM16 272H54.4V240H16v32zM0 144V256H32V144H0zm192-16H16v32H192V128zm-16-22.4V144h32V105.6H176zM144 64c0 26.2 18.8 46.3 41.6 56.3l12.7-29.4C183 84.2 176 73.4 176 64H144zM224 0c-20.8 0-40.2 6.3-54.9 17.3S144 44.6 144 64h32c0-7.1 3.8-14.7 12.3-21.1S209.5 32 224 32V0z"/></svg>