<svg xmlns="http://www.w3.org/2000/svg" viewBox="0 0 576 512"><!--! Font Awesome Pro 6.4.0 by @fontawesome - https://fontawesome.com License - https://fontawesome.com/license (Commercial License) Copyright 2023 Fonticons, Inc. --><path d="M0 88C0 39.4 39.4 0 88 0h8 16V32H96 88C57.1 32 32 57.1 32 88v8H96h32v32 64 32H96 32 0V192 168 128 96 88zm32 40v40 24H96V128H32zM160 88c0-48.6 39.4-88 88-88h8 16V32H256h-8c-30.9 0-56 25.1-56 56v8h64 32v32 64 32H256 192 160V192 168 128 96 88zm32 80v24h64V128H192v40zM576 424c0 48.6-39.4 88-88 88h-8H464V480h16 8c30.9 0 56-25.1 56-56v-8H480 448V384 320 288h32 64 32v32 24 40 32 8zm-32-40V344 320H480v64h64zM416 424c0 48.6-39.4 88-88 88h-8H304V480h16 8c30.9 0 56-25.1 56-56v-8H320 288V384 320 288h32 64 32v32 24 40 32 8zm-32-80V320H320v64h64V344z"/></svg>