<svg xmlns="http://www.w3.org/2000/svg" viewBox="0 0 512 512"><!--! Font Awesome Pro 6.4.0 by @fontawesome - https://fontawesome.com License - https://fontawesome.com/license (Commercial License) Copyright 2023 Fonticons, Inc. --><path d="M341 50.3c-4.8-10.2-10.4-20.1-16.9-29.5c1.8-2 3.7-3.9 5.6-5.8L340.2 4.6 344.8 0l6.6 0 32 0 13.9 0 2 13.7L403 40.1c4.2 29.6 1 59.4-8.7 86.8c1.6 1.2 3.1 2.4 4.7 3.6l59.1 48.2 5.9 4.8v7.6V280v16H448 368v9.1L493.3 486.9 510.6 512H480.1 402.4 394l-4.8-6.9-37.2-54V496v16H336 304 176 144 128v0H112 96V496 475.9c-7.5 2.7-15.6 4.1-24 4.1c-39.8 0-72-32.2-72-72s32.2-72 72-72c14.2 0 27.5 4.1 38.6 11.2c23.8-59.9 74.6-106.1 137.4-123.6V186.1c-35-39.7-51.2-93-43.6-145.9l3.8-26.4 2-13.7L224 0l32 0 6.6 0 4.7 4.6L277.7 15c24.9 24.7 41 55.8 47.4 89c14 .1 27.8 2.6 40.7 7.5c6.8-21.3 8.9-44.1 5.6-66.8L369.5 32 358 32l-5.7 5.7c-4 4-7.8 8.2-11.2 12.6zM100.6 380.1C93.4 372.6 83.2 368 72 368c-22.1 0-40 17.9-40 40s17.9 40 40 40c9 0 17.3-3 24-8V424c0-15.1 1.6-29.8 4.6-43.9zM352 176a16 16 0 1 1 0 32 16 16 0 1 1 0-32zM176 480H304h16V448H304 268.6 231.4L257 421l51.9-54.8 13.6-14.3 11.2 16.3L410.8 480h38.9L338.8 319.1 336 315v-5V280 264h16 80V198.7l-53.2-43.4c-15.3-12.5-34.5-19.3-54.3-19.3c-3.3 0-6.5 .4-9.6 1l-17.7 3.9-1.7-18c-3-31.7-16.9-62-40.3-85.2L249.4 32l-11.5 0-1.8 12.7c-6.5 45.4 8.2 91.1 39.5 124.2l4.4 4.7L280 180l0 .4v55.7 13l-12.7 2.7C187.7 268.7 128 339.4 128 424v56h16 16v0h16zm142.6-77.5L305.8 416h22l-9.3-13.5z"/></svg>