<svg xmlns="http://www.w3.org/2000/svg" viewBox="0 0 576 512"><!--! Font Awesome Pro 6.4.0 by @fontawesome - https://fontawesome.com License - https://fontawesome.com/license (Commercial License) Copyright 2023 Fonticons, Inc. --><path d="M474.3 147.2l16.5 12.3c-2.2-32.9-16.2-64.4-40.5-88.2l-4.5-4.4-10.5 2c-8.2-8.5-17.2-16.3-26.9-23.2l1.2-4.4 9.7-1.9 28.5-5.5 8.2-1.6 6 5.9 10.5 10.3c36.3 35.6 54.1 85.2 49.8 134.7l47.2 35.2 6.4 4.8v8V320v16H560 399.4L361 368h95 16v16 64 16H456 280h-6.6l-4.7-4.7L237 427.7l-72.4 48.3-2.1 1.4-4 2.7h-4.8H118.2h-8.6l-4.7-7.1L80.3 436l-8.9-13.3 13.3-8.9 26.6-17.8 56.4-37.6-55-55c-9.8-9.8-17.6-21.2-23.1-33.7C84 271.2 78.1 272 72 272c-39.8 0-72-32.2-72-72s32.2-72 72-72c16.3 0 31.3 5.4 43.3 14.5c20.1-18.9 47.1-30.5 76.9-30.5h9c17.3 0 34.4 3.7 50.2 10.9l66 30c-2.3-5.4-4.2-11-5.8-16.8L296 79.6l-3.3-11.9 10.7-6.2 27.6-16 6.2-3.6 6.8 2.2c48.8 16.1 87 54 103.8 102c5.1-1 10.3-1.7 15.6-2.2l6-.5 4.8 3.6zM81 239c-.7-4.9-1-9.8-1-14.8c0-20.7 5.6-40 15.3-56.7C88.8 162.8 80.7 160 72 160c-22.1 0-40 17.9-40 40s17.9 40 40 40c3.1 0 6.1-.4 9-1zm48.1 183.7l-13.3 8.9 11 16.4h22.1L214 404.6l-23.1-23.1-61.8 41.2zM330.1 83l12.3 44.5c5.5 20 16.5 37.9 31.4 51.9l-17.6 26.2L238.1 152c-11.6-5.3-24.2-8-36.9-8h-9c-44.3 0-80.2 35.9-80.2 80.2c0 21.3 8.4 41.7 23.5 56.7L286.6 432H440V400l-88 0-32 0V384 368.6c0-50-33.1-94-81.2-107.7l-19.2-5.5L204.2 251l8.8-30.8 15.4 4.4 19.2 5.5c51.4 14.7 89.5 56.2 100.9 106.7l34.9-29.1 4.5-3.7h5.8H544V239.1l-83.8-62.6c-6.3 .8-12.3 2.3-18.1 4.2l-16.4 5.6-4.2-16.8-.4-1.4c-10.5-41.8-40.6-75.7-80.5-91.2L330.1 83zM480 224a16 16 0 1 1 0 32 16 16 0 1 1 0-32z"/></svg>