<svg xmlns="http://www.w3.org/2000/svg" viewBox="0 0 640 512"><!--! Font Awesome Pro 6.4.0 by @fontawesome - https://fontawesome.com License - https://fontawesome.com/license (Commercial License) Copyright 2023 Fonticons, Inc. --><path d="M392 0c30.9 0 56 25.1 56 56v8h32V56c0-30.9 25.1-56 56-56s56 25.1 56 56v8V80H560V64 56c0-13.3-10.7-24-24-24s-24 10.7-24 24V72l62.3 62.3 42.6 28.4 13.3 8.9-17.8 26.6-13.3-8.9L576 173.9V304v32H544 400 368V304 177.3l-14 11.2-12.5 10-20-25 12.5-10 34-27.2V136l48-48V56c0-13.3-10.7-24-24-24s-24 10.7-24 24v8V80H336V64 56c0-30.9 25.1-56 56-56zm88 96H453.3L400 149.3V304H544V149.3L490.7 96H480zM256 48c19.1 0 36.3 8.4 48 21.7V80v30.9l-3.8 3L280.1 91c-5.9-6.8-14.5-11-24.1-11s-18.2 4.2-24.1 11l-20.1 23-23.9-19C182.4 90.6 175.6 88 168 88c-15 0-27.7 10.4-31.1 24.3l-7 28.5-29-4.5c-1.6-.2-3.2-.4-5-.4c-17.7 0-32 14.3-32 32c0 2.7 .3 5.3 .9 7.8L71 200 49 211.7c-10.2 5.4-17 16.1-17 28.3s6.8 22.8 17 28.3L71 280l-6 24.2c-.6 2.5-.9 5.1-.9 7.8c0 17.7 14.3 32 32 32c1.7 0 3.4-.1 5-.4l29-4.5 7 28.5c3.4 14 16.1 24.3 31.1 24.3c7.6 0 14.4-2.6 19.9-6.9l23.9-19 20.1 23c5.9 6.8 14.5 11 24.1 11s18.2-4.2 24.1-11l20.1-23 23.9 19c5.5 4.3 12.3 6.9 19.9 6.9c14.9 0 27.4-10.2 31-24h16.5 16 .5l15.5 3.9-32 128-3 12.1H376 304 288V496 423.4c-9.4 5.4-20.3 8.6-32 8.6s-22.6-3.1-32-8.6V496v16H208 136 123.5l-3-12.1L89.4 375.7C57.2 372.4 32 345.1 32 312c0-5.3 .7-10.5 1.9-15.5C13.7 285.7 0 264.5 0 240s13.7-45.7 33.9-56.5c-1.2-5-1.9-10.2-1.9-15.5c0-35.3 28.7-64 64-64c3.3 0 6.6 .3 9.8 .8C112.7 76.8 137.9 56 168 56c15 0 28.9 5.2 39.8 13.9C219.5 56.5 236.8 48 256 48zm64 371.3V480h43.5l16.8-67.3C370 419.8 357.5 424 344 424c-8.5 0-16.6-1.7-24-4.7zm-188.3-6.7L148.5 480H192V419.3c-7.4 3-15.5 4.7-24 4.7c-13.5 0-26-4.2-36.3-11.3zM432 192a16 16 0 1 1 32 0 16 16 0 1 1 -32 0zm80-16a16 16 0 1 1 0 32 16 16 0 1 1 0-32z"/></svg>