<svg xmlns="http://www.w3.org/2000/svg" viewBox="0 0 512 512"><!--! Font Awesome Pro 6.4.0 by @fontawesome - https://fontawesome.com License - https://fontawesome.com/license (Commercial License) Copyright 2023 Fonticons, Inc. --><path d="M32 64V448H480V64H32zM0 32H32 480h32V64 448v32H480 32 0V448 64 32zM191.4 168.8l11.3 11.3L256 233.4l53.3-53.3 11.3-11.3 22.6 22.6-11.3 11.3L278.6 256l53.3 53.3 11.3 11.3-22.6 22.6-11.3-11.3L256 278.6l-53.3 53.3-11.3 11.3-22.6-22.6 11.3-11.3L233.4 256l-53.3-53.3-11.3-11.3 22.6-22.6z"/></svg>