<svg xmlns="http://www.w3.org/2000/svg" viewBox="0 0 512 512"><!--! Font Awesome Pro 6.4.0 by @fontawesome - https://fontawesome.com License - https://fontawesome.com/license (Commercial License) Copyright 2023 Fonticons, Inc. --><path d="M320 0V32 80H16 0V96 256v16H32V256 112H320v48 32h32l73.4-73.4L448 96 425.4 73.4 352 0H320zm32 112V80 45.3L402.7 96 352 146.7V112zM512 240l-32 0v16l0 144-288 0V352 320H160L86.6 393.4 64 416l22.6 22.6L160 512h32V480 432l304 0h16V416l0-160V240zM160 466.7L109.3 416 160 365.3V466.7zM240 192H224v32h16 16v80 16h32V304 208 192H272 240z"/></svg>