<svg xmlns="http://www.w3.org/2000/svg" viewBox="0 0 640 512"><!--! Font Awesome Pro 6.4.0 by @fontawesome - https://fontawesome.com License - https://fontawesome.com/license (Commercial License) Copyright 2023 Fonticons, Inc. --><path d="M192 496h-6.6l-4.7-4.7-144-144L25.4 336l11.3-11.3 144-144 4.7-4.7H192h48 16v16 48h16 16 64 16l32 0h16v16l0 48h25.4l128-128L441.4 48H416V96v16H400 288 272V80h16 96V32 16h16 48 6.6l4.7 4.7 144 144L614.6 176l-11.3 11.3-144 144-4.7 4.7H448 400 384V320 272l-16 0H352 288 272 240 224V256 208H198.6L70.6 336l128 128H224V416 400h16l112 0h16v32H352l-96 0v48 16H240 192z"/></svg>