<svg xmlns="http://www.w3.org/2000/svg" viewBox="0 0 640 512"><!--! Font Awesome Pro 6.4.0 by @fontawesome - https://fontawesome.com License - https://fontawesome.com/license (Commercial License) Copyright 2023 Fonticons, Inc. --><path d="M64 156.4L160 310v10H64V156.4zm96 93.2L64 96H32v32V320v32H64h96 32 96 32 96 32H570.3 608l-20-32L448 96H416v32V249.6L320 96H288v32V249.6L192 96H160v32V249.6zM416 310v10H320V300.8 156.4L416 310zm32 10V300.8 156.4L550.3 320H448zM288 310v10H192V300.8 156.4L288 310zM0 416v32H16 624h16V416H624 16 0z"/></svg>