<svg xmlns="http://www.w3.org/2000/svg" viewBox="0 0 640 512"><!--! Font Awesome Pro 6.4.0 by @fontawesome - https://fontawesome.com License - https://fontawesome.com/license (Commercial License) Copyright 2023 Fonticons, Inc. --><path d="M184.1 64L74.4 448H339.2c5.9 11.4 12.9 22.2 21 32H65.3 32l9.1-32L160 32H304h32H480l46.5 162.6c-9.9-1.7-20.1-2.6-30.5-2.6c-1.2 0-2.4 0-3.6 0L455.9 64H336v48 16H304V112 64H184.1zM326.6 320H304V304 208 192h32v16 86.6c-3.8 8.2-6.9 16.7-9.4 25.4zM608 368a112 112 0 1 0 -224 0 112 112 0 1 0 224 0zm-256 0a144 144 0 1 1 288 0 144 144 0 1 1 -288 0zm203.3-36.7L518.6 368l36.7 36.7L566.6 416 544 438.6l-11.3-11.3L496 390.6l-36.7 36.7L448 438.6 425.4 416l11.3-11.3L473.4 368l-36.7-36.7L425.4 320 448 297.4l11.3 11.3L496 345.4l36.7-36.7L544 297.4 566.6 320l-11.3 11.3z"/></svg>