<svg xmlns="http://www.w3.org/2000/svg" viewBox="0 0 512 512"><!--! Font Awesome Pro 6.4.0 by @fontawesome - https://fontawesome.com License - https://fontawesome.com/license (Commercial License) Copyright 2023 Fonticons, Inc. --><path d="M256 0C176.5 0 112 64.5 112 144v16H48 32v16V420.2L1.7 480.8 0 484.2V488v8 16H16 128h16V496 406.6l36.7 36.7 4.7 4.7H192 320h6.6l4.7-4.7L368 406.6V496v16h16H496h16V496v-8-3.8l-1.7-3.4L480 420.2V176 160H464 400V144C400 64.5 335.5 0 256 0zM400 192h48V424v3.8l1.7 3.4L474.1 480H400V374.6 368 192zm-32-32H144V144c0-61.9 50.1-112 112-112s112 50.1 112 112v16zM144 192H368V361.4L313.4 416H198.6L144 361.4V192zm-32 0V368v6.6V480H37.9l24.4-48.8 1.7-3.4V424 192h48zm112-64a32 32 0 1 0 0-64 32 32 0 1 0 0 64zm80 0a16 16 0 1 0 0-32 16 16 0 1 0 0 32zM192 224v32h16 96 16V224H304 208 192zm0 64v32h16 96 16V288H304 208 192z"/></svg>