<svg xmlns="http://www.w3.org/2000/svg" viewBox="0 0 576 512"><!--! Font Awesome Pro 6.4.0 by @fontawesome - https://fontawesome.com License - https://fontawesome.com/license (Commercial License) Copyright 2023 Fonticons, Inc. --><path d="M352 0c71.4 0 136.7 26 187 69L516.3 91.7C471.9 54.4 414.5 32 352 32s-119.9 22.4-164.3 59.7L165 69C215.3 26 280.6 0 352 0zm0 96c44.9 0 86.1 15.4 118.8 41.2L448 160c-26.7-20.1-60-32-96-32s-69.3 11.9-96 32l-22.8-22.8C265.9 111.4 307.1 96 352 96zm16 128v16 80H544h32v32V480v32H544 32 0V480 352 320H32 336V240 224h32zM544 352H32V480H544V352zM160 392h48v48H160V392zm-32 0v48H80V392h48z"/></svg>