<svg xmlns="http://www.w3.org/2000/svg" viewBox="0 0 640 512"><!--! Font Awesome Pro 6.4.0 by @fontawesome - https://fontawesome.com License - https://fontawesome.com/license (Commercial License) Copyright 2023 Fonticons, Inc. --><path d="M224 0H384V32H592h16V48 176v16H592 549.6L634 259.5l6 4.8V272 400v16H624 574.4c1 5.2 1.6 10.5 1.6 16c0 44.2-35.8 80-80 80s-80-35.8-80-80c0-5.5 .6-10.8 1.6-16H400 254.4c1 5.2 1.6 10.5 1.6 16c0 44.2-35.8 80-80 80s-80-35.8-80-80c0-7.7 1.1-15.2 3.1-22.2L4.7 315.3 0 310.6V304 48 32H16 224V0zM32 64V297.4l82.9 82.9C129.6 363 151.5 352 176 352c26.2 0 49.4 12.6 64 32H384V176 160h16H576V64H384 352V32H256V64H224 32zM541.3 416a48 48 0 1 0 -90.5 32 48 48 0 1 0 90.5-32zM432 384c14.6-19.4 37.8-32 64-32s49.4 12.6 64 32h48V288H416v96h16zm66.4-192H416v64H578.4l-80-64zM221.3 416a48 48 0 1 0 -90.5 32 48 48 0 1 0 90.5-32zM128 160v64H288V160H128zM96 128h32H288h32v32 64 32H288 128 96V224 160 128z"/></svg>