<svg xmlns="http://www.w3.org/2000/svg" viewBox="0 0 512 512"><!--! Font Awesome Pro 6.4.0 by @fontawesome - https://fontawesome.com License - https://fontawesome.com/license (Commercial License) Copyright 2023 Fonticons, Inc. --><path d="M393.9 32L351.2 94 333 120.4c7.7 4.9 16.7 11 26.4 18.1C420.8 183.7 512 273.4 512 416v64 32H480 32 0V480 416C0 273.4 91.2 183.7 152.6 138.5c9.7-7.1 18.6-13.2 26.4-18.1L160.8 94 118.1 32 96 0h38.9H377.1 416L393.9 32zM480 416c0-147.7-109.4-233.5-164.3-268.6l-5.3-3.4h-109l-5.3 3.4C141.4 182.5 32 268.3 32 416v64H480V416zM299.9 112l6.7-9.8L355.1 32H156.9l48.4 70.2 6.7 9.8h87.8zM203.3 244.7L256 297.4l52.7-52.7L320 233.4 342.6 256l-11.3 11.3L278.6 320l52.7 52.7L342.6 384 320 406.6l-11.3-11.3L256 342.6l-52.7 52.7L192 406.6 169.4 384l11.3-11.3L233.4 320l-52.7-52.7L169.4 256 192 233.4l11.3 11.3z"/></svg>