<svg xmlns="http://www.w3.org/2000/svg" viewBox="0 0 512 512"><!--! Font Awesome Pro 6.4.0 by @fontawesome - https://fontawesome.com License - https://fontawesome.com/license (Commercial License) Copyright 2023 Fonticons, Inc. --><path d="M192 32V0C368.7 0 512 143.3 512 320H480C480 160.9 351.1 32 192 32zM416 320H384c0-106-86-192-192-192V96c123.7 0 224 100.3 224 224zM32 304c0 97.2 78.8 176 176 176c24.4 0 47.7-5 68.8-13.9L45.9 235.2C37 256.3 32 279.6 32 304zM0 304c0-33.4 7.9-64.9 21.8-92.9c4.9-9.9 10.6-19.3 17-28.2l23 23L172.7 316.7l24-24c-3-6.3-4.7-13.3-4.7-20.7c0-26.5 21.5-48 48-48s48 21.5 48 48s-21.5 48-48 48c-7.4 0-14.4-1.7-20.7-4.7l-24 24L306.1 450.1l23 23c-8.9 6.4-18.3 12.1-28.2 17c-28 14-59.5 21.8-92.9 21.8C93.1 512 0 418.9 0 304zm256-32a16 16 0 1 0 -32 0 16 16 0 1 0 32 0z"/></svg>