<svg xmlns="http://www.w3.org/2000/svg" viewBox="0 0 512 512"><!--! Font Awesome Pro 6.4.0 by @fontawesome - https://fontawesome.com License - https://fontawesome.com/license (Commercial License) Copyright 2023 Fonticons, Inc. --><path d="M400 0H384V32h16 64 16V0H464 400zM32 400V384H0v16 64 16H32V464 400zM480 160c0 176.7-143.3 320-320 320c-35.3 0-64-28.7-64-64s28.7-64 64-64c106 0 192-86 192-192c0-35.3 28.7-64 64-64s64 28.7 64 64zm32 0c0-53-43-96-96-96s-96 43-96 96c0 88.4-71.6 160-160 160c-53 0-96 43-96 96s43 96 96 96c194.4 0 352-157.6 352-352zm-96 16H384c0 114.9-93.1 208-208 208v32c132.5 0 240-107.5 240-240z"/></svg>