<svg xmlns="http://www.w3.org/2000/svg" viewBox="0 0 640 512"><!--! Font Awesome Pro 6.4.0 by @fontawesome - https://fontawesome.com License - https://fontawesome.com/license (Commercial License) Copyright 2023 Fonticons, Inc. --><path d="M496 32h-6.2l-4.6 4.2L219 279.4 252.2 160H272h16V128H272 261.1 240 48 35 16 0v32H16 28.3L3.6 277.2C1.2 288.6 0 300.2 0 311.8v5.6C0 407.2 72.8 480 162.6 480c48.8 0 94.9-21.9 125.8-59.6L527.6 128H624h16V112 96 89.4l-4.7-4.7-48-48L582.6 32H576 496zM61 160h158L184.6 283.7l-2.5 9 6.7 6.6 16 15.8 10.8 10.7 11.2-10.3L502.2 64h67.2l32 32H520h-7.6l-4.8 5.9-244 298.3c-24.8 30.3-61.9 47.9-101 47.9C90.5 448 32 389.5 32 317.4v-5.6c0-9.4 1-18.8 2.9-28L61 160zm43 176a24 24 0 1 0 0-48 24 24 0 1 0 0 48zm40-104a24 24 0 1 0 -48 0 24 24 0 1 0 48 0z"/></svg>