<svg xmlns="http://www.w3.org/2000/svg" viewBox="0 0 640 512"><!--! Font Awesome Pro 6.4.0 by @fontawesome - https://fontawesome.com License - https://fontawesome.com/license (Commercial License) Copyright 2023 Fonticons, Inc. --><path d="M384 64c0 29.8-20.4 54.9-48 62V480H528h16v32H528 320 112 96V480h16H304V126c-27.6-7.1-48-32.2-48-62H112 96V32h16H264.6C275.6 12.9 296.3 0 320 0s44.4 12.9 55.4 32H512h16V64H512 384zM142.2 119.6L253.5 298.8l2.4 3.9v4.6V336v6.6l-4.7 4.7-64 64-4.7 4.7h-6.6H80 73.4l-4.7-4.7-64-64L0 342.6V336 307.2v-4.6l2.5-3.9L115.1 119.5l13.6-21.7 13.5 21.8zM32 320v9.4L86.6 384h82.6l54.6-54.6V320H32zm177.1-32L128.6 158.2 47 288H209.1zM526.2 119.6L637.5 298.8l2.4 3.9v4.6V336v6.6l-4.7 4.7-64 64-4.7 4.7h-6.6H464h-6.6l-4.7-4.7-64-64-4.7-4.7V336 307.2v-4.6l2.5-3.9L499.1 119.5l13.6-21.7 13.5 21.8zM416 320v9.4L470.6 384h82.6l54.6-54.6V320H416zm177.1-32L512.6 158.2 431 288H593.1zM320 96a32 32 0 1 0 0-64 32 32 0 1 0 0 64z"/></svg>