<svg xmlns="http://www.w3.org/2000/svg" viewBox="0 0 640 512"><!--! Font Awesome Pro 6.4.0 by @fontawesome - https://fontawesome.com License - https://fontawesome.com/license (Commercial License) Copyright 2023 Fonticons, Inc. --><path d="M256.7 64c0 6.8 1.1 13.3 3 19.5L123.6 128.8l10.1 30.4 143.8-47.9c7.6 6.9 16.9 12.1 27.2 14.7V496c0 8.8 7.2 16 16 16h208 16V480h-16-192V126c23.8-6.1 42.3-25.7 46.9-50.1L517.7 31.2 507.6 .8 381.1 43c-8.7-25-32.5-43-60.5-43c-35.3 0-64 28.7-64 64zM32 425.4V416H223.9v9.4L169.2 480H86.6L32 425.4zm96.6-171.2L209.1 384H47l81.6-129.8zM512.7 65.8L499.1 87.5 386.6 266.7l-2.4 3.9 0 4.6-.1 28.8 0 6.7 4.7 4.7 64 64 4.7 4.7H464h95.9 6.6l4.7-4.7 64-64 4.7-4.7V304 275.2v-4.6l-2.4-3.9L526.2 87.6 512.7 65.8zM416.1 288H607.9v9.4L553.2 352H470.6L416 297.4l0-9.4zm15-32l81.5-129.8L593.1 256h-162zM128.7 193.8l-13.6 21.7L2.5 394.7 0 398.6v4.6V432v6.6l4.7 4.7 64 64 4.7 4.7H80h95.9 6.6l4.7-4.7 64-64 4.7-4.7V432 403.2v-4.6l-2.4-3.9L142.2 215.6l-13.5-21.8zM320.7 32a32 32 0 1 1 0 64 32 32 0 1 1 0-64z"/></svg>