<svg xmlns="http://www.w3.org/2000/svg" viewBox="0 0 512 512"><!--! Font Awesome Pro 6.4.0 by @fontawesome - https://fontawesome.com License - https://fontawesome.com/license (Commercial License) Copyright 2023 Fonticons, Inc. --><path d="M471.1 95.1c5.8-6.9 8.9-15.6 8.9-24.6V66.2C480 47.3 464.7 32 445.8 32c-9.8 0-19.1 4.2-25.6 11.5L231.3 256H337L471.1 95.1zm24.6 20.5L352 288H202.8 160l28.4-32L396.2 22.2C408.8 8.1 426.8 0 445.8 0C482.3 0 512 29.7 512 66.2v4.2c0 16.5-5.8 32.5-16.3 45.1zM33 476.4L178.3 320H222L85.7 466.8c20-4.6 41.6-10.7 63.1-18.7c66.2-24.8 121.9-64.2 135.9-128h32.7C294.5 451.3 132 493.4 48.8 506.4C19.5 511 0 512 0 512l33-35.6z"/></svg>