<svg xmlns="http://www.w3.org/2000/svg" viewBox="0 0 640 512"><!--! Font Awesome Pro 6.4.0 by @fontawesome - https://fontawesome.com License - https://fontawesome.com/license (Commercial License) Copyright 2023 Fonticons, Inc. --><path d="M383.3 64c0 6.8-1.1 13.3-3 19.5l136.1 45.4-10.1 30.4L362.5 111.3c-7.6 6.9-16.9 12.1-27.2 14.7V496c0 8.8-7.2 16-16 16h-208-16V480h16 192V126c-23.8-6.1-42.3-25.7-46.9-50.1L122.3 31.2 132.4 .8 258.9 43c8.7-25 32.5-43 60.5-43c35.3 0 64 28.7 64 64zM608 425.4V416H416.1v9.4L470.8 480h82.6L608 425.4zM511.4 254.2L430.9 384H593L511.4 254.2zM127.3 65.8l13.6 21.7L253.4 266.7l2.4 3.9 0 4.6 .1 28.8 0 6.7-4.7 4.7-64 64-4.7 4.7H176 80.1 73.5l-4.7-4.7-64-64L.1 310.6V304 275.2v-4.6l2.4-3.9L113.8 87.6l13.5-21.8zM223.9 288H32.1v9.4L86.8 352h82.6L224 297.4l0-9.4zm-15-32L127.4 126.2 46.9 256h162zm302.3-62.2l13.6 21.7L637.5 394.7l2.5 3.9v4.6V432v6.6l-4.7 4.7-64 64-4.7 4.7H560 464.1h-6.6l-4.7-4.7-64-64-4.7-4.7V432 403.2v-4.6l2.4-3.9L497.8 215.6l13.5-21.8zM319.3 96a32 32 0 1 0 0-64 32 32 0 1 0 0 64z"/></svg>