<svg xmlns="http://www.w3.org/2000/svg" viewBox="0 0 576 512"><!--! Font Awesome Pro 6.4.0 by @fontawesome - https://fontawesome.com License - https://fontawesome.com/license (Commercial License) Copyright 2023 Fonticons, Inc. --><path d="M576 32H416V64H576V32zM124.1 435.9L42.9 388.1 115 256H225.3L124.1 435.9zM262 256h58 32V224 64 32H320 112C50.1 32 0 82.1 0 144c0 51.1 34.2 94.2 80.9 107.6L0 400l108.4 63.8L136 480l15.7-27.9L262 256zM416 96v32H576V96H416zm160 96H416v32H576V192zM416 256v32H576V256H416zm160 64H416v32H576V320zM416 448v32H576V448H416zM112 64H320V224H280 243.3 112c-44.2 0-80-35.8-80-80s35.8-80 80-80z"/></svg>