<svg xmlns="http://www.w3.org/2000/svg" viewBox="0 0 512 512"><!--! Font Awesome Pro 6.4.0 by @fontawesome - https://fontawesome.com License - https://fontawesome.com/license (Commercial License) Copyright 2023 Fonticons, Inc. --><path d="M174.6 0H184 328h9.4l4.6 8.2 72 128 2.1 3.7V144v64 6.6l-4.7 4.7L374.6 256 416 297.4l3.3 3.3 8 8 3.3 3.3 68.7 68.7L510.6 392 488 414.6l-11.3-11.3L408 334.6 382.6 360l68.7 68.7L462.6 440 440 462.6l-11.3-11.3L360 382.6 334.6 408l68.7 68.7L414.6 488 392 510.6l-11.3-11.3L312 430.6l-3.3-3.3-8-8-3.3-3.3L100.7 219.3 96 214.6V208 144v-4.2l2.1-3.7 72-128L174.6 0zM352 233.4l32-32V148.2L318.6 32H193.4L128 148.2v53.2l184 184L385.4 312l-44.7-44.7L208 134.6V96h96 16v32H304 246.6L352 233.4zM210.7 374.6l22.6 22.6L131.3 499.3 120 510.6 97.4 488l11.3-11.3L210.7 374.6zm-48-48l22.6 22.6L83.3 451.3 72 462.6 49.4 440l11.3-11.3L162.7 326.6zm-48-48l22.6 22.6L35.3 403.3 24 414.6 1.4 392l11.3-11.3L114.7 278.6z"/></svg>