<svg xmlns="http://www.w3.org/2000/svg" viewBox="0 0 640 512"><!--! Font Awesome Pro 6.4.0 by @fontawesome - https://fontawesome.com License - https://fontawesome.com/license (Commercial License) Copyright 2023 Fonticons, Inc. --><path d="M160 96H32 0v32V480v32H32 256h32 64 32V480 384c0-35.3-28.7-64-64-64s-64 28.7-64 64v96H32V128H160c5.8 0 11.5-1.6 16.5-4.6L320 37.3l143.5 86.1c5 3 10.7 4.6 16.5 4.6H608v65.6c19.8 20.2 32 47.9 32 78.4V128 96H608 480L320 0 160 96zM288 384c0-17.7 14.3-32 32-32s32 14.3 32 32v96H288V384zM112 160H96v16 96 16h16 64 16V272 176 160H176 112zm16 96V192h32v64H128zM96 320v16 96 16h16 64 16V432 336 320H176 112 96zm32 32h32v64H128V352zM320 128a64 64 0 1 1 0 128 64 64 0 1 1 0-128zm0 160a96 96 0 1 0 0-192 96 96 0 1 0 0 192zm16-128V144H304v16 32 16h16 24 16V176H344h-8V160zm192 64c26.5 0 48 21.5 48 48v48H480V272c0-26.5 21.5-48 48-48zm-80 48v48H416v32V480v32h32H608h32V480 352 320H608V272c0-44.2-35.8-80-80-80s-80 35.8-80 80zm160 80V480H448V352H608z"/></svg>