<svg xmlns="http://www.w3.org/2000/svg" viewBox="0 0 640 512"><!--! Font Awesome Pro 6.4.0 by @fontawesome - https://fontawesome.com License - https://fontawesome.com/license (Commercial License) Copyright 2023 Fonticons, Inc. --><path d="M576 32H64V229.5c-11.9 4.2-22.8 10.7-32 19V32 0H64 576h32V32 248.4c-9.2-8.3-20.1-14.8-32-19V32zM96 352a32 32 0 1 0 0-64 32 32 0 1 0 0 64zm0-96a64 64 0 1 1 0 128 64 64 0 1 1 0-128zm224 96a32 32 0 1 0 0-64 32 32 0 1 0 0 64zm0-96a64 64 0 1 1 0 128 64 64 0 1 1 0-128zm256 64a32 32 0 1 0 -64 0 32 32 0 1 0 64 0zm-96 0a64 64 0 1 1 128 0 64 64 0 1 1 -128 0zM55.1 448L33.7 512H0l32-96H160l32 96H158.3l-21.3-64H55.1zm202.7 64H224l32-96H384l32 96H382.3l-21.3-64H279.1l-21.3 64zm245.3-64l-21.3 64H448l32-96H608l32 96H606.3l-21.3-64H503.1z"/></svg>