<svg xmlns="http://www.w3.org/2000/svg" viewBox="0 0 576 512"><!--! Font Awesome Pro 6.4.0 by @fontawesome - https://fontawesome.com License - https://fontawesome.com/license (Commercial License) Copyright 2023 Fonticons, Inc. --><path d="M80 64c-26.5 0-48 21.5-48 48v80H96v32H16 0V208 112C0 67.8 35.8 32 80 32H400c44.2 0 80 35.8 80 80V288H448V256H400 384V224h16 48V160H400 384V128h16 48V112c0-26.5-21.5-48-48-48H144c10 13.4 16 30 16 48V224h48 16v32H208 160V400c0 26.5 21.5 48 48 48s48-21.5 48-48V328 312h16 .7 .7 .7 .7 .7 .7 .7 .7 .7 .7 .7 .7 .7 .7 .7 .7 .7 .7 .7 .7 .7 .7 .7 .7 .7 .7 .7 .7 .7 .7 .7 .6 .6 .6 .6 .6 .6 .6 .6 .6 .6 .6 .6 .6 .6 .6 .6 .6 .6 .6 .6 .6 .6 .6 .6 .6 .6 .6 .6 .6 .6 .6 .6 .6 .6 .6 .6 .6 .6 .6 .6 .6 .6 .6 .6 .6 .6 .6 .6 .6 .6 .6 .6 .6 .6 .6 .6 .6 .6 .6 .6 .6 .6 .6 .6 .6 .6 .6 .6 .6 .6 .6 .6 .6 .6 .6 .6 .6 .6 .6 .6 .6 .6 .6 .6 .6 .6 .6 .6 .6 .6 .6 .6 .6 .5 .5 .5 .5 .5 .5 .5 .5 .5 .5 .5 .5 .5 .5 .5 .5 .5 .5 .5 .5 .5 .5 .5 .5 .5 .5 .5 .5 .5 .5 .5 .5 .5 .5 .5 .5 .5 .5 .5 .5 .5 .5 .5 .5 .5 .5 .5 .5 .5 .5 .5 .5 .5 .5 .5 .5 .5 .5 .5 .5 .5 .5 .5 .5 .5 .5 .5 .5 .5 .5 .5 .5 .5 .5 .5 .5 .5 .5 .5 .5 .5 .5 .5 .5 .5 .5 .5 .5 .5 .5 .5 .5 .5 .5 .5 .5 .5 .5 .5 .5 .5 .5 .5 .5 .5 .5 .5 .5 .5 .5 .5 .5 .5 .5 .5 .5 .5 .5 .5 .5 .5 .5 .5 .5 .5 .5 .5 .5 .5 .5 .5 .5 .5 .5 .5 .5 .5 .5 .5 .5 .5 .5 .5 .5 .5 .5 .5 .5 .5 .5 .5 .5 .5 .5 .5 .5 .5 .5 .5 .5 .5 .5 .5 .5 .5 .5 .5 .5 .5 .5 .5 .5 .5 .5 .5 .5 .5 .5 .5 .5 .5 .5 .5 .5 .5 .5 .5 .5 .5 .5 .5 .5 .5 .5 .5 .5 .5 .5 .5 .5 .5 .5 .5 .5 .5 .5 .5 .5 .5 .5 .5 .5 .5 .5 .5 .5 .5 .5 .5 .5 .5 .5 .5 .5 .5 .5 .5 .5 .5 .5 .5 .5 .5 .5 .5 .5 .5 .5 .5 .5 .5 .5 .5 .5 .5 .5 .5 .5 .5 .5 .5 .5 .5 .5 .5 .5 .5 .5 .5 .5 .5 .5 .5 .5 .6 .6 .6 .6 .6 .6 .6 .6 .6 .6 .6 .6 .6 .6 .6 .6 .6 .6 .6 .6 .6 .6 .6 .6 .6 .6 .6 .6 .6 .6 .6 .6 .6 .6 .6 .6 .6 .6 .6 .6 .6 .6 .6 .6 .6 .6 .6 .6 .6 .6 .6 .6 .6 .6 .6 .6 .6 .6 .6 .6 .6 .6 .6 .6 .6 .6 .6 .6 .6 .6 .6 .6 .6 .6 .6 .6 .6 .6 .6 .6 .6 .6 .6 .6 .6 .6 .6 .6 .6 .6 .6 .6 .6 .6 .7 .7 .7 .7 .7 .7 .7 .7 .7 .7 .7 .7 .7 .7 .7 .7 .7 .7 .7 .7 .7 .7 .7 .7 .7 .7 .7 .7 .7 .7 16v16 80c0 39.8-32.2 72-72 72H208c-44.2 0-80-35.8-80-80V256 224 112c0-26.5-21.5-48-48-48zM272 448H504c22.1 0 40-17.9 40-40V344h-.3-.7-.7-.7-.7-.7-.7-.6-.6-.6-.6-.6-.6-.6-.6H534h-.6-.6-.6-.6-.6-.6-.6-.6-.6-.6H527h-.6-.6-.6-.6-.6-.6-.6-.6-.6-.6-.6-.6H519h-.6-.6-.6-.6H516h-.6-.6-.6-.6H513h-.6-.6-.6-.6H510h-.6-.6-.6-.6-.6-.6-.6-.6-.6-.6-.6H503h-.6-.6-.6-.6-.6-.6-.6-.6-.6-.6-.6-.6-.6H495h-.6-.6-.6-.6-.6-.6H491h-.6-.6-.6-.6-.6-.6-.6-.6H486h-.6-.6-.6-.6-.5-.5-.5-.5-.5-.5H480h-.5-.5-.5-.5-.5-.5-.5-.5-.5-.5H474h-.5H473h-.5-.5-.5-.5-.5-.5-.5-.5-.5-.5-.5-.5-.5-.5H465h-.5H464h-.5-.5-.5-.5-.5-.5-.5-.5-.5-.5-.5-.5-.5-.5-.5-.5-.5-.5-.5-.5-.5-.5-.5-.5-.5-.5H450h-.5H449h-.5H448h-.5H447h-.5H446h-.5H445h-.5H444h-.5-.5-.5-.5-.5-.5-.5-.5-.5-.5-.5-.5-.5-.5-.5-.5-.5-.5-.5-.5-.5-.5-.5-.5-.5-.5-.5-.5-.5-.5-.5-.5-.5-.5-.5-.5-.5-.5-.5-.5-.5-.5-.5H422h-.5H421h-.5H420h-.5H419h-.5H418h-.5H417h-.5H416h-.5H415h-.5H414h-.5H413h-.5H412h-.5H411h-.5H410h-.5-.5-.5-.5-.5-.5-.5-.5-.5-.5-.5-.5-.5-.5-.5-.5-.5-.5-.5-.5H400v40 16H368V384 344h-.5H367h-.5-.5-.5-.5-.5-.5-.5-.5-.5-.5-.5-.5-.5-.5H359h-.5H358h-.5-.5-.5-.5-.5-.5-.5-.5-.5-.5H352h-.5-.5-.5-.5-.5-.5-.5-.6-.6-.6H346h-.6-.6-.6-.6-.6-.6-.6-.6H341h-.6-.6-.6-.6-.6-.6H337h-.6-.6-.6-.6-.6-.6-.6-.6-.6-.6-.6-.6-.6H329h-.6-.6-.6-.6-.6-.6-.6-.6-.6-.6-.6H322h-.6-.6-.6-.6H319h-.6-.6-.6-.6H316h-.6-.6-.6-.6H313h-.6-.6-.6-.6-.6-.6-.6-.6-.6-.6-.6-.6H305h-.6-.6-.6-.6-.6-.6-.6-.6-.6-.6H298h-.6-.6-.6-.6-.6-.6-.6-.6-.7-.7-.7-.7-.7-.7-.7H288v56c0 18-6 34.6-16 48z"/></svg>