<svg xmlns="http://www.w3.org/2000/svg" viewBox="0 0 640 512"><!--! Font Awesome Pro 6.4.0 by @fontawesome - https://fontawesome.com License - https://fontawesome.com/license (Commercial License) Copyright 2023 Fonticons, Inc. --><path d="M32 32V480H96V448 64 32H32zm96 416H512V64H128V448zM544 64V448v32h64V32H544V64zM512 512V480H128v32H96 32 0V480 32 0H32 96h32V32H512V0h32 64 32V32 480v32H608 544 512zM168.7 339.9l14.6-24.3 36-59.6-36-59.6-14.6-24.3h28.3H270L306.3 112 320 89.2 333.7 112 370 172.1h72.9 28.3l-14.6 24.3-36 59.6 36 59.6 14.6 24.3H442.9 370l-36.3 60.2L320 422.8l-13.7-22.7L270 339.9H197.1 168.7zM320 360.8l12.6-20.9H307.3L320 360.8zM256.7 256L288 307.9h63.9L383.2 256l-31.3-51.9H288L256.7 256zm145.2 31l-12.6 20.9h25.2L401.9 287zm12.6-82.9H389.3L401.9 225l12.6-20.9zM320 151.2l-12.6 20.9h25.2L320 151.2zM238 225l12.6-20.9H225.4L238 225zm12.6 82.9L238 287l-12.6 20.9h25.2z"/></svg>