<svg xmlns="http://www.w3.org/2000/svg" viewBox="0 0 576 512"><!--! Font Awesome Pro 6.4.0 by @fontawesome - https://fontawesome.com License - https://fontawesome.com/license (Commercial License) Copyright 2023 Fonticons, Inc. --><path d="M32 112c0-26.5 21.5-48 48-48s48 21.5 48 48V400c0 44.2 35.8 80 80 80H504c39.8 0 72-32.2 72-72V328 312H560h-.7-.7-.7-.7-.7-.7-.7-.7-.7-.7-.7-.7-.7-.7-.7-.7-.7-.7-.7-.7-.7-.7-.7-.7-.7-.7-.7-.7-.7-.7-.6-.6-.6-.6-.6-.6-.6-.6H534h-.6-.6-.6-.6-.6-.6-.6-.6-.6-.6H527h-.6-.6-.6-.6-.6-.6-.6-.6-.6-.6-.6-.6H519h-.6-.6-.6-.6H516h-.6-.6-.6-.6H513h-.6-.6-.6-.6H510h-.6-.6-.6-.6-.6-.6-.6-.6-.6-.6-.6H503h-.6-.6-.6-.6-.6-.6-.6-.6-.6-.6-.6-.6-.6H495h-.6-.6-.6-.6-.6-.6H491h-.6-.6-.6-.6-.6-.6-.6-.6H486h-.6-.6-.6-.6-.5-.5-.5-.5-.5-.5H480h-.5-.5-.5-.5-.5-.5-.5-.5-.5-.5H474h-.5H473h-.5-.5-.5-.5-.5-.5-.5-.5-.5-.5-.5-.5-.5-.5H465h-.5H464h-.5-.5-.5-.5-.5-.5-.5-.5-.5-.5-.5-.5-.5-.5-.5-.5-.5-.5-.5-.5-.5-.5-.5-.5-.5-.5H450h-.5H449h-.5H448h-.5H447h-.5H446h-.5H445h-.5H444h-.5-.5-.5-.5-.5-.5-.5-.5-.5-.5-.5-.5-.5-.5-.5-.5-.5-.5-.5-.5-.5-.5-.5-.5-.5-.5-.5-.5-.5-.5-.5-.5-.5-.5-.5-.5-.5-.5-.5-.5-.5-.5-.5H422h-.5H421h-.5H420h-.5H419h-.5H418h-.5H417h-.5H416h-.5H415h-.5H414h-.5H413h-.5H412h-.5H411h-.5H410h-.5-.5-.5-.5-.5-.5-.5-.5-.5-.5-.5-.5-.5-.5-.5-.5-.5-.5-.5-.5-.5-.5-.5-.5-.5-.5-.5-.5-.5-.5-.5-.5-.5-.5-.5-.5-.5-.5-.5-.5-.5-.5-.5H388h-.5H387h-.5H386h-.5H385h-.5H384h-.5H383h-.5H382h-.5-.5-.5-.5-.5-.5-.5-.5-.5-.5-.5-.5-.5-.5-.5-.5-.5-.5-.5-.5-.5-.5-.5-.5-.5-.5H368h-.5H367h-.5-.5-.5-.5-.5-.5-.5-.5-.5-.5-.5-.5-.5-.5H359h-.5H358h-.5-.5-.5-.5-.5-.5-.5-.5-.5-.5H352h-.5-.5-.5-.5-.5-.5-.5-.6-.6-.6H346h-.6-.6-.6-.6-.6-.6-.6-.6H341h-.6-.6-.6-.6-.6-.6H337h-.6-.6-.6-.6-.6-.6-.6-.6-.6-.6-.6-.6-.6H329h-.6-.6-.6-.6-.6-.6-.6-.6-.6-.6-.6H322h-.6-.6-.6-.6H319h-.6-.6-.6-.6H316h-.6-.6-.6-.6H313h-.6-.6-.6-.6-.6-.6-.6-.6-.6-.6-.6-.6H305h-.6-.6-.6-.6-.6-.6-.6-.6-.6-.6H298h-.6-.6-.6-.6-.6-.6-.6-.6-.7-.7-.7-.7-.7-.7-.7-.7-.7-.7-.7-.7-.7-.7-.7-.7-.7-.7-.7-.7-.7-.7-.7-.7-.7-.7-.7-.7-.7-.7H272 256v16 72c0 26.5-21.5 48-48 48s-48-21.5-48-48V112c0-18-6-34.6-16-48H400c26.5 0 48 21.5 48 48V288h32V112c0-44.2-35.8-80-80-80H80C35.8 32 0 67.8 0 112v96 16H16 96V192H32V112zM504 448H272c10-13.4 16-30 16-48V344h.3 .7 .7 .7 .7 .7 .7 .7 .6 .6 .6 .6 .6 .6 .6 .6 .6 .6 .6 .6 .6 .6 .6 .6 .6 .6 .6 .6 .6 .6 .6 .6 .6 .6 .6 .6 .6 .6 .6 .6 .6 .6 .6 .6 .6 .6 .6 .6 .6 .6 .6 .6 .6 .6 .6 .6 .6 .6 .6 .6 .6 .6 .6 .6 .6 .6 .6 .6 .6 .6 .6 .6 .6 .6 .6 .6 .6 .6 .6 .6 .6 .6 .6 .6 .6 .6 .6 .6 .6 .6 .6 .6 .6 .6 .6 .6 .6 .6 .6 .6 .6 .5 .5 .5 .5 .5 .5 .5 .5 .5 .5 .5 .5 .5 .5 .5 .5 .5 .5 .5 .5 .5 .5 .5 .5 .5 .5 .5 .5 .5 .5 .5 .5 .5 .5 .5 .5 .5 .5 .5 .5 .5 .5 .5 .5 .5 .5 .5 .5 .5 .5 .5 .5 .5 .5 .5 .5 .5 .5 .5 .5 .5 .5 .5 .5 .5 .5 .5 .5 .5 .5 .5 .5 .5 .5 .5 .5 .5 .5 .5 .5 .5 .5 .5 .5 .5 .5 .5 .5 .5 .5 .5 .5 .5 .5 .5 .5 .5 .5 .5 .5 .5 .5 .5 .5 .5 .5 .5 .5 .5 .5 .5 .5 .5 .5 .5 .5 .5 .5 .5 .5 .5 .5 .5 .5 .5 .5 .5 .5 .5 .5 .5 .5 .5 .5 .5 .5 .5 .5 .5 .5 .5 .5 .5 .5 .5 .5 .5 .5 .5 .5 .5 .5 .5 .5 .5 .5 .5 .5 .5 .5 .5 .5 .5 .5 .5 .5 .5 .5 .5 .5 .5 .5 .5 .5 .5 .5 .5 .5 .5 .5 .5 .5 .5 .5 .5 .5 .5 .5 .5 .5 .5 .5 .5 .5 .5 .5 .5 .5 .5 .5 .5 .5 .5 .5 .5 .5 .5 .5 .5 .5 .5 .5 .5 .5 .5 .5 .5 .5 .5 .5 .5 .5 .5 .5 .5 .5 .5 .5 .5 .5 .5 .5 .5 .5 .5 .5 .5 .5 .5 .5 .5 .5 .5 .5 .5 .5 .5 .5 .5 .5 .5 .5 .5 .5 .5 .5 .5 .5 .5 .5 .5 .5 .5 .5 .6 .6 .6 .6 .6 .6 .6 .6 .6 .6 .6 .6 .6 .6 .6 .6 .6 .6 .6 .6 .6 .6 .6 .6 .6 .6 .6 .6 .6 .6 .6 .6 .6 .6 .6 .6 .6 .6 .6 .6 .6 .6 .6 .6 .6 .6 .6 .6 .6 .6 .6 .6 .6 .6 .6 .6 .6 .6 .6 .6 .6 .6 .6 .6 .6 .6 .6 .6 .6 .6 .6 .6 .6 .6 .6 .6 .6 .6 .6 .6 .6 .6 .6 .6 .6 .6 .6 .6 .6 .6 .6 .6 .6 .6 .7 .7 .7 .7 .7 .7 .3v64c0 22.1-17.9 40-40 40z"/></svg>