<svg xmlns="http://www.w3.org/2000/svg" viewBox="0 0 512 512"><!--! Font Awesome Pro 6.4.0 by @fontawesome - https://fontawesome.com License - https://fontawesome.com/license (Commercial License) Copyright 2023 Fonticons, Inc. --><path d="M278.6 22.6L323 67h82 32V99v82l52.4 52.4L512 256l-22.6 22.6L437 331v82 32H405 323l-44.4 44.4L256 512l-22.6-22.6L189 445H107 75V413 331L22.6 278.6 0 256l22.6-22.6L75 181V99 67h32 82l44.4-44.4L256 0l22.6 22.6zM323 99H309.7l-9.4-9.4L256 45.3 211.6 89.6 202.3 99H189 107v82 13.3l-9.4 9.4L45.3 256l52.4 52.4 9.4 9.4V331v82h82 13.3l9.4 9.4L256 466.7l44.4-44.4 9.4-9.4H323h82V331 317.7l9.4-9.4L466.7 256l-52.4-52.4-9.4-9.4V181 99H323zM168 184c0-30.9 25.1-56 56-56h56c35.5 0 64 29 64 64.3c0 24-13.4 46.2-34.9 57.2L272 268.3V272v16H240V272 258.5v-9.8l8.7-4.5 45.8-23.4c10.7-5.4 17.5-16.6 17.5-28.7c0-17.8-14.4-32.3-32-32.3H224c-13.3 0-24 10.7-24 24v8H168v-8zm64 136h48v48H232V320z"/></svg>