<svg xmlns="http://www.w3.org/2000/svg" viewBox="0 0 512 512"><!--! Font Awesome Pro 6.4.0 by @fontawesome - https://fontawesome.com License - https://fontawesome.com/license (Commercial License) Copyright 2023 Fonticons, Inc. --><path d="M278.6 22.6L331 75h74 32v32 74l52.4 52.4L512 256l-22.6 22.6L437 331v74 32H405 331l-52.4 52.4L256 512l-22.6-22.6L181 437H107 75V405 331L22.6 278.6 0 256l22.6-22.6L75 181V107 75h32 74l52.4-52.4L256 0l22.6 22.6zM331 107H317.7l-9.4-9.4L256 45.3 203.6 97.6l-9.4 9.4H181 107v74 13.3l-9.4 9.4L45.3 256l52.4 52.4 9.4 9.4V331v74h74 13.3l9.4 9.4L256 466.7l52.4-52.4 9.4-9.4H331h74V331 317.7l9.4-9.4L466.7 256l-52.4-52.4-9.4-9.4V181 107H331zm-59 21v16V272v16H240V272 144 128h32zM232 320h48v48H232V320z"/></svg>