<svg xmlns="http://www.w3.org/2000/svg" viewBox="0 0 640 512"><!--! Font Awesome Pro 6.4.0 by @fontawesome - https://fontawesome.com License - https://fontawesome.com/license (Commercial License) Copyright 2023 Fonticons, Inc. --><path d="M224 32V224H32V32H224zM32 0H0V32 224v32H32 224h32V224 32 0H224 32zM608 288V480H416V288H608zM416 256H384v32V480v32h32H608h32V480 288 256H608 416zM160 288v96 32h32H352V384H192V288H160zM480 128V96H448 288v32H448v96h32V128zM160 96v64H96V96h64zM96 64H64V96v64 32H96h64 32V160 96 64H160 96zM480 352h64v64H480V352zm-32-32v32 64 32h32 64 32V416 352 320H544 480 448z"/></svg>