<svg xmlns="http://www.w3.org/2000/svg" viewBox="0 0 640 512"><!--! Font Awesome Pro 6.4.0 by @fontawesome - https://fontawesome.com License - https://fontawesome.com/license (Commercial License) Copyright 2023 Fonticons, Inc. --><path d="M32 64H416v87.8l32-58.7V64 32H416 32 0V64 448v32H32 237l17.5-32H32V64zm96 80V128H96v16V272v16h32V272 144zm64 0V128H160v16V272v16h32V272 144zm64 368h36.5H603.5 640l-17.5-32L466.2 193.4 448 160l-18.2 33.4L273.5 480 256 512zm330.1-32H309.9L448 226.8 586.1 480zM464 320V304H432v16 64 16h32V384 320zm-32 96v32h32V416H432z"/></svg>