<svg xmlns="http://www.w3.org/2000/svg" viewBox="0 0 512 512"><!--! Font Awesome Pro 6.4.0 by @fontawesome - https://fontawesome.com License - https://fontawesome.com/license (Commercial License) Copyright 2023 Fonticons, Inc. --><path d="M178.3 192L269.6 32.2 288 0l18.4 32.2L397.7 192 416 224H379.1 196.9 160l18.3-32zm182.6 0L288 64.5 215.1 192H360.9zM480 304H320V464H480V304zM320 272H480h32v32V464v32H480 320 288V464 304 272h32zM224 384A96 96 0 1 0 32 384a96 96 0 1 0 192 0zM0 384a128 128 0 1 1 256 0A128 128 0 1 1 0 384z"/></svg>