<svg xmlns="http://www.w3.org/2000/svg" viewBox="0 0 576 512"><!--! Font Awesome Pro 6.4.0 by @fontawesome - https://fontawesome.com License - https://fontawesome.com/license (Commercial License) Copyright 2023 Fonticons, Inc. --><path d="M373.2 65.8L361.4 55 383 31.4l11.8 10.8 168 154L575.7 208l-12.9 11.8-168 154L383 384.6 361.4 361l11.8-10.8L528.3 208 373.2 65.8zM128 480s-27-10.1-56.2-33.4C37.5 419.1 0 373.2 0 304c0-97.2 78.8-176 176-176h48 32V96 64 32h32L456.3 186.3 480 208l-23.7 21.7L288 384H256V352 320 288H224 208c-61.9 0-112 50.1-112 112c0 9.9 1.3 19 3.5 27.4C107.8 459.8 128 480 128 480zM32 304c0 38.2 13.9 67.8 32.1 90.3C67.1 317.4 130.4 256 208 256h48 32v32 52.6L432.6 208 288 75.4V128v32H256 176C96.5 160 32 224.5 32 304z"/></svg>