<svg xmlns="http://www.w3.org/2000/svg" viewBox="0 0 384 512"><!--! Font Awesome Pro 6.4.0 by @fontawesome - https://fontawesome.com License - https://fontawesome.com/license (Commercial License) Copyright 2023 Fonticons, Inc. --><path d="M96 0H80 64V16 64v60.6L1.4 265.5 0 268.6V272 496v16H16 368h16V496 272v-3.4l-1.4-3.1L320 124.6V64 16 0H304 288V16 64c0 53-43 96-96 96s-96-43-96-96V16 0zM32 275.4L91 142.6c23.4 30 60 49.4 101 49.4s77.6-19.3 101-49.4l21.9 49.3-4.3 3.1L32 396.3V275.4zm0 160.3l9.4-6.8L328.2 221.8 352 275.4V480H32V435.7z"/></svg>