<svg xmlns="http://www.w3.org/2000/svg" viewBox="0 0 640 512"><!--! Font Awesome Pro 6.4.0 by @fontawesome - https://fontawesome.com License - https://fontawesome.com/license (Commercial License) Copyright 2023 Fonticons, Inc. --><path d="M172.6 0h-6.1L162 4 141.5 22.2l-72 64L15.7 134.1l-12 10.6 10.6 12 95.7 107.6 10.6 12 12-10.6L160 241.3V496v16h16H464h16V496 241.3l27.3 24.3 12 10.6 10.6-12 95.7-107.6 10.6-12-12-10.6L570.5 86.2l-72-64L478 4l-4.5-4h-6.1H440 416h-8.4H393 247 232.4 224 200 172.6zm79.5 32H387.9C378 60 351.3 80 320 80s-58-20-67.9-48zM165.4 193.7l-.2 .2 0 0-41.9 37.2L48.9 147.3l41.9-37.2 72-64L178.7 32H200h18.8c10.8 45.9 52 80 101.2 80s90.4-34.1 101.2-80H440h21.3l15.9 14.1 72 64 41.9 37.2-74.4 83.7-41.9-37.2 0 0-.2-.1L448 170v35.6V480H192V205.7 170l-26.6 23.7z"/></svg>