<svg xmlns="http://www.w3.org/2000/svg" viewBox="0 0 512 512"><!--! Font Awesome Pro 6.4.0 by @fontawesome - https://fontawesome.com License - https://fontawesome.com/license (Commercial License) Copyright 2023 Fonticons, Inc. --><path d="M96 32V192H416V77.3L370.7 32H96zM448 192h32 32v32V352v32H480 32 0V352 224 192H32 64V32 0H96 384l64 64V192zM32 224V352H480V224H32zm384 32h32v32H416V256zM96 496V416h32v80 16H96V496zm96 0V416h32v80 16H192V496zm96 0V416h32v80 16H288V496zm96 0V416h32v80 16H384V496z"/></svg>