<svg xmlns="http://www.w3.org/2000/svg" viewBox="0 0 640 512"><!--! Font Awesome Pro 6.4.0 by @fontawesome - https://fontawesome.com License - https://fontawesome.com/license (Commercial License) Copyright 2023 Fonticons, Inc. --><path d="M592 16V0H560V16 363.9l32 25.3V16zM464 451.2L432 426v70 16h32V496 451.2zM336 350.2l-32-25.3V496v16h32V496 350.2zM432 112V262.9l32 25.3V112 96H432v16zM208 288H176v16V496v16h32V496 304 288zM80 384H48v16 96 16H80V496 400 384zM40.4 18L27.8 8.1 8.1 33.4l12.6 9.8L599.8 494.3l12.6 9.8 19.7-25.2L619.5 469 40.4 18z"/></svg>