<svg xmlns="http://www.w3.org/2000/svg" viewBox="0 0 384 512"><!--! Font Awesome Pro 6.4.0 by @fontawesome - https://fontawesome.com License - https://fontawesome.com/license (Commercial License) Copyright 2023 Fonticons, Inc. --><path d="M32 32V480H352V141.3L242.7 32H32zM256 0L384 128V480v32H352 32 0V480 32 0H32 256zM64 280V224 192H96h64 16 16 40 56 32v32 56 80 56 32H288 224 208 192 96 64V416 360 280zm32 96v40h96V376H152 96zm192 0H224v40h64V376zm-80-32h80V296H232 176 96v48h56 56zm80-120H232 192v40h40 56V224zm-128 0H96v40h64V224z"/></svg>