<svg xmlns="http://www.w3.org/2000/svg" viewBox="0 0 448 512"><!--! Font Awesome Pro 6.4.0 by @fontawesome - https://fontawesome.com License - https://fontawesome.com/license (Commercial License) Copyright 2023 Fonticons, Inc. --><path d="M112 400H416V141.3L306.7 32H112V400zM448 128V400v32H416 112 80V400 32 0h32H320L448 128zM32 96v16V480H368h16v32H368 16 0V496 112 96H32zm128 48h80 56 72 16v16 64 64 64 16H368 272 232 160 144V352 288 224 160 144h16zm16 64h48V176H176v32zm80 0h40 56V176H296 256v32zm40 32H240 176v32h56 40 80V240H296zm-8 96h64V304H288v32zm-32-32H232 176v32h56 24V304z"/></svg>