<svg xmlns="http://www.w3.org/2000/svg" viewBox="0 0 512 512"><!--! Font Awesome Pro 6.4.0 by @fontawesome - https://fontawesome.com License - https://fontawesome.com/license (Commercial License) Copyright 2023 Fonticons, Inc. --><path d="M272 0V16 64H416h16V96H416 272v64H480h16v32H480 272v64H384h16v32H384 272v75.4L368 336h48 32v32 72l-64 72H128L64 440V368 336H96h48l96 27.4V288H128 112V256h16H240V192H32 16V160H32 240V96H96 80V64H96 240V16 0h32zM372.5 368L264.8 398.8l-8.8 2.5-8.8-2.5L139.5 368H96v59.8L142.4 480H369.6L416 427.8V368H372.5zM160 432a24 24 0 1 1 48 0 24 24 0 1 1 -48 0zm152 0a24 24 0 1 1 48 0 24 24 0 1 1 -48 0z"/></svg>