<svg xmlns="http://www.w3.org/2000/svg" viewBox="0 0 640 512"><!--! Font Awesome Pro 6.4.0 by @fontawesome - https://fontawesome.com License - https://fontawesome.com/license (Commercial License) Copyright 2023 Fonticons, Inc. --><path d="M416 416H96l0 64 288 0h32V416zm-32 96L96 512H64V480 416H32 0V384 128 96H32 64V32 0H96 416h32V32 96h32 32v32V384v32H480 448v64H576V221.3c-18.6-6.6-32-24.4-32-45.3c0-26.5 21.5-48 48-48s48 21.5 48 48c0 20.9-13.4 38.7-32 45.3V496v16H592 448 416 384h0zM608 176a16 16 0 1 0 -32 0 16 16 0 1 0 32 0zM416 32L96 32V96H416V32zm64 96H32V384H480V128zm-48 48v18.9l-1 2.7L379.1 336H344.9l48-128H352 336V176h16 64 16zM311 197.6L259.1 336H224.9l48-128H232 216V176h16 64 16v18.9l-1 2.7zm-120 0L139.1 336H104.9l48-128H112 96V176h16 64 16v18.9l-1 2.7z"/></svg>