<svg xmlns="http://www.w3.org/2000/svg" viewBox="0 0 640 512"><!--! Font Awesome Pro 6.4.0 by @fontawesome - https://fontawesome.com License - https://fontawesome.com/license (Commercial License) Copyright 2023 Fonticons, Inc. --><path d="M176 0C96.5 0 32 64.5 32 144V272v16H48 176 299.3c22.6 19.9 52.2 32 84.7 32s62.1-12.1 84.7-32H496h96 16V272 176c0-61.9-50.1-112-112-112c-10.7 0-21 1.5-30.8 4.3C443.8 27.7 401.1 0 352 0c-32.7 0-62.5 12.2-85.1 32.3C242.2 12.1 210.5 0 176 0zM64 144C64 82.1 114.1 32 176 32c31.4 0 59.7 12.9 80.1 33.7l12.1 12.4L279.6 65c17.6-20.2 43.5-33 72.4-33c41 0 76.1 25.7 89.8 62l6 15.9 15.5-6.9c10-4.5 21-7 32.7-7c44.2 0 80 35.8 80 80v80H496 462.4h-6.5l-4.7 4.6c-17.3 17-41 27.4-67.2 27.4s-49.9-10.4-67.2-27.4l-4.7-4.6h-6.5H176 64V144zM80 384H64v32H80 208h16V384H208 80zm192 0H256v32h16H624h16V384H624 272zM16 480H0v32H16 368h16V480H368 16zm416 0H416v32h16H560h16V480H560 432z"/></svg>