<svg xmlns="http://www.w3.org/2000/svg" viewBox="0 0 448 512"><!--! Font Awesome Pro 6.4.0 by @fontawesome - https://fontawesome.com License - https://fontawesome.com/license (Commercial License) Copyright 2023 Fonticons, Inc. --><path d="M160 0h16H304h16V16v8 7.3L314.5 36 209.4 128H304h16v32H304 176 160V144v-8-7.3l5.5-4.8L270.6 32H176 160V0zM0 224H16 208h16v16 8 5.6l-3.5 4.4L42.9 480H208h16v32H208 16 0V496v-8-5.6L3.5 478 181.1 256H16 0V224zm304 0H432h16v16 8 6.1l-4 4.5L332.5 384H432h16v32H432 304 288V400v-8-6.1l4-4.5L403.5 256H304 288V224h16z"/></svg>