<svg xmlns="http://www.w3.org/2000/svg" viewBox="0 0 640 512"><!--! Font Awesome Pro 6.4.0 by @fontawesome - https://fontawesome.com License - https://fontawesome.com/license (Commercial License) Copyright 2023 Fonticons, Inc. --><path d="M192 64V80v41.4l20.7-20.7L224 89.4 246.6 112l-11.3 11.3L192 166.6v61.7l53.4-30.8 15.9-59.2 4.1-15.5 30.9 8.3-4.1 15.5-7.6 28.3 35.8-20.7 13.9-8 16 27.7-13.9 8-35.8 20.7 28.3 7.6 15.5 4.1L336 245.2 320.6 241l-59.2-15.9L208 256l53.4 30.8L320.6 271l15.5-4.1 8.3 30.9-15.5 4.1-28.3 7.6 35.8 20.7 13.9 8-16 27.7-13.9-8-35.8-20.7 7.6 28.3 4.1 15.5-30.9 8.3-4.1-15.5-15.9-59.2L192 283.7v61.7l43.3 43.3L246.6 400 224 422.6l-11.3-11.3L192 390.6V432v16H160V432 390.6l-20.7 20.7L128 422.6 105.4 400l11.3-11.3L160 345.4V283.7l-53.4 30.8L90.7 373.7l-4.1 15.5-30.9-8.3 4.1-15.5 7.6-28.3L31.6 357.9l-13.9 8-16-27.7 13.9-8 35.8-20.7-28.3-7.6L7.7 297.7 16 266.8 31.4 271l59.2 15.9L144 256 90.6 225.2 31.4 241 16 245.2 7.7 214.3l15.5-4.1 28.3-7.6L15.6 181.9l-13.9-8 16-27.7 13.9 8 35.8 20.7-7.6-28.3-4.1-15.5 30.9-8.3 4.1 15.5 15.9 59.2L160 228.3V166.6l-43.3-43.3L105.4 112 128 89.4l11.3 11.3L160 121.4V80 64h32zM480 448V416h16 64c26.5 0 48-21.5 48-48s-21.5-48-48-48H400 384V288h16H560c44.2 0 80 35.8 80 80s-35.8 80-80 80H496 480zM496 64h64c44.2 0 80 35.8 80 80s-35.8 80-80 80H400 384V192h16H560c26.5 0 48-21.5 48-48s-21.5-48-48-48H496 480V64h16z"/></svg>