<svg xmlns="http://www.w3.org/2000/svg" viewBox="0 0 384 512"><!--! Font Awesome Pro 6.4.0 by @fontawesome - https://fontawesome.com License - https://fontawesome.com/license (Commercial License) Copyright 2023 Fonticons, Inc. --><path d="M32 32V480H352V32H32zM0 0H32 352h32V32 480v32H352 32 0V480 32 0zM272 336a80 80 0 1 0 -160 0 80 80 0 1 0 160 0zM80 336a112 112 0 1 1 224 0A112 112 0 1 1 80 336zm88 0a24 24 0 1 1 48 0 24 24 0 1 1 -48 0zm56-208a32 32 0 1 0 -64 0 32 32 0 1 0 64 0zm-96 0a64 64 0 1 1 128 0 64 64 0 1 1 -128 0z"/></svg>