<svg xmlns="http://www.w3.org/2000/svg" viewBox="0 0 512 512"><!--! Font Awesome Pro 6.4.0 by @fontawesome - https://fontawesome.com License - https://fontawesome.com/license (Commercial License) Copyright 2023 Fonticons, Inc. --><path d="M240 64l32 0V32H240V64zM208 96V64 32 0h32 32 32V32 64 96l-32 0H240 208zM64 240H32v32H64V240zM32 208H64 96v32 32 32H64 32 0V272 240 208H32zM240 448v32h32V448H240zm-32 32V448 416h32 32 32v32 32 32H272 240 208V480zM448 240v32h32V240H448zm-32-32h32 32 32v32 32 32H480 448 416V272 240 208zM108.9 380.5L86.3 403.1l22.6 22.6 22.6-22.6-22.6-22.6zm-45.3 0l22.6-22.6 22.6-22.6 22.6 22.6 22.6 22.6 22.6 22.6-22.6 22.6-22.6 22.6L108.9 471 86.3 448.3 63.7 425.7 41 403.1l22.6-22.6zm316.8 22.6l22.6 22.6 22.6-22.6-22.6-22.6-22.6 22.6zm0 45.3l-22.6-22.6-22.6-22.6 22.6-22.6 22.6-22.6 22.6-22.6 22.6 22.6 22.6 22.6L471 403.1l-22.6 22.6-22.6 22.6L403.1 471l-22.6-22.6zM108.9 131.5l22.6-22.6L108.9 86.3 86.3 108.9l22.6 22.6zm0 45.3L86.3 154.2 63.7 131.5 41 108.9 63.7 86.3 86.3 63.7 108.9 41l22.6 22.6 22.6 22.6 22.6 22.6-22.6 22.6-22.6 22.6-22.6 22.6z"/></svg>