<svg xmlns="http://www.w3.org/2000/svg" viewBox="0 0 512 512"><!--! Font Awesome Pro 6.4.0 by @fontawesome - https://fontawesome.com License - https://fontawesome.com/license (Commercial License) Copyright 2023 Fonticons, Inc. --><path d="M416 33.4l11.3 11.3L494.6 112H496v1.4l3.3 3.3L510.6 128l-11.3 11.3-3.3 3.3V144h-1.4l-67.3 67.3L416 222.6 393.4 200l11.3-11.3L449.4 144H400 326.6l-112 112 112 112H400h49.4l-44.7-44.7L393.4 312 416 289.4l11.3 11.3L494.6 368H496v1.4l3.3 3.3L510.6 384l-11.3 11.3-3.3 3.3V400h-1.4l-67.3 67.3L416 478.6 393.4 456l11.3-11.3L449.4 400H400 320h-6.6l-4.7-4.7L185.4 272H48 32 16 0V240H16 32 48 185.4L308.7 116.7l4.7-4.7H320h80 49.4L404.7 67.3 393.4 56 416 33.4z"/></svg>