<svg xmlns="http://www.w3.org/2000/svg" viewBox="0 0 384 512"><!--! Font Awesome Pro 6.4.0 by @fontawesome - https://fontawesome.com License - https://fontawesome.com/license (Commercial License) Copyright 2023 Fonticons, Inc. --><path d="M0 0H32V83.8L128 110v33.2L11.8 111.4 0 108.2V96 0zM256 110l96-26.2V0h32V96v12.2l-11.8 3.2L256 143.1V110zM208 32V48 224h96 16v32H304 192 80 64V224H80h96V48 32h32zM144 320a16 16 0 1 1 0 32 16 16 0 1 1 0-32zM80 384a16 16 0 1 1 0 32 16 16 0 1 1 0-32zm144-48a16 16 0 1 1 32 0 16 16 0 1 1 -32 0zm-32 48a16 16 0 1 1 0 32 16 16 0 1 1 0-32zm-64 80a16 16 0 1 1 32 0 16 16 0 1 1 -32 0zm112-16a16 16 0 1 1 0 32 16 16 0 1 1 0-32zm112 16a16 16 0 1 1 32 0 16 16 0 1 1 -32 0zm-48-80a16 16 0 1 1 0 32 16 16 0 1 1 0-32zM0 464a16 16 0 1 1 32 0A16 16 0 1 1 0 464z"/></svg>