<svg xmlns="http://www.w3.org/2000/svg" viewBox="0 0 448 512"><!--! Font Awesome Pro 6.4.0 by @fontawesome - https://fontawesome.com License - https://fontawesome.com/license (Commercial License) Copyright 2023 Fonticons, Inc. --><path d="M32 64V448H416V64H32zM0 32H32 416h32V64 448v32H416 32 0V448 64 32zm264 80h8 18.4l-2.6 18.3L274.4 224H320h16v16 8 6.6l-4.7 4.7-136 136-4.7 4.7H184h-8H157.6l2.6-18.3L173.6 288H128 112V272v-8-6.6l4.7-4.7 136-136 4.7-4.7H264zM158.6 256H192h18.4l-2.6 18.3-10.5 73.8L289.4 256H256 237.6l2.6-18.3 10.5-73.8L158.6 256z"/></svg>