<svg xmlns="http://www.w3.org/2000/svg" viewBox="0 0 448 512"><!--! Font Awesome Pro 6.4.0 by @fontawesome - https://fontawesome.com License - https://fontawesome.com/license (Commercial License) Copyright 2023 Fonticons, Inc. --><path d="M416 64V448H32V64H416zm32-32H416 32 0V64 448v32H32 416h32V448 64 32zM249.2 122.1l-32 80-3.9 9.8 7.5 7.5L239.4 238c-9.1 13-20.4 24.3-33.4 33.4l-18.7-18.7-7.5-7.5-9.8 3.9-80 32L77.9 286l2.3 12.9 16 88L98.7 400H112h16c132.5 0 240-107.4 240-240l0-16 0-13.4-13.1-2.4-88-16L254 109.9l-4.9 12.1zM336 160c0 114.9-93.1 208-208 208h-2.6l-11.3-62 58.1-23.2 20.3 20.3 8.7 8.7 10.6-6.1c25.7-14.8 47.1-36.2 61.9-61.9l6.1-10.6-8.7-8.7-20.3-20.3L274 146.1l62 11.3 0 2.6z"/></svg>