<svg xmlns="http://www.w3.org/2000/svg" viewBox="0 0 448 512"><!--! Font Awesome Pro 6.4.0 by @fontawesome - https://fontawesome.com License - https://fontawesome.com/license (Commercial License) Copyright 2023 Fonticons, Inc. --><path d="M416 64L32 64l0 384 384 0 0-384zm32-32V64l0 384v32H416L32 480H0V448 64 32H32 416h32zM224 224l-96 0v64l96 0h32l0 32v18.7L338.7 256 256 173.3V192v32H224zm160 32l-22.6 22.6L256 384H224V352 320H192 128 96V288 224l0-32h32 64l32 0V160 128h32L361.4 233.4 384 256z"/></svg>