<svg xmlns="http://www.w3.org/2000/svg" viewBox="0 0 448 512"><!--! Font Awesome Pro 6.4.0 by @fontawesome - https://fontawesome.com License - https://fontawesome.com/license (Commercial License) Copyright 2023 Fonticons, Inc. --><path d="M32 448V64H416V448H32zM0 480H32 416h32V448 64 32H416 32 0V64 448v32zM128 368H288h6.6l4.7-4.7 16-16L326.6 336l-11.3-11.3L274.6 284l64.7-64.7L350.6 208l-11.3-11.3-56-56L272 129.4l-11.3 11.3L196 205.4l-40.7-40.7L144 153.4l-11.3 11.3-16 16-4.7 4.7V192 352v16h16zm16-169.4l40.7 40.7L196 250.6l11.3-11.3L272 174.6 305.4 208l-64.7 64.7L229.4 284l11.3 11.3L281.4 336H144V198.6z"/></svg>