<svg xmlns="http://www.w3.org/2000/svg" viewBox="0 0 448 512"><!--! Font Awesome Pro 6.4.0 by @fontawesome - https://fontawesome.com License - https://fontawesome.com/license (Commercial License) Copyright 2023 Fonticons, Inc. --><path d="M416 448V64H32V448H416zm32 32H416 32 0V448 64 32H32 416h32V64 448v32zM320 368H160h-6.6l-4.7-4.7-16-16L121.4 336l11.3-11.3L173.4 284l-64.7-64.7L97.4 208l11.3-11.3 56-56L176 129.4l11.3 11.3L252 205.4l40.7-40.7L304 153.4l11.3 11.3 16 16 4.7 4.7V192 352v16H320zM304 198.6l-40.7 40.7L252 250.6l-11.3-11.3L176 174.6 142.6 208l64.7 64.7L218.6 284l-11.3 11.3L166.6 336H304V198.6z"/></svg>