<svg xmlns="http://www.w3.org/2000/svg" viewBox="0 0 448 512"><!--! Font Awesome Pro 6.4.0 by @fontawesome - https://fontawesome.com License - https://fontawesome.com/license (Commercial License) Copyright 2023 Fonticons, Inc. --><path d="M416 64V448H32V64H416zm32-32H416 32 0V64 448v32H32 416h32V448 64 32zM320 144H160h-6.6l-4.7 4.7-16 16L121.4 176l11.3 11.3L173.4 228l-64.7 64.7L97.4 304l11.3 11.3 56 56L176 382.6l11.3-11.3L252 306.6l40.7 40.7L304 358.6l11.3-11.3 16-16 4.7-4.7V320 160 144H320zM304 313.4l-40.7-40.7L252 261.4l-11.3 11.3L176 337.4 142.6 304l64.7-64.7L218.6 228l-11.3-11.3L166.6 176H304V313.4z"/></svg>