<svg xmlns="http://www.w3.org/2000/svg" viewBox="0 0 448 512"><!--! Font Awesome Pro 6.4.0 by @fontawesome - https://fontawesome.com License - https://fontawesome.com/license (Commercial License) Copyright 2023 Fonticons, Inc. --><path d="M416 64V448H32V64H416zM32 32H0V64 448v32H32 416h32V448 64 32H416 32zm128 96H128v16 48H104 88v32h16 24 32 24 16V192H184 160V144 128zm0 128H128v16 96 16h32V368 272 256zM320 128H288v16V256H264 248v32h16 24 32 24 16V256H344 320V144 128zm0 192H288v16 32 16h32V368 336 320z"/></svg>