<svg xmlns="http://www.w3.org/2000/svg" viewBox="0 0 576 512"><!--! Font Awesome Pro 6.4.0 by @fontawesome - https://fontawesome.com License - https://fontawesome.com/license (Commercial License) Copyright 2023 Fonticons, Inc. --><path d="M16 32H128V64H32v96H0V48 32H16zM0 192H32V320H0V192zM0 352H32v96h96v32H16 0V464 352zM416 64H320V32H432h16V48 192c-10.9 0-21.6 1-32 2.9V64zM288 480H160V448H288v32zM160 64V32H288V64H160zM544 368a112 112 0 1 0 -224 0 112 112 0 1 0 224 0zm-256 0a144 144 0 1 1 288 0 144 144 0 1 1 -288 0zm160-64v48h48 16v32H496 448v48 16H416V432 384H368 352V352h16 48V304 288h32v16z"/></svg>