<svg xmlns="http://www.w3.org/2000/svg" viewBox="0 0 576 512"><!--! Font Awesome Pro 6.4.0 by @fontawesome - https://fontawesome.com License - https://fontawesome.com/license (Commercial License) Copyright 2023 Fonticons, Inc. --><path d="M32 64H416V170.8c9.9-4.7 20.7-8 32-9.6V64 32H416 32 0V64 448v32H32 320l0-32H32V64zm206.5 73.2l-4.3-9.2H213.8l-4.3 9.2L94 384h35.3l30-64H288.7l30 64H320l0-72.7L238.5 137.2zM224 181.7L273.8 288H174.2L224 181.7zM464 224c26.5 0 48 21.5 48 48v48H416V272c0-26.5 21.5-48 48-48zm-80 48v48H352v32V480v32h32H544h32V480 352 320H544V272c0-44.2-35.8-80-80-80s-80 35.8-80 80zm0 80H544V480H384V352z"/></svg>