<svg xmlns="http://www.w3.org/2000/svg" viewBox="0 0 448 512"><!--! Font Awesome Pro 6.4.0 by @fontawesome - https://fontawesome.com License - https://fontawesome.com/license (Commercial License) Copyright 2023 Fonticons, Inc. --><path d="M416 64V448H32V64H416zM32 32H0V64 448v32H32 416h32V448 64 32H416 32zM249.4 182.7l10.6 12L314.6 256 260 317.4l-10.6 12 23.9 21.3 10.6-12 64-72 9.4-10.6L348 245.4l-64-72-10.6-12-23.9 21.3zm-61.5 12l10.6-12-23.9-21.3-10.6 12-64 72L90.6 256l9.4 10.6 64 72 10.6 12 23.9-21.3-10.6-12L133.4 256 188 194.6z"/></svg>