<svg xmlns="http://www.w3.org/2000/svg" viewBox="0 0 512 512"><!--! Font Awesome Pro 6.4.0 by @fontawesome - https://fontawesome.com License - https://fontawesome.com/license (Commercial License) Copyright 2023 Fonticons, Inc. --><path d="M443.7 263.7l33.4-9.6 34.8-9.9V208 48 32 0H480 464 336 306.3L293.1 26.5l-16 32-7.2 14.3-14.3 28.6 28.6 14.3 28.6 14.3 28.6 14.3 14.3-28.6 7.2-14.3 2.7-5.5H384h32v32 43.8L226.8 225.8l-12 3.4-8.8 8.8L156.1 288H128 96v32 28.1L38.1 406.1 26.7 417.4 4.1 440l22.6 22.6 22.6 22.6L72 507.9l22.6-22.6 11.3-11.3L265.1 314.7l96-27.4 24.7 13.9L413.7 317l15.7-27.9 14.3-25.4zm-42.2 9.7l-24.7-13.9-11.7-6.6-12.9 3.7-96 27.4-8 2.3-5.9 5.9L83.3 451.3 72 462.6 49.4 440l11.3-11.3 57.9-57.9 9.4-9.4V348.1 320h28.1 13.3l9.4-9.4 49.9-49.9 2.9-2.9 4-1.1 189.2-54.1 23.2-6.6V171.8 96 64H416 365.7 345.9L337 81.7l-2.7 5.5-7.2 14.3L298.5 87.2l7.2-14.3 16-32 4.4-8.8H336 464h16V48 208v12.1l-11.6 3.3L435 232.9l-12.6 3.6L415.9 248l-14.3 25.4z"/></svg>