<svg xmlns="http://www.w3.org/2000/svg" viewBox="0 0 512 512"><!--! Font Awesome Pro 6.4.0 by @fontawesome - https://fontawesome.com License - https://fontawesome.com/license (Commercial License) Copyright 2023 Fonticons, Inc. --><path d="M304 138.3l-8 9.1v12.1V256v32h32 88c35.3 0 64 28.7 64 64v32H32V352c0-35.3 28.7-64 64-64h88 32V256 159.5 147.4l-8-9.1C198 127 192 112.3 192 96c0-35.3 28.7-64 64-64s64 28.7 64 64c0 16.3-6 31-16 42.3zM512 416V384 352c0-53-43-96-96-96H360 328V224 159.5c14.9-16.9 24-39.2 24-63.5c0-53-43-96-96-96s-96 43-96 96c0 24.3 9.1 46.6 24 63.5V224v32H152 96c-53 0-96 43-96 96v32 32H32 480h32zM64 456V440H32v16 40 16H48 464h16V496 456 440H448v16 24H64V456z"/></svg>