<svg xmlns="http://www.w3.org/2000/svg" viewBox="0 0 640 512"><!--! Font Awesome Pro 6.4.0 by @fontawesome - https://fontawesome.com License - https://fontawesome.com/license (Commercial License) Copyright 2023 Fonticons, Inc. --><path d="M448 352v32H64 32v32 32 32H64 608h32V448 416 384 336 304 240L255.6 47.8C234.8 37.4 211.9 32 188.6 32C131.9 32 80 64.1 54.6 114.8L14.7 194.7 0 224l31.8 8L72 242v94 16H88 448zm-64-32H104V250l280 70zm224 64H480V336 311L455.8 305 46.5 202.6l36.7-73.5C103.2 89.2 144 64 188.6 64c18.3 0 36.3 4.3 52.7 12.4L608 259.8V304v32 48zM480 416H608v32H64V416H448h32z"/></svg>