<svg xmlns="http://www.w3.org/2000/svg" viewBox="0 0 512 512"><!--! Font Awesome Pro 6.4.0 by @fontawesome - https://fontawesome.com License - https://fontawesome.com/license (Commercial License) Copyright 2023 Fonticons, Inc. --><path d="M476 352l20 32H458.3 336l-61.1 97.8L256 512l-18.9-30.2L176 384H53.7 16l20-32 60-96L36 160 16 128H53.7 176l61.1-97.8L256 0l18.9 30.2L336 128H458.3 496l-20 32-60 96 60 96zM397.1 225.8L438.3 160H356l41.1 65.8zM318.3 160H193.7l-60 96 60 96H318.3l60-96-60-96zm-20-32L256 60.4 213.7 128h84.5zM156 160H73.7l41.1 65.8L156 160zM114.9 286.2L73.7 352H156l-41.1-65.8zM356 352h82.3l-41.1-65.8L356 352zM213.7 384L256 451.6 298.3 384H213.7z"/></svg>