<svg xmlns="http://www.w3.org/2000/svg" viewBox="0 0 512 512"><!--! Font Awesome Pro 6.4.0 by @fontawesome - https://fontawesome.com License - https://fontawesome.com/license (Commercial License) Copyright 2023 Fonticons, Inc. --><path d="M352 0V16 80h64 16v32H416 352v64 16H320V176 112H256 240V80h16 64V16 0h32zM464 160v16 32h32 16v32H496 464v32 16H432V272 240H400 384V208h16 32V176 160h32zM211.3 180.2l41.9 85L347 278.8l39.9 5.8-28.9 28.1-67.9 66.2 16 93.4L313 512l-35.7-18.8-83.9-44.1-83.9 44.1L73.9 512l6.8-39.7 16-93.4L28.9 312.7 0 284.6l39.9-5.8 93.8-13.6 41.9-85L193.5 144l17.8 36.2zm37.3 116.7L232 294.4l-7.4-15.1-31.1-63-31.1 63-7.4 15.1-16.6 2.4L68.8 306.9l50.3 49 12 11.7-2.8 16.6-11.9 69.2 62.2-32.7 14.9-7.8 14.9 7.8 62.2 32.7-11.9-69.2-2.8-16.6 12-11.7 50.3-49-69.5-10.1z"/></svg>