<svg xmlns="http://www.w3.org/2000/svg" viewBox="0 0 576 512"><!--! Font Awesome Pro 6.4.0 by @fontawesome - https://fontawesome.com License - https://fontawesome.com/license (Commercial License) Copyright 2023 Fonticons, Inc. --><path d="M304.9 51.8l46.7 143.8H502.8h54.4l-44 32L390.9 316.4l46.7 143.8L454.4 512l-44-32L288.1 391.1 165.7 480l-44 32 16.8-51.8 46.7-143.8L62.9 227.6l-44-32H73.3 224.5L271.2 51.8 288.1 0l16.8 51.8zm46.7 175.8H328.3l-7.2-22.1L304 152.6V363.2l2.9 2.1 86.7 63L360.4 326.3l-7.2-22.1 18.8-13.7 86.7-63H351.6zM272 363.2V153l-17.1 52.5-7.2 22.1H224.5 117.4l86.7 63 18.8 13.7-7.2 22.1L182.6 428.2l86.7-63 2.8-2z"/></svg>