<svg xmlns="http://www.w3.org/2000/svg" viewBox="0 0 576 512"><!--! Font Awesome Pro 6.4.0 by @fontawesome - https://fontawesome.com License - https://fontawesome.com/license (Commercial License) Copyright 2023 Fonticons, Inc. --><path d="M351.6 195.6L304.9 51.8 288.1 0 271.2 51.8 224.5 195.6H73.3 18.9l44 32 122.3 88.9L138.5 460.2 121.7 512l44-32 122.3-88.9L410.4 480l44 32-16.8-51.8L390.9 316.4l122.3-88.9 44-32H502.8 351.6zm107.1 32l-86.7 63-18.8 13.7 7.2 22.1 33.1 101.9-86.7-63-18.8-13.7-18.8 13.7-86.7 63 33.1-101.9 7.2-22.1L204 290.5l-86.7-63H224.5h23.2l7.2-22.1 33.1-101.9 33.1 101.9 7.2 22.1h23.3H458.7z"/></svg>