<svg xmlns="http://www.w3.org/2000/svg" viewBox="0 0 576 512"><!--! Font Awesome Pro 6.4.0 by @fontawesome - https://fontawesome.com License - https://fontawesome.com/license (Commercial License) Copyright 2023 Fonticons, Inc. --><path d="M377.1 371.9L315.5 285c2.9-9.2 4.5-18.9 4.5-29c0-53-43-96-96-96s-96 43-96 96s43 96 96 96c.6 0 1.1 0 1.7 0l60.7 85.7C266.8 444.4 245.8 448 224 448C118 448 32 362 32 256S118 64 224 64c104.4 0 189.3 83.3 191.9 187c0 1.6 .1 3.3 .1 5c0 1.7 0 3.5-.1 5.2c-1.1 41.5-15.4 79.8-38.9 110.7zM405.4 400H397l-.6-.9c22.5-27.1 38.7-59.5 46.5-95.1h4.6H544v42.1L405.4 400zm74.6 5.3L576 368V304 272H544 479.5 447.4c.4-5.3 .6-10.6 .6-16c0-5.3-.2-10.6-.6-15.8l0-.2h32.1H544h32V208 144L347.6 55.2C308.2 39.9 266.3 32 224 32C100.3 32 0 132.3 0 256S100.3 480 224 480c28.7 0 57.1-3.6 84.8-10.7l13.5 19.1L339 512h29 56 56V405.3zM447.4 208h-4.6c-8.4-38.6-26.8-73.5-52.3-101.8L544 165.9V208H447.4zM80 272a16 16 0 1 0 0-32 16 16 0 1 0 0 32zm48-112a16 16 0 1 0 -32 0 16 16 0 1 0 32 0zM112 368a16 16 0 1 0 0-32 16 16 0 1 0 0 32zm48-112a64 64 0 1 1 128 0 64 64 0 1 1 -128 0zM348.2 469.6L262.3 344.1c15-6.5 28-16.8 37.9-29.6L380.7 432H424h24v48H424 368 355.3l-7.1-10.4z"/></svg>