<svg xmlns="http://www.w3.org/2000/svg" viewBox="0 0 320 512"><!--! Font Awesome Pro 6.4.0 by @fontawesome - https://fontawesome.com License - https://fontawesome.com/license (Commercial License) Copyright 2023 Fonticons, Inc. --><path d="M96 143.2C96 99.5 131.5 64 175.2 64c9.2 0 18.4 1.6 27.1 4.8L274.5 95l15 5.5 10.9-30.1-15-5.5L213.2 38.7c-12.2-4.4-25-6.7-38-6.7C113.8 32 64 81.8 64 143.2V256H0v32H64v36.2L1.7 448.8 0 452.2V456v8 16H16 304h16V448H304 37.9L94.3 335.2l1.7-3.4V328 288H256V256H96V143.2z"/></svg>