<svg xmlns="http://www.w3.org/2000/svg" viewBox="0 0 576 512"><!--! Font Awesome Pro 6.4.0 by @fontawesome - https://fontawesome.com License - https://fontawesome.com/license (Commercial License) Copyright 2023 Fonticons, Inc. --><path d="M132.6 33.4l-15 5.6L64 59.1V192c0 70.7 57.3 128 128 128s128-57.3 128-128V59.1L266.4 39l-15-5.6 11.2-30 15 5.6 64 24L352 36.9V48 192c0 83-63.1 151.2-144 159.2v.8c0 70.7 57.3 128 128 128s128-57.3 128-128V254c-27.6-7.1-48-32.2-48-62c0-35.3 28.7-64 64-64s64 28.7 64 64c0 29.8-20.4 54.9-48 62v98c0 88.4-71.6 160-160 160s-160-71.6-160-160v-.8C95.1 343.2 32 275 32 192V48 36.9L42.4 33l64-24 15-5.6 11.2 30zM480 224a32 32 0 1 0 0-64 32 32 0 1 0 0 64z"/></svg>