<svg xmlns="http://www.w3.org/2000/svg" viewBox="0 0 640 512"><!--! Font Awesome Pro 6.4.0 by @fontawesome - https://fontawesome.com License - https://fontawesome.com/license (Commercial License) Copyright 2023 Fonticons, Inc. --><path d="M541 512l-40.5-32H128V384H378.8l-40.5-32H128V256H96v96 32 96 32h32H512l29 0zM385.1 224c19.8 0 37.8-6.5 52.3-17.3c4.7-3.5 9-7.4 12.9-11.7c3.9 4.3 8.3 8.3 13 11.8c14.5 10.7 32.5 17.2 52.2 17.2c4.1 0 8.1-.3 12.1-.8c55.5-7.4 81.8-72.5 52.1-119.4L512 0H128l-9.8 15.1L143.4 35l2-3H494.7l58 89.1c18.5 29.6 .2 66.5-29.3 70.4c-2.6 .3-5.2 .5-7.9 .5c-16.5 0-31.2-7.2-41.5-18.5l-23.7-26.1-23.7 26.2c-10.2 11.2-24.8 18.4-41.4 18.4c-16.5 0-31.3-7.2-41.4-18.4l-23.7-26.3-14.3 15.8L382.7 224c.8 0 1.6 0 2.3 0zM512 256v70l32 25.3V256H512zM164.1 214.5l-29.6-23.4c-3.3 .6-6.7 .9-10.1 .9c-2.6 0-5.2-.2-7.9-.5c-20.7-2.8-35.9-22.1-36.6-43.5l-29-22.9c-12 43.2 14 91.7 61.3 98.1c4 .5 8.1 .8 12.1 .8c14.4 0 27.9-3.5 39.8-9.5zM40.4 18L27.8 8.1 8.1 33.4l12.6 9.8L599.8 494.3l12.6 9.8 19.7-25.2L619.5 469 40.4 18z"/></svg>