<svg xmlns="http://www.w3.org/2000/svg" viewBox="0 0 576 512"><!--! Font Awesome Pro 6.4.0 by @fontawesome - https://fontawesome.com License - https://fontawesome.com/license (Commercial License) Copyright 2023 Fonticons, Inc. --><path d="M288 1.4L276.7 12.7l-96 96L169.4 120 192 142.6l11.3-11.3L272 62.6V208v16h32V208 62.6l68.7 68.7L384 142.6 406.6 120l-11.3-11.3-96-96L288 1.4zm0 279.7l-77.3-41.6L182 224l-9.4 31.3-25.2 84.1L63.3 364.6 32 374l15.5 28.8L71.9 448h36.3L78.8 393.3 156.6 370l16.5-5 5-16.5 23.3-77.8 71.5 38.5 15.2 8.2 15.2-8.2 71.5-38.5L398 348.6l5 16.5 16.5 5 77.8 23.3L467.8 448h36.3l24.4-45.3L544 374l-31.3-9.4-84.1-25.2-25.2-84.1L394 224l-28.8 15.5L288 281.1zM412 448c-14.2-55.2-64.3-96-124-96s-109.8 40.8-124 96h33.4c13.2-37.3 48.7-64 90.5-64s77.4 26.7 90.5 64H412zM16 480H0v32H16 560h16V480H560 16z"/></svg>