<svg xmlns="http://www.w3.org/2000/svg" viewBox="0 0 576 512"><!--! Font Awesome Pro 6.4.0 by @fontawesome - https://fontawesome.com License - https://fontawesome.com/license (Commercial License) Copyright 2023 Fonticons, Inc. --><path d="M328 113.5s0 0 0 0c0-.2-.2-2-1.4-5.7c-1.3-3.9-3.4-8.7-6.3-14.3c-5.8-11.3-13.9-24-22.5-36.3c-3.3-4.7-6.6-9.3-9.8-13.5c-3.2 4.3-6.5 8.8-9.8 13.5c-8.6 12.3-16.7 25-22.5 36.3c-2.9 5.6-5 10.5-6.3 14.3c-1.3 3.8-1.4 5.5-1.4 5.7c0 0 0 0 0 0c0 17.7 15.9 35.5 40 35.5s40-17.8 40-35.5zm-112 0c0-24.2 30.3-68.1 51.6-96C279.1 2.4 288-8 288-8s8.9 10.4 20.4 25.5c21.3 27.9 51.6 71.8 51.6 96c0 37.3-32.2 67.5-72 67.5s-72-30.2-72-67.5zM32 128H193.3c1.9 11.5 5.9 22.3 11.5 32H32l0 320 352 0 0-144V320h16H544V160H371.2c5.6-9.7 9.6-20.5 11.5-32H544h32v32V368L432 512H32 0V480 160 128H32zM418.7 480L544 354.7V352H416l0 128h2.7zM96 200a24 24 0 1 1 0 48 24 24 0 1 1 0-48z"/></svg>