<svg xmlns="http://www.w3.org/2000/svg" viewBox="0 0 512 512"><!--! Font Awesome Pro 6.4.0 by @fontawesome - https://fontawesome.com License - https://fontawesome.com/license (Commercial License) Copyright 2023 Fonticons, Inc. --><path d="M176 0H160V16 64H112 100.1L96.7 75.4 52.1 224H32 0v32V416v16 16 64H32V448H480v64h32V448 432 416 256 224H480 459.9L415.3 75.4 411.9 64H400 352V16 0H336 176zM320 64H192V32H320V64zm68.1 32l38.4 128H85.5L123.9 96H388.1zM32 256H480V416H32V256zm96 72a24 24 0 1 0 -48 0 24 24 0 1 0 48 0zm280 24a24 24 0 1 0 0-48 24 24 0 1 0 0 48z"/></svg>