<svg xmlns="http://www.w3.org/2000/svg" viewBox="0 0 576 512"><!--! Font Awesome Pro 6.4.0 by @fontawesome - https://fontawesome.com License - https://fontawesome.com/license (Commercial License) Copyright 2023 Fonticons, Inc. --><path d="M32 64H544V224H512V192c0-35.3-28.7-64-64-64c-14 0-27 4.5-37.6 12.2C399.5 114.2 373.9 96 344 96c-22.6 0-42.8 10.4-56 26.7C274.8 106.4 254.6 96 232 96c-29.9 0-55.5 18.2-66.4 44.2C155 132.5 142 128 128 128c-35.3 0-64 28.7-64 64v32H32V64zM416 224V192c0-17.7 14.3-32 32-32s32 14.3 32 32v32H416zm-112 0V168c0-22.1 17.9-40 40-40s40 17.9 40 40v24 32H304zm-72-96c22.1 0 40 17.9 40 40v56H192V192 168c0-22.1 17.9-40 40-40zM176 256H288 400h96 48 32V224 64 32H544 32 0V64 224v32H32 80h96zm-16-64v32H96V192c0-17.7 14.3-32 32-32s32 14.3 32 32zM544 320V448H32V320H64v32c0 35.3 28.7 64 64 64c16.8 0 32-6.5 43.5-17c12.8 19.9 35.1 33 60.5 33c22.6 0 42.8-10.4 56-26.7c13.2 16.3 33.4 26.7 56 26.7c25.4 0 47.7-13.2 60.5-33c11.4 10.6 26.7 17 43.5 17c35.3 0 64-28.7 64-64V320h32zM272 360c0 22.1-17.9 40-40 40s-40-17.9-40-40v-8V320h80v40zm16-72H176 80 32 0v32V448v32H32 544h32V448 320 288H544 496 400 288zm128 32h64v32c0 17.7-14.3 32-32 32s-32-14.3-32-32V320zm-32 32v8c0 22.1-17.9 40-40 40s-40-17.9-40-40V320h80v32zm-224 0c0 17.7-14.3 32-32 32s-32-14.3-32-32V320h64v32z"/></svg>