<svg xmlns="http://www.w3.org/2000/svg" viewBox="0 0 576 512"><!--! Font Awesome Pro 6.4.0 by @fontawesome - https://fontawesome.com License - https://fontawesome.com/license (Commercial License) Copyright 2023 Fonticons, Inc. --><path d="M357.3 284.5L368 275V260.7 32H496V260.7 275l10.7 9.5c23 20.6 37.3 50.3 37.3 83.5c0 61.9-50.1 112-112 112s-112-50.1-112-112c0-33.2 14.4-62.9 37.3-83.5zM528 0H496 368 336V32 260.7c-29.5 26.4-48 64.7-48 107.3c0 79.5 64.5 144 144 144s144-64.5 144-144c0-42.6-18.5-81-48-107.3V32 0zM400 368a32 32 0 1 1 64 0 32 32 0 1 1 -64 0zm96 0c0-29.8-20.4-54.9-48-62V272 256H416v16 34c-27.6 7.1-48 32.2-48 62c0 35.3 28.7 64 64 64s64-28.7 64-64zM284.6 142.8l7.6-28.3 4.1-15.5-30.9-8.3-4.1 15.5-15.9 59.2L192 196.3V134.6l43.3-43.3L246.6 80 224 57.4 212.7 68.7 192 89.4V48 32H160V48 89.4L139.3 68.7 128 57.4 105.4 80l11.3 11.3L160 134.6v61.7l-53.4-30.8L90.7 106.3 86.6 90.8 55.7 99.1l4.1 15.5 7.6 28.3L31.6 122.1l-13.9-8-16 27.7 13.9 8 35.8 20.7-28.3 7.6L7.7 182.3 16 213.2 31.4 209l59.2-15.9L144 224 90.6 254.8 31.4 239 16 234.8 7.7 265.7l15.5 4.1 28.3 7.6L15.6 298.1l-13.9 8 16 27.7 13.9-8 35.8-20.7-7.6 28.3-4.1 15.5 30.9 8.3 4.1-15.5 15.9-59.2L160 251.7v61.7l-43.3 43.3L105.4 368 128 390.6l11.3-11.3L160 358.6V400v16h32V400 358.6l20.7 20.7L224 390.6 246.6 368l-11.3-11.3L192 313.4V251.7l53.4 30.8 13.8 51.7c6.5-33.3 22.4-63.3 44.8-87v-3.8l-42.6 11.4L208 224l53.4-30.8L304 204.6V171.5l-3.4-.9 3.4-2v-37l-19.4 11.2z"/></svg>