<svg xmlns="http://www.w3.org/2000/svg" viewBox="0 0 320 512"><!--! Font Awesome Pro 6.4.0 by @fontawesome - https://fontawesome.com License - https://fontawesome.com/license (Commercial License) Copyright 2023 Fonticons, Inc. --><path d="M96 275l-10.7 9.5C62.4 305.1 48 334.9 48 368c0 61.9 50.1 112 112 112s112-50.1 112-112c0-33.2-14.4-62.9-37.3-83.5L224 275V260.7 32H96V260.7 275zM224 0h32V32 260.7c29.5 26.4 48 64.7 48 107.3c0 79.5-64.5 144-144 144S16 447.6 16 368c0-42.6 18.5-81 48-107.3V32 0H96 224zM160 400a32 32 0 1 0 0-64 32 32 0 1 0 0 64zm0 32c-35.3 0-64-28.7-64-64c0-29.8 20.4-54.9 48-62V272 256h32v16 34c27.6 7.1 48 32.2 48 62c0 35.3-28.7 64-64 64z"/></svg>