<svg xmlns="http://www.w3.org/2000/svg" viewBox="0 0 640 512"><!--! Font Awesome Pro 6.4.0 by @fontawesome - https://fontawesome.com License - https://fontawesome.com/license (Commercial License) Copyright 2023 Fonticons, Inc. --><path d="M254.6 129.1l-21.5-23.7-11.8 10.8L160 171.8 160 16V0H128V16l0 155.8L66.8 116.2 54.9 105.4 33.4 129.1l11.8 10.8 88 80 10.8 9.8 10.8-9.8 88-80 11.8-10.8zM0 480v32H16 624h16V480H624 16 0zM192 256L164.6 448h32.3l24.8-173.3L368 177.1V287.7c0 .2 0 .4 0 .6V448h32V345.8L461.3 448h37.3l-4.9-8.2L400 283.6V177.1l146.3 97.6L571.1 448h32.3L576 256 384 128 192 256z"/></svg>