<svg xmlns="http://www.w3.org/2000/svg" viewBox="0 0 576 512"><!--! Font Awesome Pro 6.4.0 by @fontawesome - https://fontawesome.com License - https://fontawesome.com/license (Commercial License) Copyright 2023 Fonticons, Inc. --><path d="M214.6 129.2l-21.4-23.8-11.9 10.7-53.3 48L128 16V0H96V16l0 148.1-53.3-48L30.8 105.4 9.4 129.2l11.9 10.7 80 72 10.7 9.6 10.7-9.6 80-72 11.9-10.7zM64 512H96.3 479.7 512l-4.6-32L480 288 288 160 96 288 68.6 480 64 512zm240-32V377.8L365.3 480H304zm-32 0H100.9l24.8-173.3L272 209.1V319.7c0 .2 0 .4 0 .6V480zm32-270.9l146.3 97.6L475.1 480H402.7l-4.9-8.2L304 315.6V209.1zm250.7-69.2l11.9-10.7-21.4-23.8-11.9 10.7-53.3 48V16 0H448V16 164.1l-53.3-48-11.9-10.7-21.4 23.8 11.9 10.7 80 72 10.7 9.6 10.7-9.6 80-72z"/></svg>