<svg xmlns="http://www.w3.org/2000/svg" viewBox="0 0 512 512"><!--! Font Awesome Pro 6.4.0 by @fontawesome - https://fontawesome.com License - https://fontawesome.com/license (Commercial License) Copyright 2023 Fonticons, Inc. --><path d="M352.8 53.8c14-14 32.9-21.8 52.7-21.8c41.1 0 74.5 33.4 74.5 74.5c0 19.8-7.8 38.7-21.8 52.7L233.4 384H128V278.6l32-32 36.7 36.7L208 294.6 230.6 272l-11.3-11.3L182.6 224 224 182.6l36.7 36.7L272 230.6 294.6 208l-11.3-11.3L246.6 160 288 118.6l36.7 36.7L336 166.6 358.6 144l-11.3-11.3L310.6 96l42.2-42.2zM96 272V393.4L12.7 476.7 1.4 488 24 510.6l11.3-11.3L118.6 416H240h6.6l4.7-4.7L480.8 181.8c20-20 31.2-47.1 31.2-75.3C512 47.7 464.3 0 405.5 0c-28.2 0-55.3 11.2-75.3 31.2L288 73.4 265.4 96 224 137.4 201.4 160 160 201.4 137.4 224l-36.7 36.7L96 265.4V272z"/></svg>