<svg xmlns="http://www.w3.org/2000/svg" viewBox="0 0 512 512"><!--! Font Awesome Pro 6.4.0 by @fontawesome - https://fontawesome.com License - https://fontawesome.com/license (Commercial License) Copyright 2023 Fonticons, Inc. --><path d="M224 32h16 96 16V48 98.4c0 21.1-3 41.8-8.6 61.6H448h48 16v16 96 16H496v56 16H480h-8v48 16H456h-8v40 16H432 384 272 257.5h-4.8l-4-2.7-12.1-8.1-76.5-51V379.8l94.2 62.8 8.1 5.4H272 384h32V408 392h16 8V344 328h16 8V272 256h16V192H448 321 297.3l8.8-22c9-22.5 13.9-46.7 13.9-71.7V64H256V98.4c0 42.8-21.4 82.8-57 106.5l-24.8 16.5-6.5 4.4-1.4 .9-1.6 .6-4.7 1.9V192.4l21.3-14.2C208 160.5 224 130.5 224 98.4V48 32zM32 224V448H96V224H32zM0 192H32 96h32v32V448v32H96 32 0V448 224 192z"/></svg>