<svg xmlns="http://www.w3.org/2000/svg" viewBox="0 0 512 512"><!--! Font Awesome Pro 6.4.0 by @fontawesome - https://fontawesome.com License - https://fontawesome.com/license (Commercial License) Copyright 2023 Fonticons, Inc. --><path d="M224 480h16 96 16V464 413.6c0-21.1-3-41.8-8.6-61.6H448h48 16V336 240 224H496V168 152H480h-8V104 88H456h-8V48 32H432 384 272 257.5h-4.8l-4 2.7-12.1 8.1L160 93.8v38.5l94.2-62.8 8.1-5.4H272 384h32v40 16h16 8v48 16h16 8v56 16h16v64H448 321 297.3l8.8 22c9 22.5 13.9 46.7 13.9 71.7V448H256V413.6c0-42.8-21.4-82.8-57-106.5l-24.8-16.5-6.5-4.4-1.4-.9-1.6-.6-4.7-1.9v36.8l21.3 14.2C208 351.6 224 381.5 224 413.6V464v16zM32 352V128H96V352H32zM0 384H32 96h32V352 128 96H96 32 0v32V352v32z"/></svg>