<svg xmlns="http://www.w3.org/2000/svg" viewBox="0 0 640 512"><!--! Font Awesome Pro 6.4.0 by @fontawesome - https://fontawesome.com License - https://fontawesome.com/license (Commercial License) Copyright 2023 Fonticons, Inc. --><path d="M128 64V352H608V272.5c-23.7-11.8-40-36.2-40-64.5s16.3-52.7 40-64.5V64H128zM640 168c-22.1 0-40 17.9-40 40s17.9 40 40 40v32 72 32H608 128 96V352 64 32h32H608h32V64v72 32zM480 112a16 16 0 1 1 32 0 16 16 0 1 1 -32 0zm0 64a16 16 0 1 1 32 0 16 16 0 1 1 -32 0zm16 48a16 16 0 1 1 0 32 16 16 0 1 1 0-32zm-16 80a16 16 0 1 1 32 0 16 16 0 1 1 -32 0zM32 96v16V448H528h16v32H528 16 0V464 112 96H32zm224 0h56 9.2l4.6 7.9L358.5 160h32.4c20.3 0 39.8 8.1 54.1 22.4c14.1 14.1 14.1 37 0 51.2c-14.4 14.4-33.8 22.4-54.1 22.4H358.5l-32.7 56.1-4.6 7.9H312 256 233.8l7-21.1L255.1 256H248l-19.2 25.6L224 288h-8H176 155.5l5-19.9 15-60.1-15-60.1-5-19.9H176h40 8l4.8 6.4L248 160h7.1l-14.3-42.9-7-21.1H256zm36.5 74.9l7 21.1H277.3 240h-8l-4.8-6.4L208 160H196.5l11 44.1 1 3.9-1 3.9-11 44.1H208l19.2-25.6L232 224h8 37.3 22.2l-7 21.1L278.2 288h24.6l32.7-56.1 4.6-7.9h9.2 41.6c11.8 0 23.1-4.7 31.5-13c1.6-1.6 1.6-4.3 0-5.9c-8.4-8.4-19.7-13-31.5-13H349.3h-9.2l-4.6-7.9L302.8 128H278.2l14.3 42.9z"/></svg>