<svg xmlns="http://www.w3.org/2000/svg" viewBox="0 0 640 512"><!--! Font Awesome Pro 6.4.0 by @fontawesome - https://fontawesome.com License - https://fontawesome.com/license (Commercial License) Copyright 2023 Fonticons, Inc. --><path d="M112 48v64h64V48H112zM80 16h32 64 32V48v64 32H176 160V256H480V144H464 432V112 48 16h32 64 32V48v64 32H528 512V256H624h16v32H624 352v80h16 32v32 64 32H368 304 272V464 400 368h32 16V288H16 0V256H16 128V144H112 80V112 48 16zM352 400H320 304v64h64V400H352zM528 48H464v64h64V48z"/></svg>