<svg xmlns="http://www.w3.org/2000/svg" viewBox="0 0 640 512"><!--! Font Awesome Pro 6.4.0 by @fontawesome - https://fontawesome.com License - https://fontawesome.com/license (Commercial License) Copyright 2023 Fonticons, Inc. --><path d="M541 512l-40.5-32H224V416H192v80 16h16H541zM508.7 323.4l25.1 19.8c3.7-4.9 7.1-10.2 10.2-15.7v23.7l32 25.3V192c0-50.8-11.2-97.5-30.1-132.1C527.4 25.9 499.1 0 464 0H176c-19.3 0-36.5 7.8-51.1 20.4l25.8 20.4c8.5-6 17.1-8.8 25.3-8.8H401.3c-7.2 8.2-13.6 17.7-19.2 27.9C363.2 94.5 352 141.2 352 192c0 2.6 0 5.2 .1 7.8l33.9 26.7c-1.3-11.1-1.9-22.6-1.9-34.5c0-46.5 10.3-87.7 26.2-116.8C426.4 45.5 446.1 32 464 32s37.6 13.5 53.8 43.2C533.7 104.3 544 145.5 544 192s-10.3 87.7-26.2 116.8c-2.9 5.4-6 10.3-9.2 14.6zM64 192c0 50.8 11.2 97.5 30.1 132.1c18.6 34 46.8 59.9 81.9 59.9H378.8l-40.5-32H176c-17.9 0-37.6-13.5-53.8-43.2C106.3 279.7 96 238.5 96 192c0-10.3 .5-20.4 1.5-30.1L68.2 138.8c-2.8 17-4.2 34.8-4.2 53.2zm400 48c-6.4 0-11.9-11.3-14.5-27.6c-1-6.2-1.5-13.1-1.5-20.4s.5-14.2 1.5-20.4c2.6-16.3 8.1-27.6 14.5-27.6s11.9 11.3 14.5 27.6c1 6.2 1.5 13.1 1.5 20.4s-.5 14.2-1.5 20.4c-2.6 16.3-8.1 27.6-14.5 27.6zm0 32c16.2 0 26.6-9.9 31.4-16c5.1-6.4 8.2-13.8 10.3-20c4.2-12.7 6.3-28.3 6.3-44.1s-2.1-31.3-6.3-44.1c-2.1-6.2-5.2-13.5-10.3-20c-4.8-6.1-15.1-16-31.4-16s-26.6 9.9-31.4 16c-5.1 6.4-8.2 13.8-10.3 20c-4.2 12.7-6.3 28.3-6.3 44.1s2.1 31.3 6.3 44.1c2.1 6.2 5.2 13.5 10.3 20c4.8 6.1 15.1 16 31.4 16zM32.4 10L19.9 .1 .1 25.3l12.6 9.9L607.8 502.2l12.6 9.9 19.8-25.2-12.6-9.9L32.4 10z"/></svg>