<svg xmlns="http://www.w3.org/2000/svg" viewBox="0 0 512 512"><!--! Font Awesome Pro 6.4.0 by @fontawesome - https://fontawesome.com License - https://fontawesome.com/license (Commercial License) Copyright 2023 Fonticons, Inc. --><path d="M128 32h16H368h16V48v80h48l80 80V448v32H480 32 0V448 208l80-80h48V48 32zM352 64H160v64H352V64zM93.3 160L32 221.3V304H160V272 256h32v16 32H320V272 256h32v16 32H480V221.3L418.7 160H384 352 160 128 93.3zM32 336V448H480V336H352v32 16H320V368 336H192v32 16H160V368 336H32z"/></svg>