<svg xmlns="http://www.w3.org/2000/svg" viewBox="0 0 448 512"><!--! Font Awesome Pro 6.4.0 by @fontawesome - https://fontawesome.com License - https://fontawesome.com/license (Commercial License) Copyright 2023 Fonticons, Inc. --><path d="M160 0h16 48 48 16V32H272 240V64h64 16V80v48H424h20.7l-5.2 20L394.6 320H400h16v32H400 352V496v16H320V496 352l-192 0V496v16H96V496 352H48 32l0-32H48h5.4L8.5 148 3.3 128H24 128V80 64h16 64V32H176 160V0zM128 160H44.7L86.4 320H128V176h0V160zm32 160H288V176h0V160H160V320zM320 160V320l41.6 0 41.7-160H320zm-32-32V96H240 208 160v32H288z"/></svg>