<svg xmlns="http://www.w3.org/2000/svg" viewBox="0 0 512 512"><!--! Font Awesome Pro 6.4.0 by @fontawesome - https://fontawesome.com License - https://fontawesome.com/license (Commercial License) Copyright 2023 Fonticons, Inc. --><path d="M256 6.1l7.2 3.6 176 88 14.3 7.2-14.3 28.6-14.3-7.2-8.8-4.4V224v16H400 360.2l39.6 237.4c.1 .9 .2 1.8 .2 2.6h96 16v32H496 16 0V480H16h96c0-.9 .1-1.7 .2-2.6L151.8 240H112 96V224 121.9l-8.8 4.4-14.3 7.2L58.5 104.8l14.3-7.2 176-88L256 6.1zm0 35.8l-128 64V128H384V105.9l-128-64zM128 160v48H384V160H128zM359.4 480L256 391.4 152.6 480H359.4zM183.8 242.6l-6.5 39.1L256 349.2l78.7-67.5-6.5-39.1c-.1-.9-.2-1.8-.2-2.6H184c0 .9-.1 1.7-.2 2.6zm-12.7 76L151 439.2l80.4-68.9-60.3-51.7zm109.5 51.7L361 439.2 340.9 318.6l-60.3 51.7z"/></svg>