<svg xmlns="http://www.w3.org/2000/svg" viewBox="0 0 640 512"><!--! Font Awesome Pro 6.4.0 by @fontawesome - https://fontawesome.com License - https://fontawesome.com/license (Commercial License) Copyright 2023 Fonticons, Inc. --><path d="M112 0H96V16 144.5l-5.8 5.8L22.3 218.2 12.1 228.4l9.2 11.2 11.9 14.6-18.8 1.9L0 257.5V272v96 14.5l14.4 1.4 18.7 1.9L21.2 400.4l-9.2 11.2 10.2 10.2 67.9 67.9 10.2 10.2 11.2-9.2 14.6-11.9 1.9 18.7 1.4 14.4H144h96 14.5l1.4-14.4 1.9-18.8 14.6 11.9 11.2 9.2 10.2-10.2 67.9-67.9 10.2-10.2-9.2-11.2-11.9-14.6 18.7-1.9 14.4-1.4V368 352H544h5.6l4.4-3.5 80-64 6-4.8V272 176 160H624v16l0-16h0 0 0 0 0 0 0 0 0 0 0 0-.1-.1-.1-.1-.1-.1-.1-.1-.1H623h-.1-.1-.1-.1-.1-.1-.1-.1-.1H622h-.1-.1-.1-.1-.1-.1-.1H621h-.1-.2-.2-.2-.2H620h-.2-.2-.2-.2-.2H619h-.2-.2-.2-.2H618h-.2-.2-.2-.2-.2-.2-.2-.2H616h-.2-.2-.2-.2-.2-.2-.3H614h-.3-.3-.3H613h-.3-.3-.3-.3-.3-.3H611h-.3-.3-.3-.3-.3-.3-.3-.3-.3-.3-.3-.3-.3-.3-.3-.3-.3-.3-.4-.4-.4-.4-.4-.4-.4-.4H602h-.4-.4-.4-.4-.4-.4-.4-.4-.4-.4-.4-.4-.4-.4H596h-.4-.4-.4-.4-.4-.4H593h-.4-.4-.4-.4-.4-.5-.5-.5H589h-.5-.5-.5-.5-.5-.5-.5-.5-.5-.5-.5-.5-.5-.5-.5-.5-.5-.5-.5-.5-.5-.5-.5-.5-.5-.5-.5H575h-.5H574h-.5-.5-.5-.6-.5-.6-.6-.6H569h-.6-.6-.6-.6-.6-.6H565h-.6-.6-.6-.6-.6-.6-.6-.6-.6-.6-.6-.6-.6-.6-.6-.6-.6-.6-.6H553h-.6-.6-.6-.6-.6-.6-.6H548h-.6-.6H546h-.6-.6-.7-.7-.7-.7-.7-.7-.7-.7-.7-.7-.7-.7-.7-.7-.7H534h-.7-.7H532h-.7-.7-.7-.7-.7-.7-.7-.7-.7H525h-.7-.7-.7-.7-.7-.7-.7-.7-.7-.7H517h-.7-.7-.7-.7-.7-.7H512V86.6l27.3-27.3L550.6 48 528 25.4 516.7 36.7l-32 32L480 73.4V80v80h-.1-.8-.8-.8-.8-.8H475h-.8-.8-.8-.8-.8-.8-.8-.8-.8-.8-.8-.8-.8-.8-.8-.8-.8H460h-.8-.8-.8-.9-.9-.9-.9-.9-.9-.9-.9-.9-.9H448h-.9-.9-.9-.9-.9-.9H442h-.9-.9-.9-.9-.9-.9-.9H435h-.9-.9-.9-.9-.9-.9-.9-.9H427h-.9-.9-.9-.9-.9-.9-.9-.9-.9H418h-.9-.9-.9-.9-.9-.9-.9-.9-.9-.9H408h-.9-.9-.9-.9-.9-.9-.9-.9-.9-.9-.9H397h-.9-.9-.9-.9-.9-.9-.9-.9-.9-.9-.9-.9H385 384h-.9-.9-.9-.9-.9-.9-.1L310.6 9.4 306.3 0H296 112zM384 320V272 257.5l-14.4-1.4-18.8-1.9 11.9-14.6 9.2-11.2-10.2-10.2L335.5 192h.1 1 1 1 1 1 1 1 1 1 1 1 1 1 1 1 1 1 1 1 1 1 1 1 1 1 .9 1 .9 1 .9 .9 .9 .9 .5c.2 0 .5 0 .7 0h.6 .9 .9 .9 .9 .9 .9 .9 .9 .9 .9 .9 .9 .9 .9 .9 .9 .9 .9 .9 .9 .9 .9 .9 .9 .9 .9 .9 .9 .9 .9 .9 .9 .9 .9 .9 .9 .9 .9 .9 .9 .9 .9 .9 .9 .9 .9 .9 .9 .9 .9 .9 .9 .9 .9 .9 .9 .9 .9 .9 .9 .9 .9 .9 .9 .9 .9 .9 .9 .9 .9 .9 .9 .9 .9 .9 .9 .9 .9 .9 .9 .9 .9 .9 .9 .9 .9 .9 .9 .9 .9 .9 .9 .9 .9 .9 .9 .9 .9 .8 .8 .8 .8 .8 .8 .8 .8 .8 .8 .8 .8 .8 .8 .8 .8 .8 .8 .8 .8 .8 .8 .8 .8 .8 .8 .8 .8 .8 .8 .8 .8 .8 .8 .8 .8 .8 .8 .8 .8 .8 .8 .8 .8 .8 .8 .8 .8 .8 .8 .8 .8 .8 .8 .8 .8 .8 .8 .8 .8 .8 .8 .8 .8 .8 .7 .7 .7 .7 .7 .7 .7 .7 .7 .7 .7 .7 .7 .7 .7 .7 .7 .7 .7 .7 .7 .7 .7 .7 .7 .7 .7 .7 .7 .7 .7 .7 .7 .7 .7 .7 .7 .7 .7 .7 .7 .7 .7 .7 .7 .7 .7 .7 .7 .7 .6 .6 .6 .6 .6 .6 .6 .6 .6 .6 .6 .6 .6 .6 .6 .6 .6 .6 .6 .6 .6 .6 .6 .6 .6 .6 .6 .6 .6 .6 .6 .6 .6 .6 .6 .6 .6 .6 .6 .6 .6 .6 .6 .6 .5 .6 .5 .5 .5 .5 .5 .5 .5 .5 .5 .5 .5 .5 .5 .5 .5 .5 .5 .5 .5 .5 .5 .5 .5 .5 .5 .5 .5 .5 .5 .5 .5 .5 .5 .5 .5 .5 .5 .4 .4 .4 .4 .4 .4 .4 .4 .4 .4 .4 .4 .4 .4 .4 .4 .4 .4 .4 .4 .4 .4 .4 .4 .4 .4 .4 .4 .4 .4 .4 .4 .4 .4 .4 .4 .3 .3 .3 .3 .3 .3 .3 .3 .1v72.3L538.4 320H384zM303.5 160l-9.7-9.7-10.2-10.2-11.2 9.2-14.6 11.9-1.9-18.7L254.5 128H240 144 129.5l-1.4 14.4-.1 .8V32H285.7l57.6 128h-.9-1-1-1-1-1-1-1-1-1-1-1-1-1-1-1-1-1-1-1-1-1-1-1-1-1-1-1-1-1-1-1-1-1-1-1-1-1-1-1-1-.2zM512 416a32 32 0 1 1 0 64 32 32 0 1 1 0-64zm0 96a64 64 0 1 0 0-128 64 64 0 1 0 0 128zM155.7 187.3l2.7-27.3h67l2.7 27.3 1 9.8 9.1 3.6c1.8 .7 3.5 1.4 5.2 2.2l9 4 7.6-6.2 21.3-17.4 47.4 47.4-17.4 21.3-6.2 7.6 4 9c.8 1.7 1.5 3.5 2.2 5.2l3.6 9.1 9.8 1 27.3 2.7v67l-27.3 2.7-9.8 1-3.6 9.1c-.7 1.8-1.4 3.5-2.2 5.2l-4 9 6.2 7.6 17.4 21.3-47.4 47.4-21.3-17.4-7.6-6.2-9 4c-1.7 .8-3.5 1.5-5.2 2.2l-9.1 3.6-1 9.8L225.5 480h-67l-2.7-27.3-1-9.8-9.1-3.6c-1.8-.7-3.5-1.4-5.2-2.2l-9-4-7.6 6.2-21.3 17.4L55.2 409.4l17.4-21.3 6.2-7.6-4-9c-.8-1.7-1.5-3.5-2.2-5.2l-3.6-9.1-9.8-1L32 353.5v-67l27.3-2.7 9.8-1 3.6-9.1c.7-1.8 1.4-3.5 2.2-5.2l4-9-6.2-7.6L55.2 230.6l47.4-47.4 21.3 17.4 7.6 6.2 9-4c1.7-.8 3.5-1.5 5.2-2.2l9.1-3.6 1-9.8zM246.4 320a54.4 54.4 0 1 1 -108.8 0 54.4 54.4 0 1 1 108.8 0zM192 233.6a86.4 86.4 0 1 0 0 172.8 86.4 86.4 0 1 0 0-172.8z"/></svg>