<svg xmlns="http://www.w3.org/2000/svg" viewBox="0 0 576 512"><!--! Font Awesome Pro 6.4.0 by @fontawesome - https://fontawesome.com License - https://fontawesome.com/license (Commercial License) Copyright 2023 Fonticons, Inc. --><path d="M395.4 32H361.5l22.2 64H192.3l22.2-64H180.6L158.5 96H112 96v32h16 35.4l-33.2 96H72 56v32H72h31.1L69.8 352H32 16v32H32 58.8L25.5 480H59.4l33.2-96H483.4l33.2 96h33.9l-33.2-96H544h16V352H544 506.2l-33.2-96H504h16V224H504 461.9l-33.2-96H464h16V96H464 417.5L395.4 32zm-.6 96L428 224H148l33.2-96H394.8zm44.3 128l33.2 96H103.7l33.2-96H439.1z"/></svg>