<svg xmlns="http://www.w3.org/2000/svg" viewBox="0 0 448 512"><!--! Font Awesome Pro 6.4.0 by @fontawesome - https://fontawesome.com License - https://fontawesome.com/license (Commercial License) Copyright 2023 Fonticons, Inc. --><path d="M32 32H208l0 192H32V32zM240 224l0-192H416V224H240zM32 256H416V416H342.6 336 112h-6.6H32V256zM374.6 448H416h32V416 32 0H416 32 0V32 416v32H32 73.4L20.7 500.7 9.4 512H54.6l64-64H329.4l64 64h45.3l-11.3-11.3L374.6 448zM120 352a24 24 0 1 0 0-48 24 24 0 1 0 0 48zm232-24a24 24 0 1 0 -48 0 24 24 0 1 0 48 0z"/></svg>