<svg xmlns="http://www.w3.org/2000/svg" viewBox="0 0 448 512"><!--! Font Awesome Pro 6.4.0 by @fontawesome - https://fontawesome.com License - https://fontawesome.com/license (Commercial License) Copyright 2023 Fonticons, Inc. --><path d="M48.3 0H56 392h7.7l4.8 6 32 40 10 12.5-25 20L411.5 66 384.3 32H240V96H352h32v32V416v32H352h-9.4l52.7 52.7L406.6 512H361.4l-64-64H150.6l-64 64H41.4l0 0 11.3-11.3L105.4 448H96 64V416 128 96H96 208V32H63.7L36.5 66l-10 12.5-25-20L11.5 46l32-40 4.8-6zM208 128H96V256H352V128H240 208zM96 416H352V288H96V416zm72-96a24 24 0 1 1 0 48 24 24 0 1 1 0-48zm88 24a24 24 0 1 1 48 0 24 24 0 1 1 -48 0z"/></svg>