<svg xmlns="http://www.w3.org/2000/svg" viewBox="0 0 512 512"><!--! Font Awesome Pro 6.4.0 by @fontawesome - https://fontawesome.com License - https://fontawesome.com/license (Commercial License) Copyright 2023 Fonticons, Inc. --><path d="M256 32a24 24 0 1 1 0 48 24 24 0 1 1 0-48zm0 80A56 56 0 1 0 256 0a56 56 0 1 0 0 112zM96 448v16 32 16h32V496 480H384v16 16h32V496 464 448H400 384 128 112 96zm96-255v95h32V176h64V288h32V193l67.3 88.7 9.7 12.7 25.5-19.3-9.7-12.7-84.9-112L323 144h-7.9H196.9 189l-4.8 6.3-84.9 112-9.7 12.7 25.5 19.3 9.7-12.7L192 193zm288-49V128H448v16 16H432 416v32h16 16v16 16h32V208 192h16 16V160H496 480V144zM64 336V320H32v16 16H16 0v32H16 32v16 16H64V400 384H80 96V352H80 64V336zm112-16H160v32h16H336h16V320H336 176zm0 64H160v32h16H336h16V384H336 176z"/></svg>