<svg xmlns="http://www.w3.org/2000/svg" viewBox="0 0 512 512"><!--! Font Awesome Pro 6.4.0 by @fontawesome - https://fontawesome.com License - https://fontawesome.com/license (Commercial License) Copyright 2023 Fonticons, Inc. --><path d="M480 16V0H448V16 32H432 416V64h16 16V80 96h32V80 64h16 16V32H496 480V16zM64 112V96H32v16 16H16 0v32H16 32v16 16H64V176 160H80 96V128H80 64V112zM256 32a24 24 0 1 1 0 48 24 24 0 1 1 0-48zm0 80A56 56 0 1 0 256 0a56 56 0 1 0 0 112zM416 448H400 112 96v16 32 16h32V496 480H384v16 16h32V496 464 448zM160 128v32h16H336h16V128H336 176 160zm-32 64v32h16H368h16V192H368 144 128zM96 256v32h16H400h16V256H400 112 96zm64 64v32h16H336h16V320H336 176 160zm0 64v32h16H336h16V384H336 176 160z"/></svg>