<svg xmlns="http://www.w3.org/2000/svg" viewBox="0 0 512 512"><!--! Font Awesome Pro 6.4.0 by @fontawesome - https://fontawesome.com License - https://fontawesome.com/license (Commercial License) Copyright 2023 Fonticons, Inc. --><path d="M160 0H144 32 16V16 128v16H48V128 54.6L89.4 96l-4.7 4.7L73.4 112 96 134.6l11.3-11.3 4.7-4.7 13.2 13.2C106.8 157.9 96 189.7 96 224c0 83 63.1 151.2 144 159.2V416H208 192v32h16 32v48 16h32V496 448h32 16V416H304 272V383.2c80.9-8 144-76.2 144-159.2c0-34.3-10.8-66.1-29.2-92.2L464 54.6V128v16h32V128 16 0H480 368 352V32h16 73.4l-75.6 75.6C337.1 80.6 298.5 64 256 64s-81.1 16.6-109.8 43.6L134.6 96l4.7-4.7L150.6 80 128 57.4 116.7 68.7 112 73.4 70.6 32H144h16V0zm96 96a128 128 0 1 1 0 256 128 128 0 1 1 0-256z"/></svg>