<svg xmlns="http://www.w3.org/2000/svg" viewBox="0 0 448 512"><!--! Font Awesome Pro 6.4.0 by @fontawesome - https://fontawesome.com License - https://fontawesome.com/license (Commercial License) Copyright 2023 Fonticons, Inc. --><path d="M160 0h-8.9l-4.7 7.5L111.1 64H64.1 32 0V96H34.3L64 512H384L413.7 96H448V64H416 383.9 336.9L301.6 7.5 296.9 0H288 160zM299.1 64H148.9l20-32H279.1l20 32zM93.8 480L66.4 96H381.6L354.2 480H93.8zM224 169.4l-11.3 11.3-80 80L121.4 272 144 294.6l11.3-11.3L208 230.6V408h32V230.6l52.7 52.7L304 294.6 326.6 272l-11.3-11.3-80-80L224 169.4z"/></svg>