<svg xmlns="http://www.w3.org/2000/svg" viewBox="0 0 448 512"><!--! Font Awesome Pro 6.4.0 by @fontawesome - https://fontawesome.com License - https://fontawesome.com/license (Commercial License) Copyright 2023 Fonticons, Inc. --><path d="M160 0h-8.9l-4.7 7.5L111.1 64H64 32 0V96H32V480v32H64 384h32V480 96h32V64H416 384 336.9L301.6 7.5 296.9 0H288 160zM299.1 64H148.9l20-32H279.1l20 32zM64 480V96H384V480H64zM230.6 201.2l-21.4-23.8-11.9 10.7-80 72L104.1 272l13.2 11.9 80 72 11.9 10.7 21.4-23.8-11.9-10.7-49-44.1H240c26.5 0 48 21.5 48 48v40 16h32V376 336c0-44.2-35.8-80-80-80H169.7l49-44.1 11.9-10.7z"/></svg>