<svg xmlns="http://www.w3.org/2000/svg" viewBox="0 0 448 512"><!--! Font Awesome Pro 6.4.0 by @fontawesome - https://fontawesome.com License - https://fontawesome.com/license (Commercial License) Copyright 2023 Fonticons, Inc. --><path d="M160 0h-8.9l-4.7 7.5L111.1 64H64 32 0V96H32V480v32H64 384h32V480 96h32V64H416 384 336.9L301.6 7.5 296.9 0H288 160zM299.1 64H148.9l20-32H279.1l20 32zM64 480V96H384V480H64zM331.3 235.3L342.6 224 320 201.4l-11.3 11.3L192 329.4l-52.7-52.7L128 265.4 105.4 288l11.3 11.3 64 64L192 374.6l11.3-11.3 128-128z"/></svg>