<svg xmlns="http://www.w3.org/2000/svg" viewBox="0 0 640 512"><!--! Font Awesome Pro 6.4.0 by @fontawesome - https://fontawesome.com License - https://fontawesome.com/license (Commercial License) Copyright 2023 Fonticons, Inc. --><path d="M512 326V96h32V64H512 480 432.9L397.6 7.5 392.9 0H384 256h-8.9l-4.7 7.5L207.1 64h-27l40.5 32H480V300.8L512 326zm0 163.1L500.4 480H480 448 160V211.2L128 186V480v32h32H480h32V489.1zm-304-240V400v16h32V400 274.4l-32-25.3zm96 75.8V400v16h32V400 350.2l-32-25.3zm128-62V176 160H400v16 61.6l32 25.3zM244.9 64l20-32H375.1l20 32H244.9zM32.4 10L19.9 .1 .1 25.3l12.6 9.9L607.8 502.2l12.6 9.9 19.8-25.2-12.6-9.9L32.4 10z"/></svg>