<svg xmlns="http://www.w3.org/2000/svg" viewBox="0 0 448 512"><!--! Font Awesome Pro 6.4.0 by @fontawesome - https://fontawesome.com License - https://fontawesome.com/license (Commercial License) Copyright 2023 Fonticons, Inc. --><path d="M392 224h-8.7H360 344l22.9 32L424 336v32H407.3 392 368l22.9 32L448 480v32H416 32 0V480l57.1-80L80 368H56 40.7 24V336l57.1-80L104 224H88 64.7 56V192L202.7 24.3 224 0l21.3 24.3L392 192v32zM224 48.6L98.5 192H104h62.2L130 242.6 63.3 336H80h62.2L106 386.6 39.3 480H408.7L342 386.6 305.8 336H368h16.7L318 242.6 281.8 192H344h5.5L224 48.6zM184 264a24 24 0 1 1 0 48 24 24 0 1 1 0-48zm32-104a24 24 0 1 1 48 0 24 24 0 1 1 -48 0zm72 232a24 24 0 1 1 0 48 24 24 0 1 1 0-48z"/></svg>