<svg xmlns="http://www.w3.org/2000/svg" viewBox="0 0 576 512"><!--! Font Awesome Pro 6.4.0 by @fontawesome - https://fontawesome.com License - https://fontawesome.com/license (Commercial License) Copyright 2023 Fonticons, Inc. --><path d="M115.7 128H33.9C43.1 87.8 85.7 32 176 32c65 0 105.2 28.9 126 59.9l7.9 11.8 12.6-6.5C342.8 86.8 368.4 80 400 80c90.3 0 132.9 55.8 142.1 96H464V144 128H432v16 32H255.3h-6.6l-4.7 4.7L107.9 316.8C88 285.1 78.5 225 124.4 166.5c1-1.3 2-2.5 3.1-3.8c3.9-4.8 8.3-9.5 13-14.3c18-18 36.4-30.1 54.1-37.8L181.9 81.3c-21.7 9.4-43.4 23.8-64.1 44.5c-.7 .7-1.4 1.4-2.2 2.2zM432 208h32 96 16V192c0-56.8-55.2-144-176-144c-30.6 0-57.1 5.6-79.6 15C292.2 28.1 244.6 0 176 0C55.2 0 0 87.2 0 144v16H16 89.6c-51 76.6-29.3 157.2 5.6 192.1l11.3 11.3 11.3-11.3L242.8 227.2c1.5 9.7 2.7 20.6 3.3 32.8c2.6 53.5-5.7 130.2-37.3 231.3L202.2 512H224 360h14.1l1.8-14c8.3-66.2 2-140.1-12.2-207.3c-6.1-28.9-13.8-56.9-22.6-82.7H432zm-124.8 0c9.8 27.1 18.4 57.4 25.2 89.3c12.7 59.9 18.6 124.4 13.3 182.7H245.5c27.3-93.8 35-167.5 32.4-221.6c-.9-19.2-3.1-36-6.3-50.4h35.5z"/></svg>