<svg xmlns="http://www.w3.org/2000/svg" viewBox="0 0 448 512"><!--! Font Awesome Pro 6.4.0 by @fontawesome - https://fontawesome.com License - https://fontawesome.com/license (Commercial License) Copyright 2023 Fonticons, Inc. --><path d="M235.1 10.8L224 .3 212.9 10.8 68.9 148.4 64 153.2V160v16 16H80h29.2L35.9 277.6 32 282.1V288v16 16H48 77.2L3.9 405.6 0 410.1V416v16 16H16 144h16 48v48 16h32V496 448h48 16H432h16V432 416v-5.9l-3.9-4.5L370.8 320H400h16V304 288v-5.9l-3.9-4.5L338.8 192H368h16V176 160v-6.8l-4.9-4.7L235.1 10.8zM240 416V208 192H208v16V416H160 144 37.1l87.1-101.6L146.8 288H112 69.1l87.1-101.6L178.8 160H144 103.2L224 44.5 344.8 160H304 269.2l22.6 26.4L378.9 288H336 301.2l22.6 26.4L410.9 416H304 288 240z"/></svg>