<svg xmlns="http://www.w3.org/2000/svg" viewBox="0 0 576 512"><!--! Font Awesome Pro 6.4.0 by @fontawesome - https://fontawesome.com License - https://fontawesome.com/license (Commercial License) Copyright 2023 Fonticons, Inc. --><path d="M304 16V0H272V16 58.7l-2.7 4.4L19.2 480 0 512H37.3 538.7 576l-19.2-32L421.5 254.4l-23.3 23.3L519.5 480H56.5L288 94.2l76.2 127-43.7 43.7c-9.5-5.6-20.6-8.9-32.5-8.9c-35.3 0-64 28.7-64 64s28.7 64 64 64s64-28.7 64-64c0-11.9-3.2-23-8.9-32.5l38-38 23.3-23.3L539.3 91.3 550.6 80 528 57.4 516.7 68.7 387.5 197.9 306.7 63.1 304 58.7V16zm16 304a32 32 0 1 1 -64 0 32 32 0 1 1 64 0z"/></svg>