<svg xmlns="http://www.w3.org/2000/svg" viewBox="0 0 640 512"><!--! Font Awesome Pro 6.4.0 by @fontawesome - https://fontawesome.com License - https://fontawesome.com/license (Commercial License) Copyright 2023 Fonticons, Inc. --><path d="M384 32V384H250.5c-13.2-37.3-48.7-64-90.5-64s-77.4 26.7-90.5 64H32V32H384zM32 416H64c0 53 43 96 96 96s96-43 96-96H384c0 53 43 96 96 96s96-43 96-96h32 16 16V384H624 608V224v-5.9l-3.9-4.5-96-112L503.4 96H496 416V32 0H384 32 0V32 384v32H32zM416 128h72.6l82.3 96H416V128zm0 216.4V256H576V384h-5.5c-13.2-37.3-48.7-64-90.5-64c-24.6 0-47 9.2-64 24.4zM160 352a64 64 0 1 1 0 128 64 64 0 1 1 0-128zm256 64a64 64 0 1 1 128 0 64 64 0 1 1 -128 0zM256 211c0 23.7-20.3 45-48 45s-48-21.3-48-45c0-2.9 2.1-11.8 9.4-27.2c6.7-14.1 15.9-29.9 25.6-45.1c4.4-6.9 8.8-13.6 13-19.7c4.2 6.2 8.6 12.8 13 19.7c9.7 15.2 18.9 31 25.6 45.1c7.3 15.4 9.4 24.3 9.4 27.2zm-128 0c0 42.5 35.8 77 80 77s80-34.5 80-77c0-28.8-36.6-85.9-60.3-119.8C216.4 74.9 208 64 208 64s-8.4 10.9-19.7 27.1C164.6 125.1 128 182.2 128 211z"/></svg>