<svg xmlns="http://www.w3.org/2000/svg" viewBox="0 0 640 512"><!--! Font Awesome Pro 6.4.0 by @fontawesome - https://fontawesome.com License - https://fontawesome.com/license (Commercial License) Copyright 2023 Fonticons, Inc. --><path d="M32 64V304v32c13.4-10 30-16 48-16c26.2 0 49.4 12.6 64 32c14.6-19.4 37.8-32 64-32c32.8 0 61 19.7 73.3 48H448V256 224 64H32zM480 336c13.4-10 30-16 48-16c32.8 0 61 19.7 73.3 48H608V304 256H480v80zm0-112H602.5l-57.6-64H480v64zm160-6.1V224v32 48 64 32H608c0 44.2-35.8 80-80 80s-80-35.8-80-80H288c0 44.2-35.8 80-80 80c-26.2 0-49.4-12.6-64-32c-14.6 19.4-37.8 32-64 32c-44.2 0-80-35.8-80-80V368 304 64 32H32 448h32V64v64h72 7.1l4.8 5.3 72 80 4.1 4.6zM528 448a48 48 0 1 0 0-96 48 48 0 1 0 0 96zM256 400a48 48 0 1 0 -96 0 48 48 0 1 0 96 0zM80 448a48 48 0 1 0 0-96 48 48 0 1 0 0 96z"/></svg>