<svg xmlns="http://www.w3.org/2000/svg" viewBox="0 0 640 512"><!--! Font Awesome Pro 6.4.0 by @fontawesome - https://fontawesome.com License - https://fontawesome.com/license (Commercial License) Copyright 2023 Fonticons, Inc. --><path d="M32 32V384H69.5c13.2-37.3 48.7-64 90.5-64s77.4 26.7 90.5 64H384V32H32zM64 416H32 0V384 32 0H32 384h32V32 96h80 7.4l4.8 5.6 96 112 3.9 4.5V224 384h16 16v32H624 608 576c0 53-43 96-96 96s-96-43-96-96H256c0 53-43 96-96 96s-96-43-96-96zM416 224H570.9l-82.3-96H416v96zm0 32v88.4c17-15.2 39.4-24.4 64-24.4c41.8 0 77.4 26.7 90.5 64H576V256H416zM224 416A64 64 0 1 0 96 416a64 64 0 1 0 128 0zm256 64a64 64 0 1 0 0-128 64 64 0 1 0 0 128z"/></svg>