<svg xmlns="http://www.w3.org/2000/svg" viewBox="0 0 640 512"><!--! Font Awesome Pro 6.4.0 by @fontawesome - https://fontawesome.com License - https://fontawesome.com/license (Commercial License) Copyright 2023 Fonticons, Inc. --><path d="M64 32V16 0H80 96h3.8H160L384 252V112 96h16H512h7.8l4.8 6.2 112 144 3.4 4.3V256 400v16H624 576c0 53-43 96-96 96s-96-43-96-96H256c0 53-43 96-96 96s-96-43-96-96H16 0V400 272 256H16 192L96 64V176c0 26.5-21.5 48-48 48s-48-21.5-48-48V160 144H32v16 16c0 8.8 7.2 16 16 16s16-7.2 16-16V32zM250.5 384H389.5c13.2-37.3 48.7-64 90.5-64s77.4 26.7 90.5 64H608V288H416 384 373.2 208 32v96H69.5c13.2-37.3 48.7-64 90.5-64s77.4 26.7 90.5 64zM416 416a64 64 0 1 0 128 0 64 64 0 1 0 -128 0zm0-288V256H603.7L504.2 128H416zM115.8 32l112 224h117L145.6 32H115.8zM224 416A64 64 0 1 0 96 416a64 64 0 1 0 128 0z"/></svg>