<svg xmlns="http://www.w3.org/2000/svg" viewBox="0 0 512 512"><!--! Font Awesome Pro 6.4.0 by @fontawesome - https://fontawesome.com License - https://fontawesome.com/license (Commercial License) Copyright 2023 Fonticons, Inc. --><path d="M322 237.2V164.8c-42.3-17.2-89.7-17.2-132 0v72.4L32 256-8 152.6C22.8 112.4 118.7 32 256 32s233.2 80.4 264 120.6L480 256 322 237.2zM158 164.8V143.2l20-8.1c50-20.3 106-20.3 156.1 0l20 8.1v21.5 44l105.1 12.5L483.2 159C447.9 121.9 366.8 64 256 64S64.1 121.9 28.8 159l24.1 62.3L158 208.8v-44zM56 291.2h64 12.8V304v64 12.8H120 56 43.2V368 304 291.2H56zm12.8 64h38.4V316.8H68.8v38.4zM56 403.2h64 12.8V416v64 12.8H120 56 43.2V480 416 403.2H56zm12.8 64h38.4V428.8H68.8v38.4zm323.2-64h64 12.8V416v64 12.8H456 392 379.2V480 416 403.2H392zm12.8 64h38.4V428.8H404.8v38.4zm-249.6-64H168 344h12.8V416v64 12.8H344 168 155.2V480 416 403.2zm25.6 25.6v38.4H331.2V428.8H180.8zM155.2 291.2H168h64 12.8V304v64 12.8H232 168 155.2V368 304 291.2zm25.6 25.6v38.4h38.4V316.8H180.8zM280 291.2h64 12.8V304v64 12.8H344 280 267.2V368 304 291.2H280zm12.8 64h38.4V316.8H292.8v38.4zm86.4-64H392h64 12.8V304v64 12.8H456 392 379.2V368 304 291.2zm25.6 25.6v38.4h38.4V316.8H404.8z"/></svg>