<svg xmlns="http://www.w3.org/2000/svg" viewBox="0 0 384 512"><!--! Font Awesome Pro 6.4.0 by @fontawesome - https://fontawesome.com License - https://fontawesome.com/license (Commercial License) Copyright 2023 Fonticons, Inc. --><path d="M16 32H0V64H16 176V211.5l-115.9 29-15.5 3.9 7.8 31 15.5-3.9 108.1-27v63l-115.9 29-15.5 3.9 7.8 31 15.5-3.9 108.1-27V456v16h32V456 332.5l115.9-29 15.5-3.9-7.8-31-15.5 3.9L208 299.5v-63l115.9-29 15.5-3.9-7.8-31-15.5 3.9L208 203.5V64H368h16V32H368 192 16z"/></svg>