<svg xmlns="http://www.w3.org/2000/svg" viewBox="0 0 512 512"><!--! Font Awesome Pro 6.4.0 by @fontawesome - https://fontawesome.com License - https://fontawesome.com/license (Commercial License) Copyright 2023 Fonticons, Inc. --><path d="M163.9 12L151.7 1.6 130.9 25.8l12.1 10.4L212.7 96H32 0v32V480v32H32 480h32V480 128 96H480 299.3l69.7-59.7 12.2-10.4L360.3 1.6 348.1 12 256 90.9 163.9 12zM256 128H480V480H32V128H256zm96 64V416H96V192H352zM96 160H64v32V416v32H96 352h32V416 192 160H352 96zm336 72a24 24 0 1 0 0-48 24 24 0 1 0 0 48zm24 40a24 24 0 1 0 -48 0 24 24 0 1 0 48 0z"/></svg>