<svg xmlns="http://www.w3.org/2000/svg" viewBox="0 0 512 512"><!--! Font Awesome Pro 6.4.0 by @fontawesome - https://fontawesome.com License - https://fontawesome.com/license (Commercial License) Copyright 2023 Fonticons, Inc. --><path d="M256 32a224 224 0 1 1 0 448 224 224 0 1 1 0-448zm0 480A256 256 0 1 0 256 0a256 256 0 1 0 0 512zM240 144a16 16 0 1 1 32 0 16 16 0 1 1 -32 0zm64 0a48 48 0 1 0 -96 0 48 48 0 1 0 96 0zM135.9 186.9l-13 29.2 14.6 6.5L208 254v64.5l-15.7 78.4-3.1 15.7 31.4 6.3 3.1-15.7L237.1 336h37.8l13.4 67.1 3.1 15.7 31.4-6.3-3.1-15.7L304 318.4V254l70.5-31.3 14.6-6.5-13-29.2-14.6 6.5L292.6 224H272 240 219.4l-68.9-30.6-14.6-6.5zM240 256h32v48H240V256z"/></svg>