<svg xmlns="http://www.w3.org/2000/svg" viewBox="0 0 512 512"><!--! Font Awesome Pro 6.4.0 by @fontawesome - https://fontawesome.com License - https://fontawesome.com/license (Commercial License) Copyright 2023 Fonticons, Inc. --><path d="M160 128V96l73.4-73.4L256 0l22.6 22.6L352 96v32H320l-48 0V240H384V192 160h32l73.4 73.4L512 256l-22.6 22.6L416 352H384V320 272H272V384h48 32v32l-73.4 73.4L256 512l-22.6-22.6L160 416V384h32 48V272H128v48 32H96L22.6 278.6 0 256l22.6-22.6L96 160h32v32 48H240V128H192 160zM306.7 96L256 45.3 205.3 96l101.5 0zM45.3 256L96 306.7V205.3L45.3 256zM306.7 416H205.3L256 466.7 306.7 416zm160-160L416 205.3V306.7L466.7 256z"/></svg>