<svg xmlns="http://www.w3.org/2000/svg" viewBox="0 0 448 512"><!--! Font Awesome Pro 6.4.0 by @fontawesome - https://fontawesome.com License - https://fontawesome.com/license (Commercial License) Copyright 2023 Fonticons, Inc. --><path d="M56 40V88H8V40H56zm96 0V88H104V40h48zm48 0h48V88H200V40zm144 0V88H296V40h48zm48 0h48V88H392V40zM272 336V304h32 48V286.3L224 171.1 96 286.3V304h48 32v32V448h96V336zm112 0H352 336 304v32 80 32H272 176 144V448 368 336H112 96 64V304 272L224 128 384 272v32 32z"/></svg>