<svg xmlns="http://www.w3.org/2000/svg" viewBox="0 0 512 512"><!--! Font Awesome Pro 6.4.0 by @fontawesome - https://fontawesome.com License - https://fontawesome.com/license (Commercial License) Copyright 2023 Fonticons, Inc. --><path d="M272 368v16H240V368 62.6L139.3 163.3 128 174.6 105.4 152l11.3-11.3 128-128L256 1.4l11.3 11.3 128 128L406.6 152 384 174.6l-11.3-11.3L272 62.6V368zm-64-16H32V480H480V352H304V320H480h32v32V480v32H480 32 0V480 352 320H32 208v32zm176 64a24 24 0 1 1 48 0 24 24 0 1 1 -48 0z"/></svg>