<svg xmlns="http://www.w3.org/2000/svg" viewBox="0 0 640 512"><!--! Font Awesome Pro 6.4.0 by @fontawesome - https://fontawesome.com License - https://fontawesome.com/license (Commercial License) Copyright 2023 Fonticons, Inc. --><path d="M0 0V16 128v16H32V128 32h96 16V0H128 16 0zM640 0H624 512 496V32h16 96v96 16h32V128 16 0zM16 512H128h16V480H128 32V384 368H0v16V496v16H16zm624 0V496 384 368H608v16 96H512 496v32h16H624h16zM159.8 176a16 16 0 1 1 32 0 16 16 0 1 1 -32 0zm64 0a48 48 0 1 0 -96 0 48 48 0 1 0 96 0zM288 192a32 32 0 1 1 64 0 32 32 0 1 1 -64 0zm96 0a64 64 0 1 0 -128 0 64 64 0 1 0 128 0zm80.2-32a16 16 0 1 1 0 32 16 16 0 1 1 0-32zm0 64a48 48 0 1 0 0-96 48 48 0 1 0 0 96zM129.4 336l14.4-48h46.5l3.4-10.1 7.3-21.9H120L96 336h33.4zm366.8-48l14.4 48H544l-24-80H439.1l7.3 21.9 3.4 10.1h46.5zM224 288l-21.3 64L192 384h33.7H414.3 448l-10.7-32L416 288H224zm23.1 32H392.9l10.7 32H236.4l10.7-32z"/></svg>