<svg xmlns="http://www.w3.org/2000/svg" viewBox="0 0 448 512"><!--! Font Awesome Pro 6.4.0 by @fontawesome - https://fontawesome.com License - https://fontawesome.com/license (Commercial License) Copyright 2023 Fonticons, Inc. --><path d="M368 176A144 144 0 1 0 80 176a144 144 0 1 0 288 0zM48 176a176 176 0 1 1 352 0A176 176 0 1 1 48 176zM32 112V240H0V112H32zm416 0V240H416V112h32zM48 304H60c9.2 11.7 19.6 22.5 31 32H73.5L40.2 480H96V416 400h16H336h16v16 64h55.8L374.5 336H356.9c11.5-9.5 21.9-20.3 31-32h12l40.6 176 7.4 32H415.2 336 288 256 192 160 112 32.8 0l7.4-32L48 304zM320 432H128v48h32V464 448h32v16 16h64V464 448h32v16 16h32V432zM240 256c44.2 0 80-35.8 80-80V157.3L290.7 128H157.3L128 157.3V176c0 44.2 35.8 80 80 80h32zM96 144l48-48H304l48 48v32c0 61.9-50.1 112-112 112H208c-61.9 0-112-50.1-112-112V144zm96 0l13.3 26.7L232 184l-26.7 13.3L192 224l-13.3-26.7L152 184l26.7-13.3L192 144z"/></svg>