<svg xmlns="http://www.w3.org/2000/svg" viewBox="0 0 448 512"><!--! Font Awesome Pro 6.4.0 by @fontawesome - https://fontawesome.com License - https://fontawesome.com/license (Commercial License) Copyright 2023 Fonticons, Inc. --><path d="M318.7 112H272h-3.8l-3.4-1.7-20.1-10-16 21.3L224 128h-8l-88 0v16c0 53 43 96 96 96s96-43 96-96V128c0-5.5-.5-10.8-1.3-16zm14.9 98.2C311.2 247.2 270.5 272 224 272s-87.2-24.8-109.6-61.8L64 248v8h64 16v32H128 48 32V272 240v-8l6.4-4.8L96 184V144 128C96 57.3 153.3 0 224 0s128 57.3 128 128v16 40l57.6 43.2L416 232v8 32 16H400 320 304V256h16 64v-8l-50.4-37.8zM307.2 80C290.6 51.3 259.5 32 224 32c-41.8 0-77.4 26.7-90.5 64H208l19.2-25.6 8-10.7 11.9 6L275.8 80h31.4zM43.3 480H404.7L360.4 336H320v34.3c23.1 6.9 40 28.3 40 53.7v24 16H344 328 312V432h16v-8c0-13.3-10.7-24-24-24s-24 10.7-24 24v8h16v32H280 264 248V448 424c0-25.4 16.9-46.8 40-53.7V336H176v34.7c18.6 6.6 32 24.4 32 45.3c0 26.5-21.5 48-48 48s-48-21.5-48-48c0-20.9 13.4-38.7 32-45.3V336H87.6L43.3 480zM144 416a16 16 0 1 0 32 0 16 16 0 1 0 -32 0zM64 304H384l54.2 176 9.8 32H414.5 33.5 0l9.8-32L64 304z"/></svg>