<svg xmlns="http://www.w3.org/2000/svg" viewBox="0 0 448 512"><!--! Font Awesome Pro 6.4.0 by @fontawesome - https://fontawesome.com License - https://fontawesome.com/license (Commercial License) Copyright 2023 Fonticons, Inc. --><path d="M320 144c0 53-43 96-96 96s-96-43-96-96V128v0h88 8l4.8-6.4 16-21.3 20.1 10 3.4 1.7H272h46.7c.9 5.2 1.3 10.5 1.3 16v16zM224 32c35.5 0 66.6 19.3 83.2 48H275.8L247.2 65.7l-11.9-6-8 10.7L208 96H133.5c13.2-37.3 48.7-64 90.5-64zm0-32C153.3 0 96 57.3 96 128v16c0 70.7 57.3 128 128 128s128-57.3 128-128V128C352 57.3 294.7 0 224 0zM192 304H176v32h16 9.8l-19.9 59.8L144 320H64L10.7 480 0 512H33.7 204.2h39.6H414.3 448l-10.7-32L384 320H304l-37.9 75.8L246.2 336H256h16V304H256 224 192zm14.1 140.2l-4-8L224 370.6l21.9 65.6-4 8L224 480l0 0 0 0-17.9-35.8zM259.8 480l64-128h37.2l42.7 128H259.8zm-71.6 0H44.4L87.1 352h37.2l64 128z"/></svg>