<svg xmlns="http://www.w3.org/2000/svg" viewBox="0 0 448 512"><!--! Font Awesome Pro 6.4.0 by @fontawesome - https://fontawesome.com License - https://fontawesome.com/license (Commercial License) Copyright 2023 Fonticons, Inc. --><path d="M320 144V128c0-5.5-.5-10.8-1.3-16H272h-3.8l-3.4-1.7-20.1-10-16 21.3L224 128h-8l-88 0v16c0 53 43 96 96 96s96-43 96-96zM224 32c-41.8 0-77.4 26.7-90.5 64H208l19.2-25.6 8-10.7 11.9 6L275.8 80h31.4C290.6 51.3 259.5 32 224 32zm0-32c70.7 0 128 57.3 128 128v16c0 70.7-57.3 128-128 128s-128-57.3-128-128V128C96 57.3 153.3 0 224 0zM44.4 480H403.6L360.9 352H87.1L44.4 480zM64 320H384l53.3 160L448 512H414.3 33.7 0l10.7-32L64 320z"/></svg>