<svg xmlns="http://www.w3.org/2000/svg" viewBox="0 0 448 512"><!--! Font Awesome Pro 6.4.0 by @fontawesome - https://fontawesome.com License - https://fontawesome.com/license (Commercial License) Copyright 2023 Fonticons, Inc. --><path d="M60.5 80L224 33.3 387.5 80 224 126.7 60.5 80zM224 160L448 96V64L224 0 0 64V96l32 9.1V174L8.5 268.1 3.5 288H24 80h22.2l-7-21.1L64 173.4V114.3L224 160zM200.7 445.9L224 470.7l23.3-24.8L335.7 352h25.2l42.7 128H44.4L87.1 352h25.2l88.4 93.9zM384 320H321.9L246 400.7 224 424l-22-23.3L126.1 320H64L10.7 480 0 512H33.7 414.3 448l-10.7-32L384 320zM50.2 233.2L57.8 256H44.5l5.7-22.8zM96 156.7V176c0 70.7 57.3 128 128 128s128-57.3 128-128V156.7l-32 9.1V176c0 53-43 96-96 96s-96-43-96-96V165.9l-32-9.1z"/></svg>