<svg xmlns="http://www.w3.org/2000/svg" viewBox="0 0 448 512"><!--! Font Awesome Pro 6.4.0 by @fontawesome - https://fontawesome.com License - https://fontawesome.com/license (Commercial License) Copyright 2023 Fonticons, Inc. --><path d="M368 99.2V144c-16 10.7-67.2 32-144 32s-128-21.3-144-32V99.2L48 80V48L224 0 400 48V80L368 99.2zm-32 25.3V99.2 81.1l15.5-9.3 4.4-2.6L224 33.2 92.1 69.1l4.4 2.6L112 81.1V99.2v25.3c13.6 5.6 35.5 12.5 64.7 16.4c-12.9-19.7-16.7-42-16.7-57.7V72.4l10.1-4 48-19.2 5.9-2.4 5.9 2.4 48 19.2 10.1 4V83.2c0 15.7-3.8 38.1-16.7 57.7c29.2-3.9 51.1-10.8 64.7-16.4zM96.2 184.1c10.4 4 21 7.6 31.8 10.7c1.5 51.7 43.9 93.2 96 93.2s94.5-41.5 96-93.2c10.8-3.1 21.4-6.6 31.8-10.7c.2 2.6 .2 5.2 .2 7.9c0 70.7-57.3 128-128 128s-128-57.3-128-128c0-2.7 .1-5.3 .2-7.9zM224 142.3c20.5-11.3 28.9-31.3 31.3-48.5L224 81.2 192.7 93.7c2.3 17.3 10.8 37.3 31.3 48.5zm0 317.3l-21.7-20L142.2 384H71.8L43 480H304V464H288 272V432h16 16V416 400h32v16 16h16 16v32H352 336v16h69l-28.8-96H305.8l-60.1 55.5-21.7 20zM336 512H304 33.4 0l9.6-32L48 352H154.7L224 416l69.3-64H400l38.4 128 9.6 32H414.6 336z"/></svg>