<svg xmlns="http://www.w3.org/2000/svg" viewBox="0 0 640 512"><!--! Font Awesome Pro 6.4.0 by @fontawesome - https://fontawesome.com License - https://fontawesome.com/license (Commercial License) Copyright 2023 Fonticons, Inc. --><path d="M191.5 73l30.7 24.2c1.2-5.5 1.9-11.3 1.9-17.2c0-44.2-35.8-80-80-80c-12.5 0-24.3 2.9-34.9 8l30.7 24.2c1.4-.1 2.8-.2 4.2-.2c24.1 0 44.1 17.8 47.5 41zM135.6 192H48L0 320H34.2l36-96h106l-40.5-32zM413 247.9c2-7.6 3-15.6 3-23.9c0-53-43-96-96-96c-16.2 0-31.4 4-44.8 11.1l29 22.9c5.1-1.3 10.4-2 15.8-2c35.3 0 64 28.7 64 64l0 1 29 22.9zM338.3 352H320 224 176L137.6 480 128 512h33.4H478.6 512l-9-30-43.8-34.6L469 480H171l28.8-96h179l-40.5-32zM569.8 224l36 96H640L592 192H444c2.6 10.2 4 21 4 32H569.8zM512 32a48 48 0 1 1 0 96 48 48 0 1 1 0-96zm0 128A80 80 0 1 0 512 0a80 80 0 1 0 0 160zM40.4 18L27.8 8.1 8.1 33.4l12.6 9.8L599.8 494.3l12.6 9.8 19.7-25.2L619.5 469 40.4 18z"/></svg>