<svg xmlns="http://www.w3.org/2000/svg" viewBox="0 0 448 512"><!--! Font Awesome Pro 6.4.0 by @fontawesome - https://fontawesome.com License - https://fontawesome.com/license (Commercial License) Copyright 2023 Fonticons, Inc. --><path d="M240 16V0H208V16 64H96 64V96 288v32H96 352h32V288 96 64H352 240V16zM96 96H352V288H304V240H272v48H240V240H208v48H176V240H144v48H96V96zM32 128H0V256H32V128zm416 0H416V256h32V128zM160 176a16 16 0 1 1 0-32 16 16 0 1 1 0 32zm-48-16a48 48 0 1 0 96 0 48 48 0 1 0 -96 0zm192 0a16 16 0 1 1 -32 0 16 16 0 1 1 32 0zm-16-48a48 48 0 1 0 0 96 48 48 0 1 0 0-96zM272 448v32H240V448h32zm32 32V448h32v32H304zm64 0V448 416H336 288 224 112 80v32 32H43l28.8-96H376.2L405 480H368zm-256 0V448h32v32H112zm64 0V448h32v32H176zM80 512h32 48 64 64 48 32 46.6H448l-9.6-32L400 352H48L9.6 480 0 512H33.4 80z"/></svg>