<svg xmlns="http://www.w3.org/2000/svg" viewBox="0 0 448 512"><!--! Font Awesome Pro 6.4.0 by @fontawesome - https://fontawesome.com License - https://fontawesome.com/license (Commercial License) Copyright 2023 Fonticons, Inc. --><path d="M128 128a96 96 0 1 1 192 0 96 96 0 1 1 -192 0zm224 0C352 57.3 294.7 0 224 0C169.6 0 123 34 104.5 81.9L59.3 36.7 48 25.4 25.4 48 36.7 59.3 89.4 112 36.7 164.7 25.4 176 48 198.6l11.3-11.3 38.4-38.4C107.7 209.7 160.4 256 224 256c70.7 0 128-57.3 128-128zM144 304h-8 0H64L9.8 480 0 512H33.5 312h.1H414.5 448l-9.8-32L384 304H304l-57.4 57.4L224 384l-22.6-22.6L144 304zM87.6 336h41.7l144 144H43.3L87.6 336zm317 144h-86l-72.7-72.7 .7-.7L317.3 336h43.1l44.3 144zM176 96H160v32h16 96 16V96H272 176z"/></svg>