<svg xmlns="http://www.w3.org/2000/svg" viewBox="0 0 640 512"><!--! Font Awesome Pro 6.4.0 by @fontawesome - https://fontawesome.com License - https://fontawesome.com/license (Commercial License) Copyright 2023 Fonticons, Inc. --><path d="M88 136a72 72 0 1 1 144 0A72 72 0 1 1 88 136zm176 0A104 104 0 1 0 56 136a104 104 0 1 0 208 0zm144 0a72 72 0 1 1 144 0 72 72 0 1 1 -144 0zm176 0a104 104 0 1 0 -208 0 104 104 0 1 0 208 0zM87.1 320H232.9l42.7 128H44.4L87.1 320zM256 288H64L10.7 448 0 480H33.7 286.3 320l-10.7-32L256 288zm108.4 32H595.6L552.9 448H407.1L364.4 320zM384 480H576l53.3-160L640 288H606.3 353.7 320l10.7 32L384 480z"/></svg>