<svg xmlns="http://www.w3.org/2000/svg" viewBox="0 0 448 512"><!--! Font Awesome Pro 6.4.0 by @fontawesome - https://fontawesome.com License - https://fontawesome.com/license (Commercial License) Copyright 2023 Fonticons, Inc. --><path d="M368 99.2L400 80V48L224 0 48 48V80L80 99.2V144c16 10.7 67.2 32 144 32s128-21.3 144-32V99.2zm-32 25.3c-13.6 5.6-35.5 12.5-64.7 16.4c12.9-19.7 16.7-42 16.7-57.7V72.4l-10.1-4-48-19.2L224 46.8l-5.9 2.4-48 19.2-10.1 4V83.2c0 15.7 3.8 38.1 16.7 57.7c-29.2-3.9-51.1-10.8-64.7-16.4V99.2 81.1L96.5 71.8l-4.4-2.6L224 33.2l131.9 36-4.4 2.6L336 81.1V99.2v25.3zM179.7 420.9L128 352H48L9.6 480 0 512H33.4 208h32H414.6 448l-9.6-32L400 352H320l-51.7 68.9L249.9 384H256h16V352H256 224 192 176v32h16 6.1l-18.4 36.9zm21.5 28.6L224 403.8l22.9 45.7-2.9 3.8L224 480l-20-26.7-2.9-3.8zM264 480l72-96h40.2L405 480H264zm-80 0H43l28.8-96H112l72 96zM96 192c0 70.7 57.3 128 128 128s128-57.3 128-128c0-2.7-.1-5.3-.2-7.9c-10.4 4-21 7.6-31.8 10.7c-1.5 51.7-43.9 93.2-96 93.2s-94.5-41.5-96-93.2c-10.8-3.1-21.4-6.6-31.8-10.7c-.2 2.6-.2 5.2-.2 7.9zm96.7-98.3L224 81.2l31.3 12.5C252.9 111 244.5 131 224 142.3C203.5 131 195.1 111 192.7 93.7z"/></svg>