<svg xmlns="http://www.w3.org/2000/svg" viewBox="0 0 448 512"><!--! Font Awesome Pro 6.4.0 by @fontawesome - https://fontawesome.com License - https://fontawesome.com/license (Commercial License) Copyright 2023 Fonticons, Inc. --><path d="M224 224c41.8 0 77.4-26.7 90.5-64H133.5c13.2 37.3 48.7 64 90.5 64zm0 32c-59.6 0-109.8-40.8-124-96H80V128 96 64h32 1.1C135.3 25.7 176.6 0 224 0s88.7 25.7 110.9 64H336h32V96v32 32H348c-14.2 55.2-64.3 96-124 96zM152.4 64H295.6C278 44.4 252.4 32 224 32s-54 12.4-71.6 32zM43.3 480H404.7L360.4 336H87.6L43.3 480zM64 304H384l54.2 176 9.8 32H414.5 33.5 0l9.8-32L64 304zM336 96H112v32H336V96zM288 456l-8-8 40-88 40 88-8 8-24-24-40 24z"/></svg>