<svg xmlns="http://www.w3.org/2000/svg" viewBox="0 0 640 512"><!--! Font Awesome Pro 6.4.0 by @fontawesome - https://fontawesome.com License - https://fontawesome.com/license (Commercial License) Copyright 2023 Fonticons, Inc. --><path d="M224 32a96 96 0 1 1 0 192 96 96 0 1 1 0-192zM87.6 336H323c-1.6-10.8-2.6-21.5-2.9-32H64L9.8 480 0 512H33.5h381 11.6c-13.3-9.5-25.3-20.3-36.1-32H43.3L87.6 336zM352 128A128 128 0 1 0 96 128a128 128 0 1 0 256 0zM607.9 301.6C606.1 367.4 572.8 437 512 470.3V264.5l95.9 37.1zm-223.8 0L480 264.5V470.3c-60.8-33.3-94.1-102.8-95.9-168.6zM496 512c96-32 144-130.2 144-216V279.8L496 224 352 279.8V296c0 85.8 48 184 144 216z"/></svg>