<svg xmlns="http://www.w3.org/2000/svg" viewBox="0 0 448 512"><!--! Font Awesome Pro 6.4.0 by @fontawesome - https://fontawesome.com License - https://fontawesome.com/license (Commercial License) Copyright 2023 Fonticons, Inc. --><path d="M278.2 67.8L293 61.2l27-12V112H128V49.2l27 12 14.8 6.6 14.1-8L224 36.9l40.1 22.9 14.1 8zM320 144c0 53-43 96-96 96s-96-43-96-96H320zM96 128v16c0 70.7 57.3 128 128 128s128-57.3 128-128V128 35 0L320 14.2 280 32 224 0 168 32 128 14.2 96 0V35v93zM87.6 336H360.4l44.3 144H43.3L87.6 336zM384 304H64L9.8 480 0 512H33.5h381H448l-9.8-32L384 304z"/></svg>