<svg xmlns="http://www.w3.org/2000/svg" viewBox="0 0 640 512"><!--! Font Awesome Pro 6.4.0 by @fontawesome - https://fontawesome.com License - https://fontawesome.com/license (Commercial License) Copyright 2023 Fonticons, Inc. --><path d="M224 32a96 96 0 1 1 0 192 96 96 0 1 1 0-192zM87.6 336H360.4l8.6 27.9 25.6-25.6L384 304H64L9.8 480 0 512H33.5 317.8l5-32H43.3L87.6 336zM352 128A128 128 0 1 0 96 128a128 128 0 1 0 256 0zM553.3 269.3l41.5 41.5L572 333.5 530.5 292l22.8-22.8zM398 424.5L507.9 314.6l41.5 41.5L439.5 466l-49.1 7.7 7.7-49.1zM617.4 288.1L553.3 224 368 409.3l-10.8 69.5L352 512l33.2-5.2L454.7 496 617.4 333.3 640 310.7l-22.6-22.6z"/></svg>