<svg xmlns="http://www.w3.org/2000/svg" viewBox="0 0 640 512"><!--! Font Awesome Pro 6.4.0 by @fontawesome - https://fontawesome.com License - https://fontawesome.com/license (Commercial License) Copyright 2023 Fonticons, Inc. --><path d="M320 128a96 96 0 1 0 -192 0 96 96 0 1 0 192 0zM43.3 480H404.7L360.4 336H87.6L43.3 480zM384 304l54.2 176 9.8 32H414.5 33.5 0l9.8-32L64 304H384zM224 0a128 128 0 1 1 0 256A128 128 0 1 1 224 0zM544 112v16 64h64 16v32H608 544v64 16H512V288 224H448 432V192h16 64V128 112h32z"/></svg>