<svg xmlns="http://www.w3.org/2000/svg" viewBox="0 0 640 512"><!--! Font Awesome Pro 6.4.0 by @fontawesome - https://fontawesome.com License - https://fontawesome.com/license (Commercial License) Copyright 2023 Fonticons, Inc. --><path d="M224 32a96 96 0 1 1 0 192 96 96 0 1 1 0-192zm0 224A128 128 0 1 0 224 0a128 128 0 1 0 0 256zM87.6 336H360.4l44.3 144H43.3L87.6 336zM384 304H64L9.8 480 0 512H33.5h381H448l-9.8-32L384 304zM606.3 512H640l-10.7-32L576 320H422.4l9.8 32H552.9l42.7 128h-124l7 22.6 2.9 9.4H606.3zM432 256c61.9 0 112-50.1 112-112s-50.1-112-112-112c-24.8 0-47.7 8.1-66.3 21.7c5.2 9.8 9.3 20.3 12.4 31.2C392.3 71.9 411.2 64 432 64c44.2 0 80 35.8 80 80s-35.8 80-80 80c-25.2 0-47.6-11.6-62.3-29.8c-4.7 10.3-10.4 19.9-17 28.9C373 243.4 401 256 432 256z"/></svg>