<svg xmlns="http://www.w3.org/2000/svg" viewBox="0 0 640 512"><!--! Font Awesome Pro 6.4.0 by @fontawesome - https://fontawesome.com License - https://fontawesome.com/license (Commercial License) Copyright 2023 Fonticons, Inc. --><path d="M264.1 59.8L224 36.9 183.9 59.8l-14.1 8L155 61.2l-27-12V112H320V49.2l-27 12-14.8 6.6-14.1-8zM224 240c53 0 96-43 96-96H128c0 53 43 96 96 96zM96 144V128 35 0l32 14.2L168 32 224 0l56 32 40-17.8L352 0V35v93 16c0 70.7-57.3 128-128 128s-128-57.3-128-128zM43.3 480H404.7L360.4 336H87.6L43.3 480zM64 304H384l54.2 176 9.8 32H414.5 33.5 0l9.8-32L64 304zM606.3 512H481.5l-2.9-9.4-7-22.6h124L552.9 352H432.2l-9.8-32H576l53.3 160L640 512H606.3zM432 256c-27.7 0-53-10.1-72.6-26.7c5.9-9.4 10.9-19.4 14.8-30C388.8 214.5 409.3 224 432 224c44.2 0 80-35.8 80-80s-35.8-80-80-80c-18 0-34.6 6-48 16V53.7 42.8C398.6 35.9 414.8 32 432 32c61.9 0 112 50.1 112 112s-50.1 112-112 112z"/></svg>