<svg xmlns="http://www.w3.org/2000/svg" viewBox="0 0 448 512"><!--! Font Awesome Pro 6.4.0 by @fontawesome - https://fontawesome.com License - https://fontawesome.com/license (Commercial License) Copyright 2023 Fonticons, Inc. --><path d="M320 144c0 53-43 96-96 96s-96-43-96-96V128l88 0h8l4.8-6.4 16-21.3 20.1 10 3.4 1.7H272h46.7c.9 5.2 1.3 10.5 1.3 16v16zM224 32c35.5 0 66.6 19.3 83.2 48H275.8L247.2 65.7l-11.9-6-8 10.7L208 96H133.5c13.2-37.3 48.7-64 90.5-64zm0-32C153.3 0 96 57.3 96 128v16c0 70.7 57.3 128 128 128s128-57.3 128-128V128C352 57.3 294.7 0 224 0zM199.7 420.8L224 449.2l24.3-28.3L321 336h39.4l44.3 144H43.3L87.6 336H127l72.7 84.8zM384 304H306.3l-61.2 71.4L224 400l-21.1-24.6L141.7 304H64L9.8 480 0 512H33.5h381H448l-9.8-32L384 304z"/></svg>