<svg xmlns="http://www.w3.org/2000/svg" viewBox="0 0 448 512"><!--! Font Awesome Pro 6.4.0 by @fontawesome - https://fontawesome.com License - https://fontawesome.com/license (Commercial License) Copyright 2023 Fonticons, Inc. --><path d="M320 128c0-5.5-.5-10.8-1.3-16H192 129.3c-.9 5.2-1.3 10.5-1.3 16c0 53 43 96 96 96s96-43 96-96zM186.4 80l57.4-46c-6.4-1.3-13-2-19.8-2c-35.5 0-66.6 19.3-83.2 48h45.5zm51.2 0h69.5c-7.4-12.7-17.6-23.6-29.8-31.8L237.6 80zM96 128a128 128 0 1 1 256 0A128 128 0 1 1 96 128zM80 360.8L43.3 480H80V360.8zM112 480H226.9L135.2 336H112V480zm91.7-96H336h16v16 80h52.7L360.4 336H173.1l30.5 48zm20.4 32l40.7 64H320V416H224.1zM160 512H96 33.5 0l9.8-32L64 304H384l54.2 176 9.8 32H414.5 352 336 176 160z"/></svg>