<svg xmlns="http://www.w3.org/2000/svg" viewBox="0 0 640 512"><!--! Font Awesome Pro 6.4.0 by @fontawesome - https://fontawesome.com License - https://fontawesome.com/license (Commercial License) Copyright 2023 Fonticons, Inc. --><path d="M144 32a48 48 0 1 1 0 96 48 48 0 1 1 0-96zm0 128A80 80 0 1 0 144 0a80 80 0 1 0 0 160zm112 64a64 64 0 1 1 128 0 64 64 0 1 1 -128 0zm160 0a96 96 0 1 0 -192 0 96 96 0 1 0 192 0zM171 480l28.8-96H384V368 352H176L137.6 480 128 512h33.4H448V496 480H432 384 171zM592 192H444c2.6 10.2 4 21 4 32H569.8l12 32H608h8l-24-64zM192 224c0-11 1.4-21.8 4-32H48L0 320H34.2l36-96H192zM512 32a48 48 0 1 1 0 96 48 48 0 1 1 0-96zm0 128A80 80 0 1 0 512 0a80 80 0 1 0 0 160zM496 288H480v16 48H432 416v16 64 16h16 48v48 16h16 64 16V496 448h48 16V432 368 352H624 576V304 288H560 496zm16 80V320h32v48 16h16 48v32H560 544v16 48H512V432 416H496 448V384h48 16V368z"/></svg>