<svg xmlns="http://www.w3.org/2000/svg" viewBox="0 0 640 512"><!--! Font Awesome Pro 6.4.0 by @fontawesome - https://fontawesome.com License - https://fontawesome.com/license (Commercial License) Copyright 2023 Fonticons, Inc. --><path d="M144 32a48 48 0 1 1 0 96 48 48 0 1 1 0-96zm0 128A80 80 0 1 0 144 0a80 80 0 1 0 0 160zm112 64a64 64 0 1 1 128 0 64 64 0 1 1 -128 0zm105.9 86.4c26.2-12.7 45.8-37 52-66.3c1.4-6.5 2.1-13.2 2.1-20.1c0-53-43-96-96-96s-96 43-96 96s43 96 96 96c15 0 29.2-3.4 41.9-9.6zm-24 41.6H176L137.6 480 128 512h33.4H393.3l-18.5-32H171l28.8-96H352.1l0 0-24.6-14.2L337.9 352zm280-91L592 192H444c2.6 10.2 4 21 4 32H569.8h10.3v27.5l.3 .7 24.3-14L617.9 261zM192 224c0-11 1.4-21.8 4-32H48L0 320H34.2l36-96H192zM512 32a48 48 0 1 1 0 96 48 48 0 1 1 0-96zm0 128A80 80 0 1 0 512 0a80 80 0 1 0 0 160zm-35.9 96h-16v16 22.2c-4.1 2-8 4.3-11.8 6.8l-19.2-11.1-13.9-8-8 13.9-28 48.5-8 13.9 13.9 8 19.2 11.1c-.2 2.2-.2 4.5-.2 6.8s.1 4.5 .2 6.8l-19.2 11.1-13.9 8 8 13.9 28 48.5 8 13.9 13.9-8L448.4 467c3.8 2.5 7.7 4.8 11.8 6.8V496v16h16 56 16V496 473.8c4.1-2 8-4.3 11.8-6.8l19.2 11.1 13.9 8 8-13.9 28-48.5 8-13.9-13.9-8-19.2-11.1c.2-2.2 .2-4.5 .2-6.8s-.1-4.6-.2-6.8l19.2-11.1 13.9-8-8-13.9-28-48.5-8-13.9-13.9 8L559.9 301c-3.8-2.5-7.7-4.8-11.8-6.8V272 256h-16-56zm16 48.8V288h24v16.8 11.3l10.7 3.8c7.9 2.8 15.2 7.1 21.5 12.4l8.6 7.4 9.8-5.7 14.6-8.4 12 20.8-14.5 8.4-9.8 5.7 2.1 11.1c.7 4 1.1 8.2 1.1 12.5s-.4 8.4-1.1 12.4L569 407.6l9.8 5.7 14.5 8.4-12 20.8L566.7 434l-9.8-5.7-8.6 7.4c-6.3 5.4-13.6 9.6-21.5 12.4l-10.7 3.8v11.3V480h-24V463.2 451.9l-10.7-3.8c-7.9-2.8-15.2-7.1-21.5-12.4l-8.6-7.4-9.8 5.7L427 442.4l-12-20.8 14.5-8.4 9.8-5.7-2.1-11.1c-.7-4-1.1-8.2-1.1-12.4s.4-8.4 1.1-12.5l2.1-11.1-9.8-5.7L415 346.4l12-20.8 14.6 8.4 9.8 5.7 8.6-7.4c6.3-5.4 13.6-9.6 21.5-12.4l10.7-3.8V304.8zM520 384a16 16 0 1 1 -32 0 16 16 0 1 1 32 0zm-16 48a48 48 0 1 0 0-96 48 48 0 1 0 0 96z"/></svg>