<svg xmlns="http://www.w3.org/2000/svg" viewBox="0 0 640 512"><!--! Font Awesome Pro 6.4.0 by @fontawesome - https://fontawesome.com License - https://fontawesome.com/license (Commercial License) Copyright 2023 Fonticons, Inc. --><path d="M320 128a96 96 0 1 1 -192 0 96 96 0 1 1 192 0zM224 0a128 128 0 1 0 0 256A128 128 0 1 0 224 0zM87.6 336H144v34.7c-18.6 6.6-32 24.4-32 45.3c0 26.5 21.5 48 48 48s48-21.5 48-48c0-20.9-13.4-38.7-32-45.3V336H288v34.3c-23.1 6.9-40 28.3-40 53.7v24 16h16 16 16V432H280v-8c0-13.3 10.7-24 24-24s24 10.7 24 24v8H312v32h16 16 16V448 424c0-25.4-16.9-46.8-40-53.7V336h40.4l44.3 144H43.3L87.6 336zM176 416a16 16 0 1 1 -32 0 16 16 0 1 1 32 0zM384 304H64L9.8 480 0 512H33.5h381H448l-9.8-32L384 304zm224-80h32V192 32 0H608 416 384V32 192v32h32 32v32 13.3V280v16l12.8-9.6 8.5-6.4 10.7-8 64-48h64zm-83.2-25.6L480 232v-8V192H448 416V32H608V192H544 533.3l-8.5 6.4z"/></svg>