<svg xmlns="http://www.w3.org/2000/svg" viewBox="0 0 448 512"><!--! Font Awesome Pro 6.4.0 by @fontawesome - https://fontawesome.com License - https://fontawesome.com/license (Commercial License) Copyright 2023 Fonticons, Inc. --><path d="M128 76.9l96-42 96 42V144H128V76.9zM96 56v88 16 16 0c0 70.7 57.3 128 128 128s128-57.3 128-128v0V160 144 56L224 0 96 56zm32 120v0h86.1l-8 16H129.3c-.9-5.2-1.3-10.5-1.3-16zm102.3 39.2L249.9 176H320v0c0 53-43 96-96 96c-35.5 0-66.6-19.3-83.2-48H216h9.9l4.4-8.8zM201.4 436.6L224 459.2l22.6-22.6L331.2 352h29.8l42.7 128H44.4L87.1 352h29.8l84.6 84.6zM384 320H317.9l-71.3 71.3L224 413.9l-22.6-22.6L130.1 320H64L10.7 480 0 512H33.7 414.3 448l-10.7-32L384 320zM240 48H208V64v8h-8H184v32h16 8v8 16h32V112v-8h8 16V72H248h-8V64 48z"/></svg>