<svg xmlns="http://www.w3.org/2000/svg" viewBox="0 0 640 512"><!--! Font Awesome Pro 6.4.0 by @fontawesome - https://fontawesome.com License - https://fontawesome.com/license (Commercial License) Copyright 2023 Fonticons, Inc. --><path d="M224 224a96 96 0 1 0 0-192 96 96 0 1 0 0 192zM87.6 336L43.3 480H289.6c2.7 12.2 8.5 23 16.5 32H33.5 0l9.8-32L64 304H384v81.1c-2.8 0-5.7 .1-8.4 .3L360.4 336H87.6zM96 128a128 128 0 1 1 256 0A128 128 0 1 1 96 128zm544 27.1v22.2 72 144c0 1.1-.1 2.2-.3 3.2c.2 1.6 .3 3.2 .3 4.8c0 26.5-28.7 48-64 48s-64-21.5-64-48s28.7-48 64-48c11.7 0 22.6 2.3 32 6.4V271.5L448 324.8V465.3c0 26.5-28.7 48-64 48s-64-21.5-64-48s28.7-48 64-48c11.7 0 22.6 2.3 32 6.4V313.3v-72V229.8l10.9-3.6 192-64 21.1-7zM410.1 457c-5.5-4.1-14.6-7.7-26.1-7.7s-20.5 3.5-26.1 7.7c-5.5 4.1-5.9 7.4-5.9 8.3s.4 4.2 5.9 8.3c5.5 4.1 14.6 7.7 26.1 7.7s20.5-3.5 26.1-7.7c5.5-4.1 5.9-7.4 5.9-8.3s-.4-4.2-5.9-8.3zM448 291.1l160-53.3V199.5L448 252.8v38.3zM608 401.3c0-.9-.4-4.2-5.9-8.3c-5.5-4.1-14.6-7.7-26.1-7.7s-20.5 3.5-26.1 7.7c-5.5 4.1-5.9 7.4-5.9 8.3s.4 4.2 5.9 8.3c5.5 4.1 14.6 7.7 26.1 7.7s20.5-3.5 26.1-7.7c5.5-4.1 5.9-7.4 5.9-8.3z"/></svg>