<svg xmlns="http://www.w3.org/2000/svg" viewBox="0 0 512 512"><!--! Font Awesome Pro 6.4.0 by @fontawesome - https://fontawesome.com License - https://fontawesome.com/license (Commercial License) Copyright 2023 Fonticons, Inc. --><path d="M208 0h16 64 16V16 96h80V48 32h32V48 96h15.8c.1 0 .2 0 .3 0H480V48 32h32V48v64 16H496 437.5L304 231.8V496v16H272V496 224.2c0-.1 0-.2 0-.3V128H240v95.9c0 .1 0 .2 0 .3V496v16H208V496 231.8L74.5 128H16 0V112 48 32H32V48 96H79.9c.1 0 .2 0 .3 0H96V48 32h32V48 96h80V16 0zM126.6 128L208 191.3V128H126.6zM304 191.3L385.4 128H304v63.3zM272 32H240V96h32V32z"/></svg>