<svg xmlns="http://www.w3.org/2000/svg" viewBox="0 0 448 512"><!--! Font Awesome Pro 6.4.0 by @fontawesome - https://fontawesome.com License - https://fontawesome.com/license (Commercial License) Copyright 2023 Fonticons, Inc. --><path d="M416 64v64H352V64h64zM352 32H320V64 80H128V64 32H96 32 0V64v64 32H32 48l0 192H32 0v32 64 32H32 96h32V448 432H320v16 32h32 64 32V448 384 352H416 400V160h16 32V128 64 32H416 352zM80 352l0-192H96h32V128 112H320v16 32h32 16V352H352 320v32 16H128V384 352H96 80zM32 384H96v64H32V384zm320 0h64v64H352V384zM32 64H96v64H32V64z"/></svg>