<svg xmlns="http://www.w3.org/2000/svg" viewBox="0 0 640 512"><!--! Font Awesome Pro 6.4.0 by @fontawesome - https://fontawesome.com License - https://fontawesome.com/license (Commercial License) Copyright 2023 Fonticons, Inc. --><path d="M544 96v48V368v48H96V368 144 96H544zM64 96v32H16c-8.8 0-16 7.2-16 16V368c0 8.8 7.2 16 16 16H64v32 32H96 544h32V416 384h48c8.8 0 16-7.2 16-16V144c0-8.8-7.2-16-16-16H576V96 64H544 96 64V96zM32 352V160H64V352H32zm576 0H576V160h32V352zM176 160H160v32h16H464h16V160H464 176zm0 80H160v32h16H464h16V240H464 176zm0 80H160v32h16H464h16V320H464 176z"/></svg>