<svg xmlns="http://www.w3.org/2000/svg" viewBox="0 0 448 512"><!--! Font Awesome Pro 6.4.0 by @fontawesome - https://fontawesome.com License - https://fontawesome.com/license (Commercial License) Copyright 2023 Fonticons, Inc. --><path d="M143 0h4 7.3l3.7 10.6 0 .1c.1 .1 .2 .5 .4 .9c.4 .9 1.1 2.3 2.1 4c2 3.5 5.3 8.3 10.2 13.1C180.2 37.9 196.5 48 224 48s43.8-10.1 53.3-19.4c4.9-4.8 8.2-9.6 10.2-13.1c1-1.7 1.7-3.1 2.1-4c.2-.4 .3-.7 .4-.9l0-.1L293.6 0H301h4 7 72 16V16 128v67.6l45.7 76.2 2.3 3.8V280 496v16H432 208 192V496 288v-3l1.1-2.8L274.6 69.1C261.3 75.6 244.6 80 224 80s-37.3-4.4-50.6-10.9l33.4 87.4-17.1 44.8L125 32H80v96 72 4.4l-2.3 3.8L32 284.4V425.4l68.7-68.7L112 345.4 134.6 368l-11.3 11.3-88 88L32 470.6V480H160v16 16H16 0V496 280v-4.4l2.3-3.8L48 195.6V128 16 0H64h72 7zM323 32L224 291V480H416v-9.4l-3.3-3.3-88-88L313.4 368 336 345.4l11.3 11.3L416 425.4V284.4l-45.7-76.2-2.3-3.8V200 128 32H323z"/></svg>