<svg xmlns="http://www.w3.org/2000/svg" viewBox="0 0 448 512"><!--! Font Awesome Pro 6.4.0 by @fontawesome - https://fontawesome.com License - https://fontawesome.com/license (Commercial License) Copyright 2023 Fonticons, Inc. --><path d="M173.4 69.1l33.4 87.4-17.1 44.8L125 32H80v96 72 4.4l-2.3 3.8L32 284.4V480H160v16 16H16 0V496 280v-4.4l2.3-3.8L48 195.6V128 16 0H64h72 7 4 7.3l3.7 10.6 0 .1c.1 .1 .2 .5 .4 .9c.4 .9 1.1 2.3 2.1 4c2 3.5 5.3 8.3 10.2 13.1C180.2 37.9 196.5 48 224 48s43.8-10.1 53.3-19.4c4.9-4.8 8.2-9.6 10.2-13.1c1-1.7 1.7-3.1 2.1-4c.2-.4 .3-.7 .4-.9l0-.1L293.6 0H301h4 7 72 16V16 128v67.6l45.7 76.2 2.3 3.8V280 496v16H432 208 192V496 288v-3l1.1-2.8L274.6 69.1C261.3 75.6 244.6 80 224 80s-37.3-4.4-50.6-10.9zM323 32L224 291V480H416V284.4l-45.7-76.2-2.3-3.8V200 128 32H323zM112 416a16 16 0 1 0 0-32 16 16 0 1 0 0 32zm0-64a48 48 0 1 1 0 96 48 48 0 1 1 0-96zM96 233.4l11.3 11.3L120 257.4l12.7-12.7L144 233.4 166.6 256l-11.3 11.3L142.6 280l12.7 12.7L166.6 304 144 326.6l-11.3-11.3L120 302.6l-12.7 12.7L96 326.6 73.4 304l11.3-11.3L97.4 280 84.7 267.3 73.4 256 96 233.4zM312 240c19.6 0 35.9 14.1 39.3 32.7c18.6 3.4 32.7 19.7 32.7 39.3c0 22.1-17.9 40-40 40h-8H288 272V336 288v-8c0-22.1 17.9-40 40-40zm-8 40v8 32h32 8c4.4 0 8-3.6 8-8s-3.6-8-8-8h-8H320V288v-8c0-4.4-3.6-8-8-8s-8 3.6-8 8z"/></svg>