<svg xmlns="http://www.w3.org/2000/svg" viewBox="0 0 576 512"><!--! Font Awesome Pro 6.4.0 by @fontawesome - https://fontawesome.com License - https://fontawesome.com/license (Commercial License) Copyright 2023 Fonticons, Inc. --><path d="M352 96V416H32V96H352zM32 64H0V96 416v32H32 352h32V416 352 160 96 64H352 32zM416 332.2V368l128 64 32 16V412.2 99.8 64L544 80 416 144v35.8l128-64V396.2l-128-64zM160 160H144v32h16 73.4L100.7 324.7 89.4 336 112 358.6l11.3-11.3L256 214.6V288v16h32V288 176 160H272 160z"/></svg>