<svg xmlns="http://www.w3.org/2000/svg" viewBox="0 0 576 512"><!--! Font Awesome Pro 6.4.0 by @fontawesome - https://fontawesome.com License - https://fontawesome.com/license (Commercial License) Copyright 2023 Fonticons, Inc. --><path d="M149.3 328.1l-9.1-8.1H128 32V192h96 12.2l9.1-8.1L284.2 64H288V448h-3.8L149.3 328.1zM0 352H32h96L272 480h16 32V448 64 32H288 272L128 160H32 0v32V320v32zm411.3-4.7L480 278.6l68.7 68.7 22.6-22.6L502.6 256l68.7-68.7-22.6-22.6L480 233.4l-68.7-68.7-22.6 22.6L457.4 256l-68.7 68.7 22.6 22.6z"/></svg>