<svg xmlns="http://www.w3.org/2000/svg" viewBox="0 0 512 512"><!--! Font Awesome Pro 6.4.0 by @fontawesome - https://fontawesome.com License - https://fontawesome.com/license (Commercial License) Copyright 2023 Fonticons, Inc. --><path d="M376 160h14.3H416V127.5 115.3l8.2-9.1 43.8-49L454.8 44 191.2 279.8l-9.1 8.2H169.9 128v34.1 14.3L117.3 346 46.5 409.3l56.2 56.2L366.5 170.7 376 160zM125.4 488.1L104 512 81.3 489.3 22.7 430.7 0 408l23.9-21.4L96 322.1V288 256h32 41.9L456 0l56 56-64 71.5V160v32H416 390.3L125.4 488.1z"/></svg>