<svg xmlns="http://www.w3.org/2000/svg" viewBox="0 0 640 512"><!--! Font Awesome Pro 6.4.0 by @fontawesome - https://fontawesome.com License - https://fontawesome.com/license (Commercial License) Copyright 2023 Fonticons, Inc. --><path d="M320 6.8l5.9 2.3 304 120 10.1 4V144 496v16H608V496 154.9L320 41.2 32 154.9V496v16H0V496 144 133.1l10.1-4 304-120L320 6.8zM96 192h16H528h16v16V496v16H512V496 224H128V496v16H96V496 208 192zM352 368h32 64 32v32 80 32H448 192 160V480 288 256h32H320h32v32 48 32zm-32 32H192v80H320V400zm32 80h96V400H352v80zM320 368V288H192v80H320z"/></svg>