<svg xmlns="http://www.w3.org/2000/svg" viewBox="0 0 384 512"><!--! Font Awesome Pro 6.4.0 by @fontawesome - https://fontawesome.com License - https://fontawesome.com/license (Commercial License) Copyright 2023 Fonticons, Inc. --><path d="M80 0H64V16 64H32 0V96 416v32H32 64l0 48v16H80l224 0h16V496 448h32 32V416 96 64H352 320V16 0H304 80zM96 480l0-32H288v32L96 480zM288 64H96V32H288V64zM32 96H352V416H32V96zm64 64H288v32H96V160zM64 128v32 32 32H96 288h32V192 160 128H288 96 64zM80 256v48h48V256H80zm136 0H168v48h48V256zm40 0v48h48V256H256zM128 336H80v48h48V336zm40 0v48h48V336H168zm136 0H256v48h48V336z"/></svg>