<svg xmlns="http://www.w3.org/2000/svg" viewBox="0 0 320 512"><!--! Font Awesome Pro 6.4.0 by @fontawesome - https://fontawesome.com License - https://fontawesome.com/license (Commercial License) Copyright 2023 Fonticons, Inc. --><path d="M61.2 32L46.4 195.6C40.3 262.4 92.9 320 160 320s119.7-57.6 113.6-124.4L258.8 32H183.6l23.2 58.1 5.5 13.7-13.2 6.6L155 132.4l48.3 48.3L214.6 192 192 214.6l-11.3-11.3-64-64L101 123.6l19.9-9.9 50.8-25.4L149.2 32H61.2zM305.5 192.7c7.3 80.2-51.4 150-129.5 158.5V480h64 16v32H240 160 80 64V480H80h64V351.1C65.9 342.7 7.2 272.8 14.5 192.7L32 0H288l17.5 192.7z"/></svg>