<svg xmlns="http://www.w3.org/2000/svg" viewBox="0 0 512 512"><!--! Font Awesome Pro 6.4.0 by @fontawesome - https://fontawesome.com License - https://fontawesome.com/license (Commercial License) Copyright 2023 Fonticons, Inc. --><path d="M72.1 256L4.1 32H37.6l68 224h84L236.4 44.5 239.2 32H252h8 12.8l2.8 12.5L322.4 256h84l68-224h33.4l-68 224H496h16v32H496 430.2L375.3 468.6 371.9 480H360h-8H339.2l-2.8-12.5L296.7 288H215.3L175.6 467.5 172.8 480H160h-8H140.1l-3.4-11.4L81.8 288H16 0V256H16 72.1zm43.2 32l38.9 128.2L182.5 288H115.3zm107.1-32h67.2L256 104 222.4 256zm107.1 32l28.3 128.2L396.7 288H329.5z"/></svg>