<svg xmlns="http://www.w3.org/2000/svg" viewBox="0 0 512 512"><!--! Font Awesome Pro 6.4.0 by @fontawesome - https://fontawesome.com License - https://fontawesome.com/license (Commercial License) Copyright 2023 Fonticons, Inc. --><path d="M0 32H16 48 464h32 16V64H496 480V448h16 16v32H496 464 48 16 0V448H16 32V64H16 0V32zM64 64V448H448V64H64zM272 96v16 32h64 16v32H336 272v32h96 16v32H368 272v53.5l52.9-20.4 2.8-1.1h3H384h16v16 57.6 5.5l-3.4 4.3-42.7 54.4-4.8 6.1h-7.8H170.7h-7.8l-4.8-6.1-42.7-54.4-3.4-4.3v-5.5V288 272h16 53.3 3l2.8 1.1L240 293.5V240H144 128V208h16 96V176H176 160V144h16 64V112 96h32zM144 340.1L178.5 384H333.5L368 340.1V304H333.6l-71.9 27.7-5.8 2.2-5.8-2.2L178.4 304H144v36.1zM192 352a16 16 0 1 1 32 0 16 16 0 1 1 -32 0zm112-16a16 16 0 1 1 0 32 16 16 0 1 1 0-32z"/></svg>