<svg xmlns="http://www.w3.org/2000/svg" viewBox="0 0 256 220.16"><path class="fill-secondary" d="M128 0l58.67 26.66L128 53.33 72 26.66zm-10.67 66l-48-22.85v47.52a5.34 5.34 0 003.36 5l44.64 17.86zm21.34.05v47.42l44.64-17.85a5.34 5.34 0 003.36-5v-46.4z"/><path class="fill-primary" d="M197.33 106.66L256 133.33 197.33 160l-56-26.67zm-10.66 65.98l-48-22.85v47.55a5.34 5.34 0 003.36 5l44.64 17.86zm21.33.08v47.42l44.64-17.85a5.34 5.34 0 003.36-5V150.9zM58.67 106.66l58.66 26.67L58.67 160l-56-26.67zM48 172.64L0 149.79v47.55a5.34 5.34 0 003.36 5L48 220.14zm21.33.08v47.42L114 202.29a5.34 5.34 0 003.36-5V150.9z"/></svg>