<svg xmlns="http://www.w3.org/2000/svg" viewBox="0 0 256.02 256"><g data-name="Layer 2"><path class="fill-primary" d="M74.67 85.33A21.33 21.33 0 1196 64a21.36 21.36 0 01-21.33 21.33zM109.33 128H40a8 8 0 01-8-8 24 24 0 0124-24h37.33a24 24 0 0124 24 8 8 0 01-8 8z"/><circle class="fill-primary" cx="224" cy="197.33" r="16"/><path class="fill-primary" d="M248 256h-48a8 8 0 01-8-8 24 24 0 0124-24h16a24 24 0 0124 24 8 8 0 01-8 8z"/><circle class="fill-primary" cx="138.67" cy="197.33" r="16"/><path class="fill-primary" d="M162.67 256h-48a8 8 0 01-8-8 24 24 0 0124-24h16a24 24 0 0124 24 8 8 0 01-8 8z"/><path class="fill-secondary" d="M237.33 0h-90.67A18.68 18.68 0 00128 18.67v48a18.69 18.69 0 0018.67 18.67H160v24a8 8 0 0013.66 5.66l29.67-29.67h34A18.69 18.69 0 00256 66.67v-48A18.71 18.71 0 00237.33 0zM160 53.33a10.67 10.67 0 1110.67-10.66A10.67 10.67 0 01160 53.33zm32 0a10.67 10.67 0 1110.67-10.66A10.67 10.67 0 01192 53.33zm32 0a10.67 10.67 0 1110.67-10.66A10.67 10.67 0 01224 53.33z"/><path class="fill-primary" d="M138.67 138.67h-128a10.67 10.67 0 100 21.33h12L32 248.85a8.07 8.07 0 008 7.15h46.58a28.7 28.7 0 01-1.25-8 45.18 45.18 0 0118.8-36.59 37 37 0 0122.32-49.2l.24-2.21h12a10.67 10.67 0 000-21.33z"/></g></svg>