<svg xmlns="http://www.w3.org/2000/svg" viewBox="0 0 234.69 256"><path class="fill-secondary" d="M224 116.08a10.68 10.68 0 01-10.68-10.67 111.23 111.23 0 00-32.8-79.2 10.67 10.67 0 1115.09-15.09 132.45 132.45 0 0139.06 94.29A10.69 10.69 0 01224 116.08zm-213.33 0A10.68 10.68 0 010 105.41a132.48 132.48 0 0139.05-94.29 10.67 10.67 0 0115.09 15.09 111.28 111.28 0 00-32.8 79.2 10.67 10.67 0 01-10.67 10.67z"/><path class="fill-primary" d="M217.39 180.4A71.48 71.48 0 01192 125.73V96a74.72 74.72 0 00-64-73.81V10.67a10.68 10.68 0 00-21.35 0v11.52A74.7 74.7 0 0042.67 96v29.74A71.57 71.57 0 0117.2 180.5a18.66 18.66 0 0012.14 32.84h176a18.67 18.67 0 0012-32.94z"/><path class="fill-secondary" d="M117.34 256a40.05 40.05 0 0039.19-32H78.14a40.09 40.09 0 0039.2 32z"/></svg>