<svg xmlns="http://www.w3.org/2000/svg" viewBox="0 0 256 202.66"><path class="fill-secondary" d="M53.33 53.33a10.68 10.68 0 01-10.67-10.67V21.33a10.67 10.67 0 0121.34 0v21.33a10.68 10.68 0 01-10.67 10.67z"/><path class="fill-primary" d="M29.33 32A29.35 29.35 0 000 61.33v112a29.36 29.36 0 0029.33 29.33h197.33A29.36 29.36 0 00256 173.33v-112A29.35 29.35 0 00226.67 32h-5.73l-7.88-15.79A29.19 29.19 0 00186.82 0h-45.64a29.19 29.19 0 00-26.24 16.21L107.06 32zm141.34 32a53.33 53.33 0 11-53.33 53.33A53.39 53.39 0 01170.67 64zM85.33 77.33a8 8 0 01-8 8H40a8 8 0 010-16h37.33a8 8 0 018 8z"/></svg>