<svg xmlns="http://www.w3.org/2000/svg" viewBox="0 0 245.34 256"><g data-name="Layer 2"><path class="fill-primary" d="M157.34 154.67a22.61 22.61 0 01-8-1.39v60.05h-128V32A10.7 10.7 0 0132 21.33h74.76a34.77 34.77 0 0129.24-16h20.36A32.68 32.68 0 00138.67 0H32A32.09 32.09 0 000 32v192a32.09 32.09 0 0032 32h106.67a32.09 32.09 0 0032-32v-73.39a24.23 24.23 0 01-13.33 4.06z"/><circle class="fill-primary" cx="85.34" cy="149.33" r="21.33"/><path class="fill-primary" d="M128 210.67v2.67H42.67v-2.67A29.32 29.32 0 0172 181.34h26.67A29.3 29.3 0 01128 210.67z"/><path class="fill-secondary" d="M226.67 21.33H136A18.69 18.69 0 00117.33 40v48A18.69 18.69 0 00136 106.67h13.33v24a8 8 0 005.1 7.46 7.92 7.92 0 002.9.54 8 8 0 005.89-2.59l27-29.41h36.49A18.69 18.69 0 00245.34 88V40a18.7 18.7 0 00-18.67-18.67zm-72 50.67a8 8 0 118-8 8 8 0 01-8 8zm26.67 0a8 8 0 118-8 8 8 0 01-8 8zM208 72a8 8 0 118-8 8 8 0 01-8 8z"/></g></svg>