<svg xmlns="http://www.w3.org/2000/svg" viewBox="0 0 256.02 202.67"><g data-name="Layer 2"><path class="fill-primary" d="M245.33 181.33H10.67a10.67 10.67 0 100 21.34h234.67a10.67 10.67 0 100-21.34zM112 66.66a32.94 32.94 0 001 8H42.67v106.67H21.33V74.66a21.39 21.39 0 0121.33-21.33H112zm101.33 34.67h21.33v80h-21.33z"/><circle class="fill-primary" cx="117.33" cy="117.33" r="21.33"/><path class="fill-primary" d="M160 178.66v2.67H74.67v-2.67A29.32 29.32 0 01104 149.33h26.67A29.32 29.32 0 01160 178.66z"/><path class="fill-secondary" d="M237.33 0h-90.67A18.68 18.68 0 00128 18.66v48a18.7 18.7 0 0018.67 18.67H160v24a8 8 0 0013.89 5.41l27-29.41h36.48A18.69 18.69 0 00256 66.66v-48A18.68 18.68 0 00237.33 0zm-72 50.66a8 8 0 118-8 8 8 0 01-8 8zm26.67 0a8 8 0 118-8 8 8 0 01-8 8zm26.67 0a8 8 0 118-8 8 8 0 01-8 8z"/></g></svg>