<svg xmlns="http://www.w3.org/2000/svg" viewBox="0 0 256 234.67"><path class="fill-secondary" d="M173.33 146.66h-64V136a8 8 0 00-13.67-5.66L77 149a8 8 0 000 11.31L95.66 179a8 8 0 0013.67-5.67v-10.69h64a8 8 0 100-16zm5.67 55.68l-18.67-18.68a8 8 0 00-13.66 5.67V200h-64a8 8 0 100 16h64v10.67a8 8 0 0013.66 5.67L179 213.66a8 8 0 000-11.32z"/><path class="fill-primary" d="M199.15 41.92A81.14 81.14 0 00128 0C90.19 0 57.39 26.3 49.09 62.18 21.54 65.06 0 88.22 0 116.26c0 27.47 21 54.4 58.11 54.4a29.1 29.1 0 01-4.77-16c0-15 8.2-20.34 27.27-39.41a29.26 29.26 0 0148 10.06h44.73a29.35 29.35 0 0129.33 29.33 29 29 0 01-4.56 15.54C230.64 166.5 256 139.1 256 105.92a64.68 64.68 0 00-56.85-64z"/></svg>