<svg xmlns="http://www.w3.org/2000/svg" viewBox="0 0 234.66 234.66"><g data-name="Layer 2"><g data-name="Layer 1"><path class="fill-primary" d="M128 100.05a9.32 9.32 0 00-9.28-9.39h-17.39v18.67h17.39a9.29 9.29 0 009.28-9.28zm-3.95 25.28h-22.72V144h22.72a9.34 9.34 0 000-18.67z"/><path class="fill-primary" d="M117.33 0a117.33 117.33 0 10117.33 117.33A117.46 117.46 0 00117.33 0zm16 158.18v4.48a8 8 0 01-16 0V160H112v2.68a8 8 0 01-16 0V160h-2.67a8 8 0 01-8-8V82.66a8 8 0 018-8H96V72a8 8 0 1116 0v2.68h5.33V72a8 8 0 0116 0v7.4a25.16 25.16 0 016 35.2 25.22 25.22 0 01-6 43.6z"/></g></g></svg>