<svg xmlns="http://www.w3.org/2000/svg" viewBox="0 0 255.98 245.34"><g data-name="Layer 2"><g data-name="Layer 1"><path class="fill-primary" d="M234.66 234.67a10.61 10.61 0 01-7.54-3.12l-61.79-61.79-35.12 35.12a10.65 10.65 0 01-13.15 1.52l-112-69.33a10.67 10.67 0 1111.23-18.14l104.81 64.88 36.71-36.69a10.68 10.68 0 0115.09 0l69.32 69.33a10.68 10.68 0 01-7.56 18.22z"/><path class="fill-primary" d="M245.31 245.34h-42.67a10.65 10.65 0 01-7.54-18.2l42.68-42.68A10.65 10.65 0 01256 192v42.67a10.66 10.66 0 01-10.69 10.67z"/><path class="fill-secondary" d="M121.38 93.34H90.66v13.33h30.72a6.67 6.67 0 000-13.33zm1.28-22.62a6.66 6.66 0 00-6.61-6.72H90.66v13.33h25.39a6.62 6.62 0 006.61-6.61z"/><path class="fill-secondary" d="M101.31 0a90.78 90.78 0 00-90.67 90.67c0 2.79.19 5.54.45 8.27l108.13 67.89 29.13-29.13a24 24 0 0131.36-2.1A90.18 90.18 0 00101.31 0zm21.35 122.54v8.13a8 8 0 01-16 0v-8h-5.33v8a8 8 0 01-16 0v-8h-2.67a8 8 0 01-8-8V56a8 8 0 018-8h2.67v-8a8 8 0 1116 0v8h5.33v-8a8 8 0 0116 0v9.1a22.4 22.4 0 0112.68 33.2 22.52 22.52 0 01-12.68 40.22z"/></g></g></svg>