<svg xmlns="http://www.w3.org/2000/svg" viewBox="0 0 256.01 245.34"><g data-name="Layer 2"><g data-name="Layer 1"><path class="fill-primary" d="M10.68 245.34a10.67 10.67 0 01-5.63-19.74l112-69.33a10.68 10.68 0 0113.15 1.52l35.12 35.12 61.79-61.79a10.67 10.67 0 0115.09 15.09l-69.33 69.33a10.68 10.68 0 01-15.09 0l-36.7-36.69-104.82 64.88a10.4 10.4 0 01-5.58 1.61z"/><path class="fill-primary" d="M245.34 181.34a10.64 10.64 0 01-7.54-3.12l-42.67-42.67a10.66 10.66 0 017.53-18.21h42.68A10.69 10.69 0 01256 128v42.65a10.66 10.66 0 01-6.58 9.86 10.88 10.88 0 01-4.09.81z"/><path class="fill-secondary" d="M121.4 93.34H90.68v13.33h30.72a6.67 6.67 0 000-13.33zm1.28-22.62a6.66 6.66 0 00-6.61-6.72H90.68v13.33h25.39a6.62 6.62 0 006.61-6.61z"/><path class="fill-secondary" d="M101.34 0a90.68 90.68 0 00-60.42 158.3 89 89 0 0023.73 15.14L109.91 145a24.14 24.14 0 0129.75 3.38l15.23 15.23A90.53 90.53 0 00101.34 0zm21.34 122.54v8.13a8 8 0 01-16 0v-8h-5.33v8a8 8 0 01-16 0v-8h-2.67a8 8 0 01-8-8V56a8 8 0 018-8h2.67v-8a8 8 0 0116 0v8h5.33v-8a8 8 0 0116 0v9.1a22.41 22.41 0 0112.69 33.2 22.52 22.52 0 01-12.69 40.22z"/></g></g></svg>