<svg xmlns="http://www.w3.org/2000/svg" viewBox="0 0 192 256"><g data-name="Layer 2"><g data-name="Layer 1"><path class="fill-secondary" d="M149.33 117.33a10.67 10.67 0 01-10.67-10.67V64a42.67 42.67 0 10-85.33 0v42.67a10.67 10.67 0 11-21.33 0V64a64 64 0 01128 0v42.67a10.66 10.66 0 01-10.67 10.66z"/><path class="fill-primary" d="M110.72 184H80v13.33h30.72a6.67 6.67 0 000-13.33zm1.28-22.61a6.66 6.66 0 00-6.61-6.72H80V168h25.39a6.64 6.64 0 006.61-6.61z"/><path class="fill-primary" d="M168 96H24a24 24 0 00-24 24v112a24 24 0 0024 24h144a24 24 0 0024-24V120a24 24 0 00-24-24zm-56 117.2v8.13a8 8 0 11-16 0v-8h-5.33v8a8 8 0 01-16 0v-8H72a8 8 0 01-8-8v-58.66a8 8 0 018-8h2.67v-8a8 8 0 0116 0v8H96v-8a8 8 0 0116 0v9.11A22.41 22.41 0 01124.69 173 22.52 22.52 0 01112 213.2z"/></g></g></svg>