<svg xmlns="http://www.w3.org/2000/svg" viewBox="0 0 256 256"><path class="fill-primary" d="M123.22 148.5A8 8 0 00116 144H19.36a8 8 0 00-8 8c0 57.34 46.94 104 104.66 104a104.67 104.67 0 0045.45-10.29 8 8 0 003.76-10.71z"/><path class="fill-secondary" d="M152 19a8 8 0 00-8 8v95.39a7.93 7.93 0 00.8 3.49l41.73 85.95a8 8 0 0010.65 3.73c36.29-17.48 58.82-53.19 58.82-93.19C256 65.36 209.34 19 152 19z"/><path class="fill-primary" d="M112 104V8a8 8 0 00-8-8A104.13 104.13 0 000 104a8 8 0 008 8h96a8 8 0 008-8z"/></svg>