<svg xmlns="http://www.w3.org/2000/svg" viewBox="0 0 256 232.19"><path class="fill-secondary" d="M8.93 131A8.93 8.93 0 000 139.91v11.9a32.74 32.74 0 0032.74 32.75h190.52A32.74 32.74 0 00256 151.81v-11.9a8.93 8.93 0 00-8.93-8.93z"/><path class="fill-primary" d="M0 32.74A32.74 32.74 0 0132.74 0h190.52A32.74 32.74 0 01256 32.74v119.07a32.74 32.74 0 01-32.74 32.75H32.74A32.74 32.74 0 010 151.81zm32.74-14.88a14.88 14.88 0 00-14.88 14.88v119.07a14.89 14.89 0 0014.88 14.89h190.52a14.89 14.89 0 0014.88-14.89V32.74a14.88 14.88 0 00-14.88-14.88z"/><path class="fill-primary" d="M108.18 167.64a8.93 8.93 0 014 12l-23.82 47.61a8.93 8.93 0 01-16-8l23.84-47.62a8.92 8.92 0 0112-4zm71.44 63.6a8.94 8.94 0 004-12l-23.82-47.61a8.93 8.93 0 00-16 8l23.81 47.63a8.93 8.93 0 0012.01 3.98z"/><path class="fill-primary" d="M59.53 223.26a8.93 8.93 0 018.94-8.93h119.06a8.93 8.93 0 110 17.86H68.47a8.93 8.93 0 01-8.94-8.93z"/></svg>