<svg xmlns="http://www.w3.org/2000/svg" viewBox="0 0 234.66 256"><g data-name="Layer 2"><path class="fill-primary" d="M117.33 42.67a21.34 21.34 0 1121.33-21.34 21.36 21.36 0 01-21.33 21.34zM152 85.33H82.67a8 8 0 01-8-8 24 24 0 0124-24H136a24 24 0 0124 24 8 8 0 01-8 8z"/><circle class="fill-secondary" cx="202.66" cy="197.33" r="16"/><path class="fill-secondary" d="M226.66 256h-48a8 8 0 01-8-8 24 24 0 0124-24h16a24 24 0 0124 24 8 8 0 01-8 8z"/><circle class="fill-secondary" cx="117.33" cy="197.33" r="16"/><path class="fill-secondary" d="M141.33 256h-48a8 8 0 01-8-8 24 24 0 0124-24h16a24 24 0 0124 24 8 8 0 01-8 8z"/><circle class="fill-secondary" cx="32" cy="197.33" r="16"/><path class="fill-secondary" d="M56 256H8a8 8 0 01-8-8 24 24 0 0124-24h16a24 24 0 0124 24 8 8 0 01-8 8z"/><path class="fill-primary" d="M181.33 96h-128a10.67 10.67 0 000 21.34h6.46l7 65.17c.73 7.33 6.43 9.49 13.76 9.49a37.16 37.16 0 0173.6 0c7.34 0 13-2.16 13.76-9.49l7-65.17h6.47a10.67 10.67 0 000-21.34z"/></g></svg>