<svg xmlns="http://www.w3.org/2000/svg" viewBox="0 0 256 256"><circle class="fill-primary" cx="128" cy="128" r="53.33"/><path class="fill-secondary" d="M128 234.67A106.67 106.67 0 11234.67 128 106.79 106.79 0 01128 234.67zm0-192A85.33 85.33 0 10213.33 128 85.43 85.43 0 00128 42.67z"/><path class="fill-primary" d="M128 53.34a10.67 10.67 0 01-10.67-10.67v-32a10.67 10.67 0 1121.34 0v32A10.67 10.67 0 01128 53.34zM128 256a10.67 10.67 0 01-10.67-10.67v-32a10.67 10.67 0 1121.34 0v32A10.66 10.66 0 01128 256zM42.67 138.67h-32a10.67 10.67 0 110-21.34h32a10.67 10.67 0 110 21.34zm202.66 0h-32a10.67 10.67 0 010-21.34h32a10.67 10.67 0 010 21.34z"/></svg>