<svg xmlns="http://www.w3.org/2000/svg" viewBox="0 0 256 256"><path class="fill-primary" d="M256 178.08a5.58 5.58 0 01-3.84 5.28l-51.81 17-17 51.8a5.6 5.6 0 01-5.3 3.86 5.5 5.5 0 01-5.17-3.57l-44.5-116.88a4.89 4.89 0 01-.38-2 5.58 5.58 0 015.57-5.57 4.89 4.89 0 012 .38l116.86 44.53a5.54 5.54 0 013.57 5.17z"/><path class="fill-secondary" d="M117.33 234.67a117.34 117.34 0 11117.33-117.34 109.73 109.73 0 01-1 15.26 10.66 10.66 0 11-21.12-2.89 89.82 89.82 0 00.82-12.36 96 96 0 10-96 96 92.84 92.84 0 0012.38-.81 10.66 10.66 0 112.88 21.13 112.4 112.4 0 01-15.26 1z"/><path class="fill-secondary" d="M112.27 181.17h-1a64.12 64.12 0 1169.86-69.71 10.67 10.67 0 01-21.25 1.92 42.78 42.78 0 10-46.64 46.57 10.66 10.66 0 01-1 21.27z"/></svg>