<svg xmlns="http://www.w3.org/2000/svg" viewBox="0 0 256.03 213.34"><path class="fill-secondary" d="M235.14 0H20.86A20.9 20.9 0 000 20.88v36.4A38.57 38.57 0 0067.46 83a40.83 40.83 0 0060.54-.84 40.84 40.84 0 0060.53.83A38.57 38.57 0 00256 57.28v-36.4A20.86 20.86 0 00235.14 0zm-179 57.28a17.39 17.39 0 01-34.78 0l-.47-35.94h35.22v35.94zm41.25 17.39a20 20 0 01-19.93-19.93v-33.4h39.88v33.4a20 20 0 01-19.95 19.93zm61.22 0a20 20 0 01-19.94-19.93v-33.4h39.89v33.4a20 20 0 01-19.95 19.93zm76.06-17.39a17.39 17.39 0 11-34.78 0v-36l34.78-.35z"/><path class="fill-primary" d="M234.67 114.78v23.89H21.33v-23.89A61.13 61.13 0 010 103.15v59.52a18.76 18.76 0 0018.67 18.67h81.7c-1.25 5.35-4.58 14-13.46 22.9a5.33 5.33 0 003.78 9.1h74.67a5.33 5.33 0 003.78-9.1c-8.87-8.86-12.28-17.54-13.6-22.9h81.82A18.76 18.76 0 00256 162.67v-59.52a61.53 61.53 0 01-21.33 11.63z"/></svg>