<svg xmlns="http://www.w3.org/2000/svg" viewBox="0 0 255.99 256"><g data-name="Layer 2"><path class="fill-primary" d="M224 0H32A32.09 32.09 0 000 32v170.67a32.09 32.09 0 0032 32h74.24l3.76-21.33H32a10.7 10.7 0 01-10.67-10.67V53.34h213.33v50.77a37.66 37.66 0 0117.8 10l3.52 3.52V32A32.06 32.06 0 00224 0z"/><path class="fill-primary" d="M205.33 69.33H50.66a8.06 8.06 0 00-8 8v48a8.06 8.06 0 008 8h129.8l16-16H58.66v-32h138.67v31.15l.43-.43a45.35 45.35 0 0115.57-10.45V77.33a8.06 8.06 0 00-8-8zm-40.74 79.9l-16.11 16H51.2a8 8 0 010-16zm-32.11 32l-14 14a10.19 10.19 0 00-1.71 2H51.2a8 8 0 010-16z"/><path class="fill-secondary" d="M250.53 142.4l-13.2-13.2c-5.23-5.23-14.79-7.86-24.51 1.89l-79.2 79.2a8.08 8.08 0 00-2.23 4.27l-5.66 32.06a7.92 7.92 0 002.22 7 8.06 8.06 0 005.68 2.34 10.71 10.71 0 001.39-.11l32-5.67a7.83 7.83 0 004.27-2.22l79.2-79.2a18.7 18.7 0 00.04-26.36z"/></g></svg>