<svg xmlns="http://www.w3.org/2000/svg" viewBox="0 0 256 245.34"><path class="fill-primary" d="M170.67 106.67H85.34a10.67 10.67 0 010-21.34h85.33a10.67 10.67 0 110 21.34zM128 64H85.33a10.67 10.67 0 010-21.34H128A10.67 10.67 0 01128 64z"/><path class="fill-secondary" d="M224 32v84.91l-21.33 11.2V32A10.7 10.7 0 00192 21.33H64A10.7 10.7 0 0053.33 32v96.11L32 116.91V32A32.09 32.09 0 0164 0h128a32.09 32.09 0 0132 32z"/><path class="fill-secondary" d="M53.33 128.11V144A10.67 10.67 0 1132 144v-27.09zM224 116.91V144a10.67 10.67 0 11-21.34 0v-15.89z"/><path class="fill-primary" d="M256 98v115.34a32.09 32.09 0 01-32 32H32a32.09 32.09 0 01-32-32V98a32.18 32.18 0 0116.64-28.13L32 61.55v24.32l-5.12 2.77A10.61 10.61 0 0021.33 98v13.33L32 116.91l21.33 11.2 68.48 35.73a13.89 13.89 0 0012.48-.11l68.37-35.63L224 116.91l10.67-5.55V98a10.6 10.6 0 00-5.55-9.39L224 85.87V61.55l15.36 8.32A32.18 32.18 0 01256 98z"/></svg>