<svg xmlns="http://www.w3.org/2000/svg" viewBox="0 0 256 202.66"><path class="fill-primary" d="M192 0H21.33A21.36 21.36 0 000 21.33v96a21.36 21.36 0 0021.33 21.33H192a21.36 21.36 0 0021.33-21.33v-96A21.36 21.36 0 00192 0zm0 48l-73.6 37.12A25.12 25.12 0 01106.67 88a24.39 24.39 0 01-11.84-3L21.34 48V30.08l80.85 40.75a9.64 9.64 0 008.85.11l81-40.86z"/><path class="fill-secondary" d="M234.67 64v53.33A42.72 42.72 0 01192 160H42.67v21.33A21.36 21.36 0 0064 202.66h170.67A21.36 21.36 0 00256 181.33v-96A21.36 21.36 0 00234.67 64z"/></svg>