<svg xmlns="http://www.w3.org/2000/svg" viewBox="0 0 234.67 256.03"><path class="fill-primary" d="M46.16 202.66a8 8 0 01-7.73-6C13.79 102.26 59.6 36.21 174.56.36a8 8 0 0110.09 5.48c7.2 25.73 9.14 50.4 5.78 73.32a8 8 0 01-3.43 5.47l-38.74 26.16 20.34 10.49a8 8 0 013.17 11.27C146.62 174 101 199.52 46.64 202.66z"/><path class="fill-secondary" d="M42.91 247.54a10.66 10.66 0 018.22-12.64l45.92-9.73a56.7 56.7 0 0128.1 1.39l21.34 7.06c2.58.85 9.44 1.6 14.21.08l24.91-7.7c11.57-3.62 26.92-1.81 35.54 4.28l9 6.4a10.67 10.67 0 01-12.32 17.43l-9-6.4c-2.5-1.79-11.07-3.15-16.86-1.33l-24.92 7.74a47.38 47.38 0 01-27.26-.2l-21.31-7.06a35.17 35.17 0 00-17-.77l-45.91 9.73a10.72 10.72 0 01-12.66-8.28z"/><path class="fill-primary" d="M4.4 254a10.65 10.65 0 01-2.35-14.9l85.32-117.37a10.67 10.67 0 0117.25 12.55L19.29 251.6A10.65 10.65 0 014.4 254z"/></svg>