<svg xmlns="http://www.w3.org/2000/svg" viewBox="0 0 256 256"><g data-name="Layer 2"><g data-name="Layer 1"><path class="fill-primary" d="M88.74 145.39A8 8 0 0182 133.14L107.14 93a8 8 0 0113.55 8.5L95.5 141.63a7.94 7.94 0 01-6.76 3.76zM154 76.91a8 8 0 01-1.75-15.81l43.95-9.8a8 8 0 013.49 15.63l-44 9.81a9.41 9.41 0 01-1.69.17z"/><circle class="fill-primary" cx="74.67" cy="160" r="32"/><circle class="fill-primary" cx="128" cy="74.67" r="32"/><circle class="fill-primary" cx="224" cy="53.33" r="32"/><path class="fill-secondary" d="M21.33 256a10.67 10.67 0 01-10.67-10.67V10.67a10.67 10.67 0 0121.34 0v234.67A10.66 10.66 0 0121.33 256z"/><path class="fill-secondary" d="M245.33 245.33H10.67a10.67 10.67 0 110-21.33h234.67a10.67 10.67 0 110 21.33z"/></g></g></svg>