<svg xmlns="http://www.w3.org/2000/svg" viewBox="0 0 255.98 234.67"><path class="fill-secondary" d="M66.66 186.66a40 40 0 01-37.8-27.22l-.36-1.23a39.09 39.09 0 01-1.86-11.57V73.92L.78 160.32a24.24 24.24 0 0017 29.39l164.92 44.18a24.08 24.08 0 006.13.78 23.73 23.73 0 0023-17.44l9.6-30.56H66.66zM96 74.66a21.33 21.33 0 10-21.34-21.33A21.36 21.36 0 0096 74.66z"/><path class="fill-primary" d="M229.31 0h-160a26.71 26.71 0 00-26.67 26.67V144a26.71 26.71 0 0026.67 26.67h160A26.7 26.7 0 00256 144V26.67A26.69 26.69 0 00229.31 0zm-160 21.33h160a5.32 5.32 0 015.33 5.33v75.72l-33.7-39.31a19.1 19.1 0 00-14.3-6.56 18.63 18.63 0 00-14.26 6.74l-39.6 47.55-12.89-12.9a18.75 18.75 0 00-26.47 0L64 127.34V26.66a5.33 5.33 0 015.33-5.33z"/></svg>