<svg xmlns="http://www.w3.org/2000/svg" viewBox="0 0 256 256"><path class="fill-primary" d="M244.27 0H150.4a11.73 11.73 0 00-11.73 11.73v147.2a11.73 11.73 0 0011.73 11.73h93.87A11.73 11.73 0 00256 158.93V11.73A11.73 11.73 0 00244.27 0z"/><path class="fill-secondary" d="M11.73 170.67h93.87a11.73 11.73 0 0011.73-11.73V11.74A11.73 11.73 0 00105.6 0H11.73A11.73 11.73 0 000 11.73v147.2a11.74 11.74 0 0011.73 11.74z"/><path class="fill-primary" d="M244.27 192H11.73A11.73 11.73 0 000 203.73v40.53A11.73 11.73 0 0011.73 256h232.53A11.73 11.73 0 00256 244.27v-40.53A11.73 11.73 0 00244.27 192z"/></svg>