<svg xmlns="http://www.w3.org/2000/svg" viewBox="0 0 256 256"><path class="fill-secondary" d="M11.73 256h40.53A11.73 11.73 0 0064 244.27v-40.53A11.73 11.73 0 0052.27 192H11.73A11.73 11.73 0 000 203.73v40.53A11.73 11.73 0 0011.73 256z"/><path class="fill-primary" d="M96 244.27A11.73 11.73 0 00107.73 256h40.53A11.73 11.73 0 00160 244.27v-40.53A11.73 11.73 0 00148.27 192h-40.53A11.73 11.73 0 0096 203.73z"/><path class="fill-secondary" d="M244.27 192h-40.53A11.73 11.73 0 00192 203.73v40.53A11.73 11.73 0 00203.73 256h40.53A11.73 11.73 0 00256 244.27v-40.53A11.73 11.73 0 00244.27 192z"/><path class="fill-primary" d="M11.73 160h40.53A11.73 11.73 0 0064 148.27v-40.53A11.73 11.73 0 0052.27 96H11.73A11.73 11.73 0 000 107.73v40.53A11.73 11.73 0 0011.73 160z"/><path class="fill-secondary" d="M107.73 160h40.53A11.73 11.73 0 00160 148.27v-40.53A11.73 11.73 0 00148.27 96h-40.53A11.73 11.73 0 0096 107.73v40.53A11.73 11.73 0 00107.73 160z"/><path class="fill-primary" d="M244.27 96h-40.53A11.73 11.73 0 00192 107.73v40.53A11.73 11.73 0 00203.73 160h40.53A11.73 11.73 0 00256 148.27v-40.53A11.73 11.73 0 00244.27 96zm0-96H11.73A11.73 11.73 0 000 11.73v40.53A11.73 11.73 0 0011.73 64h232.53A11.73 11.73 0 00256 52.27V11.73A11.73 11.73 0 00244.27 0z"/></svg>