<svg xmlns="http://www.w3.org/2000/svg" viewBox="0 0 234.67 234.67"><path class="fill-primary" d="M177.25 156.4a10.67 10.67 0 01-7.54-18.21l28.43-28.43a51 51 0 0015.2-36.61 51.88 51.88 0 00-51.82-51.81A51.09 51.09 0 00125 36.51L96.48 65a10.67 10.67 0 01-15.09-15.11l28.43-28.43A72.25 72.25 0 01161.52 0a73.23 73.23 0 0173.15 73.15 72.24 72.24 0 01-21.49 51.73l-28.38 28.39a10.67 10.67 0 01-7.55 3.13zM73.14 234.67A73.22 73.22 0 010 161.52a72.28 72.28 0 0121.47-51.71l28.4-28.4A10.67 10.67 0 0165 96.5l-28.47 28.43a51.15 51.15 0 00-15.2 36.61 51.86 51.86 0 0051.81 51.8 51.14 51.14 0 0036.57-15.16l28.47-28.47a10.67 10.67 0 1115.09 15.09l-28.44 28.43a72.22 72.22 0 01-51.69 21.44z"/><path class="fill-secondary" d="M74.67 170.67a10.67 10.67 0 01-7.53-18.21l85.32-85.32a10.67 10.67 0 0115.09 15.08l-85.33 85.33a10.69 10.69 0 01-7.55 3.12z"/></svg>