<svg xmlns="http://www.w3.org/2000/svg" viewBox="0 0 226.67 255.98"><path class="fill-secondary" d="M48 58.67H10.67a10.67 10.67 0 010-21.34H48a10.67 10.67 0 010 21.34zM48 112H10.67a10.67 10.67 0 110-21.34H48A10.67 10.67 0 0148 112zm0 53.33H10.67a10.67 10.67 0 110-21.33H48a10.67 10.67 0 010 21.33zm0 53.34H10.67a10.67 10.67 0 110-21.34H48a10.67 10.67 0 010 21.34z"/><path class="fill-primary" d="M197.34 0h-144A29.35 29.35 0 0024 29.33v197.33A29.35 29.35 0 0053.34 256h144a29.35 29.35 0 0029.33-29.32V29.33A29.35 29.35 0 00197.34 0zM88 53.33h42.67a10.67 10.67 0 110 21.34H88a10.67 10.67 0 110-21.34zm96 149.34H88a10.67 10.67 0 110-21.34h96a10.67 10.67 0 110 21.34zm0-42.67H88a10.67 10.67 0 110-21.34h96a10.67 10.67 0 010 21.34zm0-42.67H88A10.67 10.67 0 1188 96h96a10.67 10.67 0 110 21.33z"/></svg>