<svg xmlns="http://www.w3.org/2000/svg" viewBox="0 0 256 256"><path class="fill-primary" d="M184 0H29.33A29.35 29.35 0 000 29.33v37.33A29.36 29.36 0 0029.33 96H184a29.35 29.35 0 0029.33-29.33V29.34A29.36 29.36 0 00184 0z"/><path class="fill-secondary" d="M229.33 37.33h-16v21.33h16a5.33 5.33 0 015.33 5.34v48a5.33 5.33 0 01-5.33 5.33H122.66a32 32 0 00-32 32V160H112v-10.67a10.69 10.69 0 0110.67-10.67h106.67A26.68 26.68 0 00256 112V64a26.69 26.69 0 00-26.67-26.67z"/><path class="fill-primary" d="M120 160H82.67A18.68 18.68 0 0064 178.67v58.67A18.68 18.68 0 0082.67 256H120a18.69 18.69 0 0018.67-18.67v-58.67A18.69 18.69 0 00120 160z"/></svg>