<svg xmlns="http://www.w3.org/2000/svg" viewBox="0 0 213.34 256"><path class="fill-primary" d="M106.67 22.22L192 53.81v76.06c0 71.62-68.77 98.71-85.33 104.19-16.75-5.55-85.34-32.65-85.34-104.19V53.81zm0-22.22a7.81 7.81 0 00-2.78.5L5.22 37A8 8 0 000 44.53v85.34C0 227 103.57 255.47 104.62 255.74a8 8 0 002 .26 8.36 8.36 0 002-.27c1.06-.27 104.62-28.79 104.62-125.87V44.51a8 8 0 00-5.21-7.5L109.46.48a8.31 8.31 0 00-2.79-.48z"/><path class="fill-secondary" d="M51.12 109.33h4.43c10.55 0 19.12 9 19.12 20s-8.57 20-19.12 20H40a8 8 0 010-16h15.55c1.68 0 3.12-1.84 3.12-4s-1.42-4-3.12-4h-4.43c-10.54 0-19.12-9-19.12-20s8.58-20 19.12-20h15.55a8 8 0 010 16H51.12c-1.68 0-3.12 1.84-3.12 4s1.44 4 3.12 4zm68.88 0a8 8 0 010 16h-18.67v5.33a2.68 2.68 0 002.67 2.67h16a8 8 0 110 16h-16a18.69 18.69 0 01-18.67-18.67V104A18.69 18.69 0 01104 85.33h16a8 8 0 010 16h-16a2.68 2.68 0 00-2.67 2.67v5.33zm42.67-24h-5.33A18.69 18.69 0 00138.67 104v26.67a18.69 18.69 0 0018.67 18.67h5.33a18.68 18.68 0 0018.67-18.67V104a18.7 18.7 0 00-18.67-18.67zm2.67 45.34a2.68 2.68 0 01-2.67 2.67h-5.33a2.68 2.68 0 01-2.67-2.67V104a2.68 2.68 0 012.67-2.67h5.33a2.68 2.68 0 012.67 2.67z"/></svg>