<svg xmlns="http://www.w3.org/2000/svg" viewBox="0 0 256 256"><path class="fill-secondary" d="M250.58 126.14l-56-19a8 8 0 00-5.16 0l-56 19a8 8 0 00-5.42 7.57v42.87c0 52.32 58.38 77.72 60.88 78.8a8.19 8.19 0 003.12.62 7.85 7.85 0 003.12-.64c2.5-1.06 60.88-26.48 60.88-78.78v-42.87a8 8 0 00-5.42-7.57zm-23.52 40.45l-29.33 37.33a10.66 10.66 0 01-15.33 1.5l-18.67-16a10.66 10.66 0 0113.87-16.19l10.22 8.77 22.47-28.57a10.66 10.66 0 0116.77 13.18z"/><path class="fill-primary" d="M202.67 0H32a32 32 0 000 64h170.67a32 32 0 000-64zM32 42.67A10.67 10.67 0 1142.67 32 10.67 10.67 0 0132 42.67zm42.67 0A10.67 10.67 0 1185.34 32a10.67 10.67 0 01-10.67 10.67zM32 85.33a32 32 0 000 64h74.67v-15.57a29.38 29.38 0 0120-27.84l55.89-19a29 29 0 019.49-1.6zM32 128a10.67 10.67 0 1110.67-10.67A10.7 10.7 0 0132 128zm42.67 0a10.67 10.67 0 1110.67-10.67A10.7 10.7 0 0174.67 128zm32 48.53v-5.87H32a32 32 0 000 64h95.68c-12.27-15.57-21.01-35.09-21.01-58.13zM32 213.33a10.67 10.67 0 1110.67-10.66A10.7 10.7 0 0132 213.33zm42.67 0a10.67 10.67 0 1110.67-10.66 10.7 10.7 0 01-10.67 10.66z"/></svg>