<svg xmlns="http://www.w3.org/2000/svg" viewBox="0 0 256 202.66"><path class="fill-primary" d="M235.33 170.66h-13a10.68 10.68 0 110-21.35h12.33V115l-29.94-40.65-34.05.29v74.69H176a10.67 10.67 0 110 21.33h-16A10.68 10.68 0 01149.33 160V73.58A20.49 20.49 0 01170 53.31h35.12a20.88 20.88 0 0116.82 8.47l30.19 41.44A19.87 19.87 0 01256 115v35.4a20.48 20.48 0 01-20.67 20.26z"/><path class="fill-primary" d="M160 170.66H89.81a10.68 10.68 0 010-21.35h59.52V20.59l-128.71.74.71 128.72 19.67-.72a10.67 10.67 0 110 21.34H20.62A20.66 20.66 0 010 150.05V20.62A20.64 20.64 0 0120.62 0h129.43a20.64 20.64 0 0120.62 20.62V160A10.67 10.67 0 01160 170.66z"/><path class="fill-primary" d="M200 202.66a32 32 0 1132-32 32 32 0 01-32 32zm-136 0a32 32 0 1132-32 32 32 0 01-32 32z"/><path class="fill-secondary" d="M41.47 89.33A9.29 9.29 0 0136 87.52 9.84 9.84 0 0133.76 74l23.71-33.94a9.35 9.35 0 0113.22-2.25 9.85 9.85 0 012.21 13.52L49.18 85.26a9.35 9.35 0 01-7.71 4.07zm64 32a9.29 9.29 0 01-5.5-1.81A9.86 9.86 0 0197.76 106l23.71-33.93a9.36 9.36 0 0113.22-2.26 9.87 9.87 0 012.21 13.54l-23.72 33.93a9.35 9.35 0 01-7.71 4.07zm-42.3 0a9.65 9.65 0 01-5.6-1.79 10.17 10.17 0 01-2.5-14l44.31-65.22a9.7 9.7 0 0113.69-2.54 10.16 10.16 0 012.5 14L71.26 117a9.73 9.73 0 01-8.09 4.33z"/></svg>