<svg xmlns="http://www.w3.org/2000/svg" viewBox="0 0 160.75 256"><path class="fill-secondary" d="M44.65 0a8.93 8.93 0 00-8.93 8.93v11.91a20.84 20.84 0 0020.84 20.84h47.63A20.84 20.84 0 00125 20.84V8.93A8.93 8.93 0 00116.09 0z"/><path class="fill-primary" d="M0 32.74A32.74 32.74 0 0132.75 0H128a32.75 32.75 0 0132.75 32.74v190.52A32.75 32.75 0 01128 256H32.75A32.74 32.74 0 010 223.26zm32.75-14.88a14.88 14.88 0 00-14.89 14.88v190.52a14.88 14.88 0 0014.89 14.88H128a14.88 14.88 0 0014.88-14.88V32.74A14.88 14.88 0 00128 17.86z"/></svg>