<svg xmlns="http://www.w3.org/2000/svg" viewBox="0 0 256 234.67"><path class="fill-secondary" d="M192 226.67h-53.33v-69.33a18.67 18.67 0 0118.67-18.67h16A18.67 18.67 0 01192 157.34v69.33z"/><path class="fill-primary" d="M245.33 106.67H10.67a10.67 10.67 0 110-21.33h234.67a10.67 10.67 0 110 21.33z"/><path class="fill-primary" d="M234.66 101.34a10.65 10.65 0 01-10.56-9.24l-8.2-61.49a10.73 10.73 0 00-10.57-9.27H50.69a10.72 10.72 0 00-10.58 9.27L31.92 92.1a10.67 10.67 0 01-21.15-2.82L19 27.79A32.08 32.08 0 0150.67 0h154.64A32.08 32.08 0 01237 27.79l8.2 61.49a10.66 10.66 0 01-9.17 12 12.81 12.81 0 01-1.39.08z"/><path class="fill-primary" d="M69.34 101.34a11.52 11.52 0 01-1.42-.09 10.68 10.68 0 01-9.17-12l10.67-80a10.67 10.67 0 0121.16 2.82l-10.68 80a10.65 10.65 0 01-10.56 9.27zm58.66 0a10.67 10.67 0 01-10.67-10.67v-80a10.67 10.67 0 1121.34 0v80A10.67 10.67 0 01128 101.34zm58.66 0a10.65 10.65 0 01-10.56-9.24l-10.68-80a10.67 10.67 0 1121.16-2.82l10.67 80a10.66 10.66 0 01-9.17 12 13.83 13.83 0 01-1.42.06z"/><path class="fill-primary" d="M202.67 234.67H53.34a32 32 0 01-32-32V96A10.64 10.64 0 0132 85.34h192A10.68 10.68 0 01234.67 96v106.69a32 32 0 01-32 31.98zm-160-128v96a10.68 10.68 0 0010.67 10.67h149.33a10.67 10.67 0 0010.67-10.67v-96z"/><path class="fill-secondary" d="M98.67 192h-16A18.7 18.7 0 0164 173.34v-16a18.7 18.7 0 0118.67-18.67h16a18.69 18.69 0 0118.67 18.67v16A18.71 18.71 0 0198.67 192z"/></svg>