<svg xmlns="http://www.w3.org/2000/svg" viewBox="0 0 255.98 256"><circle class="fill-primary" cx="128" cy="26.67" r="26.67"/><circle class="fill-primary" cx="202.67" cy="176" r="26.67"/><circle class="fill-primary" cx="53.33" cy="176" r="26.67"/><path class="fill-primary" d="M173.33 106.67H82.66a8 8 0 01-8-8v-5.33A29.35 29.35 0 01104 64h48a29.35 29.35 0 0129.33 29.32v5.33a8 8 0 01-8 8.02zM248 256h-90.67a8 8 0 01-8-8v-5.33a29.36 29.36 0 0129.33-29.33h48A29.36 29.36 0 01256 242.67V248a8 8 0 01-8 8zm-149.33 0H8a8 8 0 01-8-8v-5.33a29.36 29.36 0 0129.33-29.33h48a29.37 29.37 0 0129.33 29.33V248a8 8 0 01-8 8z"/><path class="fill-secondary" d="M29.33 136.13a8 8 0 01-8-8 107.1 107.1 0 0161.73-96.77 8 8 0 116.73 14.51 91 91 0 00-52.48 82.26 8 8 0 01-7.98 8zm197.34 0a8 8 0 01-8-8 91 91 0 00-52.48-82.26 8 8 0 116.74-14.51 107.09 107.09 0 0161.73 96.77 8 8 0 01-8 8zM128 234.8a105.08 105.08 0 01-11.15-.58 8 8 0 011.66-15.9 93.73 93.73 0 0019.6-.06 8 8 0 011.76 15.9 110.68 110.68 0 01-11.87.64z"/></svg>