<svg xmlns="http://www.w3.org/2000/svg" viewBox="0 0 256 244.09"><path class="fill-primary" d="M0 68.47a32.74 32.74 0 0132.74-32.75h190.52A32.74 32.74 0 01256 68.47v142.88a32.74 32.74 0 01-32.74 32.74H32.74A32.74 32.74 0 010 211.35zm32.74-14.89a14.88 14.88 0 00-14.88 14.89v142.88a14.88 14.88 0 0014.88 14.88h190.52a14.88 14.88 0 0014.88-14.88V68.47a14.88 14.88 0 00-14.88-14.89z"/><path class="fill-primary" d="M26.43 2.62a8.93 8.93 0 0112.63 0L68.47 32l29.4-29.4a8.93 8.93 0 0112.63 12.64L74.78 51a8.94 8.94 0 01-12.63 0L26.43 15.24a8.91 8.91 0 010-12.62z"/><path class="fill-secondary" d="M109.76 85.31a8.92 8.92 0 00-14.5 7v95.25a8.93 8.93 0 0014.5 7l59.54-47.63a8.94 8.94 0 000-13.95z"/></svg>