<svg xmlns="http://www.w3.org/2000/svg" viewBox="0 0 256 256"><g data-name="Layer 2"><path class="fill-primary" d="M170.67 37.33V32a32.09 32.09 0 00-32-32H32A32.09 32.09 0 000 32v192a32.09 32.09 0 0032 32h106.67a32.09 32.09 0 0032-32v-69.33h-21.33v58.67h-128V32A10.7 10.7 0 0132 21.33h106.69A10.7 10.7 0 01149.36 32v5.33z"/><circle class="fill-primary" cx="85.33" cy="149.33" r="21.33"/><path class="fill-primary" d="M128 210.67v2.67H42.67v-2.67A29.32 29.32 0 0172 181.34h26.67A29.3 29.3 0 01128 210.67z"/><path class="fill-secondary" d="M248 138.67a8 8 0 01-4.8-1.6l-19.38-14.53a18.67 18.67 0 01-18.49 16.13h-58.67A18.69 18.69 0 01128 120V69.33c0-7.38 4.9-16 18.67-16h58.67A18.69 18.69 0 01224 70.94l18.9-15.76a8 8 0 0113.1 6.15v69.33a8 8 0 01-8 8z"/></g></svg>