<svg xmlns="http://www.w3.org/2000/svg" viewBox="0 0 320 512"><!--! Font Awesome Pro 6.4.0 by @fontawesome - https://fontawesome.com License - https://fontawesome.com/license (Commercial License) Copyright 2023 Fonticons, Inc. --><path d="M0 40c0-4.4 3.6-8 8-8H288c3.3 0 6.3 2.1 7.5 5.2s.3 6.6-2.2 8.8L93 224h99c70.7 0 128 57.3 128 128s-57.3 128-128 128H90c-38.4 0-73.1-22.9-88.2-58.2L.6 419.2c-1.7-4.1 .1-8.8 4.2-10.5s8.8 .1 10.5 4.2l1.1 2.7C29.1 444.9 58 464 90 464H192c61.9 0 112-50.1 112-112s-50.1-112-112-112H72c-3.3 0-6.3-2.1-7.5-5.2s-.3-6.6 2.2-8.8L267 48H8c-4.4 0-8-3.6-8-8z"/></svg>