<svg xmlns="http://www.w3.org/2000/svg" viewBox="0 0 320 512"><!--! Font Awesome Pro 6.4.0 by @fontawesome - https://fontawesome.com License - https://fontawesome.com/license (Commercial License) Copyright 2023 Fonticons, Inc. --><path d="M48.2 38.1c.9-3.6 4.1-6.1 7.8-6.1H280c4.4 0 8 3.6 8 8s-3.6 8-8 8H62.2l-44 176H192c70.7 0 128 57.3 128 128s-57.3 128-128 128H95.7c-37.3 0-71.8-20-90.3-52.4L1.1 420c-2.2-3.8-.9-8.7 3-10.9s8.7-.9 10.9 3l4.4 7.6C35 447.1 64.1 464 95.7 464H192c61.9 0 112-50.1 112-112s-50.1-112-112-112H8c-2.5 0-4.8-1.1-6.3-3.1S-.4 232.4 .2 230.1l48-192z"/></svg>