<svg xmlns="http://www.w3.org/2000/svg" viewBox="0 0 576 512"><!--! Font Awesome Pro 6.4.0 by @fontawesome - https://fontawesome.com License - https://fontawesome.com/license (Commercial License) Copyright 2023 Fonticons, Inc. --><path d="M440 48V96h8c17.7 0 32 14.3 32 32s-14.3 32-32 32h-8v40H560V96c0-26.5-21.5-48-48-48H440zM416 160c-17.7 0-32-14.3-32-32s14.3-32 32-32h8V48H280V96h8c17.7 0 32 14.3 32 32s-14.3 32-32 32h-8v40H424V160h-8zM264 96V48H152V96h8c17.7 0 32 14.3 32 32s-14.3 32-32 32h-8v40H264V160h-8c-17.7 0-32-14.3-32-32s14.3-32 32-32h8zM128 160c-17.7 0-32-14.3-32-32s14.3-32 32-32h8V48H64C37.5 48 16 69.5 16 96V200H136V160h-8zM144 32H272 432h80c35.3 0 64 28.7 64 64V208 416c0 35.3-28.7 64-64 64H432 272 144 64c-35.3 0-64-28.7-64-64V208 96C0 60.7 28.7 32 64 32h80zM16 216V416c0 26.5 21.5 48 48 48h72V416h-8c-17.7 0-32-14.3-32-32s14.3-32 32-32h8V320h-8c-17.7 0-32-14.3-32-32s14.3-32 32-32h8V216H16zM152 464H264V416h-8c-17.7 0-32-14.3-32-32s14.3-32 32-32h8V320h-8c-17.7 0-32-14.3-32-32s14.3-32 32-32h8V216H152v40h8c17.7 0 32 14.3 32 32s-14.3 32-32 32h-8v32h8c17.7 0 32 14.3 32 32s-14.3 32-32 32h-8v48zm128-48v48H424V416h-8c-17.7 0-32-14.3-32-32s14.3-32 32-32h8V216H280v40h8c17.7 0 32 14.3 32 32s-14.3 32-32 32h-8v32h8c17.7 0 32 14.3 32 32s-14.3 32-32 32h-8zm160-64h8c17.7 0 32 14.3 32 32s-14.3 32-32 32h-8v48h72c26.5 0 48-21.5 48-48V216H440V352zM128 112c-8.8 0-16 7.2-16 16s7.2 16 16 16h32c8.8 0 16-7.2 16-16s-7.2-16-16-16H128zM112 288c0 8.8 7.2 16 16 16h32c8.8 0 16-7.2 16-16s-7.2-16-16-16H128c-8.8 0-16 7.2-16 16zm16 80c-8.8 0-16 7.2-16 16s7.2 16 16 16h32c8.8 0 16-7.2 16-16s-7.2-16-16-16H128zM240 128c0 8.8 7.2 16 16 16h32c8.8 0 16-7.2 16-16s-7.2-16-16-16H256c-8.8 0-16 7.2-16 16zm16 144c-8.8 0-16 7.2-16 16s7.2 16 16 16h32c8.8 0 16-7.2 16-16s-7.2-16-16-16H256zM240 384c0 8.8 7.2 16 16 16h32c8.8 0 16-7.2 16-16s-7.2-16-16-16H256c-8.8 0-16 7.2-16 16zM416 112c-8.8 0-16 7.2-16 16s7.2 16 16 16h32c8.8 0 16-7.2 16-16s-7.2-16-16-16H416zM400 384c0 8.8 7.2 16 16 16h32c8.8 0 16-7.2 16-16s-7.2-16-16-16H416c-8.8 0-16 7.2-16 16z"/></svg>