<svg xmlns="http://www.w3.org/2000/svg" viewBox="0 0 448 512"><!--! Font Awesome Pro 6.4.0 by @fontawesome - https://fontawesome.com License - https://fontawesome.com/license (Commercial License) Copyright 2023 Fonticons, Inc. --><path d="M261.7 13.7c3.1-3.1 3.1-8.2 0-11.3s-8.2-3.1-11.3 0L241 11.7C226.9 25.8 218.2 44.3 216.4 64H96C43 64 0 107 0 160v16c0 17.7 14.3 32 32 32H416c17.7 0 32-14.3 32-32V160c0-53-43-96-96-96H232.5c1.8-15.4 8.7-29.9 19.8-41l9.4-9.4zM352 80c44.2 0 80 35.8 80 80v16c0 8.8-7.2 16-16 16H32c-8.8 0-16-7.2-16-16V160c0-44.2 35.8-80 80-80H352zM48.4 240c4.1 78.1 39 189.3 165.5 236.4c6.5 2.4 13.7 2.4 20.2 0C360.6 429.3 395.5 318.1 399.6 240h-16c-4 74.5-37.4 177.5-155.1 221.4c-2.9 1.1-6.1 1.1-9 0C101.8 417.5 68.5 314.5 64.4 240h-16z"/></svg>