<svg xmlns="http://www.w3.org/2000/svg" viewBox="0 0 576 512"><!--! Font Awesome Pro 6.4.0 by @fontawesome - https://fontawesome.com License - https://fontawesome.com/license (Commercial License) Copyright 2023 Fonticons, Inc. --><path d="M64 16C37.5 16 16 37.5 16 64v96c0 26.5 21.5 48 48 48H512c26.5 0 48-21.5 48-48V64c0-26.5-21.5-48-48-48H64zM0 64C0 28.7 28.7 0 64 0H512c35.3 0 64 28.7 64 64v96c0 35.3-28.7 64-64 64H64c-35.3 0-64-28.7-64-64V64zM256 424c0 48.6-39.4 88-88 88s-88-39.4-88-88c0-28.8 13.9-54.4 35.3-70.4c3.5-2.7 8.5-1.9 11.2 1.6s1.9 8.6-1.6 11.2C107.3 379.5 96 400.4 96 424c0 39.8 32.2 72 72 72s72-32.2 72-72V256h16V424zm64-168h16V392c0 39.8 32.2 72 72 72s72-32.2 72-72c0-23.6-11.3-44.5-28.8-57.6c-3.5-2.7-4.3-7.7-1.6-11.2s7.7-4.3 11.2-1.6c21.4 16 35.2 41.6 35.2 70.4c0 48.6-39.4 88-88 88s-88-39.4-88-88V256zM104 128H472c4.4 0 8 3.6 8 8s-3.6 8-8 8H104c-4.4 0-8-3.6-8-8s3.6-8 8-8z"/></svg>