<svg xmlns="http://www.w3.org/2000/svg" viewBox="0 0 640 512"><!--! Font Awesome Pro 6.4.0 by @fontawesome - https://fontawesome.com License - https://fontawesome.com/license (Commercial License) Copyright 2023 Fonticons, Inc. --><path d="M463.8 94.5c7.6-9.2 18.9-14.5 30.8-14.5H632c4.4 0 8-3.6 8-8s-3.6-8-8-8H494.6c-16.7 0-32.5 7.5-43.2 20.3L176.2 417.5c-7.6 9.2-18.9 14.5-30.8 14.5H8c-4.4 0-8 3.6-8 8s3.6 8 8 8H145.4c16.7 0 32.5-7.5 43.2-20.3L463.8 94.5zM424 432c-4.4 0-8 3.6-8 8s3.6 8 8 8H632c4.4 0 8-3.6 8-8s-3.6-8-8-8H424z"/></svg>