<svg xmlns="http://www.w3.org/2000/svg" viewBox="0 0 512 512"><!--! Font Awesome Pro 6.4.0 by @fontawesome - https://fontawesome.com License - https://fontawesome.com/license (Commercial License) Copyright 2023 Fonticons, Inc. --><path d="M256 0c-43 0-82.8 25.6-111.2 49.9c-14.3 12.3-26.1 24.6-34.3 33.8c-4.1 4.6-7.3 8.4-9.5 11.2c-.3 .4-.6 .8-.9 1.2H64C28.7 96 0 124.7 0 160v96 8 8V448c0 35.3 28.7 64 64 64H448c35.3 0 64-28.7 64-64V272v-8-8V160c0-35.3-28.7-64-64-64H411.9c-.3-.4-.6-.7-.9-1.2c-2.2-2.7-5.4-6.6-9.5-11.2c-8.2-9.2-19.9-21.5-34.3-33.8C338.8 25.6 299 0 256 0zM407.9 112c.1 0 .1 0 .2 0H448c26.5 0 48 21.5 48 48v96H16V160c0-26.5 21.5-48 48-48H407.9zM391 96H121c.5-.5 1-1.1 1.5-1.7c7.8-8.8 19.1-20.5 32.7-32.2C182.8 38.4 219 16 256 16s73.2 22.4 100.8 46.1c13.7 11.7 24.9 23.4 32.7 32.2c.5 .6 1 1.1 1.5 1.7zM496 448c0 26.5-21.5 48-48 48H64c-26.5 0-48-21.5-48-48V272H496V448zM112 336a16 16 0 1 0 -32 0 16 16 0 1 0 32 0zm0 96a16 16 0 1 0 -32 0 16 16 0 1 0 32 0zm16-32a16 16 0 1 0 0-32 16 16 0 1 0 0 32zm48-64a16 16 0 1 0 -32 0 16 16 0 1 0 32 0zM160 448a16 16 0 1 0 0-32 16 16 0 1 0 0 32zm48-64a16 16 0 1 0 -32 0 16 16 0 1 0 32 0zm16-32a16 16 0 1 0 0-32 16 16 0 1 0 0 32zm16 80a16 16 0 1 0 -32 0 16 16 0 1 0 32 0zm16-32a16 16 0 1 0 0-32 16 16 0 1 0 0 32zm48-64a16 16 0 1 0 -32 0 16 16 0 1 0 32 0zM288 448a16 16 0 1 0 0-32 16 16 0 1 0 0 32zm48-64a16 16 0 1 0 -32 0 16 16 0 1 0 32 0zm48 16a16 16 0 1 0 0-32 16 16 0 1 0 0 32zm-16-64a16 16 0 1 0 -32 0 16 16 0 1 0 32 0zm48 16a16 16 0 1 0 0-32 16 16 0 1 0 0 32zm-48 80a16 16 0 1 0 -32 0 16 16 0 1 0 32 0zm48 16a16 16 0 1 0 0-32 16 16 0 1 0 0 32zM80 192a16 16 0 1 1 32 0 16 16 0 1 1 -32 0zm48 0a32 32 0 1 0 -64 0 32 32 0 1 0 64 0zm64-16a16 16 0 1 1 0 32 16 16 0 1 1 0-32zm0 48a32 32 0 1 0 0-64 32 32 0 1 0 0 64zm112-32a16 16 0 1 1 32 0 16 16 0 1 1 -32 0zm48 0a32 32 0 1 0 -64 0 32 32 0 1 0 64 0zm64-16a16 16 0 1 1 0 32 16 16 0 1 1 0-32zm0 48a32 32 0 1 0 0-64 32 32 0 1 0 0 64z"/></svg>