<svg xmlns="http://www.w3.org/2000/svg" viewBox="0 0 640 512"><!--! Font Awesome Pro 6.4.0 by @fontawesome - https://fontawesome.com License - https://fontawesome.com/license (Commercial License) Copyright 2023 Fonticons, Inc. --><path d="M352 80A64 64 0 1 1 224 80a64 64 0 1 1 128 0zM288 0c-44.2 0-80 35.8-80 80c0 41.5 31.6 75.6 72 79.6c0 .1 0 .3 0 .4v48H200c-4.4 0-8 3.6-8 8s3.6 8 8 8h80V496h-8C170.4 496 88 413.6 88 312V284.8l58.1 64.5c3 3.3 8 3.6 11.3 .6s3.6-8 .6-11.3l-72-80C84.4 257 82.3 256 80 256s-4.4 1-5.9 2.6l-72 80c-3 3.3-2.7 8.3 .6 11.3s8.3 2.7 11.3-.6L72 284.8V312c0 110.5 89.5 200 200 200h16 16c29.1 0 56.7-6.2 81.7-17.4c-1.1-4.7-1.7-9.6-1.7-14.6v-2.3c-24.2 11.7-51.3 18.3-80 18.3h-8V224h80c4.4 0 8-3.6 8-8s-3.6-8-8-8H296V160c0-.1 0-.3 0-.4c40.4-4 72-38.1 72-79.6c0-44.2-35.8-80-80-80zM528 208c26.5 0 48 21.5 48 48v64H480V256c0-26.5 21.5-48 48-48zm-64 48v64H448c-17.7 0-32 14.3-32 32V480c0 17.7 14.3 32 32 32H608c17.7 0 32-14.3 32-32V352c0-17.7-14.3-32-32-32H592V256c0-35.3-28.7-64-64-64s-64 28.7-64 64zm-16 80h16 16 96 16 16c8.8 0 16 7.2 16 16V480c0 8.8-7.2 16-16 16H448c-8.8 0-16-7.2-16-16V352c0-8.8 7.2-16 16-16z"/></svg>