<svg xmlns="http://www.w3.org/2000/svg" viewBox="0 0 576 512"><!--! Font Awesome Pro 6.4.0 by @fontawesome - https://fontawesome.com License - https://fontawesome.com/license (Commercial License) Copyright 2023 Fonticons, Inc. --><path d="M181.1 90.3c3.4-2.8 3.9-7.9 1.1-11.3c-4.1-5-6.2-10-6.2-15c0-22.7 46-48 112-48s112 25.3 112 48c0 5-2.1 10.1-6.2 15c-2.8 3.4-2.3 8.4 1.1 11.3c1.5 1.2 3.3 1.8 5.1 1.8c2.3 0 4.6-1 6.2-2.9c6.5-7.9 9.8-16.4 9.8-25.2c0-35.9-56.2-64-128-64S160 28.1 160 64c0 8.9 3.3 17.4 9.8 25.2c2.8 3.4 7.9 3.8 11.2 1.1zM571.7 453.1l-38.2-78.6c-6.6-13.5-6.6-29.6 0-43.1c4.8-9.8 8.7-16.6 11.9-22.1C555 292.8 560 282.8 560 256c0-51.1-46.9-96-100.4-96c-24.9 0-49 10.2-66.3 28.1l-72.7 73.4c-12.7-4.2-24.3-5.5-32.6-5.5s-19.9 1.3-32.4 5.4L183 188.2c-17.5-18-41.7-28.2-66.4-28.2C63 160.1 16 204.9 16 256c0 26.8 5 36.8 14.5 53.2c3.3 5.5 7.1 12.3 11.9 22c6.6 13.5 6.6 29.6 0 43.1L4.3 453.1c-6.4 12.9-5.5 27.7 2 39.9c7.5 11.9 20.3 19 34.3 19h495c13.9 0 26.7-7.1 34.2-19c7.5-12.1 8.4-27.1 2-39.9zM40.5 496c-8.4 0-16.2-4.3-20.6-11.4c-4.6-7.5-5.1-16.6-1.2-24.5l38.1-78.7c8.8-17.9 8.8-39.3 0-57.2c-5-10.3-9.1-17.4-12.4-23C35.6 286 32 278.9 32 256c0-42.6 39.5-80 84.5-80c20.5 0 40.6 8.5 55.1 23.5l68.1 68.7c-18.8 9.9-34.5 25.3-44.3 45L104 496H40.5zm81.4 0l87.8-175.6C229.7 280.3 270 272 288 272c17.9 0 58.3 8.3 78.3 48.4L454.1 496H121.9zm434.3-11.5c-4.6 7.2-12.3 11.5-20.6 11.5H472L380.6 313.2c-9.8-19.6-25.5-35-44.2-45l68.3-69c14.4-14.8 34.4-23.3 54.9-23.3c44.9 0 84.4 37.4 84.4 80c0 22.9-3.6 30-12.3 45.1c-3.4 5.8-7.5 13-12.5 23.2c-8.8 17.9-8.8 39.3 0 57.2l38.2 78.8c3.8 7.7 3.4 16.8-1.2 24.2zM208 144a80 80 0 1 0 160 0 80 80 0 1 0 -160 0zm16 0a64 64 0 1 1 128 0 64 64 0 1 1 -128 0zM400 64c0 6.3-4.1 14.7-15.5 23.1c2.7 4.6 5.1 9.5 7.2 14.5C407 91 416 78 416 64c0-35.3-57.3-64-128-64S160 28.7 160 64c0 14 9 27 24.3 37.5c2.1-5 4.5-9.9 7.2-14.5C180.1 78.7 176 70.3 176 64c0-8.3 7.2-20.2 28.6-30.9C225.2 22.8 254.6 16 288 16s62.8 6.8 83.4 17.1C392.8 43.8 400 55.7 400 64zM288 80a64 64 0 1 1 0 128 64 64 0 1 1 0-128zm0 144a80 80 0 1 0 0-160 80 80 0 1 0 0 160zM45.3 496C29.1 496 16 482.9 16 466.7c0-4.6 1.1-9 3.1-13.1l39.8-79.7c3.3-6.7 5.1-14 5.1-21.5v-.9c0-7.5-1.7-14.8-5.1-21.5L40.6 293.3c-5.6-11.2-8.6-23.8-8.6-36.4c0-44.4 36.1-80.9 80.2-80.9c21.3 0 41.7 8.4 56.7 23.5l69.3 69.3c-18.1 9.9-33.2 25.3-42.8 44.5L104 496H45.3zM253.8 261.8l-73.6-73.6c-18-18-42.5-28.2-68-28.2C59.1 160 16 203.8 16 256.9c0 15.1 3.5 30.1 10.2 43.6l18.4 36.7c2.2 4.4 3.4 9.3 3.4 14.3v.9c0 5-1.2 9.9-3.4 14.3L4.8 446.4C1.6 452.7 0 459.7 0 466.7c0 25 20.3 45.3 45.3 45.3H96h17.9H462.1 480h50.7c25 0 45.3-20.3 45.3-45.3c0-7-1.6-14-4.8-20.3l-39.8-79.7c-2.2-4.4-3.4-9.3-3.4-14.3v-.9c0-5 1.2-9.9 3.4-14.3l18.4-36.7C556.5 287 560 272 560 256.9c0-53.1-43.1-96.9-96.2-96.9c-25.5 0-50 10.1-68 28.2l-73.6 73.6C311.4 258 299.8 256 288 256s-23.4 2-34.2 5.8zm84 7l69.3-69.3c15-15 35.4-23.5 56.7-23.5c44.1 0 80.2 36.5 80.2 80.9c0 12.6-2.9 25.2-8.6 36.4l-18.4 36.7c-3.3 6.7-5.1 14-5.1 21.5v.9c0 7.5 1.7 14.8 5.1 21.5l39.8 79.7c2 4.1 3.1 8.6 3.1 13.1c0 16.2-13.1 29.3-29.3 29.3H472L380.6 313.2c-9.6-19.2-24.7-34.5-42.8-44.5zm28.5 51.6L454.1 496H121.9l87.8-175.6C224.5 290.7 254.8 272 288 272s63.5 18.7 78.3 48.4z"/></svg>