<svg xmlns="http://www.w3.org/2000/svg" viewBox="0 0 576 512"><!--! Font Awesome Pro 6.4.0 by @fontawesome - https://fontawesome.com License - https://fontawesome.com/license (Commercial License) Copyright 2023 Fonticons, Inc. --><path d="M144 112H80c-26.5 0-48 21.5-48 48V448c0 26.5 21.5 48 48 48H208h24 8V432c0-26.5 21.5-48 48-48s48 21.5 48 48v64h16 16H496c26.5 0 48-21.5 48-48V256c0-26.5-21.5-48-48-48H432c-8.8 0-16-7.2-16-16V64c0-26.5-21.5-48-48-48H208c-26.5 0-48 21.5-48 48V96c0 8.8-7.2 16-16 16zM320 496V432c0-17.7-14.3-32-32-32s-32 14.3-32 32v64h64zm-80 16h-8H208 80c-35.3 0-64-28.7-64-64V160c0-35.3 28.7-64 64-64h48 16V80 64c0-35.3 28.7-64 64-64H368c35.3 0 64 28.7 64 64V176v16h16 48c35.3 0 64 28.7 64 64V448c0 35.3-28.7 64-64 64H368 352 336h-8H248h-8zM488 400c0 13.3-10.7 24-24 24H432c-13.3 0-24-10.7-24-24V368c0-13.3 10.7-24 24-24h32c13.3 0 24 10.7 24 24v32zm-24 8c4.4 0 8-3.6 8-8V368c0-4.4-3.6-8-8-8H432c-4.4 0-8 3.6-8 8v32c0 4.4 3.6 8 8 8h32zM144 328H112c-13.3 0-24-10.7-24-24V272c0-13.3 10.7-24 24-24h32c13.3 0 24 10.7 24 24v32c0 13.3-10.7 24-24 24zm8-24V272c0-4.4-3.6-8-8-8H112c-4.4 0-8 3.6-8 8v32c0 4.4 3.6 8 8 8h32c4.4 0 8-3.6 8-8zm16 96c0 13.3-10.7 24-24 24H112c-13.3 0-24-10.7-24-24V368c0-13.3 10.7-24 24-24h32c13.3 0 24 10.7 24 24v32zm-24 8c4.4 0 8-3.6 8-8V368c0-4.4-3.6-8-8-8H112c-4.4 0-8 3.6-8 8v32c0 4.4 3.6 8 8 8h32zm160-80H272c-13.3 0-24-10.7-24-24V272c0-13.3 10.7-24 24-24h32c13.3 0 24 10.7 24 24v32c0 13.3-10.7 24-24 24zm8-24V272c0-4.4-3.6-8-8-8H272c-4.4 0-8 3.6-8 8v32c0 4.4 3.6 8 8 8h32c4.4 0 8-3.6 8-8zM328 80v32c0 13.3-10.7 24-24 24H272c-13.3 0-24-10.7-24-24V80c0-13.3 10.7-24 24-24h32c13.3 0 24 10.7 24 24zm-24-8H272c-4.4 0-8 3.6-8 8v32c0 4.4 3.6 8 8 8h32c4.4 0 8-3.6 8-8V80c0-4.4-3.6-8-8-8zM464 328H432c-13.3 0-24-10.7-24-24V272c0-13.3 10.7-24 24-24h32c13.3 0 24 10.7 24 24v32c0 13.3-10.7 24-24 24zm8-24V272c0-4.4-3.6-8-8-8H432c-4.4 0-8 3.6-8 8v32c0 4.4 3.6 8 8 8h32c4.4 0 8-3.6 8-8zM168 208c0 13.3-10.7 24-24 24H112c-13.3 0-24-10.7-24-24V176c0-13.3 10.7-24 24-24h32c13.3 0 24 10.7 24 24v32zm-24 8c4.4 0 8-3.6 8-8V176c0-4.4-3.6-8-8-8H112c-4.4 0-8 3.6-8 8v32c0 4.4 3.6 8 8 8h32zm160 16H272c-13.3 0-24-10.7-24-24V176c0-13.3 10.7-24 24-24h32c13.3 0 24 10.7 24 24v32c0 13.3-10.7 24-24 24zm8-24V176c0-4.4-3.6-8-8-8H272c-4.4 0-8 3.6-8 8v32c0 4.4 3.6 8 8 8h32c4.4 0 8-3.6 8-8z"/></svg>