<svg xmlns="http://www.w3.org/2000/svg" viewBox="0 0 576 512"><!--! Font Awesome Pro 6.4.0 by @fontawesome - https://fontawesome.com License - https://fontawesome.com/license (Commercial License) Copyright 2023 Fonticons, Inc. --><path d="M133.7 477.7c-3.1 3.1-8.2 3.1-11.3 0l-104-104c-3.1-3.1-3.1-8.2 0-11.3s8.2-3.1 11.3 0L120 452.7V40c0-4.4 3.6-8 8-8s8 3.6 8 8V452.7l90.3-90.3c3.1-3.1 8.2-3.1 11.3 0s3.1 8.2 0 11.3l-104 104zM296 464c-4.4 0-8-3.6-8-8s3.6-8 8-8h80c4.4 0 8 3.6 8 8s-3.6 8-8 8H296zm0-144c-4.4 0-8-3.6-8-8s3.6-8 8-8H440c4.4 0 8 3.6 8 8s-3.6 8-8 8H296zm0-128c-4.4 0-8-3.6-8-8s3.6-8 8-8H504c4.4 0 8 3.6 8 8s-3.6 8-8 8H296zm0-128c-4.4 0-8-3.6-8-8s3.6-8 8-8H568c4.4 0 8 3.6 8 8s-3.6 8-8 8H296z"/></svg>