<svg xmlns="http://www.w3.org/2000/svg" viewBox="0 0 640 512"><!--! Font Awesome Pro 6.4.0 by @fontawesome - https://fontawesome.com License - https://fontawesome.com/license (Commercial License) Copyright 2023 Fonticons, Inc. --><path d="M304 40c0-13.3 10.7-24 24-24H472c13.3 0 24 10.7 24 24V200c0 4.4 3.6 8 8 8h64 32c13.3 0 24 10.7 24 24V504c0 4.4 3.6 8 8 8s8-3.6 8-8V232c0-22.1-17.9-40-40-40H576V104c0-4.4-3.6-8-8-8s-8 3.6-8 8v88H512V40c0-22.1-17.9-40-40-40H328c-22.1 0-40 17.9-40 40V504c0 4.4 3.6 8 8 8s8-3.6 8-8V40zm56 56v32c0 13.3 10.7 24 24 24h32c13.3 0 24-10.7 24-24V96c0-13.3-10.7-24-24-24H384c-13.3 0-24 10.7-24 24zm24-8h32c4.4 0 8 3.6 8 8v32c0 4.4-3.6 8-8 8H384c-4.4 0-8-3.6-8-8V96c0-4.4 3.6-8 8-8zM512 264c-13.3 0-24 10.7-24 24v32c0 13.3 10.7 24 24 24h32c13.3 0 24-10.7 24-24V288c0-13.3-10.7-24-24-24H512zm-8 24c0-4.4 3.6-8 8-8h32c4.4 0 8 3.6 8 8v32c0 4.4-3.6 8-8 8H512c-4.4 0-8-3.6-8-8V288zM488 416v32c0 13.3 10.7 24 24 24h32c13.3 0 24-10.7 24-24V416c0-13.3-10.7-24-24-24H512c-13.3 0-24 10.7-24 24zm24-8h32c4.4 0 8 3.6 8 8v32c0 4.4-3.6 8-8 8H512c-4.4 0-8-3.6-8-8V416c0-4.4 3.6-8 8-8zM384 200c-13.3 0-24 10.7-24 24v32c0 13.3 10.7 24 24 24h32c13.3 0 24-10.7 24-24V224c0-13.3-10.7-24-24-24H384zm-8 24c0-4.4 3.6-8 8-8h32c4.4 0 8 3.6 8 8v32c0 4.4-3.6 8-8 8H384c-4.4 0-8-3.6-8-8V224zM360 352v32c0 13.3 10.7 24 24 24h32c13.3 0 24-10.7 24-24V352c0-13.3-10.7-24-24-24H384c-13.3 0-24 10.7-24 24zm24-8h32c4.4 0 8 3.6 8 8v32c0 4.4-3.6 8-8 8H384c-4.4 0-8-3.6-8-8V352c0-4.4 3.6-8 8-8zM157.7 154.3c-3.1-3.1-8.2-3.1-11.3 0s-3.1 8.2 0 11.3L228.7 248H8c-4.4 0-8 3.6-8 8s3.6 8 8 8H228.7l-82.3 82.3c-3.1 3.1-3.1 8.2 0 11.3s8.2 3.1 11.3 0l96-96c3.1-3.1 3.1-8.2 0-11.3l-96-96z"/></svg>