<svg xmlns="http://www.w3.org/2000/svg" viewBox="0 0 512 512"><!--! Font Awesome Pro 6.4.0 by @fontawesome - https://fontawesome.com License - https://fontawesome.com/license (Commercial License) Copyright 2023 Fonticons, Inc. --><path d="M127.9 419.9c90.5 70.7 221.2 54.7 292-35.8s54.7-221.2-35.8-292C293.6 21.4 162.9 37.4 92.1 127.9L56 176H184c4.4 0 8 3.6 8 8s-3.6 8-8 8H40c-4.4 0-8-3.6-8-8V40c0-4.4 3.6-8 8-8s8 3.6 8 8V160l31.4-41.8 0 0 .1-.1C155.6 20.6 296.4 3.3 393.9 79.5s114.8 216.9 38.6 314.4s-216.9 114.8-314.4 38.6C93.4 413.2 73.9 389.8 59.7 364c-2.1-3.9-.7-8.7 3.2-10.9s8.7-.7 10.9 3.2c13.2 24 31.3 45.7 54.2 63.7z"/></svg>