<svg xmlns="http://www.w3.org/2000/svg" viewBox="0 0 512 512"><!--! Font Awesome Pro 6.4.0 by @fontawesome - https://fontawesome.com License - https://fontawesome.com/license (Commercial License) Copyright 2023 Fonticons, Inc. --><path d="M328 32c-4.4 0-8 3.6-8 8s3.6 8 8 8H452.7L256 244.7 59.3 48H184c4.4 0 8-3.6 8-8s-3.6-8-8-8H40c-4.4 0-8 3.6-8 8V184c0 4.4 3.6 8 8 8s8-3.6 8-8V59.3L244.7 256 48 452.7V328c0-4.4-3.6-8-8-8s-8 3.6-8 8V472c0 4.4 3.6 8 8 8H184c4.4 0 8-3.6 8-8s-3.6-8-8-8H59.3L256 267.3 452.7 464H328c-4.4 0-8 3.6-8 8s3.6 8 8 8H472c4.4 0 8-3.6 8-8V328c0-4.4-3.6-8-8-8s-8 3.6-8 8V452.7L267.3 256 464 59.3V184c0 4.4 3.6 8 8 8s8-3.6 8-8V40c0-4.4-3.6-8-8-8H328z"/></svg>