<svg xmlns="http://www.w3.org/2000/svg" viewBox="0 0 512 512"><!-- Font Awesome Pro 6.0.0-alpha2 by @fontawesome - https://fontawesome.com License - https://fontawesome.com/license (Commercial License) --><path d="M24 256C24 383.938 128.078 488 256 488C303.719 488 349.578 473.625 388.594 446.406C392.219 443.875 393.109 438.906 390.578 435.281C388.031 431.594 383 430.781 379.438 433.281C343.125 458.625 300.438 472 256 472C136.891 472 40 375.094 40 256S136.891 40 256 40C348.551 40 431.428 100.586 460.545 187.867L350.25 165.812C346.156 165 341.719 167.75 340.844 172.094C339.984 176.406 342.781 180.625 347.125 181.5L472.641 206.594C473.156 206.688 473.688 206.75 474.219 206.75C477.953 206.75 481.281 204.125 482.047 200.312L507.156 74.812C508.031 70.5 505.219 66.281 500.875 65.406C496.719 64.625 492.344 67.344 491.469 71.688L471.422 171.859C437.004 84.141 351.432 24 256 24C128.078 24 24 128.062 24 256Z"/></svg>