<svg xmlns="http://www.w3.org/2000/svg" viewBox="0 0 448 512"><!--! Font Awesome Pro 6.4.0 by @fontawesome - https://fontawesome.com License - https://fontawesome.com/license (Commercial License) Copyright 2023 Fonticons, Inc. --><path d="M280 32c-4.4 0-8 3.6-8 8s3.6 8 8 8H420.7L2.3 466.3c-3.1 3.1-3.1 8.2 0 11.3s8.2 3.1 11.3 0L432 59.3V200c0 4.4 3.6 8 8 8s8-3.6 8-8V40c0-4.4-3.6-8-8-8H280zM13.7 34.3c-3.1-3.1-8.2-3.1-11.3 0s-3.1 8.2 0 11.3L190.1 233.4l11.3-11.3L13.7 34.3zM420.7 464H280c-4.4 0-8 3.6-8 8s3.6 8 8 8H440c4.4 0 8-3.6 8-8V312c0-4.4-3.6-8-8-8s-8 3.6-8 8V452.7L257.9 278.6l-11.3 11.3L420.7 464z"/></svg>