<svg xmlns="http://www.w3.org/2000/svg" viewBox="0 0 512 512"><!--! Font Awesome Pro 6.4.0 by @fontawesome - https://fontawesome.com License - https://fontawesome.com/license (Commercial License) Copyright 2023 Fonticons, Inc. --><path d="M0 264c0 4.4 3.6 8 8 8s8-3.6 8-8v-8c0-83.9 68.1-152 152-152H419.4l-80.8 74.1c-3.3 3-3.5 8-.5 11.3s8 3.5 11.3 .5l96-88c1.7-1.5 2.6-3.7 2.6-5.9s-.9-4.4-2.6-5.9l-96-88c-3.3-3-8.3-2.8-11.3 .5s-2.8 8.3 .5 11.3L419.4 88H168C75.2 88 0 163.2 0 256v8zm512-16c0-4.4-3.6-8-8-8s-8 3.6-8 8v8c0 83.9-68.1 152-152 152H92.6l80.8-74.1c3.3-3 3.5-8 .5-11.3s-8-3.5-11.3-.5l-96 88c-1.7 1.5-2.6 3.7-2.6 5.9s.9 4.4 2.6 5.9l96 88c3.3 3 8.3 2.8 11.3-.5s2.8-8.3-.5-11.3L92.6 424H344c92.8 0 168-75.2 168-168v-8z"/></svg>