<svg xmlns="http://www.w3.org/2000/svg" viewBox="0 0 384 512"><!--! Font Awesome Pro 6.4.0 by @fontawesome - https://fontawesome.com License - https://fontawesome.com/license (Commercial License) Copyright 2023 Fonticons, Inc. --><path d="M8 32c-4.4 0-8 3.6-8 8s3.6 8 8 8H376c4.4 0 8-3.6 8-8s-3.6-8-8-8H8zm189.7 98.3c-3.1-3.1-8.2-3.1-11.3 0l-136 136c-3.1 3.1-3.1 8.2 0 11.3s8.2 3.1 11.3 0L184 155.3V472c0 4.4 3.6 8 8 8s8-3.6 8-8V155.3L322.3 277.7c3.1 3.1 8.2 3.1 11.3 0s3.1-8.2 0-11.3l-136-136z"/></svg>