<svg xmlns="http://www.w3.org/2000/svg" viewBox="0 0 512 512"><!--! Font Awesome Pro 6.4.0 by @fontawesome - https://fontawesome.com License - https://fontawesome.com/license (Commercial License) Copyright 2023 Fonticons, Inc. --><path d="M261.7 2.3c-3.1-3.1-8.2-3.1-11.3 0l-112 112c-3.1 3.1-3.1 8.2 0 11.3s8.2 3.1 11.3 0L248 27.3V328c0 4.4 3.6 8 8 8s8-3.6 8-8V27.3l98.3 98.3c3.1 3.1 8.2 3.1 11.3 0s3.1-8.2 0-11.3l-112-112zM56 32C25.1 32 0 57.1 0 88V456c0 30.9 25.1 56 56 56H456c30.9 0 56-25.1 56-56V88c0-30.9-25.1-56-56-56H408c-4.4 0-8 3.6-8 8s3.6 8 8 8h48c22.1 0 40 17.9 40 40V456c0 22.1-17.9 40-40 40H56c-22.1 0-40-17.9-40-40V88c0-22.1 17.9-40 40-40h48c4.4 0 8-3.6 8-8s-3.6-8-8-8H56z"/></svg>