<svg xmlns="http://www.w3.org/2000/svg" viewBox="0 0 640 512"><!--! Font Awesome Pro 6.4.0 by @fontawesome - https://fontawesome.com License - https://fontawesome.com/license (Commercial License) Copyright 2023 Fonticons, Inc. --><path d="M133.7 66.3c-3.1-3.1-8.2-3.1-11.3 0l-96 96c-3.1 3.1-3.1 8.2 0 11.3s8.2 3.1 11.3 0L120 91.3V344c0 39.8 32.2 72 72 72H344c4.4 0 8-3.6 8-8s-3.6-8-8-8H192c-30.9 0-56-25.1-56-56V91.3l82.3 82.3c3.1 3.1 8.2 3.1 11.3 0s3.1-8.2 0-11.3l-96-96zM498.3 445.7c3.1 3.1 8.2 3.1 11.3 0l96-96c3.1-3.1 3.1-8.2 0-11.3s-8.2-3.1-11.3 0L512 420.7V168c0-39.8-32.2-72-72-72H288c-4.4 0-8 3.6-8 8s3.6 8 8 8H440c30.9 0 56 25.1 56 56V420.7l-82.3-82.3c-3.1-3.1-8.2-3.1-11.3 0s-3.1 8.2 0 11.3l96 96z"/></svg>