<svg xmlns="http://www.w3.org/2000/svg" viewBox="0 0 448 512"><!--! Font Awesome Pro 6.4.0 by @fontawesome - https://fontawesome.com License - https://fontawesome.com/license (Commercial License) Copyright 2023 Fonticons, Inc. --><path d="M229.7 189.7c-3.1 3.1-8.2 3.1-11.3 0l-88-88c-3.1-3.1-3.1-8.2 0-11.3s8.2-3.1 11.3 0L216 164.7V8c0-4.4 3.6-8 8-8s8 3.6 8 8V164.7l74.3-74.3c3.1-3.1 8.2-3.1 11.3 0s3.1 8.2 0 11.3l-88 88zm0 132.7l88 88c3.1 3.1 3.1 8.2 0 11.3s-8.2 3.1-11.3 0L232 347.3V504c0 4.4-3.6 8-8 8s-8-3.6-8-8V347.3l-74.3 74.3c-3.1 3.1-8.2 3.1-11.3 0s-3.1-8.2 0-11.3l88-88c3.1-3.1 8.2-3.1 11.3 0zM8 248H440c4.4 0 8 3.6 8 8s-3.6 8-8 8H8c-4.4 0-8-3.6-8-8s3.6-8 8-8z"/></svg>