<svg xmlns="http://www.w3.org/2000/svg" viewBox="0 0 640 512"><!--! Font Awesome Pro 6.4.0 by @fontawesome - https://fontawesome.com License - https://fontawesome.com/license (Commercial License) Copyright 2023 Fonticons, Inc. --><path d="M13 1.7C9.5-1 4.5-.4 1.7 3S-.4 11.5 3 14.3l624 496c3.5 2.7 8.5 2.2 11.2-1.3s2.2-8.5-1.3-11.2L13 1.7zM487.5 480l-20.3-16H96c-26.5 0-48-21.5-48-48V133L32 120.4V416c0 35.3 28.7 64 64 64H487.5zM152.5 32l20.3 16H544c26.5 0 48 21.5 48 48V379l16 12.6V96c0-35.3-28.7-64-64-64H152.5zM344 183.2l16 12.6V176h56c44.2 0 80 35.8 80 80c0 14.2-3.7 27.6-10.2 39.1l12.7 10C507.1 290.8 512 274 512 256c0-53-43-96-96-96H352c-4.4 0-8 3.6-8 8v15.2zM180.3 237.5l-19.4 38.8-.1 .3-31.9 63.8c-2 4-.4 8.8 3.6 10.7s8.8 .4 10.7-3.6L172.9 288h71.4l-20.3-16H180.9l12.2-24.4-12.8-10.1z"/></svg>