<svg xmlns="http://www.w3.org/2000/svg" viewBox="0 0 448 512"><!--! Font Awesome Pro 6.4.0 by @fontawesome - https://fontawesome.com License - https://fontawesome.com/license (Commercial License) Copyright 2023 Fonticons, Inc. --><path d="M231.4 36.9c-1.3-3-4.2-4.9-7.4-4.9s-6.1 1.9-7.4 4.9L130.1 240H8c-4.4 0-8 3.6-8 8s3.6 8 8 8H123.3L89.2 336H8c-4.4 0-8 3.6-8 8s3.6 8 8 8H82.4L32.6 468.9c-1.7 4.1 .2 8.8 4.2 10.5s8.8-.2 10.5-4.2L99.8 352H348.2l52.4 123.1c1.7 4.1 6.4 6 10.5 4.2s6-6.4 4.2-10.5L365.6 352H440c4.4 0 8-3.6 8-8s-3.6-8-8-8H358.8l-34.1-80H440c4.4 0 8-3.6 8-8s-3.6-8-8-8H317.9L231.4 36.9zM300.5 240h-153L224 60.4 300.5 240zM140.7 256H307.3l34.1 80H106.6l34.1-80z"/></svg>