<svg xmlns="http://www.w3.org/2000/svg" viewBox="0 0 320 512"><!--! Font Awesome Pro 6.4.0 by @fontawesome - https://fontawesome.com License - https://fontawesome.com/license (Commercial License) Copyright 2023 Fonticons, Inc. --><path d="M32 32C14.3 32 0 46.3 0 64V248 448c0 17.7 14.3 32 32 32H200c66.3 0 120-53.7 120-120c0-56.7-39.3-104.2-92.1-116.7C263.6 224.5 288 187.1 288 144c0-61.9-50.1-112-112-112H32zM176 240H16V64c0-8.8 7.2-16 16-16H176c53 0 96 43 96 96s-43 96-96 96zM16 256H176h24c57.4 0 104 46.6 104 104s-46.6 104-104 104H32c-8.8 0-16-7.2-16-16V256z"/></svg>