<svg xmlns="http://www.w3.org/2000/svg" viewBox="0 0 448 512"><!--! Font Awesome Pro 6.4.0 by @fontawesome - https://fontawesome.com License - https://fontawesome.com/license (Commercial License) Copyright 2023 Fonticons, Inc. --><path d="M144 96v32H304V96c0-44.2-35.8-80-80-80s-80 35.8-80 80zm-16 48H48c-17.7 0-32 14.3-32 32V416c0 44.2 35.8 80 80 80H352c44.2 0 80-35.8 80-80V176c0-17.7-14.3-32-32-32H320v88c0 4.4-3.6 8-8 8s-8-3.6-8-8V144H144v88c0 4.4-3.6 8-8 8s-8-3.6-8-8V144zm0-16V96c0-53 43-96 96-96s96 43 96 96v32h80c26.5 0 48 21.5 48 48V416c0 53-43 96-96 96H96c-53 0-96-43-96-96V176c0-26.5 21.5-48 48-48h80z"/></svg>