<svg xmlns="http://www.w3.org/2000/svg" viewBox="0 0 512 512"><!--! Font Awesome Pro 6.4.0 by @fontawesome - https://fontawesome.com License - https://fontawesome.com/license (Commercial License) Copyright 2023 Fonticons, Inc. --><path d="M76.5 80l0 .1L60.9 142.4C52.3 176.6 48 211.8 48 247.2v17.7c0 35.3 4.3 70.5 12.9 104.8l15.6 62.3 0 .1h359l0-.1 15.6-62.3c8.6-34.3 12.9-69.5 12.9-104.8V247.2c0-35.3-4.3-70.5-12.9-104.8L435.5 80.1l0-.1H76.5zM440.3 64L461 38.1c1.9-2.4 3-5.4 3-8.5c0-7.5-6.1-13.6-13.6-13.6H61.6C54.1 16 48 22.1 48 29.6c0 3.1 1.1 6.1 3 8.5L71.7 64H440.3zM71.7 448L51 473.9l-12.4-9.9L51 473.9c-1.9 2.4-3 5.4-3 8.5c0 7.5 6.1 13.6 13.6 13.6H450.4c7.5 0 13.6-6.1 13.6-13.6c0-3.1-1.1-6.1-3-8.5L440.3 448H71.7zM480 29.6c0 6.7-2.3 13.2-6.5 18.5L451 76.2l15.6 62.3c8.9 35.5 13.4 72 13.4 108.7v17.7c0 36.6-4.5 73.1-13.4 108.7L451 435.8l22.5 28.1c4.2 5.3 6.5 11.8 6.5 18.5c0 16.4-13.3 29.6-29.6 29.6H61.6C45.3 512 32 498.7 32 482.4c0-6.7 2.3-13.2 6.5-18.5L61 435.8 45.4 373.5C36.5 338 32 301.5 32 264.8V247.2c0-36.6 4.5-73.1 13.4-108.7L61 76.2 38.5 48.1C34.3 42.9 32 36.3 32 29.6C32 13.3 45.3 0 61.6 0H450.4C466.7 0 480 13.3 480 29.6zM151.1 176c-3.9 0-7.1 3.2-7.1 7.2C144 240.7 190.6 288 248 288V230.9c-12.5-31.5-43-54.9-80.7-54.9H151.1zM264 230.9V288c57.4 0 104-47.3 104-104.8c0-4-3.3-7.2-7.1-7.2H344.7c-37.7 0-68.2 23.4-80.7 54.9zM248 304c-66.3 0-120-54.6-120-120.8c0-12.7 10.3-23.2 23.1-23.2h16.2c38.8 0 71.2 21 88.7 50.9C273.5 181 305.9 160 344.7 160h16.2c12.8 0 23.1 10.5 23.1 23.2C384 249.4 330.3 304 264 304v64c0 4.4-3.6 8-8 8s-8-3.6-8-8V304z"/></svg>