<svg xmlns="http://www.w3.org/2000/svg" viewBox="0 0 448 512"><!--! Font Awesome Pro 6.4.0 by @fontawesome - https://fontawesome.com License - https://fontawesome.com/license (Commercial License) Copyright 2023 Fonticons, Inc. --><path d="M384 16c26.5 0 48 21.5 48 48V448c0 26.5-21.5 48-48 48H64c-26.5 0-48-21.5-48-48V64c0-26.5 21.5-48 48-48H384zM64 0C28.7 0 0 28.7 0 64V448c0 35.3 28.7 64 64 64H384c35.3 0 64-28.7 64-64V64c0-35.3-28.7-64-64-64H64zM192 128c0 4.4 3.6 8 8 8H376c4.4 0 8-3.6 8-8s-3.6-8-8-8H200c-4.4 0-8 3.6-8 8zm0 128c0 4.4 3.6 8 8 8H376c4.4 0 8-3.6 8-8s-3.6-8-8-8H200c-4.4 0-8 3.6-8 8zm0 128c0 4.4 3.6 8 8 8H376c4.4 0 8-3.6 8-8s-3.6-8-8-8H200c-4.4 0-8 3.6-8 8zm-88-40H88c-17.7 0-32 14.3-32 32v16c0 17.7 14.3 32 32 32h16c17.7 0 32-14.3 32-32V376c0-17.7-14.3-32-32-32zM72 376c0-8.8 7.2-16 16-16h16c8.8 0 16 7.2 16 16v16c0 8.8-7.2 16-16 16H88c-8.8 0-16-7.2-16-16V376zM88 216c-17.7 0-32 14.3-32 32v16c0 17.7 14.3 32 32 32h16c17.7 0 32-14.3 32-32V248c0-17.7-14.3-32-32-32H88zm0 16h16c8.8 0 16 7.2 16 16v16c0 8.8-7.2 16-16 16H88c-8.8 0-16-7.2-16-16V248c0-8.8 7.2-16 16-16zM104 88H88c-17.7 0-32 14.3-32 32v16c0 17.7 14.3 32 32 32h16c17.7 0 32-14.3 32-32V120c0-17.7-14.3-32-32-32zM72 120c0-8.8 7.2-16 16-16h16c8.8 0 16 7.2 16 16v16c0 8.8-7.2 16-16 16H88c-8.8 0-16-7.2-16-16V120z"/></svg>