<svg xmlns="http://www.w3.org/2000/svg" viewBox="0 0 512 512"><!--! Font Awesome Pro 6.4.0 by @fontawesome - https://fontawesome.com License - https://fontawesome.com/license (Commercial License) Copyright 2023 Fonticons, Inc. --><path d="M420 431.3L80.7 92C40.6 134.9 16 192.6 16 256c0 132.5 107.5 240 240 240c63.4 0 121.1-24.6 164-64.7zM431.3 420C471.4 377.1 496 319.4 496 256C496 123.5 388.5 16 256 16C192.6 16 134.9 40.6 92 80.7l84 84V144c0-8.8 7.2-16 16-16h96c48.6 0 88 39.4 88 88c0 40.3-27.1 74.2-64 84.7L431.3 420zM192 180.7L298.5 287.2c34.8-5.1 61.5-35.1 61.5-71.2c0-39.8-32.2-72-72-72H192v36.7zM0 256a256 256 0 1 1 512 0A256 256 0 1 1 0 256zm176 40V249.9l16 16V288h22.1l16 16H192v72c0 4.4-3.6 8-8 8s-8-3.6-8-8V296z"/></svg>