<svg xmlns="http://www.w3.org/2000/svg" viewBox="0 0 512 512"><!-- Font Awesome Pro 6.0.0-alpha2 by @fontawesome - https://fontawesome.com License - https://fontawesome.com/license (Commercial License) --><path d="M501.625 92.125L267.25 2.031C264.25 0.906 259.219 0 256 0C252.812 0 247.781 0.906 244.781 2.031L10.375 92.125C4.656 94.25 0 100.969 0 107.094V144C0 152.844 7.156 160 16 160H496C504.844 160 512 152.844 512 144V107.094C512 100.406 507.875 94.438 501.625 92.125ZM256 144C238.326 144 224 129.674 224 112S238.326 80 256 80S288 94.326 288 112S273.674 144 256 144ZM496 144H291.516C299.191 135.488 304 124.338 304 112C304 85.533 282.467 64 256 64S208 85.533 208 112C208 124.338 212.809 135.488 220.484 144H16L16.113 107.059L250.398 17.012C251.586 16.566 254.727 16 256 16C257.316 16 260.422 16.559 261.508 16.965L496 107.094V144ZM504 496H8C3.594 496 0 499.594 0 504S3.594 512 8 512H504C508.406 512 512 508.406 512 504S508.406 496 504 496ZM72 192C67.594 192 64 195.594 64 200V376C64 380.406 67.594 384 72 384H440C444.406 384 448 380.406 448 376V200C448 195.594 444.406 192 440 192S432 195.594 432 200V368H328V200C328 195.594 324.406 192 320 192S312 195.594 312 200V368H200V200C200 195.594 196.406 192 192 192S184 195.594 184 200V368H80V200C80 195.594 76.406 192 72 192ZM32 440C32 444.406 35.594 448 40 448H472C476.406 448 480 444.406 480 440S476.406 432 472 432H40C35.594 432 32 435.594 32 440Z"/></svg>