<svg xmlns="http://www.w3.org/2000/svg" viewBox="0 0 512 512"><!--! Font Awesome Pro 6.4.0 by @fontawesome - https://fontawesome.com License - https://fontawesome.com/license (Commercial License) Copyright 2023 Fonticons, Inc. --><path d="M0 40c0-4.4 3.6-8 8-8s8 3.6 8 8V472c0 4.4-3.6 8-8 8s-8-3.6-8-8V40zm256 0c0-4.4 3.6-8 8-8s8 3.6 8 8V472c0 4.4-3.6 8-8 8s-8-3.6-8-8V40zm136-8c4.4 0 8 3.6 8 8V472c0 4.4-3.6 8-8 8s-8-3.6-8-8V40c0-4.4 3.6-8 8-8zm-88 8c0-4.4 3.6-8 8-8s8 3.6 8 8V472c0 4.4-3.6 8-8 8s-8-3.6-8-8V40zM56 32c4.4 0 8 3.6 8 8V472c0 4.4-3.6 8-8 8s-8-3.6-8-8V40c0-4.4 3.6-8 8-8zm392 8c0-4.4 3.6-8 8-8s8 3.6 8 8V472c0 4.4-3.6 8-8 8s-8-3.6-8-8V40zm56-8c4.4 0 8 3.6 8 8V472c0 4.4-3.6 8-8 8s-8-3.6-8-8V40c0-4.4 3.6-8 8-8zM112 40c0-4.4 3.6-8 8-8s8 3.6 8 8V472c0 4.4-3.6 8-8 8s-8-3.6-8-8V40zm80-8c4.4 0 8 3.6 8 8V472c0 4.4-3.6 8-8 8s-8-3.6-8-8V40c0-4.4 3.6-8 8-8z"/></svg>