<svg xmlns="http://www.w3.org/2000/svg" viewBox="0 0 512 512"><!-- Font Awesome Pro 6.0.0-alpha2 by @fontawesome - https://fontawesome.com License - https://fontawesome.com/license (Commercial License) --><path d="M432.837 86.295C339.111 -7.432 187.154 -7.432 93.427 86.295S-0.3 331.979 93.427 425.705S339.111 519.432 432.837 425.705S526.564 180.021 432.837 86.295ZM464.962 284.014C471.739 284.248 478.202 285.486 484.685 286.635C478.279 333.391 457.392 378.523 421.525 414.393C385.655 450.262 340.519 471.148 293.761 477.555C292.581 470.736 291.337 463.934 291.134 456.801C291.001 452.359 287.323 448.924 282.915 449.023C278.495 449.156 275.015 452.836 275.136 457.244C275.351 464.781 276.648 471.98 277.87 479.193C215.698 483.26 152.154 461.805 104.739 414.393C57.384 367.037 35.931 303.588 39.929 241.488C46.737 242.682 53.583 243.771 60.695 244.018C65.114 244.172 68.816 240.715 68.96 236.307C69.124 231.898 65.655 228.186 61.247 228.041C54.486 227.807 48.038 226.574 41.57 225.428C47.968 178.648 68.857 133.49 104.739 97.607C140.595 61.754 185.708 40.869 232.443 34.453C233.626 41.289 234.87 48.107 235.073 55.254C235.206 59.695 238.886 63.131 243.294 63.031C247.714 62.898 251.195 59.221 251.073 54.812C250.857 47.256 249.556 40.043 248.331 32.811C310.523 28.727 374.095 50.18 421.525 97.607C468.896 144.98 490.349 208.455 486.331 270.576C479.505 269.379 472.644 268.285 465.513 268.037C461.095 267.883 457.394 271.342 457.249 275.75C457.083 280.158 460.554 283.869 464.962 284.014ZM241.007 88.742C236.677 87.836 232.445 90.609 231.529 94.93C226.954 116.672 218.226 137.002 205.564 155.342C203.077 158.977 203.972 163.895 207.618 166.479C211.265 168.977 216.236 168.07 218.755 164.424C232.599 144.326 242.167 122.053 247.195 98.221C247.769 95.48 246.862 92.764 245.019 90.918C243.958 89.857 242.587 89.084 241.007 88.742ZM172.55 199.471C169.876 196.797 165.589 196.332 162.364 198.543C144.023 211.203 123.695 219.932 101.95 224.506C97.63 225.424 94.857 229.654 95.763 233.986C96.691 238.273 100.911 241.057 105.243 240.174C129.075 235.146 151.349 225.578 171.446 211.734C175.091 209.215 175.997 204.242 173.501 200.598C173.202 200.188 172.894 199.812 172.55 199.471ZM420.966 271.883C397.134 276.91 374.861 286.477 354.763 300.32C351.116 302.84 350.21 307.813 352.708 311.459C353.007 311.867 353.316 312.242 353.657 312.586C356.331 315.26 360.618 315.723 363.845 313.514C382.185 300.852 402.515 292.123 424.259 287.549C428.579 286.633 431.351 282.4 430.446 278.07C429.517 273.783 425.296 270.998 420.966 271.883ZM307.452 347.631C293.609 367.729 284.042 390.002 279.015 413.834C278.441 416.574 279.345 419.291 281.191 421.137C282.251 422.197 283.622 422.971 285.202 423.314C289.532 424.219 293.765 421.447 294.681 417.127C299.255 395.383 307.984 375.053 320.646 356.713C323.132 353.078 322.236 348.162 318.591 345.576C314.945 343.078 309.972 343.984 307.452 347.631Z"/></svg>