<svg xmlns="http://www.w3.org/2000/svg" viewBox="0 0 576 512"><!--! Font Awesome Pro 6.4.0 by @fontawesome - https://fontawesome.com License - https://fontawesome.com/license (Commercial License) Copyright 2023 Fonticons, Inc. --><path d="M340.2 1c-3.9 2.1-5.3 7-3.2 10.8L434.6 192H141.4L239 11.8c2.1-3.9 .7-8.7-3.2-10.8s-8.7-.7-10.8 3.2L123.2 192H48.5 32 8c-4.4 0-8 3.6-8 8s3.6 8 8 8H36L99.9 463.5C107 492 132.6 512 162 512H414c29.4 0 55-20 62.1-48.5L540 208h28c4.4 0 8-3.6 8-8s-3.6-8-8-8H544 527.5 452.8L351 4.2c-2.1-3.9-7-5.3-10.8-3.2zM52.5 208h471L460.6 459.6C455.3 481 436.1 496 414 496H162c-22 0-41.2-15-46.6-36.4L52.5 208zM208 296c0-4.4-3.6-8-8-8s-8 3.6-8 8V408c0 4.4 3.6 8 8 8s8-3.6 8-8V296zm80-8c-4.4 0-8 3.6-8 8V408c0 4.4 3.6 8 8 8s8-3.6 8-8V296c0-4.4-3.6-8-8-8zm96 8c0-4.4-3.6-8-8-8s-8 3.6-8 8V408c0 4.4 3.6 8 8 8s8-3.6 8-8V296z"/></svg>