<svg xmlns="http://www.w3.org/2000/svg" viewBox="0 0 640 512"><!--! Font Awesome Pro 6.4.0 by @fontawesome - https://fontawesome.com License - https://fontawesome.com/license (Commercial License) Copyright 2023 Fonticons, Inc. --><path d="M13 1.7C9.5-1 4.5-.4 1.7 3S-.4 11.5 3 14.3l624 496c3.5 2.7 8.5 2.2 11.2-1.3s2.2-8.5-1.3-11.2L13 1.7zM386.2 400H112c-35.3 0-64-28.7-64-64V176c0-12.9 3.8-24.8 10.3-34.9l-12.6-9.9C37.1 144 32 159.4 32 176V336c0 44.2 35.8 80 80 80H406.5l-20.3-16zM480 96H233.5l20.3 16H480c35.3 0 64 28.7 64 64v16 16 96 16 16c0 1.7-.1 3.3-.2 5l14.5 11.4c1.1-5.3 1.7-10.8 1.7-16.4V320h16c17.7 0 32-14.3 32-32V224c0-17.7-14.3-32-32-32H560V176c0-44.2-35.8-80-80-80zm80 112h16c8.8 0 16 7.2 16 16v64c0 8.8-7.2 16-16 16H560V208z"/></svg>