<svg xmlns="http://www.w3.org/2000/svg" viewBox="0 0 576 512"><!--! Font Awesome Pro 6.4.0 by @fontawesome - https://fontawesome.com License - https://fontawesome.com/license (Commercial License) Copyright 2023 Fonticons, Inc. --><path d="M80 112c-35.3 0-64 28.7-64 64V336c0 35.3 28.7 64 64 64H448c35.3 0 64-28.7 64-64V320 304 208 192 176c0-35.3-28.7-64-64-64H80zM528 320v16c0 44.2-35.8 80-80 80H80c-44.2 0-80-35.8-80-80V176c0-44.2 35.8-80 80-80H448c44.2 0 80 35.8 80 80v16h16c17.7 0 32 14.3 32 32v64c0 17.7-14.3 32-32 32H528zm0-112v96h16c8.8 0 16-7.2 16-16V224c0-8.8-7.2-16-16-16H528z"/></svg>