<svg xmlns="http://www.w3.org/2000/svg" viewBox="0 0 576 512"><!--! Font Awesome Pro 6.4.0 by @fontawesome - https://fontawesome.com License - https://fontawesome.com/license (Commercial License) Copyright 2023 Fonticons, Inc. --><path d="M448 112c35.3 0 64 28.7 64 64v16 16 96 16 16c0 35.3-28.7 64-64 64H80c-35.3 0-64-28.7-64-64V176c0-35.3 28.7-64 64-64H448zm80 224V320h16c17.7 0 32-14.3 32-32V224c0-17.7-14.3-32-32-32H528V176c0-44.2-35.8-80-80-80H80C35.8 96 0 131.8 0 176V336c0 44.2 35.8 80 80 80H448c44.2 0 80-35.8 80-80zm0-32V208h16c8.8 0 16 7.2 16 16v64c0 8.8-7.2 16-16 16H528zM272 144c-4.4 0-8 3.6-8 8V296c0 4.4 3.6 8 8 8s8-3.6 8-8V152c0-4.4-3.6-8-8-8zm16 208a16 16 0 1 0 -32 0 16 16 0 1 0 32 0z"/></svg>