<svg xmlns="http://www.w3.org/2000/svg" viewBox="0 0 512 512"><!--! Font Awesome Pro 6.4.0 by @fontawesome - https://fontawesome.com License - https://fontawesome.com/license (Commercial License) Copyright 2023 Fonticons, Inc. --><path d="M208 0c28.1 0 53.2 13.2 69.3 33.7c.2 .3 .7 .6 1.5 .7s1.4-.2 1.8-.5C293.2 22.8 309.8 16 328 16c39.8 0 72 32.2 72 72s-32.2 72-72 72c-18.2 0-34.8-6.8-47.5-17.9c-.4-.3-1-.6-1.8-.5s-1.3 .4-1.5 .7C261.2 162.8 236.1 176 208 176s-53.2-13.2-69.3-33.7c-.2-.3-.7-.6-1.5-.7s-1.4 .2-1.8 .5C122.8 153.2 106.2 160 88 160c-39.8 0-72-32.2-72-72s32.2-72 72-72c18.2 0 34.8 6.8 47.5 17.9c.4 .3 1 .6 1.8 .5s1.3-.4 1.5-.7C154.8 13.2 179.9 0 208 0zM151.3 43.6c-6.5 8.2-18.8 9-26.4 2.3C115.1 37.2 102.2 32 88 32C57.1 32 32 57.1 32 88s25.1 56 56 56c14.2 0 27.1-5.2 36.9-13.9c7.6-6.7 19.9-5.9 26.4 2.3C164.5 149.2 185 160 208 160s43.5-10.8 56.7-27.6c6.5-8.2 18.8-9 26.4-2.3c9.9 8.7 22.8 13.9 36.9 13.9c30.9 0 56-25.1 56-56s-25.1-56-56-56c-14.2 0-27.1 5.2-36.9 13.9c-7.6 6.7-19.9 5.9-26.4-2.3C251.5 26.8 231 16 208 16s-43.5 10.8-56.7 27.6zM368 448V432.2v-.4V184v0c0-4.4 3.6-8 8-8h7.4l.6-.3v.3h72c30.9 0 56 25.1 56 56V334.1c0 28.6-16.9 54.5-43.1 66L384 437.2V448c0 35.3-28.7 64-64 64H96c-35.3 0-64-28.7-64-64V175.7c5.1 3.2 10.4 6 16 8.4V448c0 26.5 21.5 48 48 48H320c26.5 0 48-21.5 48-48zm94.4-62.6c20.4-8.9 33.6-29.1 33.6-51.3V232c0-22.1-17.9-40-40-40H384V419.8l78.4-34.3zM144 232V440c0 4.4-3.6 8-8 8s-8-3.6-8-8V232c0-4.4 3.6-8 8-8s8 3.6 8 8zm72 0V440c0 4.4-3.6 8-8 8s-8-3.6-8-8V232c0-4.4 3.6-8 8-8s8 3.6 8 8zm72 0V440c0 4.4-3.6 8-8 8s-8-3.6-8-8V232c0-4.4 3.6-8 8-8s8 3.6 8 8z"/></svg>