<svg xmlns="http://www.w3.org/2000/svg" viewBox="0 0 512 512"><!--! Font Awesome Pro 6.4.0 by @fontawesome - https://fontawesome.com License - https://fontawesome.com/license (Commercial License) Copyright 2023 Fonticons, Inc. --><path d="M200 64c-4.4 0-8 3.6-8 8s3.6 8 8 8h48v64.1C128 148.4 32 247 32 368v32H48V368c0-114.9 93.1-208 208-208s208 93.1 208 208v32h16V368c0-121-96-219.6-216-223.9V80h48c4.4 0 8-3.6 8-8s-3.6-8-8-8H256 200zM8 432c-4.4 0-8 3.6-8 8s3.6 8 8 8H504c4.4 0 8-3.6 8-8s-3.6-8-8-8H8z"/></svg>