<svg xmlns="http://www.w3.org/2000/svg" viewBox="0 0 640 512"><!--! Font Awesome Pro 6.4.0 by @fontawesome - https://fontawesome.com License - https://fontawesome.com/license (Commercial License) Copyright 2023 Fonticons, Inc. --><path d="M344 80c13.3 0 24 10.7 24 24v17.4 16.1V152c0 13.3-10.7 24-24 24H296c-13.3 0-24-10.7-24-24V137.5 121.4 104c0-13.3 10.7-24 24-24h48zm80.1 56H528c.2 0 .4 0 .6 0c3.9 27.1 27.2 48 55.4 48c30.9 0 56-25.1 56-56s-25.1-56-56-56c-28.2 0-51.6 20.9-55.4 48c-.2 0-.4 0-.6 0H384V104c0-22.1-17.9-40-40-40H296c-22.1 0-40 17.9-40 40v16H112c-.2 0-.4 0-.6 0C107.6 92.9 84.2 72 56 72C25.1 72 0 97.1 0 128s25.1 56 56 56c28.2 0 51.6-20.9 55.4-48c.2 0 .4 0 .6 0H215.9C143.1 166.4 91.3 237 88.2 320H72c-22.1 0-40 17.9-40 40v48c0 22.1 17.9 40 40 40h48c22.1 0 40-17.9 40-40V360c0-22.1-17.9-40-40-40H104.2c3.6-88.7 67.5-162 151.8-179.8V152c0 22.1 17.9 40 40 40h48c22.1 0 40-17.9 40-40V140.2C468.3 158 532.2 231.3 535.8 320H520c-22.1 0-40 17.9-40 40v48c0 22.1 17.9 40 40 40h48c22.1 0 40-17.9 40-40V360c0-22.1-17.9-40-40-40H551.8c-3.1-83-54.9-153.6-127.7-184zM16 128a40 40 0 1 1 80 0 40 40 0 1 1 -80 0zm528 0a40 40 0 1 1 80 0 40 40 0 1 1 -80 0zM72 336h48c13.3 0 24 10.7 24 24v48c0 13.3-10.7 24-24 24H72c-13.3 0-24-10.7-24-24V360c0-13.3 10.7-24 24-24zm424 24c0-13.3 10.7-24 24-24h48c13.3 0 24 10.7 24 24v48c0 13.3-10.7 24-24 24H520c-13.3 0-24-10.7-24-24V360z"/></svg>