<svg xmlns="http://www.w3.org/2000/svg" viewBox="0 0 640 512"><!--! Font Awesome Pro 6.4.0 by @fontawesome - https://fontawesome.com License - https://fontawesome.com/license (Commercial License) Copyright 2023 Fonticons, Inc. --><path d="M424 8c0-4.4-3.6-8-8-8s-8 3.6-8 8V32H232V8c0-4.4-3.6-8-8-8s-8 3.6-8 8V32H80C53.5 32 32 53.5 32 80V368H8c-4.4 0-8 3.6-8 8s3.6 8 8 8H32 48 312V504c0 4.4 3.6 8 8 8s8-3.6 8-8V384H592h16 24c4.4 0 8-3.6 8-8s-3.6-8-8-8H608V80c0-26.5-21.5-48-48-48H424V8zM320 368H48V80c0-17.7 14.3-32 32-32H216v80H192c-4.4 0-8 3.6-8 8s3.6 8 8 8h32 32c4.4 0 8-3.6 8-8s-3.6-8-8-8H232V48H408v80H384c-4.4 0-8 3.6-8 8s3.6 8 8 8h32 32c4.4 0 8-3.6 8-8s-3.6-8-8-8H424V48H560c17.7 0 32 14.3 32 32V368H320z"/></svg>