<svg xmlns="http://www.w3.org/2000/svg" viewBox="0 0 640 512"><!--! Font Awesome Pro 6.4.0 by @fontawesome - https://fontawesome.com License - https://fontawesome.com/license (Commercial License) Copyright 2023 Fonticons, Inc. --><path d="M312 8c0-2.6-1.3-5.1-3.4-6.6s-4.9-1.8-7.4-.9l-64 24c-4.1 1.6-6.2 6.2-4.7 10.3s6.2 6.2 10.3 4.7L296 19.5V208H232c-4.4 0-8 3.6-8 8s3.6 8 8 8h72 72c4.4 0 8-3.6 8-8s-3.6-8-8-8H312V8zM88 296c0-2.6-1.3-5.1-3.4-6.6s-4.9-1.8-7.4-.9l-64 24c-4.1 1.6-6.2 6.2-4.7 10.3s6.2 6.2 10.3 4.7L72 307.5V496H8c-4.4 0-8 3.6-8 8s3.6 8 8 8H80h72c4.4 0 8-3.6 8-8s-3.6-8-8-8H88V296zM16 64v96c0 35.3 28.7 64 64 64h32c35.3 0 64-28.7 64-64V64c0-35.3-28.7-64-64-64H80C44.7 0 16 28.7 16 64zM80 16h32c26.5 0 48 21.5 48 48v96c0 26.5-21.5 48-48 48H80c-26.5 0-48-21.5-48-48V64c0-26.5 21.5-48 48-48zM272 288c-35.3 0-64 28.7-64 64v96c0 35.3 28.7 64 64 64h32c23.9 0 44.8-13.1 55.8-32.6c-3.8-4.7-7.4-9.6-10.8-14.6C342.2 483 324.6 496 304 496H272c-26.5 0-48-21.5-48-48V352c0-26.5 21.5-48 48-48h32c9.3 0 18 2.6 25.4 7.2c1.8-5.1 3.7-10.2 5.9-15.1C326 291 315.4 288 304 288H272zm224-48a128 128 0 1 1 0 256 128 128 0 1 1 0-256zm0 272a144 144 0 1 0 0-288 144 144 0 1 0 0 288zm69.7-189.7c-3.1-3.1-8.2-3.1-11.3 0L480 396.7l-42.3-42.3c-3.1-3.1-8.2-3.1-11.3 0s-3.1 8.2 0 11.3l48 48c3.1 3.1 8.2 3.1 11.3 0l80-80c3.1-3.1 3.1-8.2 0-11.3z"/></svg>