<svg xmlns="http://www.w3.org/2000/svg" viewBox="0 0 640 512"><!--! Font Awesome Pro 6.4.0 by @fontawesome - https://fontawesome.com License - https://fontawesome.com/license (Commercial License) Copyright 2023 Fonticons, Inc. --><path d="M432 224h72c4.4 0 8-3.6 8-8s-3.6-8-8-8H440V8c0-2.6-1.3-5.1-3.4-6.6s-4.9-1.8-7.4-.9l-64 24c-4.1 1.6-6.2 6.2-4.7 10.3s6.2 6.2 10.3 4.7L424 19.5V208H375.4l20.3 16H432zM304 64c0-35.3-28.7-64-64-64H208c-23.7 0-44.4 12.9-55.5 32.1l12.7 10.1C173.2 26.6 189.4 16 208 16h32c26.5 0 48 21.5 48 48v75l16 12.6V64zm32 384c0 35.3 28.7 64 64 64h32c23.7 0 44.4-12.9 55.5-32.1l-12.7-10.1c-8 15.5-24.1 26.1-42.7 26.1H400c-26.5 0-48-21.5-48-48V373l-16-12.6V448zM216 296c0-2.6-1.3-5.1-3.4-6.6s-4.9-1.8-7.4-.9l-64 24c-4.1 1.6-6.2 6.2-4.7 10.3s6.2 6.2 10.3 4.7L200 307.5V496H136c-4.4 0-8 3.6-8 8s3.6 8 8 8h72 72c4.4 0 8-3.6 8-8s-3.6-8-8-8H216V296zM13 1.7C9.5-1 4.5-.4 1.7 3S-.4 11.5 3 14.3l624 496c3.5 2.7 8.5 2.2 11.2-1.3s2.2-8.5-1.3-11.2L13 1.7z"/></svg>