<svg xmlns="http://www.w3.org/2000/svg" viewBox="0 0 320 512"><!--! Font Awesome Pro 6.4.0 by @fontawesome - https://fontawesome.com License - https://fontawesome.com/license (Commercial License) Copyright 2023 Fonticons, Inc. --><path d="M80 8c0-4.4 3.6-8 8-8s8 3.6 8 8V64h64V8c0-4.4 3.6-8 8-8s8 3.6 8 8V64.1c53.4 2.1 96 46 96 99.9c0 36.5-19.5 68.4-48.7 85.9c46 9 80.7 49.5 80.7 98.1c0 55.2-44.8 100-100 100H176v56c0 4.4-3.6 8-8 8s-8-3.6-8-8V448H96l0 56c0 4.4-3.6 8-8 8s-8-3.6-8-8l0-56H53.6C32.8 448 16 431.2 16 410.4V264 248 97.4C16 78.9 30.9 64 49.4 64H80V8zM49.4 80C39.8 80 32 87.8 32 97.4V248H172c46.4 0 84-37.6 84-84s-37.6-84-84-84H49.4zM172 264H32V410.4c0 11.9 9.7 21.6 21.6 21.6H204c46.4 0 84-37.6 84-84s-37.6-84-84-84H172z"/></svg>