<svg xmlns="http://www.w3.org/2000/svg" viewBox="0 0 448 512"><!--! Font Awesome Pro 6.4.0 by @fontawesome - https://fontawesome.com License - https://fontawesome.com/license (Commercial License) Copyright 2023 Fonticons, Inc. --><path d="M16 120V341.4C31.9 318.8 58.2 304 88 304H400c12.3 0 23.5 4.6 32 12.2V120c0-39.8-32.2-72-72-72H88c-39.8 0-72 32.2-72 72zM.4 384H0V120C0 71.4 39.4 32 88 32H360c48.6 0 88 39.4 88 88V352c0 26.5-21.5 48-48 48H88c-4.4 0-8-3.6-8-8s3.6-8 8-8H400c17.7 0 32-14.3 32-32s-14.3-32-32-32H88c-39.8 0-72 32.2-72 72s32.2 72 72 72H440c4.4 0 8 3.6 8 8s-3.6 8-8 8H88c-48.6 0-88-39.4-88-88c0-2.7 .1-5.4 .4-8z"/></svg>