<svg xmlns="http://www.w3.org/2000/svg" viewBox="0 0 512 512"><!--! Font Awesome Pro 6.4.0 by @fontawesome - https://fontawesome.com License - https://fontawesome.com/license (Commercial License) Copyright 2023 Fonticons, Inc. --><path d="M480 16c8.8 0 16 7.2 16 16V64c0 8.8-7.2 16-16 16H152 136 32c-8.8 0-16-7.2-16-16V32c0-8.8 7.2-16 16-16H480zM152 96H480c17.7 0 32-14.3 32-32V32c0-17.7-14.3-32-32-32H32C14.3 0 0 14.3 0 32V64C0 81.7 14.3 96 32 96H136V256.7c-22.7 3.8-40 23.6-40 47.3c0 26.5 21.5 48 48 48s48-21.5 48-48c0-23.8-17.3-43.5-40-47.3V96zm32 128H492.3c10.9 0 19.7-8.8 19.7-19.7c0-2.8-.6-5.7-1.8-8.2L478.8 128H461.1l34.5 74.8c.2 .5 .3 1 .3 1.5c0 2-1.6 3.7-3.7 3.7H184v16zm-80-16H19.7c-2 0-3.7-1.6-3.7-3.7c0-.5 .1-1.1 .3-1.5L50.9 128H33.2L1.8 196.1C.6 198.7 0 201.5 0 204.3C0 215.2 8.8 224 19.7 224H104V208zM64 304H19.7c-2 0-3.7-1.6-3.7-3.7c0-.5 .1-1.1 .3-1.5L36.1 256H18.5L1.8 292.1C.6 294.7 0 297.5 0 300.3C0 311.2 8.8 320 19.7 320H65.6c-1-5.2-1.6-10.5-1.6-16zm158.4 16H492.3c10.9 0 19.7-8.8 19.7-19.7c0-2.8-.6-5.7-1.8-8.2L493.5 256H475.9l19.7 42.8c.2 .5 .3 1 .3 1.5c0 2-1.6 3.7-3.7 3.7H224c0 5.5-.6 10.8-1.6 16zM18.5 352L1.8 388.1C.6 390.7 0 393.5 0 396.3C0 407.2 8.8 416 19.7 416H492.3c10.9 0 19.7-8.8 19.7-19.7c0-2.8-.6-5.7-1.8-8.2L493.5 352H475.9l19.7 42.8c.2 .5 .3 1 .3 1.5c0 2-1.6 3.7-3.7 3.7H19.7c-2 0-3.7-1.6-3.7-3.7c0-.5 .1-1.1 .3-1.5L36.1 352H18.5zM1.8 484.1C.6 486.7 0 489.5 0 492.3C0 503.2 8.8 512 19.7 512H492.3c10.9 0 19.7-8.8 19.7-19.7c0-2.8-.6-5.7-1.8-8.2L493.5 448H475.9l19.7 42.8c.2 .5 .3 1 .3 1.5c0 2-1.6 3.7-3.7 3.7H19.7c-2 0-3.7-1.6-3.7-3.7c0-.5 .1-1.1 .3-1.5L36.1 448H18.5L1.8 484.1zM176 304a32 32 0 1 1 -64 0 32 32 0 1 1 64 0z"/></svg>