<svg xmlns="http://www.w3.org/2000/svg" viewBox="0 0 512 512"><!--! Font Awesome Pro 6.4.0 by @fontawesome - https://fontawesome.com License - https://fontawesome.com/license (Commercial License) Copyright 2023 Fonticons, Inc. --><path d="M32 16c-8.8 0-16 7.2-16 16V64c0 8.8 7.2 16 16 16H480c8.8 0 16-7.2 16-16V32c0-8.8-7.2-16-16-16H32zM0 32C0 14.3 14.3 0 32 0H480c17.7 0 32 14.3 32 32V64c0 17.7-14.3 32-32 32H152v80 16 80 16V416c0 .2 0 .4 0 .7c22.7 3.8 40 23.5 40 47.3c0 26.5-21.5 48-48 48s-48-21.5-48-48c0-23.8 17.3-43.5 40-47.3c0-.2 0-.4 0-.7V288 272 192 176 96H32C14.3 96 0 81.7 0 64V32zM176 464a32 32 0 1 0 -64 0 32 32 0 1 0 64 0zM104 176v16H19.7C8.8 192 0 183.2 0 172.3c0-2.8 .6-5.7 1.8-8.2L18.5 128H36.1L16.3 170.8c-.2 .5-.3 1-.3 1.5c0 2 1.6 3.7 3.7 3.7H104zm80 16V176H492.3c2 0 3.7-1.6 3.7-3.7c0-.5-.1-1.1-.3-1.5L475.9 128h17.6l16.6 36.1c1.2 2.6 1.8 5.4 1.8 8.2c0 10.9-8.8 19.7-19.7 19.7H184zm308.3 80c2 0 3.7-1.6 3.7-3.7c0-.5-.1-1.1-.3-1.5L475.9 224h17.6l16.6 36.1c1.2 2.6 1.8 5.4 1.8 8.2c0 10.9-8.8 19.7-19.7 19.7H184V272H492.3zM104 272v16H19.7C8.8 288 0 279.2 0 268.3c0-2.8 .6-5.7 1.8-8.2L18.5 224H36.1L16.3 266.8c-.2 .5-.3 1-.3 1.5c0 2 1.6 3.7 3.7 3.7H104z"/></svg>