<svg xmlns="http://www.w3.org/2000/svg" viewBox="0 0 448 512"><!--! Font Awesome Pro 6.4.0 by @fontawesome - https://fontawesome.com License - https://fontawesome.com/license (Commercial License) Copyright 2023 Fonticons, Inc. --><path d="M128 48v80h88 16 88V48H128zm-16 80V48H64C37.5 48 16 69.5 16 96v32h96zM16 144V248H216V144H16zm0 224h96V264H16V368zm0 16v32c0 26.5 21.5 48 48 48H216V384H128 112 16zm112-16H320V264H128V368zm208 0h96V264H336V368zm96 16H336 320 232v80H384c26.5 0 48-21.5 48-48V384zm0-240H232V248H432V144zm0-16V96c0-26.5-21.5-48-48-48H336v80h96zM0 96C0 60.7 28.7 32 64 32H384c35.3 0 64 28.7 64 64V416c0 35.3-28.7 64-64 64H64c-35.3 0-64-28.7-64-64V96z"/></svg>