<svg xmlns="http://www.w3.org/2000/svg" viewBox="0 0 448 512"><!--! Font Awesome Pro 6.4.0 by @fontawesome - https://fontawesome.com License - https://fontawesome.com/license (Commercial License) Copyright 2023 Fonticons, Inc. --><path d="M0 56C0 25.1 25.1 0 56 0H408c22.1 0 40 17.9 40 40V376c0 19.4-13.7 35.5-32 39.2V496h24c4.4 0 8 3.6 8 8s-3.6 8-8 8H56c-30.9 0-56-25.1-56-56V56zM56 416c-22.1 0-40 17.9-40 40s17.9 40 40 40H400V416H56zm-40 .8C26.2 406.4 40.3 400 56 400H408c13.3 0 24-10.7 24-24V40c0-13.3-10.7-24-24-24H56C33.9 16 16 33.9 16 56V416.8zM240 192a48 48 0 1 0 0-96 48 48 0 1 0 0 96zm0-112a64 64 0 1 1 0 128 64 64 0 1 1 0-128zM200 256c-30.9 0-56 25.1-56 56c0 4.4 3.6 8 8 8H328c4.4 0 8-3.6 8-8c0-30.9-25.1-56-56-56H200zm-72 56c0-39.8 32.2-72 72-72h80c39.8 0 72 32.2 72 72c0 13.3-10.7 24-24 24H152c-13.3 0-24-10.7-24-24z"/></svg>