<svg xmlns="http://www.w3.org/2000/svg" viewBox="0 0 512 512"><!--! Font Awesome Pro 6.4.0 by @fontawesome - https://fontawesome.com License - https://fontawesome.com/license (Commercial License) Copyright 2023 Fonticons, Inc. --><path d="M128 416v48c0 17.7-14.3 32-32 32H48c-17.7 0-32-14.3-32-32V416H128zM96 512c16.7 0 31.4-8.5 40-21.5c8.6 12.9 23.3 21.5 40 21.5h48c26.5 0 48-21.5 48-48V416v-8-8V132.2l1.5 6 2 7.7 65.9 253.8 2 7.7 18 69.2c6.6 25.5 32 40.6 56.7 33.8l59.6-16.5c24.7-6.8 39.3-33 32.7-58.5l-16-61.5-2-7.7L426.6 112.4l-2-7.7-18-69.2C400 9.9 374.6-5.2 349.9 1.6L290.3 18.1c-8.4 2.3-15.7 6.9-21.4 13C262.1 12.9 244.6 0 224 0H176c-16.7 0-31.4 8.5-40 21.5C127.4 8.5 112.7 0 96 0H48C21.5 0 0 21.5 0 48V96v8 8V400v8 8 48c0 26.5 21.5 48 48 48H96zM272 64.8V63.6c.3-14 9.5-26.4 22.6-30l59.6-16.5c15.7-4.3 32.5 5.1 36.9 22.4l16 61.7L289 133.8 273.1 72.6c-.7-2.6-1-5.2-1.1-7.8zm-16-.6c0 0 0 0 0 0V96H144V48c0-17.7 14.3-32 32-32h48c17.7 0 32 14.3 32 32V64.2zM176 496c-17.7 0-32-14.3-32-32V416H256v48c0 17.7-14.3 32-32 32H176zM128 112V400H16V112H128zm0-64V96H16V48c0-17.7 14.3-32 32-32H96c17.7 0 32 14.3 32 32zM256 400H144V112H256V400zM411.2 116.7l63.9 246L356.8 395.3 293 149.3l118.2-32.7zM479 378.2l15.9 61.2c4.5 17.4-5.6 34.7-21.5 39.1l-59.6 16.5c-15.7 4.3-32.5-5.1-36.9-22.4l-16-61.7L479 378.2z"/></svg>