<svg xmlns="http://www.w3.org/2000/svg" viewBox="0 0 576 512"><!--! Font Awesome Pro 6.4.0 by @fontawesome - https://fontawesome.com License - https://fontawesome.com/license (Commercial License) Copyright 2023 Fonticons, Inc. --><path d="M192 464c0 17.7-14.3 32-32 32H112c-17.7 0-32-14.3-32-32V416H192v48zm-32 48c16.7 0 31.4-8.5 40-21.5c8.6 12.9 23.3 21.5 40 21.5h48c26.5 0 48-21.5 48-48V416v-8-8V132.2l1.5 6 2 7.7 65.9 253.8 2 7.7 18 69.2c6.6 25.5 32 40.6 56.7 33.8l59.6-16.5c24.7-6.8 39.3-33 32.7-58.5l-16-61.5-2-7.7L490.6 112.4l-2-7.7-18-69.2C464 9.9 438.6-5.2 413.9 1.6L354.3 18.1c-8.4 2.3-15.7 6.9-21.4 13C326.1 12.9 308.6 0 288 0H240c-16.7 0-31.4 8.5-40 21.5C191.4 8.5 176.7 0 160 0H112C85.5 0 64 21.5 64 48V96v8 8H80h96 16v56h16V112H320V400H208V344H192v56H176 80 64v8 8 48c0 26.5 21.5 48 48 48h48zM336 64.8V63.6c.3-14 9.5-26.4 22.6-30l59.6-16.5c15.7-4.3 32.5 5.1 36.9 22.4l16 61.7L353 133.8 337.1 72.6c-.7-2.6-1-5.2-1.1-7.8zm-16-.6v0V96H208V48c0-17.7 14.3-32 32-32h48c17.7 0 32 14.3 32 32V64.2zM240 496c-17.7 0-32-14.3-32-32V416H320v48c0 17.7-14.3 32-32 32H240zM192 48V96H80V48c0-17.7 14.3-32 32-32h48c17.7 0 32 14.3 32 32zm283.2 68.7l63.9 246L420.8 395.3 357 149.3l118.2-32.7zM543 378.2l15.9 61.2c4.5 17.4-5.6 34.7-21.5 39.1l-59.6 16.5c-15.7 4.3-32.5-5.1-36.9-22.4l-16-61.7L543 378.2zM80 168c0-4.4 3.6-8 8-8h32c4.4 0 8 3.6 8 8v56c0 4.4 3.6 8 8 8h56c4.4 0 8 3.6 8 8v32c0 4.4-3.6 8-8 8H136c-4.4 0-8 3.6-8 8v56c0 4.4-3.6 8-8 8H88c-4.4 0-8-3.6-8-8V288c0-4.4-3.6-8-8-8H16c-4.4 0-8-3.6-8-8V240c0-4.4 3.6-8 8-8H72c4.4 0 8-3.6 8-8V168zm8-24c-13.3 0-24 10.7-24 24v48H16C2.7 216-8 226.7-8 240v32c0 13.3 10.7 24 24 24H64v48c0 13.3 10.7 24 24 24h32c13.3 0 24-10.7 24-24V296h48c13.3 0 24-10.7 24-24V240c0-13.3-10.7-24-24-24H144V168c0-13.3-10.7-24-24-24H88z"/></svg>