<svg xmlns="http://www.w3.org/2000/svg" viewBox="0 0 640 512"><!--! Font Awesome Pro 6.4.0 by @fontawesome - https://fontawesome.com License - https://fontawesome.com/license (Commercial License) Copyright 2023 Fonticons, Inc. --><path d="M56 0C25.1 0 0 25.1 0 56V456c0 30.9 25.1 56 56 56H440c4.4 0 8-3.6 8-8s-3.6-8-8-8H416V415.2c18.3-3.7 32-19.8 32-39.2V256H432V376c0 13.3-10.7 24-24 24H56c-15.7 0-29.8 6.4-40 16.8V56c0-22.1 17.9-40 40-40H408c13.3 0 24 10.7 24 24V160h16V40c0-22.1-17.9-40-40-40H56zM400 416v80H56c-22.1 0-40-17.9-40-40s17.9-40 40-40H400zM533.7 98.3c-3.1-3.1-8.2-3.1-11.3 0s-3.1 8.2 0 11.3L612.7 200H264c-4.4 0-8 3.6-8 8s3.6 8 8 8H612.7l-90.3 90.3c-3.1 3.1-3.1 8.2 0 11.3s8.2 3.1 11.3 0l104-104c3.1-3.1 3.1-8.2 0-11.3l-104-104z"/></svg>