<svg xmlns="http://www.w3.org/2000/svg" viewBox="0 0 448 512"><!--! Font Awesome Pro 6.4.0 by @fontawesome - https://fontawesome.com License - https://fontawesome.com/license (Commercial License) Copyright 2023 Fonticons, Inc. --><path d="M392 0c30.9 0 56 25.1 56 56V456c0 30.9-25.1 56-56 56H8c-4.4 0-8-3.6-8-8s3.6-8 8-8H32V415.2C13.7 411.5 0 395.4 0 376V40C0 17.9 17.9 0 40 0H392zM48 416v80H392c22.1 0 40-17.9 40-40s-17.9-40-40-40H48zm344-16c15.7 0 29.8 6.4 40 16.8V56c0-22.1-17.9-40-40-40H40C26.7 16 16 26.7 16 40V376c0 13.3 10.7 24 24 24H392zM239.1 136L216 96l-23.1 40h46.2zm18.5 0H313c12.3 0 20 13.3 13.9 24l-27.7 48 27.7 48c6.2 10.7-1.5 24-13.9 24H257.6l-27.7 48c-6.2 10.7-21.6 10.7-27.7 0l-27.7-48H119c-12.3 0-20-13.3-13.9-24l27.7-48-27.7-48c-6.2-10.7 1.5-24 13.9-24h55.4l27.7-48c6.2-10.7 21.6-10.7 27.7 0l27.7 48zm-9.2 16l-64.7 0-32.3 56 32.3 56h64.7l32.3-56-32.3-56zm41.6 40L313 152H266.8l23.1 40zm0 32l-23.1 40H313l-23.1-40zm-50.8 56H192.9L216 320l23.1-40zm-73.9-16l-23.1-40L119 264h46.2zm-23.1-72l23.1-40H119l23.1 40z"/></svg>