<svg xmlns="http://www.w3.org/2000/svg" viewBox="0 0 640 512"><!--! Font Awesome Pro 6.4.0 by @fontawesome - https://fontawesome.com License - https://fontawesome.com/license (Commercial License) Copyright 2023 Fonticons, Inc. --><path d="M80 72v88H192c0-17.7 14.3-32 32-32s32 14.3 32 32h32c0-17.7 14.3-32 32-32s32 14.3 32 32h32c0-17.7 14.3-32 32-32s32 14.3 32 32H560V72c0-30.9-25.1-56-56-56H136c-30.9 0-56 25.1-56 56zM64 160V72C64 32.2 96.2 0 136 0H504c39.8 0 72 32.2 72 72v88c35.3 0 64 28.7 64 64V448c0 35.3-28.7 64-64 64H64c-35.3 0-64-28.7-64-64V224c0-35.3 28.7-64 64-64zm328 16H344 296 248 200 72 64c-26.5 0-48 21.5-48 48V448c0 26.5 21.5 48 48 48H576c26.5 0 48-21.5 48-48V224c0-26.5-21.5-48-48-48h-8H440 392zM224 144c-8.8 0-16 7.2-16 16h32c0-8.8-7.2-16-16-16zm192 0c-8.8 0-16 7.2-16 16h32c0-8.8-7.2-16-16-16zM304 160h32c0-8.8-7.2-16-16-16s-16 7.2-16 16zM176 432a96 96 0 1 0 0-192 96 96 0 1 0 0 192zm0-208a112 112 0 1 1 0 224 112 112 0 1 1 0-224zM560 336a96 96 0 1 0 -192 0 96 96 0 1 0 192 0zm-208 0a112 112 0 1 1 224 0 112 112 0 1 1 -224 0z"/></svg>