<svg xmlns="http://www.w3.org/2000/svg" viewBox="0 0 448 512"><!--! Font Awesome Pro 6.4.0 by @fontawesome - https://fontawesome.com License - https://fontawesome.com/license (Commercial License) Copyright 2023 Fonticons, Inc. --><path d="M384 48c26.5 0 48 21.5 48 48V240l-208 0V48H384zm48 208V416c0 26.5-21.5 48-48 48H224V256l208 0zM208 240H16V96c0-26.5 21.5-48 48-48H208V240zM16 256H208V464H64c-26.5 0-48-21.5-48-48V256zM64 32C28.7 32 0 60.7 0 96V416c0 35.3 28.7 64 64 64H384c35.3 0 64-28.7 64-64V96c0-35.3-28.7-64-64-64H64z"/></svg>