<svg xmlns="http://www.w3.org/2000/svg" viewBox="0 0 512 512"><!--! Font Awesome Pro 6.4.0 by @fontawesome - https://fontawesome.com License - https://fontawesome.com/license (Commercial License) Copyright 2023 Fonticons, Inc. --><path d="M264 0c-3 0-5.7 1.6-7.1 4.2s-1.2 5.8 .4 8.2l10.8 16.3c2.5 3.7 3.8 8.1 3.8 12.6C272 53.8 261.8 64 249.3 64H176c-35.3 0-64 28.7-64 64c0 8.5 1.7 16.6 4.7 24H108c-42 0-76 34-76 76s34 76 76 76H404c42 0 76-34 76-76s-34-76-76-76H391.7c5.3-10.2 8.3-21.7 8.3-34C400 52.8 347.2 0 282 0H264zm17.5 19.8L278.9 16H282c56.3 0 102 45.7 102 102c0 12.7-4.1 24.4-11 34H296c-4.4 0-8 3.6-8 8s3.6 8 8 8h80.9H384h20c33.1 0 60 26.9 60 60s-26.9 60-60 60H108c-33.1 0-60-26.9-60-60s26.9-60 60-60h20 2 38c4.4 0 8-3.6 8-8s-3.6-8-8-8H134.4c-4.1-7.1-6.4-15.2-6.4-24c0-26.5 21.5-48 48-48h73.3C270.7 80 288 62.7 288 41.3c0-7.6-2.3-15.1-6.5-21.5zM64 336c0-4.4-3.6-8-8-8s-8 3.6-8 8v16c0 53 43 96 96 96h43.1l-26.2 52.4c-1.2 2.5-1.1 5.4 .4 7.8s4 3.8 6.8 3.8H344c2.8 0 5.3-1.4 6.8-3.8s1.6-5.3 .3-7.8L324.9 448H368c53 0 96-43 96-96V336c0-4.4-3.6-8-8-8s-8 3.6-8 8v16c0 44.2-35.8 80-80 80H312c-2.8 0-5.3 1.4-6.8 3.8s-1.6 5.3-.4 7.8L331.1 496H180.9l26.2-52.4c1.2-2.5 1.1-5.4-.4-7.8s-4-3.8-6.8-3.8H144c-44.2 0-80-35.8-80-80V336z"/></svg>