<svg xmlns="http://www.w3.org/2000/svg" viewBox="0 0 576 512"><!--! Font Awesome Pro 6.4.0 by @fontawesome - https://fontawesome.com License - https://fontawesome.com/license (Commercial License) Copyright 2023 Fonticons, Inc. --><path d="M160 16c-8.8 0-16 7.2-16 16V224c0 8.8 7.2 16 16 16H416c8.8 0 16-7.2 16-16V32c0-8.8-7.2-16-16-16H160zM128 32c0-17.7 14.3-32 32-32H416c17.7 0 32 14.3 32 32V224c0 17.7-14.3 32-32 32H160c-17.7 0-32-14.3-32-32V32zM48 160H96v16H48c-17.7 0-32 14.3-32 32V320H560V208c0-17.7-14.3-32-32-32H480V160h48c26.5 0 48 21.5 48 48V320v8 8V464c0 26.5-21.5 48-48 48H48c-26.5 0-48-21.5-48-48V336v-8-8V208c0-26.5 21.5-48 48-48zM560 336H16V464c0 17.7 14.3 32 32 32H528c17.7 0 32-14.3 32-32V336z"/></svg>