<svg xmlns="http://www.w3.org/2000/svg" viewBox="0 0 448 512"><!--! Font Awesome Pro 6.4.0 by @fontawesome - https://fontawesome.com License - https://fontawesome.com/license (Commercial License) Copyright 2023 Fonticons, Inc. --><path d="M232 48H342.4c19 0 36.2 11.2 43.9 28.5l41.6 93.6c.9 1.9 1.6 3.9 2.2 5.9H232V48zM16 192H432V416c0 26.5-21.5 48-48 48H64c-26.5 0-48-21.5-48-48V192zm200-16H18c.6-2 1.3-4 2.2-5.9L61.7 76.5C69.4 59.2 86.6 48 105.6 48H216V176zM400.9 70c-10.3-23.1-33.2-38-58.5-38H105.6C80.3 32 57.4 46.9 47.1 70L5.5 163.6c-3.6 8.2-5.5 17-5.5 26V416c0 35.3 28.7 64 64 64H384c35.3 0 64-28.7 64-64V189.6c0-9-1.9-17.8-5.5-26L400.9 70zM232 232c0-4.4-3.6-8-8-8s-8 3.6-8 8v16.4c-8.4 .7-16.2 2.6-23 5.7c-12.4 5.6-21.9 15.4-24.2 28.8c-1.4 8.2-.6 15.4 2.4 21.8c3 6.3 7.8 11 13.2 14.7c10 6.8 23.7 10.9 35.9 14.6l1.7 .5c13.4 4 25 7.8 32.9 13.5c3.7 2.7 6.3 5.7 7.7 9c1.4 3.3 2.1 7.6 1.1 13.5c-1.4 8.2-6.5 14.1-15.1 17.8c-8.8 3.8-21.1 5-35.4 2.7c-7.1-1.2-19.2-5.3-28.8-8.5l0 0 0 0 0 0c-2.1-.7-4-1.4-5.7-1.9c-4.2-1.4-8.7 .9-10.1 5.1s.9 8.7 5.1 10.1c1.4 .5 3.1 1 5 1.7l0 0 0 0c9.4 3.2 23.4 8 32 9.4l0 0c1.8 .3 3.7 .5 5.5 .7V424c0 4.4 3.6 8 8 8s8-3.6 8-8l0-16.1c8.3-.5 16-2.1 22.7-5c12.6-5.4 22.1-15.4 24.5-29.7c1.5-8.5 .7-16-2.1-22.6c-2.9-6.6-7.5-11.6-13-15.5c-10.5-7.6-24.9-12-37.6-15.8l-.3-.1c-13.4-4-25-7.5-32.9-12.9c-3.8-2.6-6.3-5.3-7.7-8.3c-1.4-2.9-2.1-6.8-1.1-12.2c1.2-6.8 6.2-12.9 15.1-17c9-4.1 21.4-5.7 35.4-3.5c4.5 .7 18.5 3.4 22.9 4.6c4.3 1.1 8.7-1.4 9.8-5.7s-1.4-8.7-5.7-9.8c-5.2-1.4-19.8-4.2-24.6-4.9c-1.8-.3-3.7-.5-5.5-.7V232z"/></svg>