<svg xmlns="http://www.w3.org/2000/svg" viewBox="0 0 256 512"><!--! Font Awesome Pro 6.4.0 by @fontawesome - https://fontawesome.com License - https://fontawesome.com/license (Commercial License) Copyright 2023 Fonticons, Inc. --><path d="M64 88c0-30.9 25.1-56 56-56h80c4.4 0 8 3.6 8 8s-3.6 8-8 8H120C97.9 48 80 65.9 80 88v77.5c0 19.1-7.6 37.4-21.1 50.9L19.3 256l39.6 39.6C72.4 309.1 80 327.4 80 346.5V424c0 22.1 17.9 40 40 40h80c4.4 0 8 3.6 8 8s-3.6 8-8 8H120c-30.9 0-56-25.1-56-56V346.5c0-14.9-5.9-29.1-16.4-39.6L2.3 261.7c-3.1-3.1-3.1-8.2 0-11.3l45.3-45.3C58.1 194.6 64 180.3 64 165.5V88z"/></svg>