<svg xmlns="http://www.w3.org/2000/svg" viewBox="0 0 576 512"><!--! Font Awesome Pro 6.4.0 by @fontawesome - https://fontawesome.com License - https://fontawesome.com/license (Commercial License) Copyright 2023 Fonticons, Inc. --><path d="M544 80H32c-8.8 0-16 7.2-16 16v67.6c0 6.9 5.6 12.4 12.4 12.4c46.1 0 83.6 37.4 83.6 83.6v94.9c-5.3-1.4-10.6-2-16-2V259.6C96 222.2 65.8 192 28.4 192C12.7 192 0 179.3 0 163.6V96C0 78.3 14.3 64 32 64H544c17.7 0 32 14.3 32 32v67.6c0 15.7-12.7 28.4-28.4 28.4c-37.3 0-67.6 30.2-67.6 67.6v92.9c-5.4 0-10.7 .7-16 2V259.6c0-46.1 37.4-83.6 83.6-83.6c6.9 0 12.4-5.6 12.4-12.4V96c0-8.8-7.2-16-16-16zM192 384.5h0V272c0-53 43-96 96-96s96 43 96 96V384.5c-5.2 0-10.6-.6-16-1.6V272c0-44.2-35.8-80-80-80s-80 35.8-80 80V382.9c-5.3 1-10.6 1.6-16 1.6zm102.6 19c8 11.2 17.5 21.4 27.6 30.7C339.5 449.8 361.5 464 384 464s44.6-14.2 61.8-29.9c10.1-9.2 19.7-19.5 27.6-30.7c1.5-2.1 3.9-3.4 6.6-3.4s5.1 1.3 6.6 3.4c7.3 10.3 15.9 19.6 25 28.3c15.7 14.8 36.1 29.2 57.4 31.9c4.4 .6 7.5 4.6 6.9 8.9s-4.6 7.5-8.9 6.9c-26.5-3.3-50-20.7-66.4-36.1c-8.8-8.3-15.9-16.4-20.6-22.2c-5.2 6.4-13.3 15.6-23.4 24.8c-18 16.3-43.9 34.1-72.6 34.1s-54.6-17.8-72.6-34.1c-10.2-9.2-18.2-18.4-23.4-24.8l0 0 0 0c-5.2 6.4-13.3 15.6-23.4 24.8c-18 16.3-43.9 34.1-72.6 34.1s-54.6-17.8-72.6-34.1c-10.2-9.2-18.2-18.4-23.4-24.8c-4.7 5.8-11.8 13.9-20.6 22.2C59 458.7 35.5 476.1 9 479.4c-4.4 .6-8.4-2.6-8.9-6.9s2.6-8.4 6.9-8.9c21.3-2.7 41.7-17.1 57.4-31.9c9.1-8.6 17.7-18 25-28.3c1.5-2.1 3.9-3.4 6.6-3.4s5.1 1.3 6.6 3.4c7.9 11.2 17.5 21.5 27.6 30.7C147.4 449.8 169.5 464 192 464s44.6-14.2 61.8-29.9c10.1-9.2 19.6-19.5 27.6-30.7c3-4.3 10.2-4.3 13.2 0z"/></svg>