<svg xmlns="http://www.w3.org/2000/svg" viewBox="0 0 512 512"><!--! Font Awesome Pro 6.4.0 by @fontawesome - https://fontawesome.com License - https://fontawesome.com/license (Commercial License) Copyright 2023 Fonticons, Inc. --><path d="M224 496H448c26.5 0 48-21.5 48-48V224c0-26.5-21.5-48-48-48H384V160h64c35.3 0 64 28.7 64 64V448c0 35.3-28.7 64-64 64H224c-35.3 0-64-28.7-64-64V384h16v64c0 26.5 21.5 48 48 48zm64-160c26.5 0 48-21.5 48-48V64c0-26.5-21.5-48-48-48H64C37.5 16 16 37.5 16 64V288c0 26.5 21.5 48 48 48H288zm0 16H64c-35.3 0-64-28.7-64-64V64C0 28.7 28.7 0 64 0H288c35.3 0 64 28.7 64 64V288c0 35.3-28.7 64-64 64zm-16-96V96c0-8.8-7.2-16-16-16H96c-8.8 0-16 7.2-16 16V256c0 8.8 7.2 16 16 16H256c8.8 0 16-7.2 16-16zm16 0c0 17.7-14.3 32-32 32H96c-17.7 0-32-14.3-32-32V96c0-17.7 14.3-32 32-32H256c17.7 0 32 14.3 32 32V256z"/></svg>