<svg xmlns="http://www.w3.org/2000/svg" viewBox="0 0 576 512"><!--! Font Awesome Pro 6.4.0 by @fontawesome - https://fontawesome.com License - https://fontawesome.com/license (Commercial License) Copyright 2023 Fonticons, Inc. --><path d="M512 16c26.5 0 48 21.5 48 48V96H200V48 16H512zM160 16h24V48 96H112V64c0-26.5 21.5-48 48-48zM112 352V112h80H560V352c0 26.5-21.5 48-48 48H160c-26.5 0-48-21.5-48-48zM160 0C124.7 0 96 28.7 96 64V352c0 35.3 28.7 64 64 64H512c35.3 0 64-28.7 64-64V64c0-35.3-28.7-64-64-64H160zM16 104c0-4.4-3.6-8-8-8s-8 3.6-8 8V392c0 66.3 53.7 120 120 120H472c4.4 0 8-3.6 8-8s-3.6-8-8-8H120C62.6 496 16 449.4 16 392V104z"/></svg>