<svg xmlns="http://www.w3.org/2000/svg" viewBox="0 0 576 512"><!--! Font Awesome Pro 6.4.0 by @fontawesome - https://fontawesome.com License - https://fontawesome.com/license (Commercial License) Copyright 2023 Fonticons, Inc. --><path d="M48 16H336c17.7 0 32 14.3 32 32V213.4l16-6.4V48c0-26.5-21.5-48-48-48H48C21.5 0 0 21.5 0 48V464c0 26.5 21.5 48 48 48h96 16 64 16 96c6.7 0 13.1-1.4 18.9-3.9c-5.2-4-10.2-8.1-15-12.4c-1.3 .2-2.6 .2-4 .2H240V416c0-26.5-21.5-48-48-48s-48 21.5-48 48v80H48c-17.7 0-32-14.3-32-32V48c0-17.7 14.3-32 32-32zM280 232H248c-13.3 0-24 10.7-24 24v32c0 13.3 10.7 24 24 24h8.5c-.3-5.5-.5-10.8-.5-15.8l0-.2h-8c-4.4 0-8-3.6-8-8V256c0-4.4 3.6-8 8-8h32c.9 0 1.8 .2 2.7 .5c2.7-1.7 5.5-3.1 8.5-4.3l7.6-3c-4.4-5.5-11.2-9.1-18.8-9.1zM224 496H160V416c0-17.7 14.3-32 32-32s32 14.3 32 32v80zM104 232c-13.3 0-24 10.7-24 24v32c0 13.3 10.7 24 24 24h32c13.3 0 24-10.7 24-24V256c0-13.3-10.7-24-24-24H104zm-8 24c0-4.4 3.6-8 8-8h32c4.4 0 8 3.6 8 8v32c0 4.4-3.6 8-8 8H104c-4.4 0-8-3.6-8-8V256zm8-152c-13.3 0-24 10.7-24 24v32c0 13.3 10.7 24 24 24h32c13.3 0 24-10.7 24-24V128c0-13.3-10.7-24-24-24H104zm-8 24c0-4.4 3.6-8 8-8h32c4.4 0 8 3.6 8 8v32c0 4.4-3.6 8-8 8H104c-4.4 0-8-3.6-8-8V128zm128 0v32c0 13.3 10.7 24 24 24h32c13.3 0 24-10.7 24-24V128c0-13.3-10.7-24-24-24H248c-13.3 0-24 10.7-24 24zm24-8h32c4.4 0 8 3.6 8 8v32c0 4.4-3.6 8-8 8H248c-4.4 0-8-3.6-8-8V128c0-4.4 3.6-8 8-8zm61 168.6l115-46V493.3c-96.1-42.9-120-138-120-197.3c0-3.3 2-6.2 5-7.4zM560 296c0 59.3-23.9 154.4-120 197.3V242.6l115 46c3 1.2 5 4.2 5 7.4zM440.9 225.7c-5.7-2.3-12.1-2.3-17.8 0l-120 48C294 277.4 288 286.2 288 296c0 63.3 25.9 168.8 134.8 214.2c5.9 2.5 12.6 2.5 18.5 0C550.1 464.8 576 359.3 576 296c0-9.8-6-18.6-15.1-22.3l-120-48z"/></svg>