<svg xmlns="http://www.w3.org/2000/svg" viewBox="0 0 640 512"><!--! Font Awesome Pro 6.4.0 by @fontawesome - https://fontawesome.com License - https://fontawesome.com/license (Commercial License) Copyright 2023 Fonticons, Inc. --><path d="M48 16C30.3 16 16 30.3 16 48V464c0 17.7 14.3 32 32 32h96V416c0-26.5 21.5-48 48-48s48 21.5 48 48v80h96c17.7 0 32-14.3 32-32V48c0-17.7-14.3-32-32-32H48zM224 496V416c0-17.7-14.3-32-32-32s-32 14.3-32 32v80h64zm-80 16H48c-26.5 0-48-21.5-48-48V48C0 21.5 21.5 0 48 0H336c26.5 0 48 21.5 48 48V464c0 26.5-21.5 48-48 48H240 224 160 144zM104 232h32c13.3 0 24 10.7 24 24v32c0 13.3-10.7 24-24 24H104c-13.3 0-24-10.7-24-24V256c0-13.3 10.7-24 24-24zm-8 24v32c0 4.4 3.6 8 8 8h32c4.4 0 8-3.6 8-8V256c0-4.4-3.6-8-8-8H104c-4.4 0-8 3.6-8 8zm128 0c0-13.3 10.7-24 24-24h32c13.3 0 24 10.7 24 24v32c0 13.3-10.7 24-24 24H248c-13.3 0-24-10.7-24-24V256zm24-8c-4.4 0-8 3.6-8 8v32c0 4.4 3.6 8 8 8h32c4.4 0 8-3.6 8-8V256c0-4.4-3.6-8-8-8H248zM104 104h32c13.3 0 24 10.7 24 24v32c0 13.3-10.7 24-24 24H104c-13.3 0-24-10.7-24-24V128c0-13.3 10.7-24 24-24zm-8 24v32c0 4.4 3.6 8 8 8h32c4.4 0 8-3.6 8-8V128c0-4.4-3.6-8-8-8H104c-4.4 0-8 3.6-8 8zm128 0c0-13.3 10.7-24 24-24h32c13.3 0 24 10.7 24 24v32c0 13.3-10.7 24-24 24H248c-13.3 0-24-10.7-24-24V128zm24-8c-4.4 0-8 3.6-8 8v32c0 4.4 3.6 8 8 8h32c4.4 0 8-3.6 8-8V128c0-4.4-3.6-8-8-8H248zM424 0c4.4 0 8 3.6 8 8V32H616c13.3 0 24 10.7 24 24V184c0 13.3-10.7 24-24 24H432V504c0 4.4-3.6 8-8 8s-8-3.6-8-8V208 192 48 32 8c0-4.4 3.6-8 8-8zm8 192H616c4.4 0 8-3.6 8-8V56c0-4.4-3.6-8-8-8H432V192z"/></svg>