<svg xmlns="http://www.w3.org/2000/svg" viewBox="0 0 512 512"><!--! Font Awesome Pro 6.4.0 by @fontawesome - https://fontawesome.com License - https://fontawesome.com/license (Commercial License) Copyright 2023 Fonticons, Inc. --><path d="M464 32c0-28.1-33.7-42.6-54.1-23.2l-44 41.9C326.4 88.4 277 113.4 224 123.3v16.3c57.1-10 110.4-36.7 152.9-77.2l44-41.9c10.2-9.7 27-2.5 27 11.6V448c0 14.1-16.8 21.3-27 11.6l-44-41.9c-42.5-40.5-95.8-67.2-152.9-77.2v16.3c53 9.9 102.4 34.9 141.9 72.5l44 41.9c20.4 19.4 54.1 5 54.1-23.2V313.3c28.3-12.3 48-40.5 48-73.3s-19.7-61-48-73.3V32zM192 416V352.7v-16V143.4v-16c-6.4 .4-12.8 .7-19.2 .7H160l-96 0c-35.3 0-64 28.7-64 64v96c0 35.3 28.7 64 64 64l0 120c0 22.1 17.9 40 40 40h48c22.1 0 40-17.9 40-40V416zM464 295.4V184.6c19.1 11.1 32 31.7 32 55.4s-12.9 44.4-32 55.4zM176 352V472c0 13.3-10.7 24-24 24H104c-13.3 0-24-10.7-24-24V352h80 12.8c1.1 0 2.1 0 3.2 0zm-3.2-16H160 64c-26.5 0-48-21.5-48-48V192c0-26.5 21.5-48 48-48l96 0h12.8c1.1 0 2.1 0 3.2 0V336c-1.1 0-2.1 0-3.2 0z"/></svg>