<svg xmlns="http://www.w3.org/2000/svg" viewBox="0 0 512 512"><!--! Font Awesome Pro 6.4.0 by @fontawesome - https://fontawesome.com License - https://fontawesome.com/license (Commercial License) Copyright 2023 Fonticons, Inc. --><path d="M450.9 208H61.1c-7.2 0-13.1-5.9-13.1-13.1c0-1 .1-1.4 .2-1.7c2.3-9.2 13-45.7 43.6-79.7C121.9 80 172.1 48 256 48s134.1 32 164.3 65.5c30.6 34 41.3 70.5 43.6 79.7c.1 .3 .2 .7 .2 1.7c0 7.2-5.9 13.1-13.1 13.1zM61.1 224H450.9c16.1 0 29.1-13 29.1-29.1c0-1.9-.2-3.7-.6-5.6C474.1 168.3 433.2 32 256 32S37.9 168.3 32.6 189.3c-.5 1.9-.6 3.7-.6 5.6C32 211 45 224 61.1 224zM448 272c17.7 0 32 14.3 32 32s-14.3 32-32 32H64c-17.7 0-32-14.3-32-32s14.3-32 32-32H448zM16 304c0 26.5 21.5 48 48 48H448c26.5 0 48-21.5 48-48s-21.5-48-48-48H64c-26.5 0-48 21.5-48 48zm436.6 96c6.3 0 11.4 5.1 11.4 11.4c0 29-23.5 52.6-52.6 52.6H100.6c-29 0-52.6-23.5-52.6-52.6c0-6.3 5.1-11.4 11.4-11.4H452.6zM32 411.4c0 37.9 30.7 68.6 68.6 68.6H411.4c37.9 0 68.6-30.7 68.6-68.6c0-15.1-12.3-27.4-27.4-27.4H59.4C44.3 384 32 396.3 32 411.4zM144 144a16 16 0 1 0 0-32 16 16 0 1 0 0 32zm240-16a16 16 0 1 0 -32 0 16 16 0 1 0 32 0zM256 112a16 16 0 1 0 0-32 16 16 0 1 0 0 32z"/></svg>