<svg xmlns="http://www.w3.org/2000/svg" viewBox="0 0 640 512"><!--! Font Awesome Pro 6.4.0 by @fontawesome - https://fontawesome.com License - https://fontawesome.com/license (Commercial License) Copyright 2023 Fonticons, Inc. --><path d="M480 80V288H464V80H128c-26.5 0-48 21.5-48 48V288H64V128c0-35.3 28.7-64 64-64H464h8 8 32c35.3 0 64 28.7 64 64V288H560V128c0-26.5-21.5-48-48-48H480zM0 328c0-4.4 3.6-8 8-8H32 48 592h16 24c4.4 0 8 3.6 8 8s-3.6 8-8 8H608v64c0 26.5-21.5 48-48 48H80c-26.5 0-48-21.5-48-48V336H8c-4.4 0-8-3.6-8-8zm48 8v64c0 17.7 14.3 32 32 32H560c17.7 0 32-14.3 32-32V336H48z"/></svg>