<svg xmlns="http://www.w3.org/2000/svg" viewBox="0 0 448 512"><!--! Font Awesome Pro 6.4.0 by @fontawesome - https://fontawesome.com License - https://fontawesome.com/license (Commercial License) Copyright 2023 Fonticons, Inc. --><path d="M432 248H16V64c0-26.5 21.5-48 48-48H384c26.5 0 48 21.5 48 48V248zM0 256v8V448c0 35.3 28.7 64 64 64H384c35.3 0 64-28.7 64-64V264v-8-8V64c0-35.3-28.7-64-64-64H64C28.7 0 0 28.7 0 64V248v8zM432 448c0 26.5-21.5 48-48 48H64c-26.5 0-48-21.5-48-48V264H432V448zM144 120c0-4.4 3.6-8 8-8H296c4.4 0 8 3.6 8 8v16c0 4.4 3.6 8 8 8s8-3.6 8-8V120c0-13.3-10.7-24-24-24H152c-13.3 0-24 10.7-24 24v16c0 4.4 3.6 8 8 8s8-3.6 8-8V120zm8 232c-13.3 0-24 10.7-24 24v16c0 4.4 3.6 8 8 8s8-3.6 8-8V376c0-4.4 3.6-8 8-8H296c4.4 0 8 3.6 8 8v16c0 4.4 3.6 8 8 8s8-3.6 8-8V376c0-13.3-10.7-24-24-24H152z"/></svg>