<svg xmlns="http://www.w3.org/2000/svg" viewBox="0 0 512 512"><!--! Font Awesome Pro 6.4.0 by @fontawesome - https://fontawesome.com License - https://fontawesome.com/license (Commercial License) Copyright 2023 Fonticons, Inc. --><path d="M216 0c4.4 0 8 3.6 8 8V64H384V8c0-4.4 3.6-8 8-8s8 3.6 8 8V64h48c35.3 0 64 28.7 64 64v48 16V352c0 35.3-28.7 64-64 64H160c-35.3 0-64-28.7-64-64V192 176 128c0-35.3 28.7-64 64-64h48V8c0-4.4 3.6-8 8-8zm-8 120V80H160c-26.5 0-48 21.5-48 48v48H496V128c0-26.5-21.5-48-48-48H400v40c0 4.4-3.6 8-8 8s-8-3.6-8-8V80H224v40c0 4.4-3.6 8-8 8s-8-3.6-8-8zm288 72H112V352c0 26.5 21.5 48 48 48H448c26.5 0 48-21.5 48-48V192zM0 224c0-29.8 20.4-54.9 48-62v16.7c-18.6 6.6-32 24.4-32 45.3V448c0 26.5 21.5 48 48 48H352c20.9 0 38.7-13.4 45.3-32H414c-7.1 27.6-32.2 48-62 48H64c-35.3 0-64-28.7-64-64V224z"/></svg>