<svg xmlns="http://www.w3.org/2000/svg" viewBox="0 0 576 512"><!--! Font Awesome Pro 6.4.0 by @fontawesome - https://fontawesome.com License - https://fontawesome.com/license (Commercial License) Copyright 2023 Fonticons, Inc. --><path d="M128 8c0-4.4-3.6-8-8-8s-8 3.6-8 8V64H64C28.7 64 0 92.7 0 128v48 16V448c0 35.3 28.7 64 64 64H258.8c-1.8-5.1-2.8-10.5-2.8-16H64c-26.5 0-48-21.5-48-48V192H384h48 16V176 128c0-35.3-28.7-64-64-64H336V8c0-4.4-3.6-8-8-8s-8 3.6-8 8V64H128V8zM112 80v40c0 4.4 3.6 8 8 8s8-3.6 8-8V80H320v40c0 4.4 3.6 8 8 8s8-3.6 8-8V80h48c26.5 0 48 21.5 48 48v48H16V128c0-26.5 21.5-48 48-48h48zm-8 304c-4.4 0-8 3.6-8 8s3.6 8 8 8H248c4.4 0 8-3.6 8-8s-3.6-8-8-8H104zm-8-88c0 4.4 3.6 8 8 8H344c4.4 0 8-3.6 8-8s-3.6-8-8-8H104c-4.4 0-8 3.6-8 8zM292.7 507.2c4 4 9.7 5.6 15.2 4.2l60.1-15-3.4-13.6 3.4 13.6c5.6-1.4 10.8-4.3 14.9-8.4L564.1 306.7c15.6-15.6 15.6-40.9 0-56.6l-14.4-14.4c-15.6-15.6-40.9-15.6-56.6 0L311.9 417c-4.1 4.1-7 9.2-8.4 14.9l-15 60.1c-1.4 5.5 .2 11.2 4.2 15.2zm15.7-28.9L319 435.7c.7-2.8 2.2-5.4 4.2-7.4L466.1 285.4l48.3 48.3L371.6 476.6c-2.1 2.1-4.6 3.5-7.4 4.2l-42.5 10.6L304 495.8l4.4-17.6zM552.8 295.4l-27.1 27.1-48.3-48.3L504.5 247c9.4-9.4 24.6-9.4 33.9 0l14.4 14.4c9.4 9.4 9.4 24.6 0 33.9z"/></svg>