<svg xmlns="http://www.w3.org/2000/svg" viewBox="0 0 512 512"><!--! Font Awesome Pro 6.4.0 by @fontawesome - https://fontawesome.com License - https://fontawesome.com/license (Commercial License) Copyright 2023 Fonticons, Inc. --><path d="M152 0c4.4 0 8 3.6 8 8V64H352V8c0-4.4 3.6-8 8-8s8 3.6 8 8V64h48c35.3 0 64 28.7 64 64v48 16V448c0 35.3-28.7 64-64 64H96c-35.3 0-64-28.7-64-64V192 176 128c0-35.3 28.7-64 64-64h48V8c0-4.4 3.6-8 8-8zM464 192H48V448c0 26.5 21.5 48 48 48H416c26.5 0 48-21.5 48-48V192zM144 120V80H96c-26.5 0-48 21.5-48 48v48H464V128c0-26.5-21.5-48-48-48H368v40c0 4.4-3.6 8-8 8s-8-3.6-8-8V80H160v40c0 4.4-3.6 8-8 8s-8-3.6-8-8zM352 344c0 4.4-3.6 8-8 8H264v80c0 4.4-3.6 8-8 8s-8-3.6-8-8V352H168c-4.4 0-8-3.6-8-8s3.6-8 8-8h80V256c0-4.4 3.6-8 8-8s8 3.6 8 8v80h80c4.4 0 8 3.6 8 8z"/></svg>