<svg xmlns="http://www.w3.org/2000/svg" viewBox="0 0 512 512"><!--! Font Awesome Pro 6.4.0 by @fontawesome - https://fontawesome.com License - https://fontawesome.com/license (Commercial License) Copyright 2023 Fonticons, Inc. --><path d="M160 8c0-4.4-3.6-8-8-8s-8 3.6-8 8V64H96c-35.3 0-64 28.7-64 64v48 16V448c0 35.3 28.7 64 64 64H416c35.3 0 64-28.7 64-64V192 176 128c0-35.3-28.7-64-64-64H368V8c0-4.4-3.6-8-8-8s-8 3.6-8 8V64H160V8zM48 192H464V448c0 26.5-21.5 48-48 48H96c-26.5 0-48-21.5-48-48V192zM144 80v40c0 4.4 3.6 8 8 8s8-3.6 8-8V80H352v40c0 4.4 3.6 8 8 8s8-3.6 8-8V80h48c26.5 0 48 21.5 48 48v48H48V128c0-26.5 21.5-48 48-48h48zM333.3 252.3l6.4 6.4c9.4 9.4 9.4 24.6 0 33.9l-17.9 17.9-40.4-40.4 17.9-17.9c9.4-9.4 24.6-9.4 33.9 0zm-157 123l93.9-93.9 40.4 40.4-93.9 93.9c-1.1 1.1-2.4 1.8-3.9 2.1l-50.2 11.5 11.5-50.2c.3-1.5 1.1-2.8 2.1-3.9zM288 241L165 364c-3.2 3.2-5.4 7.2-6.4 11.6l-11.5 50.2c-2.6 11.5 7.7 21.8 19.2 19.2l50.2-11.5c4.4-1 8.4-3.2 11.6-6.4L351 304c15.6-15.6 15.6-40.9 0-56.6l-6.4-6.4c-15.6-15.6-40.9-15.6-56.6 0z"/></svg>