<svg xmlns="http://www.w3.org/2000/svg" viewBox="0 0 512 512"><!--! Font Awesome Pro 6.4.0 by @fontawesome - https://fontawesome.com License - https://fontawesome.com/license (Commercial License) Copyright 2023 Fonticons, Inc. --><path d="M282.3 70.4c4.4 0 8.5-2.1 11.3-5.5c6.8-8.6 13.9-17.3 21.3-24.3c20.3 19.1 37.9 44.5 50.4 68.9c12.6 24.6 20.1 50.2 20.1 65.2c0 72-57.8 130.8-129.5 130.8c-72.5 0-129.5-58.8-129.5-130.8c0-20.2 9.9-48.6 27-76.6c17-27.9 41.1-57.1 69.7-83.1c16.9 15.5 32.8 32.2 47.6 50.2c2.8 3.4 7 5.3 11.4 5.3zm-9.8-25.9C259.8 30 246.3 16.3 232.2 3.4c-2.5-2.3-5.6-3.4-8.8-3.4c-3.2 0-6.4 1.1-9 3.4c-29.9 27-55.3 57.7-73.2 87.1c-17.7 29-29.2 60.2-29.2 84.2C112 254.5 175.3 320 256 320c79.9 0 144-65.5 144-145.3c0-18.3-8.7-46.3-21.7-71.8C365 77 346.2 49.7 323.9 29.1c-5-4.7-12.9-4.7-18 0s-9.9 9.9-14.5 15.3c-3.3 3.9-6.4 7.8-9.4 11.5c-3.2-3.8-6.4-7.6-9.6-11.3zm-51 42c-2.4 0-4.7 1.1-6.3 3c-14.9 18.5-26.4 33.5-34.2 47c-7.9 13.7-12.2 26.4-12.2 40.2c0 26.6 9.7 48.4 26 63.4c16.2 15 38.3 22.8 62.4 22.8c19.5 0 37-5.5 53.1-16.4l0 0 .1-.1c33.4-23.6 41.8-70.3 22.3-106.5l0-.1 0 0c-1.9-3.9-4.2-8.5-7.6-13.1c-1.5-2-3.7-3.1-6.2-3.2s-4.8 1-6.4 2.8l-29.4 34.6-3-3.9-20.2-26.1c-14.9-19.2-30.3-39-32.3-41.6c-1.5-1.9-3.8-3-6.2-3zM283 173.8l-6.3 4.9c1.5 1.9 3.7 3 6.1 3.1s4.7-1 6.3-2.8l28.5-33.6 .9 1.9 0 0 .1 .2c16.2 29.9 8.7 67.4-17.4 85.9c-13.6 9.1-27.9 13.6-44.1 13.6c-20.6 0-38.7-6.7-51.5-18.6c-12.8-11.8-20.9-29.2-20.9-51.7c0-10.2 3.1-20.1 10.1-32.2c6.1-10.5 14.8-22.3 26.5-37.1c6.3 8 16.2 20.9 26 33.5L267.7 167l6.6 8.5 1.8 2.4 .5 .6 .1 .2 0 0 0 0 0 0 6.3-4.9zM11.1 288.6c-4.1-1.7-8.8 .2-10.5 4.3s.2 8.8 4.3 10.5L235.3 400 4.9 496.6c-4.1 1.7-6 6.4-4.3 10.5s6.4 6 10.5 4.3L256 408.7 500.9 511.4c4.1 1.7 8.8-.2 10.5-4.3s-.2-8.8-4.3-10.5L276.7 400l230.4-96.6c4.1-1.7 6-6.4 4.3-10.5s-6.4-6-10.5-4.3L256 391.3 11.1 288.6z"/></svg>