<svg xmlns="http://www.w3.org/2000/svg" viewBox="0 0 512 512"><!--! Font Awesome Pro 6.4.0 by @fontawesome - https://fontawesome.com License - https://fontawesome.com/license (Commercial License) Copyright 2023 Fonticons, Inc. --><path d="M256 16C123.5 16 16 123.5 16 256V504c0 4.4-3.6 8-8 8s-8-3.6-8-8V256C0 114.6 114.6 0 256 0S512 114.6 512 256V504c0 4.4-3.6 8-8 8s-8-3.6-8-8V256C496 123.5 388.5 16 256 16zM161 258.4L146.2 320H365.8L351 258.4c-2.6-10.8-12.2-18.4-23.3-18.4H184.3c-11.1 0-20.7 7.6-23.3 18.4zm-31.9 64l16.3-67.7c4.3-18 20.4-30.6 38.9-30.6H327.7c18.5 0 34.6 12.7 38.9 30.6l16.3 67.7c19.2 6.3 33.1 24.3 33.1 45.7v80 8 8 16c0 17.7-14.3 32-32 32H368c-17.7 0-32-14.3-32-32V464H176v16c0 17.7-14.3 32-32 32H128c-17.7 0-32-14.3-32-32V464v-8-8V368c0-21.3 13.9-39.4 33.1-45.7zM336 448h16 48V368c0-17.7-14.3-32-32-32H144c-17.7 0-32 14.3-32 32v80h48 16H336zm16 16v16c0 8.8 7.2 16 16 16h16c8.8 0 16-7.2 16-16V464H352zm-240 0v16c0 8.8 7.2 16 16 16h16c8.8 0 16-7.2 16-16V464H112zm64-88a16 16 0 1 0 0 32 16 16 0 1 0 0-32zm32 16a32 32 0 1 1 -64 0 32 32 0 1 1 64 0zm112 0a16 16 0 1 0 32 0 16 16 0 1 0 -32 0zm16 32a32 32 0 1 1 0-64 32 32 0 1 1 0 64z"/></svg>