<svg xmlns="http://www.w3.org/2000/svg" viewBox="0 0 640 512"><!--! Font Awesome Pro 6.4.0 by @fontawesome - https://fontawesome.com License - https://fontawesome.com/license (Commercial License) Copyright 2023 Fonticons, Inc. --><path d="M160.3 48H351.7c25 0 47 16.6 53.8 40.6L435.7 194c-6.4-1.3-12.9-2-19.7-2H96c-6.7 0-13.3 .7-19.7 2L106.4 88.6c6.9-24 28.8-40.6 53.8-40.6zM91 84.2L58 199.8C23.9 214.5 0 248.5 0 288v96 16 48c0 17.7 14.3 32 32 32H64c17.7 0 32-14.3 32-32V400H322.9c-1-5.3-1.7-10.6-2.2-16H96 80 16V288c0-44.2 35.8-80 80-80H416c2 0 4.1 .1 6.1 .2c9.9-4.6 20.3-8.3 31.2-11L421 84.2C412.1 53.3 383.9 32 351.7 32H160.3C128.1 32 99.9 53.3 91 84.2zM80 400v48c0 8.8-7.2 16-16 16H32c-8.8 0-16-7.2-16-16V400H80zM96 272a16 16 0 1 1 0 32 16 16 0 1 1 0-32zm0 48a32 32 0 1 0 0-64 32 32 0 1 0 0 64zm400-80a128 128 0 1 1 0 256 128 128 0 1 1 0-256zm0 272a144 144 0 1 0 0-288 144 144 0 1 0 0 288zm36.5-230.6c-3-2-6.9-1.8-9.7 .6l-112 96c-2.5 2.2-3.5 5.7-2.3 8.8s4.2 5.2 7.5 5.2h58.2l-17.8 53.5c-1.1 3.4 .1 7.2 3.1 9.2s6.9 1.8 9.7-.6l112-96c2.5-2.2 3.5-5.7 2.3-8.8s-4.2-5.2-7.5-5.2H517.8l17.8-53.5c1.1-3.4-.1-7.2-3.1-9.2zM437.6 376l73.7-63.1-12.2 36.6c-.8 2.4-.4 5.1 1.1 7.2s3.9 3.3 6.5 3.3h47.7l-73.7 63.1 12.2-36.6c.8-2.4 .4-5.1-1.1-7.2s-3.9-3.3-6.5-3.3H437.6z"/></svg>