<svg xmlns="http://www.w3.org/2000/svg" viewBox="0 0 512 512"><!--! Font Awesome Pro 6.4.0 by @fontawesome - https://fontawesome.com License - https://fontawesome.com/license (Commercial License) Copyright 2023 Fonticons, Inc. --><path d="M168 80c4.4 0 8 3.6 8 8v40H80V88c0-4.4 3.6-8 8-8h80zm24 48V88c0-13.3-10.7-24-24-24H88C74.7 64 64 74.7 64 88v40c-35.3 0-64 28.7-64 64V384c0 35.3 28.7 64 64 64H448c35.3 0 64-28.7 64-64V192c0-35.3-28.7-64-64-64V88c0-13.3-10.7-24-24-24H344c-13.3 0-24 10.7-24 24v40H192zm144 0V88c0-4.4 3.6-8 8-8h80c4.4 0 8 3.6 8 8v40H336zm-16 16h16 96 16c26.5 0 48 21.5 48 48V384c0 26.5-21.5 48-48 48H64c-26.5 0-48-21.5-48-48V192c0-26.5 21.5-48 48-48H80h96 16H320zm48 72c-4.4 0-8 3.6-8 8v40H320c-4.4 0-8 3.6-8 8s3.6 8 8 8h40v40c0 4.4 3.6 8 8 8s8-3.6 8-8V280h40c4.4 0 8-3.6 8-8s-3.6-8-8-8H376V224c0-4.4-3.6-8-8-8zM96 264c-4.4 0-8 3.6-8 8s3.6 8 8 8h96c4.4 0 8-3.6 8-8s-3.6-8-8-8H96z"/></svg>