<svg xmlns="http://www.w3.org/2000/svg" viewBox="0 0 512 512"><!--! Font Awesome Pro 6.4.0 by @fontawesome - https://fontawesome.com License - https://fontawesome.com/license (Commercial License) Copyright 2023 Fonticons, Inc. --><path d="M106.4 88.6L76.3 194c6.4-1.3 12.9-2 19.7-2h32v16H96c-44.2 0-80 35.8-80 80v96H64 80 432h16 48V288c0-44.2-35.8-80-80-80H384V192h32c6.7 0 13.3 .7 19.7 2L405.6 88.6c-6.9-24-28.8-40.6-53.8-40.6H160.3c-25 0-47 16.6-53.8 40.6zM58 199.8L91 84.2C99.9 53.3 128.1 32 160.3 32H351.7c32.1 0 60.4 21.3 69.2 52.2l33 115.6c34.1 14.7 58 48.7 58 88.2v96 16 48c0 17.7-14.3 32-32 32H464c-17.7 0-32-14.3-32-32V400H80v48c0 17.7-14.3 32-32 32H32c-17.7 0-32-14.3-32-32V400 384 288c0-39.5 23.9-73.5 58-88.2zM448 400v48c0 8.8 7.2 16 16 16h16c8.8 0 16-7.2 16-16V400H448zM16 400v48c0 8.8 7.2 16 16 16H48c8.8 0 16-7.2 16-16V400H16zm96-112a16 16 0 1 0 -32 0 16 16 0 1 0 32 0zm-48 0a32 32 0 1 1 64 0 32 32 0 1 1 -64 0zm352 16a16 16 0 1 0 0-32 16 16 0 1 0 0 32zm0-48a32 32 0 1 1 0 64 32 32 0 1 1 0-64zM315.4 120l-32 55.9h45.6c16 0 22.1 20.9 8.6 29.5L212.1 285.3c-14.1 9-30.8-6.9-22.5-21.4l32-55.9H176c-16 0-22.1-20.9-8.6-29.5L293 98.6c14.1-9 30.8 6.9 22.5 21.4zM176 191.9l59.4 0c2.9 0 5.5 1.5 6.9 4s1.4 5.5 0 8l-38.8 67.9 125.5-79.9H269.7c-2.9 0-5.5-1.5-6.9-4s-1.4-5.5 0-8l38.8-67.9L176 191.9z"/></svg>