<svg xmlns="http://www.w3.org/2000/svg" viewBox="0 0 640 512"><!--! Font Awesome Pro 6.4.0 by @fontawesome - https://fontawesome.com License - https://fontawesome.com/license (Commercial License) Copyright 2023 Fonticons, Inc. --><path d="M272 16H48C30.3 16 16 30.3 16 48V432c0 17.7 14.3 32 32 32H224v16H48c-26.5 0-48-21.5-48-48V48C0 21.5 21.5 0 48 0H272c26.5 0 48 21.5 48 48V165.2c-5.9 4.8-11.3 10.3-16 16.4V48c0-17.7-14.3-32-32-32zM232 288c7.2 0 13.7 3.2 18.1 8.2c-3.8 4.5-7.2 9.3-10.2 14.3c-.7-3.7-4-6.5-7.9-6.5H200c-4.4 0-8 3.6-8 8v32c0 4.4 3.6 8 8 8h25.1c-.7 5.2-1.1 10.6-1.1 16H200c-13.3 0-24-10.7-24-24V312c0-13.3 10.7-24 24-24h32zM64 200c0-13.3 10.7-24 24-24h32c13.3 0 24 10.7 24 24v32c0 13.3-10.7 24-24 24H88c-13.3 0-24-10.7-24-24V200zm24-8c-4.4 0-8 3.6-8 8v32c0 4.4 3.6 8 8 8h32c4.4 0 8-3.6 8-8V200c0-4.4-3.6-8-8-8H88zm112-16h32c13.3 0 24 10.7 24 24v32c0 13.3-10.7 24-24 24H200c-13.3 0-24-10.7-24-24V200c0-13.3 10.7-24 24-24zm-8 24v32c0 4.4 3.6 8 8 8h32c4.4 0 8-3.6 8-8V200c0-4.4-3.6-8-8-8H200c-4.4 0-8 3.6-8 8zM64 88c0-13.3 10.7-24 24-24h32c13.3 0 24 10.7 24 24v32c0 13.3-10.7 24-24 24H88c-13.3 0-24-10.7-24-24V88zm24-8c-4.4 0-8 3.6-8 8v32c0 4.4 3.6 8 8 8h32c4.4 0 8-3.6 8-8V88c0-4.4-3.6-8-8-8H88zM200 64h32c13.3 0 24 10.7 24 24v32c0 13.3-10.7 24-24 24H200c-13.3 0-24-10.7-24-24V88c0-13.3 10.7-24 24-24zm-8 24v32c0 4.4 3.6 8 8 8h32c4.4 0 8-3.6 8-8V88c0-4.4-3.6-8-8-8H200c-4.4 0-8 3.6-8 8zM64 312c0-13.3 10.7-24 24-24h32c13.3 0 24 10.7 24 24v32c0 13.3-10.7 24-24 24H88c-13.3 0-24-10.7-24-24V312zm24-8c-4.4 0-8 3.6-8 8v32c0 4.4 3.6 8 8 8h32c4.4 0 8-3.6 8-8V312c0-4.4-3.6-8-8-8H88zM380.2 192c-17.9 0-33.6 11.8-38.5 29l-19.5 68.2c4.5-.8 9-1.2 13.7-1.2H560c4.7 0 9.3 .4 13.7 1.2L554.3 221c-4.9-17.2-20.6-29-38.5-29H380.2zM304.3 293.8l22.1-77.2c6.9-24 28.8-40.6 53.8-40.6H515.8c25 0 47 16.6 53.8 40.6l22.1 77.2-1 .3c29 12 49.3 40.6 49.3 73.9v64 16 32c0 17.7-14.3 32-32 32H592c-17.7 0-32-14.3-32-32V448H336v32c0 17.7-14.3 32-32 32H288c-17.7 0-32-14.3-32-32V448 432 368c0-33.3 20.4-61.9 49.3-73.9l-1-.3zM576 432h48V368c0-35.3-28.7-64-64-64H336c-35.3 0-64 28.7-64 64v64h48 16H560h16zm16 64h16c8.8 0 16-7.2 16-16V448H576v32c0 8.8 7.2 16 16 16zM320 448H272v32c0 8.8 7.2 16 16 16h16c8.8 0 16-7.2 16-16V448zm0-80a16 16 0 1 0 32 0 16 16 0 1 0 -32 0zm16 32a32 32 0 1 1 0-64 32 32 0 1 1 0 64zm224-48a16 16 0 1 0 0 32 16 16 0 1 0 0-32zm32 16a32 32 0 1 1 -64 0 32 32 0 1 1 64 0z"/></svg>