<svg xmlns="http://www.w3.org/2000/svg" viewBox="0 0 640 512"><!-- Font Awesome Pro 6.0.0-alpha2 by @fontawesome - https://fontawesome.com License - https://fontawesome.com/license (Commercial License) --><path d="M132.07 83.521L158.198 17.406L184.327 83.537C187.138 90.643 195.171 94.389 202.39 92.182L270.499 71.334L258.368 92.43C256.171 96.238 257.521 101.104 261.38 103.279C265.21 105.426 270.122 104.135 272.335 100.295L286.034 76.496C289.064 71.209 288.562 64.742 284.732 60.002C280.919 55.291 274.704 53.395 268.898 55.166L199.284 77.707L171.931 8.484C167.474 -2.834 148.925 -2.818 144.468 8.469L118.747 76.977L47.484 55.166C41.695 53.316 35.48 55.291 31.665 60.002C27.837 64.742 27.335 71.209 30.363 76.48L67.87 139.424L6.4 181.475C1.363 184.91 -0.991 190.957 0.39 196.881C1.755 202.771 6.509 207.156 12.521 208.072L85.054 217.99L79.64 292.236C79.2 298.314 82.495 303.926 88.019 306.555C90.06 307.518 92.226 308 94.376 308C98.017 308 101.595 306.646 104.404 304.066L155.359 256.994C158.607 254.01 158.78 248.973 155.767 245.756C152.738 242.537 147.654 242.367 144.405 245.367L95.913 290.137L101.093 219.172C101.673 211.586 96.197 204.73 88.616 203.58L18.091 192.822L77.003 152.514C83.359 148.176 85.273 139.844 81.445 133.143L45.9 71.334L113.991 92.182C121.368 94.404 129.277 90.627 132.07 83.521ZM613.572 278.514L620.765 177.469C622.687 150.453 607.155 125.328 582.124 114.969L432.015 52.781C407.015 42.437 378.234 49.187 360.499 69.672L294.136 146.18C289.849 145.135 285.538 144.438 281.251 144.439C259.738 144.439 239.322 157.186 230.575 178.299L199.103 254.281C192.427 270.396 196.909 288.17 208.784 299.557L184.03 359.313C182.343 363.391 184.28 368.078 188.359 369.766C189.359 370.188 190.405 370.375 191.421 370.375C194.562 370.375 197.53 368.516 198.812 365.438L222.419 308.449L549.552 443.951L525.952 500.938C524.265 505.016 526.202 509.703 530.28 511.391C531.28 511.812 532.327 512 533.343 512C536.484 512 539.452 510.141 540.734 507.062L565.458 447.357C565.749 447.363 566.04 447.531 566.331 447.531C582.466 447.531 597.78 437.971 604.339 422.137L635.812 346.154C646.298 320.836 636.28 292.322 613.572 278.514ZM372.593 80.141C385.812 64.937 407.218 59.844 425.89 67.562L575.999 129.75C594.655 137.469 606.234 156.203 604.796 176.344L598.046 271.166L310.288 151.973L372.593 80.141ZM621.029 340.031L589.556 416.014C585.652 425.439 576.534 431.531 566.331 431.531C563.044 431.531 559.816 430.885 556.736 429.609L227.48 293.227C214.683 287.926 208.585 273.201 213.886 260.404L245.359 184.422C251.392 169.854 265.484 160.439 281.257 160.439C286.341 160.439 291.331 161.438 296.089 163.408L600.017 289.299C609.597 293.27 617.06 300.73 621.029 310.312C624.999 319.895 624.999 330.449 621.029 340.031ZM553.497 312.059C549.21 310.283 544.767 309.441 540.398 309.441C526.95 309.441 514.193 317.406 508.726 330.604C501.484 348.088 509.786 368.135 527.271 375.377C531.558 377.152 536.001 377.994 540.37 377.994C553.818 377.994 566.577 370.029 572.042 356.832C579.286 339.346 570.982 319.301 553.497 312.059ZM557.261 350.709C554.421 357.564 547.79 361.994 540.37 361.994C537.982 361.994 535.634 361.523 533.394 360.594C524.087 356.74 519.652 346.033 523.507 336.727C526.347 329.871 532.978 325.441 540.398 325.441C542.786 325.441 545.134 325.912 547.374 326.84C556.681 330.695 561.116 341.402 557.261 350.709ZM312.89 212.395C308.601 210.619 304.159 209.777 299.79 209.777C286.343 209.777 273.583 217.744 268.116 230.939C260.874 248.424 269.179 268.471 286.661 275.713C290.948 277.488 295.392 278.33 299.761 278.33C313.208 278.33 325.968 270.365 331.435 257.168C338.677 239.682 330.372 219.637 312.89 212.395ZM316.652 251.045C313.814 257.9 307.183 262.33 299.761 262.33C297.372 262.33 295.027 261.859 292.784 260.932C283.48 257.076 279.044 246.369 282.898 237.064C285.738 230.207 292.368 225.777 299.79 225.777C302.177 225.777 304.525 226.248 306.767 227.178C311.275 229.045 314.784 232.555 316.652 237.062C318.519 241.572 318.521 246.537 316.652 251.045Z"/></svg>