<svg xmlns="http://www.w3.org/2000/svg" viewBox="0 0 640 512"><!--! Font Awesome Pro 6.4.0 by @fontawesome - https://fontawesome.com License - https://fontawesome.com/license (Commercial License) Copyright 2023 Fonticons, Inc. --><path d="M80 48c-35.3 0-64 28.7-64 64V336c0 35.3 28.7 64 64 64H97.3c7.6-45.4 47.1-80 94.7-80s87.1 34.6 94.7 80l0 0H288 560V192c0-79.5-64.5-144-144-144H80zM96 416H80c-44.2 0-80-35.8-80-80V112C0 67.8 35.8 32 80 32H416c88.4 0 160 71.6 160 160V400l56 0c4.4 0 8 3.6 8 8s-3.6 8-8 8l-56 0H560 288c0 53-43 96-96 96s-96-43-96-96zM224 144H96c-8.8 0-16 7.2-16 16v64c0 8.8 7.2 16 16 16H224c8.8 0 16-7.2 16-16V160c0-8.8-7.2-16-16-16zM96 128H224c17.7 0 32 14.3 32 32v64c0 17.7-14.3 32-32 32H96c-17.7 0-32-14.3-32-32V160c0-17.7 14.3-32 32-32zm256 16c-8.8 0-16 7.2-16 16v64c0 8.8 7.2 16 16 16h64c8.8 0 16-7.2 16-16V160c0-8.8-7.2-16-16-16H352zm-32 16c0-17.7 14.3-32 32-32h64c17.7 0 32 14.3 32 32v64c0 17.7-14.3 32-32 32H352c-17.7 0-32-14.3-32-32V160zM272 416a80 80 0 1 0 -160 0 80 80 0 1 0 160 0z"/></svg>