<svg xmlns="http://www.w3.org/2000/svg" viewBox="0 0 640 512"><!--! Font Awesome Pro 6.4.0 by @fontawesome - https://fontawesome.com License - https://fontawesome.com/license (Commercial License) Copyright 2023 Fonticons, Inc. --><path d="M416 48c79.5 0 144 64.5 144 144V400H288h-1.3l0 0c-7.6-45.4-47.1-80-94.7-80s-87.1 34.6-94.7 80H80c-35.3 0-64-28.7-64-64V112c0-35.3 28.7-64 64-64H416zM80 416H96c0 53 43 96 96 96s96-43 96-96H560h16l56 0c4.4 0 8-3.6 8-8s-3.6-8-8-8l-56 0V192c0-88.4-71.6-160-160-160H80C35.8 32 0 67.8 0 112V336c0 44.2 35.8 80 80 80zM96 144H224c8.8 0 16 7.2 16 16v64c0 8.8-7.2 16-16 16H96c-8.8 0-16-7.2-16-16V160c0-8.8 7.2-16 16-16zM64 160v64c0 17.7 14.3 32 32 32H224c17.7 0 32-14.3 32-32V160c0-17.7-14.3-32-32-32H96c-17.7 0-32 14.3-32 32zm352-16c8.8 0 16 7.2 16 16v64H392c-4.4 0-8 3.6-8 8s3.6 8 8 8h40v80c0 8.8-7.2 16-16 16H352c-8.8 0-16-7.2-16-16V160c0-8.8 7.2-16 16-16h64zm32 88V160c0-17.7-14.3-32-32-32H352c-17.7 0-32 14.3-32 32V320c0 17.7 14.3 32 32 32h64c17.7 0 32-14.3 32-32V232zM192 336a80 80 0 1 1 0 160 80 80 0 1 1 0-160z"/></svg>