<svg xmlns="http://www.w3.org/2000/svg" viewBox="0 0 384 512"><!--! Font Awesome Pro 6.4.0 by @fontawesome - https://fontawesome.com License - https://fontawesome.com/license (Commercial License) Copyright 2023 Fonticons, Inc. --><path d="M64 16C37.5 16 16 37.5 16 64V448c0 26.5 21.5 48 48 48H320c26.5 0 48-21.5 48-48V64c0-26.5-21.5-48-48-48H64zM0 64C0 28.7 28.7 0 64 0H320c35.3 0 64 28.7 64 64V448c0 35.3-28.7 64-64 64H64c-35.3 0-64-28.7-64-64V64zm186.3 62.5c3.1-3.1 8.2-3.1 11.3 0l39.6 39.6L297 225.9c25 25 25 65.5 0 90.5s-65.5 25-90.5 0l-6.5-6.5V366h24c4.4 0 8 3.6 8 8s-3.6 8-8 8H160c-4.4 0-8-3.6-8-8s3.6-8 8-8h24V309.9l-6.5 6.5c-25 25-65.5 25-90.5 0s-25-65.5 0-90.5l59.7-59.7 39.6-39.6zM192 301.9l-.1 .1h.2l-.1-.1zm0-158.4l-33.9 33.9L98.3 237.2c-18.7 18.7-18.7 49.1 0 67.9s49.1 18.7 67.9 0l20.1-20.1c3.1-3.1 8.2-3.1 11.3 0l20.1 20.1c18.7 18.7 49.1 18.7 67.9 0s18.7-49.1 0-67.9l-59.7-59.7L192 143.5z"/></svg>