<svg xmlns="http://www.w3.org/2000/svg" viewBox="0 0 640 512"><!--! Font Awesome Pro 6.4.0 by @fontawesome - https://fontawesome.com License - https://fontawesome.com/license (Commercial License) Copyright 2023 Fonticons, Inc. --><path d="M0 8C0 3.6 3.6 0 8 0H88c22.1 0 40 17.9 40 40V392c0 13.3 10.7 24 24 24h72H512 632c4.4 0 8 3.6 8 8s-3.6 8-8 8H547.8c7.6 8.5 12.2 19.7 12.2 32c0 26.5-21.5 48-48 48s-48-21.5-48-48c0-12.3 4.6-23.5 12.2-32H259.8c7.6 8.5 12.2 19.7 12.2 32c0 26.5-21.5 48-48 48s-48-21.5-48-48c0-12.3 4.6-23.5 12.2-32H152c-22.1 0-40-17.9-40-40V40c0-13.3-10.7-24-24-24H8c-4.4 0-8-3.6-8-8zM512 432a32 32 0 1 0 0 64 32 32 0 1 0 0-64zM192 464a32 32 0 1 0 64 0 32 32 0 1 0 -64 0zM344 16c-13.3 0-24 10.7-24 24V80H448V40c0-13.3-10.7-24-24-24H344zM464 80h48c35.3 0 64 28.7 64 64V288c0 35.3-28.7 64-64 64H256c-35.3 0-64-28.7-64-64V144c0-35.3 28.7-64 64-64h48V40c0-22.1 17.9-40 40-40h80c22.1 0 40 17.9 40 40V80zm0 16H448 320 304 288V336H480V96H464zM272 96H256c-26.5 0-48 21.5-48 48V288c0 26.5 21.5 48 48 48h16V96zM496 336h16c26.5 0 48-21.5 48-48V144c0-26.5-21.5-48-48-48H496V336z"/></svg>