<svg xmlns="http://www.w3.org/2000/svg" viewBox="0 0 640 512"><!--! Font Awesome Pro 6.4.0 by @fontawesome - https://fontawesome.com License - https://fontawesome.com/license (Commercial License) Copyright 2023 Fonticons, Inc. --><path d="M64 8c0-4.4 3.6-8 8-8h37.7c19 0 35.4 13.4 39.2 32H591.7c25.8 0 44.8 24 39 49.1L592.4 244.7c-5.9 25.3-28.5 43.3-54.5 43.3h-339l9.3 47.7c3.7 18.8 20.1 32.3 39.3 32.3H568c4.4 0 8 3.6 8 8s-3.6 8-8 8H247.5c-26.8 0-49.8-19-55-45.2L133.2 35.4C131 24.1 121.1 16 109.7 16H72c-4.4 0-8-3.6-8-8zM195.8 272H537.9c18.6 0 34.7-12.8 39-30.9L615 77.5c3.5-15.1-7.9-29.5-23.4-29.5H152l43.8 224zM240 496a32 32 0 1 0 0-64 32 32 0 1 0 0 64zm0-80a48 48 0 1 1 0 96 48 48 0 1 1 0-96zm320 48a32 32 0 1 0 -64 0 32 32 0 1 0 64 0zm-80 0a48 48 0 1 1 96 0 48 48 0 1 1 -96 0zM8 128H120c4.4 0 8 3.6 8 8s-3.6 8-8 8H8c-4.4 0-8-3.6-8-8s3.6-8 8-8zm0 64H136c4.4 0 8 3.6 8 8s-3.6 8-8 8H8c-4.4 0-8-3.6-8-8s3.6-8 8-8zm0 64H152c4.4 0 8 3.6 8 8s-3.6 8-8 8H8c-4.4 0-8-3.6-8-8s3.6-8 8-8z"/></svg>