<svg xmlns="http://www.w3.org/2000/svg" viewBox="0 0 640 512"><!--! Font Awesome Pro 6.4.0 by @fontawesome - https://fontawesome.com License - https://fontawesome.com/license (Commercial License) Copyright 2023 Fonticons, Inc. --><path d="M8 0C3.6 0 0 3.6 0 8s3.6 8 8 8H57.8l94.4 362c.9 3.5 4.1 6 7.7 6H320.7c-.5-5.3-.7-10.6-.7-16H166.2l-20.9-80H339.2c2.8-5.5 5.9-10.8 9.3-16H141.1L82.7 48H541.8c10.6 0 18.3 10.1 15.4 20.3L521.8 193.9c5.3 .8 10.6 1.8 15.8 3.1l35-124.3C578.3 52.3 563 32 541.8 32H78.5L71.7 6c-.9-3.5-4.1-6-7.7-6H8zM176 432a32 32 0 1 1 0 64 32 32 0 1 1 0-64zm0 80a48 48 0 1 0 0-96 48 48 0 1 0 0 96zM368 368a128 128 0 1 1 256 0 128 128 0 1 1 -256 0zm272 0a144 144 0 1 0 -288 0 144 144 0 1 0 288 0zM496 448a16 16 0 1 0 0-32 16 16 0 1 0 0 32zm0-168c-4.4 0-8 3.6-8 8v96c0 4.4 3.6 8 8 8s8-3.6 8-8V288c0-4.4-3.6-8-8-8z"/></svg>