<svg xmlns="http://www.w3.org/2000/svg" viewBox="0 0 576 512"><!--! Font Awesome Pro 6.4.0 by @fontawesome - https://fontawesome.com License - https://fontawesome.com/license (Commercial License) Copyright 2023 Fonticons, Inc. --><path d="M16 160V416c0 26.5 21.5 48 48 48H512c26.5 0 48-21.5 48-48V160H16zm0-16H560V96c0-26.5-21.5-48-48-48H64C37.5 48 16 69.5 16 96v48zM576 96v48 8 8V416c0 35.3-28.7 64-64 64H64c-35.3 0-64-28.7-64-64V160v-8-8V96C0 60.7 28.7 32 64 32H512c35.3 0 64 28.7 64 64zM109.9 228.8C99.1 240.2 80 265.6 80 304s19.1 63.8 29.9 75.2c3 3.1 7.5 4.8 12.9 4.8H208V224H122.8c-5.3 0-9.9 1.7-12.9 4.8zM352 384V224H224V384H352zm103.7 0c4.2 0 7.6-1.1 9.9-3c10-8.4 30.5-31.2 30.5-77s-20.5-68.6-30.5-77c-2.3-1.9-5.6-3-9.9-3H368V384h87.7zM122.8 208H216 360h95.7c6.7 0 14.2 1.7 20.2 6.8C488.7 225.7 512 252.6 512 304s-23.3 78.3-36.1 89.2c-6 5.1-13.5 6.8-20.2 6.8H360 216 122.8c-8.6 0-17.8-2.8-24.4-9.8C85.9 377.2 64 348 64 304s21.9-73.2 34.3-86.2c6.7-7 15.8-9.8 24.4-9.8zM176 264c-22.1 0-40 17.9-40 40s17.9 40 40 40c4.4 0 8 3.6 8 8s-3.6 8-8 8c-30.9 0-56-25.1-56-56s25.1-56 56-56c4.4 0 8 3.6 8 8s-3.6 8-8 8zm264 40c0-22.1-17.9-40-40-40c-4.4 0-8-3.6-8-8s3.6-8 8-8c30.9 0 56 25.1 56 56s-25.1 56-56 56c-4.4 0-8-3.6-8-8s3.6-8 8-8c22.1 0 40-17.9 40-40z"/></svg>