<svg xmlns="http://www.w3.org/2000/svg" viewBox="0 0 640 512"><!--! Font Awesome Pro 6.4.0 by @fontawesome - https://fontawesome.com License - https://fontawesome.com/license (Commercial License) Copyright 2023 Fonticons, Inc. --><path d="M128 24c0-13.3 10.7-24 24-24h32c13.3 0 24 10.7 24 24V72h24V24c0-13.3 10.7-24 24-24h24c13.3 0 24 10.7 24 24V72h32V24c0-13.3 10.7-24 24-24h24c13.3 0 24 10.7 24 24V72h24V24c0-13.3 10.7-24 24-24h32c13.3 0 24 10.7 24 24V224h48V184c0-13.3 10.7-24 24-24h32c13.3 0 24 10.7 24 24V440c0 39.8-32.2 72-72 72H72c-39.8 0-72-32.2-72-72V184c0-13.3 10.7-24 24-24H56c13.3 0 24 10.7 24 24v40h48V24zm8 216h-8H72c-4.4 0-8-3.6-8-8V184c0-4.4-3.6-8-8-8H24c-4.4 0-8 3.6-8 8V440c0 30.9 25.1 56 56 56H240V392c0-44.2 35.8-80 80-80s80 35.8 80 80V496H568c30.9 0 56-25.1 56-56V184c0-4.4-3.6-8-8-8H584c-4.4 0-8 3.6-8 8v48c0 4.4-3.6 8-8 8H512h-8H136zm360-16V24c0-4.4-3.6-8-8-8H456c-4.4 0-8 3.6-8 8V80c0 4.4-3.6 8-8 8H400c-4.4 0-8-3.6-8-8V24c0-4.4-3.6-8-8-8H360c-4.4 0-8 3.6-8 8V80c0 4.4-3.6 8-8 8H296c-4.4 0-8-3.6-8-8V24c0-4.4-3.6-8-8-8H256c-4.4 0-8 3.6-8 8V80c0 4.4-3.6 8-8 8H200c-4.4 0-8-3.6-8-8V24c0-4.4-3.6-8-8-8H152c-4.4 0-8 3.6-8 8V224H496zM384 392c0-35.3-28.7-64-64-64s-64 28.7-64 64V496H384V392z"/></svg>