<svg xmlns="http://www.w3.org/2000/svg" viewBox="0 0 640 512"><!--! Font Awesome Pro 6.4.0 by @fontawesome - https://fontawesome.com License - https://fontawesome.com/license (Commercial License) Copyright 2023 Fonticons, Inc. --><path d="M448 304a144 144 0 1 0 0-288 144 144 0 1 0 0 288zm0 16c-77.6 0-142.3-55.2-156.9-128.5C186.4 219.1 112 314.1 112 424v16c0 30.9 25.1 56 56 56h16H328h26.7c7.4 0 13.3-6 13.3-13.3c0-19.1-15.5-34.7-34.7-34.7H288c-4.4 0-8-3.6-8-8l0 0V400c0-26.5-21.5-48-48-48H200c-4.4 0-8-3.6-8-8s3.6-8 8-8h32c35.3 0 64 28.7 64 64v30.3l125.5-85c2.5-1.7 5.6-1.8 8.2-.4s4.2 4.1 4.2 7.1V473c0 12.7 10.3 23 23 23s23-10.3 23-23V316.8c-10.3 2.1-21 3.2-32 3.2zM608 160c0 71.6-47.1 132.3-112 152.7V473c0 21.5-17.5 39-39 39s-39-17.5-39-39V367.1L322.1 432h11.2c28 0 50.7 22.7 50.7 50.7c0 16.2-13.1 29.3-29.3 29.3H328 184 168c-39.8 0-72-32.2-72-72V424 168.5c0-28.2-21-52.1-49.1-55.6l-7.9-1c-4.4-.5-7.5-4.5-6.9-8.9s4.5-7.5 8.9-6.9l7.9 1c36 4.5 63.1 35.1 63.1 71.4V334.7c28.8-77.4 94-138 176.8-159.2c-.5-5.1-.8-10.3-.8-15.6C288 71.6 359.6 0 448 0s160 71.6 160 160zM373 65.8L410.8 96h74.4L523 65.8c2.4-1.9 5.7-2.3 8.5-1s4.5 4.1 4.5 7.2v96c0 48.6-39.4 88-88 88s-88-39.4-88-88V72c0-3.1 1.8-5.9 4.5-7.2s6.1-1 8.5 1zM376 168c0 39.8 32.2 72 72 72s72-32.2 72-72V88.6l-27 21.6c-1.4 1.1-3.2 1.8-5 1.8H408c-1.8 0-3.6-.6-5-1.8L376 88.6V168zm24-8a16 16 0 1 1 32 0 16 16 0 1 1 -32 0zm80-16a16 16 0 1 1 0 32 16 16 0 1 1 0-32zM232 16V56h40c4.4 0 8 3.6 8 8s-3.6 8-8 8H232v40c0 4.4-3.6 8-8 8s-8-3.6-8-8V72H176c-4.4 0-8-3.6-8-8s3.6-8 8-8h40V16c0-4.4 3.6-8 8-8s8 3.6 8 8z"/></svg>