<svg xmlns="http://www.w3.org/2000/svg" viewBox="0 0 448 512"><!--! Font Awesome Pro 6.4.0 by @fontawesome - https://fontawesome.com License - https://fontawesome.com/license (Commercial License) Copyright 2023 Fonticons, Inc. --><path d="M232 16V256H216V16H192c-11.1 0-21.9 1.6-32 4.6V256H144V26.8C106.2 44.8 80 83.3 80 128V256H64V128C64 57.3 121.3 0 192 0h64c70.7 0 128 57.3 128 128V256H368V128c0-44.7-26.2-83.2-64-101.2V256H288V20.6c-10.1-3-20.9-4.6-32-4.6H232zM33.7 312.8l-16 32c-2.5 5-2.2 10.9 .7 15.6s8.1 7.6 13.6 7.6H416c5.5 0 10.7-2.9 13.6-7.6s3.2-10.6 .7-15.6l-16-32c-2.7-5.4-8.2-8.8-14.3-8.8H48c-6.1 0-11.6 3.4-14.3 8.8zm-14.3-7.2C24.8 294.8 35.9 288 48 288H400c12.1 0 23.2 6.8 28.6 17.7l16 32c5 9.9 4.4 21.7-1.4 31.1s-16.1 15.2-27.2 15.2H400V504c0 4.4-3.6 8-8 8s-8-3.6-8-8V384H64V504c0 4.4-3.6 8-8 8s-8-3.6-8-8V384H32c-11.1 0-21.4-5.7-27.2-15.2s-6.4-21.2-1.4-31.1l16-32z"/></svg>