<svg xmlns="http://www.w3.org/2000/svg" viewBox="0 0 448 512"><!--! Font Awesome Pro 6.4.0 by @fontawesome - https://fontawesome.com License - https://fontawesome.com/license (Commercial License) Copyright 2023 Fonticons, Inc. --><path d="M288 16c26.5 0 48 21.5 48 48V256h16V64c0-35.3-28.7-64-64-64H160C124.7 0 96 28.7 96 64V256h16V64c0-26.5 21.5-48 48-48H288zM48 168c0-4.4-3.6-8-8-8s-8 3.6-8 8v80c0 4.4 3.6 8 8 8s8-3.6 8-8V168zm368 0c0-4.4-3.6-8-8-8s-8 3.6-8 8v80c0 4.4 3.6 8 8 8s8-3.6 8-8V168zM80 304H368c6.1 0 11.6 3.4 14.3 8.8l16 32c2.5 5 2.2 10.9-.7 15.6s-8.1 7.6-13.6 7.6H224 64c-5.5 0-10.7-2.9-13.6-7.6s-3.2-10.6-.7-15.6l16-32c2.7-5.4 8.3-8.8 14.3-8.8zm152 80H384c11.1 0 21.4-5.7 27.2-15.2s6.4-21.2 1.4-31.1l-16-32C391.2 294.8 380.1 288 368 288H80c-12.1 0-23.2 6.8-28.6 17.7l-16 32c-5 9.9-4.4 21.7 1.4 31.1S52.9 384 64 384H216v64H184c-30.9 0-56 25.1-56 56c0 4.4 3.6 8 8 8s8-3.6 8-8c0-22.1 17.9-40 40-40h32v40c0 4.4 3.6 8 8 8s8-3.6 8-8V464h32c22.1 0 40 17.9 40 40c0 4.4 3.6 8 8 8s8-3.6 8-8c0-30.9-25.1-56-56-56H232V384z"/></svg>