<svg xmlns="http://www.w3.org/2000/svg" viewBox="0 0 640 512"><!--! Font Awesome Pro 6.4.0 by @fontawesome - https://fontawesome.com License - https://fontawesome.com/license (Commercial License) Copyright 2023 Fonticons, Inc. --><path d="M576 16H224c-26.5 0-48 21.5-48 48V97c-5.2-.7-10.6-1-16-1V64c0-35.3 28.7-64 64-64H576c35.3 0 64 28.7 64 64V352c0 35.3-28.7 64-64 64H544h-8H392h-8H336.8c-2.5-5.5-5.4-10.8-8.5-16H384V360c0-22.1 17.9-40 40-40h80c22.1 0 40 17.9 40 40v40h32c26.5 0 48-21.5 48-48V64c0-26.5-21.5-48-48-48zM528 400V360c0-13.3-10.7-24-24-24H424c-13.3 0-24 10.7-24 24v40H528zM240 224A80 80 0 1 0 80 224a80 80 0 1 0 160 0zM64 224a96 96 0 1 1 192 0A96 96 0 1 1 64 224zM16 485.3c0 5.9 4.8 10.7 10.7 10.7H293.3c5.9 0 10.7-4.8 10.7-10.7C304 420.5 251.5 368 186.7 368H133.3C68.5 368 16 420.5 16 485.3zm-16 0C0 411.7 59.7 352 133.3 352h53.3C260.3 352 320 411.7 320 485.3c0 14.7-11.9 26.7-26.7 26.7H26.7C11.9 512 0 500.1 0 485.3z"/></svg>