<svg xmlns="http://www.w3.org/2000/svg" viewBox="0 0 320 512"><!--! Font Awesome Pro 6.4.0 by @fontawesome - https://fontawesome.com License - https://fontawesome.com/license (Commercial License) Copyright 2023 Fonticons, Inc. --><path d="M54.1 144H265.9l9.7 53.4C288.8 269.6 233.3 336 160 336S31.2 269.6 44.4 197.4L54.1 144zM57 128L75 29.1C76.3 21.5 83 16 90.7 16H229.3c7.7 0 14.4 5.5 15.7 13.1L263 128H57zM59.2 26.3L28.6 194.6C14.2 273.9 72.7 347.1 152 351.8V496H72c-4.4 0-8 3.6-8 8s3.6 8 8 8h88 88c4.4 0 8-3.6 8-8s-3.6-8-8-8H168V351.8c79.3-4.6 137.8-77.9 123.4-157.2L260.8 26.3C258 11.1 244.8 0 229.3 0H90.7C75.2 0 62 11.1 59.2 26.3z"/></svg>