<svg xmlns="http://www.w3.org/2000/svg" viewBox="0 0 512 512"><!--! Font Awesome Pro 6.4.0 by @fontawesome - https://fontawesome.com License - https://fontawesome.com/license (Commercial License) Copyright 2023 Fonticons, Inc. --><path d="M8 32c4.4 0 8 3.6 8 8V408c0 30.9 25.1 56 56 56H504c4.4 0 8 3.6 8 8s-3.6 8-8 8H72c-39.8 0-72-32.2-72-72V40c0-4.4 3.6-8 8-8zM352 72c0-4.4 3.6-8 8-8H472c4.4 0 8 3.6 8 8V184c0 4.4-3.6 8-8 8s-8-3.6-8-8V91.3L293.7 261.7c-3.1 3.1-8.2 3.1-11.3 0L208 187.3l-98.3 98.3c-3.1 3.1-8.2 3.1-11.3 0s-3.1-8.2 0-11.3l104-104c3.1-3.1 8.2-3.1 11.3 0L288 244.7 452.7 80H360c-4.4 0-8-3.6-8-8zm8 312c-4.4 0-8-3.6-8-8s3.6-8 8-8h92.7l-90.3-90.3 11.3-11.3L464 356.7V264c0-4.4 3.6-8 8-8s8 3.6 8 8V376c0 4.4-3.6 8-8 8H360z"/></svg>