<svg xmlns="http://www.w3.org/2000/svg" viewBox="0 0 576 512"><!--! Font Awesome Pro 6.4.0 by @fontawesome - https://fontawesome.com License - https://fontawesome.com/license (Commercial License) Copyright 2023 Fonticons, Inc. --><path d="M96 16C69.5 16 48 37.5 48 64V416H304V64c0-26.5-21.5-48-48-48H96zM48 432v64H304V432H48zM32 496V64C32 28.7 60.7 0 96 0H256c35.3 0 64 28.7 64 64V272h8c39.8 0 72 32.2 72 72v44c0 24.3 19.7 44 44 44s44-19.7 44-44V255.6c-40.4-4-72-38.1-72-79.6V152c0-13.3 10.7-24 24-24h8V72c0-4.4 3.6-8 8-8s8 3.6 8 8v56h64V72c0-4.4 3.6-8 8-8s8 3.6 8 8v56h8c13.3 0 24 10.7 24 24v24c0 41.5-31.6 75.6-72 79.6V388c0 33.1-26.9 60-60 60s-60-26.9-60-60V344c0-30.9-25.1-56-56-56h-8V496l24 0c4.4 0 8 3.6 8 8s-3.6 8-8 8H320 304 48 32 8c-4.4 0-8-3.6-8-8s3.6-8 8-8l24 0zM536 144H456 440c-4.4 0-8 3.6-8 8v24c0 35.3 28.7 64 64 64s64-28.7 64-64V152c0-4.4-3.6-8-8-8H536zM196.8 105.6c3.5 2.7 4.3 7.7 1.6 11.2L136 200h96c3 0 5.8 1.7 7.2 4.4s1.1 6-.8 8.4l-72 96c-2.7 3.5-7.7 4.3-11.2 1.6s-4.3-7.7-1.6-11.2L216 216H120c-3 0-5.8-1.7-7.2-4.4s-1.1-6 .8-8.4l72-96c2.7-3.5 7.7-4.3 11.2-1.6z"/></svg>