<svg xmlns="http://www.w3.org/2000/svg" viewBox="0 0 512 512"><!--! Font Awesome Pro 6.4.0 by @fontawesome - https://fontawesome.com License - https://fontawesome.com/license (Commercial License) Copyright 2023 Fonticons, Inc. --><path d="M16 40c0-4.4-3.6-8-8-8s-8 3.6-8 8V408c0 39.8 32.2 72 72 72H504c4.4 0 8-3.6 8-8s-3.6-8-8-8H72c-30.9 0-56-25.1-56-56V40zm96 104c0-8.8 7.2-16 16-16l192 0c8.8 0 16 7.2 16 16s-7.2 16-16 16l-192 0c-8.8 0-16-7.2-16-16zm0 96c0-8.8 7.2-16 16-16H256c8.8 0 16 7.2 16 16s-7.2 16-16 16H128c-8.8 0-16-7.2-16-16zm0 96c0-8.8 7.2-16 16-16H384c8.8 0 16 7.2 16 16s-7.2 16-16 16H128c-8.8 0-16-7.2-16-16zm16-224c-17.7 0-32 14.3-32 32s14.3 32 32 32l192 0c17.7 0 32-14.3 32-32s-14.3-32-32-32l-192 0zm0 96c-17.7 0-32 14.3-32 32s14.3 32 32 32H256c17.7 0 32-14.3 32-32s-14.3-32-32-32H128zm0 96c-17.7 0-32 14.3-32 32s14.3 32 32 32H384c17.7 0 32-14.3 32-32s-14.3-32-32-32H128z"/></svg>