<svg xmlns="http://www.w3.org/2000/svg" viewBox="0 0 640 512"><!--! Font Awesome Pro 6.4.0 by @fontawesome - https://fontawesome.com License - https://fontawesome.com/license (Commercial License) Copyright 2023 Fonticons, Inc. --><path d="M224 16H576c26.5 0 48 21.5 48 48V352c0 26.5-21.5 48-48 48H328.3c3.1 5.2 6 10.5 8.5 16H576c35.3 0 64-28.7 64-64V64c0-35.3-28.7-64-64-64H224c-35.3 0-64 28.7-64 64V96c5.4 0 10.8 .3 16 1V64c0-26.5 21.5-48 48-48zM416 120c0 4.4 3.6 8 8 8h76.7L384 244.7l-74.3-74.3c-3.1-3.1-8.2-3.1-11.3 0s-3.1 8.2 0 11.3l80 80c3.1 3.1 8.2 3.1 11.3 0L512 139.3V216c0 4.4 3.6 8 8 8s8-3.6 8-8V120c0-4.4-3.6-8-8-8H424c-4.4 0-8 3.6-8 8zM133.3 368h53.3C251.5 368 304 420.5 304 485.3c0 5.9-4.8 10.7-10.7 10.7H26.7c-5.9 0-10.7-4.8-10.7-10.7C16 420.5 68.5 368 133.3 368zm0-16C59.7 352 0 411.7 0 485.3C0 500.1 11.9 512 26.7 512H293.3c14.7 0 26.7-11.9 26.7-26.7C320 411.7 260.3 352 186.7 352H133.3zM80 224a80 80 0 1 1 160 0A80 80 0 1 1 80 224zm176 0A96 96 0 1 0 64 224a96 96 0 1 0 192 0z"/></svg>