<svg xmlns="http://www.w3.org/2000/svg" viewBox="0 0 512 512"><!--! Font Awesome Pro 6.4.0 by @fontawesome - https://fontawesome.com License - https://fontawesome.com/license (Commercial License) Copyright 2023 Fonticons, Inc. --><path d="M495.9 240H403.8c-8.8-9.8-21.6-16-35.8-16s-27 6.2-35.8 16H27.3l141-101.9c-.2 1.9-.4 3.9-.4 5.9c0 26.5 21.5 48 48 48s48-21.5 48-48c0-23.3-16.6-42.7-38.6-47.1l64.9-46.9c1.9-1.3 4.1-2.1 6.4-2.1C404.3 48 492 133.3 495.9 240zM16 256H322.7c-1.8 5-2.7 10.4-2.7 16c0 26.5 21.5 48 48 48s48-21.5 48-48c0-5.6-1-11-2.7-16H496V416c0 26.5-21.5 48-48 48H64c-26.5 0-48-21.5-48-48V256.4l0-.4zm320 16a32 32 0 1 1 64 0 32 32 0 1 1 -64 0zm176-16v-8.7C512 128.4 415.6 32 296.7 32c-5.7 0-11.2 1.8-15.8 5.1L13.3 230.4C4.9 236.4 0 246.1 0 256.4V416c0 35.3 28.7 64 64 64H448c35.3 0 64-28.7 64-64V256zM176 336a32 32 0 1 1 0 64 32 32 0 1 1 0-64zm0 80a48 48 0 1 0 0-96 48 48 0 1 0 0 96zm8-272a32 32 0 1 1 64 0 32 32 0 1 1 -64 0z"/></svg>