<svg xmlns="http://www.w3.org/2000/svg" viewBox="0 0 640 512"><!--! Font Awesome Pro 6.4.0 by @fontawesome - https://fontawesome.com License - https://fontawesome.com/license (Commercial License) Copyright 2023 Fonticons, Inc. --><path d="M248 32c4.4 0 8 3.6 8 8s-3.6 8-8 8H184v80H576c35.3 0 64 28.7 64 64V416c0 35.3-28.7 64-64 64H64c-35.3 0-64-28.7-64-64V192c0-35.3 28.7-64 64-64H168V48H104c-4.4 0-8-3.6-8-8s3.6-8 8-8h72 72zM176 144H64c-26.5 0-48 21.5-48 48V416c0 26.5 21.5 48 48 48H576c26.5 0 48-21.5 48-48V192c0-26.5-21.5-48-48-48H176zM544 88c0 4.4-3.6 8-8 8H392c-4.4 0-8-3.6-8-8s3.6-8 8-8H536c4.4 0 8 3.6 8 8zM176 400a96 96 0 1 0 0-192 96 96 0 1 0 0 192zm0-208a112 112 0 1 1 0 224 112 112 0 1 1 0-224zM531.9 371.9A96 96 0 1 0 396.1 236.1 96 96 0 1 0 531.9 371.9zM384.8 224.8A112 112 0 1 1 543.2 383.2 112 112 0 1 1 384.8 224.8zM176 240c4.4 0 8 3.6 8 8v56c0 4.4-3.6 8-8 8s-8-3.6-8-8V248c0-4.4 3.6-8 8-8zm333.3 30.1l-39.6 39.6c-3.1 3.1-8.2 3.1-11.3 0s-3.1-8.2 0-11.3l39.6-39.6c3.1-3.1 8.2-3.1 11.3 0s3.1 8.2 0 11.3z"/></svg>