<svg xmlns="http://www.w3.org/2000/svg" viewBox="0 0 256 512"><!--! Font Awesome Pro 6.4.0 by @fontawesome - https://fontawesome.com License - https://fontawesome.com/license (Commercial License) Copyright 2023 Fonticons, Inc. --><path d="M136 8c0-4.4-3.6-8-8-8s-8 3.6-8 8V32H88c-4.4 0-8 3.6-8 8s3.6 8 8 8h32V96H72c-17.7 0-32 14.3-32 32v1.6c0 4.2 .8 8.4 2.5 12.3L76.7 224H64c-4.4 0-8 3.6-8 8s3.6 8 8 8H78.7l-23 144H71.9l23-144h66.2l23 144h16.2l-23-144H192c4.4 0 8-3.6 8-8s-3.6-8-8-8H179.3l34.2-82.1c1.6-3.9 2.5-8.1 2.5-12.3V128c0-17.7-14.3-32-32-32H136V48h32c4.4 0 8-3.6 8-8s-3.6-8-8-8H136V8zm62.8 127.8L162 224H94L57.2 135.8c-.8-2-1.2-4-1.2-6.2V128c0-8.8 7.2-16 16-16H184c8.8 0 16 7.2 16 16v1.6c0 2.1-.4 4.2-1.2 6.2zM56.2 416c-7.8 0-15 3.7-19.5 10.1L4.5 471.2C1.6 475.2 0 480.1 0 485.1V488c0 13.3 10.7 24 24 24H232c13.3 0 24-10.7 24-24v-2.9c0-5-1.6-9.9-4.5-13.9l-32.2-45.1c-4.5-6.3-11.8-10.1-19.5-10.1H56.2zm-6.5 19.4c1.5-2.1 3.9-3.4 6.5-3.4H199.8c2.6 0 5 1.2 6.5 3.4l32.2 45.1c1 1.4 1.5 3 1.5 4.6V488c0 4.4-3.6 8-8 8H24c-4.4 0-8-3.6-8-8v-2.9c0-1.7 .5-3.3 1.5-4.6l32.2-45.1z"/></svg>