<svg xmlns="http://www.w3.org/2000/svg" viewBox="0 0 512 512"><!--! Font Awesome Pro 6.4.0 by @fontawesome - https://fontawesome.com License - https://fontawesome.com/license (Commercial License) Copyright 2023 Fonticons, Inc. --><path d="M128 0c4.4 0 8 3.6 8 8V32h32c4.4 0 8 3.6 8 8s-3.6 8-8 8H136V96h48c17.7 0 32 14.3 32 32v1.6c0 4.2-.8 8.4-2.5 12.3L179.3 224H192c4.4 0 8 3.6 8 8s-3.6 8-8 8H177.3l23 144H184.1l-23-144H94.9l-23 144H55.7l23-144H64c-4.4 0-8-3.6-8-8s3.6-8 8-8H76.7L42.5 141.9c-1.6-3.9-2.5-8.1-2.5-12.3V128c0-17.7 14.3-32 32-32h48V48H88c-4.4 0-8-3.6-8-8s3.6-8 8-8h32V8c0-4.4 3.6-8 8-8zm34 224l36.8-88.2c.8-2 1.2-4 1.2-6.2V128c0-8.8-7.2-16-16-16H72c-8.8 0-16 7.2-16 16v1.6c0 2.1 .4 4.2 1.2 6.2L94 224h68zM36.7 426.1c4.5-6.3 11.8-10.1 19.5-10.1H199.8c7.8 0 15 3.7 19.5 10.1l32.2 45.1c2.9 4.1 4.5 8.9 4.5 13.9V488c0 13.3-10.7 24-24 24H24c-13.3 0-24-10.7-24-24v-2.9c0-5 1.6-9.9 4.5-13.9l32.2-45.1zM56.2 432c-2.6 0-5 1.2-6.5 3.4L17.5 480.5c-1 1.4-1.5 3-1.5 4.6V488c0 4.4 3.6 8 8 8H232c4.4 0 8-3.6 8-8v-2.9c0-1.7-.5-3.3-1.5-4.6l-32.2-45.1c-1.5-2.1-3.9-3.4-6.5-3.4H56.2zM296 200c0-4.4 3.6-8 8-8h40c4.4 0 8 3.6 8 8v16c0 4.4 3.6 8 8 8s8-3.6 8-8V200c0-4.4 3.6-8 8-8h48c4.4 0 8 3.6 8 8v16c0 4.4 3.6 8 8 8s8-3.6 8-8V200c0-4.4 3.6-8 8-8h40c4.4 0 8 3.6 8 8v81.4c0 6.4-2.5 12.5-7 17L466.3 329c-1.5 1.5-2.3 3.5-2.3 5.7V384H448V334.6c0-6.4 2.5-12.5 7-17L485.7 287c1.5-1.5 2.3-3.5 2.3-5.7V208H464v8c0 13.3-10.7 24-24 24s-24-10.7-24-24v-8H384v8c0 13.3-10.7 24-24 24s-24-10.7-24-24v-8H312v73.4c0 2.1 .8 4.2 2.3 5.7L345 317.7c4.5 4.5 7 10.6 7 17V384H336V334.6c0-2.1-.8-4.2-2.3-5.7L303 298.3c-4.5-4.5-7-10.6-7-17V200zm28.7 226.1c4.5-6.3 11.8-10.1 19.5-10.1H455.8c7.8 0 15 3.7 19.5 10.1l32.2 45.1c2.9 4.1 4.5 8.9 4.5 13.9V488c0 13.3-10.7 24-24 24H312c-13.3 0-24-10.7-24-24v-2.9c0-5 1.6-9.9 4.5-13.9l32.2-45.1zm19.5 5.9c-2.6 0-5 1.2-6.5 3.4l-32.2 45.1c-1 1.4-1.5 3-1.5 4.6V488c0 4.4 3.6 8 8 8H488c4.4 0 8-3.6 8-8v-2.9c0-1.7-.5-3.3-1.5-4.6l-32.2-45.1c-1.5-2.1-3.9-3.4-6.5-3.4H344.2z"/></svg>