<svg xmlns="http://www.w3.org/2000/svg" viewBox="0 0 320 512"><!--! Font Awesome Pro 6.4.0 by @fontawesome - https://fontawesome.com License - https://fontawesome.com/license (Commercial License) Copyright 2023 Fonticons, Inc. --><path d="M256 144A96 96 0 1 0 64 144a96 96 0 1 0 192 0zm16 0c0 40.7-21.8 76.4-54.3 96h4.9H256c4.4 0 8 3.6 8 8s-3.6 8-8 8H225.7l24.8 128H234.2L209.4 256H160 110.6L85.8 384H69.5L94.3 256H64c-4.4 0-8-3.6-8-8s3.6-8 8-8H97.4h4.9C69.8 220.4 48 184.7 48 144C48 82.1 98.1 32 160 32s112 50.1 112 112zM50.4 437.3L19.8 471.2c-2.5 2.7-3.8 6.3-3.8 9.9c0 8.2 6.6 14.8 14.8 14.8H289.2c8.2 0 14.8-6.6 14.8-14.8c0-3.7-1.4-7.2-3.8-9.9l-30.6-33.9c-3-3.4-7.4-5.3-11.9-5.3H62.3c-4.5 0-8.9 1.9-11.9 5.3zm261.7 23.2c5.1 5.7 7.9 13 7.9 20.6c0 17-13.8 30.8-30.8 30.8H30.8C13.8 512 0 498.2 0 481.2c0-7.6 2.8-15 7.9-20.6l30.6-33.9c6.1-6.7 14.7-10.6 23.8-10.6H257.7c9.1 0 17.7 3.8 23.8 10.6l30.6 33.9z"/></svg>