<svg xmlns="http://www.w3.org/2000/svg" viewBox="0 0 640 512"><!--! Font Awesome Pro 6.4.0 by @fontawesome - https://fontawesome.com License - https://fontawesome.com/license (Commercial License) Copyright 2023 Fonticons, Inc. --><path d="M392 32c-4.4 0-8 3.6-8 8s3.6 8 8 8h64v80H64c-35.3 0-64 28.7-64 64V416c0 35.3 28.7 64 64 64H576c35.3 0 64-28.7 64-64V192c0-35.3-28.7-64-64-64H472V48h64c4.4 0 8-3.6 8-8s-3.6-8-8-8H464 392zm72 112H576c26.5 0 48 21.5 48 48V416c0 26.5-21.5 48-48 48H64c-26.5 0-48-21.5-48-48V192c0-26.5 21.5-48 48-48H464zM96 88c0 4.4 3.6 8 8 8H248c4.4 0 8-3.6 8-8s-3.6-8-8-8H104c-4.4 0-8 3.6-8 8zM464 208a96 96 0 1 1 0 192 96 96 0 1 1 0-192zm0 208a112 112 0 1 0 0-224 112 112 0 1 0 0 224zM108.1 236.1A96 96 0 1 1 243.9 371.9 96 96 0 1 1 108.1 236.1zM255.2 383.2A112 112 0 1 0 96.8 224.8 112 112 0 1 0 255.2 383.2zM464 240c-4.4 0-8 3.6-8 8v56c0 4.4 3.6 8 8 8s8-3.6 8-8V248c0-4.4-3.6-8-8-8zM221.3 270.1c3.1-3.1 3.1-8.2 0-11.3s-8.2-3.1-11.3 0l-39.6 39.6c-3.1 3.1-3.1 8.2 0 11.3s8.2 3.1 11.3 0l39.6-39.6z"/></svg>