<svg xmlns="http://www.w3.org/2000/svg" viewBox="0 0 320 512"><!--! Font Awesome Pro 6.4.0 by @fontawesome - https://fontawesome.com License - https://fontawesome.com/license (Commercial License) Copyright 2023 Fonticons, Inc. --><path d="M32 120c0-4.4 3.6-8 8-8H64c4.4 0 8 3.6 8 8v16c0 13.3 10.7 24 24 24h16c13.3 0 24-10.7 24-24V120c0-4.4 3.6-8 8-8h31.5c4.4 0 8 3.6 8 8v16c0 13.3 10.7 24 24 24H224c13.3 0 24-10.7 24-24V120c0-4.4 3.6-8 8-8h24c4.4 0 8 3.6 8 8V226.2c0 1.9-.7 3.7-1.9 5.1l-36.3 43.5c-1.3 1.6-2 3.6-1.8 5.6L254.5 384h16l-6.3-101.3 34.3-41.1c3.6-4.3 5.6-9.7 5.6-15.4V120c0-13.3-10.7-24-24-24H256c-13.3 0-24 10.7-24 24v16c0 4.4-3.6 8-8 8H207.5c-4.4 0-8-3.6-8-8V120c0-13.3-10.7-24-24-24H144c-13.3 0-24 10.7-24 24v16c0 4.4-3.6 8-8 8H96c-4.4 0-8-3.6-8-8V120c0-13.3-10.7-24-24-24H40c-13.3 0-24 10.7-24 24V226.2c0 5.6 2 11.1 5.6 15.4l34.3 41.1L49.5 384h16L72 280.5c.1-2-.5-4.1-1.8-5.6L33.9 231.3c-1.2-1.4-1.9-3.2-1.9-5.1V120zm4.7 306.1L4.5 471.2C1.6 475.2 0 480.1 0 485.1V488c0 13.3 10.7 24 24 24H296c13.3 0 24-10.7 24-24v-2.9c0-5-1.6-9.9-4.5-13.9l-32.2-45.1c-4.5-6.3-11.8-10.1-19.5-10.1H56.2c-7.8 0-15 3.7-19.5 10.1zM56.2 432H263.8c2.6 0 5 1.2 6.5 3.4l32.2 45.1c1 1.4 1.5 3 1.5 4.6V488c0 4.4-3.6 8-8 8H24c-4.4 0-8-3.6-8-8v-2.9c0-1.7 .5-3.3 1.5-4.6l32.2-45.1c1.5-2.1 3.9-3.4 6.5-3.4zM160 224c-17.7 0-32 14.3-32 32v40c0 4.4 3.6 8 8 8h48c4.4 0 8-3.6 8-8V256c0-17.7-14.3-32-32-32zm-16 32c0-8.8 7.2-16 16-16s16 7.2 16 16v32H144V256z"/></svg>