<svg xmlns="http://www.w3.org/2000/svg" viewBox="0 0 640 512"><!--! Font Awesome Pro 6.4.0 by @fontawesome - https://fontawesome.com License - https://fontawesome.com/license (Commercial License) Copyright 2023 Fonticons, Inc. --><path d="M112 64a48 48 0 1 1 96 0 48 48 0 1 1 -96 0zm112 0A64 64 0 1 0 96 64a64 64 0 1 0 128 0zM111.2 259.4c1.9-4 .2-8.8-3.8-10.6s-8.8-.2-10.6 3.8l-64 136c-1.2 2.5-1 5.4 .5 7.7s4 3.7 6.8 3.7H80v80c0 17.7 14.3 32 32 32s32-14.3 32-32V400h32v80c0 17.7 14.3 32 32 32s32-14.3 32-32V400h40c2.7 0 5.3-1.4 6.8-3.7s1.7-5.2 .5-7.7l-64-136c-1.9-4-6.6-5.7-10.6-3.8s-5.7 6.6-3.8 10.6L267.4 384H232 184 136 88 52.6l58.6-124.6zM96 480V400h32v80c0 8.8-7.2 16-16 16s-16-7.2-16-16zm96-80h32v80c0 8.8-7.2 16-16 16s-16-7.2-16-16V400zM159.2 176h1.6c28.3 0 54.5 15 68.9 39.4l59.4 100.7c2.2 3.8 7.1 5.1 11 2.8s5.1-7.1 2.8-11L243.5 207.2C226.2 178 194.8 160 160.8 160h-1.6c-34 0-65.4 18-82.7 47.2L17.1 307.9c-2.2 3.8-1 8.7 2.8 11s8.7 1 11-2.8L90.3 215.4C104.7 191 130.9 176 159.2 176zM432 64a48 48 0 1 1 96 0 48 48 0 1 1 -96 0zm112 0A64 64 0 1 0 416 64a64 64 0 1 0 128 0zM400.9 222.5C416.2 193.9 446 176 478.5 176h3c32.5 0 62.3 17.9 77.6 46.5l49.8 93.2c2.1 3.9 6.9 5.4 10.8 3.3s5.4-6.9 3.3-10.8L573.3 215c-18.1-33.9-53.4-55-91.7-55h-3c-38.4 0-73.6 21.1-91.7 55l-49.8 93.2c-2.1 3.9-.6 8.7 3.3 10.8s8.7 .6 10.8-3.3l49.8-93.2zM408 280c-4.4 0-8 3.6-8 8V480c0 17.7 14.3 32 32 32s32-14.3 32-32V400c0-8.8 7.2-16 16-16s16 7.2 16 16v80c0 17.7 14.3 32 32 32s32-14.3 32-32V288c0-4.4-3.6-8-8-8s-8 3.6-8 8V480c0 8.8-7.2 16-16 16s-16-7.2-16-16V400c0-17.7-14.3-32-32-32s-32 14.3-32 32v80c0 8.8-7.2 16-16 16s-16-7.2-16-16V288c0-4.4-3.6-8-8-8z"/></svg>