<svg xmlns="http://www.w3.org/2000/svg" viewBox="0 0 512 512"><!--! Font Awesome Pro 6.4.0 by @fontawesome - https://fontawesome.com License - https://fontawesome.com/license (Commercial License) Copyright 2023 Fonticons, Inc. --><path d="M256 16a240 240 0 1 1 0 480 240 240 0 1 1 0-480zm0 496A256 256 0 1 0 256 0a256 256 0 1 0 0 512zM184 128c-13.3 0-24 10.7-24 24V280v96c0 4.4 3.6 8 8 8s8-3.6 8-8V288h92.3l77.6 93.1c2.8 3.4 7.9 3.9 11.3 1s3.9-7.9 1-11.3l-70.4-84.4c36.6-7.3 64.2-39.7 64.2-78.4c0-44.2-35.8-80-80-80H184zm88 144H176V152c0-4.4 3.6-8 8-8h88c35.3 0 64 28.7 64 64s-28.7 64-64 64z"/></svg>