<svg xmlns="http://www.w3.org/2000/svg" viewBox="0 0 512 512"><!--! Font Awesome Pro 6.4.0 by @fontawesome - https://fontawesome.com License - https://fontawesome.com/license (Commercial License) Copyright 2023 Fonticons, Inc. --><path d="M496 256A240 240 0 1 0 16 256a240 240 0 1 0 480 0zM0 256a256 256 0 1 1 512 0A256 256 0 1 1 0 256zm160-96h8 16 12l21.6-28.8c1.5-2 3.9-3.2 6.4-3.2h64c2.5 0 4.9 1.2 6.4 3.2L316 160h12 16 8c4.4 0 8 3.6 8 8s-3.6 8-8 8h-9.1L330.1 354.3C328.9 371 315 384 298.2 384H213.8c-16.8 0-30.7-13-31.9-29.7L169.1 176H160c-4.4 0-8-3.6-8-8s3.6-8 8-8zm56 0h80l-12-16H228l-12 16zm110.8 16H185.2l12.7 177.1c.6 8.4 7.6 14.9 16 14.9h84.4c8.4 0 15.4-6.5 16-14.9L326.8 176z"/></svg>