<svg xmlns="http://www.w3.org/2000/svg" viewBox="0 0 512 512"><!--! Font Awesome Pro 6.4.0 by @fontawesome - https://fontawesome.com License - https://fontawesome.com/license (Commercial License) Copyright 2023 Fonticons, Inc. --><path d="M256 16a240 240 0 1 1 0 480 240 240 0 1 1 0-480zm0 496A256 256 0 1 0 256 0a256 256 0 1 0 0 512zM192 160v96c0 35.3 28.7 64 64 64s64-28.7 64-64V160c0-35.3-28.7-64-64-64s-64 28.7-64 64zm64-48c26.5 0 48 21.5 48 48v96c0 26.5-21.5 48-48 48s-48-21.5-48-48V160c0-26.5 21.5-48 48-48zM144 232c0-4.4-3.6-8-8-8s-8 3.6-8 8v24c0 68 53 123.6 120 127.8V408c0 4.4 3.6 8 8 8s8-3.6 8-8V383.8C331 379.6 384 324 384 256V232c0-4.4-3.6-8-8-8s-8 3.6-8 8v24c0 61.9-50.1 112-112 112s-112-50.1-112-112V232z"/></svg>