<svg xmlns="http://www.w3.org/2000/svg" viewBox="0 0 512 512"><!--! Font Awesome Pro 6.4.0 by @fontawesome - https://fontawesome.com License - https://fontawesome.com/license (Commercial License) Copyright 2023 Fonticons, Inc. --><path d="M464 80A64 64 0 1 0 336 80a64 64 0 1 0 128 0zm16 0c0 44.2-35.8 80-80 80c-2.1 0-4.3-.1-6.4-.2L358.1 355.1c-5.1-1.5-10.3-2.4-15.7-2.8l35.5-195.3c-21.2-6.1-38.8-20.7-48.8-39.9L156.9 185.9c2 7 3.1 14.5 3.1 22.1c0 17.3-5.5 33.3-14.8 46.4L281.4 373.6c-3.9 3.6-7.4 7.7-10.5 12L134.6 266.4C120.3 279.8 101.1 288 80 288c-44.2 0-80-35.8-80-80s35.8-80 80-80c30.8 0 57.6 17.4 70.9 43l172.2-68.9c-2-7-3.1-14.5-3.1-22.1c0-44.2 35.8-80 80-80s80 35.8 80 80zM400 432a64 64 0 1 0 -128 0 64 64 0 1 0 128 0zm-144 0a80 80 0 1 1 160 0 80 80 0 1 1 -160 0zM80 272a64 64 0 1 0 0-128 64 64 0 1 0 0 128z"/></svg>