<svg xmlns="http://www.w3.org/2000/svg" viewBox="0 0 512 512"><!--! Font Awesome Pro 6.4.0 by @fontawesome - https://fontawesome.com License - https://fontawesome.com/license (Commercial License) Copyright 2023 Fonticons, Inc. --><path d="M256 496a240 240 0 1 0 0-480 240 240 0 1 0 0 480zM256 0a256 256 0 1 1 0 512A256 256 0 1 1 256 0zM200 160H344c4.4 0 8 3.6 8 8V312c0 4.4-3.6 8-8 8s-8-3.6-8-8V187.3L173.7 349.7c-3.1 3.1-8.2 3.1-11.3 0s-3.1-8.2 0-11.3L324.7 176H200c-4.4 0-8-3.6-8-8s3.6-8 8-8z"/></svg>