<svg xmlns="http://www.w3.org/2000/svg" viewBox="0 0 512 512"><!--! Font Awesome Pro 6.4.0 by @fontawesome - https://fontawesome.com License - https://fontawesome.com/license (Commercial License) Copyright 2023 Fonticons, Inc. --><path d="M256 16a240 240 0 1 1 0 480 240 240 0 1 1 0-480zm0 496A256 256 0 1 0 256 0a256 256 0 1 0 0 512zM206.6 136.8L195.1 160H168c-22.1 0-40 17.9-40 40V312c0 22.1 17.9 40 40 40H344c22.1 0 40-17.9 40-40V200c0-22.1-17.9-40-40-40H316.9l-11.6-23.2c-2.7-5.4-8.3-8.8-14.3-8.8H220.9c-6.1 0-11.6 3.4-14.3 8.8zm14.3 7.2h70.1l13.8 27.6c1.4 2.7 4.1 4.4 7.2 4.4h32c13.3 0 24 10.7 24 24V312c0 13.3-10.7 24-24 24H168c-13.3 0-24-10.7-24-24V200c0-13.3 10.7-24 24-24h32c3 0 5.8-1.7 7.2-4.4L220.9 144zM256 304a48 48 0 1 0 0-96 48 48 0 1 0 0 96zm-32-48a32 32 0 1 1 64 0 32 32 0 1 1 -64 0z"/></svg>