<svg xmlns="http://www.w3.org/2000/svg" viewBox="0 0 640 512"><!--! Font Awesome Pro 6.4.0 by @fontawesome - https://fontawesome.com License - https://fontawesome.com/license (Commercial License) Copyright 2023 Fonticons, Inc. --><path d="M80 8V64h80V8c0-4.4 3.6-8 8-8s8 3.6 8 8V64h48V80H176 160 80 64 56c-22.1 0-40 17.9-40 40V456c0 22.1 17.9 40 40 40H236.8c3.3 5.7 7.2 11.1 11.6 16H56c-30.9 0-56-25.1-56-56V120C0 89.1 25.1 64 56 64h8V8c0-4.4 3.6-8 8-8s8 3.6 8 8zM480 176c-8.8 0-16-7.2-16-16V64c0-26.5-21.5-48-48-48H320c-26.5 0-48 21.5-48 48V224 448c0 26.5 21.5 48 48 48h96H576c26.5 0 48-21.5 48-48V224c0-26.5-21.5-48-48-48H480zm0-112v80 16h16 80c35.3 0 64 28.7 64 64V448c0 35.3-28.7 64-64 64H416 320c-35.3 0-64-28.7-64-64V224 64c0-35.3 28.7-64 64-64h96c35.3 0 64 28.7 64 64zM328 384V352c0-13.3 10.7-24 24-24h32c13.3 0 24 10.7 24 24v32c0 13.3-10.7 24-24 24H352c-13.3 0-24-10.7-24-24zm24 8h32c4.4 0 8-3.6 8-8V352c0-4.4-3.6-8-8-8H352c-4.4 0-8 3.6-8 8v32c0 4.4 3.6 8 8 8zm0-320h32c13.3 0 24 10.7 24 24v32c0 13.3-10.7 24-24 24H352c-13.3 0-24-10.7-24-24V96c0-13.3 10.7-24 24-24zm-8 24v32c0 4.4 3.6 8 8 8h32c4.4 0 8-3.6 8-8V96c0-4.4-3.6-8-8-8H352c-4.4 0-8 3.6-8 8zM328 256V224c0-13.3 10.7-24 24-24h32c13.3 0 24 10.7 24 24v32c0 13.3-10.7 24-24 24H352c-13.3 0-24-10.7-24-24zm24 8h32c4.4 0 8-3.6 8-8V224c0-4.4-3.6-8-8-8H352c-4.4 0-8 3.6-8 8v32c0 4.4 3.6 8 8 8zM512 440c-13.3 0-24-10.7-24-24V384c0-13.3 10.7-24 24-24h32c13.3 0 24 10.7 24 24v32c0 13.3-10.7 24-24 24H512zm-8-24c0 4.4 3.6 8 8 8h32c4.4 0 8-3.6 8-8V384c0-4.4-3.6-8-8-8H512c-4.4 0-8 3.6-8 8v32zM488 288V256c0-13.3 10.7-24 24-24h32c13.3 0 24 10.7 24 24v32c0 13.3-10.7 24-24 24H512c-13.3 0-24-10.7-24-24zm24 8h32c4.4 0 8-3.6 8-8V256c0-4.4-3.6-8-8-8H512c-4.4 0-8 3.6-8 8v32c0 4.4 3.6 8 8 8zM96 344c-13.3 0-24-10.7-24-24V288c0-13.3 10.7-24 24-24h32c13.3 0 24 10.7 24 24v32c0 13.3-10.7 24-24 24H96zm-8-24c0 4.4 3.6 8 8 8h32c4.4 0 8-3.6 8-8V288c0-4.4-3.6-8-8-8H96c-4.4 0-8 3.6-8 8v32zM72 192V160c0-13.3 10.7-24 24-24h32c13.3 0 24 10.7 24 24v32c0 13.3-10.7 24-24 24H96c-13.3 0-24-10.7-24-24zm24 8h32c4.4 0 8-3.6 8-8V160c0-4.4-3.6-8-8-8H96c-4.4 0-8 3.6-8 8v32c0 4.4 3.6 8 8 8z"/></svg>