<svg xmlns="http://www.w3.org/2000/svg" viewBox="0 0 512 512"><!--! Font Awesome Pro 6.4.0 by @fontawesome - https://fontawesome.com License - https://fontawesome.com/license (Commercial License) Copyright 2023 Fonticons, Inc. --><path d="M16 192V416c0 26.5 21.5 48 48 48H448c26.5 0 48-21.5 48-48V192H16zm339.3-16H496V96c0-16.5-8.3-31-21-39.7L355.3 176zm-22.6 0l5.7-5.7 121-121c-3.6-.9-7.4-1.3-11.3-1.3H331.3l-5.7 5.7L203.3 176H332.7zm-152 0l5.7-5.7L308.7 48H179.3l-5.7 5.7L51.3 176H180.7zm-152 0l5.7-5.7L156.7 48H64C37.5 48 16 69.5 16 96v80H28.7zM512 96v80 8 8V416c0 35.3-28.7 64-64 64H64c-35.3 0-64-28.7-64-64V192v-8-8V96C0 60.7 28.7 32 64 32H448c35.3 0 64 28.7 64 64z"/></svg>