<svg xmlns="http://www.w3.org/2000/svg" viewBox="0 0 512 512"><!--! Font Awesome Pro 6.4.0 by @fontawesome - https://fontawesome.com License - https://fontawesome.com/license (Commercial License) Copyright 2023 Fonticons, Inc. --><path d="M496 176V416c0 26.5-21.5 48-48 48H64c-26.5 0-48-21.5-48-48V176H496zm0-16H371.3L475 56.3C487.7 65 496 79.5 496 96v64zm-276.7 0L325.7 53.7l5.7-5.7H448c3.9 0 7.7 .5 11.3 1.3L348.7 160H219.3zm-22.6 0H67.3L173.7 53.7l5.7-5.7H308.7l-112 112zM64 48h92.7L44.7 160H16V96c0-26.5 21.5-48 48-48zM512 160V96c0-35.3-28.7-64-64-64H64C28.7 32 0 60.7 0 96v64 8 8V416c0 35.3 28.7 64 64 64H448c35.3 0 64-28.7 64-64V176v-8-8zM204.2 225.2c-2.5-1.5-5.6-1.6-8.1-.2s-4.1 4.1-4.1 7V408c0 2.9 1.6 5.6 4.1 7s5.6 1.4 8.1-.2l144-88c2.4-1.5 3.8-4 3.8-6.8s-1.4-5.4-3.8-6.8l-144-88zM328.7 320L208 393.7V246.3L328.7 320z"/></svg>