<svg xmlns="http://www.w3.org/2000/svg" viewBox="0 0 384 512"><!--! Font Awesome Pro 6.4.0 by @fontawesome - https://fontawesome.com License - https://fontawesome.com/license (Commercial License) Copyright 2023 Fonticons, Inc. --><path d="M192 0c-37.1 0-67.6 28-71.6 64H112C91.1 64 73.3 77.4 66.7 96H64C28.7 96 0 124.7 0 160V448c0 35.3 28.7 64 64 64H320c35.3 0 64-28.7 64-64V160c0-35.3-28.7-64-64-64h-2.7c-6.6-18.6-24.4-32-45.3-32h-8.4c-4-36-34.5-64-71.6-64zM16 160c0-26.5 21.5-48 48-48v16c0 17.7 14.3 32 32 32H288c17.7 0 32-14.3 32-32V112c26.5 0 48 21.5 48 48V448c0 26.5-21.5 48-48 48H64c-26.5 0-48-21.5-48-48V160zM136 72c0-30.9 25.1-56 56-56s56 25.1 56 56c0 4.4 3.6 8 8 8h16c17.7 0 32 14.3 32 32v16c0 8.8-7.2 16-16 16H96c-8.8 0-16-7.2-16-16V112c0-17.7 14.3-32 32-32h16c4.4 0 8-3.6 8-8zm56 24a16 16 0 1 0 0-32 16 16 0 1 0 0 32zM168 232c0-4.4 3.6-8 8-8h32c4.4 0 8 3.6 8 8v56c0 4.4 3.6 8 8 8h56c4.4 0 8 3.6 8 8v32c0 4.4-3.6 8-8 8H224c-4.4 0-8 3.6-8 8v56c0 4.4-3.6 8-8 8H176c-4.4 0-8-3.6-8-8V352c0-4.4-3.6-8-8-8H104c-4.4 0-8-3.6-8-8V304c0-4.4 3.6-8 8-8h56c4.4 0 8-3.6 8-8V232zm8-24c-13.3 0-24 10.7-24 24v48H104c-13.3 0-24 10.7-24 24v32c0 13.3 10.7 24 24 24h48v48c0 13.3 10.7 24 24 24h32c13.3 0 24-10.7 24-24V360h48c13.3 0 24-10.7 24-24V304c0-13.3-10.7-24-24-24H232V232c0-13.3-10.7-24-24-24H176z"/></svg>