<svg xmlns="http://www.w3.org/2000/svg" viewBox="0 0 640 512"><!--! Font Awesome Pro 6.4.0 by @fontawesome - https://fontawesome.com License - https://fontawesome.com/license (Commercial License) Copyright 2023 Fonticons, Inc. --><path d="M522.7 220.8c3.4-8.9 5.3-18.6 5.3-28.8c0-44.2-35.8-80-80-80c-16.5 0-31.7 5-44.4 13.5c-3.7 2.5-8.2 3.3-12.5 2.3s-8-3.8-10.2-7.6C355.9 77 309.3 48 256 48c-79.5 0-144 64.5-144 144c0 2.5 .1 4.9 .2 7.3c.4 7.1-4 13.5-10.7 15.9C51.7 232.7 16 280.2 16 336c0 70.7 57.3 128 128 128H512c61.9 0 112-50.1 112-112c0-54.2-38.5-99.4-89.6-109.8c-4.6-.9-8.6-3.9-10.9-8s-2.6-9.1-.9-13.4zM256 32c53.6 0 101 26.3 130 66.7c3.1 4.3 6 8.8 8.7 13.4c3.5-2.4 7.2-4.5 11-6.4C418.5 99.5 432.8 96 448 96c53 0 96 43 96 96c0 6.6-.7 13-1.9 19.2c-1.1 5.3-2.6 10.5-4.5 15.4c5.3 1.1 10.5 2.5 15.5 4.2C603.6 247.9 640 295.7 640 352c0 70.7-57.3 128-128 128H144C64.5 480 0 415.5 0 336c0-62.8 40.2-116.2 96.2-135.9c-.1-2.7-.2-5.4-.2-8.1c0-88.4 71.6-160 160-160zM168 224c0-17.7 14.3-32 32-32h16c17.7 0 32 14.3 32 32v32c0 17.7-14.3 32-32 32H200c-17.7 0-32-14.3-32-32V224zm32-16c-8.8 0-16 7.2-16 16v32c0 8.8 7.2 16 16 16h16c8.8 0 16-7.2 16-16V224c0-8.8-7.2-16-16-16H200zm96-8c0-4.4 3.6-8 8-8h16c4.4 0 8 3.6 8 8v80c0 4.4-3.6 8-8 8s-8-3.6-8-8V208h-8c-4.4 0-8-3.6-8-8zm128-8h16c17.7 0 32 14.3 32 32v32c0 17.7-14.3 32-32 32H424c-17.7 0-32-14.3-32-32V224c0-17.7 14.3-32 32-32zm-16 32v32c0 8.8 7.2 16 16 16h16c8.8 0 16-7.2 16-16V224c0-8.8-7.2-16-16-16H424c-8.8 0-16 7.2-16 16zM184 328c0-4.4 3.6-8 8-8h16c4.4 0 8 3.6 8 8v80c0 4.4-3.6 8-8 8s-8-3.6-8-8V336h-8c-4.4 0-8-3.6-8-8zm224 0c0-4.4 3.6-8 8-8h16c4.4 0 8 3.6 8 8v80c0 4.4-3.6 8-8 8s-8-3.6-8-8V336h-8c-4.4 0-8-3.6-8-8zm-96-8h16c17.7 0 32 14.3 32 32v32c0 17.7-14.3 32-32 32H312c-17.7 0-32-14.3-32-32V352c0-17.7 14.3-32 32-32zm-16 32v32c0 8.8 7.2 16 16 16h16c8.8 0 16-7.2 16-16V352c0-8.8-7.2-16-16-16H312c-8.8 0-16 7.2-16 16z"/></svg>