<svg xmlns="http://www.w3.org/2000/svg" viewBox="0 0 448 512"><!--! Font Awesome Pro 6.4.0 by @fontawesome - https://fontawesome.com License - https://fontawesome.com/license (Commercial License) Copyright 2023 Fonticons, Inc. --><path d="M80 112a48 48 0 1 0 0-96 48 48 0 1 0 0 96zm64-48c0 32.6-24.4 59.6-56 63.5v169c18.4-29.2 50.9-48.5 88-48.5h96c48.6 0 88-39.4 88-88V127.5c-31.6-3.9-56-30.9-56-63.5c0-35.3 28.7-64 64-64s64 28.7 64 64c0 32.6-24.4 59.6-56 63.5V160c0 57.4-46.6 104-104 104H176c-48.6 0-88 39.4-88 88v16 16.5c31.6 3.9 56 30.9 56 63.5c0 35.3-28.7 64-64 64s-64-28.7-64-64c0-32.6 24.4-59.6 56-63.5V368 352 127.5C40.4 123.6 16 96.6 16 64C16 28.7 44.7 0 80 0s64 28.7 64 64zm272 0a48 48 0 1 0 -96 0 48 48 0 1 0 96 0zM80 496a48 48 0 1 0 0-96 48 48 0 1 0 0 96z"/></svg>