<svg xmlns="http://www.w3.org/2000/svg" viewBox="0 0 512 512"><!--! Font Awesome Pro 6.4.0 by @fontawesome - https://fontawesome.com License - https://fontawesome.com/license (Commercial License) Copyright 2023 Fonticons, Inc. --><path d="M194.1 10.6c-3 3.3-2.7 8.3 .5 11.3L267.3 88H176C118.6 88 72 134.6 72 192V384.5c-31.6 3.9-56 30.9-56 63.5c0 35.3 28.7 64 64 64s64-28.7 64-64c0-32.6-24.4-59.6-56-63.5V192c0-48.6 39.4-88 88-88h91.3l-72.7 66.1c-3.3 3-3.5 8-.5 11.3s8 3.5 11.3 .5l88-80c1.7-1.5 2.6-3.7 2.6-5.9s-1-4.4-2.6-5.9l-88-80c-3.3-3-8.3-2.7-11.3 .5zM80 400a48 48 0 1 1 0 96 48 48 0 1 1 0-96zM317.9 501.4c3-3.3 2.7-8.3-.5-11.3L244.7 424H336c57.4 0 104-46.6 104-104V127.5c31.6-3.9 56-30.9 56-63.5c0-35.3-28.7-64-64-64s-64 28.7-64 64c0 32.6 24.4 59.6 56 63.5V320c0 48.6-39.4 88-88 88H244.7l72.7-66.1c3.3-3 3.5-8 .5-11.3s-8-3.5-11.3-.5l-88 80c-1.7 1.5-2.6 3.7-2.6 5.9s1 4.4 2.6 5.9l88 80c3.3 3 8.3 2.7 11.3-.5zM432 112a48 48 0 1 1 0-96 48 48 0 1 1 0 96z"/></svg>