<svg xmlns="http://www.w3.org/2000/svg" viewBox="0 0 448 512"><!--! Font Awesome Pro 6.4.0 by @fontawesome - https://fontawesome.com License - https://fontawesome.com/license (Commercial License) Copyright 2023 Fonticons, Inc. --><path d="M64 112a48 48 0 1 0 0-96 48 48 0 1 0 0 96zm64-48c0 32.6-24.4 59.6-56 63.5V192c0 30.9 25.1 56 56 56H320c30.9 0 56-25.1 56-56V127.5c-31.6-3.9-56-30.9-56-63.5c0-35.3 28.7-64 64-64s64 28.7 64 64c0 32.6-24.4 59.6-56 63.5V192c0 39.8-32.2 72-72 72H232V384h-8-8V264H128c-39.8 0-72-32.2-72-72V127.5C24.4 123.6 0 96.6 0 64C0 28.7 28.7 0 64 0s64 28.7 64 64zm96 448a64 64 0 1 1 0-128 64 64 0 1 1 0 128zM384 112a48 48 0 1 0 0-96 48 48 0 1 0 0 96zM272 448a48 48 0 1 0 -96 0 48 48 0 1 0 96 0z"/></svg>