<svg xmlns="http://www.w3.org/2000/svg" viewBox="0 0 384 512"><!--! Font Awesome Pro 6.4.0 by @fontawesome - https://fontawesome.com License - https://fontawesome.com/license (Commercial License) Copyright 2023 Fonticons, Inc. --><path d="M272 256c0-68.5-15.6-129.7-40.1-173.2C207.1 38.8 175.4 16 144 16s-63.1 22.8-87.9 66.8C31.6 126.3 16 187.5 16 256s15.6 129.7 40.1 173.2c24.8 44 56.5 66.8 87.9 66.8s63.1-22.8 87.9-66.8C256.4 385.7 272 324.5 272 256zM144 512C64.5 512 0 397.4 0 256S64.5 0 144 0h16 96c70.7 0 128 114.6 128 256s-57.3 256-128 256H160 144zM279.3 344H360c4.7-24.8 7.5-51.8 8-80h-80c-.5 28-3.5 54.9-8.7 80zm-3.6 16c-5.9 23.4-13.6 44.9-23 64H335c8.7-18.6 16-40.2 21.6-64h-81zM194.2 496H256c24 0 49.5-18.2 70.8-56H244.1c-14.1 24.3-31.1 43.6-49.9 56zM360 168H279.3c5.2 25.1 8.2 52 8.7 80h80c-.4-28.2-3.2-55.2-8-80zm-84.3-16h81c-5.5-23.8-12.8-45.4-21.6-64H252.7c9.3 19.1 17.1 40.6 23 64zM256 16H194.2C213 28.4 230 47.7 244.1 72h82.7C305.5 34.2 280 16 256 16zM64 256c0 49.9 9.3 94.8 23.9 126.8c14.9 32.7 34 49.2 52.1 49.2s37.2-16.5 52.1-49.2c14.6-32 23.9-76.9 23.9-126.8s-9.3-94.8-23.9-126.8C177.2 96.5 158.1 80 140 80s-37.2 16.5-52.1 49.2C73.3 161.2 64 206.1 64 256zM140 64c28.2 0 51.2 24.7 66.7 58.6C222.5 157.1 232 204.3 232 256s-9.5 98.9-25.3 133.4C191.2 423.3 168.2 448 140 448s-51.2-24.7-66.7-58.6C57.5 354.9 48 307.7 48 256s9.5-98.9 25.3-133.4C88.8 88.7 111.8 64 140 64z"/></svg>