<svg xmlns="http://www.w3.org/2000/svg" viewBox="0 0 512 512"><!--! Font Awesome Pro 6.4.0 by @fontawesome - https://fontawesome.com License - https://fontawesome.com/license (Commercial License) Copyright 2023 Fonticons, Inc. --><path d="M0 80C0 35.8 35.8 0 80 0s80 35.8 80 80v64H352V80c0-44.2 35.8-80 80-80s80 35.8 80 80s-35.8 80-80 80H368V352h64c44.2 0 80 35.8 80 80s-35.8 80-80 80s-80-35.8-80-80V368H160v64c0 44.2-35.8 80-80 80s-80-35.8-80-80s35.8-80 80-80h64V160H80C35.8 160 0 124.2 0 80zm144 64V80c0-35.3-28.7-64-64-64S16 44.7 16 80s28.7 64 64 64h64zm16 208H352V160H160V352zm-16 16H80c-35.3 0-64 28.7-64 64s28.7 64 64 64s64-28.7 64-64V368zm224 0v64c0 35.3 28.7 64 64 64s64-28.7 64-64s-28.7-64-64-64H368zm0-224h64c35.3 0 64-28.7 64-64s-28.7-64-64-64s-64 28.7-64 64v64z"/></svg>