<svg xmlns="http://www.w3.org/2000/svg" viewBox="0 0 512 512"><!--! Font Awesome Pro 6.4.0 by @fontawesome - https://fontawesome.com License - https://fontawesome.com/license (Commercial License) Copyright 2023 Fonticons, Inc. --><path d="M157.3 415c-5-1.8-10.6-1-14.9 2.1c-11 8-29.4 19.3-51.2 28.8C68.3 456 41.6 464 16 464l.1-.1 0 0 0 0 .3-.3 .1-.1c.4-.4 .9-.9 1.5-1.6c1.3-1.4 3.2-3.6 5.4-6.3l-12.2-10 12.2 10C28 450 34 442 40 432c10.7-17.9 21.4-42.1 23.6-69.9c.3-4.3-1.1-8.6-3.9-11.8C31.9 318.8 16 280.7 16 240C16 136.9 120.2 48 256 48s240 88.9 240 192s-104.2 192-240 192c-35.2 0-68.6-6.1-98.7-17zM4.7 452.7l0 0 0 0 0 0c-4.6 4.6-5.9 11.4-3.4 17.4c2.5 6 8.3 9.9 14.8 9.9c28.7 0 57.6-8.9 81.6-19.3c22.9-10 42.4-21.9 54.3-30.6c31.8 11.5 67 17.9 104.1 17.9c141.4 0 256-93.1 256-208S397.4 32 256 32S0 125.1 0 240c0 45.1 17.7 86.8 47.7 120.9c-1.9 24.5-11.4 46.3-21.4 62.9c-5.5 9.2-11.1 16.6-15.2 21.6c-2.1 2.5-3.7 4.4-4.9 5.7c-.6 .6-1 1.1-1.3 1.4l-.3 .3 0 0zM112 214.9c0-4.8 2.3-8.2 6.7-10.8c4.7-2.8 11.1-4.2 17.1-4.1c7.3 .1 18.1 1.7 25.3 3.6c4.3 1.1 8.7-1.4 9.8-5.7s-1.4-8.7-5.7-9.8c-8.3-2.2-20.4-4-29.1-4.2c-8.2-.1-17.7 1.7-25.5 6.3C102.5 195.1 96 203.2 96 215c.1 11 6.4 18.1 13.9 22.6c6.7 4.1 15.3 6.6 22.7 8.9l1 .3c8.2 2.5 15.1 4.7 20 7.7c4.4 2.8 6.3 5.7 6.4 9.9c.1 6.5-2 9.6-4.2 11.3c-2.6 2.1-6.9 3.4-13.1 3.6c-12.3 .4-27.3-3.8-36.5-6.9c-4.2-1.4-8.7 .9-10.1 5.1s.9 8.7 5.1 10.1c9.4 3.1 26.8 8.2 42.1 7.7c7.7-.2 16-1.9 22.4-6.9c6.9-5.4 10.4-13.6 10.3-24.1c-.1-11.2-6.3-18.5-13.9-23.3c-7-4.4-16.1-7.2-23.7-9.5l-.2 0c-8.3-2.5-15.1-4.6-20.1-7.6c-4.5-2.7-6.1-5.3-6.1-9zm240 0c0-4.8 2.3-8.2 6.7-10.8c4.7-2.8 11.1-4.2 17.1-4.1c7 .1 14.6 1.6 22.1 3.6c4.3 1.1 8.7-1.4 9.8-5.7s-1.4-8.7-5.7-9.8c-7.9-2.1-16.9-4-25.9-4.2c-8.2-.1-17.7 1.7-25.5 6.3c-8.1 4.8-14.6 12.9-14.6 24.7c.1 11 6.4 18.1 13.9 22.6c6.7 4.1 15.3 6.6 22.7 8.9l1 .3c8.2 2.5 15.1 4.7 20 7.7c4.4 2.8 6.3 5.7 6.4 9.9c.1 5.5-2.4 9.1-6.5 11.6c-4.4 2.8-10.8 4.2-17.3 4c-8.3-.3-16-2.9-25-6c-1.5-.5-3.1-1-4.7-1.6c-4.2-1.4-8.7 .9-10.1 5.1s.9 8.7 5.1 10.1c1.4 .5 2.8 .9 4.2 1.4l0 0c8.9 3.1 19.2 6.6 30.1 6.9c8.7 .3 18.4-1.5 26.2-6.4c8.2-5.1 14.2-13.6 14-25.4c-.1-11.2-6.3-18.5-13.9-23.3c-7-4.4-16.1-7.2-23.7-9.5l-.2 0c-8.3-2.5-15.1-4.6-20.1-7.6c-4.5-2.7-6.1-5.3-6.1-9zM205.5 184.4c-3.3 1.1-5.5 4.1-5.5 7.6v96c0 4.4 3.6 8 8 8s8-3.6 8-8V216l33.6 44.8c1.5 2 3.9 3.2 6.4 3.2s4.9-1.2 6.4-3.2L296 216v72c0 4.4 3.6 8 8 8s8-3.6 8-8V192c0-3.4-2.2-6.5-5.5-7.6s-6.9 0-8.9 2.8L256 242.7l-41.6-55.5c-2.1-2.8-5.7-3.9-8.9-2.8z"/></svg>