<svg xmlns="http://www.w3.org/2000/svg" viewBox="0 0 448 512"><!--! Font Awesome Pro 6.4.0 by @fontawesome - https://fontawesome.com License - https://fontawesome.com/license (Commercial License) Copyright 2023 Fonticons, Inc. --><path d="M384 16c26.5 0 48 21.5 48 48V368c0 26.5-21.5 48-48 48H64c-26.5 0-48-21.5-48-48V64c0-26.5 21.5-48 48-48H384zM64 0C28.7 0 0 28.7 0 64V368c0 23.7 12.9 44.4 32 55.4V480c0 17.7 14.3 32 32 32H384c17.7 0 32-14.3 32-32V423.4c19.1-11.1 32-31.7 32-55.4V64c0-35.3-28.7-64-64-64H64zM400 430v50c0 8.8-7.2 16-16 16H64c-8.8 0-16-7.2-16-16V430c5.1 1.3 10.5 2 16 2H384c5.5 0 10.9-.7 16-2zM352 80c8.8 0 16 7.2 16 16V240c0 8.8-7.2 16-16 16H96c-8.8 0-16-7.2-16-16V96c0-8.8 7.2-16 16-16H352zM96 64C78.3 64 64 78.3 64 96V240c0 17.7 14.3 32 32 32H352c17.7 0 32-14.3 32-32V96c0-17.7-14.3-32-32-32H96zM224 344c0 4.4 3.6 8 8 8H376c4.4 0 8-3.6 8-8s-3.6-8-8-8H232c-4.4 0-8 3.6-8 8zM80 368a16 16 0 1 0 0-32 16 16 0 1 0 0 32z"/></svg>