<svg xmlns="http://www.w3.org/2000/svg" viewBox="0 0 640 512"><!--! Font Awesome Pro 6.4.0 by @fontawesome - https://fontawesome.com License - https://fontawesome.com/license (Commercial License) Copyright 2023 Fonticons, Inc. --><path d="M64 48C37.5 48 16 69.5 16 96V320c0 26.5 21.5 48 48 48H178.2 184h80 5.8H384c26.5 0 48-21.5 48-48V96c0-26.5-21.5-48-48-48H64zM172.9 384H64c-35.3 0-64-28.7-64-64V96C0 60.7 28.7 32 64 32H384c35.3 0 64 28.7 64 64V320c0 35.3-28.7 64-64 64H275.1l26.7 80H376c4.4 0 8 3.6 8 8s-3.6 8-8 8H307.1 296 152 140.9 72c-4.4 0-8-3.6-8-8s3.6-8 8-8h74.2l26.7-80zm16.9 0l-26.7 80H284.9l-26.7-80H189.8zM592 48H528c-17.7 0-32 14.3-32 32V432c0 17.7 14.3 32 32 32h64c17.7 0 32-14.3 32-32V80c0-17.7-14.3-32-32-32zM528 32h64c26.5 0 48 21.5 48 48V432c0 26.5-21.5 48-48 48H528c-26.5 0-48-21.5-48-48V80c0-26.5 21.5-48 48-48zm-8 104c0-4.4 3.6-8 8-8h64c4.4 0 8 3.6 8 8s-3.6 8-8 8H528c-4.4 0-8-3.6-8-8zm8 56h64c4.4 0 8 3.6 8 8s-3.6 8-8 8H528c-4.4 0-8-3.6-8-8s3.6-8 8-8zm0 144a32 32 0 1 1 64 0 32 32 0 1 1 -64 0zm32 16a16 16 0 1 0 0-32 16 16 0 1 0 0 32zM72 96c-4.4 0-8 3.6-8 8V312c0 4.4 3.6 8 8 8H376c4.4 0 8-3.6 8-8V104c0-4.4-3.6-8-8-8H72zm-24 8c0-13.3 10.7-24 24-24H376c13.3 0 24 10.7 24 24V312c0 13.3-10.7 24-24 24H72c-13.3 0-24-10.7-24-24V104z"/></svg>