<svg xmlns="http://www.w3.org/2000/svg" viewBox="0 0 640 512"><!--! Font Awesome Pro 6.4.0 by @fontawesome - https://fontawesome.com License - https://fontawesome.com/license (Commercial License) Copyright 2023 Fonticons, Inc. --><path d="M8 32c-4.4 0-8 3.6-8 8s3.6 8 8 8H32V464H8c-4.4 0-8 3.6-8 8s3.6 8 8 8H40 600h32c4.4 0 8-3.6 8-8s-3.6-8-8-8H608V48h24c4.4 0 8-3.6 8-8s-3.6-8-8-8H600 40 8zM48 464V48H592V464H48zm88-360c0-4.4-3.6-8-8-8s-8 3.6-8 8V408c0 4.4 3.6 8 8 8s8-3.6 8-8V104zm96 0c0-4.4-3.6-8-8-8s-8 3.6-8 8V408c0 4.4 3.6 8 8 8s8-3.6 8-8V104zm96 0c0-4.4-3.6-8-8-8s-8 3.6-8 8V408c0 4.4 3.6 8 8 8s8-3.6 8-8V104zm96 0c0-4.4-3.6-8-8-8s-8 3.6-8 8V408c0 4.4 3.6 8 8 8s8-3.6 8-8V104zm96 0c0-4.4-3.6-8-8-8s-8 3.6-8 8V408c0 4.4 3.6 8 8 8s8-3.6 8-8V104z"/></svg>