<svg xmlns="http://www.w3.org/2000/svg" viewBox="0 0 640 512"><!--! Font Awesome Pro 6.4.0 by @fontawesome - https://fontawesome.com License - https://fontawesome.com/license (Commercial License) Copyright 2023 Fonticons, Inc. --><path d="M304 16c17.7 0 32 14.3 32 32V240c0 17.7-14.3 32-32 32H112c-17.7 0-32-14.3-32-32V48c0-17.7 14.3-32 32-32H304zM112 0C85.5 0 64 21.5 64 48V240c0 26.5 21.5 48 48 48H304c26.5 0 48-21.5 48-48V48c0-26.5-21.5-48-48-48H112zM528 80c17.7 0 32 14.3 32 32V240c0 17.7-14.3 32-32 32H432c-17.7 0-32-14.3-32-32V112c0-17.7 14.3-32 32-32h96zM432 64c-26.5 0-48 21.5-48 48V240c0 26.5 21.5 48 48 48h96c26.5 0 48-21.5 48-48V112c0-26.5-21.5-48-48-48H432zM544 336c44.2 0 80 35.8 80 80s-35.8 80-80 80H96c-44.2 0-80-35.8-80-80s35.8-80 80-80H544zM96 320c-53 0-96 43-96 96s43 96 96 96H544c53 0 96-43 96-96s-43-96-96-96H96zm16 64a32 32 0 1 1 0 64 32 32 0 1 1 0-64zm0 80a48 48 0 1 0 0-96 48 48 0 1 0 0 96zm176-48a32 32 0 1 1 64 0 32 32 0 1 1 -64 0zm80 0a48 48 0 1 0 -96 0 48 48 0 1 0 96 0zm160-32a32 32 0 1 1 0 64 32 32 0 1 1 0-64zm0 80a48 48 0 1 0 0-96 48 48 0 1 0 0 96z"/></svg>