<svg xmlns="http://www.w3.org/2000/svg" viewBox="0 0 512 512"><!--! Font Awesome Pro 6.4.0 by @fontawesome - https://fontawesome.com License - https://fontawesome.com/license (Commercial License) Copyright 2023 Fonticons, Inc. --><path d="M104 16c-48.6 0-88 39.4-88 88v8H122.7c6.4 0 12.5-2.5 17-7l6.6-6.6c3.1-3.1 8.2-3.1 11.3 0s3.1 8.2 0 11.3l-6.6 6.6c-7.5 7.5-17.7 11.7-28.3 11.7H16v12.1c0 14.4 7.7 27.6 20.2 34.7l86.7 49.5C145.5 204.3 175.3 192 208 192V136c0-4.4 3.6-8 8-8s8 3.6 8 8v56h64V136c0-4.4 3.6-8 8-8s8 3.6 8 8v56c32.7 0 62.5 12.3 85.1 32.4l86.7-49.5c12.5-7.1 20.2-20.4 20.2-34.7V128H389.3c-10.6 0-20.8-4.2-28.3-11.7l-6.6-6.6c-3.1-3.1-3.1-8.2 0-11.3s8.2-3.1 11.3 0l6.6 6.6c4.5 4.5 10.6 7 17 7H496v-8c0-48.6-39.4-88-88-88H356.9l55.2 33.1c3.8 2.3 5 7.2 2.7 11s-7.2 5-11 2.7l-80-48c-3.1-1.9-4.6-5.5-3.6-9s4.1-5.9 7.7-5.9h80c57.4 0 104 46.6 104 104v16 20.1c0 20.1-10.8 38.7-28.2 48.6l-83 47.4C413.5 250.9 423 268.6 428 288h28.9c8.7 0 17.3-2 25-5.9l18.5-9.2c4-2 8.8-.4 10.7 3.6s.4 8.8-3.6 10.7l-18.5 9.2c-10 5-21 7.6-32.2 7.6H431c.7 5.2 1 10.6 1 16v13.3l12 5c11.2 4.7 21 12 28.5 21.5L494.2 387c2.8 3.4 2.2 8.5-1.2 11.2s-8.5 2.2-11.2-1.2L460 369.8c-5.9-7.3-13.5-13.1-22.2-16.7l-15.1-6.3-44 51.4 35.4 13.5c9.5 3.6 18.1 9.2 25.3 16.4l22.3 22.3c3.1 3.1 3.1 8.2 0 11.3s-8.2 3.1-11.3 0L428 439.3c-5.6-5.6-12.3-9.9-19.7-12.7l-40.7-15.5-22.4 26.1L372 458.5c7.6 6.1 12 15.3 12 25V504c0 4.4-3.6 8-8 8s-8-3.6-8-8V483.5c0-4.9-2.2-9.5-6-12.5l-28.8-23H178.8L150 471c-3.8 3-6 7.6-6 12.5V504c0 4.4-3.6 8-8 8s-8-3.6-8-8V483.5c0-9.7 4.4-18.9 12-25l26.7-21.4-22.4-26.1-40.7 15.5c-7.4 2.8-14.1 7.2-19.7 12.7L61.7 461.7c-3.1 3.1-8.2 3.1-11.3 0s-3.1-8.2 0-11.3L72.7 428c7.2-7.2 15.8-12.8 25.3-16.4l35.4-13.5-44-51.4-15.1 6.3c-8.7 3.6-16.3 9.4-22.2 16.7L30.2 397c-2.8 3.4-7.8 4-11.2 1.2s-4-7.8-1.2-11.2l21.8-27.2c7.6-9.4 17.4-16.8 28.5-21.5l12-5V320c0-5.4 .3-10.8 1-16H55.1c-11.2 0-22.2-2.6-32.2-7.6L4.4 287.2c-4-2-5.6-6.8-3.6-10.7s6.8-5.6 10.7-3.6l18.5 9.2c7.8 3.9 16.4 5.9 25 5.9H84c5-19.4 14.5-37.1 27.2-51.8l-83-47.4C10.8 178.8 0 160.2 0 140.1V120 104C0 46.6 46.6 0 104 0h80c3.6 0 6.7 2.4 7.7 5.9s-.5 7.1-3.6 9l-80 48c-3.8 2.3-8.7 1-11-2.7s-1-8.7 2.7-11L155.1 16H104zM296 208H216h-8c-61.9 0-112 50.1-112 112v10.1L183.4 432H328.6L416 330.1V320c0-61.9-50.1-112-112-112h-8z"/></svg>