<svg xmlns="http://www.w3.org/2000/svg" viewBox="0 0 512 512"><!--! Font Awesome Pro 6.4.0 by @fontawesome - https://fontawesome.com License - https://fontawesome.com/license (Commercial License) Copyright 2023 Fonticons, Inc. --><path d="M496 376v80c0 22.1-17.9 40-40 40H56c-22.1 0-40-17.9-40-40V376H496zm0-16H16V280c0-22.1 17.9-40 40-40H456c22.1 0 40 17.9 40 40v80zm16 0V280c0-30.9-25.1-56-56-56H56c-30.9 0-56 25.1-56 56v80 8 8 80c0 30.9 25.1 56 56 56H456c30.9 0 56-25.1 56-56V376v-8-8zM96 304a16 16 0 1 0 -32 0 16 16 0 1 0 32 0zm336 16a16 16 0 1 0 0-32 16 16 0 1 0 0 32zM96 432a16 16 0 1 0 -32 0 16 16 0 1 0 32 0zm336 16a16 16 0 1 0 0-32 16 16 0 1 0 0 32z"/></svg>