<svg xmlns="http://www.w3.org/2000/svg" viewBox="0 0 512 512"><!--! Font Awesome Pro 6.4.0 by @fontawesome - https://fontawesome.com License - https://fontawesome.com/license (Commercial License) Copyright 2023 Fonticons, Inc. --><path d="M112 8c0-4.4-3.6-8-8-8s-8 3.6-8 8V96H8c-4.4 0-8 3.6-8 8s3.6 8 8 8H96V376c0 22.1 17.9 40 40 40H352V400H136c-13.3 0-24-10.7-24-24V8zM400 504c0 4.4 3.6 8 8 8s8-3.6 8-8V416h88c4.4 0 8-3.6 8-8s-3.6-8-8-8H416l0-264c0-22.1-17.9-40-40-40L160 96v16l216 0c13.3 0 24 10.7 24 24l0 368z"/></svg>