<svg xmlns="http://www.w3.org/2000/svg" viewBox="0 0 384 512"><!--! Font Awesome Pro 6.4.0 by @fontawesome - https://fontawesome.com License - https://fontawesome.com/license (Commercial License) Copyright 2023 Fonticons, Inc. --><path d="M128 32c0-17.7 14.3-32 32-32h64c17.7 0 32 14.3 32 32v96h96c17.7 0 32 14.3 32 32v64c0 17.7-14.3 32-32 32H256V480c0 17.7-14.3 32-32 32H160c-17.7 0-32-14.3-32-32V256H32c-17.7 0-32-14.3-32-32V160c0-17.7 14.3-32 32-32h96V32zm32-16c-8.8 0-16 7.2-16 16V136c0 4.4-3.6 8-8 8H32c-8.8 0-16 7.2-16 16v64c0 8.8 7.2 16 16 16H136c4.4 0 8 3.6 8 8V480c0 8.8 7.2 16 16 16h64c8.8 0 16-7.2 16-16V248c0-4.4 3.6-8 8-8H352c8.8 0 16-7.2 16-16V160c0-8.8-7.2-16-16-16H248c-4.4 0-8-3.6-8-8V32c0-8.8-7.2-16-16-16H160z"/></svg>