<svg xmlns="http://www.w3.org/2000/svg" viewBox="0 0 640 512"><!--! Font Awesome Pro 6.4.0 by @fontawesome - https://fontawesome.com License - https://fontawesome.com/license (Commercial License) Copyright 2023 Fonticons, Inc. --><path d="M352 88c0-48.6 39.4-88 88-88c34.2 0 63.8 19.5 78.4 48H568c39.8 0 72 32.2 72 72L528 148v44c0 85.3-55.6 157.6-132.6 182.6l52 126.3c1.7 4.1-.3 8.8-4.4 10.4s-8.8-.3-10.4-4.4L379.9 379c-14.1 3.3-28.8 5-43.9 5H303.2l48.2 117c1.7 4.1-.3 8.8-4.4 10.4s-8.8-.3-10.4-4.3L285.9 384H137L10.1 415.7c-3.1 .9-6.6-.2-8.6-3c-2.6-3.6-1.8-8.6 1.8-11.2L352 147.9V88zm176 43.5l94.7-23.7C617.1 82.8 594.8 64 568 64H524.7c2.2 7.6 3.3 15.7 3.3 24v43.5zM336 368c97.2 0 176-78.8 176-176V88c0-39.8-32.2-72-72-72s-72 32.2-72 72v64 .1 24c0 88.3-60.1 165.3-145.8 186.7L201 368H336zM46 390.3l172.4-43.1C296.9 327.5 352 257 352 176v-8.3L46 390.3zM440 80a16 16 0 1 1 0 32 16 16 0 1 1 0-32z"/></svg>