<svg xmlns="http://www.w3.org/2000/svg" viewBox="0 0 576 512"><!--! Font Awesome Pro 6.4.0 by @fontawesome - https://fontawesome.com License - https://fontawesome.com/license (Commercial License) Copyright 2023 Fonticons, Inc. --><path d="M264 72a24 24 0 1 1 48 0 24 24 0 1 1 -48 0zm64 0c0-22.1-17.9-40-40-40s-40 17.9-40 40c0 14.4 7.6 27 19 34L209.7 220.6c-9.1 18.2-32.7 23.4-48.6 10.7L72 160c-3.3 4.4-7.4 8-12.2 10.7l91.3 73c23.9 19.1 59.3 11.3 72.9-16l58.1-116.2c-2.7-.4-5.3-1.1-7.9-2c4.3 1.6 8.9 2.4 13.8 2.4c22.1 0 40-17.9 40-40zM16 136a24 24 0 1 1 48 0 24 24 0 1 1 -48 0zm64 0A40 40 0 1 0 0 136a40 40 0 1 0 80 0zm456-24a24 24 0 1 1 0 48 24 24 0 1 1 0-48zm0 64c22.1 0 40-17.9 40-40s-17.9-40-40-40s-40 17.9-40 40c0 9 3 17.3 8 24l-89.1 71.3c-15.9 12.7-39.5 7.5-48.6-10.7L309 106c-4.5 2.8-9.6 4.7-15.1 5.5L352 227.8c13.7 27.3 49.1 35.1 72.9 16l91.3-73c1.4 .8 2.8 1.5 4.3 2.1c-.3-.1-.5-.2-.8-.3L473.8 424.6c-4.2 22.8-24 39.4-47.2 39.4H149.4c-23.2 0-43.1-16.6-47.2-39.4L56.4 172.5c-4.8 2.1-10.1 3.4-15.6 3.5L86.4 427.4c5.5 30.4 32 52.6 63 52.6H426.6c30.9 0 57.4-22.1 63-52.6L535.3 176c.2 0 .5 0 .7 0z"/></svg>