<svg xmlns="http://www.w3.org/2000/svg" viewBox="0 0 448 512"><!--! Font Awesome Pro 6.4.0 by @fontawesome - https://fontawesome.com License - https://fontawesome.com/license (Commercial License) Copyright 2023 Fonticons, Inc. --><path d="M288 48H224c-8.8 0-16 7.2-16 16v64c0 8.8 7.2 16 16 16h64c8.8 0 16-7.2 16-16V64c0-8.8-7.2-16-16-16zM224 32h64c17.7 0 32 14.3 32 32v64c0 17.7-14.3 32-32 32H224c-17.7 0-32-14.3-32-32V64c0-17.7 14.3-32 32-32zM90.7 220.8c-7.7 4.4-10.3 14.2-5.9 21.9l32 55.4c4.4 7.7 14.2 10.3 21.9 5.9l55.4-32c7.7-4.4 10.3-14.2 5.9-21.9l-32-55.4c-4.4-7.7-14.2-10.3-21.9-5.9l-55.4 32zM71 250.7c-8.8-15.3-3.6-34.9 11.7-43.7l55.4-32c15.3-8.8 34.9-3.6 43.7 11.7l32 55.4c8.8 15.3 3.6 34.9-11.7 43.7l-55.4 32c-15.3 8.8-34.9 3.6-43.7-11.7L71 250.7zM352 208H288c-8.8 0-16 7.2-16 16v64c0 8.8 7.2 16 16 16h64c8.8 0 16-7.2 16-16V224c0-8.8-7.2-16-16-16zm-96 16c0-17.7 14.3-32 32-32h64c17.7 0 32 14.3 32 32v64c0 17.7-14.3 32-32 32H288c-17.7 0-32-14.3-32-32V224zm80 160v64c0 8.8 7.2 16 16 16h64c8.8 0 16-7.2 16-16V384c0-8.8-7.2-16-16-16H352c-8.8 0-16 7.2-16 16zm-16 0c0-17.7 14.3-32 32-32h64c17.7 0 32 14.3 32 32v64c0 17.7-14.3 32-32 32H352c-17.7 0-32-14.3-32-32V384zM192 368c-8.8 0-16 7.2-16 16v64c0 8.8 7.2 16 16 16h64c8.8 0 16-7.2 16-16V384c0-8.8-7.2-16-16-16H192zm0-16h64c17.7 0 32 14.3 32 32v64c0 17.7-14.3 32-32 32H192c-17.7 0-32-14.3-32-32V384c0-17.7 14.3-32 32-32zM32 368c-8.8 0-16 7.2-16 16v64c0 8.8 7.2 16 16 16H96c8.8 0 16-7.2 16-16V384c0-8.8-7.2-16-16-16H32zM0 384c0-17.7 14.3-32 32-32H96c17.7 0 32 14.3 32 32v64c0 17.7-14.3 32-32 32H32c-17.7 0-32-14.3-32-32V384z"/></svg>