<svg xmlns="http://www.w3.org/2000/svg" viewBox="0 0 384 512"><!--! Font Awesome Pro 6.4.0 by @fontawesome - https://fontawesome.com License - https://fontawesome.com/license (Commercial License) Copyright 2023 Fonticons, Inc. --><path d="M200 8c0-4.4-3.6-8-8-8s-8 3.6-8 8V128H72 40c-22.1 0-40 17.9-40 40s17.9 40 40 40s40-17.9 40-40V144H192 304v24c0 22.1 17.9 40 40 40s40-17.9 40-40s-17.9-40-40-40H312 200V8zM40 144H64v24c0 13.3-10.7 24-24 24s-24-10.7-24-24s10.7-24 24-24zm280 0h24c13.3 0 24 10.7 24 24s-10.7 24-24 24s-24-10.7-24-24V144zM144 176H128v8V413.9c0 8.2 2.5 16.2 7.2 22.9l50.2 71.7c1.5 2.1 3.9 3.4 6.6 3.4s5.1-1.3 6.6-3.4l50.2-71.7c4.7-6.7 7.2-14.7 7.2-22.9V184v-8H240v8V413.9c0 4.9-1.5 9.7-4.3 13.8L192 490.1l-43.7-62.4c-2.8-4-4.3-8.8-4.3-13.8V184v-8z"/></svg>