<svg xmlns="http://www.w3.org/2000/svg" viewBox="0 0 576 512"><!--! Font Awesome Pro 6.4.0 by @fontawesome - https://fontawesome.com License - https://fontawesome.com/license (Commercial License) Copyright 2023 Fonticons, Inc. --><path d="M240 8c0-4.4-3.6-8-8-8s-8 3.6-8 8V32c0 26.5 21.5 48 48 48h24 8 6.1l-41.5 20.7c-7.7 3.9-12.6 11.8-12.6 20.4c0 12.6 10.2 22.8 22.8 22.8H312h6.5l-11.3 32H112h0H88c-48.6 0-88 39.4-88 88v48c0 4.4 3.6 8 8 8s8-3.6 8-8V264c0-39.8 32.2-72 72-72h24 0H312.9c3.4 0 6.4-2.1 7.5-5.3l15-42.7h.6c4.4 0 8-3.6 8-8s-3.6-8-8-8h-6.2H312 278.8c-3.8 0-6.8-3.1-6.8-6.8c0-2.6 1.5-5 3.8-6.1l51-25.5c12.6-6.3 26.4-9.5 40.4-9.5c24 0 47 9.5 63.9 26.5l49 49c1 11.6 7 21.8 15.8 28.5c-1 13.4-12.2 24-25.9 24H400c-3.6 0-6.8 2.4-7.7 5.9L370 295.7c-1.3 4.8-2 9.8-2 14.7V480c0 8.8-7.2 16-16 16H312c-8.8 0-16-7.2-16-16V352c0-4.4-3.6-8-8-8H263.7c-29.1 0-57.3-9.9-80-28l-2.7-2.2c-2.6-2.1-6.2-2.3-9-.7s-4.4 4.9-3.8 8.2l3.6 21.6c2.2 13-3.5 26-14.4 33.3c-18.2 12.1-26.3 34.8-19.8 55.7l13.4 43.4c3.2 10.3-4.5 20.7-15.3 20.7H97.7c-7 0-13.2-4.6-15.3-11.3L60.2 412.3c-2.5-8-2.4-16.5 .3-24.4l8.8-26.3c1.8-5.5 2.8-11.2 2.8-17v-4.1c0-15.4-7.7-29.9-20.6-38.4c-8.6-5.7-15.2-13.5-19.4-22.5v27.2c3.2 3.2 6.7 6 10.6 8.6c8.4 5.6 13.4 15 13.4 25.1v4.1c0 4.1-.7 8.1-1.9 12l-8.8 26.3c-3.7 11.1-3.8 23-.4 34.2l22.3 72.4C71.3 502.8 83.7 512 97.7 512h37.8c21.5 0 36.9-20.8 30.6-41.4l-13.4-43.4c-4.3-14.1 1.1-29.4 13.4-37.7c16.2-10.8 24.5-30.1 21.3-49.3l-.4-2.3C210 352.3 236.5 360 263.7 360H280V480c0 17.7 14.3 32 32 32h40c17.7 0 32-14.3 32-32V310.4c0-3.6 .5-7.1 1.4-10.5L406.1 224h63.9c20.1 0 36.9-14.1 41-33c2.9 .7 5.9 1 9 1c22.1 0 40-17.9 40-40s-17.9-40-40-40c-16.4 0-30.5 9.9-36.7 24L442.5 95.2c-5.8-5.8-12.2-10.9-19.1-15.2h.6c26.5 0 48-21.5 48-48V8c0-4.4-3.6-8-8-8s-8 3.6-8 8V32c0 17.7-14.3 32-32 32h-8H367.2 339.8c7.6-8.5 12.2-19.7 12.2-32V8c0-4.4-3.6-8-8-8s-8 3.6-8 8V32c0 17.7-14.3 32-32 32h-8H272c-17.7 0-32-14.3-32-32V8zM520 128a24 24 0 1 1 0 48 24 24 0 1 1 0-48zM416 144a16 16 0 1 0 -32 0 16 16 0 1 0 32 0z"/></svg>