<svg xmlns="http://www.w3.org/2000/svg" viewBox="0 0 640 512"><!--! Font Awesome Pro 6.4.0 by @fontawesome - https://fontawesome.com License - https://fontawesome.com/license (Commercial License) Copyright 2023 Fonticons, Inc. --><path d="M512 48V336H624V96c0-26.5-21.5-48-48-48H512zm-16 0H384V192H496V48zM368 48H272V336h96V48zM256 48H144V192H256V48zM128 48H64C37.5 48 16 69.5 16 96V336H128V48zM16 352v64c0 26.5 21.5 48 48 48H312V352H16zM328 464H576c26.5 0 48-21.5 48-48V352H328V464zM0 96C0 60.7 28.7 32 64 32H576c35.3 0 64 28.7 64 64V416c0 35.3-28.7 64-64 64H64c-35.3 0-64-28.7-64-64V96zM256 336V208H144V336H256zM496 208H384V336H496V208z"/></svg>