<svg xmlns="http://www.w3.org/2000/svg" viewBox="0 0 640 512"><!-- Font Awesome Pro 6.0.0-alpha2 by @fontawesome - https://fontawesome.com License - https://fontawesome.com/license (Commercial License) --><path d="M40 224H256C270.656 224 284.125 216.016 291.125 203.156L368.937 60.5C373.125 52.781 381.188 48 390 48H600C604.406 48 608 44.422 608 40S604.406 32 600 32H390C375.344 32 361.875 39.984 354.875 52.844L277.062 195.5C272.875 203.219 264.812 208 256 208H40C35.594 208 32 211.578 32 216S35.594 224 40 224ZM608 296C608 291.578 604.406 288 600 288H40C35.594 288 32 291.578 32 296S35.594 304 40 304H186C194.812 304 202.875 308.781 207.062 316.5L284.875 459.156C291.875 472.016 305.344 480 320 480H600C604.406 480 608 476.422 608 472S604.406 464 600 464H320C311.188 464 303.125 459.219 298.938 451.5L221.125 308.844C220.148 307.051 218.779 305.596 217.564 304H600C604.406 304 608 300.422 608 296Z"/></svg>