<svg xmlns="http://www.w3.org/2000/svg" viewBox="0 0 512 512"><!--! Font Awesome Pro 6.4.0 by @fontawesome - https://fontawesome.com License - https://fontawesome.com/license (Commercial License) Copyright 2023 Fonticons, Inc. --><path d="M273 23c-9.4-9.4-24.6-9.4-33.9 0L23 239c-9.4 9.4-9.4 24.6 0 33.9L239 489c9.4 9.4 24.6 9.4 33.9 0L489 273c9.4-9.4 9.4-24.6 0-33.9L273 23zM227.7 11.7c15.6-15.6 40.9-15.6 56.6 0l216 216c15.6 15.6 15.6 40.9 0 56.6l-216 216c-15.6 15.6-40.9 15.6-56.6 0l-216-216c-15.6-15.6-15.6-40.9 0-56.6l216-216zm81.9 134.6l72 72c3.1 3.1 3.1 8.2 0 11.3l-72 72c-3.1 3.1-8.2 3.1-11.3 0s-3.1-8.2 0-11.3L356.7 232H232c-17.7 0-32 14.3-32 32v64c0 4.4-3.6 8-8 8s-8-3.6-8-8V264c0-26.5 21.5-48 48-48H356.7l-58.3-58.3c-3.1-3.1-3.1-8.2 0-11.3s8.2-3.1 11.3 0z"/></svg>