<svg xmlns="http://www.w3.org/2000/svg" viewBox="0 0 448 512"><!--! Font Awesome Pro 6.4.0 by @fontawesome - https://fontawesome.com License - https://fontawesome.com/license (Commercial License) Copyright 2023 Fonticons, Inc. --><path d="M384 48c26.5 0 48 21.5 48 48V416c0 26.5-21.5 48-48 48H64c-26.5 0-48-21.5-48-48V96c0-26.5 21.5-48 48-48H384zM64 32C28.7 32 0 60.7 0 96V416c0 35.3 28.7 64 64 64H384c35.3 0 64-28.7 64-64V96c0-35.3-28.7-64-64-64H64zm64 112a16 16 0 1 1 0 32 16 16 0 1 1 0-32zm0 48a32 32 0 1 0 0-64 32 32 0 1 0 0 64zM112 352a16 16 0 1 1 32 0 16 16 0 1 1 -32 0zm48 0a32 32 0 1 0 -64 0 32 32 0 1 0 64 0zM320 144a16 16 0 1 1 0 32 16 16 0 1 1 0-32zm0 48a32 32 0 1 0 0-64 32 32 0 1 0 0 64zM304 352a16 16 0 1 1 32 0 16 16 0 1 1 -32 0zm48 0a32 32 0 1 0 -64 0 32 32 0 1 0 64 0z"/></svg>