<svg xmlns="http://www.w3.org/2000/svg" viewBox="0 0 512 512"><!--! Font Awesome Pro 6.4.0 by @fontawesome - https://fontawesome.com License - https://fontawesome.com/license (Commercial License) Copyright 2023 Fonticons, Inc. --><path d="M248 20.7L19.8 248.9 248 332.5V20.7zM24.2 267.5L248 491.3V349.6L24.2 267.5zM264 491.3L487.8 267.5 264 349.6V491.3zM492.2 248.9L264 20.7V332.5l228.2-83.7zM239 7c9.4-9.4 24.6-9.4 33.9 0L505 239c9.4 9.4 9.4 24.6 0 33.9L273 505c-9.4 9.4-24.6 9.4-33.9 0L7 273c-9.4-9.4-9.4-24.6 0-33.9L239 7z"/></svg>