<svg xmlns="http://www.w3.org/2000/svg" viewBox="0 0 448 512"><!--! Font Awesome Pro 6.4.0 by @fontawesome - https://fontawesome.com License - https://fontawesome.com/license (Commercial License) Copyright 2023 Fonticons, Inc. --><path d="M243.9 7.7c-12.4-7-27.6-6.9-39.9 .3L19.8 115.6C7.5 122.8 0 135.9 0 150.1V366.6c0 14.5 7.8 27.8 20.5 34.9l184 103c12.1 6.8 26.9 6.8 39.1 0l184-103c12.6-7.1 20.5-20.4 20.5-34.9V146.8c0-14.4-7.7-27.7-20.3-34.8L243.9 7.7zm177.3 119l-197.2 120L26.8 130.1c.3-.2 .7-.4 1.1-.7L212 21.7 203.9 7.9 212 21.7c7.4-4.3 16.5-4.4 24-.2L419.8 125.9c.4 .3 .9 .5 1.3 .8zm9.7 12.8c.7 2.3 1.1 4.8 1.1 7.3V366.6c0 8.7-4.7 16.7-12.3 20.9l-184 103c-1.2 .7-2.5 1.2-3.7 1.7V260.5l198.9-121zM216 492.3c-1.3-.5-2.5-1-3.7-1.7l-184-103-7.7 13.8 7.7-13.8C20.7 383.3 16 375.3 16 366.6V150.1c0-2.5 .4-4.9 1.1-7.2L216 260.6V492.3z"/></svg>