<svg xmlns="http://www.w3.org/2000/svg" viewBox="0 0 576 512"><!--! Font Awesome Pro 6.4.0 by @fontawesome - https://fontawesome.com License - https://fontawesome.com/license (Commercial License) Copyright 2023 Fonticons, Inc. --><path d="M64 16C37.5 16 16 37.5 16 64V352c0 26.5 21.5 48 48 48H231.8h.3H343.9h.3H512c26.5 0 48-21.5 48-48V64c0-26.5-21.5-48-48-48H64zM222.6 416H64c-35.3 0-64-28.7-64-64V64C0 28.7 28.7 0 64 0H512c35.3 0 64 28.7 64 64V352c0 35.3-28.7 64-64 64H353.4l13.3 80H440c4.4 0 8 3.6 8 8s-3.6 8-8 8H360 216 136c-4.4 0-8-3.6-8-8s3.6-8 8-8h73.2l13.3-80zm16.2 0l-13.3 80H350.6l-13.3-80H238.8zM496 80H80l0 256H496V80zM80 64H496c8.8 0 16 7.2 16 16V336c0 8.8-7.2 16-16 16H80c-8.8 0-16-7.2-16-16V80c0-8.8 7.2-16 16-16zm189.3 73.3v44c0 2.1-.8 4.2-2.3 5.7s-3.5 2.3-5.7 2.3h-44c-4.4 0-8 3.6-8 8v21.3c0 4.4 3.6 8 8 8h44c4.4 0 8 3.6 8 8v44c0 4.4 3.6 8 8 8h21.3c4.4 0 8-3.6 8-8v-44c0-4.4 3.6-8 8-8h44c4.4 0 8-3.6 8-8V197.3c0-4.4-3.6-8-8-8h-44c-4.4 0-8-3.6-8-8v-44c0-4.4-3.6-8-8-8H277.3c-4.4 0-8 3.6-8 8zm8-24h21.3c13.3 0 24 10.7 24 24v36h36c13.3 0 24 10.7 24 24v21.3c0 13.3-10.7 24-24 24h-36v36c0 13.3-10.7 24-24 24H277.3c-13.3 0-24-10.7-24-24v-36h-36c-13.3 0-24-10.7-24-24V197.3c0-13.3 10.7-24 24-24h36v-36c0-13.3 10.7-24 24-24z"/></svg>