<svg xmlns="http://www.w3.org/2000/svg" viewBox="0 0 576 512"><!--! Font Awesome Pro 6.4.0 by @fontawesome - https://fontawesome.com License - https://fontawesome.com/license (Commercial License) Copyright 2023 Fonticons, Inc. --><path d="M512 16c26.5 0 48 21.5 48 48V352c0 26.5-21.5 48-48 48H344.2h-.3H232.1h-.3H64c-26.5 0-48-21.5-48-48V64c0-26.5 21.5-48 48-48H512zM64 416H222.6l-13.3 80H136c-4.4 0-8 3.6-8 8s3.6 8 8 8h80H360h80c4.4 0 8-3.6 8-8s-3.6-8-8-8H366.8l-13.3-80H512c35.3 0 64-28.7 64-64V64c0-35.3-28.7-64-64-64H64C28.7 0 0 28.7 0 64V352c0 35.3 28.7 64 64 64zm161.4 80l13.3-80h98.4l13.3 80H225.4zM80 80H496V336H80L80 80zM64 80V336c0 8.8 7.2 16 16 16H496c8.8 0 16-7.2 16-16V80c0-8.8-7.2-16-16-16H80c-8.8 0-16 7.2-16 16z"/></svg>