<svg xmlns="http://www.w3.org/2000/svg" viewBox="0 0 384 512"><!--! Font Awesome Pro 6.4.0 by @fontawesome - https://fontawesome.com License - https://fontawesome.com/license (Commercial License) Copyright 2023 Fonticons, Inc. --><path d="M312 32c-4.4 0-8 3.6-8 8V80H200c-4.4 0-8 3.6-8 8s3.6 8 8 8H304V226c-21.8-39.4-63.8-66-112-66c-70.7 0-128 57.3-128 128s57.3 128 128 128c48.2 0 90.2-26.6 112-66v58c0 4.4 3.6 8 8 8s8-3.6 8-8V288 96h24c4.4 0 8-3.6 8-8s-3.6-8-8-8H320V40c0-4.4-3.6-8-8-8zM80 288a112 112 0 1 1 224 0A112 112 0 1 1 80 288zM8 464c-4.4 0-8 3.6-8 8s3.6 8 8 8H376c4.4 0 8-3.6 8-8s-3.6-8-8-8H8z"/></svg>