<svg xmlns="http://www.w3.org/2000/svg" viewBox="0 0 576 512"><!--! Font Awesome Pro 6.4.0 by @fontawesome - https://fontawesome.com License - https://fontawesome.com/license (Commercial License) Copyright 2023 Fonticons, Inc. --><path d="M304 496H96 80V86.2C80 71.3 90.3 58.4 104.8 55l166-38.3c2-.5 4-.7 6.1-.7c15 0 27.1 12.1 27.1 27.1V496zM64 86.2V496H8c-4.4 0-8 3.6-8 8s3.6 8 8 8H64 80 96 304h16V496 43.1C320 19.3 300.7 0 276.9 0c-3.3 0-6.5 .4-9.7 1.1l-166 38.3C79.4 44.4 64 63.8 64 86.2zM472 80c13.3 0 24 10.7 24 24V504c0 4.4 3.6 8 8 8h64c4.4 0 8-3.6 8-8s-3.6-8-8-8H512V104c0-22.1-17.9-40-40-40H352V80H472zM232 216c-9.7 0-17.9 5.3-23.4 12.6s-8.6 17-8.6 27.4s3.2 20.1 8.6 27.4s13.7 12.6 23.4 12.6s17.9-5.3 23.4-12.6s8.6-17 8.6-27.4s-3.2-20.1-8.6-27.4s-13.7-12.6-23.4-12.6zm-16 40c0-7.2 2.2-13.5 5.4-17.8s7-6.2 10.6-6.2s7.4 1.9 10.6 6.2s5.4 10.6 5.4 17.8s-2.2 13.5-5.4 17.8s-7 6.2-10.6 6.2s-7.4-1.9-10.6-6.2s-5.4-10.6-5.4-17.8z"/></svg>