<svg xmlns="http://www.w3.org/2000/svg" viewBox="0 0 576 512"><!--! Font Awesome Pro 6.4.0 by @fontawesome - https://fontawesome.com License - https://fontawesome.com/license (Commercial License) Copyright 2023 Fonticons, Inc. --><path d="M416 16c26.5 0 48 21.5 48 48V496H112V64c0-26.5 21.5-48 48-48H416zM96 64V496H8c-4.4 0-8 3.6-8 8s3.6 8 8 8H96h16H464h16 88c4.4 0 8-3.6 8-8s-3.6-8-8-8H480V64c0-35.3-28.7-64-64-64H160C124.7 0 96 28.7 96 64zM408 256a24 24 0 1 1 -48 0 24 24 0 1 1 48 0zm-24-40a40 40 0 1 0 0 80 40 40 0 1 0 0-80z"/></svg>