<svg xmlns="http://www.w3.org/2000/svg" viewBox="0 0 384 512"><!--! Font Awesome Pro 6.4.0 by @fontawesome - https://fontawesome.com License - https://fontawesome.com/license (Commercial License) Copyright 2023 Fonticons, Inc. --><path d="M8 464H376c4.4 0 8 3.6 8 8s-3.6 8-8 8H8c-4.4 0-8-3.6-8-8s3.6-8 8-8zM184 356.7c2.1 2.1 5 3.3 8 3.3s5.9-1.2 8-3.3L331.8 224.6c2.7-2.7 4.2-6.4 4.2-10.2c0-8-6.5-14.4-14.4-14.4H248c-4.4 0-8-3.6-8-8V56c0-8.8-7.2-16-16-16H160c-8.8 0-16 7.2-16 16V192c0 4.4-3.6 8-8 8H62.4c-8 0-14.4 6.5-14.4 14.4c0 3.8 1.5 7.5 4.2 10.2L184 356.7zm8 19.3c-7.2 0-14.2-2.9-19.3-8L40.9 235.9c-5.7-5.7-8.9-13.4-8.9-21.5C32 197.6 45.6 184 62.4 184H128V56c0-17.7 14.3-32 32-32h64c17.7 0 32 14.3 32 32V184h65.6c16.8 0 30.4 13.6 30.4 30.4c0 8.1-3.2 15.8-8.9 21.5L211.3 368c-5.1 5.1-12.1 8-19.3 8z"/></svg>