<svg xmlns="http://www.w3.org/2000/svg" viewBox="0 0 448 512"><!--! Font Awesome Pro 6.4.0 by @fontawesome - https://fontawesome.com License - https://fontawesome.com/license (Commercial License) Copyright 2023 Fonticons, Inc. --><path d="M216 332.7c2.1 2.1 5 3.3 8 3.3s5.9-1.2 8-3.3L363.8 200.6c2.7-2.7 4.2-6.4 4.2-10.2c0-8-6.5-14.4-14.4-14.4H280c-4.4 0-8-3.6-8-8V32c0-8.8-7.2-16-16-16H192c-8.8 0-16 7.2-16 16V168c0 4.4-3.6 8-8 8H94.4c-8 0-14.4 6.5-14.4 14.4c0 3.8 1.5 7.5 4.2 10.2L216 332.7zm8 19.3c-7.2 0-14.2-2.9-19.3-8L72.9 211.9c-5.7-5.7-8.9-13.4-8.9-21.5C64 173.6 77.6 160 94.4 160H160V32c0-17.7 14.3-32 32-32h64c17.7 0 32 14.3 32 32V160h65.6c16.8 0 30.4 13.6 30.4 30.4c0 8.1-3.2 15.8-8.9 21.5L243.3 344c-5.1 5.1-12.1 8-19.3 8zM16 328v96c0 39.8 32.2 72 72 72H360c39.8 0 72-32.2 72-72V328c0-4.4 3.6-8 8-8s8 3.6 8 8v96c0 48.6-39.4 88-88 88H88c-48.6 0-88-39.4-88-88V328c0-4.4 3.6-8 8-8s8 3.6 8 8z"/></svg>