<svg xmlns="http://www.w3.org/2000/svg" viewBox="0 0 448 512"><!--! Font Awesome Pro 6.4.0 by @fontawesome - https://fontawesome.com License - https://fontawesome.com/license (Commercial License) Copyright 2023 Fonticons, Inc. --><path d="M48 112a32 32 0 1 0 0-64 32 32 0 1 0 0 64zm8 15.3V384.7C76.1 388 92 403.9 95.3 424H352.7c3.4-20.1 19.2-36 39.3-39.3V127.3c-20.1-3.4-36-19.2-39.3-39.3H95.3C92 108.1 76.1 124 56 127.3zM95.3 440c-3.8 22.7-23.6 40-47.3 40c-26.5 0-48-21.5-48-48c0-23.8 17.3-43.5 40-47.3V127.3C17.3 123.5 0 103.8 0 80C0 53.5 21.5 32 48 32c23.8 0 43.5 17.3 47.3 40H352.7c3.8-22.7 23.6-40 47.3-40c26.5 0 48 21.5 48 48c0 23.8-17.3 43.5-40 47.3V384.7c22.7 3.8 40 23.6 40 47.3c0 26.5-21.5 48-48 48c-23.8 0-43.5-17.3-47.3-40H95.3zM80 432a32 32 0 1 0 -64 0 32 32 0 1 0 64 0zm352 0a32 32 0 1 0 -64 0 32 32 0 1 0 64 0zm0-352a32 32 0 1 0 -64 0 32 32 0 1 0 64 0z"/></svg>