<svg xmlns="http://www.w3.org/2000/svg" viewBox="0 0 640 512"><!--! Font Awesome Pro 6.4.0 by @fontawesome - https://fontawesome.com License - https://fontawesome.com/license (Commercial License) Copyright 2023 Fonticons, Inc. --><path d="M152 104c0-4.4-3.6-8-8-8s-8 3.6-8 8v24H16c-4.4 0-8 3.6-8 8s3.6 8 8 8H136V296c0 4.4 3.6 8 8 8h53.6l0 0-13.5 16.2c-15.6 18.7-24.1 42.2-24.1 66.6V408c0 4.4 3.6 8 8 8s8-3.6 8-8V386.8c0-20.6 7.2-40.5 20.4-56.3L211 312.9l56.6 37.7c1.3 .9 2.9 1.3 4.4 1.3h96c1.6 0 3.1-.5 4.4-1.3L429 312.9l14.6 17.5c13.2 15.8 20.4 35.8 20.4 56.3V408c0 4.4 3.6 8 8 8s8-3.6 8-8V386.8c0-24.3-8.5-47.9-24.1-66.6L442.4 304l0 0H496c4.4 0 8-3.6 8-8V144H624c4.4 0 8-3.6 8-8s-3.6-8-8-8H504V104c0-4.4-3.6-8-8-8s-8 3.6-8 8v24H368c-4.4 0-8 3.6-8 8s3.6 8 8 8H488v99.8l-80-35c-25.3-11.1-52.6-16.8-80.2-16.8H312.2c-27.6 0-54.9 5.7-80.2 16.8l-80 35V144H272c4.4 0 8-3.6 8-8s-3.6-8-8-8H152V104zm0 157.2l86.4-37.8c23.3-10.2 48.4-15.4 73.8-15.4h15.7c25.4 0 50.5 5.3 73.8 15.4L488 261.2V288H440c-1.6 0-3.1 .5-4.4 1.3l-70 46.7H274.4l-70-46.7c-1.3-.9-2.9-1.3-4.4-1.3H152V261.2z"/></svg>