<svg xmlns="http://www.w3.org/2000/svg" viewBox="0 0 512 512"><!-- Font Awesome Pro 6.0.0-alpha2 by @fontawesome - https://fontawesome.com License - https://fontawesome.com/license (Commercial License) --><path d="M256 16C123.461 16 16 123.418 16 256S123.461 496 256 496S496 388.582 496 256S388.539 16 256 16ZM256 480C132.486 480 32 379.516 32 256S132.486 32 256 32S480 132.484 480 256S379.514 480 256 480ZM421.797 344.375H417.656C414.875 344.375 412.219 343.313 410.375 341.469L393.078 324.125C385.578 316.563 375.516 312.375 364.75 312.375H349.422L308.531 277.156C298.828 268.906 286.453 264.375 273.688 264.375H242.562C233.172 264.375 223.656 267 214.938 272.031L172.125 297.75C156.109 307.25 146.156 324.844 146.156 343.625V367.5C146.156 384.25 154.141 400.25 167.5 410.25L189.703 427.031C199.734 434.531 217.359 440.375 229.844 440.375H250.062C254.203 440.375 257.641 443.719 257.891 447.969S261.656 455.5 265.875 455.5H266.344C270.75 455.219 274.125 451.438 273.859 447.031C273.125 434.344 262.672 424.375 250.062 424.375H229.844C220.812 424.375 206.531 419.625 199.312 414.25L177.125 397.469C167.75 390.438 162.156 379.25 162.156 367.5V343.625C162.156 330.438 169.109 318.156 180.328 311.469L223.062 285.813C229.219 282.25 235.969 280.375 242.562 280.375H273.687C282.672 280.375 291.359 283.563 298.125 289.313L341.234 326.438C342.688 327.688 344.531 328.375 346.453 328.375H364.75C371.219 328.375 377.234 330.875 381.719 335.406L399.062 352.781C403.906 357.625 410.672 360.375 417.656 360.375H421.797C426.219 360.375 429.797 356.781 429.797 352.375S426.219 344.375 421.797 344.375ZM165.422 168.375C170.672 168.375 175.672 166.313 179.047 162.813L188.594 153.313C192.156 149.656 194.125 144.844 194.125 139.75V123.75C194.125 113.063 185.437 104.375 174.75 104.375C169.812 104.375 164.859 106.438 161.094 110.094L135.812 135.438C132.109 139.062 130.062 143.938 130.062 149.125C130.062 159.75 138.75 168.375 149.438 168.375H165.422ZM146.062 149.125C146.062 148.25 146.406 147.469 147.031 146.844C147.062 146.812 147.078 146.812 147.094 146.781L172.328 121.5C173.031 120.812 173.953 120.375 174.75 120.375C176.609 120.375 178.125 121.875 178.125 123.75V139.75C178.125 140.625 177.766 141.531 177.219 142.063L167.641 151.562C167.156 152.062 166.328 152.375 165.422 152.375H149.438C147.609 152.375 146.062 150.875 146.062 149.125ZM436.656 312.375H424.922C422.688 312.375 420.719 311.594 419.25 310L387.203 277.438C385.734 275.938 385.75 273.375 387.234 271.906L399.703 259.406C401.203 257.906 402.047 255.875 402.047 253.75V245.125C402.047 239.844 400.031 235 396.453 231.469L387.047 222.031C383.313 218.375 378.453 216.375 373.344 216.375H357.359C355.625 216.375 354.094 214.844 354.094 213.125C354.094 212.25 354.469 211.344 355 210.812L364.547 201.312C365.125 200.719 365.969 200.375 366.797 200.375H398.766C409.453 200.375 418.156 191.75 418.156 181.125V171.75C418.156 161.062 409.453 152.375 398.766 152.375H362.078C348.859 152.375 338.094 163.156 338.094 176.375V180.875C338.094 184.344 335.875 187.437 332.672 188.531L301 199.062C294.5 201.281 290.141 207.375 290.141 214.25L290.156 216.375H274.047C274.047 207.562 266.875 200.375 258.062 200.375H255.031C249.141 200.375 243.672 203.625 240.609 209.187L231.328 227.812C229.922 230.562 227.172 232.25 224.156 232.25H202C197.594 232.25 194 228.656 194 224.25V199C194 196.906 194.844 194.938 196.391 193.406L216.5 173.281C222.609 167.156 225.969 158.906 226.062 150.094L266.25 136.75C269.141 135.688 271.609 134.125 273.516 132.156L300.484 105.312C304.047 101.656 306.016 96.844 306.016 91.75C306.016 81.062 297.375 72.375 286.75 72.375H266.047C263.937 72.375 261.906 73.219 260.406 74.687L244.297 90.687C242.781 92.187 241.937 94.25 241.937 96.375L241.953 104.375H225.969L226.078 84.375L243.453 71.25C246.969 68.594 247.672 63.594 245.016 60.062C242.344 56.5 237.328 55.844 233.797 58.5L216.547 71.531C212.422 74.531 209.969 79.313 209.969 84.375V104.375C209.969 113.188 217.141 120.375 225.969 120.375H241.953C250.766 120.375 257.937 113.188 257.937 104.375V99.719L269.344 88.375H286.75C288.516 88.375 290.016 89.906 290.016 91.75C290.016 92.625 289.656 93.531 289.109 94.094L260.984 121.656L221.031 134.906C214.406 137.094 209.969 143.219 209.969 150.125C209.969 154.656 208.266 158.875 205.172 161.969L185.109 182.062C180.531 186.594 178 192.625 178 199V224.25C178 237.469 188.766 248.25 202 248.25H224.156C233.172 248.25 241.375 243.25 245.594 235.062L255.031 216.375H258.047C258.047 225.187 265.219 232.375 274.047 232.375H290.156C298.969 232.375 306.141 225.187 306.141 216.375L306.109 214.219L337.781 203.687C339.125 203.219 340.406 202.656 341.625 202C339.359 205.25 338.094 209.187 338.094 213.125C338.094 223.75 346.734 232.375 357.359 232.375H373.344C374.234 232.375 375.141 232.781 375.781 233.406L385.188 242.844C385.891 243.531 386.047 244.469 386.047 245.125V250.438L375.906 260.594C368.281 268.25 368.188 280.812 375.75 288.625L407.688 321.063C412.063 325.781 418.188 328.375 424.922 328.375H436.656C441.078 328.375 444.656 324.781 444.656 320.375S441.078 312.375 436.656 312.375ZM351.516 191.719C353.172 188.437 354.094 184.719 354.094 180.875V176.375C354.094 172.031 357.75 168.375 362.078 168.375H398.766C400.578 168.375 402.156 169.937 402.156 171.75V181.125C402.156 182.813 400.547 184.375 398.766 184.375H366.797C361.656 184.375 356.656 186.5 353.172 190.063L351.516 191.719Z"/></svg>