<svg xmlns="http://www.w3.org/2000/svg" viewBox="0 0 640 512"><!--! Font Awesome Pro 6.4.0 by @fontawesome - https://fontawesome.com License - https://fontawesome.com/license (Commercial License) Copyright 2023 Fonticons, Inc. --><path d="M416 72c0 4.4-3.6 8-8 8l-96 0v48h24 60.6c12.6 0 25 3.7 35.5 10.7L483.5 173c17.8 11.9 28.5 31.9 28.5 53.3V384c0 35.3-28.7 64-64 64H279.2c-15 0-29.5-5.2-41-14.8l-59-49.2H112c-26.5 0-48-21.5-48-48V264H16v80c0 4.4-3.6 8-8 8s-8-3.6-8-8V168c0-4.4 3.6-8 8-8s8 3.6 8 8v80H64V176c0-26.5 21.5-48 48-48h48H296V80l-96 0c-4.4 0-8-3.6-8-8s3.6-8 8-8H304 408c4.4 0 8 3.6 8 8zM80 248v16 72c0 17.7 14.3 32 32 32h67.2c3.7 0 7.4 1.3 10.2 3.7l59 49.2c8.6 7.2 19.5 11.1 30.7 11.1H448c26.5 0 48-21.5 48-48V226.3c0-16-8-31-21.4-39.9l-51.4-34.3c-7.9-5.3-17.1-8.1-26.6-8.1H336 304 160 112c-17.7 0-32 14.3-32 32v72zm176 8a32 32 0 1 1 64 0 32 32 0 1 1 -64 0zm32 16a16 16 0 1 0 0-32 16 16 0 1 0 0 32zm96-48a32 32 0 1 1 0 64 32 32 0 1 1 0-64zm16 32a16 16 0 1 0 -32 0 16 16 0 1 0 32 0zm-240 0a32 32 0 1 1 64 0 32 32 0 1 1 -64 0zm32 16a16 16 0 1 0 0-32 16 16 0 1 0 0 32zm384-64c-8.8 0-16 7.2-16 16V416c0 8.8 7.2 16 16 16h32c8.8 0 16-7.2 16-16V224c0-8.8-7.2-16-16-16H576zm-32 16c0-17.7 14.3-32 32-32h32c17.7 0 32 14.3 32 32V416c0 17.7-14.3 32-32 32H576c-17.7 0-32-14.3-32-32V224z"/></svg>