<svg xmlns="http://www.w3.org/2000/svg" viewBox="0 0 576 512"><!--! Font Awesome Pro 6.4.0 by @fontawesome - https://fontawesome.com License - https://fontawesome.com/license (Commercial License) Copyright 2023 Fonticons, Inc. --><path d="M464 64a48 48 0 1 1 96 0 48 48 0 1 1 -96 0zm112 0A64 64 0 1 0 448 64a64 64 0 1 0 128 0zM512 384V160c-6.3 0-12.5-.6-18.5-1.8L291.2 321.4c-20.5 16.5-49.8 16.5-70.3 0L16 156.2V128c0-26.5 21.5-48 48-48H417.3c-.9-5.2-1.3-10.5-1.3-16H64C28.7 64 0 92.7 0 128V384c0 35.3 28.7 64 64 64H448c35.3 0 64-28.7 64-64zM16 176.7L210.8 333.8c26.4 21.3 64 21.3 90.4 0L496 176.7V384c0 26.5-21.5 48-48 48H64c-26.5 0-48-21.5-48-48V176.7z"/></svg>