<svg xmlns="http://www.w3.org/2000/svg" viewBox="0 0 512 512"><!--! Font Awesome Pro 6.4.0 by @fontawesome - https://fontawesome.com License - https://fontawesome.com/license (Commercial License) Copyright 2023 Fonticons, Inc. --><path d="M64 80c-26.5 0-48 21.5-48 48v28.2L220.8 321.4c20.5 16.5 49.8 16.5 70.3 0L496 156.2V128c0-26.5-21.5-48-48-48H64zM16 176.7V384c0 26.5 21.5 48 48 48H448c26.5 0 48-21.5 48-48V176.7L301.2 333.8c-26.4 21.3-64 21.3-90.4 0L16 176.7zM0 128C0 92.7 28.7 64 64 64H448c35.3 0 64 28.7 64 64V384c0 35.3-28.7 64-64 64H64c-35.3 0-64-28.7-64-64V128z"/></svg>