<svg xmlns="http://www.w3.org/2000/svg" viewBox="0 0 576 512"><!--! Font Awesome Pro 6.4.0 by @fontawesome - https://fontawesome.com License - https://fontawesome.com/license (Commercial License) Copyright 2023 Fonticons, Inc. --><path d="M512 48c26.5 0 48 21.5 48 48v17.8l-4.7 3.5L369.1 253.8c-19.7 14.5-46.5 14.5-66.2 0L116.7 117.3l-4.7-3.5V96c0-26.5 21.5-48 48-48H512zM112 320V133.7l181.4 133c25.3 18.6 59.8 18.6 85.2 0L560 133.7V320c0 26.5-21.5 48-48 48H160c-26.5 0-48-21.5-48-48zM160 32c-35.3 0-64 28.7-64 64V320c0 35.3 28.7 64 64 64H512c35.3 0 64-28.7 64-64V96c0-35.3-28.7-64-64-64H160zM0 192V416c0 35.3 28.7 64 64 64H416c35.3 0 64-28.7 64-64H464c0 26.5-21.5 48-48 48H64c-26.5 0-48-21.5-48-48V192c0-26.5 21.5-48 48-48V128c-35.3 0-64 28.7-64 64z"/></svg>