<svg xmlns="http://www.w3.org/2000/svg" viewBox="0 0 320 512"><!--! Font Awesome Pro 6.4.0 by @fontawesome - https://fontawesome.com License - https://fontawesome.com/license (Commercial License) Copyright 2023 Fonticons, Inc. --><path d="M35.7 208c-2.4 13-3.7 26.3-3.7 40v16c0 13.7 1.3 27 3.7 40H8c-4.4 0-8 3.6-8 8s3.6 8 8 8H39.3C64 412.1 148.1 480 248 480h65c4.4 0 8-3.6 8-8s-3.6-8-8-8H248c-91 0-167.8-60.8-192.1-144H280c4.4 0 8-3.6 8-8s-3.6-8-8-8H52c-2.6-12.9-4-26.3-4-40V248c0-13.7 1.4-27.1 4-40H280c4.4 0 8-3.6 8-8s-3.6-8-8-8H55.9C80.2 108.8 157 48 248 48h65c4.4 0 8-3.6 8-8s-3.6-8-8-8H248C148.1 32 64 99.9 39.3 192H8c-4.4 0-8 3.6-8 8s3.6 8 8 8H35.7z"/></svg>