<svg xmlns="http://www.w3.org/2000/svg" viewBox="0 0 512 512"><!--! Font Awesome Pro 6.4.0 by @fontawesome - https://fontawesome.com License - https://fontawesome.com/license (Commercial License) Copyright 2023 Fonticons, Inc. --><path d="M120 64c4.4 0 8 3.6 8 8s-3.6 8-8 8H16V184c0 4.4-3.6 8-8 8s-8-3.6-8-8V72c0-4.4 3.6-8 8-8H120zM0 328c0-4.4 3.6-8 8-8s8 3.6 8 8V432H120c4.4 0 8 3.6 8 8s-3.6 8-8 8H8c-4.4 0-8-3.6-8-8V328zM392 64H504c4.4 0 8 3.6 8 8V184c0 4.4-3.6 8-8 8s-8-3.6-8-8V80H392c-4.4 0-8-3.6-8-8s3.6-8 8-8zM512 328V440c0 4.4-3.6 8-8 8H392c-4.4 0-8-3.6-8-8s3.6-8 8-8H496V328c0-4.4 3.6-8 8-8s8 3.6 8 8z"/></svg>