<svg xmlns="http://www.w3.org/2000/svg" viewBox="0 0 640 512"><!--! Font Awesome Pro 6.4.0 by @fontawesome - https://fontawesome.com License - https://fontawesome.com/license (Commercial License) Copyright 2023 Fonticons, Inc. --><path d="M378.7 98.6c2.1 3.3 5.3 5.8 9.1 6.9c12.3 3.6 24 8.1 35 13.4c3.7 1.8 7.8 2.1 11.7 .9l95.3-29.8c2.7-.8 5.6 .1 7.4 2.4s1.8 5.4 .2 7.7l-41.3 62.7c-3.5 5.4-3.5 12.4 .1 17.7c5.3 7.8 9.7 16 13.3 24.4c1.7 4.1 5.1 7.3 9.4 8.8l100.6 35.9c2.7 1 4.4 3.5 4.4 6.3s-1.8 5.4-4.4 6.3L518.9 298.3c-4.2 1.5-7.6 4.7-9.4 8.8c-3.6 8.4-8 16.6-13.3 24.4c-3.6 5.4-3.6 12.3-.1 17.7L537.5 412c1.6 2.4 1.5 5.5-.2 7.7s-4.6 3.2-7.4 2.4l-95.3-29.8c-3.9-1.2-8.1-.9-11.7 .9c-11 5.3-22.7 9.8-35 13.4c-3.8 1.1-7 3.5-9.1 6.9L330.9 490c-2.4 3.8-6.5 6-10.9 6s-8.6-2.3-10.9-6l-47.8-76.5c-2.1-3.3-5.3-5.8-9.1-6.9c-12.3-3.6-24-8.1-35-13.4c-3.7-1.8-7.8-2.1-11.7-.9l-95.3 29.8c-2.7 .8-5.6-.1-7.4-2.4L90 429.3l12.8-9.6c-1.7-2.3-1.8-5.4-.2-7.7l41.3-62.7c3.5-5.4 3.5-12.4-.1-17.7c-5.3-7.8-9.7-16-13.3-24.4c-1.7-4.1-5.1-7.3-9.4-8.8L20.4 262.3c-2.7-1-4.4-3.5-4.4-6.3s1.8-5.4 4.4-6.3l100.6-35.9c4.2-1.5 7.6-4.7 9.4-8.8c3.6-8.4 8-16.6 13.3-24.4c3.6-5.4 3.6-12.3 .1-17.7L102.5 100c-1.6-2.4-1.5-5.5 .2-7.7s4.6-3.2 7.4-2.4l95.3 29.8c3.9 1.2 8.1 .9 11.7-.9c11-5.3 22.7-9.8 35-13.4c3.8-1.1 7-3.5 9.1-6.9L309.1 22l-13.6-8.5L309.1 22c2.4-3.8 6.5-6 10.9-6s8.6 2.3 10.9 6l47.8 76.5zm-83.2-85L247.7 90.1c-13.1 3.8-25.7 8.6-37.5 14.3L114.9 74.7c-9.2-2.9-19.1 .3-24.9 8s-6.1 18.1-.8 26.1l41.3 62.7c-5.8 8.6-10.7 17.7-14.7 27.1L15.1 234.6C6 237.8 0 246.4 0 256s6 18.2 15.1 21.4l100.6 35.9c4 9.4 8.9 18.5 14.7 27.1L89.2 403.2c-5.3 8-4.9 18.5 .8 26.1s15.7 10.9 24.9 8l95.3-29.8c11.8 5.7 24.4 10.5 37.5 14.3l47.8 76.5C300.8 506.9 310 512 320 512s19.2-5.1 24.5-13.6l47.8-76.5c13.1-3.8 25.7-8.6 37.5-14.3l95.3 29.8c9.2 2.9 19.1-.3 24.9-8s6.1-18.1 .8-26.1l-41.3-62.7c5.8-8.6 10.7-17.7 14.7-27.1l100.6-35.9c9-3.2 15.1-11.8 15.1-21.4s-6-18.2-15.1-21.4L524.3 198.7c-4-9.4-8.9-18.5-14.7-27.1l41.3-62.7c5.3-8 4.9-18.5-.8-26.1s-15.7-10.9-24.9-8l-95.3 29.8c-11.8-5.7-24.4-10.5-37.5-14.3L344.5 13.6C339.2 5.1 330 0 320 0s-19.2 5.1-24.5 13.6zM232 248c0-12.3 2.5-24.1 7.1-34.7c13 6.4 26.8 11.2 41.3 14.4c2.6 39 17.9 61.3 25.4 70c3.8 4.4 9.2 6.2 14.2 6.2s10.3-1.8 14.2-6.2c7.6-8.8 22.8-31.1 25.4-70c14.5-3.2 28.3-8.1 41.3-14.4c4.6 10.6 7.1 22.4 7.1 34.7c0 48.6-39.4 88-88 88s-88-39.4-88-88zm85.9 39.3c-5.4-6.3-18.2-24.2-21.3-56.8c7.4 .9 14.9 1.4 22.5 1.5c.3 0 .6 0 .8 0s.6 0 .8 0c7.6 0 15.1-.5 22.5-1.5c-3.1 32.6-15.8 50.5-21.3 56.8c-.2 .3-.8 .7-2.1 .7s-1.8-.4-2.1-.7zm96.9-82.1c4.8-3 9.5-6.1 14-9.5c3.5-2.7 4.2-7.7 1.6-11.2s-7.7-4.2-11.2-1.6c-27.4 20.6-61.5 32.9-98.4 33.1c-.3 0-.5 0-.8 0s-.5 0-.8 0c-36.9-.2-71-12.4-98.4-33.1c-3.5-2.7-8.5-1.9-11.2 1.6s-1.9 8.5 1.6 11.2c4.5 3.4 9.2 6.6 14 9.5c-.1 .1-.1 .2-.2 .4c-5.8 12.9-9 27.3-9 42.4c0 57.4 46.6 104 104 104s104-46.6 104-104c0-15.1-3.2-29.4-9-42.4c-.1-.1-.1-.2-.2-.4z"/></svg>