<svg xmlns="http://www.w3.org/2000/svg" viewBox="0 0 512 512"><!--! Font Awesome Pro 6.4.0 by @fontawesome - https://fontawesome.com License - https://fontawesome.com/license (Commercial License) Copyright 2023 Fonticons, Inc. --><path d="M40-.2C17.8-.2-.2 17.8-.2 40V152c0 4.5 3.7 8.2 8.2 8.2s8.2-3.7 8.2-8.2V40c0-13.2 10.7-23.8 23.8-23.8H152c4.5 0 8.2-3.7 8.2-8.2s-3.7-8.2-8.2-8.2H40zm432 0H360c-4.5 0-8.2 3.7-8.2 8.2s3.7 8.2 8.2 8.2H472c13.2 0 23.8 10.7 23.8 23.8V152c0 4.5 3.7 8.2 8.2 8.2s8.2-3.7 8.2-8.2V40c0-22.2-18-40.2-40.2-40.2zM-.2 472c0 22.2 18 40.2 40.2 40.2H152c4.5 0 8.2-3.7 8.2-8.2s-3.7-8.2-8.2-8.2H40c-13.2 0-23.8-10.7-23.8-23.8V360c0-4.5-3.7-8.2-8.2-8.2s-8.2 3.7-8.2 8.2V472zM472 512c22.1 0 40-17.9 40-40V360c0-4.4-3.6-8-8-8s-8 3.6-8 8V472c0 13.3-10.7 24-24 24H360c-4.4 0-8 3.6-8 8s3.6 8 8 8H472zM224 224a16 16 0 1 0 -32 0 16 16 0 1 0 32 0zm80 16a16 16 0 1 0 0-32 16 16 0 1 0 0 32zM256 112a144 144 0 1 1 0 288 144 144 0 1 1 0-288zm0 304a160 160 0 1 0 0-320 160 160 0 1 0 0 320zM207.5 292c-2.2-3.8-7.1-5.1-10.9-2.9s-5.1 7.1-2.9 10.9c12.4 21.5 35.7 36 62.4 36s49.9-14.5 62.4-36c2.2-3.8 .9-8.7-2.9-10.9s-8.7-.9-10.9 2.9c-9.7 16.8-27.8 28-48.5 28s-38.8-11.2-48.5-28z"/></svg>