<svg xmlns="http://www.w3.org/2000/svg" viewBox="0 0 640 512"><!--! Font Awesome Pro 6.4.0 by @fontawesome - https://fontawesome.com License - https://fontawesome.com/license (Commercial License) Copyright 2023 Fonticons, Inc. --><path d="M557.9 224C542.2 106.6 441.7 16 320 16S97.8 106.6 82.1 224H66C81.7 97.7 189.5 0 320 0S558.3 97.7 574 224H557.9zM224.4 176a16 16 0 1 1 32 0 16 16 0 1 1 -32 0zm176-16a16 16 0 1 1 0 32 16 16 0 1 1 0-32zm-216-50.5c1.4-4.2 5.9-6.5 10.1-5.1l96 32c4.2 1.4 6.5 5.9 5.1 10.1s-5.9 6.5-10.1 5.1l-96-32c-4.2-1.4-6.5-5.9-5.1-10.1zm271.2 0c1.4 4.2-.9 8.7-5.1 10.1l-96 32c-4.2 1.4-8.7-.9-10.1-5.1s.9-8.7 5.1-10.1l96-32c4.2-1.4 8.7 .9 10.1 5.1zM16 320V448c0 26.5 21.5 48 48 48H576c26.5 0 48-21.5 48-48V320c0-26.5-21.5-48-48-48H64c-26.5 0-48 21.5-48 48zM0 320c0-35.3 28.7-64 64-64H576c35.3 0 64 28.7 64 64V448c0 35.3-28.7 64-64 64H64c-35.3 0-64-28.7-64-64V320zM408 432H384v24c0 4.4-3.6 8-8 8s-8-3.6-8-8V432H304v24c0 4.4-3.6 8-8 8s-8-3.6-8-8V432H264c-4.4 0-8-3.6-8-8s3.6-8 8-8h24V352H264c-4.4 0-8-3.6-8-8s3.6-8 8-8h24V312c0-4.4 3.6-8 8-8s8 3.6 8 8v24h64V312c0-4.4 3.6-8 8-8s8 3.6 8 8v24h24c4.4 0 8 3.6 8 8s-3.6 8-8 8H384v64h24c4.4 0 8 3.6 8 8s-3.6 8-8 8zm-40-80H304v64h64V352zm196.4-46.7c3.7 2.5 4.7 7.4 2.2 11.1l-96 144c-2.5 3.7-7.4 4.7-11.1 2.2s-4.7-7.4-2.2-11.1l96-144c2.5-3.7 7.4-4.7 11.1-2.2zM472 320a8 8 0 1 0 0 16 8 8 0 1 0 0-16zm0-16a24 24 0 1 1 0 48 24 24 0 1 1 0-48zm72 136a8 8 0 1 0 16 0 8 8 0 1 0 -16 0zm-16 0a24 24 0 1 1 48 0 24 24 0 1 1 -48 0zM208 304c4.4 0 8 3.6 8 8v80c0 4.4-3.6 8-8 8s-8-3.6-8-8V312c0-4.4 3.6-8 8-8zm0 144a8 8 0 1 0 0-16 8 8 0 1 0 0 16zm0-32a24 24 0 1 1 0 48 24 24 0 1 1 0-48zM120 312v8.5c9 .8 17.5 2.5 23.9 4.1c4.3 1.1 6.9 5.4 5.8 9.7s-5.4 6.9-9.7 5.8c-10.5-2.6-25.5-5.1-38.1-3.8c-6.3 .7-11.4 2.2-15 4.6c-3.3 2.2-5.7 5.3-6.6 10.2c-.7 3.9-.2 6.4 .8 8.2c1 2 2.8 3.9 5.9 5.8c6.5 4.1 16 6.8 27.3 10l0 0 0 0 0 0c10.5 3 22.8 6.4 31.7 12.5c4.6 3.2 8.8 7.3 11.4 12.8c2.6 5.6 3.2 11.9 1.9 18.9c-2 10.8-7.7 18.5-15.8 23c-7.3 4.2-16.1 5.5-24.5 5.5v8c0 4.4-3.6 8-8 8s-8-3.6-8-8v-9.3c-12.8-2-25.2-5.7-33.5-8.3c-4.2-1.3-6.6-5.8-5.3-10s5.8-6.6 10-5.3c11.6 3.6 28.9 8.7 43.7 8.9c7.4 .1 13.4-1 17.6-3.4c3.8-2.2 6.8-5.6 7.9-12c.8-4.3 .3-7.2-.7-9.3c-1-2.2-2.9-4.3-5.9-6.3c-6.3-4.3-15.8-7.2-27-10.3l-1.5-.4c-10.1-2.9-21.6-6.1-30.1-11.5c-4.6-2.9-8.9-6.8-11.6-12.1c-2.7-5.4-3.5-11.6-2.2-18.3c1.7-9.3 6.7-16.1 13.5-20.6c6.5-4.4 14.5-6.4 22.2-7.2c1.2-.1 2.5-.2 3.7-.3V312c0-4.4 3.6-8 8-8s8 3.6 8 8z"/></svg>