<svg xmlns="http://www.w3.org/2000/svg" viewBox="0 0 512 512"><!--! Font Awesome Pro 6.4.0 by @fontawesome - https://fontawesome.com License - https://fontawesome.com/license (Commercial License) Copyright 2023 Fonticons, Inc. --><path d="M256 16a240 240 0 1 0 0 480 240 240 0 1 0 0-480zM512 256A256 256 0 1 1 0 256a256 256 0 1 1 512 0zM168 304c-22.1 0-40 17.9-40 40s17.9 40 40 40h8V304h-8zm24 80h56V304H192v80zm128 0V304H264v80h56zm16 0h8c22.1 0 40-17.9 40-40s-17.9-40-40-40h-8v80zM168 288H344c30.9 0 56 25.1 56 56s-25.1 56-56 56H168c-30.9 0-56-25.1-56-56s25.1-56 56-56zm-7.6-80a16 16 0 1 1 32 0 16 16 0 1 1 -32 0zm176-16a16 16 0 1 1 0 32 16 16 0 1 1 0-32z"/></svg>