<svg xmlns="http://www.w3.org/2000/svg" viewBox="0 0 512 512"><!--! Font Awesome Pro 6.4.0 by @fontawesome - https://fontawesome.com License - https://fontawesome.com/license (Commercial License) Copyright 2023 Fonticons, Inc. --><path d="M176 64A48 48 0 1 0 80 64a48 48 0 1 0 96 0zM64 64a64 64 0 1 1 128 0A64 64 0 1 1 64 64zM41.8 234.7L37.7 284c-2.3 28 19.8 52 47.8 52H112h32 16v16h-8V480c0 8.8 7.2 16 16 16c2.9 0 5.6-.8 8-2.1V511c-2.6 .7-5.2 1-8 1c-17.7 0-32-14.3-32-32V352H120V480c0 17.7-14.3 32-32 32s-32-14.3-32-32V344.8c-22.1-11.5-36.4-35.4-34.2-62.1l4.1-49.3C29.3 191.9 64 160 105.6 160h44.8c7 0 13.8 .9 20.2 2.6c-1.3 5.1-2.1 10.5-2.5 15.9c-5.7-1.6-11.6-2.5-17.8-2.5H105.6c-33.3 0-61 25.5-63.8 58.7zM344 512c-2.8 0-5.4-.3-8-1V493.9c2.4 1.4 5.1 2.1 8 2.1c8.8 0 16-7.2 16-16V384h-8V368h16 32 48 21.6c10.6 0 18.3-10.2 15.4-20.4L445.9 210.8C440 190.2 421.2 176 399.7 176H368.3c-8.8 0-17.1 2.4-24.3 6.6c-.1-5.8-.7-11.5-1.9-17c8.1-3.6 17-5.6 26.2-5.6h31.4c28.6 0 53.7 18.9 61.5 46.4l39.1 136.8c5.8 20.4-9.5 40.8-30.8 40.8H456v96c0 17.7-14.3 32-32 32s-32-14.3-32-32V384H376v96c0 17.7-14.3 32-32 32zM85.6 352c-4.7 0-9.2-.5-13.6-1.4V480c0 8.8 7.2 16 16 16s16-7.2 16-16V352H85.6zM432 64a48 48 0 1 0 -96 0 48 48 0 1 0 96 0zM320 64a64 64 0 1 1 128 0A64 64 0 1 1 320 64zM440 384H408v96c0 8.8 7.2 16 16 16s16-7.2 16-16V384zM296 184a40 40 0 1 0 -80 0 40 40 0 1 0 80 0zm-96 0a56 56 0 1 1 112 0 56 56 0 1 1 -112 0zm56 88c-35.3 0-64 28.7-64 64v32c0 17.7 14.3 32 32 32h64c17.7 0 32-14.3 32-32V336c0-35.3-28.7-64-64-64zm-80 64c0-44.2 35.8-80 80-80s80 35.8 80 80v32c0 20.9-13.4 38.7-32 45.3V504c0 4.4-3.6 8-8 8s-8-3.6-8-8V416H224v88c0 4.4-3.6 8-8 8s-8-3.6-8-8V413.3c-18.6-6.6-32-24.4-32-45.3V336z"/></svg>