<svg xmlns="http://www.w3.org/2000/svg" viewBox="0 0 512 512"><!--! Font Awesome Pro 6.4.0 by @fontawesome - https://fontawesome.com License - https://fontawesome.com/license (Commercial License) Copyright 2023 Fonticons, Inc. --><path d="M72 32c2.5 0 4.9 1.2 6.4 3.2l44.8 59.7c3.1 4.2 4.8 9.2 4.8 14.4V160h72V109.3c0-5.2 1.7-10.2 4.8-14.4l44.8-59.7c1.5-2 3.9-3.2 6.4-3.2s4.9 1.2 6.4 3.2l44.8 59.7c3.1 4.2 4.8 9.2 4.8 14.4V160h72V109.3c0-5.2 1.7-10.2 4.8-14.4l44.8-59.7c1.5-2 3.9-3.2 6.4-3.2s4.9 1.2 6.4 3.2l44.8 59.7c3.1 4.2 4.8 9.2 4.8 14.4V456c0 13.3-10.7 24-24 24H408c-13.3 0-24-10.7-24-24V368H312v88c0 13.3-10.7 24-24 24H224c-13.3 0-24-10.7-24-24V368H128v88c0 13.3-10.7 24-24 24H40c-13.3 0-24-10.7-24-24V109.3c0-5.2 1.7-10.2 4.8-14.4L65.6 35.2c1.5-2 3.9-3.2 6.4-3.2zM312 352h72V176H312V352zM200 176H128V352h72V176zM72 53.3L33.6 104.5c-1 1.4-1.6 3.1-1.6 4.8V456c0 4.4 3.6 8 8 8h64c4.4 0 8-3.6 8-8V109.3c0-1.7-.6-3.4-1.6-4.8L72 53.3zm368 0l-38.4 51.2c-1 1.4-1.6 3.1-1.6 4.8V456c0 4.4 3.6 8 8 8h64c4.4 0 8-3.6 8-8V109.3c0-1.7-.6-3.4-1.6-4.8L440 53.3zM217.6 104.5c-1 1.4-1.6 3.1-1.6 4.8V456c0 4.4 3.6 8 8 8h64c4.4 0 8-3.6 8-8V109.3c0-1.7-.6-3.4-1.6-4.8L256 53.3l-38.4 51.2z"/></svg>