<svg xmlns="http://www.w3.org/2000/svg" viewBox="0 0 576 512"><!--! Font Awesome Pro 6.4.0 by @fontawesome - https://fontawesome.com License - https://fontawesome.com/license (Commercial License) Copyright 2023 Fonticons, Inc. --><path d="M64 496H320c26.5 0 48-21.5 48-48V433.3l7.5-1.9c2.9-.7 5.8-1.7 8.5-2.8V448c0 35.3-28.7 64-64 64H64c-35.3 0-64-28.7-64-64V64C0 28.7 28.7 0 64 0H204.1c12.7 0 24.9 5.1 33.9 14.1L369.9 145.9c9 9 14.1 21.2 14.1 33.9v23.5l-16 16V179.9c0-1.3-.1-2.6-.2-3.9H248c-22.1 0-40-17.9-40-40V16.2c-1.3-.2-2.6-.2-3.9-.2H64C37.5 16 16 37.5 16 64V448c0 26.5 21.5 48 48 48zM358.6 157.3L226.7 25.4c-.9-.9-1.8-1.7-2.7-2.4V136c0 13.3 10.7 24 24 24H361.1c-.8-1-1.6-1.9-2.4-2.7zM128 328c-1.1 0-2.1 .7-2.4 1.8l-15.5 56.7C105.4 403.9 89.6 416 71.6 416H64c-4.4 0-8-3.6-8-8s3.6-8 8-8h7.6c10.8 0 20.3-7.2 23.2-17.7l15.5-56.7c2.2-8 9.5-13.6 17.8-13.6s15.6 5.6 17.8 13.6l19.4 71.1 21.9-38.3c5.1-8.9 14.6-14.5 24.9-14.5s19.8 5.5 24.9 14.5l16.8 29.5C258 395.4 266 400 274.6 400H288c0-1.3 .1-2.7 .5-4l15-60.1c1.4-5.6 4.3-10.8 8.4-14.9L493.2 139.7c15.6-15.6 40.9-15.6 56.6 0l14.4 14.4c15.6 15.6 15.6 40.9 0 56.6L382.9 391.9c-4.1 4.1-9.2 7-14.9 8.4l-3.4-13.6 3.4 13.6-60.1 15c-.6 .1-1.1 .3-1.7 .3c-.7 .2-1.4 .3-2.2 .3H274.6c-14.4 0-27.6-7.7-34.7-20.2L223 366.4c-2.3-3.9-6.5-6.4-11-6.4s-8.8 2.4-11 6.4L176.7 409c-2.5 4.3-7.1 7-12.1 7c-6.3 0-11.8-4.2-13.5-10.3l-20.7-75.9c-.3-1.1-1.3-1.8-2.4-1.8zm180.4 54.3L304 399.8l17.6-4.4 42.5-10.6c2.8-.7 5.4-2.2 7.4-4.2L514.4 237.7l-48.3-48.3L323.2 332.3c-2 2.1-3.5 4.6-4.2 7.4l-10.6 42.5zM552.8 199.4c9.4-9.4 9.4-24.6 0-33.9L538.4 151c-9.4-9.4-24.6-9.4-33.9 0l-27.1 27.1 48.3 48.3 27.1-27.1z"/></svg>