<svg xmlns="http://www.w3.org/2000/svg" viewBox="0 0 448 512"><!--! Font Awesome Pro 6.4.0 by @fontawesome - https://fontawesome.com License - https://fontawesome.com/license (Commercial License) Copyright 2023 Fonticons, Inc. --><path d="M384 400H192c-26.5 0-48-21.5-48-48V64c0-26.5 21.5-48 48-48H324.1c4.1 0 8.1 .8 11.9 2.3V88c0 13.3 10.7 24 24 24h69.7c1.5 3.7 2.3 7.8 2.3 11.9V352c0 26.5-21.5 48-48 48zM439.1 96c-1.5-2.1-3.2-4.2-5.1-6.1L358.1 14.1c-9-9-21.2-14.1-33.9-14.1H192c-35.3 0-64 28.7-64 64V352c0 35.3 28.7 64 64 64H384c35.3 0 64-28.7 64-64V123.9c0-9.5-2.8-18.7-8-26.5V96h-.9zm-21.7 0H360c-4.4 0-8-3.6-8-8V30.6L417.4 96zM96 96H64C28.7 96 0 124.7 0 160V448c0 35.3 28.7 64 64 64H256c35.3 0 64-28.7 64-64H304c0 26.5-21.5 48-48 48H64c-26.5 0-48-21.5-48-48V160c0-26.5 21.5-48 48-48H96V96zm173.3 89.3c0-4.4 3.6-8 8-8h21.3c4.4 0 8 3.6 8 8v44c0 4.4 3.6 8 8 8h44c4.4 0 8 3.6 8 8v21.3c0 4.4-3.6 8-8 8h-44c-4.4 0-8 3.6-8 8v44c0 4.4-3.6 8-8 8H277.3c-4.4 0-8-3.6-8-8v-44c0-4.4-3.6-8-8-8h-44c-4.4 0-8-3.6-8-8V245.3c0-4.4 3.6-8 8-8h44c2.1 0 4.2-.8 5.7-2.3s2.3-3.5 2.3-5.7v-44zm8-24c-13.3 0-24 10.7-24 24v36h-36c-13.3 0-24 10.7-24 24v21.3c0 13.3 10.7 24 24 24h36v36c0 13.3 10.7 24 24 24h21.3c13.3 0 24-10.7 24-24v-36h36c13.3 0 24-10.7 24-24V245.3c0-13.3-10.7-24-24-24h-36v-36c0-13.3-10.7-24-24-24H277.3z"/></svg>