<svg xmlns="http://www.w3.org/2000/svg" viewBox="0 0 512 512"><!--! Font Awesome Pro 6.4.0 by @fontawesome - https://fontawesome.com License - https://fontawesome.com/license (Commercial License) Copyright 2023 Fonticons, Inc. --><path d="M448 496H192c-26.5 0-48-21.5-48-48V352H128v96c0 35.3 28.7 64 64 64H448c35.3 0 64-28.7 64-64V179.9c0-12.7-5.1-24.9-14.1-33.9L366.1 14.1c-9-9-21.2-14.1-33.9-14.1H192c-35.3 0-64 28.7-64 64V256h16V64c0-26.5 21.5-48 48-48H332.1c1.3 0 2.6 .1 3.9 .2V136c0 22.1 17.9 40 40 40H495.8c.2 1.3 .2 2.6 .2 3.9V448c0 26.5-21.5 48-48 48zm41.1-336H376c-13.3 0-24-10.7-24-24V22.9c1 .8 1.9 1.6 2.7 2.4L486.6 157.3c.9 .9 1.7 1.8 2.4 2.7zM269.7 186.3c-3.1-3.1-8.2-3.1-11.3 0s-3.1 8.2 0 11.3L356.7 296H8c-4.4 0-8 3.6-8 8s3.6 8 8 8H356.7l-98.3 98.3c-3.1 3.1-3.1 8.2 0 11.3s8.2 3.1 11.3 0l112-112c3.1-3.1 3.1-8.2 0-11.3l-112-112z"/></svg>