<svg xmlns="http://www.w3.org/2000/svg" viewBox="0 0 384 512"><!--! Font Awesome Pro 6.4.0 by @fontawesome - https://fontawesome.com License - https://fontawesome.com/license (Commercial License) Copyright 2023 Fonticons, Inc. --><path d="M64 496c-26.5 0-48-21.5-48-48V64c0-26.5 21.5-48 48-48H204.1c1.3 0 2.6 .1 3.9 .2V136c0 22.1 17.9 40 40 40H367.8c.2 1.3 .2 2.6 .2 3.9V448c0 26.5-21.5 48-48 48H64zM358.6 157.3c.9 .9 1.7 1.8 2.4 2.7H248c-13.3 0-24-10.7-24-24V22.9c1 .8 1.9 1.6 2.7 2.4L358.6 157.3zM64 0C28.7 0 0 28.7 0 64V448c0 35.3 28.7 64 64 64H320c35.3 0 64-28.7 64-64V179.9c0-12.7-5.1-24.9-14.1-33.9L238.1 14.1c-9-9-21.2-14.1-33.9-14.1H64zm48 256c-22.1 0-40 17.9-40 40v80c0 22.1 17.9 40 40 40h32c22.1 0 40-17.9 40-40V296c0-22.1-17.9-40-40-40H112zM88 296c0-13.3 10.7-24 24-24h32c13.3 0 24 10.7 24 24v80c0 13.3-10.7 24-24 24H112c-13.3 0-24-10.7-24-24V296zm152-40c-4.4 0-8 3.6-8 8s3.6 8 8 8h24V400H240c-4.4 0-8 3.6-8 8s3.6 8 8 8h32 32c4.4 0 8-3.6 8-8s-3.6-8-8-8H280V264c0-4.4-3.6-8-8-8H240z"/></svg>