<svg xmlns="http://www.w3.org/2000/svg" viewBox="0 0 512 512"><!--! Font Awesome Pro 6.4.0 by @fontawesome - https://fontawesome.com License - https://fontawesome.com/license (Commercial License) Copyright 2023 Fonticons, Inc. --><path d="M64 496h48v16H64c-35.3 0-64-28.7-64-64V64C0 28.7 28.7 0 64 0H204.1c12.7 0 24.9 5.1 33.9 14.1L369.9 145.9c9 9 14.1 21.2 14.1 33.9V304H368V179.9c0-1.3-.1-2.6-.2-3.9H248c-22.1 0-40-17.9-40-40V16.2c-1.3-.2-2.6-.2-3.9-.2H64C37.5 16 16 37.5 16 64V448c0 26.5 21.5 48 48 48zM361.1 160c-.8-1-1.6-1.9-2.4-2.7L226.7 25.4c-.9-.9-1.8-1.7-2.7-2.4V136c0 13.3 10.7 24 24 24H361.1zM176 368h32c22.1 0 40 17.9 40 40v64c0 22.1-17.9 40-40 40H176c-4.4 0-8-3.6-8-8V376c0-4.4 3.6-8 8-8zm8 128h24c13.3 0 24-10.7 24-24V408c0-13.3-10.7-24-24-24H184V496zM456 368h16c17.7 0 32 14.3 32 32v8c0 4.4-3.6 8-8 8s-8-3.6-8-8v-8c0-8.8-7.2-16-16-16H456c-8.8 0-16 7.2-16 16v80c0 8.8 7.2 16 16 16h16c8.8 0 16-7.2 16-16v-8c0-4.4 3.6-8 8-8s8 3.6 8 8v8c0 17.7-14.3 32-32 32H456c-17.7 0-32-14.3-32-32V400c0-17.7 14.3-32 32-32zM296 400c0-17.7 14.3-32 32-32h16c17.7 0 32 14.3 32 32v80c0 17.7-14.3 32-32 32H328c-17.7 0-32-14.3-32-32V400zm32-16c-8.8 0-16 7.2-16 16v80c0 8.8 7.2 16 16 16h16c8.8 0 16-7.2 16-16V400c0-8.8-7.2-16-16-16H328z"/></svg>