<svg xmlns="http://www.w3.org/2000/svg" viewBox="0 0 384 512"><!--! Font Awesome Pro 6.4.0 by @fontawesome - https://fontawesome.com License - https://fontawesome.com/license (Commercial License) Copyright 2023 Fonticons, Inc. --><path d="M16 448V64c0-26.5 21.5-48 48-48H204.1c1.3 0 2.6 .1 3.9 .2V136c0 22.1 17.9 40 40 40H367.8c.2 1.3 .2 2.6 .2 3.9V448c0 26.5-21.5 48-48 48H64c-26.5 0-48-21.5-48-48zM358.6 157.3c.9 .9 1.7 1.8 2.4 2.7H248c-13.3 0-24-10.7-24-24V22.9c1 .8 1.9 1.6 2.7 2.4L358.6 157.3zM64 0C28.7 0 0 28.7 0 64V448c0 35.3 28.7 64 64 64H320c35.3 0 64-28.7 64-64V179.9c0-12.7-5.1-24.9-14.1-33.9L238.1 14.1c-9-9-21.2-14.1-33.9-14.1H64zm44.6 304.6c0-20.2 16.4-36.6 36.6-36.6h.6c9.7 0 19 3.8 26 10.5l14.6 14.2c3.1 3 8 3 11.2 0l14.6-14.2c7-6.8 16.3-10.5 26-10.5h.6c20.2 0 36.6 16.4 36.6 36.6c0 9.3-3.6 18.3-10 25.1l-67.6 71.7c-1.5 1.6-3.6 2.5-5.8 2.5s-4.3-.9-5.8-2.5l-67.6-71.7c-6.4-6.8-10-15.8-10-25.1zM145.2 252c-29.1 0-52.6 23.6-52.6 52.6c0 13.4 5.1 26.3 14.3 36.1l67.6 71.7c4.5 4.8 10.9 7.5 17.5 7.5s12.9-2.7 17.5-7.5l67.6-71.7c9.2-9.8 14.3-22.7 14.3-36.1c0-29.1-23.6-52.6-52.6-52.6h-.6c-13.9 0-27.2 5.4-37.1 15.1l-9 8.8-9-8.8c-9.9-9.7-23.3-15.1-37.1-15.1h-.6z"/></svg>