<svg xmlns="http://www.w3.org/2000/svg" viewBox="0 0 384 512"><!--! Font Awesome Pro 6.4.0 by @fontawesome - https://fontawesome.com License - https://fontawesome.com/license (Commercial License) Copyright 2023 Fonticons, Inc. --><path d="M64 496c-26.5 0-48-21.5-48-48V64c0-26.5 21.5-48 48-48H204.1c1.3 0 2.6 .1 3.9 .2V136c0 22.1 17.9 40 40 40H367.8c.2 1.3 .2 2.6 .2 3.9V448c0 26.5-21.5 48-48 48H64zM358.6 157.3c.9 .9 1.7 1.8 2.4 2.7H248c-13.3 0-24-10.7-24-24V22.9c1 .8 1.9 1.6 2.7 2.4L358.6 157.3zM64 0C28.7 0 0 28.7 0 64V448c0 35.3 28.7 64 64 64H320c35.3 0 64-28.7 64-64V179.9c0-12.7-5.1-24.9-14.1-33.9L238.1 14.1c-9-9-21.2-14.1-33.9-14.1H64zm0 72c0 4.4 3.6 8 8 8h80c4.4 0 8-3.6 8-8s-3.6-8-8-8H72c-4.4 0-8 3.6-8 8zm0 64c0 4.4 3.6 8 8 8h80c4.4 0 8-3.6 8-8s-3.6-8-8-8H72c-4.4 0-8 3.6-8 8zM224 440c0 4.4 3.6 8 8 8h80c4.4 0 8-3.6 8-8s-3.6-8-8-8H232c-4.4 0-8 3.6-8 8zm64-200c8.8 0 16 7.2 16 16v64c0 8.8-7.2 16-16 16H96c-8.8 0-16-7.2-16-16V256c0-8.8 7.2-16 16-16H288zM96 224c-17.7 0-32 14.3-32 32v64c0 17.7 14.3 32 32 32H288c17.7 0 32-14.3 32-32V256c0-17.7-14.3-32-32-32H96z"/></svg>