<svg xmlns="http://www.w3.org/2000/svg" viewBox="0 0 384 512"><!--! Font Awesome Pro 6.4.0 by @fontawesome - https://fontawesome.com License - https://fontawesome.com/license (Commercial License) Copyright 2023 Fonticons, Inc. --><path d="M64 496c-26.5 0-48-21.5-48-48V64c0-26.5 21.5-48 48-48H204.1c1.3 0 2.6 .1 3.9 .2V136c0 22.1 17.9 40 40 40H367.8c.2 1.3 .2 2.6 .2 3.9V448c0 26.5-21.5 48-48 48H64zM358.6 157.3c.9 .9 1.7 1.8 2.4 2.7H248c-13.3 0-24-10.7-24-24V22.9c1 .8 1.9 1.6 2.7 2.4L358.6 157.3zM64 0C28.7 0 0 28.7 0 64V448c0 35.3 28.7 64 64 64H320c35.3 0 64-28.7 64-64V179.9c0-12.7-5.1-24.9-14.1-33.9L238.1 14.1c-9-9-21.2-14.1-33.9-14.1H64zm8 64c-4.4 0-8 3.6-8 8s3.6 8 8 8h80c4.4 0 8-3.6 8-8s-3.6-8-8-8H72zm0 64c-4.4 0-8 3.6-8 8s3.6 8 8 8h80c4.4 0 8-3.6 8-8s-3.6-8-8-8H72zm53.6 185.8c.3-1.1 1.3-1.8 2.4-1.8s2.1 .7 2.4 1.8l20.7 75.9c1.7 6.1 7.2 10.3 13.5 10.3c5 0 9.6-2.7 12.1-7L201 350.4c2.3-3.9 6.5-6.4 11-6.4s8.8 2.4 11 6.4l16.8 29.5c7.1 12.5 20.4 20.2 34.7 20.2H320c4.4 0 8-3.6 8-8s-3.6-8-8-8H274.6c-8.6 0-16.6-4.6-20.8-12.1l-16.8-29.5c-5.1-8.9-14.6-14.5-24.9-14.5s-19.8 5.5-24.9 14.5l-21.9 38.3-19.4-71.1c-2.2-8-9.5-13.6-17.8-13.6s-15.6 5.6-17.8 13.6L94.7 366.3C91.9 376.8 82.4 384 71.6 384H64c-4.4 0-8 3.6-8 8s3.6 8 8 8h7.6c18 0 33.8-12.1 38.6-29.5l15.5-56.7z"/></svg>