<svg xmlns="http://www.w3.org/2000/svg" viewBox="0 0 576 512"><!--! Font Awesome Pro 6.4.0 by @fontawesome - https://fontawesome.com License - https://fontawesome.com/license (Commercial License) Copyright 2023 Fonticons, Inc. --><path d="M104 40v8H248V40c0-13.3-10.7-24-24-24H128c-13.3 0-24 10.7-24 24zM88 48V40c0-22.1 17.9-40 40-40h96c22.1 0 40 17.9 40 40v8h48 32c4.4 0 8 3.6 8 8s-3.6 8-8 8H320V496h24c4.4 0 8 3.6 8 8s-3.6 8-8 8H312 40 8c-4.4 0-8-3.6-8-8s3.6-8 8-8H32V64H8c-4.4 0-8-3.6-8-8s3.6-8 8-8H40 88zm0 16H48V496H304V64H264 248 104 88zM408 176c13.3 0 24 10.7 24 24v16c0 13.3-10.7 24-24 24H392c-13.3 0-24-10.7-24-24V200c0-13.3 10.7-24 24-24h16zm-24 24v16c0 4.4 3.6 8 8 8h16c4.4 0 8-3.6 8-8V200c0-4.4-3.6-8-8-8H392c-4.4 0-8 3.6-8 8zm8 136h16c13.3 0 24 10.7 24 24v16c0 13.3-10.7 24-24 24H392c-13.3 0-24-10.7-24-24V360c0-13.3 10.7-24 24-24zm0 16c-4.4 0-8 3.6-8 8v16c0 4.4 3.6 8 8 8h16c4.4 0 8-3.6 8-8V360c0-4.4-3.6-8-8-8H392zM504 176c13.3 0 24 10.7 24 24v16c0 13.3-10.7 24-24 24H488c-13.3 0-24-10.7-24-24V200c0-13.3 10.7-24 24-24h16zm-24 24v16c0 4.4 3.6 8 8 8h16c4.4 0 8-3.6 8-8V200c0-4.4-3.6-8-8-8H488c-4.4 0-8 3.6-8 8zm56-56H352V128H536c22.1 0 40 17.9 40 40V304c0 22.1-17.9 40-40 40c-13.3 0-24 10.7-24 24v40c0 22.1-17.9 40-40 40H352V432H472c13.3 0 24-10.7 24-24V368c0-22.1 17.9-40 40-40c13.3 0 24-10.7 24-24V168c0-13.3-10.7-24-24-24z"/></svg>