<svg xmlns="http://www.w3.org/2000/svg" viewBox="0 0 512 512"><!--! Font Awesome Pro 6.4.0 by @fontawesome - https://fontawesome.com License - https://fontawesome.com/license (Commercial License) Copyright 2023 Fonticons, Inc. --><path d="M112 104V48H64C37.5 48 16 69.5 16 96v8h96zM16 120v80h96V120H16zM0 216v-8-8V120v-8-8V96C0 60.7 28.7 32 64 32h48 8 8H384h8 8 48c35.3 0 64 28.7 64 64v8 8 8 80 8 8 80 8 8 80 8 8 8c0 35.3-28.7 64-64 64H400h-8-8H128h-8-8H64c-35.3 0-64-28.7-64-64v-8-8-8V312v-8-8V216zm16 80h96V216H16v80zm0 16v80h96V312H16zm96 96H16v8c0 26.5 21.5 48 48 48h48V408zm16 56H384V400 304 208 112 48H128v64 96 96 96 64zM400 48v56h96V96c0-26.5-21.5-48-48-48H400zm96 72H400v80h96V120zm0 96H400v80h96V216zm0 96H400v80h96V312zm0 96H400v56h48c26.5 0 48-21.5 48-48v-8z"/></svg>