<svg xmlns="http://www.w3.org/2000/svg" viewBox="0 0 640 512"><!--! Font Awesome Pro 6.4.0 by @fontawesome - https://fontawesome.com License - https://fontawesome.com/license (Commercial License) Copyright 2023 Fonticons, Inc. --><path d="M349.2 77.5c-4.8 .1-9.4-2.1-12.5-5.8c-16.5-19.9-34.2-38.3-53.1-55.3C251.8 44.9 225 77.2 206 107.9c-19 30.8-30 62.1-30 84.2c0 79 63.2 143.8 144 143.8c79.9 0 144-64.8 144-143.8c0-16.5-8.3-44.5-22.4-71.6c-14-26.9-33.5-54.9-56.2-76c-8.3 7.7-16.3 17.4-23.9 26.9c-3 3.8-7.5 6-12.3 6zM338.4 49.1c3.6 4.1 7.1 8.2 10.6 12.4c3.3-4.1 6.7-8.4 10.3-12.6c5.1-5.9 10.5-11.8 16.1-16.9c5.6-5.1 14.4-5.1 20 0c24.7 22.7 45.6 52.7 60.4 81.1c14.5 28 24.2 58.8 24.2 79C480 280 408.7 352 320 352c-89.7 0-160-72.1-160-159.8c0-26.4 12.7-60.7 32.4-92.6c20-32.4 48.1-66.1 81.4-95.8c2.8-2.5 6.4-3.8 10-3.7c3.5 0 7 1.3 9.8 3.8c15.8 14.2 30.7 29.3 44.9 45.3zM281.7 96c2.4 0 4.7 1.1 6.2 3c2.2 2.8 19.4 24.6 35.9 45.7l22.5 28.7 4 5.2 33.4-38.9c1.6-1.8 3.9-2.9 6.3-2.8s4.7 1.3 6.1 3.2c3.7 5 6.2 10 8.4 14.3l0 0 0 .1c21.5 39.6 12.2 90.5-24.6 116.2l-.2 .1 0 0c-17.8 11.9-37 17.9-58.5 17.9c-26.5 0-50.9-8.6-68.7-24.9c-17.9-16.4-28.7-40.1-28.7-69.2c0-15.1 4.8-28.9 13.5-43.9c8.6-14.8 21.4-31.3 37.9-51.6c1.5-1.9 3.8-3 6.2-3zm68.4 95.2l-6.3 4.9 0 0 0 0 0 0-.1-.2-.5-.7-2-2.6-7.3-9.3-22.5-28.7c-11.3-14.4-22.7-29-29.6-37.8c-13.4 16.7-23.4 30-30.3 41.8c-7.8 13.4-11.3 24.4-11.3 35.8c0 24.9 9.1 44.3 23.5 57.4c14.5 13.2 34.8 20.7 57.9 20.7c18.2 0 34.3-5 49.5-15.2c29.4-20.6 37.7-62.3 19.6-95.5l-.1-.3 0 0c-.6-1.1-1.1-2.2-1.7-3.3l-32.6 38c-1.6 1.8-3.9 2.8-6.2 2.8s-4.6-1.2-6.1-3.1l6.3-4.9zM32 264c0-4.4 3.6-8 8-8H88c4.4 0 8 3.6 8 8s-3.6 8-8 8H48V384H592V272H552c-4.4 0-8-3.6-8-8s3.6-8 8-8h48c4.4 0 8 3.6 8 8V384c17.7 0 32 14.3 32 32v64c0 17.7-14.3 32-32 32H32c-17.7 0-32-14.3-32-32V416c0-17.7 14.3-32 32-32V264zm0 136c-8.8 0-16 7.2-16 16v64c0 8.8 7.2 16 16 16H608c8.8 0 16-7.2 16-16V416c0-8.8-7.2-16-16-16h-8H40 32zm288 32a16 16 0 1 1 0 32 16 16 0 1 1 0-32zm112 16a16 16 0 1 1 32 0 16 16 0 1 1 -32 0zM192 432a16 16 0 1 1 0 32 16 16 0 1 1 0-32z"/></svg>