<svg xmlns="http://www.w3.org/2000/svg" viewBox="0 0 640 512"><!--! Font Awesome Pro 6.4.0 by @fontawesome - https://fontawesome.com License - https://fontawesome.com/license (Commercial License) Copyright 2023 Fonticons, Inc. --><path d="M16 16l0 64H624V16H16zM0 16C0 7.2 7.2 0 16 0H624c8.8 0 16 7.2 16 16V80c0 8.8-7.2 16-16 16H608V488c0 13.3-10.7 24-24 24H504c-13.3 0-24-10.7-24-24V352c0-88.4-71.6-160-160-160s-160 71.6-160 160V488c0 13.3-10.7 24-24 24H56c-13.3 0-24-10.7-24-24V96H16C7.2 96 0 88.8 0 80V16zM48 96V488c0 4.4 3.6 8 8 8h80c4.4 0 8-3.6 8-8V352c0-97.2 78.8-176 176-176s176 78.8 176 176V488c0 4.4 3.6 8 8 8h80c4.4 0 8-3.6 8-8V96H48zM341.2 316.7c-4.8 .1-9.4-2.1-12.5-5.8c-11-13.3-22.8-25.6-35.3-37.1c-21.6 19.8-39.8 42-52.7 63c-13.6 22.1-21.2 44-21.2 59c0 55.1 44.1 100.3 100.4 100.3c55.7 0 100.4-45.2 100.4-100.3c0-11-5.7-30.7-15.8-50.1c-9.3-18.1-22.2-36.7-37-51.2c-4.8 4.8-9.4 10.5-14 16.2c-3 3.8-7.5 6-12.3 6zm-10.8-28.3c3.6 4 7.2 8.1 10.7 12.3c3.2-4.1 6.7-8.4 10.4-12.5c2.8-3.2 5.8-6.2 8.8-9c4.1-3.7 10.5-3.7 14.5 0c18 16.5 33.2 38.3 43.9 59c10.6 20.4 17.6 42.8 17.6 57.4c0 63.9-51.8 116.3-116.4 116.3c-65.2 0-116.4-52.4-116.4-116.3c0-19.2 9.2-44.1 23.6-67.4c14.5-23.5 35-48.1 59.2-69.7c2-1.8 4.7-2.7 7.3-2.7c2.6 0 5.1 .9 7.1 2.7c10.4 9.3 20.3 19.2 29.7 29.7zm-32.1 38.2c1.6 2 14.1 17.9 26.1 33.3l16.3 20.9 1.3 1.7 22.5-26.3c1.6-1.8 3.9-2.9 6.3-2.8s4.7 1.3 6.1 3.2c2.8 3.8 4.7 7.5 6.3 10.7l0 .1c5.1 9.4 7.9 19.6 8.4 29.7c.2 4.4-3.1 8.2-7.5 8.4s-8.2-3.1-8.4-7.5c-.4-7.8-2.5-15.6-6.4-22.8l-21.6 25.2c-1.6 1.8-3.9 2.8-6.2 2.8s-4.6-1.2-6.1-3.1l6.3-4.9c-6.3 4.9-6.3 4.9-6.3 4.9l0 0 0 0 0 0-.1-.1-.4-.5-1.5-1.9-5.3-6.8-16.3-20.8c-7.3-9.3-14.8-18.8-19.8-25.3c-8.9 11.1-15.5 20-20.1 28c-5.6 9.6-7.9 17.2-7.9 25c0 4.4-3.6 8-8 8s-8-3.6-8-8c0-11.5 3.6-21.9 10.1-33c6.4-10.9 15.8-23 27.8-37.8c1.5-1.9 3.8-3 6.2-3s4.7 1.1 6.2 3z"/></svg>