<svg xmlns="http://www.w3.org/2000/svg" viewBox="0 0 448 512"><!--! Font Awesome Pro 6.4.0 by @fontawesome - https://fontawesome.com License - https://fontawesome.com/license (Commercial License) Copyright 2023 Fonticons, Inc. --><path d="M16 8c0-4.4-3.6-8-8-8S0 3.6 0 8V32 48 336v16V504c0 4.4 3.6 8 8 8s8-3.6 8-8V352H436.1c6.6 0 11.9-5.3 11.9-11.9c0-2.6-.9-5.2-2.5-7.3L336 192 445.5 51.2c1.6-2.1 2.5-4.7 2.5-7.3c0-6.6-5.3-11.9-11.9-11.9H16V8zm0 40H427.7L323.4 182.2c-4.5 5.8-4.5 13.9 0 19.6L427.7 336H16V48z"/></svg>