<svg xmlns="http://www.w3.org/2000/svg" viewBox="0 0 448 512"><!--! Font Awesome Pro 6.4.0 by @fontawesome - https://fontawesome.com License - https://fontawesome.com/license (Commercial License) Copyright 2023 Fonticons, Inc. --><path d="M16 8c0-4.4-3.6-8-8-8S0 3.6 0 8V64 383.5 400 504c0 4.4 3.6 8 8 8s8-3.6 8-8V396l112.3-28.1c41.1-10.3 84.6-5.5 122.5 13.4c44.2 22.1 95.5 24.8 141.7 7.4l34.7-13c12.5-4.7 20.8-16.6 20.8-30V54.8c0-17.8-18.8-29.4-34.7-21.5l-19.7 9.8c-46.3 23.2-100.8 23.2-147.1 0c-35.1-17.6-75.4-22-113.5-12.5L16 60V8zm0 68.5l112-28v93.2L16 166.1V76.5zm0 106l112-24.3v87.6L16 270.1V182.4zm128-27.8l17.8-3.9c19.7-4.3 40.1-3.5 59.4 2.1l65.7 19.3c5.7 1.7 11.4 3 17.2 4.1V264c-4.3-.9-8.5-1.9-12.7-3.1l-65.7-19.3c-21.9-6.4-45-7.3-67.3-2.4L144 242.2V154.6zm176 23.8c16.5 1.4 33.1 .4 49.4-3.1L432 161.9v87.6l-66 14.1c-15.2 3.3-30.7 4.1-46 2.7V178.4zM304 280.3V382c-15.9-2.6-31.4-7.6-46.1-14.9c-35.3-17.7-75.1-24-113.9-18.5V258.6l17.8-3.9c19.7-4.3 40.1-3.5 59.4 2.1l65.7 19.3c5.7 1.7 11.4 3 17.2 4.1zm16 103.5V282.4c16.5 1.4 33.1 .4 49.4-3.1L432 265.9v79.9c0 6.7-4.1 12.6-10.4 15l-34.7 13c-21.6 8.1-44.4 11.4-66.9 10zm0-221.4V76.6c27.7 0 55.3-6.4 80.7-19.1l19.7-9.8c5.3-2.7 11.6 1.2 11.6 7.2v90.7l-66 14.1c-15.2 3.3-30.7 4.1-46 2.7zM304 75.9V160c-4.3-.9-8.5-1.9-12.7-3.1l-65.7-19.3c-21.9-6.4-45-7.3-67.3-2.4L144 138.2V44.7c32.2-6.4 65.8-1.9 95.3 12.8c20.5 10.3 42.5 16.4 64.7 18.3zM16 286.4l112-24.3v89.4c-1.2 .3-2.4 .6-3.6 .9L16 379.5V286.4z"/></svg>