<svg xmlns="http://www.w3.org/2000/svg" viewBox="0 0 576 512"><!--! Font Awesome Pro 6.4.0 by @fontawesome - https://fontawesome.com License - https://fontawesome.com/license (Commercial License) Copyright 2023 Fonticons, Inc. --><path d="M264.5 18l59.9 32.9c8.8 4.8 18.8 6.8 28.8 5.6l67.9-8.1c1.1-.1 2.3-.1 3.4 0c4.6-4.6 9.9-8.3 15.7-11c-6.1-3.9-13.4-5.7-21-4.8l-67.9 8.1c-6.6 .8-13.3-.5-19.2-3.7L272.2 4c-12.8-7-28.7-4.5-38.7 6.1L186.6 59.9c-4.6 4.9-10.5 8.2-17.1 9.5L102.4 82.7c-14.3 2.8-24.9 15-25.7 29.6l-3.8 68.3c-.4 6.7-2.8 13-7 18.2L23.1 252.1c-9.1 11.4-9.4 27.5-.7 39.2l40.9 54.8c4 5.3 6.2 11.8 6.4 18.5l.9 41.2c2.6-4.9 5.9-9.4 9.9-13.3l5.7-5.7-.5-22.4c-.2-10-3.6-19.7-9.5-27.7L35.2 281.7c-4.4-5.8-4.2-13.9 .3-19.6l42.8-53.3c6.3-7.8 9.9-17.4 10.5-27.4l3.8-68.3c.4-7.3 5.7-13.4 12.9-14.8l67.1-13.3c9.8-1.9 18.8-6.9 25.6-14.2L245.1 21c5-5.3 13-6.6 19.4-3.1zm200 62c2.3 .1 4.4 1.2 5.8 3c34.6 43.5 57.7 96.5 57.7 157c0 141.4-114.6 256-256 256c-60.4 0-113.5-23.2-157-57.7c-1.8-1.4-2.9-3.5-3-5.8s.7-4.5 2.3-6.1l86-86 86-86 86-86 43-43 43-43L447 71l11.3 11.3c1.6-1.6 3.8-2.5 6.1-2.3zm.9-16c-6.8-.4-13.5 2.2-18.3 7l-43 43-43 43-86 86-86 86-86 86c-4.8 4.8-7.4 11.5-7 18.3s3.7 13.2 9 17.4C150.8 487.1 207.3 512 272 512c150.2 0 272-121.8 272-272c0-64.7-24.9-121.2-61.2-166.9c-4.3-5.4-10.6-8.6-17.4-9zM272 416a16 16 0 1 0 0-32 16 16 0 1 0 0 32zm80-16a16 16 0 1 0 -32 0 16 16 0 1 0 32 0zm-48-48a16 16 0 1 0 0-32 16 16 0 1 0 0 32zM232 152c-61.9 0-112 50.1-112 112c0 25 8.2 48.1 22.1 66.7l11.5-11.5c-11-15.6-17.5-34.7-17.5-55.3c0-53 43-96 96-96c20.6 0 39.7 6.5 55.3 17.5l11.5-11.5C280.1 160.2 257 152 232 152z"/></svg>