<svg xmlns="http://www.w3.org/2000/svg" viewBox="0 0 448 512"><!-- Font Awesome Pro 6.0.0-alpha2 by @fontawesome - https://fontawesome.com License - https://fontawesome.com/license (Commercial License) --><path d="M434.785 79.738C430.516 63.371 417.61 50.387 401.203 45.984C391.477 43.371 351.203 32 298.473 32C234.961 32 153.375 48.492 85.301 116.66C-25.504 227.641 -2.207 374.188 13.215 432.668C17.485 449.039 30.391 461.234 46.797 465.637C56.606 468.27 97.457 480 150.821 480C214.125 480 295.035 463.504 362.699 395.75C473.504 284.77 450.207 138.109 434.785 79.738ZM150.821 464C118.328 464 85.215 459.484 50.946 450.184C39.75 447.18 31.434 439.121 28.688 428.59C22.235 404.113 14.258 363.031 16.426 315.738L164.125 463.438C159.68 463.605 155.344 464 150.821 464ZM351.379 384.445C306.422 429.461 250.649 455.367 185.391 462.078L18.078 294.766C24.071 240.258 44.774 179.895 96.621 127.965C141.594 82.934 197.422 56.949 262.742 50.055L430 217.312C424.055 271.891 403.352 332.387 351.379 384.445ZM283.93 48.617C288.778 48.414 293.524 48 298.473 48C330.895 48 363.696 52.422 397.055 61.438C407.946 64.359 416.473 72.922 419.317 83.824C425.766 108.234 433.738 149.164 431.629 196.316L283.93 48.617ZM141.656 258.344C138.531 255.219 133.469 255.219 130.344 258.344S127.219 266.531 130.344 269.656L210.344 349.656C211.906 351.219 213.938 352 216 352S220.094 351.219 221.656 349.656C224.781 346.531 224.781 341.469 221.656 338.344L141.656 258.344ZM226.344 162.344C223.219 165.469 223.219 170.531 226.344 173.656L306.344 253.656C307.906 255.219 309.938 256 312 256S316.094 255.219 317.656 253.656C320.781 250.531 320.781 245.469 317.656 242.344L237.656 162.344C234.531 159.219 229.469 159.219 226.344 162.344ZM189.656 210.344C186.531 207.219 181.469 207.219 178.344 210.344S175.219 218.531 178.344 221.656L258.344 301.656C259.906 303.219 261.938 304 264 304S268.094 303.219 269.656 301.656C272.781 298.531 272.781 293.469 269.656 290.344L189.656 210.344Z"/></svg>