<svg xmlns="http://www.w3.org/2000/svg" viewBox="0 0 640 512"><!--! Font Awesome Pro 6.4.0 by @fontawesome - https://fontawesome.com License - https://fontawesome.com/license (Commercial License) Copyright 2023 Fonticons, Inc. --><path d="M368 375.4V416H112V173.3L96 160.7V496l-24 0c-4.4 0-8 3.6-8 8s3.6 8 8 8H96h16H368h16 24c4.4 0 8-3.6 8-8s-3.6-8-8-8l-24 0V388.1l-16-12.6zM131.3 25.5c8-6 17.9-9.5 28.7-9.5H320c26.5 0 48 21.5 48 48V212.4L384 225V64c0-35.3-28.7-64-64-64H160c-15.9 0-30.4 5.8-41.6 15.3l12.9 10.2zM576 149.1c0-15.7-6.6-30.7-18.2-41.3L477.4 34.1c-3.3-3-8.3-2.8-11.3 .5s-2.8 8.3 .5 11.3l29.4 27V168c0 30.9 25.1 56 56 56h8V363.9l16 12.6V149.1zM368 432v64H112V432H368zM560 208h-8c-22.1 0-40-17.9-40-40V87.5l35 32.1c8.3 7.6 13 18.3 13 29.5V208zM13 1.7C9.5-1 4.5-.4 1.7 3S-.4 11.5 3 14.3l624 496c3.5 2.7 8.5 2.2 11.2-1.3s2.2-8.5-1.3-11.2L13 1.7z"/></svg>