<svg xmlns="http://www.w3.org/2000/svg" viewBox="0 0 576 512"><!--! Font Awesome Pro 6.4.0 by @fontawesome - https://fontawesome.com License - https://fontawesome.com/license (Commercial License) Copyright 2023 Fonticons, Inc. --><path d="M512 48c26.5 0 48 21.5 48 48V416c0 26.5-21.5 48-48 48H64c-26.5 0-48-21.5-48-48V96c0-26.5 21.5-48 48-48H512zM64 32C28.7 32 0 60.7 0 96V416c0 35.3 28.7 64 64 64H512c35.3 0 64-28.7 64-64V96c0-35.3-28.7-64-64-64H64zM296 160c-4.4 0-8 3.6-8 8V344c0 4.4 3.6 8 8 8s8-3.6 8-8V168c0-4.4-3.6-8-8-8zm72 8v96 80c0 4.4 3.6 8 8 8s8-3.6 8-8V272h80c4.4 0 8-3.6 8-8s-3.6-8-8-8H384V176h96c4.4 0 8-3.6 8-8s-3.6-8-8-8H376c-4.4 0-8 3.6-8 8zM96 256c0-44.2 35.8-80 80-80c19.3 0 37.1 6.9 50.9 18.3c3.4 2.8 8.4 2.3 11.3-1.1s2.3-8.4-1.1-11.3C220.5 168.2 199.2 160 176 160c-53 0-96 43-96 96s43 96 96 96c23.2 0 44.5-8.2 61.1-21.9c1.8-1.5 2.9-3.8 2.9-6.2V256c0-4.4-3.6-8-8-8H160c-4.4 0-8 3.6-8 8s3.6 8 8 8h64v56c-13.4 10-30 16-48 16c-44.2 0-80-35.8-80-80z"/></svg>