<svg xmlns="http://www.w3.org/2000/svg" viewBox="0 0 640 512"><!--! Font Awesome Pro 6.4.0 by @fontawesome - https://fontawesome.com License - https://fontawesome.com/license (Commercial License) Copyright 2023 Fonticons, Inc. --><path d="M111.4 4.9c-1.7-4.1-6.4-6-10.5-4.3s-6 6.4-4.3 10.5l30.5 73.1-82.9-51c-3.8-2.3-8.7-1.1-11 2.6s-1.1 8.7 2.6 11L115.7 96H72C32.2 96 0 128.2 0 168V440c0 39.8 32.2 72 72 72H184c4.4 0 8-3.6 8-8s-3.6-8-8-8H72c-30.9 0-56-25.1-56-56V168c0-30.9 25.1-56 56-56h72 0H248c4.4 0 8-3.6 8-8s-3.6-8-8-8H172.3l79.9-49.2c3.8-2.3 4.9-7.2 2.6-11s-7.2-4.9-11-2.6L161.6 83.8l31.8-72.6c1.8-4-.1-8.8-4.1-10.5s-8.8 .1-10.5 4.1L144.2 83.6 111.4 4.9zM368.1 159.7L417.6 224H392 336c-22.1 0-40-17.9-40-40c0-22.1 18-40 40.2-40c12.5 0 24.4 5.8 32 15.7zM280 184c0 15.7 6.4 29.8 16.8 40H272c-26.5 0-48 21.5-48 48V464c0 26.5 21.5 48 48 48H592c26.5 0 48-21.5 48-48V272c0-26.5-21.5-48-48-48H567.2c10.4-10.2 16.8-24.3 16.8-40c0-31-25.3-56-56.2-56c-17.4 0-34 8.1-44.7 22L432 216.5 380.8 150c-10.7-13.9-27.2-22-44.7-22c-30.9 0-56.2 25-56.2 56zm-8 56h64 56 32V352H240V272c0-17.7 14.3-32 32-32zM240 368H424V496H272c-17.7 0-32-14.3-32-32V368zm384 0v96c0 17.7-14.3 32-32 32H440V368H624zM440 352V240h32 56 64c17.7 0 32 14.3 32 32v80H440zm32-128H446.4l49.5-64.3c7.6-9.9 19.5-15.7 32-15.7c22.1 0 40.2 17.9 40.2 40c0 22.1-17.9 40-40 40H472z"/></svg>