<svg xmlns="http://www.w3.org/2000/svg" viewBox="0 0 576 512"><!--! Font Awesome Pro 6.4.0 by @fontawesome - https://fontawesome.com License - https://fontawesome.com/license (Commercial License) Copyright 2023 Fonticons, Inc. --><path d="M405.1 16c-20.3 0-39.2 10.5-50 27.7L302.4 128H328h80c30.9 0 56-25.1 56-56s-25.1-56-56-56h-2.9zM273.6 128L220.9 43.7C210.1 26.5 191.2 16 170.9 16H168c-30.9 0-56 25.1-56 56s25.1 56 56 56h80 25.6zm14.4-7.1l53.6-85.7C355.3 13.3 379.3 0 405.1 0H408c39.8 0 72 32.2 72 72c0 22.6-10.4 42.8-26.7 56H512c35.3 0 64 28.7 64 64V448c0 35.3-28.7 64-64 64H64c-35.3 0-64-28.7-64-64V192c0-35.3 28.7-64 64-64h58.7C106.4 114.8 96 94.6 96 72c0-39.8 32.2-72 72-72h2.9c25.8 0 49.8 13.3 63.5 35.2L288 120.9zM168 144H64c-26.5 0-48 21.5-48 48v96H560V192c0-26.5-21.5-48-48-48H408 328 305.1l69.1 82.9c2.8 3.4 2.4 8.4-1 11.3s-8.4 2.4-11.3-1L288 148.5l-73.9 88.6c-2.8 3.4-7.9 3.9-11.3 1s-3.9-7.9-1-11.3L270.9 144H248 168zM16 304v96H560V304H16zM560 448V416H16v32c0 26.5 21.5 48 48 48H512c26.5 0 48-21.5 48-48z"/></svg>