<svg xmlns="http://www.w3.org/2000/svg" viewBox="0 0 512 512"><!--! Font Awesome Pro 6.4.0 by @fontawesome - https://fontawesome.com License - https://fontawesome.com/license (Commercial License) Copyright 2023 Fonticons, Inc. --><path d="M371.5 272C440.6 270.1 496 213.5 496 144c0-70.7-57.3-128-128-128c-53.7 0-99.7 33.1-118.7 80H232.2C252 40.1 305.3 0 368 0c79.5 0 144 64.5 144 144c0 79-63.6 143.1-142.3 144l1.8-16zM32.8 144c-9.5 0-16.9 8.3-15.9 17.7L27.2 256H324.7L335 161.7c1-9.5-6.4-17.7-15.9-17.7H32.8zM49.7 460.4C51.9 480.6 69 496 89.4 496h173c20.4 0 37.5-15.4 39.8-35.6L322.9 272H29L49.7 460.4zM1 163.5C-1.1 144.6 13.7 128 32.8 128H319.1c19.1 0 33.9 16.6 31.8 35.5L318.1 462.1C315 490.5 291 512 262.5 512H89.4c-28.6 0-52.5-21.5-55.7-49.9L1 163.5z"/></svg>