<svg xmlns="http://www.w3.org/2000/svg" viewBox="0 0 640 512"><!--! Font Awesome Pro 6.4.0 by @fontawesome - https://fontawesome.com License - https://fontawesome.com/license (Commercial License) Copyright 2023 Fonticons, Inc. --><path d="M16 104c0-30.9 25.1-56 56-56H568c30.9 0 56 25.1 56 56V472c0 4.4 3.6 8 8 8s8-3.6 8-8V104c0-39.8-32.2-72-72-72H72C32.2 32 0 64.2 0 104V472c0 4.4 3.6 8 8 8s8-3.6 8-8V104zm136-8c-4.4 0-8 3.6-8 8v56H72c-4.4 0-8 3.6-8 8s3.6 8 8 8h72v96H72c-4.4 0-8 3.6-8 8s3.6 8 8 8h72v96H72c-4.4 0-8 3.6-8 8s3.6 8 8 8h72v72c0 4.4 3.6 8 8 8s8-3.6 8-8V400h96v72c0 4.4 3.6 8 8 8s8-3.6 8-8V400h96v72c0 4.4 3.6 8 8 8s8-3.6 8-8V400h96v72c0 4.4 3.6 8 8 8s8-3.6 8-8V400h72c4.4 0 8-3.6 8-8s-3.6-8-8-8H496V288h72c4.4 0 8-3.6 8-8s-3.6-8-8-8H496V176h72c4.4 0 8-3.6 8-8s-3.6-8-8-8H496V104c0-4.4-3.6-8-8-8s-8 3.6-8 8v56H384V104c0-4.4-3.6-8-8-8s-8 3.6-8 8v56H272V104c0-4.4-3.6-8-8-8s-8 3.6-8 8v56H160V104c0-4.4-3.6-8-8-8zm8 80h96v96H160V176zm112 0h96v96H272V176zm112 0h96v96H384V176zM160 384V288h96v96H160zm112 0V288h96v96H272zm112 0V288h96v96H384z"/></svg>