<svg xmlns="http://www.w3.org/2000/svg" viewBox="0 0 512 512"><!--! Font Awesome Pro 6.4.0 by @fontawesome - https://fontawesome.com License - https://fontawesome.com/license (Commercial License) Copyright 2023 Fonticons, Inc. --><path d="M511.2 11.6c2-4 .4-8.8-3.6-10.7s-8.8-.4-10.7 3.6L309.6 378.8 50.4 308.8C25 301.9 0 321.1 0 347.4V384v64 24c0 22.1 17.9 40 40 40H226.3c21.2 0 40.6-12 50.1-31L321 391.8 511.2 11.6zM16 456H80c4.4 0 8-3.6 8-8s-3.6-8-8-8H16V392H80c4.4 0 8-3.6 8-8s-3.6-8-8-8H16V347.4c0-15.8 15-27.3 30.3-23.2l256.1 69.2-40.2 80.5c-6.8 13.6-20.6 22.1-35.8 22.1H40c-13.3 0-24-10.7-24-24V456z"/></svg>