<svg xmlns="http://www.w3.org/2000/svg" viewBox="0 0 512 512"><!--! Font Awesome Pro 6.4.0 by @fontawesome - https://fontawesome.com License - https://fontawesome.com/license (Commercial License) Copyright 2023 Fonticons, Inc. --><path d="M104 0c4.4 0 8 3.6 8 8V32h80V8c0-4.4 3.6-8 8-8s8 3.6 8 8V32h96V8c0-4.4 3.6-8 8-8s8 3.6 8 8V32h80V8c0-4.4 3.6-8 8-8s8 3.6 8 8V32 48 80v32 .8c18.3 3.7 32 19.8 32 39.2v72 .8c18.3 3.7 32 19.8 32 39.2v88 .8c18.3 3.7 32 19.8 32 39.2v80c0 22.1-17.9 40-40 40H320 304 208 192 40c-22.1 0-40-17.9-40-40V392c0-19.4 13.7-35.5 32-39.2V352 264c0-19.4 13.7-35.5 32-39.2V224 152c0-19.4 13.7-35.5 32-39.2V112 80 48 32 8c0-4.4 3.6-8 8-8zM208 496h96V464c0-26.5-21.5-48-48-48s-48 21.5-48 48v32zm112 0h80V368H384 304 288 224 208 128 112V496h80V464c0-35.3 28.7-64 64-64s64 28.7 64 64v32zM112 80v32H400V80 48H312 200 112V80zm-8 48c-13.3 0-24 10.7-24 24v72h32 16 32V128H112h-8zm72 0v96h48V192c0-17.7 14.3-32 32-32s32 14.3 32 32v32h48V128H176zm96 64c0-8.8-7.2-16-16-16s-16 7.2-16 16v32h32V192zM128 352h80V320c0-26.5 21.5-48 48-48s48 21.5 48 48v32h80V240H288 272 240 224 128V352zM384 224h16 32V152c0-13.3-10.7-24-24-24h-8H352v96h32zM288 352V320c0-17.7-14.3-32-32-32s-32 14.3-32 32v32h64zM400 240V352h64V264c0-13.3-10.7-24-24-24h-8H400zM80 240H72c-13.3 0-24 10.7-24 24v88h64V240H80zM40 368c-13.3 0-24 10.7-24 24v80c0 13.3 10.7 24 24 24H96V368H48 40zM472 496c13.3 0 24-10.7 24-24V392c0-13.3-10.7-24-24-24h-8H416V496h56z"/></svg>