<svg xmlns="http://www.w3.org/2000/svg" viewBox="0 0 576 512"><!--! Font Awesome Pro 6.4.0 by @fontawesome - https://fontawesome.com License - https://fontawesome.com/license (Commercial License) Copyright 2023 Fonticons, Inc. --><path d="M104 32c4.4 0 8 3.6 8 8V64H448c38.8 0 72.1 23 87.3 56H552c13.3 0 24 10.7 24 24v32c0 13.3-10.7 24-24 24H535.3c-15.2 33-48.5 56-87.3 56H249l-16 64h55V296c0-4.4 3.6-8 8-8s8 3.6 8 8v32 32c0 4.4-3.6 8-8 8s-8-3.6-8-8V336H229L199 455.8C195.5 470 182.7 480 168 480H64c-9.9 0-19.2-4.5-25.2-12.3s-8.2-17.9-5.8-27.5L79.4 254.6C34.3 246.7 0 207.3 0 160c0-53 43-96 96-96V40c0-4.4 3.6-8 8-8zM16 160c0 44.2 35.8 80 80 80H448c33.9 0 62.9-21.1 74.6-50.9c1.2-3.1 4.2-5.1 7.4-5.1h22c4.4 0 8-3.6 8-8V144c0-4.4-3.6-8-8-8H530c-3.3 0-6.3-2-7.4-5.1C510.9 101.1 481.9 80 448 80H96c-44.2 0-80 35.8-80 80zm216.5 96H96l-.5 0-47 188.1c-1.2 4.8-.1 9.8 2.9 13.7s7.7 6.2 12.6 6.2H168c7.3 0 13.7-5 15.5-12.1l49-195.9zM96 144c-8.8 0-16 7.2-16 16s7.2 16 16 16H448c8.8 0 16-7.2 16-16s-7.2-16-16-16H96zM64 160c0-17.7 14.3-32 32-32H448c17.7 0 32 14.3 32 32s-14.3 32-32 32H96c-17.7 0-32-14.3-32-32z"/></svg>