<svg xmlns="http://www.w3.org/2000/svg" viewBox="0 0 576 512"><!--! Font Awesome Pro 6.4.0 by @fontawesome - https://fontawesome.com License - https://fontawesome.com/license (Commercial License) Copyright 2023 Fonticons, Inc. --><path d="M504 32c4.4 0 8 3.6 8 8V64h24c22.1 0 40 17.9 40 40v64c0 22.1-17.9 40-40 40H486.6c-2.1 0-4.2 .8-5.7 2.3L458.3 233c-4.5 4.5-10.6 7-17 7H381.8l-22.9 68.6C353.4 325 338.2 336 320.9 336H237L207 455.8C203.5 470 190.7 480 176 480H64c-9.9 0-19.2-4.5-25.2-12.3s-8.2-17.9-5.8-27.5L73.1 279.8c5-20.2-10.2-39.8-31-39.8H40c-22.1 0-40-17.9-40-40V104C0 81.9 17.9 64 40 64H496V40c0-4.4 3.6-8 8-8zM320.9 320c10.3 0 19.5-6.6 22.8-16.4L364.9 240H261l-20 80h80zM77.8 240c10.1 11.3 14.9 27.3 10.8 43.6L48.5 444.1c-1.2 4.8-.1 9.8 2.9 13.7s7.7 6.2 12.6 6.2H176c7.3 0 13.7-5 15.5-12.1l53-211.9H77.8zM40 80c-13.3 0-24 10.7-24 24v96c0 13.3 10.7 24 24 24H441.4c2.1 0 4.2-.8 5.7-2.3L469.7 199c4.5-4.5 10.6-7 17-7H536c13.3 0 24-10.7 24-24V104c0-13.3-10.7-24-24-24H504 40zm32 48H504c4.4 0 8 3.6 8 8s-3.6 8-8 8H72c-4.4 0-8-3.6-8-8s3.6-8 8-8z"/></svg>