<svg xmlns="http://www.w3.org/2000/svg" viewBox="0 0 640 512"><!--! Font Awesome Pro 6.4.0 by @fontawesome - https://fontawesome.com License - https://fontawesome.com/license (Commercial License) Copyright 2023 Fonticons, Inc. --><path d="M433.5 64.1c-4.3-.8-8.5 2-9.4 6.3l-40 208c-.5 2.3 .2 4.8 1.7 6.6s3.8 2.9 6.2 2.9H624V440c0 4.4 3.6 8 8 8s8-3.6 8-8V72c0-4.4-3.6-8-8-8s-8 3.6-8 8V272H401.7L439.9 73.5c.8-4.3-2-8.5-6.3-9.4zM16 72c0-4.4-3.6-8-8-8s-8 3.6-8 8V248 440c0 4.4 3.6 8 8 8s8-3.6 8-8V256H304V440c0 4.4 3.6 8 8 8s8-3.6 8-8V248 72c0-4.4-3.6-8-8-8s-8 3.6-8 8V240H16V72z"/></svg>