<svg xmlns="http://www.w3.org/2000/svg" viewBox="0 0 384 512"><!--! Font Awesome Pro 6.4.0 by @fontawesome - https://fontawesome.com License - https://fontawesome.com/license (Commercial License) Copyright 2023 Fonticons, Inc. --><path d="M192 16c-8.8 0-16 7.2-16 16V53.2l11.3 1.7c3.1 .5 6.3 .5 9.5 0L208 53.2V32c0-8.8-7.2-16-16-16zM160 50.8V32c0-17.7 14.3-32 32-32s32 14.3 32 32V50.8L347.3 32.4C366.3 29.5 384 44.7 384 64V256c0 19.3-17.7 34.5-36.7 31.6L196.7 265.1c-3.1-.5-6.3-.5-9.5 0L36.7 287.6C17.7 290.5 0 275.3 0 256V64C0 44.7 17.7 29.5 36.7 32.4L160 50.8zM176 291V480c0 8.8 7.2 16 16 16s16-7.2 16-16V291l16 2.4V480c0 17.7-14.3 32-32 32s-32-14.3-32-32V293.4l16-2.4zM16 256c0 9.5 9 17.2 18.4 15.8l150.5-22.6c4.7-.7 9.5-.7 14.2 0l150.5 22.6c9.4 1.4 18.4-6.3 18.4-15.8V64c0-9.5-9-17.2-18.4-15.8L199.1 70.8c-4.7 .7-9.5 .7-14.2 0L34.4 48.2C25 46.8 16 54.5 16 64V256z"/></svg>