<svg xmlns="http://www.w3.org/2000/svg" viewBox="0 0 576 512"><!--! Font Awesome Pro 6.4.0 by @fontawesome - https://fontawesome.com License - https://fontawesome.com/license (Commercial License) Copyright 2023 Fonticons, Inc. --><path d="M168 72.4c0-29 23.5-52.4 52.4-52.4c13.9 0 27.2 5.5 37.1 15.4l23.4 23.4c1.9 1.9 4.4 2.9 7.1 2.9s5.2-1.1 7.1-2.9l23.4-23.4c9.8-9.8 23.2-15.4 37.1-15.4c29 0 52.4 23.5 52.4 52.4v.8c0 13.3-5 26.1-14 35.9L295.4 216.8c-1.9 2.1-4.6 3.2-7.4 3.2s-5.5-1.2-7.4-3.2L182 109.1c-9-9.8-14-22.6-14-35.9v-.8zM220.4 0C180.4 0 148 32.4 148 72.4v.8c0 18.3 6.9 36 19.2 49.5l98.6 107.6c5.7 6.2 13.7 9.7 22.1 9.7s16.4-3.5 22.1-9.7l98.6-107.6C421.1 109.2 428 91.5 428 73.2v-.8C428 32.4 395.6 0 355.6 0c-19.2 0-37.6 7.6-51.2 21.2L288 37.6 271.6 21.2C258.1 7.6 239.6 0 220.4 0zM521.8 340.7c10.7-7.9 25.7-5.6 33.6 5.1s5.6 25.7-5.1 33.6L423.6 472.6C403 487.8 378.1 496 352.5 496H8c-4.4 0-8 3.6-8 8s3.6 8 8 8H352.5c29 0 57.3-9.3 80.7-26.5l126.6-93.3c17.8-13.1 21.6-38.1 8.5-55.9s-38.1-21.6-55.9-8.5L394.7 414.4c-1.4 1-3 1.6-4.7 1.6H268c-6.6 0-12-5.4-12-12s5.4-12 12-12h80c19.9 0 36-16.1 36-36s-16.1-36-36-36H193.7c-29.1 0-57.3 9.9-80 28L71 382.2c-1.4 1.1-3.2 1.8-5 1.8H8c-4.4 0-8 3.6-8 8s3.6 8 8 8H66c5.4 0 10.7-1.9 15-5.3l42.7-34.2c19.9-15.9 44.5-24.5 70-24.5H348c11 0 20 9 20 20s-9 20-20 20H268c-15.5 0-28 12.5-28 28s12.5 28 28 28H389.9c5.1 0 10.1-1.6 14.2-4.7l117.6-86.6z"/></svg>