<svg xmlns="http://www.w3.org/2000/svg" viewBox="0 0 512 512"><!--! Font Awesome Pro 6.4.0 by @fontawesome - https://fontawesome.com License - https://fontawesome.com/license (Commercial License) Copyright 2023 Fonticons, Inc. --><path d="M264 16c17.7 0 32 14.3 32 32l0 24v8V248c0 4.4 3.6 8 8 8s8-3.6 8-8V80c0-17.7 14.3-32 32-32s32 14.3 32 32v56 8 56 48c0 4.4 3.6 8 8 8s8-3.6 8-8V200 144c0-17.7 14.3-32 32-32s32 14.3 32 32V344c0 83.9-68.1 152-152 152h-8.5c-59.4 0-116.4-23.6-158.4-65.6L25.4 318.6c-12.5-12.5-12.5-32.8 0-45.3s32.8-12.5 45.3 0l67.7 67.7c2.3 2.3 5.7 3 8.7 1.7s4.9-4.2 4.9-7.4V80c0-17.7 14.3-32 32-32s32 14.3 32 32l0 0V248c0 4.4 3.6 8 8 8s8-3.6 8-8V72l0 0V48c0-17.7 14.3-32 32-32zm47.9 28.3C310 19.5 289.3 0 264 0s-46 19.5-47.9 44.3C207.6 36.7 196.4 32 184 32c-26.5 0-48 21.5-48 48V316.1L81.9 262.1c-18.7-18.7-49.1-18.7-67.9 0s-18.7 49.1 0 67.9L125.8 441.7c45 45 106.1 70.3 169.7 70.3H304c92.8 0 168-75.2 168-168V144c0-26.5-21.5-48-48-48c-12.3 0-23.5 4.6-32 12.2V80c0-26.5-21.5-48-48-48c-12.4 0-23.6 4.7-32.1 12.3zM208 348a12 12 0 1 0 0-24 12 12 0 1 0 0 24zm64 32a12 12 0 1 0 0-24 12 12 0 1 0 0 24zm140-12a12 12 0 1 0 -24 0 12 12 0 1 0 24 0zm-44 76a12 12 0 1 0 0-24 12 12 0 1 0 0 24zm-84-12a12 12 0 1 0 -24 0 12 12 0 1 0 24 0zM176 412a12 12 0 1 0 0-24 12 12 0 1 0 0 24zm172-76a12 12 0 1 0 -24 0 12 12 0 1 0 24 0z"/></svg>