<svg xmlns="http://www.w3.org/2000/svg" viewBox="0 0 543 512"><!--! Font Awesome Pro 6.4.0 by @fontawesome - https://fontawesome.com License - https://fontawesome.com/license (Commercial License) Copyright 2023 Fonticons, Inc. --><path d="M247.4 34.7l7.2-2.1v0l-7.2 2.1zM200.8 9l2.1 7.2h0L200.8 9zM362.9 66.7l7.3 1.7v0l-7.3-1.7zm45.3-28L406.4 46l1.7-7.3zm28 45.3l-7.3-1.7h0l7.3 1.7zm-5.4 42.3l-7.3-1.9 7.3 1.9zm45.8-27.2l-1.9 7.3 1.9-7.3zm27.2 45.8l-7.3-1.9v0l7.3 1.9zM444.4 377.1l-7.3-1.9 7.3 1.9zM318.2 475.4v-7.5h0l0 7.5zm-.3 0l0 7.5 0 0 0-7.5zm-.3 0l0-7.5h0v7.5zm-158.9-52l-4.9 5.7 4.9-5.7zm-105.8-90l4.9-5.7h0l-4.9 5.7zm-4.3-53.1l-5.7-4.9h0l5.7 4.9zm53.1-4.3l-4.9 5.7h0l4.9-5.7zm13.5-144.5l-7.2 2.2 7.2-2.2zM187 109.3l7.2-2.2h0l-7.2 2.2zM175.1 55.6l-7.2 2.1 7.2-2.1zm58.4 201.8l-7.2 2.1 7.2-2.1zm-.6 .2l7.2-2.2-7.2 2.2zm-72 68.9l-4.9 5.7 4.9-5.7zm12.1-8l-7.2 2.2 7.2-2.2zm138.3-63.4l-7.2 2.1 7.2-2.1zm8.5 220.3l-.1-7.5 .1 7.5zm77.7-218.3l7.3 1.9-7.3-1.9zm-78.8-2.2l7.3 1.7-7.3-1.7zm76.9 1.8l7.3 1.7-7.3-1.7zM254.7 32.6c-6.9-24-32-37.8-56-30.8l4.2 14.5c16-4.6 32.7 4.6 37.3 20.6l14.5-4.2zM318.5 253L254.7 32.6l-14.5 4.2L304 257.2l14.5-4.2zm37.1-188L311.2 253.2l14.7 3.4L370.2 68.4l-14.7-3.4zm54.3-33.6c-24.3-5.7-48.6 9.3-54.3 33.6l14.7 3.4c3.8-16.2 20-26.2 36.2-22.4l3.5-14.7zm33.6 54.3c5.7-24.3-9.3-48.6-33.6-54.3L406.4 46c16.2 3.8 26.2 20 22.4 36.2l14.7 3.4zM402.8 258.4L443.5 85.6l-14.7-3.4L388.2 254.9l14.7 3.4zm20.7-134L390.1 255.2l14.6 3.7 33.4-130.9-14.6-3.7zm55-32.6c-24.2-6.2-48.8 8.4-55 32.6l14.6 3.7c4.1-16.1 20.5-25.8 36.6-21.7l3.7-14.6zm32.6 55c6.2-24.2-8.4-48.8-32.6-55l-3.7 14.6c16.1 4.1 25.8 20.5 21.7 36.6l14.6 3.7zM451.7 378.9L511 146.7 496.4 143 437.1 375.2l14.6 3.7zm-131.9 104c62.3-.9 116.5-43.4 131.9-104l-14.6-3.7c-13.8 54-62 91.9-117.6 92.6l.2 15.1zm-1.6 0h1.5V467.9h-1.5v15.1zm-.3 0l.3 0 0-15.1-.3 0 0 15.1zm-.4 0l.3 0 0-15.1-.3 0 0 15.1zm-17.4 0h17.4V467.9H300.1v15.1zM153.8 429.1c40.8 34.7 92.7 53.8 146.3 53.8V467.9c-50 0-98.4-17.8-136.5-50.2l-9.8 11.5zm-105.8-90l105.8 90 9.8-11.5-105.8-90-9.8 11.5zm-5.2-63.7c-16.2 19-13.8 47.5 5.2 63.7l9.8-11.5c-12.7-10.8-14.2-29.8-3.4-42.5l-11.5-9.8zm63.7-5.2c-19-16.2-47.5-13.8-63.7 5.2l11.5 9.8C65 272.6 84 271 96.7 281.8l9.8-11.5zm59.3 50.4l-59.3-50.4-9.8 11.5L156 332.2l9.8-11.5zM107.9 133.8l57.9 186.9 14.4-4.5L122.3 129.4l-14.4 4.5zm29.8-56.5c-23.8 7.4-37.2 32.7-29.8 56.5l14.4-4.5c-4.9-15.9 4-32.8 19.9-37.7l-4.5-14.4zm56.5 29.8c-7.4-23.8-32.7-37.2-56.5-29.8l4.5 14.4c15.9-4.9 32.8 4 37.7 19.9l14.4-4.5zm45.9 148.3L194.2 107.1l-14.4 4.5 45.9 148.3 14.4-4.5zM167.9 57.7l58.4 201.8 14.5-4.2L182.3 53.6l-14.5 4.2zm30.8-56c-24 6.9-37.8 32-30.8 56l14.5-4.2c-4.6-16 4.6-32.7 20.6-37.3L198.7 1.8zm34.5 263.6c5.2 0 9-5 7.5-10l-14.5 4.2c-1.3-4.6 2.1-9.2 6.9-9.2v15.1zm-7.5-5.5c1 3.3 4.1 5.5 7.5 5.5V250.3c3.2 0 6 2.1 6.9 5.1l-14.4 4.5zM156 332.2c11.5 9.8 28.6-1.5 24.1-15.9l-14.4 4.5 0 0L156 332.2zm148-75.1c1.4 4.8 5.8 8.2 10.9 8.2V250.3c1.7 0 3.1 1.1 3.6 2.7L304 257.2zm15.6 210.7c-4.1 .1-7.4 3.4-7.4 7.5h15.1c0 4.2-3.3 7.5-7.4 7.5l-.2-15.1zm76.9-202.5c3.9 0 7.3-2.6 8.2-6.4l-14.6-3.7c.7-2.9 3.4-4.9 6.4-4.9v15.1zm-84.3 210c0-4.2 3.4-7.5 7.5-7.5v15.1c4.2 0 7.5-3.4 7.5-7.5H312.1zm2.7-210c5.3 0 9.8-3.6 11-8.7l-14.7-3.4c.4-1.7 1.9-2.9 3.6-2.9v15.1zm73.3-10.4c-1.3 5.3 2.8 10.4 8.3 10.4V250.3c4.2 0 7.4 4 6.4 8.1l-14.7-3.4z"/></svg>