<svg xmlns="http://www.w3.org/2000/svg" viewBox="0 0 640 512"><!--! Font Awesome Pro 6.4.0 by @fontawesome - https://fontawesome.com License - https://fontawesome.com/license (Commercial License) Copyright 2023 Fonticons, Inc. --><path d="M200 72.4c0-29 23.5-52.4 52.4-52.4c13.9 0 27.2 5.5 37.1 15.4l23.4 23.4c1.9 1.9 4.4 2.9 7.1 2.9s5.2-1.1 7.1-2.9l23.4-23.4c9.8-9.8 23.2-15.4 37.1-15.4c29 0 52.4 23.5 52.4 52.4v.8c0 13.3-5 26.1-14 35.9L327.4 216.8c-1.9 2.1-4.6 3.2-7.4 3.2s-5.5-1.2-7.4-3.2L214 109.1c-9-9.8-14-22.6-14-35.9v-.8zM252.4 0C212.4 0 180 32.4 180 72.4v.8c0 18.3 6.9 36 19.2 49.5l98.6 107.6c5.7 6.2 13.7 9.7 22.1 9.7s16.4-3.5 22.1-9.7l98.6-107.6C453.1 109.2 460 91.5 460 73.2v-.8C460 32.4 427.6 0 387.6 0c-19.2 0-37.6 7.6-51.2 21.2L320 37.6 303.6 21.2C290.1 7.6 271.6 0 252.4 0zM96 112c0-26.5-21.5-48-48-48S0 85.5 0 112V344.2c0 27.6 11 54 30.5 73.5l91.9 91.9c3.1 3.1 8.2 3.1 11.3 0s3.1-8.2 0-11.3L41.8 406.5C25.3 390 16 367.6 16 344.2V112c0-17.7 14.3-32 32-32s32 14.3 32 32V259c0 20.7 8.2 40.6 22.9 55.2l19.5 19.5 55.9 55.9 0 0 8 8c3.1 3.1 8.2 3.1 11.3 0s3.1-8.2 0-11.3l-8-8 0 0-55.9-55.9 0 0c-10.6-10.6-11.3-27.6-1.5-39.1c10.9-12.7 30.3-13.5 42.2-1.6l92.8 92.7c13.3 13.3 20.8 31.4 20.8 50.3V504c0 4.4 3.6 8 8 8s8-3.6 8-8V424.8c0-23.1-9.2-45.3-25.5-61.6l-92.8-92.8c-18.4-18.4-48.7-17.3-65.6 2.5c-6.2 7.2-9.7 15.9-10.6 24.7C100.8 286.7 96 273.1 96 259V112zM592 64c-26.5 0-48 21.5-48 48V259c0 14.1-4.8 27.8-13.5 38.7c-.9-8.8-4.4-17.5-10.6-24.7c-17-19.8-47.2-21-65.6-2.5l-92.7 92.8c-16.3 16.3-25.5 38.5-25.5 61.6V504c0 4.4 3.6 8 8 8s8-3.6 8-8V424.8c0-18.9 7.5-37 20.8-50.3l92.8-92.7c11.8-11.9 31.3-11.1 42.2 1.6c9.8 11.4 9.1 28.4-1.5 39.1l0 0-55.9 55.9 0 0-8 8c-3.1 3.1-3.1 8.2 0 11.3s8.2 3.1 11.3 0l8-8 55.9-55.9 19.5-19.5C551.8 299.5 560 279.7 560 259V112c0-17.7 14.3-32 32-32s32 14.3 32 32V344.2c0 23.3-9.3 45.7-25.8 62.2l-91.9 91.9c-3.1 3.1-3.1 8.2 0 11.3s8.2 3.1 11.3 0l91.9-91.9c19.5-19.5 30.5-46 30.5-73.5V112c0-26.5-21.5-48-48-48z"/></svg>