<svg xmlns="http://www.w3.org/2000/svg" viewBox="0 0 448 512"><!--! Font Awesome Pro 6.4.0 by @fontawesome - https://fontawesome.com License - https://fontawesome.com/license (Commercial License) Copyright 2023 Fonticons, Inc. --><path d="M156 0c-28.7 0-52 23.3-52 52V64H32c-3.1 0-5.9 1.8-7.2 4.5s-1 6.1 1 8.5l28 35-28 35c-1.9 2.4-2.3 5.7-1 8.5s4.1 4.5 7.2 4.5h72v80 9.6c-6 3.7-11.8 7.8-17.3 12.5L57.5 286.7C41.3 300.4 32 320.5 32 341.7v24c0 48.8 26.2 93.9 68.5 118.1l18 10.3C139.1 505.8 162.3 512 186 512H328c57.4 0 104-46.6 104-104V392 308v-4c0-.8-.1-1.5-.3-2.2C428.5 271.5 403 248 372 248c-3.6 0-7.1 .3-10.5 .9C351.7 229.4 331.4 216 308 216c-6.1 0-12 .9-17.6 2.6C280.8 198.2 260.1 184 236 184c-10.1 0-19.6 2.5-28 6.9V152 72 52c0-28.7-23.3-52-52-52zm36 64H120V52c0-19.9 16.1-36 36-36s36 16.1 36 36V64zm0 16v64H48.6l21.6-27c2.3-2.9 2.3-7.1 0-10L48.6 80H192zm0 80v46.5c0 3.2 1.9 6.1 4.9 7.4s6.4 .6 8.7-1.6c7.9-7.6 18.6-12.2 30.5-12.2c19.9 0 36.7 13.2 42.1 31.3c.7 2.2 2.3 4.1 4.4 5s4.6 .9 6.7-.1c5.7-2.7 12-4.2 18.8-4.2c19 0 35.2 12.1 41.4 29c1.5 4 5.8 6.2 9.8 4.9c4-1.2 8.3-1.9 12.8-1.9c23.1 0 42.1 17.9 43.9 40.6c0 .3 .1 .6 .1 1V308v84 16c0 48.6-39.4 88-88 88H186c-20.9 0-41.4-5.4-59.5-15.8l-18-10.3C71.1 448.5 48 408.8 48 365.7v-24c0-16.5 7.3-32.1 19.8-42.7L97 274.2c2.3-1.9 4.6-3.7 7-5.5V344c0 4.4 3.6 8 8 8s8-3.6 8-8V254.2 240 160h72z"/></svg>