<svg xmlns="http://www.w3.org/2000/svg" viewBox="0 0 384 512"><!--! Font Awesome Pro 6.4.0 by @fontawesome - https://fontawesome.com License - https://fontawesome.com/license (Commercial License) Copyright 2023 Fonticons, Inc. --><path d="M64 48c0-17.7 14.3-32 32-32s32 14.3 32 32V200v56H72c-2.7 0-5.4 .1-8 .4V48zm64 224v0h16v0h32c17.7 0 32 14.3 32 32s-14.3 32-32 32H104c-4.4 0-8 3.6-8 8s3.6 8 8 8h72c18.5 0 34.6-10.5 42.6-25.9C227.4 337 240.9 344 256 344c26.5 0 48-21.5 48-48V272 232 112c0-17.7 14.3-32 32-32s32 14.3 32 32V280v64 16c0 75.1-60.9 136-136 136H152C76.9 496 16 435.1 16 360V328c0-30.9 25.1-56 56-56h56zm16-16V200c0-17.7 14.3-32 32-32s32 14.3 32 32v31.9c0 0 0 0 0 .1v36.2c-8.5-7.6-19.7-12.2-32-12.2H144zm0-91.8V48c0-26.5-21.5-48-48-48S48 21.5 48 48V260.1C20 270 0 296.7 0 328v32c0 83.9 68.1 152 152 152h80c83.9 0 152-68.1 152-152V344 280 112c0-26.5-21.5-48-48-48s-48 21.5-48 48v84.2c-8.5-7.6-19.7-12.2-32-12.2c-12.4 0-23.6 4.7-32.1 12.3C222 171.5 201.3 152 176 152c-12.3 0-23.5 4.6-32 12.2zM224 272V232c0-17.7 14.3-32 32-32c17.7 0 32 14.3 32 32v40 24c0 17.7-14.3 32-32 32s-32-14.3-32-32l0-24z"/></svg>