<svg xmlns="http://www.w3.org/2000/svg" viewBox="0 0 512 512"><!--! Font Awesome Pro 6.4.0 by @fontawesome - https://fontawesome.com License - https://fontawesome.com/license (Commercial License) Copyright 2023 Fonticons, Inc. --><path d="M192 16c-17.7 0-32 14.3-32 32V335.4c0 3.2-1.9 6.2-4.9 7.4s-6.4 .6-8.7-1.7L86.6 281.4c-12.5-12.5-32.8-12.5-45.3 0s-12.5 32.8 0 45.3L145.1 430.4c42 42 99 65.6 158.4 65.6H312c81.4 0 147.9-64 151.8-144.4c0-.5 .1-.9 .2-1.4V344 112c0-17.7-14.3-32-32-32s-32 14.3-32 32v72 56 64c0 26.5-21.5 48-48 48c-16.7 0-31.4-8.5-40-21.5c-8.6 12.9-23.3 21.5-40 21.5c-26.5 0-48-21.5-48-48l0-96.1L224 88l0 0V48c0-17.7-14.3-32-32-32zM304 304V240 216l0-8c0-17.7-14.3-32-32-32c-17.6 0-32 14.3-32 31.9V304c0 17.7 14.3 32 32 32s32-14.3 32-32zm16-64v64c0 17.7 14.3 32 32 32s32-14.3 32-32V240c0-17.7-14.3-32-32-32s-32 14.3-32 32zm64-35.8V184 112c0-26.5 21.5-48 48-48s48 21.5 48 48V344v8c0 .8-.1 1.5-.3 2.2C474.4 442.2 401.4 512 312 512h-8.5c-63.7 0-124.7-25.3-169.7-70.3L30.1 337.9c-18.7-18.7-18.7-49.1 0-67.9s49.1-18.7 67.9 0L144 316.1V48c0-26.5 21.5-48 48-48s48 21.5 48 48l0 40 0 84.2c8.5-7.6 19.7-12.2 32-12.2c25.3 0 46 19.5 47.9 44.3c8.5-7.7 19.8-12.3 32.1-12.3c12.3 0 23.5 4.6 32 12.2z"/></svg>