<svg xmlns="http://www.w3.org/2000/svg" viewBox="0 0 384 512"><!--! Font Awesome Pro 6.4.0 by @fontawesome - https://fontawesome.com License - https://fontawesome.com/license (Commercial License) Copyright 2023 Fonticons, Inc. --><path d="M64 464c0 17.7 14.3 32 32 32s32-14.3 32-32V312 256H72c-2.7 0-5.4-.1-8-.4V464zm64-224v0h16v0h32c17.7 0 32-14.3 32-32s-14.3-32-32-32H104c-4.4 0-8-3.6-8-8s3.6-8 8-8h72c18.5 0 34.6 10.5 42.6 25.9C227.4 175 240.9 168 256 168s28.6 7 37.4 17.9c8-15.4 24.1-25.9 42.6-25.9c12.3 0 23.5 4.6 32 12.2V152c0-75.1-60.9-136-136-136H152C76.9 16 16 76.9 16 152v32c0 30.9 25.1 56 56 56h56zm16 16v56c0 17.7 14.3 32 32 32s32-14.3 32-32V280.1c0 0 0 0 0-.1V243.8c-8.5 7.6-19.7 12.2-32 12.2H144zm0 91.8V464c0 26.5-21.5 48-48 48s-48-21.5-48-48V251.9C20 242 0 215.3 0 184V152C0 68.1 68.1 0 152 0h80c83.9 0 152 68.1 152 152v56 24 32c0 26.5-21.5 48-48 48c-13.8 0-26.3-5.8-35-15.2C294.2 315 276.6 328 256 328c-12.4 0-23.6-4.7-32.1-12.3C222 340.5 201.3 360 176 360c-12.3 0-23.5-4.6-32-12.2zM224 240v40c0 17.7 14.3 32 32 32c17.7 0 32-14.3 32-32V264 216c0-17.7-14.3-32-32-32s-32 14.3-32 32l0 24zm144-8V208c0-17.7-14.3-32-32-32s-32 14.3-32 32v8 48c0 17.7 14.3 32 32 32s32-14.3 32-32V232z"/></svg>