<svg xmlns="http://www.w3.org/2000/svg" viewBox="0 0 448 512"><!--! Font Awesome Pro 6.4.0 by @fontawesome - https://fontawesome.com License - https://fontawesome.com/license (Commercial License) Copyright 2023 Fonticons, Inc. --><path d="M200 52c0-19.9 16.1-36 36-36s36 16.1 36 36V232.2c0 2.9 1.6 5.6 4.2 7s5.7 1.3 8.2-.3c6.8-4.4 15-6.9 23.7-6.9c19 0 35.2 12.1 41.4 29c1.5 4 5.8 6.2 9.8 4.9c4-1.2 8.3-1.9 12.8-1.9c23.1 0 42.1 17.9 43.9 40.6c0 .3 .1 .6 .1 1V308v84 16c0 48.6-39.4 88-88 88H186c-20.9 0-41.4-5.4-59.5-15.8l-18-10.3C71.1 448.5 48 408.8 48 365.7v-24c0-16.5 7.3-32.1 19.8-42.7L97 274.2c2.3-1.9 4.6-3.7 7-5.5V344c0 4.4 3.6 8 8 8s8-3.6 8-8V256c0-.3 0-.6-.1-.9c0-.3 .1-.6 .1-.9V252c0-24.3 19.7-44 44-44c8.7 0 16.9 2.5 23.7 6.9c2.5 1.6 5.6 1.7 8.2 .3s4.2-4.1 4.2-7V52zM236 0c-28.7 0-52 23.3-52 52V195.4c-6.3-2.2-13-3.4-20-3.4c-32.3 0-58.7 25.5-60 57.5c-6.1 3.7-11.9 7.8-17.4 12.5L57.5 286.7C41.3 300.4 32 320.5 32 341.7v24c0 48.8 26.2 93.9 68.5 118.1l18 10.3C139.1 505.8 162.3 512 186 512H328c57.4 0 104-46.6 104-104V392 308v-4c0-.8-.1-1.5-.3-2.2C428.5 271.5 403 248 372 248c-3.6 0-7.1 .3-10.5 .9C351.7 229.4 331.4 216 308 216c-7 0-13.7 1.2-20 3.4V52c0-28.7-23.3-52-52-52z"/></svg>