<svg xmlns="http://www.w3.org/2000/svg" viewBox="0 0 576 512"><!--! Font Awesome Pro 6.4.0 by @fontawesome - https://fontawesome.com License - https://fontawesome.com/license (Commercial License) Copyright 2023 Fonticons, Inc. --><path d="M555.3 345.8c-7.9-10.7-22.9-12.9-33.6-5.1L404.2 427.3c-4.1 3-9.1 4.7-14.2 4.7H268c-15.5 0-28-12.5-28-28s12.5-28 28-28h80c11 0 20-9 20-20s-9-20-20-20H193.7c-25.4 0-50.1 8.7-70 24.5L81 394.7c-4.3 3.4-9.5 5.3-15 5.3H8c-4.4 0-8-3.6-8-8s3.6-8 8-8H66c1.8 0 3.6-.6 5-1.8L113.7 348c22.7-18.2 50.9-28 80-28H348c19.9 0 36 16.1 36 36s-16.1 36-36 36H268c-6.6 0-12 5.4-12 12s5.4 12 12 12H389.9c1.7 0 3.4-.5 4.7-1.6l117.6-86.6 0 0c17.8-13.1 42.8-9.3 55.9 8.5s9.3 42.8-8.5 55.9L433.1 485.5c-23.4 17.2-51.6 26.5-80.7 26.5H8c-4.4 0-8-3.6-8-8s3.6-8 8-8H352.5c25.6 0 50.6-8.2 71.2-23.4l126.6-93.3c10.7-7.9 12.9-22.9 5.1-33.6z"/></svg>