<svg xmlns="http://www.w3.org/2000/svg" viewBox="0 0 512 512"><!--! Font Awesome Pro 6.4.0 by @fontawesome - https://fontawesome.com License - https://fontawesome.com/license (Commercial License) Copyright 2023 Fonticons, Inc. --><path d="M48 128c-17.7 0-32 14.3-32 32s14.3 32 32 32l152 0h56l0-56c0-2.7 .1-5.4 .4-8L48 128zm224 64h0v16h0v32c0 17.7 14.3 32 32 32s32-14.3 32-32V168c0-4.4 3.6-8 8-8s8 3.6 8 8v72c0 18.5-10.5 34.6-25.9 42.6C337 291.4 344 304.9 344 320s-7 28.6-17.9 37.4c15.4 8 25.9 24.1 25.9 42.6c0 12.3-4.6 23.5-12.2 32H360c75.1 0 136-60.9 136-136l0-80c0-75.1-60.9-136-136-136H328c-30.9 0-56 25.1-56 56v56zm-16 16H200c-17.7 0-32 14.3-32 32s14.3 32 32 32h31.9c0 0 0 0 .1 0h36.2c-7.6-8.5-12.2-19.7-12.2-32V208zm-91.8 0L48 208c-26.5 0-48-21.5-48-48s21.5-48 48-48l212.1 0C270 84 296.7 64 328 64l32 0c83.9 0 152 68.1 152 152l0 80c0 83.9-68.1 152-152 152H304 280 248c-26.5 0-48-21.5-48-48c0-13.8 5.8-26.3 15.2-35C197 358.2 184 340.6 184 320c0-12.4 4.7-23.6 12.3-32.1C171.5 286 152 265.3 152 240c0-12.3 4.6-23.5 12.2-32zM272 288H232c-17.7 0-32 14.3-32 32c0 17.7 14.3 32 32 32h16 48c17.7 0 32-14.3 32-32s-14.3-32-32-32l-24 0zm8 144h24c17.7 0 32-14.3 32-32s-14.3-32-32-32h-8H248c-17.7 0-32 14.3-32 32s14.3 32 32 32h32z"/></svg>