<svg xmlns="http://www.w3.org/2000/svg" viewBox="0 0 448 512"><!--! Font Awesome Pro 6.4.0 by @fontawesome - https://fontawesome.com License - https://fontawesome.com/license (Commercial License) Copyright 2023 Fonticons, Inc. --><path d="M169.7 32.2c4.3 1 7 5.2 6.1 9.5L153.1 144H328.7L352.2 38.3c1-4.3 5.2-7 9.5-6.1s7 5.2 6.1 9.5L345.1 144H440c4.4 0 8 3.6 8 8s-3.6 8-8 8H341.5L298.9 352H408c4.4 0 8 3.6 8 8s-3.6 8-8 8H295.3L271.8 473.7c-1 4.3-5.2 7-9.5 6.1s-7-5.2-6.1-9.5L278.9 368H103.3L79.8 473.7c-1 4.3-5.2 7-9.5 6.1s-7-5.2-6.1-9.5L86.9 368H8c-4.4 0-8-3.6-8-8s3.6-8 8-8H90.5l42.7-192H40c-4.4 0-8-3.6-8-8s3.6-8 8-8h96.7L160.2 38.3c1-4.3 5.2-7 9.5-6.1zM149.5 160L106.9 352H282.5l42.7-192H149.5z"/></svg>