<svg xmlns="http://www.w3.org/2000/svg" viewBox="0 0 576 512"><!--! Font Awesome Pro 6.4.0 by @fontawesome - https://fontawesome.com License - https://fontawesome.com/license (Commercial License) Copyright 2023 Fonticons, Inc. --><path d="M169.7 32.2c4.3 1 7 5.2 6.1 9.5L153.1 144H328.7L352.2 38.3c1-4.3 5.2-7 9.5-6.1s7 5.2 6.1 9.5L345.1 144H440c4.4 0 8 3.6 8 8s-3.6 8-8 8H341.5L298.9 352H320v0 16H295.3L271.8 473.7c-1 4.3-5.2 7-9.5 6.1s-7-5.2-6.1-9.5L278.9 368H103.3L79.8 473.7c-1 4.3-5.2 7-9.5 6.1s-7-5.2-6.1-9.5L86.9 368H8c-4.4 0-8-3.6-8-8s3.6-8 8-8H90.5l42.7-192H40c-4.4 0-8-3.6-8-8s3.6-8 8-8h96.7L160.2 38.3c1-4.3 5.2-7 9.5-6.1zM149.5 160L106.9 352H282.5l42.7-192H149.5zM464 208c-26.5 0-48 21.5-48 48v64h96V256c0-26.5-21.5-48-48-48zm-64 48c0-35.3 28.7-64 64-64s64 28.7 64 64v64h16c17.7 0 32 14.3 32 32V480c0 17.7-14.3 32-32 32H384c-17.7 0-32-14.3-32-32V352c0-17.7 14.3-32 32-32h16V256zm-16 80c-8.8 0-16 7.2-16 16V480c0 8.8 7.2 16 16 16H544c8.8 0 16-7.2 16-16V352c0-8.8-7.2-16-16-16H528 512 416 400 384z"/></svg>