<svg xmlns="http://www.w3.org/2000/svg" viewBox="0 0 512 512"><!--! Font Awesome Pro 6.4.0 by @fontawesome - https://fontawesome.com License - https://fontawesome.com/license (Commercial License) Copyright 2023 Fonticons, Inc. --><path d="M442.7 368L371.6 208.1c-2.4-5.4-3.6-11.1-3.6-17c0-4.7 .8-9.4 2.4-13.8l52.5-150c.8-2.2 1.2-4.5 1.2-6.8V19c0-10.5-8.5-19-19-19c-3.3 0-6.5 .9-9.4 2.5l-165 94.3c-35.5 20.3-63.6 51.4-80.2 88.7L69.3 368H86.8l78.2-176c15.2-34.2 41-62.7 73.5-81.3l165-94.3c.4-.3 1-.4 1.5-.4c1.6 0 3 1.3 3 3v1.5c0 .5-.1 1-.3 1.5l15.1 5.3L407.7 22 355.2 172c-2.2 6.1-3.2 12.6-3.2 19.1c0 8.1 1.7 16.1 5 23.5L425.2 368h17.5zM456 416c22.1 0 40 17.9 40 40s-17.9 40-40 40H56c-22.1 0-40-17.9-40-40s17.9-40 40-40H456zM56 400c-30.9 0-56 25.1-56 56s25.1 56 56 56H456c30.9 0 56-25.1 56-56s-25.1-56-56-56H56zM280 144c0-4.4-3.6-8-8-8s-8 3.6-8 8v24H240c-4.4 0-8 3.6-8 8s3.6 8 8 8h24v24c0 4.4 3.6 8 8 8s8-3.6 8-8V184h24c4.4 0 8-3.6 8-8s-3.6-8-8-8H280V144zM232 272c0-4.4-3.6-8-8-8s-8 3.6-8 8v40H176c-4.4 0-8 3.6-8 8s3.6 8 8 8h40v40h16V328h40c4.4 0 8-3.6 8-8s-3.6-8-8-8H232V272z"/></svg>