<svg xmlns="http://www.w3.org/2000/svg" viewBox="0 0 512 512"><!--! Font Awesome Pro 6.4.0 by @fontawesome - https://fontawesome.com License - https://fontawesome.com/license (Commercial License) Copyright 2023 Fonticons, Inc. --><path d="M16 288C16 155.4 123.5 48 256 48s240 107.4 240 240c-14.6-19.4-37.8-32-64-32c-26.5 0-48 21.5-48 48V432c0 26.5 21.5 48 48 48c44.2 0 80-35.8 80-80V368 336 288C512 146.6 397.4 32 256 32S0 146.6 0 288v48 32 32c0 44.2 35.8 80 80 80c26.5 0 48-21.5 48-48V304c0-26.5-21.5-48-48-48c-26.2 0-49.4 12.6-64 32zm0 48c0-35.3 28.7-64 64-64c17.7 0 32 14.3 32 32V432c0 17.7-14.3 32-32 32c-35.3 0-64-28.7-64-64V368 336zm480 0v32 32c0 35.3-28.7 64-64 64c-17.7 0-32-14.3-32-32V304c0-17.7 14.3-32 32-32c35.3 0 64 28.7 64 64z"/></svg>