<svg xmlns="http://www.w3.org/2000/svg" viewBox="0 0 512 512"><!--! Font Awesome Pro 6.4.0 by @fontawesome - https://fontawesome.com License - https://fontawesome.com/license (Commercial License) Copyright 2023 Fonticons, Inc. --><path d="M16 224H0c.2 52.4 17.1 100.7 47.4 138.8C57.5 375.5 64 390.2 64 405.3V504c0 4.4 3.6 8 8 8s8-3.6 8-8V405.3c0-19.8-8.5-37.8-20.1-52.4C32 317.7 16.2 273 16 224zM39.1 96.8C16.8 101 0 120.5 0 144c0 26.5 21.5 48 48 48H222.2c15.7 24.1 42.9 40 73.8 40H408h64c22.1 0 40-17.9 40-40V96c0-22.1-17.9-40-40-40H408 378.4C342 21.4 292.3 0 239.7 0H222.9C146.6 0 79.2 38.3 39.1 96.8zM59.5 96c37.9-48.7 97-80 163.5-80h16.8C282 16 322.2 31 354 56H296c-30.9 0-58.1 15.9-73.8 40H59.5zM490.1 256c3.8 5.8 5.9 12.7 5.9 19.8c0 20-16.2 36.2-36.2 36.2H440c-4.4 0-8 3.6-8 8v72c0 22.1-17.9 40-40 40H312c-4.4 0-8 3.6-8 8v64c0 4.4 3.6 8 8 8s8-3.6 8-8V448h72c30.9 0 56-25.1 56-56V328h11.8c28.8 0 52.2-23.4 52.2-52.2c0-6.9-1.4-13.6-3.9-19.8h-18zM296 72H400V216H296c-39.8 0-72-32.2-72-72s32.2-72 72-72zM416 216V72h56c13.3 0 24 10.7 24 24v96c0 13.3-10.7 24-24 24H416zM208 144c0 11.3 2.1 22.1 6 32H48c-17.7 0-32-14.3-32-32s14.3-32 32-32H214c-3.9 9.9-6 20.7-6 32z"/></svg>