<svg xmlns="http://www.w3.org/2000/svg" viewBox="0 0 512 512"><!--! Font Awesome Pro 6.4.0 by @fontawesome - https://fontawesome.com License - https://fontawesome.com/license (Commercial License) Copyright 2023 Fonticons, Inc. --><path d="M16 288C16 155.5 123.5 48 256 48s240 107.5 240 240v88c0 4.4 3.6 8 8 8s8-3.6 8-8V288C512 146.6 397.4 32 256 32S0 146.6 0 288v88c0 4.4 3.6 8 8 8s8-3.6 8-8V288zm128-16c8.8 0 16 7.2 16 16V448c0 8.8-7.2 16-16 16H128c-35.3 0-64-28.7-64-64V336c0-35.3 28.7-64 64-64h16zm-16-16c-44.2 0-80 35.8-80 80v64c0 44.2 35.8 80 80 80h16c17.7 0 32-14.3 32-32V288c0-17.7-14.3-32-32-32H128zm240 16h16c35.3 0 64 28.7 64 64v64c0 35.3-28.7 64-64 64H368c-8.8 0-16-7.2-16-16V288c0-8.8 7.2-16 16-16zm16-16H368c-17.7 0-32 14.3-32 32V448c0 17.7 14.3 32 32 32h16c44.2 0 80-35.8 80-80V336c0-44.2-35.8-80-80-80z"/></svg>