<svg xmlns="http://www.w3.org/2000/svg" viewBox="0 0 512 512"><!--! Font Awesome Pro 6.4.0 by @fontawesome - https://fontawesome.com License - https://fontawesome.com/license (Commercial License) Copyright 2023 Fonticons, Inc. --><path d="M493.9 224H510C495.6 108.2 403.8 16.4 288 2V18.1C395 32.4 479.6 117.1 493.9 224zM510 288H493.9C479.6 395 395 479.6 288 493.9V510c115.8-14.4 207.6-106.2 222-222zM2 288C16.4 403.8 108.2 495.6 224 510V493.9C117 479.6 32.4 395 18.1 288H2zm0-64H18.1C32.4 117 117.1 32.4 224 18.1V2C108.2 16.4 16.4 108.2 2 224zm166-80c0-4.4-3.6-8-8-8s-8 3.6-8 8V368c0 4.4 3.6 8 8 8s8-3.6 8-8V264H344V368c0 4.4 3.6 8 8 8s8-3.6 8-8V144c0-4.4-3.6-8-8-8s-8 3.6-8 8V248H168V144z"/></svg>