<svg xmlns="http://www.w3.org/2000/svg" viewBox="0 0 448 512"><!--! Font Awesome Pro 6.4.0 by @fontawesome - https://fontawesome.com License - https://fontawesome.com/license (Commercial License) Copyright 2023 Fonticons, Inc. --><path d="M418.8 119.2l0 0c17.3 10 28 28.5 28 48.5V360.3c0 20-10.7 38.5-28 48.5L252 505.1c-10.6 6.1-22.7 8.5-34.4 7.1c-7.5-.9-14.8-3.2-21.6-7.1L29.2 408.8c-17.3-10-28-28.5-28-48.5V167.7c0-20 10.7-38.5 28-48.5L196 22.9c5.9-3.4 12.3-5.7 18.8-6.7c7.8-1.3 15.9-.9 23.6 1.1c4.7 1.3 9.3 3.1 13.6 5.6l166.8 96.3zM218.8 31.8c-5.1 .7-10.2 2.3-14.8 5L37.2 133.1c-12.4 7.1-20 20.4-20 34.6l0 192.6c0 14.3 7.6 27.5 20 34.6L204 491.2c3.2 1.8 6.5 3.2 9.9 4.1c3.3 .9 6.7 1.3 10.1 1.3c6.9 0 13.8-1.8 20-5.4l166.8-96.3c12.4-7.1 20-20.3 20-34.6V167.7c0-14.3-7.6-27.5-20-34.6L244 36.8c-1.5-.9-3.1-1.7-4.8-2.3l-20.4-2.7zm-75 104.8c4.4 0 8 3.6 8 8v224c0 3.9-2.8 7.3-6.7 7.9s-7.6-1.6-8.9-5.4L87.8 225.9V336.6c0 4.4-3.6 8-8 8s-8-3.6-8-8v-160c0-3.9 2.8-7.3 6.7-7.9s7.6 1.6 8.9 5.4l48.4 145.2V144.6c0-4.4 3.6-8 8-8zM208.3 88c1.4 .1 2.7 .5 3.8 1.2L268 121.1c2.5 1.4 4 4.1 4 6.9c0 6.1-6.6 10-12 6.9l-44.2-25.2V248.6h40c4.4 0 8 3.6 8 8s-3.6 8-8 8h-40v136c0 4.4-3.6 8-8 8s-8-3.6-8-8v-144V96.2c0-1.4 .3-2.9 1-4.2c.7-1.3 1.7-2.3 2.9-3s2.6-1.1 4-1.1c.1 0 .3 0 .4 0zm135.6 94.8V352.6c0 4.4-3.6 8-8 8s-8-3.6-8-8V173.7L292 153.3c-2.5-1.4-4-4.1-4-6.9c0-6.1 6.6-10 12-6.9l80 45.7c3.8 2.2 5.2 7.1 3 10.9s-7.1 5.2-10.9 3l-28.2-16.1z"/></svg>