<svg xmlns="http://www.w3.org/2000/svg" viewBox="0 0 576 512"><!--! Font Awesome Pro 6.4.0 by @fontawesome - https://fontawesome.com License - https://fontawesome.com/license (Commercial License) Copyright 2023 Fonticons, Inc. --><path d="M512 48c26.5 0 48 21.5 48 48V416c0 26.5-21.5 48-48 48H64c-26.5 0-48-21.5-48-48V96c0-26.5 21.5-48 48-48H512zM64 32C28.7 32 0 60.7 0 96V416c0 35.3 28.7 64 64 64H512c35.3 0 64-28.7 64-64V96c0-35.3-28.7-64-64-64H64zM320 168V344c0 4.4 3.6 8 8 8h56c53 0 96-43 96-96s-43-96-96-96H328c-4.4 0-8 3.6-8 8zm64 8c44.2 0 80 35.8 80 80s-35.8 80-80 80H336V176h48zm-256-8c0-4.4-3.6-8-8-8s-8 3.6-8 8v88 88c0 4.4 3.6 8 8 8s8-3.6 8-8V264H256v80c0 4.4 3.6 8 8 8s8-3.6 8-8V256 168c0-4.4-3.6-8-8-8s-8 3.6-8 8v80H128V168z"/></svg>