<svg xmlns="http://www.w3.org/2000/svg" viewBox="0 0 640 512"><!--! Font Awesome Pro 6.4.0 by @fontawesome - https://fontawesome.com License - https://fontawesome.com/license (Commercial License) Copyright 2023 Fonticons, Inc. --><path d="M411 108.1c-7 10.2-11 22.6-11 35.9v16c0 15.5-7.7 28.3-15.8 37.4C374.1 208.8 368 223.6 368 240c0 30.9 22 56.8 51.2 62.7l6.3 1.3H432h40 16 48 16 8c9.1 0 17.8-1.9 25.6-5.3l6.8-3 6-4.5C614 279.5 624 260.9 624 240c0-9.2-1.9-17.9-5.4-25.8c-5.7-8.5-15.5-14.2-26.6-14.2c-17.7 0-32 14.3-32 32c0 4.4-3.6 8-8 8s-8-3.6-8-8c0-26.2 21-47.5 47-48c-1.6-.9-3.2-1.7-4.9-2.4C573 175.7 560 162.4 560 144c0-10-2.3-19.4-6.3-27.8l-5-10.2 8-8 6.6-6.6c6.2-6.2 6.2-16.4 0-22.6s-16.4-6.2-22.6 0L530.6 78.8l-6.8 6.8-9.2-2.8C508.8 81 502.5 80 496 80H464c-2.8 0-5.5 .2-8.1 .5l-7.8 1-5.5-5.5L427.3 60.7c-6.2-6.2-16.4-6.2-22.6 0s-6.2 16.4 0 22.6l4.4 4.4 9.4 9.4L411 108.1zM639.8 233.9c.2 2 .2 4 .2 6.1c0 26.2-12.6 49.4-32 64v9.3V336c0 13.3-10.7 24-24 24H560c-13.3 0-24-10.7-24-24V320H520 504 488v16c0 13.3-10.7 24-24 24H440c-13.3 0-24-10.7-24-24V320v-1.6c-36.5-7.4-64-39.7-64-78.4c0-20.4 7.7-39.1 20.3-53.2c6.7-7.5 11.7-16.7 11.7-26.8V144c0-15.1 4.2-29.2 11.4-41.2l-24.2-9.1C347 84.7 321.3 80 295.4 80H216C123.2 80 48 155.2 48 248v8 0l0 35.1c0 30.9-10.5 60.9-29.8 85L14.2 381c-2.8 3.4-7.8 4-11.2 1.2s-4-7.8-1.2-11.2l3.9-4.9c17-21.3 26.3-47.7 26.3-75L32 256v0-8C32 146.4 114.4 64 216 64h79.4c27.8 0 55.4 5 81.5 14.8l8.8 3.3c-3.7-11.1-1.1-23.8 7.8-32.7c12.5-12.5 32.8-12.5 45.3 0l15.3 15.3c3.3-.4 6.7-.6 10.1-.6h32c8.1 0 15.9 1.2 23.3 3.4l10.1-10.1c12.5-12.5 32.8-12.5 45.3 0s12.5 32.8 0 45.3l-6.6 6.6c5.1 10.5 7.9 22.3 7.9 34.8c0 10.2 7.4 18.8 16.7 23c17.6 7.9 31.8 22 39.9 39.5c4.7 7.4 7.3 16.1 7.3 25.5c0 .7-.1 1.3-.2 1.9zM592 313.3c-5.1 2.2-10.4 3.9-16 5.1c-5.2 1-10.5 1.6-16 1.6h-8v16c0 4.4 3.6 8 8 8h24c4.4 0 8-3.6 8-8v-5.5V313.3zM440 344h24c4.4 0 8-3.6 8-8V320H456h-8H432v16c0 4.4 3.6 8 8 8zm-8 39.3c2.6 .4 5.3 .7 8 .7h8v56c0 22.1-17.9 40-40 40H360c-22.1 0-40-17.9-40-40V371.1l-5.8 1.9c-37.8 12.6-78.6 12.6-116.4 0l-5.8-1.9V440c0 22.1-17.9 40-40 40H104c-22.1 0-40-17.9-40-40V344c0-4.4 3.6-8 8-8s8 3.6 8 8v96c0 13.3 10.7 24 24 24h48c13.3 0 24-10.7 24-24V360c0-2.6 1.2-5 3.3-6.5s4.8-1.9 7.2-1.1l16.3 5.4c34.5 11.5 71.8 11.5 106.3 0l16.3-5.4c2.4-.8 5.1-.4 7.2 1.1s3.3 3.9 3.3 6.5v80c0 13.3 10.7 24 24 24h48c13.3 0 24-10.7 24-24V383.3zM464 128a16 16 0 1 1 0 32 16 16 0 1 1 0-32zm48 16a16 16 0 1 1 32 0 16 16 0 1 1 -32 0zm-56 56c-17.7 0-32 14.3-32 32c0 4.4-3.6 8-8 8s-8-3.6-8-8c0-26.5 21.5-48 48-48s48 21.5 48 48c0 4.4-3.6 8-8 8s-8-3.6-8-8c0-17.7-14.3-32-32-32z"/></svg>