<svg xmlns="http://www.w3.org/2000/svg" viewBox="0 0 448 512"><!--! Font Awesome Pro 6.4.0 by @fontawesome - https://fontawesome.com License - https://fontawesome.com/license (Commercial License) Copyright 2023 Fonticons, Inc. --><path d="M16 240c0-62.1 15.4-118.1 48.4-158.2C96.9 42.1 148 16 224 16s127.1 26.1 159.6 65.8C416.6 121.9 432 177.9 432 240c0 95.7-12.2 158.8-42.7 198.2C359.8 476.4 310 496 224 496s-135.8-19.6-165.3-57.8C28.2 398.8 16 335.7 16 240zM224 0C64 0 0 111 0 240C0 432 48 512 224 512s224-80 224-272C448 111 384 0 224 0zM176 224c0 26.5-21.5 48-48 48s-48-21.5-48-48V208c0-8.8 7.2-16 16-16h64c8.8 0 16 7.2 16 16v16zm-48 64c35.3 0 64-28.7 64-64V208c0-17.7-14.3-32-32-32H96c-17.7 0-32 14.3-32 32v16c0 35.3 28.7 64 64 64zm192-16c-26.5 0-48-21.5-48-48V208c0-8.8 7.2-16 16-16h64c8.8 0 16 7.2 16 16v16c0 26.5-21.5 48-48 48zm64-48V208c0-17.7-14.3-32-32-32H288c-17.7 0-32 14.3-32 32v16c0 35.3 28.7 64 64 64s64-28.7 64-64zM160 112a16 16 0 1 0 0-32 16 16 0 1 0 0 32zm80 16a16 16 0 1 0 -32 0 16 16 0 1 0 32 0zM208 320a16 16 0 1 0 -32 0 16 16 0 1 0 32 0zm0 64a16 16 0 1 0 -32 0 16 16 0 1 0 32 0zm-16 80a16 16 0 1 0 0-32 16 16 0 1 0 0 32zm64 0a16 16 0 1 0 0-32 16 16 0 1 0 0 32zm0-64a16 16 0 1 0 0-32 16 16 0 1 0 0 32zm0-64a16 16 0 1 0 0-32 16 16 0 1 0 0 32zM304 96a16 16 0 1 0 -32 0 16 16 0 1 0 32 0z"/></svg>