<svg xmlns="http://www.w3.org/2000/svg" viewBox="0 0 576 512"><!-- Font Awesome Pro 6.0.0-alpha2 by @fontawesome - https://fontawesome.com License - https://fontawesome.com/license (Commercial License) --><path d="M576 255.989C576 253.787 575.095 251.594 573.315 250.016L293.313 2.016C291.796 0.673 289.898 0.001 288 0.001C286.102 0.001 284.204 0.673 282.687 2.016L2.685 250.016C0.905 251.594 0 253.787 0 255.989C0 260.311 3.479 263.987 7.969 263.987C9.865 263.987 11.773 263.319 13.31 261.984L63.998 217.816V480C63.998 497.673 78.325 512 95.998 512H191.999C209.672 512 223.999 497.673 223.999 480V336H352.001V480C352.001 497.673 366.328 512 384.001 512H480.002C497.675 512 512.002 497.673 512.002 480V217.816L562.69 261.984C564.221 263.328 566.096 264 568.002 264C572.461 264 576 260.361 576 255.989ZM480.002 496H384.001C375.164 496 368.001 488.837 368.001 480V336C368.001 327.163 360.837 320 352.001 320H223.999C215.163 320 207.999 327.163 207.999 336V480C207.999 488.837 200.836 496 191.999 496H95.998C87.162 496 79.998 488.837 79.998 480V203.594L288 18.703L496.002 203.594V480C496.002 488.837 488.838 496 480.002 496Z "></path></svg>