<svg xmlns="http://www.w3.org/2000/svg" viewBox="0 0 576 512"><!-- Font Awesome Pro 6.0.0-alpha2 by @fontawesome - https://fontawesome.com License - https://fontawesome.com/license (Commercial License) --><path d="M279.56 242.828C267.695 230.574 251.473 224 235.404 224C200.28 224 178.279 254.221 178.279 283.587C178.279 299.009 183.967 314.432 195.348 326.207L278.129 411.797C280.836 414.602 284.408 416 287.978 416C291.551 416 295.121 414.602 297.83 411.797L380.609 326.207C392.014 314.427 397.712 298.995 397.712 283.566C397.712 254.188 375.664 224 340.591 224C324.525 224 308.301 230.578 296.435 242.828L287.998 251.535L279.56 242.828ZM307.927 253.961C316.521 245.09 328.427 240 340.591 240C365.793 240 381.71 261.71 381.71 283.543C381.71 295.348 377.181 306.744 369.107 315.082L287.98 398.969L206.854 315.09C198.802 306.757 194.281 295.367 194.281 283.569C194.281 282.884 194.296 282.199 194.327 281.512C194.924 268.049 205.422 240 235.404 240C247.572 240 259.477 245.086 268.07 253.961L287.998 274.527L307.927 253.961ZM575.996 255.989C575.996 253.787 575.091 251.594 573.311 250.016L293.31 2.016C291.794 0.673 289.896 0.001 287.998 0.001S284.202 0.673 282.685 2.016L2.685 250.016C0.905 251.594 0 253.787 0 255.989C0 260.31 3.479 263.987 7.968 263.987C9.865 263.987 11.773 263.319 13.31 261.984L63.997 217.816V448C63.997 483.346 92.651 512 127.997 512H447.999C483.344 512 511.999 483.346 511.999 448V217.816L562.686 261.984C564.217 263.328 566.092 264 567.998 264C572.457 264 575.996 260.361 575.996 255.989ZM495.999 448C495.999 474.51 474.509 496 447.999 496H127.997C101.487 496 79.997 474.51 79.997 448V203.594L287.998 18.703L495.999 203.594V448Z "></path></svg>