<svg xmlns="http://www.w3.org/2000/svg" viewBox="0 0 576 512"><!--! Font Awesome Pro 6.4.0 by @fontawesome - https://fontawesome.com License - https://fontawesome.com/license (Commercial License) Copyright 2023 Fonticons, Inc. --><path d="M328 136c0 4.4-3.6 8-8 8H224 191.8 138.7C101.8 144 72 173.8 72 210.7c0 8.8 1.7 17.5 5.1 25.6L109 312.8c2 4.7 3 9.8 3 15c0 5.3-1.1 10.5-3.2 15.3l-6.5 15.3c-10.8 25.1-12.6 53.1-5.3 79.4l12.9 46.5c1.9 6.9 8.2 11.7 15.4 11.7h49.8c10.6 0 18.2-10.1 15.4-20.3l-16.5-59.3c-2.4-8.8-1.8-18.1 1.8-26.5l6.5-15.3c6.3-14.8 9.6-30.7 9.6-46.9c0-9.2-1.1-18.4-3.2-27.4c-.6-2.7 .2-5.5 2.1-7.5s4.7-2.8 7.4-2.2l123.4 27.1c3.7 .8 6.3 4.1 6.3 7.8V480c0 8.8 7.2 16 16 16h40c8.8 0 16-7.2 16-16V308.5c0-2.4 1-4.6 2.8-6.1c17.6-14.9 29-37.1 29.2-62.5l0-.1v-.4V152c0-4.4 3.6-8 8-8h16c3 0 5.8 1.7 7.2 4.4l8.3 16.5c11.1 22.3 38.2 31.3 60.5 20.2c16.7-8.3 26.5-26 24.7-44.6l-7-73.8C546.8 37.9 522.7 16 493.8 16H472 456h-8c-66.3 0-120 53.7-120 120zM539.1 16c14.6 11.8 24.5 29.2 26.4 49.2l7 73.8c2.4 25.1-10.9 49.1-33.5 60.4c-30.2 15.1-66.8 2.9-81.9-27.3L451.1 160H448v79.5 .5l0 .2c-.2 28.8-12.7 54.2-32 71.9V480c0 17.7-14.3 32-32 32H344c-17.7 0-32-14.3-32-32V332.1L206.7 309c.9 6.2 1.3 12.5 1.3 18.8c0 18.3-3.7 36.4-10.9 53.2l-6.5 15.3c-2.2 5-2.5 10.6-1.1 15.9L206 471.4c5.7 20.4-9.7 40.6-30.8 40.6H125.3c-14.4 0-27-9.6-30.8-23.4L81.6 442.1c-8.3-29.8-6.2-61.5 6-90l6.5-15.3c1.2-2.9 1.9-5.9 1.9-9c0-3-.6-6-1.8-8.8L62.4 242.5c-4.2-10.1-6.4-20.9-6.4-31.8c0-12.4 2.7-24.1 7.6-34.7C37.3 176.2 16 197.6 16 224v88c0 4.4-3.6 8-8 8s-8-3.6-8-8V224c0-35.3 28.7-64 64-64h8 1.3c15.1-19.5 38.8-32 65.3-32h53.1H224h88.2C316.4 56.6 375.6 0 448 0h8 16 21.8H552c4.4 0 8 3.6 8 8s-3.6 8-8 8H539.1zM480 80a16 16 0 1 1 32 0 16 16 0 1 1 -32 0z"/></svg>