<svg xmlns="http://www.w3.org/2000/svg" viewBox="0 0 448 512"><!--! Font Awesome Pro 6.4.0 by @fontawesome - https://fontawesome.com License - https://fontawesome.com/license (Commercial License) Copyright 2023 Fonticons, Inc. --><path d="M304 103.2V112c0 4.4-3.6 8-8 8s-8-3.6-8-8V96.1v-.2V32.1v-.2V16c0-4.4 3.6-8 8-8s8 3.6 8 8v8.8L432.1 39.1c.5-4 3.8-7.1 7.9-7.1c4.4 0 8 3.6 8 8v7.9 .2V79.9v.2V88c0 4.4-3.6 8-8 8c-4.1 0-7.5-3.1-7.9-7.1L304 103.2zm0-16.1L432 72.8V55.2L304 40.9V87.1zM56 432H392c13.3 0 24-10.7 24-24s-10.7-24-24-24H56c-13.3 0-24 10.7-24 24s10.7 24 24 24zM16 408c0-13.1 6.3-24.7 16-32c-9.7-7.3-16-18.9-16-32c0-22.1 17.9-40 40-40H97c-48.1-24.4-81-74.4-81-132C16 90.3 82.3 24 164 24h92V40H164C91.1 40 32 99.1 32 172s59.1 132 132 132H392c13.3 0 24-10.7 24-24s-10.7-24-24-24H164c-46.4 0-84-37.6-84-84s37.6-84 84-84h92v16H164c-37.6 0-68 30.4-68 68s30.4 68 68 68H392c22.1 0 40 17.9 40 40c0 13.1-6.3 24.7-16 32c9.7 7.3 16 18.9 16 32s-6.3 24.7-16 32c9.7 7.3 16 18.9 16 32s-6.3 24.7-16 32c9.7 7.3 16 18.9 16 32c0 22.1-17.9 40-40 40H56c-22.1 0-40-17.9-40-40c0-13.1 6.3-24.7 16-32c-9.7-7.3-16-18.9-16-32zm376-88H164 56c-13.3 0-24 10.7-24 24s10.7 24 24 24H392c13.3 0 24-10.7 24-24s-10.7-24-24-24zm0 128H56c-13.3 0-24 10.7-24 24s10.7 24 24 24H392c13.3 0 24-10.7 24-24s-10.7-24-24-24z"/></svg>