<svg xmlns="http://www.w3.org/2000/svg" viewBox="0 0 576 512"><!--! Font Awesome Pro 6.4.0 by @fontawesome - https://fontawesome.com License - https://fontawesome.com/license (Commercial License) Copyright 2023 Fonticons, Inc. --><path d="M0 56C0 25.1 25.1 0 56 0H264c30.9 0 56 25.1 56 56V271.8 336v31.8c-5.6 3.1-11 6.7-16 10.7V336 56c0-22.1-17.9-40-40-40H56C33.9 16 16 33.9 16 56V272H152c4.4 0 8 3.6 8 8s-3.6 8-8 8H16v80H152c4.4 0 8 3.6 8 8s-3.6 8-8 8H16v72c0 22.1 17.9 40 40 40H258.8c1.7 5.7 4.1 11.1 7.2 16H56c-30.9 0-56-25.1-56-56V56zm152 0h16c13.3 0 24 10.7 24 24V96h16c13.3 0 24 10.7 24 24v16c0 13.3-10.7 24-24 24H192v16c0 13.3-10.7 24-24 24H152c-13.3 0-24-10.7-24-24V160H112c-13.3 0-24-10.7-24-24V120c0-13.3 10.7-24 24-24h16V80c0-13.3 10.7-24 24-24zm-8 24v24c0 4.4-3.6 8-8 8H112c-4.4 0-8 3.6-8 8v16c0 4.4 3.6 8 8 8h24c4.4 0 8 3.6 8 8v24c0 4.4 3.6 8 8 8h16c4.4 0 8-3.6 8-8V152c0-4.4 3.6-8 8-8h24c4.4 0 8-3.6 8-8V120c0-4.4-3.6-8-8-8H184c-4.4 0-8-3.6-8-8V80c0-4.4-3.6-8-8-8H152c-4.4 0-8 3.6-8 8zM496 272a64 64 0 1 0 -128 0 64 64 0 1 0 128 0zM304 477.1c0 10.4 8.5 18.9 18.9 18.9H541.1c10.4 0 18.9-8.5 18.9-18.9c0-42.6-34.5-77.1-77.1-77.1H381.1c-42.6 0-77.1 34.5-77.1 77.1zM432 192a80 80 0 1 1 0 160 80 80 0 1 1 0-160zM381.1 384H482.9c51.4 0 93.1 41.7 93.1 93.1c0 19.3-15.6 34.9-34.9 34.9H322.9c-19.3 0-34.9-15.6-34.9-34.9c0-51.4 41.7-93.1 93.1-93.1z"/></svg>