<svg xmlns="http://www.w3.org/2000/svg" viewBox="0 0 640 512"><!--! Font Awesome Pro 6.4.0 by @fontawesome - https://fontawesome.com License - https://fontawesome.com/license (Commercial License) Copyright 2023 Fonticons, Inc. --><path d="M160 64c0-35.3 28.7-64 64-64H416c35.3 0 64 28.7 64 64V96H584c30.9 0 56 25.1 56 56V456c0 30.9-25.1 56-56 56H416v0H384h-8H264h-8H224v0H56c-30.9 0-56-25.1-56-56V152c0-30.9 25.1-56 56-56H160V64zm304 0c0-26.5-21.5-48-48-48H224c-26.5 0-48 21.5-48 48V96v16V496h80V416c0-35.3 28.7-64 64-64s64 28.7 64 64v80h80V336 112 96 64zm120 48H480V336 496H584c22.1 0 40-17.9 40-40V304H520c-4.4 0-8-3.6-8-8s3.6-8 8-8H624V208H520c-4.4 0-8-3.6-8-8s3.6-8 8-8H624V152c0-22.1-17.9-40-40-40zm-424 0H56c-22.1 0-40 17.9-40 40v40H120c4.4 0 8 3.6 8 8s-3.6 8-8 8H16v80H120c4.4 0 8 3.6 8 8s-3.6 8-8 8H16V456c0 22.1 17.9 40 40 40H160V112zM368 416c0-26.5-21.5-48-48-48s-48 21.5-48 48v80h96V416zM312 56h16c13.3 0 24 10.7 24 24V96h16c13.3 0 24 10.7 24 24v16c0 13.3-10.7 24-24 24H352v16c0 13.3-10.7 24-24 24H312c-13.3 0-24-10.7-24-24V160H272c-13.3 0-24-10.7-24-24V120c0-13.3 10.7-24 24-24h16V80c0-13.3 10.7-24 24-24zm-8 24v24c0 4.4-3.6 8-8 8H272c-4.4 0-8 3.6-8 8v16c0 4.4 3.6 8 8 8h24c4.4 0 8 3.6 8 8v24c0 4.4 3.6 8 8 8h16c4.4 0 8-3.6 8-8V152c0-4.4 3.6-8 8-8h24c4.4 0 8-3.6 8-8V120c0-4.4-3.6-8-8-8H344c-4.4 0-8-3.6-8-8V80c0-4.4-3.6-8-8-8H312c-4.4 0-8 3.6-8 8z"/></svg>