<svg xmlns="http://www.w3.org/2000/svg" viewBox="0 0 512 512"><!--! Font Awesome Pro 6.4.0 by @fontawesome - https://fontawesome.com License - https://fontawesome.com/license (Commercial License) Copyright 2023 Fonticons, Inc. --><path d="M8 0C3.6 0 0 3.6 0 8s3.6 8 8 8H32V496H8c-4.4 0-8 3.6-8 8s3.6 8 8 8H208h8 80 8H504c4.4 0 8-3.6 8-8s-3.6-8-8-8H480V16h24c4.4 0 8-3.6 8-8s-3.6-8-8-8H8zM288 432v64H224V432c0-17.7 14.3-32 32-32s32 14.3 32 32zm16 0c0-26.5-21.5-48-48-48s-48 21.5-48 48v64H48V16H464V496H304V432zM328 96v32c0 13.3 10.7 24 24 24h32c13.3 0 24-10.7 24-24V96c0-13.3-10.7-24-24-24H352c-13.3 0-24 10.7-24 24zm24-8h32c4.4 0 8 3.6 8 8v32c0 4.4-3.6 8-8 8H352c-4.4 0-8-3.6-8-8V96c0-4.4 3.6-8 8-8zM240 72c-13.3 0-24 10.7-24 24v32c0 13.3 10.7 24 24 24h32c13.3 0 24-10.7 24-24V96c0-13.3-10.7-24-24-24H240zm-8 24c0-4.4 3.6-8 8-8h32c4.4 0 8 3.6 8 8v32c0 4.4-3.6 8-8 8H240c-4.4 0-8-3.6-8-8V96zM216 224v32c0 13.3 10.7 24 24 24h32c13.3 0 24-10.7 24-24V224c0-13.3-10.7-24-24-24H240c-13.3 0-24 10.7-24 24zm24-8h32c4.4 0 8 3.6 8 8v32c0 4.4-3.6 8-8 8H240c-4.4 0-8-3.6-8-8V224c0-4.4 3.6-8 8-8zm112-16c-13.3 0-24 10.7-24 24v32c0 13.3 10.7 24 24 24h32c13.3 0 24-10.7 24-24V224c0-13.3-10.7-24-24-24H352zm-8 24c0-4.4 3.6-8 8-8h32c4.4 0 8 3.6 8 8v32c0 4.4-3.6 8-8 8H352c-4.4 0-8-3.6-8-8V224zM104 96v32c0 13.3 10.7 24 24 24h32c13.3 0 24-10.7 24-24V96c0-13.3-10.7-24-24-24H128c-13.3 0-24 10.7-24 24zm24-8h32c4.4 0 8 3.6 8 8v32c0 4.4-3.6 8-8 8H128c-4.4 0-8-3.6-8-8V96c0-4.4 3.6-8 8-8zm0 112c-13.3 0-24 10.7-24 24v32c0 13.3 10.7 24 24 24h32c13.3 0 24-10.7 24-24V224c0-13.3-10.7-24-24-24H128zm-8 24c0-4.4 3.6-8 8-8h32c4.4 0 8 3.6 8 8v32c0 4.4-3.6 8-8 8H128c-4.4 0-8-3.6-8-8V224zm70.4 141.3c16.1-18 39.5-29.3 65.6-29.3s49.5 11.3 65.6 29.3c2.9 3.3 8 3.6 11.3 .6s3.6-8 .6-11.3c-19-21.3-46.7-34.7-77.5-34.7s-58.5 13.4-77.5 34.7c-2.9 3.3-2.7 8.3 .6 11.3s8.3 2.7 11.3-.6z"/></svg>