<svg xmlns="http://www.w3.org/2000/svg" viewBox="0 0 384 512"><!--! Font Awesome Pro 6.4.0 by @fontawesome - https://fontawesome.com License - https://fontawesome.com/license (Commercial License) Copyright 2023 Fonticons, Inc. --><path d="M0 8C0 3.6 3.6 0 8 0H40 344h32c4.4 0 8 3.6 8 8s-3.6 8-8 8H352V76.7c0 29.9-9.8 58.9-28 82.6l-74 96.7 74 96.7c18.1 23.7 28 52.8 28 82.6V496h24c4.4 0 8 3.6 8 8s-3.6 8-8 8H344 40 8c-4.4 0-8-3.6-8-8s3.6-8 8-8H32V435.3c0-29.9 9.8-58.9 28-82.6l74-96.7L60 159.3c-18.1-23.7-28-52.8-28-82.6L32 16H8c-4.4 0-8-3.6-8-8zm48 8l0 60.7c0 26.3 8.7 52 24.7 72.9l77.7 101.6c2.2 2.9 2.2 6.9 0 9.7L72.7 362.4C56.7 383.4 48 409 48 435.3V496H336V435.3c0-26.3-8.7-52-24.7-72.9L233.6 260.9c-2.2-2.9-2.2-6.9 0-9.7l77.7-101.6c16-20.9 24.7-46.5 24.7-72.9V16H48zm64.8 108.4c1.4-2.7 4.1-4.4 7.2-4.4H264c3 0 5.8 1.7 7.2 4.4s1.1 6-.8 8.4l-72 96c-1.5 2-3.9 3.2-6.4 3.2s-4.9-1.2-6.4-3.2l-72-96c-1.8-2.4-2.1-5.7-.8-8.4zM136 136l56 74.7L248 136H136zM113.6 379.2c1.5-2 3.9-3.2 6.4-3.2H264c2.5 0 4.9 1.2 6.4 3.2l11.2 14.9c9.3 12.5 14.4 27.6 14.4 43.2V456c0 4.4-3.6 8-8 8H96c-4.4 0-8-3.6-8-8V437.3c0-15.6 5.1-30.7 14.4-43.2l11.2-14.9zM124 392l-8.8 11.7c-7.3 9.7-11.2 21.5-11.2 33.6V448H280V437.3c0-12.1-3.9-23.9-11.2-33.6L260 392H124z"/></svg>