<svg xmlns="http://www.w3.org/2000/svg" viewBox="0 0 640 512"><!--! Font Awesome Pro 6.4.0 by @fontawesome - https://fontawesome.com License - https://fontawesome.com/license (Commercial License) Copyright 2023 Fonticons, Inc. --><path d="M282.7 2c3-2.7 7.6-2.7 10.6 0l215 190.4c-4.1-.3-8.2-.4-12.3-.4c-4 0-8 .1-11.9 .4L288 18.7 80 202.9V448c0 26.5 21.5 48 48 48H375.2c6.1 5.8 12.7 11.1 19.6 16H128c-35.3 0-64-28.7-64-64V217.1L13.3 262c-3.3 2.9-8.4 2.6-11.3-.7S-.6 252.9 2.7 250L282.7 2zm84.6 246c-4.7 5.1-9.1 10.4-13.3 16H320c-4.4 0-8-3.6-8-8V200c0-4.4-3.6-8-8-8H272c-4.4 0-8 3.6-8 8v56c0 4.4-3.6 8-8 8H200c-4.4 0-8 3.6-8 8v32c0 4.4 3.6 8 8 8h56c4.4 0 8 3.6 8 8v56c0 4.4 3.6 8 8 8h32c4.4 0 8-3.6 8-8h8.2c.2 5.5 .7 10.9 1.5 16.3C317.3 397 311 400 304 400H272c-13.3 0-24-10.7-24-24V328H200c-13.3 0-24-10.7-24-24V272c0-13.3 10.7-24 24-24h48V200c0-13.3 10.7-24 24-24h32c13.3 0 24 10.7 24 24v48h39.3zM496 496a128 128 0 1 0 0-256 128 128 0 1 0 0 256zm0-272a144 144 0 1 1 0 288 144 144 0 1 1 0-288zm58.3 98.3c3.1-3.1 8.2-3.1 11.3 0s3.1 8.2 0 11.3l-80 80c-3.1 3.1-8.2 3.1-11.3 0l-48-48c-3.1-3.1-3.1-8.2 0-11.3s8.2-3.1 11.3 0L480 396.7l74.3-74.3z"/></svg>