<svg xmlns="http://www.w3.org/2000/svg" viewBox="0 0 576 512"><!--! Font Awesome Pro 6.4.0 by @fontawesome - https://fontawesome.com License - https://fontawesome.com/license (Commercial License) Copyright 2023 Fonticons, Inc. --><path d="M282.7 2c3-2.7 7.6-2.7 10.6 0L384 82.3V56c0-13.3 10.7-24 24-24h80c13.3 0 24 10.7 24 24V195.7L573.3 250c3.3 2.9 3.6 8 .7 11.3s-8 3.6-11.3 .7L512 217.1V448c0 35.3-28.7 64-64 64H128c-35.3 0-64-28.7-64-64V217.1L13.3 262c-3.3 2.9-8.4 2.6-11.3-.7S-.6 252.9 2.7 250L282.7 2zM384 104v-.3l-96-85L80 202.9V448c0 26.5 21.5 48 48 48H448c26.5 0 48-21.5 48-48V202.9L384.3 104H384zm16-48V96.5l96 85V56c0-4.4-3.6-8-8-8H408c-4.4 0-8 3.6-8 8zM240 184h96c13.3 0 24 10.7 24 24v96c0 13.3-10.7 24-24 24H240c-13.3 0-24-10.7-24-24V208c0-13.3 10.7-24 24-24zm-8 24v96c0 4.4 3.6 8 8 8h96c4.4 0 8-3.6 8-8V208c0-4.4-3.6-8-8-8H240c-4.4 0-8 3.6-8 8z"/></svg>