<svg xmlns="http://www.w3.org/2000/svg" viewBox="0 0 640 512"><!--! Font Awesome Pro 6.4.0 by @fontawesome - https://fontawesome.com License - https://fontawesome.com/license (Commercial License) Copyright 2023 Fonticons, Inc. --><path d="M293.3 2c-3-2.7-7.6-2.7-10.6 0L2.7 250c-3.3 2.9-3.6 8-.7 11.3s8 3.6 11.3 .7L64 217.1V448c0 35.3 28.7 64 64 64H374.3c-7.9-5.3-15.3-11.1-22.3-17.5V496H224V328c0-4.4 3.6-8 8-8h59.6c1.2-5.3 2.7-10.7 4.4-16H232c-13.3 0-24 10.7-24 24V496H128c-26.5 0-48-21.5-48-48V202.9L288 18.7 419.2 134.9c5.3-3.2 11.1-5.3 17-6.3L293.3 2zM509.2 237.5c4.8-.1 9.4-2.3 12.3-6c7.6-9.5 15.6-19.2 23.9-26.9c22.7 21 42.2 49 56.2 76c14 27.1 22.4 55.2 22.4 71.6c0 79-64.1 143.8-144 143.8c-80.8 0-144-64.8-144-143.8c0-22.2 11-53.4 30-84.2c18.9-30.7 45.8-63 77.6-91.5c18.9 17.1 36.6 35.5 53.1 55.3c3.1 3.7 7.7 5.8 12.5 5.8zm-10.8-28.4c-14.2-16.1-29.1-31.2-44.9-45.3c-2.8-2.5-6.3-3.7-9.8-3.8c-3.6 0-7.2 1.2-10 3.7c-33.2 29.7-61.4 63.4-81.4 95.8c-19.7 31.9-32.4 66.2-32.4 92.6C320 439.9 390.3 512 480 512c88.7 0 160-72 160-159.8c0-20.2-9.6-50.9-24.2-79c-14.8-28.5-35.7-58.5-60.4-81.1c-5.6-5.1-14.4-5.2-20 0c-5.6 5.1-11 11-16.1 16.9c-3.6 4.2-7.1 8.5-10.3 12.6c-3.5-4.2-7-8.3-10.6-12.4zM441.7 256c-2.4 0-4.7 1.1-6.2 3c-16.5 20.4-29.3 36.8-37.9 51.6c-8.7 15-13.5 28.8-13.5 43.9c0 29.1 10.8 52.8 28.7 69.2c17.8 16.3 42.2 24.9 68.7 24.9c21.5 0 40.7-6 58.5-17.9l0 0 .2-.1c36.7-25.7 46.1-76.6 24.6-116.2l0-.1 0 0c-2.2-4.3-4.6-9.3-8.4-14.3c-1.5-1.9-3.7-3.1-6.1-3.2s-4.8 .9-6.3 2.8l-33.4 38.9-4-5.2-22.5-28.7c-16.5-21.1-33.7-42.9-35.9-45.7c-1.5-1.9-3.8-3-6.2-3zm68.4 95.2l-6.3 4.9c1.5 1.9 3.7 3 6.1 3.1s4.7-1 6.2-2.8l32.6-38c.5 1.1 1.1 2.1 1.7 3.3l0 0 .1 .3c18.1 33.2 9.8 74.9-19.6 95.5c-15.3 10.2-31.4 15.2-49.5 15.2c-23.1 0-43.5-7.4-57.9-20.7c-14.4-13.1-23.5-32.5-23.5-57.4c0-11.4 3.5-22.4 11.3-35.8c6.9-11.8 16.9-25.1 30.3-41.8c6.9 8.8 18.4 23.4 29.6 37.8l22.5 28.7 7.3 9.3 2 2.6 .5 .7 .1 .2 0 0 0 0 0 0 6.3-4.9z"/></svg>