<svg xmlns="http://www.w3.org/2000/svg" viewBox="0 0 576 512"><!--! Font Awesome Pro 6.4.0 by @fontawesome - https://fontawesome.com License - https://fontawesome.com/license (Commercial License) Copyright 2023 Fonticons, Inc. --><path d="M282.7 2c3-2.7 7.6-2.7 10.6 0L384 82.3V56c0-13.3 10.7-24 24-24h80c13.3 0 24 10.7 24 24V195.7L573.3 250c3.3 2.9 3.6 8 .7 11.3s-8 3.6-11.3 .7L512 217.1V448c0 35.3-28.7 64-64 64H128c-35.3 0-64-28.7-64-64V217.1L13.3 262c-3.3 2.9-8.4 2.6-11.3-.7S-.6 252.9 2.7 250L282.7 2zM496 181.5V56c0-4.4-3.6-8-8-8H408c-4.4 0-8 3.6-8 8V96.5l96 85zM384 103.7l-96-85L80 202.9V448c0 26.5 21.5 48 48 48H448c26.5 0 48-21.5 48-48V202.9L384.3 104H384v-.3zM233.9 240c-23.2 0-41.9 18.8-41.9 41.9v.6c0 10.6 4 20.9 11.2 28.8l78.9 86.1c1.5 1.7 3.7 2.6 5.9 2.6s4.4-.9 5.9-2.6l78.9-86.1c7.2-7.8 11.2-18.1 11.2-28.8v-.6c0-23.2-18.8-41.9-41.9-41.9c-11.1 0-21.8 4.4-29.7 12.3L293.7 271c-1.5 1.5-3.5 2.3-5.7 2.3s-4.2-.8-5.7-2.3l-18.7-18.7c-7.9-7.9-18.5-12.3-29.7-12.3zM176 281.9c0-32 25.9-57.9 57.9-57.9c15.4 0 30.1 6.1 41 17L288 254.1 301.1 241c10.9-10.9 25.6-17 41-17c32 0 57.9 25.9 57.9 57.9v.6c0 14.7-5.5 28.8-15.4 39.6l-78.9 86.1c-4.5 5-11 7.8-17.7 7.8s-13.1-2.8-17.7-7.8l-78.9-86.1c-9.9-10.8-15.4-24.9-15.4-39.6v-.6z"/></svg>