<svg xmlns="http://www.w3.org/2000/svg" viewBox="0 0 640 512"><!--! Font Awesome Pro 6.4.0 by @fontawesome - https://fontawesome.com License - https://fontawesome.com/license (Commercial License) Copyright 2023 Fonticons, Inc. --><path d="M384 16H576c26.5 0 48 21.5 48 48V448c0 26.5-21.5 48-48 48H409.3c-2.5 5.7-5.6 11.1-9.3 16H576c35.3 0 64-28.7 64-64V64c0-35.3-28.7-64-64-64H384c-35.3 0-64 28.7-64 64v89.9l16 14.7V64c0-26.5 21.5-48 48-48zm32 272h24c13.3 0 24-10.7 24-24V232c0-13.3-10.7-24-24-24H408c-7.7 0-14.5 3.6-18.9 9.2l1 .9c3.8 3.5 7.3 7.3 10.3 11.5c1-3.2 4.1-5.6 7.6-5.6h32c4.4 0 8 3.6 8 8v32c0 4.4-3.6 8-8 8H415.8c.1 1.7 .2 3.4 .2 5.1V288zm0 112h24c13.3 0 24-10.7 24-24V344c0-13.3-10.7-24-24-24H416v16h24c4.4 0 8 3.6 8 8v32c0 4.4-3.6 8-8 8H416v16zM520 208c-13.3 0-24 10.7-24 24v32c0 13.3 10.7 24 24 24h32c13.3 0 24-10.7 24-24V232c0-13.3-10.7-24-24-24H520zm-8 24c0-4.4 3.6-8 8-8h32c4.4 0 8 3.6 8 8v32c0 4.4-3.6 8-8 8H520c-4.4 0-8-3.6-8-8V232zM496 344v32c0 13.3 10.7 24 24 24h32c13.3 0 24-10.7 24-24V344c0-13.3-10.7-24-24-24H520c-13.3 0-24 10.7-24 24zm24-8h32c4.4 0 8 3.6 8 8v32c0 4.4-3.6 8-8 8H520c-4.4 0-8-3.6-8-8V344c0-4.4 3.6-8 8-8zM408 96c-13.3 0-24 10.7-24 24v32c0 13.3 10.7 24 24 24h32c13.3 0 24-10.7 24-24V120c0-13.3-10.7-24-24-24H408zm-8 24c0-4.4 3.6-8 8-8h32c4.4 0 8 3.6 8 8v32c0 4.4-3.6 8-8 8H408c-4.4 0-8-3.6-8-8V120zm96 0v32c0 13.3 10.7 24 24 24h32c13.3 0 24-10.7 24-24V120c0-13.3-10.7-24-24-24H520c-13.3 0-24 10.7-24 24zm24-8h32c4.4 0 8 3.6 8 8v32c0 4.4-3.6 8-8 8H520c-4.4 0-8-3.6-8-8V120c0-4.4 3.6-8 8-8zM16 280.6c0-11.2 4.7-21.9 13-29.5L165 126.5c15.3-14 38.8-14 54.1 0L355 251.1c8.3 7.6 13 18.3 13 29.5V456c0 22.1-17.9 40-40 40H56c-22.1 0-40-17.9-40-40V280.6zM0 456c0 30.9 25.1 56 56 56H328c30.9 0 56-25.1 56-56V280.6c0-15.7-6.6-30.7-18.2-41.3l-136-124.7c-21.4-19.6-54.3-19.6-75.7 0L18.2 239.4C6.6 250 0 264.9 0 280.6V456zM224 280c4.4 0 8 3.6 8 8v64c0 4.4-3.6 8-8 8H160c-4.4 0-8-3.6-8-8V288c0-4.4 3.6-8 8-8h64zm-64-16c-13.3 0-24 10.7-24 24v64c0 13.3 10.7 24 24 24h64c13.3 0 24-10.7 24-24V288c0-13.3-10.7-24-24-24H160z"/></svg>