<svg xmlns="http://www.w3.org/2000/svg" viewBox="0 0 640 512"><!--! Font Awesome Pro 6.4.0 by @fontawesome - https://fontawesome.com License - https://fontawesome.com/license (Commercial License) Copyright 2023 Fonticons, Inc. --><path d="M272 456V280.6c0-11.2 4.7-21.9 13-29.5L421 126.5c15.3-14 38.8-14 54.1 0L611 251.1c8.3 7.6 13 18.3 13 29.5V456c0 22.1-17.9 40-40 40H312c-22.1 0-40-17.9-40-40zM256 280.6V456c0 30.9 25.1 56 56 56H584c30.9 0 56-25.1 56-56V280.6c0-15.7-6.6-30.7-18.2-41.3l-136-124.7c-21.4-19.6-54.3-19.6-75.7 0l-136 124.7C262.6 250 256 264.9 256 280.6zm160-.6h64c4.4 0 8 3.6 8 8v64c0 4.4-3.6 8-8 8H416c-4.4 0-8-3.6-8-8V288c0-4.4 3.6-8 8-8zm-24 8v64c0 13.3 10.7 24 24 24h64c13.3 0 24-10.7 24-24V288c0-13.3-10.7-24-24-24H416c-13.3 0-24 10.7-24 24zM16 40c0-13.3 10.7-24 24-24H96V88c0 4.4 3.6 8 8 8s8-3.6 8-8V16H240V88c0 4.4 3.6 8 8 8s8-3.6 8-8V16h56c13.3 0 24 10.7 24 24v99.3l16-14.7V40c0-22.1-17.9-40-40-40H40C17.9 0 0 17.9 0 40V203.8c0 9.8 3.6 19.3 10.1 26.6L64 291V496c0 4.4 3.6 8 8 8s8-3.6 8-8V288c0-2-.7-3.9-2-5.3L22.1 219.8c-3.9-4.4-6.1-10.1-6.1-15.9V40zM208 224H144V176c0-17.7 14.3-32 32-32s32 14.3 32 32v48zm-32-96c-26.5 0-48 21.5-48 48v48c0 8.8 7.2 16 16 16h64c8.8 0 16-7.2 16-16V176c0-26.5-21.5-48-48-48z"/></svg>