<svg xmlns="http://www.w3.org/2000/svg" viewBox="0 0 640 512"><!--! Font Awesome Pro 6.4.0 by @fontawesome - https://fontawesome.com License - https://fontawesome.com/license (Commercial License) Copyright 2023 Fonticons, Inc. --><path d="M13 1.7C9.5-1 4.5-.4 1.7 3S-.4 11.5 3 14.3l624 496c3.5 2.7 8.5 2.2 11.2-1.3s2.2-8.5-1.3-11.2L13 1.7zM467.3 464h-280L310.8 340.5l-12.6-10L288 340.7l-73.4-73.4c-12.5-12.5-32.8-12.5-45.3 0L80 356.7V158.3L64 145.6V416c0 35.3 28.7 64 64 64H487.5l-20.3-16zM512 32H152.5l20.3 16H512c26.5 0 48 21.5 48 48V292.7l-89.4-89.4c-12.5-12.5-32.8-12.5-45.3 0L400.7 228l12.6 10 23.3-23.3c6.2-6.2 16.4-6.2 22.6 0L560 315.3v38.4l16 12.6V96c0-35.3-28.7-64-64-64zM80 379.3L180.7 278.6c6.2-6.2 16.4-6.2 22.6 0L276.7 352l-112 112H128c-26.5 0-48-21.5-48-48V379.3z"/></svg>