<svg xmlns="http://www.w3.org/2000/svg" viewBox="0 0 512 512"><!--! Font Awesome Pro 6.4.0 by @fontawesome - https://fontawesome.com License - https://fontawesome.com/license (Commercial License) Copyright 2023 Fonticons, Inc. --><path d="M64 48C37.5 48 16 69.5 16 96V416c0 26.5 21.5 48 48 48H448c26.5 0 48-21.5 48-48V96c0-26.5-21.5-48-48-48H64zM0 96C0 60.7 28.7 32 64 32H448c35.3 0 64 28.7 64 64V416c0 35.3-28.7 64-64 64H64c-35.3 0-64-28.7-64-64V96zm304 96a48 48 0 1 0 -96 0 48 48 0 1 0 96 0zM160 356.6c0 6.3 5.1 11.4 11.4 11.4H340.6c6.3 0 11.4-5.1 11.4-11.4c0-29-23.5-52.6-52.6-52.6H212.6c-29 0-52.6 23.5-52.6 52.6zM256 128a64 64 0 1 1 0 128 64 64 0 1 1 0-128zM212.6 288h86.9c37.9 0 68.6 30.7 68.6 68.6c0 15.1-12.3 27.4-27.4 27.4H171.4c-15.1 0-27.4-12.3-27.4-27.4c0-37.9 30.7-68.6 68.6-68.6z"/></svg>