<svg xmlns="http://www.w3.org/2000/svg" viewBox="0 0 576 512"><!--! Font Awesome Pro 6.4.0 by @fontawesome - https://fontawesome.com License - https://fontawesome.com/license (Commercial License) Copyright 2023 Fonticons, Inc. --><path d="M512 48c26.5 0 48 21.5 48 48V228.7l-79-79c-9.4-9.4-24.6-9.4-33.9 0l-143 143-79-79c-9.4-9.4-24.6-9.4-33.9 0l-79 79V96c0-26.5 21.5-48 48-48H512zM112 320v-4.7L202.3 225c3.1-3.1 8.2-3.1 11.3 0l79 79L229 367.7c-.1 .1-.2 .2-.3 .3H160c-26.5 0-48-21.5-48-48zm400 48H251.3l58.3-58.3L458.3 161c3.1-3.1 8.2-3.1 11.3 0L560 251.3V320c0 26.5-21.5 48-48 48zM160 32c-35.3 0-64 28.7-64 64V320c0 35.3 28.7 64 64 64H512c35.3 0 64-28.7 64-64V96c0-35.3-28.7-64-64-64H160zm88 96a24 24 0 1 1 -48 0 24 24 0 1 1 48 0zM224 88a40 40 0 1 0 0 80 40 40 0 1 0 0-80zM0 192V416c0 35.3 28.7 64 64 64H416c35.3 0 64-28.7 64-64H464c0 26.5-21.5 48-48 48H64c-26.5 0-48-21.5-48-48V192c0-26.5 21.5-48 48-48V128c-35.3 0-64 28.7-64 64z"/></svg>