<svg xmlns="http://www.w3.org/2000/svg" viewBox="0 0 448 512"><!--! Font Awesome Pro 6.4.0 by @fontawesome - https://fontawesome.com License - https://fontawesome.com/license (Commercial License) Copyright 2023 Fonticons, Inc. --><path d="M432 352v64c0 26.5-21.5 48-48 48H64c-26.5 0-48-21.5-48-48V352H432zm-11.3-16H155.3l42.3-42.3L282.3 209c3.1-3.1 8.2-3.1 11.3 0l127 127zm-282.3-5.7l-5.7 5.7H27.3l95-95c3.1-3.1 8.2-3.1 11.3 0l47 47-42.3 42.3zM16 96c0-26.5 21.5-48 48-48H384c26.5 0 48 21.5 48 48V324.7l-127-127c-9.4-9.4-24.6-9.4-33.9 0l-79 79-47-47c-9.4-9.4-24.6-9.4-33.9 0l-95 95V96zM448 336V96c0-35.3-28.7-64-64-64H64C28.7 32 0 60.7 0 96V336v8 8 64c0 35.3 28.7 64 64 64H384c35.3 0 64-28.7 64-64V352v-8-8zM136 144a24 24 0 1 1 -48 0 24 24 0 1 1 48 0zm-24-40a40 40 0 1 0 0 80 40 40 0 1 0 0-80z"/></svg>