<svg xmlns="http://www.w3.org/2000/svg" viewBox="0 0 512 512"><!--! Font Awesome Pro 6.4.0 by @fontawesome - https://fontawesome.com License - https://fontawesome.com/license (Commercial License) Copyright 2023 Fonticons, Inc. --><path d="M16 327.9V416c0 26.5 21.5 48 48 48H448c26.5 0 48-21.5 48-48V327.9c0-2.6-.2-5.3-.6-7.9H393.9c-3 0-5.8 1.7-7.2 4.4l-23.2 46.3c-4.1 8.1-12.4 13.3-21.5 13.3H169.9c-9.1 0-17.4-5.1-21.5-13.3l-23.2-46.3c-1.4-2.7-4.1-4.4-7.2-4.4H16.7c-.4 2.6-.7 5.2-.7 7.9zM436.6 84.4C431.3 63 412.1 48 390 48H122c-22 0-41.2 15-46.6 36.4L20.5 304h97.6c9.1 0 17.4 5.1 21.5 13.3l23.2 46.3c1.4 2.7 4.1 4.4 7.2 4.4H342.1c3 0 5.8-1.7 7.2-4.4l23.2-46.3c4.1-8.1 12.4-13.3 21.5-13.3h97.6L436.6 84.4zM0 416V327.9c0-5.2 .6-10.4 1.9-15.5l58-231.9C67 52 92.6 32 122 32H390c29.4 0 55 20 62.1 48.5l58 231.9c1.3 5.1 1.9 10.3 1.9 15.5V416c0 35.3-28.7 64-64 64H64c-35.3 0-64-28.7-64-64zM152 112H368c4.4 0 8 3.6 8 8s-3.6 8-8 8H152c-4.4 0-8-3.6-8-8s3.6-8 8-8zm-24 64H384c4.4 0 8 3.6 8 8s-3.6 8-8 8H128c-4.4 0-8-3.6-8-8s3.6-8 8-8zm-16 64H392c4.4 0 8 3.6 8 8s-3.6 8-8 8H112c-4.4 0-8-3.6-8-8s3.6-8 8-8z"/></svg>