<svg xmlns="http://www.w3.org/2000/svg" viewBox="0 0 512 512"><!--! Font Awesome Pro 6.4.0 by @fontawesome - https://fontawesome.com License - https://fontawesome.com/license (Commercial License) Copyright 2023 Fonticons, Inc. --><path d="M21.5 160H124.2c15.2 0 29 8.6 35.8 22.1l14.3 28.6c4.1 8.1 12.4 13.3 21.5 13.3H316.2c9.1 0 17.4-5.1 21.5-13.3L352 182.1c6.8-13.6 20.6-22.1 35.8-22.1H490.5L430.6 34.2C425.3 23.1 414 16 401.7 16H110.3C98 16 86.7 23.1 81.4 34.2L21.5 160zm474.3 16H387.8c-9.1 0-17.4 5.1-21.5 13.3L352 217.9c-6.8 13.6-20.6 22.1-35.8 22.1H195.8c-15.2 0-29-8.6-35.8-22.1l-14.3-28.6c-4.1-8.1-12.4-13.3-21.5-13.3H16.1c-.1 .9-.1 1.9-.1 2.8V272c0 17.7 14.3 32 32 32H464c17.7 0 32-14.3 32-32V178.8c0-1 0-1.9-.1-2.8zM4.7 158.2L67 27.4C74.9 10.6 91.8 0 110.3 0H401.7c18.5 0 35.4 10.6 43.3 27.4l62.3 130.8c3.1 6.4 4.7 13.5 4.7 20.6V272c0 26.5-21.5 48-48 48H48c-26.5 0-48-21.5-48-48V178.8c0-7.1 1.6-14.2 4.7-20.6zM122.3 368H48c-17.7 0-32 14.3-32 32v64c0 17.7 14.3 32 32 32H464c17.7 0 32-14.3 32-32V400c0-17.7-14.3-32-32-32H389.7c-12.1 0-23.2 6.8-28.6 17.7l-9.9 19.8C343 421.7 326.4 432 308.2 432H203.8c-18.2 0-34.8-10.3-42.9-26.5L151 385.7c-5.4-10.8-16.5-17.7-28.6-17.7zm214.5 30.3l9.9-19.8c8.1-16.3 24.8-26.5 42.9-26.5H464c26.5 0 48 21.5 48 48v64c0 26.5-21.5 48-48 48H48c-26.5 0-48-21.5-48-48V400c0-26.5 21.5-48 48-48h74.3c18.2 0 34.8 10.3 42.9 26.5l9.9 19.8c5.4 10.8 16.5 17.7 28.6 17.7H308.2c12.1 0 23.2-6.8 28.6-17.7z"/></svg>