<svg xmlns="http://www.w3.org/2000/svg" viewBox="0 0 512 512"><!--! Font Awesome Pro 6.4.0 by @fontawesome - https://fontawesome.com License - https://fontawesome.com/license (Commercial License) Copyright 2023 Fonticons, Inc. --><path d="M16 416V327.9c0-2.6 .2-5.3 .7-7.9H118.1c3 0 5.8 1.7 7.2 4.4l23.2 46.3c4.1 8.1 12.4 13.3 21.5 13.3H342.1c9.1 0 17.4-5.1 21.5-13.3l23.2-46.3c1.4-2.7 4.1-4.4 7.2-4.4H495.4c.4 2.6 .6 5.2 .6 7.9V416c0 26.5-21.5 48-48 48H64c-26.5 0-48-21.5-48-48zM491.5 304H393.9c-9.1 0-17.4 5.1-21.5 13.3l-23.2 46.3c-1.4 2.7-4.1 4.4-7.2 4.4H169.9c-3 0-5.8-1.7-7.2-4.4l-23.2-46.3c-4.1-8.1-12.4-13.3-21.5-13.3H20.5L75.4 84.4C80.7 63 99.9 48 122 48H390c22 0 41.2 15 46.6 36.4L491.5 304zM0 327.9V416c0 35.3 28.7 64 64 64H448c35.3 0 64-28.7 64-64V327.9c0-5.2-.6-10.4-1.9-15.5l-58-231.9C445 52 419.4 32 390 32H122C92.6 32 67 52 59.9 80.5L1.9 312.4C.6 317.4 0 322.6 0 327.9z"/></svg>