<svg xmlns="http://www.w3.org/2000/svg" viewBox="0 0 576 512"><!--! Font Awesome Pro 6.4.0 by @fontawesome - https://fontawesome.com License - https://fontawesome.com/license (Commercial License) Copyright 2023 Fonticons, Inc. --><path d="M48 72c0-13.3 10.7-24 24-24h64c13.3 0 24 10.7 24 24V211.6c0 2.8 1.5 5.4 3.8 6.8s5.4 1.6 7.8 .3l157-81.4c10.7-5.5 23.4 2.2 23.4 14.2v59.1c0 2.8 1.5 5.5 4 6.9s5.5 1.5 8 .1L504.2 139c10.7-6 23.8 1.7 23.8 14V304v16V424c0 22.1-17.9 40-40 40H88c-22.1 0-40-17.9-40-40V352 304 72zM72 32C49.9 32 32 49.9 32 72V304v48 72c0 30.9 25.1 56 56 56H488c30.9 0 56-25.1 56-56V320 304 152.9c0-24.4-26.3-39.9-47.6-27.9L368 196.9V151.5c0-24-25.4-39.5-46.7-28.4L176 198.4V72c0-22.1-17.9-40-40-40H72zm72 272c-13.3 0-24 10.7-24 24v32c0 13.3 10.7 24 24 24h32c13.3 0 24-10.7 24-24V328c0-13.3-10.7-24-24-24H144zm-8 24c0-4.4 3.6-8 8-8h32c4.4 0 8 3.6 8 8v32c0 4.4-3.6 8-8 8H144c-4.4 0-8-3.6-8-8V328zm112 0v32c0 13.3 10.7 24 24 24h32c13.3 0 24-10.7 24-24V328c0-13.3-10.7-24-24-24H272c-13.3 0-24 10.7-24 24zm24-8h32c4.4 0 8 3.6 8 8v32c0 4.4-3.6 8-8 8H272c-4.4 0-8-3.6-8-8V328c0-4.4 3.6-8 8-8zm128-16c-13.3 0-24 10.7-24 24v32c0 13.3 10.7 24 24 24h32c13.3 0 24-10.7 24-24V328c0-13.3-10.7-24-24-24H400zm-8 24c0-4.4 3.6-8 8-8h32c4.4 0 8 3.6 8 8v32c0 4.4-3.6 8-8 8H400c-4.4 0-8-3.6-8-8V328z"/></svg>