<svg xmlns="http://www.w3.org/2000/svg" viewBox="0 0 576 512"><!--! Font Awesome Pro 6.4.0 by @fontawesome - https://fontawesome.com License - https://fontawesome.com/license (Commercial License) Copyright 2023 Fonticons, Inc. --><path d="M72 48C58.7 48 48 58.7 48 72V304v48 72c0 22.1 17.9 40 40 40H488c22.1 0 40-17.9 40-40V320 304 152.9c0-12.2-13.2-19.9-23.8-14L363.9 217.5c-2.5 1.4-5.5 1.4-8-.1s-4-4.1-4-6.9V153.8c0-12.3-13.4-20-24.1-13.8L188 221.6c-2.5 1.4-5.5 1.5-8 0s-4-4.1-4-6.9V72c0-13.3-10.7-24-24-24H72zM32 72c0-22.1 17.9-40 40-40h80c22.1 0 40 17.9 40 40V200.7l127.9-74.6c21.3-12.4 48.1 2.9 48.1 27.6v43.1L496.4 125c21.3-11.9 47.6 3.5 47.6 27.9V304v16V424c0 30.9-25.1 56-56 56H88c-30.9 0-56-25.1-56-56V352 304 72z"/></svg>