<svg xmlns="http://www.w3.org/2000/svg" viewBox="0 0 640 512"><!--! Font Awesome Pro 6.4.0 by @fontawesome - https://fontawesome.com License - https://fontawesome.com/license (Commercial License) Copyright 2023 Fonticons, Inc. --><path d="M576 80c26.5 0 48 21.5 48 48V384c0 26.5-21.5 48-48 48H64c-26.5 0-48-21.5-48-48V128c0-26.5 21.5-48 48-48H576zM64 64C28.7 64 0 92.7 0 128V384c0 35.3 28.7 64 64 64H576c35.3 0 64-28.7 64-64V128c0-35.3-28.7-64-64-64H64zm40 112c0 4.4 3.6 8 8 8h24V328H112c-4.4 0-8 3.6-8 8s3.6 8 8 8h64c4.4 0 8-3.6 8-8s-3.6-8-8-8H152V176c0-4.4-3.6-8-8-8H112c-4.4 0-8 3.6-8 8zm154.5 22.3c12.3-14.7 34.2-16.4 48.7-3.8c14.1 12.4 15.6 33.8 3.3 48L234 330.8c-2.1 2.4-2.5 5.7-1.2 8.6s4.1 4.7 7.3 4.7h96c4.4 0 8-3.6 8-8s-3.6-8-8-8H257.5l65.1-75.1c18.1-20.8 15.9-52.4-4.9-70.5c-21.2-18.5-53.5-16-71.5 5.6l-12.4 14.9c-2.8 3.4-2.4 8.4 1 11.3s8.4 2.4 11.3-1l12.4-14.9z"/></svg>