<svg xmlns="http://www.w3.org/2000/svg" viewBox="0 0 320 512"><!--! Font Awesome Pro 6.4.0 by @fontawesome - https://fontawesome.com License - https://fontawesome.com/license (Commercial License) Copyright 2023 Fonticons, Inc. --><path d="M136 48C78.6 48 32 94.6 32 152v8c0 4.4-3.6 8-8 8s-8-3.6-8-8v-8C16 85.7 69.7 32 136 32h48c66.3 0 120 53.7 120 120v6.3c0 33.8-16.4 65.5-44 85L195.1 289c-17 12-27.1 31.5-27.1 52.3V352v16c0 4.4-3.6 8-8 8s-8-3.6-8-8V352 341.3 128c0-4.4 3.6-8 8-8s8 3.6 8 8V293.3c5-6.6 11-12.5 17.9-17.4l64.9-45.8c23.4-16.5 37.3-43.3 37.3-71.9V152c0-57.4-46.6-104-104-104H136zm8 400a16 16 0 1 1 32 0 16 16 0 1 1 -32 0z"/></svg>