<svg xmlns="http://www.w3.org/2000/svg" viewBox="0 0 640 512"><!--! Font Awesome Pro 6.4.0 by @fontawesome - https://fontawesome.com License - https://fontawesome.com/license (Commercial License) Copyright 2023 Fonticons, Inc. --><path d="M448 8c0-4.4-3.6-8-8-8s-8 3.6-8 8V43c0 48.8 19.4 95.6 53.9 130.1l21 21C520.4 207.6 528 225.9 528 245v35c0 4.4 3.6 8 8 8s8-3.6 8-8V245c0-23.3-9.3-45.7-25.8-62.2l-21-21C465.7 130.3 448 87.5 448 43V8zM624 280c0 4.4 3.6 8 8 8s8-3.6 8-8V245c0-48.8-19.4-95.6-53.9-130.1l-21-21C551.6 80.4 544 62.1 544 43V8c0-4.4-3.6-8-8-8s-8 3.6-8 8V43c0 23.3 9.3 45.7 25.8 62.2l21 21C606.3 157.7 624 200.5 624 245v35zM266 368H406l3.6 4.8L502 496H362l-3.6-4.8L266 368zm160 0H592c17.7 0 32 14.3 32 32v64c0 17.7-14.3 32-32 32H522l-3.6-4.8L426 368zM342 496H258.6c-63.1 0-125.6-12-184.2-35.5L20.8 439.1c-2.9-1.2-4.8-4-4.8-7.1s1.9-5.9 4.8-7.1l53.6-21.4c54.7-21.9 112.9-33.8 171.7-35.3l3.5 4.6L342 496zM592 352H258.6c-65.1 0-129.7 12.4-190.2 36.6L14.9 410.1C5.9 413.6 0 422.3 0 432s5.9 18.4 14.9 21.9l53.6 21.4c60.5 24.2 125 36.6 190.2 36.6H592c26.5 0 48-21.5 48-48V400c0-26.5-21.5-48-48-48z"/></svg>