<svg xmlns="http://www.w3.org/2000/svg" viewBox="0 0 448 512"><!--! Font Awesome Pro 6.4.0 by @fontawesome - https://fontawesome.com License - https://fontawesome.com/license (Commercial License) Copyright 2023 Fonticons, Inc. --><path d="M320 112a96 96 0 1 0 -192 0 96 96 0 1 0 192 0zm16 0c0 59.2-45.9 107.6-104 111.7V352H384c35.3 0 64 28.7 64 64v32c0 35.3-28.7 64-64 64H64c-35.3 0-64-28.7-64-64V416c0-35.3 28.7-64 64-64H216V223.7c-58.1-4.1-104-52.6-104-111.7C112 50.1 162.1 0 224 0s112 50.1 112 112zM64 312c0-4.4 3.6-8 8-8h48c4.4 0 8 3.6 8 8s-3.6 8-8 8H72c-4.4 0-8-3.6-8-8zM432 416c0-26.5-21.5-48-48-48H64c-26.5 0-48 21.5-48 48v32c0 26.5 21.5 48 48 48H384c26.5 0 48-21.5 48-48V416zM192 80a16 16 0 1 0 32 0 16 16 0 1 0 -32 0zm16 32a32 32 0 1 1 0-64 32 32 0 1 1 0 64z"/></svg>