<svg xmlns="http://www.w3.org/2000/svg" viewBox="0 0 576 512"><!--! Font Awesome Pro 6.4.0 by @fontawesome - https://fontawesome.com License - https://fontawesome.com/license (Commercial License) Copyright 2023 Fonticons, Inc. --><path d="M64 16C37.5 16 16 37.5 16 64V224c0 26.5 21.5 48 48 48H512c26.5 0 48-21.5 48-48V64c0-26.5-21.5-48-48-48H64zM0 64C0 28.7 28.7 0 64 0H512c35.3 0 64 28.7 64 64V224c0 35.3-28.7 64-64 64H64c-35.3 0-64-28.7-64-64V64zM88 176c-4.4 0-8 3.6-8 8v16c0 4.4 3.6 8 8 8h16c4.4 0 8-3.6 8-8V184c0-4.4-3.6-8-8-8H88zm-24 8c0-13.3 10.7-24 24-24h16c13.3 0 24 10.7 24 24v16c0 13.3-10.7 24-24 24H88c-13.3 0-24-10.7-24-24V184zM200 80H184c-4.4 0-8 3.6-8 8v16c0 4.4 3.6 8 8 8h16c4.4 0 8-3.6 8-8V88c0-4.4-3.6-8-8-8zM184 64h16c13.3 0 24 10.7 24 24v16c0 13.3-10.7 24-24 24H184c-13.3 0-24-10.7-24-24V88c0-13.3 10.7-24 24-24zm0 112c-4.4 0-8 3.6-8 8v16c0 4.4 3.6 8 8 8H392c4.4 0 8-3.6 8-8V184c0-4.4-3.6-8-8-8H184zm-24 8c0-13.3 10.7-24 24-24H392c13.3 0 24 10.7 24 24v16c0 13.3-10.7 24-24 24H184c-13.3 0-24-10.7-24-24V184zm328-8H472c-4.4 0-8 3.6-8 8v16c0 4.4 3.6 8 8 8h16c4.4 0 8-3.6 8-8V184c0-4.4-3.6-8-8-8zm-16-16h16c13.3 0 24 10.7 24 24v16c0 13.3-10.7 24-24 24H472c-13.3 0-24-10.7-24-24V184c0-13.3 10.7-24 24-24zM88 80c-4.4 0-8 3.6-8 8v16c0 4.4 3.6 8 8 8h16c4.4 0 8-3.6 8-8V88c0-4.4-3.6-8-8-8H88zM64 88c0-13.3 10.7-24 24-24h16c13.3 0 24 10.7 24 24v16c0 13.3-10.7 24-24 24H88c-13.3 0-24-10.7-24-24V88zm232-8H280c-4.4 0-8 3.6-8 8v16c0 4.4 3.6 8 8 8h16c4.4 0 8-3.6 8-8V88c0-4.4-3.6-8-8-8zM280 64h16c13.3 0 24 10.7 24 24v16c0 13.3-10.7 24-24 24H280c-13.3 0-24-10.7-24-24V88c0-13.3 10.7-24 24-24zm96 16c-4.4 0-8 3.6-8 8v16c0 4.4 3.6 8 8 8h16c4.4 0 8-3.6 8-8V88c0-4.4-3.6-8-8-8H376zm-24 8c0-13.3 10.7-24 24-24h16c13.3 0 24 10.7 24 24v16c0 13.3-10.7 24-24 24H376c-13.3 0-24-10.7-24-24V88zm136-8H472c-4.4 0-8 3.6-8 8v16c0 4.4 3.6 8 8 8h16c4.4 0 8-3.6 8-8V88c0-4.4-3.6-8-8-8zM472 64h16c13.3 0 24 10.7 24 24v16c0 13.3-10.7 24-24 24H472c-13.3 0-24-10.7-24-24V88c0-13.3 10.7-24 24-24zM149.7 354.3L288 492.7 426.3 354.3c3.1-3.1 8.2-3.1 11.3 0s3.1 8.2 0 11.3l-144 144c-3.1 3.1-8.2 3.1-11.3 0l-144-144c-3.1-3.1-3.1-8.2 0-11.3s8.2-3.1 11.3 0z"/></svg>