<svg xmlns="http://www.w3.org/2000/svg" viewBox="0 0 640 512"><!--! Font Awesome Pro 6.4.0 by @fontawesome - https://fontawesome.com License - https://fontawesome.com/license (Commercial License) Copyright 2023 Fonticons, Inc. --><path d="M512 48H128c-26.5 0-48 21.5-48 48V352H64V96c0-35.3 28.7-64 64-64H512c35.3 0 64 28.7 64 64V352H560V96c0-26.5-21.5-48-48-48zM19.2 400c-1.8 0-3.2 1.4-3.2 3.2C16 436.8 43.2 464 76.8 464H563.2c33.6 0 60.8-27.2 60.8-60.8c0-1.8-1.4-3.2-3.2-3.2H19.2zM0 403.2C0 392.6 8.6 384 19.2 384H620.8c10.6 0 19.2 8.6 19.2 19.2c0 42.4-34.4 76.8-76.8 76.8H76.8C34.4 480 0 445.6 0 403.2z"/></svg>