<svg xmlns="http://www.w3.org/2000/svg" viewBox="0 0 640 512"><!--! Font Awesome Pro 6.4.0 by @fontawesome - https://fontawesome.com License - https://fontawesome.com/license (Commercial License) Copyright 2023 Fonticons, Inc. --><path d="M128 48H512c26.5 0 48 21.5 48 48V352h16V96c0-35.3-28.7-64-64-64H128C92.7 32 64 60.7 64 96V352H80V96c0-26.5 21.5-48 48-48zM624 403.2c0 33.6-27.2 60.8-60.8 60.8H76.8C43.2 464 16 436.8 16 403.2c0-1.8 1.4-3.2 3.2-3.2H620.8c1.8 0 3.2 1.4 3.2 3.2zM19.2 384C8.6 384 0 392.6 0 403.2C0 445.6 34.4 480 76.8 480H563.2c42.4 0 76.8-34.4 76.8-76.8c0-10.6-8.6-19.2-19.2-19.2H19.2zM200 120c-17.7 0-32 14.3-32 32v48c0 17.7 14.3 32 32 32h16c17.7 0 32-14.3 32-32V152c0-17.7-14.3-32-32-32H200zm-16 32c0-8.8 7.2-16 16-16h16c8.8 0 16 7.2 16 16v48c0 8.8-7.2 16-16 16H200c-8.8 0-16-7.2-16-16V152zm120-32c-4.4 0-8 3.6-8 8s3.6 8 8 8h8v88c0 4.4 3.6 8 8 8s8-3.6 8-8V128c0-4.4-3.6-8-8-8H304zm88 32v48c0 17.7 14.3 32 32 32h16c17.7 0 32-14.3 32-32V152c0-17.7-14.3-32-32-32H424c-17.7 0-32 14.3-32 32zm32-16h16c8.8 0 16 7.2 16 16v48c0 8.8-7.2 16-16 16H424c-8.8 0-16-7.2-16-16V152c0-8.8 7.2-16 16-16zM192 280c-4.4 0-8 3.6-8 8s3.6 8 8 8h8v56h16V288c0-4.4-3.6-8-8-8H192zm248 8c0-4.4-3.6-8-8-8H416c-4.4 0-8 3.6-8 8s3.6 8 8 8h8v56h16V288zm-80 24c0-17.7-14.3-32-32-32H312c-17.7 0-32 14.3-32 32v40h16V312c0-8.8 7.2-16 16-16h16c8.8 0 16 7.2 16 16v40h16V312z"/></svg>