<svg xmlns="http://www.w3.org/2000/svg" viewBox="0 0 640 512"><!--! Font Awesome Pro 6.4.0 by @fontawesome - https://fontawesome.com License - https://fontawesome.com/license (Commercial License) Copyright 2023 Fonticons, Inc. --><path d="M448 16H128c-26.5 0-48 21.5-48 48V288H320v16H80 64 19.2c-1.8 0-3.2 1.4-3.2 3.2C16 340.8 43.2 368 76.8 368H320v16H76.8C34.4 384 0 349.6 0 307.2C0 296.6 8.6 288 19.2 288H64V64C64 28.7 92.7 0 128 0H448c35.3 0 64 28.7 64 64V96H496V64c0-26.5-21.5-48-48-48zM624 464V259.9c0-1.3-.1-2.6-.2-3.9H552c-22.1 0-40-17.9-40-40V144.2c-1.3-.2-2.6-.2-3.9-.2H400c-17.7 0-32 14.3-32 32V464c0 17.7 14.3 32 32 32H592c17.7 0 32-14.3 32-32zM528 150.9V216c0 13.3 10.7 24 24 24h65.1c-.8-1-1.6-1.9-2.4-2.7l-83.9-83.9c-.9-.9-1.8-1.7-2.7-2.4zM592 512H400c-26.5 0-48-21.5-48-48V176c0-26.5 21.5-48 48-48H508.1c12.7 0 24.9 5.1 33.9 14.1l83.9 83.9c9 9 14.1 21.2 14.1 33.9V464c0 26.5-21.5 48-48 48z"/></svg>