<svg xmlns="http://www.w3.org/2000/svg" viewBox="0 0 640 512"><!--! Font Awesome Pro 6.4.0 by @fontawesome - https://fontawesome.com License - https://fontawesome.com/license (Commercial License) Copyright 2023 Fonticons, Inc. --><path d="M44.1 1.1c-3.8-2.3-8.7-1-11 2.7s-1 8.7 2.7 11l80 48c3.8 2.3 8.7 1 11-2.7s1-8.7-2.7-11l-80-48zm560 13.7c3.8-2.3 5-7.2 2.7-11s-7.2-5-11-2.7l-80 48c-3.8 2.3-5 7.2-2.7 11s7.2 5 11 2.7l80-48zM8 160c-4.4 0-8 3.6-8 8s3.6 8 8 8H88c4.4 0 8-3.6 8-8s-3.6-8-8-8H8zm544 0c-4.4 0-8 3.6-8 8s3.6 8 8 8h80c4.4 0 8-3.6 8-8s-3.6-8-8-8H552zM124.1 270.9c3.8-2.3 5-7.2 2.7-11s-7.2-5-11-2.7l-80 48c-3.8 2.3-5 7.2-2.7 11s7.2 5 11 2.7l80-48zm400-13.7c-3.8-2.3-8.7-1-11 2.7s-1 8.7 2.7 11l80 48c3.8 2.3 8.7 1 11-2.7s1-8.7-2.7-11l-80-48zM480 176c0 33.9-10.5 65.3-28.5 91.2c-4.5 6.5-9.5 13.3-14.5 20.2c-12.5 17.2-25.9 35.5-36.3 54.4c-7.4 13.5-11.6 27.8-14 42.2H403c2.2-12 5.9-23.7 11.8-34.5c9.9-18 22.2-34.9 34.5-51.8l0 0 0 0 0 0c5.2-7.1 10.4-14.2 15.4-21.4c19.8-28.5 31.4-63 31.4-100.3C496 78.8 417.2 0 320 0S144 78.8 144 176c0 37.3 11.6 71.9 31.4 100.3c5 7.2 10.2 14.3 15.4 21.4l0 0 0 0 0 0c12.3 16.8 24.6 33.7 34.5 51.8c5.9 10.8 9.6 22.5 11.8 34.5h16.2c-2.4-14.4-6.6-28.7-14-42.2c-10.4-19-23.7-37.3-36.3-54.4l0 0 0 0c-5-6.9-10-13.7-14.5-20.2c-18-25.9-28.5-57.3-28.5-91.2c0-88.4 71.6-160 160-160s160 71.6 160 160zm-256-8c0-48.6 39.4-88 88-88c4.4 0 8-3.6 8-8s-3.6-8-8-8c-57.4 0-104 46.6-104 104c0 4.4 3.6 8 8 8s8-3.6 8-8zm96 328c-35.3 0-64-28.7-64-64H384c0 35.3-28.7 64-64 64zm-80-69.3V432c0 44.2 35.8 80 80 80s80-35.8 80-80v-5.3c0-5.9-4.8-10.7-10.7-10.7H250.7c-5.9 0-10.7 4.8-10.7 10.7z"/></svg>