<svg xmlns="http://www.w3.org/2000/svg" viewBox="0 0 384 512"><!--! Font Awesome Pro 6.4.0 by @fontawesome - https://fontawesome.com License - https://fontawesome.com/license (Commercial License) Copyright 2023 Fonticons, Inc. --><path d="M64 16C37.5 16 16 37.5 16 64V448c0 26.5 21.5 48 48 48H320c26.5 0 48-21.5 48-48V64c0-26.5-21.5-48-48-48H64zM0 64C0 28.7 28.7 0 64 0H320c35.3 0 64 28.7 64 64V448c0 35.3-28.7 64-64 64H64c-35.3 0-64-28.7-64-64V64zM272 264H112V368c0 17.7 14.3 32 32 32h96c17.7 0 32-14.3 32-32V264zM112 248H272V144c0-17.7-14.3-32-32-32H144c-17.7 0-32 14.3-32 32V248zM96 144c0-26.5 21.5-48 48-48h96c26.5 0 48 21.5 48 48V368c0 26.5-21.5 48-48 48H144c-26.5 0-48-21.5-48-48V144zM192 40a16 16 0 1 1 0 32 16 16 0 1 1 0-32zm0 400a16 16 0 1 1 0 32 16 16 0 1 1 0-32zM152 160v48h80V160H152zm-16 0c0-8.8 7.2-16 16-16h80c8.8 0 16 7.2 16 16v48c0 8.8-7.2 16-16 16H152c-8.8 0-16-7.2-16-16V160z"/></svg>