<svg xmlns="http://www.w3.org/2000/svg" viewBox="0 0 320 512"><!--! Font Awesome Pro 6.4.0 by @fontawesome - https://fontawesome.com License - https://fontawesome.com/license (Commercial License) Copyright 2023 Fonticons, Inc. --><path d="M160 47.7c0 14.1-9.6 26.4-23.2 29.9l-.1 0L54.4 98.2l0 0C34.9 103 16.1 88.3 16.1 68.3c0-14.1 9.6-26.5 23.3-29.9l82.2-20.6C141.1 13 160 27.7 160 47.7zM.1 68.3c0 17.2 9.2 31.9 22.5 40C8.9 116.6 .1 131.6 .1 148.3c0 17.2 9.2 31.9 22.5 40C8.9 196.6 .1 211.6 .1 228.3c0 30.5 28.6 52.8 58.2 45.4l95.6-23.9 0 0 111.7-27.9 .1 0c19.4-4.8 38.2 9.9 38.2 29.9c0 14.1-9.6 26.5-23.3 29.9l-70.5 17.6c-10.7 2.7-18.2 12.3-18.2 23.3V352H128V285.2l-16 4V352H96c-17.7 0-32 14.3-32 32v48c0 17.7 14.3 32 32 32h16c0 26.5 21.5 48 48 48s48-21.5 48-48h16c17.7 0 32-14.3 32-32V384c0-17.7-14.3-32-32-32H207.9V322.5c0-3.7 2.5-6.9 6.1-7.8l70.5-17.6c20.8-5.2 35.5-23.9 35.5-45.4c0-17.2-9.2-31.9-22.5-40c13.7-8.3 22.5-23.3 22.5-40c0-17.2-9.2-31.9-22.5-40c13.7-8.3 22.5-23.3 22.5-40c0-30.5-28.6-52.8-58.2-45.4L170.8 69.1c3.3-6.4 5.1-13.7 5.1-21.3c0-30.5-28.6-52.8-58.2-45.4L35.6 22.9C14.7 28.1 .1 46.8 .1 68.3zm39.3 50.1l18.8-4.7 .1 0 82.2-20.6 .1 0 125-31.3c19.4-4.9 38.3 9.8 38.3 29.9c0 14.1-9.6 26.5-23.3 29.9l-18.8 4.7L54.4 178.2c-19.4 4.9-38.3-9.8-38.3-29.9c0-14.1 9.6-26.5 23.3-29.9zM199.9 368l0 0 0 0H224c8.8 0 16 7.2 16 16v48c0 8.8-7.2 16-16 16H200 120 96c-8.8 0-16-7.2-16-16V384c0-8.8 7.2-16 16-16H199.9zm62-161.7l-.1 0L150 234.2 54.4 258.2c-19.4 4.9-38.3-9.8-38.3-29.9c0-14.1 9.6-26.5 23.3-29.9l18.8-4.7 207.4-51.8c19.4-4.9 38.3 9.8 38.3 29.9c0 14.1-9.6 26.5-23.3 29.9l-18.7 4.7zM160 496c-17.7 0-32-14.3-32-32h64c0 17.7-14.3 32-32 32z"/></svg>