<svg xmlns="http://www.w3.org/2000/svg" viewBox="0 0 512 512"><!--! Font Awesome Pro 6.4.0 by @fontawesome - https://fontawesome.com License - https://fontawesome.com/license (Commercial License) Copyright 2023 Fonticons, Inc. --><path d="M157.7 53.7c3.1-3.1 3.1-8.2 0-11.3s-8.2-3.1-11.3 0L63.5 125.2 21.1 89.9c-3.4-2.8-8.4-2.4-11.3 1s-2.4 8.4 1 11.3l48 40c3.2 2.6 7.9 2.4 10.8-.5l88-88zm0 160c3.1-3.1 3.1-8.2 0-11.3s-8.2-3.1-11.3 0L63.5 285.2 21.1 249.9c-3.4-2.8-8.4-2.4-11.3 1s-2.4 8.4 1 11.3l48 40c3.2 2.6 7.9 2.4 10.8-.5l88-88zM200 96c0 4.4 3.6 8 8 8H496c4.4 0 8-3.6 8-8s-3.6-8-8-8H208c-4.4 0-8 3.6-8 8zm0 160c0 4.4 3.6 8 8 8H496c4.4 0 8-3.6 8-8s-3.6-8-8-8H208c-4.4 0-8 3.6-8 8zM168 416c0 4.4 3.6 8 8 8H496c4.4 0 8-3.6 8-8s-3.6-8-8-8H176c-4.4 0-8 3.6-8 8zm-88 0a16 16 0 1 0 -32 0 16 16 0 1 0 32 0z"/></svg>