<svg xmlns="http://www.w3.org/2000/svg" viewBox="0 0 512 512"><!--! Font Awesome Pro 6.4.0 by @fontawesome - https://fontawesome.com License - https://fontawesome.com/license (Commercial License) Copyright 2023 Fonticons, Inc. --><path d="M256 0c4.4 0 8 3.6 8 8V64.2c99.7 4.1 179.8 84.2 183.8 183.8H504c4.4 0 8 3.6 8 8s-3.6 8-8 8H447.8c-4.1 99.7-84.2 179.8-183.8 183.8V504c0 4.4-3.6 8-8 8s-8-3.6-8-8V447.8C148.3 443.8 68.2 363.7 64.2 264H8c-4.4 0-8-3.6-8-8s3.6-8 8-8H64.2C68.2 148.3 148.3 68.2 248 64.2V8c0-4.4 3.6-8 8-8zM80 256a176 176 0 1 0 352 0A176 176 0 1 0 80 256zm256 0a80 80 0 1 0 -160 0 80 80 0 1 0 160 0zm-176 0a96 96 0 1 1 192 0 96 96 0 1 1 -192 0z"/></svg>