<svg xmlns="http://www.w3.org/2000/svg" viewBox="0 0 384 512"><!-- Font Awesome Pro 6.0.0-alpha2 by @fontawesome - https://fontawesome.com License - https://fontawesome.com/license (Commercial License) --><path d="M192 0C85.969 0 0 85.969 0 192C0 269.41 26.969 291.035 172.281 501.676C177.047 508.559 184.523 512 192 512S206.953 508.559 211.719 501.676C357.031 291.035 384 269.41 384 192C384 85.969 298.031 0 192 0ZM198.564 492.566C196.496 495.555 193.564 496 192 496S187.504 495.555 185.451 492.59C159.52 455 137.354 423.422 118.432 396.473C31.639 272.836 16 250.555 16 192C16 94.953 94.953 16 192 16S368 94.953 368 192C368 250.555 352.361 272.836 265.568 396.473C246.646 423.422 224.48 455 198.564 492.566Z"/></svg>