<svg xmlns="http://www.w3.org/2000/svg" viewBox="0 0 448 512"><!--! Font Awesome Pro 6.4.0 by @fontawesome - https://fontawesome.com License - https://fontawesome.com/license (Commercial License) Copyright 2023 Fonticons, Inc. --><path d="M224 16c61.9 0 112 50.1 112 112v64H112V128c0-61.9 50.1-112 112-112zM96 128v64H64c-35.3 0-64 28.7-64 64V448c0 35.3 28.7 64 64 64H384c35.3 0 64-28.7 64-64V256c0-35.3-28.7-64-64-64H352V128C352 57.3 294.7 0 224 0S96 57.3 96 128zM64 208H96h16H336h16 32c26.5 0 48 21.5 48 48V448c0 26.5-21.5 48-48 48H64c-26.5 0-48-21.5-48-48V256c0-26.5 21.5-48 48-48zM240 320v64c0 8.8-7.2 16-16 16s-16-7.2-16-16V320c0-8.8 7.2-16 16-16s16 7.2 16 16zm-48 0v64c0 17.7 14.3 32 32 32s32-14.3 32-32V320c0-17.7-14.3-32-32-32s-32 14.3-32 32z"/></svg>