<svg xmlns="http://www.w3.org/2000/svg" viewBox="0 0 448 512"><!--! Font Awesome Pro 6.4.0 by @fontawesome - https://fontawesome.com License - https://fontawesome.com/license (Commercial License) Copyright 2023 Fonticons, Inc. --><path d="M112 128v64H336V128c0-61.9-50.1-112-112-112s-112 50.1-112 112zM96 192V128C96 57.3 153.3 0 224 0s128 57.3 128 128v64h32c35.3 0 64 28.7 64 64V448c0 35.3-28.7 64-64 64H64c-35.3 0-64-28.7-64-64V256c0-35.3 28.7-64 64-64H96zm0 16H64c-26.5 0-48 21.5-48 48V448c0 26.5 21.5 48 48 48H384c26.5 0 48-21.5 48-48V256c0-26.5-21.5-48-48-48H352 336 112 96zm80 40c4.4 0 8 3.6 8 8v40h80V256c0-4.4 3.6-8 8-8s8 3.6 8 8v40h40c4.4 0 8 3.6 8 8s-3.6 8-8 8H280v80h40c4.4 0 8 3.6 8 8s-3.6 8-8 8H280v40c0 4.4-3.6 8-8 8s-8-3.6-8-8V408H184v40c0 4.4-3.6 8-8 8s-8-3.6-8-8V408H128c-4.4 0-8-3.6-8-8s3.6-8 8-8h40V312H128c-4.4 0-8-3.6-8-8s3.6-8 8-8h40V256c0-4.4 3.6-8 8-8zm8 144h80V312H184v80z"/></svg>