<svg xmlns="http://www.w3.org/2000/svg" viewBox="0 0 576 512"><!--! Font Awesome Pro 6.4.0 by @fontawesome - https://fontawesome.com License - https://fontawesome.com/license (Commercial License) Copyright 2023 Fonticons, Inc. --><path d="M312 32c-4.4 0-8 3.6-8 8s3.6 8 8 8h32c119.3 0 216 96.7 216 216v2.9C542.8 241 513.4 224 480 224H444.6l-53.7-92c-1.4-2.4-3.9-3.9-6.7-4s-5.4 1.3-6.9 3.6l-56.7 86.9-58-86.9c-1.4-2.2-3.9-3.5-6.5-3.6s-5.1 1.1-6.6 3.2L181.1 224h-79C63.4 224 32 255.4 32 294.1c0 27.5 16 52.4 41 63.8l6.9 3.2L1.6 467.2c-2.6 3.6-1.9 8.6 1.7 11.2s8.6 1.9 11.2-1.7L94.8 367.9 136.6 387c13.2 6.1 26.8 11.2 40.7 15.4l-47.8 64.9c-2.6 3.6-1.9 8.6 1.7 11.2s8.6 1.9 11.2-1.7l48-65.1c1.1-1.6 1.6-3.4 1.5-5.2c25.3 6.3 51.4 9.6 77.7 9.6h19.9l-32.4 51.8c-2.3 3.7-1.2 8.7 2.5 11s8.7 1.2 11-2.5L308.4 416H480c6.2 0 12.3-.6 18.2-1.7l30.6 61.3c2 4 6.8 5.6 10.7 3.6s5.6-6.8 3.6-10.7l-29.3-58.6C550.2 396.2 576 361.1 576 320c0-2.1-.1-4.2-.2-6.2c.1-.6 .2-1.2 .2-1.8V264C576 135.9 472.1 32 344 32H312zM440.2 240H480c44.2 0 80 35.8 80 80s-35.8 80-80 80H304.1h-.3H269.7c-43.6 0-86.7-9.4-126.4-27.5l-38.8-17.7L189.2 240H319.9h.2H439.9h.3zm-56.5-88.8L426.1 224H336.1l47.5-72.8zm-127.9-1.3L305.1 224H201l54.7-74.1zM102.1 240h67.2L89.6 347.9l-10-4.6C60.4 334.6 48 315.3 48 294.1c0-29.9 24.2-54.1 54.1-54.1zM480 336a16 16 0 1 0 0-32 16 16 0 1 0 0 32z"/></svg>