<svg xmlns="http://www.w3.org/2000/svg" viewBox="0 0 448 512"><!--! Font Awesome Pro 6.4.0 by @fontawesome - https://fontawesome.com License - https://fontawesome.com/license (Commercial License) Copyright 2023 Fonticons, Inc. --><path d="M432 352c0 79.5-64.5 144-144 144H160C80.5 496 16 431.5 16 352V224C16 109.1 109.1 16 224 16s208 93.1 208 208V352zM224 0C100.3 0 0 100.3 0 224V352c0 88.4 71.6 160 160 160H288c88.4 0 160-71.6 160-160V224C448 100.3 347.7 0 224 0zM56 184v24c0 48.6 39.4 88 88 88h27.1l-8 16H152c-39.8 0-72 32.2-72 72s32.2 72 72 72h72 72c39.8 0 72-32.2 72-72s-32.2-72-72-72H284.9l-8-16h30.2c50.6 0 90.8-42.6 87.8-93.2l-1.2-21.2C392.5 160.5 375 144 353.8 144H290.3c-24.1 0-46.6 12-59.9 32.1l-6.3 9.5-6.3-9.5c-13.4-20-35.8-32.1-59.9-32.1H96c-22.1 0-40 17.9-40 40zm40-24h61.7c18.7 0 36.2 9.4 46.6 24.9l13 19.5c1.5 2.2 4 3.6 6.7 3.6s5.2-1.3 6.7-3.6l13-19.5C254 169.4 271.5 160 290.3 160h63.6c12.7 0 23.2 9.9 24 22.6l1.2 21.2c2.4 41.4-30.4 76.2-71.9 76.2H264c-2.8 0-5.3 1.4-6.8 3.8s-1.6 5.3-.4 7.8l16 32c1.4 2.7 4.1 4.4 7.2 4.4h16c30.9 0 56 25.1 56 56s-25.1 56-56 56H224 152c-30.9 0-56-25.1-56-56s25.1-56 56-56h16c3 0 5.8-1.7 7.2-4.4l16-32c1.2-2.5 1.1-5.4-.4-7.8s-4-3.8-6.8-3.8H144c-39.8 0-72-32.2-72-72V184c0-13.3 10.7-24 24-24zm96 80H152c-22.1 0-40-17.9-40-40h40c22.1 0 40 17.9 40 40zm0 16c8.8 0 16-7.2 16-16c0-30.9-25.1-56-56-56H112c-8.8 0-16 7.2-16 16c0 30.9 25.1 56 56 56h40zm104-16H256c0-22.1 17.9-40 40-40h40c0 22.1-17.9 40-40 40zm0 16c30.9 0 56-25.1 56-56c0-8.8-7.2-16-16-16H296c-30.9 0-56 25.1-56 56c0 8.8 7.2 16 16 16h40zM136 384c0-8.8 7.2-16 16-16H296c8.8 0 16 7.2 16 16s-7.2 16-16 16H152c-8.8 0-16-7.2-16-16zm-16 0c0 17.7 14.3 32 32 32H296c17.7 0 32-14.3 32-32s-14.3-32-32-32H152c-17.7 0-32 14.3-32 32z"/></svg>