<svg xmlns="http://www.w3.org/2000/svg" viewBox="0 0 576 512"><!--! Font Awesome Pro 6.4.0 by @fontawesome - https://fontawesome.com License - https://fontawesome.com/license (Commercial License) Copyright 2023 Fonticons, Inc. --><path d="M272 384c0 26.5-21.5 48-48 48H64c-26.5 0-48-21.5-48-48V208C16 137.3 73.3 80 144 80s128 57.3 128 128V384zm16-176c0-55.7-31.7-104.1-78-128H432c70.7 0 128 57.3 128 128V384c0 26.5-21.5 48-48 48H266.3c13.3-11.7 21.7-28.9 21.7-48V208zM64 448H224 512c35.3 0 64-28.7 64-64V208c0-79.5-64.5-144-144-144H144C64.5 64 0 128.5 0 208V384c0 35.3 28.7 64 64 64zm8-256c-4.4 0-8 3.6-8 8s3.6 8 8 8H216c4.4 0 8-3.6 8-8s-3.6-8-8-8H72zm304 0c-4.4 0-8 3.6-8 8s3.6 8 8 8h56v64c0 13.3 10.7 24 24 24h32c13.3 0 24-10.7 24-24V216c0-13.3-10.7-24-24-24H440 376zm72 80V208h40c4.4 0 8 3.6 8 8v56c0 4.4-3.6 8-8 8H456c-4.4 0-8-3.6-8-8z"/></svg>