<svg xmlns="http://www.w3.org/2000/svg" viewBox="0 0 576 512"><!--! Font Awesome Pro 6.4.0 by @fontawesome - https://fontawesome.com License - https://fontawesome.com/license (Commercial License) Copyright 2023 Fonticons, Inc. --><path d="M181.3 32.5c1.6-.6 3.4-.6 5.1-.1L391.8 95.6 533.1 44.2c20.9-7.6 42.9 7.9 42.9 30.1V391.2c0 13.5-8.4 25.5-21.1 30.1L394.7 479.5c-1.6 .6-3.4 .6-5.1 .1L184.2 416.4 42.9 467.8C22.1 475.4 0 459.9 0 437.7V120.8c0-13.5 8.4-25.5 21.1-30.1L181.3 32.5zM26.5 105.8c-6.3 2.3-10.5 8.3-10.5 15V437.7c0 11.1 11 18.8 21.5 15L176 402.4V51.4L26.5 105.8zM384 461.2V109.9L192 50.8V402.1l192 59.1zm16-.6l149.5-54.4c6.3-2.3 10.5-8.3 10.5-15V74.3c0-11.1-11-18.8-21.5-15L400 109.6v351z"/></svg>