<svg xmlns="http://www.w3.org/2000/svg" viewBox="0 0 320 512"><!--! Font Awesome Pro 6.4.0 by @fontawesome - https://fontawesome.com License - https://fontawesome.com/license (Commercial License) Copyright 2023 Fonticons, Inc. --><path d="M165.7 2.3c-3.1-3.1-8.2-3.1-11.3 0l-64 64c-3.1 3.1-3.1 8.2 0 11.3s8.2 3.1 11.3 0L152 27.3V128H96c-4.4 0-8 3.6-8 8s3.6 8 8 8h56v48.2C67.4 196.4 0 266.3 0 352c0 88.4 71.6 160 160 160s160-71.6 160-160c0-85.7-67.4-155.6-152-159.8V144h56c4.4 0 8-3.6 8-8s-3.6-8-8-8H168V27.3l50.3 50.3c3.1 3.1 8.2 3.1 11.3 0s3.1-8.2 0-11.3l-64-64zM160 496a144 144 0 1 1 0-288 144 144 0 1 1 0 288z"/></svg>