<svg xmlns="http://www.w3.org/2000/svg" viewBox="0 0 640 512"><!--! Font Awesome Pro 6.4.0 by @fontawesome - https://fontawesome.com License - https://fontawesome.com/license (Commercial License) Copyright 2023 Fonticons, Inc. --><path d="M48 256a160 160 0 1 1 320 0A160 160 0 1 1 48 256zm335.8-8C379.6 154.5 302.5 80 208 80C110.8 80 32 158.8 32 256s78.8 176 176 176c94.5 0 171.6-74.5 175.8-168H448v56c0 4.4 3.6 8 8 8s8-3.6 8-8V264H580.7l-74.3 74.3c-3.1 3.1-3.1 8.2 0 11.3s8.2 3.1 11.3 0l88-88c3.1-3.1 3.1-8.2 0-11.3l-88-88c-3.1-3.1-8.2-3.1-11.3 0s-3.1 8.2 0 11.3L580.7 248H464V192c0-4.4-3.6-8-8-8s-8 3.6-8 8v56H383.8z"/></svg>