<svg xmlns="http://www.w3.org/2000/svg" viewBox="0 0 576 512"><!--! Font Awesome Pro 6.4.0 by @fontawesome - https://fontawesome.com License - https://fontawesome.com/license (Commercial License) Copyright 2023 Fonticons, Inc. --><path d="M432 272c-27.6 0-53.2-8.8-74.1-23.6l-11.5 11.5C370.3 277.5 399.9 288 432 288c79.5 0 144-64.5 144-144S511.5 0 432 0C367.8 0 313.4 42 294.8 100h16.9c17.9-49 65-84 120.2-84c70.7 0 128 57.3 128 128s-57.3 128-128 128zM8 128c-3.2 0-6.2 1.9-7.4 4.9s-.6 6.4 1.7 8.7L200 339.3V496H104c-4.4 0-8 3.6-8 8s3.6 8 8 8H208 312c4.4 0 8-3.6 8-8s-3.6-8-8-8H216V339.3L413.7 141.7c2.3-2.3 3-5.7 1.7-8.7s-4.2-4.9-7.4-4.9H8zm380.7 16L208 324.7 27.3 144H388.7z"/></svg>