<svg xmlns="http://www.w3.org/2000/svg" viewBox="0 0 512 512"><!--! Font Awesome Pro 6.4.0 by @fontawesome - https://fontawesome.com License - https://fontawesome.com/license (Commercial License) Copyright 2023 Fonticons, Inc. --><path d="M16 25.5c0-5.3 4.3-9.5 9.5-9.5H486.5c5.3 0 9.5 4.3 9.5 9.5c0 2.5-1 5-2.8 6.7L397.5 128h-283L18.8 32.3C17 30.5 16 28.1 16 25.5zM130.5 144h251L256 269.5 130.5 144zM7.5 43.6L248 284.1V496H136c-4.4 0-8 3.6-8 8s3.6 8 8 8H256 376c4.4 0 8-3.6 8-8s-3.6-8-8-8H264V284.1L504.5 43.6c4.8-4.8 7.5-11.3 7.5-18.1C512 11.4 500.6 0 486.5 0H25.5C11.4 0 0 11.4 0 25.5c0 6.8 2.7 13.3 7.5 18.1z"/></svg>