<svg xmlns="http://www.w3.org/2000/svg" viewBox="0 0 576 512"><!--! Font Awesome Pro 6.4.0 by @fontawesome - https://fontawesome.com License - https://fontawesome.com/license (Commercial License) Copyright 2023 Fonticons, Inc. --><path d="M16 128c0-26.5 21.5-48 48-48H512c26.5 0 48 21.5 48 48v7.4c0 .1-.1 .3-.3 .6c-.4 .7-1.3 1.5-2.5 2.4C539.6 149.7 528 169.5 528 192s11.6 42.3 29.2 53.7c1.3 .8 2.1 1.7 2.5 2.4c.2 .3 .3 .5 .3 .6V320H16V248.6c0-.1 .1-.3 .3-.6c.4-.7 1.3-1.5 2.5-2.4C36.4 234.3 48 214.5 48 192s-11.6-42.3-29.2-53.7c-1.3-.8-2.1-1.7-2.5-2.4c-.2-.3-.3-.5-.3-.6V128zm0 208H560v80c0 8.8-7.2 16-16 16H480V400c0-4.4-3.6-8-8-8s-8 3.6-8 8v32H352V400c0-4.4-3.6-8-8-8s-8 3.6-8 8v32H240V400c0-4.4-3.6-8-8-8s-8 3.6-8 8v32H112V400c0-4.4-3.6-8-8-8s-8 3.6-8 8v32H32c-8.8 0-16-7.2-16-16V336zM32 448h72H232 344 472h72c17.7 0 32-14.3 32-32V248.6c0-6.8-4.4-12.6-10.1-16.3C552.7 223.7 544 208.9 544 192s8.7-31.7 21.9-40.3c5.7-3.7 10.1-9.5 10.1-16.3V128c0-35.3-28.7-64-64-64H64C28.7 64 0 92.7 0 128v7.4c0 6.8 4.4 12.6 10.1 16.3C23.3 160.3 32 175.1 32 192s-8.7 31.7-21.9 40.3C4.4 236 0 241.8 0 248.6V416c0 17.7 14.3 32 32 32zM160 144c8.8 0 16 7.2 16 16v64c0 8.8-7.2 16-16 16s-16-7.2-16-16V160c0-8.8 7.2-16 16-16zm128 0c8.8 0 16 7.2 16 16v64c0 8.8-7.2 16-16 16s-16-7.2-16-16V160c0-8.8 7.2-16 16-16zm128 0c8.8 0 16 7.2 16 16v64c0 8.8-7.2 16-16 16s-16-7.2-16-16V160c0-8.8 7.2-16 16-16zM160 128c-17.7 0-32 14.3-32 32v64c0 17.7 14.3 32 32 32s32-14.3 32-32V160c0-17.7-14.3-32-32-32zm128 0c-17.7 0-32 14.3-32 32v64c0 17.7 14.3 32 32 32s32-14.3 32-32V160c0-17.7-14.3-32-32-32zm128 0c-17.7 0-32 14.3-32 32v64c0 17.7 14.3 32 32 32s32-14.3 32-32V160c0-17.7-14.3-32-32-32z"/></svg>