<svg xmlns="http://www.w3.org/2000/svg" viewBox="0 0 448 512"><!--! Font Awesome Pro 6.4.0 by @fontawesome - https://fontawesome.com License - https://fontawesome.com/license (Commercial License) Copyright 2023 Fonticons, Inc. --><path d="M16 128V448c0 26.5 21.5 48 48 48H384c26.5 0 48-21.5 48-48V128H16zm0-16H432V64c0-26.5-21.5-48-48-48H64C37.5 16 16 37.5 16 64v48zM448 64v48 8 8V448c0 35.3-28.7 64-64 64H64c-35.3 0-64-28.7-64-64V128v-8-8V64C0 28.7 28.7 0 64 0H384c35.3 0 64 28.7 64 64zM104 208H344c4.4 0 8 3.6 8 8s-3.6 8-8 8H104c-4.4 0-8-3.6-8-8s3.6-8 8-8zm0 96H344c4.4 0 8 3.6 8 8s-3.6 8-8 8H104c-4.4 0-8-3.6-8-8s3.6-8 8-8zm0 96H248c4.4 0 8 3.6 8 8s-3.6 8-8 8H104c-4.4 0-8-3.6-8-8s3.6-8 8-8z"/></svg>