<svg xmlns="http://www.w3.org/2000/svg" viewBox="0 0 512 512"><!--! Font Awesome Pro 6.4.0 by @fontawesome - https://fontawesome.com License - https://fontawesome.com/license (Commercial License) Copyright 2023 Fonticons, Inc. --><path d="M176 416c0-8.8-7.2-16-16-16H64c-26.5 0-48-21.5-48-48V64c0-26.5 21.5-48 48-48H448c26.5 0 48 21.5 48 48V352c0 26.5-21.5 48-48 48H309.3c-3.5 0-6.8 1.1-9.6 3.2L176 496V416zM64 0C28.7 0 0 28.7 0 64V352c0 35.3 28.7 64 64 64h80 16v16 64c0 6.1 3.4 11.6 8.8 14.3s11.9 2.1 16.8-1.5L309.3 416H448c35.3 0 64-28.7 64-64V64c0-35.3-28.7-64-64-64H64zm48 182.9c0-4.8 2.3-8.2 6.7-10.8c4.7-2.8 11.1-4.2 17.1-4.1c7.3 .1 18.1 1.7 25.3 3.6c4.3 1.1 8.7-1.4 9.8-5.7s-1.4-8.7-5.7-9.8c-8.3-2.2-20.4-4-29.1-4.2c-8.2-.1-17.7 1.7-25.5 6.3C102.5 163.1 96 171.2 96 183c.1 11 6.4 18.1 13.9 22.6c6.7 4.1 15.3 6.6 22.7 8.9l1 .3c8.2 2.5 15.1 4.7 20 7.7c4.4 2.8 6.3 5.7 6.4 9.9c.1 6.5-2 9.6-4.2 11.3c-2.6 2.1-6.9 3.4-13.1 3.6c-12.3 .4-27.3-3.8-36.5-6.9c-4.2-1.4-8.7 .9-10.1 5.1s.9 8.7 5.1 10.1c9.4 3.1 26.8 8.2 42.1 7.7c7.7-.2 16-1.9 22.4-6.9c6.9-5.4 10.4-13.6 10.3-24.1c-.1-11.2-6.3-18.5-13.9-23.3c-7-4.4-16.1-7.2-23.7-9.5l-.2 0c-8.3-2.5-15.1-4.6-20.1-7.6c-4.5-2.7-6.1-5.3-6.1-9zm240 0c0-4.8 2.3-8.2 6.7-10.8c4.7-2.8 11.1-4.2 17.1-4.1c7 .1 14.6 1.6 22.1 3.6c4.3 1.1 8.7-1.4 9.8-5.7s-1.4-8.7-5.7-9.8c-7.9-2.1-16.9-4-25.9-4.2c-8.2-.1-17.7 1.7-25.5 6.3c-8.1 4.8-14.6 12.9-14.6 24.7c.1 11 6.4 18.1 13.9 22.6c6.7 4.1 15.3 6.6 22.7 8.9l1 .3c8.2 2.5 15.1 4.7 20 7.7c4.4 2.8 6.3 5.7 6.4 9.9c.1 5.5-2.4 9.1-6.5 11.6c-4.4 2.8-10.8 4.2-17.3 4c-8.3-.3-16-2.9-25-6c-1.5-.5-3.1-1-4.7-1.6c-4.2-1.4-8.7 .9-10.1 5.1s.9 8.7 5.1 10.1c1.4 .5 2.8 .9 4.2 1.4l0 0c8.9 3.1 19.2 6.6 30.1 6.9c8.7 .3 18.4-1.5 26.2-6.4c8.2-5.1 14.2-13.6 14-25.4c-.1-11.2-6.3-18.5-13.9-23.3c-7-4.4-16.1-7.2-23.7-9.5l-.2 0c-8.3-2.5-15.1-4.6-20.1-7.6c-4.5-2.7-6.1-5.3-6.1-9zM205.5 152.4c-3.3 1.1-5.5 4.1-5.5 7.6v96c0 4.4 3.6 8 8 8s8-3.6 8-8V184l33.6 44.8c1.5 2 3.9 3.2 6.4 3.2s4.9-1.2 6.4-3.2L296 184v72c0 4.4 3.6 8 8 8s8-3.6 8-8V160c0-3.4-2.2-6.5-5.5-7.6s-6.9 0-8.9 2.8L256 210.7l-41.6-55.5c-2.1-2.8-5.7-3.9-8.9-2.8z"/></svg>