<svg xmlns="http://www.w3.org/2000/svg" viewBox="0 0 640 512"><!--! Font Awesome Pro 6.4.0 by @fontawesome - https://fontawesome.com License - https://fontawesome.com/license (Commercial License) Copyright 2023 Fonticons, Inc. --><path d="M386.2 400H373.3c-3.5 0-6.8 1.1-9.6 3.2L240 496V416c0-8.8-7.2-16-16-16H128c-26.5 0-48-21.5-48-48V158.3L64 145.6V352c0 35.3 28.7 64 64 64h80 16v16 64c0 6.1 3.4 11.6 8.8 14.3s11.9 2.1 16.8-1.5L373.3 416h33.1l-20.3-16zM128 0c-4.8 0-9.6 .5-14.1 1.6L132.2 16H512c26.5 0 48 21.5 48 48V352c0 .6 0 1.1 0 1.7l14.6 11.6c.9-4.3 1.4-8.7 1.4-13.3V64c0-35.3-28.7-64-64-64H128zM13 1.7C9.5-1 4.5-.4 1.7 3S-.4 11.5 3 14.3l624 496c3.5 2.7 8.5 2.2 11.2-1.3s2.2-8.5-1.3-11.2L13 1.7z"/></svg>