<svg xmlns="http://www.w3.org/2000/svg" viewBox="0 0 512 512"><!--! Font Awesome Pro 6.4.0 by @fontawesome - https://fontawesome.com License - https://fontawesome.com/license (Commercial License) Copyright 2023 Fonticons, Inc. --><path d="M176 416c0-8.8-7.2-16-16-16H64c-26.5 0-48-21.5-48-48V64c0-26.5 21.5-48 48-48H448c26.5 0 48 21.5 48 48V352c0 26.5-21.5 48-48 48H309.3c-3.5 0-6.8 1.1-9.6 3.2L176 496V416zM64 0C28.7 0 0 28.7 0 64V352c0 35.3 28.7 64 64 64h80 16v16 64c0 6.1 3.4 11.6 8.8 14.3s11.9 2.1 16.8-1.5L309.3 416H448c35.3 0 64-28.7 64-64V64c0-35.3-28.7-64-64-64H64zM208 128c8.8 0 16 7.2 16 16v24 24c0 8.8-7.2 16-16 16H160c-8.8 0-16-7.2-16-16V144c0-8.8 7.2-16 16-16h48zm0 96c5.8 0 11.3-1.6 16-4.3V230c0 25.7-17.5 48.1-42.4 54.3l-15.5 3.9c-4.3 1.1-6.9 5.4-5.8 9.7s5.4 6.9 9.7 5.8l15.5-3.9c32.1-8 54.5-36.8 54.5-69.9V192 168 144c0-17.7-14.3-32-32-32H160c-17.7 0-32 14.3-32 32v48c0 17.7 14.3 32 32 32h48zm96-96h48c8.8 0 16 7.2 16 16v24 24c0 8.8-7.2 16-16 16H304c-8.8 0-16-7.2-16-16V144c0-8.8 7.2-16 16-16zm64 91.7V230c0 25.7-17.5 48.1-42.4 54.3l-15.5 3.9c-4.3 1.1-6.9 5.4-5.8 9.7s5.4 6.9 9.7 5.8l15.5-3.9c32.1-8 54.5-36.8 54.5-69.9V192 168 144c0-17.7-14.3-32-32-32H304c-17.7 0-32 14.3-32 32v48c0 17.7 14.3 32 32 32h48c5.8 0 11.3-1.6 16-4.3z"/></svg>