<svg xmlns="http://www.w3.org/2000/svg" viewBox="0 0 512 512"><!--! Font Awesome Pro 6.4.0 by @fontawesome - https://fontawesome.com License - https://fontawesome.com/license (Commercial License) Copyright 2023 Fonticons, Inc. --><path d="M176 416c0-8.8-7.2-16-16-16H64c-26.5 0-48-21.5-48-48V64c0-26.5 21.5-48 48-48H448c26.5 0 48 21.5 48 48V352c0 26.5-21.5 48-48 48H309.3c-3.5 0-6.8 1.1-9.6 3.2L176 496V416zM64 0C28.7 0 0 28.7 0 64V352c0 35.3 28.7 64 64 64h80 16v16 64c0 6.1 3.4 11.6 8.8 14.3s11.9 2.1 16.8-1.5L309.3 416H448c35.3 0 64-28.7 64-64V64c0-35.3-28.7-64-64-64H64zM168 136l0 6.5c0 4.4 3.6 8 8 8s8-3.6 8-8l0-6.5c0-22.1 17.9-40 40-40h56.2c26.4 0 47.8 21.4 47.8 47.8c0 16.1-8.1 31.1-21.5 39.9l-54.9 36.2c-2.2 1.5-3.6 4-3.6 6.7V256c0 4.4 3.6 8 8 8s8-3.6 8-8V230.9L315.3 197c17.9-11.8 28.7-31.8 28.7-53.3c0-35.2-28.6-63.8-63.8-63.8H224c-30.9 0-56 25.1-56 56zM272 304a16 16 0 1 0 -32 0 16 16 0 1 0 32 0z"/></svg>