<svg xmlns="http://www.w3.org/2000/svg" viewBox="0 0 640 512"><!--! Font Awesome Pro 6.4.0 by @fontawesome - https://fontawesome.com License - https://fontawesome.com/license (Commercial License) Copyright 2023 Fonticons, Inc. --><path d="M387.6 401.1l-14.3-11.3C356.8 396.4 338.8 400 320 400c-79.5 0-144-64.5-144-144V234l-16-12.6V256c0 85.7 67.4 155.6 152 159.8V496H232c-4.4 0-8 3.6-8 8s3.6 8 8 8h88 88c4.4 0 8-3.6 8-8s-3.6-8-8-8H328V415.8c21.2-1 41.3-6.2 59.6-14.7zM240 101.1V96c0-44.2 35.8-80 80-80s80 35.8 80 80V227.4l16 12.6V96c0-53-43-96-96-96c-50.6 0-92 39.1-95.7 88.7L240 101.1zM476.8 288c2.1-10.4 3.2-21.1 3.2-32V200c0-4.4-3.6-8-8-8s-8 3.6-8 8v56c0 7.1-.5 14-1.5 20.8L476.8 288zM13 1.7C9.5-1 4.5-.4 1.7 3S-.4 11.5 3 14.3l624 496c3.5 2.7 8.5 2.2 11.2-1.3s2.2-8.5-1.3-11.2L13 1.7z"/></svg>