<svg xmlns="http://www.w3.org/2000/svg" viewBox="0 0 384 512"><!--! Font Awesome Pro 6.4.0 by @fontawesome - https://fontawesome.com License - https://fontawesome.com/license (Commercial License) Copyright 2023 Fonticons, Inc. --><path d="M272 112V96c0-44.2-35.8-80-80-80s-80 35.8-80 80V256c0 44.2 35.8 80 80 80s80-35.8 80-80H200c-4.4 0-8-3.6-8-8s3.6-8 8-8h72V192H200c-4.4 0-8-3.6-8-8s3.6-8 8-8h72V128H200c-4.4 0-8-3.6-8-8s3.6-8 8-8h72zm16 8v64 64 8c0 53-43 96-96 96s-96-43-96-96V96c0-53 43-96 96-96s96 43 96 96v24zM40 192c4.4 0 8 3.6 8 8v56c0 79.5 64.5 144 144 144s144-64.5 144-144V200c0-4.4 3.6-8 8-8s8 3.6 8 8v56c0 85.7-67.4 155.6-152 159.8V496h80c4.4 0 8 3.6 8 8s-3.6 8-8 8H192 104c-4.4 0-8-3.6-8-8s3.6-8 8-8h80V415.8C99.4 411.6 32 341.7 32 256V200c0-4.4 3.6-8 8-8z"/></svg>