<svg xmlns="http://www.w3.org/2000/svg" viewBox="0 0 512 512"><!--! Font Awesome Pro 6.4.0 by @fontawesome - https://fontawesome.com License - https://fontawesome.com/license (Commercial License) Copyright 2023 Fonticons, Inc. --><path d="M160 0c4.4 0 8 3.6 8 8V64h80V8c0-4.4 3.6-8 8-8s8 3.6 8 8V64h80V8c0-4.4 3.6-8 8-8s8 3.6 8 8V64h24c35.3 0 64 28.7 64 64v24h56c4.4 0 8 3.6 8 8s-3.6 8-8 8H448v80h56c4.4 0 8 3.6 8 8s-3.6 8-8 8H448v80h56c4.4 0 8 3.6 8 8s-3.6 8-8 8H448v24c0 35.3-28.7 64-64 64H360v56c0 4.4-3.6 8-8 8s-8-3.6-8-8V448H264v56c0 4.4-3.6 8-8 8s-8-3.6-8-8V448H168v56c0 4.4-3.6 8-8 8s-8-3.6-8-8V448H128c-35.3 0-64-28.7-64-64V360H8c-4.4 0-8-3.6-8-8s3.6-8 8-8H64V264H8c-4.4 0-8-3.6-8-8s3.6-8 8-8H64V168H8c-4.4 0-8-3.6-8-8s3.6-8 8-8H64V128c0-35.3 28.7-64 64-64h24V8c0-4.4 3.6-8 8-8zm0 80H128c-26.5 0-48 21.5-48 48v32 96 96 32c0 26.5 21.5 48 48 48h32 96 96 32c26.5 0 48-21.5 48-48V352 256 160 128c0-26.5-21.5-48-48-48H352 256 160zm55.3 100.8l64 144c1.8 4 0 8.8-4.1 10.6s-8.8 0-10.6-4.1L252.6 304H163.4l-12.1 27.2c-1.8 4-6.5 5.9-10.6 4.1s-5.9-6.5-4.1-10.6l64-144c1.3-2.9 4.1-4.8 7.3-4.8s6 1.9 7.3 4.8zM208 203.7L170.5 288h74.9L208 203.7zM344 184V328c0 4.4-3.6 8-8 8s-8-3.6-8-8V184c0-4.4 3.6-8 8-8s8 3.6 8 8z"/></svg>