<svg xmlns="http://www.w3.org/2000/svg" viewBox="0 0 512 512"><!--! Font Awesome Pro 6.4.0 by @fontawesome - https://fontawesome.com License - https://fontawesome.com/license (Commercial License) Copyright 2023 Fonticons, Inc. --><path d="M96 16H288c26.5 0 48 21.5 48 48V272.1c5.2-3.7 10.5-7.2 16-10.4V64c0-35.3-28.7-64-64-64H96C60.7 0 32 28.7 32 64V448c0 35.3 28.7 64 64 64H224V496H96c-26.5 0-48-21.5-48-48V64c0-26.5 21.5-48 48-48zm48 416c-4.4 0-8 3.6-8 8s3.6 8 8 8h83c.8-5.4 1.8-10.7 2.9-16H144zM504 256c-137 0-248 111-248 248c0 4.4 3.6 8 8 8s8-3.6 8-8c0-128.1 103.9-232 232-232c4.4 0 8-3.6 8-8s-3.6-8-8-8zm-8 224a16 16 0 1 1 -32 0 16 16 0 1 1 32 0zm-48 0a32 32 0 1 0 64 0 32 32 0 1 0 -64 0zm64-120c0-4.4-3.6-8-8-8c-83.9 0-152 68.1-152 152c0 4.4 3.6 8 8 8s8-3.6 8-8c0-75.1 60.9-136 136-136c4.4 0 8-3.6 8-8z"/></svg>