<svg xmlns="http://www.w3.org/2000/svg" viewBox="0 0 384 512"><!--! Font Awesome Pro 6.4.0 by @fontawesome - https://fontawesome.com License - https://fontawesome.com/license (Commercial License) Copyright 2023 Fonticons, Inc. --><path d="M288 16c26.5 0 48 21.5 48 48V352H48V64c0-26.5 21.5-48 48-48H288zm48 352v80c0 26.5-21.5 48-48 48H96c-26.5 0-48-21.5-48-48V368H336zM96 0C60.7 0 32 28.7 32 64V448c0 35.3 28.7 64 64 64H288c35.3 0 64-28.7 64-64V64c0-35.3-28.7-64-64-64H96zm96 448a16 16 0 1 1 0-32 16 16 0 1 1 0 32zm-32-16a32 32 0 1 0 64 0 32 32 0 1 0 -64 0z"/></svg>