<svg xmlns="http://www.w3.org/2000/svg" viewBox="0 0 576 512"><!--! Font Awesome Pro 6.4.0 by @fontawesome - https://fontawesome.com License - https://fontawesome.com/license (Commercial License) Copyright 2023 Fonticons, Inc. --><path d="M64 80c-26.5 0-48 21.5-48 48V384c0 26.5 21.5 48 48 48H512c26.5 0 48-21.5 48-48V128c0-26.5-21.5-48-48-48H64zM0 128C0 92.7 28.7 64 64 64H512c35.3 0 64 28.7 64 64V384c0 35.3-28.7 64-64 64H64c-35.3 0-64-28.7-64-64V128zM104 240H248c4.4 0 8 3.6 8 8s-3.6 8-8 8H104c-4.4 0-8-3.6-8-8s3.6-8 8-8zM96 344c0-4.4 3.6-8 8-8H472c4.4 0 8 3.6 8 8s-3.6 8-8 8H104c-4.4 0-8-3.6-8-8zM360 176c-13.3 0-24 10.7-24 24v32c0 13.3 10.7 24 24 24h80c13.3 0 24-10.7 24-24V200c0-13.3-10.7-24-24-24H360zm-40 24c0-22.1 17.9-40 40-40h80c22.1 0 40 17.9 40 40v32c0 22.1-17.9 40-40 40H360c-22.1 0-40-17.9-40-40V200z"/></svg>