<svg xmlns="http://www.w3.org/2000/svg" viewBox="0 0 640 512"><!--! Font Awesome Pro 6.4.0 by @fontawesome - https://fontawesome.com License - https://fontawesome.com/license (Commercial License) Copyright 2023 Fonticons, Inc. --><path d="M576 48c26.5 0 48 21.5 48 48V320c0 26.5-21.5 48-48 48H160c-26.5 0-48-21.5-48-48V96c0-26.5 21.5-48 48-48H576zM160 32c-35.3 0-64 28.7-64 64V320c0 35.3 28.7 64 64 64H576c35.3 0 64-28.7 64-64V96c0-35.3-28.7-64-64-64H160zM64 128c-35.3 0-64 28.7-64 64V416c0 35.3 28.7 64 64 64H480c35.3 0 64-28.7 64-64H528c0 26.5-21.5 48-48 48H64c-26.5 0-48-21.5-48-48V192c0-26.5 21.5-48 48-48V128zm224 80a80 80 0 1 1 160 0 80 80 0 1 1 -160 0zm176 0a96 96 0 1 0 -192 0 96 96 0 1 0 192 0zm136-56c0-4.4-3.6-8-8-8h-8c-30.9 0-56-25.1-56-56V80c0-4.4-3.6-8-8-8s-8 3.6-8 8v8c0 39.8 32.2 72 72 72h8c4.4 0 8-3.6 8-8zm-456 8h8c39.8 0 72-32.2 72-72V80c0-4.4-3.6-8-8-8s-8 3.6-8 8v8c0 30.9-25.1 56-56 56h-8c-4.4 0-8 3.6-8 8s3.6 8 8 8zM600 264c0-4.4-3.6-8-8-8h-8c-39.8 0-72 32.2-72 72v8c0 4.4 3.6 8 8 8s8-3.6 8-8v-8c0-30.9 25.1-56 56-56h8c4.4 0 8-3.6 8-8zm-456-8c-4.4 0-8 3.6-8 8s3.6 8 8 8h8c30.9 0 56 25.1 56 56v8c0 4.4 3.6 8 8 8s8-3.6 8-8v-8c0-39.8-32.2-72-72-72h-8z"/></svg>