<svg xmlns="http://www.w3.org/2000/svg" viewBox="0 0 576 512"><!--! Font Awesome Pro 6.4.0 by @fontawesome - https://fontawesome.com License - https://fontawesome.com/license (Commercial License) Copyright 2023 Fonticons, Inc. --><path d="M512 80c26.5 0 48 21.5 48 48V384c0 26.5-21.5 48-48 48H64c-26.5 0-48-21.5-48-48V128c0-26.5 21.5-48 48-48H512zM64 64C28.7 64 0 92.7 0 128V384c0 35.3 28.7 64 64 64H512c35.3 0 64-28.7 64-64V128c0-35.3-28.7-64-64-64H64zM544 176c0-4.4-3.6-8-8-8h-8c-30.9 0-56-25.1-56-56v-8c0-4.4-3.6-8-8-8s-8 3.6-8 8v8c0 39.8 32.2 72 72 72h8c4.4 0 8-3.6 8-8zM40 184h8c39.8 0 72-32.2 72-72v-8c0-4.4-3.6-8-8-8s-8 3.6-8 8v8c0 30.9-25.1 56-56 56H40c-4.4 0-8 3.6-8 8s3.6 8 8 8zM544 336c0-4.4-3.6-8-8-8h-8c-39.8 0-72 32.2-72 72v8c0 4.4 3.6 8 8 8s8-3.6 8-8v-8c0-30.9 25.1-56 56-56h8c4.4 0 8-3.6 8-8zM40 328c-4.4 0-8 3.6-8 8s3.6 8 8 8h8c30.9 0 56 25.1 56 56v8c0 4.4 3.6 8 8 8s8-3.6 8-8v-8c0-39.8-32.2-72-72-72H40zM288 144a112 112 0 1 1 0 224 112 112 0 1 1 0-224zm0 240a128 128 0 1 0 0-256 128 128 0 1 0 0 256zM272 200c-4.4 0-8 3.6-8 8s3.6 8 8 8h8v80H264c-4.4 0-8 3.6-8 8s3.6 8 8 8h24 24c4.4 0 8-3.6 8-8s-3.6-8-8-8H296V208c0-4.4-3.6-8-8-8H272z"/></svg>