<svg xmlns="http://www.w3.org/2000/svg" viewBox="0 0 512 512"><!--! Font Awesome Pro 6.4.0 by @fontawesome - https://fontawesome.com License - https://fontawesome.com/license (Commercial License) Copyright 2023 Fonticons, Inc. --><path d="M218.3 32C207.1 22 192.2 16 176 16c0 35.3 28.7 64 64 64c0-19.1-8.4-36.3-21.7-48zm112 0C319.1 22 304.2 16 288 16c0 35.3 28.7 64 64 64c0-19.1-8.4-36.3-21.7-48zm112 0C431 22 416.2 16 400 16c0 35.3 28.7 64 64 64c0-19.1-8.4-36.3-21.7-48zM352 144c-35.3 0-64 28.7-64 64c16.2 0 31.1-6 42.3-16c13.3-11.7 21.7-28.9 21.7-48zm-112 0c-35.3 0-64 28.7-64 64c16.2 0 31.1-6 42.3-16c13.3-11.7 21.7-28.9 21.7-48zm224 0c-35.3 0-64 28.7-64 64c16.2 0 31-6 42.3-16c13.3-11.7 21.7-28.9 21.7-48zM160 16c0-8.8 7.2-16 16-16c44.2 0 80 35.8 80 80c0 8.8-7.2 16-16 16c-44.2 0-80-35.8-80-80zm112 0c0-8.8 7.2-16 16-16c44.2 0 80 35.8 80 80c0 8.8-7.2 16-16 16c-44.2 0-80-35.8-80-80zM400 0c44.2 0 80 35.8 80 80c0 8.8-7.2 16-16 16c-44.2 0-80-35.8-80-80c0-8.8 7.2-16 16-16zM368 144c0 44.2-35.8 80-80 80c-8.8 0-16-7.2-16-16c0-44.2 35.8-80 80-80c8.8 0 16 7.2 16 16zM240 128c8.8 0 16 7.2 16 16c0 44.2-35.8 80-80 80c-8.8 0-16-7.2-16-16c0-44.2 35.8-80 80-80zm240 16c0 44.2-35.8 80-80 80c-8.8 0-16-7.2-16-16c0-44.2 35.8-80 80-80c8.8 0 16 7.2 16 16zM8 104H152c4.4 0 8 3.6 8 8s-3.6 8-8 8H8c-4.4 0-8-3.6-8-8s3.6-8 8-8zM32 40c0-4.4 3.6-8 8-8h80c4.4 0 8 3.6 8 8s-3.6 8-8 8H40c-4.4 0-8-3.6-8-8zm8 136h80c4.4 0 8 3.6 8 8s-3.6 8-8 8H40c-4.4 0-8-3.6-8-8s3.6-8 8-8zM16 328c30.9 0 56-25.1 56-56H48c-17.7 0-32 14.3-32 32v24zm0 16v80c39.8 0 72 32.2 72 72H424c0-39.8 32.2-72 72-72V344c-39.8 0-72-32.2-72-72H88c0 39.8-32.2 72-72 72zm424-72c0 30.9 25.1 56 56 56V304c0-17.7-14.3-32-32-32H440zm56 168c-30.9 0-56 25.1-56 56h24c17.7 0 32-14.3 32-32V440zM72 496c0-30.9-25.1-56-56-56v24c0 17.7 14.3 32 32 32H72zm184-64a48 48 0 1 0 0-96 48 48 0 1 0 0 96zm0-112a64 64 0 1 1 0 128 64 64 0 1 1 0-128zM0 304c0-26.5 21.5-48 48-48H464c26.5 0 48 21.5 48 48V464c0 26.5-21.5 48-48 48H48c-26.5 0-48-21.5-48-48V304z"/></svg>