<svg xmlns="http://www.w3.org/2000/svg" viewBox="0 0 576 512"><!--! Font Awesome Pro 6.4.0 by @fontawesome - https://fontawesome.com License - https://fontawesome.com/license (Commercial License) Copyright 2023 Fonticons, Inc. --><path d="M64 80c-26.5 0-48 21.5-48 48V384c0 26.5 21.5 48 48 48H512c26.5 0 48-21.5 48-48V128c0-26.5-21.5-48-48-48H64zM0 128C0 92.7 28.7 64 64 64H512c35.3 0 64 28.7 64 64V384c0 35.3-28.7 64-64 64H64c-35.3 0-64-28.7-64-64V128zm536 56h-8c-39.8 0-72-32.2-72-72v-8c0-4.4 3.6-8 8-8s8 3.6 8 8v8c0 30.9 25.1 56 56 56h8c4.4 0 8 3.6 8 8s-3.6 8-8 8zM32 176c0-4.4 3.6-8 8-8h8c30.9 0 56-25.1 56-56v-8c0-4.4 3.6-8 8-8s8 3.6 8 8v8c0 39.8-32.2 72-72 72H40c-4.4 0-8-3.6-8-8zM536 328c4.4 0 8 3.6 8 8s-3.6 8-8 8h-8c-30.9 0-56 25.1-56 56v8c0 4.4-3.6 8-8 8s-8-3.6-8-8v-8c0-39.8 32.2-72 72-72h8zM32 336c0-4.4 3.6-8 8-8h8c39.8 0 72 32.2 72 72v8c0 4.4-3.6 8-8 8s-8-3.6-8-8v-8c0-30.9-25.1-56-56-56H40c-4.4 0-8-3.6-8-8zm336-80a80 80 0 1 0 -160 0 80 80 0 1 0 160 0zm-176 0a96 96 0 1 1 192 0 96 96 0 1 1 -192 0z"/></svg>