<svg xmlns="http://www.w3.org/2000/svg" viewBox="0 0 576 512"><!--! Font Awesome Pro 6.4.0 by @fontawesome - https://fontawesome.com License - https://fontawesome.com/license (Commercial License) Copyright 2023 Fonticons, Inc. --><path d="M64 80c-26.5 0-48 21.5-48 48V384c0 26.5 21.5 48 48 48H512c26.5 0 48-21.5 48-48V128c0-26.5-21.5-48-48-48H64zM0 128C0 92.7 28.7 64 64 64H512c35.3 0 64 28.7 64 64V384c0 35.3-28.7 64-64 64H64c-35.3 0-64-28.7-64-64V128zM368 256a80 80 0 1 0 -160 0 80 80 0 1 0 160 0zm-176 0a96 96 0 1 1 192 0 96 96 0 1 1 -192 0z"/></svg>