<svg xmlns="http://www.w3.org/2000/svg" viewBox="0 0 640 512"><!--! Font Awesome Pro 6.4.0 by @fontawesome - https://fontawesome.com License - https://fontawesome.com/license (Commercial License) Copyright 2023 Fonticons, Inc. --><path d="M72 16C41.1 16 16 41.1 16 72v80c0 4.4-3.6 8-8 8s-8-3.6-8-8V72C0 32.2 32.2 0 72 0H568c39.8 0 72 32.2 72 72v80c0 4.4-3.6 8-8 8s-8-3.6-8-8V72c0-30.9-25.1-56-56-56H72zM504 80c4.4 0 8 3.6 8 8l0 376c0 26.5-21.5 48-48 48H176c-26.5 0-48-21.5-48-48l0-376c0-4.4 3.6-8 8-8s8 3.6 8 8l0 376c0 17.7 14.3 32 32 32H464c17.7 0 32-14.3 32-32l0-376c0-4.4 3.6-8 8-8zM320 200c-50 0-88 33.5-88 72s38 72 88 72s88-33.5 88-72s-38-72-88-72zm104 72c0 49.9-48 88-104 88s-104-38.1-104-88s48-88 104-88s104 38.1 104 88zm48 120c0 4.4-3.6 8-8 8h-8c-30.9 0-56 25.1-56 56v8c0 4.4-3.6 8-8 8s-8-3.6-8-8v-8c0-39.8 32.2-72 72-72h8c4.4 0 8 3.6 8 8zm-296-8h8c39.8 0 72 32.2 72 72v8c0 4.4-3.6 8-8 8s-8-3.6-8-8v-8c0-30.9-25.1-56-56-56h-8c-4.4 0-8-3.6-8-8s3.6-8 8-8z"/></svg>