<svg xmlns="http://www.w3.org/2000/svg" viewBox="0 0 576 512"><!--! Font Awesome Pro 6.4.0 by @fontawesome - https://fontawesome.com License - https://fontawesome.com/license (Commercial License) Copyright 2023 Fonticons, Inc. --><path d="M512 48c26.5 0 48 21.5 48 48V416c0 26.5-21.5 48-48 48H64c-26.5 0-48-21.5-48-48V96c0-26.5 21.5-48 48-48H512zM64 32C28.7 32 0 60.7 0 96V416c0 35.3 28.7 64 64 64H512c35.3 0 64-28.7 64-64V96c0-35.3-28.7-64-64-64H64zM279.6 160c-3.2 .2-5.9 2.2-7.1 5.1L214 318.7l-39.4-59.1c-1.5-2.2-4-3.6-6.7-3.6H80V128c0-8.8 7.2-16 16-16H480c8.8 0 16 7.2 16 16V384c0 8.8-7.2 16-16 16H96c-8.8 0-16-7.2-16-16V272h83.7l45.6 68.4c1.7 2.5 4.6 3.8 7.6 3.5s5.5-2.3 6.6-5.1l57.5-151 39.9 79.7c1.4 2.7 4.1 4.4 7.2 4.4h80c4.4 0 8-3.6 8-8s-3.6-8-8-8H332.9l-45.8-91.6c-1.4-2.8-4.4-4.6-7.6-4.4zM64 128V384c0 17.7 14.3 32 32 32H480c17.7 0 32-14.3 32-32V128c0-17.7-14.3-32-32-32H96c-17.7 0-32 14.3-32 32z"/></svg>