<svg xmlns="http://www.w3.org/2000/svg" viewBox="0 0 640 512"><!--! Font Awesome Pro 6.4.0 by @fontawesome - https://fontawesome.com License - https://fontawesome.com/license (Commercial License) Copyright 2023 Fonticons, Inc. --><path d="M400 0c2.5 0 4.9 1.2 6.4 3.2c19.4 25.8 44.3 46.4 72.9 65.9c18 12.3 37.1 23.8 57.1 35.9c12 7.3 24.3 14.7 37 22.6c27.2 17.1 42.6 47.3 42.6 79c0 19.9-6 38.4-16.2 53.9c-2.4 3.7-7.4 4.7-11.1 2.2s-4.7-7.4-2.2-11.1c8.6-12.9 13.6-28.4 13.6-45c0-26.6-12.9-51.5-35.1-65.4c-12.1-7.6-24.2-14.9-36.1-22.1c-20.3-12.3-40.1-24.3-58.5-36.7C443.9 64.4 419.8 44.9 400 20.9c-19.8 24-43.9 43.4-70.3 61.4c-18.3 12.4-38.1 24.4-58.5 36.7l0 0 0 0 0 0c-11.9 7.2-24 14.5-36.1 22.1c-22.2 13.9-35.1 38.8-35.1 65.4c0 16.7 5 32.1 13.6 45c2.4 3.7 1.4 8.6-2.2 11.1s-8.6 1.4-11.1-2.2C190 245 184 226.5 184 206.6c0-31.7 15.4-61.9 42.6-79c12.6-7.9 24.9-15.4 37-22.6l0 0c20-12.1 39.1-23.6 57.1-35.9C349.3 49.6 374.2 29 393.6 3.2c1.5-2 3.9-3.2 6.4-3.2zM640 344V456c0 30.9-25.1 56-56 56h-8H560 528 512 464 448 352 336 288 272 240 224h-8c-30.9 0-56-25.1-56-56V344c0-30.9 25.1-56 56-56H584c30.9 0 56 25.1 56 56zM464 496h48V416c0-17.7 14.3-32 32-32s32 14.3 32 32v80h8c22.1 0 40-17.9 40-40V344c0-22.1-17.9-40-40-40H216c-22.1 0-40 17.9-40 40V456c0 22.1 17.9 40 40 40h8V416c0-17.7 14.3-32 32-32s32 14.3 32 32v80h48V416c0-20.1 9.5-39.1 25.6-51.2L400 336l38.4 28.8C454.5 376.9 464 395.9 464 416v80zm-16-80c0-15.1-7.1-29.3-19.2-38.4L400 356l-28.8 21.6C359.1 386.7 352 400.9 352 416v80h96V416zm96-16c-8.8 0-16 7.2-16 16v80h32V416c0-8.8-7.2-16-16-16zM272 416c0-8.8-7.2-16-16-16s-16 7.2-16 16v80h32V416zM73.5 3.4c2.7-1.8 6.2-1.9 9-.1L101 15.7c35.6 23.7 57 63.7 57 106.5V280c0 4.4-3.6 8-8 8s-8-3.6-8-8V160H16v16V456c0 22.1 17.9 40 40 40h64c4.4 0 8 3.6 8 8s-3.6 8-8 8H56c-30.9 0-56-25.1-56-56V176 121.2C0 79 20.8 39.5 55.6 15.7L73.5 3.4zM16 144H142V122.2c0-37.4-18.7-72.4-49.9-93.2L78.1 19.7 64.7 28.8C34.2 49.7 16 84.3 16 121.2V144z"/></svg>