<svg xmlns="http://www.w3.org/2000/svg" viewBox="0 0 384 512"><!--! Font Awesome Pro 6.4.0 by @fontawesome - https://fontawesome.com License - https://fontawesome.com/license (Commercial License) Copyright 2023 Fonticons, Inc. --><path d="M64 16C37.5 16 16 37.5 16 64V448c0 26.5 21.5 48 48 48H320c26.5 0 48-21.5 48-48V64c0-26.5-21.5-48-48-48H64zM0 64C0 28.7 28.7 0 64 0H320c35.3 0 64 28.7 64 64V448c0 35.3-28.7 64-64 64H64c-35.3 0-64-28.7-64-64V64zM96 80c-8.8 0-16 7.2-16 16v64c0 8.8 7.2 16 16 16H288c8.8 0 16-7.2 16-16V96c0-8.8-7.2-16-16-16H96zM64 96c0-17.7 14.3-32 32-32H288c17.7 0 32 14.3 32 32v64c0 17.7-14.3 32-32 32H96c-17.7 0-32-14.3-32-32V96zM192 432a96 96 0 1 0 0-192 96 96 0 1 0 0 192zm0-208a112 112 0 1 1 0 224 112 112 0 1 1 0-224zm16 112a16 16 0 1 0 -32 0 16 16 0 1 0 32 0zm-48 0a32 32 0 1 1 64 0 32 32 0 1 1 -64 0z"/></svg>