<svg xmlns="http://www.w3.org/2000/svg" viewBox="0 0 640 512"><!--! Font Awesome Pro 6.4.0 by @fontawesome - https://fontawesome.com License - https://fontawesome.com/license (Commercial License) Copyright 2023 Fonticons, Inc. --><path d="M232 48V85l46.1 52.7c6.4 7.3 9.9 16.7 9.9 26.3v52c0 22.1-17.9 40-40 40H200c-22.1 0-40-17.9-40-40V164c0-9.7 3.5-19 9.9-26.3L216 85V48H128c-8.8 0-16 7.2-16 16V288c0 44.2 35.8 80 80 80H384c44.2 0 80-35.8 80-80V48H440 232zm248 0V224h24c48.6 0 88-39.4 88-88s-39.4-88-88-88H480zm0 192v48c0 53-43 96-96 96H192c-53 0-96-43-96-96V64c0-17.7 14.3-32 32-32H440h24 16 24c57.4 0 104 46.6 104 104s-46.6 104-104 104H480zM0 472c0-4.4 3.6-8 8-8H568c4.4 0 8 3.6 8 8s-3.6 8-8 8H8c-4.4 0-8-3.6-8-8zM181.9 148.2c-3.8 4.4-5.9 10-5.9 15.8v52c0 13.3 10.7 24 24 24h48c13.3 0 24-10.7 24-24V164c0-5.8-2.1-11.4-5.9-15.8L224 100.1l-42.1 48.1z"/></svg>