<svg xmlns="http://www.w3.org/2000/svg" viewBox="0 0 576 512"><!--! Font Awesome Pro 6.4.0 by @fontawesome - https://fontawesome.com License - https://fontawesome.com/license (Commercial License) Copyright 2023 Fonticons, Inc. --><path d="M152 80v37l-46.1 52.7C99.5 177 96 186.3 96 196v52c0 22.1 17.9 40 40 40h48c22.1 0 40-17.9 40-40V196c0-9.7-3.5-19-9.9-26.3L168 117V80H336h32V272v16 64c0 44.2-35.8 80-80 80H96c-44.2 0-80-35.8-80-80V96c0-8.8 7.2-16 16-16H152zM384 352V288h48c61.9 0 112-50.1 112-112s-50.1-112-112-112H384 368 336 32C14.3 64 0 78.3 0 96V352c0 53 43 96 96 96H288c53 0 96-43 96-96zm48-80H384V80h48c53 0 96 43 96 96s-43 96-96 96zM117.9 180.2L160 132.1l42.1 48.1c3.8 4.4 5.9 10 5.9 15.8v52c0 13.3-10.7 24-24 24H136c-13.3 0-24-10.7-24-24V196c0-5.8 2.1-11.4 5.9-15.8z"/></svg>