<svg xmlns="http://www.w3.org/2000/svg" viewBox="0 0 512 512"><!--! Font Awesome Pro 6.4.0 by @fontawesome - https://fontawesome.com License - https://fontawesome.com/license (Commercial License) Copyright 2023 Fonticons, Inc. --><path d="M80 8c0-4.4-3.6-8-8-8s-8 3.6-8 8c0 27.3 5.1 45.2 13.6 57.9C86 78.4 97.1 85 106.7 90.6l.4 .3c9.9 5.9 18.2 10.9 24.4 20.1c6.2 9.2 10.9 23.5 10.9 49c0 4.4 3.6 8 8 8s8-3.6 8-8c0-27.3-5.1-45.2-13.6-57.9c-8.4-12.5-19.5-19.1-29.1-24.7l-.4-.3C105.4 71.2 97.1 66.2 90.9 57C84.7 47.8 80 33.5 80 8zM209.6 8c0-4.4-3.6-8-8-8s-8 3.6-8 8c0 27.3 5.1 45.2 13.6 57.9c8.4 12.5 19.5 19.1 29.1 24.7l.4 .3c9.9 5.9 18.2 10.9 24.4 20.1c6.2 9.2 10.9 23.5 10.9 49c0 4.4 3.6 8 8 8s8-3.6 8-8c0-27.3-5.1-45.2-13.6-57.9C266 89.6 254.9 83 245.3 77.4l-.4-.3C235 71.2 226.7 66.2 220.5 57c-6.2-9.2-10.9-23.5-10.9-49zM344 208h24V416c0 44.2-35.8 80-80 80H96c-44.2 0-80-35.8-80-80V224c0-8.8 7.2-16 16-16H344zm40 176V208h24c48.6 0 88 39.4 88 88s-39.4 88-88 88H384zm0 32V400h24c57.4 0 104-46.6 104-104s-46.6-104-104-104H384 368 344 32c-17.7 0-32 14.3-32 32V416c0 53 43 96 96 96H288c53 0 96-43 96-96z"/></svg>