<svg xmlns="http://www.w3.org/2000/svg" viewBox="0 0 448 512"><!--! Font Awesome Pro 6.4.0 by @fontawesome - https://fontawesome.com License - https://fontawesome.com/license (Commercial License) Copyright 2023 Fonticons, Inc. --><path d="M78.5 35.4c-2-2.9-5.6-4.1-9-3S64 36.5 64 40V256H8c-4.4 0-8 3.6-8 8s3.6 8 8 8H64V472c0 4.4 3.6 8 8 8s8-3.6 8-8V272H225.5l144 204.6c2 2.9 5.6 4.1 9 3s5.6-4.1 5.6-7.6V272h56c4.4 0 8-3.6 8-8s-3.6-8-8-8H384V40c0-4.4-3.6-8-8-8s-8 3.6-8 8V256H233.8L78.5 35.4zM245 272H368V446.7L245 272zm-30.8-16H80V65.3L214.2 256z"/></svg>