<svg xmlns="http://www.w3.org/2000/svg" viewBox="0 0 640 512"><!--! Font Awesome Pro 6.4.0 by @fontawesome - https://fontawesome.com License - https://fontawesome.com/license (Commercial License) Copyright 2023 Fonticons, Inc. --><path d="M400 16c17.7 0 32 14.3 32 32v96c0 17.7-14.3 32-32 32H240c-17.7 0-32-14.3-32-32V48c0-17.7 14.3-32 32-32H400zM240 0c-26.5 0-48 21.5-48 48v96c0 26.5 21.5 48 48 48h72v56H8c-4.4 0-8 3.6-8 8s3.6 8 8 8H152v56H80c-26.5 0-48 21.5-48 48v96c0 26.5 21.5 48 48 48H240c26.5 0 48-21.5 48-48V368c0-26.5-21.5-48-48-48H168V264H472v56H400c-26.5 0-48 21.5-48 48v96c0 26.5 21.5 48 48 48H560c26.5 0 48-21.5 48-48V368c0-26.5-21.5-48-48-48H488V264H632c4.4 0 8-3.6 8-8s-3.6-8-8-8H328V192h72c26.5 0 48-21.5 48-48V48c0-26.5-21.5-48-48-48H240zM80 336H240c17.7 0 32 14.3 32 32v96c0 17.7-14.3 32-32 32H80c-17.7 0-32-14.3-32-32V368c0-17.7 14.3-32 32-32zm480 0c17.7 0 32 14.3 32 32v96c0 17.7-14.3 32-32 32H400c-17.7 0-32-14.3-32-32V368c0-17.7 14.3-32 32-32H560z"/></svg>