<svg xmlns="http://www.w3.org/2000/svg" viewBox="0 0 512 512"><!--! Font Awesome Pro 6.4.0 by @fontawesome - https://fontawesome.com License - https://fontawesome.com/license (Commercial License) Copyright 2023 Fonticons, Inc. --><path d="M152 48c-22.1 0-40 17.9-40 40V424c0 15.7-6.4 29.8-16.8 40H440c30.9 0 56-25.1 56-56V88c0-22.1-17.9-40-40-40H152zM56 480c-30.9 0-56-25.1-56-56V192c0-35.3 28.7-64 64-64v16c-26.5 0-48 21.5-48 48V424c0 22.1 17.9 40 40 40s40-17.9 40-40V88c0-30.9 25.1-56 56-56H456c30.9 0 56 25.1 56 56V408c0 39.8-32.2 72-72 72H56zM352 104c0-4.4 3.6-8 8-8h80c4.4 0 8 3.6 8 8s-3.6 8-8 8H360c-4.4 0-8-3.6-8-8zm0 64c0-4.4 3.6-8 8-8h80c4.4 0 8 3.6 8 8s-3.6 8-8 8H360c-4.4 0-8-3.6-8-8zm0 64c0-4.4 3.6-8 8-8h80c4.4 0 8 3.6 8 8s-3.6 8-8 8H360c-4.4 0-8-3.6-8-8zM160 296c0-4.4 3.6-8 8-8H440c4.4 0 8 3.6 8 8s-3.6 8-8 8H168c-4.4 0-8-3.6-8-8zm0 64c0-4.4 3.6-8 8-8H440c4.4 0 8 3.6 8 8s-3.6 8-8 8H168c-4.4 0-8-3.6-8-8zm24-248c-4.4 0-8 3.6-8 8v96c0 4.4 3.6 8 8 8H296c4.4 0 8-3.6 8-8V120c0-4.4-3.6-8-8-8H184zm-24 8c0-13.3 10.7-24 24-24H296c13.3 0 24 10.7 24 24v96c0 13.3-10.7 24-24 24H184c-13.3 0-24-10.7-24-24V120z"/></svg>