<svg xmlns="http://www.w3.org/2000/svg" viewBox="0 0 512 512"><!--! Font Awesome Pro 6.4.0 by @fontawesome - https://fontawesome.com License - https://fontawesome.com/license (Commercial License) Copyright 2023 Fonticons, Inc. --><path d="M384 48H64C37.5 48 16 69.5 16 96V416c0 26.5 21.5 48 48 48H225.1c-.5 5.3-.8 10.6-1 16H64c-35.3 0-64-28.7-64-64V96C0 60.7 28.7 32 64 32H384c35.3 0 64 28.7 64 64V227c-5.4 .8-10.7 1.8-16 2.9V96c0-26.5-21.5-48-48-48zm-16 88V252.8c-5.4 2.8-10.8 5.8-16 8.9V136c0-4.4-3.6-8-8-8H240c-4.4 0-8 3.6-8 8v80.8c18.3 3.7 32 19.8 32 39.2c0 22.1-17.9 40-40 40s-40-17.9-40-40c0-19.4 13.7-35.5 32-39.2V136c0-13.3 10.7-24 24-24H344c13.3 0 24 10.7 24 24zM239 400H104c-13.3 0-24-10.7-24-24V136c0-13.3 10.7-24 24-24h48c4.4 0 8 3.6 8 8s-3.6 8-8 8H104c-4.4 0-8 3.6-8 8V376c0 4.4 3.6 8 8 8H245.3c-2.3 5.2-4.3 10.6-6.3 16zM224 232a24 24 0 1 0 0 48 24 24 0 1 0 0-48zm280 24c4.4 0 8 3.6 8 8s-3.6 8-8 8c-128.1 0-232 103.9-232 232c0 4.4-3.6 8-8 8s-8-3.6-8-8c0-137 111-248 248-248zM464 480a16 16 0 1 0 32 0 16 16 0 1 0 -32 0zm48 0a32 32 0 1 1 -64 0 32 32 0 1 1 64 0zm0-120c0 4.4-3.6 8-8 8c-75.1 0-136 60.9-136 136c0 4.4-3.6 8-8 8s-8-3.6-8-8c0-83.9 68.1-152 152-152c4.4 0 8 3.6 8 8z"/></svg>