<svg xmlns="http://www.w3.org/2000/svg" viewBox="0 0 448 512"><!--! Font Awesome Pro 6.4.0 by @fontawesome - https://fontawesome.com License - https://fontawesome.com/license (Commercial License) Copyright 2023 Fonticons, Inc. --><path d="M384 48c26.5 0 48 21.5 48 48V416c0 26.5-21.5 48-48 48H64c-26.5 0-48-21.5-48-48V96c0-26.5 21.5-48 48-48H384zM64 32C28.7 32 0 60.7 0 96V416c0 35.3 28.7 64 64 64H384c35.3 0 64-28.7 64-64V96c0-35.3-28.7-64-64-64H64zm40 96h48c4.4 0 8-3.6 8-8s-3.6-8-8-8H104c-13.3 0-24 10.7-24 24V376c0 13.3 10.7 24 24 24H344c13.3 0 24-10.7 24-24V136c0-13.3-10.7-24-24-24H240c-13.3 0-24 10.7-24 24v80.8c-18.3 3.7-32 19.8-32 39.2c0 22.1 17.9 40 40 40s40-17.9 40-40c0-19.4-13.7-35.5-32-39.2V136c0-4.4 3.6-8 8-8H344c4.4 0 8 3.6 8 8V376c0 4.4-3.6 8-8 8H104c-4.4 0-8-3.6-8-8V136c0-4.4 3.6-8 8-8zM224 280a24 24 0 1 1 0-48 24 24 0 1 1 0 48z"/></svg>