<svg xmlns="http://www.w3.org/2000/svg" viewBox="0 0 448 512"><!--! Font Awesome Pro 6.4.0 by @fontawesome - https://fontawesome.com License - https://fontawesome.com/license (Commercial License) Copyright 2023 Fonticons, Inc. --><path d="M380.6 33.5c3.6 2.5 4.5 7.5 1.9 11.1L301.3 160H424c4.4 0 8 3.6 8 8s-3.6 8-8 8H290.1L177.5 336H424c4.4 0 8 3.6 8 8s-3.6 8-8 8H166.2L78.5 476.6c-2.5 3.6-7.5 4.5-11.1 1.9s-4.5-7.5-1.9-11.1L146.7 352H24c-4.4 0-8-3.6-8-8s3.6-8 8-8H157.9L270.5 176H24c-4.4 0-8-3.6-8-8s3.6-8 8-8H281.8L369.5 35.4c2.5-3.6 7.5-4.5 11.1-1.9z"/></svg>