<svg xmlns="http://www.w3.org/2000/svg" viewBox="0 0 448 512"><!--! Font Awesome Pro 6.4.0 by @fontawesome - https://fontawesome.com License - https://fontawesome.com/license (Commercial License) Copyright 2023 Fonticons, Inc. --><path d="M384 48c26.5 0 48 21.5 48 48V316.1c0 1.3-.1 2.6-.2 3.9H336c-26.5 0-48 21.5-48 48v95.8c-1.3 .2-2.6 .2-3.9 .2H64c-26.5 0-48-21.5-48-48V96c0-26.5 21.5-48 48-48H384zM306.7 454.6c-.9 .9-1.8 1.7-2.7 2.4V368c0-17.7 14.3-32 32-32h89.1c-.8 1-1.6 1.9-2.4 2.7L306.7 454.6zM64 32C28.7 32 0 60.7 0 96V416c0 35.3 28.7 64 64 64H284.1c12.7 0 24.9-5.1 33.9-14.1L433.9 350.1c9-9 14.1-21.2 14.1-33.9V96c0-35.3-28.7-64-64-64H64zM200 136c0-4.4 3.6-8 8-8h32c4.4 0 8 3.6 8 8v56c0 4.4 3.6 8 8 8h56c4.4 0 8 3.6 8 8v32c0 4.4-3.6 8-8 8H256c-4.4 0-8 3.6-8 8v56c0 4.4-3.6 8-8 8H208c-4.4 0-8-3.6-8-8V256c0-4.4-3.6-8-8-8H136c-4.4 0-8-3.6-8-8V208c0-4.4 3.6-8 8-8h56c4.4 0 8-3.6 8-8V136zm8-24c-13.3 0-24 10.7-24 24v48H136c-13.3 0-24 10.7-24 24v32c0 13.3 10.7 24 24 24h48v48c0 13.3 10.7 24 24 24h32c13.3 0 24-10.7 24-24V264h48c13.3 0 24-10.7 24-24V208c0-13.3-10.7-24-24-24H264V136c0-13.3-10.7-24-24-24H208z"/></svg>