<svg xmlns="http://www.w3.org/2000/svg" viewBox="0 0 448 512"><!--! Font Awesome Pro 6.4.0 by @fontawesome - https://fontawesome.com License - https://fontawesome.com/license (Commercial License) Copyright 2023 Fonticons, Inc. --><path d="M384 48c26.5 0 48 21.5 48 48V316.1c0 1.3-.1 2.6-.2 3.9H336c-26.5 0-48 21.5-48 48v95.8c-1.3 .2-2.6 .2-3.9 .2H64c-26.5 0-48-21.5-48-48V96c0-26.5 21.5-48 48-48H384zM306.7 454.6c-.9 .9-1.8 1.7-2.7 2.4V368c0-17.7 14.3-32 32-32h89.1c-.8 1-1.6 1.9-2.4 2.7L306.7 454.6zM64 32C28.7 32 0 60.7 0 96V416c0 35.3 28.7 64 64 64H284.1c12.7 0 24.9-5.1 33.9-14.1L433.9 350.1c9-9 14.1-21.2 14.1-33.9V96c0-35.3-28.7-64-64-64H64zM96 400a16 16 0 1 1 0-32 16 16 0 1 1 0 32zm0-48a32 32 0 1 0 0 64 32 32 0 1 0 0-64zM80 128a16 16 0 1 1 32 0 16 16 0 1 1 -32 0zm48 0a32 32 0 1 0 -64 0 32 32 0 1 0 64 0zM96 272a16 16 0 1 1 0-32 16 16 0 1 1 0 32zm0-48a32 32 0 1 0 0 64 32 32 0 1 0 0-64z"/></svg>