<svg xmlns="http://www.w3.org/2000/svg" viewBox="0 0 512 512"><!--! Font Awesome Pro 6.4.0 by @fontawesome - https://fontawesome.com License - https://fontawesome.com/license (Commercial License) Copyright 2023 Fonticons, Inc. --><path d="M112 96c0-26.5 21.5-48 48-48H416c26.5 0 48 21.5 48 48V293.5c0 12.7-5.1 24.9-14.1 33.9l-58.5 58.5c-9 9-21.2 14.1-33.9 14.1H160c-26.5 0-48-21.5-48-48V96zM96 96V352c0 35.3 28.7 64 64 64H357.5c17 0 33.3-6.7 45.3-18.7l58.5-58.5c12-12 18.7-28.3 18.7-45.3V96c0-35.3-28.7-64-64-64H160c-35.3 0-64 28.7-64 64zm176 32h32c4.4 0 8 3.6 8 8v56c0 4.4 3.6 8 8 8h56c4.4 0 8 3.6 8 8v32c0 4.4-3.6 8-8 8H320c-4.4 0-8 3.6-8 8v56c0 4.4-3.6 8-8 8H272c-4.4 0-8-3.6-8-8V256c0-4.4-3.6-8-8-8H200c-4.4 0-8-3.6-8-8V208c0-4.4 3.6-8 8-8h56c4.4 0 8-3.6 8-8V136c0-4.4 3.6-8 8-8zm-24 8v48H200c-13.3 0-24 10.7-24 24v32c0 13.3 10.7 24 24 24h48v48c0 13.3 10.7 24 24 24h32c13.3 0 24-10.7 24-24V264h48c13.3 0 24-10.7 24-24V208c0-13.3-10.7-24-24-24H328V136c0-13.3-10.7-24-24-24H272c-13.3 0-24 10.7-24 24zM0 192V448c0 35.3 28.7 64 64 64H320c35.3 0 64-28.7 64-64H368c0 26.5-21.5 48-48 48H64c-26.5 0-48-21.5-48-48V192c0-26.5 21.5-48 48-48V128c-35.3 0-64 28.7-64 64z"/></svg>