<svg xmlns="http://www.w3.org/2000/svg" viewBox="0 0 512 512"><!--! Font Awesome Pro 6.4.0 by @fontawesome - https://fontawesome.com License - https://fontawesome.com/license (Commercial License) Copyright 2023 Fonticons, Inc. --><path d="M8 512c-4.4 0-8-3.6-8-8s3.6-8 8-8l496 0c4.4 0 8 3.6 8 8s-3.6 8-8 8L8 512zM176 400c17.7 0 32-14.3 32-32l0-320c0-17.7-14.3-32-32-32H112C94.3 16 80 30.3 80 48l0 320c0 17.7 14.3 32 32 32h64zm-64 16c-26.5 0-48-21.5-48-48L64 48C64 21.5 85.5 0 112 0h64c26.5 0 48 21.5 48 48l0 320c0 26.5-21.5 48-48 48H112zm288-16c17.7 0 32-14.3 32-32l0-192c0-17.7-14.3-32-32-32H336c-17.7 0-32 14.3-32 32l0 192c0 17.7 14.3 32 32 32h64zm-64 16c-26.5 0-48-21.5-48-48l0-192c0-26.5 21.5-48 48-48h64c26.5 0 48 21.5 48 48l0 192c0 26.5-21.5 48-48 48H336z"/></svg>