<svg xmlns="http://www.w3.org/2000/svg" viewBox="0 0 512 512"><!--! Font Awesome Pro 6.4.0 by @fontawesome - https://fontawesome.com License - https://fontawesome.com/license (Commercial License) Copyright 2023 Fonticons, Inc. --><path d="M176 48c17.7 0 32 14.3 32 32l0 176 0 176c0 17.7-14.3 32-32 32H112c-17.7 0-32-14.3-32-32L80 80c0-17.7 14.3-32 32-32l64 0zm48 200l0-168c0-26.5-21.5-48-48-48l-64 0C85.5 32 64 53.5 64 80l0 168H8c-4.4 0-8 3.6-8 8s3.6 8 8 8H64l0 168c0 26.5 21.5 48 48 48h64c26.5 0 48-21.5 48-48l0-168 64 0V368c0 26.5 21.5 48 48 48h64c26.5 0 48-21.5 48-48V264h56c4.4 0 8-3.6 8-8s-3.6-8-8-8H448l0-104c0-26.5-21.5-48-48-48H336c-26.5 0-48 21.5-48 48l0 104-64 0zm80 8l0-112c0-17.7 14.3-32 32-32l64 0c17.7 0 32 14.3 32 32l0 112V368c0 17.7-14.3 32-32 32H336c-17.7 0-32-14.3-32-32V256z"/></svg>