<svg xmlns="http://www.w3.org/2000/svg" viewBox="0 0 512 512"><!--! Font Awesome Pro 6.4.0 by @fontawesome - https://fontawesome.com License - https://fontawesome.com/license (Commercial License) Copyright 2023 Fonticons, Inc. --><path d="M332.7 44.7l24-24c6.2-6.2 16.4-6.2 22.6 0l24 24c6.2 6.2 6.2 16.4 0 22.6l-24 24c-6.2 6.2-16.4 6.2-22.6 0l-24-24c-6.2-6.2-6.2-16.4 0-22.6zM368 80l11.3-11.3 1.4-1.4L392 56 380.7 44.7l-1.4-1.4L368 32 356.7 43.3l-1.4 1.4L344 56l11.3 11.3 1.4 1.4L368 80zM142.4 112c-26.2 0-49.4 12.6-64 32c-2.7 3.5-7.7 4.2-11.2 1.6s-4.2-7.7-1.6-11.2C83.1 111.1 111 96 142.4 96c53 0 96 43 96 96c0 33.4-17 62.8-42.9 80h71.6c27.2 0 53.7-9.3 75-26.3l22.2-17.8C380.4 215 400.4 208 421.1 208c50.2 0 90.9 40.7 90.9 90.9v94c0 48.1-39 87.1-87.1 87.1c-33 0-63.2-18.6-77.9-48.2l-10.1-20.3c-2-4-.4-8.8 3.6-10.7s8.8-.4 10.7 3.6l10.1 20.3c12 24.1 36.7 39.3 63.6 39.3c39.3 0 71.1-31.8 71.1-71.1v-94c0-41.4-33.5-74.9-74.9-74.9c-17 0-33.5 5.8-46.8 16.4l-22.2 17.8c-24.1 19.3-54.1 29.8-85 29.8H211.9c35.9 20.7 60.1 59.5 60.1 104c0 66.3-53.7 120-120 120H136C60.9 512 0 451.1 0 376c0-4.4 3.6-8 8-8s8 3.6 8 8c0 66.3 53.7 120 120 120h16c57.4 0 104-46.6 104-104s-46.6-104-104-104h-9.6H136c-4.4 0-8-3.6-8-8s3.6-8 8-8h6.4c44.2 0 80-35.8 80-80s-35.8-80-80-80zm151.2 10.3l148.8 0c3.1-3.1 8.2-3.1 11.3 .1c3.1 3.1 3.1 8.2 0 11.3L448 128c5.6 5.7 5.6 5.7 5.6 5.7l0 0 0 0 0 0-.1 .1-.3 .3c-.3 .2-.6 .6-1.1 1c-.9 .8-2.3 1.9-4 3.1c-3.5 2.5-8.7 5.8-15.7 9c-14 6.5-35.2 12.7-64.3 12.7s-50.3-6.3-64.3-12.7c-7-3.2-12.2-6.5-15.7-9c-1.8-1.3-3.1-2.3-4-3.1c-.5-.4-.8-.7-1.1-1l-.3-.3-.1-.1 0 0 0 0 0 0s0 0 5.6-5.7l-5.6 5.7c-3.1-3.1-3.1-8.2 0-11.3c3.1-3.1 8.1-3.1 11.3-.1zm148.8 0l-148.8 0 .1 .1c.1 .1 .3 .3 .6 .6c.6 .5 1.6 1.3 3 2.3c2.8 2 7.1 4.7 13.1 7.5c12 5.5 30.9 11.3 57.6 11.3s45.6-5.7 57.6-11.3c6-2.8 10.3-5.5 13.1-7.5c1.4-1 2.4-1.8 3-2.3c.3-.3 .5-.4 .6-.6l.1-.1zm0 0h0l0 0 0 0z"/></svg>