<svg xmlns="http://www.w3.org/2000/svg" viewBox="0 0 640 512"><!--! Font Awesome Pro 6.4.0 by @fontawesome - https://fontawesome.com License - https://fontawesome.com/license (Commercial License) Copyright 2023 Fonticons, Inc. --><path d="M170.8 204.1l22.1-14.7c4.5-3 7.1-8 7.1-13.3v-8c0-13.3-10.7-24-24-24H144c-13.3 0-24 10.7-24 24v8c0 5.3 2.7 10.3 7.1 13.3l22.1 14.7-8.4 6.3C129 219.2 114.7 224 100 224c-37.6 0-68-30.4-68-68V136c0-48.6 39.4-88 88-88h80c48.6 0 88 39.4 88 88v20c0 37.6-30.4 68-68 68c-14.7 0-29-4.8-40.8-13.6l-8.4-6.3zM160 216l9.6 7.2C184.1 234.1 201.8 240 220 240c16.2 0 31.3-4.6 44.1-12.5c1.8 29.3 26.1 52.5 55.9 52.5h77.4c-22.6 15.9-37.4 42.2-37.4 72H256c5-6.7 8-15 8-24c0-22.1-17.9-40-40-40H104c-30.9 0-56-25.1-56-56V222c14.3 11.3 32.4 18 52 18c18.2 0 35.9-5.9 50.4-16.8L160 216zm200-56c-22.6 0-43.3 7.8-59.7 20.8c2.4-7.9 3.7-16.2 3.7-24.8V136c0-2.7-.1-5.4-.3-8H312c4.4 0 8-3.6 8-8s-3.6-8-8-8H301.2c-10.8-45.9-52-80-101.2-80H120C70.8 32 29.6 66.1 18.8 112H8c-4.4 0-8 3.6-8 8s3.6 8 8 8h8.3c-.2 2.6-.3 5.3-.3 8v20c0 18.4 5.9 35.5 16 49.3V216v16 26.9C32 381 131 480 253.1 480H416.9C540.1 480 640 380.1 640 256.9c0-84.4-56.5-158.4-138-180.6l-43.9-12c-3.7-1-7.6 .7-9.3 4.2s-.7 7.6 2.3 9.9l66.3 51c21.8 16.8 34.6 42.7 34.6 70.2c0 20.3-9.4 38.4-24 50.2V208c0-8.8-3.6-17.1-9.7-22.5c-6.3-5.6-15.1-8.2-24.4-5C465.3 190.4 440 216.1 440 248v16H344v-8c0-8.8 7.2-16 16-16h8c22.1 0 40-17.9 40-40s-17.9-40-40-40h-8zm-77.8 77.2c8.5-35.1 40.1-61.2 77.8-61.2h8c13.3 0 24 10.7 24 24s-10.7 24-24 24h-8c-17.7 0-32 14.3-32 32v8h-8c-17.5 0-32.3-11.2-37.8-26.8zM512 335.1c0 18.1-8.7 35.1-23.4 45.6l-29.2 20.9c-3.6 2.6-4.4 7.6-1.9 11.2s7.6 4.4 11.2 1.9l29.2-20.9c18.9-13.5 30.2-35.3 30.2-58.6v-66c23.9-13.9 40-39.9 40-69.6c0-32.5-15.1-63.1-40.8-82.9L493 90.4l4.8 1.3C572.3 112 624 179.7 624 256.9C624 371.3 531.3 464 416.9 464H253.1C146.4 464 58.7 382.5 48.9 278.4C62.1 294 81.9 304 104 304H224c13.3 0 24 10.7 24 24s-10.7 24-24 24H208 160c-4.4 0-8 3.6-8 8s3.6 8 8 8h48 16H368c4.4 0 8-3.6 8-8v-8c0-39.7 32.1-71.8 71.7-72h.3v0c4.4 0 8-3.6 8-8V248c0-23 18.8-44 43.1-52.4c3.3-1.1 6.2-.4 8.5 1.8c2.5 2.3 4.4 6.1 4.4 10.6v51.2 17 58.8zM112 144a16 16 0 1 0 -32 0 16 16 0 1 0 32 0zm112 16a16 16 0 1 0 0-32 16 16 0 1 0 0 32zm-88 16v-8c0-4.4 3.6-8 8-8h32c4.4 0 8 3.6 8 8v8l-24 16-24-16z"/></svg>