<svg xmlns="http://www.w3.org/2000/svg" viewBox="0 0 448 512"><!--! Font Awesome Pro 6.4.0 by @fontawesome - https://fontawesome.com License - https://fontawesome.com/license (Commercial License) Copyright 2023 Fonticons, Inc. --><path d="M64 48C37.5 48 16 69.5 16 96V416c0 26.5 21.5 48 48 48H384c26.5 0 48-21.5 48-48V96c0-26.5-21.5-48-48-48H64zM0 96C0 60.7 28.7 32 64 32H384c35.3 0 64 28.7 64 64V416c0 35.3-28.7 64-64 64H64c-35.3 0-64-28.7-64-64V96zM80 256c0 55.2 27.7 89.2 44.6 104.8c5 4.6 12.5 7.2 21.8 7.2H301.6c9.3 0 16.8-2.6 21.8-7.2C340.3 345.2 368 311.2 368 256s-27.7-89.2-44.6-104.8c-5-4.6-12.5-7.2-21.8-7.2H146.4c-9.3 0-16.8 2.6-21.8 7.2C107.7 166.8 80 200.8 80 256zm-16 0c0-61.1 30.8-99.1 49.7-116.6c8.8-8.2 20.7-11.4 32.6-11.4H301.6c12 0 23.9 3.3 32.6 11.4C353.2 156.9 384 194.9 384 256s-30.8 99-49.7 116.6c-8.8 8.2-20.7 11.4-32.6 11.4H146.4c-12 0-23.9-3.3-32.6-11.4C94.8 355 64 317.1 64 256zm96-64c4.4 0 8 3.6 8 8v64c0 4.4-3.6 8-8 8s-8-3.6-8-8V200c0-4.4 3.6-8 8-8zm128 0c4.4 0 8 3.6 8 8v64c0 4.4-3.6 8-8 8s-8-3.6-8-8V200c0-4.4 3.6-8 8-8zM240 304c0-8.8-7.2-16-16-16s-16 7.2-16 16v16h32V304zm-48 0c0-17.7 14.3-32 32-32s32 14.3 32 32v16c0 8.8-7.2 16-16 16H208c-8.8 0-16-7.2-16-16V304z"/></svg>