<svg xmlns="http://www.w3.org/2000/svg" viewBox="0 0 512 512"><!-- Font Awesome Pro 6.0.0-alpha2 by @fontawesome - https://fontawesome.com License - https://fontawesome.com/license (Commercial License) --><path d="M277.889 370.861C273.514 371.471 270.482 375.518 271.076 379.893C275.045 408.064 266.17 435.283 246.699 454.563C219.73 481.281 163.789 496 89.223 496H38.314C26.002 496 16 486.203 16 474.172C16 462.125 26.002 452.33 38.314 452.33C55.846 452.33 71.004 446.314 81.004 435.408C89.754 425.861 93.91 413.221 92.723 399.799C90.41 373.58 99.818 347.908 118.537 329.379C133.381 314.66 152.758 305.879 174.541 303.973C178.947 303.582 182.197 299.707 181.822 295.301C181.416 290.941 177.604 287.754 173.166 288.035C147.602 290.27 124.818 300.629 107.287 318.004C85.16 339.908 74.035 370.236 76.785 401.205C77.566 410.221 74.973 418.314 69.191 424.596C62.285 432.158 51.314 436.33 38.314 436.33C17.188 436.33 0 453.297 0 474.172C0 495.031 17.188 512 38.314 512H89.223C144.977 512 219.512 504 257.951 465.938C281.045 443.064 291.609 410.893 286.951 377.674C286.326 373.283 282.201 370.268 277.889 370.861ZM498.15 19.398C488.213 7.992 474.461 1.148 459.461 0.148C444.492 -0.945 429.896 4.008 418.49 14.133L223.449 186.584C216.793 192.568 210.854 199.553 206.354 206.756C200.885 215.379 196.916 224.832 194.572 234.832C191.197 249.129 196.791 264.613 208.854 274.316L285.607 335.799C293.047 341.768 302.078 344.83 311.016 344.83C317.141 344.83 323.203 343.408 328.768 340.502C343.174 332.941 355.455 321.582 364.268 307.645L503.338 87.055C516.588 65.977 514.463 38.148 498.15 19.398ZM489.775 78.523L350.736 299.113C343.424 310.66 333.268 320.082 321.328 326.332C313.328 330.457 303.047 329.254 295.609 323.301L218.855 261.832C211.605 255.988 208.166 246.832 210.135 238.504C212.105 230.238 215.355 222.426 219.887 215.285C223.637 209.303 228.543 203.506 234.105 198.553L429.115 26.117C436.521 19.539 445.742 16.008 455.398 16.008C456.367 16.008 457.367 16.039 458.336 16.117C469.117 16.836 478.961 21.727 486.088 29.898C497.807 43.383 499.338 63.367 489.775 78.523Z"/></svg>