<svg xmlns="http://www.w3.org/2000/svg" viewBox="0 0 640 512"><!-- Font Awesome Pro 6.0.0-alpha2 by @fontawesome - https://fontawesome.com License - https://fontawesome.com/license (Commercial License) --><path d="M632 496H552V368H632C636.406 368 640 364.422 640 360S636.406 352 632 352H8C3.594 352 0 355.578 0 360S3.594 368 8 368H88V496H8C3.594 496 0 499.578 0 504S3.594 512 8 512H632C636.406 512 640 508.422 640 504S636.406 496 632 496ZM312 496H104V368H312V496ZM536 496H328V368H536V496ZM112 288H272C298.51 288 320 266.51 320 240V48C320 21.49 298.51 0 272 0H112C85.49 0 64 21.49 64 48V240C64 266.51 85.49 288 112 288ZM80 48C80 30.355 94.355 16 112 16H272C289.645 16 304 30.355 304 48V240C304 257.645 289.645 272 272 272H112C94.355 272 80 257.645 80 240V48ZM432 288H528C554.51 288 576 266.51 576 240V112C576 85.49 554.51 64 528 64H432C405.49 64 384 85.49 384 112V240C384 266.51 405.49 288 432 288ZM400 112C400 94.355 414.355 80 432 80H528C545.645 80 560 94.355 560 112V240C560 257.645 545.645 272 528 272H432C414.355 272 400 257.645 400 240V112Z"/></svg>