<svg xmlns="http://www.w3.org/2000/svg" viewBox="0 0 512 512"><!--! Font Awesome Pro 6.4.0 by @fontawesome - https://fontawesome.com License - https://fontawesome.com/license (Commercial License) Copyright 2023 Fonticons, Inc. --><path d="M256.1 0H256C86.6 0 8.7 114.4 .7 208c-.8 8.8 6.5 16 15.3 16H52.7L168.9 340.2c-5.6 7.8-8.9 17.4-8.9 27.8v96c0 26.5 21.5 48 48 48h96c26.5 0 48-21.5 48-48V368c0-10.4-3.3-20-8.9-27.8L459.3 224H496c8.8 0 16.1-7.2 15.3-16c-8-93.6-85.8-208-255.2-208zM436.7 224L331.8 328.9c-7.8-5.6-17.4-8.9-27.8-8.9H264V224H383.6h16 37.1zM248 224v96H208c-10.4 0-20 3.3-27.8 8.9L75.3 224h37.1 16H248zM190.6 22.6C144 57 112 127.1 112 208H16.8C23.6 134.9 76.6 47.1 190.6 22.6zM167.3 70c24-34.7 55.6-54 88.7-54s64.6 19.3 88.7 54c24 34.6 39.3 83.4 39.3 138H128c0-54.6 15.3-103.3 39.3-138zM495.2 208H400c0-80.9-32-151-78.6-185.4C435.4 47.1 488.4 134.9 495.2 208zM304 336c17.7 0 32 14.3 32 32v96c0 17.7-14.3 32-32 32H208c-17.7 0-32-14.3-32-32V368c0-17.7 14.3-32 32-32h96z"/></svg>