<svg xmlns="http://www.w3.org/2000/svg" viewBox="0 0 448 512"><!--! Font Awesome Pro 6.4.0 by @fontawesome - https://fontawesome.com License - https://fontawesome.com/license (Commercial License) Copyright 2023 Fonticons, Inc. --><path d="M384 16c26.5 0 48 21.5 48 48V448c0 26.5-21.5 48-48 48H64c-26.5 0-48-21.5-48-48V64c0-26.5 21.5-48 48-48H384zM64 0C28.7 0 0 28.7 0 64V448c0 35.3 28.7 64 64 64H384c35.3 0 64-28.7 64-64V64c0-35.3-28.7-64-64-64H64zM96 392c0 4.4 3.6 8 8 8H344c4.4 0 8-3.6 8-8s-3.6-8-8-8H104c-4.4 0-8 3.6-8 8zm.2-208c-.2 2.6-.2 5.3-.2 8s.1 5.4 .2 8C100.4 267 156 320 224 320s123.6-53 127.8-120c.2-2.6 .2-5.3 .2-8s-.1-5.4-.2-8C347.6 117 292 64 224 64s-123.6 53-127.8 120zm16 16h55.8c1.4 41.3 13.1 70.2 25.1 89.3c3.1 4.9 6.1 9 9.1 12.6c-48.9-9.6-86.4-51.1-90-101.9zm223.4 0c-3.6 50.8-41.1 92.3-90 101.9c2.9-3.6 6-7.8 9.1-12.6c12-19 23.8-48 25.1-89.3h55.8zm0-16H279.9c-1.4-41.3-13.1-70.2-25.1-89.3c-3.1-4.9-6.1-9-9.1-12.6c48.9 9.6 86.4 51.1 90 101.9zm-223.4 0c3.6-50.8 41.1-92.3 90-101.9c-2.9 3.6-6 7.8-9.1 12.6c-12 19-23.8 48-25.1 89.3H112.3zm94.5-80.7c5.6-8.9 11.2-15.2 15.3-19.2c.7-.7 1.3-1.3 1.9-1.8c.6 .5 1.2 1.1 1.9 1.8c4.1 4 9.7 10.3 15.3 19.2c10.5 16.6 21.3 42.7 22.6 80.7H184.1c1.3-38.1 12.1-64.1 22.6-80.7zM263.9 200c-1.3 38.1-12.1 64.1-22.6 80.7c-5.6 8.9-11.2 15.2-15.3 19.2c-.7 .7-1.3 1.3-1.9 1.8c-.6-.5-1.2-1.1-1.9-1.8c-4.1-4-9.7-10.3-15.3-19.2c-10.5-16.6-21.3-42.7-22.6-80.7h79.7z"/></svg>