<svg xmlns="http://www.w3.org/2000/svg" viewBox="0 0 512 512"><!--! Font Awesome Pro 6.4.0 by @fontawesome - https://fontawesome.com License - https://fontawesome.com/license (Commercial License) Copyright 2023 Fonticons, Inc. --><path d="M128 16a48 48 0 1 1 0 96 48 48 0 1 1 0-96zm0 112A64 64 0 1 0 128 0a64 64 0 1 0 0 128zm-22.4 48h44.8c33.3 0 61 25.5 63.8 58.7l4.1 49.3c2.3 28-19.8 52-47.8 52H144 112 85.6c-28.1 0-50.2-24-47.8-52l4.1-49.3c2.8-33.2 30.5-58.7 63.8-58.7zM120 352h16V480c0 17.7 14.3 32 32 32s32-14.3 32-32V344.8c22.1-11.5 36.4-35.4 34.2-62.1l-4.1-49.3C226.7 191.9 192 160 150.4 160H105.6c-41.6 0-76.3 31.9-79.7 73.4l-4.1 49.3c-2.2 26.7 12.2 50.6 34.2 62.1V480c0 17.7 14.3 32 32 32s32-14.3 32-32V352zm64 128c0 8.8-7.2 16-16 16s-16-7.2-16-16V352h18.4c4.7 0 9.2-.5 13.6-1.4V480zM104 352V480c0 8.8-7.2 16-16 16s-16-7.2-16-16V350.6c4.4 .9 8.9 1.4 13.6 1.4H104zM384 16a48 48 0 1 1 0 96 48 48 0 1 1 0-96zm0 112A64 64 0 1 0 384 0a64 64 0 1 0 0 128zm-15.7 48h31.4c21.4 0 40.3 14.2 46.2 34.8L485 347.6c2.9 10.2-4.8 20.4-15.4 20.4H448 400 368 320 298.4c-10.6 0-18.3-10.2-15.4-20.4l39.1-136.8c5.9-20.6 24.7-34.8 46.2-34.8zM376 384h16v96c0 17.7 14.3 32 32 32s32-14.3 32-32V384h13.6c21.3 0 36.6-20.3 30.8-40.8L461.3 206.4c-7.8-27.5-33-46.4-61.5-46.4H368.3c-28.6 0-53.7 18.9-61.5 46.4L267.7 343.2c-5.8 20.4 9.5 40.8 30.8 40.8H312v96c0 17.7 14.3 32 32 32s32-14.3 32-32V384zm64 96c0 8.8-7.2 16-16 16s-16-7.2-16-16V384h32v96zm-80-96v96c0 8.8-7.2 16-16 16s-16-7.2-16-16V384h32z"/></svg>