<svg xmlns="http://www.w3.org/2000/svg" viewBox="0 0 576 512"><!-- Font Awesome Pro 6.0.0-alpha2 by @fontawesome - https://fontawesome.com License - https://fontawesome.com/license (Commercial License) --><path d="M480 128C515.375 128 544 99.375 544 64S515.375 0 480 0S416 28.625 416 64S444.625 128 480 128ZM480 16C506.467 16 528 37.533 528 64S506.467 112 480 112S432 90.467 432 64S453.533 16 480 16ZM504 160H456C434.016 160 413.531 169.844 399.797 187C397.047 190.453 397.594 195.484 401.047 198.25C404.484 201.016 409.547 200.453 412.297 197C422.969 183.656 438.906 176 456 176H504C534.875 176 560 201.125 560 232V320C560 333.234 549.234 344 536 344C531.578 344 528 347.578 528 352V472C528 485.234 517.234 496 504 496H456C442.766 496 432 485.234 432 472V384C432 379.578 428.422 376 424 376S416 379.578 416 384V472C416 494.062 433.938 512 456 512H504C526.062 512 544 494.062 544 472V359.203C562.234 355.484 576 339.312 576 320V232C576 192.297 543.703 160 504 160ZM445.359 298.047L365.359 226.047C362.078 223.109 357.063 223.391 354.047 226.641C351.094 229.937 351.359 234.984 354.641 237.953L419.156 296H156.844L221.359 237.953C224.641 234.984 224.906 229.938 221.953 226.641C218.953 223.359 213.906 223.078 210.641 226.047L130.641 298.047C126.08 302.225 128.324 307.832 130.641 309.953L210.641 381.953C213.707 384.707 218.779 384.846 221.953 381.359C224.906 378.063 224.641 373.016 221.359 370.047L156.844 312H419.156L354.641 370.047C351.359 373.016 351.094 378.062 354.047 381.359C357.223 384.846 362.293 384.707 365.359 381.953L445.359 309.953C449.92 305.775 447.678 300.168 445.359 298.047ZM96 128C131.375 128 160 99.375 160 64S131.375 0 96 0S32 28.625 32 64S60.625 128 96 128ZM96 16C122.467 16 144 37.533 144 64S122.467 112 96 112S48 90.467 48 64S69.533 16 96 16ZM152 376C147.578 376 144 379.578 144 384V472C144 485.234 133.234 496 120 496H72C58.766 496 48 485.234 48 472V352C48 347.578 44.422 344 40 344C26.766 344 16 333.234 16 320V232C16 201.125 41.125 176 72 176H120C137.094 176 153.031 183.656 163.703 197C166.484 200.453 171.563 201.016 174.953 198.25C178.406 195.484 178.953 190.453 176.203 187C162.469 169.844 141.984 160 120 160H72C32.297 160 0 192.297 0 232V320C0 339.312 13.766 355.484 32 359.203V472C32 494.062 49.938 512 72 512H120C142.062 512 160 494.062 160 472V384C160 379.578 156.422 376 152 376Z"/></svg>