<svg xmlns="http://www.w3.org/2000/svg" viewBox="0 0 640 512"><!--! Font Awesome Pro 6.4.0 by @fontawesome - https://fontawesome.com License - https://fontawesome.com/license (Commercial License) Copyright 2023 Fonticons, Inc. --><path d="M232 56a40 40 0 1 0 -80 0 40 40 0 1 0 80 0zm-96 0a56 56 0 1 1 112 0A56 56 0 1 1 136 56zM122.7 175.7L55.2 315.5c-1.9 4-6.7 5.6-10.7 3.7s-5.6-6.7-3.7-10.7l67.5-139.8c12-24.9 37.2-40.7 64.8-40.7h37.8c27.6 0 52.8 15.8 64.8 40.7l67.5 139.8c1.9 4 .3 8.8-3.7 10.7s-8.8 .3-10.7-3.7L261.3 175.7C252 156.3 232.4 144 210.9 144H173.1c-21.5 0-41.1 12.3-50.4 31.7zM128 240c4.4 0 8 3.6 8 8V480c0 8.8 7.2 16 16 16s16-7.2 16-16V360c0-13.3 10.7-24 24-24s24 10.7 24 24V480c0 8.8 7.2 16 16 16s16-7.2 16-16V248c0-4.4 3.6-8 8-8s8 3.6 8 8V480c0 5.8-1.6 11.3-4.3 16H632c4.4 0 8 3.6 8 8s-3.6 8-8 8H8c-4.4 0-8-3.6-8-8s3.6-8 8-8H124.3c-2.7-4.7-4.3-10.2-4.3-16V248c0-4.4 3.6-8 8-8zm51.7 256h24.6c-2.7-4.7-4.3-10.2-4.3-16V360c0-4.4-3.6-8-8-8s-8 3.6-8 8V480c0 5.8-1.6 11.3-4.3 16zM597.9 138.6c3 3.2 2.8 8.3-.5 11.3s-8.3 2.8-11.3-.5L504 60.5 504 408c0 4.4-3.6 8-8 8s-8-3.6-8-8l0-347.5-82.1 89c-3 3.2-8.1 3.4-11.3 .5s-3.4-8.1-.5-11.3l96-104c1.5-1.6 3.6-2.6 5.9-2.6s4.4 .9 5.9 2.6l96 104z"/></svg>