<svg xmlns="http://www.w3.org/2000/svg" viewBox="0 0 512 512"><!--! Font Awesome Pro 6.4.0 by @fontawesome - https://fontawesome.com License - https://fontawesome.com/license (Commercial License) Copyright 2023 Fonticons, Inc. --><path d="M241 240c-4.9 0-9.6 2.3-12.6 6.2s-4.1 8.9-2.9 13.7l8 32c1.8 7.1 8.2 12.1 15.5 12.1h69.8c26.7 0 50.6 16.5 59.9 41.5l25.5 68c3 8.1 11.9 12.3 20 9.6l18.7-6.2c8.4-2.8 17.4 1.7 20.2 10.1s-1.7 17.4-10.1 20.2l-48 16c-8.2 2.7-17-1.5-20-9.6l-36.3-96.9c-4.7-12.5-16.6-20.8-30-20.8H224.7v0l-.3 0c-.2 0-.5 0-.7 0l0 0h-.3H217c-22 0-41.2-15-46.6-36.4l-21.1-84.5c-5-19.9 10.1-39.2 30.6-39.2c13.5 0 25.4 8.6 29.8 21.2c2.2 6.5 8.3 10.8 15.1 10.8H320c8.8 0 16 7.2 16 16s-7.2 16-16 16H241zM128 80a32 32 0 1 1 64 0 32 32 0 1 1 -64 0zM249 288l-4-16-4-16h16.5H320c17.7 0 32-14.3 32-32s-14.3-32-32-32H224.8c-6.6-19-24.5-32-44.9-32c-30.9 0-53.6 29.1-46.1 59l21.1 84.5C162 332 187.6 352 217 352h6.3c.5 0 .9 0 1.4 0h94.1c6.7 0 12.6 4.1 15 10.4L370 459.2c6 16.1 23.8 24.6 40.1 19.1l48-16c16.8-5.6 25.8-23.7 20.2-40.5s-23.7-25.8-40.5-20.2l-18.7 6.2-25.5-68c-11.7-31.2-41.6-51.9-74.9-51.9H249zM208 80a48 48 0 1 0 -96 0 48 48 0 1 0 96 0zM47.8 134.4c-.9-4.3-5.1-7.1-9.4-6.2s-7.1 5.1-6.2 9.4L72.4 333c10 48.3 52.5 83 101.9 83H296c4.4 0 8-3.6 8-8s-3.6-8-8-8H174.2c-41.8 0-77.8-29.4-86.2-70.3L47.8 134.4z"/></svg>