<svg xmlns="http://www.w3.org/2000/svg" viewBox="0 0 512 512"><!--! Font Awesome Pro 6.4.0 by @fontawesome - https://fontawesome.com License - https://fontawesome.com/license (Commercial License) Copyright 2023 Fonticons, Inc. --><path d="M69.9 34.6C66.5 35 64 37.9 64 41.3C64 45 67 48 70.7 48H192V18.3L69.9 34.6zM48 41.3c0-11.4 8.4-21 19.7-22.5L189.9 2.4C199.5 1.1 208 8.6 208 18.3V48c0 8.8-7.2 16-16 16H70.7C58.2 64 48 53.8 48 41.3zM432 96a48 48 0 1 0 -96 0 48 48 0 1 0 96 0zM304 256v32c0 8.8 7.2 16 16 16H448c8.8 0 16-7.2 16-16V256c0-26.5-21.5-48-48-48H352c-26.5 0-48 21.5-48 48zM384 32a64 64 0 1 1 0 128 64 64 0 1 1 0-128zM352 192h64c35.3 0 64 28.7 64 64v32c0 17.7-14.3 32-32 32H320c-17.7 0-32-14.3-32-32V256c0-35.3 28.7-64 64-64zM64 96c0-5.5 .7-10.9 2-16H82.7C81 85 80 90.4 80 96c0 26.5 21.5 48 48 48s48-21.5 48-48c0-5.6-1-11-2.7-16H190c1.3 5.1 2 10.5 2 16c0 35.3-28.7 64-64 64s-64-28.7-64-64zM48 256v32c0 8.8 7.2 16 16 16H192c.7 0 1.3 0 2-.1L69.5 216C56.5 224.6 48 239.3 48 256zm48-48c-3.1 0-6 .3-8.9 .8l120 84.7c.6-1.7 1-3.6 1-5.5V256c0-26.5-21.5-48-48-48H96zM32 256c0-35.3 28.7-64 64-64h64c35.3 0 64 28.7 64 64v32c0 17.7-14.3 32-32 32H64c-17.7 0-32-14.3-32-32V256zM138 362.7c2.9-3.3 8-3.6 11.3-.7l72 64c1.7 1.5 2.7 3.7 2.7 6s-1 4.5-2.7 6l-72 64c-3.3 2.9-8.4 2.6-11.3-.7s-2.6-8.4 .7-11.3L195 440H8c-4.4 0-8-3.6-8-8s3.6-8 8-8H195l-56.3-50c-3.3-2.9-3.6-8-.7-11.3zm224.7-.7c3.3-2.9 8.4-2.6 11.3 .7s2.6 8.4-.7 11.3L317 424H504c4.4 0 8 3.6 8 8s-3.6 8-8 8H317l56.3 50c3.3 2.9 3.6 8 .7 11.3s-8 3.6-11.3 .7l-72-64c-1.7-1.5-2.7-3.7-2.7-6s1-4.5 2.7-6l72-64z"/></svg>