<svg xmlns="http://www.w3.org/2000/svg" viewBox="0 0 384 512"><!--! Font Awesome Pro 6.4.0 by @fontawesome - https://fontawesome.com License - https://fontawesome.com/license (Commercial License) Copyright 2023 Fonticons, Inc. --><path d="M192 240h64c8.8 0 16-7.2 16-16s-7.2-16-16-16H189.3c-6.8 0-12.8-4.3-15.1-10.7C169.8 184.9 157.9 176 144 176c-17.7 0-32 14.3-32 32v96c0 26.5 21.5 48 48 48h86.4c15.9 0 29.4 11.7 31.7 27.5l10.1 70.8c1.1 7.9 7.9 13.7 15.8 13.7h48c8.8 0 16-7.2 16-16s-7.2-16-16-16H331.8c-8 0-14.7-5.9-15.8-13.7L309.7 375c-4.5-31.5-31.5-55-63.4-55H192c-8.8 0-16-7.2-16-16V256c0-8.8 7.2-16 16-16zM176 80a32 32 0 1 0 -64 0 32 32 0 1 0 64 0zm16 224h16 38.4c39.8 0 73.6 29.3 79.2 68.7l6.2 43.3H352c17.7 0 32 14.3 32 32s-14.3 32-32 32H304c-15.9 0-29.4-11.7-31.7-27.5l-10.1-70.8c-1.1-7.9-7.9-13.7-15.8-13.7H160c-35.3 0-64-28.7-64-64V208c0-26.5 21.5-48 48-48c20.9 0 38.7 13.4 45.3 32H256c17.7 0 32 14.3 32 32s-14.3 32-32 32H208 192v16 16 16zM96 80a48 48 0 1 1 96 0A48 48 0 1 1 96 80zM16 136V344c0 48.6 39.4 88 88 88H216c4.4 0 8 3.6 8 8s-3.6 8-8 8H104C46.6 448 0 401.4 0 344V136c0-4.4 3.6-8 8-8s8 3.6 8 8z"/></svg>