<svg xmlns="http://www.w3.org/2000/svg" viewBox="0 0 256 512"><!--! Font Awesome Pro 6.4.0 by @fontawesome - https://fontawesome.com License - https://fontawesome.com/license (Commercial License) Copyright 2023 Fonticons, Inc. --><path d="M176 64A48 48 0 1 0 80 64a48 48 0 1 0 96 0zM64 64a64 64 0 1 1 128 0A64 64 0 1 1 64 64zM41.8 234.7L37.7 284c-2.3 28 19.8 52 47.8 52H112h32 26.4c28.1 0 50.2-24 47.8-52l-4.1-49.3c-2.8-33.2-30.5-58.7-63.8-58.7H105.6c-33.3 0-61 25.5-63.8 58.7zM136 352H120V480c0 17.7-14.3 32-32 32s-32-14.3-32-32V344.8c-22.1-11.5-36.4-35.4-34.2-62.1l4.1-49.3C29.3 191.9 64 160 105.6 160h44.8c41.6 0 76.3 31.9 79.7 73.4l4.1 49.3c2.2 26.7-12.2 50.6-34.2 62.1V480c0 17.7-14.3 32-32 32s-32-14.3-32-32V352zm48-1.4c-4.4 .9-8.9 1.4-13.6 1.4H152V480c0 8.8 7.2 16 16 16s16-7.2 16-16V350.6zM85.6 352c-4.7 0-9.2-.5-13.6-1.4V480c0 8.8 7.2 16 16 16s16-7.2 16-16V352H85.6z"/></svg>