<svg xmlns="http://www.w3.org/2000/svg" viewBox="0 0 384 512"><!--! Font Awesome Pro 6.4.0 by @fontawesome - https://fontawesome.com License - https://fontawesome.com/license (Commercial License) Copyright 2023 Fonticons, Inc. --><path d="M91.4 226.4c-6.7 2-11.4 8.3-11.4 15.3v65.1c0 4.2 1.7 8.3 4.7 11.3l51 51c4.7 4.7 7.8 10.8 8.9 17.4l15.2 90.9c1.5 8.7-4.4 17-13.2 18.4s-17-4.4-18.4-13.2l-14.3-85.9c-.5-3.3-2.1-6.3-4.5-8.7L30.1 308.7c-9-9-14.1-21.2-14.1-33.9V186.6C16 163.1 35.1 144 58.6 144c18.7 0 36.2 9.3 46.5 24.9l42.6 64c3 4.5 8 7.1 13.3 7.1H224c8.8 0 16 7.2 16 16s-7.2 16-16 16H196.3 152.6c-10.7 0-20.7-5.3-26.6-14.3l-16.6-24.9c-3.9-5.9-11.2-8.5-17.9-6.4zM251.7 272c2.7-4.7 4.3-10.2 4.3-16c0-17.7-14.3-32-32-32H161.1l-42.6-64c-13.3-20-35.8-32-59.9-32C26.2 128 0 154.2 0 186.6v88.1c0 17 6.7 33.3 18.7 45.3l79.4 79.4 14.3 85.9c2.9 17.4 19.4 29.2 36.8 26.3s29.2-19.4 26.3-36.8l-15.2-90.9c-1.6-9.9-6.3-19-13.4-26.1l-51-51V270.5 241.7l16 24 .6 .9c8.9 13.4 23.9 21.4 39.9 21.4H224 352c17.7 0 32-14.3 32-32V128c0-17.7-14.3-32-32-32H224c-17.7 0-32 14.3-32 32v64h16V128c0-8.8 7.2-16 16-16H352c8.8 0 16 7.2 16 16V256c0 8.8-7.2 16-16 16H288 251.7zM80 16a32 32 0 1 1 0 64 32 32 0 1 1 0-64zm48 32A48 48 0 1 0 32 48a48 48 0 1 0 96 0zM0 346.5L0 480c0 17.7 14.3 32 32 32s32-14.3 32-32l0-69.5-16-16L48 480c0 8.8-7.2 16-16 16s-16-7.2-16-16l0-117.5-16-16z"/></svg>