<svg xmlns="http://www.w3.org/2000/svg" viewBox="0 0 512 512"><!--! Font Awesome Pro 6.4.0 by @fontawesome - https://fontawesome.com License - https://fontawesome.com/license (Commercial License) Copyright 2023 Fonticons, Inc. --><path d="M289.9 244.7c-4.6 4.6-5.9 11.5-3.5 17.4s8.3 9.9 14.8 9.9H336c17.7 0 32 14.3 32 32v64c0 8.8-7.2 16-16 16s-16-7.2-16-16V320c0-8.8-7.2-16-16-16H211.9c-31.5 0-44-40.7-18-58.4L253 205.2c5.8-4 8.3-11.2 6.3-17.9S251 176 244 176H160c-8.8 0-16-7.2-16-16s7.2-16 16-16H332.7c21.4 0 32.1 25.9 17 41l-59.7 59.7zm71-48.4c25.2-25.2 7.4-68.3-28.3-68.3H160c-17.7 0-32 14.3-32 32s14.3 32 32 32h55.6H244l-23.5 16-35.7 24.3c-39 26.6-20.2 87.7 27 87.7H304h16v16 32c0 17.7 14.3 32 32 32s32-14.3 32-32V304c0-26.5-21.5-48-48-48H323.9 301.3l16-16L361 196.3zM368 80a32 32 0 1 1 64 0 32 32 0 1 1 -64 0zm80 0a48 48 0 1 0 -96 0 48 48 0 1 0 96 0zM11.5 256.8c-4-2-8.8-.3-10.7 3.6s-.3 8.8 3.6 10.7L410 471.3c18.8 9.3 40.5 10.8 60.5 4.2l36-11.9c4.2-1.4 6.5-5.9 5.1-10.1s-5.9-6.5-10.1-5.1l-36 11.9c-15.9 5.3-33.3 4-48.4-3.4L11.5 256.8z"/></svg>