<svg xmlns="http://www.w3.org/2000/svg" viewBox="0 0 576 512"><!--! Font Awesome Pro 6.4.0 by @fontawesome - https://fontawesome.com License - https://fontawesome.com/license (Commercial License) Copyright 2023 Fonticons, Inc. --><path d="M264 16c-13.3 0-24 10.7-24 24V192H224V40c0-22.1 17.9-40 40-40h24H536c22.1 0 40 17.9 40 40V392 504c0 4.4-3.6 8-8 8s-8-3.6-8-8V431.2c-10.2 10.4-24.3 16.8-40 16.8s-29.8-6.4-40-16.8c-10.2 10.4-24.3 16.8-40 16.8s-29.8-6.4-40-16.8c-10.2 10.4-24.3 16.8-40 16.8c-30.9 0-56-25.1-56-56v-7c0-6.7 .9-13.3 2.8-19.8l29-101.4L281.6 16H264zm33.9 0l53.9 246.3c.3 1.3 .2 2.6-.1 3.9L322.2 369.6c-1.4 5-2.2 10.2-2.2 15.4v7c0 22.1 17.9 40 40 40c13.9 0 26.2-7.1 33.3-17.9c1.5-2.2 4-3.6 6.7-3.6s5.2 1.3 6.7 3.6c7.2 10.8 19.4 17.9 33.3 17.9s26.2-7.1 33.3-17.9c1.5-2.2 4-3.6 6.7-3.6s5.2 1.3 6.7 3.6c7.2 10.8 19.4 17.9 33.3 17.9c22.1 0 40-17.9 40-40V40c0-13.3-10.7-24-24-24H297.9zM240 320V504c0 4.4-3.6 8-8 8s-8-3.6-8-8V320h16zM99.2 350.9c-2.1-2.8-3.2-6.1-3.2-9.6V269.3c0-6.5 3.9-12.3 9.9-14.8s12.9-1.1 17.4 3.5l4.7 4.7c6 6 14.1 9.4 22.6 9.4H224c8.8 0 16-7.2 16-16s-7.2-16-16-16H157.3c-4.2 0-8.3-1.7-11.3-4.7l-41.6-41.6C93 182.4 77.6 176 61.6 176C36.4 176 16 196.4 16 221.6v55.7l0 .9 0 .1L16 480c0 8.8 7.2 16 16 16s16-7.2 16-16V384c0-6.9 4.4-13 10.9-15.2s13.7 .1 17.9 5.6l32 42.7c2.1 2.8 3.2 6.1 3.2 9.6V480c0 8.8 7.2 16 16 16s16-7.2 16-16V421.3c0-6.9-2.2-13.7-6.4-19.2L99.2 350.9zM0 277.3V221.6c0-34 27.6-61.6 61.6-61.6c20.3 0 39.7 8.1 54 22.4L157.3 224H224c17.7 0 32 14.3 32 32s-14.3 32-32 32H150.6c-8 0-15.7-2-22.6-5.7c-4.1-2.2-7.9-5-11.3-8.4l-4.7-4.7v9.4V291v50.3l38.4 51.2c6.2 8.3 9.6 18.4 9.6 28.8V480c0 17.7-14.3 32-32 32s-32-14.3-32-32V426.7L80 405.3 64 384v26.7V480c0 17.7-14.3 32-32 32s-32-14.3-32-32V278.3l0-.9zM64 112a32 32 0 1 0 0-64 32 32 0 1 0 0 64zM16 80a48 48 0 1 1 96 0A48 48 0 1 1 16 80z"/></svg>