<svg xmlns="http://www.w3.org/2000/svg" viewBox="0 0 576 512"><!--! Font Awesome Pro 6.4.0 by @fontawesome - https://fontawesome.com License - https://fontawesome.com/license (Commercial License) Copyright 2023 Fonticons, Inc. --><path d="M176 16c26.5 0 48 21.5 48 48V384c0 26.5-21.5 48-48 48H144c-26.5 0-48-21.5-48-48V64c0-26.5 21.5-48 48-48h32zM144 0C120.3 0 99.6 12.9 88.6 32H64C28.7 32 0 60.7 0 96V448c0 35.3 28.7 64 64 64H512c35.3 0 64-28.7 64-64V96c0-35.3-28.7-64-64-64H231.4C220.4 12.9 199.7 0 176 0H144zM64 48H82c-1.3 5.1-2 10.5-2 16V384c0 35.3 28.7 64 64 64h32c35.3 0 64-28.7 64-64V64c0-5.5-.7-10.9-2-16H512c26.5 0 48 21.5 48 48V448c0 26.5-21.5 48-48 48H64c-26.5 0-48-21.5-48-48V96c0-26.5 21.5-48 48-48zm272 64H464c8.8 0 16 7.2 16 16v48c0 8.8-7.2 16-16 16H336c-8.8 0-16-7.2-16-16V128c0-8.8 7.2-16 16-16zm-32 16v48c0 17.7 14.3 32 32 32H464c17.7 0 32-14.3 32-32V128c0-17.7-14.3-32-32-32H336c-17.7 0-32 14.3-32 32zm0 168a40 40 0 1 0 80 0 40 40 0 1 0 -80 0zm40 24a24 24 0 1 1 0-48 24 24 0 1 1 0 48zm112-64a40 40 0 1 0 0 80 40 40 0 1 0 0-80zm24 40a24 24 0 1 1 -48 0 24 24 0 1 1 48 0zM416 408a40 40 0 1 0 80 0 40 40 0 1 0 -80 0zm40 24a24 24 0 1 1 0-48 24 24 0 1 1 0 48zM344 368a40 40 0 1 0 0 80 40 40 0 1 0 0-80zm24 40a24 24 0 1 1 -48 0 24 24 0 1 1 48 0z"/></svg>