<svg xmlns="http://www.w3.org/2000/svg" viewBox="0 0 640 512"><!--! Font Awesome Pro 6.4.0 by @fontawesome - https://fontawesome.com License - https://fontawesome.com/license (Commercial License) Copyright 2023 Fonticons, Inc. --><path d="M544 16H224c-26.5 0-48 21.5-48 48V288c0 18.6 10.6 34.7 26 42.7l.1-.2 .2-.2L431 101.7c9.4-9.4 24.6-9.4 33.9 0l59.8 59.8-17 5.7L453.7 113c-3.1-3.1-8.2-3.1-11.3 0L219.5 335.8c1.5 .1 3 .2 4.5 .2H400v16H224c-35.3 0-64-28.7-64-64V64c0-35.3 28.7-64 64-64H544c35.3 0 64 28.7 64 64v70.7c-3.2 .5-6.5 1.2-9.7 2.3l-6.3 2.1V64c0-26.5-21.5-48-48-48zM264 96a24 24 0 1 0 48 0 24 24 0 1 0 -48 0zm24 40a40 40 0 1 1 0-80 40 40 0 1 1 0 80zM128 96v16 80 80 72 40 48H295.8c-2.6 5-4.6 10.3-6 16H128h-8-8H64c-35.3 0-64-28.7-64-64V352v-8-8V280v-8-8V200v-8-8V160c0-35.3 28.7-64 64-64h48 8 8zM112 280H16v56h96V280zm0 152V352H16v32c0 26.5 21.5 48 48 48h48zM64 112c-26.5 0-48 21.5-48 48v24h96V112H64zM16 264h96V200H16v64zm608-73.8c0-5.5-5.4-9.3-10.5-7.6l-160 53.3c-3.3 1.1-5.5 4.1-5.5 7.6v49.4l176-58.7v-44zm0 60.9L448 309.8V464c0 26.5-28.7 48-64 48s-64-21.5-64-48s28.7-48 64-48c19.1 0 36.3 6.3 48 16.2V304 243.5c0-10.3 6.6-19.5 16.4-22.8l160-53.3c15.5-5.2 31.6 6.4 31.6 22.8V240 392c0 .9-.1 1.7-.4 2.5c.3 1.8 .4 3.6 .4 5.5c0 26.5-28.7 48-64 48s-64-21.5-64-48s28.7-48 64-48c19.1 0 36.3 6.3 48 16.2V251.1zM624 400c0-7.1-3.8-14.7-12.3-21.1s-21.1-10.9-35.7-10.9s-27.1 4.4-35.7 10.9s-12.3 14.1-12.3 21.1s3.8 14.7 12.3 21.1s21.1 10.9 35.7 10.9s27.1-4.4 35.7-10.9s12.3-14.1 12.3-21.1zM432 464c0-7.1-3.8-14.7-12.3-21.1s-21.1-10.9-35.7-10.9s-27.1 4.4-35.7 10.9s-12.3 14.1-12.3 21.1s3.8 14.7 12.3 21.1s21.1 10.9 35.7 10.9s27.1-4.4 35.7-10.9s12.3-14.1 12.3-21.1z"/></svg>