<svg xmlns="http://www.w3.org/2000/svg" viewBox="0 0 512 512"><!--! Font Awesome Pro 6.4.0 by @fontawesome - https://fontawesome.com License - https://fontawesome.com/license (Commercial License) Copyright 2023 Fonticons, Inc. --><path d="M112 352v48c0 17.7-14.3 32-32 32s-32-14.3-32-32V352H16v96c0 26.5 21.5 48 48 48H448c26.5 0 48-21.5 48-48V352H464v48c0 17.7-14.3 32-32 32s-32-14.3-32-32V352H384v48c0 17.7-14.3 32-32 32s-32-14.3-32-32V352H272v48c0 17.7-14.3 32-32 32s-32-14.3-32-32V352H192v48c0 17.7-14.3 32-32 32s-32-14.3-32-32V352H112zm336 0H416v48c0 8.8 7.2 16 16 16s16-7.2 16-16V352zm16-16h32v-8.4c0-18.2-10.3-34.8-26.5-42.9l-58.4-29.2c-26.4-13.2-43.1-40.2-43.1-69.7C368 92 292 16 198.3 16H192C94.8 16 16 94.8 16 192V336H48 64 96h16 16 16 32 16 16 16 32 16 48 16 32 16 16 16 32 16zM336 400c0 8.8 7.2 16 16 16s16-7.2 16-16V352H336v48zm-80-48H224v48c0 8.8 7.2 16 16 16s16-7.2 16-16V352zM144 400c0 8.8 7.2 16 16 16s16-7.2 16-16V352H144v48zM96 352H64v48c0 8.8 7.2 16 16 16s16-7.2 16-16V352zm416-24.4V336v8 8 96c0 35.3-28.7 64-64 64H64c-35.3 0-64-28.7-64-64V352v-8-8V192C0 86 86 0 192 0h6.3C300.8 0 384 83.2 384 185.7c0 23.5 13.2 44.9 34.2 55.4l58.4 29.2c21.7 10.8 35.4 33 35.4 57.2z"/></svg>