<svg xmlns="http://www.w3.org/2000/svg" viewBox="0 0 512 512"><!--! Font Awesome Pro 6.4.0 by @fontawesome - https://fontawesome.com License - https://fontawesome.com/license (Commercial License) Copyright 2023 Fonticons, Inc. --><path d="M176 40c0-22.1 17.9-40 40-40s40 17.9 40 40V232H424c48.6 0 88 39.4 88 88V472c0 22.1-17.9 40-40 40H440c-22.1 0-40-17.9-40-40V448c0-17.6-11.3-32.5-27.1-37.9c-5-1.4-10.1-2.1-15.3-2.1H264c-22.1 0-40 17.9-40 40v24c0 22.1-17.9 40-40 40H136c-22.1 0-40-17.9-40-40V220.9L37.2 191.6C14.4 180.1 0 156.8 0 131.3C0 94.1 30.1 64 67.3 64H176V40zm88 352h93.6H360c6.2 0 12.2 1 17.8 2.9c.9 .3 1.7 .5 2.6 .8l33.1 11c1.6 .5 3.4 .5 5.1 0l37.4-12.5c5.4-1.8 11.2-1.6 16.5 .5l23.6 9.4V331.6l-3.8 1.5c-6.1 2.3-12.9 2.1-18.8-.8L452 322.2c-2-.9-4.2-1-6.3-.3l-29.3 11.1c-6.1 2.3-12.9 2.1-18.8-.8l-21.4-10.1c-2-.9-4.2-1-6.3-.3l-29.3 11.1c-6.1 2.3-12.9 2.1-18.8-.8l-21.4-10.1c-2-.9-4.2-1-6.3-.3l-29.3 11.1c-6.1 2.3-12.9 2.1-18.8-.8l-21.4-10.1c-2-.9-4.2-1-6.3-.3L189 333.1c-6.1 2.3-12.9 2.1-18.8-.8l-21.4-10.1c-2-.9-4.2-1-6.3-.3L112 333.5v70.7l23.6-9.4c5.3-2.1 11.1-2.3 16.5-.5l37.4 12.5c1.6 .5 3.4 .5 5.1 0l33.1-11c7.3-2.4 15-3.7 22.8-3.7H264zM112 316.4l24.9-9.5c6.1-2.3 12.9-2.1 18.8 .8l21.4 10.1c2 .9 4.2 1 6.3 .3l29.3-11.1c6.1-2.3 12.9-2.1 18.8 .8l21.4 10.1c2 .9 4.2 1 6.3 .3l29.3-11.1c6.1-2.3 12.9-2.1 18.8 .8l21.4 10.1c2 .9 4.2 1 6.3 .3l29.3-11.1c6.1-2.3 12.9-2.1 18.8 .8l21.4 10.1c2 .9 4.2 1 6.3 .3L440 306.9c6.1-2.3 12.9-2.1 18.8 .8l21.4 10.1c2 .9 4.2 1 6.3 .3l9.3-3.5C493 277.3 461.9 248 424 248H249.4l-38.8 13.8c-4.8 1.7-10 1.8-14.9 .4l-44-13c-1.6-.5-3.4-.4-5 .1L112 261.6v54.8zM240 40c0-13.3-10.7-24-24-24s-24 10.7-24 24V72c0 4.4-3.6 8-8 8H67.3C39 80 16 103 16 131.3c0 19.4 11 37.2 28.4 45.9l63.2 31.6c2.7 1.4 4.4 4.1 4.4 7.2v28.7l29.4-10.5c4.8-1.7 10-1.8 14.9-.4l44 13c1.6 .5 3.4 .4 5-.1L240 234.4V40zM112 421.4V472c0 13.3 10.7 24 24 24h48c13.3 0 24-10.7 24-24V448c0-12 3.8-23.2 10.3-32.3l-18.7 6.2c-4.9 1.6-10.3 1.6-15.2 0L147 409.4c-1.8-.6-3.7-.5-5.5 .2L112 421.4zm384 0l-29.5-11.8c-1.8-.7-3.7-.8-5.5-.2l-37.4 12.5c-4.5 1.5-9.3 1.6-13.8 .4c4 7.7 6.2 16.4 6.2 25.7v24c0 13.3 10.7 24 24 24h32c13.3 0 24-10.7 24-24V421.4zM176 128a16 16 0 1 0 0 32 16 16 0 1 0 0-32zm32 16a32 32 0 1 1 -64 0 32 32 0 1 1 64 0z"/></svg>