<svg xmlns="http://www.w3.org/2000/svg" viewBox="0 0 640 512"><!--! Font Awesome Pro 6.4.0 by @fontawesome - https://fontawesome.com License - https://fontawesome.com/license (Commercial License) Copyright 2023 Fonticons, Inc. --><path d="M48 384c0 8.8-7.2 16-16 16s-16-7.2-16-16V128c0-8.8 7.2-16 16-16s16 7.2 16 16V384zM32 96C14.3 96 0 110.3 0 128V384c0 17.7 14.3 32 32 32s32-14.3 32-32H576c0 17.7 14.3 32 32 32s32-14.3 32-32V128c0-17.7-14.3-32-32-32s-32 14.3-32 32L64 128c0-17.7-14.3-32-32-32zm544 48V368H64V144H576zm48-16V384c0 8.8-7.2 16-16 16s-16-7.2-16-16V128c0-8.8 7.2-16 16-16s16 7.2 16 16z"/></svg>