<svg xmlns="http://www.w3.org/2000/svg" viewBox="0 0 576 512"><!--! Font Awesome Pro 6.4.0 by @fontawesome - https://fontawesome.com License - https://fontawesome.com/license (Commercial License) Copyright 2023 Fonticons, Inc. --><path d="M112 8c0-4.4-3.6-8-8-8s-8 3.6-8 8V112h16V8zM288 8c0-4.4-3.6-8-8-8s-8 3.6-8 8V112h16V8zM8 144c-4.4 0-8 3.6-8 8s3.6 8 8 8H40v80c0 81.3 63.8 147.6 144 151.8V504c0 4.4 3.6 8 8 8s8-3.6 8-8V391.8c20-1 39-6 56.3-14c-.2-3.2-.3-6.5-.3-9.8c0-2.7 .1-5.4 .2-8.1c-19.1 10.3-41 16.1-64.2 16.1c-75.1 0-136-60.9-136-136V160H328v66c5.1-3.8 10.5-7.3 16-10.5V160h32c4.4 0 8-3.6 8-8s-3.6-8-8-8H344 328 56 40 8zM304 368a128 128 0 1 1 256 0 128 128 0 1 1 -256 0zm272 0a144 144 0 1 0 -288 0 144 144 0 1 0 288 0zM432 448a16 16 0 1 0 0-32 16 16 0 1 0 0 32zm0-168c-4.4 0-8 3.6-8 8v96c0 4.4 3.6 8 8 8s8-3.6 8-8V288c0-4.4-3.6-8-8-8z"/></svg>