<svg xmlns="http://www.w3.org/2000/svg" viewBox="0 0 576 512"><!--! Font Awesome Pro 6.4.0 by @fontawesome - https://fontawesome.com License - https://fontawesome.com/license (Commercial License) Copyright 2023 Fonticons, Inc. --><path d="M112 8c0-4.4-3.6-8-8-8s-8 3.6-8 8V112h16V8zM288 8c0-4.4-3.6-8-8-8s-8 3.6-8 8V112h16V8zM8 144c-4.4 0-8 3.6-8 8s3.6 8 8 8H40v80c0 81.3 63.8 147.6 144 151.8V504c0 4.4 3.6 8 8 8s8-3.6 8-8V391.8c20-1 39-6 56.3-14c-.2-3.2-.3-6.5-.3-9.8c0-2.7 .1-5.4 .2-8.1c-19.1 10.3-41 16.1-64.2 16.1c-75.1 0-136-60.9-136-136V160H328v66c5.1-3.8 10.5-7.3 16-10.5V160h32c4.4 0 8-3.6 8-8s-3.6-8-8-8H344 328 56 40 8zm424 96a128 128 0 1 1 0 256 128 128 0 1 1 0-256zm0 272a144 144 0 1 0 0-288 144 144 0 1 0 0 288zm36.5-230.6c-3-2-6.9-1.8-9.7 .6l-112 96c-2.5 2.2-3.5 5.7-2.3 8.8s4.2 5.2 7.5 5.2h58.2l-17.8 53.5c-1.1 3.4 .1 7.2 3.1 9.2s6.9 1.8 9.7-.6l112-96c2.5-2.2 3.5-5.7 2.3-8.8s-4.2-5.2-7.5-5.2H453.8l17.8-53.5c1.1-3.4-.1-7.2-3.1-9.2zM373.6 376l73.7-63.1-12.2 36.6c-.8 2.4-.4 5.1 1.1 7.2s3.9 3.3 6.5 3.3h47.7l-73.7 63.1 12.2-36.6c.8-2.4 .4-5.1-1.1-7.2s-3.9-3.3-6.5-3.3H373.6z"/></svg>