<svg xmlns="http://www.w3.org/2000/svg" viewBox="0 0 384 512"><!--! Font Awesome Pro 6.4.0 by @fontawesome - https://fontawesome.com License - https://fontawesome.com/license (Commercial License) Copyright 2023 Fonticons, Inc. --><path d="M344 16c13.3 0 24 10.7 24 24V88c0 13.3-10.7 24-24 24H40c-13.3 0-24-10.7-24-24V40c0-13.3 10.7-24 24-24H344zM40 0C17.9 0 0 17.9 0 40V88c0 22.1 17.9 40 40 40H344c22.1 0 40-17.9 40-40V40c0-22.1-17.9-40-40-40H40zM32 160V448c0 35.3 28.7 64 64 64H288c35.3 0 64-28.7 64-64V160H336V448c0 26.5-21.5 48-48 48H96c-26.5 0-48-21.5-48-48V160H32zm141.3 57.3c0-4.4 3.6-8 8-8h21.3c4.4 0 8 3.6 8 8v44c0 4.4 3.6 8 8 8l44 0c4.4 0 8 3.6 8 8v21.3c0 4.4-3.6 8-8 8h-44c-4.4 0-8 3.6-8 8v44c0 4.4-3.6 8-8 8H181.3c-4.4 0-8-3.6-8-8v-44c0-4.4-3.6-8-8-8h-44c-4.4 0-8-3.6-8-8V277.3c0-4.4 3.6-8 8-8h44c2.1 0 4.2-.8 5.7-2.3s2.3-3.5 2.3-5.7v-44zm8-24c-13.3 0-24 10.7-24 24v36h-36c-13.3 0-24 10.7-24 24v21.3c0 13.3 10.7 24 24 24h36v36c0 13.3 10.7 24 24 24h21.3c13.3 0 24-10.7 24-24v-36h36c13.3 0 24-10.7 24-24V277.3c0-13.3-10.7-24-24-24h-36v-36c0-13.3-10.7-24-24-24H181.3z"/></svg>