<svg xmlns="http://www.w3.org/2000/svg" viewBox="0 0 512 512"><!--! Font Awesome Pro 6.4.0 by @fontawesome - https://fontawesome.com License - https://fontawesome.com/license (Commercial License) Copyright 2023 Fonticons, Inc. --><path d="M80 160H64V64C64 28.7 92.7 0 128 0H357.5c17 0 33.3 6.7 45.3 18.7l26.5 26.5c12 12 18.7 28.3 18.7 45.3V160H432V90.5c0-12.7-5.1-24.9-14.1-33.9L391.4 30.1c-9-9-21.2-14.1-33.9-14.1H128c-26.5 0-48 21.5-48 48v96zm368 48H64c-26.5 0-48 21.5-48 48V384c0 8.8 7.2 16 16 16H64V352c0-17.7 14.3-32 32-32H416c17.7 0 32 14.3 32 32v48h32c8.8 0 16-7.2 16-16V256c0-26.5-21.5-48-48-48zm0 208v64c0 17.7-14.3 32-32 32H96c-17.7 0-32-14.3-32-32V416H32c-17.7 0-32-14.3-32-32V256c0-35.3 28.7-64 64-64H448c35.3 0 64 28.7 64 64V384c0 17.7-14.3 32-32 32H448zM96 336c-8.8 0-16 7.2-16 16V480c0 8.8 7.2 16 16 16H416c8.8 0 16-7.2 16-16V352c0-8.8-7.2-16-16-16H96zm336-80a16 16 0 1 1 0 32 16 16 0 1 1 0-32z"/></svg>