<svg xmlns="http://www.w3.org/2000/svg" viewBox="0 0 640 512"><!--! Font Awesome Pro 6.4.0 by @fontawesome - https://fontawesome.com License - https://fontawesome.com/license (Commercial License) Copyright 2023 Fonticons, Inc. --><path d="M144 160V64c0-26.5 21.5-48 48-48H421.5c12.7 0 24.9 5.1 33.9 14.1l26.5 26.5c9 9 14.1 21.2 14.1 33.9V160h16V90.5c0-17-6.7-33.3-18.7-45.3L466.7 18.7C454.7 6.7 438.5 0 421.5 0H192c-35.3 0-64 28.7-64 64v96h16zm-16 48H333.7c5.7-5.8 11.8-11.1 18.2-16H128c-35.3 0-64 28.7-64 64V384c0 17.7 14.3 32 32 32h32v64c0 17.7 14.3 32 32 32H480c15.8 0 29-11.5 31.6-26.6L498.2 472c-.7 .2-1.4 .5-2.2 .7V480c0 8.8-7.2 16-16 16H160c-8.8 0-16-7.2-16-16V352c0-8.8 7.2-16 16-16H288.8c-.5-5.3-.8-10.6-.8-16H160c-17.7 0-32 14.3-32 32v48H96c-8.8 0-16-7.2-16-16V256c0-26.5 21.5-48 48-48zm320 .1a112 112 0 1 1 0 224 112 112 0 1 1 0-224zm0 240c32.5 0 62.1-12.1 84.7-32l93.7 93.7c3.1 3.1 8.2 3.1 11.3 0s3.1-8.2 0-11.3L544 404.8c19.9-22.6 32-52.2 32-84.7c0-70.7-57.3-128-128-128s-128 57.3-128 128s57.3 128 128 128z"/></svg>