<svg xmlns="http://www.w3.org/2000/svg" viewBox="0 0 640 512"><!--! Font Awesome Pro 6.4.0 by @fontawesome - https://fontawesome.com License - https://fontawesome.com/license (Commercial License) Copyright 2023 Fonticons, Inc. --><path d="M576 256c0-35.3-28.7-64-64-64H355.1l20.3 16H512c26.5 0 48 21.5 48 48v97.7l16 12.6V256zM123 192.2c-33 2.6-59 30.1-59 63.8V384c0 17.7 14.3 32 32 32h32v64c0 17.7 14.3 32 32 32H480c11.8 0 22.2-6.4 27.7-16H480 160c-8.8 0-16-7.2-16-16V352c0-8.8 7.2-16 16-16H305.1l-20.3-16H160c-17.7 0-32 14.3-32 32v48H96c-8.8 0-16-7.2-16-16V256c0-26.5 21.5-48 48-48h15l-20-15.8zM192 0c-20.1 0-38.1 9.3-49.8 23.9l12.6 9.9C163.5 22.9 176.9 16 192 16H421.5c12.7 0 24.9 5.1 33.9 14.1l26.5 26.5c9 9 14.1 21.2 14.1 33.9V160h16V90.5c0-17-6.7-33.3-18.7-45.3L466.7 18.7C454.7 6.7 438.5 0 421.5 0H192zM512 272a16 16 0 1 0 -32 0 16 16 0 1 0 32 0zM13 1.7C9.5-1 4.5-.4 1.7 3S-.4 11.5 3 14.3l624 496c3.5 2.7 8.5 2.2 11.2-1.3s2.2-8.5-1.3-11.2L13 1.7z"/></svg>