<svg xmlns="http://www.w3.org/2000/svg" viewBox="0 0 448 512"><!--! Font Awesome Pro 6.4.0 by @fontawesome - https://fontawesome.com License - https://fontawesome.com/license (Commercial License) Copyright 2023 Fonticons, Inc. --><path d="M168 0h48c22.1 0 40 17.9 40 40V56h60.1c14.9 0 29.1 5.9 39.6 16.4l41.9 41.9c3.1 3.1 3.1 8.2 0 11.3s-8.2 3.1-11.3 0L344.4 83.7C336.9 76.2 326.7 72 316.1 72H256v56H240V40c0-13.3-10.7-24-24-24H168c-13.3 0-24 10.7-24 24v88H128V40c0-22.1 17.9-40 40-40zM69.6 220L50.9 444c-2.3 28 19.8 52 47.8 52H285.2c28.1 0 50.2-24 47.8-52L314.4 220c-2.1-24.9-22.9-44-47.8-44H117.4c-25 0-45.8 19.1-47.8 44zm-15.9-1.3c2.8-33.2 30.5-58.7 63.8-58.7H266.6c33.3 0 61 25.5 63.8 58.7l18.7 224c3.1 37.3-26.3 69.3-63.8 69.3H98.8c-37.4 0-66.9-32-63.8-69.3l18.7-224zM168 256h48c4.4 0 8 3.6 8 8v40h40c4.4 0 8 3.6 8 8v48c0 4.4-3.6 8-8 8H224v40c0 4.4-3.6 8-8 8H168c-4.4 0-8-3.6-8-8V368H120c-4.4 0-8-3.6-8-8V312c0-4.4 3.6-8 8-8h40V264c0-4.4 3.6-8 8-8zm8 56v8h-8H128v32h40 8v8 40h32V360v-8h8 40V320H216h-8v-8V272H176v40z"/></svg>