<svg xmlns="http://www.w3.org/2000/svg" viewBox="0 0 576 512"><!--! Font Awesome Pro 6.4.0 by @fontawesome - https://fontawesome.com License - https://fontawesome.com/license (Commercial License) Copyright 2023 Fonticons, Inc. --><path d="M0 80C0 35.8 35.8 0 80 0h8c4.4 0 8 3.6 8 8s-3.6 8-8 8H80C44.7 16 16 44.7 16 80v28.2C24.5 100.6 35.7 96 48 96H80c26.5 0 48 21.5 48 48v32c0 26.5-21.5 48-48 48H48c-26.5 0-48-21.5-48-48V160 144 80zm16 64v16 16c0 17.7 14.3 32 32 32H80c17.7 0 32-14.3 32-32V144c0-17.7-14.3-32-32-32H48c-17.7 0-32 14.3-32 32zM160 80c0-44.2 35.8-80 80-80h8c4.4 0 8 3.6 8 8s-3.6 8-8 8h-8c-35.3 0-64 28.7-64 64v28.2c8.5-7.6 19.7-12.2 32-12.2h32c26.5 0 48 21.5 48 48v32c0 26.5-21.5 48-48 48H208c-26.5 0-48-21.5-48-48V160 144 80zm16 80v16c0 17.7 14.3 32 32 32h32c17.7 0 32-14.3 32-32V144c0-17.7-14.3-32-32-32H208c-17.7 0-32 14.3-32 32v16zM576 432c0 44.2-35.8 80-80 80h-8c-4.4 0-8-3.6-8-8s3.6-8 8-8h8c35.3 0 64-28.7 64-64V403.8c-8.5 7.6-19.7 12.2-32 12.2H496c-26.5 0-48-21.5-48-48l0-32c0-26.5 21.5-48 48-48h32c26.5 0 48 21.5 48 48v16 16 64zm-16-64V352 336c0-17.7-14.3-32-32-32H496c-17.7 0-32 14.3-32 32l0 32c0 17.7 14.3 32 32 32h32c17.7 0 32-14.3 32-32zM416 432c0 44.2-35.8 80-80 80h-8c-4.4 0-8-3.6-8-8s3.6-8 8-8h8c35.3 0 64-28.7 64-64V403.8c-8.5 7.6-19.7 12.2-32 12.2H336c-26.5 0-48-21.5-48-48l0-32c0-26.5 21.5-48 48-48h32c26.5 0 48 21.5 48 48l0 16v16 64zm-16-80l0-16c0-17.7-14.3-32-32-32H336c-17.7 0-32 14.3-32 32l0 32c0 17.7 14.3 32 32 32h32c17.7 0 32-14.3 32-32V352z"/></svg>