<svg xmlns="http://www.w3.org/2000/svg" viewBox="0 0 448 512"><!--! Font Awesome Pro 6.4.0 by @fontawesome - https://fontawesome.com License - https://fontawesome.com/license (Commercial License) Copyright 2023 Fonticons, Inc. --><path d="M448 296c0 66.3-53.7 120-120 120H312c-4.4 0-8-3.6-8-8s3.6-8 8-8h16c57.4 0 104-46.6 104-104V261.3c-13.2 16.3-33.4 26.7-56 26.7H328c-39.8 0-72-32.2-72-72V168c0-39.8 32.2-72 72-72h48c39.8 0 72 32.2 72 72v32 16 80zm-16-96V168c0-30.9-25.1-56-56-56H328c-30.9 0-56 25.1-56 56v48c0 30.9 25.1 56 56 56h48c30.9 0 56-25.1 56-56V200zM192 296c0 66.3-53.7 120-120 120H56c-4.4 0-8-3.6-8-8s3.6-8 8-8H72c57.4 0 104-46.6 104-104V261.3c-13.2 16.3-33.4 26.7-56 26.7H72c-39.8 0-72-32.2-72-72V168c0-39.8 32.2-72 72-72h48c39.8 0 72 32.2 72 72v32 16 80zm-16-96V168c0-30.9-25.1-56-56-56H72c-30.9 0-56 25.1-56 56v48c0 30.9 25.1 56 56 56h48c30.9 0 56-25.1 56-56V200z"/></svg>