<svg xmlns="http://www.w3.org/2000/svg" viewBox="0 0 448 512"><!--! Font Awesome Pro 6.4.0 by @fontawesome - https://fontawesome.com License - https://fontawesome.com/license (Commercial License) Copyright 2023 Fonticons, Inc. --><path d="M96 16H352c26.5 0 48 21.5 48 48V387.8l16 29.3 0-1.1V64c0-35.3-28.7-64-64-64H96C60.7 0 32 28.7 32 64V416l0 1.1 16-29.3V64c0-26.5 21.5-48 48-48zm67.1 272c-14.7 0-28.2 8.1-35.2 21L37.7 476.6c-8.6 16 3 35.4 21.1 35.4H389.2c18.2 0 29.7-19.4 21.1-35.4L320.1 309c-7-13-20.5-21-35.2-21H163.1zM142 316.6c4.2-7.8 12.3-12.6 21.1-12.6H284.9c8.8 0 16.9 4.8 21.1 12.6l90.2 167.6c2.9 5.3-1 11.8-7 11.8H58.8c-6.1 0-9.9-6.5-7-11.8L142 316.6z"/></svg>