<svg xmlns="http://www.w3.org/2000/svg" viewBox="0 0 576 512"><!--! Font Awesome Pro 6.4.0 by @fontawesome - https://fontawesome.com License - https://fontawesome.com/license (Commercial License) Copyright 2023 Fonticons, Inc. --><path d="M51.6 1.3c2.3-1.5 5.1-1.7 7.6-.6L201.7 64H280c22.6 0 42.8 10.4 56 26.7V48c0-4.4 3.6-8 8-8s8 3.6 8 8v88 32h48V80c0-4.4 3.6-8 8-8s8 3.6 8 8v88h48V152c0-3.2 1.9-6.1 4.9-7.4l96-40c2.5-1 5.3-.8 7.5 .7s3.6 4 3.6 6.7V240c0 2.7-1.3 5.2-3.6 6.7s-5 1.8-7.5 .7l-96-40c-3-1.2-4.9-4.2-4.9-7.4V184H416v88c0 4.4-3.6 8-8 8s-8-3.6-8-8V184H352v32 88c0 4.4-3.6 8-8 8s-8-3.6-8-8V261.3c-13.2 16.3-33.4 26.7-56 26.7h-4.2L172.6 494.3c-7.9 15.8-27.1 22.2-42.9 14.3l-80-40c-15.8-7.9-22.2-27.1-14.3-42.9l69-137.9C46.1 283.8 0 235.3 0 176c0-38.1 19-71.7 48-91.9V8c0-2.7 1.4-5.2 3.6-6.7zM480 176v18.7L560 228V124l-80 33.3V176zM200.2 80h-.4H112c-53 0-96 43-96 96s43 96 96 96H280c30.9 0 56-25.1 56-56V176 136c0-30.9-25.1-56-56-56H200.2zM64 20.3V74.8C78.5 67.9 94.8 64 112 64h50.3L64 20.3zM122.1 288L49.7 432.8c-4 7.9-.7 17.5 7.2 21.5l80 40c7.9 4 17.5 .7 21.5-7.2L257.9 288H122.1zM112 160a16 16 0 1 1 0 32 16 16 0 1 1 0-32zm48 16a16 16 0 1 1 32 0 16 16 0 1 1 -32 0zm80-16a16 16 0 1 1 0 32 16 16 0 1 1 0-32z"/></svg>