<svg xmlns="http://www.w3.org/2000/svg" viewBox="0 0 576 512"><!--! Font Awesome Pro 6.4.0 by @fontawesome - https://fontawesome.com License - https://fontawesome.com/license (Commercial License) Copyright 2023 Fonticons, Inc. --><path d="M64 48C37.5 48 16 69.5 16 96V416c0 26.5 21.5 48 48 48H512c26.5 0 48-21.5 48-48V96c0-26.5-21.5-48-48-48H64zM0 96C0 60.7 28.7 32 64 32H512c35.3 0 64 28.7 64 64V416c0 35.3-28.7 64-64 64H64c-35.3 0-64-28.7-64-64V96zm199.3 68.7l80 176c1.8 4 0 8.8-4 10.6s-8.8 0-10.6-4L245 304H139l-19.7 43.3c-1.8 4-6.6 5.8-10.6 4s-5.8-6.6-4-10.6l80-176c1.3-2.9 4.1-4.7 7.3-4.7s6 1.8 7.3 4.7zM192 187.3L146.2 288h91.5L192 187.3zM376 224a56 56 0 1 0 0 112 56 56 0 1 0 0-112zm56 10.7V168c0-4.4 3.6-8 8-8s8 3.6 8 8V280v64c0 4.4-3.6 8-8 8s-8-3.6-8-8V325.3c-13.2 16.3-33.4 26.7-56 26.7c-39.8 0-72-32.2-72-72s32.2-72 72-72c22.6 0 42.8 10.4 56 26.7z"/></svg>