<svg xmlns="http://www.w3.org/2000/svg" viewBox="0 0 576 512"><!--! Font Awesome Pro 6.4.0 by @fontawesome - https://fontawesome.com License - https://fontawesome.com/license (Commercial License) Copyright 2023 Fonticons, Inc. --><path d="M272 48c17.7 0 32 14.3 32 32V208c0 17.7-14.3 32-32 32H48c-17.7 0-32-14.3-32-32V80c0-17.7 14.3-32 32-32H272zM48 32C21.5 32 0 53.5 0 80V208c0 26.5 21.5 48 48 48H272c26.5 0 48-21.5 48-48V80c0-26.5-21.5-48-48-48H48zM528 48c17.7 0 32 14.3 32 32V336c0 17.7-14.3 32-32 32H432c-17.7 0-32-14.3-32-32V80c0-17.7 14.3-32 32-32h96zM432 32c-26.5 0-48 21.5-48 48V336c0 26.5 21.5 48 48 48h96c26.5 0 48-21.5 48-48V80c0-26.5-21.5-48-48-48H432zM112 320H288c17.7 0 32 14.3 32 32v80c0 17.7-14.3 32-32 32H112c-17.7 0-32-14.3-32-32V352c0-17.7 14.3-32 32-32zM64 352v80c0 26.5 21.5 48 48 48H288c26.5 0 48-21.5 48-48V352c0-26.5-21.5-48-48-48H112c-26.5 0-48 21.5-48 48z"/></svg>