<svg xmlns="http://www.w3.org/2000/svg" viewBox="0 0 512 512"><!--! Font Awesome Pro 6.4.0 by @fontawesome - https://fontawesome.com License - https://fontawesome.com/license (Commercial License) Copyright 2023 Fonticons, Inc. --><path d="M224 144c-8.8 0-16-7.2-16-16V64c0-6.3-3.7-12-9.5-14.6s-12.5-1.5-17.2 2.7l-160 144c-3.4 3-5.3 7.4-5.3 11.9s1.9 8.9 5.3 11.9l160 144c4.7 4.2 11.4 5.3 17.2 2.7s9.5-8.3 9.5-14.6V288c0-8.8 7.2-16 16-16h96c61.9 0 112 50.1 112 112c0 35.5-15.2 57.1-27.3 68.4c-3.7 3.5-4.7 6.5-4.7 7.8c0 2.1 1.7 3.7 3.7 3.7c.3 0 .5 0 .6 0c17.1-9.3 91.8-55.7 91.8-160c0-88.4-71.6-160-160-160H224zm0 160v48c0 12.6-7.4 24.1-19 29.2s-25 3-34.4-5.4l-160-144C3.9 225.7 0 217.1 0 208s3.9-17.7 10.6-23.8l160-144c9.4-8.5 22.9-10.6 34.4-5.4s19 16.6 19 29.2v48 16h16 96c97.2 0 176 78.8 176 176c0 113.3-81.5 163.9-100.2 174.1c-2.5 1.4-5.3 1.9-8.1 1.9c-10.9 0-19.7-8.9-19.7-19.7c0-7.5 4.3-14.4 9.8-19.5c9.4-8.8 22.2-26.4 22.2-56.7c0-53-43-96-96-96H240 224v16z"/></svg>