<svg xmlns="http://www.w3.org/2000/svg" viewBox="0 0 640 512"><!--! Font Awesome Pro 6.4.0 by @fontawesome - https://fontawesome.com License - https://fontawesome.com/license (Commercial License) Copyright 2023 Fonticons, Inc. --><path d="M202.7 480c-8.8 0-17.3-3.1-24-8.8L47.1 360.4C37.5 352.4 32 340.5 32 328s5.5-24.4 15.1-32.4L178.7 184.8c6.7-5.7 15.2-8.8 24-8.8c20.6 0 37.3 16.7 37.3 37.3V240h48 64l56 0c4.4 0 8 3.6 8 8v34.7c0 11.8 9.5 21.3 21.3 21.3c5 0 9.9-1.8 13.7-5L582.6 188.2c6-5 9.4-12.4 9.4-20.2s-3.4-15.2-9.4-20.2L451 37c-3.8-3.2-8.7-5-13.7-5C425.5 32 416 41.5 416 53.3V88c0 4.4-3.6 8-8 8L264 96c-4.4 0-8-3.6-8-8s3.6-8 8-8l136 0V53.3C400 32.7 416.7 16 437.3 16c8.8 0 17.3 3.1 24 8.8L592.9 135.6c9.6 8.1 15.1 19.9 15.1 32.4s-5.5 24.4-15.1 32.4L461.3 311.2c-6.7 5.7-15.2 8.8-24 8.8c-20.6 0-37.3-16.7-37.3-37.3V256l-48 0H288 232c-4.4 0-8-3.6-8-8V213.3c0-11.8-9.5-21.3-21.3-21.3c-5 0-9.9 1.8-13.7 5L57.4 307.8c-6 5-9.4 12.4-9.4 20.2s3.4 15.2 9.4 20.2L189 459c3.8 3.2 8.7 5 13.7 5c11.8 0 21.3-9.5 21.3-21.3V408c0-4.4 3.6-8 8-8l144 0c4.4 0 8 3.6 8 8s-3.6 8-8 8l-136 0v26.7c0 20.6-16.7 37.3-37.3 37.3z"/></svg>