<svg xmlns="http://www.w3.org/2000/svg" viewBox="0 0 640 512"><!--! Font Awesome Pro 6.4.0 by @fontawesome - https://fontawesome.com License - https://fontawesome.com/license (Commercial License) Copyright 2023 Fonticons, Inc. --><path d="M580.2 336c12.8 0 20.4-14.2 13.3-24.9L464 116.8V280v56H580.2zM448 256V116.8c0-15.8 20.5-22 29.3-8.9L606.8 302.2c14.2 21.3-1.1 49.7-26.6 49.7H464v0H448 336v0H320 208 192 80 64V336 116.8c0-15.8 20.5-22 29.3-8.9L192 256V116.8c0-15.8 20.5-22 29.3-8.9L320 256V116.8c0-15.8 20.5-22 29.3-8.9L448 256zm0 28.8l-112-168V280v56H448v0V284.8zM320 336v0V284.8l-112-168V280v56H320zM80 116.8V336H192V284.8L80 116.8zM0 440c0-4.4 3.6-8 8-8H632c4.4 0 8 3.6 8 8s-3.6 8-8 8H8c-4.4 0-8-3.6-8-8z"/></svg>