<svg xmlns="http://www.w3.org/2000/svg" viewBox="0 0 640 512"><!--! Font Awesome Pro 6.4.0 by @fontawesome - https://fontawesome.com License - https://fontawesome.com/license (Commercial License) Copyright 2023 Fonticons, Inc. --><path d="M576 16H488V96c0 4.4-3.6 8-8 8s-8-3.6-8-8V16H384c-26.5 0-48 21.5-48 48V448c0 26.5 21.5 48 48 48h88V416c0-4.4 3.6-8 8-8s8 3.6 8 8v80h88c26.5 0 48-21.5 48-48V64c0-26.5-21.5-48-48-48zM384 0h96 96c35.3 0 64 28.7 64 64V448c0 35.3-28.7 64-64 64H384c-35.3 0-64-28.7-64-64V64c0-35.3 28.7-64 64-64zm96 192c4.4 0 8 3.6 8 8V312c0 4.4-3.6 8-8 8s-8-3.6-8-8V200c0-4.4 3.6-8 8-8zM8 96H288v16H232v80h56v16H8c-4.4 0-8-3.6-8-8s3.6-8 8-8H88V112H8c-4.4 0-8-3.6-8-8s3.6-8 8-8zM272 304h16v16H272c-39.8 0-72 32.2-72 72v80c0 22.1-17.9 40-40 40H128c-22.1 0-40-17.9-40-40V392c0-39.8-32.2-72-72-72H8c-4.4 0-8-3.6-8-8s3.6-8 8-8h8c48.6 0 88 39.4 88 88v80c0 13.3 10.7 24 24 24h32c13.3 0 24-10.7 24-24V392c0-48.6 39.4-88 88-88zM216 112H104v80H216V112z"/></svg>