<svg xmlns="http://www.w3.org/2000/svg" viewBox="0 0 640 512"><!--! Font Awesome Pro 6.4.0 by @fontawesome - https://fontawesome.com License - https://fontawesome.com/license (Commercial License) Copyright 2023 Fonticons, Inc. --><path d="M8 32c4.4 0 8 3.6 8 8V80H624V40c0-4.4 3.6-8 8-8s8 3.6 8 8V80 96 288v16V472c0 4.4-3.6 8-8 8s-8-3.6-8-8V304H16V472c0 4.4-3.6 8-8 8s-8-3.6-8-8V304 288 96 80 40c0-4.4 3.6-8 8-8zM624 288V96h-7.1l-1.8 3.6L520.9 288H624zM16 288h7.1l1.8-3.6L119.1 96H16V288zM599.1 96H456.9l-1.8 3.6L360.9 288H503.1l1.8-3.6L599.1 96zM136.9 96l-1.8 3.6L40.9 288H183.1l1.8-3.6L279.1 96H136.9zm158.2 3.6L200.9 288H343.1l1.8-3.6L439.1 96H296.9l-1.8 3.6z"/></svg>