<svg xmlns="http://www.w3.org/2000/svg" viewBox="0 0 640 512"><!--! Font Awesome Pro 6.4.0 by @fontawesome - https://fontawesome.com License - https://fontawesome.com/license (Commercial License) Copyright 2023 Fonticons, Inc. --><path d="M0 72c0-4.4 3.6-8 8-8H32h8 8H592h8 8 24c4.4 0 8 3.6 8 8s-3.6 8-8 8H608v80h24c4.4 0 8 3.6 8 8s-3.6 8-8 8H608v72h24c4.4 0 8 3.6 8 8s-3.6 8-8 8H608v72h24c4.4 0 8 3.6 8 8s-3.6 8-8 8H608v80h24c4.4 0 8 3.6 8 8s-3.6 8-8 8H608h-8-8H48 40 32 8c-4.4 0-8-3.6-8-8s3.6-8 8-8H32V352H8c-4.4 0-8-3.6-8-8s3.6-8 8-8H32V264H8c-4.4 0-8-3.6-8-8s3.6-8 8-8H32V176H8c-4.4 0-8-3.6-8-8s3.6-8 8-8H32V80H8c-4.4 0-8-3.6-8-8zm48 96v88 88 88h80V80H48v88zm96 264H496V80H144V432zM512 80V432h80V344 256 168 80H512z"/></svg>