<svg xmlns="http://www.w3.org/2000/svg" viewBox="0 0 512 512"><!--! Font Awesome Pro 6.4.0 by @fontawesome - https://fontawesome.com License - https://fontawesome.com/license (Commercial License) Copyright 2023 Fonticons, Inc. --><path d="M0 72C0 49.9 17.9 32 40 32h80c75.1 0 136 60.9 136 136c0 68.7-50.9 125.5-117.1 134.7l60.6 166.6c1.5 4.2-.6 8.7-4.8 10.2s-8.7-.6-10.3-4.8L122.4 304c-.8 0-1.6 0-2.4 0H16V472c0 4.4-3.6 8-8 8s-8-3.6-8-8V296 72zM16 288H120c66.3 0 120-53.7 120-120s-53.7-120-120-120H40C26.7 48 16 58.7 16 72V288zm288-88V368h96c53 0 96-43 96-96s-43-96-96-96H328c-13.3 0-24 10.7-24 24zm96 184H304V504c0 4.4-3.6 8-8 8s-8-3.6-8-8V200c0-22.1 17.9-40 40-40h72c61.9 0 112 50.1 112 112s-50.1 112-112 112z"/></svg>