<svg xmlns="http://www.w3.org/2000/svg" viewBox="0 0 640 512"><!--! Font Awesome Pro 6.4.0 by @fontawesome - https://fontawesome.com License - https://fontawesome.com/license (Commercial License) Copyright 2023 Fonticons, Inc. --><path d="M136 53.3c3.1 3.7 7.7 5.8 12.5 5.8s9.3-2.3 12.3-6c4.3-5.4 8.6-10.6 13-15.1c14 13.9 26.1 31.6 35 48.7c9.7 18.7 15.1 37.5 15.1 47.9c0 14.8-3.4 28.9-9.5 41.5H232c5.1-12.9 8-26.9 8-41.5c0-14.1-6.7-35.7-16.9-55.3c-10.3-19.9-25-40.9-42.3-56.8c-3.9-3.6-10.1-3.6-14 0c-2.8 2.5-5.5 5.3-8.1 8.2c-3.7 4.1-7.2 8.4-10.4 12.5c-3.5-4.2-7-8.3-10.7-12.3c-9-9.9-18.3-19.3-28.2-28.1C107.5 .9 105.1 0 102.6 0c-2.5 0-5 .9-7 2.6c-23.3 20.8-43 44.4-57 67.1C24.9 92 16 116 16 134.5c0 14.6 2.8 28.6 7.9 41.5H41.3c-6-12.6-9.3-26.7-9.3-41.5c0-14.2 7.2-35.2 20.3-56.4C64.7 58 82 36.9 102.5 18c11.8 11 23 22.7 33.5 35.3zm53.3 53.7l0-.1c-1.5-3-3.3-6.6-6.1-10.3c-1.5-1.9-3.7-3.1-6.1-3.2s-4.8 .9-6.3 2.8l-21.5 25-1-1.3L132.5 99.8c-11.6-14.7-23.6-30-25.1-32c-1.5-1.9-3.8-3-6.2-3s-4.7 1.1-6.2 3C83.4 82 74.3 93.6 68.2 104.2c-6.2 10.7-9.8 20.8-9.8 31.9c0 15.6 4.3 29.1 11.8 39.9H91.7c-.6-.5-1.1-1-1.7-1.5c-9.5-8.7-15.6-21.6-15.6-38.4c0-7.4 2.3-14.7 7.6-23.9c4.4-7.6 10.7-16 19.1-26.6c4.9 6.2 11.9 15.2 18.9 24l15.7 20.1 5.1 6.5 1.4 1.8 .4 .5 .1 .1 0 0 0 0 0 0 6.3-4.9-6.3 4.9c1.5 1.9 3.7 3 6.1 3.1s4.7-1 6.2-2.8l20.5-23.9c11.1 21 6.5 46.7-10.4 60.9h21.4c13.5-19.8 14.8-46.9 2.8-69.1zM8 208c-4.4 0-8 3.6-8 8s3.6 8 8 8H29.4L6.2 305C2.1 319.5 0 334.5 0 349.6v2.1C0 440.2 71.8 512 160.3 512c47.8 0 93.1-21.3 123.6-58.2L532.6 152.7c4.6-5.5 11.3-8.7 18.5-8.7h64c13.8 0 25-11.2 25-25c0-6.6-2.6-13-7.3-17.7L616.4 85.1C602.9 71.6 584.6 64 565.5 64h-27c-19.1 0-37.4 7.6-50.9 21.1L452 120.7 429.7 98.3c-3.1-3.1-8.2-3.1-11.3 0s-3.1 8.2 0 11.3L440.7 132 404 168.7l-22.3-22.3c-3.1-3.1-8.2-3.1-11.3 0s-3.1 8.2 0 11.3L392.7 180 356 216.6l-22.3-22.3c-3.1-3.1-8.2-3.1-11.3 0s-3.1 8.2 0 11.3L344.6 228l-134 133.9c-3.8 3.8-9 5.9-14.3 5.9h-2c-10.1 0-18.3-8.2-18.3-18.3c0-2.5 .5-5 1.5-7.3L229.2 224H248c4.4 0 8-3.6 8-8s-3.6-8-8-8H224 40 8zM21.6 309.4L46 224H211.8L162.9 335.7c-1.9 4.3-2.9 9-2.9 13.8c0 19 15.4 34.3 34.3 34.3h2c9.6 0 18.8-3.8 25.7-10.6l277-276.8C509.4 85.9 523.7 80 538.5 80h27c14.9 0 29.1 5.9 39.6 16.4l16.3 16.3c1.7 1.7 2.6 4 2.6 6.3c0 5-4 9-9 9h-64c-11.9 0-23.2 5.3-30.8 14.5L271.5 443.6C244.1 476.8 203.3 496 160.3 496C80.6 496 16 431.4 16 351.7v-2.1c0-13.6 1.9-27.1 5.6-40.2zM96 368a16 16 0 1 0 -32 0 16 16 0 1 0 32 0zm16-80a16 16 0 1 0 0-32 16 16 0 1 0 0 32z"/></svg>