<svg xmlns="http://www.w3.org/2000/svg" viewBox="0 0 576 512"><!--! Font Awesome Pro 6.4.0 by @fontawesome - https://fontawesome.com License - https://fontawesome.com/license (Commercial License) Copyright 2023 Fonticons, Inc. --><path d="M112 48c-53 0-96 43-96 96s43 96 96 96H253.4 272h32c17.7 0 32-14.3 32-32V80c0-17.7-14.3-32-32-32H112zM81.1 251.7C34.3 238.3 0 195.1 0 144C0 82.1 50.1 32 112 32H304c26.5 0 48 21.5 48 48V208c0 26.5-21.5 48-48 48H262.5L144.4 454.9c-13.5 22.7-42.8 30.3-65.6 16.9L25.5 440.4C2.6 426.9-5 397.4 8.5 374.6L81.1 251.7zM243.9 256H112 97.1L22.2 382.7c-9 15.2-3.9 34.9 11.3 43.9L86.9 458c15.2 8.9 34.7 3.9 43.7-11.2L243.9 256zM424 32H568c4.4 0 8 3.6 8 8s-3.6 8-8 8H424c-4.4 0-8-3.6-8-8s3.6-8 8-8zm-8 56c0-4.4 3.6-8 8-8H568c4.4 0 8 3.6 8 8s-3.6 8-8 8H424c-4.4 0-8-3.6-8-8zm0 48c0-4.4 3.6-8 8-8H568c4.4 0 8 3.6 8 8s-3.6 8-8 8H424c-4.4 0-8-3.6-8-8zm8 56H568c4.4 0 8 3.6 8 8s-3.6 8-8 8H424c-4.4 0-8-3.6-8-8s3.6-8 8-8zm-8 88c0-4.4 3.6-8 8-8H568c4.4 0 8 3.6 8 8s-3.6 8-8 8H424c-4.4 0-8-3.6-8-8zm8 40H568c4.4 0 8 3.6 8 8s-3.6 8-8 8H424c-4.4 0-8-3.6-8-8s3.6-8 8-8zm-8 64c0-4.4 3.6-8 8-8H568c4.4 0 8 3.6 8 8s-3.6 8-8 8H424c-4.4 0-8-3.6-8-8zm8 80H568c4.4 0 8 3.6 8 8s-3.6 8-8 8H424c-4.4 0-8-3.6-8-8s3.6-8 8-8z"/></svg>