<svg xmlns="http://www.w3.org/2000/svg" viewBox="0 0 576 512"><!--! Font Awesome Pro 6.4.0 by @fontawesome - https://fontawesome.com License - https://fontawesome.com/license (Commercial License) Copyright 2023 Fonticons, Inc. --><path d="M43.7 32.9c-3.9-2-8.8-.5-10.8 3.4s-.5 8.8 3.4 10.8L503.9 288H64c-35.3 0-64 28.7-64 64v64c0 35.3 28.7 64 64 64H512c35.3 0 64-28.7 64-64v-8V352v-1c0-27-15.1-51.7-39-64L43.7 32.9zM560 352v56 8c0 26.5-21.5 48-48 48H64c-26.5 0-48-21.5-48-48V352c0-26.5 21.5-48 48-48H512c26.5 0 48 21.5 48 48zM208 384a16 16 0 1 0 -32 0 16 16 0 1 0 32 0zM96 400a16 16 0 1 0 0-32 16 16 0 1 0 0 32z"/></svg>