<svg xmlns="http://www.w3.org/2000/svg" viewBox="0 0 640 512"><!--! Font Awesome Pro 6.4.0 by @fontawesome - https://fontawesome.com License - https://fontawesome.com/license (Commercial License) Copyright 2023 Fonticons, Inc. --><path d="M324.6 1.4c-2.8-1.9-6.4-1.9-9.2 0L157.5 112H56c-30.9 0-56 25.1-56 56V456c0 30.9 25.1 56 56 56H256h16 96 16H584c30.9 0 56-25.1 56-56V168c0-30.9-25.1-56-56-56H482.5L324.6 1.4zM384 496V384c0-35.3-28.7-64-64-64s-64 28.7-64 64V496H56c-22.1 0-40-17.9-40-40V168c0-22.1 17.9-40 40-40H160c1.6 0 3.2-.5 4.6-1.4L320 17.8 475.4 126.6c1.3 .9 2.9 1.4 4.6 1.4H584c22.1 0 40 17.9 40 40V456c0 22.1-17.9 40-40 40H384zm-16 0H272V384c0-26.5 21.5-48 48-48s48 21.5 48 48V496zM64 216v48c0 13.3 10.7 24 24 24h32c13.3 0 24-10.7 24-24V216c0-13.3-10.7-24-24-24H88c-13.3 0-24 10.7-24 24zm24-8h32c4.4 0 8 3.6 8 8v48c0 4.4-3.6 8-8 8H88c-4.4 0-8-3.6-8-8V216c0-4.4 3.6-8 8-8zm432-16c-13.3 0-24 10.7-24 24v48c0 13.3 10.7 24 24 24h32c13.3 0 24-10.7 24-24V216c0-13.3-10.7-24-24-24H520zm-8 24c0-4.4 3.6-8 8-8h32c4.4 0 8 3.6 8 8v48c0 4.4-3.6 8-8 8H520c-4.4 0-8-3.6-8-8V216zM320 112a64 64 0 1 1 0 128 64 64 0 1 1 0-128zm0 144a80 80 0 1 0 0-160 80 80 0 1 0 0 160zm8-112c0-4.4-3.6-8-8-8s-8 3.6-8 8v32c0 4.4 3.6 8 8 8h24c4.4 0 8-3.6 8-8s-3.6-8-8-8H328V144zM64 344v48c0 13.3 10.7 24 24 24h32c13.3 0 24-10.7 24-24V344c0-13.3-10.7-24-24-24H88c-13.3 0-24 10.7-24 24zm24-8h32c4.4 0 8 3.6 8 8v48c0 4.4-3.6 8-8 8H88c-4.4 0-8-3.6-8-8V344c0-4.4 3.6-8 8-8zm432-16c-13.3 0-24 10.7-24 24v48c0 13.3 10.7 24 24 24h32c13.3 0 24-10.7 24-24V344c0-13.3-10.7-24-24-24H520zm-8 24c0-4.4 3.6-8 8-8h32c4.4 0 8 3.6 8 8v48c0 4.4-3.6 8-8 8H520c-4.4 0-8-3.6-8-8V344z"/></svg>