<svg xmlns="http://www.w3.org/2000/svg" viewBox="0 0 576 512"><!--! Font Awesome Pro 6.4.0 by @fontawesome - https://fontawesome.com License - https://fontawesome.com/license (Commercial License) Copyright 2023 Fonticons, Inc. --><path d="M16 104c0-30.9 25.1-56 56-56s56 25.1 56 56v81.4c0 6.4 2.5 12.5 7 17l16 16c3.1 3.1 3.1 8.2 0 11.3l-16 16c-4.5 4.5-7 10.6-7 17V400c0 44.2 35.8 80 80 80H496c44.2 0 80-35.8 80-80V368c0-17.7-14.3-32-32-32h-.3-.3-.3-.3-.3-.3-.3-.3-.3-.3H541h-.3-.3-.3-.3-.3-.3H539h-.3-.3-.3-.3-.3-.3-.3-.3-.3-.3H536h-.3-.3-.3H535h-.3-.3-.3-.3-.3-.3-.3-.3-.3-.3H532h-.3-.3-.3H531h-.3-.3-.3-.3-.3-.3-.3-.3-.3-.3H528h-.3-.3-.3H527h-.3-.3-.3-.3-.3-.3-.3-.3-.3-.3-.3-.3-.3-.3-.3-.3-.3-.3H522h-.3-.3-.3H521h-.3-.3-.3H520h-.3-.3-.3-.3-.3-.3-.3-.3-.3-.3-.3-.3-.3-.3-.3-.3-.3-.3-.3-.3-.3-.2-.3-.3-.3-.3-.2-.3-.3-.2-.2-.3-.2-.2-.3-.2-.2-.2-.2-.2-.2-.2-.2-.2-.2-.2-.2-.2-.2-.2-.2-.2-.2-.2-.2-.2-.2-.2-.2-.2-.2-.2-.2-.2-.2-.2-.2-.2-.2-.2-.2H502h-.2-.2-.2H501h-.2-.2-.2H500h-.2-.2-.2-.2-.2-.2-.2-.2-.2-.2-.2-.2-.2-.2-.2-.2-.2-.2-.2-.2H495h-.2-.2-.2H494h-.2-.2-.2-.2-.2-.2-.2-.2-.2-.2-.2-.2-.2-.2-.2-.2H490h-.2-.2-.2-.2-.2-.2-.2-.2-.2-.2-.2-.2-.2-.2-.2-.2H486h-.2-.2-.2-.2-.2-.2-.2-.2-.2-.2-.2-.2H483h-.2-.2-.2-.2-.2-.2-.2-.2-.2-.2-.2-.2H480h-.2-.2-.2-.2-.2-.2-.2-.2-.2-.2-.2-.2H477h-.2-.2-.2-.2-.2-.2-.2-.2H475h-.2-.2-.2-.2-.2-.2-.2-.2-.2-.2-.2-.2H472h-.2-.2-.2-.2-.2-.2-.2-.2H470h-.2-.2-.2-.2-.2-.2-.2-.2H468h-.2-.2-.2-.2-.2-.2-.2-.2H466h-.2-.2-.2-.2-.2-.2-.2-.2H464h-.2-.2-.2-.2-.2-.2-.2-.2H462h-.2-.2-.2-.2-.2-.2-.2-.2H460h-.2-.2-.2-.2-.2-.2-.2-.2H458h-.2-.2-.2-.2-.2-.2-.2-.2H456h-.2-.2-.2-.2-.2-.2-.2-.2-.2-.2-.2-.2-.2H453h-.2-.2-.2-.2-.2-.2-.2-.2H451h-.2-.2-.2-.2-.2-.2-.2-.2H449h-.2-.2-.2-.2H448h-.2-.2-.2-.2-.2-.2-.2-.2H446h-.2-.2-.2-.2-.2-.2-.2-.2-.2-.2-.2-.2-.2H443h-.2-.2-.2-.2-.2-.2-.2-.2H441h-.2-.2-.2-.2H440h-.2-.2-.2-.2-.2-.2-.2-.2H438h-.2-.2-.2-.2H437h-.2-.2-.2-.2-.2-.2-.2-.2H435h-.2-.2-.2-.2H434h-.2-.2-.2-.2-.2-.2-.2-.2H432h-.2-.2-.2-.2H431h-.2-.2-.2-.2-.2-.2-.2-.2H429h-.2-.2-.2-.2H428h-.2-.2-.2-.2-.2-.2-.2-.2H426h-.2-.2-.2-.2H425h-.2-.2-.2-.2-.2-.2c-7.3 0-14.2 3.3-18.7 9l-14.7 18.4c-3.2 4-9.3 4-12.5 0L363 345c-4.6-5.7-11.4-9-18.7-9h-.1-.1-.1H344h-.1-.1-.1-.1-.1-.1-.1-.1-.1-.1-.1-.1H343 343h-.1-.1-.1-.1-.1-.1-.1-.1-.1-.1-.1-.1H342h-.1-.1-.1-.1-.1-.1-.1-.1-.1-.1-.1-.1H341 341h-.1-.1-.1-.1-.1-.1-.1-.1-.1-.1-.1-.1H340h-.1-.1-.1-.1-.1-.1-.1-.1-.1-.1-.1-.1H339h-.1-.1-.1-.1-.1-.1-.1-.1-.1-.1-.1-.1H338 338h-.1-.1-.1-.1-.1-.1-.1-.1-.1-.1-.1H337 337h-.1-.1-.1-.1-.1-.1-.1-.1-.1-.1-.1-.1H336h-.1-.1-.1-.1-.1-.1-.1-.1-.1-.1-.1-.1H335h-.1-.1-.1-.1-.1-.1-.1-.1-.1-.1-.1-.1H334h-.1-.1-.1-.1-.1-.1-.1-.1-.1-.1-.1-.1H333h-.1-.1-.1-.1-.1-.1-.1-.1-.1-.1-.1-.1H332h-.1-.1-.1-.1-.1-.1-.1-.1-.1-.1-.1-.1H331h-.1-.1-.1-.1-.1-.1-.1-.1-.1-.1-.1-.1H330h-.1-.1-.1-.1-.1-.1-.1-.1-.1-.1-.1-.1H329h-.1-.1-.1-.1-.1-.1-.1-.1-.1-.1-.1-.1H328h-.1-.1-.1-.1-.1-.1-.1-.1-.1-.1-.1-.1H327h-.1-.1-.1-.1-.1-.1-.1-.1-.1-.1-.1H326 326h-.1-.1-.1-.1-.1-.1-.1-.1-.1-.1-.1H325h-.1-.1-.1-.1-.1-.1-.1-.1-.1-.1-.1-.1H324h-.1-.1-.1-.1-.1-.1-.1-.1-.1-.1-.1-.1H323h-.1-.1-.1-.1-.1-.1-.1-.1-.1-.1-.1H322h-.1-.1-.1-.1-.1-.1-.1-.1-.1-.1-.1-.1H321h-.1-.1-.1-.1-.1-.1-.1-.1-.1-.1-.1H320 320h-.1-.1-.1-.1-.1-.1-.1-.1-.1-.1-.1H319h-.1-.1-.1-.1-.1-.1-.1-.1-.1-.1-.1H318 318h-.1-.1-.1-.1-.1-.1-.1-.1-.1-.1-.1H317h-.1-.1-.1-.1-.1-.1-.1-.1-.1-.1-.1H316h-.1-.1-.1-.1-.1-.1-.1-.1-.1-.1-.1-.1H315h-.1-.1-.1-.1-.1-.1-.1-.1-.1-.1-.1H314h-.1-.1-.1-.1-.1-.1-.1-.1-.1-.1-.1H313h-.1-.1-.1-.1-.1-.1-.1-.1-.1-.1-.1H312 312h-.1-.1-.1-.1-.1-.1-.1-.1-.1-.1-.1H311h-.1-.1-.1-.1-.1-.1-.1-.1-.1-.1-.1H310h-.1-.1-.1-.1-.1-.1-.1-.1-.1-.1-.1H309h-.1-.1-.1-.1-.1-.1-.1-.1-.1-.1-.1H308h-.1-.1-.1-.1-.1-.1-.1-.1-.1-.1-.1H307h-.1-.1-.1-.1-.1-.1-.1-.1-.1-.1-.1H306h-.1-.1-.1-.1-.1-.1-.1-.1-.1-.1-.1H305h-.1-.1-.1-.1-.1-.1-.1-.1-.1-.1-.1H304c-17.7 0-32 14.3-32 32v32c0 35.3-28.7 64-64 64s-64-28.7-64-64V262.6c0-2.1 .8-4.2 2.3-5.7l16-16c9.4-9.4 9.4-24.6 0-33.9l-16-16c-1.5-1.5-2.3-3.5-2.3-5.7V104c0-22.6-10.4-42.8-26.7-56H408c30.9 0 56 25.1 56 56v17.4c0 2.1-.8 4.2-2.3 5.7l-16 16c-9.4 9.4-9.4 24.6 0 33.9l16 16c1.5 1.5 2.3 3.5 2.3 5.7v18.7c0 2.1-.8 4.2-2.3 5.7l-16 16c-9.4 9.4-9.4 24.6 0 33.9l16 16c1.5 1.5 2.3 3.5 2.3 5.7V304h16v-9.4c0-6.4-2.5-12.5-7-17l-16-16c-3.1-3.1-3.1-8.2 0-11.3l16-16c4.5-4.5 7-10.6 7-17V198.6c0-6.4-2.5-12.5-7-17l-16-16c-3.1-3.1-3.1-8.2 0-11.3l16-16c4.5-4.5 7-10.6 7-17V104c0-39.8-32.2-72-72-72H72C32.2 32 0 64.2 0 104v72c0 17.7 14.3 32 32 32H96V192H32c-8.8 0-16-7.2-16-16V104zM496 464H256c19.4-14.6 32-37.8 32-64V368c0-8.8 7.2-16 16-16h.1 .1 .1 .1 .1 .1 .1 .1 .1 .1 .1 .1 .1 .1 .1 .1 .1 .1 .1 .1 .1 .1 .1 .1 .1 .1 .1 .1 .1 .1 .1 .1 .1 .1 .1 .1 .1 .1 .1 .1 .1 .1 .1 .1 .1 .1 .1 .1 .1 .1 .1 .1 .1 .1 .1 .1 .1 .1 .1 .1 .1 .1 .1 .1 .1 .1 .1 .1 .1 .1 .1 .1 .1 .1 .1 .1 .1 .1 .1 .1 .1 .1 .1 .1 .1 .1 .1 .1 .1 .1 .1 .1 .1 .1 .1 .1 .1 .1 .1 .1 .1 .1 .1 .1 .1 .1 .1 .1 .1 .1 .1 .1 .1 .1 .1 .1 .1 .1 .1 .1 .1 .1 .1 .1 .1 .1 .1 .1 .1 .1 .1 .1 .1 .1 .1 .1 .1 .1 .1 .1 .1 .1 .1 .1 .1 .1 .1 .1 .1 .1 .1 .1 .1 .1 .1 .1 .1 .1 .1 .1 .1 .1 .1 .1 .1 .1 .1 .1 .1 .1 .1 .1 .1 .1 .1 .1 .1 .1 .1 .1 .1 .1 .1 .1 .1 .1 .1 .1 .1 .1 .1 .1 .1 .1 .1 .1 .1 .1 .1 .1 .1 .1 .1 .1 .1 .1 .1 .1 .1 .1 .1 .1 .1 .1 .1 .1 .1 .1 .1 .1 .1 .1 .1 .1 .1 .1 .1 .1 .1 .1 .1 .1 .1 .1 .1 .1 .1 .1 .1 .1 .1 .1 .1 .1 .1 .1 .1 .1 .1 .1 .1 .1 .1 .1 .1 .1 .1 .1 .1 .1 .1 .1 .1 .1 .1 .1 .1 .1 .1 .1 .1 .1 .1 .1 .1 .1 .1 .1 .1 .1 .1 .1 .1 .1 .1 .1 .1 .1 .1 .1 .1 .1 .1 .1 .1 .1 .1 .1 .1 .1 .1 .1 .1 .1 .1 .1 .1 .1 .1 .1 .1 .1 .1 .1 .1 .1 .1 .1 .1 .1 .1 .1 .1 .1 .1 .1 .1 .1 .1 .1 .1 .1 .1 .1 .1 .1 .1 .1 .1 .1 .1 .1 .1 .1 .1 .1 .1 .1 .1 .1 .1 .1 .1 .1 .1 .1 .1 .1 .1 .1 .1 .1 .1 .1 .1 .1 .1 .1 .1 .1 .1 .1 .1 .1 .1 .1 .1 .1 .1 .1 .1 .1 .1 .1 .1 .1 .1 .1 .1 .1 .1 .1 .1 .1 .1 .1 .1 .1 .1 .1 .1 .1 .1 .1 .1 .1 .1 .1 .1 .1 .1 .1 .1 .1 .1 .1 .1 .1 .1 .1 .1 .1 .1 .1 .1 .1 .1 .1 .1 .1 .1 .1 .1 .1 .1 .1 .1 .1 .1 .1 .1 .1 .1 .1 .1 .1 .1 .1 .1 .1 .1 .1 .1 .1 .1 .1 .1 .1 .1 .1 .1 .1 .1 .1 .1 .1 .1 .1 .1 .1 .1 .1 .1 .1 .1 .1 .1 .1 .1 .1 .1 .1 .1 .1 .1 .1 .1 .1 .1 .1 .1 .1 .1 .1 .1 .1 .1 .1 .1 .1 .1 .1 .1 .1 .1 .1 .1 .1 .1 .1 .1 .1c2.4 0 4.7 1.1 6.2 3l14.7 18.4c9.6 12 27.9 12 37.5 0L417.4 355c1.5-1.9 3.8-3 6.2-3h.2 .2 .2 .2 .2 .2 .2 .2 .2 .2 .2 .2 .2 .2 .2 .2 .2 .2 .2 .2 .2 .2 .2 .2 .2 .2 .2 .2 .2 .2 .2 .2 .2 .2 .2 .2 .2 .2 .2 .2 .2 .2 .2 .2 .2 .2 .2 .2 .2 .2 .2 .2 .2 .2 .2 .2 .2 .2 .2 .2 .2 .2 .2 .2 .2 .2 .2 .2 .2 .2 .2 .2 .2 .2 .2 .2 .2 .2 .2 .2 .2 .2 .2 .2 .2 .2 .2 .2 .2 .2 .2 .2 .2 .2 .2 .2 .2 .2 .2 .2 .2 .2 .2 .2 .2 .2 .2 .2 .2 .2 .2 .2 .2 .2 .2 .2 .2 .2 .2 .2 .2 .2 .2 .2 .2 .2 .2 .2 .2 .2 .2 .2 .2 .2 .2 .2 .2 .2 .2 .2 .2 .2 .2 .2 .2 .2 .2 .2 .2 .2 .2 .2 .2 .2 .2 .2 .2 .2 .2 .2 .2 .2 .2 .2 .2 .2 .2 .2 .2 .2 .2 .2 .2 .2 .2 .2 .2 .2 .2 .2 .2 .2 .2 .2 .2 .2 .2 .2 .2 .2 .2 .2 .2 .2 .2 .2 .2 .2 .2 .2 .2 .2 .2 .2 .2 .2 .2 .2 .2 .2 .2 .2 .2 .2 .2 .2 .2 .2 .2 .2 .2 .2 .2 .2 .2 .2 .2 .2 .2 .2 .2 .2 .2 .2 .2 .2 .2 .2 .2 .2 .2 .2 .2 .2 .2 .2 .2 .2 .2 .2 .2 .2 .2 .2 .2 .2 .2 .2 .2 .2 .2 .2 .2 .2 .2 .2 .2 .2 .2 .2 .2 .2 .2 .2 .2 .2 .2 .2 .2 .2 .2 .2 .2 .2 .2 .2 .2 .2 .2 .2 .2 .2 .2 .2 .2 .2 .2 .2 .2 .2 .2 .2 .2 .2 .2 .2 .2 .2 .2 .2 .2 .2 .2 .2 .2 .2 .2 .2 .2 .2 .2 .2 .2 .2 .2 .2 .2 .2 .2 .2 .2 .2 .2 .2 .2 .2 .2 .2 .2 .2 .2 .2 .2 .2 .2 .2 .2 .2 .2 .2 .2 .2 .2 .2 .2 .2 .2 .2 .2 .2 .2 .2 .2 .2 .2 .2 .2 .2 .2 .2 .2 .2 .2 .2 .2 .2 .2 .2 .2 .2 .2 .2 .2 .2 .2 .2 .2 .3 .2 .2 .3 .2 .2 .3 .3 .2 .3 .3 .3 .3 .2 .3 .3 .3 .3 .3 .3 .3 .3 .3 .3 .3 .3 .3 .3 .3 .3 .3 .3 .3 .3 .3 .3 .3 .3 .3 .3 .3 .3 .3 .3 .3 .3 .3 .3 .3 .3 .3 .3 .3 .3 .3 .3 .3 .3 .3 .3 .3 .3 .3 .3 .3 .3 .3 .3 .3 .3 .3 .3 .3 .3 .3 .3 .3 .3 .3 .3 .3 .3 .3 .3 .3 .3 .3 .3 .3 .3 .3 .3 .3 .3 .3 .3 .3 .3 .3 .3 .3 .3 .3 .3 .3 .3 .3 .3 .3 .3 .3 .3 .3 .3 .3 .3 .3 .3 .3 .3 .3 .3 .3 .3 .3c8.8 0 16 7.2 16 16v32c0 35.3-28.7 64-64 64z"/></svg>