<svg xmlns="http://www.w3.org/2000/svg" viewBox="0 0 640 512"><!--! Font Awesome Pro 6.4.0 by @fontawesome - https://fontawesome.com License - https://fontawesome.com/license (Commercial License) Copyright 2023 Fonticons, Inc. --><path d="M96 56c0-22.1-17.9-40-40-40S16 33.9 16 56V456c0 22.1 17.9 40 40 40s40-17.9 40-40V56zM0 56C0 25.1 25.1 0 56 0c22.3 0 41.6 13.1 50.6 32H533.4c9-18.9 28.3-32 50.6-32c30.9 0 56 25.1 56 56V456c0 30.9-25.1 56-56 56c-22.3 0-41.6-13.1-50.6-32H106.6c-9 18.9-28.3 32-50.6 32c-30.9 0-56-25.1-56-56V56zM111.4 464H528.6c-.4-2.6-.6-5.3-.6-8V56c0-2.7 .2-5.4 .6-8H111.4c.4 2.6 .6 5.3 .6 8V456c0 2.7-.2 5.4-.6 8zM200 313.7c0-2.5 .7-5 1.9-7.2L231.4 256l-29.4-50.5c-1.3-2.2-1.9-4.7-1.9-7.2c0-7.9 6.4-14.3 14.3-14.3h59l32.6-55.9c2.9-5 8.3-8.1 14.1-8.1s11.2 3.1 14.1 8.1L366.7 184h59c7.9 0 14.3 6.4 14.3 14.3c0 2.5-.7 5-1.9 7.2L408.6 256l29.4 50.5c1.3 2.2 1.9 4.7 1.9 7.2c0 7.9-6.4 14.3-14.3 14.3h-59l-32.6 55.9c-2.9 5-8.3 8.1-14.1 8.1s-11.2-3.1-14.1-8.1L273.3 328h-59c-7.9 0-14.3-6.4-14.3-14.3zm119.7 62.1c.1 .1 .2 .2 .3 .2s.2-.1 .3-.2L348.2 328H291.8l27.9 47.8zM249.9 256l32.6 56h75l32.6-56-32.6-56h-75l-32.6 56zm149.5 15.9L376 312h46.7l-23.4-40.1zM422.7 200H376l23.4 40.1L422.7 200zM320.3 136.2c-.1-.1-.2-.2-.3-.2s-.2 .1-.3 .2L291.8 184h56.3l-27.9-47.8zM217.3 200l23.4 40.1L264 200H217.3zM264 312l-23.4-40.1L217.3 312H264zM624 56c0-22.1-17.9-40-40-40s-40 17.9-40 40V456c0 22.1 17.9 40 40 40s40-17.9 40-40V56z"/></svg>