<svg xmlns="http://www.w3.org/2000/svg" viewBox="0 0 512 512"><!--! Font Awesome Pro 6.4.0 by @fontawesome - https://fontawesome.com License - https://fontawesome.com/license (Commercial License) Copyright 2023 Fonticons, Inc. --><path d="M176 80c4.2 0 8.3-1.7 11.3-4.7l46.1-46.1c12.5-12.5 32.8-12.5 45.3 0l11.3-11.3L278.6 29.3l46.1 46.1c3 3 7.1 4.7 11.3 4.7h64c17.7 0 32 14.3 32 32v64c0 4.2 1.7 8.3 4.7 11.3l45.6 45.6c12.5 12.5 12.5 32.8 0 45.3l-45.6 45.6c-3 3-4.7 7.1-4.7 11.3V400c0 17.7-14.3 32-32 32H335.1c-4.2 0-8.3 1.7-11.3 4.7l-45.1 45.1c-12.5 12.5-32.8 12.5-45.3 0l-45.1-45.1c-3-3-7.1-4.7-11.3-4.7H112c-17.7 0-32-14.3-32-32V335.1c0-4.2-1.7-8.3-4.7-11.3L29.7 278.2c-12.5-12.5-12.5-32.8 0-45.3l45.6-45.6c3-3 4.7-7.1 4.7-11.3V112c0-17.7 14.3-32 32-32h64zM336 64L289.9 17.9c-18.7-18.7-49.1-18.7-67.9 0L176 64H112c-26.5 0-48 21.5-48 48v64L18.4 221.6c-18.7 18.7-18.7 49.1 0 67.9L64 335.1V400c0 26.5 21.5 48 48 48h64.9l45.1 45.1c18.7 18.7 49.1 18.7 67.9 0L335.1 448H400c26.5 0 48-21.5 48-48V335.1l45.6-45.6c18.7-18.7 18.7-49.1 0-67.9L448 176V112c0-26.5-21.5-48-48-48H336zM168 184l0 6.5c0 4.4 3.6 8 8 8s8-3.6 8-8l0-6.5c0-22.1 17.9-40 40-40h56.2c26.4 0 47.8 21.4 47.8 47.8c0 16.1-8.1 31.1-21.5 39.9l-54.9 36.2c-2.2 1.5-3.6 4-3.6 6.7V304c0 4.4 3.6 8 8 8s8-3.6 8-8V278.9L315.3 245c17.9-11.8 28.7-31.8 28.7-53.3c0-35.2-28.6-63.8-63.8-63.8H224c-30.9 0-56 25.1-56 56zM272 352a16 16 0 1 0 -32 0 16 16 0 1 0 32 0z"/></svg>