<svg xmlns="http://www.w3.org/2000/svg" viewBox="0 0 512 512"><!--! Font Awesome Pro 6.4.0 by @fontawesome - https://fontawesome.com License - https://fontawesome.com/license (Commercial License) Copyright 2023 Fonticons, Inc. --><path d="M187.8 75.3c-3 3-7.1 4.7-11.3 4.7H112c-17.7 0-32 14.3-32 32v64.5c0 4.2-1.7 8.3-4.7 11.3L29.7 233.4c-12.5 12.5-12.5 32.8 0 45.3l45.6 45.6c3 3 4.7 7.1 4.7 11.3V400c0 17.7 14.3 32 32 32h64.5c4.2 0 8.3 1.7 11.3 4.7l45.6 45.6c12.5 12.5 32.8 12.5 45.3 0l45.6-45.6c3-3 7.1-4.7 11.3-4.7H400c17.7 0 32-14.3 32-32V335.5c0-4.2 1.7-8.3 4.7-11.3l45.6-45.6c12.5-12.5 12.5-32.8 0-45.3l-45.6-45.6c-3-3-4.7-7.1-4.7-11.3V112c0-17.7-14.3-32-32-32H335.5c-4.2 0-8.3-1.7-11.3-4.7L278.6 29.7l11.3-11.3L335.5 64H400c26.5 0 48 21.5 48 48v64.5l45.6 45.6c18.7 18.7 18.7 49.1 0 67.9L448 335.5V400c0 26.5-21.5 48-48 48H335.5l-45.6 45.6c-18.7 18.7-49.1 18.7-67.9 0L176.5 448H112c-26.5 0-48-21.5-48-48V335.5L18.4 289.9c-18.7-18.7-18.7-49.1 0-67.9L64 176.5V112c0-26.5 21.5-48 48-48h64.5l45.6-45.6c18.7-18.7 49.1-18.7 67.9 0L278.6 29.7c-12.5-12.5-32.8-12.5-45.3 0L187.8 75.3z"/></svg>