<svg xmlns="http://www.w3.org/2000/svg" viewBox="0 0 448 512"><!--! Font Awesome Pro 6.4.0 by @fontawesome - https://fontawesome.com License - https://fontawesome.com/license (Commercial License) Copyright 2023 Fonticons, Inc. --><path d="M16 8c0-4.4-3.6-8-8-8S0 3.6 0 8V142.8c0 12.5 2.7 24.8 7.8 36.2L95.7 373.6C107.3 399.4 133 416 161.3 416H232v80H104c-4.4 0-8 3.6-8 8s3.6 8 8 8H240 376c4.4 0 8-3.6 8-8s-3.6-8-8-8H248V416H364.7c24.5 0 46.1-15.9 53.5-39.3l29.5-94.3c.8-2.4 .3-5.1-1.2-7.1s-3.9-3.3-6.4-3.3H72c-1.5 0-2.9 .4-4.1 1.1L38.5 208H344c4.4 0 8-3.6 8-8s-3.6-8-8-8H32c-.3 0-.5 0-.8 0l-8.9-19.6C18.2 163.1 16 153 16 142.8V8zm94.3 359L74.6 288H429.1l-26.2 83.9c-5.2 16.7-20.7 28.1-38.2 28.1H161.3c-22 0-42-12.9-51-33z"/></svg>