<svg xmlns="http://www.w3.org/2000/svg" viewBox="0 0 640 512"><!--! Font Awesome Pro 6.4.0 by @fontawesome - https://fontawesome.com License - https://fontawesome.com/license (Commercial License) Copyright 2023 Fonticons, Inc. --><path d="M192 16c26.5 0 48 21.5 48 48V192c0 26.5-21.5 48-48 48H64c-26.5 0-48-21.5-48-48V64c0-26.5 21.5-48 48-48H192zM64 0C28.7 0 0 28.7 0 64V192c0 35.3 28.7 64 64 64H192c35.3 0 64-28.7 64-64V64c0-35.3-28.7-64-64-64H64zM576 272c26.5 0 48 21.5 48 48V448c0 26.5-21.5 48-48 48H448c-26.5 0-48-21.5-48-48V320c0-26.5 21.5-48 48-48H576zM448 256c-35.3 0-64 28.7-64 64V448c0 35.3 28.7 64 64 64H576c35.3 0 64-28.7 64-64V320c0-35.3-28.7-64-64-64H448zM160 288v64c0 35.3 28.7 64 64 64H352V400H224c-26.5 0-48-21.5-48-48V288H160zM416 96H288v16H416c26.5 0 48 21.5 48 48v64h16V160c0-35.3-28.7-64-64-64zM152 80c13.3 0 24 10.7 24 24v48c0 13.3-10.7 24-24 24H104c-13.3 0-24-10.7-24-24V104c0-13.3 10.7-24 24-24h48zM104 64c-22.1 0-40 17.9-40 40v48c0 22.1 17.9 40 40 40h48c22.1 0 40-17.9 40-40V104c0-22.1-17.9-40-40-40H104zM488 336h48c13.3 0 24 10.7 24 24v48c0 13.3-10.7 24-24 24H488c-13.3 0-24-10.7-24-24V360c0-13.3 10.7-24 24-24zm-40 24v48c0 22.1 17.9 40 40 40h48c22.1 0 40-17.9 40-40V360c0-22.1-17.9-40-40-40H488c-22.1 0-40 17.9-40 40z"/></svg>