<svg xmlns="http://www.w3.org/2000/svg" viewBox="0 0 640 512"><!--! Font Awesome Pro 6.4.0 by @fontawesome - https://fontawesome.com License - https://fontawesome.com/license (Commercial License) Copyright 2023 Fonticons, Inc. --><path d="M64 48H384c26.5 0 48 21.5 48 48v33.8c5.2-1.2 10.6-1.8 16-1.8V96c0-35.3-28.7-64-64-64H64C28.7 32 0 60.7 0 96V416c0 35.3 28.7 64 64 64H225c-.6-4-1-8.1-1-12.3c0-1.2 0-2.5 .1-3.7H64c-26.5 0-48-21.5-48-48V96c0-26.5 21.5-48 48-48zm32 56c0-4.4-3.6-8-8-8s-8 3.6-8 8V280c0 4.4 3.6 8 8 8s8-3.6 8-8V104zm64 0c0-4.4-3.6-8-8-8s-8 3.6-8 8V280c0 4.4 3.6 8 8 8s8-3.6 8-8V104zM275.7 453.7l150.4-265c4.5-7.9 12.9-12.8 21.9-12.8s17.5 4.9 21.9 12.8l150.4 265c2.4 4.3 3.7 9.1 3.7 14c0 15.6-12.7 28.3-28.3 28.3H300.3c-15.6 0-28.3-12.7-28.3-28.3c0-4.9 1.3-9.7 3.7-14zM412.2 180.9l-150.4 265c-3.8 6.7-5.8 14.2-5.8 21.9c0 24.5 19.8 44.3 44.3 44.3H595.7c24.5 0 44.3-19.8 44.3-44.3c0-7.7-2-15.2-5.8-21.9l-150.4-265C476.5 168 462.8 160 448 160s-28.5 8-35.8 20.9zM456 288c0-4.4-3.6-8-8-8s-8 3.6-8 8v96c0 4.4 3.6 8 8 8s8-3.6 8-8V288zm-8 160a16 16 0 1 0 0-32 16 16 0 1 0 0 32z"/></svg>