<svg xmlns="http://www.w3.org/2000/svg" viewBox="0 0 640 512"><!--! Font Awesome Pro 6.4.0 by @fontawesome - https://fontawesome.com License - https://fontawesome.com/license (Commercial License) Copyright 2023 Fonticons, Inc. --><path d="M95.3 61.6c15.5-28.1 45-45.6 77.1-45.6H192h16c.9 0 1.8 .1 2.7 .2c.5 .1 1.1 .1 1.6 0c1.2-.1 2.4-.2 3.7-.2h9.3c7.6 45.4 47.1 80 94.7 80s87.1-34.6 94.7-80H424c1.2 0 2.5 .1 3.7 .2c.5 0 1.1 0 1.6 0c.9-.1 1.8-.2 2.7-.2h16 19.6c32.1 0 61.6 17.5 77.1 45.6l66.4 120.7c8.4 15.4 12.9 32.6 12.9 50.1V376c0 13.3-10.7 24-24 24H568c-13.3 0-24-10.7-24-24V232.4c0-4-1-8-3-11.6l-7 3.9 7-3.9L483.7 116.7c-1.6-3-3.6-5.7-5.9-8.1c-2.2-2.4-5.7-3.2-8.8-2s-5 4.2-5 7.4V464c0 17.7-14.3 32-32 32H208c-17.7 0-32-14.3-32-32V114.1c0-3.3-2-6.2-5.1-7.4s-6.5-.4-8.8 2c-2.3 2.4-4.3 5.2-5.9 8.1L99 220.9c-1.9 3.5-3 7.5-3 11.6V376c0 13.3-10.7 24-24 24H40c-13.3 0-24-10.7-24-24V232.4c0-17.5 4.4-34.8 12.9-50.1L95.3 61.6zM398.4 16C391 52.5 358.7 80 320 80s-71-27.5-78.4-64H398.4zM172.4 0C134.5 0 99.5 20.6 81.3 53.9L14.9 174.6C5.1 192.3 0 212.2 0 232.4V376c0 22.1 17.9 40 40 40H72c22.1 0 40-17.9 40-40V232.4c0-1.3 .3-2.7 1-3.9l47-85.5V464c0 26.5 21.5 48 48 48H432c26.5 0 48-21.5 48-48V143.1l47 85.5c.6 1.2 1 2.5 1 3.9V376c0 22.1 17.9 40 40 40h32c22.1 0 40-17.9 40-40V232.4c0-20.2-5.1-40.1-14.9-57.8L558.7 53.9C540.5 20.6 505.5 0 467.6 0H448 432c-1.2 0-2.5 .1-3.7 .2c-1.4-.1-2.9-.2-4.3-.2H216c-1.5 0-2.9 .1-4.3 .2c-1.2-.1-2.4-.2-3.7-.2H192 172.4z"/></svg>