<svg xmlns="http://www.w3.org/2000/svg" viewBox="0 0 640 512"><!--! Font Awesome Pro 6.4.0 by @fontawesome - https://fontawesome.com License - https://fontawesome.com/license (Commercial License) Copyright 2023 Fonticons, Inc. --><path d="M4.7 167.4C1.6 173.1 0 179.4 0 185.8C0 206.9 17.1 224 38.2 224H64V464c0 26.5 21.5 48 48 48H336c26.5 0 48-21.5 48-48V398.3l-16-12.6V464c0 17.7-14.3 32-32 32H112c-17.7 0-32-14.3-32-32V224h83.3L143 208H72 38.2C26 208 16 198 16 185.8c0-3.7 .9-7.4 2.7-10.7l24.9-45.6L30.8 119.5l-26.2 48zM113.5 1.3L132.2 16H515.5c11.7 0 22.5 6.4 28.1 16.7l77.7 142.4c1.8 3.3 2.7 6.9 2.7 10.7c0 12.3-10 22.2-22.2 22.2H568 375.4l20.3 16H560V353.7l16 12.6V224h25.8c21.1 0 38.2-17.1 38.2-38.2c0-6.4-1.6-12.7-4.7-18.3L557.6 25C549.2 9.6 533.1 0 515.5 0h-391c-3.7 0-7.4 .4-11 1.3zM512 315.8V256c0-4.4-3.6-8-8-8s-8 3.6-8 8v47.2l16 12.6zM304 335.1V360c0 4.4-3.6 8-8 8H152c-4.4 0-8-3.6-8-8V256c0-4.4-3.6-8-8-8s-8 3.6-8 8V360c0 13.3 10.7 24 24 24H296c13.3 0 24-10.7 24-24V347.7l-16-12.6zM13 1.7C9.5-1 4.5-.4 1.7 3S-.4 11.5 3 14.3l624 496c3.5 2.7 8.5 2.2 11.2-1.3s2.2-8.5-1.3-11.2L13 1.7z"/></svg>