<svg xmlns="http://www.w3.org/2000/svg" viewBox="0 0 512 512"><!--! Font Awesome Pro 6.4.0 by @fontawesome - https://fontawesome.com License - https://fontawesome.com/license (Commercial License) Copyright 2023 Fonticons, Inc. --><path d="M496 48V80H16V48H496zM16 32C7.2 32 0 39.2 0 48V80c0 8.8 7.2 16 16 16H496c8.8 0 16-7.2 16-16V48c0-8.8-7.2-16-16-16H16zm2.5 192L1.8 260.1C.6 262.7 0 265.5 0 268.3C0 279.2 8.8 288 19.7 288H492.3c10.9 0 19.7-8.8 19.7-19.7c0-2.8-.6-5.7-1.8-8.2L493.5 224H475.9l19.7 42.8c.2 .5 .3 1 .3 1.5c0 2-1.6 3.7-3.7 3.7H19.7c-2 0-3.7-1.6-3.7-3.7c0-.5 .1-1.1 .3-1.5L36.1 224H18.5zM1.8 356.1C.6 358.7 0 361.5 0 364.3C0 375.2 8.8 384 19.7 384H492.3c10.9 0 19.7-8.8 19.7-19.7c0-2.8-.6-5.7-1.8-8.2L493.5 320H475.9l19.7 42.8c.2 .5 .3 1 .3 1.5c0 2-1.6 3.7-3.7 3.7H19.7c-2 0-3.7-1.6-3.7-3.7c0-.5 .1-1.1 .3-1.5L36.1 320H18.5L1.8 356.1zM18.5 416L1.8 452.1C.6 454.7 0 457.5 0 460.3C0 471.2 8.8 480 19.7 480H492.3c10.9 0 19.7-8.8 19.7-19.7c0-2.8-.6-5.7-1.8-8.2L493.5 416H475.9l19.7 42.8c.2 .5 .3 1 .3 1.5c0 2-1.6 3.7-3.7 3.7H19.7c-2 0-3.7-1.6-3.7-3.7c0-.5 .1-1.1 .3-1.5L36.1 416H18.5zM1.8 164.1C.6 166.7 0 169.5 0 172.3C0 183.2 8.8 192 19.7 192H492.3c10.9 0 19.7-8.8 19.7-19.7c0-2.8-.6-5.7-1.8-8.2L493.5 128H475.9l19.7 42.8c.2 .5 .3 1 .3 1.5c0 2-1.6 3.7-3.7 3.7H19.7c-2 0-3.7-1.6-3.7-3.7c0-.5 .1-1.1 .3-1.5L36.1 128H18.5L1.8 164.1z"/></svg>