<svg xmlns="http://www.w3.org/2000/svg" viewBox="0 0 384 512"><!--! Font Awesome Pro 6.4.0 by @fontawesome - https://fontawesome.com License - https://fontawesome.com/license (Commercial License) Copyright 2023 Fonticons, Inc. --><path d="M.7 36.7C2 33.8 4.8 32 8 32H352c17.7 0 32 14.3 32 32v64c0 4.4-3.6 8-8 8s-8-3.6-8-8V64c0-8.8-7.2-16-16-16H25.8L206 250.7c2.7 3 2.7 7.6 0 10.6L25.8 464H352c8.8 0 16-7.2 16-16V384c0-4.4 3.6-8 8-8s8 3.6 8 8v64c0 17.7-14.3 32-32 32H8c-3.2 0-6-1.8-7.3-4.7s-.8-6.2 1.3-8.6L189.3 256 2 45.3C-.1 43-.6 39.6 .7 36.7z"/></svg>