<svg xmlns="http://www.w3.org/2000/svg" viewBox="0 0 512 512"><!--! Font Awesome Pro 6.4.0 by @fontawesome - https://fontawesome.com License - https://fontawesome.com/license (Commercial License) Copyright 2023 Fonticons, Inc. --><path d="M72 0c4.4 0 8 3.6 8 8V64l424 0c4.4 0 8 3.6 8 8s-3.6 8-8 8L80 80V504c0 4.4-3.6 8-8 8s-8-3.6-8-8V80H8c-4.4 0-8-3.6-8-8s3.6-8 8-8l56 0V8c0-4.4 3.6-8 8-8zm88 144c-8.8 0-16 7.2-16 16V352c0 8.8 7.2 16 16 16H448c8.8 0 16-7.2 16-16V160c0-8.8-7.2-16-16-16H160zm-32 16c0-17.7 14.3-32 32-32H448c17.7 0 32 14.3 32 32V352c0 17.7-14.3 32-32 32H160c-17.7 0-32-14.3-32-32V160z"/></svg>