<svg xmlns="http://www.w3.org/2000/svg" viewBox="0 0 640 512"><!--! Font Awesome Pro 6.4.0 by @fontawesome - https://fontawesome.com License - https://fontawesome.com/license (Commercial License) Copyright 2023 Fonticons, Inc. --><path d="M584 8c0-4.4-3.6-8-8-8s-8 3.6-8 8V360.1l16 12.6V8zM440 504c0 4.4 3.6 8 8 8s8-3.6 8-8V455.1l-16-12.6V504zm16-400c0-4.4-3.6-8-8-8s-8 3.6-8 8V259l16 12.6V104zM312 341.4V504c0 4.4 3.6 8 8 8s8-3.6 8-8V354l-16-12.6zM192 288c-4.4 0-8 3.6-8 8V504c0 4.4 3.6 8 8 8s8-3.6 8-8V296c0-4.4-3.6-8-8-8zM64 384c-4.4 0-8 3.6-8 8V504c0 4.4 3.6 8 8 8s8-3.6 8-8V392c0-4.4-3.6-8-8-8zM13 1.7C9.5-1 4.5-.4 1.7 3S-.4 11.5 3 14.3l624 496c3.5 2.7 8.5 2.2 11.2-1.3s2.2-8.5-1.3-11.2L13 1.7z"/></svg>