<svg xmlns="http://www.w3.org/2000/svg" viewBox="0 0 384 512"><!--! Font Awesome Pro 6.4.0 by @fontawesome - https://fontawesome.com License - https://fontawesome.com/license (Commercial License) Copyright 2023 Fonticons, Inc. --><path d="M16 64V448c0 26.5 21.5 48 48 48H320c26.5 0 48-21.5 48-48V154.5c0-12.7-5.1-24.9-14.1-33.9L263.4 30.1c-9-9-21.2-14.1-33.9-14.1H64C37.5 16 16 37.5 16 64zM0 448V64C0 28.7 28.7 0 64 0H229.5c17 0 33.3 6.7 45.3 18.7l90.5 90.5c12 12 18.7 28.3 18.7 45.3V448c0 35.3-28.7 64-64 64H64c-35.3 0-64-28.7-64-64zM80 288v64h72 80 72V288H232 152 80zM272 432c17.7 0 32-14.3 32-32V368H240v64h32zM112 208c-17.7 0-32 14.3-32 32v32h64V208H112zm112 64V208H160v64h64zm0 160V368H160v64h64zM80 400c0 17.7 14.3 32 32 32h32V368H80v32zM240 272h64V240c0-17.7-14.3-32-32-32H240v64zM64 400V240c0-26.5 21.5-48 48-48h32 8 8 64 8 8 32c26.5 0 48 21.5 48 48V400c0 26.5-21.5 48-48 48H240h-8-8H160h-8-8H112c-26.5 0-48-21.5-48-48z"/></svg>