<svg xmlns="http://www.w3.org/2000/svg" viewBox="0 0 448 512"><!--! Font Awesome Pro 6.4.0 by @fontawesome - https://fontawesome.com License - https://fontawesome.com/license (Commercial License) Copyright 2023 Fonticons, Inc. --><path d="M375 152.1L396 320H379.9L359.1 154c-3-24-23.4-42-47.6-42h-175c-24.2 0-44.6 18-47.6 42L68.1 320H52L73 152.1C77 120 104.2 96 136.5 96h175c32.3 0 59.5 24 63.5 56.1zM143.9 168.7L125 320H108.9l19.2-153.3c.5-4.4 4.5-7.5 8.9-6.9s7.5 4.5 6.9 8.9zM48 368c-17.7 0-32 14.3-32 32v32c0 17.7 14.3 32 32 32H400c17.7 0 32-14.3 32-32V400c0-17.7-14.3-32-32-32H48zM0 400c0-26.5 21.5-48 48-48H400c26.5 0 48 21.5 48 48v32c0 26.5-21.5 48-48 48H48c-26.5 0-48-21.5-48-48V400z"/></svg>