<svg xmlns="http://www.w3.org/2000/svg" viewBox="0 0 640 512"><!--! Font Awesome Pro 6.4.0 by @fontawesome - https://fontawesome.com License - https://fontawesome.com/license (Commercial License) Copyright 2023 Fonticons, Inc. --><path d="M328 8c0-4.4-3.6-8-8-8s-8 3.6-8 8V64H267.3c-39.3 0-75.6 22.2-91.5 58.6c-15.4 35.3-35.4 84.3-51.4 135.5C108.4 309.2 96 363.1 96 408v10.8c0 33.8 27.4 61.2 61.2 61.2c8.2 0 16.2-1.6 23.8-4.8l117.3-49.4c4.4-1.9 9.1-3.1 13.7-3.8v82c0 4.4 3.6 8 8 8s8-3.6 8-8V422c4.7 .7 9.3 1.9 13.7 3.8L459 475.2c7.5 3.2 15.6 4.8 23.8 4.8c33.8 0 61.2-27.4 61.2-61.2V408c0-44.9-12.4-98.8-28.4-149.8c-16.1-51.2-36-100.2-51.4-135.5C448.3 86.2 412 64 372.7 64H328V8zM312 80v89.9L157 212.2c11.5-31.3 23.4-60.1 33.5-83.1c13.2-30.2 43.5-49 76.9-49H312zM150.4 230.5L312 186.5v95.6L119.3 341.4c5-25.5 12.1-52.2 20.3-78.4c3.4-10.9 7-21.8 10.7-32.4zM116.2 359.1L312 298.8V405.9c-6.8 .8-13.5 2.5-19.9 5.2L174.8 460.5c-5.6 2.3-11.5 3.5-17.6 3.5c-25 0-45.2-20.3-45.2-45.2V408c0-15.2 1.5-31.7 4.2-48.9zM328 405.9V298.8l195.8 60.2c2.7 17.2 4.2 33.7 4.2 48.9v10.8c0 25-20.3 45.2-45.2 45.2c-6 0-12-1.2-17.6-3.5L347.9 411.1c-6.4-2.7-13.1-4.4-19.9-5.2zm192.7-64.5L328 282.1V186.5l161.6 44.1c3.7 10.6 7.3 21.5 10.7 32.4c8.2 26.3 15.4 52.9 20.3 78.4zM483 212.2L328 169.9V80h44.7c33.4 0 63.6 18.8 76.9 49c10.1 23 22 51.8 33.5 83.1zM0 124V232 504c0 4.4 3.6 8 8 8s8-3.6 8-8V232c0-11.5 6.7-22 17.1-26.8l51-23.6c21.8-10.1 35.8-31.9 35.8-56V124c0-33.1-26.9-60-60-60S0 90.9 0 124zm16 73.4V124c0-24.3 19.7-44 44-44s44 19.7 44 44v1.7c0 17.8-10.4 34-26.5 41.5l-51 23.6c-3.8 1.8-7.3 4-10.4 6.7zM580 64c-33.1 0-60 26.9-60 60v1.7c0 24.1 14 45.9 35.8 56l51 23.6C617.3 210 624 220.5 624 232V504c0 4.4 3.6 8 8 8s8-3.6 8-8V232 124c0-33.1-26.9-60-60-60zm33.6 126.7l-51-23.6c-16.2-7.5-26.5-23.6-26.5-41.5V124c0-24.3 19.7-44 44-44s44 19.7 44 44v73.4c-3.1-2.7-6.6-4.9-10.4-6.7z"/></svg>