<svg xmlns="http://www.w3.org/2000/svg" viewBox="0 0 640 512"><!--! Font Awesome Pro 6.4.0 by @fontawesome - https://fontawesome.com License - https://fontawesome.com/license (Commercial License) Copyright 2023 Fonticons, Inc. --><path d="M407.8 9.7c.9-4.3-1.8-8.6-6.1-9.5s-8.6 1.8-9.5 6.1L386.7 32H179.8c-15.3 0-28.5 10.8-31.4 25.9l-57 291.4c-6.8 34.6 19.7 66.8 55 66.8H440c22.1 0 40-17.9 40-40V308.4c0-15.5-9-29.7-23.1-36.2l-95.8-44.7L407.8 9.7zM279 48H383.2l-24 112H296c-4.4 0-8 3.6-8 8s3.6 8 8 8h59.8l-10.3 48H280c-4.4 0-8 3.6-8 8s3.6 8 8 8h70.2l99.9 46.6c8.4 3.9 13.8 12.4 13.8 21.7V376c0 13.3-10.7 24-24 24H146.3c-25.2 0-44.1-23-39.3-47.7l20.6-105.5c1.2 0 2.4-.2 3.6-.7c46.9-20.8 119.1-72.1 147.6-197.5c0-.2 .1-.4 .1-.6zm-16.4 0C236.3 159.8 174 207.8 131.3 228.5L164.1 60.9c1.5-7.5 8.1-12.9 15.7-12.9h82.8zM640 424c0-4.4-3.6-8-8-8s-8 3.6-8 8c0 39.8-32.2 72-72 72H8c-4.4 0-8 3.6-8 8s3.6 8 8 8H552c48.6 0 88-39.4 88-88z"/></svg>