<svg xmlns="http://www.w3.org/2000/svg" viewBox="0 0 640 512"><!--! Font Awesome Pro 6.4.0 by @fontawesome - https://fontawesome.com License - https://fontawesome.com/license (Commercial License) Copyright 2023 Fonticons, Inc. --><path d="M8 32c-4.4 0-8 3.6-8 8s3.6 8 8 8H32V256c0 70.7 57.3 128 128 128v80H40c-4.4 0-8 3.6-8 8s3.6 8 8 8H576c35.3 0 64-28.7 64-64V392c0-4.4-3.6-8-8-8s-8 3.6-8 8v24c0 26.5-21.5 48-48 48H432V384h16c70.7 0 128-57.3 128-128V112h24c4.4 0 8-3.6 8-8s-3.6-8-8-8H576 560h-8H504c-22.1 0-40 17.9-40 40v47.3c0 31.3-25.5 56.7-56.8 56.7c-83.1 0-159.8-45.7-199.2-118.9C178.4 66.2 121.1 32 58.8 32H48 32 8zM416 464H176V384H416v80zM552 112h8V256c0 61.9-50.1 112-112 112H160C98.1 368 48 317.9 48 256V48H58.8c56.5 0 108.4 31 135.2 80.7C236.1 207.1 318.2 256 407.2 256c40.1 0 72.8-32.5 72.8-72.7V136c0-13.3 10.7-24 24-24h48z"/></svg>