<svg xmlns="http://www.w3.org/2000/svg" viewBox="0 0 512 512"><!--! Font Awesome Pro 6.4.0 by @fontawesome - https://fontawesome.com License - https://fontawesome.com/license (Commercial License) Copyright 2023 Fonticons, Inc. --><path d="M240 48a32 32 0 1 0 -64 0 32 32 0 1 0 64 0zm-80 0a48 48 0 1 1 96 0 48 48 0 1 1 -96 0zM96 192H225.3c.9 5.5 2.3 10.9 4.1 16H96c-44.2 0-80 35.8-80 80V416c0 44.2 35.8 80 80 80H416c44.2 0 80-35.8 80-80V288c0-44.2-35.8-80-80-80h-5.5c1.8-5.1 3.2-10.5 4.1-16H416c53 0 96 43 96 96V416c0 53-43 96-96 96H96c-53 0-96-43-96-96V288c0-53 43-96 96-96zM80 352c0-44.2 35.8-80 80-80H320h32c44.2 0 80 35.8 80 80s-35.8 80-80 80H160c-44.2 0-80-35.8-80-80zm16 0c0 35.3 28.7 64 64 64H352c35.3 0 64-28.7 64-64s-28.7-64-64-64H160c-35.3 0-64 28.7-64 64zM384 48a16 16 0 1 0 0-32 16 16 0 1 0 0 32zm0-48a32 32 0 1 1 0 64 32 32 0 1 1 0-64zM368 176a48 48 0 1 0 -96 0 48 48 0 1 0 96 0zm-112 0a64 64 0 1 1 128 0 64 64 0 1 1 -128 0z"/></svg>