<svg xmlns="http://www.w3.org/2000/svg" viewBox="0 0 640 512"><!--! Font Awesome Pro 6.4.0 by @fontawesome - https://fontawesome.com License - https://fontawesome.com/license (Commercial License) Copyright 2023 Fonticons, Inc. --><path d="M64 0C28.7 0 0 28.7 0 64V448c0 35.3 28.7 64 64 64H280.4c-4.4-4.9-8.3-10.3-11.6-16H64c-26.5 0-48-21.5-48-48V64c0-26.5 21.5-48 48-48H268.8c3.3-5.7 7.2-11.1 11.6-16H64zM176 224c-61.9 0-112 50.1-112 112s50.1 112 112 112c31.3 0 59.7-12.9 80-33.6V389.1C238.8 415 209.4 432 176 432c-53 0-96-43-96-96s43-96 96-96c33.4 0 62.8 17 80 42.9V257.6c-20.3-20.7-48.7-33.6-80-33.6zM144 336a32 32 0 1 1 64 0 32 32 0 1 1 -64 0zm80 0a48 48 0 1 0 -96 0 48 48 0 1 0 96 0zM176 80a48 48 0 1 1 0 96 48 48 0 1 1 0-96zm0 112a64 64 0 1 0 0-128 64 64 0 1 0 0 128zM576 16c26.5 0 48 21.5 48 48V448c0 26.5-21.5 48-48 48H352c-26.5 0-48-21.5-48-48V64c0-26.5 21.5-48 48-48H576zM352 0c-35.3 0-64 28.7-64 64V448c0 35.3 28.7 64 64 64H576c35.3 0 64-28.7 64-64V64c0-35.3-28.7-64-64-64H352zM464 240a96 96 0 1 1 0 192 96 96 0 1 1 0-192zm0 208a112 112 0 1 0 0-224 112 112 0 1 0 0 224zM432 336a32 32 0 1 1 64 0 32 32 0 1 1 -64 0zm80 0a48 48 0 1 0 -96 0 48 48 0 1 0 96 0zM464 80a48 48 0 1 1 0 96 48 48 0 1 1 0-96zm0 112a64 64 0 1 0 0-128 64 64 0 1 0 0 128z"/></svg>