<svg xmlns="http://www.w3.org/2000/svg" viewBox="0 0 512 512"><!--! Font Awesome Pro 6.4.0 by @fontawesome - https://fontawesome.com License - https://fontawesome.com/license (Commercial License) Copyright 2023 Fonticons, Inc. --><path d="M96 40v80 8h16v-8V40c0-13.3 10.7-24 24-24h48c13.3 0 24 10.7 24 24v80 8h16v-8V40c0-22.1-17.9-40-40-40H136C113.9 0 96 17.9 96 40zM224 176c44.2 0 80 35.8 80 80V448c0 26.5-21.5 48-48 48H64c-26.5 0-48-21.5-48-48V256c0-44.2 35.8-80 80-80H224zM96 160c-53 0-96 43-96 96V448c0 35.3 28.7 64 64 64H256c35.3 0 64-28.7 64-64V256c0-53-43-96-96-96H96zM232 336A72 72 0 1 1 88 336a72 72 0 1 1 144 0zm-72-88a88 88 0 1 0 0 176 88 88 0 1 0 0-176zM320 48a16 16 0 1 0 -32 0 16 16 0 1 0 32 0zm80 16a16 16 0 1 0 0-32 16 16 0 1 0 0 32zM512 48a16 16 0 1 0 -32 0 16 16 0 1 0 32 0zM496 160a16 16 0 1 0 0-32 16 16 0 1 0 0 32zm16 80a16 16 0 1 0 -32 0 16 16 0 1 0 32 0zM400 160a16 16 0 1 0 0-32 16 16 0 1 0 0 32z"/></svg>