<svg xmlns="http://www.w3.org/2000/svg" viewBox="0 0 384 512"><!--! Font Awesome Pro 6.4.0 by @fontawesome - https://fontawesome.com License - https://fontawesome.com/license (Commercial License) Copyright 2023 Fonticons, Inc. --><path d="M0 0V96c0 3.6 2.5 6.8 6 7.7l122 31.8V119L16 89.8V0H0zM256 119v16.5l122-31.8c3.5-.9 6-4.1 6-7.7V0H368V89.8L256 119zM192 48c8.8 0 16 7.2 16 16V240H176V64c0-8.8 7.2-16 16-16zm32 192V64c0-17.7-14.3-32-32-32s-32 14.3-32 32V240H72c-4.4 0-8 3.6-8 8s3.6 8 8 8h96 48 96c4.4 0 8-3.6 8-8s-3.6-8-8-8H224zM144 352a16 16 0 1 0 0-32 16 16 0 1 0 0 32zM80 416a16 16 0 1 0 0-32 16 16 0 1 0 0 32zm176-80a16 16 0 1 0 -32 0 16 16 0 1 0 32 0zm-64 80a16 16 0 1 0 0-32 16 16 0 1 0 0 32zm-32 48a16 16 0 1 0 -32 0 16 16 0 1 0 32 0zm80 16a16 16 0 1 0 0-32 16 16 0 1 0 0 32zm144-16a16 16 0 1 0 -32 0 16 16 0 1 0 32 0zm-80-48a16 16 0 1 0 0-32 16 16 0 1 0 0 32zM32 464A16 16 0 1 0 0 464a16 16 0 1 0 32 0z"/></svg>