<svg xmlns="http://www.w3.org/2000/svg" viewBox="0 0 448 512"><!--! Font Awesome Pro 6.4.0 by @fontawesome - https://fontawesome.com License - https://fontawesome.com/license (Commercial License) Copyright 2023 Fonticons, Inc. --><path d="M64 48C37.5 48 16 69.5 16 96V416c0 26.5 21.5 48 48 48H384c26.5 0 48-21.5 48-48V96c0-26.5-21.5-48-48-48H64zM0 96C0 60.7 28.7 32 64 32H384c35.3 0 64 28.7 64 64V416c0 35.3-28.7 64-64 64H64c-35.3 0-64-28.7-64-64V96zm224 64c7.3 0 14.3 3 19.3 8.4L345.2 277.6c4.4 4.7 6.8 10.8 6.8 17.2c0 13.9-11.3 25.2-25.2 25.2H121.2C107.3 320 96 308.7 96 294.8c0-6.4 2.4-12.5 6.8-17.2L204.7 168.4c5-5.4 12-8.4 19.3-8.4zM121.2 304H326.8c5.1 0 9.2-4.1 9.2-9.2c0-2.3-.9-4.6-2.5-6.3L231.6 179.3c-2-2.1-4.7-3.3-7.6-3.3s-5.6 1.2-7.6 3.3L114.5 288.5c-1.6 1.7-2.5 4-2.5 6.3c0 5.1 4.1 9.2 9.2 9.2z"/></svg>