<svg xmlns="http://www.w3.org/2000/svg" viewBox="0 0 448 512"><!--! Font Awesome Pro 6.4.0 by @fontawesome - https://fontawesome.com License - https://fontawesome.com/license (Commercial License) Copyright 2023 Fonticons, Inc. --><path d="M64 48C37.5 48 16 69.5 16 96V416c0 26.5 21.5 48 48 48H384c26.5 0 48-21.5 48-48V96c0-26.5-21.5-48-48-48H64zM0 96C0 60.7 28.7 32 64 32H384c35.3 0 64 28.7 64 64V416c0 35.3-28.7 64-64 64H64c-35.3 0-64-28.7-64-64V96zm168 32H296c4.4 0 8 3.6 8 8s-3.6 8-8 8H174.4l-20.5 88.9 101.5 9.3c36.6 3.3 64.6 34 64.6 70.8c0 39.3-31.8 71.1-71.1 71.1H195.9c-26.7 0-51.7-13.4-66.5-35.5l13.3-8.9c11.9 17.7 31.9 28.5 53.2 28.5h53.1c30.4 0 55.1-24.7 55.1-55.1c0-28.5-21.7-52.3-50.1-54.9L143.3 248c-2.3-.2-4.4-1.4-5.8-3.3s-1.8-4.2-1.3-6.5l24-104c.8-3.6 4.1-6.2 7.8-6.2z"/></svg>