<svg xmlns="http://www.w3.org/2000/svg" viewBox="0 0 448 512"><!--! Font Awesome Pro 6.4.0 by @fontawesome - https://fontawesome.com License - https://fontawesome.com/license (Commercial License) Copyright 2023 Fonticons, Inc. --><path d="M64 464c-26.5 0-48-21.5-48-48V96c0-26.5 21.5-48 48-48H384c26.5 0 48 21.5 48 48V416c0 26.5-21.5 48-48 48H64zM0 416c0 35.3 28.7 64 64 64H384c35.3 0 64-28.7 64-64V96c0-35.3-28.7-64-64-64H64C28.7 32 0 60.7 0 96V416zm229.7-74.3l120-120c3.1-3.1 3.1-8.2 0-11.3s-8.2-3.1-11.3 0L224 324.7 109.7 210.3c-3.1-3.1-8.2-3.1-11.3 0s-3.1 8.2 0 11.3l120 120c3.1 3.1 8.2 3.1 11.3 0z"/></svg>