<svg xmlns="http://www.w3.org/2000/svg" viewBox="0 0 448 512"><!--! Font Awesome Pro 6.4.0 by @fontawesome - https://fontawesome.com License - https://fontawesome.com/license (Commercial License) Copyright 2023 Fonticons, Inc. --><path d="M384 48c26.5 0 48 21.5 48 48V416c0 26.5-21.5 48-48 48H64c-26.5 0-48-21.5-48-48V96c0-26.5 21.5-48 48-48H384zM64 32C28.7 32 0 60.7 0 96V416c0 35.3 28.7 64 64 64H384c35.3 0 64-28.7 64-64V96c0-35.3-28.7-64-64-64H64zm72 64c-4.4 0-8 3.6-8 8v56H104c-17.7 0-32 14.3-32 32s14.3 32 32 32h64c17.7 0 32-14.3 32-32s-14.3-32-32-32H144V104c0-4.4-3.6-8-8-8zm0 80h32c8.8 0 16 7.2 16 16s-7.2 16-16 16H104c-8.8 0-16-7.2-16-16s7.2-16 16-16h32zm0 80c-4.4 0-8 3.6-8 8V408c0 4.4 3.6 8 8 8s8-3.6 8-8V264c0-4.4-3.6-8-8-8zM320 104c0-4.4-3.6-8-8-8s-8 3.6-8 8V256H280c-17.7 0-32 14.3-32 32s14.3 32 32 32h64c17.7 0 32-14.3 32-32s-14.3-32-32-32H320V104zM280 272h32 32c8.8 0 16 7.2 16 16s-7.2 16-16 16H280c-8.8 0-16-7.2-16-16s7.2-16 16-16zm40 88c0-4.4-3.6-8-8-8s-8 3.6-8 8v48c0 4.4 3.6 8 8 8s8-3.6 8-8V360z"/></svg>