<svg xmlns="http://www.w3.org/2000/svg" viewBox="0 0 448 512"><!--! Font Awesome Pro 6.4.0 by @fontawesome - https://fontawesome.com License - https://fontawesome.com/license (Commercial License) Copyright 2023 Fonticons, Inc. --><path d="M64 48C37.5 48 16 69.5 16 96V416c0 26.5 21.5 48 48 48H384c26.5 0 48-21.5 48-48V96c0-26.5-21.5-48-48-48H64zM0 96C0 60.7 28.7 32 64 32H384c35.3 0 64 28.7 64 64V416c0 35.3-28.7 64-64 64H64c-35.3 0-64-28.7-64-64V96zm95.7 53.7L160 364l56.4-190.3c1-3.4 4.1-5.7 7.7-5.7s6.7 2.3 7.7 5.7L288 364l64.3-214.3c1.3-4.2 5.7-6.6 10-5.4s6.6 5.7 5.4 10l-72 240c-1 3.4-4.1 5.7-7.7 5.7s-6.7-2.3-7.7-5.7L224 204.2 167.7 394.3c-1 3.4-4.1 5.7-7.7 5.7s-6.7-2.3-7.7-5.7l-72-240c-1.3-4.2 1.1-8.7 5.4-10s8.7 1.1 10 5.4z"/></svg>