<svg xmlns="http://www.w3.org/2000/svg" viewBox="0 0 448 512"><!--! Font Awesome Pro 6.4.0 by @fontawesome - https://fontawesome.com License - https://fontawesome.com/license (Commercial License) Copyright 2023 Fonticons, Inc. --><path d="M384 48c26.5 0 48 21.5 48 48V416c0 26.5-21.5 48-48 48H64c-26.5 0-48-21.5-48-48V96c0-26.5 21.5-48 48-48H384zM64 32C28.7 32 0 60.7 0 96V416c0 35.3 28.7 64 64 64H384c35.3 0 64-28.7 64-64V96c0-35.3-28.7-64-64-64H64zm80 224c-17.7 0-32-14.3-32-32V208c0-17.7 14.3-32 32-32h16c17.7 0 32 14.3 32 32v8 8c0 17.7-14.3 32-32 32H144zm64-40v-8c0-26.5-21.5-48-48-48H144c-26.5 0-48 21.5-48 48v16c0 26.5 21.5 48 48 48h16c12.3 0 23.5-4.6 32-12.2v26.6c0 19.9-14.6 36.8-34.3 39.6l-14.8 2.1c-4.4 .6-7.4 4.7-6.8 9s4.7 7.4 9.1 6.8l14.8-2.1c27.6-3.9 48.1-27.6 48.1-55.4V224v-8zm80 40c-17.7 0-32-14.3-32-32V208c0-17.7 14.3-32 32-32h16c17.7 0 32 14.3 32 32v8 8c0 17.7-14.3 32-32 32H288zm64-40v-8c0-26.5-21.5-48-48-48H288c-26.5 0-48 21.5-48 48v16c0 26.5 21.5 48 48 48h16c12.3 0 23.5-4.6 32-12.2v26.6c0 19.9-14.6 36.8-34.3 39.6l-14.8 2.1c-4.4 .6-7.4 4.7-6.8 9s4.7 7.4 9.1 6.8l14.8-2.1c27.6-3.9 48.1-27.6 48.1-55.4V224v-8z"/></svg>