<svg xmlns="http://www.w3.org/2000/svg" viewBox="0 0 448 512"><!--! Font Awesome Pro 6.4.0 by @fontawesome - https://fontawesome.com License - https://fontawesome.com/license (Commercial License) Copyright 2023 Fonticons, Inc. --><path d="M384 48c26.5 0 48 21.5 48 48V416c0 26.5-21.5 48-48 48H64c-26.5 0-48-21.5-48-48V96c0-26.5 21.5-48 48-48H384zm64 48c0-35.3-28.7-64-64-64H64C28.7 32 0 60.7 0 96V416c0 35.3 28.7 64 64 64H384c35.3 0 64-28.7 64-64V96zM168 160c-4.4 0-8 3.6-8 8s3.6 8 8 8H292.7L130.3 338.3c-3.1 3.1-3.1 8.2 0 11.3s8.2 3.1 11.3 0L304 187.3V312c0 4.4 3.6 8 8 8s8-3.6 8-8V168c0-4.4-3.6-8-8-8H168z"/></svg>