<svg xmlns="http://www.w3.org/2000/svg" viewBox="0 0 448 512"><!--! Font Awesome Pro 6.4.0 by @fontawesome - https://fontawesome.com License - https://fontawesome.com/license (Commercial License) Copyright 2023 Fonticons, Inc. --><path d="M64 48C37.5 48 16 69.5 16 96V416c0 26.5 21.5 48 48 48H384c26.5 0 48-21.5 48-48V96c0-26.5-21.5-48-48-48H64zM0 96C0 60.7 28.7 32 64 32H384c35.3 0 64 28.7 64 64V416c0 35.3-28.7 64-64 64H64c-35.3 0-64-28.7-64-64V96zm110 34.7L224 259.9 338 130.7c2.9-3.3 8-3.6 11.3-.7s3.6 8 .7 11.3L232 275V376c0 4.4-3.6 8-8 8s-8-3.6-8-8V275L98 141.3c-2.9-3.3-2.6-8.4 .7-11.3s8.4-2.6 11.3 .7z"/></svg>