<svg xmlns="http://www.w3.org/2000/svg" viewBox="0 0 448 512"><!--! Font Awesome Pro 6.4.0 by @fontawesome - https://fontawesome.com License - https://fontawesome.com/license (Commercial License) Copyright 2023 Fonticons, Inc. --><path d="M64 48C37.5 48 16 69.5 16 96V416c0 26.5 21.5 48 48 48H384c26.5 0 48-21.5 48-48V96c0-26.5-21.5-48-48-48H64zM0 96C0 60.7 28.7 32 64 32H384c35.3 0 64 28.7 64 64V416c0 35.3-28.7 64-64 64H64c-35.3 0-64-28.7-64-64V96zm146.3 82.3c3.1-3.1 8.2-3.1 11.3 0L224 244.7l66.3-66.3c3.1-3.1 8.2-3.1 11.3 0s3.1 8.2 0 11.3L235.3 256l66.3 66.3c3.1 3.1 3.1 8.2 0 11.3s-8.2 3.1-11.3 0L224 267.3l-66.3 66.3c-3.1 3.1-8.2 3.1-11.3 0s-3.1-8.2 0-11.3L212.7 256l-66.3-66.3c-3.1-3.1-3.1-8.2 0-11.3z"/></svg>