<svg xmlns="http://www.w3.org/2000/svg" viewBox="0 0 640 512"><!--! Font Awesome Pro 6.4.0 by @fontawesome - https://fontawesome.com License - https://fontawesome.com/license (Commercial License) Copyright 2023 Fonticons, Inc. --><path d="M13 1.7C9.5-1 4.5-.4 1.7 3S-.4 11.5 3 14.3l624 496c3.5 2.7 8.5 2.2 11.2-1.3s2.2-8.5-1.3-11.2L13 1.7zM487.1 479.6L467.3 464H160c-26.5 0-48-21.5-48-48V183.5L96 170.9V416c0 35.3 28.7 64 64 64H480c2.4 0 4.7-.1 7.1-.4zM152.9 32.4L172.7 48H480c26.5 0 48 21.5 48 48V328.5l16 12.6V96c0-35.3-28.7-64-64-64H160c-2.4 0-4.7 .1-7.1 .4zM240 284.6V296v80c0 4.4 3.6 8 8 8s8-3.6 8-8V352 304v-6.8l-16-12.6zm192-31.9c5.1-11.2 8-23.6 8-36.7c0-48.6-39.4-88-88-88H274.1l20.3 16 57.7 0c39.8 0 72 32.2 72 72c0 9.3-1.8 18.2-5 26.4l13 10.3z"/></svg>