<svg xmlns="http://www.w3.org/2000/svg" viewBox="0 0 448 512"><!--! Font Awesome Pro 6.4.0 by @fontawesome - https://fontawesome.com License - https://fontawesome.com/license (Commercial License) Copyright 2023 Fonticons, Inc. --><path d="M64 48C37.5 48 16 69.5 16 96V416c0 26.5 21.5 48 48 48H384c26.5 0 48-21.5 48-48V96c0-26.5-21.5-48-48-48H64zM0 96C0 60.7 28.7 32 64 32H384c35.3 0 64 28.7 64 64V416c0 35.3-28.7 64-64 64H64c-35.3 0-64-28.7-64-64V96zm224 32c53 0 96 43 96 96v64c0 53-43 96-96 96s-96-43-96-96V224c0-53 43-96 96-96zm-80 96v64c0 44.2 35.8 80 80 80s80-35.8 80-80V224c0-44.2-35.8-80-80-80s-80 35.8-80 80z"/></svg>