<svg xmlns="http://www.w3.org/2000/svg" viewBox="0 0 576 512"><!--! Font Awesome Pro 6.4.0 by @fontawesome - https://fontawesome.com License - https://fontawesome.com/license (Commercial License) Copyright 2023 Fonticons, Inc. --><path d="M120 32c4.4 0 8 3.6 8 8s-3.6 8-8 8H88c-39.8 0-72 32.2-72 72v32c0 4.4-3.6 8-8 8s-8-3.6-8-8V120C0 71.4 39.4 32 88 32h32zM0 312V200c0-4.4 3.6-8 8-8s8 3.6 8 8V312c0 4.4-3.6 8-8 8s-8-3.6-8-8zm8 40c4.4 0 8 3.6 8 8v32c0 39.8 32.2 72 72 72h32c4.4 0 8 3.6 8 8s-3.6 8-8 8H88c-48.6 0-88-39.4-88-88V360c0-4.4 3.6-8 8-8zM439.7 192.2c-4.2-.2-7.7-3.6-7.7-7.8V120c0-39.8-32.2-72-72-72H328c-4.4 0-8-3.6-8-8s3.6-8 8-8h32c48.6 0 88 39.4 88 88v64.3c0 4.5-3.8 8-8.3 7.8zm-153 275.1c.9 1.2 1.3 2.7 1.3 4.2v.3c0 4.5-3.7 8.2-8.2 8.2H168c-4.4 0-8-3.6-8-8s3.6-8 8-8H280.5c2.5 0 4.8 1.3 6.2 3.3zM280 48H168c-4.4 0-8-3.6-8-8s3.6-8 8-8H280c4.4 0 8 3.6 8 8s-3.6 8-8 8zM560 368a128 128 0 1 0 -256 0 128 128 0 1 0 256 0zm-272 0a144 144 0 1 1 288 0 144 144 0 1 1 -288 0zm152-72v64h64c4.4 0 8 3.6 8 8s-3.6 8-8 8H440v64c0 4.4-3.6 8-8 8s-8-3.6-8-8V376H360c-4.4 0-8-3.6-8-8s3.6-8 8-8h64V296c0-4.4 3.6-8 8-8s8 3.6 8 8z"/></svg>