<svg xmlns="http://www.w3.org/2000/svg" viewBox="0 0 512 512"><!--! Font Awesome Pro 6.4.0 by @fontawesome - https://fontawesome.com License - https://fontawesome.com/license (Commercial License) Copyright 2023 Fonticons, Inc. --><path d="M140.3 16C71.6 16 16 71.6 16 140.3s55.6 124.3 124.3 124.3c13.1 0 25.2 7.1 31.5 18.6c7.9 14.3 4.5 31.1-4 43.2c-12.3 17.5-19.6 38.9-19.6 61.9C148.3 447.8 196.5 496 256 496H361.2c42 0 76-34 76-76s-34-76-76-76c-8 0-15.6 1.2-22.8 3.5c-4.2 1.3-8.7-1-10-5.2s1-8.7 5.2-10c8.7-2.7 18-4.2 27.6-4.2c17.1 0 33.1 4.7 46.8 12.8V240c0-4.4 3.6-8 8-8h16.5c25.6 0 48.7-15.3 58.8-38.8l4.5-10.5-.6-5.9C491.6 140 460.6 112 423.6 112H408c-4.4 0-8-3.6-8-8V80c-13.3 0-24 10.7-24 24c0 4.4-3.6 8-8 8s-8-3.6-8-8c0-13.3-10.7-24-24-24V96v8 44.2c0 37.9-6.8 64.1-20.2 87.9c-11.4 20.4-27.6 39-47.2 61.6c-2.8 3.2-5.7 6.6-8.7 10l-11.2 13C233 338.9 224 367.1 224 392c0 4.4-3.6 8-8 8s-8-3.6-8-8c0-28.1 10-60.2 28.6-81.8l11.2-13c3-3.5 5.9-6.8 8.7-10l0 0c19.8-22.8 34.8-40 45.3-58.9c11.8-21.1 18.1-44.4 18.1-80.1V104 96 80c0-8.8 7.2-16 16-16c13.1 0 24.7 6.3 32 16c7.3-9.7 18.9-16 32-16c8.8 0 16 7.2 16 16V96h7.6c45.2 0 83.1 34.3 87.6 79.2l.8 8c.1 1.3-.1 2.7-.6 3.9l-5.3 12.4c-12.6 29.4-41.5 48.5-73.5 48.5H424V352h-.8c18.5 16.8 30 41.1 30 68c0 31.6-15.9 59.4-40.1 76H472c4.4 0 8 3.6 8 8s-3.6 8-8 8H361.2 256c-68.3 0-123.7-55.4-123.7-123.7c0-26.5 8.3-51 22.5-71.1c6-8.5 7.2-18.6 3-26.3c-3.5-6.4-10.2-10.3-17.5-10.3C62.8 280.5 0 217.7 0 140.3S62.8 0 140.3 0s140.3 62.8 140.3 140.3v33.1c0 4.4-3.6 8-8 8s-8-3.6-8-8V140.3C264.5 71.6 208.9 16 140.3 16zM416 144a16 16 0 1 1 0 32 16 16 0 1 1 0-32z"/></svg>