<svg xmlns="http://www.w3.org/2000/svg" viewBox="0 0 512 512"><!--! Font Awesome Pro 6.4.0 by @fontawesome - https://fontawesome.com License - https://fontawesome.com/license (Commercial License) Copyright 2023 Fonticons, Inc. --><path d="M336 96c0-44.2-35.8-80-80-80s-80 35.8-80 80c0 14.1 3.6 27.2 10 38.7c9.6 17.4 22 39.8 22 65.1c0 48.7-39.5 88.2-88.2 88.2H112c-53 0-96 43-96 96c0 8.8 7.2 16 16 16H480c8.8 0 16-7.2 16-16c0-53-43-96-96-96h-7.8c-48.7 0-88.2-39.5-88.2-88.2c0-25.3 12.4-47.7 22-65.1l14 7.8-14-7.8c6.3-11.5 10-24.6 10-38.7zm4 46.5c-9.9 18-20 36.8-20 57.4c0 39.9 32.3 72.2 72.2 72.2H400c61.9 0 112 50.1 112 112c0 17.7-14.3 32-32 32H32c-17.7 0-32-14.3-32-32c0-61.9 50.1-112 112-112h7.8c39.9 0 72.2-32.3 72.2-72.2c0-20.5-10.1-39.4-20-57.4c-7.6-13.8-12-29.6-12-46.5c0-53 43-96 96-96s96 43 96 96c0 16.9-4.3 32.7-12 46.5zM48 456v16c0 13.3 10.7 24 24 24H440c13.3 0 24-10.7 24-24V456c0-4.4 3.6-8 8-8s8 3.6 8 8v16c0 22.1-17.9 40-40 40H72c-22.1 0-40-17.9-40-40V456c0-4.4 3.6-8 8-8s8 3.6 8 8z"/></svg>