<svg xmlns="http://www.w3.org/2000/svg" viewBox="0 0 640 512"><!--! Font Awesome Pro 6.4.0 by @fontawesome - https://fontawesome.com License - https://fontawesome.com/license (Commercial License) Copyright 2023 Fonticons, Inc. --><path d="M448 352v64H64c-17.7 0-32 14.3-32 32s14.3 32 32 32H592c26.5 0 48-21.5 48-48v-8-8V336 320v-4.7c0-36.4-20.5-69.6-53.1-85.9L260.7 66.4C236.6 54.3 209.9 48 182.9 48C128.2 48 76.7 73.8 43.8 117.6l-35.2 47C3 172 0 181 0 190.4c0 19.8 13.5 37 32.6 41.8L48 236v92c0 13.3 10.7 24 24 24H448zm0-16H72c-4.4 0-8-3.6-8-8V240l384 96zm176 80H464V336c0-7.3-5-13.7-12.1-15.5L36.5 216.6c-12.1-3-20.5-13.8-20.5-26.3c0-5.9 1.9-11.6 5.4-16.3l35.2-47C86.5 87.4 133.2 64 182.9 64c24.5 0 48.7 5.7 70.6 16.7L579.8 243.8C606.9 257.3 624 285 624 315.3V320v16 80zM464 432H624c0 17.7-14.3 32-32 32H64c-8.8 0-16-7.2-16-16s7.2-16 16-16H448h16z"/></svg>