<svg xmlns="http://www.w3.org/2000/svg" viewBox="0 0 512 512"><!--! Font Awesome Pro 6.4.0 by @fontawesome - https://fontawesome.com License - https://fontawesome.com/license (Commercial License) Copyright 2023 Fonticons, Inc. --><path d="M256 0c14.9 0 28.8 7.7 36.6 20.5L348.7 112H458.6c20.7 0 37.4 16.8 37.4 37.4c0 6.9-1.9 13.7-5.5 19.6l-53.4 87 53.4 87c3.6 5.9 5.5 12.7 5.5 19.6c0 20.7-16.8 37.4-37.4 37.4H348.7l-56.2 91.5C284.8 504.3 270.9 512 256 512s-28.8-7.7-36.6-20.5L163.3 400H53.4C32.8 400 16 383.2 16 362.6c0-6.9 1.9-13.7 5.5-19.6l53.4-87L21.5 169c-3.6-5.9-5.5-12.7-5.5-19.6C16 128.8 32.8 112 53.4 112H163.3l56.2-91.5C227.2 7.7 241.1 0 256 0zM153.5 128H53.4C41.6 128 32 137.6 32 149.4c0 4 1.1 7.8 3.2 11.2l49.1 80.1L153.5 128zM93.7 256l78.5 128H339.8l78.5-128L339.8 128H172.2L93.7 256zm-9.4 15.3L35.2 351.4c-2.1 3.4-3.2 7.3-3.2 11.2c0 11.8 9.6 21.4 21.4 21.4h100L84.3 271.3zM182 400l51 83.2c4.9 8 13.6 12.8 22.9 12.8s18-4.9 22.9-12.8L330 400H182zm176.5-16h100c11.8 0 21.4-9.6 21.4-21.4c0-4-1.1-7.8-3.2-11.2l-49.1-80.1L358.5 384zm69.2-143.3l49.1-80.1c2.1-3.4 3.2-7.3 3.2-11.2c0-11.8-9.6-21.4-21.4-21.4h-100l69.2 112.7zM330 112l-51-83.2C274 20.9 265.3 16 256 16s-18 4.9-22.9 12.8L182 112H330z"/></svg>