<svg xmlns="http://www.w3.org/2000/svg" viewBox="0 0 576 512"><!--! Font Awesome Pro 6.4.0 by @fontawesome - https://fontawesome.com License - https://fontawesome.com/license (Commercial License) Copyright 2023 Fonticons, Inc. --><path d="M16 40c0-4.4-3.6-8-8-8s-8 3.6-8 8V209.6 216v80 6.4V472c0 4.4 3.6 8 8 8s8-3.6 8-8V306l133.2 29.6C176.8 383.6 228.6 416 288 416s111.2-32.4 138.8-80.4L560 306V472c0 4.4 3.6 8 8 8s8-3.6 8-8V302.4 296 216v-6.4V40c0-4.4-3.6-8-8-8s-8 3.6-8 8V206L426.8 176.4C399.2 128.4 347.4 96 288 96s-111.2 32.4-138.8 80.4L16 206V40zM435.9 194.8L560 222.4v67.2L435.9 317.2c7.8-18.8 12.1-39.5 12.1-61.2s-4.3-42.3-12.1-61.2zM140.1 317.2L16 289.6V222.4l124.1-27.6C132.3 213.7 128 234.3 128 256s4.3 42.3 12.1 61.2zM288 112a144 144 0 1 1 0 288 144 144 0 1 1 0-288zM257 263.9a32 32 0 1 1 62-15.9 32 32 0 1 1 -62 15.9zm3.2 31.2c5.8 4.1 12.5 7 19.8 8.2v48.3c-20.5-1.7-39.2-9.8-54-22.4l34.2-34.2zM350 329.3c-14.8 12.5-33.5 20.7-54 22.4V303.3c7.3-1.2 14-4.1 19.8-8.2L350 329.3zM383.7 264c-1.7 20.5-9.8 39.2-22.4 54l-34.2-34.2c4.1-5.8 7-12.5 8.2-19.8h48.3zm-48.3-16c-1.2-7.3-4.1-14-8.2-19.8L361.3 194c12.5 14.8 20.7 33.5 22.4 54H335.3zM296 160.3c20.5 1.7 39.2 9.8 54 22.4l-34.2 34.2c-5.8-4.1-12.5-7-19.8-8.2V160.3zm-16 48.3c-7.3 1.2-14 4.1-19.8 8.2L226 182.7c14.8-12.5 33.5-20.7 54-22.4v48.3zm-31.1 19.5c-4.1 5.8-7 12.5-8.2 19.8H192.3c1.7-20.5 9.8-39.2 22.4-54l34.2 34.2zm0 55.6L214.7 318c-12.5-14.8-20.7-33.5-22.4-54h48.3c1.2 7.3 4.1 14 8.2 19.8zM288 368a112 112 0 1 0 0-224 112 112 0 1 0 0 224z"/></svg>