<svg xmlns="http://www.w3.org/2000/svg" viewBox="0 0 640 512"><!--! Font Awesome Pro 6.4.0 by @fontawesome - https://fontawesome.com License - https://fontawesome.com/license (Commercial License) Copyright 2023 Fonticons, Inc. --><path d="M232.1 170.7L78.8 193.3c-3 .4-5.5 2.5-6.4 5.4s-.2 6 2 8.2L63.2 218.1l11.2-11.3L185.5 317c3.7 3.7 5.4 8.9 4.5 14L163.8 486.6c-.5 3 .7 6 3.2 7.8s5.8 2 8.4 .6L312 422V22L244.1 161.8c-2.3 4.8-6.8 8.1-12.1 8.8zM328 422.1L464.4 495c2.7 1.4 6 1.2 8.4-.6s3.7-4.8 3.2-7.8L449.9 331c-.9-5.1 .8-10.4 4.5-14L565.5 206.9c2.2-2.1 2.9-5.3 2-8.2s-3.4-5-6.4-5.4L407.8 170.7c-5.2-.8-9.7-4.1-12.1-8.8L328 22.3V422.1zm154.2 85.3c-7.4 5.3-17.3 6-25.3 1.7l-137-73.2L183 509.1c-8.1 4.3-17.9 3.7-25.3-1.7s-11.2-14.5-9.7-23.5l26.2-155.6L63.1 218.2c-6.5-6.4-8.7-15.9-5.9-24.5s10.3-14.9 19.3-16.3l153.2-22.6L298.3 13.5C302.4 5.2 310.7 0 319.9 0s17.6 5.2 21.6 13.5l68.6 141.3 153.2 22.6c9 1.3 16.5 7.6 19.3 16.3s.5 18.1-5.9 24.5L465.6 328.4l26.2 155.6c1.5 9-2.2 18.1-9.7 23.5z"/></svg>