<svg xmlns="http://www.w3.org/2000/svg" viewBox="0 0 640 512"><!--! Font Awesome Pro 6.4.0 by @fontawesome - https://fontawesome.com License - https://fontawesome.com/license (Commercial License) Copyright 2023 Fonticons, Inc. --><path d="M277.1 27.3L240.3 277.7c-.2 1.2-.3 2.3-.3 3.5V440c0 22.1 17.9 40 40 40h80c22.1 0 40-17.9 40-40V281.2c0-1.2-.1-2.3-.3-3.5L362.9 27.3C360.6 11.6 347.1 0 331.3 0H308.7c-15.9 0-29.3 11.6-31.7 27.3zM308.7 16h22.5c7.9 0 14.7 5.8 15.8 13.7L383.9 280c.1 .4 .1 .8 .1 1.2V440c0 13.3-10.7 24-24 24H280c-13.3 0-24-10.7-24-24V281.2c0-.4 0-.8 .1-1.2L292.9 29.7c1.2-7.9 7.9-13.7 15.8-13.7zM608 96c0-4.4-3.6-8-8-8s-8 3.6-8 8v32H576c-4.4 0-8 3.6-8 8s3.6 8 8 8h16V320H512v-8c0-22.1-17.9-40-40-40H440c-4.4 0-8 3.6-8 8s3.6 8 8 8h32c13.3 0 24 10.7 24 24v8 16V440c0 13.3-10.7 24-24 24H440c-4.4 0-8 3.6-8 8v32c0 4.4 3.6 8 8 8s8-3.6 8-8V480h24c17 0 31.5-10.6 37.3-25.5L592 420v28c0 4.4 3.6 8 8 8s8-3.6 8-8V144h16c4.4 0 8-3.6 8-8s-3.6-8-8-8H608V96zM512 336h80v66.7L512 436V336zM320 232c13.3 0 24 10.7 24 24v48c0 4.4-3.6 8-8 8H304c-4.4 0-8-3.6-8-8V256c0-13.3 10.7-24 24-24zm-40 24v48c0 13.3 10.7 24 24 24h32c13.3 0 24-10.7 24-24V256c0-22.1-17.9-40-40-40s-40 17.9-40 40zM32 96v32H16c-4.4 0-8 3.6-8 8s3.6 8 8 8H32V448c0 4.4 3.6 8 8 8s8-3.6 8-8V420l82.7 34.5C136.5 469.4 151 480 168 480h24v24c0 4.4 3.6 8 8 8s8-3.6 8-8V472c0-4.4-3.6-8-8-8H168c-13.3 0-24-10.7-24-24V336 320v-8c0-13.3 10.7-24 24-24h32c4.4 0 8-3.6 8-8s-3.6-8-8-8H168c-22.1 0-40 17.9-40 40v8H48V144H64c4.4 0 8-3.6 8-8s-3.6-8-8-8H48V96c0-4.4-3.6-8-8-8s-8 3.6-8 8zm96 240V436L48 402.7V336h80z"/></svg>