<svg xmlns="http://www.w3.org/2000/svg" viewBox="0 0 640 512"><!--! Font Awesome Pro 6.4.0 by @fontawesome - https://fontawesome.com License - https://fontawesome.com/license (Commercial License) Copyright 2023 Fonticons, Inc. --><path d="M534.1 112.4l0 0c9.7 15.4 11.9 32.8 8.3 48.6c5.3 .7 10.6 1.7 15.6 3.2c4.4-19.8 1.5-41.5-10.4-60.3L490.3 13.1C485.2 5 476.1 0 466.4 0H109.6C99.9 0 90.8 5 85.7 13.1L28.3 103.8c-26.5 42-8.2 98.6 35.7 115.3V264 376v64c0 39.8 32.2 72 72 72H392.6c-2.9-5-5.1-10.3-6.5-16H136c-30.9 0-56-25.1-56-56V376 264 223.2l.2 0c4 .5 8.1 .8 12.1 .8c20.3 0 38.7-6.8 53.4-18.1c4.3-3.3 8.2-6.9 11.8-10.9c3.6 3.9 7.5 7.6 11.8 10.8C184 217.2 202.5 224 222.7 224c20.3 0 38.7-6.8 53.4-18.1c4.3-3.3 8.2-6.9 11.8-10.9c3.6 3.9 7.5 7.6 11.8 10.8c14.7 11.3 33.2 18.1 53.4 18.1c20.3 0 38.8-6.8 53.4-18.1c4.3-3.3 8.2-6.9 11.8-10.9c3.6 3.9 7.5 7.6 11.8 10.8c1.6 1.3 3.3 2.5 5 3.6c3-4.5 6.3-8.7 9.9-12.6c-5.5-3.5-10.5-7.7-14.9-12.5c-3-3.3-7.3-5.2-11.9-5.2s-8.8 1.9-11.8 5.3c-13 14.4-31.9 23.7-53.3 23.7c-21.3 0-40.3-9.3-53.3-23.7c-3-3.4-7.3-5.3-11.9-5.3s-8.8 1.9-11.9 5.3c-13 14.4-31.9 23.7-53.3 23.7c-21.3 0-40.3-9.3-53.3-23.7c-3-3.4-7.3-5.3-11.9-5.3s-8.8 1.9-11.9 5.3c-13 14.4-31.9 23.7-53.3 23.7c-3.3 0-6.7-.2-10-.7c-42.3-5.7-64.6-56.8-40.5-95l0 0L99.2 21.7l0 0 0-.1c2.1-3.4 6.1-5.6 10.4-5.6H466.4c4.3 0 8.2 2.2 10.4 5.6l0 .1 57.3 90.7zM384 384V368H152c-4.4 0-8-3.6-8-8V256c0-4.4-3.6-8-8-8s-8 3.6-8 8V360c0 13.3 10.7 24 24 24H384zM528 208c26.5 0 48 21.5 48 48v64H480V256c0-26.5 21.5-48 48-48zm-64 48v64H448c-17.7 0-32 14.3-32 32V480c0 17.7 14.3 32 32 32H608c17.7 0 32-14.3 32-32V352c0-17.7-14.3-32-32-32H592V256c0-35.3-28.7-64-64-64s-64 28.7-64 64zm-16 80h16 16 96 16 16c8.8 0 16 7.2 16 16V480c0 8.8-7.2 16-16 16H448c-8.8 0-16-7.2-16-16V352c0-8.8 7.2-16 16-16z"/></svg>