<svg xmlns="http://www.w3.org/2000/svg" viewBox="0 0 512 512"><!--! Font Awesome Pro 6.4.0 by @fontawesome - https://fontawesome.com License - https://fontawesome.com/license (Commercial License) Copyright 2023 Fonticons, Inc. --><path d="M8 64c-4.4 0-8 3.6-8 8s3.6 8 8 8H36L166.1 256 36 432H8c-4.4 0-8 3.6-8 8s3.6 8 8 8H40c2.5 0 4.9-1.2 6.4-3.2L176 269.5 305.6 444.8c1.5 2 3.9 3.2 6.4 3.2h32c4.4 0 8-3.6 8-8s-3.6-8-8-8H316L185.9 256 316 80h28c4.4 0 8-3.6 8-8s-3.6-8-8-8H312c-2.5 0-4.9 1.2-6.4 3.2L176 242.5 46.4 67.2c-1.5-2-3.9-3.2-6.4-3.2H8zM464 360c0-2.7-1.3-5.1-3.5-6.6s-5-1.8-7.5-.8l-40 16c-4.1 1.6-6.1 6.3-4.5 10.4s6.3 6.1 10.4 4.5l29-11.6V496H416c-4.4 0-8 3.6-8 8s3.6 8 8 8h40 40c4.4 0 8-3.6 8-8s-3.6-8-8-8H464V360z"/></svg>