<svg xmlns="http://www.w3.org/2000/svg" viewBox="0 0 384 512"><!--! Font Awesome Pro 6.4.0 by @fontawesome - https://fontawesome.com License - https://fontawesome.com/license (Commercial License) Copyright 2023 Fonticons, Inc. --><path d="M112 40v88H272V40c0-13.3-10.7-24-24-24H136c-13.3 0-24 10.7-24 24zM96 128V40c0-22.1 17.9-40 40-40H248c22.1 0 40 17.9 40 40v88h32c35.3 0 64 28.7 64 64V416c0 35.3-28.7 64-64 64c0 17.7-14.3 32-32 32s-32-14.3-32-32H128c0 17.7-14.3 32-32 32s-32-14.3-32-32c-35.3 0-64-28.7-64-64V192c0-35.3 28.7-64 64-64H96zM80 480c0 8.8 7.2 16 16 16s16-7.2 16-16H80zm-8-16h48H264h48 8c26.5 0 48-21.5 48-48V192c0-26.5-21.5-48-48-48H280 104 64c-26.5 0-48 21.5-48 48V416c0 26.5 21.5 48 48 48h8zm200 16c0 8.8 7.2 16 16 16s16-7.2 16-16H272zM80 248c0-4.4 3.6-8 8-8H296c4.4 0 8 3.6 8 8s-3.6 8-8 8H88c-4.4 0-8-3.6-8-8zm0 112c0-4.4 3.6-8 8-8H296c4.4 0 8 3.6 8 8s-3.6 8-8 8H88c-4.4 0-8-3.6-8-8z"/></svg>