<svg xmlns="http://www.w3.org/2000/svg" viewBox="0 0 512 512"><!--! Font Awesome Pro 6.4.0 by @fontawesome - https://fontawesome.com License - https://fontawesome.com/license (Commercial License) Copyright 2023 Fonticons, Inc. --><path d="M0 416c0 53 43 96 96 96s96-43 96-96V40c0-22.1-17.9-40-40-40H40C17.9 0 0 17.9 0 40V416zm96 80c-44.2 0-80-35.8-80-80L16 40c0-13.3 10.7-24 24-24l112 0c13.3 0 24 10.7 24 24V416c0 44.2-35.8 80-80 80zm376 16c22.1 0 40-17.9 40-40V360c0-22.1-17.9-40-40-40H357.9l-16 16H472c13.3 0 24 10.7 24 24V472c0 13.3-10.7 24-24 24H195.9c-4.6 5.8-9.7 11.1-15.3 16H472zM223.8 423.3L430.3 216.7c15.6-15.6 15.6-40.9 0-56.6L351.1 81c-15.6-15.6-40.9-15.6-56.6 0L224 151.5v22.6l81.9-81.9c9.4-9.4 24.6-9.4 33.9 0L419 171.5c9.4 9.4 9.4 24.6 0 33.9l-195 195V416c0 2.4-.1 4.9-.2 7.3zM120 48H72C58.7 48 48 58.7 48 72v48c0 13.3 10.7 24 24 24h48c13.3 0 24-10.7 24-24V72c0-13.3-10.7-24-24-24zM64 72c0-4.4 3.6-8 8-8h48c4.4 0 8 3.6 8 8v48c0 4.4-3.6 8-8 8H72c-4.4 0-8-3.6-8-8V72zm8 104c-13.3 0-24 10.7-24 24v48c0 13.3 10.7 24 24 24h48c13.3 0 24-10.7 24-24V200c0-13.3-10.7-24-24-24H72zm0 16h48c4.4 0 8 3.6 8 8v48c0 4.4-3.6 8-8 8H72c-4.4 0-8-3.6-8-8V200c0-4.4 3.6-8 8-8zm40 224a16 16 0 1 1 -32 0 16 16 0 1 1 32 0zM96 384a32 32 0 1 0 0 64 32 32 0 1 0 0-64z"/></svg>