<svg xmlns="http://www.w3.org/2000/svg" viewBox="0 0 640 512"><!--! Font Awesome Pro 6.4.0 by @fontawesome - https://fontawesome.com License - https://fontawesome.com/license (Commercial License) Copyright 2023 Fonticons, Inc. --><path d="M384 184v8.7L166.6 5.6C162.3 2 156.9 0 151.3 0C138.4 0 128 10.4 128 23.3c0 5.6 2 11 5.6 15.2L384 329.5v1.2c0 10.6 4.2 20.8 11.7 28.3l54.6 54.6 0 0 87.5 87.5c6.9 6.9 16.3 10.8 26.1 10.8s19.2-3.9 26.1-10.8l39-39c6.9-6.9 10.8-16.3 10.8-26.1s-3.9-19.2-10.8-26.1l-87.5-87.5 0 0 0 0-144-144c-2.3-2.3-5.7-3-8.7-1.7s-4.9 4.2-4.9 7.4zM156.1 17.8L166.6 5.6 156.1 17.8 384 213.9V305L145.8 28.1c-1.1-1.3-1.8-3-1.8-4.8c0-4.1 3.3-7.3 7.3-7.3c1.8 0 3.5 .6 4.8 1.8zM407 347.7c-4.5-4.5-7-10.6-7-17V203.3L524.7 328l-34.3 34.3L456 396.7l-49-49zm129-8.4l81.9 81.9c3.9 3.9 6.1 9.3 6.1 14.8s-2.2 10.9-6.1 14.8L604 464.7 507.3 368 536 339.3zM592.7 476l-13.9 13.9c-3.9 3.9-9.3 6.1-14.8 6.1s-10.9-2.2-14.8-6.1L467.3 408 496 379.3 592.7 476zM492.7 37.7L392 152c6 0 11.9 1.7 17 4.9L504.8 48.2c4.7-5.3 7.2-12.1 7.2-19.2c0-16-13-29-29-29c-7.1 0-13.9 2.6-19.2 7.2L336 119.8l12.2 10.5L474.3 19.3c2.4-2.1 5.4-3.3 8.6-3.3c7.2 0 13 5.8 13 13c0 3.2-1.2 6.2-3.3 8.6zM294.7 262.5l-39.7 45.1-50.5-50.5 48.7-42.9L242.7 202l-49.6 43.7-11.4-11.4c-3.1-3.1-8.2-3.1-11.3 0s-3.1 8.2 0 11.3L180.7 256 112 324.7l-2.3-2.3c-3.1-3.1-8.2-3.1-11.3 0L13.7 407C4.9 415.8 0 427.6 0 440s4.9 24.2 13.7 33L39 498.3c8.7 8.7 20.6 13.7 33 13.7s24.2-4.9 33-13.7l84.7-84.7c3.1-3.1 3.1-8.2 0-11.3l-2.3-2.3L256 331.3l10.3 10.3c3.1 3.1 8.2 3.1 11.3 0s3.1-8.2 0-11.3l-11.4-11.4 38.9-44.2-10.5-12.2zM192 267.3L244.7 320 216 348.7l-2.3-2.3-48-48-2.3-2.3L192 267.3zM123.3 336L152 307.3l2.3 2.3 48 48 2.3 2.3L176 388.7 123.3 336zM25 418.3l79-79 2.3 2.3 64 64 2.3 2.3-79 79c-5.7 5.7-13.5 9-21.7 9s-15.9-3.2-21.7-9L25 461.7c-5.7-5.7-9-13.5-9-21.7s3.2-15.9 9-21.7z"/></svg>