<svg xmlns="http://www.w3.org/2000/svg" viewBox="0 0 512 512"><!--! Font Awesome Pro 6.4.0 by @fontawesome - https://fontawesome.com License - https://fontawesome.com/license (Commercial License) Copyright 2023 Fonticons, Inc. --><path d="M64 72c0-4.4 3.6-8 8-8H440c4.4 0 8 3.6 8 8s-3.6 8-8 8H328.7L403 256H504c4.4 0 8 3.6 8 8s-3.6 8-8 8l-94.2 0H392.4l-272.8 0 0 0H102.2l0 0H8c-4.4 0-8-3.6-8-8s3.6-8 8-8H109L183.3 80H72c-4.4 0-8-3.6-8-8zm136 8c0 1-.2 2.1-.6 3.1L126.4 256H385.6l-73-172.9c-.4-1-.6-2.1-.6-3.1H200zM88.7 304h17.4L47.4 443.1c-1.7 4.1-6.4 6-10.5 4.3s-6-6.4-4.3-10.5L88.7 304zm334.5 0l56.1 132.9c1.7 4.1-.2 8.8-4.3 10.5s-8.8-.2-10.5-4.3L405.9 304h17.4z"/></svg>