<svg xmlns="http://www.w3.org/2000/svg" viewBox="0 0 512 512"><!--! Font Awesome Pro 6.4.0 by @fontawesome - https://fontawesome.com License - https://fontawesome.com/license (Commercial License) Copyright 2023 Fonticons, Inc. --><path d="M264 48V248H496V96c0-26.5-21.5-48-48-48H264zm-16 0H64C37.5 48 16 69.5 16 96V248H248V48zM16 264V416c0 26.5 21.5 48 48 48H248V264H16zM264 464H448c26.5 0 48-21.5 48-48V264H264V464zM0 96C0 60.7 28.7 32 64 32H448c35.3 0 64 28.7 64 64V416c0 35.3-28.7 64-64 64H64c-35.3 0-64-28.7-64-64V96z"/></svg>