<svg xmlns="http://www.w3.org/2000/svg" viewBox="0 0 512 512"><!--! Font Awesome Pro 6.4.0 by @fontawesome - https://fontawesome.com License - https://fontawesome.com/license (Commercial License) Copyright 2023 Fonticons, Inc. --><path d="M352 48V176H496V96c0-26.5-21.5-48-48-48H352zm-16 0H176V176H336V48zM160 48H64C37.5 48 16 69.5 16 96v80H160V48zM16 192V320H160V192H16zm0 144v80c0 26.5 21.5 48 48 48h96V336H16zM176 464H336V336H176V464zm176 0h96c26.5 0 48-21.5 48-48V336H352V464zM496 320V192H352V320H496zM0 96C0 60.7 28.7 32 64 32H448c35.3 0 64 28.7 64 64V416c0 35.3-28.7 64-64 64H64c-35.3 0-64-28.7-64-64V96zM176 320H336V192H176V320z"/></svg>