<svg xmlns="http://www.w3.org/2000/svg" viewBox="0 0 448 512"><!--! Font Awesome Pro 6.4.0 by @fontawesome - https://fontawesome.com License - https://fontawesome.com/license (Commercial License) Copyright 2023 Fonticons, Inc. --><path d="M384 16c26.5 0 48 21.5 48 48V384H16V64c0-26.5 21.5-48 48-48H384zm48 384v48c0 26.5-21.5 48-48 48H64c-26.5 0-48-21.5-48-48V400H432zM64 0C28.7 0 0 28.7 0 64V448c0 35.3 28.7 64 64 64H384c35.3 0 64-28.7 64-64V64c0-35.3-28.7-64-64-64H64zM168 448c0 4.4 3.6 8 8 8h96c4.4 0 8-3.6 8-8s-3.6-8-8-8H176c-4.4 0-8 3.6-8 8z"/></svg>