<svg xmlns="http://www.w3.org/2000/svg" viewBox="0 0 512 512"><!--! Font Awesome Pro 6.4.0 by @fontawesome - https://fontawesome.com License - https://fontawesome.com/license (Commercial License) Copyright 2023 Fonticons, Inc. --><path d="M64 48C37.5 48 16 69.5 16 96v64H496V96c0-26.5-21.5-48-48-48H64zM16 176V416c0 26.5 21.5 48 48 48H448c26.5 0 48-21.5 48-48V176H112v72c0 13.3 10.7 24 24 24h48c4.4 0 8 3.6 8 8s-3.6 8-8 8H136c-9 0-17.3-3-24-8v64c0 13.3 10.7 24 24 24H248c4.4 0 8 3.6 8 8s-3.6 8-8 8H136c-22.1 0-40-17.9-40-40V248 176H16zM0 96C0 60.7 28.7 32 64 32H448c35.3 0 64 28.7 64 64V416c0 35.3-28.7 64-64 64H64c-35.3 0-64-28.7-64-64V96zM224 280c0-4.4 3.6-8 8-8H408c4.4 0 8 3.6 8 8s-3.6 8-8 8H232c-4.4 0-8-3.6-8-8zm72 88H408c4.4 0 8 3.6 8 8s-3.6 8-8 8H296c-4.4 0-8-3.6-8-8s3.6-8 8-8z"/></svg>