<svg xmlns="http://www.w3.org/2000/svg" viewBox="0 0 512 512"><!--! Font Awesome Pro 6.4.0 by @fontawesome - https://fontawesome.com License - https://fontawesome.com/license (Commercial License) Copyright 2023 Fonticons, Inc. --><path d="M64 48C37.5 48 16 69.5 16 96v64H128V48H64zM16 176V416c0 26.5 21.5 48 48 48h64V176H16zm128 0V464H448c26.5 0 48-21.5 48-48V176H144zm352-16V96c0-26.5-21.5-48-48-48H144V160H496zM0 96C0 60.7 28.7 32 64 32H448c35.3 0 64 28.7 64 64V416c0 35.3-28.7 64-64 64H64c-35.3 0-64-28.7-64-64V96zM445.7 285.7c-3.1 3.1-8.2 3.1-11.3 0L408 259.3V336c0 22.1-17.9 40-40 40H291.3l26.3 26.3c3.1 3.1 3.1 8.2 0 11.3s-8.2 3.1-11.3 0l-40-40c-3.1-3.1-3.1-8.2 0-11.3l40-40c3.1-3.1 8.2-3.1 11.3 0s3.1 8.2 0 11.3L291.3 360H368c13.3 0 24-10.7 24-24V259.3l-26.3 26.3c-3.1 3.1-8.2 3.1-11.3 0s-3.1-8.2 0-11.3l40-40c3.1-3.1 8.2-3.1 11.3 0l40 40c3.1 3.1 3.1 8.2 0 11.3z"/></svg>