<svg xmlns="http://www.w3.org/2000/svg" viewBox="0 0 576 512"><!--! Font Awesome Pro 6.4.0 by @fontawesome - https://fontawesome.com License - https://fontawesome.com/license (Commercial License) Copyright 2023 Fonticons, Inc. --><path d="M96 48c-44.2 0-80 35.8-80 80V384c0 44.2 35.8 80 80 80H480c44.2 0 80-35.8 80-80V128c0-44.2-35.8-80-80-80H96zM0 128C0 75 43 32 96 32H480c53 0 96 43 96 96V384c0 53-43 96-96 96H96c-53 0-96-43-96-96V128zm168 92c0-24.3-19.7-44-44-44s-44 19.7-44 44v44h88V220zM80 280v44c0 24.3 19.7 44 44 44s44-19.7 44-44V280H80zm92.4 79.4C161.5 374.3 143.9 384 124 384c-33.1 0-60-26.9-60-60V272 220c0-33.1 26.9-60 60-60c17.9 0 34.1 7.9 45.1 20.4c5.5-29.8 31.6-52.4 62.9-52.4c24.1 0 45.1 13.3 56 33c10.9-19.7 31.9-33 56-33c31.4 0 57.5 22.6 62.9 52.4c11-12.5 27.1-20.4 45.1-20.4c33.1 0 60 26.9 60 60v52 52c0 33.1-26.9 60-60 60c-19.9 0-37.5-9.7-48.4-24.6C394.2 383.2 371.1 400 344 400c-24.1 0-45.1-13.3-56-33c-10.9 19.7-31.9 33-56 33c-27.1 0-50.2-16.8-59.6-40.6zM232 144c-26.5 0-48 21.5-48 48v28 44h96V192c0-26.5-21.5-48-48-48zM184 324v12c0 26.5 21.5 48 48 48s48-21.5 48-48V280H184v44zm224-60h88V220c0-24.3-19.7-44-44-44s-44 19.7-44 44v44zm0 60c0 24.3 19.7 44 44 44s44-19.7 44-44V280H408v44zm-64 60c26.5 0 48-21.5 48-48V324 280H296v56c0 26.5 21.5 48 48 48zm48-120V220 192c0-26.5-21.5-48-48-48s-48 21.5-48 48v72h96z"/></svg>