<svg xmlns="http://www.w3.org/2000/svg" viewBox="0 0 640 512"><!--! Font Awesome Pro 6.4.0 by @fontawesome - https://fontawesome.com License - https://fontawesome.com/license (Commercial License) Copyright 2023 Fonticons, Inc. --><path d="M420.6 1.5c-2.8-2-6.6-2-9.4 .1l-173 127.8-.2 .1c6.1 1.4 12.1 3.7 17.7 6.8L416.1 17.9 591.9 142.4c5.5 3.9 9.1 9.9 9.9 16.6l17.8 142c1.8 14.3-9.4 27-23.8 27H457.9l2.4 16H595.8c24.1 0 42.7-21.1 39.7-45L617.7 157c-1.4-11.1-7.4-21.2-16.6-27.7L420.6 1.5zm-192 160c-2.8-2-6.5-2-9.2 0L39 289.3c-9.2 6.5-15.2 16.7-16.6 27.9L4.4 467.2C1.5 491 20.1 512 44.1 512H335.9h.3 67.8c24 0 42.6-21 39.7-44.8l-18-150.1c-1.3-11.2-7.4-21.3-16.6-27.9L228.6 161.5zM340.5 496L232 317.8V183.5L399.8 302.3c5.5 3.9 9.1 10 10 16.7l18 150.1c1.7 14.3-9.4 26.9-23.8 26.9H340.5zM48.2 302.3L216 183.5V319.9v.3V496H44.1c-14.4 0-25.5-12.6-23.8-26.9L38.3 319c.8-6.7 4.4-12.8 10-16.7zM232 496V348.5L321.8 496H232z"/></svg>