<svg xmlns="http://www.w3.org/2000/svg" viewBox="0 0 640 512"><!--! Font Awesome Pro 6.4.0 by @fontawesome - https://fontawesome.com License - https://fontawesome.com/license (Commercial License) Copyright 2023 Fonticons, Inc. --><path d="M16 56c0-4.4 3.6-8 8-8H184l0 416H104c-4.4 0-8 3.6-8 8s3.6 8 8 8h88 88c4.4 0 8-3.6 8-8s-3.6-8-8-8H200l0-416H360c4.4 0 8 3.6 8 8v48c0 4.4 3.6 8 8 8s8-3.6 8-8V56c0-13.3-10.7-24-24-24H192 24C10.7 32 0 42.7 0 56v48c0 4.4 3.6 8 8 8s8-3.6 8-8V56zM336 248c0-4.4 3.6-8 8-8H472l0 224H392c-4.4 0-8 3.6-8 8s3.6 8 8 8h88 88c4.4 0 8-3.6 8-8s-3.6-8-8-8H488l0-224H616c4.4 0 8 3.6 8 8v48c0 4.4 3.6 8 8 8s8-3.6 8-8V248c0-13.3-10.7-24-24-24H480 344c-13.3 0-24 10.7-24 24v48c0 4.4 3.6 8 8 8s8-3.6 8-8V248z"/></svg>