<svg xmlns="http://www.w3.org/2000/svg" viewBox="0 0 384 512"><!--! Font Awesome Pro 6.4.0 by @fontawesome - https://fontawesome.com License - https://fontawesome.com/license (Commercial License) Copyright 2023 Fonticons, Inc. --><path d="M110.3 17.6L92.4 197c-.5 4.8-3.1 9.1-7.2 11.8c-30.5 20-53.7 50.8-63.6 88l-5.1 19c-1.3 4.8-.3 9.9 2.8 13.9L6.7 339.4l12.6-9.7c3 3.9 7.7 6.3 12.7 6.3H184V232c0-4.4 3.6-8 8-8s8 3.6 8 8V336H352c5 0 9.7-2.3 12.7-6.3s4.1-9.1 2.8-13.9l-5.1-19c-9.9-37.2-33.1-68-63.6-88c-4-2.6-6.7-7-7.2-11.8L273.7 17.6c-.1-.5-.1-1.1-.1-1.6H110.4c0 .5 0 1.1-.1 1.6zM184 352H32c-9.9 0-19.3-4.6-25.4-12.5s-8.1-18.1-5.5-27.7l5.1-19c11-41.1 36.6-75.2 70.3-97.3L92.8 32l1.6-16H78.3 48c-4.4 0-8-3.6-8-8s3.6-8 8-8H94.4 96 288h1.6H336c4.4 0 8 3.6 8 8s-3.6 8-8 8H305.7 289.6l1.6 16 16.3 163.4c33.7 22.1 59.3 56.2 70.3 97.3l5.1 19c2.6 9.6 .5 19.9-5.5 27.7s-15.4 12.5-25.4 12.5H200V504c0 4.4-3.6 8-8 8s-8-3.6-8-8V352z"/></svg>