<svg xmlns="http://www.w3.org/2000/svg" viewBox="0 0 640 512"><!--! Font Awesome Pro 6.4.0 by @fontawesome - https://fontawesome.com License - https://fontawesome.com/license (Commercial License) Copyright 2023 Fonticons, Inc. --><path d="M112 96V320c0 26.5 21.5 48 48 48H576c26.5 0 48-21.5 48-48V270.1c-.3-.1-.6-.3-.9-.4C596 262.4 576 237.5 576 208s20-54.4 47.1-61.8c.3-.1 .6-.2 .9-.4V96c0-26.5-21.5-48-48-48H160c-26.5 0-48 21.5-48 48zm48-64H576c35.3 0 64 28.7 64 64v51.2c0 7.1-5.8 12.6-12.7 14.5C607 167.2 592 185.9 592 208s15 40.8 35.3 46.3c6.8 1.9 12.7 7.4 12.7 14.5V320c0 35.3-28.7 64-64 64H160c-35.3 0-64-28.7-64-64V96c0-35.3 28.7-64 64-64zm320 80a16 16 0 1 1 32 0 16 16 0 1 1 -32 0zm0 64a16 16 0 1 1 32 0 16 16 0 1 1 -32 0zm16 48a16 16 0 1 1 0 32 16 16 0 1 1 0-32zm-16 80a16 16 0 1 1 32 0 16 16 0 1 1 -32 0zM8 88c4.4 0 8 3.6 8 8V376c0 48.6 39.4 88 88 88H552c4.4 0 8 3.6 8 8s-3.6 8-8 8H104C46.6 480 0 433.4 0 376V96c0-4.4 3.6-8 8-8zm240.9 0H280c11.4 0 21.9 6 27.6 15.9L345 168h45.9c18.2 0 35.6 7.2 48.5 20.1c11 11 11 28.8 0 39.9c-12.9 12.9-30.3 20.1-48.5 20.1H339.3l-37.4 64.1c-5.7 9.8-16.3 15.9-27.6 15.9H243.1c-10.9 0-18.6-10.7-15.2-21.1L247.6 248H217.8L201 270.4c-4.5 6-11.6 9.6-19.2 9.6H168c-10.4 0-18-9.8-15.5-19.9L165 209.9c.3-1.3 .3-2.6 0-3.9l-12.5-50.2C150 145.8 157.6 136 168 136h13.8c7.6 0 14.7 3.6 19.2 9.6L217.8 168h35.6l-19.6-58.9C230.2 98.7 237.9 88 248.9 88zm0 16L272 173.5c.8 2.4 .4 5.1-1.1 7.2s-3.9 3.3-6.5 3.3H213.8c-2.5 0-4.9-1.2-6.4-3.2l-19.2-25.6 6.2-4.7-6.2 4.7c-1.5-2-3.9-3.2-6.4-3.2H168l12.5 50.2c1 3.8 1 7.8 0 11.6L168 264l13.8 0c2.5 0 4.9-1.2 6.4-3.2l19.2-25.6c1.5-2 3.9-3.2 6.4-3.2h44.9c2.6 0 5 1.2 6.5 3.3s1.9 4.8 1.1 7.2L243.1 312h31.1c5.7 0 11-3 13.8-7.9L327.8 236c1.4-2.5 4.1-4 6.9-4h56.3c13.9 0 27.3-5.5 37.1-15.4c4.8-4.8 4.8-12.5 0-17.2c-9.9-9.9-23.2-15.4-37.1-15.4H340.4c-2.8 0-5.5-1.5-6.9-4l-39.7-68.1c-2.9-4.9-8.1-7.9-13.8-7.9l-31.1 0z"/></svg>