<svg xmlns="http://www.w3.org/2000/svg" viewBox="0 0 576 512"><!--! Font Awesome Pro 6.4.0 by @fontawesome - https://fontawesome.com License - https://fontawesome.com/license (Commercial License) Copyright 2023 Fonticons, Inc. --><path d="M568 200.6l1.1 7.9c3.9-.6 6.9-3.9 6.9-7.9h-8zm0 110.9h8c0-4-2.9-7.4-6.9-7.9l-1.1 7.9zm-560 0l-1.1-7.9c-3.9 .6-6.9 3.9-6.9 7.9H8zM8 200.6H0c0 4 2.9 7.4 6.9 7.9L8 200.6zM64 64C28.7 64 0 92.7 0 128H16c0-26.5 21.5-48 48-48V64zm448 0H64V80H512V64zm64 64c0-35.3-28.7-64-64-64V80c26.5 0 48 21.5 48 48h16zm0 72.6V128H560v72.6h16zM528 256c0-24.2 17.9-44.2 41.1-47.5l-2.3-15.8c-31 4.4-54.9 31.1-54.9 63.4h16zm41.1 47.5C545.9 300.2 528 280.2 528 256H512c0 32.2 23.8 58.9 54.9 63.4l2.3-15.8zM576 384V311.4H560V384h16zm-64 64c35.3 0 64-28.7 64-64H560c0 26.5-21.5 48-48 48v16zM64 448H512V432H64v16zM0 384c0 35.3 28.7 64 64 64V432c-26.5 0-48-21.5-48-48H0zm0-72.6V384H16V311.4H0zM48 256c0 24.2-17.9 44.2-41.1 47.5l2.3 15.8C40.2 314.9 64 288.2 64 256H48zM6.9 208.5C30.1 211.8 48 231.8 48 256H64c0-32.2-23.8-58.9-54.9-63.4L6.9 208.5zM0 128v72.6H16V128H0z"/></svg>