<svg xmlns="http://www.w3.org/2000/svg" viewBox="0 0 512 512"><!--! Font Awesome Pro 6.4.0 by @fontawesome - https://fontawesome.com License - https://fontawesome.com/license (Commercial License) Copyright 2023 Fonticons, Inc. --><path d="M256 0c-4.4 0-8 3.6-8 8V120c0 4.4 3.6 8 8 8s8-3.6 8-8V16.1c128.8 4.2 232 110 232 239.9c0 132.5-107.5 240-240 240S16 388.5 16 256c0-50 15.3-96.3 41.4-134.8c2.5-3.7 1.5-8.6-2.1-11.1s-8.6-1.5-11.1 2.1C16.3 153.2 0 202.7 0 256C0 397.4 114.6 512 256 512s256-114.6 256-256S397.4 0 256 0zM165.7 154.3c-3.1-3.1-8.2-3.1-11.3 0s-3.1 8.2 0 11.3l96 96c3.1 3.1 8.2 3.1 11.3 0s3.1-8.2 0-11.3l-96-96z"/></svg>