<svg xmlns="http://www.w3.org/2000/svg" viewBox="0 0 448 512"><!--! Font Awesome Pro 6.4.0 by @fontawesome - https://fontawesome.com License - https://fontawesome.com/license (Commercial License) Copyright 2023 Fonticons, Inc. --><path d="M400 464V192c0-97.2-78.8-176-176-176S48 94.8 48 192V464H32V192C32 86 118 0 224 0S416 86 416 192V464H400zM0 504c0-4.4 3.6-8 8-8H440c4.4 0 8 3.6 8 8s-3.6 8-8 8H8c-4.4 0-8-3.6-8-8zM232 136v72h80c4.4 0 8 3.6 8 8s-3.6 8-8 8H232V376c0 4.4-3.6 8-8 8s-8-3.6-8-8V224H136c-4.4 0-8-3.6-8-8s3.6-8 8-8h80V136c0-4.4 3.6-8 8-8s8 3.6 8 8z"/></svg>