<svg xmlns="http://www.w3.org/2000/svg" viewBox="0 0 512 512"><!--! Font Awesome Pro 6.4.0 by @fontawesome - https://fontawesome.com License - https://fontawesome.com/license (Commercial License) Copyright 2023 Fonticons, Inc. --><path d="M176 56H336c13.3 0 24 10.7 24 24v48H152V80c0-13.3 10.7-24 24-24zM136 80v48H106.5c-17 0-33.3 6.7-45.3 18.7L18.7 189.3C6.7 201.3 0 217.5 0 234.5V320v96c0 35.3 28.7 64 64 64H448c35.3 0 64-28.7 64-64V320 234.5c0-17-6.7-33.3-18.7-45.3l-42.5-42.5c-12-12-28.3-18.7-45.3-18.7H376V80c0-22.1-17.9-40-40-40H176c-22.1 0-40 17.9-40 40zM496 312H352V264c0-4.4-3.6-8-8-8s-8 3.6-8 8v48H176V264c0-4.4-3.6-8-8-8s-8 3.6-8 8v48H16V234.5c0-12.7 5.1-24.9 14.1-33.9l42.5-42.5c9-9 21.2-14.1 33.9-14.1H144 368h37.5c12.7 0 24.9 5.1 33.9 14.1l42.5 42.5c9 9 14.1 21.2 14.1 33.9V312zM16 328H160v48c0 4.4 3.6 8 8 8s8-3.6 8-8V328H336v48c0 4.4 3.6 8 8 8s8-3.6 8-8V328H496v88c0 26.5-21.5 48-48 48H64c-26.5 0-48-21.5-48-48V328z"/></svg>