<svg xmlns="http://www.w3.org/2000/svg" viewBox="0 0 512 512"><!--! Font Awesome Pro 6.4.0 by @fontawesome - https://fontawesome.com License - https://fontawesome.com/license (Commercial License) Copyright 2023 Fonticons, Inc. --><path d="M16 256C16 123.5 123.5 16 256 16s240 107.5 240 240V504c0 4.4 3.6 8 8 8s8-3.6 8-8V256C512 114.6 397.4 0 256 0S0 114.6 0 256V504c0 4.4 3.6 8 8 8s8-3.6 8-8V256zM192 144H320c35.3 0 64 28.7 64 64V368c0 35.3-28.7 64-64 64H192c-35.3 0-64-28.7-64-64V208c0-35.3 28.7-64 64-64zm-80 64V368c0 38.2 26.8 70.2 62.6 78.1l-52.2 52.2c-3.1 3.1-3.1 8.2 0 11.3s8.2 3.1 11.3 0L195.3 448H316.7l61.7 61.7c3.1 3.1 8.2 3.1 11.3 0s3.1-8.2 0-11.3l-52.2-52.2c35.8-7.9 62.6-39.9 62.6-78.1V208c0-44.2-35.8-80-80-80H192c-44.2 0-80 35.8-80 80zm64 176a16 16 0 1 0 0-32 16 16 0 1 0 0 32zm176-16a16 16 0 1 0 -32 0 16 16 0 1 0 32 0zM248 208l0 96H192c-8.8 0-16-7.2-16-16V224c0-8.8 7.2-16 16-16h56zm16 0h56c8.8 0 16 7.2 16 16v64c0 8.8-7.2 16-16 16H264l0-96zm-72-16c-17.7 0-32 14.3-32 32v64c0 17.7 14.3 32 32 32H320c17.7 0 32-14.3 32-32V224c0-17.7-14.3-32-32-32H192z"/></svg>