<svg xmlns="http://www.w3.org/2000/svg" viewBox="0 0 448 512"><!--! Font Awesome Pro 6.4.0 by @fontawesome - https://fontawesome.com License - https://fontawesome.com/license (Commercial License) Copyright 2023 Fonticons, Inc. --><path d="M352 16c44.2 0 80 35.8 80 80V352c0 44.2-35.8 80-80 80H96c-44.2 0-80-35.8-80-80V96c0-44.2 35.8-80 80-80H352zM96 0C43 0 0 43 0 96V352c0 49.4 37.3 90.1 85.3 95.4L34.3 498.3c-3.1 3.1-3.1 8.2 0 11.3s8.2 3.1 11.3 0L107.3 448H340.7l61.7 61.7c3.1 3.1 8.2 3.1 11.3 0s3.1-8.2 0-11.3l-50.9-50.9c48-5.3 85.3-46 85.3-95.4V96c0-53-43-96-96-96H96zM272 320a48 48 0 1 0 -96 0 48 48 0 1 0 96 0zm-48-32a32 32 0 1 1 0 64 32 32 0 1 1 0-64zM96 80H352c8.8 0 16 7.2 16 16v96c0 8.8-7.2 16-16 16H96c-8.8 0-16-7.2-16-16V96c0-8.8 7.2-16 16-16zM64 96v96c0 17.7 14.3 32 32 32H352c17.7 0 32-14.3 32-32V96c0-17.7-14.3-32-32-32H96C78.3 64 64 78.3 64 96z"/></svg>