<svg xmlns="http://www.w3.org/2000/svg" viewBox="0 0 640 512"><!--! Font Awesome Pro 6.4.0 by @fontawesome - https://fontawesome.com License - https://fontawesome.com/license (Commercial License) Copyright 2023 Fonticons, Inc. --><path d="M48 48C30.3 48 16 62.3 16 80V336c0 17.7 14.3 32 32 32H64c4.4 0 8 3.6 8 8s-3.6 8-8 8H48c-26.5 0-48-21.5-48-48V80C0 53.5 21.5 32 48 32H480c26.5 0 48 21.5 48 48V368H632c4.4 0 8 3.6 8 8s-3.6 8-8 8H320c-4.4 0-8-3.6-8-8s3.6-8 8-8H512V80c0-17.7-14.3-32-32-32H48zM72 96c4.4 0 8 3.6 8 8V248c0 4.4-3.6 8-8 8s-8-3.6-8-8V104c0-4.4 3.6-8 8-8zm96 0c4.4 0 8 3.6 8 8V248c0 4.4-3.6 8-8 8s-8-3.6-8-8V104c0-4.4 3.6-8 8-8zm96 0c4.4 0 8 3.6 8 8V248c0 4.4-3.6 8-8 8s-8-3.6-8-8V104c0-4.4 3.6-8 8-8zm96 0c4.4 0 8 3.6 8 8V312c0 4.4-3.6 8-8 8s-8-3.6-8-8V104c0-4.4 3.6-8 8-8zm96 0c4.4 0 8 3.6 8 8V312c0 4.4-3.6 8-8 8s-8-3.6-8-8V104c0-4.4 3.6-8 8-8zM272 384a80 80 0 1 0 -160 0 80 80 0 1 0 160 0zM96 384a96 96 0 1 1 192 0A96 96 0 1 1 96 384z"/></svg>