<svg xmlns="http://www.w3.org/2000/svg" viewBox="0 0 576 512"><!--! Font Awesome Pro 6.4.0 by @fontawesome - https://fontawesome.com License - https://fontawesome.com/license (Commercial License) Copyright 2023 Fonticons, Inc. --><path d="M191.6 42.5c1.4-4.2-.9-8.7-5.1-10.1s-8.7 .9-10.1 5.1L156.9 96H112c-4.4 0-8 3.6-8 8s3.6 8 8 8h39.6L114.2 224H72c-4.4 0-8 3.6-8 8s3.6 8 8 8h36.9L71.6 352H32c-4.4 0-8 3.6-8 8s3.6 8 8 8H66.2L32.4 469.5c-1.4 4.2 .9 8.7 5.1 10.1s8.7-.9 10.1-5.1L83.1 368H492.9l35.5 106.5c1.4 4.2 5.9 6.5 10.1 5.1s6.5-5.9 5.1-10.1L509.8 368H544c4.4 0 8-3.6 8-8s-3.6-8-8-8H504.4L467.1 240H504c4.4 0 8-3.6 8-8s-3.6-8-8-8H461.8L424.4 112H464c4.4 0 8-3.6 8-8s-3.6-8-8-8H419.1L399.6 37.5c-1.4-4.2-5.9-6.5-10.1-5.1s-6.5 5.9-5.1 10.1L402.2 96H173.8l17.8-53.5zM168.4 112H407.6l37.3 112H131.1l37.3-112zM487.6 352H88.4l37.3-112H450.2l37.3 112z"/></svg>