<svg xmlns="http://www.w3.org/2000/svg" viewBox="0 0 448 512"><!--! Font Awesome Pro 6.4.0 by @fontawesome - https://fontawesome.com License - https://fontawesome.com/license (Commercial License) Copyright 2023 Fonticons, Inc. --><path d="M78.8 16c-17 0-33.1 7.7-43.7 21L22.2 53c-2.8 3.5-7.8 4-11.2 1.2S7 46.5 9.8 43L22.5 27C36.2 9.9 56.9 0 78.8 0H369.2c21.9 0 42.6 9.9 56.2 27l12.8 16c2.8 3.4 2.2 8.5-1.2 11.2s-8.5 2.2-11.2-1.2L413 37c-10.6-13.3-26.7-21-43.7-21H232V96h56c53 0 96 43 96 96V352c0 31.8-15.4 60-39.2 77.4l68.9 68.9c3.1 3.1 3.1 8.2 0 11.3s-8.2 3.1-11.3 0L330.7 438c-12.9 6.4-27.4 10-42.7 10H160c-15.3 0-29.8-3.6-42.7-10L45.7 509.7c-3.1 3.1-8.2 3.1-11.3 0s-3.1-8.2 0-11.3l68.9-68.9C79.4 412 64 383.8 64 352V192c0-53 43-96 96-96h56V16H78.8zM216 112H160c-44.2 0-80 35.8-80 80V352c0 44.2 35.8 80 80 80H288c44.2 0 80-35.8 80-80V192c0-44.2-35.8-80-80-80H232 216zM176 352a16 16 0 1 0 -32 0 16 16 0 1 0 32 0zm-48 0a32 32 0 1 1 64 0 32 32 0 1 1 -64 0zm160 16a16 16 0 1 0 0-32 16 16 0 1 0 0 32zm0-48a32 32 0 1 1 0 64 32 32 0 1 1 0-64zM160 176c-8.8 0-16 7.2-16 16v32c0 8.8 7.2 16 16 16H288c8.8 0 16-7.2 16-16V192c0-8.8-7.2-16-16-16H160zm-32 16c0-17.7 14.3-32 32-32H288c17.7 0 32 14.3 32 32v32c0 17.7-14.3 32-32 32H160c-17.7 0-32-14.3-32-32V192z"/></svg>