<svg xmlns="http://www.w3.org/2000/svg" viewBox="0 0 512 512"><!--! Font Awesome Pro 6.4.0 by @fontawesome - https://fontawesome.com License - https://fontawesome.com/license (Commercial License) Copyright 2023 Fonticons, Inc. --><path d="M464 0c4.4 0 8 3.6 8 8V40h32c4.4 0 8 3.6 8 8s-3.6 8-8 8H472V88c0 4.4-3.6 8-8 8s-8-3.6-8-8V56H424c-4.4 0-8-3.6-8-8s3.6-8 8-8h32V8c0-4.4 3.6-8 8-8zM48 96c4.4 0 8 3.6 8 8v32H88c4.4 0 8 3.6 8 8s-3.6 8-8 8H56v32c0 4.4-3.6 8-8 8s-8-3.6-8-8V152H8c-4.4 0-8-3.6-8-8s3.6-8 8-8H40V104c0-4.4 3.6-8 8-8zm96 368c-17.7 0-32 14.3-32 32v8c0 4.4-3.6 8-8 8s-8-3.6-8-8v-8c0-26.5 21.5-48 48-48H368c26.5 0 48 21.5 48 48v8c0 4.4-3.6 8-8 8s-8-3.6-8-8v-8c0-17.7-14.3-32-32-32H144zM288 48c0-17.7-14.3-32-32-32l-.4 0c-.3 0-.6 0-.9 0c-17 .7-30.6 14.8-30.6 32c0 17.7 14.3 32 32 32s32-14.3 32-32zm16 0c0 26.5-21.5 48-48 48h0c-26.5 0-48-21.5-48-48s21.5-48 48-48s48 21.5 48 48zM168 384H344c4.4 0 8 3.6 8 8s-3.6 8-8 8H168c-4.4 0-8-3.6-8-8s3.6-8 8-8zm-8-56c0-4.4 3.6-8 8-8H344c4.4 0 8 3.6 8 8s-3.6 8-8 8H168c-4.4 0-8-3.6-8-8zm-56-72H408c4.4 0 8 3.6 8 8s-3.6 8-8 8H104c-4.4 0-8-3.6-8-8s3.6-8 8-8zm24-56c0-4.4 3.6-8 8-8H376c4.4 0 8 3.6 8 8s-3.6 8-8 8H136c-4.4 0-8-3.6-8-8zm72-72H312c4.4 0 8 3.6 8 8s-3.6 8-8 8H200c-4.4 0-8-3.6-8-8s3.6-8 8-8z"/></svg>