<svg xmlns="http://www.w3.org/2000/svg" viewBox="0 0 512 512"><!--! Font Awesome Pro 6.4.0 by @fontawesome - https://fontawesome.com License - https://fontawesome.com/license (Commercial License) Copyright 2023 Fonticons, Inc. --><path d="M48 0c-4.4 0-8 3.6-8 8V40H8c-4.4 0-8 3.6-8 8s3.6 8 8 8H40V88c0 4.4 3.6 8 8 8s8-3.6 8-8V56H88c4.4 0 8-3.6 8-8s-3.6-8-8-8H56V8c0-4.4-3.6-8-8-8zM464 320c-4.4 0-8 3.6-8 8v32H424c-4.4 0-8 3.6-8 8s3.6 8 8 8h32v32c0 4.4 3.6 8 8 8s8-3.6 8-8V376h32c4.4 0 8-3.6 8-8s-3.6-8-8-8H472V328c0-4.4-3.6-8-8-8zM144 464H368c17.7 0 32 14.3 32 32v8c0 4.4 3.6 8 8 8s8-3.6 8-8v-8c0-26.5-21.5-48-48-48H144c-26.5 0-48 21.5-48 48v8c0 4.4 3.6 8 8 8s8-3.6 8-8v-8c0-17.7 14.3-32 32-32zM288 48c0 17.7-14.3 32-32 32s-32-14.3-32-32c0-17.2 13.6-31.3 30.6-32c.3 0 .6 0 .9 0l.4 0c17.7 0 32 14.3 32 32zm16 0c0-26.5-21.5-48-48-48s-48 21.5-48 48s21.5 48 48 48h0c26.5 0 48-21.5 48-48zM173.2 174c15.2-18.9 38.1-30 62.4-30h40.7c24.3 0 47.2 11 62.4 30l40.1 50h20.5l-48.1-60c-18.2-22.7-45.8-36-74.9-36H235.6c-29.1 0-56.7 13.2-74.9 36l-48.1 60h20.5l40.1-50zm.9 50H200v-9.5c0-3.4-2.1-6.4-5.3-7.5s-6.8-.1-8.9 2.5L174.1 224zM312 224h25.9l-11.6-14.5c-2.1-2.7-5.7-3.7-8.9-2.5s-5.3 4.2-5.3 7.5V224zM168 384c-4.4 0-8 3.6-8 8s3.6 8 8 8H344c4.4 0 8-3.6 8-8s-3.6-8-8-8H168zm-8-56c0 4.4 3.6 8 8 8H344c4.4 0 8-3.6 8-8s-3.6-8-8-8H168c-4.4 0-8 3.6-8 8zm-56-72c-4.4 0-8 3.6-8 8s3.6 8 8 8H408c4.4 0 8-3.6 8-8s-3.6-8-8-8H104z"/></svg>