<svg xmlns="http://www.w3.org/2000/svg" viewBox="0 0 512 512"><!--! Font Awesome Pro 6.4.0 by @fontawesome - https://fontawesome.com License - https://fontawesome.com/license (Commercial License) Copyright 2023 Fonticons, Inc. --><path d="M56 8c0-4.4-3.6-8-8-8s-8 3.6-8 8V40H8c-4.4 0-8 3.6-8 8s3.6 8 8 8H40V88c0 4.4 3.6 8 8 8s8-3.6 8-8V56H88c4.4 0 8-3.6 8-8s-3.6-8-8-8H56V8zM472 360c0-4.4-3.6-8-8-8s-8 3.6-8 8v32H424c-4.4 0-8 3.6-8 8s3.6 8 8 8h32v32c0 4.4 3.6 8 8 8s8-3.6 8-8V408h32c4.4 0 8-3.6 8-8s-3.6-8-8-8H472V360zM112 496c0-17.7 14.3-32 32-32H368c17.7 0 32 14.3 32 32v8c0 4.4 3.6 8 8 8s8-3.6 8-8v-8c0-26.5-21.5-48-48-48H144c-26.5 0-48 21.5-48 48v8c0 4.4 3.6 8 8 8s8-3.6 8-8v-8zM96 264c0 4.4 3.6 8 8 8H408c4.4 0 8-3.6 8-8s-3.6-8-8-8H104c-4.4 0-8 3.6-8 8zM232 0c-4.4 0-8 3.6-8 8s3.6 8 8 8h48c4.4 0 8-3.6 8-8s-3.6-8-8-8H232z"/></svg>