<svg xmlns="http://www.w3.org/2000/svg" viewBox="0 0 512 512"><!--! Font Awesome Pro 6.4.0 by @fontawesome - https://fontawesome.com License - https://fontawesome.com/license (Commercial License) Copyright 2023 Fonticons, Inc. --><path d="M224 8c0-4.4 3.6-8 8-8h48c4.4 0 8 3.6 8 8s-3.6 8-8 8H232c-4.4 0-8-3.6-8-8zM464 128c4.4 0 8 3.6 8 8v32h32c4.4 0 8 3.6 8 8s-3.6 8-8 8H472v32c0 4.4-3.6 8-8 8s-8-3.6-8-8V184H424c-4.4 0-8-3.6-8-8s3.6-8 8-8h32V136c0-4.4 3.6-8 8-8zM48 352c4.4 0 8 3.6 8 8v32H88c4.4 0 8 3.6 8 8s-3.6 8-8 8H56v32c0 4.4-3.6 8-8 8s-8-3.6-8-8V408H8c-4.4 0-8-3.6-8-8s3.6-8 8-8H40V360c0-4.4 3.6-8 8-8zm96 112c-17.7 0-32 14.3-32 32v8c0 4.4-3.6 8-8 8s-8-3.6-8-8v-8c0-26.5 21.5-48 48-48H368c26.5 0 48 21.5 48 48v8c0 4.4-3.6 8-8 8s-8-3.6-8-8v-8c0-17.7-14.3-32-32-32H144zm24-80H344c4.4 0 8 3.6 8 8s-3.6 8-8 8H168c-4.4 0-8-3.6-8-8s3.6-8 8-8zm-8-56c0-4.4 3.6-8 8-8H344c4.4 0 8 3.6 8 8s-3.6 8-8 8H168c-4.4 0-8-3.6-8-8zm-56-72H408c4.4 0 8 3.6 8 8s-3.6 8-8 8H104c-4.4 0-8-3.6-8-8s3.6-8 8-8zm24-56c0-4.4 3.6-8 8-8H376c4.4 0 8 3.6 8 8s-3.6 8-8 8H136c-4.4 0-8-3.6-8-8zm72-72H312c4.4 0 8 3.6 8 8s-3.6 8-8 8H200c-4.4 0-8-3.6-8-8s3.6-8 8-8zm24-64h64c4.4 0 8 3.6 8 8s-3.6 8-8 8H224c-4.4 0-8-3.6-8-8s3.6-8 8-8z"/></svg>