<svg xmlns="http://www.w3.org/2000/svg" viewBox="0 0 512 512"><!--! Font Awesome Pro 6.4.0 by @fontawesome - https://fontawesome.com License - https://fontawesome.com/license (Commercial License) Copyright 2023 Fonticons, Inc. --><path d="M472 8V40h32c4.4 0 8 3.6 8 8s-3.6 8-8 8H472V88c0 4.4-3.6 8-8 8s-8-3.6-8-8V56H424c-4.4 0-8-3.6-8-8s3.6-8 8-8h32V8c0-4.4 3.6-8 8-8s8 3.6 8 8zM56 72v32H88c4.4 0 8 3.6 8 8s-3.6 8-8 8H56v32c0 4.4-3.6 8-8 8s-8-3.6-8-8V120H8c-4.4 0-8-3.6-8-8s3.6-8 8-8H40V72c0-4.4 3.6-8 8-8s8 3.6 8 8zm56 424v8c0 4.4-3.6 8-8 8s-8-3.6-8-8v-8c0-26.5 21.5-48 48-48H368c26.5 0 48 21.5 48 48v8c0 4.4-3.6 8-8 8s-8-3.6-8-8v-8c0-17.7-14.3-32-32-32H144c-17.7 0-32 14.3-32 32zM256 16a32 32 0 1 0 0 64.1A32 32 0 1 0 256 16zm0 80c-26.5 0-48-21.5-48-48s21.5-48 48-48s48 21.5 48 48s-21.5 48-48 48m-20.4 48c-24.3 0-47.2 11-62.4 30l-57.7 72c-5.5 6.9-4.4 17 2.5 22.5s17 4.4 22.5-2.5l45.3-56.5c2.1-2.7 5.7-3.7 8.9-2.5s5.3 4.2 5.3 7.5V416H184V237.3L153 276c-11.1 13.8-31.2 16-45 5s-16-31.2-5-45l57.7-72c18.2-22.7 45.8-36 74.9-36h40.7c29.1 0 56.7 13.2 74.9 36L409 236c11 13.8 8.8 33.9-5 45s-33.9 8.8-45-5l-31-38.7V416H312V214.5c0-3.4 2.1-6.4 5.3-7.5s6.8-.1 8.9 2.5L371.5 266c5.5 6.9 15.6 8 22.5 2.5s8-15.6 2.5-22.5l-57.7-72c-15.2-18.9-38.1-30-62.4-30H235.6zM248 416H232V328c0-13.3 10.7-24 24-24s24 10.7 24 24v88H264V328c0-4.4-3.6-8-8-8s-8 3.6-8 8v88z"/></svg>