<svg xmlns="http://www.w3.org/2000/svg" viewBox="0 0 512 512"><!--! Font Awesome Pro 6.4.0 by @fontawesome - https://fontawesome.com License - https://fontawesome.com/license (Commercial License) Copyright 2023 Fonticons, Inc. --><path d="M256 16l-.4 0c-.3 0-.6 0-.9 0c-17 .7-30.6 14.8-30.6 32c0 17.7 14.3 32 32 32s32-14.3 32-32s-14.3-32-32-32zm0 80h0c-26.5 0-48-21.5-48-48s21.5-48 48-48s48 21.5 48 48s-21.5 48-48 48zm216 40v32h32c4.4 0 8 3.6 8 8s-3.6 8-8 8H472v32c0 4.4-3.6 8-8 8s-8-3.6-8-8V184H424c-4.4 0-8-3.6-8-8s3.6-8 8-8h32V136c0-4.4 3.6-8 8-8s8 3.6 8 8zM56 328v32H88c4.4 0 8 3.6 8 8s-3.6 8-8 8H56v32c0 4.4-3.6 8-8 8s-8-3.6-8-8V376H8c-4.4 0-8-3.6-8-8s3.6-8 8-8H40V328c0-4.4 3.6-8 8-8s8 3.6 8 8zm56 168v8c0 4.4-3.6 8-8 8s-8-3.6-8-8v-8c0-26.5 21.5-48 48-48H368c26.5 0 48 21.5 48 48v8c0 4.4-3.6 8-8 8s-8-3.6-8-8v-8c0-17.7-14.3-32-32-32H144c-17.7 0-32 14.3-32 32zM235.6 144c-24.3 0-47.2 11-62.4 30l-57.7 72c-5.5 6.9-4.4 17 2.5 22.5s17 4.4 22.5-2.5l45.3-56.5c2.1-2.7 5.7-3.7 8.9-2.5s5.3 4.2 5.3 7.5V288H184V237.3L153 276c-6.3 7.8-15.4 11.9-24.7 12h-.5c-6.9-.1-13.9-2.4-19.7-7c-13.8-11.1-16-31.2-5-45l57.7-72c18.2-22.7 45.8-36 74.9-36h40.7c29.1 0 56.7 13.2 74.9 36L409 236c11 13.8 8.8 33.9-5 45c-5.8 4.7-12.8 7-19.7 7h-.5c-9.3-.1-18.5-4.2-24.7-12l-31-38.7V288H312V214.5c0-3.4 2.1-6.4 5.3-7.5s6.8-.1 8.9 2.5L371.5 266c5.5 6.9 15.6 8 22.5 2.5s8-15.6 2.5-22.5l-57.7-72c-15.2-18.9-38.1-30-62.4-30H235.6zM160 392c0-4.4 3.6-8 8-8H344c4.4 0 8 3.6 8 8s-3.6 8-8 8H168c-4.4 0-8-3.6-8-8zm8-72H344c4.4 0 8 3.6 8 8s-3.6 8-8 8H168c-4.4 0-8-3.6-8-8s3.6-8 8-8z"/></svg>