<svg xmlns="http://www.w3.org/2000/svg" viewBox="0 0 576 512"><!--! Font Awesome Pro 6.4.0 by @fontawesome - https://fontawesome.com License - https://fontawesome.com/license (Commercial License) Copyright 2023 Fonticons, Inc. --><path d="M177.7 16h92.5c8.3 0 16 4.3 20.4 11.3l23 36.7H134.4l23-36.7c4.4-7 12.1-11.3 20.4-11.3zm-33.9 2.8L115.6 64H8c-4.4 0-8 3.6-8 8s3.6 8 8 8H440c4.4 0 8-3.6 8-8s-3.6-8-8-8H332.4L304.2 18.8C296.9 7.1 284.1 0 270.3 0H177.7c-13.8 0-26.6 7.1-33.9 18.8zM48 119.3c-.4-4.4-4.2-7.7-8.6-7.3s-7.7 4.2-7.3 8.6l28.3 340c2.4 29 26.7 51.4 55.8 51.4H330.8c-6.9-4.9-13.5-10.2-19.6-16h-195c-20.8 0-38.1-15.9-39.9-36.7L48 119.3zm368 1.3c.4-4.4-2.9-8.3-7.3-8.6s-8.3 2.9-8.6 7.3l-6.4 76.9c5.3-1.2 10.8-2.1 16.3-2.8l6.1-72.7zM432 240a128 128 0 1 1 0 256 128 128 0 1 1 0-256zm0 272a144 144 0 1 0 0-288 144 144 0 1 0 0 288zm0-224c-4.4 0-8 3.6-8 8v72c0 4.4 3.6 8 8 8h56c4.4 0 8-3.6 8-8s-3.6-8-8-8H440V296c0-4.4-3.6-8-8-8z"/></svg>