<svg xmlns="http://www.w3.org/2000/svg" viewBox="0 0 640 512"><!--! Font Awesome Pro 6.4.0 by @fontawesome - https://fontawesome.com License - https://fontawesome.com/license (Commercial License) Copyright 2023 Fonticons, Inc. --><path d="M482.7 476.2C472.5 488.3 457.1 496 440 496H200c-30.9 0-56-25.1-56-56V208.8l-16-12.6V440c0 39.8 32.2 72 72 72H440c22.2 0 42.1-10.1 55.3-25.9l-12.6-9.9zM211.6 64H193l20.3 16H536c4.4 0 8-3.6 8-8s-3.6-8-8-8H428.4L400.2 18.8C392.9 7.1 380.1 0 366.3 0H273.7c-13.8 0-26.6 7.1-33.9 18.8L211.6 64zM232 278.3l-16-12.6V416c0 4.4 3.6 8 8 8s8-3.6 8-8V278.3zM328 416V354l-16-12.6V416c0 4.4 3.6 8 8 8s8-3.6 8-8zm80-256v73.7l16 12.6V160c0-4.4-3.6-8-8-8s-8 3.6-8 8zm88-40V303.2l16 12.6V120c0-4.4-3.6-8-8-8s-8 3.6-8 8zM253.4 27.3c4.4-7 12.1-11.3 20.4-11.3h92.5c8.3 0 16 4.3 20.4 11.3L409.6 64H230.4l23-36.7zM13 1.7C9.5-1 4.5-.4 1.7 3S-.4 11.5 3 14.3l624 496c3.5 2.7 8.5 2.2 11.2-1.3s2.2-8.5-1.3-11.2L13 1.7z"/></svg>