<svg xmlns="http://www.w3.org/2000/svg" viewBox="0 0 640 512"><!--! Font Awesome Pro 6.4.0 by @fontawesome - https://fontawesome.com License - https://fontawesome.com/license (Commercial License) Copyright 2023 Fonticons, Inc. --><path d="M304 40c0-13.3 10.7-24 24-24H472c13.3 0 24 10.7 24 24V200c0 4.4 3.6 8 8 8h64 32c13.3 0 24 10.7 24 24V504c0 4.4 3.6 8 8 8s8-3.6 8-8V232c0-22.1-17.9-40-40-40H576V104c0-4.4-3.6-8-8-8s-8 3.6-8 8v88H512V40c0-22.1-17.9-40-40-40H328c-22.1 0-40 17.9-40 40V504c0 4.4 3.6 8 8 8s8-3.6 8-8V40zM128 224c-4.4 0-8 3.6-8 8v72H80c-35.3 0-64-28.7-64-64c0-22.6 11.8-41.3 30.5-54.8c2.4-1.8 3.7-4.8 3.2-7.7c-1-6.2-1.8-11.8-1.8-17.5c0-44.2 35.8-80 80-80s80 35.8 80 80c0 5.6-.8 11.3-1.8 17.5c-.5 3 .8 6 3.2 7.7C228.2 198.7 240 217.4 240 240c0 35.3-28.7 64-64 64H136V232c0-4.4-3.6-8-8-8zm-8 96V504c0 4.4 3.6 8 8 8s8-3.6 8-8V320h40c44.2 0 80-35.8 80-80c0-27.1-13.5-49.1-33.2-64.8c.7-4.9 1.2-10 1.2-15.2c0-53-43-96-96-96s-96 43-96 96c0 5.3 .5 10.4 1.2 15.2C13.5 190.9 0 212.9 0 240c0 44.2 35.8 80 80 80h40zM360 96v32c0 13.3 10.7 24 24 24h32c13.3 0 24-10.7 24-24V96c0-13.3-10.7-24-24-24H384c-13.3 0-24 10.7-24 24zm24-8h32c4.4 0 8 3.6 8 8v32c0 4.4-3.6 8-8 8H384c-4.4 0-8-3.6-8-8V96c0-4.4 3.6-8 8-8zM512 264c-13.3 0-24 10.7-24 24v32c0 13.3 10.7 24 24 24h32c13.3 0 24-10.7 24-24V288c0-13.3-10.7-24-24-24H512zm-8 24c0-4.4 3.6-8 8-8h32c4.4 0 8 3.6 8 8v32c0 4.4-3.6 8-8 8H512c-4.4 0-8-3.6-8-8V288zM488 416v32c0 13.3 10.7 24 24 24h32c13.3 0 24-10.7 24-24V416c0-13.3-10.7-24-24-24H512c-13.3 0-24 10.7-24 24zm24-8h32c4.4 0 8 3.6 8 8v32c0 4.4-3.6 8-8 8H512c-4.4 0-8-3.6-8-8V416c0-4.4 3.6-8 8-8zM384 200c-13.3 0-24 10.7-24 24v32c0 13.3 10.7 24 24 24h32c13.3 0 24-10.7 24-24V224c0-13.3-10.7-24-24-24H384zm-8 24c0-4.4 3.6-8 8-8h32c4.4 0 8 3.6 8 8v32c0 4.4-3.6 8-8 8H384c-4.4 0-8-3.6-8-8V224zM360 352v32c0 13.3 10.7 24 24 24h32c13.3 0 24-10.7 24-24V352c0-13.3-10.7-24-24-24H384c-13.3 0-24 10.7-24 24zm24-8h32c4.4 0 8 3.6 8 8v32c0 4.4-3.6 8-8 8H384c-4.4 0-8-3.6-8-8V352c0-4.4 3.6-8 8-8z"/></svg>