<svg xmlns="http://www.w3.org/2000/svg" viewBox="0 0 448 512"><!--! Font Awesome Pro 6.4.0 by @fontawesome - https://fontawesome.com License - https://fontawesome.com/license (Commercial License) Copyright 2023 Fonticons, Inc. --><path d="M229.8 2.5C228.3 .9 226.2 0 224 0s-4.3 .9-5.8 2.5L72.5 155.9C67 161.6 64 169.2 64 177.1c0 17 13.8 30.9 30.9 30.9h30.8L40.3 299.9C35 305.7 32 313.2 32 321c0 17.1 13.9 31 31 31H95.2L7.1 460.4C2.5 466.1 0 473.1 0 480.4C0 497.8 14.2 512 31.6 512H160 288 416.4c17.5 0 31.6-14.2 31.6-31.6c0-7.3-2.5-14.3-7.1-19.9L352.8 352H385c17.1 0 31-13.9 31-31c0-7.8-3-15.3-8.3-21.1L322.3 208h30.8c17 0 30.9-13.8 30.9-30.9c0-7.9-3-15.5-8.5-21.3L229.8 2.5zM416.4 496H288 160 31.6C23 496 16 489 16 480.4c0-3.6 1.2-7.1 3.5-9.8L118.2 349c1.9-2.4 2.3-5.7 1-8.5s-4.1-4.6-7.2-4.6H63c-8.3 0-15-6.7-15-15c0-3.8 1.4-7.4 4-10.2l97.9-105.4c2.2-2.3 2.7-5.7 1.5-8.6s-4.2-4.8-7.3-4.8H94.9c-8.2 0-14.9-6.7-14.9-14.9c0-3.8 1.5-7.5 4.1-10.2L224 19.6 363.9 166.9c2.6 2.8 4.1 6.4 4.1 10.2c0 8.2-6.7 14.9-14.9 14.9H304c-3.2 0-6.1 1.9-7.3 4.8s-.7 6.3 1.5 8.6L396 310.8c2.6 2.8 4 6.4 4 10.2c0 8.3-6.7 15-15 15H336c-3.1 0-5.9 1.8-7.2 4.6s-.9 6.1 1 8.5l98.7 121.5c2.3 2.8 3.5 6.3 3.5 9.8c0 8.6-7 15.6-15.6 15.6zM176 288a16 16 0 1 0 0-32 16 16 0 1 0 0 32zm80-144a16 16 0 1 0 -32 0 16 16 0 1 0 32 0zm16 272a16 16 0 1 0 0-32 16 16 0 1 0 0 32z"/></svg>