<svg xmlns="http://www.w3.org/2000/svg" viewBox="0 0 512 512"><!--! Font Awesome Pro 6.4.0 by @fontawesome - https://fontawesome.com License - https://fontawesome.com/license (Commercial License) Copyright 2023 Fonticons, Inc. --><path d="M232.4 18.4c-4.7-2.9-10.6-3.2-15.6-.7l-192 96c-5.4 2.7-8.8 8.3-8.8 14.3s3.4 11.6 8.8 14.3l192 96c5 2.5 10.9 2.2 15.6-.7s7.6-8.1 7.6-13.6V32c0-5.5-2.9-10.7-7.6-13.6zM256 32v88h88v-8c0-17.7 14.3-32 32-32h88c26.5 0 48 21.5 48 48s-21.5 48-48 48H376c-17.7 0-32-14.3-32-32v-8H256v88c0 11.1-5.7 21.4-15.2 27.2s-21.2 6.4-31.1 1.4l-192-96C6.8 151.2 0 140.1 0 128s6.8-23.2 17.7-28.6l192-96c9.9-5 21.7-4.4 31.1 1.4S256 20.9 256 32zM360 144c0 8.8 7.2 16 16 16h88c17.7 0 32-14.3 32-32s-14.3-32-32-32H376c-8.8 0-16 7.2-16 16v16 16zM288 384H240V496H480c8.8 0 16-7.2 16-16V408v-8V384H304 288zm-64-16h16 32 16V352 272c0-17.7 14.3-32 32-32H480c17.7 0 32 14.3 32 32V400v8 72c0 17.7-14.3 32-32 32H32c-17.7 0-32-14.3-32-32V400c0-17.7 14.3-32 32-32H224zm0 16H32c-8.8 0-16 7.2-16 16v80c0 8.8 7.2 16 16 16H224V384zm272-16V272c0-8.8-7.2-16-16-16H320c-8.8 0-16 7.2-16 16v96H496z"/></svg>