<svg xmlns="http://www.w3.org/2000/svg" viewBox="0 0 512 512"><!--! Font Awesome Pro 6.4.0 by @fontawesome - https://fontawesome.com License - https://fontawesome.com/license (Commercial License) Copyright 2023 Fonticons, Inc. --><path d="M96 16C60.7 16 32 44.7 32 80V261.4c10.2-14.4 24.5-25.6 41.3-31.9l-.8-.3 36.3-96.9C117 110.5 137.9 96 161.3 96H350.7c23.3 0 44.2 14.5 52.4 36.3l36.3 96.9-.8 .3c16.8 6.2 31.2 17.5 41.3 31.9V80c0-35.3-28.7-64-64-64H96zM32 312v72c0 26.5 21.5 48 48 48h48 16H368h16 48c26.5 0 48-21.5 48-48V312c0-39.8-32.2-72-72-72H104c-39.8 0-72 32.2-72 72zm-16 0V80C16 35.8 51.8 0 96 0H416c44.2 0 80 35.8 80 80V312v72c0 23.7-12.9 44.4-32 55.4V448v32c0 17.7-14.3 32-32 32H400c-17.7 0-32-14.3-32-32V448H144v32c0 17.7-14.3 32-32 32H80c-17.7 0-32-14.3-32-32V448v-8.6C28.9 428.4 16 407.7 16 384V312zM80 448H64v32c0 8.8 7.2 16 16 16h32c8.8 0 16-7.2 16-16V448H80zm304 0v32c0 8.8 7.2 16 16 16h32c8.8 0 16-7.2 16-16V448H432 384zM91.2 224.9c4.2-.6 8.5-.9 12.8-.9H408c4.3 0 8.6 .3 12.8 .9l-32.6-87c-5.9-15.6-20.8-26-37.5-26H161.3c-16.7 0-31.6 10.3-37.5 26l-32.6 87zM112 320a16 16 0 1 0 0 32 16 16 0 1 0 0-32zm32 16a32 32 0 1 1 -64 0 32 32 0 1 1 64 0zm240 0a16 16 0 1 0 32 0 16 16 0 1 0 -32 0zm16 32a32 32 0 1 1 0-64 32 32 0 1 1 0 64z"/></svg>