<svg xmlns="http://www.w3.org/2000/svg" viewBox="0 0 640 512"><!--! Font Awesome Pro 6.4.0 by @fontawesome - https://fontawesome.com License - https://fontawesome.com/license (Commercial License) Copyright 2023 Fonticons, Inc. --><path d="M400 120c0-13.3 10.7-24 24-24h50.7c10.6 0 20.8 4.2 28.3 11.7L596.3 201c7.5 7.5 11.7 17.7 11.7 28.3V400h24c4.4 0 8 3.6 8 8s-3.6 8-8 8H575.6c.2 2.6 .4 5.3 .4 8c0 48.6-39.4 88-88 88s-88-39.4-88-88c0-2.7 .1-5.4 .4-8H239.6c.2 2.6 .4 5.3 .4 8c0 48.6-39.4 88-88 88s-88-39.4-88-88c0-2.7 .1-5.4 .4-8H8c-4.4 0-8-3.6-8-8s3.6-8 8-8H67.3c10.4-36.9 44.4-64 84.7-64s74.2 27.1 84.7 64H400V120zm16 253.4c15.9-22.6 42.2-37.4 72-37.4c40.3 0 74.2 27.1 84.7 64H592V232H416V373.4zM416 216H588c-.9-1.3-1.9-2.6-3-3.7L491.7 119c-4.5-4.5-10.6-7-17-7H424c-4.4 0-8 3.6-8 8v96zM152 496a72 72 0 1 0 0-144 72 72 0 1 0 0 144zm408-72a72 72 0 1 0 -144 0 72 72 0 1 0 144 0z"/></svg>