<svg xmlns="http://www.w3.org/2000/svg" viewBox="0 0 640 512"><!--! Font Awesome Pro 6.4.0 by @fontawesome - https://fontawesome.com License - https://fontawesome.com/license (Commercial License) Copyright 2023 Fonticons, Inc. --><path d="M352 16c26.5 0 48 21.5 48 48V400H236.7c-10.4-36.9-44.4-64-84.7-64s-74.2 27.1-84.7 64H64c-26.5 0-48-21.5-48-48V64c0-26.5 21.5-48 48-48H352zM64 416h.4c-.2 2.6-.4 5.3-.4 8c0 48.6 39.4 88 88 88s88-39.4 88-88c0-2.7-.1-5.4-.4-8H400h.4c-.2 2.6-.4 5.3-.4 8c0 48.6 39.4 88 88 88s88-39.4 88-88c0-2.7-.1-5.4-.4-8H632c4.4 0 8-3.6 8-8s-3.6-8-8-8H608V229.3c0-10.6-4.2-20.8-11.7-28.3L503 107.7c-7.5-7.5-17.7-11.7-28.3-11.7H416V64c0-35.3-28.7-64-64-64H64C28.7 0 0 28.7 0 64V352c0 35.3 28.7 64 64 64zM416 112h58.7c6.4 0 12.5 2.5 17 7L585 212.3c1.1 1.1 2.2 2.4 3 3.7H416V112zm0 261.4V232H592V400H572.7c-10.4-36.9-44.4-64-84.7-64c-29.8 0-56.1 14.8-72 37.4zM152 352a72 72 0 1 1 0 144 72 72 0 1 1 0-144zm264 72a72 72 0 1 1 144 0 72 72 0 1 1 -144 0zM272 211c0 33.1-28.1 61-64 61s-64-27.9-64-61c0-4.8 1.9-12.7 6.2-23.4c4.2-10.4 10.2-22 17.1-34c13.4-23.5 29.6-47.1 40.7-62.6c11.1 15.5 27.3 39.1 40.7 62.6c6.9 12 12.8 23.6 17.1 34c4.4 10.7 6.2 18.6 6.2 23.4zm16 0c0-32-45.2-98.9-67.6-130.2c-6.1-8.6-18.6-8.6-24.8 0C173.2 112.1 128 179 128 211c0 42.5 35.8 77 80 77s80-34.5 80-77z"/></svg>