<svg xmlns="http://www.w3.org/2000/svg" viewBox="0 0 640 512"><!--! Font Awesome Pro 6.4.0 by @fontawesome - https://fontawesome.com License - https://fontawesome.com/license (Commercial License) Copyright 2023 Fonticons, Inc. --><path d="M240 72V192H493.8L387.3 57.1c-4.6-5.8-11.5-9.1-18.8-9.1H264c-13.3 0-24 10.7-24 24zM510.3 187l3.9 5H552c30.9 0 56 25.1 56 56V368h24c4.4 0 8 3.6 8 8s-3.6 8-8 8H608 592 560c0 53-43 96-96 96s-96-43-96-96H272c0 53-43 96-96 96s-96-43-96-96H48 32 8c-4.4 0-8-3.6-8-8s3.6-8 8-8H32V248c0-30.9 25.1-56 56-56H224V72c0-22.1 17.9-40 40-40H368.5c12.2 0 23.8 5.6 31.4 15.2L510.3 187zM48 368H81.3c7.6-45.4 47.1-80 94.7-80s87.1 34.6 94.7 80h98.7c7.6-45.4 47.1-80 94.7-80s87.1 34.6 94.7 80H592V248c0-22.1-17.9-40-40-40H88c-22.1 0-40 17.9-40 40V368zm208 16A80 80 0 1 0 96 384a80 80 0 1 0 160 0zm208 80a80 80 0 1 0 0-160 80 80 0 1 0 0 160z"/></svg>