<svg xmlns="http://www.w3.org/2000/svg" viewBox="0 0 640 512"><!-- Font Awesome Pro 6.0.0-alpha2 by @fontawesome - https://fontawesome.com License - https://fontawesome.com/license (Commercial License) --><path d="M622.221 96L436.536 0C416.411 27.75 371.911 47.25 320.036 47.25C320.024 47.25 320.012 47.248 320.001 47.248S319.977 47.25 319.965 47.25C268.09 47.25 223.59 27.75 203.465 0L17.78 96C1.946 103.846 -4.537 123.193 3.374 138.996L46.418 224.994C52.024 236.193 63.319 242.678 75.057 242.678C79.786 242.678 84.586 241.625 89.116 239.406L160.1 200.598L160 480C159.995 497.67 174.317 512 191.989 512H448.012C465.684 512 480.006 497.67 480 480L479.901 200.598L550.885 239.406C555.415 241.625 560.215 242.678 564.944 242.678C576.682 242.678 587.977 236.193 593.583 224.994L636.627 138.996C644.538 123.193 638.055 103.846 622.221 96ZM622.319 131.834L579.274 217.832C576.543 223.289 571.053 226.678 564.944 226.678C562.506 226.678 560.145 226.125 558.561 225.367L487.577 186.559L463.891 173.609L463.901 200.604L464 480.004C464.002 484.277 462.34 488.293 459.319 491.314C456.299 494.336 452.284 496 448.012 496H191.989C187.717 496 183.702 494.336 180.682 491.314C177.661 488.293 175.999 484.277 176 480.006L176.1 200.604L176.11 173.609L152.424 186.559L82.075 225.039C79.856 226.125 77.495 226.678 75.057 226.678C68.948 226.678 63.458 223.289 60.727 217.832L17.682 131.834C15.774 128.023 15.477 123.678 16.844 119.596C18.211 115.516 21.067 112.227 25.127 110.213L199.522 20.051C225.772 46.971 270.448 63.25 320.036 63.25C369.561 63.25 414.231 46.971 440.479 20.051L615.118 110.336C618.934 112.227 621.79 115.516 623.157 119.596C624.524 123.678 624.227 128.023 622.319 131.834Z"/></svg>