<svg xmlns="http://www.w3.org/2000/svg" viewBox="0 0 512 512"><!--! Font Awesome Pro 6.4.0 by @fontawesome - https://fontawesome.com License - https://fontawesome.com/license (Commercial License) Copyright 2023 Fonticons, Inc. --><path d="M354 148.8c0-6.9-4.4-13.1-11-15.2c-56.5-18.5-117.4-18.5-173.9 0c-6.6 2.2-11 8.3-11 15.2v53.4c0 12-8.9 22.2-20.8 23.8L61.1 236c-11 1.5-21.5-4.8-25.5-15.1L23.1 188.7c-8.3-21.3-4.3-43.5 10.4-56.5C77.2 93.7 154.9 48 256 48s178.8 45.7 222.4 84.3c14.7 13 18.7 35.2 10.4 56.5l-12.4 32.1c-4 10.3-14.6 16.6-25.5 15.1l-76.1-10.1c-11.9-1.6-20.8-11.8-20.8-23.8V148.8zm-180 0c53.3-17.4 110.7-17.4 164 0v53.4c0 20.1 14.9 37 34.7 39.7l76.1 10.1c18.3 2.4 35.9-8 42.6-25.2l12.4-32.1c10.1-26 6.2-55.8-14.8-74.2C443.3 79.9 362 32 256 32S68.7 79.9 23 120.3C2 138.7-1.9 168.5 8.2 194.5l12.4 32.1c6.7 17.2 24.3 27.6 42.6 25.2l76.1-10.1c19.9-2.6 34.7-19.6 34.7-39.7V148.8zM72 288c-13.3 0-24 10.7-24 24v32c0 13.3 10.7 24 24 24h32c13.3 0 24-10.7 24-24V312c0-13.3-10.7-24-24-24H72zm-8 24c0-4.4 3.6-8 8-8h32c4.4 0 8 3.6 8 8v32c0 4.4-3.6 8-8 8H72c-4.4 0-8-3.6-8-8V312zm8 88c-13.3 0-24 10.7-24 24v32c0 13.3 10.7 24 24 24h32c13.3 0 24-10.7 24-24V424c0-13.3-10.7-24-24-24H72zm-8 24c0-4.4 3.6-8 8-8h32c4.4 0 8 3.6 8 8v32c0 4.4-3.6 8-8 8H72c-4.4 0-8-3.6-8-8V424zm344-24c-13.3 0-24 10.7-24 24v32c0 13.3 10.7 24 24 24h32c13.3 0 24-10.7 24-24V424c0-13.3-10.7-24-24-24H408zm-8 24c0-4.4 3.6-8 8-8h32c4.4 0 8 3.6 8 8v32c0 4.4-3.6 8-8 8H408c-4.4 0-8-3.6-8-8V424zm-240 0v32c0 13.3 10.7 24 24 24H328c13.3 0 24-10.7 24-24V424c0-13.3-10.7-24-24-24H184c-13.3 0-24 10.7-24 24zm24-8H328c4.4 0 8 3.6 8 8v32c0 4.4-3.6 8-8 8H184c-4.4 0-8-3.6-8-8V424c0-4.4 3.6-8 8-8zM160 312v32c0 13.3 10.7 24 24 24h32c13.3 0 24-10.7 24-24V312c0-13.3-10.7-24-24-24H184c-13.3 0-24 10.7-24 24zm24-8h32c4.4 0 8 3.6 8 8v32c0 4.4-3.6 8-8 8H184c-4.4 0-8-3.6-8-8V312c0-4.4 3.6-8 8-8zm112-16c-13.3 0-24 10.7-24 24v32c0 13.3 10.7 24 24 24h32c13.3 0 24-10.7 24-24V312c0-13.3-10.7-24-24-24H296zm-8 24c0-4.4 3.6-8 8-8h32c4.4 0 8 3.6 8 8v32c0 4.4-3.6 8-8 8H296c-4.4 0-8-3.6-8-8V312zm96 0v32c0 13.3 10.7 24 24 24h32c13.3 0 24-10.7 24-24V312c0-13.3-10.7-24-24-24H408c-13.3 0-24 10.7-24 24zm24-8h32c4.4 0 8 3.6 8 8v32c0 4.4-3.6 8-8 8H408c-4.4 0-8-3.6-8-8V312c0-4.4 3.6-8 8-8z"/></svg>