<svg xmlns="http://www.w3.org/2000/svg" viewBox="0 0 384 512"><!--! Font Awesome Pro 6.4.0 by @fontawesome - https://fontawesome.com License - https://fontawesome.com/license (Commercial License) Copyright 2023 Fonticons, Inc. --><path d="M88 32c4.4 0 8 3.6 8 8v91.1L278.2 88.2c4.3-1 8.6 1.7 9.6 6s-1.7 8.6-6 9.6L96 147.5v79.6l182.2-42.9c4.3-1 8.6 1.7 9.6 6s-1.7 8.6-6 9.6L96 243.5V440c0 13.3 10.7 24 24 24h78.6c90.3 0 164.4-71.3 167.9-161.5l1.5-38.8c.2-4.4 3.9-7.9 8.3-7.7s7.9 3.9 7.7 8.3l-1.5 38.8c-3.8 98.8-85 176.9-183.9 176.9H120c-22.1 0-40-17.9-40-40V247.3L9.8 263.8c-4.3 1-8.6-1.7-9.6-6s1.7-8.6 6-9.6L80 230.8V151.3L9.8 167.8c-4.3 1-8.6-1.7-9.6-6s1.7-8.6 6-9.6L80 134.8V40c0-4.4 3.6-8 8-8z"/></svg>