<svg xmlns="http://www.w3.org/2000/svg" viewBox="0 0 576 512"><!--! Font Awesome Pro 6.4.0 by @fontawesome - https://fontawesome.com License - https://fontawesome.com/license (Commercial License) Copyright 2023 Fonticons, Inc. --><path d="M208 48C119.6 48 48 119.6 48 208v56c0 4.4-3.6 8-8 8s-8-3.6-8-8V208c0-97.2 78.8-176 176-176s176 78.8 176 176v56c0 4.4-3.6 8-8 8s-8-3.6-8-8V208c0-88.4-71.6-160-160-160zM416 200c0-39.8 32.2-72 72-72c48.6 0 88 39.4 88 88v16c0 30.9-25.1 56-56 56H485.8l-1 3c-18.5 55.5-70.5 93-129 93H336v56c0 22.1-17.9 40-40 40H280c-22.1 0-40-17.9-40-40V384H176v56c0 22.1-17.9 40-40 40H120c-22.1 0-40-17.9-40-40V384H40c-22.1 0-40-17.9-40-40s17.9-40 40-40H368c26.5 0 48-21.5 48-48V200zM240 368h16v16 32 24c0 13.3 10.7 24 24 24h16c13.3 0 24-10.7 24-24V416 384 368h16 19.7c51.7 0 97.5-33.1 113.8-82.1l2.8-8.5c1.1-3.3 4.1-5.5 7.6-5.5h40c22.1 0 40-17.9 40-40V216c0-39.8-32.2-72-72-72c-30.9 0-56 25.1-56 56v56c0 35.3-28.7 64-64 64H320 256 160 96 40c-13.3 0-24 10.7-24 24s10.7 24 24 24H80 96v16 32 24c0 13.3 10.7 24 24 24h16c13.3 0 24-10.7 24-24V416 384 368h16 64zM496 192a16 16 0 1 1 0 32 16 16 0 1 1 0-32z"/></svg>