<svg xmlns="http://www.w3.org/2000/svg" viewBox="0 0 640 512"><!--! Font Awesome Pro 6.4.0 by @fontawesome - https://fontawesome.com License - https://fontawesome.com/license (Commercial License) Copyright 2023 Fonticons, Inc. --><path d="M64 16C37.5 16 16 37.5 16 64V384c0 26.5 21.5 48 48 48H576c26.5 0 48-21.5 48-48V64c0-26.5-21.5-48-48-48H64zM0 64C0 28.7 28.7 0 64 0H576c35.3 0 64 28.7 64 64V384c0 35.3-28.7 64-64 64H64c-35.3 0-64-28.7-64-64V64zM104 496H536c4.4 0 8 3.6 8 8s-3.6 8-8 8H104c-4.4 0-8-3.6-8-8s3.6-8 8-8zM560 80H80V368H560V80zM80 64H560c8.8 0 16 7.2 16 16V368c0 8.8-7.2 16-16 16H80c-8.8 0-16-7.2-16-16V80c0-8.8 7.2-16 16-16zm332.6 41.4c2.2 1.5 3.4 4 3.4 6.6V264l0 0c0 22.1-21.5 40-48 40s-48-17.9-48-40s21.5-40 48-40c12.3 0 23.5 3.9 32 10.2V123.5l-112 42V296l0 0c0 22.1-21.5 40-48 40c-26.5 0-48-17.9-48-40s21.5-40 48-40c12.3 0 23.5 3.9 32 10.2V160c0-3.3 2.1-6.3 5.2-7.5l128-48c2.5-.9 5.2-.6 7.4 .9zM368 240c-20.5 0-32 13.4-32 24s11.5 24 32 24s32-13.4 32-24s-11.5-24-32-24zM240 272c-20.5 0-32 13.4-32 24s11.5 24 32 24s32-13.4 32-24s-11.5-24-32-24z"/></svg>