<svg xmlns="http://www.w3.org/2000/svg" viewBox="0 0 512 512"><!--! Font Awesome Pro 6.4.0 by @fontawesome - https://fontawesome.com License - https://fontawesome.com/license (Commercial License) Copyright 2023 Fonticons, Inc. --><path d="M141 1.8C137.5-1 132.5-.4 129.8 3s-2.2 8.5 1.2 11.2L233.2 96H80C35.8 96 0 131.8 0 176V432c0 44.2 35.8 80 80 80H432c44.2 0 80-35.8 80-80V176c0-44.2-35.8-80-80-80H278.8L381 14.2c3.4-2.8 4-7.8 1.2-11.2s-7.8-4-11.2-1.2l-115 92L141 1.8zM256 112H432c35.3 0 64 28.7 64 64V432c0 35.3-28.7 64-64 64H80c-35.3 0-64-28.7-64-64V176c0-35.3 28.7-64 64-64H256zm80 64c17.7 0 32 14.3 32 32V400c0 17.7-14.3 32-32 32H112c-17.7 0-32-14.3-32-32V208c0-17.7 14.3-32 32-32H336zM112 160c-26.5 0-48 21.5-48 48V400c0 26.5 21.5 48 48 48H336c26.5 0 48-21.5 48-48V208c0-26.5-21.5-48-48-48H112zm312 48a8 8 0 1 1 16 0 8 8 0 1 1 -16 0zm32 0a24 24 0 1 0 -48 0 24 24 0 1 0 48 0zm-24 56a8 8 0 1 1 0 16 8 8 0 1 1 0-16zm0 32a24 24 0 1 0 0-48 24 24 0 1 0 0 48z"/></svg>