<svg xmlns="http://www.w3.org/2000/svg" viewBox="0 0 640 512"><!--! Font Awesome Pro 6.4.0 by @fontawesome - https://fontawesome.com License - https://fontawesome.com/license (Commercial License) Copyright 2023 Fonticons, Inc. --><path d="M576 16c26.5 0 48 21.5 48 48V384c0 26.5-21.5 48-48 48H64c-26.5 0-48-21.5-48-48V64c0-26.5 21.5-48 48-48H576zM64 0C28.7 0 0 28.7 0 64V384c0 35.3 28.7 64 64 64H576c35.3 0 64-28.7 64-64V64c0-35.3-28.7-64-64-64H64zM96 504c0 4.4 3.6 8 8 8H536c4.4 0 8-3.6 8-8s-3.6-8-8-8H104c-4.4 0-8 3.6-8 8zM80 80H560V368H80V80zM64 80V368c0 8.8 7.2 16 16 16H560c8.8 0 16-7.2 16-16V80c0-8.8-7.2-16-16-16H80c-8.8 0-16 7.2-16 16z"/></svg>