<svg xmlns="http://www.w3.org/2000/svg" viewBox="0 0 512 512"><!--! Font Awesome Pro 6.4.0 by @fontawesome - https://fontawesome.com License - https://fontawesome.com/license (Commercial License) Copyright 2023 Fonticons, Inc. --><path d="M112 16C94.3 16 80 30.3 80 48V160H64V48C64 21.5 85.5 0 112 0H359.4c12.7 0 24.9 5.1 33.9 14.1l40.6 40.6c9 9 14.1 21.2 14.1 33.9V160H432V88.6c0-8.5-3.4-16.6-9.4-22.6L382.1 25.4c-6-6-14.1-9.4-22.6-9.4H112zM16 224v32c0 8.8 7.2 16 16 16H480c8.8 0 16-7.2 16-16V224c0-8.8-7.2-16-16-16H365.3c-4.2 0-8.3 1.7-11.3 4.7l-13.3 13.3c-9 9-21.2 14.1-33.9 14.1H205.3c-12.7 0-24.9-5.1-33.9-14.1l-13.3-13.3c-3-3-7.1-4.7-11.3-4.7H32c-8.8 0-16 7.2-16 16zm326.6-22.6c6-6 14.1-9.4 22.6-9.4H480c17.7 0 32 14.3 32 32v32c0 17.7-14.3 32-32 32V448c0 35.3-28.7 64-64 64H96c-35.3 0-64-28.7-64-64V288c-17.7 0-32-14.3-32-32V224c0-17.7 14.3-32 32-32H146.7c8.5 0 16.6 3.4 22.6 9.4l13.3 13.3c6 6 14.1 9.4 22.6 9.4H306.7c8.5 0 16.6-3.4 22.6-9.4l13.3-13.3zM48 288V448c0 26.5 21.5 48 48 48H416c26.5 0 48-21.5 48-48V288H48zM160 448H352c4.4 0 8 3.6 8 8s-3.6 8-8 8H160c-4.4 0-8-3.6-8-8s3.6-8 8-8zM144 336a16 16 0 1 1 -32 0 16 16 0 1 1 32 0zm16 80a16 16 0 1 1 0-32 16 16 0 1 1 0 32zm48-80a16 16 0 1 1 -32 0 16 16 0 1 1 32 0zm16 80a16 16 0 1 1 0-32 16 16 0 1 1 0 32zm48-80a16 16 0 1 1 -32 0 16 16 0 1 1 32 0zm16 80a16 16 0 1 1 0-32 16 16 0 1 1 0 32zm48-80a16 16 0 1 1 -32 0 16 16 0 1 1 32 0zm16 80a16 16 0 1 1 0-32 16 16 0 1 1 0 32zm48-80a16 16 0 1 1 -32 0 16 16 0 1 1 32 0z"/></svg>