<svg xmlns="http://www.w3.org/2000/svg" viewBox="0 0 448 512"><!--! Font Awesome Pro 6.4.0 by @fontawesome - https://fontawesome.com License - https://fontawesome.com/license (Commercial License) Copyright 2023 Fonticons, Inc. --><path d="M224 16c-61.9 0-112 50.1-112 112v64H384c35.3 0 64 28.7 64 64V448c0 35.3-28.7 64-64 64H64c-35.3 0-64-28.7-64-64V256c0-35.3 28.7-64 64-64H96V128C96 57.3 153.3 0 224 0c58.9 0 108.5 39.8 123.4 93.9c1.2 4.3-1.3 8.7-5.6 9.8s-8.7-1.3-9.8-5.6C318.9 50.8 275.5 16 224 16zM64 208c-26.5 0-48 21.5-48 48V448c0 26.5 21.5 48 48 48H384c26.5 0 48-21.5 48-48V256c0-26.5-21.5-48-48-48H112 96 64zM272 352c0-8.8-7.2-16-16-16H192c-8.8 0-16 7.2-16 16s7.2 16 16 16h64c8.8 0 16-7.2 16-16zm-16-32c17.7 0 32 14.3 32 32s-14.3 32-32 32H192c-17.7 0-32-14.3-32-32s14.3-32 32-32h64z"/></svg>