<svg xmlns="http://www.w3.org/2000/svg" viewBox="0 0 320 512"><!--! Font Awesome Pro 6.4.0 by @fontawesome - https://fontawesome.com License - https://fontawesome.com/license (Commercial License) Copyright 2023 Fonticons, Inc. --><path d="M104 176H22.9c-3.8 0-6.9-3.1-6.9-6.9c0-1.8 .7-3.5 1.9-4.7L158.1 16.8c.5-.5 1.2-.8 1.9-.8s1.4 .3 1.9 .8L302.1 164.4c1.2 1.3 1.9 3 1.9 4.7c0 3.8-3.1 6.9-6.9 6.9H216c-8.8 0-16 7.2-16 16V472c0 13.3-10.7 24-24 24H144c-13.3 0-24-10.7-24-24V192c0-8.8-7.2-16-16-16zM146.5 5.8L6.3 153.4c-4 4.3-6.3 9.9-6.3 15.8C0 181.8 10.2 192 22.9 192H88h16v16V472c0 22.1 17.9 40 40 40h32c22.1 0 40-17.9 40-40V208 192h16 65.1c12.6 0 22.9-10.2 22.9-22.9c0-5.9-2.3-11.5-6.3-15.8L173.5 5.8C170 2.1 165.1 0 160 0s-10 2.1-13.5 5.8z"/></svg>