<svg xmlns="http://www.w3.org/2000/svg" viewBox="0 0 512 512"><!--! Font Awesome Pro 6.4.0 by @fontawesome - https://fontawesome.com License - https://fontawesome.com/license (Commercial License) Copyright 2023 Fonticons, Inc. --><path d="M345 16H472c13.3 0 24 10.7 24 24V167c0 13.8-11.2 25-25 25c-6.6 0-13-2.6-17.7-7.3L396 127.3 213.7 309.7c-3.1 3.1-8.2 3.1-11.3 0s-3.1-8.2 0-11.3L384.7 116 327.3 58.6c-4.7-4.7-7.3-11-7.3-17.7c0-13.8 11.2-25 25-25zm-9 25c0 2.4 .9 4.7 2.6 6.3L464.7 173.4c1.7 1.7 4 2.6 6.3 2.6c5 0 9-4 9-9V40c0-4.4-3.6-8-8-8H345c-5 0-9 4-9 9zM0 120C0 89.1 25.1 64 56 64H200c4.4 0 8 3.6 8 8s-3.6 8-8 8H56c-22.1 0-40 17.9-40 40V456c0 22.1 17.9 40 40 40H392c22.1 0 40-17.9 40-40V312c0-4.4 3.6-8 8-8s8 3.6 8 8V456c0 30.9-25.1 56-56 56H56c-30.9 0-56-25.1-56-56V120z"/></svg>