<svg xmlns="http://www.w3.org/2000/svg" viewBox="0 0 640 512"><!--! Font Awesome Pro 6.4.0 by @fontawesome - https://fontawesome.com License - https://fontawesome.com/license (Commercial License) Copyright 2023 Fonticons, Inc. --><path d="M224 16a112 112 0 1 1 0 224 112 112 0 1 1 0-224zM178.3 320h91.4c19.1 0 37.5 3.3 54.5 9.4c1.2-5.3 2.6-10.4 4.2-15.5c-18.4-6.4-38.2-9.9-58.8-9.9H178.3C79.8 304 0 383.8 0 482.3C0 498.7 13.3 512 29.7 512H394.8c-6.9-4.9-13.4-10.2-19.6-16H29.7c-7.6 0-13.7-6.1-13.7-13.7C16 392.7 88.7 320 178.3 320zM352 128A128 128 0 1 0 96 128a128 128 0 1 0 256 0zM496 240a128 128 0 1 1 0 256 128 128 0 1 1 0-256zm0 272a144 144 0 1 0 0-288 144 144 0 1 0 0 288zm0-224c-4.4 0-8 3.6-8 8v72c0 4.4 3.6 8 8 8h56c4.4 0 8-3.6 8-8s-3.6-8-8-8H504V296c0-4.4-3.6-8-8-8z"/></svg>