<svg xmlns="http://www.w3.org/2000/svg" viewBox="0 0 640 512"><!--! Font Awesome Pro 6.4.0 by @fontawesome - https://fontawesome.com License - https://fontawesome.com/license (Commercial License) Copyright 2023 Fonticons, Inc. --><path d="M0 16V120c0 4.4 3.6 8 8 8s8-3.6 8-8V16l104 0c4.4 0 8-3.6 8-8s-3.6-8-8-8H16C7.2 0 0 7.2 0 16zm640 0c0-8.8-7.2-16-16-16H520c-4.4 0-8 3.6-8 8s3.6 8 8 8l104 0V120c0 4.4 3.6 8 8 8s8-3.6 8-8V16zM16 512H120c4.4 0 8-3.6 8-8s-3.6-8-8-8H16V392c0-4.4-3.6-8-8-8s-8 3.6-8 8V496c0 8.8 7.2 16 16 16zm624-16V392c0-4.4-3.6-8-8-8s-8 3.6-8 8V496H520c-4.4 0-8 3.6-8 8s3.6 8 8 8H624c8.8 0 16-7.2 16-16zM272 192a48 48 0 1 1 96 0 48 48 0 1 1 -96 0zM224 360c0-30.9 25.1-56 56-56h80c30.9 0 56 25.1 56 56c0 4.4-3.6 8-8 8H232c-4.4 0-8-3.6-8-8zm96-104a64 64 0 1 0 0-128 64 64 0 1 0 0 128zm-40 32c-39.8 0-72 32.2-72 72c0 13.3 10.7 24 24 24H408c13.3 0 24-10.7 24-24c0-39.8-32.2-72-72-72H280zM112 312c0-22.1 17.9-40 40-40h64c4.4 0 8-3.6 8-8s-3.6-8-8-8H152c-30.9 0-56 25.1-56 56c0 17.7 14.3 32 32 32h32c4.4 0 8-3.6 8-8s-3.6-8-8-8H128c-8.8 0-16-7.2-16-16zm64-168a32 32 0 1 1 0 64 32 32 0 1 1 0-64zm0 80a48 48 0 1 0 0-96 48 48 0 1 0 0 96zm352 88c0 8.8-7.2 16-16 16H480c-4.4 0-8 3.6-8 8s3.6 8 8 8h32c17.7 0 32-14.3 32-32c0-30.9-25.1-56-56-56H424c-4.4 0-8 3.6-8 8s3.6 8 8 8h64c22.1 0 40 17.9 40 40zM464 144a32 32 0 1 1 0 64 32 32 0 1 1 0-64zm0 80a48 48 0 1 0 0-96 48 48 0 1 0 0 96z"/></svg>