<svg xmlns="http://www.w3.org/2000/svg" viewBox="0 0 448 512"><!--! Font Awesome Pro 6.4.0 by @fontawesome - https://fontawesome.com License - https://fontawesome.com/license (Commercial License) Copyright 2023 Fonticons, Inc. --><path d="M336 128a112 112 0 1 0 -224 0 112 112 0 1 0 224 0zM96 128a128 128 0 1 1 256 0A128 128 0 1 1 96 128zM16 482.3c0 7.6 6.1 13.7 13.7 13.7H418.3c7.6 0 13.7-6.1 13.7-13.7C432 392.7 359.3 320 269.7 320H178.3C88.7 320 16 392.7 16 482.3zm-16 0C0 383.8 79.8 304 178.3 304h91.4C368.2 304 448 383.8 448 482.3c0 16.4-13.3 29.7-29.7 29.7H29.7C13.3 512 0 498.7 0 482.3z"/></svg>