<svg xmlns="http://www.w3.org/2000/svg" viewBox="0 0 448 512"><!--! Font Awesome Pro 6.4.0 by @fontawesome - https://fontawesome.com License - https://fontawesome.com/license (Commercial License) Copyright 2023 Fonticons, Inc. --><path d="M336 144v-8-8c0-5.4-.4-10.8-1.1-16H312c-22.1 0-43-10.2-56.6-27.5L251 89.9C231.2 114 201.7 128 170.5 128L112 128v8 8c0 61.9 50.1 112 112 112s112-50.1 112-112zM292.4 39.3L265.8 71.8l1.4 1.8C277.8 87.7 294.4 96 312 96h19.4c-6.8-22.8-20.6-42.5-39-56.7zM113.1 112h57.4c26.4 0 51.4-11.8 68.1-32.3L279 30.4C262.7 21.2 244 16 224 16c-56.4 0-103.1 41.7-110.9 96zM390.4 244.8c-20.6-15.4-36.1-36.2-45.2-59.6C328.1 235.7 280.3 272 224 272s-104.1-36.3-121.2-86.8c-9.1 23.4-24.6 44.1-45.2 59.6L53.3 248c-3.4 2.5-5.3 6.5-5.3 10.7C48 266 54 272 61.3 272H120c4.4 0 8 3.6 8 8s-3.6 8-8 8H61.3C45.1 288 32 274.9 32 258.7c0-9.2 4.3-17.9 11.7-23.5L48 232c30.2-22.7 48-58.2 48-96v-8C96 57.3 153.3 0 224 0s128 57.3 128 128v8c0 37.8 17.8 73.3 48 96l4.3 3.2c7.4 5.5 11.7 14.2 11.7 23.5c0 16.2-13.1 29.3-29.3 29.3H328c-4.4 0-8-3.6-8-8s3.6-8 8-8h58.7c7.4 0 13.3-6 13.3-13.3c0-4.2-2-8.1-5.3-10.7l-4.3-3.2zM152 322v46.7c22.7 3.8 40 23.6 40 47.3c0 26.5-21.5 48-48 48s-48-21.5-48-48c0-23.8 17.3-43.5 40-47.3V325.3C66.9 343.5 16 406.4 16 481.2c0 8.2 6.6 14.8 14.8 14.8H417.2c8.2 0 14.8-6.6 14.8-14.8c0-74.8-50.9-137.7-120-155.9v43.4c22.7 3.8 40 23.6 40 47.3v40c0 4.4-3.6 8-8 8H328c-4.4 0-8-3.6-8-8s3.6-8 8-8h8V416c0-17.7-14.3-32-32-32s-32 14.3-32 32v32h8c4.4 0 8 3.6 8 8s-3.6 8-8 8H264c-4.4 0-8-3.6-8-8V416c0-23.8 17.3-43.5 40-47.3V322c-8.2-1.3-16.6-2-25.2-2H177.2c-8.6 0-17 .7-25.2 2zm-40 94a32 32 0 1 0 64 0 32 32 0 1 0 -64 0zM0 481.2C0 383.3 79.3 304 177.2 304h93.6C368.7 304 448 383.3 448 481.2c0 17-13.8 30.8-30.8 30.8H30.8C13.8 512 0 498.2 0 481.2z"/></svg>