<svg xmlns="http://www.w3.org/2000/svg" viewBox="0 0 640 512"><!--! Font Awesome Pro 6.4.0 by @fontawesome - https://fontawesome.com License - https://fontawesome.com/license (Commercial License) Copyright 2023 Fonticons, Inc. --><path d="M224 240a112 112 0 1 0 0-224 112 112 0 1 0 0 224zm-45.7 80C88.7 320 16 392.7 16 482.3c0 7.6 6.1 13.7 13.7 13.7H386c1.5 5.7 3.7 11 6.5 16H29.7C13.3 512 0 498.7 0 482.3C0 383.8 79.8 304 178.3 304h91.4c43.6 0 83.6 15.7 114.6 41.7c-.2 2.1-.3 4.2-.3 6.3v15.1C354.7 338 314.3 320 269.7 320H178.3zM96 128a128 128 0 1 1 256 0A128 128 0 1 1 96 128zm432 80c-26.5 0-48 21.5-48 48v64h96V256c0-26.5-21.5-48-48-48zm-64 48c0-35.3 28.7-64 64-64s64 28.7 64 64v64h16c17.7 0 32 14.3 32 32V480c0 17.7-14.3 32-32 32H448c-17.7 0-32-14.3-32-32V352c0-17.7 14.3-32 32-32h16V256zm-16 80c-8.8 0-16 7.2-16 16V480c0 8.8 7.2 16 16 16H608c8.8 0 16-7.2 16-16V352c0-8.8-7.2-16-16-16H592 576 480 464 448z"/></svg>