<svg xmlns="http://www.w3.org/2000/svg" viewBox="0 0 640 512"><!--! Font Awesome Pro 6.4.0 by @fontawesome - https://fontawesome.com License - https://fontawesome.com/license (Commercial License) Copyright 2023 Fonticons, Inc. --><path d="M208 80A64 64 0 1 0 80 80a64 64 0 1 0 128 0zM64 80a80 80 0 1 1 160 0A80 80 0 1 1 64 80zM320 304a80 80 0 1 0 0-160 80 80 0 1 0 0 160zm0-176a96 96 0 1 1 0 192 96 96 0 1 1 0-192zM261.3 368C196.5 368 144 420.5 144 485.3c0 5.9 4.8 10.7 10.7 10.7h310c1 5.7 2.9 11.1 5.8 16H154.7c-14.7 0-26.7-11.9-26.7-26.7C128 411.7 187.7 352 261.3 352H378.7c8.1 0 16.1 .7 23.8 2.1c-3.5 4.4-6.3 9.5-8.1 14.9c-5.1-.7-10.4-1-15.7-1H261.3zM512 144a64 64 0 1 0 0-128 64 64 0 1 0 0 128zM512 0a80 80 0 1 1 0 160A80 80 0 1 1 512 0zm24 208H447c-.7-5.4-1.7-10.8-3-16h92c57.4 0 104 46.6 104 104c0 4.4-3.6 8-8 8s-8-3.6-8-8c0-48.6-39.4-88-88-88zm-343 0H104c-48.6 0-88 39.4-88 88c0 4.4-3.6 8-8 8s-8-3.6-8-8c0-57.4 46.6-104 104-104h92c-1.3 5.2-2.4 10.6-3 16zM504 312v56c0 4.4-3.6 8-8 8H440c-4.4 0-8 3.6-8 8v32c0 4.4 3.6 8 8 8h56c4.4 0 8 3.6 8 8v56c0 4.4 3.6 8 8 8h32c4.4 0 8-3.6 8-8V432c0-4.4 3.6-8 8-8h56c4.4 0 8-3.6 8-8V384c0-4.4-3.6-8-8-8H560c-4.4 0-8-3.6-8-8V312c0-4.4-3.6-8-8-8H512c-4.4 0-8 3.6-8 8zm8-24h32c13.3 0 24 10.7 24 24v48h48c13.3 0 24 10.7 24 24v32c0 13.3-10.7 24-24 24H568v48c0 13.3-10.7 24-24 24H512c-13.3 0-24-10.7-24-24V440H440c-13.3 0-24-10.7-24-24V384c0-13.3 10.7-24 24-24h48V312c0-13.3 10.7-24 24-24z"/></svg>