<svg xmlns="http://www.w3.org/2000/svg" viewBox="0 0 448 512"><!--! Font Awesome Pro 6.4.0 by @fontawesome - https://fontawesome.com License - https://fontawesome.com/license (Commercial License) Copyright 2023 Fonticons, Inc. --><path d="M200 24V88c0 4.4-3.6 8-8 8s-8-3.6-8-8V38.8C137.4 55.3 104 99.8 104 152v8H344v-8c0-52.2-33.4-96.7-80-113.2V88c0 4.4-3.6 8-8 8s-8-3.6-8-8V24c0-4.4-3.6-8-8-8H208c-4.4 0-8 3.6-8 8zm-16 0c0-13.3 10.7-24 24-24h32c13.3 0 24 10.7 24 24V22c55.6 17.1 96 68.8 96 130v8l16 0c4.4 0 8 3.6 8 8s-3.6 8-8 8H72c-4.4 0-8-3.6-8-8s3.6-8 8-8l16 0v-8c0-61.2 40.4-112.9 96-130v2zm40 296c-65.3 0-119.1-48.9-127-112h16.1c7.8 54.3 54.4 96 110.9 96s103.1-41.7 110.9-96H351c-7.9 63.1-61.7 112-127 112zm-89.6 48C69 368 16 421 16 486.4c0 5.3 4.3 9.6 9.6 9.6H422.4c5.3 0 9.6-4.3 9.6-9.6C432 421 379 368 313.6 368H134.4zM0 486.4C0 412.2 60.2 352 134.4 352H313.6C387.8 352 448 412.2 448 486.4c0 14.1-11.5 25.6-25.6 25.6H25.6C11.5 512 0 500.5 0 486.4z"/></svg>