<svg xmlns="http://www.w3.org/2000/svg" viewBox="0 0 448 512"><!--! Font Awesome Pro 6.4.0 by @fontawesome - https://fontawesome.com License - https://fontawesome.com/license (Commercial License) Copyright 2023 Fonticons, Inc. --><path d="M336 128c0-5.4-.4-10.8-1.1-16H312c-22.1 0-43-10.2-56.6-27.5L251 89.9C231.2 114 201.7 128 170.5 128L112 128v16c0 61.9 50.1 112 112 112s112-50.1 112-112V128zM267.2 73.6C277.8 87.7 294.4 96 312 96h19.4c-6.8-22.8-20.6-42.5-39-56.7L265.8 71.8l1.4 1.8zM279 30.4C262.7 21.2 244 16 224 16c-56.4 0-103.1 41.7-110.9 96h57.4c26.4 0 51.4-11.8 68.1-32.3L279 30.4zM96 128C96 57.3 153.3 0 224 0s128 57.3 128 128v16c0 70.7-57.3 128-128 128s-128-57.3-128-128V128zm80.9 180.3c1.4-2.7 4.1-4.3 7.1-4.3h80c3 0 5.7 1.7 7.1 4.3s1.1 5.9-.6 8.3l-37.2 52.1 23.2 46.3 47.1-94.2c81.2 8.4 144.4 77 144.4 160.4c0 17-13.8 30.7-30.7 30.7H225.9h-3.8H30.7C13.8 512 0 498.2 0 481.3c0-83.4 63.3-152 144.4-160.4l47.1 94.2 23.2-46.3-37.2-52.1c-1.7-2.4-2-5.6-.6-8.3zM199.5 320L224 354.2 248.5 320H199.5zm10.1 167.2L135.3 338.3C67.5 350.6 16 409.9 16 481.3c0 8.1 6.6 14.7 14.7 14.7H214.1l-4.4-8.8zm-9.2-54.2l14.6 29.2L224 480l8.9-17.9 14.6-29.2L224 385.9l-23.5 47.1zM432 481.3c0-71.4-51.5-130.7-119.3-143L238.3 487.2l-4.4 8.8H417.3c8.1 0 14.7-6.6 14.7-14.7z"/></svg>