<svg xmlns="http://www.w3.org/2000/svg" viewBox="0 0 448 512"><!--! Font Awesome Pro 6.4.0 by @fontawesome - https://fontawesome.com License - https://fontawesome.com/license (Commercial License) Copyright 2023 Fonticons, Inc. --><path d="M224 16a160 160 0 1 1 0 320 160 160 0 1 1 0-320zm0 336A176 176 0 1 0 224 0a176 176 0 1 0 0 352zM84.7 330.5C33.9 361.9 0 418.1 0 482.3C0 498.7 13.3 512 29.7 512H418.3c16.4 0 29.7-13.3 29.7-29.7c0-64.2-33.9-120.4-84.7-151.8c-4.2 3.8-8.6 7.4-13.1 10.8c48.9 28 81.8 80.6 81.8 140.9c0 7.6-6.1 13.7-13.7 13.7H352v0V448c0-22.1-17.9-40-40-40H136c-22.1 0-40 17.9-40 40v48 0H29.7c-7.6 0-13.7-6.1-13.7-13.7c0-60.3 32.9-113 81.8-140.9c-4.5-3.4-8.9-7.1-13.1-10.8zM336 496v0H280v0V464c0-4.4-3.6-8-8-8s-8 3.6-8 8v32 0H184v0V464c0-4.4-3.6-8-8-8s-8 3.6-8 8v32 0H112v0V448c0-13.3 10.7-24 24-24H312c13.3 0 24 10.7 24 24v48zM112 176c0-26.5 21.5-48 48-48H288c26.5 0 48 21.5 48 48c0 53-43 96-96 96H208c-53 0-96-43-96-96zm-16 0c0 61.9 50.1 112 112 112h32c61.9 0 112-50.1 112-112c0-35.3-28.7-64-64-64H160c-35.3 0-64 28.7-64 64zm80-32c-4.4 0-8 3.6-8 8v16H152c-4.4 0-8 3.6-8 8s3.6 8 8 8h16v16c0 4.4 3.6 8 8 8s8-3.6 8-8V184h16c4.4 0 8-3.6 8-8s-3.6-8-8-8H184V152c0-4.4-3.6-8-8-8zM16 120V232c0 4.4 3.6 8 8 8s8-3.6 8-8V120c0-4.4-3.6-8-8-8s-8 3.6-8 8zm408-8c-4.4 0-8 3.6-8 8V232c0 4.4 3.6 8 8 8s8-3.6 8-8V120c0-4.4-3.6-8-8-8z"/></svg>