<svg xmlns="http://www.w3.org/2000/svg" viewBox="0 0 448 512"><!--! Font Awesome Pro 6.4.0 by @fontawesome - https://fontawesome.com License - https://fontawesome.com/license (Commercial License) Copyright 2023 Fonticons, Inc. --><path d="M224 256c-61.9 0-112-50.1-112-112V128c0-8.2 .9-16.3 2.6-24h26c32.9 0 63.8-15.6 83.4-41.8c19.6 26.2 50.4 41.8 83.4 41.8h26c1.7 7.7 2.6 15.8 2.6 24v16c0 61.9-50.1 112-112 112zM102.4 88H96c-4.4 0-8 3.6-8 8s3.6 8 8 8h2.2c-1.5 7.8-2.2 15.8-2.2 24v16c0 16 0 39.6-2.9 63c-3 23.7-8.8 45.9-19.5 60.2c-1.9 2.6-2.1 6.1-.5 8.9s4.8 4.3 8 3.8l50.3-7.2 13.4 26.8c1.8 3.6 5.9 5.3 9.7 4l24-8c4.2-1.4 6.5-5.9 5.1-10.1s-5.9-6.5-10.1-5.1l-17.4 5.8-12.9-25.8c-1.5-3.1-4.9-4.8-8.3-4.3l-39.6 5.7c7.4-15.8 11.4-34.7 13.6-52.7c.3-2.4 .6-4.8 .8-7.2C130.9 243.4 174.1 272 224 272s93.1-28.6 114.2-70.2c.2 2.4 .5 4.8 .8 7.2c2.3 18.1 6.3 36.9 13.6 52.7l-39.6-5.7c-3.4-.5-6.7 1.3-8.3 4.3l-12.9 25.8-17.4-5.8c-4.2-1.4-8.7 .9-10.1 5.1s.9 8.7 5.1 10.1l24 8c3.8 1.3 7.9-.5 9.7-4l13.4-26.8 50.3 7.2c3.2 .5 6.4-1.1 8-3.8s1.5-6.3-.5-8.9c-10.7-14.2-16.5-36.5-19.5-60.2c-2.9-23.4-2.9-47-2.9-63V128c0-8.2-.8-16.2-2.2-24H352c4.4 0 8-3.6 8-8s-3.6-8-8-8h-6.4C328.8 36.9 280.7 0 224 0S119.2 36.9 102.4 88zm17 0C135.5 45.9 176.2 16 224 16s88.5 29.9 104.6 72H307.4c-29.4 0-56.9-14.7-73.2-39.2l-3.5-5.3c-1.5-2.2-4-3.6-6.7-3.6s-5.2 1.3-6.7 3.6l-3.5 5.3C197.5 73.3 170 88 140.6 88H119.4zm44.2 248H284.4C365.9 336 432 402.1 432 483.6c0 6.9-5.6 12.4-12.4 12.4H28.4c-6.9 0-12.4-5.6-12.4-12.4C16 402.1 82.1 336 163.6 336zm0-16C73.2 320 0 393.2 0 483.6C0 499.3 12.7 512 28.4 512H419.6c15.7 0 28.4-12.7 28.4-28.4C448 393.2 374.8 320 284.4 320H163.6z"/></svg>