<svg xmlns="http://www.w3.org/2000/svg" viewBox="0 0 576 512"><!--! Font Awesome Pro 6.4.0 by @fontawesome - https://fontawesome.com License - https://fontawesome.com/license (Commercial License) Copyright 2023 Fonticons, Inc. --><path d="M64 16C37.5 16 16 37.5 16 64V416c0 26.5 21.5 48 48 48H512c26.5 0 48-21.5 48-48V64c0-26.5-21.5-48-48-48H64zM0 64C0 28.7 28.7 0 64 0H512c35.3 0 64 28.7 64 64V416c0 35.3-28.7 64-64 64v24c0 4.4-3.6 8-8 8s-8-3.6-8-8V480H80v24c0 4.4-3.6 8-8 8s-8-3.6-8-8l0-24c-35.3 0-64-28.7-64-64V64zM368 240A144 144 0 1 0 80 240a144 144 0 1 0 288 0zM64 240a160 160 0 1 1 320 0A160 160 0 1 1 64 240zm160 48a48 48 0 1 0 0-96 48 48 0 1 0 0 96zm0-112a64 64 0 1 1 0 128 64 64 0 1 1 0-128zm272 0a32 32 0 1 0 -64 0 32 32 0 1 0 64 0zm16 0c0 23.8-17.3 43.5-40 47.3V344c0 4.4-3.6 8-8 8s-8-3.6-8-8V223.3c-22.7-3.8-40-23.6-40-47.3c0-26.5 21.5-48 48-48s48 21.5 48 48z"/></svg>