<svg xmlns="http://www.w3.org/2000/svg" viewBox="0 0 512 512"><!--! Font Awesome Pro 6.4.0 by @fontawesome - https://fontawesome.com License - https://fontawesome.com/license (Commercial License) Copyright 2023 Fonticons, Inc. --><path d="M272 16H240c-8.8 0-16 7.2-16 16V42.4s0 0 0 0V58.5s0 0 0 0V64c0 8.8 7.2 16 16 16h32c8.8 0 16-7.2 16-16V32c0-8.8-7.2-16-16-16zM208 45.4V32c0-17.7 14.3-32 32-32h32c17.7 0 32 14.3 32 32V45.4C384.8 63.7 448.3 127.2 466.6 208H480c17.7 0 32 14.3 32 32v32c0 17.7-14.3 32-32 32H466.6C448.3 384.8 384.8 448.3 304 466.6V480c0 17.7-14.3 32-32 32H240c-17.7 0-32-14.3-32-32V466.6C127.2 448.3 63.7 384.8 45.4 304H32c-17.7 0-32-14.3-32-32V240c0-17.7 14.3-32 32-32H45.4C63.7 127.2 127.2 63.7 208 45.4zM61.8 208H64c17.7 0 32 14.3 32 32v32c0 17.7-14.3 32-32 32H61.8C79.5 375.9 136.1 432.5 208 450.2V448c0-17.7 14.3-32 32-32h32c17.7 0 32 14.3 32 32v2.2c71.9-17.7 128.5-74.3 146.2-146.2H448c-17.7 0-32-14.3-32-32V240c0-17.7 14.3-32 32-32h2.2C432.5 136.1 375.9 79.5 304 61.8V64c0 17.7-14.3 32-32 32H240c-17.7 0-32-14.3-32-32V61.8C136.1 79.5 79.5 136.1 61.8 208zm-3.3 80H64c8.8 0 16-7.2 16-16V240c0-8.8-7.2-16-16-16H32c-8.8 0-16 7.2-16 16v32c0 8.8 7.2 16 16 16H42.4s0 0 0 0H58.5s0 0 0 0zM224 469.6V480c0 8.8 7.2 16 16 16h32c8.8 0 16-7.2 16-16V448c0-8.8-7.2-16-16-16H240c-8.8 0-16 7.2-16 16v5.5s0 0 0 0v16.2s0 0 0 0zM469.6 288H480c8.8 0 16-7.2 16-16V240c0-8.8-7.2-16-16-16H448c-8.8 0-16 7.2-16 16v32c0 8.8 7.2 16 16 16h5.5s0 0 0 0h16.2s0 0 0 0z"/></svg>