<svg xmlns="http://www.w3.org/2000/svg" viewBox="0 0 640 512"><!--! Font Awesome Pro 6.4.0 by @fontawesome - https://fontawesome.com License - https://fontawesome.com/license (Commercial License) Copyright 2023 Fonticons, Inc. --><path d="M128 80c-26.5 0-48 21.5-48 48v8V376v8c0 26.5 21.5 48 48 48H512c26.5 0 48-21.5 48-48v-8V136v-8c0-26.5-21.5-48-48-48H128zM512 64c35.3 0 64 28.7 64 64h24c22.1 0 40 17.9 40 40V344c0 22.1-17.9 40-40 40H576c0 35.3-28.7 64-64 64H128c-35.3 0-64-28.7-64-64H40c-22.1 0-40-17.9-40-40V168c0-22.1 17.9-40 40-40l24 0c0-35.3 28.7-64 64-64H512zm88 304c13.3 0 24-10.7 24-24V168c0-13.3-10.7-24-24-24H576V368h24zM64 144H40c-13.3 0-24 10.7-24 24V344c0 13.3 10.7 24 24 24H64V144zm80-16c-8.8 0-16 7.2-16 16V368c0 8.8 7.2 16 16 16H496c8.8 0 16-7.2 16-16V144c0-8.8-7.2-16-16-16H144zm-32 16c0-17.7 14.3-32 32-32H496c17.7 0 32 14.3 32 32V368c0 17.7-14.3 32-32 32H144c-17.7 0-32-14.3-32-32V144zm72 32H456c4.4 0 8 3.6 8 8s-3.6 8-8 8H184c-4.4 0-8-3.6-8-8s3.6-8 8-8zm0 72H456c4.4 0 8 3.6 8 8s-3.6 8-8 8H184c-4.4 0-8-3.6-8-8s3.6-8 8-8zm0 72H456c4.4 0 8 3.6 8 8s-3.6 8-8 8H184c-4.4 0-8-3.6-8-8s3.6-8 8-8z"/></svg>