<svg xmlns="http://www.w3.org/2000/svg" viewBox="0 0 512 512"><!--! Font Awesome Pro 6.4.0 by @fontawesome - https://fontawesome.com License - https://fontawesome.com/license (Commercial License) Copyright 2023 Fonticons, Inc. --><path d="M16 32c-4.4 0-8 3.6-8 8s3.6 8 8 8H32V264 400c0 44.2 35.8 80 80 80s80-35.8 80-80V264 48h16c4.4 0 8-3.6 8-8s-3.6-8-8-8H184 40 16zM48 256V48H176V256H48zm0 16H176V400c0 35.3-28.7 64-64 64s-64-28.7-64-64V272zM304 32c-4.4 0-8 3.6-8 8s3.6 8 8 8h16V264 400c0 44.2 35.8 80 80 80s80-35.8 80-80V264 48h16c4.4 0 8-3.6 8-8s-3.6-8-8-8H472 328 304zm32 224V48H464V256H336zm0 16H464V400c0 35.3-28.7 64-64 64s-64-28.7-64-64V272z"/></svg>