<svg xmlns="http://www.w3.org/2000/svg" viewBox="0 0 640 512"><!--! Font Awesome Pro 6.4.0 by @fontawesome - https://fontawesome.com License - https://fontawesome.com/license (Commercial License) Copyright 2023 Fonticons, Inc. --><path d="M13 1.7C9.5-1 4.5-.4 1.7 3S-.4 11.5 3 14.3l624 496c3.5 2.7 8.5 2.2 11.2-1.3s2.2-8.5-1.3-11.2L13 1.7zM416 202.9V175.2 128c0-35.3-28.7-64-64-64H180.1l20.3 16H352c26.5 0 48 21.5 48 48v74.9 34.7l16 12.6V202.9zM48 128c0-1.7 .1-3.4 .3-5L34.1 111.8C32.7 117 32 122.4 32 128V384c0 35.3 28.7 64 64 64H352c26.4 0 49-16 58.8-38.8l-13.2-10.4C391.4 418.1 373.3 432 352 432H96c-26.5 0-48-21.5-48-48V128zM592 377.8c0 3.5-.8 6.7-2.2 9.6l12.7 10.1c3.5-5.8 5.5-12.5 5.5-19.7V134.2c0-21.1-17.1-38.2-38.2-38.2c-6.4 0-12.8 1.6-18.4 4.7L448 157.6v18.3l111.1-61.1c3.3-1.8 7-2.7 10.7-2.7c12.3 0 22.2 9.9 22.2 22.2V377.8z"/></svg>