<svg xmlns="http://www.w3.org/2000/svg" viewBox="0 0 640 512"><!--! Font Awesome Pro 6.4.0 by @fontawesome - https://fontawesome.com License - https://fontawesome.com/license (Commercial License) Copyright 2023 Fonticons, Inc. --><path d="M326 2.7C324.5 1 322.3 0 320 0s-4.5 1-6 2.7c-43.2 48.7-90.4 76.2-148.7 98.4l-.3 .1c-10.2 3.9-20.7 7.6-31.5 11.2c-4.2 1.4-6.5 5.9-5.1 10.1s5.9 6.5 10.1 5.1c7.3-2.4 14.5-4.9 21.5-7.4v61.6c-11.1 17.6-28.9 32.1-50.2 44.4c-22.1 12.6-47.5 22.4-72.2 30.3c-3.8 1.2-6.1 5-5.5 8.9s4 6.8 7.9 6.8H96v55.2c-3.7 17.3-15.8 33.8-32.8 49.3C46 392 24.6 405.6 4.1 417c-3.2 1.8-4.8 5.5-3.9 9s4.1 6 7.7 6H64v72c0 4.4 3.6 8 8 8s8-3.6 8-8V432H224v72c0 4.4 3.6 8 8 8s8-3.6 8-8V432H400v72c0 4.4 3.6 8 8 8s8-3.6 8-8V432H560v72c0 4.4 3.6 8 8 8s8-3.6 8-8V432h56c3.6 0 6.8-2.5 7.7-6s-.7-7.2-3.9-9c-20.5-11.4-41.9-25-59.1-40.6c-17-15.4-29.1-32-32.8-49.3V272h56c3.9 0 7.3-2.9 7.9-6.8s-1.7-7.7-5.5-8.9c-24.7-7.9-50.2-17.7-72.2-30.3c-21.4-12.2-39.1-26.8-50.2-44.4V120.1c7 2.5 14.2 5 21.5 7.4c4.2 1.4 8.7-.9 10.1-5.1s-.9-8.7-5.1-10.1c-10.9-3.6-21.4-7.3-31.5-11.2l-.3-.1C416.4 78.9 369.1 51.4 326 2.7zM176 176V114.1c55-21.5 101.5-48.5 144-94.2c42.5 45.7 89 72.8 144 94.2V176H176zm-58.3 64c22-12.6 41.6-28.2 54.7-48H467.6c13.1 19.8 32.7 35.4 54.7 48c10.4 5.9 21.4 11.3 32.6 16H536 104 85.1c11.2-4.8 22.2-10.1 32.6-16zM112 320V272H528v48H112zM73.9 388.3c16.6-15 30.5-32.5 36.4-52.3H529.7c5.8 19.8 19.8 37.3 36.4 52.3c11.2 10.1 23.9 19.4 36.8 27.7H568 72 37.1c12.9-8.3 25.6-17.6 36.8-27.7z"/></svg>