<svg xmlns="http://www.w3.org/2000/svg" viewBox="0 0 512 512"><!--! Font Awesome Pro 6.4.0 by @fontawesome - https://fontawesome.com License - https://fontawesome.com/license (Commercial License) Copyright 2023 Fonticons, Inc. --><path d="M496 256A240 240 0 1 0 16 256a240 240 0 1 0 480 0zM0 256a256 256 0 1 1 512 0A256 256 0 1 1 0 256zM264 72v80h80V104c0-4.4 3.6-8 8-8s8 3.6 8 8v48h48c4.4 0 8 3.6 8 8s-3.6 8-8 8H360v80h80c4.4 0 8 3.6 8 8s-3.6 8-8 8H360v80h48c4.4 0 8 3.6 8 8s-3.6 8-8 8H360v48c0 4.4-3.6 8-8 8s-8-3.6-8-8V360H264v80c0 4.4-3.6 8-8 8s-8-3.6-8-8V360H168v48c0 4.4-3.6 8-8 8s-8-3.6-8-8V360H104c-4.4 0-8-3.6-8-8s3.6-8 8-8h48V264H72c-4.4 0-8-3.6-8-8s3.6-8 8-8h80V168H104c-4.4 0-8-3.6-8-8s3.6-8 8-8h48V104c0-4.4 3.6-8 8-8s8 3.6 8 8v48l80 0V72c0-4.4 3.6-8 8-8s8 3.6 8 8zm-96 96v80h80V168l-80 0zm0 96v80h80V264H168zm96 0v80h80V264H264zm0-16h80V168H264v80z"/></svg>