<svg xmlns="http://www.w3.org/2000/svg" viewBox="0 0 640 512"><!--! Font Awesome Pro 6.4.0 by @fontawesome - https://fontawesome.com License - https://fontawesome.com/license (Commercial License) Copyright 2023 Fonticons, Inc. --><path d="M631.9 69.7C645 37 619.6 1.8 584.4 4L451.5 12.3c-23.1 1.4-43.1 13.7-55.2 31.6C388.2 22.9 367.8 8 344 8H296c-23.8 0-44.2 14.9-52.3 35.9C231.6 26 211.6 13.7 188.5 12.3L55.6 4C20.4 1.8-5 37 8.1 69.7L76.2 240H72c-4.4 0-8 3.6-8 8v40c0 4.4 3.6 8 8 8s8-3.6 8-8V256h2.6H88 248h8l128 0h8H552h5.4l2.6 0v32c0 4.4 3.6 8 8 8s8-3.6 8-8V248c0-4.4-3.6-8-8-8h-4.2L631.9 69.7zM546.6 240H400V84.1c0-29.6 23-54 52.5-55.9l132.9-8.3c23.5-1.5 40.4 22 31.7 43.8L546.6 240zM240 240H93.4L22.9 63.8c-8.7-21.8 8.3-45.3 31.7-43.8l132.9 8.3C217 30.1 240 54.6 240 84.1V240zm16 0V84.1 64c0-22.1 17.9-40 40-40h48c22.1 0 40 17.9 40 40V240H256zm-80 48c-61.9 0-112 50.1-112 112s50.1 112 112 112c56.4 0 103.1-41.7 110.9-96h66.3c7.8 54.3 54.4 96 110.9 96c61.9 0 112-50.1 112-112s-50.1-112-112-112s-112 50.1-112 112H288c0-61.9-50.1-112-112-112zM368 400.4V400h0c0-53 43-96 96-96s96 43 96 96s-43 96-96 96c-52.9 0-95.8-42.8-96-95.6zM80 400a96 96 0 1 1 192 0A96 96 0 1 1 80 400zm104-72c0-4.4-3.6-8-8-8s-8 3.6-8 8v64H104c-4.4 0-8 3.6-8 8s3.6 8 8 8h64v64c0 4.4 3.6 8 8 8s8-3.6 8-8V408h64c4.4 0 8-3.6 8-8s-3.6-8-8-8H184V328zm280-8c-4.4 0-8 3.6-8 8v64H392c-4.4 0-8 3.6-8 8s3.6 8 8 8h64v64c0 4.4 3.6 8 8 8s8-3.6 8-8V408h64c4.4 0 8-3.6 8-8s-3.6-8-8-8H472V328c0-4.4-3.6-8-8-8z"/></svg>