<svg xmlns="http://www.w3.org/2000/svg" viewBox="0 0 448 512"><!--! Font Awesome Pro 6.4.0 by @fontawesome - https://fontawesome.com License - https://fontawesome.com/license (Commercial License) Copyright 2023 Fonticons, Inc. --><path d="M185.6 16H328c30.9 0 56 25.1 56 56V192H96.8L131.4 58c6.4-24.7 28.7-42 54.2-42zM384 208V418.7c-18.6 6.6-32 24.4-32 45.3c0 26.5 21.5 48 48 48s48-21.5 48-48s-21.5-48-48-48l0-344c0-39.8-32.2-72-72-72H185.6c-32.8 0-61.5 22.2-69.7 54L.3 502c-1.1 4.3 1.5 8.6 5.7 9.7s8.6-1.5 9.7-5.7L92.6 208H384zm16 224a32 32 0 1 1 0 64 32 32 0 1 1 0-64z"/></svg>