<svg xmlns="http://www.w3.org/2000/svg" viewBox="0 0 384 512"><!--! Font Awesome Pro 6.4.0 by @fontawesome - https://fontawesome.com License - https://fontawesome.com/license (Commercial License) Copyright 2023 Fonticons, Inc. --><path d="M80 40V64H304l0-24c0-13.3-10.7-24-24-24H104C90.7 16 80 26.7 80 40zM64 65.6V40C64 17.9 81.9 0 104 0H280c22.1 0 40 17.9 40 40V65.6c36.5 7.4 64 39.7 64 78.4V368c0 38.7-27.5 71-64 78.4V472c0 22.1-17.9 40-40 40l-176 0c-22.1 0-40-17.9-40-40l0-25.6C27.5 439 0 406.7 0 368V144c0-38.7 27.5-71 64-78.4zM80 472c0 13.3 10.7 24 24 24l176 0c13.3 0 24-10.7 24-24V448H80l0 24zm224-40c35.3 0 64-28.7 64-64V144c0-35.3-28.7-64-64-64H80c-35.3 0-64 28.7-64 64V368c0 35.3 28.6 64 63.9 64l.1 0H304zM200 160v92l60.8 45.6c3.5 2.7 4.3 7.7 1.6 11.2s-7.7 4.3-11.2 1.6l-64-48c-2-1.5-3.2-3.9-3.2-6.4V160c0-4.4 3.6-8 8-8s8 3.6 8 8z"/></svg>