<svg xmlns="http://www.w3.org/2000/svg" viewBox="0 0 640 512"><!--! Font Awesome Pro 6.4.0 by @fontawesome - https://fontawesome.com License - https://fontawesome.com/license (Commercial License) Copyright 2023 Fonticons, Inc. --><path d="M320 0c4.4 0 8 3.6 8 8V504c0 4.4-3.6 8-8 8s-8-3.6-8-8V8c0-4.4 3.6-8 8-8zM512 64c4.4 0 8 3.6 8 8V440c0 4.4-3.6 8-8 8s-8-3.6-8-8V72c0-4.4 3.6-8 8-8zM224 96c4.4 0 8 3.6 8 8V408c0 4.4-3.6 8-8 8s-8-3.6-8-8V104c0-4.4 3.6-8 8-8zm192 32c4.4 0 8 3.6 8 8V376c0 4.4-3.6 8-8 8s-8-3.6-8-8V136c0-4.4 3.6-8 8-8zM128 192c4.4 0 8 3.6 8 8V312c0 4.4-3.6 8-8 8s-8-3.6-8-8V200c0-4.4 3.6-8 8-8zM32 224c4.4 0 8 3.6 8 8v48c0 4.4-3.6 8-8 8s-8-3.6-8-8V232c0-4.4 3.6-8 8-8zm576 0c4.4 0 8 3.6 8 8v48c0 4.4-3.6 8-8 8s-8-3.6-8-8V232c0-4.4 3.6-8 8-8z"/></svg>