<svg xmlns="http://www.w3.org/2000/svg" viewBox="0 0 512 512"><!--! Font Awesome Pro 6.4.0 by @fontawesome - https://fontawesome.com License - https://fontawesome.com/license (Commercial License) Copyright 2023 Fonticons, Inc. --><path d="M288 8c0 4.4 3.6 8 8 8h64c39.8 0 72 32.2 72 72s-32.2 72-72 72H8c-4.4 0-8 3.6-8 8s3.6 8 8 8H360c48.6 0 88-39.4 88-88s-39.4-88-88-88H296c-4.4 0-8 3.6-8 8zm64 400c0 4.4 3.6 8 8 8h68c46.4 0 84-37.6 84-84s-37.6-84-84-84H8c-4.4 0-8 3.6-8 8s3.6 8 8 8H428c37.6 0 68 30.4 68 68s-30.4 68-68 68H360c-4.4 0-8 3.6-8 8zM104 512h64c48.6 0 88-39.4 88-88s-39.4-88-88-88H8c-4.4 0-8 3.6-8 8s3.6 8 8 8H168c39.8 0 72 32.2 72 72s-32.2 72-72 72H104c-4.4 0-8 3.6-8 8s3.6 8 8 8z"/></svg>