<svg xmlns="http://www.w3.org/2000/svg" viewBox="0 0 512 512"><!--! Font Awesome Pro 6.4.0 by @fontawesome - https://fontawesome.com License - https://fontawesome.com/license (Commercial License) Copyright 2023 Fonticons, Inc. --><path d="M448 48c26.5 0 48 21.5 48 48V416c0 26.5-21.5 48-48 48H64c-26.5 0-48-21.5-48-48V96c0-26.5 21.5-48 48-48H448zm64 48c0-35.3-28.7-64-64-64H64C28.7 32 0 60.7 0 96V416c0 35.3 28.7 64 64 64H448c35.3 0 64-28.7 64-64V96zm-96 48a16 16 0 1 0 0-32 16 16 0 1 0 0 32zM304 128a16 16 0 1 0 32 0 16 16 0 1 0 -32 0zm-80 16a16 16 0 1 0 0-32 16 16 0 1 0 0 32z"/></svg>