<svg xmlns="http://www.w3.org/2000/svg" viewBox="0 0 320 512"><!--! Font Awesome Pro 6.4.0 by @fontawesome - https://fontawesome.com License - https://fontawesome.com/license (Commercial License) Copyright 2023 Fonticons, Inc. --><path d="M44.5 144h231l7 51.6C292.7 269.9 234.9 336 160 336S27.3 269.9 37.5 195.6l7-51.6zm2.2-16L60.1 29.8C61.2 21.9 67.9 16 75.9 16H244.1c8 0 14.8 5.9 15.9 13.8L273.3 128H46.7zM44.2 27.7L21.6 193.5C10.5 274.7 71.3 347.3 152 351.8V496H72c-4.4 0-8 3.6-8 8s3.6 8 8 8h88 88c4.4 0 8-3.6 8-8s-3.6-8-8-8H168V351.8c80.7-4.5 141.5-77.1 130.4-158.3L275.8 27.7C273.6 11.8 260.1 0 244.1 0H75.9c-16 0-29.5 11.8-31.7 27.7z"/></svg>