<svg xmlns="http://www.w3.org/2000/svg" viewBox="0 0 512 512"><!--! Font Awesome Pro 6.4.0 by @fontawesome - https://fontawesome.com License - https://fontawesome.com/license (Commercial License) Copyright 2023 Fonticons, Inc. --><path d="M432 178.3V164.4l-13.7-2-54.4-7.8c-34.3-4.9-59.8-34.3-59.8-69C304 47.2 335.2 16 373.7 16h48.7C463 16 496 49 496 89.6V176v16V360c0 75.1-60.9 136-136 136s-136-60.9-136-136V312c0-39.8-32.2-72-72-72s-72 32.2-72 72V464c0 17.7-14.3 32-32 32s-32-14.3-32-32V312c0-75.1 60.9-136 136-136s136 60.9 136 136v48c0 39.8 32.2 72 72 72s72-32.2 72-72V178.3zM373.7 0C326.4 0 288 38.4 288 85.7c0 42.6 31.4 78.8 73.6 84.8l54.4 7.8V360c0 30.9-25.1 56-56 56s-56-25.1-56-56V312c0-83.9-68.1-152-152-152S0 228.1 0 312V464c0 26.5 21.5 48 48 48s48-21.5 48-48V312c0-30.9 25.1-56 56-56s56 25.1 56 56v48c0 83.9 68.1 152 152 152s152-68.1 152-152V192 176 89.6C512 40.1 471.9 0 422.4 0H373.7zM400 96a16 16 0 1 0 0-32 16 16 0 1 0 0 32z"/></svg>