<svg xmlns="http://www.w3.org/2000/svg" viewBox="0 0 320 512"><!--! Font Awesome Pro 6.4.0 by @fontawesome - https://fontawesome.com License - https://fontawesome.com/license (Commercial License) Copyright 2023 Fonticons, Inc. --><path d="M14.5 35.3c-2.6-3.6-7.6-4.3-11.2-1.7s-4.3 7.6-1.7 11.2L144.2 240H40c-4.4 0-8 3.6-8 8s3.6 8 8 8H152v80H40c-4.4 0-8 3.6-8 8s3.6 8 8 8H152V472c0 4.4 3.6 8 8 8s8-3.6 8-8V352H280c4.4 0 8-3.6 8-8s-3.6-8-8-8H168V256H280c4.4 0 8-3.6 8-8s-3.6-8-8-8H175.8L318.5 44.7c2.6-3.6 1.8-8.6-1.7-11.2s-8.6-1.8-11.2 1.7L160 234.4 14.5 35.3z"/></svg>