<svg xmlns="http://www.w3.org/2000/svg" viewBox="0 0 512 512"><path class="lineal-stroke" d="M342.84 338.23a168.67 168.67 0 01-119.61-49.46c-65.95-66-65.95-173.27 0-239.23A169.21 169.21 0 01399.66 9.8a15.35 15.35 0 015.7 25.31L358.9 81.57a15.34 15.34 0 11-21.7-21.69l27.44-27.44a139.27 139.27 0 00-119.71 38.8c-54 54-54 141.84 0 195.83s141.84 54 195.83 0a139.31 139.31 0 0038.81-119.71l-82.73 82.72a15.34 15.34 0 01-21.69 0l-93.23-93.23a15.34 15.34 0 1121.7-21.69L386 197.53l90.9-90.89a15.35 15.35 0 0125.31 5.7 169.06 169.06 0 01-159.37 225.89z"/><path class="lineal-fill" d="M234.08 277.92a153.29 153.29 0 01-36.08-57.1L34.65 384.12a65.93 65.93 0 000 93.23 65.93 65.93 0 0093.23 0l163.3-163.3a153.16 153.16 0 01-57.1-36.13z"/><path class="lineal-stroke" d="M81.26 512A81.26 81.26 0 0123.8 373.28L187.1 210a15.35 15.35 0 0125.31 5.7 138.64 138.64 0 0083.91 83.92 15.34 15.34 0 015.7 25.3L138.73 488.2A80.74 80.74 0 0181.26 512zm111.65-264.44L45.5 395a50.58 50.58 0 1071.5 71.5l147.44-147.41a170 170 0 01-71.53-71.53z"/></svg>