<svg xmlns="http://www.w3.org/2000/svg" viewBox="0 0 389.8 409.6"><path class="lineal-fill" d="M245.1 397.6H144V352c0-8.1 6.6-14.7 14.7-14.7h71.6c8.1 0 14.7 6.6 14.7 14.7v45.6h.1zM64.5 12.1C35 13.8 12 38.2 12.1 67.7v274.2c0 29.5 23 53.8 52.4 55.5V12.1z"/><path class="lineal-stroke" d="M269.3 111.4H124.7c-6.7 0-12-5.4-12-12 0-6.7 5.4-12 12-12h144.6c6.7 0 12 5.4 12 12s-5.4 12-12 12zm-24.1 60.3h-96.4c-6.7 0-12.1-5.4-12.1-12.1s5.4-12.1 12.1-12.1h96.4c6.7 0 12 5.4 12 12.1s-5.4 12.1-12 12.1zm0 60.2h-96.4c-6.7 0-12.1-5.4-12.1-12.1s5.4-12.1 12.1-12.1h96.4c6.7 0 12 5.4 12 12.1s-5.4 12.1-12 12.1z"/><path class="lineal-fill" d="M350 120.9h-20.5V60.7H350c15.3 0 27.7 12.4 27.7 27.7v4.8c0 15.3-12.4 27.7-27.7 27.7zm0 120.5h-20.5v-60.2H350c15.3 0 27.7 12.4 27.7 27.7v4.8c0 15.3-12.4 27.7-27.7 27.7z"/><path class="lineal-stroke" d="M389.8 88.4c0-21.9-17.8-39.7-39.8-39.8h-8.8C338.1 21 314.8 0 286.9 0H67.7C48.6 0 30.4 8.1 17.6 22.2l-2.1 2.4-.1.1c-.6.8-1.2 1.5-1.8 2.3l-.2.3c-.6.8-1.1 1.5-1.6 2.3l-.3.5c-.5.7-.9 1.4-1.4 2.2l-.4.6L8.5 35c-.1.3-.3.5-.4.8-.3.7-.7 1.3-1 2-.2.3-.3.7-.5 1l-.9 1.8c-.2.4-.3.8-.5 1.1-.2.7-.5 1.3-.7 1.8-.1.5-.3.9-.5 1.4s-.4 1.1-.5 1.6-.4 1-.5 1.5-.3 1-.4 1.5-.3 1.1-.5 1.6-.2 1-.3 1.4-.3 1.2-.4 1.8c-.1.4-.2.9-.2 1.3-.1.7-.2 1.3-.3 2-.1.4-.1.8-.1 1.2l-.3 2.1-.1.8c-.3 2.1-.4 4-.4 6v274.2c0 2 .1 3.9.3 5.9l.1.8c.1.7.2 1.5.3 2.2.1.4.1.8.1 1.1.1.7.2 1.3.3 2 .1.4.1.9.2 1.3.1.6.3 1.2.4 1.8s.2 1 .3 1.5c.1.5.3 1.1.5 1.6s.3 1 .4 1.6.3 1 .5 1.5.4 1.1.6 1.7c.2.6.3.9.5 1.3.2.6.4 1.2.7 1.8.2.4.3.8.5 1.1.3.6.6 1.3.8 1.9.2.3.3.6.5 1 .3.7.7 1.3 1 2 .1.3.3.5.4.8l1.2 2.1c.1.2.2.4.4.6.4.7.9 1.5 1.4 2.2.1.2.2.3.3.5.5.8 1.1 1.5 1.6 2.3l.2.3c.6.8 1.2 1.6 1.8 2.3l.1.1 2.1 2.4c8.1 8.9 18.4 15.5 29.9 19l.2.1c.7.2 1.5.4 2.2.6 5.8 1.6 11.8 2.4 17.9 2.4h219.2c33.7 0 54.6-17.3 54.6-45.2v-60.2c0-6.7-5.4-12-12-12-6.7 0-12.1 5.4-12.1 12v60.2c0 14-10.3 21.1-30.5 21.1h-29.8V352c0-14.8-12-26.8-26.8-26.8h-71.6c-14.8 0-26.7 12-26.7 26.8v33.5H76.5V24.1h210.4c16.9 0 30.5 13.7 30.5 30.5v186.7c0 6.6 5.4 12 12 12H350c21.9 0 39.7-17.8 39.8-39.8v-4.8c0-10.4-4-20.3-11.3-27.7 7.2-7.4 11.3-17.4 11.3-27.7v-4.8c0-10.4-4-20.3-11.3-27.7 7.2-7.4 11.3-17.4 11.3-27.7v-4.7zM28.4 360.8v-.1c-.3-.6-.5-1.2-.8-1.8 0-.1 0-.1-.1-.2-.5-1.2-1-2.5-1.4-3.8 0-.1-.1-.2-.1-.4-.2-.5-.3-1-.4-1.6 0-.2-.1-.3-.1-.5-.1-.5-.2-1-.4-1.6l-.1-.4c-.1-.6-.2-1.3-.4-2v-.4c-.1-.5-.1-1-.2-1.6 0-.2 0-.4-.1-.6 0-.5-.1-1-.1-1.4v-.6c0-.7-.1-1.4-.1-2V67.7c0-.7 0-1.3.1-2v-.6c0-.5.1-1 .1-1.4l.1-.6c.1-.5.1-1.1.2-1.6v-.4c.1-.7.2-1.3.4-2 0-.1 0-.2.1-.4.1-.5.2-1.1.4-1.6 0-.2.1-.3.1-.5.1-.5.3-1 .5-1.6 0-.1.1-.2.1-.3.4-1.3.9-2.6 1.4-3.8l.1-.2c.2-.6.5-1.2.8-1.8v-.1c4.9-10.1 13.5-17.9 24-21.9v355.9c-10.6-4-19.2-11.9-24.1-22zm127.7-8.8c0-1.5 1.2-2.7 2.7-2.7h71.6c1.5 0 2.7 1.2 2.7 2.7v33.5h-77V352zM365.6 88.4v4.8c0 8.6-7 15.6-15.6 15.7h-8.4V72.7h8.4c8.6 0 15.6 7 15.6 15.7zm0 60.2v4.8c0 8.6-7 15.6-15.6 15.7h-8.4V133h8.4c8.6 0 15.6 7 15.6 15.6zm0 65.1c0 8.6-7 15.6-15.6 15.7h-8.4v-36.1h8.4c8.6 0 15.6 7 15.7 15.7l-.1 4.7z"/></svg>