<svg xmlns="http://www.w3.org/2000/svg" viewBox="0 0 338.6 409.6"><path class="lineal-fill" d="M268.9 353h-22.6v-22.8c-1.4-42.5-36.9-75.8-79.4-74.5-40.6 1.3-73.2 33.9-74.5 74.5V353H69.7c-12.3-.3-22.5 9.5-22.7 21.8-.3 12.3 9.5 22.5 21.8 22.7h200.1c12.3.3 22.5-9.5 22.7-21.8.3-12.3-9.5-22.5-21.8-22.7h-.9z"/><path class="lineal-stroke" d="M268.9 341h-10.6v-10.8c0-49.2-39.8-89-89-89s-89 39.8-89 89V341H69.7c-19-.3-34.6 14.8-34.9 33.7-.3 19 14.8 34.6 33.7 34.9h200.4c19-.3 34.1-15.9 33.7-34.9-.3-18.5-15.2-33.4-33.7-33.7zm0 44.5H69.7c-5.6.2-10.3-4.2-10.5-9.9-.2-5.6 4.2-10.3 9.9-10.5h116.3c6.7 0 12.1-5.4 12.1-12.1s-5.4-12.1-12.1-12.1h-81v-10.8c0-35.8 29.1-64.9 64.9-64.9 35.8 0 64.9 29.1 64.9 64.9V353c0 6.7 5.4 12.1 12.1 12.1h22.6c5.6-.2 10.3 4.2 10.5 9.9s-4.2 10.3-9.9 10.5h-.6z"/><path class="lineal-stroke" d="M169.3 261.4C104.5 261.3 52.1 208.8 52 144V27.7C52 12.4 64.4 0 79.7 0h179.2c15.3 0 27.7 12.4 27.7 27.7v43.7c.2 6.7-5 12.2-11.7 12.4-6.7.2-12.2-5-12.4-11.7V27.7c0-2-1.6-3.6-3.6-3.6H79.7c-2 0-3.6 1.6-3.6 3.6V144c0 51.5 41.7 93.2 93.2 93.2s93.2-41.7 93.2-93.2c-.2-6.7 5.1-12.2 11.7-12.4s12.2 5.1 12.4 11.7v.7c0 64.8-52.5 117.3-117.3 117.4z"/><path class="lineal-stroke" d="M311.4 167.5c-6.7 0-12.1-5.4-12.1-12.1 0-1.1.1-2.1.4-3.1L314 98.6c1.7-6.4-2.1-13-8.5-14.7-1-.3-2-.4-3.1-.4h-27.9c-6.7 0-12.1-5.4-12.1-12.1 0-6.7 5.4-12.1 12.1-12.1h27.9c20 0 36.1 16.2 36.1 36.1 0 3.1-.4 6.3-1.2 9.3L323 158.5c-1.4 5.3-6.2 9-11.6 9zm-284.2 0c-5.5 0-10.2-3.7-11.6-8.9L1.2 104.8c-5.1-19.3 6.3-39.1 25.6-44.2 3-.8 6.1-1.2 9.3-1.2h19.6c6.7 0 12.1 5.4 12.1 12.1 0 6.7-5.4 12.1-12.1 12.1H36.1c-6.6 0-12 5.4-12 12 0 1 .1 2.1.4 3.1l14.3 53.7c1.7 6.4-2.1 13-8.5 14.8-1 .1-2 .3-3.1.3z"/></svg>