<svg xmlns="http://www.w3.org/2000/svg" viewBox="0 0 384 360.59"><path class="lineal-stroke" d="M11.58 313.75A11.57 11.57 0 010 302.17V11.58a11.58 11.58 0 0123.16 0v290.59a11.58 11.58 0 01-11.58 11.58zM55 254.7a11.58 11.58 0 01-11.58-11.58V11.58a11.58 11.58 0 1123.16 0v231.54A11.57 11.57 0 0155 254.7zm43.33 0a11.57 11.57 0 01-11.58-11.58V104.18a11.58 11.58 0 1123.16 0v138.94a11.59 11.59 0 01-11.58 11.58zm0-185.95a11.57 11.57 0 01-11.58-11.57v-45.6a11.58 11.58 0 0123.16 0v45.6a11.58 11.58 0 01-11.58 11.57zm86.75 41.7a11.57 11.57 0 01-11.58-11.57v-87.3a11.58 11.58 0 1123.16 0v87.3a11.58 11.58 0 01-11.58 11.57zM141.7 254.7a11.58 11.58 0 01-11.58-11.58V11.58a11.58 11.58 0 0123.16 0v231.54a11.57 11.57 0 01-11.58 11.58z"/><path class="lineal-fill" d="M350.3 244a82.85 82.85 0 11-82.85-82.85A82.85 82.85 0 01350.3 244z"/><path class="lineal-stroke" d="M380.61 340.82l-38.72-38.71a93.64 93.64 0 0020-58.07 94.92 94.92 0 00-3.06-23.93c0-.43.07-.86.07-1.3V11.58a11.58 11.58 0 10-23.15 0v167.29c-.51-.53-1-1.07-1.52-1.59a94.21 94.21 0 00-31.28-20.78V11.58a11.58 11.58 0 10-23.16 0v138.86a94.62 94.62 0 00-39.79 3.21V11.58a11.58 11.58 0 00-23.16 0v152.73a94.62 94.62 0 00-16.18 13c-1.41 1.4-2.74 2.85-4 4.32v-30.96a11.58 11.58 0 10-23.15 0v83.9q-.47 4.69-.47 9.48a94.41 94.41 0 00152.49 74.44l38.71 38.71a11.58 11.58 0 0016.38-16.38zm-163.55-46.38a71.35 71.35 0 0116.67-113.21l.39-.21a71.71 71.71 0 0153.63-5.32c.19.07.39.12.6.18a71.28 71.28 0 11-71.29 118.56z"/></svg>