<svg xmlns="http://www.w3.org/2000/svg" viewBox="0 0 512 442.8"><path class="lineal-stroke" d="M464.2 442.8H47.7C21.4 442.8 0 421.4 0 395.1V47.7C0 21.4 21.4 0 47.7 0h416.5C490.6 0 512 21.4 512 47.7c0 7.6-6.2 13.8-13.8 13.9-7.6 0-13.8-6.2-13.9-13.8 0-11.1-9-20-20.1-20.1H47.7c-11.1 0-20 9-20.1 20.1v347.3c0 11.1 9 20.1 20.1 20.1h416.5c11.1 0 20.1-9 20.1-20.1V209.4c0-7.6 6.2-13.8 13.8-13.9 7.6 0 13.8 6.2 13.9 13.8V395c0 26.4-21.4 47.8-47.8 47.8z"/><path class="lineal-fill" d="M13.8 47.7v69.9h484.3V47.7c0-18.7-15.2-33.9-33.9-33.9H47.7C29 13.8 13.8 29 13.8 47.7z"/><path class="lineal-stroke" d="M498.2 131.5H13.8c-7.6 0-13.8-6.2-13.8-13.8v-70C0 21.4 21.4 0 47.7 0h416.5C490.6 0 512 21.4 512 47.7v69.9c0 7.7-6.2 13.9-13.8 13.9zM27.7 103.8h456.6v-56c0-11.1-9-20.1-20.1-20.1H47.8c-11.1 0-20 9-20.1 20v56.1z"/><path class="lineal-stroke" d="M294.7 79.6h-26.3c-7.6 0-13.8-6.2-13.8-13.8S260.8 52 268.4 52h26.3c7.6 0 13.8 6.2 13.8 13.8.1 7.6-6.1 13.8-13.8 13.8zm73.4 0h-26.3c-7.6 0-13.8-6.2-13.8-13.8 0-7.6 6.2-13.8 13.8-13.8h26.3c7.6 0 13.8 6.2 13.8 13.8 0 7.6-6.2 13.8-13.8 13.8zm73.3 0h-26.3c-7.6 0-13.8-6.2-13.8-13.8 0-7.6 6.2-13.8 13.8-13.8h26.3c7.6 0 13.8 6.2 13.8 13.8.1 7.6-6.1 13.8-13.8 13.8z"/><path class="lineal-fill" d="M112.8 268.5h286.4v63.6H112.8z"/><path class="lineal-stroke" d="M399.2 345.9H112.8c-7.6 0-13.8-6.2-13.8-13.8v-63.7c0-7.6 6.2-13.8 13.8-13.8h286.4c7.6 0 13.8 6.2 13.8 13.8v63.7c.1 7.6-6.1 13.8-13.8 13.8zm-272.6-27.6h258.8v-36H126.6v36zm230.9-95.5h-203c-7.6.2-14-5.8-14.2-13.5s5.8-14 13.5-14.2h203.8c7.6-.2 14 5.8 14.2 13.5s-5.8 14-13.5 14.2h-.8z"/></svg>