<svg xmlns="http://www.w3.org/2000/svg" viewBox="0 0 409.6 393.9"><path class="lineal-stroke" d="M204.8 126.8c-6.5 0-11.7-5.2-11.7-11.7V69.5c0-6.5 5.2-11.7 11.7-11.7 6.5 0 11.7 5.2 11.7 11.7v45.6c0 6.5-5.2 11.7-11.7 11.7zm193.1 267.1H11.7c-6.5-.2-11.5-5.6-11.4-12 .2-6.2 5.2-11.2 11.4-11.4h386.2c6.5.2 11.5 5.6 11.4 12-.2 6.3-5.2 11.3-11.4 11.4z"/><path class="lineal-fill" d="M375.2 380.2H34.4V277.8c0-22.1 17.9-40 40-40h260.8c22.1 0 40 17.9 40 40v102.4z"/><path class="lineal-stroke" d="M375.2 391.9H34.4c-6.5 0-11.7-5.2-11.7-11.7V277.8c0-28.5 23.1-51.7 51.7-51.7h260.8c28.5 0 51.6 23.2 51.7 51.7v102.5c0 6.4-5.3 11.6-11.7 11.6zM46.1 368.6h317.4v-90.7c0-15.6-12.7-28.3-28.3-28.3H74.4c-15.6 0-28.3 12.7-28.3 28.3v90.7z"/><path class="lineal-stroke" d="M239.9 309.6H34.4c-6.5-.2-11.5-5.6-11.4-12 .2-6.2 5.2-11.2 11.4-11.4h205.5c6.5.2 11.5 5.6 11.4 12-.2 6.2-5.2 11.2-11.4 11.4zm-166.8-64c-6.5 0-11.7-5.2-11.7-11.7V162c0-28.5 23.1-51.6 51.7-51.7h183.5c28.5 0 51.6 23.1 51.7 51.7v15.1c0 6.5-5.2 11.7-11.7 11.7H181.4c-6.5-.2-11.5-5.6-11.4-12 .2-6.2 5.2-11.2 11.4-11.4h143.4V162c0-15.6-12.7-28.3-28.3-28.3H113.1c-15.6 0-28.3 12.7-28.3 28.3v71.8c0 6.5-5.2 11.8-11.7 11.8z"/><path class="lineal-fill" d="M225.7 50.5c0 11.5-9.4 20.9-20.9 20.9-11.5 0-20.9-9.3-20.9-20.9 0-17.2 15.1-38.8 20.9-38.8 6.1 0 20.9 21.6 20.9 38.8z"/><path class="lineal-stroke" d="M204.8 83c-18 0-32.5-14.6-32.6-32.6 0-13.2 6.2-25.6 9.9-31.8C189.5 6.3 197.1 0 204.8 0c9.7 0 17.7 10.1 22.8 18.7 6.2 10.5 9.8 22.1 9.8 31.8-.1 17.9-14.6 32.5-32.6 32.5zm.1-56.4c-4.2 5.7-9.2 15.8-9.2 23.9.2 5.1 4.4 9 9.5 8.9 4.8-.2 8.7-4 8.9-8.9-.1-8.2-5.1-18.3-9.2-23.9z"/></svg>