<svg xmlns="http://www.w3.org/2000/svg" viewBox="0 0 324.3 409.6"><path class="lineal-stroke" d="M280 409.6H44.2C19.8 409.6 0 389.8 0 365.4V44.2C0 19.8 19.8 0 44.2 0H280c24.4 0 44.2 19.8 44.2 44.2v240.2c0 6.3-5.1 11.4-11.4 11.4s-11.4-5.1-11.4-11.4V44.2c0-11.9-9.6-21.5-21.5-21.5H44.2c-11.9 0-21.5 9.6-21.5 21.5v321.1c0 11.9 9.6 21.5 21.5 21.5H280c11.9 0 21.5-9.6 21.5-21.5v-24c0-6.3 5.1-11.4 11.4-11.4s11.4 5.1 11.4 11.4v24c-.1 24.5-19.9 44.3-44.3 44.3z"/><path class="lineal-fill" d="M252 159.3H72.2c-6.9 0-12.5-5.6-12.5-12.5v-66c0-6.9 5.6-12.5 12.5-12.5H252c6.9 0 12.5 5.6 12.5 12.5v66c0 6.9-5.6 12.5-12.5 12.5z"/><path class="lineal-stroke" d="M252 170.7H72.2c-13.2 0-23.9-10.7-23.9-23.9v-66c0-13.2 10.7-23.9 23.9-23.9H252c13.2 0 23.9 10.7 23.9 23.9v66c0 13.2-10.7 23.9-23.9 23.9zm-179.8-91c-.6 0-1.1.5-1.1 1.1v66c0 .6.5 1.1 1.1 1.1H252c.6 0 1.1-.5 1.1-1.1v-66c0-.6-.5-1.1-1.1-1.1H72.2zm131.4 177.4c-6.3 0-11.4-5.1-11.4-11.4 0-3 1.2-5.9 3.3-8l38.1-38.1c4.5-4.3 11.7-4.2 16.1.3 4.2 4.4 4.2 11.3 0 15.7l-38.1 38.1c-2.1 2.2-5 3.4-8 3.4z"/><path class="lineal-stroke" d="M241.7 257.1c-3 0-5.9-1.2-8-3.3l-38.1-38.1c-4.4-4.4-4.4-11.7 0-16.1s11.7-4.4 16.1 0l38.1 38.1c4.4 4.4 4.4 11.7 0 16.1-2.2 2.1-5.1 3.3-8.1 3.3zm-113.1 79.5H74.7c-6.3-.2-11.2-5.4-11-11.7.2-6 5-10.9 11-11h53.8c6.3-.2 11.5 4.8 11.7 11 .2 6.3-4.8 11.5-11 11.7h-.6z"/><path class="lineal-stroke" d="M101.6 363.6c-6.3 0-11.4-5.1-11.4-11.4v-53.9c0-6.3 5.1-11.4 11.4-11.4 6.3 0 11.4 5.1 11.4 11.4v53.9c0 6.3-5.1 11.4-11.4 11.4zm27-125.5H74.7c-6.3 0-11.4-5.1-11.4-11.4 0-6.3 5.1-11.4 11.4-11.4h53.8c6.3 0 11.4 5.1 11.4 11.4 0 6.3-5.1 11.4-11.3 11.4zm121 81.5h-53.9c-6.3.2-11.5-4.8-11.7-11-.2-6.3 4.8-11.5 11-11.7h54.5c6.3-.2 11.5 4.8 11.7 11 .2 6.3-4.8 11.5-11 11.7h-.6zm0 34.1h-53.9c-6.3 0-11.4-5.1-11.4-11.4s5.1-11.4 11.4-11.4h53.8c6.3 0 11.4 5.1 11.4 11.4s-5.1 11.4-11.3 11.4z"/></svg>