<svg xmlns="http://www.w3.org/2000/svg" viewBox="0 0 398.2 409.6"><path class="lineal-stroke" d="M345.9 409.6H52.3C23.4 409.6 0 386.2 0 357.3v-198c0-6.3 5.1-11.4 11.4-11.4h375.5c6.3 0 11.4 5.1 11.4 11.4v56.9c0 6.3-5.1 11.4-11.4 11.4s-11.4-5.1-11.4-11.4v-45.5H22.8v186.6c0 16.3 13.2 29.5 29.5 29.5h293.6c16.3 0 29.5-13.2 29.5-29.5v-72.9c-.2-6.3 4.8-11.5 11-11.7 6.3-.2 11.5 4.8 11.7 11v73.6c.1 28.9-23.3 52.3-52.2 52.3zM117.1 108.1h-18c-17 0-30.8-13.8-30.8-30.8V30.8C68.3 13.8 82.1 0 99.1 0h18c17 0 30.8 13.8 30.8 30.8v46.5c0 17-13.8 30.8-30.8 30.8zm-18-85.3c-4.5 0-8.1 3.6-8.1 8v46.5c0 4.4 3.6 8.1 8.1 8.1h18c4.5 0 8.1-3.6 8.1-8.1V30.8c0-4.5-3.6-8.1-8.1-8.1h-18zm200 85.3h-18c-17 0-30.8-13.8-30.8-30.8V30.8c0-17 13.8-30.8 30.8-30.8h18c17 0 30.9 13.8 30.9 30.8v46.5c0 17-13.8 30.8-30.9 30.8zm-18-85.3c-4.4 0-8 3.6-8 8.1v46.5c0 4.4 3.6 8.1 8 8.1h18c4.5 0 8.1-3.6 8.1-8.1V30.8c0-4.4-3.6-8.1-8.1-8.1h-18z"/><path class="lineal-fill" d="M345.9 45.5h-27.4v31.8c0 10.7-8.7 19.4-19.4 19.4h-18c-10.7 0-19.4-8.7-19.4-19.4V45.5H136.5v31.8c0 10.7-8.7 19.4-19.4 19.4h-18c-10.7 0-19.4-8.7-19.5-19.4V45.5H52.3c-22.6 0-40.9 18.3-40.9 40.9v72.9h375.5V86.4c-.1-22.6-18.4-40.9-41-40.9z"/><path class="lineal-stroke" d="M386.8 170.7H11.4c-6.3 0-11.4-5.1-11.4-11.4V86.4c0-28.9 23.4-52.3 52.3-52.3h27.3c6.3 0 11.4 5.1 11.4 11.4v31.8c0 4.4 3.6 8.1 8.1 8.1h18c4.4 0 8.1-3.6 8.1-8.1V45.5c0-6.3 5.1-11.4 11.4-11.4h125.2c6.3 0 11.4 5.1 11.4 11.4v31.8c0 4.4 3.6 8.1 8 8.1h18c4.4 0 8.1-3.6 8.1-8.1V45.5c0-6.3 5.1-11.4 11.4-11.4h27.4c28.9 0 52.3 23.4 52.3 52.3v72.9c-.2 6.3-5.3 11.4-11.6 11.4zm-364-22.8h352.7V86.4c0-16.3-13.2-29.5-29.5-29.5h-16v20.4c0 17-13.8 30.8-30.8 30.8h-18c-17 0-30.8-13.8-30.8-30.8V56.9H147.9v20.4c0 17-13.8 30.8-30.8 30.8h-18c-17 0-30.8-13.8-30.8-30.8V56.9h-16c-16.3 0-29.5 13.2-29.5 29.5v61.5zM187 233.8l-6.8 4.2c-1.7 1.2-3.8 1.8-5.9 1.9-6.8 0-11.5-7.2-11.5-14.5-.1-5 2.5-9.8 6.8-12.4l30.9-18.7c2.1-1.2 4.4-1.7 6.8-1.6 7.5 0 16.1 4.4 16.1 11.5v148.7c0 7.5-9.1 11.2-18.2 11.2s-18.2-3.7-18.2-11.2V233.8z"/></svg>