<svg xmlns="http://www.w3.org/2000/svg" viewBox="0 0 329.6 409.6"><path class="lineal-fill" d="M98.7 13.5v66.1c0 9.6-7.8 17.3-17.3 17.3H13.7c-1 0-1.8-.8-1.8-1.8v-.2C13 85.8 17.2 77.4 23.6 71l47.3-47.3c6.9-6.9 16-11.1 25.8-11.9 1-.1 1.9.6 2 1.6v.1z"/><path class="lineal-stroke" d="M81.3 108.4H13.7C6.3 108.4.3 102.4.3 95c0-.6 0-1.1.1-1.7 1.5-11.6 6.7-22.4 15-30.7l47.3-47.3C71.5 6.5 83.2 1 95.7 0c7.4-.6 13.8 4.9 14.4 12.2v67.2c.1 16.1-12.8 29-28.8 29zM27 85.3h54.3c3.2 0 5.8-2.6 5.8-5.8V26.1c-3 1.4-5.7 3.4-8 5.7L31.8 79.1c-1.9 1.8-3.5 3.9-4.8 6.2zm233.1 9.3h-83.4c-6.4-.2-11.4-5.5-11.2-11.9.2-6.1 5.1-11 11.2-11.2h83.4c6.4-.2 11.7 4.8 11.9 11.2.2 6.4-4.8 11.7-11.2 11.9h-.7zm0 65.5H69.5c-6.4.2-11.7-4.8-11.9-11.2s4.8-11.7 11.2-11.9h191.3c6.4-.2 11.7 4.8 11.9 11.2s-4.8 11.7-11.2 11.9h-.7zm-107.2 65.5H69.5c-6.4.2-11.7-4.8-11.9-11.2s4.8-11.7 11.2-11.9h84.1c6.4.2 11.4 5.5 11.2 11.9-.2 6.1-5.1 11-11.2 11.2zm115 184c-2.8 0-5.6-.7-8-2.2l-23.6-13.9-23.6 13.9c-7.5 4.4-17.1 1.8-21.4-5.6-1.4-2.4-2.1-5.1-2.1-7.9v-37c-.2-6.4 4.8-11.7 11.2-11.9s11.7 4.8 11.9 11.2v24.7l16.2-9.5c4.9-2.9 11-2.9 15.9 0l16.2 9.5v-95.4c.2-6.4 5.5-11.4 11.9-11.2 6.1.2 11 5.1 11.2 11.2v108.4c-.1 8.7-7.2 15.7-15.8 15.7z"/><path class="lineal-stroke" d="M283.7 333.5H272c-6.4-.2-11.4-5.5-11.2-11.9.2-6.1 5.1-11 11.2-11.2h11.7c12.6 0 22.7-10.2 22.8-22.7V45.9c0-12.6-10.2-22.8-22.8-22.8H99c-7.5.2-14.6 3.3-19.8 8.6L31.8 79.1c-5 5-8 11.6-8.6 18.7 0 .8-.1 1.5-.1 2.2v187.7c0 12.6 10.2 22.8 22.8 22.8h107c6.4 0 11.6 5.2 11.6 11.6 0 6.4-5.2 11.5-11.6 11.5h-107C20.6 333.5 0 313 0 287.7V100c0-1.3.1-2.6.2-3.9.9-12.6 6.4-24.4 15.3-33.3l47.3-47.3C72.2 5.9 84.9.4 98.3 0h185.4c25.3 0 45.9 20.5 45.9 45.9v241.8c0 25.3-20.6 45.8-45.9 45.8z"/><path class="lineal-fill" d="M283.9 273.6c0 26.3-21.3 47.6-47.6 47.6s-47.6-21.3-47.6-47.6S210 226 236.3 226c26.3-.1 47.6 21.3 47.6 47.6z"/><path class="lineal-stroke" d="M236.3 332.8c-32.7 0-59.2-26.5-59.2-59.2s26.5-59.2 59.2-59.2 59.2 26.5 59.2 59.2c-.1 32.7-26.6 59.1-59.2 59.2zm0-95.3c-19.9 0-36.1 16.2-36.1 36.1 0 19.9 16.2 36.1 36.1 36.1s36.1-16.2 36.1-36.1c-.1-20-16.2-36.1-36.1-36.1z"/></svg>