<svg xmlns="http://www.w3.org/2000/svg" viewBox="0 0 512 399"><path class="lineal-fill" d="M33.9 263.5C-9.5 180.2 22.9 77.4 106.2 34s186.1-11.1 229.6 72.3 11.1 186.1-72.3 229.6c-55.3 28.8-121.8 25.1-173.6-9.7l-73.8 16.6 17.8-79.3z"/><path class="lineal-stroke" d="M184.9 369.7c-34.5.1-68.4-9.6-97.7-27.9L19.3 357c-7.9 1.8-15.7-3.2-17.5-11.1-.5-2.1-.5-4.3 0-6.5l16.7-74.1C6.3 240.3 0 212.7 0 184.9 0 82.9 82.9 0 184.9 0s184.9 82.9 184.9 184.9-83 184.8-184.9 184.8zm-95-58.2c2.9 0 5.8.9 8.2 2.5 25.6 17.3 55.8 26.5 86.7 26.4 85.8 0 155.5-69.8 155.5-155.5S270.6 29.3 184.9 29.3 29.3 99.1 29.3 184.9c-.1 25 6 49.7 17.6 71.9 1.6 3.1 2.1 6.6 1.3 10l-12.7 56.6 51.2-11.5c1.1-.3 2.2-.5 3.2-.4z"/><path class="lineal-stroke" d="M341.8 399c-9.9 0-19.8-.9-29.6-2.6-8-1.4-13.3-9-11.9-17 1.4-8 9-13.3 17-11.9 8.1 1.4 16.3 2.1 24.5 2.1 28 0 55.3-8.3 78.5-23.9 3.3-2.3 7.5-3 11.4-2.1l44.9 10.1-11.2-49.7c-.8-3.4-.3-6.9 1.3-10 36-69 9.1-154.1-59.9-190.1-4.5-2.3-9.1-4.4-13.8-6.3-7.5-2.9-11.3-11.5-8.3-19 2.9-7.5 11.5-11.3 19-8.3 87.6 34.3 130.8 133 96.6 220.6-1.6 4-3.3 7.9-5.1 11.7l15.1 67.3c1.8 7.9-3.2 15.7-11.1 17.5-2.1.5-4.3.5-6.5 0l-61.5-13.8c-26.7 16.7-57.8 25.5-89.4 25.4zm-67.9-195.6h-18.6c-8.1 0-14.7-6.6-14.7-14.7s6.6-14.7 14.7-14.7h18.6c8.1 0 14.7 6.6 14.7 14.7-.1 8.2-6.7 14.7-14.7 14.7zm-79 0h-18.6c-8.1 0-14.7-6.6-14.7-14.7s6.6-14.7 14.7-14.7h18.6c8.1 0 14.7 6.6 14.7 14.7 0 8.2-6.6 14.7-14.7 14.7zm-79 0H97.3c-8.1 0-14.7-6.6-14.7-14.7S89.2 174 97.3 174h18.6c8.1 0 14.7 6.6 14.7 14.7 0 8.2-6.6 14.7-14.7 14.7z"/></svg>