<svg xmlns="http://www.w3.org/2000/svg" viewBox="0 0 418.2 512"><path class="lineal-fill" d="M14.8 97.6h85.4V14.8z"/><path class="lineal-stroke" d="M100.2 112.4H14.8C6.6 112.4 0 105.8 0 97.7c0-4 1.6-7.9 4.5-10.7L89.9 4.2c5.8-5.7 15.2-5.6 20.9.3 2.7 2.8 4.2 6.5 4.2 10.3v82.8c0 8.2-6.6 14.8-14.8 14.8zm-49-29.6h34.2V49.7L51.2 82.8zM403.4 320c-8.2 0-14.8-6.6-14.8-14.8v-269c0-3.6-3.2-6.6-7.2-6.6H168.7c-8.2 0-14.8-6.6-14.8-14.8 0-8.2 6.6-14.8 14.8-14.8h212.6c20.3 0 36.8 16.2 36.8 36.1v269c.1 8.3-6.5 14.9-14.7 14.9z"/><path class="lineal-stroke" d="M381.4 512H36.8C16.5 512 0 495.8 0 475.9V97.6c0-4 1.6-7.8 4.5-10.6L89.9 4.2c5.9-5.7 15.2-5.5 20.9.3 5.7 5.9 5.5 15.2-.3 20.9l-80.9 78.5v372c0 3.6 3.2 6.6 7.2 6.6h344.6c4 0 7.2-3 7.2-6.6v-92.7c.2-8.2 7-14.6 15.2-14.4 7.9.2 14.2 6.5 14.4 14.4v92.7c0 19.9-16.5 36.1-36.8 36.1z"/><path class="lineal-stroke" d="M403.4 112.4H168.7c-8.2-.2-14.6-7-14.4-15.2.2-7.9 6.5-14.2 14.4-14.4h219.9v-43c0-5.7-4.6-10.3-10.3-10.3H168.7c-8.2 0-14.8-6.6-14.8-14.8C154 6.6 160.6 0 168.7 0h209.6c22 0 39.8 17.9 39.9 39.8v57.8c0 8.2-6.6 14.8-14.8 14.8z"/><path class="lineal-fill" d="M73 189.6h124.1v65H73z"/><path class="lineal-stroke" d="M197.1 269.4H73c-8.2 0-14.8-6.6-14.8-14.8v-65c0-8.2 6.6-14.8 14.7-14.8H197c8.2 0 14.8 6.6 14.8 14.8v65c.1 8.1-6.5 14.8-14.7 14.8.1 0 0 0 0 0zM87.8 239.8h94.6v-35.5H87.8v35.5zm201 25.3c-3.9 0-7.7-1.6-10.5-4.3l-23.6-23.6c-5.7-5.9-5.6-15.2.3-20.9 5.7-5.6 14.9-5.6 20.6 0l13.2 13.2 46-46c5.9-5.7 15.2-5.6 20.9.3 5.6 5.7 5.6 14.9 0 20.6l-56.4 56.4c-2.8 2.7-6.6 4.3-10.5 4.3z"/><path class="lineal-fill" d="M73 346.1h124.1v65H73z"/><path class="lineal-stroke" d="M197.1 426H73c-8.2 0-14.8-6.6-14.8-14.8v-65c0-8.2 6.5-14.8 14.7-14.9h124.2c8.2 0 14.8 6.6 14.8 14.8v65c0 8.2-6.5 14.9-14.8 14.9.1 0 .1 0 0 0zM87.8 396.4h94.6v-35.5H87.8v35.5zm201 25.3c-3.9 0-7.7-1.6-10.5-4.3l-23.6-23.6c-5.7-5.9-5.6-15.2.3-20.9 5.7-5.6 14.9-5.6 20.6 0l13.2 13.2 46-46c5.9-5.7 15.2-5.6 20.9.3 5.6 5.7 5.6 14.9 0 20.6l-56.4 56.4c-2.8 2.7-6.6 4.3-10.5 4.3z"/></svg>