<svg xmlns="http://www.w3.org/2000/svg" viewBox="0 0 512 381.92"><path class="lineal-fill" d="M228.38 200.24L98.31 70.16l-41.69 41.69-41.69 41.69L145 283.62l83.38-83.38z"/><path class="lineal-stroke" d="M507.63 87.75L424.25 4.37a14.93 14.93 0 00-21.11 0L228.38 179.13 108.86 59.6a14.93 14.93 0 00-21.11 0L4.37 143c-.35.36-.68.72-1 1.11s-.46.6-.67.91c-.07.09-.14.17-.2.26-.25.38-.47.76-.68 1.14l-.07.11c-.21.4-.39.79-.56 1.2l-.06.12c-.16.39-.29.78-.42 1.17 0 .07 0 .14-.07.21-.11.37-.2.74-.28 1.11 0 .1 0 .21-.07.31-.07.35-.12.7-.16 1.06 0 .13 0 .26-.06.39 0 .45-.06.9-.07 1.35v.21c0 .45 0 .9.07 1.35l.06.4c0 .35.09.7.16 1.05 0 .11.05.21.07.31.08.38.17.75.28 1.11 0 .07 0 .13.07.2.13.4.26.79.42 1.18l.06.12a13.17 13.17 0 00.57 1.2.22.22 0 00.05.08q.31.6.69 1.17l.15.2c.23.33.47.66.73 1s.43.48.65.72.22.26.34.38l213.46 213.42a14.93 14.93 0 0021.11-21.11l-72.82-72.82 72.82-72.83L413.69 36 476 98.31 301.21 273.06a14.93 14.93 0 0021.11 21.11l185.31-185.31a14.93 14.93 0 000-21.11zM98.31 91.27l109 109L145 262.51l-109-109z"/></svg>