<svg xmlns="http://www.w3.org/2000/svg" viewBox="0 0 302.1 409.6"><path class="lineal-stroke" d="M255 409.6H47c-25.9 0-47-21.1-47-47V118c.1-25.9 21.1-46.9 47-47h208c25.9.1 46.9 21.1 47 47v244.6c0 25.9-21.1 46.9-47 47zM47 92.8c-13.9 0-25.2 11.3-25.2 25.2v244.6c0 13.9 11.3 25.2 25.2 25.2h208c13.9 0 25.2-11.3 25.2-25.2V118c0-13.9-11.3-25.2-25.2-25.2H47z"/><path class="lineal-fill" d="M206 49.4h-15.7c-.5-21.7-18.5-38.9-40.2-38.4-21 .5-37.9 17.4-38.4 38.4H96.1c-18 .3-32.3 15.1-32 33.1.3 17.5 14.4 31.6 32 32H206c17.9-.8 31.9-15.9 31.1-33.9-.7-17-14.2-30.5-31.1-31.2z"/><path class="lineal-stroke" d="M206 125.3H96.1c-24 0-43.4-19.4-43.4-43.4s19.4-43.4 43.4-43.4h6.1c6.5-26.9 33.5-43.5 60.5-37.1 18.4 4.4 32.7 18.7 37.1 37.1h6.2c24 0 43.4 19.4 43.4 43.4S230 125.3 206 125.3zm-109.8-65c-11.9 0-21.6 9.7-21.6 21.6 0 11.9 9.7 21.6 21.6 21.6H206c11.9 0 21.6-9.7 21.6-21.6 0-11.9-9.7-21.6-21.6-21.6h-15.7c-5.9 0-10.8-4.7-10.9-10.7-.3-15.7-13.2-28.1-28.9-27.8-15.3.3-27.5 12.6-27.8 27.8-.1 5.9-5 10.7-10.9 10.7H96.2zm124.2 130.2H81.7c-6-.2-10.8-5.2-10.6-11.2.2-5.8 4.8-10.4 10.6-10.6h138.7c6-.2 11.1 4.6 11.2 10.6.2 6-4.6 11.1-10.6 11.2h-.6zm0 69.4H81.7c-6-.2-10.8-5.2-10.6-11.2.2-5.8 4.8-10.4 10.6-10.6h138.7c6-.2 11.1 4.6 11.2 10.6.2 6-4.6 11.1-10.6 11.2h-.6zm0 69.3H81.7c-6-.2-10.8-5.2-10.6-11.2.2-5.8 4.8-10.4 10.6-10.6h138.7c6-.2 11.1 4.6 11.2 10.6.2 6-4.6 11.1-10.6 11.2h-.6z"/></svg>