<svg xmlns="http://www.w3.org/2000/svg" viewBox="0 0 409.6 319.1"><path class="lineal-stroke" d="M333.9 278.3h-47c-6-.2-10.8-5.2-10.6-11.2.2-5.8 4.8-10.4 10.6-10.6h47c29.8 0 53.9-24.1 53.9-53.9 0-25.9-18.5-48.1-43.9-52.9-5.9-1.1-9.8-6.8-8.7-12.7 0-.2.1-.5.2-.7 12.7-48.9-16.6-98.8-65.5-111.4-38.4-10-78.9 6-100.2 39.5-2.9 4.6-8.8 6.3-13.7 4.1-30.1-13.6-65.6-.2-79.2 29.9-3.5 7.8-5.3 16.2-5.3 24.7 0 4.6.6 9.3 1.6 13.8 1.4 5.9-2.3 11.7-8.1 13.1h-.2c-29.3 6-47.9 34.5-41.8 63.7 5.2 24.9 27.2 42.8 52.7 42.8H123c6-.2 11.1 4.6 11.2 10.6.2 6-4.6 11.1-10.6 11.2H75.7C33.9 278.3 0 244.5 0 202.7c0-31.9 20-60.4 50-71.3-.3-2.8-.4-5.6-.5-8.5 0-45.1 36.6-81.7 81.7-81.7 8.5 0 17 1.3 25.1 3.9 37.6-50 108.6-60 158.5-22.4C348.4 48 365.2 89.6 358.6 131c39.5 13.6 60.5 56.7 46.9 96.2-10.6 30.6-39.3 51.1-71.6 51.1z"/><path class="lineal-fill" d="M159 251.2l39.2 53.6c2.7 3.6 7.8 4.4 11.4 1.8.7-.5 1.3-1.1 1.8-1.8l39.3-53.6c2.7-3.6 1.9-8.7-1.7-11.4-1.4-1-3.1-1.6-4.9-1.6h-10.7V186c0-10.3-8.3-18.6-18.6-18.6H195c-10.3 0-18.6 8.4-18.6 18.6v52.2h-10.7c-4.5 0-8.2 3.6-8.2 8.1-.1 1.8.4 3.5 1.5 4.9z"/><path class="lineal-stroke" d="M204.8 319.1c-6.1 0-11.8-2.9-15.4-7.8l-39.3-53.6c-6.2-8.5-4.4-20.4 4.1-26.7 3.2-2.3 7.1-3.6 11.1-3.7V186c0-16.3 13.2-29.5 29.5-29.6h19.8c16.3 0 29.5 13.2 29.6 29.6v41.3c10.5.1 19 8.8 18.8 19.3 0 4-1.3 7.8-3.7 11L220 311.2c-3.4 5-9.1 7.8-15.2 7.9zm-33.8-70l33.8 46.2 33.8-46.2h-5.3c-6 0-10.9-4.9-10.9-10.9V186c0-4.3-3.5-7.7-7.7-7.7h-19.9c-4.3 0-7.7 3.5-7.7 7.7v52.2c0 6-4.9 10.9-10.9 10.9H171z"/></svg>