<svg xmlns="http://www.w3.org/2000/svg" viewBox="0 0 349.06 409.6"><path class="lineal-stroke" d="M249.63 409.6H99.43a45.94 45.94 0 01-45.22-39.12l-40-275.27A11.95 11.95 0 0126 81.56h297a11.93 11.93 0 0111.8 13.65l-40 275.27a45.94 45.94 0 01-45.21 39.12zM39.83 105.42l38 261.63a21.94 21.94 0 0021.6 18.69h150.19a22 22 0 0021.61-18.69l38-261.63z"/><path class="lineal-fill" d="M311.05 62.65h-54.91V38.93a27 27 0 00-27-27H119.92a27 27 0 00-27 27v23.72H38a26.08 26.08 0 000 52.16h273a26.08 26.08 0 000-52.16z"/><path class="lineal-stroke" d="M311.05 126.74H38a38 38 0 010-76h43V38.93A39 39 0 01119.92 0h109.22a39 39 0 0138.93 38.93v11.79h43a38 38 0 010 76zM38 74.58a14.15 14.15 0 000 28.3h273a14.15 14.15 0 000-28.3h-54.86a11.93 11.93 0 01-11.93-11.93V38.93a15.09 15.09 0 00-15.07-15.07H119.92a15.09 15.09 0 00-15.07 15.07v23.72a11.94 11.94 0 01-11.93 11.94H38z"/><path class="lineal-fill" d="M266.39 205h40.43l-12.3 84.68H54.53L42.24 205h165.69"/><path class="lineal-stroke" d="M294.52 301.61h-240a11.93 11.93 0 01-11.8-10.21l-12.3-84.68a11.95 11.95 0 0111.81-13.65h165.7a11.93 11.93 0 010 23.86H56l8.82 60.82H284.2l8.8-60.82h-26.61a11.93 11.93 0 110-23.86h40.43a11.93 11.93 0 0111.8 13.65l-12.3 84.68a11.92 11.92 0 01-11.8 10.21z"/></svg>