<svg xmlns="http://www.w3.org/2000/svg" viewBox="0 0 409.6 399.6"><path class="lineal-stroke" d="M257 399.6H152.6V293H257v106.6zm-82.1-22.2h59.9v-62.1h-60l.1 62.1z"/><path class="lineal-stroke" d="M363.9 337.3H45.7C20.5 337.3 0 316.8 0 291.6V45.7C0 20.5 20.5 0 45.7 0h318.2c25.2 0 45.7 20.5 45.7 45.7v245.9c0 25.2-20.5 45.7-45.7 45.7zM45.7 22.2c-13 0-23.5 10.5-23.5 23.5v245.9c0 13 10.5 23.5 23.5 23.5h318.2c13 0 23.5-10.5 23.5-23.5V45.7c0-13-10.5-23.5-23.5-23.5H45.7z"/><path class="lineal-stroke" d="M326.3 292.9h-243c-21.5 0-38.9-17.4-38.9-38.9V83.3c0-21.5 17.5-38.9 38.9-38.9h242.9c21.5 0 38.9 17.4 38.9 38.9H343c0-9.2-7.5-16.7-16.7-16.7h-243c-9.2 0-16.7 7.5-16.7 16.7V254c0 9.2 7.5 16.7 16.7 16.7h242.9c9.2 0 16.7-7.5 16.7-16.7v-95.3h22.2V254c.1 21.5-17.3 38.9-38.8 38.9z"/><path class="lineal-fill" d="M11.1 239.7v51.9c0 19.1 15.5 34.6 34.6 34.6h318.2c19.1 0 34.6-15.5 34.6-34.6v-51.9H11.1z"/><path class="lineal-stroke" d="M363.9 337.3H45.7C20.5 337.3 0 316.8 0 291.6v-63h409.6v63c0 25.2-20.5 45.7-45.7 45.7zM22.2 250.8v40.8c0 13 10.5 23.5 23.5 23.5h318.2c13 0 23.5-10.5 23.5-23.5v-40.8H22.2z"/><path class="lineal-stroke" d="M184.8 271.9h39.9v22.2h-39.9zm-68.2 105.5h176.5v22.2H116.6z"/></svg>