<svg xmlns="http://www.w3.org/2000/svg" viewBox="0 0 409.6 355.1"><path class="lineal-stroke" d="M398.2 64.9H221.9c-6.3 0-11.4-5.1-11.4-11.4s5.1-11.4 11.4-11.4h176.4c6.3 0 11.4 5.1 11.4 11.4s-5.2 11.4-11.5 11.4zm-250.3 0H11.4C5.1 64.9 0 59.8 0 53.5s5.1-11.4 11.4-11.4h136.5c6.3 0 11.4 5.1 11.4 11.4s-5.1 11.4-11.4 11.4z"/><path class="lineal-fill" d="M156.7 95.7H77.5c-7.7 0-14-6.3-14-14V25.3c0-7.7 6.3-14 14-13.9h79.2c7.7 0 14 6.2 14 13.9v56.4c0 7.8-6.3 14.1-14 14z"/><path class="lineal-stroke" d="M156.7 107.1H77.5c-14 0-25.3-11.4-25.3-25.3V25.3C52.2 11.3 63.5 0 77.5 0h79.2c14 0 25.3 11.4 25.3 25.3v56.4c0 14-11.3 25.4-25.3 25.4zM77.5 22.8c-1.4 0-2.5 1.2-2.5 2.6v56.4c0 1.4 1.1 2.6 2.6 2.6h79.2c1.4 0 2.6-1.2 2.6-2.6V25.3c0-1.4-1.2-2.6-2.6-2.6H77.5zM398.2 313H221.9c-6.3 0-11.4-5.1-11.4-11.4s5.1-11.4 11.4-11.4h176.4c6.3 0 11.4 5.1 11.4 11.4s-5.2 11.4-11.5 11.4zm-250.3 0H11.4C5.1 313 0 307.9 0 301.6s5.1-11.4 11.4-11.4h136.5c6.3 0 11.4 5.1 11.4 11.4s-5.1 11.4-11.4 11.4z"/><path class="lineal-fill" d="M156.7 343.7H77.5c-7.7 0-14-6.2-14-14v-56.4c0-7.7 6.3-14 14-14h79.2c7.7 0 14 6.3 14 14v56.4c0 7.8-6.3 14-14 14z"/><path class="lineal-stroke" d="M156.7 355.1H77.5c-14 0-25.3-11.3-25.3-25.3v-56.4c0-14 11.3-25.4 25.3-25.4h79.2c14 0 25.3 11.4 25.3 25.4v56.4c0 14-11.3 25.3-25.3 25.3zm-79.2-84.3c-1.4 0-2.5 1.2-2.5 2.6v56.4c0 1.4 1.1 2.6 2.6 2.6h79.2c1.4 0 2.6-1.2 2.6-2.6v-56.4c0-1.4-1.2-2.6-2.6-2.6H77.5zm320.7-81.9H275c-6.3 0-11.4-5.1-11.4-11.4 0-6.3 5.1-11.4 11.4-11.4h123.2c6.3 0 11.4 5.1 11.4 11.4 0 6.3-5.1 11.4-11.4 11.4zm-199.1 0H11.4c-6.3 0-11.4-5.1-11.4-11.4 0-6.3 5.1-11.4 11.4-11.4h187.7c6.3 0 11.4 5.1 11.4 11.4 0 6.3-5.1 11.4-11.4 11.4z"/><path class="lineal-fill" d="M344.1 219.7h-79.2c-7.7 0-14-6.3-14-14v-56.4c0-7.7 6.3-14 14-13.9h79.2c7.7 0 13.9 6.3 13.9 13.9v56.4c0 7.8-6.2 14-13.9 14z"/><path class="lineal-stroke" d="M344.1 231.1h-79.2c-14 0-25.3-11.3-25.3-25.3v-56.4c0-14 11.3-25.3 25.3-25.4h79.2c14 0 25.3 11.3 25.3 25.3v56.4c0 14-11.3 25.4-25.3 25.4zm-79.2-84.3c-1.4 0-2.6 1.2-2.6 2.6v56.4c0 1.4 1.2 2.6 2.6 2.6h79.2c1.4 0 2.6-1.2 2.6-2.6v-56.4c0-1.4-1.1-2.6-2.6-2.6h-79.2z"/></svg>