<svg xmlns="http://www.w3.org/2000/svg" viewBox="0 0 512 502.2"><path class="lineal-stroke" d="M495.8 267.3H16.2C7.3 267.3 0 260 0 251.1c0-8.9 7.3-16.2 16.2-16.2h479.6c8.9 0 16.2 7.3 16.2 16.2 0 8.9-7.3 16.2-16.2 16.2z"/><circle class="lineal-fill" cx="198.8" cy="251.1" r="69.7"/><path class="lineal-stroke" d="M198.8 336.9c-47.4 0-85.9-38.4-85.9-85.9s38.4-85.9 85.9-85.9 85.9 38.4 85.9 85.9c-.2 47.5-38.6 85.9-85.9 85.9zm0-139.3c-29.5 0-53.5 23.9-53.5 53.5s23.9 53.5 53.5 53.5 53.5-23.9 53.5-53.5c-.1-29.5-24-53.4-53.5-53.5zm126.9-95.5H16.2c-8.9.2-16.4-6.8-16.6-15.8s6.8-16.4 15.8-16.6h310.3c8.9.2 16 7.7 15.8 16.6-.3 8.6-7.2 15.5-15.8 15.8zm171.8 0h-27.6c-8 .2-14.7-6.8-14.9-15.8-.2-8.9 6.1-16.4 14.2-16.6h28.3c8-.2 14.7 6.8 14.9 15.8.2 8.9-6.1 16.4-14.2 16.6h-.7z"/><path class="lineal-stroke" d="M395.3 171.7c-8.9 0-16.2-7.3-16.2-16.2 0-8.9 7.3-16.2 16.2-16.2 29.5 0 53.5-23.9 53.5-53.5 0-29.5-23.9-53.5-53.5-53.5-29.5 0-53.5 23.9-53.5 53.5.2 8.9-6.8 16.4-15.8 16.6-8.9.2-16.4-6.8-16.6-15.8v-.8c0-47.4 38.4-85.8 85.9-85.8s85.8 38.4 85.8 85.9c.1 47.4-38.4 85.8-85.8 85.8zm-69.6 260.8H16.2c-8.9 0-16.2-7.2-16.2-16.2 0-8.9 7.2-16.2 16.2-16.2h309.5c8.9 0 16.2 7.3 16.2 16.2-.1 9-7.3 16.2-16.2 16.2zm171.7 0h-27.8c-8.1 0-14.6-7.3-14.6-16.2 0-8.9 6.5-16.2 14.6-16.2h27.8c8.1 0 14.6 7.3 14.6 16.2 0 9-6.6 16.2-14.6 16.2z"/><path class="lineal-stroke" d="M395.3 502.2c-8.9.2-16.4-6.8-16.6-15.8s6.8-16.4 15.8-16.6h.8c29.5 0 53.5-23.9 53.5-53.5 0-29.5-23.9-53.5-53.5-53.5-29.5 0-53.5 23.9-53.5 53.5.2 8.9-6.8 16.4-15.8 16.6s-16.4-6.8-16.6-15.8v-.8c0-47.4 38.4-85.8 85.9-85.8s85.8 38.4 85.8 85.8-38.4 85.9-85.8 85.9z"/></svg>