<svg xmlns="http://www.w3.org/2000/svg" viewBox="0 0 458.7 512"><path class="lineal-fill" d="M229.3 14.7L14.7 192.2v22.1l214.6 177.5L444 214.3v-22.1z"/><path class="lineal-stroke" d="M453.4 225.6c3.4-2.8 5.3-7 5.3-11.3v-22.1c0-4.4-2-8.5-5.3-11.3L238.7 3.4c-5.4-4.5-13.3-4.5-18.8 0L5.3 180.8c-3.4 2.8-5.3 7-5.3 11.3v305.1c0 8.1 6.6 14.7 14.7 14.7H444c8.1 0 14.7-6.6 14.7-14.7V315.9c-.2-8.1-7-14.5-15.1-14.3-7.8.2-14.1 6.5-14.3 14.3v146.2l-131-108.3 155.1-128.2zm-224-191.8l199.9 165.3v8.3l-200 165.3L40 216.1h296.8c8.1-.2 14.5-7 14.3-15.1-.2-7.8-6.5-14.1-14.3-14.3H44.4l185-152.9zm-200 211.8l131 108.3-131 108.3V245.6zm378.4 237H50.9L183.5 373l36.5 30.2c5.4 4.5 13.3 4.5 18.8 0l36.5-30.2 132.5 109.6z"/></svg>