<svg xmlns="http://www.w3.org/2000/svg" viewBox="0 0 512 511.97"><path class="lineal-stroke" d="M340.41 225.21a14.18 14.18 0 01-10.08-4.21l-40.65-40.65a14.24 14.24 0 010-20.16L417.44 32.46a14.26 14.26 0 0120.17 20.16L319.93 170.3l20.48 20.49 34-34A14.26 14.26 0 01394.58 177l-44.09 44a14.18 14.18 0 01-10.08 4.21z"/><path class="lineal-fill" d="M349.85 48.6l147.86-34.34-34.33 147.86L349.85 48.6z"/><path class="lineal-stroke" d="M463.38 176.38a14.26 14.26 0 01-10.09-4.18L339.77 58.68a14.25 14.25 0 016.86-24L494.49.37a14.26 14.26 0 0117.11 17.12l-34.34 147.86a14.25 14.25 0 01-13.88 11zM378.1 56.68l77.2 77.2 23.35-100.55zM84.45 483.69a14.26 14.26 0 01-10.08-24.34l117.68-117.68-20.49-20.48-34 34A14.26 14.26 0 11117.4 335l44.08-44.08a14.25 14.25 0 0120.16 0l40.65 40.65a14.24 14.24 0 010 20.16L94.53 479.52a14.21 14.21 0 01-10.08 4.17z"/><path class="lineal-fill" d="M162.12 463.38L14.26 497.71l34.33-147.86 113.53 113.53z"/><path class="lineal-stroke" d="M14.26 512A14.25 14.25 0 01.37 494.49l34.34-147.86a14.25 14.25 0 0124-6.86L172.2 453.29a14.26 14.26 0 01-6.85 24L17.48 511.6a14.15 14.15 0 01-3.22.4zm42.41-133.9L33.32 478.65l100.56-23.35zm412.76 63.68a14.21 14.21 0 01-10.08-4.17L341.67 319.93l-20.48 20.48 34 34A14.26 14.26 0 11335 394.58l-44.06-44.08a14.26 14.26 0 010-20.17l40.65-40.65a14.26 14.26 0 0120.16 0l127.76 127.76a14.26 14.26 0 01-10.08 24.34z"/><path class="lineal-fill" d="M463.38 349.85l34.33 147.86-147.86-34.33 113.53-113.53z"/><path class="lineal-stroke" d="M497.71 512a14.15 14.15 0 01-3.22-.37l-147.86-34.36a14.25 14.25 0 01-6.86-24l113.52-113.5a14.26 14.26 0 0124 6.86l34.12 146.94A14.27 14.27 0 01497.87 512zM378.1 455.3l100.55 23.35L455.3 378.1zM170.3 226.47a14.21 14.21 0 01-10.08-4.17L32.46 94.54a14.26 14.26 0 0120.16-20.17L170.3 192.05l20.49-20.49-34-34A14.26 14.26 0 01177 117.4l44 44.08a14.24 14.24 0 010 20.16l-40.65 40.65a14.18 14.18 0 01-10.05 4.18z"/><path class="lineal-fill" d="M48.59 162.12L14.26 14.26 162.12 48.6 48.59 162.12z"/><path class="lineal-stroke" d="M48.59 176.38a14.25 14.25 0 01-13.88-11L.37 17.49A14.26 14.26 0 0117.48.37l147.86 34.34a14.25 14.25 0 016.86 24L58.68 172.2a14.24 14.24 0 01-10.09 4.18zm-15.27-143l23.35 100.5 77.21-77.2z"/></svg>