<svg xmlns="http://www.w3.org/2000/svg" viewBox="0 0 409.6 357.39"><path class="lineal-fill" d="M71.14 346h-38.7a21.05 21.05 0 01-21.06-21V56.34a21.06 21.06 0 0121.06-21.06h38.7a21.05 21.05 0 0121 21.06V325a21 21 0 01-21 21.05z"/><path class="lineal-stroke" d="M71.14 357.39h-38.7A32.47 32.47 0 010 325V56.34A32.47 32.47 0 0132.44 23.9h38.7a32.47 32.47 0 0132.43 32.44V325a32.47 32.47 0 01-32.43 32.44zM32.44 46.66a9.68 9.68 0 00-9.67 9.68V325a9.67 9.67 0 009.67 9.67h38.7a9.68 9.68 0 009.67-9.67V56.34a9.69 9.69 0 00-9.67-9.68zM343 199.18H191.64a29.62 29.62 0 01-29.59-29.59V72.38a29.42 29.42 0 018.64-20.9L213.35 8.7a29.4 29.4 0 0121-8.7H343a29.63 29.63 0 0129.59 29.59v140A29.62 29.62 0 01343 199.18zM234.31 22.77a6.82 6.82 0 00-4.84 2L186.8 67.56a6.8 6.8 0 00-2 4.82v97.21a6.84 6.84 0 006.83 6.83H343a6.83 6.83 0 006.83-6.83v-140a6.84 6.84 0 00-6.83-6.82z"/><path class="lineal-stroke" d="M380 357.39H154.65a29.63 29.63 0 01-29.59-29.6V103.57A29.62 29.62 0 01154.65 74h15.94a11.38 11.38 0 010 22.76h-15.94a6.84 6.84 0 00-6.83 6.83v224.2a6.83 6.83 0 006.83 6.83H380a6.84 6.84 0 006.83-6.83V103.57a6.84 6.84 0 00-6.83-6.82h-17.07a11.39 11.39 0 010-22.77H380a29.63 29.63 0 0129.59 29.59V327.8A29.63 29.63 0 01380 357.39z"/><path class="lineal-stroke" d="M216.11 249.26h-30.73a11.38 11.38 0 010-22.76h30.73a11.38 11.38 0 010 22.76zm66.59 0H252a11.38 11.38 0 010-22.76h30.7a11.38 11.38 0 010 22.76zm66.58 0h-30.73a11.38 11.38 0 110-22.76h30.73a11.38 11.38 0 110 22.76zm-133.17 53.49h-30.73a11.38 11.38 0 110-22.76h30.73a11.38 11.38 0 110 22.76zm66.59 0H252a11.38 11.38 0 110-22.75h30.7a11.38 11.38 0 010 22.76zm66.58 0h-30.73a11.38 11.38 0 110-22.76h30.73a11.38 11.38 0 110 22.76z"/></svg>