<svg xmlns="http://www.w3.org/2000/svg" viewBox="0 0 482.17 512"><path class="lineal-fill" d="M50.74 171.2s48.62-21.54 111.2-28.37c10-1.1 51.5-30.67 51.76-30.86 27.24-20 48.4 59.23 48.4 59.23.25-1.4.49-2.84.72-4.31.11-.66.21-1.32.31-2 2.37-15.38 11.8-34 11.73-49.6 0-10.17-.88-19-2.87-24.88-18.09-53.14-61.59-35.63-61.59-35.63S180.07 14 157 15.29h-.77v.1a16.67 16.67 0 00-6.41 1.92c-59.56 32-67.45 28-80.81 32.65-32.4 11.25-33.25 8.24-29.17 33.21 6.84 41.69 9.63 72.07 10.9 88.03z"/><path class="lineal-fill" d="M282.31 228.58s40-17.75 91.59-23.37c8.26-.9 42.42-25.26 42.64-25.42 22.44-16.47 39.87 48.79 39.87 48.79.2-1.15.4-2.34.6-3.55.08-.54.17-1.09.25-1.64 1.95-12.67 9.72-28 9.66-40.86 0-8.37-.73-15.68-2.36-20.49-14.91-43.78-50.74-29.35-50.74-29.35s-25-33.57-44-32.54h-.63v.08a13.78 13.78 0 00-5.28 1.58c-49.06 26.37-55.56 23.07-66.57 26.9-26.69 9.27-27.39 6.79-24 27.36 5.66 34.34 7.92 59.37 8.97 72.51z"/><path class="lineal-stroke" d="M479 157.12c-12.9-37.87-40.5-42-51.77-42a57.15 57.15 0 00-7.5.5c-10.47-12.24-29.54-30.79-49-30.79h-1.6a15.19 15.19 0 00-3.47.43 28.87 28.87 0 00-8.93 3c-35.82 19.26-47.42 21.8-55.09 23.47a75.28 75.28 0 00-9.25 2.46l-2.26.78c-.07-12.81-1.27-22.47-3.68-29.55C272 43.1 242.79 36.77 226.67 36.77a66.24 66.24 0 00-10.45.85C204.64 23.91 181.13 0 158.06 0h-1.95a15.32 15.32 0 00-3.54.45 31.84 31.84 0 00-9.95 3.38c-43.89 23.59-58.24 26.73-67.74 28.8A90.79 90.79 0 0064 35.51c-3.54 1.23-6.7 2.29-9.51 3.23-13.83 4.63-22.19 7.43-27.55 15.58-5.8 8.82-4.26 18.24-2.13 31.27 4.91 30 8.51 59.14 10.7 86.53V191a120.49 120.49 0 0031.14 80.92C26.37 291.62 0 334.65 0 384.81v111.94A15.25 15.25 0 0015.25 512h362.24a15.26 15.26 0 000-30.51H268.33v-76.95c0-34.81 19.35-62.88 48.75-71.73a102.29 102.29 0 00154.69-87.91v-15.7c.1-.59.2-1.16.3-1.76l.27-1.73a107 107 0 013.91-14.47c2.8-8.85 6-18.87 5.92-28.78-.04-10.92-1.08-19.2-3.17-25.34zm-184.76-11.27c2.41-.81 5.11-1.71 8.13-2.76a50.32 50.32 0 015.75-1.48c9.87-2.15 23.38-5.1 62.73-26.23 5.81.2 20.67 13 30.74 26.42a14.79 14.79 0 0017.83 5.08 25.62 25.62 0 017.81-1.21c3.86 0 15.64 0 22.89 21.29.31.91 1.25 4.3 1.49 12.33-6.27-8.9-15.4-17.42-27.73-17.42a27.66 27.66 0 00-16.27 5.56c-11.52 8.26-30.5 20.64-36.19 22.71a365.87 365.87 0 00-75.77 17.09c-1.82-17.33-4.25-35.3-7.25-53.65-.28-1.69-.61-3.7-.85-5.44 1.96-.71 4.45-1.53 6.69-2.29zm-230.35 1.84c-2.23-21.61-5.22-44.06-9-67-.48-3-1.09-6.67-1.37-9.27 2.62-1.05 6.68-2.41 10.66-3.74 2.9-1 6.17-2.06 9.83-3.34a63.86 63.86 0 017.36-1.89c11.82-2.58 28-6.11 75.67-31.73a1.44 1.44 0 01.65-.17h.35c8.93 0 28.31 17.6 40.11 33.38A14.86 14.86 0 00216 69a34.36 34.36 0 0110.65-1.69c14.35 0 24.45 9.18 30.88 28.06.6 1.76 2 7.23 2.06 20a37.08 37.08 0 01-.67 6.58c-10.71-19.12-22.66-28.46-36.33-28.46a29.94 29.94 0 00-17.86 6.13c-14.58 10.46-38.48 26-45.08 28.12a441.11 441.11 0 00-94.85 21.72 14.78 14.78 0 00-.91-1.77zM66 191v-9.5a411.41 411.41 0 0197.59-23.5c15.35-1.68 56.62-31.88 59.08-33.68 1.91 1.31 7.75 6.52 15.45 24.47a226.19 226.19 0 018.86 25V191a90.48 90.48 0 01-181 0zm171.8 213.52v76.95H30.51v-96.66c0-44.31 25-79.93 62.91-90.6A120.86 120.86 0 00267.07 240v4.88a101.88 101.88 0 0024.06 65.83c-32.34 17.29-53.31 52.75-53.31 93.83zm131.61-87.79a71.93 71.93 0 01-71.85-71.85v-6a336.6 336.6 0 0178-18.56c12-1.31 40.95-21.72 48.32-27.05 5.13 5.07 12.91 21.8 17.39 37.74v13.89a71.93 71.93 0 01-71.84 71.85z"/></svg>