<svg xmlns="http://www.w3.org/2000/svg" viewBox="0 0 480.2 512"><path class="lineal-stroke" d="M289.9 480.5h-43.7c-8 0-14.5-6.5-14.5-14.5s6.5-14.5 14.5-14.5h43.7c65.2 0 118.1-52.9 118.1-118.1 0-8 6.5-14.5 14.5-14.5s14.5 6.5 14.5 14.5c.1 81.3-65.8 147.1-147.1 147.1zM57.7 369.9c-8 0-14.5-6.5-14.5-14.5V147.1C43.2 66 109.2 0 190.3 0h99.6C343 .1 392 28.7 418.2 75c3.9 7 1.5 15.8-5.5 19.8-7 3.9-15.8 1.5-19.8-5.5-21-37.2-60.3-60.2-103-60.2h-99.6c-65.2 0-118.1 52.8-118.2 118v208.3c0 8-6.4 14.5-14.4 14.5z"/><path class="lineal-fill" d="M394.2 370.9c15.3 0 27.6-12.4 27.6-27.6V354h8.6c19.5 0 35.3-15.8 35.3-35.3v-76c0-19.5-15.8-35.3-35.3-35.3h-8.6v10.7c0-15.3-12.4-27.6-27.6-27.6-15.3 0-27.6 12.4-27.6 27.6v125.1c0 15.3 12.3 27.7 27.6 27.7z"/><path class="lineal-stroke" d="M394.2 385.4c-23.3 0-42.1-18.9-42.1-42.1V218.2c0-23.3 18.9-42.1 42.2-42.1 13.3 0 25.8 6.3 33.7 16.9h2.5c27.5 0 49.8 22.3 49.8 49.8v76c0 27.5-22.3 49.8-49.8 49.8H428c-8 10.6-20.5 16.8-33.8 16.8zm0-180.4c-7.3 0-13.1 5.9-13.1 13.1v125.1c0 7.3 5.9 13.1 13.1 13.1 7.3 0 13.1-5.9 13.1-13.1 0-8 6.5-14.5 14.5-14.5 6.3 0 11.9 4.1 13.8 10.1 9.2-2.4 15.5-10.7 15.6-20.1v-76c0-9.5-6.4-17.7-15.6-20.1-2.4 7.6-10.6 11.8-18.2 9.4-6-1.9-10.1-7.5-10.1-13.8 0-7.3-5.9-13.2-13.1-13.2z"/><path class="lineal-fill" d="M86 370.9c-15.3 0-27.6-12.4-27.6-27.6V354h-8.6c-19.5 0-35.3-15.8-35.3-35.3v-76c0-19.5 15.8-35.3 35.3-35.3h8.6v10.7c0-15.2 12.4-27.6 27.6-27.6 15.3 0 27.6 12.4 27.6 27.6v125.1c0 15.3-12.3 27.7-27.6 27.7z"/><path class="lineal-stroke" d="M86 385.4c-13.3 0-25.8-6.3-33.7-16.9h-2.5C22.3 368.4 0 346.2 0 318.7v-76C.1 215.2 22.3 193 49.8 193h2.5c13.9-18.6 40.3-22.5 58.9-8.6 10.7 8 16.9 20.5 16.9 33.8v125c0 23.3-18.8 42.2-42.1 42.2zm-13.1-42.2c-.2 7.3 5.5 13.3 12.8 13.5 7.3.2 13.3-5.5 13.5-12.8V218.2c.2-7.3-5.5-13.3-12.8-13.5-7.3-.2-13.3 5.5-13.5 12.8v.7c0 8-6.5 14.5-14.5 14.5-6.3 0-11.9-4.1-13.8-10.1C35.4 225 29 233.3 29 242.7v76c0 9.4 6.4 17.7 15.6 20.1 2.4-7.6 10.6-11.8 18.2-9.4 6 1.9 10.1 7.5 10.1 13.8z"/><circle class="lineal-fill" cx="255.8" cy="461.3" r="36.2"/><path class="lineal-stroke" d="M255.8 512c-28 0-50.7-22.7-50.7-50.7 0-28 22.7-50.7 50.7-50.7s50.7 22.7 50.7 50.7c-.1 28-22.8 50.7-50.7 50.7zm0-72.4c-12 0-21.7 9.7-21.7 21.7s9.7 21.7 21.7 21.7 21.7-9.7 21.7-21.7c-.1-11.9-9.8-21.6-21.7-21.7z"/></svg>