<svg xmlns="http://www.w3.org/2000/svg" viewBox="0 0 409.6 385.6"><path class="lineal-stroke" d="M204.8 363.2c-6.4-.4-11.2-5.8-10.8-12.2.3-5.8 5-10.5 10.8-10.8 36.3 0 71-14.5 96.5-40.3 4.5-4.5 11.8-4.5 16.3 0s4.5 11.8 0 16.3c-29.7 30.1-70.4 47.1-112.8 47zm147.7-147.7c-6.3 0-11.5-5.1-11.5-11.5v-44.8C341 84.1 279.9 23 204.8 23S68.6 84.1 68.6 159.2c-.4 6.4-5.8 11.2-12.2 10.8-5.8-.3-10.5-5-10.8-10.8C45.6 71.4 117 0 204.8 0S364 71.4 364 159.2V204c0 6.4-5.2 11.5-11.5 11.5z"/><path class="lineal-fill" d="M213.5 374h-17.4c-12.2 0-22.1-9.9-22.1-22.1 0-12.2 9.9-22 22.1-22.1h17.4c12.2 0 22.1 9.9 22.1 22.1s-9.9 22.1-22.1 22.1z"/><path class="lineal-stroke" d="M213.5 385.6h-17.4c-18.5 0-33.6-15-33.6-33.6 0-18.5 15-33.6 33.6-33.6h17.4c18.5 0 33.6 15 33.6 33.6 0 18.5-15.1 33.6-33.6 33.6zm-17.4-44.1c-5.8 0-10.5 4.7-10.6 10.5 0 5.8 4.7 10.5 10.5 10.6h17.4c5.8 0 10.5-4.7 10.6-10.5 0-5.8-4.7-10.5-10.5-10.6h-17.4z"/><path class="lineal-fill" d="M76.3 242.9h-35c-16.5 0-29.8-13.4-29.8-29.8v-33.2c0-16.5 13.4-29.8 29.8-29.8h35v92.8z"/><path class="lineal-stroke" d="M76.3 254.4h-35C18.5 254.4 0 235.9 0 213.1v-33.2c0-22.8 18.5-41.3 41.3-41.3h35c6.4 0 11.5 5.2 11.5 11.5v92.8c.1 6.3-5.1 11.5-11.5 11.5zm-35-92.8c-10.1 0-18.3 8.2-18.3 18.3V213c0 10.1 8.2 18.3 18.3 18.3h23.5v-69.8l-23.5.1z"/><path class="lineal-fill" d="M82.7 257.8c-13.3 0-24.1-10.8-24.1-24.1v-74.4c0-13.3 10.8-24.1 24.1-24.1s24.1 10.8 24.1 24.1v74.4c0 13.3-10.8 24.1-24.1 24.1z"/><path class="lineal-stroke" d="M82.7 269.3c-19.7 0-35.6-16-35.7-35.6v-74.4c-.3-19.7 15.4-35.9 35-36.2s35.9 15.4 36.2 35v75.6c.1 19.7-15.9 35.6-35.5 35.6zm0-122.7c-7 0-12.6 5.7-12.6 12.6v74.4c0 7 5.6 12.6 12.6 12.6s12.6-5.6 12.6-12.6v-74.4c0-6.9-5.7-12.5-12.6-12.6z"/><path class="lineal-fill" d="M333.2 242.9h35c16.5 0 29.8-13.4 29.8-29.8v-33.2c0-16.5-13.4-29.8-29.8-29.8h-35v92.8z"/><path class="lineal-stroke" d="M368.3 254.4h-35c-6.4 0-11.5-5.2-11.5-11.5v-92.8c0-6.4 5.2-11.5 11.5-11.5h35c22.8 0 41.3 18.5 41.3 41.3V213c0 22.9-18.5 41.4-41.3 41.4zm-23.5-23h23.5c10.1 0 18.3-8.2 18.3-18.3v-33.2c0-10.1-8.2-18.3-18.3-18.3h-23.5v69.8z"/><path class="lineal-fill" d="M326.9 257.8c13.3 0 24.1-10.8 24.1-24.1v-74.4c0-13.3-10.8-24.1-24.1-24.1s-24.1 10.8-24.1 24.1v74.4c0 13.3 10.8 24.1 24.1 24.1z"/><path class="lineal-stroke" d="M326.9 269.3c-19.7 0-35.6-16-35.6-35.6v-74.4c0-19.7 16-35.6 35.6-35.6 19.7 0 35.6 16 35.6 35.6v74.4c0 19.7-15.9 35.6-35.6 35.6zm0-122.7c-7 0-12.6 5.7-12.6 12.6v74.4c0 7 5.6 12.6 12.6 12.6s12.6-5.6 12.6-12.6v-74.4c0-6.9-5.6-12.5-12.6-12.6z"/></svg>