<svg xmlns="http://www.w3.org/2000/svg" viewBox="0 0 317.51 409.6"><path class="lineal-stroke" d="M294.84 386.05a11.51 11.51 0 01-11.51-11.51V105.48a11.51 11.51 0 0123 0v269.06a11.51 11.51 0 01-11.51 11.51zm-272.17-15a11.51 11.51 0 01-11.51-11.51V33.41a11.51 11.51 0 0123 0v326.13a11.51 11.51 0 01-11.51 11.51zM158.76 215.8a110.83 110.83 0 01-110.7-110.7V19a11.51 11.51 0 0123 0v86.1a87.68 87.68 0 00175.36 0 11.51 11.51 0 1123 0 110.83 110.83 0 01-110.7 110.7z"/><path class="lineal-fill" d="M284.11 55.3H33.41a21.9 21.9 0 110-43.79h250.7a21.9 21.9 0 010 43.79z"/><path class="lineal-stroke" d="M284.11 66.81H33.41a33.41 33.41 0 110-66.81h250.7a33.41 33.41 0 010 66.81zM33.41 23a10.39 10.39 0 100 20.77h250.7a10.39 10.39 0 000-20.77zm26.16 379.12a11.51 11.51 0 01-11.51-11.51V304.5a110.7 110.7 0 11221.39 0 11.51 11.51 0 11-23 0 87.68 87.68 0 10-175.35 0v86.11a11.51 11.51 0 01-11.51 11.51z"/><path class="lineal-fill" d="M109.78 385v-69.34a49 49 0 0197.95 0V385z"/><path class="lineal-stroke" d="M207.73 396.55h-97.95A11.52 11.52 0 0198.27 385v-69.34a60.49 60.49 0 01121 0V385a11.51 11.51 0 01-11.51 11.51zm-86.43-23h74.92v-57.89a37.46 37.46 0 10-74.92 0z"/><path class="lineal-fill" d="M33.41 354.3h250.7a21.9 21.9 0 010 43.79H33.41a21.9 21.9 0 110-43.79z"/><path class="lineal-stroke" d="M284.11 409.6H33.41a33.41 33.41 0 110-66.81h250.7a33.41 33.41 0 010 66.81zm-250.7-43.79a10.39 10.39 0 100 20.77h250.7a10.39 10.39 0 000-20.77z"/></svg>