<svg xmlns="http://www.w3.org/2000/svg" viewBox="0 0 504.2 512"><path class="lineal-fill" d="M489.2 203.4H15L73.7 85.9h356.7zM209 355.9h86.1v141.2H209z"/><path class="lineal-stroke" d="M502.2 195.9L444.7 81V15c0-8.3-6.7-15-15-15h-70.4c-8.3 0-15 6.7-15 15v56H73.7c-5.7 0-10.8 3.2-13.4 8.3L1.6 196.7c-3.7 7.4-.6 16.4 6.8 20.1 2.1 1 4.3 1.6 6.6 1.6h33.6V497c0 8.3 6.7 15 15 15h377c8.3 0 15-6.7 15-15V275.3c0-8.3-6.7-15-15-15h-92.1c-8.3 0-15 6.7-15 15v104c0 8.3 6.7 15 15 15h77.1v87.8H310.1V355.9c0-8.3-6.7-15-15-15H209c-8.3 0-15 6.7-15 15v126.2H78.5v-87.8h77.1c8.3 0 15-6.7 15-15v-104c0-8.3-6.7-15-15-15H78.5v-42h410.8c8.3 0 15-6.8 14.9-15.1 0-2.5-.7-5.1-2-7.3zM363.5 364.4v-74.1h62.2v74.1h-62.2zM224 370.8h56.2V482H224V370.8zm-83.3-80.5v74.1H78.5v-74.1h62.2zM374.3 29.9h40.5V71h-40.5V29.9zM39.2 188.4L83 100.9h338.2l43.8 87.5H39.2z"/></svg>