<svg xmlns="http://www.w3.org/2000/svg" viewBox="0 0 506.19 512"><path class="lineal-stroke" d="M146.33 288.23v-46.51c18.56 3.25 21.36 13.54 21.78 19.59a2.93 2.93 0 002.94 2.75h20.27a3 3 0 003-3.14c-1.32-25.51-18.8-41.92-47.95-45.61v-15.64a3 3 0 00-3-2.95h-20.26a3 3 0 00-3 2.95v15.64c-30.32 3.84-48 21.45-48 48.75s17.7 44.91 48 48.75v46.51c-18.56-3.26-21.35-13.55-21.77-19.6a3 3 0 00-2.9-2.72H75.16a3 3 0 00-3 3.14C73.52 365.62 91 382 120.15 385.72v15.64a3 3 0 002.95 2.95h20.28a3 3 0 003-2.95v-15.64c30.33-3.83 48-21.45 48-48.75s-17.72-44.91-48.05-48.74zm-26.18-1.82C98.31 282.58 98.3 269 98.3 264.07s0-18.52 21.85-22.35zm26.18 72.91v-44.69c21.85 3.83 21.85 17.4 21.85 22.34s0 18.52-21.85 22.35z"/><path class="lineal-stroke" d="M407.05 512H15.86A15.86 15.86 0 010 496.14V160.78a15.86 15.86 0 0131.72 0v319.5h375.33a15.86 15.86 0 110 31.72z"/><path class="lineal-fill" d="M388.37 138.963l50.005-85.2 51.944 30.488-50.006 85.2z"/><path class="lineal-fill" d="M137.92 126.64h257.71l42.75-72.85 35 20.54a69.55 69.55 0 00-68.43-58.45H82.51a69.49 69.49 0 0169.29 69.29 68.86 68.86 0 01-13.88 41.47z"/><path class="lineal-stroke" d="M505.68 80.29a15.86 15.86 0 00-7.32-9.68l-10.93-6.42C477.91 27.12 443.75 0 404.94 0H86.11A86 86 0 000 86a15.86 15.86 0 0031.72 0A54.54 54.54 0 0181.6 31.7h.91a53.49 53.49 0 0153.43 53.43 52.81 52.81 0 01-10.7 32 15.85 15.85 0 0012.68 25.38h230L246.17 349.94a15.87 15.87 0 00-1.57 12.38l11.42 40a15.86 15.86 0 0015.24 11.51 16.29 16.29 0 003.65-.42l40.52-9.55a15.83 15.83 0 0010-7.41l65.72-112v135.62a15.86 15.86 0 0031.72 0V228.49a16.21 16.21 0 00-30-9.62l-91.32 155.71-19.18 4.51-5.37-18.94L394 160.7l38.26 22.46a15.87 15.87 0 0021.74-5.65l50-85.2a15.85 15.85 0 001.68-12.02zM148.76 31.74h256.18A52.94 52.94 0 01432 39.26l-.17.09a17.64 17.64 0 00-1.92 1l-.28.2a14.82 14.82 0 00-1.7 1.28l-.13.11a15.63 15.63 0 00-1.55 1.6l-.29.36a16.45 16.45 0 00-1.29 1.85l-38.16 65H163.72a85.15 85.15 0 00-15-79.05zm285.91 116l-24.58-14.43L444 75.5l24.58 14.43z"/></svg>