<svg xmlns="http://www.w3.org/2000/svg" viewBox="0 0 512 492.45"><path class="lineal-stroke" d="M80.52 492.45a15.19 15.19 0 01-15.19-15.19v-256a15.2 15.2 0 1130.39 0v256a15.2 15.2 0 01-15.2 15.19zm0-355.52a15.19 15.19 0 01-15.19-15.19V80.53a15.2 15.2 0 0130.39 0v41.21a15.2 15.2 0 01-15.2 15.19zM256 492.45a15.19 15.19 0 01-15.19-15.19v-94.19a15.19 15.19 0 1130.38 0v94.19A15.19 15.19 0 01256 492.45zm0-297.78a15.2 15.2 0 01-15.19-15.2V15.19a15.19 15.19 0 0130.38 0v164.29A15.19 15.19 0 01256 194.67zm175.48 297.78a15.2 15.2 0 01-15.2-15.19V263.79a15.2 15.2 0 0130.39 0v213.47a15.19 15.19 0 01-15.19 15.19zm0-350.96a15.2 15.2 0 01-15.2-15.19V15.19a15.2 15.2 0 0130.39 0V126.3a15.19 15.19 0 01-15.19 15.19z"/><circle class="lineal-fill" cx="80.52" cy="80.53" r="65.33"/><path class="lineal-stroke" d="M80.52 161.05a80.52 80.52 0 1180.53-80.52 80.61 80.61 0 01-80.53 80.52zm0-130.66a50.14 50.14 0 1050.14 50.14 50.19 50.19 0 00-50.14-50.14zM256 398.26a80.48 80.48 0 1170.54-41.66 15.19 15.19 0 11-26.6-14.68A50.15 50.15 0 10256 367.87a15.2 15.2 0 010 30.39z"/><circle class="lineal-fill" cx="431.48" cy="126.29" r="65.33"/><path class="lineal-stroke" d="M431.48 206.82A80.52 80.52 0 11512 126.3a80.62 80.62 0 01-80.52 80.52zm0-130.66a50.14 50.14 0 1050.13 50.14 50.19 50.19 0 00-50.13-50.14z"/></svg>