<svg xmlns="http://www.w3.org/2000/svg" viewBox="0 0 409.6 385.59"><path class="lineal-stroke" d="M110.5 268.3a12.36 12.36 0 01-6.72-2L5.71 203.25a12.43 12.43 0 010-20.91l98.07-63.08a12.43 12.43 0 0119.15 10.46v24.65h164.23a12.44 12.44 0 0112.43 12.44v52a12.43 12.43 0 01-12.43 12.43H122.93v24.66a12.42 12.42 0 01-12.43 12.4z"/><path class="lineal-fill" d="M35.41 192.8l62.66 40.29v-14.31a12.43 12.43 0 0112.43-12.43h164.23v-27.11H110.5a12.44 12.44 0 01-12.43-12.44v-14.3z"/><path class="lineal-stroke" d="M397.17 385.59h-289a12.44 12.44 0 01-12.47-12.43v-62.89a12.43 12.43 0 0124.86 0v50.46h264.18V24.86H120.56v50.46a12.43 12.43 0 01-24.86 0V12.43A12.44 12.44 0 01108.13 0h289a12.44 12.44 0 0112.47 12.43v360.73a12.42 12.42 0 01-12.43 12.43z"/></svg>