<svg xmlns="http://www.w3.org/2000/svg" viewBox="0 0 502.81 512"><path class="lineal-stroke" d="M462.11 512H193a14.6 14.6 0 010-29.2h269.1a11.52 11.52 0 0011.51-11.5V125.59a11.53 11.53 0 00-11.51-11.51H125.59a11.52 11.52 0 00-11.51 11.51 14.6 14.6 0 11-29.2 0 40.75 40.75 0 0140.71-40.71h336.52a40.74 40.74 0 0140.7 40.71V471.3a40.74 40.74 0 01-40.7 40.7z"/><path class="lineal-fill" d="M125.59 99.48h277.74V40.7a26.11 26.11 0 00-26.11-26.1H40.7a26.11 26.11 0 00-26.1 26.1v345.71a26.11 26.11 0 0026.1 26.11h58.78V125.59a26.11 26.11 0 0126.11-26.11z"/><path class="lineal-stroke" d="M99.48 427.12H40.7A40.75 40.75 0 010 386.41V40.7A40.75 40.75 0 0140.7 0h336.52a40.75 40.75 0 0140.71 40.7v58.78a14.6 14.6 0 01-14.6 14.6H125.59a11.53 11.53 0 00-11.51 11.51v286.93a14.6 14.6 0 01-14.6 14.6zM40.7 29.2a11.51 11.51 0 00-11.5 11.5v345.71a11.52 11.52 0 0011.5 11.51h44.18V125.59a40.75 40.75 0 0140.71-40.71h263.14V40.7a11.51 11.51 0 00-11.5-11.5zm165.51 371.47a14.61 14.61 0 01-10.33-24.93L373.63 198a14.6 14.6 0 1120.64 20.65L216.53 396.39a14.56 14.56 0 01-10.32 4.28z"/><path class="lineal-stroke" d="M386.35 303a14.6 14.6 0 01-14.46-16.76l11.57-77.47L306 220.39a14.6 14.6 0 11-4.31-28.88l97-14.49a14.59 14.59 0 0116.59 16.59l-14.48 97A14.6 14.6 0 01386.35 303zM186.88 420a14.6 14.6 0 01-14.44-16.76l14.49-97a14.6 14.6 0 0128.88 4.31L204.23 388l77.48-11.58a14.6 14.6 0 014.29 28.92l-97 14.49a14.28 14.28 0 01-2.12.17z"/></svg>