<svg xmlns="http://www.w3.org/2000/svg" viewBox="0 0 512 461.58"><path class="lineal-fill" d="M138.37 119.2h41.75a49.25 49.25 0 0149.25 49.25v72.79H76.89v-72.79a49.24 49.24 0 0149.24-49.25h41.76m179.44 0h41.76a49.25 49.25 0 0149.25 49.25v72.79H285.85v-72.79a49.25 49.25 0 0149.25-49.25h41.76"/><path class="lineal-stroke" d="M497.07 226.31h-43.8v-57.87a64.21 64.21 0 00-34.45-56.84 50 50 0 008.44-27.87V50.4a14.93 14.93 0 10-29.86 0v33.33a20.56 20.56 0 01-20.4 20.54h-29.84a20.56 20.56 0 01-20.37-20.54V50.4a20.57 20.57 0 0120.54-20.55h29.53a14.93 14.93 0 000-29.85h-29.53a50.45 50.45 0 00-50.39 50.4v33.33a50 50 0 008.43 27.87 64.23 64.23 0 00-34.45 56.84v57.87H244.3v-57.87a64.22 64.22 0 00-34.44-56.84 50.12 50.12 0 008.43-27.87V50.4a14.93 14.93 0 10-29.86 0v33.33a20.56 20.56 0 01-20.37 20.54h-29.87a20.57 20.57 0 01-20.37-20.54V50.4a20.57 20.57 0 0120.55-20.55h29.52a14.93 14.93 0 100-29.85h-29.52A50.46 50.46 0 0088 50.4v33.33a50.12 50.12 0 008.4 27.87A64.22 64.22 0 0062 168.45v57.87H15a14.93 14.93 0 100 29.85h28.28l56.61 194.65a14.92 14.92 0 0014.33 10.76h283.56a14.92 14.92 0 0014.33-10.76l37.26-128.1.07-.24c0-.14.06-.27.1-.41.08-.31.16-.62.22-.93s.08-.5.11-.75.07-.46.09-.69 0-.68 0-1v-.46c0-.37 0-.73-.06-1.1v-.41c0-.32-.09-.64-.14-.95s-.05-.36-.09-.54-.12-.46-.18-.69-.12-.5-.2-.74-.1-.27-.15-.4c-.11-.33-.22-.65-.36-1a1.76 1.76 0 01-.09-.2c-.17-.37-.34-.73-.54-1.09 0-.08-.09-.15-.14-.23-.19-.33-.38-.66-.6-1s-.29-.38-.43-.58-.27-.37-.41-.54-.52-.59-.79-.87l-.17-.18a12.21 12.21 0 00-.92-.84l-.14-.13c-.27-.22-.55-.42-.84-.63-.11-.07-.21-.16-.33-.24l-.68-.41-.59-.35-.51-.25c-.28-.13-.56-.27-.86-.39-.13-.06-.27-.1-.4-.15-.34-.13-.67-.25-1-.35h-.09l-.38-.1c-.32-.08-.64-.16-1-.22s-.49-.08-.73-.11-.47-.08-.71-.1-.67 0-1-.05H203.36a14.93 14.93 0 000 29.85h211.87l-28.66 98.53H125.43L74.37 256.17h422.7a14.93 14.93 0 000-29.86zm-405.26 0v-57.87a34.36 34.36 0 0134.32-34.32h12.07v53.56a14.93 14.93 0 0029.86 0v-53.55h12.07a34.36 34.36 0 0134.32 34.32v57.87zm209 0v-57.87a34.36 34.36 0 0134.32-34.32h12.07v53.56a14.93 14.93 0 0029.85 0v-53.55h12.07a34.36 34.36 0 0134.32 34.32v57.87z"/></svg>