<svg xmlns="http://www.w3.org/2000/svg" viewBox="0 0 409.59 409.6"><path class="lineal-stroke" d="M381.14 409.59h-122.9a28.48 28.48 0 01-28.45-28.45v-122.9a28.49 28.49 0 0128.45-28.45h73.33a12.42 12.42 0 110 24.84h-73.33a3.62 3.62 0 00-3.62 3.61v122.9a3.63 3.63 0 003.62 3.62h122.9a3.63 3.63 0 003.62-3.62v-61.45a12.42 12.42 0 1124.83 0v61.45a28.48 28.48 0 01-28.45 28.45z"/><path class="lineal-fill" d="M12.42 151.35V28.46a16 16 0 0116-16h122.93a16 16 0 0116 16v122.89a16 16 0 01-16 16H28.46a16 16 0 01-16-16z"/><path class="lineal-stroke" d="M151.35 179.81H28.46A28.5 28.5 0 010 151.35V28.46A28.5 28.5 0 0128.46 0h122.89a28.5 28.5 0 0128.46 28.46v122.89a28.5 28.5 0 01-28.46 28.46zM28.46 24.84a3.62 3.62 0 00-3.62 3.62v122.89a3.62 3.62 0 003.62 3.65h122.89a3.63 3.63 0 003.62-3.62V28.46a3.62 3.62 0 00-3.62-3.62z"/><path class="lineal-fill" d="M242.21 151.35V28.46a16 16 0 0116-16h122.9a16 16 0 0116 16v122.89a16 16 0 01-16 16H258.24a16 16 0 01-16-16z"/><path class="lineal-stroke" d="M381.14 179.81h-122.9a28.49 28.49 0 01-28.45-28.46V28.46A28.49 28.49 0 01258.24 0h122.9a28.49 28.49 0 0128.45 28.46v122.89a28.49 28.49 0 01-28.45 28.46zm-122.9-155a3.63 3.63 0 00-3.62 3.62v122.92a3.63 3.63 0 003.62 3.62h122.9a3.63 3.63 0 003.62-3.62V28.46a3.63 3.63 0 00-3.62-3.62z"/><path class="lineal-fill" d="M12.42 381.15v-122.9a16 16 0 0116-16h122.93a16 16 0 0116 16v122.9a16 16 0 01-16 16H28.46a16 16 0 01-16-16z"/><path class="lineal-stroke" d="M151.35 409.6H28.46A28.49 28.49 0 010 381.15v-122.9a28.5 28.5 0 0128.46-28.46h122.89a28.5 28.5 0 0128.46 28.46v122.9a28.49 28.49 0 01-28.46 28.45zm-122.89-155a3.62 3.62 0 00-3.62 3.62v122.9a3.62 3.62 0 003.62 3.61h122.89a3.62 3.62 0 003.62-3.61V258.25a3.62 3.62 0 00-3.62-3.62z"/></svg>