<svg xmlns="http://www.w3.org/2000/svg" viewBox="0 0 512 512"><path class="lineal-stroke" d="M457.26 512a13.88 13.88 0 01-9.83-4.07L322.92 383.42a13.9 13.9 0 0119.65-19.66l114.69 114.69 20-20-33.13-33.13a13.89 13.89 0 1119.65-19.65l43 43a13.89 13.89 0 010 19.65l-39.62 39.62a13.86 13.86 0 01-9.9 4.06z"/><path class="lineal-fill" d="M338.65 449.29l-33.46-144.1 144.1 33.46-110.64 110.64z"/><path class="lineal-stroke" d="M338.65 463.18a13.51 13.51 0 01-3.82-.54 13.86 13.86 0 01-9.72-10.21l-33.46-144.1a13.9 13.9 0 0116.68-16.68l144.1 33.46a13.89 13.89 0 016.68 23.36L348.48 459.11a13.93 13.93 0 01-9.83 4.07zm-14.89-139.41l22.76 98 75.24-75.24zM179.25 152.3a13.8 13.8 0 01-9.82-4.07L54.74 33.55l-20 20 33.17 33.1a13.89 13.89 0 01-19.65 19.65l-43-43a13.89 13.89 0 010-19.65L44.92 4.07a13.89 13.89 0 0119.65 0l124.51 124.51a13.9 13.9 0 01-9.83 23.72z"/><path class="lineal-fill" d="M173.35 62.71l33.46 144.1-144.1-33.46L173.35 62.71z"/><path class="lineal-stroke" d="M206.81 220.71a14 14 0 01-3.14-.36l-144.1-33.46a13.9 13.9 0 01-6.68-23.37L163.52 52.89a13.89 13.89 0 0123.36 6.68l33.26 143.21A13.89 13.89 0 01207 220.71zM90.24 165.48l98 22.75-22.75-98zM53.51 510.77a13.86 13.86 0 01-9.82-4.07L4.07 467.08a13.89 13.89 0 010-19.65l124.51-124.51a13.89 13.89 0 0119.65 19.65L33.55 457.26l20 20 33.14-33.14a13.9 13.9 0 1119.65 19.66l-43 43a13.86 13.86 0 01-9.83 3.99z"/><path class="lineal-fill" d="M62.71 338.65l144.1-33.46-33.46 144.1L62.71 338.65z"/><path class="lineal-stroke" d="M173.35 463.18a13.93 13.93 0 01-9.83-4.07L52.89 348.47a13.89 13.89 0 016.68-23.36l144.1-33.46a13.9 13.9 0 0116.68 16.68l-33.46 144.1a13.87 13.87 0 01-13.54 10.75zM90.24 346.52l75.24 75.24 22.75-98zm283.35-153.37a13.9 13.9 0 01-9.82-23.72L478.45 54.74l-20-20-33.1 33.17a13.89 13.89 0 11-19.65-19.65l43-43a13.89 13.89 0 0119.65 0l39.62 39.62a13.89 13.89 0 010 19.65L383.42 189.08a13.88 13.88 0 01-9.83 4.07z"/><path class="lineal-fill" d="M449.29 173.35l-144.1 33.46 33.46-144.1 110.64 110.64z"/><path class="lineal-stroke" d="M305.18 220.71a13.9 13.9 0 01-13.53-17l33.46-144.1a13.89 13.89 0 0123.36-6.68l110.64 110.59a13.9 13.9 0 01-6.68 23.36l-144.1 33.47a14 14 0 01-3.15.36zm41.34-130.47l-22.76 98 98-22.75z"/></svg>