<svg xmlns="http://www.w3.org/2000/svg" viewBox="0 0 409.6 284.94"><path class="lineal-fill" d="M314.73 101.82a84 84 0 11-84.05-84 84 84 0 0184.05 84.05z"/><path class="lineal-stroke" d="M230.69 196.51a94.69 94.69 0 1194.69-94.69 94.8 94.8 0 01-94.69 94.69zm0-168.1a73.41 73.41 0 1073.41 73.41 73.49 73.49 0 00-73.41-73.41z"/><path class="lineal-stroke" d="M330.4 284.94H30.19A30.21 30.21 0 010 254.76V111.5a30.22 30.22 0 0130.19-30.19h29.46a10.64 10.64 0 110 21.28H30.19a8.91 8.91 0 00-8.91 8.91v143.26a8.92 8.92 0 008.91 8.91H330.4a8.92 8.92 0 008.91-8.91v-18.13a10.64 10.64 0 1121.28 0v18.13a30.21 30.21 0 01-30.19 30.18z"/><path class="lineal-stroke" d="M379.41 203.64H79.19A30.22 30.22 0 0149 173.45V30.19A30.22 30.22 0 0179.19 0h300.22a30.22 30.22 0 0130.19 30.19v22.38a10.64 10.64 0 01-21.28 0V30.19a8.92 8.92 0 00-8.91-8.91H79.19a8.92 8.92 0 00-8.9 8.91v143.26a8.92 8.92 0 008.9 8.91h300.22a8.91 8.91 0 008.91-8.91V110a10.64 10.64 0 0121.28 0v63.42a30.22 30.22 0 01-30.19 30.19z"/><path class="lineal-fill" d="M99.8 193a84 84 0 00167.45 0z"/><path class="lineal-stroke" d="M183.52 280.55a94.66 94.66 0 01-94.33-86.66 10.66 10.66 0 0110.61-11.53h167.45a10.64 10.64 0 0110.6 11.53 94.66 94.66 0 01-94.33 86.66zm-71.2-76.91c8 32 37.32 55.64 71.2 55.64s63.18-23.66 71.21-55.64zm114.02-61.39c-13.9-.34-24.34-7.81-24.34-14.25 0-3.22 2.87-8 6.44-8 4.36 0 7.81 7.47 17.92 8.62v-22.91c-10.45-3.91-22.29-8.39-22.29-23.09s10.8-20.92 22.29-22.41V57c0-1.49 1.73-2.87 3.91-2.87 1.95 0 3.91 1.38 3.91 2.87v3c7.46.23 19.64 2.41 19.64 9.08 0 2.64-1.84 7.92-6.09 7.92-3.21 0-5.86-3.67-13.55-4.25V93c10.22 3.79 21.71 9 21.71 24.58 0 14.14-8.85 22.3-21.71 24.36v3.56c0 1.5-2 2.88-3.91 2.88-2.18 0-3.91-1.38-3.91-2.88zm.92-51.82V73.08c-5.74.92-9.19 3.68-9.19 8 0 5.06 3.91 7.24 9.19 9.31zm6 18v20c5-1 8.61-4 8.61-9.42 0-5.63-3.67-8.39-8.61-10.57z"/></svg>