<svg xmlns="http://www.w3.org/2000/svg" viewBox="0 0 401.13 512"><path class="lineal-stroke" d="M93.28 450.16a14 14 0 01-14-14V107.49A14 14 0 0189 94.15L382.89.66A14 14 0 01401.13 14v356.66a14 14 0 11-28 0V33.13l-265.85 84.59v318.45a14 14 0 01-14 13.99z"/><path class="lineal-fill" d="M93.28 107.49v111.62l293.85-93.49V13.99l-293.85 93.5z"/><path class="lineal-stroke" d="M93.28 233.1a14 14 0 01-14-14V107.49A14 14 0 0189 94.15L382.89.66A14 14 0 01401.13 14v111.62a14 14 0 01-9.76 13.38L97.53 232.44a13.76 13.76 0 01-4.25.66zm14-115.38V200l265.86-84.59V33.13zm42.44 323.15a14 14 0 01-14-14V262.23a14 14 0 0128 0v164.65a14 14 0 01-14 13.99zm180.97-124.4a14 14 0 01-14-14V192.26a14 14 0 0128 0v110.22a14 14 0 01-14 13.99z"/><circle class="lineal-fill" cx="81.86" cy="430.14" r="67.87"/><path class="lineal-stroke" d="M81.86 512a81.86 81.86 0 1181.86-81.86A81.95 81.95 0 0181.86 512zm0-135.73a53.87 53.87 0 1053.87 53.87 53.93 53.93 0 00-53.87-53.87zm237.41 75.56a81.86 81.86 0 110-163.71 83.43 83.43 0 0113.23 1.06 14 14 0 01-4.5 27.63A53.88 53.88 0 10373.14 370a14 14 0 1128 0 81.94 81.94 0 01-81.87 81.83z"/></svg>