<svg xmlns="http://www.w3.org/2000/svg" viewBox="0 0 324.02 512"><path class="lineal-fill" d="M14.31 241.68v197.49a58.52 58.52 0 0058.52 58.52h178.36a58.52 58.52 0 0058.52-58.52V241.68zM162 407.85a47.7 47.7 0 1147.7-47.7 47.7 47.7 0 01-47.7 47.7z"/><path class="lineal-stroke" d="M251.19 512H72.83A72.91 72.91 0 010 439.17V241.68a14.31 14.31 0 0114.31-14.3h295.4a14.31 14.31 0 0114.29 14.3v197.49A72.91 72.91 0 01251.19 512zM28.62 256v183.17a44.26 44.26 0 0044.21 44.21h178.36a44.26 44.26 0 0044.21-44.21V256zM162 422.16a62 62 0 1162-62 62.08 62.08 0 01-62 62zm0-95.4a33.39 33.39 0 1033.39 33.39A33.44 33.44 0 00162 326.76z"/><path class="lineal-stroke" d="M68.56 234.54H20.38a14.31 14.31 0 010-28.62h48.18a14.31 14.31 0 010 28.62zm235.08 0h-48.18a14.31 14.31 0 010-28.62h48.18a14.31 14.31 0 010 28.62z"/><path class="lineal-stroke" d="M45.14 256a14.3 14.3 0 01-14.31-14.31V124a124.16 124.16 0 01124-124h14.32a124.17 124.17 0 01124 124v101.16a14.31 14.31 0 11-28.62 0V124a95.51 95.51 0 00-95.4-95.4h-14.28A95.51 95.51 0 0059.44 124v117.68A14.3 14.3 0 0145.14 256z"/></svg>