<svg xmlns="http://www.w3.org/2000/svg" viewBox="0 0 337.8 409.6"><path class="lineal-fill" d="M239.8 157h-185c-23.8 0-43.1-19.3-43.1-43.1V54.8C11.7 31 31 11.7 54.8 11.7h185c23.8 0 43.1 19.3 43.2 43.1v59.1c-.1 23.8-19.4 43.1-43.2 43.1z"/><path class="lineal-stroke" d="M239.8 168.6h-185C24.5 168.6 0 144.1 0 113.8v-59C0 24.5 24.5 0 54.8 0h185c30.2 0 54.7 24.5 54.8 54.8v59.1c-.1 30.2-24.6 54.7-54.8 54.7zM54.8 23.2c-17.4 0-31.5 14.1-31.5 31.5v59.1c0 17.4 14.1 31.5 31.5 31.5h185c17.4 0 31.5-14.1 31.5-31.5v-59c0-17.4-14.1-31.5-31.5-31.5l-185-.1z"/><path class="lineal-stroke" d="M147.3 302.7c-6.4 0-11.6-5.2-11.6-11.6v-47.5c0-21.7 17.6-39.2 39.3-39.3h123.6c8.8 0 16-7.2 16-16V112c0-8.8-7.2-16-16-16h-14.2c-6.4 0-11.6-5.2-11.6-11.6 0-6.4 5.2-11.6 11.6-11.6h14.2c21.7 0 39.2 17.6 39.3 39.2v76.4c0 21.7-17.6 39.2-39.3 39.2H174.9c-8.8 0-16 7.2-16 16v47.5c0 6.4-5.2 11.6-11.6 11.6z"/><path class="lineal-stroke" d="M160.6 409.6h-26.7c-16.3 0-29.6-13.3-29.6-29.6v-17.6c0-6.4 5.2-11.6 11.6-11.6 6.4 0 11.6 5.2 11.6 11.6V380c0 3.5 2.9 6.4 6.4 6.4h26.7c3.5 0 6.4-2.9 6.4-6.4v-68.6c0-3.5-2.9-6.4-6.4-6.4h-26.7c-3.5 0-6.4 2.9-6.4 6.4v2.9c0 6.4-5.2 11.6-11.6 11.6-6.4 0-11.6-5.2-11.6-11.6v-2.9c0-16.4 13.3-29.6 29.6-29.6h26.7c16.3 0 29.6 13.3 29.6 29.6V380c0 16.3-13.2 29.6-29.6 29.6z"/></svg>