<svg xmlns="http://www.w3.org/2000/svg" viewBox="0 0 512 512"><path class="lineal-stroke" d="M289 512c-5.3 0-10.3-2.8-13-7.4l-54.4-91.2c-4.3-7.2-1.9-16.5 5.3-20.7s16.5-1.9 20.7 5.3l39.3 65.9 181-419.8L48.2 225.2l146.1 87.2c7.2 4.3 9.5 13.6 5.3 20.7-4.3 7.2-13.6 9.5-20.7 5.3L7.4 236c-7.2-4.3-9.5-13.5-5.2-20.7 1.6-2.7 4.1-4.9 7-6.1l481.7-208c7.7-3.3 16.6.2 19.9 7.9 1.6 3.8 1.6 8.2 0 12L302.9 502.9c-2.2 5.2-7.2 8.7-12.9 9.1h-1z"/><path class="lineal-fill" d="M496.9 15.1L15.1 223l171.5 102.4z"/><path class="lineal-stroke" d="M186.6 340.5c-2.7 0-5.4-.7-7.7-2.1L7.4 236c-7.2-4.3-9.5-13.5-5.2-20.7 1.6-2.7 4.1-4.9 7-6.1l481.7-208c7.7-3.3 16.6.2 19.9 7.9 2.5 5.7 1.2 12.3-3.2 16.7L197.3 336.1c-2.8 2.8-6.7 4.4-10.7 4.4zM48.2 225.2l136 81.2L430.4 60.3 48.2 225.2z"/></svg>