<svg xmlns="http://www.w3.org/2000/svg" viewBox="0 0 404.41 409.6"><path class="lineal-stroke" d="M253.06 409.6h-221A32.1 32.1 0 010 377.53V32.07A32.11 32.11 0 0132.07 0h267.66a32.11 32.11 0 0132.07 32.07v61.65h-24.1V32.07a8 8 0 00-8-8H32.07a8 8 0 00-8 8v345.46a8 8 0 008 8h211l64.62-64.61V190.07h24.1v140.8z"/><path class="lineal-stroke" d="M67.06 96.38h104.86v24.1H67.06zm0 96.37h104.86v24.09H67.06zm0 96.38h104.86v24.09H67.06z"/><path class="lineal-fill" d="M179.38 238.5l-22.78 55.07c-3.37 8.18 3.69 15.24 11.86 11.86l55.07-22.77c3.08-1.28 4.25-5.17 2.18-7.24l-39.1-39.1c-2.07-2.07-6-.9-7.23 2.18z"/><path class="lineal-stroke" d="M164.31 318.34a20.57 20.57 0 01-17.15-9 21.64 21.64 0 01-1.69-20.34l22.77-55.07a17.29 17.29 0 0115.76-10.7 15.62 15.62 0 0111.13 4.58l39.1 39.09a15.85 15.85 0 014.25 14.35 17.2 17.2 0 01-10.35 12.54l-55.07 22.77a22.81 22.81 0 01-8.75 1.78zm22.06-65.22l-15.89 38.44 38.44-15.9z"/><path class="lineal-fill" d="M226.91 279.65L361.53 145l-22.26-22.26L317 100.5 182.39 235.13c-.12.11 44.4 44.64 44.52 44.52z"/><path class="lineal-stroke" d="M231.85 291.74h-5c-4.91-.05-7.41-2.51-10.31-5.36-1.24-1.21-3-2.95-5.1-5-4.19-4.14-9.74-9.68-15.29-15.23-23.83-23.83-23.83-23.83-24.87-26.37l-3-7.42L317 83.46 378.57 145zm-32.5-56.54c7.83 7.87 19.61 19.65 27.49 27.48L344.49 145 317 117.54z"/><path class="lineal-fill" d="M361.56 145l26.73-26.73a13.91 13.91 0 000-19.68l-24.83-24.85a13.92 13.92 0 00-19.69 0L317 100.47S361.52 145 361.56 145z"/><path class="lineal-stroke" d="M366.26 157.33l-5.4-.31c-4.57-.27-6.84-2.53-9.72-5.39l-5.07-5-15.3-15.28c-5.56-5.56-11.12-11.12-15.29-15.31-8.77-8.78-8.77-8.78-9.7-11.24L303 97.47l32.24-32.25a26 26 0 0136.72 0l24.84 24.84a26 26 0 010 36.72zm-32.21-56.83c7.87 7.88 19.6 19.61 27.48 27.48l18.24-18.24a1.81 1.81 0 00.55-1.32 1.84 1.84 0 00-.55-1.33l-24.83-24.83a1.88 1.88 0 00-1.33-.55 1.81 1.81 0 00-1.32.55z"/></svg>