<svg xmlns="http://www.w3.org/2000/svg" viewBox="0 0 409.6 391.6"><path class="lineal-fill" d="M100.3 69.1V34.9c0-12.9 10.4-23.3 23.3-23.3H286c12.9 0 23.3 10.4 23.3 23.3v34.2"/><path class="lineal-stroke" d="M309.2 80.8c-6.4 0-11.6-5.2-11.6-11.6V34.9c0-6.4-5.2-11.6-11.6-11.6H123.7c-6.4 0-11.6 5.2-11.7 11.6v34.2c.2 6.4-4.9 11.8-11.3 12s-11.8-4.9-12-11.3V34.9c0-19.2 15.7-34.9 35-34.9H286c19.3 0 34.9 15.7 34.9 34.9v34.2c0 6.4-5.2 11.7-11.7 11.7.1 0 .1 0 0 0z"/><path class="lineal-stroke" d="M351.4 391.6H58.2c-32.1 0-58.2-26-58.2-58.1v-217c0-32.1 26-58.2 58.2-58.2h293.3c32.1 0 58.1 26.1 58.2 58.2v217c-.1 32.1-26.2 58.1-58.3 58.1zM58.2 81.5c-19.2 0-34.8 15.6-34.9 34.9v217c0 19.2 15.6 34.8 34.9 34.9h293.3c19.2 0 34.8-15.6 34.9-34.9v-217c0-19.2-15.6-34.8-34.9-34.9H58.2z"/><path class="lineal-fill" d="M304.6 231.8c0 55.1-44.7 99.8-99.8 99.8S105 286.9 105 231.8c0-55.1 44.7-99.8 99.8-99.8 55.1 0 99.8 44.7 99.8 99.8z"/><path class="lineal-stroke" d="M204.8 343.2c-61.5 0-111.4-49.9-111.4-111.4 0-61.5 49.9-111.4 111.4-111.4 61.5 0 111.4 49.9 111.4 111.4 0 61.5-49.9 111.4-111.4 111.4zm0-199.5c-48.7 0-88.1 39.5-88.1 88.1s39.5 88.1 88.1 88.1 88.1-39.5 88.1-88.1c0-48.7-39.4-88.1-88.1-88.1z"/><path class="lineal-stroke" d="M204.8 286.5c-30.2 0-54.8-24.5-54.8-54.8s24.5-54.8 54.8-54.8c6.4 0 11.7 5.2 11.7 11.6 0 6.4-5.2 11.7-11.7 11.7-17.4 0-31.5 14.1-31.5 31.4s14.1 31.5 31.4 31.5 31.5-14.1 31.5-31.4c0-6.4 5.2-11.6 11.7-11.6 6.4 0 11.6 5.2 11.6 11.6 0 30.3-24.5 54.8-54.7 54.8zm139.8-158.4H298c-6.4.2-11.8-4.9-12-11.3-.2-6.4 4.9-11.8 11.3-12h47.3c6.4-.2 11.8 4.9 12 11.3.2 6.4-4.9 11.8-11.3 12h-.7z"/></svg>