<svg xmlns="http://www.w3.org/2000/svg" viewBox="0 0 512 412.3"><circle class="lineal-fill" cx="316.6" cy="102.2" r="51.5"/><path class="lineal-stroke" d="M316.6 167.9c-36.3 0-65.7-29.4-65.7-65.7s29.4-65.7 65.7-65.7 65.7 29.4 65.7 65.7c0 36.3-29.4 65.7-65.7 65.7zm0-102.9c-20.6 0-37.2 16.7-37.2 37.2s16.7 37.2 37.2 37.2 37.2-16.7 37.2-37.2c0-20.5-16.6-37.2-37.2-37.2z"/><path class="lineal-fill" d="M319 397.1L192.9 164.3 38.3 397.1z"/><path class="lineal-stroke" d="M319 411.3H38.3c-7.9 0-14.2-6.4-14.2-14.2 0-2.8.8-5.5 2.4-7.9L181 156.4c4.3-6.5 13.2-8.3 19.7-4 1.9 1.3 3.5 3 4.6 5.1l126.2 232.8c3.7 6.9 1.2 15.5-5.7 19.3-2.1 1.1-4.4 1.7-6.8 1.7zM64.8 382.9h230.3l-103.5-191-126.8 191z"/><path class="lineal-fill" d="M473.7 397.1L347.6 243 221.4 397.1z"/><path class="lineal-stroke" d="M473.7 411.3H221.4c-7.9 0-14.2-6.4-14.2-14.2 0-3.3 1.1-6.5 3.2-9L336.6 234c5-6.1 13.9-7 20-2 .7.6 1.4 1.3 2 2l126.2 154.1c5 6.1 4.1 15-2 20-2.6 2.1-5.8 3.2-9.1 3.2zm-222.2-28.4h192.2l-96.1-117.4-96.1 117.4z"/><path class="lineal-stroke" d="M472.8 412.3H39.2C17.6 412.2 0 394.7 0 373.1V39.2C0 17.6 17.6 0 39.2 0h433.6C494.4 0 512 17.6 512 39.2v333.9c0 21.6-17.6 39.1-39.2 39.2zM39.2 28.5c-5.9 0-10.7 4.8-10.8 10.8v333.9c0 5.9 4.8 10.7 10.8 10.7h433.6c5.9 0 10.7-4.8 10.8-10.7v-334c0-5.9-4.8-10.7-10.8-10.8H39.2z"/><path class="lineal-stroke" d="M123.7 87.6H14.2c-7.9.2-14.4-6-14.6-13.8s6-14.4 13.8-14.6h110.3c7.9-.2 14.4 6 14.6 13.8.2 7.9-6 14.4-13.8 14.6h-.8zm-27 57.8H14.2C6.3 145.4 0 139 0 131.2c0-7.9 6.4-14.2 14.2-14.2h82.4c7.9 0 14.2 6.4 14.2 14.2.1 7.9-6.3 14.2-14.1 14.2z"/></svg>