<svg xmlns="http://www.w3.org/2000/svg" viewBox="0 0 382.7 512"><circle class="lineal-fill" cx="191.4" cy="192" r="106.2"/><path class="lineal-stroke" d="M191.4 312.6c-66.6 0-120.6-54-120.6-120.6s54-120.6 120.6-120.6S312 125.4 312 192c-.1 66.6-54.1 120.5-120.6 120.6zm0-212.5c-50.7 0-91.9 41.1-91.9 91.9s41.1 91.9 91.9 91.9c50.7 0 91.9-41.1 91.9-91.9-.1-50.7-41.2-91.8-91.9-91.9z"/><path class="lineal-stroke" d="M191.4 512c-3.6 0-7.1-1.3-9.7-3.8-1.8-1.7-45.7-42.2-90.2-101.2C30.8 326.7 0 254.1 0 191.4c-.1-29.6 6.8-58.9 20-85.4 3.4-7.2 11.9-10.3 19.1-6.9S49.4 111 46 118.2l-.3.6c-11.3 22.5-17.1 47.4-17 72.5 0 116.8 126.3 250.3 162.7 286.4 11-10.9 30.3-30.6 51.6-56 5.1-6.1 14.2-6.9 20.2-1.8s6.9 14.2 1.8 20.2c-34.3 40.8-62.7 66.9-63.9 68-2.7 2.5-6.2 3.9-9.7 3.9zm110.1-129.4c-7.9 0-14.4-6.4-14.3-14.4 0-2.9.9-5.6 2.4-8C332.3 296.9 354 240 354 191.3c0-89.7-73-162.6-162.6-162.6-34.6-.1-68.3 10.9-96.2 31.5-6.4 4.7-15.4 3.3-20.1-3.1S71.8 41.7 78.2 37C111 12.9 150.6-.1 191.4 0c105.5 0 191.4 85.8 191.4 191.4 0 54.5-23.3 116.8-69.2 184.9-2.8 3.9-7.3 6.3-12.1 6.3z"/><path class="lineal-stroke" d="M183.6 235.1c-3.8 0-7.5-1.5-10.1-4.2L134.6 192c-5.6-5.6-5.6-14.7 0-20.3s14.7-5.6 20.3 0l28.8 28.8 44.4-44.4c5.7-5.5 14.8-5.4 20.3.4 5.4 5.6 5.4 14.4 0 19.9l-54.5 54.5c-2.9 2.6-6.5 4.2-10.3 4.2z"/></svg>