<svg xmlns="http://www.w3.org/2000/svg" viewBox="0 0 409.6 404.3"><path class="lineal-fill" d="M378.8 88.8h-55.1v75.8c0 10.5-8.5 18.9-19 18.9h-200c-10.5 0-19-8.5-19-18.9V88.8h-55c-10.5 0-18.9 8.5-19 18.9v186c0 10.5 8.5 18.9 18.9 19h348.1c10.5 0 18.9-8.5 19-19V107.8c.1-10.5-8.4-19-18.9-19z"/><path class="lineal-stroke" d="M409.6 226V107.8c0-17-13.8-30.8-30.8-30.8h-43.2V30.8c0-17-13.8-30.8-30.8-30.8H149.2c-8.2 0-16 3.2-21.8 9L83 53.6c-5.8 5.8-9 13.6-9 21.7V77H30.8C13.8 77 0 90.8 0 107.8v185.9c0 17 13.8 30.8 30.8 30.8h281.1v49c0 3.9-3.2 7.1-7.1 7.1h-200c-3.9 0-7.1-3.2-7.1-7.1v-13.9c0-6.5-5.3-11.8-11.8-11.8-6.5 0-11.8 5.3-11.8 11.8v13.9c0 17 13.8 30.8 30.8 30.8h200c17 0 30.8-13.8 30.8-30.8v-49h43.2c17 0 30.8-13.8 30.8-30.8v-67.5c-.1-.1-.1-.2-.1-.2zM97.7 75.3c0-1.9.7-3.7 2.1-5l44.4-44.5c1.3-1.3 3.1-2.1 5-2.1h155.6c3.9 0 7.1 3.2 7.1 7.1v133.8c0 3.9-3.2 7.1-7.1 7.1h-200c-3.9 0-7.1-3.2-7.1-7.1V75.3zm281.1 225.5h-348c-3.9 0-7.1-3.2-7.1-7.1v-55.9h50.2c6.5 0 11.8-5.3 11.8-11.8 0-6.5-5.3-11.8-11.8-11.8H23.7V107.8c0-3.9 3.2-7.1 7.1-7.1H74v64c0 17 13.8 30.8 30.8 30.8h200c17 0 30.8-13.8 30.8-30.8v-64h43.2c3.9 0 7.1 3.2 7.1 7.1v106.4h-50.2c-6.5 0-11.8 5.3-11.8 11.8 0 6.5 5.3 11.8 11.8 11.8h50.2v55.9c0 3.9-3.2 7.1-7.1 7.1z"/></svg>