<svg xmlns="http://www.w3.org/2000/svg" viewBox="0 0 512 465.5"><path class="lineal-stroke" d="M156.8 465.5c-9.9 0-24.2-4.8-56.2-40.6-16.2-18.2-29.5-36-30.1-36.8-.4-.5-.7-1-1-1.6-6.1-11-9.3-23.3-9.3-35.8v-90.9c0-7.9 6.4-14.4 14.3-14.4h116c16.5 0 32.4 6.5 44.2 18.1l59.4 58.5c17.2 17.2 17.3 45.1.1 62.3s-45.1 17.3-62.3.1L172.7 325c-5.9 0-15.5-.1-23.1-.1l-10.8-.1c-7.9 0-14.3-6.5-14.3-14.4s6.5-14.3 14.4-14.3h.1l10.8.1c6.8 0 14.1.1 19.6.1h6.9c4.2 0 8.5.1 12.7 4.3l63.5 63.5c6 6 15.7 6 21.7 0s6-15.7 0-21.7L214.6 284c-6.4-6.3-15-9.9-24-9.8H88.9v76.5c0 7.4 1.8 14.6 5.2 21.1 2.6 3.5 13.6 17.9 26.5 32.4 25.5 28.8 35.2 32.2 36.5 32.6h155.1c10.6 0 22.9-5.5 34.6-11.2 9.9-4.8 83.3-54.6 127.3-84.9l.7-.5c8.2-5.1 10.7-15.8 5.6-23.9-4.9-7.9-15.2-10.5-23.3-6L350 381.4c-6.6 4.4-15.5 2.6-19.9-4-4.4-6.6-2.6-15.5 4-19.9l107.5-71.3c.2-.1.3-.2.5-.3 21.8-13.1 50.1-6 63.2 15.8 12.9 21.6 6.2 49.6-15.2 62.8-13.3 9.2-115.8 79.6-130.8 86.9-14.7 7.1-30.5 14.1-47.1 14.1H156.8z"/><path class="lineal-fill" d="M14.4 242.2h84.2v189.6H14.4z"/><path class="lineal-stroke" d="M98.5 446.1H14.4c-7.9 0-14.4-6.4-14.4-14.4V242.2c0-7.9 6.4-14.4 14.3-14.4h84.1c7.9 0 14.3 6.4 14.3 14.4v189.6c.1 7.9-6.3 14.3-14.2 14.3zm-69.8-28.7h55.4V256.5H28.7v160.9zM273 214.2c-59.2 0-107.1-48-107.1-107.1C165.9 47.9 213.9 0 273.1 0c59.1 0 107.1 48 107.1 107.1-.1 59.1-48.1 107.1-107.2 107.1zm0-185.5c-43.3 0-78.4 35.1-78.4 78.4s35.1 78.4 78.4 78.4c43.3 0 78.4-35.1 78.4-78.4-.1-43.3-35.1-78.3-78.4-78.4z"/><circle class="lineal-fill" cx="348.9" cy="178.6" r="92.8"/><path class="lineal-stroke" d="M348.9 285.7c-59.1 0-107.1-47.9-107.1-107.1 0-59.1 47.9-107.1 107.1-107.1S456 119.4 456 178.6c-.1 59.1-48 107-107.1 107.1zm0-185.5c-43.3 0-78.4 35.1-78.4 78.4S305.7 257 349 257s78.4-35.1 78.4-78.4c-.1-43.3-35.2-78.4-78.5-78.4z"/><path class="lineal-stroke" d="M345.4 224.9c-15.5-.5-28.2-8.5-28.2-16.8 0-4.4 3.9-10.9 8.8-10.9 5.4 0 9.8 7.6 19.4 9.3v-20.9c-11.9-4.5-25.9-10.1-25.9-26.6s12.1-24.3 25.9-26.2v-3.6c0-1.8 2.1-3.5 4.9-3.5 2.5 0 4.9 1.7 4.9 3.5v3.2c8 .3 23.1 2.3 23.1 11.2 0 3.5-2.3 10.6-8 10.6-4.3 0-6.7-4.1-15.1-4.8v18.9c11.8 4.4 25.5 10.5 25.5 27.9 0 16-10.4 25.7-25.5 28.2v3.8c0 1.8-2.5 3.5-4.9 3.5-2.9 0-4.9-1.7-4.9-3.5v-3.3zm1.3-59.7v-15.4c-5.8 1.2-8.3 4.1-8.3 7.2 0 3.8 3.4 6.1 8.3 8.2zm7.2 23.9v17.3c4.4-1 7.9-3.5 7.9-8.1 0-4.3-3.2-7-7.9-9.2z"/></svg>