<svg xmlns="http://www.w3.org/2000/svg" viewBox="0 0 506.5 512"><path class="lineal-fill" d="M301.5 430.3h124.7V81.7h-346v348.6H215m4.3 0H100.7l96.1-171 104.7 171m17.4-186.4c-24.7 0-44.7-20-44.7-44.7s20-44.7 44.7-44.7c24.7 0 44.7 20 44.7 44.7 0 24.7-20 44.7-44.7 44.7z"/><path class="lineal-stroke" d="M301.5 445.2c-.5 0-.9 0-1.4-.1-4.3-.4-8.3-2.7-10.8-6.2-.2-.3-.5-.7-.7-1.1l-91.3-149.1-71.2 126.6h93.1c8.2 0 14.9 6.7 14.9 14.9s-6.7 14.9-14.9 14.9H80.3c-8.2 0-14.9-6.7-14.9-14.9V81.7c0-8.2 6.7-14.9 14.9-14.9h346c8.2 0 14.9 6.7 14.9 14.9v348.6c0 8.2-6.7 14.9-14.9 14.9H301.5zm8.4-29.8h101.5V96.6H95.2v313.1L183.9 252c4-7.2 13.1-9.7 20.3-5.7 2.2 1.2 4.1 3 5.4 5.2l100.3 163.9zm9-156.6c-32.9 0-59.6-26.7-59.7-59.6 0-32.9 26.7-59.7 59.6-59.7s59.7 26.7 59.7 59.6c0 33-26.7 59.7-59.6 59.7zm0-89.4c-16.5 0-29.8 13.4-29.8 29.8s13.4 29.8 29.8 29.8c16.5 0 29.8-13.4 29.8-29.8 0-16.5-13.4-29.8-29.8-29.8zm172.7-69c-8.2 0-14.9-6.7-14.9-14.9V29.8H421c-8.2-.2-14.7-7.1-14.5-15.3C406.7 6.6 413.1.2 421 0h70.6c8.2 0 14.9 6.7 14.9 14.9v70.6c0 8.2-6.7 14.9-14.9 14.9zm-476.7 0C6.7 100.4 0 93.7 0 85.5V14.9C0 6.7 6.7 0 14.9 0h70.6c8.2.2 14.7 7.1 14.5 15.3-.2 7.9-6.6 14.3-14.5 14.5H29.8v55.7c0 8.2-6.7 14.9-14.9 14.9zM85.5 512H14.9C6.7 512 0 505.3 0 497.1v-70.6c.2-8.2 7.1-14.7 15.3-14.5 7.9.2 14.3 6.6 14.5 14.5v55.7h55.7c8.2.2 14.7 7.1 14.5 15.3-.2 7.9-6.6 14.3-14.5 14.5zm406.1 0H421c-8.2-.2-14.7-7.1-14.5-15.3.2-7.9 6.6-14.3 14.5-14.5h55.7v-55.7c0-8.2 6.7-14.9 14.9-14.9s14.9 6.7 14.9 14.9v70.6c0 8.2-6.7 14.9-14.9 14.9z"/></svg>