<svg xmlns="http://www.w3.org/2000/svg" viewBox="0 0 388.2 512"><path class="lineal-fill" d="M63.13 413.96h216.63v83.52H63.13z"/><path class="lineal-stroke" d="M279.75 512H63.13a14.52 14.52 0 01-14.52-14.52V414a14.52 14.52 0 0114.52-14.52h216.62A14.52 14.52 0 01294.27 414v83.51A14.52 14.52 0 01279.75 512zM77.64 483h187.59v-54.52H77.64zM52.8 364.76A14.53 14.53 0 0139 354.64L2.13 239a44.84 44.84 0 0185.43-27.3L102 256.59a14.52 14.52 0 11-27.64 8.88l-14.45-44.92a15.81 15.81 0 10-30.12 9.61l36.84 115.67a14.51 14.51 0 01-9.42 18.24 14.7 14.7 0 01-4.41.69zM267 168.7h-43V44.84a44.84 44.84 0 00-88-12.22A44.83 44.83 0 0073.65 73.9v80.67a14.52 14.52 0 1029 0V73.9a15.81 15.81 0 0131.62 0v112.63a14.52 14.52 0 0029 0V44.84a15.81 15.81 0 0131.62 0v138.38a14.52 14.52 0 0014.51 14.52H267a16.6 16.6 0 0116.59 16.58v135.91a14.52 14.52 0 1029 0V214.32A45.67 45.67 0 00267 168.7zm45.19-81.77a14.52 14.52 0 01-12.07-22.57l30.74-46.14a14.51 14.51 0 0112.08-6.47A14.52 14.52 0 01355 18.22l30.73 46.14a14.52 14.52 0 11-24.16 16.1l-18.65-28-18.66 28a14.51 14.51 0 01-12.07 6.47zm30.75 103.29a14.5 14.5 0 01-12.08-6.46l-30.74-46.14a14.52 14.52 0 0124.17-16.1l18.65 28 18.66-28a14.52 14.52 0 0124.16 16.1L355 183.76a14.51 14.51 0 01-12.06 6.46z"/></svg>