<svg xmlns="http://www.w3.org/2000/svg" viewBox="0 0 512 494.1"><path class="lineal-stroke" d="M175.6 494.1h-55.2c-7.2 0-13.3-5.2-14.4-12.3l-3.5-22c-12.3-4.8-23.8-11.4-34.1-19.7l-20.9 8c-6.7 2.6-14.3-.1-17.9-6.4L2 393.9c-3.6-6.2-2.2-14.1 3.4-18.7l17.3-14.1c-2-13-2-26.3 0-39.4l-17.3-14c-5.6-4.5-7-12.5-3.4-18.7l27.6-47.8c3.6-6.2 11.2-8.9 17.9-6.4l20.9 8c10.3-8.3 21.8-14.9 34.1-19.7l3.5-22c1.1-7.1 7.3-12.3 14.4-12.3h55.2c7.1 0 13.2 5.2 14.4 12.3l5 30.7c1.2 8-4.4 15.4-12.4 16.6-7.8 1.1-15.2-4.2-16.5-12l-3-18.4h-30.3l-2.9 18.4c-.9 5.5-4.8 10.1-10.2 11.7-14.3 4.4-27.5 12-38.4 22.2-4.1 3.8-10 5-15.2 3l-17.4-6.6-15.1 26.2L48 304.5c4.3 3.5 6.3 9.2 5 14.7a97.91 97.91 0 000 44.4c1.3 5.4-.7 11.1-5 14.7L33.5 390l15.1 26.2 17.4-6.6c5.2-2 11.1-.8 15.2 3 10.9 10.3 24.1 17.9 38.4 22.2 5.4 1.6 9.3 6.2 10.2 11.7l2.9 18.4H163l2.9-18.4c.9-5.5 4.8-10.1 10.2-11.7 14.3-4.4 27.5-12 38.4-22.2 4.1-3.8 10-5 15.2-3l17.4 6.6 15.1-26.2-14.2-11.7c-4.3-3.5-6.3-9.2-5-14.7 3.4-14.6 3.4-29.8 0-44.4-1.8-7.9 3.1-15.7 10.9-17.6 7.9-1.8 15.7 3.1 17.6 10.9 3.7 15.9 4.3 32.4 1.8 48.5l17.3 14.1c5.6 4.5 7 12.4 3.4 18.7l-27.6 47.8c-3.6 6.2-11.2 8.9-17.9 6.3l-20.9-8c-10.3 8.3-21.8 14.9-34.1 19.7l-3.5 22c-1.1 7.2-7.2 12.5-14.4 12.5z"/><circle class="lineal-fill" cx="148" cy="341.4" r="43.2"/><path class="lineal-stroke" d="M148 399.2c-31.9 0-57.8-25.9-57.8-57.8s25.9-57.8 57.8-57.8 57.8 25.9 57.8 57.8-25.9 57.8-57.8 57.8zm0-86.3c-15.8 0-28.5 12.8-28.5 28.5 0 15.8 12.8 28.5 28.5 28.5 15.8 0 28.5-12.8 28.5-28.5s-12.7-28.5-28.5-28.5z"/><path class="lineal-fill" d="M476.2 152.7c0-8.6-1-17.2-2.9-25.5l24.1-19.6-27.6-47.8-29 11.1c-12.6-11.8-27.7-20.5-44.2-25.5l-4.9-30.7h-55.3l-4.9 30.7c-16.5 5-31.6 13.7-44.2 25.5l-29-11.1-27.6 47.8 24.1 19.6c-3.9 16.8-3.9 34.2 0 51l-24.1 19.6 27.6 47.8 29-11.1c12.6 11.8 27.7 20.5 44.2 25.5l4.9 30.7h55.2l4.9-30.7c16.5-5 31.6-13.7 44.2-25.5l29 11.1 27.6-47.8-24.1-19.5c2-8.5 3-17 3-25.6zM364 195.8c-23.8 0-43.2-19.3-43.2-43.1s19.3-43.2 43.1-43.2 43.2 19.3 43.2 43.1c0 23.9-19.3 43.2-43.1 43.2z"/><path class="lineal-stroke" d="M391.6 305.4h-55.2c-7.2 0-13.3-5.3-14.4-12.4l-3.5-22c-12.3-4.8-23.8-11.4-34.1-19.7l-20.9 8c-6.7 2.6-14.3-.1-17.9-6.4L218 205.1c-3.6-6.2-2.1-14.1 3.4-18.7l17.3-14.1c-2-13.1-2-26.3 0-39.4l-17.3-14.1c-5.6-4.5-7-12.4-3.4-18.7l27.6-47.8c3.6-6.2 11.2-8.9 17.9-6.3l20.9 8c10.3-8.3 21.8-14.9 34.1-19.7l3.5-22c1.1-7 7.2-12.3 14.4-12.3h55.2c7.2 0 13.3 5.2 14.4 12.3l3.5 22c12.3 4.8 23.8 11.4 34.1 19.7l20.9-8c6.7-2.6 14.3.1 17.9 6.3l27.6 47.9c3.6 6.2 2.1 14.1-3.4 18.7L489.3 133c2 13.1 2 26.3 0 39.4l17.3 14.1c5.6 4.5 7 12.4 3.4 18.7L482.4 253c-3.6 6.2-11.2 8.9-17.9 6.4l-20.9-8c-10.3 8.3-21.8 14.9-34.1 19.7l-3.5 22c-1.1 7-7.2 12.2-14.4 12.3zm-42.7-29.3h30.3l2.9-18.4c.9-5.5 4.8-10.1 10.2-11.7 14.3-4.4 27.5-12 38.4-22.2 4.1-3.8 10-5 15.2-3l17.4 6.6 15.1-26.2-14.4-11.6c-4.3-3.5-6.3-9.2-5-14.7 3.4-14.6 3.4-29.8 0-44.4-1.3-5.4.7-11.1 5-14.7l14.4-11.7-15.1-26.2-17.4 6.7c-5.2 2-11.1.8-15.2-3-10.9-10.2-24.1-17.8-38.4-22.2-5.4-1.6-9.3-6.2-10.2-11.7l-2.9-18.4h-30.3L346 47.7c-.9 5.5-4.8 10.1-10.2 11.7-14.3 4.4-27.5 12-38.4 22.2-4.1 3.8-10 5-15.2 3l-17.4-6.7-15.1 26.2 14.4 11.7c4.3 3.5 6.3 9.2 5 14.7a97.91 97.91 0 000 44.4c1.3 5.4-.7 11.1-5 14.7l-14.4 11.7 15.1 26.2 17.4-6.6c5.2-2 11.1-.8 15.2 3 10.9 10.2 24.1 17.8 38.4 22.2 5.4 1.6 9.3 6.2 10.2 11.7l2.9 18.3zm15.1-65.6c-31.9 0-57.8-25.9-57.8-57.8s25.9-57.8 57.8-57.8 57.8 25.9 57.8 57.8c-.1 31.9-25.9 57.7-57.8 57.8zm0-86.4c-15.8 0-28.5 12.8-28.5 28.5s12.8 28.5 28.5 28.6 28.5-12.8 28.5-28.5c0-15.8-12.8-28.5-28.5-28.6z"/></svg>