<svg xmlns="http://www.w3.org/2000/svg" viewBox="0 0 512 427.5"><path class="lineal-fill" d="M186.9 353.4h138.3V413H186.9z"/><path class="lineal-stroke" d="M460.2 0H51.8C23.2 0 0 23.2 0 51.7v264.4c0 28.6 23.2 51.7 51.8 51.8h120.6v30.7h-28.8c-8 0-14.5 6.5-14.5 14.5s6.5 14.5 14.5 14.5h224.9c8 0 14.5-6.5 14.5-14.5s-6.5-14.5-14.5-14.5h-28.8v-41.9c.3-1.2.4-2.4.4-3.6-.2-8-6.9-14.3-14.8-14.1H51.8C39.2 339 29 328.8 29 316.2V51.7c0-12.6 10.2-22.8 22.8-22.8h408.5c12.6 0 22.8 10.2 22.8 22.8v264.4c0 12.6-10.2 22.8-22.8 22.8h-46.7c-8 .2-14.3 6.9-14.1 14.8.2 8 6.9 14.3 14.8 14.1h45.9c28.6 0 51.7-23.2 51.8-51.7V51.7C512 23.2 488.8 0 460.2 0zM310.7 367.9v30.7H201.3v-30.7h109.4z"/><path class="lineal-fill" d="M220.1 271.6c-12.7-19.8-6.9-46.3 12.9-59s46.3-6.9 59 12.9c9 14 9 32 0 46.1h100.6v-50.3l-30.4-4.9c-4.9-16.3-13.6-31.3-25.3-43.7l11-28.7-47.3-27.3-19.4 23.8c-16.6-3.9-33.9-3.9-50.5 0l-19.4-23.8-47.2 27.3 11 28.7c-11.7 12.4-20.3 27.4-25.3 43.7l-30.3 4.9v50.3h100.6z"/><path class="lineal-stroke" d="M392.5 286.1H291.9c-8 0-14.5-6.5-14.5-14.5 0-2.8.8-5.5 2.3-7.8 8.4-13.1 4.6-30.6-8.6-39-13.1-8.4-30.6-4.6-39 8.6-5.9 9.3-5.9 21.1 0 30.4 4.3 6.7 2.4 15.7-4.3 20-2.3 1.5-5.1 2.3-7.8 2.3H119.4c-8 0-14.5-6.5-14.4-14.5v-50.3c0-7.1 5.2-13.1 12.2-14.3l21.8-3.5c4.7-12.2 11.3-23.6 19.5-33.7l-7.9-20.6c-2.5-6.6.1-14.1 6.3-17.7l47.3-27.3c6.2-3.5 14-2.1 18.5 3.4l13.9 17.1c12.9-2 26.1-2 39 0l13.9-17.1c4.5-5.5 12.3-7 18.5-3.4l47.3 27.3c6.2 3.6 8.8 11.1 6.3 17.7l-7.9 20.6c8.2 10.2 14.7 21.5 19.4 33.7l21.8 3.5c7 1.1 12.2 7.2 12.2 14.3v50.3c-.1 8-6.6 14.5-14.6 14.5zm-80-29h65.6v-23.5l-18.2-2.9c-5.5-.9-10-4.8-11.6-10.1-4.3-14.2-11.9-27.2-22-38-3.8-4-5-9.9-3-15.1l6.6-17.2-25.9-15-11.6 14.3c-3.5 4.3-9.1 6.2-14.5 5-14.5-3.3-29.5-3.3-43.9 0-5.4 1.2-11-.7-14.5-5l-11.6-14.3-25.9 15 6.6 17.2c2 5.2.8 11-3 15.1-10.1 10.8-17.7 23.8-22 38-1.6 5.3-6.1 9.2-11.6 10.1l-18.2 2.9v23.5h65.6c-.4-2.8-.6-5.7-.6-8.6.4-31.6 26.3-56.8 57.9-56.4 31 .4 56 25.4 56.4 56.4 0 2.9-.2 5.8-.6 8.6z"/></svg>