<svg xmlns="http://www.w3.org/2000/svg" viewBox="0 0 339.82 409.6"><path class="lineal-stroke" d="M169.91 409.6a38 38 0 01-15.84-3.47C107.75 384.81 0 327.47 0 255.5V72.05a19.43 19.43 0 0125.54-18.47 89.73 89.73 0 0028.58 4.64A89.34 89.34 0 00131 14.91 31.11 31.11 0 01157.39 0h25a31.11 31.11 0 0126.39 14.91 89.33 89.33 0 0076.92 43.31 89.69 89.69 0 0028.58-4.64 19.43 19.43 0 0125.54 18.47v48a11.76 11.76 0 11-23.52 0v-42.5a113.25 113.25 0 01-30.6 4.19 112.66 112.66 0 01-97-54.61 7.36 7.36 0 00-6.3-3.61h-25a7.33 7.33 0 00-6.29 3.61 112.69 112.69 0 01-97 54.61 112.86 112.86 0 01-30.6-4.19v178c0 47.69 72.52 98 140.38 129.27a14.42 14.42 0 0012 0c67.89-31.28 140.41-81.63 140.41-129.32v-74.87a11.76 11.76 0 0123.52 0v74.87c0 72-107.75 129.31-154.07 150.63a38 38 0 01-15.84 3.47z"/><path class="lineal-fill" d="M232.48 142.23a27.23 27.23 0 00-38.5 0l-24.07 24.07-24.06-24.07a27.23 27.23 0 00-38.51 38.5l24.07 24.07-24.07 24.06a27.23 27.23 0 0038.51 38.51l24.06-24.07L194 267.37a27.23 27.23 0 0038.5-38.51l-24.09-24.06 24.07-24.07a27.23 27.23 0 000-38.5z"/><path class="lineal-stroke" d="M213.23 287.1a38.74 38.74 0 01-27.57-11.42l-15.75-15.75-15.75 15.75A39 39 0 0199 220.55l15.75-15.75L99 189.05a39 39 0 1155.13-55.13l15.75 15.75 15.75-15.75a39 39 0 0155.13 55.13L225 204.8l15.75 15.75a39 39 0 01-27.56 66.55zm-43.32-55.56a11.76 11.76 0 018.32 3.45l24.06 24.06a15.46 15.46 0 0021.87-21.87l-24.06-24.07a11.77 11.77 0 010-16.63l24.06-24.06a15.48 15.48 0 000-21.87 15.46 15.46 0 00-21.87 0l-24.06 24.06a11.75 11.75 0 01-16.63 0l-24.07-24.06a15.46 15.46 0 00-21.87 0 15.48 15.48 0 000 21.87l24.06 24.06a11.75 11.75 0 010 16.63l-24.06 24.07a15.46 15.46 0 1021.87 21.87L161.6 235a11.72 11.72 0 018.31-3.45z"/></svg>