<svg xmlns="http://www.w3.org/2000/svg" viewBox="0 0 512 442.1"><path class="lineal-fill" d="M459.9 15.2H52.1c-20.4 0-36.9 16.5-36.9 36.9v101.3c0 26.6 21.6 48.2 48.2 48.2s48.2-21.6 48.2-48.2c0 26.6 21.6 48.2 48.2 48.2S208 180 208 153.4c0 26.6 21.6 48.2 48.2 48.2s48.2-21.6 48.2-48.2c0 26.6 21.6 48.2 48.2 48.2s48.2-21.6 48.2-48.1c0 26.6 21.6 48.2 48.2 48.2s48.2-21.6 48.2-48.2V52.1c-.4-20.4-16.9-36.9-37.3-36.9z"/><path class="lineal-stroke" d="M459.9 0H52.1C23.3 0 0 23.3 0 52.1v101.3c0 22.3 11.7 42.9 30.8 54.3v219.2c0 8.4 6.8 15.2 15.2 15.2h420c8.4 0 15.2-6.8 15.2-15.2V273.8c0-8.4-6.8-15.2-15.2-15.2-8.4 0-15.2 6.8-15.2 15.2v137.9H335.5v-130c0-8.4-6.8-15.2-15.2-15.2H191.7c-8.4 0-15.2 6.8-15.2 15.2v56.1c0 8.4 6.8 15.2 15.2 15.2s15.2-6.8 15.2-15.2v-41h98.2v114.9H61.2v-195c.7 0 1.4.1 2.2.1 18.5 0 36.1-8.1 48.2-22.2 22.7 26.6 62.6 29.8 89.2 7.2 2.6-2.2 5-4.6 7.2-7.2 22.7 26.6 62.6 29.8 89.2 7.1 2.6-2.2 5-4.6 7.1-7.1 22.7 26.6 62.6 29.8 89.2 7.2 2.6-2.2 5-4.6 7.2-7.2 22.7 26.6 62.6 29.8 89.2 7.1 14.1-12 22.3-29.7 22.3-48.2V52.1C512 23.3 488.7 0 459.9 0zm21.8 153.4c0 18.2-14.8 33-33 33s-33-14.8-33-33v-44.1c0-8.4-6.8-15.2-15.2-15.2-8.4 0-15.2 6.8-15.2 15.2v44.1c0 18.2-14.8 33-33 33s-33-14.8-33-33v-73c-.2-8.4-7.2-15-15.6-14.8-8.1.2-14.6 6.7-14.8 14.8v73c0 18.2-14.8 33-33 33s-33-14.8-33-33v-44.1c-.2-8.4-7.2-15-15.6-14.8-8.1.2-14.6 6.7-14.8 14.8v44.1c0 18.2-14.8 33-33 33s-33-14.8-33-33v-73c0-8.4-6.8-15.2-15.2-15.2S96.1 72 96.1 80.4v73c0 18.2-14.8 33-33 33s-33-14.8-33-33V52.1c0-12 9.8-21.8 21.8-21.8h407.8c12 0 21.7 9.7 21.8 21.8v101.3h.2z"/></svg>