<svg xmlns="http://www.w3.org/2000/svg" viewBox="0 0 512 340.1"><path class="lineal-stroke" d="M256 340.1c-58.1 0-120.5-28.2-180.4-81.6C31 218.9 3.6 179.7 2.5 178c-3.3-4.8-3.3-11.1 0-15.9 1.2-1.6 28.5-40.8 73.1-80.5C135.5 28.2 197.9 0 256 0c38.6 0 78.6 12.1 118.9 36C454 82.9 507.3 158.9 509.5 162.1c4.9 6 3.9 14.8-2.1 19.7-6 4.9-14.8 3.9-19.7-2.1-.4-.5-.8-1.1-1.2-1.7-.5-.7-52.2-74.3-125.9-118-35.8-21.3-71.1-32.1-104.6-32.1C148 27.9 55.2 139 31.4 170.1c23.9 31 116.8 142.1 224.6 142.1 64.2 0 122.8-40 160.7-73.5 5.4-5.5 14.3-5.6 19.8-.2 5.5 5.4 5.6 14.3.2 19.8-.5.5-.9.9-1.4 1.3-59.6 52.7-121.6 80.5-179.3 80.5z"/><path class="lineal-fill" d="M330.1 96c-40.9-40.9-107.2-40.9-148.2 0s-40.9 107.2 0 148.2c40.9 40.9 107.2 40.9 148.1 0l-74-74.1L330.1 96z"/><path class="lineal-stroke" d="M256 288.7c-65.6 0-118.7-53.2-118.7-118.8S190.5 51.3 256.1 51.3c31.5 0 61.7 12.5 83.9 34.8 5.4 5.5 5.4 14.3 0 19.8l-64.2 64.2 64.2 64.2c5.4 5.5 5.4 14.3 0 19.7-22.3 22.3-52.5 34.8-84 34.7zm0-209.4c-50.1 0-90.8 40.7-90.8 90.8 0 50.1 40.7 90.8 90.8 90.8 19.2 0 38-6.1 53.5-17.5L246.1 180c-5.4-5.5-5.4-14.3 0-19.8l63.4-63.4C294 85.4 275.3 79.3 256 79.3z"/></svg>