<svg xmlns="http://www.w3.org/2000/svg" viewBox="0 0 512 512"><path class="lineal-fill" d="M233.2 420.7l37.7-37.6 18.1 18 21.9-97.2-97.3 21.9 18.1 18-57.1 57.2"/><path class="lineal-stroke" d="M233.2 435.2c-8 0-14.5-6.5-14.5-14.4 0-3.8 1.5-7.5 4.2-10.2l37.7-37.7c5.5-5.5 14.3-5.7 20-.4l11.1-49.4-49.4 11.1c5.2 5.7 5 14.5-.4 20l-57.1 57.1c-5.6 5.6-14.8 5.6-20.4 0-5.6-5.6-5.6-14.8 0-20.4l46.9-46.9-7.9-7.9c-5.6-5.6-5.6-14.8 0-20.4 1.9-1.9 4.4-3.3 7-3.9l97.3-21.9c7.8-1.8 15.5 3.1 17.3 10.9.5 2.1.5 4.3 0 6.4l-21.9 97.3c-1.8 7.8-9.5 12.6-17.3 10.9-2.7-.6-5.1-1.9-7-3.9l-7.9-7.9-27.4 27.5c-2.7 2.5-6.4 4.1-10.3 4.1z"/><path class="lineal-stroke" d="M256 512C114.8 512 0 397.2 0 256S114.8 0 256 0c52.8-.1 104.2 16.2 147.3 46.6 6.5 4.6 8.1 13.6 3.5 20.1s-13.6 8.1-20.1 3.5c-38.2-27-83.9-41.5-130.7-41.3C130.8 28.9 28.9 130.8 28.9 256S130.8 483.1 256 483.1 483.1 381.2 483.1 256c.1-34-7.5-67.6-22.3-98.3-3.7-7-1.1-15.8 6-19.5s15.8-1.1 19.5 6c.2.3.3.7.5 1 16.7 34.6 25.3 72.4 25.2 110.8 0 141.2-114.8 256-256 256z"/><path class="lineal-stroke" d="M230.7 434.8c-.7 0-1.5-.1-2.2-.2C140.4 421 75.4 345.2 75.2 256c0-99.7 81.1-180.8 180.8-180.8S436.8 156.3 436.8 256c-.2 8-6.8 14.3-14.8 14.1-7.7-.2-13.9-6.4-14.1-14.1 0-83.7-68.1-151.9-151.9-151.9S104.1 172.3 104.1 256c0 74.3 55.3 138.9 128.8 150.1 7.9 1.2 13.3 8.5 12.1 16.4-1 7.1-7.1 12.3-14.3 12.3z"/><path class="lineal-fill" d="M256 165c50.2.1 91 40.8 91 91h75.3c0-91.7-74.6-166.3-166.3-166.3S89.7 164.3 89.7 256H165c.1-50.2 40.8-90.9 91-91z"/><path class="lineal-stroke" d="M422.3 270.4H347c-8 0-14.4-6.5-14.4-14.4 0-42.3-34.3-76.6-76.6-76.6s-76.6 34.3-76.6 76.6c0 8-6.4 14.4-14.4 14.4H89.7c-8 0-14.4-6.5-14.4-14.4 0-99.7 81.1-180.8 180.8-180.8 99.3 0 180.2 80.6 180.7 179.8v1c-.1 8-6.5 14.4-14.5 14.4zm-61.8-28.8h46.7c-7.3-77-72.3-137.4-151.2-137.4s-143.9 60.4-151.2 137.4h46.7c8-57.7 61.3-98 119-90 46.7 6.4 83.5 43.2 90 90z"/><path class="lineal-stroke" d="M216.3 187.3c-3.4 0-6.6-1.2-9.2-3.3l-59.8-49.4c-6.1-5.1-7-14.2-1.9-20.3 5.1-6.1 14.2-7 20.3-1.9l59.8 49.4c6.2 5.1 7 14.2 2 20.3-2.8 3.3-6.9 5.2-11.2 5.2zm79.4 0c-8 0-14.4-6.4-14.5-14.4 0-4.3 1.9-8.4 5.3-11.2l59.8-49.4c6.1-5.1 15.3-4.2 20.3 1.9 5.1 6.1 4.2 15.3-1.9 20.3L304.9 184c-2.6 2.1-5.8 3.3-9.2 3.3z"/></svg>