<svg xmlns="http://www.w3.org/2000/svg" viewBox="0 0 512 240.45"><path class="lineal-fill" d="M125.69 14.02l29.43 76.91 82.24 4.22-64.05 51.76 21.4 79.52-69.02-44.92-69.02 44.92 21.4-79.52-64.05-51.76 82.24-4.22 29.43-76.91z"/><path class="lineal-stroke" d="M194.71 240.45a14.06 14.06 0 01-7.65-2.27l-61.37-40-61.37 40a14 14 0 01-21.18-15.39l19-70.71-56.95-46a14 14 0 018.09-24.9l73.15-3.78L112.6 9a14 14 0 0126.18 0L165 77.4l73.13 3.75a14 14 0 018.09 24.9l-56.95 46 19 70.71a14 14 0 01-13.53 17.66zm-69-73a14.06 14.06 0 017.65 2.27l38.31 24.94-11.87-44.15a14 14 0 014.7-14.51l35.56-28.74-45.66-2.35a14 14 0 01-12.37-9l-16.34-42.7-16.34 42.7a14 14 0 01-12.37 9l-45.66 2.35L86.88 136a14 14 0 014.73 14.54L79.73 194.7l38.32-24.94a14 14 0 017.64-2.27zm329.62 73a14.06 14.06 0 01-7.65-2.27l-61.37-40-61.37 40a14 14 0 01-21.18-15.39l19-70.71-56.95-46a14 14 0 018.09-24.9l73.13-3.75L373.22 9a14 14 0 0126.18 0l26.17 68.4 73.13 3.75a14 14 0 01-1.44 28L415 104.93a14 14 0 01-12.37-9l-16.34-42.7L370 95.94a14 14 0 01-12.37 9l-45.66 2.34L347.5 136a14 14 0 014.73 14.54l-11.88 44.16 38.32-24.94a14 14 0 0115.29 0l38.32 24.94-11.88-44.15a14 14 0 1127.07-7.28l21.39 79.52a14 14 0 01-13.53 17.66z"/></svg>