<svg xmlns="http://www.w3.org/2000/svg" viewBox="0 0 512 512"><circle class="lineal-fill" cx="283.8" cy="283.8" r="143"/><path class="lineal-stroke" d="M283.8 441.8c-87.1 0-158-70.9-158-158s70.9-158 158-158 158 70.9 158 158-70.9 158-158 158zm0-286.1c-70.7 0-128.1 57.3-128.1 128.1S213 411.9 283.8 411.9s128.1-57.3 128.1-128.1c-.1-70.7-57.4-128-128.1-128.1z"/><path class="lineal-fill" d="M283.8 210.5c40.5 0 73.3 32.8 73.3 73.3s-32.8 73.3-73.3 73.3-73.3-32.8-73.3-73.3"/><path class="lineal-stroke" d="M283.8 372.1c-48.7-.1-88.2-39.5-88.2-88.3.2-8.2 7.1-14.8 15.3-14.5 7.9.2 14.3 6.6 14.5 14.5 0 32.2 26.1 58.4 58.4 58.4s58.4-26.1 58.4-58.4-26.1-58.4-58.4-58.4c-8.2-.2-14.8-7.1-14.5-15.3.2-7.9 6.6-14.3 14.5-14.5 48.7-.5 88.7 38.6 89.2 87.3s-38.6 88.7-87.3 89.2h-1.9z"/><path class="lineal-fill" d="M107.9 55.1l-5.3 47.5-47.5 5.3-40.2-40.1 52.9-52.9z"/><path class="lineal-stroke" d="M283.8 55.7c-55.3 0-108.8 20.1-150.4 56.7l-15.2-15.2 4.5-40.4c.5-4.5-1.1-9-4.3-12.2L78.3 4.4c-5.8-5.8-15.3-5.8-21.1 0L4.4 57.2c-5.8 5.8-5.8 15.3 0 21.1l40.1 40.1c2.8 2.8 6.6 4.4 10.6 4.4.5 0 1.1 0 1.6-.1l40.4-4.5 15.2 15.2c-36.6 41.5-56.7 95-56.7 150.4C55.7 409.6 158 512 283.8 512c66.2 0 129.1-28.7 172.4-78.7 5.6-6.1 5.1-15.6-1-21.1s-15.6-5.1-21.1 1l-.5.5c-37.7 43.4-92.3 68.4-149.8 68.4-109.3 0-198.3-89-198.3-198.3 0-47.4 17-93.3 48-129.2l140.2 140.2c5.8 5.8 15.3 5.8 21.1 0s5.8-15.3 0-21.1L154.6 133.5c35.9-31 81.8-48 129.2-48 109.4 0 198.3 89 198.3 198.3 0 8.3 6.7 14.9 14.9 14.9s14.9-6.7 14.9-14.9C512 158 409.6 55.7 283.8 55.7zM36.1 67.8l31.7-31.7 24.5 24.5-3.2 28.5-28.5 3.2-24.5-24.5z"/></svg>