<svg xmlns="http://www.w3.org/2000/svg" viewBox="0 0 512 512"><path class="lineal-stroke" d="M256 462.39c-113.81 0-206.39-92.58-206.39-206.39S142.19 49.61 256 49.61 462.39 142.19 462.39 256A204.26 204.26 0 01440 349.69 208.42 208.42 0 01380 421a14.42 14.42 0 11-17.34-23 176.25 176.25 0 0070.9-142c0-97.91-79.65-177.56-177.56-177.56S78.44 158.09 78.44 256 158.09 433.56 256 433.56a14.42 14.42 0 110 28.83z"/><circle class="lineal-fill" cx="256" cy="256" r="96.83"/><path class="lineal-stroke" d="M256 367.25A111.25 111.25 0 11367.25 256 111.38 111.38 0 01256 367.25zm0-193.67A82.42 82.42 0 10338.42 256 82.52 82.52 0 00256 173.58zM256 512a14.43 14.43 0 01-14.42-14.42v-47.8a14.42 14.42 0 0128.84 0v47.8A14.42 14.42 0 01256 512zm0-435.36a14.43 14.43 0 01-14.42-14.42v-47.8a14.42 14.42 0 0128.84 0v47.8A14.43 14.43 0 01256 76.64zM62.22 270.42h-47.8a14.42 14.42 0 010-28.84h47.8a14.42 14.42 0 010 28.84zm435.36 0h-47.8a14.42 14.42 0 110-28.84h47.8a14.42 14.42 0 110 28.84z"/></svg>