<svg xmlns="http://www.w3.org/2000/svg" viewBox="0 0 373.8 512"><path class="lineal-fill" d="M321.5 13.4L186.9 64l79.3 104.4 94.1-106.2-38.8-48.8zM13.4 62.2l94.1 106.2L186.9 64 52.3 13.4 13.4 62.2z"/><path class="lineal-stroke" d="M370.9 53.9L332 5.1c-3.6-4.5-9.8-6.2-15.2-4.2L186.9 49.7 57 .9c-5.5-2-11.6-.4-15.2 4.2L2.9 53.9c-4 5.1-3.8 12.4.5 17.3l94.1 106.2c2.5 2.9 6.2 4.5 10 4.5h.5c4-.2 7.8-2.1 10.2-5.3l4.9-6.4 22.8 26.1-40.3 244.8c-.8 4.8 1 9.6 4.8 12.6l68.1 55.3c4.9 4 12 4 16.9 0l68.1-55.3c3.7-3 5.6-7.9 4.8-12.6l-26.9-163.3c0-.1 0-.1-.1-.2-.1-.3-.1-.5-.2-.8s-.1-.4-.1-.5-.1-.5-.2-.7-.1-.4-.2-.6l-.3-.6-.3-.6c-.1-.2-.2-.4-.3-.5s-.2-.4-.4-.6l-.3-.5-.4-.6-.4-.5c-.1-.2-.3-.3-.5-.5l-.5-.5c-.2-.2-.3-.3-.5-.4l-.6-.4c-.1-.1-.3-.2-.4-.3s-.4-.3-.6-.4l-.4-.3c-.2-.1-.5-.2-.7-.4l-.4-.2-.7-.3-.5-.2-.7-.2c-.2 0-.4-.1-.6-.1s-.4-.1-.6-.1l-.7-.1H194c-7.4 0-13.4 6-13.4 13.4s6 13.4 13.4 13.4h22.8l23.8 144.4-53.6 43.5-53.6-43.5 38.4-233.1h42.8c3.9 0 7.6-1.7 10.1-4.6l26.1-29.9 4.9 6.4c2.4 3.2 6.2 5.1 10.2 5.3h.5c3.8 0 7.5-1.7 10-4.5l94.2-106.2c4.2-5 4.4-12.3.3-17.4zm-264.1 93.4L31 61.8l25.7-32.3 108.6 40.8-58.5 77zm101.6 30.5h-43l-25.7-29.5 47.2-62.1 47.2 62.1-25.7 29.5zm58.7-30.5l-58.6-77 108.6-40.9 25.8 32.3-75.8 85.6z"/></svg>