<svg xmlns="http://www.w3.org/2000/svg" viewBox="0 0 362.06 409.6"><path class="lineal-stroke" d="M180.94 362.11a181.72 181.72 0 01-112.59-39.29C-9.81 260.71-22.88 146.59 39.22 68.43a181.06 181.06 0 01300.91 199.05 11.88 11.88 0 11-20.86-11.39A157.39 157.39 0 00278.82 57.9a157.3 157.3 0 00-221 25.31c-53.95 67.91-42.6 167 25.3 221a157.9 157.9 0 0097.81 34.14 11.88 11.88 0 110 23.76z"/><path class="lineal-stroke" d="M180.94 308.64A128 128 0 01101.61 281c-55.07-43.81-64.29-124.23-20.52-179.31a127.65 127.65 0 01222.53 114.76 11.88 11.88 0 01-22.83-6.59 103.87 103.87 0 10-99.85 75 11.88 11.88 0 010 23.76z"/><path class="lineal-fill" d="M243.21 181.06A62.23 62.23 0 11181 118.82a62.23 62.23 0 0162.23 62.24z"/><path class="lineal-stroke" d="M180.94 255.17a74.11 74.11 0 1158.07-28 74.28 74.28 0 01-58.07 28zm.06-124.46a50.35 50.35 0 1031.28 10.93A50.14 50.14 0 00181 130.71z"/><path class="lineal-fill" d="M258.69 397.72a30.53 30.53 0 0030.53-30.53v-78.08A41.2 41.2 0 00248 247.9l-41.74-.08v-61c0-12.89-10-23.87-22.89-24.32a23.77 23.77 0 00-24.64 23.75v106.62l-6.23-13c-3.4-7.09-9.81-11.12-16.42-11.12a16.9 16.9 0 00-9 2.64c-9.06 5.68-12.39 18.67-7.41 29 0 0 20.56 48.15 35.25 79.68a30.5 30.5 0 0027.66 17.63z"/><path class="lineal-stroke" d="M258.69 409.6h-76.08a42.56 42.56 0 01-38.44-24.49c-14.09-30.26-33.77-76.22-35.31-79.81-7.44-15.82-2.23-35.09 11.93-44a29 29 0 0115.3-4.45 28.63 28.63 0 0110.77 2.15v-72.79a35.69 35.69 0 0136.94-35.63c19.27.69 34.36 16.58 34.36 36.2V236H248a53.14 53.14 0 0153.07 53.09v78.08a42.46 42.46 0 01-42.41 42.41zm-122.6-129a5.09 5.09 0 00-2.69.83c-3.93 2.46-5.34 8.92-3 13.8l.22.48c.2.48 20.65 48.33 35.09 79.32a18.7 18.7 0 0016.89 10.77h76.08a18.68 18.68 0 0018.65-18.65v-78.04A29.36 29.36 0 00248 259.78l-41.76-.08a11.88 11.88 0 01-11.86-11.88v-61c0-6.63-5.13-12.21-11.44-12.44a11.86 11.86 0 00-12.32 11.87v106.62A11.88 11.88 0 01148 298l-6.24-13c-1.29-2.7-3.47-4.37-5.7-4.37z"/></svg>