<svg xmlns="http://www.w3.org/2000/svg" viewBox="0 0 512 442.8"><path class="lineal-fill" d="M13.8 47.7v69.9h484.3V47.7c0-18.7-15.2-33.9-33.9-33.9H47.8c-18.8 0-34 15.2-34 33.9z"/><path class="lineal-stroke" d="M498.3 195.6c-7.7 0-13.9 6.2-13.9 13.8v185.7c0 11.1-9 20.1-20.1 20.1H47.8c-11.1-.1-20.1-9-20.1-20.1V131.5h470.5c7.6 0 13.8-6.2 13.8-13.9V47.7C512 21.4 490.6 0 464.3 0H47.8C21.4 0 0 21.4 0 47.7v347.4c0 26.3 21.4 47.7 47.8 47.7h416.4c26.4 0 47.8-21.4 47.9-47.8V209.4c0-7.6-6.2-13.8-13.8-13.8zM275.6 27.7l-76.2 76.1H47.1l76.2-76.1h152.3zm154.3 76.1l54.4-54.4v54.4h-54.4zm36.8-75.9l-75.9 75.9H238.6l76.2-76.1h149.4c.9 0 1.7.1 2.5.2zm-439 19.2c.4-10.7 9.2-19.4 20.1-19.4h36.4L27.7 84.1v-37z"/><path class="lineal-fill" d="M202.7 191.3L337 270.9l-134.3 79.6z"/><path class="lineal-stroke" d="M202.7 364.4c-7.6 0-13.8-6.2-13.8-13.8V191.3c0-7.6 6.2-13.8 13.8-13.8 2.5 0 4.9.7 7.1 1.9L344 259c6.6 3.9 8.7 12.4 4.9 18.9-1.2 2-2.9 3.7-4.9 4.9l-134.2 79.7c-2.1 1.2-4.6 1.9-7.1 1.9zm13.9-148.8v110.7l93.3-55.3-93.3-55.4z"/></svg>