<svg xmlns="http://www.w3.org/2000/svg" viewBox="0 0 512 481.3"><path class="lineal-stroke" d="M385.8 481.3H33.53A33.57 33.57 0 010 447.76v-228a33.57 33.57 0 0133.53-33.54H385.8a33.57 33.57 0 0133.53 33.54v135.55a15.39 15.39 0 01-30.78 0V219.75a2.76 2.76 0 00-2.75-2.75H33.53a2.76 2.76 0 00-2.75 2.76v228a2.76 2.76 0 002.75 2.76H385.8a15.39 15.39 0 010 30.78z"/><path class="lineal-fill" d="M403.95 292v83.51l92.66 61.92V230.08L403.95 292z"/><path class="lineal-stroke" d="M496.61 452.82a15.4 15.4 0 01-8.55-2.59l-92.67-61.92a15.41 15.41 0 01-6.84-12.8V292a15.38 15.38 0 016.84-12.79l92.67-61.93a15.39 15.39 0 0123.94 12.8v207.35a15.37 15.37 0 01-15.39 15.39zm-77.28-85.53l61.89 41.35V258.87l-61.89 41.36z"/><circle class="lineal-fill" cx="289.51" cy="108.44" r="93.04"/><path class="lineal-stroke" d="M289.51 216.88A108.44 108.44 0 11398 108.44a108.56 108.56 0 01-108.49 108.44zm0-186.1a77.66 77.66 0 1077.66 77.66 77.75 77.75 0 00-77.66-77.66z"/><circle class="lineal-fill" cx="113.74" cy="124.52" r="76.96"/><path class="lineal-stroke" d="M113.74 216.88a92.36 92.36 0 1192.36-92.36 92.46 92.46 0 01-92.36 92.36zm0-153.93a61.58 61.58 0 1061.58 61.57A61.64 61.64 0 00113.74 63zM155.59 420a15.39 15.39 0 01-7.71-28.72l94.31-54.44L171 295.76v34.16a15.39 15.39 0 11-30.78 0V269.1a15.39 15.39 0 0123.08-13.33l117.39 67.78a15.38 15.38 0 010 26.65L163.27 418a15.3 15.3 0 01-7.68 2z"/></svg>