<svg xmlns="http://www.w3.org/2000/svg" viewBox="0 0 409.6 332"><path class="lineal-stroke" d="M318 0H53.9C24.2.1.1 24.2 0 53.9v210.8c0 29.8 24.2 53.9 53.9 53.9H318c29.8 0 54-24.1 54-53.9V53.9C371.9 24.1 347.8 0 318 0zm31.3 264.7c0 17.3-14 31.3-31.3 31.3H54c-17.3 0-31.3-14-31.3-31.3V53.9c0-17.3 13.9-31.3 31.2-31.3H318c17.3 0 31.3 14 31.3 31.3v210.8z"/><path class="lineal-fill" d="M152.5 189.9v-65.7c0-3.8 3-6.8 6.8-6.8 1.2 0 2.3.3 3.3.9l57.9 32.8c3.3 1.9 4.4 6 2.6 9.3-.6 1.1-1.5 1.9-2.6 2.6l-57.9 32.8c-3.3 1.9-7.4.7-9.3-2.6-.5-1-.8-2.1-.8-3.3z"/><path class="lineal-stroke" d="M159.3 208c-10 0-18.1-8.1-18.1-18.1v-65.7c0-10 8.1-18.1 18.1-18.1 3.1 0 6.2.8 8.9 2.3l57.9 32.9c8.7 4.9 11.8 16 6.8 24.7-1.6 2.9-4 5.2-6.8 6.8l-57.9 32.8c-2.7 1.6-5.8 2.4-8.9 2.4zm4.5-76v50.1L208 157l-44.2-25z"/><path class="lineal-stroke" d="M186 261.2c-56.3 0-101.9-45.7-101.9-101.9.2-6.3 5.4-11.2 11.7-11 6 .2 10.8 5 11 11 0 43.8 35.5 79.3 79.3 79.3s79.3-35.5 79.3-79.3S229.8 80 186 80c-6.3-.2-11.2-5.4-11-11.7.2-6 5-10.8 11-11 56.3.6 101.5 46.6 100.9 102.9-.5 55.6-45.4 100.5-100.9 101z"/><path class="lineal-fill" d="M201.7 314.2l-30.6 6.3c-2.2.5-4.3-1-4.8-3.2-.1-.5-.1-1.1 0-1.6l6.3-30.6c.4-1.9 1.3-3.6 2.7-5L362.2 93.2c6.2-6.2 16.3-6.2 22.5 0l8.9 8.9c6.2 6.2 6.2 16.3 0 22.5L206.7 311.5c-1.3 1.4-3.1 2.3-5 2.7z"/><path class="lineal-stroke" d="M401.6 94.1l-8.9-8.9c-10.6-10.6-27.9-10.6-38.5 0l-20.5 20.5c-.8.5-1.6 1.1-2.3 1.9-.5.6-1 1.2-1.4 1.8L167.3 272.2c-3 2.9-5 6.6-5.8 10.7l-6.3 30.6c-.2 1-.3 2.1-.3 3.1 0 8.5 6.9 15.4 15.4 15.4 1 0 2.1-.1 3.1-.4l30.6-6.3c4-.9 7.8-2.9 10.7-5.8l163.8-163.8c.3-.2.5-.4.8-.7s.6-.6.8-.9l21.5-21.5c10.6-10.6 10.6-27.9 0-38.5zM199.1 303.3l-19.4 4 4-19.4L340 131.7l15.4 15.4-156.3 156.2zm186.6-186.6L371.3 131 356 115.7l14.4-14.4c.8-.8 2-1.3 3.2-1.3s2.3.4 3.2 1.3l8.9 8.9c1.8 1.8 1.8 4.7 0 6.5z"/></svg>