<svg xmlns="http://www.w3.org/2000/svg" viewBox="0 0 512 508.34"><path class="lineal-stroke" d="M426.83 31.41h-165.1a15.71 15.71 0 010-31.41h165.1a15.71 15.71 0 010 31.41z"/><circle class="lineal-fill" cx="451.97" cy="448.3" r="44.33"/><path class="lineal-stroke" d="M452 508.34a60 60 0 1160-60 60.1 60.1 0 01-60 60zm0-88.65a28.63 28.63 0 1028.62 28.62A28.66 28.66 0 00452 419.69z"/><circle class="lineal-fill" cx="60.03" cy="448.3" r="44.33"/><path class="lineal-fill" d="M207.85 409.17h96.31v81.39h-96.31z"/><path class="lineal-stroke" d="M452 331.86H271.7v-53h155.13a15.7 15.7 0 0015.7-15.71V74.61a15.7 15.7 0 00-15.7-15.71H191.22a15.71 15.71 0 100 31.41h219.91v157.12H100.87v-216h90.35a15.71 15.71 0 000-31.41h-106a15.7 15.7 0 00-15.7 15.7v247.41a15.7 15.7 0 0015.7 15.71H240.3v53H60a15.7 15.7 0 00-15.7 15.7v42.82a60 60 0 1031.4 0v-27.09h164.6v30.19h-32.46a15.7 15.7 0 00-15.7 15.7v81.4a15.7 15.7 0 0015.7 15.7h96.31a15.7 15.7 0 0015.71-15.7v-81.4a15.7 15.7 0 00-15.71-15.7H271.7v-30.19H452a15.71 15.71 0 000-31.41zM88.66 448.31A28.63 28.63 0 1160 419.68a28.66 28.66 0 0128.66 28.63zm199.79 26.54h-64.9v-50h64.9v50z"/></svg>