<svg version="1.1" id="Layer_1" xmlns="http://www.w3.org/2000/svg" x="0" y="0" viewBox="0 0 635 330" xml:space="preserve"><style>.st0{opacity:.1;fill:#fff}.st1,.st2{opacity:.42;fill:#fff}.st2{opacity:.2}</style><path class="st0" d="M615.6 99H19.4c-9.3 0-16.9-7.6-16.9-16.9V45.9c0-9.3 7.6-16.9 16.9-16.9h596.2c9.3 0 16.9 7.6 16.9 16.9v36.2c0 9.3-7.6 16.9-16.9 16.9z"/><circle class="st1" cx="601.3" cy="64" r="6.2"/><circle class="st1" cx="219" cy="64" r="6.2"/><path class="st2" d="M297 70.2h-58.7c-3.1 0-5.6-2.5-5.6-5.6v-1.1c0-3.1 2.5-5.6 5.6-5.6H297c3.1 0 5.6 2.5 5.6 5.6v1.1c.1 3.1-2.5 5.6-5.6 5.6z"/><circle class="st1" cx="391.2" cy="64" r="6.2"/><path class="st2" d="M468.5 70.2h-58.7c-3.1 0-5.6-2.5-5.6-5.6v-1.1c0-3.1 2.5-5.6 5.6-5.6h58.7c3.1 0 5.6 2.5 5.6 5.6v1.1c0 3.1-2.5 5.6-5.6 5.6zm-330.2 0H79.6c-3.1 0-5.6-2.5-5.6-5.6v-1.1c0-3.1 2.5-5.6 5.6-5.6h58.7c3.1 0 5.6 2.5 5.6 5.6v1.1c0 3.1-2.5 5.6-5.6 5.6z"/><circle class="st1" cx="45.9" cy="64" r="18"/><path class="st0" d="M615.6 200H19.4c-9.3 0-16.9-7.6-16.9-16.9v-36.2c0-9.3 7.6-16.9 16.9-16.9h596.2c9.3 0 16.9 7.6 16.9 16.9v36.2c0 9.3-7.6 16.9-16.9 16.9z"/><circle class="st1" cx="601.3" cy="165" r="6.2"/><circle class="st1" cx="219" cy="165" r="6.2"/><path class="st2" d="M297 171.2h-58.7c-3.1 0-5.6-2.5-5.6-5.6v-1.1c0-3.1 2.5-5.6 5.6-5.6H297c3.1 0 5.6 2.5 5.6 5.6v1.1c.1 3.1-2.5 5.6-5.6 5.6z"/><circle class="st1" cx="391.2" cy="165" r="6.2"/><path class="st2" d="M468.5 171.2h-58.7c-3.1 0-5.6-2.5-5.6-5.6v-1.1c0-3.1 2.5-5.6 5.6-5.6h58.7c3.1 0 5.6 2.5 5.6 5.6v1.1c0 3.1-2.5 5.6-5.6 5.6zm-330.2 0H79.6c-3.1 0-5.6-2.5-5.6-5.6v-1.1c0-3.1 2.5-5.6 5.6-5.6h58.7c3.1 0 5.6 2.5 5.6 5.6v1.1c0 3.1-2.5 5.6-5.6 5.6z"/><circle class="st1" cx="45.9" cy="165" r="18"/><path class="st0" d="M615.6 301H19.4c-9.3 0-16.9-7.6-16.9-16.9v-36.2c0-9.3 7.6-16.9 16.9-16.9h596.2c9.3 0 16.9 7.6 16.9 16.9v36.2c0 9.3-7.6 16.9-16.9 16.9z"/><circle class="st1" cx="601.3" cy="266" r="6.2"/><circle class="st1" cx="219" cy="266" r="6.2"/><path class="st2" d="M297 272.2h-58.7c-3.1 0-5.6-2.5-5.6-5.6v-1.1c0-3.1 2.5-5.6 5.6-5.6H297c3.1 0 5.6 2.5 5.6 5.6v1.1c.1 3.1-2.5 5.6-5.6 5.6z"/><circle class="st1" cx="391.2" cy="266" r="6.2"/><path class="st2" d="M468.5 272.2h-58.7c-3.1 0-5.6-2.5-5.6-5.6v-1.1c0-3.1 2.5-5.6 5.6-5.6h58.7c3.1 0 5.6 2.5 5.6 5.6v1.1c0 3.1-2.5 5.6-5.6 5.6zm-330.2 0H79.6c-3.1 0-5.6-2.5-5.6-5.6v-1.1c0-3.1 2.5-5.6 5.6-5.6h58.7c3.1 0 5.6 2.5 5.6 5.6v1.1c0 3.1-2.5 5.6-5.6 5.6z"/><circle class="st1" cx="45.9" cy="266" r="18"/></svg>