<svg version="1.1" id="Layer_1" xmlns="http://www.w3.org/2000/svg" x="0" y="0" viewBox="0 0 635 330" xml:space="preserve"><style>.st0,.st1{opacity:.2;fill:#fff}.st1{opacity:.42}</style><path class="st0" d="M266.6 310H17.5c-8.3 0-15-6.7-15-15V35c0-8.3 6.7-15 15-15h249.1c8.3 0 15 6.7 15 15v260c0 8.3-6.7 15-15 15z"/><path class="st1" d="M70 221.1h143.9c5 0 9-4.1 9-9.3 0-2.5-.9-4.9-2.7-6.7l-36-37.4c-3.5-3.6-9.2-3.6-12.7 0l-11.7 12.2-29.6-30.7c-3.5-3.6-9.2-3.6-12.7 0l-54 56.1c-3.5 3.7-3.4 9.6.1 13.2 1.9 1.6 4.1 2.5 6.4 2.6z"/><ellipse class="st1" cx="186.9" cy="127.6" rx="18" ry="18.7"/><path class="st1" d="M626.9 57H334.2c-3.1 0-5.6-2.5-5.6-5.6v-1.1c0-3.1 2.5-5.6 5.6-5.6h292.7c3.1 0 5.6 2.5 5.6 5.6v1.1c0 3.1-2.5 5.6-5.6 5.6zm-94.7 25.9h-198c-3.1 0-5.6-2.5-5.6-5.6v-1.1c0-3.1 2.5-5.6 5.6-5.6h198c3.1 0 5.6 2.5 5.6 5.6v1.1c0 3.1-2.5 5.6-5.6 5.6z"/><path class="st0" d="M626.9 130.5H334.2c-3.1 0-5.6-2.5-5.6-5.6v-1.1c0-3.1 2.5-5.6 5.6-5.6h292.7c3.1 0 5.6 2.5 5.6 5.6v1.1c0 3-2.5 5.6-5.6 5.6zm0 25.8H334.2c-3.1 0-5.6-2.5-5.6-5.6v-1.1c0-3.1 2.5-5.6 5.6-5.6h292.7c3.1 0 5.6 2.5 5.6 5.6v1.1c0 3.1-2.5 5.6-5.6 5.6zm0 25.9H334.2c-3.1 0-5.6-2.5-5.6-5.6v-1.1c0-3.1 2.5-5.6 5.6-5.6h292.7c3.1 0 5.6 2.5 5.6 5.6v1.1c0 3.1-2.5 5.6-5.6 5.6zm-58 25.9H334.2c-3.1 0-5.6-2.5-5.6-5.6v-1.1c0-3.1 2.5-5.6 5.6-5.6h234.7c3.1 0 5.6 2.5 5.6 5.6v1.1c0 3.1-2.5 5.6-5.6 5.6z"/><circle class="st1" cx="351.5" cy="262.4" r="23"/><path class="st0" d="M458.6 255.7h-66.7c-3.1 0-5.6-2.5-5.6-5.6V249c0-3.1 2.5-5.6 5.6-5.6h66.7c3.1 0 5.6 2.5 5.6 5.6v1.1c.1 3.1-2.5 5.6-5.6 5.6zm-22 25.9h-44.7c-3.1 0-5.6-2.5-5.6-5.6v-1.1c0-3.1 2.5-5.6 5.6-5.6h44.7c3.1 0 5.6 2.5 5.6 5.6v1.1c.1 3.1-2.5 5.6-5.6 5.6z"/><circle class="st1" cx="519.7" cy="262.4" r="23"/><path class="st0" d="M626.9 255.7h-66.7c-3.1 0-5.6-2.5-5.6-5.6V249c0-3.1 2.5-5.6 5.6-5.6h66.7c3.1 0 5.6 2.5 5.6 5.6v1.1c0 3.1-2.5 5.6-5.6 5.6zm-22 25.9h-44.7c-3.1 0-5.6-2.5-5.6-5.6v-1.1c0-3.1 2.5-5.6 5.6-5.6h44.7c3.1 0 5.6 2.5 5.6 5.6v1.1c0 3.1-2.5 5.6-5.6 5.6z"/></svg>