<svg version="1.1" id="Layer_1" xmlns="http://www.w3.org/2000/svg" x="0" y="0" viewBox="0 0 635 330" xml:space="preserve"><style>.st0,.st1{opacity:.2;fill:#fff}.st1{opacity:.42}</style><path class="st0" d="M177.5 132.8h-160c-8.3 0-15-6.7-15-15V31.2c0-8.3 6.7-15 15-15h160c8.3 0 15 6.7 15 15v86.6c0 8.3-6.7 15-15 15z"/><path class="st1" d="M67 94.2h60.9c2.1 0 3.8-1.7 3.8-3.9 0-1.1-.4-2.1-1.1-2.8l-15.2-15.8c-1.5-1.5-3.9-1.5-5.4 0l-4.9 5.1-12.5-13c-1.5-1.5-3.9-1.5-5.4 0L64.4 87.5c-1.5 1.6-1.4 4.1.1 5.6.6.7 1.5 1.1 2.5 1.1z"/><ellipse class="st1" cx="116.5" cy="54.7" rx="7.6" ry="7.9"/><path class="st0" d="M397.5 159.8h-160c-8.3 0-15-6.7-15-15V31.2c0-8.3 6.7-15 15-15h160c8.3 0 15 6.7 15 15v113.6c0 8.3-6.7 15-15 15z"/><path class="st1" d="M287 111.7h60.9c2.1 0 3.8-1.7 3.8-3.9 0-1.1-.4-2.1-1.1-2.8l-15.2-15.8c-1.5-1.5-3.9-1.5-5.4 0l-4.9 5.1-12.5-13c-1.5-1.5-3.9-1.5-5.4 0L284.4 105c-1.5 1.6-1.4 4.1.1 5.6.6.7 1.5 1.1 2.5 1.1z"/><ellipse class="st1" cx="336.5" cy="72.2" rx="7.6" ry="7.9"/><path class="st0" d="M617.5 116.7h-160c-8.3 0-15-6.7-15-15V31.2c0-8.3 6.7-15 15-15h160c8.3 0 15 6.7 15 15v70.5c0 8.3-6.7 15-15 15z"/><path class="st1" d="M507 90.2h60.9c2.1 0 3.8-1.7 3.8-3.9 0-1.1-.4-2.1-1.1-2.8l-15.2-15.8c-1.5-1.5-3.9-1.5-5.4 0l-4.9 5.1-12.5-13c-1.5-1.5-3.9-1.5-5.4 0l-22.8 23.7c-1.5 1.6-1.4 4.1.1 5.6.6.7 1.5 1.1 2.5 1.1z"/><ellipse class="st1" cx="556.5" cy="50.6" rx="7.6" ry="7.9"/><path class="st0" d="M177.5 299.8h-160c-8.3 0-15-6.7-15-15V177.2c0-8.3 6.7-15 15-15h160c8.3 0 15 6.7 15 15v107.6c0 8.3-6.7 15-15 15z"/><path class="st1" d="M67 254.7h60.9c2.1 0 3.8-1.7 3.8-3.9 0-1.1-.4-2.1-1.1-2.8l-15.2-15.8c-1.5-1.5-3.9-1.5-5.4 0l-4.9 5.1-12.5-13c-1.5-1.5-3.9-1.5-5.4 0L64.4 248c-1.5 1.6-1.4 4.1.1 5.6.6.7 1.5 1.1 2.5 1.1z"/><ellipse class="st1" cx="116.5" cy="215.2" rx="7.6" ry="7.9"/><path class="st0" d="M397.5 313.8h-160c-8.3 0-15-6.7-15-15v-94.6c0-8.3 6.7-15 15-15h160c8.3 0 15 6.7 15 15v94.6c0 8.3-6.7 15-15 15z"/><path class="st1" d="M287 275.2h60.9c2.1 0 3.8-1.7 3.8-3.9 0-1.1-.4-2.1-1.1-2.8l-15.2-15.8c-1.5-1.5-3.9-1.5-5.4 0l-4.9 5.1-12.5-13c-1.5-1.5-3.9-1.5-5.4 0l-22.8 23.7c-1.5 1.6-1.4 4.1.1 5.6.6.7 1.5 1.1 2.5 1.1z"/><ellipse class="st1" cx="336.5" cy="235.7" rx="7.6" ry="7.9"/><path class="st0" d="M617.5 285.8h-160c-8.3 0-15-6.7-15-15V161.2c0-8.3 6.7-15 15-15h160c8.3 0 15 6.7 15 15v109.6c0 8.3-6.7 15-15 15z"/><path class="st1" d="M507 239.7h60.9c2.1 0 3.8-1.7 3.8-3.9 0-1.1-.4-2.1-1.1-2.8l-15.2-15.8c-1.5-1.5-3.9-1.5-5.4 0l-4.9 5.1-12.5-13c-1.5-1.5-3.9-1.5-5.4 0L504.4 233c-1.5 1.6-1.4 4.1.1 5.6.6.7 1.5 1.1 2.5 1.1z"/><ellipse class="st1" cx="556.5" cy="200.2" rx="7.6" ry="7.9"/></svg>