<svg version="1.1" id="Layer_1" xmlns="http://www.w3.org/2000/svg" x="0" y="0" viewBox="0 0 635 330" xml:space="preserve"><style>.st0,.st1{opacity:.2;fill:#fff}.st1{opacity:.42}</style><path class="st0" d="M618.5 298.3H369.4c-8.3 0-15-6.7-15-15V46.7c0-8.3 6.7-15 15-15h249.1c8.3 0 15 6.7 15 15v236.7c0 8.2-6.7 14.9-15 14.9z"/><path class="st1" d="M421.9 221.1h143.9c5 0 9-4.1 9-9.3 0-2.5-.9-4.9-2.7-6.7l-36-37.4c-3.5-3.6-9.2-3.6-12.7 0l-11.7 12.2-29.6-30.7c-3.5-3.6-9.2-3.6-12.7 0l-54 56.1c-3.5 3.7-3.4 9.6.1 13.2 1.9 1.6 4.1 2.5 6.4 2.6z"/><ellipse class="st1" cx="538.8" cy="127.6" rx="18" ry="18.7"/><path class="st1" d="M265.9 102.4H7.1c-3.1 0-5.6-2.5-5.6-5.6v-1.1C1.5 92.5 4 90 7.1 90h258.7c3.1 0 5.6 2.5 5.6 5.6v1.1c.1 3.2-2.4 5.7-5.5 5.7zm0-26H7.1c-3.1 0-5.6-2.5-5.6-5.6v-1.1C1.5 66.5 4 64 7.1 64h258.7c3.1 0 5.6 2.5 5.6 5.6v1.1c.1 3.2-2.4 5.7-5.5 5.7zm-84.1 51.9H7.1c-3.1 0-5.6-2.5-5.6-5.6v-1.1c0-3.1 2.5-5.6 5.6-5.6h174.6c3.1 0 5.6 2.5 5.6 5.6v1.1c.1 3.1-2.4 5.6-5.5 5.6z"/><path class="st0" d="M265.9 175.8H7.1c-3.1 0-5.6-2.5-5.6-5.6V169c0-3.1 2.5-5.6 5.6-5.6h258.7c3.1 0 5.6 2.5 5.6 5.6v1.1c.1 3.2-2.4 5.7-5.5 5.7zm-51.5 25.3H7.1c-3.1 0-5.6-2.5-5.6-5.6 0-3.1 2.5-5.6 5.6-5.6h207.3c3.1 0 5.6 2.5 5.6 5.6 0 3.1-2.5 5.6-5.6 5.6z"/><path class="st1" d="M86.5 266h-70c-8.3 0-15-6.7-15-15s6.7-15 15-15h70c8.3 0 15 6.7 15 15s-6.7 15-15 15zm108 .3h-70c-8.3 0-15-6.7-15-15s6.7-15 15-15h70c8.3 0 15 6.7 15 15s-6.7 15-15 15z"/></svg>