<svg xmlns="http://www.w3.org/2000/svg" viewBox="0 0 640 512"><!--! Font Awesome Pro 6.4.0 by @fontawesome - https://fontawesome.com License - https://fontawesome.com/license (Commercial License) Copyright 2023 Fonticons, Inc. --><path d="M608 64a32 32 0 1 0 0-64 32 32 0 1 0 0 64zM16 64C7.2 64 0 71.2 0 80s7.2 16 16 16H127.3L35.4 214.2c-3.8 4.8-4.4 11.4-1.7 16.9s8.3 9 14.4 9H80c44.2 0 80 35.8 80 80v16c0 44.2-35.8 80-80 80H74.5c-12.7 0-24.9-5.1-33.9-14.1L27.3 388.7c-6.2-6.2-16.4-6.2-22.6 0s-6.2 16.4 0 22.6l13.3 13.3c15 15 35.4 23.4 56.6 23.4H80c61.9 0 112-50.1 112-112V320c0-61.6-49.8-111.6-111.3-112L172.6 89.8c3.8-4.8 4.4-11.4 1.7-16.9s-8.3-9-14.4-9H16zm432 80c0-26.5 21.5-48 48-48s48 21.5 48 48V368c0 26.5-21.5 48-48 48s-48-21.5-48-48V144zM576 368V144c0-44.2-35.8-80-80-80s-80 35.8-80 80V368c0 44.2 35.8 80 80 80s80-35.8 80-80zM256 176c0-44.2 35.8-80 80-80c8.8 0 16-7.2 16-16s-7.2-16-16-16c-61.9 0-112 50.1-112 112V288l0 .2V368c0 44.2 35.8 80 80 80s80-35.8 80-80V272c0-44.2-35.8-80-80-80c-18 0-34.6 6-48 16V176zm48 48c26.5 0 48 21.5 48 48v96c0 26.5-21.5 48-48 48s-48-21.5-48-48V272c0-26.5 21.5-48 48-48z"/></svg>