<svg xmlns="http://www.w3.org/2000/svg" viewBox="0 0 512 512"><!--! Font Awesome Pro 6.4.0 by @fontawesome - https://fontawesome.com License - https://fontawesome.com/license (Commercial License) Copyright 2023 Fonticons, Inc. --><path d="M96 32C78.3 32 64 46.3 64 64V448c0 17.7 14.3 32 32 32H384c17.7 0 32-14.3 32-32V64c0-17.7-14.3-32-32-32H96zM32 64C32 28.7 60.7 0 96 0H384c35.3 0 64 28.7 64 64V448c0 35.3-28.7 64-64 64H96c-35.3 0-64-28.7-64-64V64zM272 192a32 32 0 1 0 -64 0 32 32 0 1 0 64 0zm-96 0a64 64 0 1 1 128 0 64 64 0 1 1 -128 0zm32 128c-26.5 0-48 21.5-48 48c0 8.8-7.2 16-16 16s-16-7.2-16-16c0-44.2 35.8-80 80-80h64c44.2 0 80 35.8 80 80c0 8.8-7.2 16-16 16s-16-7.2-16-16c0-26.5-21.5-48-48-48H208zM512 80v64c0 8.8-7.2 16-16 16s-16-7.2-16-16V80c0-8.8 7.2-16 16-16s16 7.2 16 16zM496 192c8.8 0 16 7.2 16 16v64c0 8.8-7.2 16-16 16s-16-7.2-16-16V208c0-8.8 7.2-16 16-16zm16 144v64c0 8.8-7.2 16-16 16s-16-7.2-16-16V336c0-8.8 7.2-16 16-16s16 7.2 16 16z"/></svg>