<svg xmlns="http://www.w3.org/2000/svg" viewBox="0 0 576 512"><!--! Font Awesome Pro 6.4.0 by @fontawesome - https://fontawesome.com License - https://fontawesome.com/license (Commercial License) Copyright 2023 Fonticons, Inc. --><path d="M64 32C46.3 32 32 46.3 32 64V192c0 17.7 14.3 32 32 32H512c17.7 0 32-14.3 32-32V64c0-17.7-14.3-32-32-32H64zM0 64C0 28.7 28.7 0 64 0H512c35.3 0 64 28.7 64 64V192c0 35.3-28.7 64-64 64H64c-35.3 0-64-28.7-64-64V64zm112 64H464c8.8 0 16 7.2 16 16s-7.2 16-16 16H112c-8.8 0-16-7.2-16-16s7.2-16 16-16zM256 288V432c0 44.2-35.8 80-80 80s-80-35.8-80-80c0-29.6 16.1-55.5 40-69.3c7.6-4.4 17.4-1.8 21.9 5.8s1.8 17.4-5.8 21.9c-14.4 8.3-24 23.8-24 41.6c0 26.5 21.5 48 48 48s48-21.5 48-48V288h32zm64 112V288h32V400c0 26.5 21.5 48 48 48s48-21.5 48-48c0-17.7-9.6-33.3-24-41.6c-7.6-4.4-10.3-14.2-5.8-21.9s14.2-10.3 21.9-5.8c23.9 13.8 40 39.7 40 69.3c0 44.2-35.8 80-80 80s-80-35.8-80-80z"/></svg>