<svg xmlns="http://www.w3.org/2000/svg" viewBox="0 0 640 512"><!--! Font Awesome Pro 6.4.0 by @fontawesome - https://fontawesome.com License - https://fontawesome.com/license (Commercial License) Copyright 2023 Fonticons, Inc. --><path d="M462 107.7c6.1-7.4 15.2-11.7 24.8-11.7H624c8.8 0 16-7.2 16-16s-7.2-16-16-16H486.7c-19.2 0-37.4 8.6-49.5 23.5L178 404.3c-6.1 7.4-15.2 11.7-24.8 11.7H16c-8.8 0-16 7.2-16 16s7.2 16 16 16H153.3c19.2 0 37.4-8.6 49.5-23.5L462 107.7zM432 416c-8.8 0-16 7.2-16 16s7.2 16 16 16H624c8.8 0 16-7.2 16-16s-7.2-16-16-16H432z"/></svg>