<svg xmlns="http://www.w3.org/2000/svg" viewBox="0 0 512 512"><!--! Font Awesome Pro 6.4.0 by @fontawesome - https://fontawesome.com License - https://fontawesome.com/license (Commercial License) Copyright 2023 Fonticons, Inc. --><path d="M459.3 267.3c6.2-6.2 6.2-16.4 0-22.6l-160-160c-6.2-6.2-16.4-6.2-22.6 0s-6.2 16.4 0 22.6L425.4 256 276.7 404.7c-6.2 6.2-6.2 16.4 0 22.6s16.4 6.2 22.6 0l160-160zm-352 160l160-160c6.2-6.2 6.2-16.4 0-22.6l-160-160c-6.2-6.2-16.4-6.2-22.6 0s-6.2 16.4 0 22.6L233.4 256 84.7 404.7c-6.2 6.2-6.2 16.4 0 22.6s16.4 6.2 22.6 0z"/></svg>