<svg xmlns="http://www.w3.org/2000/svg" viewBox="0 0 448 512"><!--! Font Awesome Pro 6.4.0 by @fontawesome - https://fontawesome.com License - https://fontawesome.com/license (Commercial License) Copyright 2023 Fonticons, Inc. --><path d="M235.3 52.7c-6.2-6.2-16.4-6.2-22.6 0l-160 160c-6.2 6.2-6.2 16.4 0 22.6s16.4 6.2 22.6 0L224 86.6 372.7 235.3c6.2 6.2 16.4 6.2 22.6 0s6.2-16.4 0-22.6l-160-160zm160 352l-160-160c-6.2-6.2-16.4-6.2-22.6 0l-160 160c-6.2 6.2-6.2 16.4 0 22.6s16.4 6.2 22.6 0L224 278.6 372.7 427.3c6.2 6.2 16.4 6.2 22.6 0s6.2-16.4 0-22.6z"/></svg>