<svg xmlns="http://www.w3.org/2000/svg" viewBox="0 0 576 512"><!--! Font Awesome Pro 6.4.0 by @fontawesome - https://fontawesome.com License - https://fontawesome.com/license (Commercial License) Copyright 2023 Fonticons, Inc. --><path d="M128 128H64c-17.7 0-32 14.3-32 32V448c0 17.7 14.3 32 32 32H192h32V416c0-35.3 28.7-64 64-64s64 28.7 64 64v64h32H512c17.7 0 32-14.3 32-32V224c0-17.7-14.3-32-32-32H448c-17.7 0-32-14.3-32-32V64c0-17.7-14.3-32-32-32H192c-17.7 0-32 14.3-32 32V96c0 17.7-14.3 32-32 32zM320 416c0-17.7-14.3-32-32-32s-32 14.3-32 32v64h64V416zm-96 96H192 64c-35.3 0-64-28.7-64-64V160c0-35.3 28.7-64 64-64H96h32V64c0-35.3 28.7-64 64-64H384c35.3 0 64 28.7 64 64v64 32h32 32c35.3 0 64 28.7 64 64V448c0 35.3-28.7 64-64 64H384 352 336 240 224zm288-88c0 13.3-10.7 24-24 24H440c-13.3 0-24-10.7-24-24V376c0-13.3 10.7-24 24-24h48c13.3 0 24 10.7 24 24v48zm-32-8V384H448v32h32zM136 384H88c-13.3 0-24-10.7-24-24V312c0-13.3 10.7-24 24-24h48c13.3 0 24 10.7 24 24v48c0 13.3-10.7 24-24 24zm-8-64H96v32h32V320zm384-24c0 13.3-10.7 24-24 24H440c-13.3 0-24-10.7-24-24V248c0-13.3 10.7-24 24-24h48c13.3 0 24 10.7 24 24v48zm-32-8V256H448v32h32zM136 256H88c-13.3 0-24-10.7-24-24V184c0-13.3 10.7-24 24-24h48c13.3 0 24 10.7 24 24v48c0 13.3-10.7 24-24 24zm-8-64H96v32h32V192zm208 72c0 13.3-10.7 24-24 24H264c-13.3 0-24-10.7-24-24V216c0-13.3 10.7-24 24-24h48c13.3 0 24 10.7 24 24v48zm-32-8V224H272v32h32zm8-96H264c-13.3 0-24-10.7-24-24V88c0-13.3 10.7-24 24-24h48c13.3 0 24 10.7 24 24v48c0 13.3-10.7 24-24 24zm-8-64H272v32h32V96z"/></svg>