<svg xmlns="http://www.w3.org/2000/svg" viewBox="0 0 576 512"><!--! Font Awesome Pro 6.4.0 by @fontawesome - https://fontawesome.com License - https://fontawesome.com/license (Commercial License) Copyright 2023 Fonticons, Inc. --><path d="M267.3 379.3l-96 96c-6.2 6.2-16.4 6.2-22.6 0l-96-96c-6.2-6.2-6.2-16.4 0-22.6s16.4-6.2 22.6 0L144 425.4V48c0-8.8 7.2-16 16-16s16 7.2 16 16V425.4l68.7-68.7c6.2-6.2 16.4-6.2 22.6 0s6.2 16.4 0 22.6zM352 432c0 8.8 7.2 16 16 16h96c8.8 0 16-7.2 16-16V336c0-8.8-7.2-16-16-16H368c-8.8 0-16 7.2-16 16v96zM416 67.5L341.3 192H490.7L416 67.5zM307.6 186L391.8 45.7C396.9 37.2 406.1 32 416 32s19.1 5.2 24.2 13.7L524.4 186c2.3 3.9 3.6 8.4 3.6 12.9c0 13.8-11.2 25.1-25.1 25.1H329.1c-13.8 0-25.1-11.2-25.1-25.1c0-4.5 1.2-9 3.6-12.9zM320 432V336c0-26.5 21.5-48 48-48h96c26.5 0 48 21.5 48 48v96c0 26.5-21.5 48-48 48H368c-26.5 0-48-21.5-48-48z"/></svg>