<svg xmlns="http://www.w3.org/2000/svg" viewBox="0 0 448 512"><!--! Font Awesome Pro 6.4.0 by @fontawesome - https://fontawesome.com License - https://fontawesome.com/license (Commercial License) Copyright 2023 Fonticons, Inc. --><path d="M235.3 4.7c-6.2-6.2-16.4-6.2-22.6 0l-128 128c-6.2 6.2-6.2 16.4 0 22.6s16.4 6.2 22.6 0L208 54.6V336c0 8.8 7.2 16 16 16s16-7.2 16-16V54.6L340.7 155.3c6.2 6.2 16.4 6.2 22.6 0s6.2-16.4 0-22.6l-128-128zM32 336c0-8.8-7.2-16-16-16s-16 7.2-16 16v96c0 44.2 35.8 80 80 80H368c44.2 0 80-35.8 80-80V336c0-8.8-7.2-16-16-16s-16 7.2-16 16v96c0 26.5-21.5 48-48 48H80c-26.5 0-48-21.5-48-48V336z"/></svg>