<svg xmlns="http://www.w3.org/2000/svg" viewBox="0 0 576 512"><!--! Font Awesome Pro 6.4.0 by @fontawesome - https://fontawesome.com License - https://fontawesome.com/license (Commercial License) Copyright 2023 Fonticons, Inc. --><path d="M267.3 379.3l-96 96c-6.2 6.2-16.4 6.2-22.6 0l-96-96c-6.2-6.2-6.2-16.4 0-22.6s16.4-6.2 22.6 0L144 425.4V48c0-8.8 7.2-16 16-16s16 7.2 16 16V425.4l68.7-68.7c6.2-6.2 16.4-6.2 22.6 0s6.2 16.4 0 22.6zM352 176c0 8.8 7.2 16 16 16h96c8.8 0 16-7.2 16-16V80c0-8.8-7.2-16-16-16H368c-8.8 0-16 7.2-16 16v96zm64 147.5L341.3 448H490.7L416 323.5zM320 176V80c0-26.5 21.5-48 48-48h96c26.5 0 48 21.5 48 48v96c0 26.5-21.5 48-48 48H368c-26.5 0-48-21.5-48-48zM307.6 442l84.2-140.3c5.1-8.5 14.3-13.7 24.2-13.7s19.1 5.2 24.2 13.7L524.4 442c2.3 3.9 3.6 8.4 3.6 12.9c0 13.8-11.2 25.1-25.1 25.1H329.1c-13.8 0-25.1-11.2-25.1-25.1c0-4.5 1.2-9 3.6-12.9z"/></svg>