<svg xmlns="http://www.w3.org/2000/svg" viewBox="0 0 448 512"><!--! Font Awesome Pro 6.4.0 by @fontawesome - https://fontawesome.com License - https://fontawesome.com/license (Commercial License) Copyright 2023 Fonticons, Inc. --><path d="M235.3 36.7c-6.2-6.2-16.4-6.2-22.6 0l-128 128c-6.2 6.2-6.2 16.4 0 22.6s16.4 6.2 22.6 0L208 86.6V192 336c0 8.8 7.2 16 16 16s16-7.2 16-16V192 86.6L340.7 187.3c6.2 6.2 16.4 6.2 22.6 0s6.2-16.4 0-22.6l-128-128zM32 472a24 24 0 1 0 0-48 24 24 0 1 0 0 48zm384 0a24 24 0 1 0 0-48 24 24 0 1 0 0 48zM152 448a24 24 0 1 0 -48 0 24 24 0 1 0 48 0zm72 24a24 24 0 1 0 0-48 24 24 0 1 0 0 48zm120-24a24 24 0 1 0 -48 0 24 24 0 1 0 48 0z"/></svg>