<svg xmlns="http://www.w3.org/2000/svg" viewBox="0 0 512 512"><!--! Font Awesome Pro 6.4.0 by @fontawesome - https://fontawesome.com License - https://fontawesome.com/license (Commercial License) Copyright 2023 Fonticons, Inc. --><path d="M36.7 36.7c6.2-6.2 16.4-6.2 22.6 0L192 169.4V64c0-8.8 7.2-16 16-16s16 7.2 16 16V208c0 8.8-7.2 16-16 16H64c-8.8 0-16-7.2-16-16s7.2-16 16-16H169.4L36.7 59.3c-6.2-6.2-6.2-16.4 0-22.6zm416 0c6.2-6.2 16.4-6.2 22.6 0s6.2 16.4 0 22.6L342.6 192H448c8.8 0 16 7.2 16 16s-7.2 16-16 16H304c-8.8 0-16-7.2-16-16V64c0-8.8 7.2-16 16-16s16 7.2 16 16V169.4L452.7 36.7zM48 304c0-8.8 7.2-16 16-16H208c8.8 0 16 7.2 16 16V448c0 8.8-7.2 16-16 16s-16-7.2-16-16V342.6L59.3 475.3c-6.2 6.2-16.4 6.2-22.6 0s-6.2-16.4 0-22.6L169.4 320H64c-8.8 0-16-7.2-16-16zm240 0c0-8.8 7.2-16 16-16H448c8.8 0 16 7.2 16 16s-7.2 16-16 16H342.6L475.3 452.7c6.2 6.2 6.2 16.4 0 22.6s-16.4 6.2-22.6 0L320 342.6V448c0 8.8-7.2 16-16 16s-16-7.2-16-16V304z"/></svg>