<svg xmlns="http://www.w3.org/2000/svg" viewBox="0 0 512 512"><!--! Font Awesome Pro 6.4.0 by @fontawesome - https://fontawesome.com License - https://fontawesome.com/license (Commercial License) Copyright 2023 Fonticons, Inc. --><path d="M336 32c-8.8 0-16 7.2-16 16s7.2 16 16 16h89.4L256 233.4 86.6 64H176c8.8 0 16-7.2 16-16s-7.2-16-16-16H48c-8.8 0-16 7.2-16 16V176c0 8.8 7.2 16 16 16s16-7.2 16-16V86.6L233.4 256 64 425.4V336c0-8.8-7.2-16-16-16s-16 7.2-16 16V464c0 8.8 7.2 16 16 16H176c8.8 0 16-7.2 16-16s-7.2-16-16-16H86.6L256 278.6 425.4 448H336c-8.8 0-16 7.2-16 16s7.2 16 16 16H464c8.8 0 16-7.2 16-16V336c0-8.8-7.2-16-16-16s-16 7.2-16 16v89.4L278.6 256 448 86.6V176c0 8.8 7.2 16 16 16s16-7.2 16-16V48c0-8.8-7.2-16-16-16H336z"/></svg>