<svg xmlns="http://www.w3.org/2000/svg" viewBox="0 0 512 512"><!-- Font Awesome Pro 6.0.0-alpha2 by @fontawesome - https://fontawesome.com License - https://fontawesome.com/license (Commercial License) --><path d="M480 256C480 379.5 379.516 480 256 480C186.594 480 122.234 448.594 79.438 393.844C74 386.906 75.234 376.844 82.188 371.406C89.172 365.875 99.219 367.156 104.656 374.156C141.344 421.094 196.516 448 256 448C361.875 448 448 361.875 448 256S361.875 64 256 64C187.064 64 124.498 100.727 90.154 160H176C184.844 160 192 167.156 192 176S184.844 192 176 192H48C39.156 192 32 184.844 32 176V48C32 39.156 39.156 32 48 32S64 39.156 64 48V141.559C104.359 73.867 176.529 32 256 32C379.516 32 480 132.5 480 256Z"/></svg>