<svg xmlns="http://www.w3.org/2000/svg" viewBox="0 0 384 512"><!--! Font Awesome Pro 6.4.0 by @fontawesome - https://fontawesome.com License - https://fontawesome.com/license (Commercial License) Copyright 2023 Fonticons, Inc. --><path d="M203.3 36.7c-6.2-6.2-16.4-6.2-22.6 0l-128 128c-6.2 6.2-6.2 16.4 0 22.6s16.4 6.2 22.6 0L176 86.6V192 368c0 8.8 7.2 16 16 16s16-7.2 16-16V192 86.6L308.7 187.3c6.2 6.2 16.4 6.2 22.6 0s6.2-16.4 0-22.6l-128-128zM16 448c-8.8 0-16 7.2-16 16s7.2 16 16 16H368c8.8 0 16-7.2 16-16s-7.2-16-16-16H16z"/></svg>