<svg xmlns="http://www.w3.org/2000/svg" viewBox="0 0 576 512"><!--! Font Awesome Pro 6.4.0 by @fontawesome - https://fontawesome.com License - https://fontawesome.com/license (Commercial License) Copyright 2023 Fonticons, Inc. --><path d="M171.3 36.7c-6.2-6.2-16.4-6.2-22.6 0l-96 96c-6.2 6.2-6.2 16.4 0 22.6s16.4 6.2 22.6 0L144 86.6V464c0 8.8 7.2 16 16 16s16-7.2 16-16V86.6l68.7 68.7c6.2 6.2 16.4 6.2 22.6 0s6.2-16.4 0-22.6l-96-96zM352 432V336c0-8.8 7.2-16 16-16h96c8.8 0 16 7.2 16 16v96c0 8.8-7.2 16-16 16H368c-8.8 0-16-7.2-16-16zM416 67.5L490.7 192H341.3L416 67.5zM307.6 186c-2.3 3.9-3.6 8.4-3.6 12.9c0 13.8 11.2 25.1 25.1 25.1H502.9c13.8 0 25.1-11.2 25.1-25.1c0-4.5-1.2-9-3.6-12.9L440.2 45.7C435.1 37.2 425.9 32 416 32s-19.1 5.2-24.2 13.7L307.6 186zM320 432c0 26.5 21.5 48 48 48h96c26.5 0 48-21.5 48-48V336c0-26.5-21.5-48-48-48H368c-26.5 0-48 21.5-48 48v96z"/></svg>