<svg xmlns="http://www.w3.org/2000/svg" viewBox="0 0 512 512"><!--! Font Awesome Pro 6.4.0 by @fontawesome - https://fontawesome.com License - https://fontawesome.com/license (Commercial License) Copyright 2023 Fonticons, Inc. --><path d="M235.3 123.3c-6.2 6.2-16.4 6.2-22.6 0s-6.2-16.4 0-22.6l96-96c6.2-6.2 16.4-6.2 22.6 0l96 96c6.2 6.2 6.2 16.4 0 22.6s-16.4 6.2-22.6 0L336 54.6V384v16c0 44.2 35.8 80 80 80h80c8.8 0 16 7.2 16 16s-7.2 16-16 16H416c-61.9 0-112-50.1-112-112V384c0-44.2-35.8-80-80-80H54.6l68.7 68.7c6.2 6.2 6.2 16.4 0 22.6s-16.4 6.2-22.6 0l-96-96c-3-3-4.7-7.1-4.7-11.3s1.7-8.3 4.7-11.3l96-96c6.2-6.2 16.4-6.2 22.6 0s6.2 16.4 0 22.6L54.6 272H224c31.3 0 59.7 12.9 80 33.6V54.6l-68.7 68.7z"/></svg>