<svg xmlns="http://www.w3.org/2000/svg" viewBox="0 0 576 512"><!--! Font Awesome Pro 6.4.0 by @fontawesome - https://fontawesome.com License - https://fontawesome.com/license (Commercial License) Copyright 2023 Fonticons, Inc. --><path d="M64 64C46.3 64 32 78.3 32 96V416c0 17.7 14.3 32 32 32H512c17.7 0 32-14.3 32-32V96c0-17.7-14.3-32-32-32H64zM0 96C0 60.7 28.7 32 64 32H512c35.3 0 64 28.7 64 64V416c0 35.3-28.7 64-64 64H64c-35.3 0-64-28.7-64-64V96zm192 64c6.1 0 11.6 3.4 14.3 8.8l80 160c4 7.9 .7 17.5-7.2 21.5s-17.5 .7-21.5-7.2L238.1 304H145.9l-19.6 39.2c-4 7.9-13.6 11.1-21.5 7.2s-11.1-13.6-7.2-21.5l80-160c2.7-5.4 8.3-8.8 14.3-8.8zm30.1 112L192 211.8 161.9 272h60.2zM304 176c0-8.8 7.2-16 16-16h64c53 0 96 43 96 96s-43 96-96 96H320c-8.8 0-16-7.2-16-16V176zm32 16V320h48c35.3 0 64-28.7 64-64s-28.7-64-64-64H336z"/></svg>