<svg xmlns="http://www.w3.org/2000/svg" viewBox="0 0 320 512"><!--! Font Awesome Pro 6.4.0 by @fontawesome - https://fontawesome.com License - https://fontawesome.com/license (Commercial License) Copyright 2023 Fonticons, Inc. --><path d="M48 32C21.5 32 0 53.5 0 80V240 432c0 26.5 21.5 48 48 48H192c70.7 0 128-57.3 128-128c0-52.8-32-98.2-77.7-117.7C270 213.9 288 181 288 144c0-61.9-50.1-112-112-112H48zM192 256c53 0 96 43 96 96s-43 96-96 96H48c-8.8 0-16-7.2-16-16V256H176h16zm-16-32H32V80c0-8.8 7.2-16 16-16H176c44.2 0 80 35.8 80 80s-35.8 80-80 80z"/></svg>