<svg xmlns="http://www.w3.org/2000/svg" viewBox="0 0 448 512"><!--! Font Awesome Pro 6.4.0 by @fontawesome - https://fontawesome.com License - https://fontawesome.com/license (Commercial License) Copyright 2023 Fonticons, Inc. --><path d="M160 96v32H288V96c0-35.3-28.7-64-64-64s-64 28.7-64 64zm-32 64H48c-8.8 0-16 7.2-16 16V416c0 35.3 28.7 64 64 64H352c35.3 0 64-28.7 64-64V176c0-8.8-7.2-16-16-16H320v80c0 8.8-7.2 16-16 16s-16-7.2-16-16V160H160v80c0 8.8-7.2 16-16 16s-16-7.2-16-16V160zm0-32V96c0-53 43-96 96-96s96 43 96 96v32h80c26.5 0 48 21.5 48 48V416c0 53-43 96-96 96H96c-53 0-96-43-96-96V176c0-26.5 21.5-48 48-48h80z"/></svg>