<svg xmlns="http://www.w3.org/2000/svg" viewBox="0 0 576 512"><!--! Font Awesome Pro 6.4.0 by @fontawesome - https://fontawesome.com License - https://fontawesome.com/license (Commercial License) Copyright 2023 Fonticons, Inc. --><path d="M160 96c0-35.3 28.7-64 64-64s64 28.7 64 64v64H160V96zm-32 64H64c-35.3 0-64 28.7-64 64V416c0 35.3 28.7 64 64 64h96V448H64c-17.7 0-32-14.3-32-32V224c0-17.7 14.3-32 32-32H384c17.7 0 32 14.3 32 32h32c0-35.3-28.7-64-64-64H320V96c0-53-43-96-96-96s-96 43-96 96v64zM512 288c17.7 0 32 14.3 32 32V448c0 17.7-14.3 32-32 32H256c-17.7 0-32-14.3-32-32V320c0-17.7 14.3-32 32-32H512zM192 320V448c0 35.3 28.7 64 64 64H512c35.3 0 64-28.7 64-64V320c0-35.3-28.7-64-64-64H256c-35.3 0-64 28.7-64 64zm128 16c0-8.8-7.2-16-16-16s-16 7.2-16 16v16c0 53 43 96 96 96s96-43 96-96V336c0-8.8-7.2-16-16-16s-16 7.2-16 16v16c0 35.3-28.7 64-64 64s-64-28.7-64-64V336z"/></svg>