<svg xmlns="http://www.w3.org/2000/svg" viewBox="0 0 512 512"><!--! Font Awesome Pro 6.4.0 by @fontawesome - https://fontawesome.com License - https://fontawesome.com/license (Commercial License) Copyright 2023 Fonticons, Inc. --><path d="M256 480C132.3 480 32 379.7 32 256c0-56.1 20.6-107.4 54.7-146.7l316 316C363.4 459.4 312.1 480 256 480zm79.5-167.1c.3-2.9 .5-5.9 .5-8.9v-5.9l46 5.8c8.8 1.1 16.8-5.1 17.9-13.9s-5.1-16.8-13.9-17.9l-50-6.2V244.5l51.9-13c8.6-2.1 13.8-10.8 11.6-19.4s-10.8-13.8-19.4-11.6l-44.1 11V208c0-7.4-1-14.7-2.9-21.5l43.8-29.2c7.4-4.9 9.3-14.8 4.4-22.2s-14.8-9.3-22.2-4.4l-40.8 27.2C303.7 139.7 281.2 128 256 128c-28.6 0-53.7 15-67.8 37.6L109.3 86.7C148.6 52.6 199.9 32 256 32c123.7 0 224 100.3 224 224c0 56.1-20.6 107.4-54.7 146.7l-89.8-89.8zM304 281.4l-92.2-92.2C219.1 172 236.2 160 256 160c26.5 0 48 21.5 48 48v23.7 .5V280v.1 1.3zM256 512A256 256 0 1 0 256 0a256 256 0 1 0 0 512zM176 265.9l-50 6.2c-8.8 1.1-15 9.1-13.9 17.9s9.1 15 17.9 13.9l46-5.8V304c0 7.4 1 14.7 2.9 21.5l-43.8 29.2c-7.4 4.9-9.3 14.8-4.4 22.2s14.8 9.3 22.2 4.4l40.8-27.2C208.3 372.3 230.8 384 256 384c17 0 32.8-5.3 45.8-14.4l-23.2-23.2c-6.7 3.6-14.4 5.6-22.5 5.6c-26.5 0-48-21.5-48-48V280.3c0-.2 0-.4 0-.7v-3.8l-32-32v22z"/></svg>