<svg xmlns="http://www.w3.org/2000/svg" viewBox="0 0 576 512"><!--! Font Awesome Pro 6.4.0 by @fontawesome - https://fontawesome.com License - https://fontawesome.com/license (Commercial License) Copyright 2023 Fonticons, Inc. --><path d="M48 32c-8.8 0-16 7.2-16 16v96c0 8.8-7.2 16-16 16s-16-7.2-16-16V48C0 21.5 21.5 0 48 0h96c8.8 0 16 7.2 16 16s-7.2 16-16 16H48zm96 96c8.8 0 16 7.2 16 16V368c0 8.8-7.2 16-16 16s-16-7.2-16-16V144c0-8.8 7.2-16 16-16zm48 16c0-8.8 7.2-16 16-16s16 7.2 16 16V368c0 8.8-7.2 16-16 16s-16-7.2-16-16V144zm224 0c0-8.8 7.2-16 16-16s16 7.2 16 16V368c0 8.8-7.2 16-16 16s-16-7.2-16-16V144zM272 128c8.8 0 16 7.2 16 16V368c0 8.8-7.2 16-16 16s-16-7.2-16-16V144c0-8.8 7.2-16 16-16zm64 16c0-8.8 7.2-16 16-16s16 7.2 16 16V368c0 8.8-7.2 16-16 16s-16-7.2-16-16V144zM544 48c0-8.8-7.2-16-16-16H432c-8.8 0-16-7.2-16-16s7.2-16 16-16h96c26.5 0 48 21.5 48 48v96c0 8.8-7.2 16-16 16s-16-7.2-16-16V48zM48 480h96c8.8 0 16 7.2 16 16s-7.2 16-16 16H48c-26.5 0-48-21.5-48-48V368c0-8.8 7.2-16 16-16s16 7.2 16 16v96c0 8.8 7.2 16 16 16zm496-16V368c0-8.8 7.2-16 16-16s16 7.2 16 16v96c0 26.5-21.5 48-48 48H432c-8.8 0-16-7.2-16-16s7.2-16 16-16h96c8.8 0 16-7.2 16-16z"/></svg>