<svg xmlns="http://www.w3.org/2000/svg" viewBox="0 0 640 512"><!--! Font Awesome Pro 6.4.0 by @fontawesome - https://fontawesome.com License - https://fontawesome.com/license (Commercial License) Copyright 2023 Fonticons, Inc. --><path d="M35.1 201.9C51.5 170.8 135.3 32 320 32s268.5 138.8 284.9 169.9c2.1 4 3.1 8.4 3.1 13V331.2c0 12.6-7.4 24.1-19 29.2l-79.2 35.2-5 37.2L602 389.7c23.1-10.3 38-33.2 38-58.5V214.9c0-8.9-1.8-18.6-6.8-28C615.3 153.1 523.3 0 320 0S24.7 153.1 6.8 187C1.8 196.3 0 206 0 214.9V331.2c0 25.3 14.9 48.2 38 58.5l97.2 43.2-5-37.2L51 360.4c-11.6-5.1-19-16.6-19-29.2V214.9c0-4.6 .9-9 3.1-13zM192 176c0-8.8 7.2-16 16-16H432c8.8 0 16 7.2 16 16v32h32V176c0-26.5-21.5-48-48-48H208c-26.5 0-48 21.5-48 48v32h32V176zm-48 64H128c-8.8 0-16 7.2-16 16s7.2 16 16 16h18l30.1 226.1c.8 6.2 5.2 11.4 11.3 13.2s12.6-.1 16.7-4.8l48.3-55.7 56.3 56.5c3 3 7.1 4.7 11.3 4.7s8.3-1.7 11.3-4.7l56.3-56.5 48.3 55.7c4.1 4.8 10.6 6.7 16.7 4.8s10.4-7 11.3-13.2L494 272h18c8.8 0 16-7.2 16-16s-7.2-16-16-16H496 480.2c-.2 0-.3 0-.5 0H448 400.1c-.1 0-.1 0-.2 0H368.1c0 0-.1 0-.1 0H272.1c0 0-.1 0-.1 0H240.1c-.1 0-.1 0-.2 0H192 160.3c-.2 0-.3 0-.5 0H144zm34.3 32h54.4l1.4 1.7-48.6 53.1L178.3 272zM279 272H361l2.1 2.2-43 49.6-43-49.6L279 272zm128.3 0h54.4l-7.3 54.7-48.6-53.1 1.4-1.7zM320 473.3l-46.6-46.8L320 372.7l46.6 53.8L320 473.3zm-69.3-69.5l-48.1-48.3L255.2 298l43.6 50.3-48.1 55.5zm-21 24.2l-26.5 30.6-8.8-66.1 35.3 35.5zm159.6-24.2l-48.1-55.5L384.8 298l52.6 57.5-48.1 48.3zm21 24.2l35.3-35.5-8.8 66.1-26.5-30.6z"/></svg>