<svg xmlns="http://www.w3.org/2000/svg" viewBox="0 0 576 512"><!--! Font Awesome Pro 6.4.0 by @fontawesome - https://fontawesome.com License - https://fontawesome.com/license (Commercial License) Copyright 2023 Fonticons, Inc. --><path d="M432 128c26.5 0 48 21.5 48 48V336c0 26.5-21.5 48-48 48H80c-26.5 0-48-21.5-48-48V176c0-26.5 21.5-48 48-48H432zM80 96C35.8 96 0 131.8 0 176V336c0 44.2 35.8 80 80 80H432c44.2 0 80-35.8 80-80V176c0-44.2-35.8-80-80-80H80zM576 208c0-8.8-7.2-16-16-16s-16 7.2-16 16v96c0 8.8 7.2 16 16 16s16-7.2 16-16V208zM112 192H304c8.8 0 16 7.2 16 16v96c0 8.8-7.2 16-16 16H112c-8.8 0-16-7.2-16-16V208c0-8.8 7.2-16 16-16zM64 208v96c0 26.5 21.5 48 48 48H304c26.5 0 48-21.5 48-48V208c0-26.5-21.5-48-48-48H112c-26.5 0-48 21.5-48 48z"/></svg>