<svg xmlns="http://www.w3.org/2000/svg" viewBox="0 0 640 512"><!--! Font Awesome Pro 6.4.0 by @fontawesome - https://fontawesome.com License - https://fontawesome.com/license (Commercial License) Copyright 2023 Fonticons, Inc. --><path d="M25.9 3.4C19-2 8.9-.8 3.4 6.1S-.8 23.1 6.1 28.6l608 480c6.9 5.5 17 4.3 22.5-2.6s4.3-17-2.6-22.5L25.9 3.4zM378.8 384H112c-26.5 0-48-21.5-48-48V176c0-12 4.4-22.9 11.7-31.4L50.5 124.8C39 138.7 32 156.5 32 176V336c0 44.2 35.8 80 80 80H419.4l-40.5-32zM464 96H220.6l40.5 32H464c26.5 0 48 21.5 48 48V326l30.7 24.3c.8-4.6 1.3-9.4 1.3-14.3V176c0-44.2-35.8-80-80-80zm128 96c-8.8 0-16 7.2-16 16v96c0 8.8 7.2 16 16 16s16-7.2 16-16V208c0-8.8-7.2-16-16-16z"/></svg>