<svg xmlns="http://www.w3.org/2000/svg" viewBox="0 0 640 512"><!--! Font Awesome Pro 6.4.0 by @fontawesome - https://fontawesome.com License - https://fontawesome.com/license (Commercial License) Copyright 2023 Fonticons, Inc. --><path d="M575.2 106.1c-1.9 11.9 3.1 23.9 12.9 30.9C600.2 145.8 608 160 608 176c0 26.5-21.5 48-48 48H464c-26.5 0-48-21.5-48-48c0-16 7.8-30.2 19.9-38.9c9.8-7.1 14.7-19 12.9-30.9c-.5-3.3-.8-6.7-.8-10.1c0-35.3 28.7-64 64-64s64 28.7 64 64c0 3.5-.3 6.8-.8 10.1zm31.6 5c.8-4.9 1.2-10 1.2-15.1c0-53-43-96-96-96s-96 43-96 96c0 5.1 .4 10.2 1.2 15.1C397.1 125.7 384 149.3 384 176c0 44.2 35.8 80 80 80h32V496c0 8.8 7.2 16 16 16s16-7.2 16-16V256h32c44.2 0 80-35.8 80-80c0-26.7-13.1-50.3-33.2-64.9zM64 224H320v64H304 80 64V224zm0 96l0 48H48 16c-8.8 0-16 7.2-16 16s7.2 16 16 16H32v96c0 8.8 7.2 16 16 16s16-7.2 16-16V400H80 304h16v96c0 8.8 7.2 16 16 16s16-7.2 16-16V400h16c8.8 0 16-7.2 16-16s-7.2-16-16-16H336 320V320c17.7 0 32-14.3 32-32V224c0-17.7-14.3-32-32-32H64c-17.7 0-32 14.3-32 32v64c0 17.7 14.3 32 32 32zm224 0v48H96V320H288z"/></svg>