<svg xmlns="http://www.w3.org/2000/svg" viewBox="0 0 320 512"><!--! Font Awesome Pro 6.4.0 by @fontawesome - https://fontawesome.com License - https://fontawesome.com/license (Commercial License) Copyright 2023 Fonticons, Inc. --><path d="M64 16C64 7.2 71.2 0 80 0s16 7.2 16 16V64h64V16c0-8.8 7.2-16 16-16s16 7.2 16 16V64.3c53.7 4.1 96 49 96 103.7c0 31.3-13.9 59.4-35.8 78.5C291.8 261.2 320 299.3 320 344c0 57.4-46.6 104-104 104H192v48c0 8.8-7.2 16-16 16s-16-7.2-16-16V448H96v48c0 8.8-7.2 16-16 16s-16-7.2-16-16V448H41.7C18.7 448 0 429.3 0 406.3V272 240 101.6C0 80.8 16.8 64 37.6 64H64V16zM176 416h40c39.8 0 72-32.2 72-72s-32.2-72-72-72H184 32V406.3c0 5.4 4.4 9.7 9.7 9.7H80h96zm0-320H80 37.6c-3.1 0-5.6 2.5-5.6 5.6V240H184c39.8 0 72-32.2 72-72s-32.2-72-72-72h-8z"/></svg>