<svg xmlns="http://www.w3.org/2000/svg" viewBox="0 0 576 512"><!--! Font Awesome Pro 6.4.0 by @fontawesome - https://fontawesome.com License - https://fontawesome.com/license (Commercial License) Copyright 2023 Fonticons, Inc. --><path d="M226.8 32L535 32 519 96H368c-8.8 0-16 7.2-16 16s7.2 16 16 16H511l-16 64H368c-8.8 0-16 7.2-16 16s7.2 16 16 16H487L455 352H253.4L226.8 32zM487.1 355.4L566.1 39.8C571.1 19.6 555.8 0 535 0H226.8c-18.7 0-33.4 16-31.9 34.7l26.6 319.5c-35.3 8.3-61.5 40-61.5 77.9v32c0 26.5 21.5 48 48 48H496c26.5 0 48-21.5 48-48V432c0-36.1-24-66.7-56.9-76.6zM240 384H464c26.5 0 48 21.5 48 48v32c0 8.8-7.2 16-16 16H208c-8.8 0-16-7.2-16-16V432c0-26.5 21.5-48 48-48zm136 48a24 24 0 1 0 -48 0 24 24 0 1 0 48 0zM120.1 116.7L95 114.2c-15.5-1.5-29.9 8.4-34 23.5c-9.6 35.5-9.6 73 0 108.6c4.1 15.1 18.5 25 34 23.5l25.1-2.5 21.8 53.5L96.3 350C10.6 261.5 10.6 122.5 96.3 34l45.6 29.2-21.8 53.5zm45-76.6L108.4 3.8C99-2.2 86-.9 78.1 6.8C-26 109.1-26 274.9 78.1 377.2c7.9 7.8 20.9 9.1 30.3 3.1l56.7-36.4c9.6-6.1 13.4-17.9 9.2-28.3l-26.9-66.1c-3.9-9.7-13.9-15.6-24.5-14.6l-31.1 3c-8.2-30-8.2-61.8 0-91.8l31 3c10.6 1 20.5-4.9 24.5-14.6l26.9-66.1c4.2-10.4 .4-22.2-9.2-28.3z"/></svg>