<svg xmlns="http://www.w3.org/2000/svg" viewBox="0 0 512 512"><!--! Font Awesome Pro 6.4.0 by @fontawesome - https://fontawesome.com License - https://fontawesome.com/license (Commercial License) Copyright 2023 Fonticons, Inc. --><path d="M0 32C0 14.3 14.3 0 32 0H480c17.7 0 32 14.3 32 32V64c0 17.7-14.3 32-32 32H160V258.7c18.6 6.6 32 24.4 32 45.3c0 26.5-21.5 48-48 48s-48-21.5-48-48c0-20.9 13.4-38.7 32-45.3V96H32C14.3 96 0 81.7 0 64V32zm480 0H32V64H480V32zM96 192v32H20.9C9.3 224 0 214.7 0 203.1c0-2.1 .3-4.1 .9-6.1l21.2-69H55.6L35.9 192H96zm96 32V192H476.1l-19.7-64h33.5l21.2 69c.6 2 .9 4.1 .9 6.1c0 11.5-9.3 20.9-20.9 20.9H192zM65.6 288c-1 5.2-1.6 10.5-1.6 16s.6 10.8 1.6 16H20.9C9.3 320 0 310.7 0 299.1c0-2.1 .3-4.1 .9-6.1l11.4-37H45.8l-9.8 32H65.6zm156.8 32c1-5.2 1.6-10.5 1.6-16s-.6-10.8-1.6-16H476.1l-9.8-32h33.5l11.4 37c.6 2 .9 4.1 .9 6.1c0 11.5-9.3 20.9-20.9 20.9H222.4zM144 384H476.1l-9.8-32h33.5l11.4 37c.6 2 .9 4.1 .9 6.1c0 11.5-9.3 20.9-20.9 20.9H20.9C9.3 416 0 406.7 0 395.1c0-2.1 .3-4.1 .9-6.1l11.4-37H45.8l-9.8 32H144zm322.2 64h33.5l11.4 37c.6 2 .9 4.1 .9 6.1c0 11.5-9.3 20.9-20.9 20.9H20.9C9.3 512 0 502.7 0 491.1c0-2.1 .3-4.1 .9-6.1l11.4-37H45.8l-9.8 32H476.1l-9.8-32zM144 320a16 16 0 1 0 0-32 16 16 0 1 0 0 32z"/></svg>