<svg xmlns="http://www.w3.org/2000/svg" viewBox="0 0 448 512"><!--! Font Awesome Pro 6.4.0 by @fontawesome - https://fontawesome.com License - https://fontawesome.com/license (Commercial License) Copyright 2023 Fonticons, Inc. --><path d="M136 64v64h72 32 72V64H136zm-32 0H64C46.3 64 32 78.3 32 96v32h72V64zM32 160v80h72 32 72V160H32zm0 192h72V272H32v80zm0 32v32c0 17.7 14.3 32 32 32H208V384H136 104 32zm104-32H312V272H136v80zm208 0h72V272H344v80zm72 32H344 312 240v64H384c17.7 0 32-14.3 32-32V384zm0-224H240v80h72 32 72V160zm0-32V96c0-17.7-14.3-32-32-32H344v64h72zM0 96C0 60.7 28.7 32 64 32H384c35.3 0 64 28.7 64 64V416c0 35.3-28.7 64-64 64H64c-35.3 0-64-28.7-64-64V96z"/></svg>