<svg xmlns="http://www.w3.org/2000/svg" viewBox="0 0 448 512"><!--! Font Awesome Pro 6.4.0 by @fontawesome - https://fontawesome.com License - https://fontawesome.com/license (Commercial License) Copyright 2023 Fonticons, Inc. --><path d="M0 64C0 28.7 28.7 0 64 0H400c26.5 0 48 21.5 48 48V368c0 20.9-13.4 38.7-32 45.3V480h16c8.8 0 16 7.2 16 16s-7.2 16-16 16H64c-35.3 0-64-28.7-64-64l0 0L0 64zM64 416c-17.7 0-32 14.3-32 32s14.3 32 32 32H384V416H64zM32 392.6c9.4-5.4 20.3-8.6 32-8.6H96V32H64C46.3 32 32 46.3 32 64l0 328.6zM128 32V384H400c8.8 0 16-7.2 16-16V48c0-8.8-7.2-16-16-16H128z"/></svg>