<svg xmlns="http://www.w3.org/2000/svg" viewBox="0 0 448 512"><!--! Font Awesome Pro 6.4.0 by @fontawesome - https://fontawesome.com License - https://fontawesome.com/license (Commercial License) Copyright 2023 Fonticons, Inc. --><path d="M384 0c35.3 0 64 28.7 64 64l0 384 0 0c0 35.3-28.7 64-64 64H16c-8.8 0-16-7.2-16-16s7.2-16 16-16H32V413.3C13.4 406.7 0 388.9 0 368V48C0 21.5 21.5 0 48 0H384zM64 416v64H384c17.7 0 32-14.3 32-32s-14.3-32-32-32H64zm320-32c11.7 0 22.6 3.1 32 8.6L416 64c0-17.7-14.3-32-32-32H48c-8.8 0-16 7.2-16 16V368c0 8.8 7.2 16 16 16H384zM146.7 232l-13.9 24h27.7l-13.9-24zm-13.9-24l-27.7-48c-6.2-10.7 1.5-24 13.9-24h55.4l27.7-48c6.2-10.7 21.6-10.7 27.7 0l27.7 48H313c12.3 0 20 13.3 13.9 24l-27.7 48 27.7 48c6.2 10.7-1.5 24-13.9 24H257.6l-27.7 48c-6.2 10.7-21.6 10.7-27.7 0l-27.7-48H119c-12.3 0-20-13.3-13.9-24l27.7-48zm27.7 0l27.7 48h55.4l27.7-48-27.7-48H188.3l-27.7 48zm0-48H132.9l13.9 24 13.9-24zm41.6-24h27.7L216 112l-13.9 24zm69.3 24l13.9 24 13.9-24H271.4zm13.9 72l-13.9 24h27.7l-13.9-24zm-55.4 48H202.1L216 304l13.9-24z"/></svg>