<svg xmlns="http://www.w3.org/2000/svg" viewBox="0 0 448 512"><!--! Font Awesome Pro 6.4.0 by @fontawesome - https://fontawesome.com License - https://fontawesome.com/license (Commercial License) Copyright 2023 Fonticons, Inc. --><path d="M64 0C28.7 0 0 28.7 0 64L0 448l0 0c0 35.3 28.7 64 64 64H176V480H64c-17.7 0-32-14.3-32-32s14.3-32 32-32H176V384H64c-11.7 0-22.6 3.1-32 8.6L32 64c0-17.7 14.3-32 32-32H400c8.8 0 16 7.2 16 16V368c0 8.8-7.2 16-16 16H304v32h80v64H304v32H432c8.8 0 16-7.2 16-16s-7.2-16-16-16H416V413.3c18.6-6.6 32-24.4 32-45.3V48c0-26.5-21.5-48-48-48H64zm68.7 228.7c-6.2 6.2-6.2 16.4 0 22.6s16.4 6.2 22.6 0L224 182.6 224 496c0 8.8 7.2 16 16 16s16-7.2 16-16l0-313.4 68.7 68.7c6.2 6.2 16.4 6.2 22.6 0s6.2-16.4 0-22.6l-96-96c-6.2-6.2-16.4-6.2-22.6 0l-96 96z"/></svg>