<svg xmlns="http://www.w3.org/2000/svg" viewBox="0 0 448 512"><!--! Font Awesome Pro 6.4.0 by @fontawesome - https://fontawesome.com License - https://fontawesome.com/license (Commercial License) Copyright 2023 Fonticons, Inc. --><path d="M0 64C0 28.7 28.7 0 64 0H400c26.5 0 48 21.5 48 48V368c0 20.9-13.4 38.7-32 45.3V480h16c8.8 0 16 7.2 16 16s-7.2 16-16 16H64c-35.3 0-64-28.7-64-64l0 0L0 64zM64 416c-17.7 0-32 14.3-32 32s14.3 32 32 32H384V416H64zM32 392.6c9.4-5.4 20.3-8.6 32-8.6H400c8.8 0 16-7.2 16-16V48c0-8.8-7.2-16-16-16H64C46.3 32 32 46.3 32 64l0 328.6zM254.3 104.8l63.9 127.7c.1 .2 .2 .4 .3 .6l31.8 63.7c4 7.9 .7 17.5-7.2 21.5s-17.5 .7-21.5-7.2L294.1 256H185.9l-27.6 55.2c-4 7.9-13.6 11.1-21.5 7.2s-11.1-13.6-7.2-21.5l31.8-63.7c.1-.2 .2-.4 .3-.6l63.9-127.7c2.7-5.4 8.3-8.8 14.3-8.8s11.6 3.4 14.3 8.8zM278.1 224L240 147.8 201.9 224h76.2z"/></svg>