<svg xmlns="http://www.w3.org/2000/svg" viewBox="0 0 512 512"><!--! Font Awesome Pro 6.4.0 by @fontawesome - https://fontawesome.com License - https://fontawesome.com/license (Commercial License) Copyright 2023 Fonticons, Inc. --><path d="M32 32H352V96H32V32zM0 32V96v32H32 352c17.7 0 32-14.3 32-32V32c0-17.7-14.3-32-32-32H32C14.3 0 0 14.3 0 32zM240 160c-8.8 0-16 7.2-16 16s7.2 16 16 16h80v32H240c-8.8 0-16 7.2-16 16s7.2 16 16 16h90.8c3.4 3 7.4 5.3 12 6.7l91.6 27.5c27.1 8.1 45.6 33 45.6 61.3V384H32V160H0V384v31.7 .3 41.4c0 14.5 5.8 28.4 16 38.6s24.1 16 38.6 16H69.5c17 0 33.3-6.7 45.3-18.7l7.6-7.6c3.1-3.1 8.2-3.1 11.3 0l7.6 7.6c12 12 28.3 18.7 45.3 18.7h11c17 0 33.3-6.7 45.3-18.7l7.6-7.6c3.1-3.1 8.2-3.1 11.3 0l7.6 7.6c12 12 28.3 18.7 45.3 18.7h11c17 0 33.3-6.7 45.3-18.7l7.6-7.6c3.1-3.1 8.2-3.1 11.3 0l7.6 7.6c12 12 28.3 18.7 45.3 18.7h14.9c14.5 0 28.4-5.8 38.6-16s16-24.1 16-38.6V416v-.3V384 351.4c0-42.4-27.8-79.8-68.4-92L352 232V176c0-8.8-7.2-16-16-16H240zM480.3 416v41.4c0 6.1-2.4 11.9-6.7 16.2s-10.1 6.7-16.2 6.7H442.5c-8.6 0-16.8-3.4-22.9-9.5l-7.6-7.6c-15.5-15.5-40.6-15.5-56.1 0l22.4 22.4-22.4-22.4-7.6 7.6c-6.1 6.1-14.3 9.5-22.9 9.5h-11c-8.6 0-16.8-3.4-22.9-9.5l-7.6-7.6c-15.5-15.5-40.6-15.5-56.1 0l-7.6 7.6c-6.1 6.1-14.3 9.5-22.9 9.5h-11c-8.6 0-16.8-3.4-22.9-9.5l-7.6-7.6L134.3 485l21.8-21.8c-15.5-15.5-40.6-15.5-56.1 0l-7.6 7.6c-6.1 6.1-14.3 9.5-22.9 9.5H54.6c-6.1 0-11.9-2.4-16.2-6.7s-6.7-10.1-6.7-16.2V416H32 480h.3z"/></svg>