<svg xmlns="http://www.w3.org/2000/svg" viewBox="0 0 320 512"><!--! Font Awesome Pro 6.4.0 by @fontawesome - https://fontawesome.com License - https://fontawesome.com/license (Commercial License) Copyright 2023 Fonticons, Inc. --><path d="M128 96h2.7 58.6H192V32H128V96zm-32 6.3V96 24c0-13.3 10.7-24 24-24h80c13.3 0 24 10.7 24 24V96v6.3c6.4 2.4 12.6 5.5 18.4 9.2l13.6 8.6c20 12.7 32.1 34.8 32.1 58.5c0 10.9-2.5 21.2-7 30.4c4.5 9.4 7 19.9 7 31c0 11.5-2.7 22.3-7.5 32c4.8 9.7 7.5 20.5 7.5 32s-2.7 22.3-7.5 32c4.8 9.7 7.5 20.5 7.5 32c0 13.1-3.5 25.4-9.6 36c6.1 10.6 9.6 22.9 9.6 36c0 39.8-32.2 72-72 72H104c-39.8 0-72-32.2-72-72c0-13.1 3.5-25.4 9.6-36c-6.1-10.6-9.6-22.9-9.6-36c0-11.5 2.7-22.3 7.5-32c-4.8-9.7-7.5-20.5-7.5-32s2.7-22.3 7.5-32c-4.8-9.7-7.5-20.5-7.5-32c0-11.1 2.5-21.6 7-31c-4.5-9.2-7-19.5-7-30.4c0-23.7 12.1-45.8 32.1-58.5l13.6-8.6c5.8-3.7 12-6.8 18.4-9.2zM130.7 128c-12.7 0-25.1 3.6-35.9 10.5l-13.6 8.6C70.5 154 64 165.8 64 178.6c0 8.6 2.9 16.5 7.7 22.8c3.2 4.2 3.3 10.5 .2 14.7c-5 6.7-7.9 14.9-7.9 23.9c0 9.3 3.1 17.8 8.4 24.6c3.3 4.2 3.3 10.7 0 14.9C67.1 286.2 64 294.7 64 304s3.1 17.8 8.4 24.6c3.3 4.2 3.3 10.7 0 14.9C67.1 350.2 64 358.7 64 368c0 9.9 3.6 19 9.6 26c4.3 5.1 4.3 14.9 0 20c-6 7-9.6 16.1-9.6 26c0 22.1 17.9 40 40 40H216c22.1 0 40-17.9 40-40c0-9.9-3.6-19-9.6-26c-4.3-5.1-4.3-14.9 0-20c6-7 9.6-16.1 9.6-26c0-9.3-3.1-17.8-8.4-24.6c-3.3-4.2-3.3-10.7 0-14.9c5.3-6.8 8.4-15.3 8.4-24.6s-3.1-17.8-8.4-24.6c-3.3-4.2-3.3-10.7 0-14.9c5.3-6.8 8.4-15.3 8.4-24.6c0-8.9-2.9-17.2-7.9-23.9c-3.1-4.2-3-10.6 .2-14.7c4.8-6.3 7.7-14.2 7.7-22.8c0-12.8-6.5-24.7-17.3-31.5l-13.6-8.6C214.5 131.6 202 128 189.3 128H130.7zM96 240c0-8.8 7.2-16 16-16h96c8.8 0 16 7.2 16 16s-7.2 16-16 16H112c-8.8 0-16-7.2-16-16zm16 112h96c8.8 0 16 7.2 16 16s-7.2 16-16 16H112c-8.8 0-16-7.2-16-16s7.2-16 16-16z"/></svg>