<svg xmlns="http://www.w3.org/2000/svg" viewBox="0 0 512 512"><!--! Font Awesome Pro 6.4.0 by @fontawesome - https://fontawesome.com License - https://fontawesome.com/license (Commercial License) Copyright 2023 Fonticons, Inc. --><path d="M256 0c-5.9 0-11.3 3.2-14.1 8.5s-2.5 11.5 .8 16.4l10.8 16.3c1.6 2.4 2.5 5.3 2.5 8.2c0 8.1-6.6 14.7-14.7 14.7H164c-37.6 0-68 30.4-68 68c0 10.2 2.3 19.9 6.3 28.6C62.7 165.4 32 199.1 32 240c0 44.2 35.8 80 80 80H400c44.2 0 80-35.8 80-80c0-41.4-31.4-75.4-71.7-79.6c4.9-9.7 7.7-20.8 7.7-32.4C416 57.3 358.7 0 288 0H256zm32 49.3c0-6-1.1-11.8-3.3-17.3H288c53 0 96 43 96 96c0 13.1-6.3 24.7-16 32H280c-8.8 0-16 7.2-16 16s7.2 16 16 16h92.9H384h16c26.5 0 48 21.5 48 48s-21.5 48-48 48H112c-26.5 0-48-21.5-48-48s21.5-48 48-48h16 8.3H168c8.8 0 16-7.2 16-16s-7.2-16-16-16H141.4c-8.2-6.6-13.4-16.7-13.4-28c0-19.9 16.1-36 36-36h77.3C267.1 96 288 75.1 288 49.3zM64 336c0-8.8-7.2-16-16-16s-16 7.2-16 16v8c0 57.4 46.6 104 104 104h46.1l-20.4 40.8c-2.5 5-2.2 10.9 .7 15.6s8.1 7.6 13.6 7.6H336c5.5 0 10.7-2.9 13.6-7.6s3.2-10.6 .7-15.6L329.9 448H376c57.4 0 104-46.6 104-104v-8c0-8.8-7.2-16-16-16s-16 7.2-16 16v8c0 39.8-32.2 72-72 72H304c-5.5 0-10.7 2.9-13.6 7.6s-3.2 10.6-.7 15.6L310.1 480H201.9l20.4-40.8c2.5-5 2.2-10.9-.7-15.6s-8.1-7.6-13.6-7.6H136c-39.8 0-72-32.2-72-72v-8z"/></svg>