<svg xmlns="http://www.w3.org/2000/svg" viewBox="0 0 448 512"><!--! Font Awesome Pro 6.4.0 by @fontawesome - https://fontawesome.com License - https://fontawesome.com/license (Commercial License) Copyright 2023 Fonticons, Inc. --><path d="M240 64H342.4c12.6 0 24.1 7.4 29.2 19l34.2 77H240V64zm0 128H416V416c0 17.7-14.3 32-32 32H64c-17.7 0-32-14.3-32-32V192H208h32zm-32-32H42.1L76.3 83c5.1-11.6 16.6-19 29.2-19H208v96zM400.9 70c-10.3-23.1-33.2-38-58.5-38H105.6C80.3 32 57.4 46.9 47.1 70L5.5 163.6c-3.6 8.2-5.5 17-5.5 26V416c0 35.3 28.7 64 64 64H384c35.3 0 64-28.7 64-64V189.6c0-9-1.9-17.8-5.5-26L400.9 70zM331.3 251.3c6.2-6.2 6.2-16.4 0-22.6s-16.4-6.2-22.6 0L192 345.4l-52.7-52.7c-6.2-6.2-16.4-6.2-22.6 0s-6.2 16.4 0 22.6l64 64c6.2 6.2 16.4 6.2 22.6 0l128-128z"/></svg>