<svg xmlns="http://www.w3.org/2000/svg" viewBox="0 0 448 512"><!--! Font Awesome Pro 6.4.0 by @fontawesome - https://fontawesome.com License - https://fontawesome.com/license (Commercial License) Copyright 2023 Fonticons, Inc. --><path d="M342.4 64H240v96H405.9L371.7 83c-5.1-11.6-16.6-19-29.2-19zM416 192H240 208 32V416c0 17.7 14.3 32 32 32H384c17.7 0 32-14.3 32-32V192zM42.1 160H208V64H105.6c-12.6 0-24.1 7.4-29.2 19L42.1 160zM342.4 32c25.3 0 48.2 14.9 58.5 38l41.6 93.6c3.6 8.2 5.5 17 5.5 26V416c0 35.3-28.7 64-64 64H64c-35.3 0-64-28.7-64-64V189.6c0-9 1.9-17.8 5.5-26L47.1 70c10.3-23.1 33.2-38 58.5-38H342.4z"/></svg>