<svg xmlns="http://www.w3.org/2000/svg" viewBox="0 0 576 512"><!--! Font Awesome Pro 6.4.0 by @fontawesome - https://fontawesome.com License - https://fontawesome.com/license (Commercial License) Copyright 2023 Fonticons, Inc. --><path d="M384 32c17.7 0 32 14.3 32 32V192h32V64c0-35.3-28.7-64-64-64H320 256 192c-35.3 0-64 28.7-64 64V192h32V64c0-17.7 14.3-32 32-32h32V88c0 22.1 17.9 40 40 40h48c22.1 0 40-17.9 40-40V32h32zM256 32h64V88c0 4.4-3.6 8-8 8H264c-4.4 0-8-3.6-8-8V32zm71.6 480H512c35.3 0 64-28.7 64-64V288c0-35.3-28.7-64-64-64H448 384 327.6c8.3 9.2 14.8 20.1 19 32H352v31.9 .1 24c0 22.1 17.9 40 40 40h48c22.1 0 40-17.9 40-40V256h32c17.7 0 32 14.3 32 32V448c0 17.7-14.3 32-32 32H346.5c-4.2 11.9-10.7 22.8-19 32zM384 256h64v56c0 4.4-3.6 8-8 8H392c-4.4 0-8-3.6-8-8V256zm-128 0c17.7 0 32 14.3 32 32V448c0 17.7-14.3 32-32 32H64c-17.7 0-32-14.3-32-32V288c0-17.7 14.3-32 32-32H96v56c0 22.1 17.9 40 40 40h48c22.1 0 40-17.9 40-40V256h32zM128 312V256h64v56c0 4.4-3.6 8-8 8H136c-4.4 0-8-3.6-8-8zm128-88H224 192 128 96 64c-35.3 0-64 28.7-64 64V448c0 35.3 28.7 64 64 64H256c35.3 0 64-28.7 64-64V288c0-35.3-28.7-64-64-64z"/></svg>