<svg xmlns="http://www.w3.org/2000/svg" viewBox="0 0 448 512"><!--! Font Awesome Pro 6.4.0 by @fontawesome - https://fontawesome.com License - https://fontawesome.com/license (Commercial License) Copyright 2023 Fonticons, Inc. --><path d="M32 112c0-44.2 35.8-80 80-80H272c44.2 0 80 35.8 80 80v16H336c-38.7 0-71 27.5-78.4 64H144c-26.5 0-48-21.5-48-48v-8c0-8.8-7.2-16-16-16s-16 7.2-16 16v8c0 44.2 35.8 80 80 80H257.6c7.4 36.5 39.7 64 78.4 64c8.8 0 16-7.2 16-16s-7.2-16-16-16c-26.5 0-48-21.5-48-48s21.5-48 48-48h32c26.5 0 48 21.5 48 48v38.9c0 17-6.7 33.3-18.7 45.3L336.4 353c-10.5 10.5-16.4 24.7-16.4 39.6V456c0 13.3-10.7 24-24 24H88c-13.3 0-24-10.7-24-24V351.6c0-4.6-1.9-8.9-5.3-11.9C42.3 325 32 303.7 32 280V112zM112 0C50.1 0 0 50.1 0 112V280c0 30.5 12.2 58.2 32 78.4V456c0 30.9 25.1 56 56 56H296c30.9 0 56-25.1 56-56V392.6c0-6.4 2.5-12.5 7-17l60.9-60.9c18-18 28.1-42.4 28.1-67.9V208c0-38.7-27.5-71-64-78.4V112C384 50.1 333.9 0 272 0H112zm40.9 338.7c-7.4-4.9-17.3-2.9-22.2 4.4s-2.9 17.3 4.4 22.2l28 18.7-28 18.7c-7.4 4.9-9.3 14.8-4.4 22.2s14.8 9.3 22.2 4.4L192 403.2l39.1 26.1c7.4 4.9 17.3 2.9 22.2-4.4s2.9-17.3-4.4-22.2l-28-18.7 28-18.7c7.4-4.9 9.3-14.8 4.4-22.2s-14.8-9.3-22.2-4.4L192 364.8l-39.1-26.1z"/></svg>