<svg xmlns="http://www.w3.org/2000/svg" viewBox="0 0 640 512"><!--! Font Awesome Pro 6.4.0 by @fontawesome - https://fontawesome.com License - https://fontawesome.com/license (Commercial License) Copyright 2023 Fonticons, Inc. --><path d="M128 0c6.4 0 11.9 3.7 14.5 9.2l6.6 13.2C181.4 87.1 247.6 128 320 128s138.6-40.9 170.9-105.6l6.6-13.2C500.1 3.7 505.6 0 512 0c7.2 0 13.3 4.7 15.3 11.3c14.5 43 58.7 87.5 102.6 104.9c8.2 3.3 12.2 12.6 9 20.8s-12.6 12.2-20.8 9c-33-13.1-66-38.6-90.1-69.1V256h96c8.8 0 16 7.2 16 16s-7.2 16-16 16H16c-8.8 0-16-7.2-16-16s7.2-16 16-16h96V76.8c-24.1 30.5-57.1 56-90.1 69.1c-8.2 3.3-17.5-.8-20.8-9s.8-17.5 9-20.8C54 98.7 98.2 54.3 112.7 11.3C114.7 4.7 120.8 0 128 0zm16 256h64V129.9c-24.5-14.2-46.3-33.1-64-55.8V256zm96 0h64V159.4c-22.2-1.6-43.7-6.5-64-14.3V256zm96 0h64V145.2c-20.3 7.8-41.8 12.7-64 14.3V256zm96 0h64V74c-17.7 22.7-39.5 41.6-64 55.8V256zM16 320H32c53 0 96 43 96 96v48c0 8.8 7.2 16 16 16h32c8.8 0 16-7.2 16-16V448c0-70.7 57.3-128 128-128s128 57.3 128 128v16c0 8.8 7.2 16 16 16h32c8.8 0 16-7.2 16-16V416c0-53 43-96 96-96h16c8.8 0 16 7.2 16 16s-7.2 16-16 16H608c-35.3 0-64 28.7-64 64v48c0 26.5-21.5 48-48 48H464c-26.5 0-48-21.5-48-48V448c0-53-43-96-96-96s-96 43-96 96v16c0 26.5-21.5 48-48 48H144c-26.5 0-48-21.5-48-48V416c0-35.3-28.7-64-64-64H16c-8.8 0-16-7.2-16-16s7.2-16 16-16z"/></svg>