<svg xmlns="http://www.w3.org/2000/svg" viewBox="0 0 640 512"><!--! Font Awesome Pro 6.4.0 by @fontawesome - https://fontawesome.com License - https://fontawesome.com/license (Commercial License) Copyright 2023 Fonticons, Inc. --><path d="M48 32h80H256 384 512h80c8.8 0 16 7.2 16 16s-7.2 16-16 16H528v64h64c8.8 0 16 7.2 16 16s-7.2 16-16 16H528 512 384 256 128 48c-8.8 0-16-7.2-16-16s7.2-16 16-16h64V64H48c-8.8 0-16-7.2-16-16s7.2-16 16-16zM320 240c40.6 0 75.4 25.3 89.4 60.9C394 312.6 384 331.2 384 352V336c0-35.3-28.7-64-64-64s-64 28.7-64 64v96c0 26.5-21.5 48-48 48H176c-26.5 0-48-21.5-48-48V336c0-35.3-28.7-64-64-64H48c-8.8 0-16-7.2-16-16s7.2-16 16-16H64c53 0 96 43 96 96v96c0 8.8 7.2 16 16 16h32c8.8 0 16-7.2 16-16V336c0-53 43-96 96-96zM496 64H400v64h96V64zM368 64H272v64h96V64zM240 64H144v64h96V64zM528 224c-26.5 0-48 21.5-48 48v48h96V272c0-26.5-21.5-48-48-48zm-80 48c0-44.2 35.8-80 80-80s80 35.8 80 80v48c17.7 0 32 14.3 32 32V480c0 17.7-14.3 32-32 32H448c-17.7 0-32-14.3-32-32V352c0-17.7 14.3-32 32-32V272zm0 80V480H608V352H448z"/></svg>