<svg xmlns="http://www.w3.org/2000/svg" viewBox="0 0 512 512"><!--! Font Awesome Pro 6.4.0 by @fontawesome - https://fontawesome.com License - https://fontawesome.com/license (Commercial License) Copyright 2023 Fonticons, Inc. --><path d="M176 32H336c8.8 0 16 7.2 16 16V96H160V48c0-8.8 7.2-16 16-16zM128 48V96H64C28.7 96 0 124.7 0 160V416c0 35.3 28.7 64 64 64H448c35.3 0 64-28.7 64-64V160c0-35.3-28.7-64-64-64H384V48c0-26.5-21.5-48-48-48H176c-26.5 0-48 21.5-48 48zm16 80H368h80c17.7 0 32 14.3 32 32V416c0 17.7-14.3 32-32 32H64c-17.7 0-32-14.3-32-32V160c0-17.7 14.3-32 32-32h80zm96 48c-17.7 0-32 14.3-32 32v32H176c-17.7 0-32 14.3-32 32v32c0 17.7 14.3 32 32 32h32v32c0 17.7 14.3 32 32 32h32c17.7 0 32-14.3 32-32V336h32c17.7 0 32-14.3 32-32V272c0-17.7-14.3-32-32-32H304V208c0-17.7-14.3-32-32-32H240zm0 32h32v48c0 8.8 7.2 16 16 16h48v32H288c-8.8 0-16 7.2-16 16v48H240V320c0-8.8-7.2-16-16-16H176V272h48c4.2 0 8.3-1.7 11.3-4.7s4.7-7.1 4.7-11.3V208z"/></svg>