<svg xmlns="http://www.w3.org/2000/svg" viewBox="0 0 512 512"><!--! Font Awesome Pro 6.4.0 by @fontawesome - https://fontawesome.com License - https://fontawesome.com/license (Commercial License) Copyright 2023 Fonticons, Inc. --><path d="M160 48V96H352V48c0-8.8-7.2-16-16-16H176c-8.8 0-16 7.2-16 16zM128 96V48c0-26.5 21.5-48 48-48H336c26.5 0 48 21.5 48 48V96h64c35.3 0 64 28.7 64 64V416c0 35.3-28.7 64-64 64H64c-35.3 0-64-28.7-64-64V160c0-35.3 28.7-64 64-64h64zm240 32H144 64c-17.7 0-32 14.3-32 32V416c0 17.7 14.3 32 32 32H448c17.7 0 32-14.3 32-32V160c0-17.7-14.3-32-32-32H368z"/></svg>