<svg xmlns="http://www.w3.org/2000/svg" viewBox="0 0 512 512"><!--! Font Awesome Pro 6.4.0 by @fontawesome - https://fontawesome.com License - https://fontawesome.com/license (Commercial License) Copyright 2023 Fonticons, Inc. --><path d="M176 32H336c8.8 0 16 7.2 16 16V96H160V48c0-8.8 7.2-16 16-16zM128 48V96H64C28.7 96 0 124.7 0 160V416c0 35.3 28.7 64 64 64H448c35.3 0 64-28.7 64-64V160c0-35.3-28.7-64-64-64H384V48c0-26.5-21.5-48-48-48H176c-26.5 0-48 21.5-48 48zm16 80H368h80c17.7 0 32 14.3 32 32V416c0 17.7-14.3 32-32 32H64c-17.7 0-32-14.3-32-32V160c0-17.7 14.3-32 32-32h80zm155.3 68.7c-6.2-6.2-16.4-6.2-22.6 0s-6.2 16.4 0 22.6L329.4 272H144c-8.8 0-16 7.2-16 16s7.2 16 16 16H329.4l-52.7 52.7c-6.2 6.2-6.2 16.4 0 22.6s16.4 6.2 22.6 0l80-80c6.2-6.2 6.2-16.4 0-22.6l-80-80z"/></svg>