<svg xmlns="http://www.w3.org/2000/svg" viewBox="0 0 384 512"><!--! Font Awesome Pro 6.4.0 by @fontawesome - https://fontawesome.com License - https://fontawesome.com/license (Commercial License) Copyright 2023 Fonticons, Inc. --><path d="M320 32H64c-11.8 0-22.2 6.4-27.7 16H2C9.1 20.4 34.2 0 64 0H320c29.8 0 54.9 20.4 62 48H347.7c-5.5-9.6-15.9-16-27.7-16zM0 240H32V448c0 17.7 14.3 32 32 32h64V416c0-35.3 28.7-64 64-64s64 28.7 64 64v64h64c17.7 0 32-14.3 32-32V240h32V448c0 35.3-28.7 64-64 64H256 224 160 128 64c-35.3 0-64-28.7-64-64V240zM192 384c-17.7 0-32 14.3-32 32v64h64V416c0-17.7-14.3-32-32-32zM168 80h48c8.8 0 16 7.2 16 16s-7.2 16-16 16H184v64h16V160c0-8.8 7.2-16 16-16s16 7.2 16 16v24c0 13.3-10.7 24-24 24H176c-13.3 0-24-10.7-24-24V96c0-8.8 7.2-16 16-16zm136 32c-8.8 0-16 7.2-16 16v32c0 8.8 7.2 16 16 16s16-7.2 16-16V128c0-8.8-7.2-16-16-16zm-48 16c0-26.5 21.5-48 48-48s48 21.5 48 48v32c0 26.5-21.5 48-48 48s-48-21.5-48-48V128zM61.3 87.1l34.7 52V96c0-8.8 7.2-16 16-16s16 7.2 16 16v96c0 7.1-4.6 13.3-11.4 15.3s-14-.6-17.9-6.4L64 148.8V192c0 8.8-7.2 16-16 16s-16-7.2-16-16V96c0-7.1 4.6-13.3 11.4-15.3s14 .6 17.9 6.4zM208 264c0-13.3 10.7-24 24-24h48c13.3 0 24 10.7 24 24v48c0 13.3-10.7 24-24 24H232c-13.3 0-24-10.7-24-24V264zm32 8v32h32V272H240zM104 240h48c13.3 0 24 10.7 24 24v48c0 13.3-10.7 24-24 24H104c-13.3 0-24-10.7-24-24V264c0-13.3 10.7-24 24-24zm8 64h32V272H112v32z"/></svg>