<svg xmlns="http://www.w3.org/2000/svg" viewBox="0 0 384 512"><!--! Font Awesome Pro 6.4.0 by @fontawesome - https://fontawesome.com License - https://fontawesome.com/license (Commercial License) Copyright 2023 Fonticons, Inc. --><path d="M64 32C46.3 32 32 46.3 32 64V448c0 17.7 14.3 32 32 32h64V416c0-35.3 28.7-64 64-64s64 28.7 64 64v64h64c17.7 0 32-14.3 32-32V64c0-17.7-14.3-32-32-32H64zM224 416c0-17.7-14.3-32-32-32s-32 14.3-32 32v64h64V416zm-96 96H64c-35.3 0-64-28.7-64-64V64C0 28.7 28.7 0 64 0H320c35.3 0 64 28.7 64 64V448c0 35.3-28.7 64-64 64H256 224 160 128zM248 224h48c13.3 0 24 10.7 24 24v48c0 13.3-10.7 24-24 24H248c-13.3 0-24-10.7-24-24V248c0-13.3 10.7-24 24-24zm8 64h32V256H256v32zM64 248c0-13.3 10.7-24 24-24h48c13.3 0 24 10.7 24 24v48c0 13.3-10.7 24-24 24H88c-13.3 0-24-10.7-24-24V248zm32 8v32h32V256H96zM237.3 71.1l34.7 52V80c0-8.8 7.2-16 16-16s16 7.2 16 16v96c0 7.1-4.6 13.3-11.4 15.3s-14-.6-17.9-6.4l-34.7-52V176c0 8.8-7.2 16-16 16s-16-7.2-16-16V80c0-7.1 4.6-13.3 11.4-15.3s14 .6 17.9 6.4zM112 80v64c0 8.8 7.2 16 16 16s16-7.2 16-16V80c0-8.8 7.2-16 16-16s16 7.2 16 16v64c0 26.5-21.5 48-48 48s-48-21.5-48-48V80c0-8.8 7.2-16 16-16s16 7.2 16 16z"/></svg>