<svg xmlns="http://www.w3.org/2000/svg" viewBox="0 0 640 512"><!--! Font Awesome Pro 6.4.0 by @fontawesome - https://fontawesome.com License - https://fontawesome.com/license (Commercial License) Copyright 2023 Fonticons, Inc. --><path d="M64 32H320c17.7 0 32 14.3 32 32V266.8c9.1-12.9 19.9-24.5 32-34.6V64c0-35.3-28.7-64-64-64H64C28.7 0 0 28.7 0 64V448c0 35.3 28.7 64 64 64h64 32 64 32 64c19.5 0 37-8.7 48.7-22.5c-7.7-8-14.6-16.8-20.6-26.1c-5.4 9.9-16 16.6-28.1 16.6H256V416c0-35.3-28.7-64-64-64s-64 28.7-64 64v64H64c-17.7 0-32-14.3-32-32V64c0-17.7 14.3-32 32-32zM224 416v64H160V416c0-17.7 14.3-32 32-32s32 14.3 32 32zM64 120v48c0 13.3 10.7 24 24 24h48c13.3 0 24-10.7 24-24V120c0-13.3-10.7-24-24-24H88c-13.3 0-24 10.7-24 24zm32 8h32v32H96V128zM248 96c-13.3 0-24 10.7-24 24v48c0 13.3 10.7 24 24 24h48c13.3 0 24-10.7 24-24V120c0-13.3-10.7-24-24-24H248zm8 64V128h32v32H256zM64 248v48c0 13.3 10.7 24 24 24h48c13.3 0 24-10.7 24-24V248c0-13.3-10.7-24-24-24H88c-13.3 0-24 10.7-24 24zm32 8h32v32H96V256zm152-32c-13.3 0-24 10.7-24 24v48c0 13.3 10.7 24 24 24h48c13.3 0 24-10.7 24-24V248c0-13.3-10.7-24-24-24H248zm8 64V256h32v32H256zm240-32a112 112 0 1 1 0 224 112 112 0 1 1 0-224zm0 256a144 144 0 1 0 0-288 144 144 0 1 0 0 288zm-3.3-211.3c-6.2 6.2-6.2 16.4 0 22.6L521.4 352H432c-8.8 0-16 7.2-16 16s7.2 16 16 16h89.4l-28.7 28.7c-6.2 6.2-6.2 16.4 0 22.6s16.4 6.2 22.6 0l56-56c6.2-6.2 6.2-16.4 0-22.6l-56-56c-6.2-6.2-16.4-6.2-22.6 0z"/></svg>