<svg xmlns="http://www.w3.org/2000/svg" viewBox="0 0 640 512"><!--! Font Awesome Pro 6.4.0 by @fontawesome - https://fontawesome.com License - https://fontawesome.com/license (Commercial License) Copyright 2023 Fonticons, Inc. --><path d="M64 32H320c17.7 0 32 14.3 32 32V393.4c9.2-10.2 20-18.9 32-25.6V271.8 64c0-35.3-28.7-64-64-64H64C28.7 0 0 28.7 0 64V448c0 35.3 28.7 64 64 64h64 32 64 32 64c3.2 0 6.4-.2 9.5-.7c-5.5-9.2-8.9-19.9-9.4-31.3l-.1 0H256V416c0-35.3-28.7-64-64-64s-64 28.7-64 64v64H64c-17.7 0-32-14.3-32-32V64c0-17.7 14.3-32 32-32zM224 416v64H160V416c0-17.7 14.3-32 32-32s32 14.3 32 32zM64 120v48c0 13.3 10.7 24 24 24h48c13.3 0 24-10.7 24-24V120c0-13.3-10.7-24-24-24H88c-13.3 0-24 10.7-24 24zm32 8h32v32H96V128zM248 96c-13.3 0-24 10.7-24 24v48c0 13.3 10.7 24 24 24h48c13.3 0 24-10.7 24-24V120c0-13.3-10.7-24-24-24H248zm8 64V128h32v32H256zM64 248v48c0 13.3 10.7 24 24 24h48c13.3 0 24-10.7 24-24V248c0-13.3-10.7-24-24-24H88c-13.3 0-24 10.7-24 24zm32 8h32v32H96V256zm152-32c-13.3 0-24 10.7-24 24v48c0 13.3 10.7 24 24 24h48c13.3 0 24-10.7 24-24V248c0-13.3-10.7-24-24-24H248zm8 64V256h32v32H256zm192-16a48 48 0 1 1 96 0 48 48 0 1 1 -96 0zm128 0a80 80 0 1 0 -160 0 80 80 0 1 0 160 0zM384 477.1c0-33.7 27.4-61.1 61.1-61.1H546.9c33.7 0 61.1 27.4 61.1 61.1c0 1.6-1.3 2.9-2.9 2.9H386.9c-1.6 0-2.9-1.3-2.9-2.9zM445.1 384c-51.4 0-93.1 41.7-93.1 93.1c0 19.3 15.6 34.9 34.9 34.9H605.1c19.3 0 34.9-15.6 34.9-34.9c0-51.4-41.7-93.1-93.1-93.1H496 445.1z"/></svg>