<svg xmlns="http://www.w3.org/2000/svg" viewBox="0 0 576 512"><!--! Font Awesome Pro 6.4.0 by @fontawesome - https://fontawesome.com License - https://fontawesome.com/license (Commercial License) Copyright 2023 Fonticons, Inc. --><path d="M320 32H64C46.3 32 32 46.3 32 64V448c0 17.7 14.3 32 32 32h64V416c0-35.3 28.7-64 64-64s64 28.7 64 64v64h64c1.3 0 2.6-.1 3.9-.2c7.9 8.6 16.6 16.9 26.3 24.7c-9 4.8-19.3 7.6-30.2 7.6H256 224 160 128 64c-35.3 0-64-28.7-64-64V64C0 28.7 28.7 0 64 0H320c35.3 0 64 28.7 64 64V207l-32 12.8V64c0-17.7-14.3-32-32-32zM272 240c-8.8 0-16 7.2-16 16v32 8.2V320h-8c-13.3 0-24-10.7-24-24V248c0-13.3 10.7-24 24-24h48c8.2 0 15.4 4.1 19.7 10.3L301.6 240H272zM192 384c-17.7 0-32 14.3-32 32v64h64V416c0-17.7-14.3-32-32-32zM88 96h48c13.3 0 24 10.7 24 24v48c0 13.3-10.7 24-24 24H88c-13.3 0-24-10.7-24-24V120c0-13.3 10.7-24 24-24zm8 64h32V128H96v32zm128-40c0-13.3 10.7-24 24-24h48c13.3 0 24 10.7 24 24v48c0 13.3-10.7 24-24 24H248c-13.3 0-24-10.7-24-24V120zm32 8v32h32V128H256zM88 224h48c13.3 0 24 10.7 24 24v48c0 13.3-10.7 24-24 24H88c-13.3 0-24-10.7-24-24V248c0-13.3 10.7-24 24-24zm8 64h32V256H96v32zm224.1 13.4c1.3 53 22.6 129.5 95.9 170V263l-95.9 38.4zm223.9 0L448 263V471.4c73.4-40.5 94.6-117.1 95.9-170zm-103-75.7l120 48C570 277.4 576 286.2 576 296c0 63.3-25.9 168.8-134.8 214.2c-5.9 2.5-12.6 2.5-18.5 0C313.9 464.8 288 359.3 288 296c0-9.8 6-18.6 15.1-22.3l120-48c5.7-2.3 12.1-2.3 17.8 0z"/></svg>