<svg xmlns="http://www.w3.org/2000/svg" viewBox="0 0 512 512"><!--! Font Awesome Pro 6.4.0 by @fontawesome - https://fontawesome.com License - https://fontawesome.com/license (Commercial License) Copyright 2023 Fonticons, Inc. --><path d="M448 32c17.7 0 32 14.3 32 32V448c0 17.7-14.3 32-32 32H288c-17.7 0-32-14.3-32-32V64c0-17.7 14.3-32 32-32H448zM288 0c-35.3 0-64 28.7-64 64V448c0 35.3 28.7 64 64 64H448c35.3 0 64-28.7 64-64V64c0-35.3-28.7-64-64-64H288zM192 128H64c-35.3 0-64 28.7-64 64V448c0 35.3 28.7 64 64 64H216.4c-8.3-9.2-14.8-20.1-19-32H64c-17.7 0-32-14.3-32-32V192c0-17.7 14.3-32 32-32H192V128zM88 320c-13.3 0-24 10.7-24 24v48c0 13.3 10.7 24 24 24h48c13.3 0 24-10.7 24-24V344c0-13.3-10.7-24-24-24H88zm8 64V352h32v32H96zm224 8c0 13.3 10.7 24 24 24h48c13.3 0 24-10.7 24-24V344c0-13.3-10.7-24-24-24H344c-13.3 0-24 10.7-24 24v48zm32-8V352h32v32H352zM88 192c-13.3 0-24 10.7-24 24v48c0 13.3 10.7 24 24 24h48c13.3 0 24-10.7 24-24V216c0-13.3-10.7-24-24-24H88zm8 64V224h32v32H96zM320 88v48c0 13.3 10.7 24 24 24h48c13.3 0 24-10.7 24-24V88c0-13.3-10.7-24-24-24H344c-13.3 0-24 10.7-24 24zm32 8h32v32H352V96zm-8 192h48c13.3 0 24-10.7 24-24V216c0-13.3-10.7-24-24-24H344c-13.3 0-24 10.7-24 24v48c0 13.3 10.7 24 24 24zm8-64h32v32H352V224z"/></svg>