<svg xmlns="http://www.w3.org/2000/svg" viewBox="0 0 640 512"><!--! Font Awesome Pro 6.4.0 by @fontawesome - https://fontawesome.com License - https://fontawesome.com/license (Commercial License) Copyright 2023 Fonticons, Inc. --><path d="M320 32c17.7 0 32 14.3 32 32V448c0 17.7-14.3 32-32 32H256V416c0-35.3-28.7-64-64-64s-64 28.7-64 64v64H64c-17.7 0-32-14.3-32-32V64c0-17.7 14.3-32 32-32H320zM192 384c17.7 0 32 14.3 32 32v64H160V416c0-17.7 14.3-32 32-32zM64 512h64 32 64 32 64c35.3 0 64-28.7 64-64V64c0-35.3-28.7-64-64-64H64C28.7 0 0 28.7 0 64V448c0 35.3 28.7 64 64 64zM88 96c-13.3 0-24 10.7-24 24v48c0 13.3 10.7 24 24 24h48c13.3 0 24-10.7 24-24V120c0-13.3-10.7-24-24-24H88zm8 64V128h32v32H96zm128-40v48c0 13.3 10.7 24 24 24h48c13.3 0 24-10.7 24-24V120c0-13.3-10.7-24-24-24H248c-13.3 0-24 10.7-24 24zm32 8h32v32H256V128zM88 224c-13.3 0-24 10.7-24 24v48c0 13.3 10.7 24 24 24h48c13.3 0 24-10.7 24-24V248c0-13.3-10.7-24-24-24H88zm8 64V256h32v32H96zm128-40v48c0 13.3 10.7 24 24 24h48c13.3 0 24-10.7 24-24V248c0-13.3-10.7-24-24-24H248c-13.3 0-24 10.7-24 24zm32 8h32v32H256V256zm368-64H608c-33.4 0-62.8 17-80 42.9C510.8 209 481.4 192 448 192H432c-8.8 0-16 7.2-16 16v16c0 24.6 9.2 47 24.4 64H432c-8.8 0-16 7.2-16 16v16c0 24.6 9.2 47 24.4 64H432c-8.8 0-16 7.2-16 16v16c0 53 43 96 96 96h16 16c53 0 96-43 96-96V400c0-8.8-7.2-16-16-16h-8.4c15.2-17 24.4-39.4 24.4-64V304c0-8.8-7.2-16-16-16h-8.4c15.2-17 24.4-39.4 24.4-64V208c0-8.8-7.2-16-16-16zm-80 96c0-35.3 28.7-64 64-64c0 35.3-28.7 64-64 64v0zm-32 0c-35.3 0-64-28.7-64-64c35.3 0 64 28.7 64 64zm16 32h8.4c-3.1 3.4-5.9 7.1-8.4 10.9c-2.6-3.8-5.4-7.5-8.4-10.9H528zm0 106.9c-2.6-3.8-5.4-7.5-8.4-10.9H528h8.4c-3.1 3.4-5.9 7.1-8.4 10.9zM544 384v0c0-35.3 28.7-64 64-64c0 35.3-28.7 64-64 64zm-32 0c-35.3 0-64-28.7-64-64c35.3 0 64 28.7 64 64zm32 96c0-35.3 28.7-64 64-64c0 35.3-28.7 64-64 64v0zm-32 0c-35.3 0-64-28.7-64-64c35.3 0 64 28.7 64 64zM528 32c-8.8 0-16 7.2-16 16V160c0 8.8 7.2 16 16 16s16-7.2 16-16V48c0-8.8-7.2-16-16-16zm64 48c-8.8 0-16 7.2-16 16v48c0 8.8 7.2 16 16 16s16-7.2 16-16V96c0-8.8-7.2-16-16-16zM448 144c0 8.8 7.2 16 16 16s16-7.2 16-16V96c0-8.8-7.2-16-16-16s-16 7.2-16 16v48z"/></svg>