<svg xmlns="http://www.w3.org/2000/svg" viewBox="0 0 512 512"><!--! Font Awesome Pro 6.4.0 by @fontawesome - https://fontawesome.com License - https://fontawesome.com/license (Commercial License) Copyright 2023 Fonticons, Inc. --><path d="M416 44.2c0-7.2-8.8-10.8-13.8-5.5L378.4 63.9C336.5 108 282.7 138.4 224 151.5V328.5c58.7 13.1 112.5 43.4 154.4 87.6l23.8 25.1c5 5.3 13.8 1.7 13.8-5.5V44.2zM192 323.1V156.9c-5.8 .7-11.6 1.1-17.5 1.5L144.9 160l-.4 0H144 64c-17.7 0-32 14.3-32 32v96c0 17.7 14.3 32 32 32h80 .4l.4 0 29.7 1.6c5.8 .3 11.7 .8 17.5 1.5zM379 16.7c24.9-26.3 69-8.7 69 27.5V435.8c0 36.2-44.2 53.8-69 27.5l-23.8-25.1c-43.3-45.7-101-74.9-163.1-82.8V456c0 30.9-25.1 56-56 56H120c-30.9 0-56-25.1-56-56V352c-35.3 0-64-28.7-64-64V192c0-35.3 28.7-64 64-64l79.6 0 29.2-1.6c69.4-3.9 134.6-34.1 182.4-84.5L379 16.7zM96 352V456c0 13.3 10.7 24 24 24h16c13.3 0 24-10.7 24-24V352.9l-16.4-.9H96zM496 192c8.8 0 16 7.2 16 16v64c0 8.8-7.2 16-16 16s-16-7.2-16-16V208c0-8.8 7.2-16 16-16z"/></svg>