<svg xmlns="http://www.w3.org/2000/svg" viewBox="0 0 640 512"><!--! Font Awesome Pro 6.4.0 by @fontawesome - https://fontawesome.com License - https://fontawesome.com/license (Commercial License) Copyright 2023 Fonticons, Inc. --><path d="M32.1 40.7L42.2 160H341.7L351.8 40.7c.4-4.7-3.3-8.7-8-8.7H40.1c-4.7 0-8.4 4-8 8.7zM44.9 192L66.7 450.7C68.1 467.3 81.9 480 98.6 480H260c3.7 11.9 9.7 22.7 17.6 32H98.6c-33.3 0-61-25.5-63.8-58.6L.2 43.4C-1.7 20 16.7 0 40.1 0H343.8c23.4 0 41.8 20 39.9 43.4L372.5 176.5c-12.2 4.7-23.4 10.1-33.5 16l0-.4H44.9zm286.1 87.4c-5.7 6.2-9.2 14.6-10.4 24.4h287c-1.2-9.8-4.7-18.2-10.4-24.4c-8.3-9-20.6-20.1-37.1-30.1c-.8 8.1-7.6 14.5-15.9 14.5c-8.8 0-16-7.2-16-16c0-4.6 1.9-8.7 5-11.6c-15.7-6.1-33.9-10.5-54.9-11.9c1.2 2.2 1.9 4.8 1.9 7.5c0 8.8-7.2 16-16 16s-16-7.2-16-16c0-2.7 .7-5.3 1.9-7.5c-21 1.4-39.2 5.9-54.9 11.9c3.1 2.9 5 7 5 11.6c0 8.8-7.2 16-16 16c-8.3 0-15.1-6.3-15.9-14.5c-16.6 10-28.8 21.1-37.1 30.1zM464 191.8c82 0 132.6 40 156.5 65.9c14.6 15.7 19.5 36.1 19.5 54.7c0 12.9-10.5 23.4-23.4 23.4H311.4c-12.9 0-23.4-10.5-23.4-23.4c0-18.7 4.9-39.1 19.5-54.7c24-25.8 74.5-65.9 156.5-65.9zm-176 184c0-8.8 7.2-16 16-16H624c8.8 0 16 7.2 16 16s-7.2 16-16 16H304c-8.8 0-16-7.2-16-16zm0 77.3c0-20.6 16.7-37.3 37.3-37.3H602.7c20.6 0 37.3 16.7 37.3 37.3c0 32.4-26.3 58.7-58.7 58.7H346.7c-32.4 0-58.7-26.3-58.7-58.7zm37.3-5.3c-2.9 0-5.3 2.4-5.3 5.3c0 14.7 11.9 26.7 26.7 26.7H581.3c14.7 0 26.7-11.9 26.7-26.7c0-2.9-2.4-5.3-5.3-5.3H325.3z"/></svg>