<svg xmlns="http://www.w3.org/2000/svg" viewBox="0 0 512 512"><!--! Font Awesome Pro 6.4.0 by @fontawesome - https://fontawesome.com License - https://fontawesome.com/license (Commercial License) Copyright 2023 Fonticons, Inc. --><path d="M256 64c94.4 0 172.9 68.1 189 157.8l0 .1c0 .1-.1 .2-.3 .3c-.7 .8-2.4 1.7-4.7 1.7H72c-2.4 0-4-1-4.7-1.7c-.1-.1-.2-.2-.3-.3l0-.1C83.1 132.1 161.6 64 256 64zM440 256c22.1 0 40.4-18.1 36.5-39.8C457.7 111.5 366.1 32 256 32S54.3 111.5 35.5 216.2C31.6 237.9 49.9 256 72 256H440zM128 448c-35.3 0-64-28.7-64-64H448c0 35.3-28.7 64-64 64H128zM32 384c0 53 43 96 96 96H384c53 0 96-43 96-96c0-17.7-14.3-32-32-32H64c-17.7 0-32 14.3-32 32zM16 304c0 8.8 7.2 16 16 16H480c8.8 0 16-7.2 16-16s-7.2-16-16-16H32c-8.8 0-16 7.2-16 16zM160 160a16 16 0 1 0 0-32 16 16 0 1 0 0 32zm112-48a16 16 0 1 0 -32 0 16 16 0 1 0 32 0zm80 48a16 16 0 1 0 0-32 16 16 0 1 0 0 32z"/></svg>