<svg xmlns="http://www.w3.org/2000/svg" viewBox="0 0 448 512"><!--! Font Awesome Pro 6.4.0 by @fontawesome - https://fontawesome.com License - https://fontawesome.com/license (Commercial License) Copyright 2023 Fonticons, Inc. --><path d="M33.2 90C49.2 70.2 106.1 32 224 32c126.8 0 175.9 38.1 190.7 57.5c.6 .8 1.3 2.5 1.3 5.6V96H32v-.8c0-3.2 .8-4.6 1.2-5.1zM32 128H416V256H32V128zM416 288v96c0 17.7-14.3 32-32 32H303.2 64c-17.7 0-32-14.3-32-32V288H416zM224 0C100.2 0 32.5 40.1 8.3 69.9C1.8 77.9 0 87.4 0 95.2V384c0 23.7 12.9 44.4 32 55.4V496c0 8.8 7.2 16 16 16s16-7.2 16-16l0-48H303.2 384v48c0 8.8 7.2 16 16 16s16-7.2 16-16V439.4c19.1-11.1 32-31.7 32-55.4V95.2c0-7.8-1.8-17-7.8-25C417.2 40 356.6 0 224 0zM96 376a24 24 0 1 0 0-48 24 24 0 1 0 0 48zm280-24a24 24 0 1 0 -48 0 24 24 0 1 0 48 0z"/></svg>