<svg xmlns="http://www.w3.org/2000/svg" viewBox="0 0 512 512"><!--! Font Awesome Pro 6.4.0 by @fontawesome - https://fontawesome.com License - https://fontawesome.com/license (Commercial License) Copyright 2023 Fonticons, Inc. --><path d="M296 64L52.3 256H480c0-64-28-112-65-144s-83-48-119-48zM0 272c0-9.8 4.5-19.1 12.2-25.1l264-208c5.6-4.4 12.6-6.9 19.8-6.9c44.3 0 97.6 19.2 139.9 55.8C479.2 125.2 512 181.7 512 256v.5 .5 .5 .5 .5 .5 .5 .5 .5 .5 .5 .5 .5 .5 .5 .5 .5 .5 .5 .5 .5 .5 .5 .5 .5 .5 .4 .4 .4 .4 .4 .4 .4 .4 .4 .1 .4 .4 .4 .4 .4 .4 .4 .4 .4 .4 .4 .4 .4 .4 .4 .4 .4 .4 .4 .4 .4 .4 .4 .4 .4 .4 .4 .4 .4 .4 .4 .4 .4 .4 .4 .4 .4 .4 .4 .4 .4 .4 .4 .4 .4 .4 .4 .4 .4 .4 .4 .4 .4 .4 .4 .4 .4 .4 .4 .4 .4 .4 .4 .4 .4 .4 .4 .4 .4 .4 .4 .4 .4 .4 .4 .4 .4 .4 .4 .4 .4 .4 .4 .4 .4 .4 .4 .4 .4 .4 .4 .4 .4 .4 .4 .4 .4 .4 .4 .4 .4 .4 .4 .4 .4 .4 .4 .4 .4 .4 .4 .4 .4 .4 .4 .4 .4 .4 .4 .4 .4 .4 .4 .4 .4 .4 .4 .4 .4 .4 .4 .4 .4 .4 .4 .4 .4 .4 .4 .4 .4 .4 .4 .4 .4 .4 .4 .4 .4 .4 .3 .3 .3 .3 .3 .3 .3 .3 .3 .3 .3 .3 .3 .3 .3 .3 .3 .3 .3 .3 .3 .3 .3 .3 .3 .3 .3 .3 .3 .3 .3 .3 .3 .3 .3 .3 .3 .3 .3 .3 .3 .3 .3 .3 .3 .3 .3 .3 .3 .3 .3 .3 .3 .3 .3 .3 .3 .3 .3 .3 .3 .3 .3 .3 .3 .3 .3 .3 .3 .3 .3 .3 .3 .3 .3 .3 .3 .3 .3 .3 .3 .3 .3 .3 .3 .3 .3 .3 .3 .3 .3 .3 .3 .3 .3 .3 .3 .3 .3 .3 .3 .3 .3 .3 .3 .3 .3 .3 .3 .3 .3 .3 .3 .3 .3 .1 .1 .3 .3 .3 .3 .3 .3 .3 .3 .3 .3 .3 .3 .3 .3 .3 .3 .3 .3 .3 .3 .3 .3 .3 .3 .3 .3 .3 .3 .3 .3 .3 .3 .3 .3 .3 .3 .3 .3 .3 .3 .3 .3 .3 .3 .3 .3 .3 .3 .3 .3 .3 .3 .3 .3 .3 .3 .3 .3 .2 .3 .2 .2 .2 .2 .2 .2 .2 .2 .2 .2 .2 .2 .2 .2 .2 .2 .2 .2 .2 .2 .2 .2 .2 .2 .2 .2 .2 .2 .2 .2 .2 .2 .2 .2 .2 .2 .2 .2 .2 .2 .2 .2 .2 .2 .2 .2 .2 .2 .2 .2 .2 .2 .2 .2 .2 .2 .2 .2 .2 .2 .2 .2 .2 .2 .2 .2 .2 .2 .2 .2 .2 .2 .2 .2 .2 .2 .2 .2 .2 .2 .2 .2 .2 .2 .2 .2 .2 .2 .2 .2 .2 .2 .2 .2 .2 .2 .2 .2 .2 .2 .2 .2 .2 .2 .2 .2 .2 .2 .2 .2 .2 .2 .2 .2 .2 .2 .2 .2 .2 .2 .2 .2 .2 .2 .2 .2 .2 .2 .2 .2 .2 .2 .2 .2 .2 .2 .2 .2 .2 .2 .2 .2 .2 .2 .2 .2 .2 .2 .2 .2 .2c0 35.4-28.7 64-64 64H64c-35.3 0-64-28.7-64-64V368 272zm32 80H480v-.3-.3-.3-.3-.3-.3-.3-.3-.3-.3-.3-.3-.3-.3-.3-.3-.3-.3V346v-.3-.3V345v-.3-.3V344v-.3-.3V343v-.3-.3V342v-.3-.3V341v-.3-.3V340v-.3-.3V339v-.3-.3V338v-.3-.3V337v-.3-.3-.3-.3-.3-.3-.3-.3-.3-.3-.3-.3-.3-.3-.3-.3-.4-.4-.4V330v-.4-.4V329v-.4-.4-.4-.4-.4-.4-.4-.4-.4-.4V325v-.4-.4V324v-.4-.4-.4-.4-.4-.4-.4V321v-.4-.4-.4-.4-.4-.4-.4-.4-.4-.4-.4-.4-.4-.4-.4-.4-.4-.4-.4-.4-.4-.4-.4V312v-.4-.4-.4-.4-.4-.4-.4-.4-.4-.4-.4-.4V307v-.4-.4-.4-.4V305v-.4-.4-.4-.4-.4-.4-.4-.4-.4-.4-.4-.4-.4-.4-.4-.4-.4-.4-.4V297v-.4-.4-.4-.4V295v-.4-.4-.4-.4-.4-.4-.4-.4-.4-.4-.4V290v-.4-.4-.4-.4V288H32l0 64zm0 32l0 32c0 17.7 14.3 32 32 32H448c17.7 0 32-14.3 32-32v-.2-.2-.2-.2-.2V415v-.2-.2-.2-.2-.2-.2-.2-.2-.2-.2V413v-.2-.2-.2-.2-.2-.2-.2-.2-.2-.2V411v-.2-.2-.2-.2V410v-.2-.2-.2-.2-.2-.2-.2-.2-.2-.2-.2-.2-.2-.2-.2-.2-.2-.2-.2-.2V406v-.2-.2-.2-.2-.2-.2-.2-.2-.2-.2-.2-.2-.2-.2-.2-.2-.2-.2-.2-.2-.2-.2-.2V401v-.2-.2-.2-.2-.2-.2-.2-.2-.2-.2-.2-.2-.2V398v-.2-.2-.2-.2-.2-.2-.2-.2V396v-.2-.2-.2-.2-.2-.2-.2-.2V394v-.2-.2-.2V393v-.2-.2-.2-.2-.2-.2-.2-.2-.2-.2-.2-.2V390v-.2-.2-.2V389v-.2-.2-.2-.2-.2-.2-.2-.2-.2-.2-.2-.2-.2-.2-.2-.2-.2-.2-.2-.2V384H32z"/></svg>