<svg xmlns="http://www.w3.org/2000/svg" viewBox="0 0 512 512"><!--! Font Awesome Pro 6.4.0 by @fontawesome - https://fontawesome.com License - https://fontawesome.com/license (Commercial License) Copyright 2023 Fonticons, Inc. --><path d="M256 0c8.8 0 16 7.2 16 16V240H496c8.8 0 16 7.2 16 16s-7.2 16-16 16H272V496c0 8.8-7.2 16-16 16s-16-7.2-16-16V272H16c-8.8 0-16-7.2-16-16s7.2-16 16-16H240V16c0-8.8 7.2-16 16-16zm88 96h40V56 48c0-8.8 7.2-16 16-16s16 7.2 16 16v8V96h40 8c8.8 0 16 7.2 16 16s-7.2 16-16 16h-8H416v40 8c0 8.8-7.2 16-16 16s-16-7.2-16-16v-8V128H344h-8c-8.8 0-16-7.2-16-16s7.2-16 16-16h8zM53.1 341.1c6.2-6.2 16.4-6.2 22.6 0L112 377.4l36.3-36.3c6.2-6.2 16.4-6.2 22.6 0s6.2 16.4 0 22.6L134.6 400l36.3 36.3c6.2 6.2 6.2 16.4 0 22.6s-16.4 6.2-22.6 0L112 422.6 75.7 458.9c-6.2 6.2-16.4 6.2-22.6 0s-6.2-16.4 0-22.6L89.4 400 53.1 363.7c-6.2-6.2-6.2-16.4 0-22.6zM48 96H176c8.8 0 16 7.2 16 16s-7.2 16-16 16H48c-8.8 0-16-7.2-16-16s7.2-16 16-16zM336 352H464c8.8 0 16 7.2 16 16s-7.2 16-16 16H336c-8.8 0-16-7.2-16-16s7.2-16 16-16zm0 64H464c8.8 0 16 7.2 16 16s-7.2 16-16 16H336c-8.8 0-16-7.2-16-16s7.2-16 16-16z"/></svg>