<svg xmlns="http://www.w3.org/2000/svg" viewBox="0 0 512 512"><!--! Font Awesome Pro 6.4.0 by @fontawesome - https://fontawesome.com License - https://fontawesome.com/license (Commercial License) Copyright 2023 Fonticons, Inc. --><path d="M144 0c8.8 0 16 7.2 16 16V64H352V16c0-8.8 7.2-16 16-16s16 7.2 16 16V64h32c35.3 0 64 28.7 64 64v32 32V448c0 35.3-28.7 64-64 64H96c-35.3 0-64-28.7-64-64V192 160 128c0-35.3 28.7-64 64-64h32V16c0-8.8 7.2-16 16-16zM448 192H64V448c0 17.7 14.3 32 32 32H416c17.7 0 32-14.3 32-32V192zM416 96H96c-17.7 0-32 14.3-32 32v32H448V128c0-17.7-14.3-32-32-32zM352 336c0 8.8-7.2 16-16 16H272v64c0 8.8-7.2 16-16 16s-16-7.2-16-16V352H176c-8.8 0-16-7.2-16-16s7.2-16 16-16h64V256c0-8.8 7.2-16 16-16s16 7.2 16 16v64h64c8.8 0 16 7.2 16 16z"/></svg>