<svg xmlns="http://www.w3.org/2000/svg" viewBox="0 0 576 512"><!--! Font Awesome Pro 6.4.0 by @fontawesome - https://fontawesome.com License - https://fontawesome.com/license (Commercial License) Copyright 2023 Fonticons, Inc. --><path d="M128 16c0-8.8-7.2-16-16-16s-16 7.2-16 16V64H64C28.7 64 0 92.7 0 128v32 32V448c0 35.3 28.7 64 64 64H258.8c-3.1-8.8-3.7-18.4-1.4-27.8l1.1-4.2H64c-17.7 0-32-14.3-32-32V192H384h32 32V160 128c0-35.3-28.7-64-64-64H352V16c0-8.8-7.2-16-16-16s-16 7.2-16 16V64H128V16zM64 96H384c17.7 0 32 14.3 32 32v32H32V128c0-17.7 14.3-32 32-32zm48 256c-8.8 0-16 7.2-16 16s7.2 16 16 16H240c8.8 0 16-7.2 16-16s-7.2-16-16-16H112zM96 272c0 8.8 7.2 16 16 16H336c8.8 0 16-7.2 16-16s-7.2-16-16-16H112c-8.8 0-16 7.2-16 16zm422.8-8l17.4 17.4c6.2 6.2 6.2 16.4 0 22.6l-24.8 24.8-40-40L496.2 264c6.2-6.2 16.4-6.2 22.6 0zM342.5 417.7L448.7 311.5l40 40L382.4 457.7c-2.1 2.1-4.6 3.5-7.4 4.2l-49 12.3 12.3-49c.7-2.8 2.2-5.4 4.2-7.4zM473.5 241.4L319.8 395.1c-6.2 6.2-10.5 13.9-12.6 22.3l-18.7 74.9c-1.4 5.5 .2 11.2 4.2 15.2s9.7 5.6 15.2 4.2L382.8 493c8.4-2.1 16.1-6.5 22.3-12.6L558.8 326.6c18.7-18.7 18.7-49.1 0-67.9l-17.4-17.4c-18.7-18.7-49.1-18.7-67.9 0z"/></svg>