<svg xmlns="http://www.w3.org/2000/svg" viewBox="0 0 576 512"><!--! Font Awesome Pro 6.4.0 by @fontawesome - https://fontawesome.com License - https://fontawesome.com/license (Commercial License) Copyright 2023 Fonticons, Inc. --><path d="M96 112c0-26.5 21.5-48 48-48H304c8.8 0 16-7.2 16-16s-7.2-16-16-16H144c-44.2 0-80 35.8-80 80v48c-35.3 0-64 28.7-64 64V416c0 35.3 28.7 64 64 64H320c35.3 0 64-28.7 64-64V399 241 224c0-35.3-28.7-64-64-64H96V112zM80 192H320c17.7 0 32 14.3 32 32V416c0 17.7-14.3 32-32 32H64c-17.7 0-32-14.3-32-32V224c0-17.7 14.3-32 32-32H80zM520.3 460.5c5.1 2.3 10.6 3.5 16.2 3.5c21.8 0 39.5-17.7 39.5-39.5v-209c0-21.8-17.7-39.5-39.5-39.5c-5.6 0-11.1 1.2-16.2 3.5L416 226.4v35.1l117.4-52.8c1-.4 2-.7 3.1-.7c4.2 0 7.5 3.4 7.5 7.5v209c0 4.2-3.4 7.5-7.5 7.5c-1.1 0-2.1-.2-3.1-.7L416 378.5v35.1l104.3 46.9zM64 240c0 8.8 7.2 16 16 16H304c8.8 0 16-7.2 16-16s-7.2-16-16-16H80c-8.8 0-16 7.2-16 16z"/></svg>