<svg xmlns="http://www.w3.org/2000/svg" viewBox="0 0 640 512"><!--! Font Awesome Pro 6.4.0 by @fontawesome - https://fontawesome.com License - https://fontawesome.com/license (Commercial License) Copyright 2023 Fonticons, Inc. --><path d="M255.1 32c-20.7 0-39 13.2-45.5 32.8L199.1 96H128c-35.3 0-64 28.7-64 64V416c0 35.3 28.7 64 64 64H512c35.3 0 64-28.7 64-64V160c0-35.3-28.7-64-64-64H440.9L430.5 64.8C423.9 45.2 405.6 32 384.9 32H255.1zM239.9 74.9c2.2-6.5 8.3-10.9 15.2-10.9H384.9c6.9 0 13 4.4 15.2 10.9l14 42.1c2.2 6.5 8.3 10.9 15.2 10.9H512c17.7 0 32 14.3 32 32V416c0 17.7-14.3 32-32 32H128c-17.7 0-32-14.3-32-32V160c0-17.7 14.3-32 32-32h82.7c6.9 0 13-4.4 15.2-10.9l14-42.1zM416 272c8.8 0 16-7.2 16-16V192c0-8.8-7.2-16-16-16s-16 7.2-16 16v25.4l-14.1-14.1C368.5 185.8 344.7 176 320 176c-39 0-73.3 19.9-93.3 50.1c-4.9 7.4-2.9 17.3 4.5 22.2s17.3 2.9 22.2-4.5C267.7 222.2 292.2 208 320 208c16.2 0 31.8 6.5 43.3 17.9L377.4 240H352c-8.8 0-16 7.2-16 16s7.2 16 16 16h64zM224 304c-8.8 0-16 7.2-16 16v64c0 8.8 7.2 16 16 16s16-7.2 16-16V358.6l14.1 14.1C271.5 390.2 295.3 400 320 400c39 0 73.3-19.9 93.3-50.1c4.9-7.4 2.9-17.3-4.5-22.2s-17.3-2.9-22.2 4.5C372.3 353.8 347.8 368 320 368c-16.2 0-31.8-6.5-43.3-17.9L262.6 336H288c8.8 0 16-7.2 16-16s-7.2-16-16-16H224z"/></svg>