<svg xmlns="http://www.w3.org/2000/svg" viewBox="0 0 512 512"><!--! Font Awesome Pro 6.4.0 by @fontawesome - https://fontawesome.com License - https://fontawesome.com/license (Commercial License) Copyright 2023 Fonticons, Inc. --><path d="M232.2 3.4c-2.5-2.3-5.6-3.4-8.8-3.4c-3.2 0-6.4 1.1-9 3.4c-29.9 27-55.3 57.7-73.2 87.1c-17.7 29-29.2 60.2-29.2 84.2C112 254.5 175.3 320 256 320c79.9 0 144-65.5 144-145.3c0-18.3-8.7-46.3-21.7-71.8C365 77 346.2 49.7 323.9 29.1c-5-4.7-12.9-4.7-18 0c-1.5 1.4-3.1 2.9-4.6 4.4c-6.9 7-13.4 15-19.2 22.4c-6.3-7.7-12.8-15.1-19.5-22.3C252.9 23.1 242.7 13 232.2 3.4zM282.4 85c8.8-.1 17.1-4.2 22.5-11.1c3.4-4.3 6.8-8.5 10.1-12.3c14.6 16.1 27.5 35.6 37.3 54.6c12.2 23.7 18.5 46.9 18.5 58.5c0 64.1-51.5 116.2-114.9 116.2c-64.2 0-114.9-52-114.9-116.2c0-16.4 8.4-42.1 24.9-69c14.3-23.4 34-48 57.3-70.7c12.8 12.4 24.9 25.5 36.4 39.5c5.6 6.8 14 10.7 22.8 10.6zm-57.9 .8c-4.9 0-9.5 2.2-12.5 6c-13.4 16.7-24.3 30.8-31.8 43.7c-7.6 13.3-12.3 26.3-12.3 40.8c0 26.4 9.7 48.5 26.4 63.9c16.5 15.3 38.8 23 62.5 23c19.5 0 37-5.6 53-16.4l0 0 .3-.2c34.3-24.2 42.4-71.4 23-107.7l0-.1c-1.7-3.5-4.1-8.2-7.6-13c-2.9-3.9-7.4-6.3-12.3-6.5s-9.6 1.9-12.7 5.6l-19.6 23.2-14.5-18.6c-13.5-17.3-27.5-35.4-29.3-37.7c-3-3.8-7.6-6.1-12.5-6.1zM292.5 184l16.7-19.7c6.4 21.2-.5 44.2-17.3 56.2c-10.9 7.3-22.2 10.8-35 10.8c-16.8 0-31-5.4-40.8-14.5c-9.6-8.9-16.1-22.2-16.1-40.4c0-7.2 2.1-14.7 8-24.8c4-6.9 9.4-14.5 16.4-23.8l16.7 21.5 18.3 23.6 6 7.7 1.7 2.1 .4 .6 .1 .1 0 0 0 0 0 0 12.6-9.8-12.6 9.8c3 3.8 7.5 6.1 12.3 6.2s9.4-2 12.5-5.6zM21.9 289.1c-8.2-3.3-17.5 .7-20.8 8.9s.7 17.5 8.9 20.8L212.9 400 10.1 481.1c-8.2 3.3-12.2 12.6-8.9 20.8s12.6 12.2 20.8 8.9L256 417.2l234.1 93.6c8.2 3.3 17.5-.7 20.8-8.9s-.7-17.5-8.9-20.8L299.1 400l202.9-81.1c8.2-3.3 12.2-12.6 8.9-20.8s-12.6-12.2-20.8-8.9L256 382.8 21.9 289.1z"/></svg>