<svg xmlns="http://www.w3.org/2000/svg" viewBox="0 0 640 512"><!-- Font Awesome Pro 6.0.0-alpha2 by @fontawesome - https://fontawesome.com License - https://fontawesome.com/license (Commercial License) --><path d="M179.34 94.998C185.732 95.998 192.75 94.123 198.013 89.873L250.275 46.873C257.168 41.248 258.172 31.248 252.531 24.373S236.74 16.623 229.972 22.248L184.73 59.373L152.269 10.623C146.506 2.123 136.605 -1.75 126.453 0.748C116.552 3.248 109.533 11.373 108.531 21.498L102.892 79.748L45.367 68.248C35.215 66.123 25.439 70.498 20.175 79.373C14.912 88.123 15.791 98.873 22.306 106.748L59.529 151.873L10.652 184.248C2.129 189.873 -1.756 199.998 0.752 209.873C3.258 219.748 11.404 226.748 21.554 227.748L79.957 233.373L68.427 290.748C66.672 299.373 72.312 307.873 80.959 309.623C81.963 309.873 83.09 309.873 84.093 309.873C91.613 309.873 98.254 304.623 99.884 297.123L113.168 230.873C114.547 224.248 113.043 217.373 109.033 211.998C105.021 206.623 98.881 203.123 92.113 202.498L47.623 198.123L84.845 173.498C90.484 169.748 94.244 163.873 95.246 157.248C96.25 150.498 94.369 143.748 90.109 138.498L61.66 104.123L105.523 112.873C111.916 114.248 119.058 112.748 124.447 108.623C129.838 104.623 133.345 98.498 133.972 91.873L138.234 47.498L162.924 84.623C166.683 90.248 172.699 93.998 179.34 94.998ZM283.605 195.207C272.021 190.266 258.609 195.629 253.654 207.186C248.701 218.74 254.078 232.115 265.664 237.057S290.66 236.637 295.613 225.08C300.568 213.525 295.193 200.148 283.605 195.207ZM621.701 272.252L636.248 157.687C640.541 123.906 621.617 90.969 590.191 77.562L422.818 6.187C391.517 -7.125 354.484 1.906 332.959 28.312L260.191 117.627C227.83 122.082 198.537 142.811 184.756 174.953L164.097 223.137C152.642 249.854 161.047 279.814 182.424 297.428L161.707 345.719C158.228 353.844 162.019 363.219 170.166 366.719C172.203 367.594 174.365 368 176.465 368C182.699 368 188.621 364.375 191.22 358.281L210.793 312.66L504.72 438.021L482.541 489.719C479.064 497.844 482.855 507.219 491.002 510.719C493.037 511.594 495.199 512 497.299 512C503.533 512 509.455 508.375 512.056 502.281L534.521 449.914C540.527 451.691 546.593 452.877 552.629 452.877C577.543 452.877 601.244 438.318 611.656 414.025L632.316 365.84C646.052 333.801 640.679 298.643 621.701 272.252ZM357.867 48.5C370.4 33.062 391.894 27.844 410.222 35.625L577.595 107C595.892 114.812 606.922 134 604.416 153.688L592.705 245.91C589.103 243.781 585.615 241.512 581.662 239.826L311.099 124.43C307.14 122.74 303.076 121.801 299.039 120.674L357.867 48.5ZM602.818 353.258L582.156 401.443C577.095 413.25 565.506 420.877 552.629 420.877C548.314 420.877 544.078 420.004 540.045 418.283L210.482 277.723C202.601 274.361 196.506 268.143 193.316 260.209C190.129 252.275 190.228 243.578 193.597 235.719L214.254 187.535C224.375 163.928 247.552 148.674 273.3 148.674C281.953 148.674 290.425 150.416 298.484 153.854L569.047 269.25C601.578 283.125 616.726 320.811 602.818 353.258ZM549.343 308.547C537.759 303.605 524.347 308.969 519.394 320.523C514.439 332.08 519.816 345.455 531.404 350.396C542.988 355.338 556.398 349.977 561.351 338.42C566.306 326.865 560.931 313.488 549.343 308.547Z"/></svg>