<svg xmlns="http://www.w3.org/2000/svg" viewBox="0 0 512 512"><!--! Font Awesome Pro 6.4.0 by @fontawesome - https://fontawesome.com License - https://fontawesome.com/license (Commercial License) Copyright 2023 Fonticons, Inc. --><path d="M272 24c0-8.8-7.2-16-16-16s-16 7.2-16 16v80c0 8.8 7.2 16 16 16s16-7.2 16-16V24zM188.2 208H323.8c14.3 0 26.8 9.5 30.8 23.2L370.8 288c-.9 0-1.9 0-2.8 0H144c-.9 0-1.9 0-2.8 0l16.2-56.8c3.9-13.7 16.5-23.2 30.8-23.2zm-61.5 14.4L105 298.1C80.6 311.8 64 338 64 368v48 16 32 32c0 8.8 7.2 16 16 16s16-7.2 16-16V464H416v32c0 8.8 7.2 16 16 16s16-7.2 16-16V464 432 416 368c0-30-16.6-56.2-41-69.9l-21.6-75.7c-7.8-27.5-33-46.4-61.5-46.4H188.2c-28.6 0-53.7 18.9-61.5 46.4zM416 416v16H96V416 368c0-26.5 21.5-48 48-48H368c26.5 0 48 21.5 48 48v48zM144 400a24 24 0 1 0 0-48 24 24 0 1 0 0 48zm248-24a24 24 0 1 0 -48 0 24 24 0 1 0 48 0zM44.7 44.7c-6.2 6.2-6.2 16.4 0 22.6l48 48c6.2 6.2 16.4 6.2 22.6 0s6.2-16.4 0-22.6l-48-48c-6.2-6.2-16.4-6.2-22.6 0zm400 0l-48 48c-6.2 6.2-6.2 16.4 0 22.6s16.4 6.2 22.6 0l48-48c6.2-6.2 6.2-16.4 0-22.6s-16.4-6.2-22.6 0z"/></svg>