<svg xmlns="http://www.w3.org/2000/svg" viewBox="0 0 640 512"><!--! Font Awesome Pro 6.4.0 by @fontawesome - https://fontawesome.com License - https://fontawesome.com/license (Commercial License) Copyright 2023 Fonticons, Inc. --><path d="M328.5 2.5c-5.2-3.3-11.9-3.3-17.1 0l-304 192c-7.5 4.7-9.7 14.6-5 22.1s14.6 9.7 22.1 5L320 34.9 615.5 221.5c7.5 4.7 17.4 2.5 22.1-5s2.5-17.4-5-22.1l-304-192zM252.2 208H387.8c14.3 0 26.8 9.5 30.8 23.2L434.8 288c-.9 0-1.9 0-2.8 0H208c-.9 0-1.9 0-2.8 0l16.2-56.8c3.9-13.7 16.5-23.2 30.8-23.2zm-61.5 14.4L169 298.1c-24.5 13.7-41 39.9-41 69.9v48 16 32 32c0 8.8 7.2 16 16 16s16-7.2 16-16V464H480v32c0 8.8 7.2 16 16 16s16-7.2 16-16V464 432 416 368c0-30-16.6-56.2-41-69.9l-21.6-75.7c-7.8-27.5-33-46.4-61.5-46.4H252.2c-28.6 0-53.7 18.9-61.5 46.4zM480 416v16H160V416 368c0-26.5 21.5-48 48-48H432c26.5 0 48 21.5 48 48v48zM208 400a24 24 0 1 0 0-48 24 24 0 1 0 0 48zm248-24a24 24 0 1 0 -48 0 24 24 0 1 0 48 0z"/></svg>