<svg xmlns="http://www.w3.org/2000/svg" viewBox="0 0 640 512"><!--! Font Awesome Pro 6.4.0 by @fontawesome - https://fontawesome.com License - https://fontawesome.com/license (Commercial License) Copyright 2023 Fonticons, Inc. --><path d="M171.3 64H224V80v96 16H87.6l39.1-97.8C134.1 75.9 151.7 64 171.3 64zM256 192V176 80 64h97.2c14.6 0 28.4 6.6 37.5 18l88 110H256zm263.9 .2L415.7 62c-15.2-19-38.2-30-62.5-30H171.3c-32.7 0-62.1 19.9-74.3 50.3L52.8 193C22.8 198.3 0 224.5 0 256V368c0 17.7 14.3 32 32 32H65.3c7.6 45.4 47.1 80 94.7 80s87.1-34.6 94.7-80H385.3c7.6 45.4 47.1 80 94.7 80s87.1-34.6 94.7-80H608c17.7 0 32-14.3 32-32V320c0-68-53.1-123.7-120.1-127.8zM542 400c-7.1 27.6-32.2 48-62 48s-54.9-20.4-62-48c-1.3-5.1-2-10.5-2-16s.7-10.9 2-16c7.1-27.6 32.2-48 62-48s54.9 20.4 62 48c1.3 5.1 2 10.5 2 16s-.7 10.9-2 16zM385.3 368H254.7c-7.6-45.4-47.1-80-94.7-80s-87.1 34.6-94.7 80H32V256c0-17.7 14.3-32 32-32H512c53 0 96 43 96 96v48H574.7c-7.6-45.4-47.1-80-94.7-80s-87.1 34.6-94.7 80zM160 448c-29.8 0-54.9-20.4-62-48c-1.3-5.1-2-10.5-2-16s.7-10.9 2-16c7.1-27.6 32.2-48 62-48s54.9 20.4 62 48c1.3 5.1 2 10.5 2 16s-.7 10.9-2 16c-7.1 27.6-32.2 48-62 48z"/></svg>