<svg xmlns="http://www.w3.org/2000/svg" viewBox="0 0 640 512"><!--! Font Awesome Pro 6.4.0 by @fontawesome - https://fontawesome.com License - https://fontawesome.com/license (Commercial License) Copyright 2023 Fonticons, Inc. --><path d="M80 64c-26.5 0-48 21.5-48 48V336c0 26.5 21.5 48 48 48h21.5c13.2-37.3 48.7-64 90.5-64s77.4 26.7 90.5 64H544V192c0-70.7-57.3-128-128-128H80zM96 416H80c-44.2 0-80-35.8-80-80V112C0 67.8 35.8 32 80 32H416c88.4 0 160 71.6 160 160V384l48 0c8.8 0 16 7.2 16 16s-7.2 16-16 16l-48 0H544 288c0 53-43 96-96 96s-96-43-96-96zM256 160H128v64H256V160zM128 128H256c17.7 0 32 14.3 32 32v64c0 17.7-14.3 32-32 32H128c-17.7 0-32-14.3-32-32V160c0-17.7 14.3-32 32-32zm224 32v64h64V160H352zm-32 0c0-17.7 14.3-32 32-32h64c17.7 0 32 14.3 32 32v64c0 17.7-14.3 32-32 32H352c-17.7 0-32-14.3-32-32V160zM256 416a64 64 0 1 0 -128 0 64 64 0 1 0 128 0z"/></svg>