<svg xmlns="http://www.w3.org/2000/svg" viewBox="0 0 640 512"><!--! Font Awesome Pro 6.4.0 by @fontawesome - https://fontawesome.com License - https://fontawesome.com/license (Commercial License) Copyright 2023 Fonticons, Inc. --><path d="M16 0C7.2 0 0 7.2 0 16s7.2 16 16 16H67.2l77.2 339.5c1.7 7.3 8.1 12.5 15.6 12.5H320.7c-.5-5.3-.7-10.6-.7-16s.2-10.7 .7-16H172.8l-14.5-64h181c5.9-11.4 12.9-22.2 21-32L151 256 107.3 64l434.4 0L505.7 192.3c10.9 .6 21.6 2.2 31.9 4.7l35-124.3C578.3 52.3 563 32 541.8 32H100L95.6 12.5C93.9 5.2 87.5 0 80 0H16zM184 432a24 24 0 1 1 0 48 24 24 0 1 1 0-48zm0 80a56 56 0 1 0 0-112 56 56 0 1 0 0 112zM384 368a112 112 0 1 1 224 0 112 112 0 1 1 -224 0zm256 0a144 144 0 1 0 -288 0 144 144 0 1 0 288 0zm-84.7-36.7c6.2-6.2 6.2-16.4 0-22.6s-16.4-6.2-22.6 0L496 345.4l-36.7-36.7c-6.2-6.2-16.4-6.2-22.6 0s-6.2 16.4 0 22.6L473.4 368l-36.7 36.7c-6.2 6.2-6.2 16.4 0 22.6s16.4 6.2 22.6 0L496 390.6l36.7 36.7c6.2 6.2 16.4 6.2 22.6 0s6.2-16.4 0-22.6L518.6 368l36.7-36.7z"/></svg>