<svg xmlns="http://www.w3.org/2000/svg" viewBox="0 0 576 512"><!--! Font Awesome Pro 6.4.0 by @fontawesome - https://fontawesome.com License - https://fontawesome.com/license (Commercial License) Copyright 2023 Fonticons, Inc. --><path d="M0 16C0 7.2 7.2 0 16 0H53.9c22.8 0 42.5 16 47 38.4L145.4 256H466.5c14.7 0 27.5-10 31-24.2L544.5 44.1c2.1-8.6 10.8-13.8 19.4-11.6s13.8 10.8 11.6 19.4L528.6 239.5C521.5 268 495.9 288 466.5 288H152l7.9 38.4c3 14.9 16.1 25.6 31.4 25.6H496c8.8 0 16 7.2 16 16s-7.2 16-16 16H191.2c-30.4 0-56.6-21.4-62.7-51.2L69.6 44.8C68 37.3 61.5 32 53.9 32H16C7.2 32 0 24.8 0 16zM192 480a24 24 0 1 0 0-48 24 24 0 1 0 0 48zm0-80a56 56 0 1 1 0 112 56 56 0 1 1 0-112zm280 56a24 24 0 1 0 -48 0 24 24 0 1 0 48 0zm-80 0a56 56 0 1 1 112 0 56 56 0 1 1 -112 0zM256 112H384c8.8 0 16 7.2 16 16s-7.2 16-16 16H256c-8.8 0-16-7.2-16-16s7.2-16 16-16z"/></svg>