<svg xmlns="http://www.w3.org/2000/svg" viewBox="0 0 512 512"><!--! Font Awesome Pro 6.4.0 by @fontawesome - https://fontawesome.com License - https://fontawesome.com/license (Commercial License) Copyright 2023 Fonticons, Inc. --><path d="M272 32c8.8 0 16 7.2 16 16V80c0 8.8-7.2 16-16 16H80c-8.8 0-16-7.2-16-16V48c0-8.8 7.2-16 16-16H272zM80 0C53.5 0 32 21.5 32 48V80c0 26.5 21.5 48 48 48h80v32H87.5c-31.8 0-58.9 23.4-63.4 54.9L.6 379.5c-.4 3-.6 6-.6 9V448c0 35.3 28.7 64 64 64H448c35.3 0 64-28.7 64-64V388.5c0-3-.2-6.1-.6-9L487.8 214.9c-4.5-31.5-31.5-54.9-63.4-54.9H192V128h80c26.5 0 48-21.5 48-48V48c0-26.5-21.5-48-48-48H80zM32 448V416H480v32c0 17.7-14.3 32-32 32H64c-17.7 0-32-14.3-32-32zM456.2 219.5L479.7 384H32.3L55.8 219.5C58.1 203.7 71.6 192 87.5 192h337c15.9 0 29.4 11.7 31.7 27.5zM112 232a24 24 0 1 0 0 48 24 24 0 1 0 0-48zm72 24a24 24 0 1 0 48 0 24 24 0 1 0 -48 0zm-24 56a24 24 0 1 0 0 48 24 24 0 1 0 0-48zm120-56a24 24 0 1 0 48 0 24 24 0 1 0 -48 0zm-24 56a24 24 0 1 0 0 48 24 24 0 1 0 0-48zm120-56a24 24 0 1 0 48 0 24 24 0 1 0 -48 0zm-24 56a24 24 0 1 0 0 48 24 24 0 1 0 0-48z"/></svg>