<svg xmlns="http://www.w3.org/2000/svg" viewBox="0 0 448 512"><!--! Font Awesome Pro 6.4.0 by @fontawesome - https://fontawesome.com License - https://fontawesome.com/license (Commercial License) Copyright 2023 Fonticons, Inc. --><path d="M288 32c17.7 0 32 14.3 32 32V224h32V64c0-35.3-28.7-64-64-64H160C124.7 0 96 28.7 96 64V224h32V64c0-17.7 14.3-32 32-32H288zM64 144c0-8.8-7.2-16-16-16s-16 7.2-16 16v80c0 8.8 7.2 16 16 16s16-7.2 16-16V144zm352 0c0-8.8-7.2-16-16-16s-16 7.2-16 16v80c0 8.8 7.2 16 16 16s16-7.2 16-16V144zM352 288l32 64-160 0H64l32-64H352zM240 384H384c11.1 0 21.4-5.7 27.2-15.2s6.4-21.2 1.4-31.1l-32-64C375.2 262.8 364.1 256 352 256H96c-12.1 0-23.2 6.8-28.6 17.7l-32 64c-5 9.9-4.4 21.7 1.4 31.1S52.9 384 64 384H208v48H192c-35.3 0-64 28.7-64 64c0 8.8 7.2 16 16 16s16-7.2 16-16c0-17.7 14.3-32 32-32h16v32c0 8.8 7.2 16 16 16s16-7.2 16-16V464h16c17.7 0 32 14.3 32 32c0 8.8 7.2 16 16 16s16-7.2 16-16c0-35.3-28.7-64-64-64H240V384z"/></svg>