<svg xmlns="http://www.w3.org/2000/svg" viewBox="0 0 512 512"><!--! Font Awesome Pro 6.4.0 by @fontawesome - https://fontawesome.com License - https://fontawesome.com/license (Commercial License) Copyright 2023 Fonticons, Inc. --><path d="M256 17.7v9.4V240c0 8.8 7.2 16 16 16H494.3c9.6 0 17.7-7.4 17.7-17.1C512 107 405 0 273.1 0C263.4 0 256 8.1 256 17.7zm32 14.8C390.4 39.8 472.2 121.6 479.5 224H288V32.5zM192 288c0 17.7 14.3 32 32 32H442.4C420.8 411.7 338.3 480 240 480C125.1 480 32 386.9 32 272c0-98.3 68.3-180.8 160-202.4V288zM224 66.7c0-18.5-15.7-33.3-33.8-29.5C81.5 60.1 0 156.5 0 272C0 404.5 107.5 512 240 512c115.5 0 211.9-81.5 234.8-190.2c3.8-18.1-11-33.8-29.5-33.8H256 224V256 66.7z"/></svg>