<svg xmlns="http://www.w3.org/2000/svg" viewBox="0 0 512 512"><!--! Font Awesome Pro 6.4.0 by @fontawesome - https://fontawesome.com License - https://fontawesome.com/license (Commercial License) Copyright 2023 Fonticons, Inc. --><path d="M16 32c8.8 0 16 7.2 16 16V400c0 26.5 21.5 48 48 48H496c8.8 0 16 7.2 16 16s-7.2 16-16 16H80c-44.2 0-80-35.8-80-80V48c0-8.8 7.2-16 16-16zM144 256c8.8 0 16 7.2 16 16v96c0 8.8-7.2 16-16 16s-16-7.2-16-16V272c0-8.8 7.2-16 16-16zM256 144V368c0 8.8-7.2 16-16 16s-16-7.2-16-16V144c0-8.8 7.2-16 16-16s16 7.2 16 16zm80 48c8.8 0 16 7.2 16 16V368c0 8.8-7.2 16-16 16s-16-7.2-16-16V208c0-8.8 7.2-16 16-16zm112-80V368c0 8.8-7.2 16-16 16s-16-7.2-16-16V112c0-8.8 7.2-16 16-16s16 7.2 16 16z"/></svg>