<svg xmlns="http://www.w3.org/2000/svg" viewBox="0 0 512 512"><!--! Font Awesome Pro 6.4.0 by @fontawesome - https://fontawesome.com License - https://fontawesome.com/license (Commercial License) Copyright 2023 Fonticons, Inc. --><path d="M32 48c0-8.8-7.2-16-16-16S0 39.2 0 48V400c0 44.2 35.8 80 80 80H496c8.8 0 16-7.2 16-16s-7.2-16-16-16H80c-26.5 0-48-21.5-48-48V48zm288 0c0-8.8-7.2-16-16-16s-16 7.2-16 16V96c0 .3 0 .5 0 .8c-18.3 3.7-32 19.8-32 39.2v80c0 19.4 13.8 35.5 32 39.2c0 .3 0 .5 0 .8v48c0 8.8 7.2 16 16 16s16-7.2 16-16V256c0-.3 0-.5 0-.8c18.3-3.7 32-19.8 32-39.2V136c0-19.4-13.8-35.5-32-39.2c0-.3 0-.5 0-.8V48zM176 64c-8.8 0-16 7.2-16 16v48c0 .3 0 .5 0 .8c-18.3 3.7-32 19.8-32 39.2V280c0 19.4 13.8 35.5 32 39.2c0 .3 0 .5 0 .8v48c0 8.8 7.2 16 16 16s16-7.2 16-16V320c0-.3 0-.5 0-.8c18.3-3.7 32-19.8 32-39.2V168c0-19.4-13.8-35.5-32-39.2c0-.3 0-.5 0-.8V80c0-8.8-7.2-16-16-16zm144 72v80c0 4.4-3.6 8-8 8H296c-4.4 0-8-3.6-8-8V136c0-4.4 3.6-8 8-8h16c4.4 0 8 3.6 8 8zm104 88h16c4.4 0 8 3.6 8 8v48c0 4.4-3.6 8-8 8H424c-4.4 0-8-3.6-8-8V232c0-4.4 3.6-8 8-8zm-8-32c0 .3 0 .5 0 .8c-18.3 3.7-32 19.8-32 39.2v48c0 19.4 13.8 35.5 32 39.2c0 .3 0 .5 0 .8v48c0 8.8 7.2 16 16 16s16-7.2 16-16V320c0-.3 0-.5 0-.8c18.3-3.7 32-19.8 32-39.2V232c0-19.4-13.8-35.5-32-39.2c0-.3 0-.5 0-.8V144c0-8.8-7.2-16-16-16s-16 7.2-16 16v48zM184 160c4.4 0 8 3.6 8 8V280c0 4.4-3.6 8-8 8H168c-4.4 0-8-3.6-8-8V168c0-4.4 3.6-8 8-8h16z"/></svg>