<svg xmlns="http://www.w3.org/2000/svg" viewBox="0 0 512 512"><!--! Font Awesome Pro 6.4.0 by @fontawesome - https://fontawesome.com License - https://fontawesome.com/license (Commercial License) Copyright 2023 Fonticons, Inc. --><path d="M32 48c0-8.8-7.2-16-16-16S0 39.2 0 48V400c0 44.2 35.8 80 80 80H496c8.8 0 16-7.2 16-16s-7.2-16-16-16H80c-26.5 0-48-21.5-48-48V48zM320 336c0 8.8 7.2 16 16 16H464c8.8 0 16-7.2 16-16V208c0-8.8-7.2-16-16-16s-16 7.2-16 16v89.4L331.3 180.7c-6.2-6.2-16.4-6.2-22.6 0L224 265.4 123.3 164.7c-6.2-6.2-16.4-6.2-22.6 0s-6.2 16.4 0 22.6l112 112c6.2 6.2 16.4 6.2 22.6 0L320 214.6 425.4 320H336c-8.8 0-16 7.2-16 16z"/></svg>