<svg xmlns="http://www.w3.org/2000/svg" viewBox="0 0 576 512"><!--! Font Awesome Pro 6.4.0 by @fontawesome - https://fontawesome.com License - https://fontawesome.com/license (Commercial License) Copyright 2023 Fonticons, Inc. --><path d="M144 64a32 32 0 1 1 64 0 32 32 0 1 1 -64 0zm96 0A64 64 0 1 0 112 64a64 64 0 1 0 128 0zM480 336V325.3l52.2-17.4 .9-.3c6.5-2.2 10.9-8.3 10.9-15.2V280 208c0-8.8-7.2-16-16-16s-16 7.2-16 16v48 24l-32 8v-8V256v-1V208 160c0-17.7-14.3-32-32-32V96 32 16c0-8.8-7.2-16-16-16H416c-8.8 0-16 7.2-16 16s7.2 16 16 16V64 96v32c-17.7 0-32 14.3-32 32v34.7c-18.6 6.6-32 24.4-32 45.3V352c0 19.9 12.1 36.9 29.3 44.2c.9 .4 1.8 .7 2.7 1V480v16c0 8.8 7.2 16 16 16h16 60.1H496c4.9 0 9.4-2.2 12.5-6s4.2-8.7 3.1-13.5l-4.3-19.5L498.2 432l-7.1-32h32.8H528c8.8 0 16-7.2 16-16s-7.2-16-16-16H491.1h-7.1L480 350.2V336zm-27.3 38.9l5.6 25.1 1.5 6.9 9.1 41.1 7.1 32H448h-4.7H416V448 397.3 384c0-4.2-1.6-8-4.3-10.9c-2.9-3.2-7.1-5.1-11.7-5.1c-6.4 0-12-3.8-14.5-9.3c-.7-1.6-1.2-3.3-1.4-5.1c-.1-.5-.1-1-.1-1.6V240c0-2.4 .5-4.7 1.5-6.7c2.5-5.5 8.1-9.3 14.5-9.3c4.6 0 8.8-2 11.7-5.1c2.6-2.9 4.3-6.7 4.3-10.9V194.7 192 160h32v32 16 48 32 8 6.3 23.1V329v7 14.2V352c0 1.2 .1 2.3 .4 3.5l0 0 .4 1.7 2.4 10.8 1.5 6.9zM144 199.9c7.7-5.1 16.8-7.9 26.3-7.9h11.3c9.5 0 18.6 2.8 26.3 7.9l0 .1V352H144V200l0-.1zM144 384h64V496c0 8.8 7.2 16 16 16s16-7.2 16-16V243.3l42.4 69.1c4.6 7.5 14.5 9.9 22 5.3s9.9-14.5 5.3-22l-59.8-97.5c-14.5-23.7-40.4-38.2-68.2-38.2H170.3c-27.8 0-53.7 14.5-68.2 38.2L42.4 295.6c-4.6 7.5-2.3 17.4 5.3 22s17.4 2.3 22-5.3L112 243.3V496c0 8.8 7.2 16 16 16s16-7.2 16-16V384z"/></svg>