<svg xmlns="http://www.w3.org/2000/svg" viewBox="0 0 512 512"><!--! Font Awesome Pro 6.4.0 by @fontawesome - https://fontawesome.com License - https://fontawesome.com/license (Commercial License) Copyright 2023 Fonticons, Inc. --><path d="M480 256A224 224 0 1 0 32 256a224 224 0 1 0 448 0zM0 256a256 256 0 1 1 512 0A256 256 0 1 1 0 256zM165.2 148.2c6.5-5.9 16.7-5.5 22.6 1.1l68.2 75 68.2-75c5.9-6.5 16.1-7 22.6-1.1s7 16.1 1.1 22.6L271 255.2h1v.8h48c8.8 0 16 7.2 16 16s-7.2 16-16 16H272v32h48c8.8 0 16 7.2 16 16s-7.2 16-16 16H272v17c0 8.8-7.2 16-16 16s-16-7.2-16-16V352H192c-8.8 0-16-7.2-16-16s7.2-16 16-16h48V288H192c-8.8 0-16-7.2-16-16s7.2-16 16-16h48v-.8h1l-76.8-84.5c-5.9-6.5-5.5-16.7 1.1-22.6z"/></svg>