<svg xmlns="http://www.w3.org/2000/svg" viewBox="0 0 512 512"><!--! Font Awesome Pro 6.4.0 by @fontawesome - https://fontawesome.com License - https://fontawesome.com/license (Commercial License) Copyright 2023 Fonticons, Inc. --><path d="M256 32a224 224 0 1 1 0 448 224 224 0 1 1 0-448zm0 480A256 256 0 1 0 256 0a256 256 0 1 0 0 512zM199.2 142.5L191.7 160H184c-30.9 0-56 25.1-56 56v80c0 30.9 25.1 56 56 56H328c30.9 0 56-25.1 56-56V216c0-30.9-25.1-56-56-56h-7.7l-7.5-17.5c-3.8-8.8-12.5-14.5-22.1-14.5H221.3c-9.6 0-18.3 5.7-22.1 14.5zM226.6 160h58.9l9.6 22.3c2.5 5.9 8.3 9.7 14.7 9.7H328c13.3 0 24 10.7 24 24v80c0 13.3-10.7 24-24 24H184c-13.3 0-24-10.7-24-24V216c0-13.3 10.7-24 24-24h18.3c6.4 0 12.2-3.8 14.7-9.7l9.6-22.3zM256 288a32 32 0 1 0 0-64 32 32 0 1 0 0 64z"/></svg>