<svg xmlns="http://www.w3.org/2000/svg" viewBox="0 0 512 512"><!--! Font Awesome Pro 6.4.0 by @fontawesome - https://fontawesome.com License - https://fontawesome.com/license (Commercial License) Copyright 2023 Fonticons, Inc. --><path d="M480 256A224 224 0 1 0 32 256a224 224 0 1 0 448 0zM0 256a256 256 0 1 1 512 0A256 256 0 1 1 0 256zM160 144h32.1 9.3l11.3-11.3c3-3 7.1-4.7 11.3-4.7h64c4.2 0 8.3 1.7 11.3 4.7L310.6 144h9.3H352c8.8 0 16 7.2 16 16s-7.2 16-16 16h-2.1L338 354.1c-1.1 16.8-15.1 29.9-31.9 29.9H205.9c-16.8 0-30.8-13.1-31.9-29.9L162.1 176H160c-8.8 0-16-7.2-16-16s7.2-16 16-16zm157.8 32H194.2l11.7 176H306.1l11.7-176z"/></svg>