<svg xmlns="http://www.w3.org/2000/svg" viewBox="0 0 512 512"><!--! Font Awesome Pro 6.4.0 by @fontawesome - https://fontawesome.com License - https://fontawesome.com/license (Commercial License) Copyright 2023 Fonticons, Inc. --><path d="M256 32a224 224 0 1 1 0 448 224 224 0 1 1 0-448zm0 480A256 256 0 1 0 256 0a256 256 0 1 0 0 512zM203.2 144.1c1.9-.4 3.8 .6 4.5 2.3l24 56c.7 1.6 .2 3.5-1.1 4.7l-20.3 16.6c-6.1 5-7.6 13.6-3.7 20.4c14.7 25.4 35.9 46.6 61.4 61.4c6.8 3.9 15.4 2.4 20.4-3.7l16.6-20.3c1.1-1.4 3-1.8 4.7-1.1l56 24c1.8 .8 2.7 2.6 2.3 4.5l-12 56c-.4 1.8-2 3.2-3.9 3.2c-114.9 0-208-93.1-208-208c0-1.9 1.3-3.5 3.2-3.9l56-12zm33.9-10.3c-6.8-15.8-23.8-24.6-40.6-21l-56 12C123.9 128.4 112 143 112 160c0 132.5 107.4 240 240 240c17 0 31.6-11.9 35.2-28.5l12-56c3.6-16.8-5.2-33.9-21-40.6l-56-24c-14.7-6.3-31.9-2.1-42 10.3l-7.5 9.2c-11.9-8.6-22.4-19.1-31-31l9.2-7.5c12.4-10.2 16.6-27.3 10.3-42l-24-56z"/></svg>