<svg xmlns="http://www.w3.org/2000/svg" viewBox="0 0 640 512"><!--! Font Awesome Pro 6.4.0 by @fontawesome - https://fontawesome.com License - https://fontawesome.com/license (Commercial License) Copyright 2023 Fonticons, Inc. --><path d="M96 16V64h64V16c0-8.8 7.2-16 16-16s16 7.2 16 16V64 80 96H176 64c-17.7 0-32 14.3-32 32V448c0 17.7 14.3 32 32 32H197.5c4.2 11.9 10.7 22.8 19 32H64c-35.3 0-64-28.7-64-64V128C0 92.7 28.7 64 64 64V16C64 7.2 71.2 0 80 0s16 7.2 16 16zM512 192c-17.7 0-32-14.3-32-32V64c0-17.7-14.3-32-32-32H288c-17.7 0-32 14.3-32 32V448c0 17.7 14.3 32 32 32h32H448 576c17.7 0 32-14.3 32-32V224c0-17.7-14.3-32-32-32H512zm0-128v64 32h32 32c35.3 0 64 28.7 64 64V448c0 35.3-28.7 64-64 64H448 320 288c-35.3 0-64-28.7-64-64V64c0-35.3 28.7-64 64-64H448c35.3 0 64 28.7 64 64zM320 392V344c0-13.3 10.7-24 24-24h48c13.3 0 24 10.7 24 24v48c0 13.3-10.7 24-24 24H344c-13.3 0-24-10.7-24-24zm32-8h32V352H352v32zM344 64h48c13.3 0 24 10.7 24 24v48c0 13.3-10.7 24-24 24H344c-13.3 0-24-10.7-24-24V88c0-13.3 10.7-24 24-24zm8 64h32V96H352v32zM320 264V216c0-13.3 10.7-24 24-24h48c13.3 0 24 10.7 24 24v48c0 13.3-10.7 24-24 24H344c-13.3 0-24-10.7-24-24zm32-8h32V224H352v32zM504 448c-13.3 0-24-10.7-24-24V376c0-13.3 10.7-24 24-24h48c13.3 0 24 10.7 24 24v48c0 13.3-10.7 24-24 24H504zm8-64v32h32V384H512zm-32-88V248c0-13.3 10.7-24 24-24h48c13.3 0 24 10.7 24 24v48c0 13.3-10.7 24-24 24H504c-13.3 0-24-10.7-24-24zm32-8h32V256H512v32zM88 352c-13.3 0-24-10.7-24-24V280c0-13.3 10.7-24 24-24h48c13.3 0 24 10.7 24 24v48c0 13.3-10.7 24-24 24H88zm8-64v32h32V288H96zM64 200V152c0-13.3 10.7-24 24-24h48c13.3 0 24 10.7 24 24v48c0 13.3-10.7 24-24 24H88c-13.3 0-24-10.7-24-24zm32-8h32V160H96v32z"/></svg>