<svg xmlns="http://www.w3.org/2000/svg" viewBox="0 0 512 512"><!--! Font Awesome Pro 6.4.0 by @fontawesome - https://fontawesome.com License - https://fontawesome.com/license (Commercial License) Copyright 2023 Fonticons, Inc. --><path d="M480 192V416c0 17.7-14.3 32-32 32H64c-17.7 0-32-14.3-32-32V192H480zm0-32H382.6l87.3-87.3C476.1 78.5 480 86.8 480 96v64zm-249.4 0l96-96H433.4l-96 96H230.6zm-45.3 0H78.6l96-96H281.4l-96 96zM64 64h65.4l-96 96H32V96c0-17.7 14.3-32 32-32zm448 96V96c0-35.3-28.7-64-64-64H64C28.7 32 0 60.7 0 96v64 16 16V416c0 35.3 28.7 64 64 64H448c35.3 0 64-28.7 64-64V192 176 160zM216.1 226.2c-4.9-2.9-11.1-2.9-16.1-.1s-8.1 8.1-8.1 13.9V400c0 5.7 3.1 11 8.1 13.9s11.1 2.8 16.1-.1l136-80c4.9-2.9 7.9-8.1 7.9-13.8s-3-10.9-7.9-13.8l-136-80zM312.4 320L224 372V268l88.4 52z"/></svg>