<svg xmlns="http://www.w3.org/2000/svg" viewBox="0 0 512 512"><!--! Font Awesome Pro 6.4.0 by @fontawesome - https://fontawesome.com License - https://fontawesome.com/license (Commercial License) Copyright 2023 Fonticons, Inc. --><path d="M32 192V416c0 17.7 14.3 32 32 32H448c17.7 0 32-14.3 32-32V192H32zm350.6-32H480V96c0-9.2-3.9-17.5-10.1-23.3L382.6 160zm-45.3 0l96-96H326.6l-96 96H337.4zm-56-96H174.6l-96 96H185.4l96-96zm-152 0H64C46.3 64 32 78.3 32 96v64h1.4l96-96zM512 96v64 16 16V416c0 35.3-28.7 64-64 64H64c-35.3 0-64-28.7-64-64V192 176 160 96C0 60.7 28.7 32 64 32H448c35.3 0 64 28.7 64 64z"/></svg>