<svg xmlns="http://www.w3.org/2000/svg" viewBox="0 0 384 512"><!--! Font Awesome Pro 6.4.0 by @fontawesome - https://fontawesome.com License - https://fontawesome.com/license (Commercial License) Copyright 2023 Fonticons, Inc. --><path d="M145.5 68c5.3-20.7 24.1-36 46.5-36s41.2 15.3 46.5 36c1.8 7.1 8.2 12 15.5 12h18c8.8 0 16 7.2 16 16v32H192 96V96c0-8.8 7.2-16 16-16h18c7.3 0 13.7-4.9 15.5-12zM192 0c-32.8 0-61 19.8-73.3 48H112C91.1 48 73.3 61.4 66.7 80H64C28.7 80 0 108.7 0 144V448c0 35.3 28.7 64 64 64H320c35.3 0 64-28.7 64-64V144c0-35.3-28.7-64-64-64h-2.7c-6.6-18.6-24.4-32-45.3-32h-6.7C253 19.8 224.8 0 192 0zM320 112c17.7 0 32 14.3 32 32V448c0 17.7-14.3 32-32 32H64c-17.7 0-32-14.3-32-32V144c0-17.7 14.3-32 32-32v16c0 17.7 14.3 32 32 32h96 96c17.7 0 32-14.3 32-32V112zM208 80a16 16 0 1 0 -32 0 16 16 0 1 0 32 0zM176 208c-17.7 0-32 14.3-32 32v32H112c-17.7 0-32 14.3-32 32v32c0 17.7 14.3 32 32 32h32v32c0 17.7 14.3 32 32 32h32c17.7 0 32-14.3 32-32V368h32c17.7 0 32-14.3 32-32V304c0-17.7-14.3-32-32-32H240V240c0-17.7-14.3-32-32-32H176zm0 80V240h32v48c0 8.8 7.2 16 16 16h48v32H224c-8.8 0-16 7.2-16 16v48H176V352c0-8.8-7.2-16-16-16H112V304h48c4.2 0 8.3-1.7 11.3-4.7s4.7-7.1 4.7-11.3z"/></svg>