<svg xmlns="http://www.w3.org/2000/svg" viewBox="0 0 512 512"><!--! Font Awesome Pro 6.4.0 by @fontawesome - https://fontawesome.com License - https://fontawesome.com/license (Commercial License) Copyright 2023 Fonticons, Inc. --><path d="M322.8 484.2c6.5 5.9 7 16.1 1.1 22.6s-16.1 7-22.6 1.1l-88-80c-3.3-3-5.2-7.3-5.2-11.8s1.9-8.8 5.2-11.8l88-80c6.5-5.9 16.7-5.5 22.6 1.1s5.5 16.7-1.1 22.6L265.4 400H336c44.2 0 80-35.8 80-80V158.4c-36.5-7.4-64-39.7-64-78.4c0-44.2 35.8-80 80-80s80 35.8 80 80c0 38.7-27.5 71-64 78.4V320c0 61.9-50.1 112-112 112H265.4l57.4 52.2zM384 80a48 48 0 1 0 96 0 48 48 0 1 0 -96 0zM189.2 27.8c-6.5-5.9-7-16.1-1.1-22.6s16.1-7 22.6-1.1l88 80c3.3 3 5.2 7.3 5.2 11.8s-1.9 8.8-5.2 11.8l-88 80c-6.5 5.9-16.7 5.5-22.6-1.1s-5.5-16.7 1.1-22.6L246.6 112H176c-44.2 0-80 35.8-80 80V353.6c36.5 7.4 64 39.7 64 78.4c0 44.2-35.8 80-80 80s-80-35.8-80-80c0-38.7 27.5-71 64-78.4V192c0-61.9 50.1-112 112-112h70.6L189.2 27.8zM128 432a48 48 0 1 0 -96 0 48 48 0 1 0 96 0z"/></svg>