<svg xmlns="http://www.w3.org/2000/svg" viewBox="0 0 384 512"><!--! Font Awesome Pro 6.4.0 by @fontawesome - https://fontawesome.com License - https://fontawesome.com/license (Commercial License) Copyright 2023 Fonticons, Inc. --><path d="M352 352V160c0-70.7-57.3-128-128-128H160C89.3 32 32 89.3 32 160V352c0 70.7 57.3 128 128 128h64c70.7 0 128-57.3 128-128zM0 160C0 71.6 71.6 0 160 0h64c88.4 0 160 71.6 160 160V352c0 88.4-71.6 160-160 160H160C71.6 512 0 440.4 0 352V160zm208-48v64c0 8.8-7.2 16-16 16s-16-7.2-16-16V112c0-8.8 7.2-16 16-16s16 7.2 16 16z"/></svg>