<svg xmlns="http://www.w3.org/2000/svg" viewBox="0 0 640 512"><!--! Font Awesome Pro 6.4.0 by @fontawesome - https://fontawesome.com License - https://fontawesome.com/license (Commercial License) Copyright 2023 Fonticons, Inc. --><path d="M304 32c8.8 0 16 7.2 16 16V240c0 8.8-7.2 16-16 16H112c-8.8 0-16-7.2-16-16V48c0-8.8 7.2-16 16-16H304zM112 0C85.5 0 64 21.5 64 48V240c0 26.5 21.5 48 48 48H304c26.5 0 48-21.5 48-48V48c0-26.5-21.5-48-48-48H112zM528 96c8.8 0 16 7.2 16 16V240c0 8.8-7.2 16-16 16H432c-8.8 0-16-7.2-16-16V112c0-8.8 7.2-16 16-16h96zM432 64c-26.5 0-48 21.5-48 48V240c0 26.5 21.5 48 48 48h96c26.5 0 48-21.5 48-48V112c0-26.5-21.5-48-48-48H432zM608 416c0 35.3-28.7 64-64 64H96c-35.3 0-64-28.7-64-64s28.7-64 64-64H544c35.3 0 64 28.7 64 64zM96 320c-53 0-96 43-96 96s43 96 96 96H544c53 0 96-43 96-96s-43-96-96-96H96zm56 96a24 24 0 1 0 -48 0 24 24 0 1 0 48 0zm168 24a24 24 0 1 0 0-48 24 24 0 1 0 0 48zm216-24a24 24 0 1 0 -48 0 24 24 0 1 0 48 0z"/></svg>