<svg xmlns="http://www.w3.org/2000/svg" viewBox="0 0 640 512"><!--! Font Awesome Pro 6.4.0 by @fontawesome - https://fontawesome.com License - https://fontawesome.com/license (Commercial License) Copyright 2023 Fonticons, Inc. --><path d="M128 16c0 8.8 7.2 16 16 16h77.1l-5.5 32.7C193.1 68.7 176 88.3 176 112c0 26.5 21.5 48 48 48c18.6 0 34.8-10.6 42.8-26.2L448 158v50c0 8.8 7.2 16 16 16s16-7.2 16-16V144c0-8-5.9-14.8-13.9-15.9L271 102.1c-2.9-13.8-11.8-25.5-23.8-32.1l6.3-38H336c8.8 0 16-7.2 16-16s-7.2-16-16-16H144c-8.8 0-16 7.2-16 16zm72 96a24 24 0 1 1 48 0 24 24 0 1 1 -48 0zM448 288h32v32H448V288zm-32-8v40H352V280c0-13.3-10.7-24-24-24H280c-13.3 0-24 10.7-24 24v40H192V280c0-13.3-10.7-24-24-24H120c-13.3 0-24 10.7-24 24l0 40c-53 0-96 43-96 96s43 96 96 96H544c53 0 96-43 96-96s-43-96-96-96H512V280c0-13.3-10.7-24-24-24H440c-13.3 0-24 10.7-24 24zM96 352h24 48H280h48H440h48 56c35.3 0 64 28.7 64 64s-28.7 64-64 64H96c-35.3 0-64-28.7-64-64s28.7-64 64-64zm64-64v32H128V288h32zm128 32V288h32v32H288zM128 440a24 24 0 1 0 0-48 24 24 0 1 0 0 48zm216-24a24 24 0 1 0 -48 0 24 24 0 1 0 48 0zm168 24a24 24 0 1 0 0-48 24 24 0 1 0 0 48z"/></svg>