<svg xmlns="http://www.w3.org/2000/svg" viewBox="0 0 576 512"><!--! Font Awesome Pro 6.4.0 by @fontawesome - https://fontawesome.com License - https://fontawesome.com/license (Commercial License) Copyright 2023 Fonticons, Inc. --><path d="M176 32h96c8.8 0 16 7.2 16 16V96H160V48c0-8.8 7.2-16 16-16zM128 48V96H112c-21.4 0-40.3 14.2-46.2 34.8l-64 224c-4.1 14.5-1.2 30.1 7.8 42.1S32.9 416 48 416H262.6c-2.9-10.3-4.9-21-5.9-32H48c-5 0-9.8-2.4-12.8-6.4s-4-9.2-2.6-14l64-224c2-6.9 8.2-11.6 15.4-11.6h32H304h32c7.1 0 13.4 4.7 15.4 11.6l18.2 63.8c9.9-3.7 20.2-6.6 30.8-8.6l-18.3-64C376.3 110.2 357.4 96 336 96H320V48c0-26.5-21.5-48-48-48H176c-26.5 0-48 21.5-48 48zM256 448c0 17.7-14.3 32-32 32s-32-14.3-32-32H160c0 35.3 28.7 64 64 64c29.2 0 53.9-19.6 61.5-46.4c-3.8-5.7-7.2-11.5-10.3-17.6H256zm64-80a112 112 0 1 1 224 0 112 112 0 1 1 -224 0zm256 0a144 144 0 1 0 -288 0 144 144 0 1 0 288 0zM448 304c0-8.8-7.2-16-16-16s-16 7.2-16 16v48H368c-8.8 0-16 7.2-16 16s7.2 16 16 16h48v48c0 8.8 7.2 16 16 16s16-7.2 16-16V384h48c8.8 0 16-7.2 16-16s-7.2-16-16-16H448V304z"/></svg>