<svg xmlns="http://www.w3.org/2000/svg" viewBox="0 0 512 512"><!--! Font Awesome Pro 6.4.0 by @fontawesome - https://fontawesome.com License - https://fontawesome.com/license (Commercial License) Copyright 2023 Fonticons, Inc. --><path d="M507.3 4.7c6.2 6.2 6.2 16.4 0 22.6l-151 151 30.1 30.1c21.9 21.9 21.9 57.3 0 79.2L178 495.9c-10 10-24.4 16.7-40.4 15.6c-11.3-.8-28.6-2.8-46.4-8.2C73.9 498.2 54.1 489.1 39 473c-16.2-15-25.2-34.9-30.4-52.2l30.6-9.3c4.4 14.5 11.2 28.4 21.6 38c.6 .5 1.1 1.1 1.6 1.6c9.6 10.4 23.5 17.2 38 21.6c14.7 4.4 29.3 6.2 39.3 6.9c5.6 .4 11.2-1.9 15.6-6.3L308.7 320H240c-26.5 0-48-21.5-48-48V203.3L38.7 356.6c-4.4 4.4-6.7 10.1-6.3 15.6c.7 10 2.4 24.6 6.9 39.3L8.6 420.8C3.2 403 1.2 385.7 .5 374.4C-.6 358.4 6.1 344 16.1 334L224.4 125.7c21.9-21.9 57.3-21.9 79.2 0l30.1 30.1 151-151c6.2-6.2 16.4-6.2 22.6 0zM224 171.3V272c0 8.8 7.2 16 16 16H340.7l23-23c9.4-9.4 9.4-24.6 0-33.9L281 148.3c-9.4-9.4-24.6-9.4-33.9 0l-23 23zM480 432a48 48 0 1 0 -96 0 48 48 0 1 0 96 0zm-128 0a80 80 0 1 1 160 0 80 80 0 1 1 -160 0z"/></svg>