<svg xmlns="http://www.w3.org/2000/svg" viewBox="0 0 512 512"><!--! Font Awesome Pro 6.4.0 by @fontawesome - https://fontawesome.com License - https://fontawesome.com/license (Commercial License) Copyright 2023 Fonticons, Inc. --><path d="M479.4 240H384c-8.8 0-16 7.2-16 16s7.2 16 16 16h95.4C471.6 383 383 471.6 272 479.4V384c0-8.8-7.2-16-16-16s-16 7.2-16 16v95.4C129 471.6 40.4 383 32.6 272H128c8.8 0 16-7.2 16-16s-7.2-16-16-16H32.6C40.4 129 129 40.4 240 32.6V128c0 8.8 7.2 16 16 16s16-7.2 16-16V32.6C383 40.4 471.6 129 479.4 240zM0 256a256 256 0 1 0 512 0A256 256 0 1 0 0 256z"/></svg>