<svg xmlns="http://www.w3.org/2000/svg" viewBox="0 0 512 512"><!--! Font Awesome Pro 6.4.0 by @fontawesome - https://fontawesome.com License - https://fontawesome.com/license (Commercial License) Copyright 2023 Fonticons, Inc. --><path d="M256 0c8.8 0 16 7.2 16 16V48.6C374.1 56.4 455.6 137.9 463.4 240H496c8.8 0 16 7.2 16 16s-7.2 16-16 16H463.4C455.6 374.1 374.1 455.6 272 463.4V496c0 8.8-7.2 16-16 16s-16-7.2-16-16V463.4C137.9 455.6 56.4 374.1 48.6 272H16c-8.8 0-16-7.2-16-16s7.2-16 16-16H48.6C56.4 137.9 137.9 56.4 240 48.6V16c0-8.8 7.2-16 16-16zM80.7 272c7.6 84.4 74.8 151.7 159.3 159.3V384c0-8.8 7.2-16 16-16s16 7.2 16 16v47.3c84.4-7.6 151.7-74.8 159.3-159.3H384c-8.8 0-16-7.2-16-16s7.2-16 16-16h47.3C423.7 155.6 356.4 88.3 272 80.7V128c0 8.8-7.2 16-16 16s-16-7.2-16-16V80.7C155.6 88.3 88.3 155.6 80.7 240H128c8.8 0 16 7.2 16 16s-7.2 16-16 16H80.7zM256 232a24 24 0 1 1 0 48 24 24 0 1 1 0-48z"/></svg>