<svg xmlns="http://www.w3.org/2000/svg" viewBox="0 0 448 512"><!--! Font Awesome Pro 6.4.0 by @fontawesome - https://fontawesome.com License - https://fontawesome.com/license (Commercial License) Copyright 2023 Fonticons, Inc. --><path d="M416 224c0 49.2-18.5 94-48.9 128h40.7c25.3-36.3 40.2-80.4 40.2-128C448 100.3 347.7 0 224 0S0 100.3 0 224c0 47.6 14.8 91.7 40.2 128H80.9C50.5 318 32 273.2 32 224C32 118 118 32 224 32s192 86 192 192zM64 384c-5.6 0-10.8 2.9-13.7 7.8l-46.2 77C1.4 473.2 0 478.3 0 483.5C0 499.2 12.8 512 28.5 512H419.5c15.8 0 28.5-12.8 28.5-28.5c0-5.2-1.4-10.2-4.1-14.7l-46.2-77c-2.9-4.8-8.1-7.8-13.7-7.8H64zM34.7 480l38.4-64H374.9l38.4 64H34.7zM288 144c-8.8 0-16 7.2-16 16v48H224c-8.8 0-16 7.2-16 16s7.2 16 16 16h48v48c0 8.8 7.2 16 16 16s16-7.2 16-16V240h48c8.8 0 16-7.2 16-16s-7.2-16-16-16H304V160c0-8.8-7.2-16-16-16zM144 96c-8.8 0-16 7.2-16 16v16H112c-8.8 0-16 7.2-16 16s7.2 16 16 16h16v16c0 8.8 7.2 16 16 16s16-7.2 16-16V160h16c8.8 0 16-7.2 16-16s-7.2-16-16-16H160V112c0-8.8-7.2-16-16-16z"/></svg>