<svg xmlns="http://www.w3.org/2000/svg" viewBox="0 0 448 512"><!--! Font Awesome Pro 6.4.0 by @fontawesome - https://fontawesome.com License - https://fontawesome.com/license (Commercial License) Copyright 2023 Fonticons, Inc. --><path d="M416 80.4V182.1c-14.5 10.6-37.9 20.6-68.9 28.3C312.5 218.9 270 224 224 224s-88.5-5.1-123.1-13.6c-31-7.6-54.4-17.7-68.9-28.3V80.4c.3-.8 1.6-3.2 6.2-7.1c7.3-6.2 19.9-13.2 38.1-19.7C112.6 40.6 164.8 32 224 32s111.4 8.6 147.6 21.6c18.3 6.5 30.8 13.5 38.1 19.7c4.7 4 6 6.4 6.2 7.1zm0 139.1v90.6c-14.5 10.6-37.9 20.6-68.9 28.3C312.5 346.9 270 352 224 352s-88.5-5.1-123.1-13.6c-31-7.6-54.4-17.7-68.9-28.3V219.5c17.2 8.9 38.1 16.3 61.2 21.9C130.7 250.7 175.8 256 224 256s93.3-5.3 130.8-14.5c23.1-5.7 44-13 61.2-21.9zM32 431.6v-84c17.2 8.9 38.1 16.3 61.2 21.9C130.7 378.7 175.8 384 224 384s93.3-5.3 130.8-14.5c23.1-5.7 44-13 61.2-21.9v84c-.3 .8-1.6 3.2-6.2 7.1c-7.3 6.2-19.9 13.2-38.1 19.7C335.4 471.4 283.2 480 224 480s-111.4-8.6-147.6-21.6c-18.3-6.5-30.8-13.5-38.1-19.7c-4.7-4-6-6.4-6.2-7.1zm384.1-.3a.1 .1 0 1 0 -.2 0 .1 .1 0 1 0 .2 0zm-384.2 0a.1 .1 0 1 0 .1 0 .1 .1 0 1 0 -.1 0zm0-350.6a.1 .1 0 1 0 .1-.1 .1 .1 0 1 0 -.1 .1zM416 80.6a.1 .1 0 1 0 -.1 .3 .1 .1 0 1 0 .1-.3zM448 432V80C448 35.8 347.7 0 224 0S0 35.8 0 80V432c0 44.2 100.3 80 224 80s224-35.8 224-80z"/></svg>