<svg xmlns="http://www.w3.org/2000/svg" viewBox="0 0 576 512"><!--! Font Awesome Pro 6.4.0 by @fontawesome - https://fontawesome.com License - https://fontawesome.com/license (Commercial License) Copyright 2023 Fonticons, Inc. --><path d="M240 0c8.8 0 16 7.2 16 16V40c0 13.3 10.7 24 24 24h8 8c13.3 0 24-10.7 24-24V16c0-8.8 7.2-16 16-16s16 7.2 16 16V40c0 8.6-1.9 16.7-5.4 24h38.8H416c13.3 0 24-10.7 24-24V16c0-8.8 7.2-16 16-16s16 7.2 16 16V40c0 22-12.7 41.1-31.2 50.2l35 35C483.1 108 500.2 96 520 96c26.5 0 48 21.5 48 48s-21.5 48-48 48c-2.9 0-5.7-.3-8.4-.7c-3.4 27.5-26.8 48.7-55.2 48.7H403.9l-18.6 61.8c-.9 3-1.4 6.1-1.4 9.2V472c0 22.1-17.9 40-40 40H312c-22.1 0-40-17.9-40-40V368H257.2c-24.1 0-47.7-5.7-69-16.6c-.9 17.8-10.1 34.4-25.3 44.6c-9.3 6.2-13.4 17.9-9.8 28.6l11.6 34.8c8.6 25.9-10.6 52.6-37.9 52.6H97.3c-17.2 0-32.5-11-37.9-27.4L37.9 420.2c-4.4-13.1-4.4-27.3 0-40.5l8.5-25.4c1.1-3.3 1.6-6.7 1.6-10.1v-4.3c0-8.5-3.4-16.6-9.4-22.6l-3.9-3.9c-.7-.7-1.5-1.5-2.2-2.3L32 321c-.6 8.8-8.1 15.5-17 15s-15.5-8.1-15-17l3.3-53c3.2-50.6 45.1-90 95.8-90H104h16H300.7l10-35.9-13.8 9.2c-7.4 4.9-17.3 2.9-22.2-4.4s-2.9-17.3 4.4-22.2l40-26.7H296h-8-8c-30.9 0-56-25.1-56-56V16c0-8.8 7.2-16 16-16zM348.3 124.2l-20 72.1c-1.9 6.9-8.2 11.7-15.4 11.7H120 104c-30.9 0-56 25.1-56 56v4.1c0 8.5 3.4 16.6 9.4 22.6l3.9 3.9c12 12 18.7 28.3 18.7 45.3v4.3c0 6.9-1.1 13.7-3.3 20.2l-8.5 25.4c-2.2 6.6-2.2 13.7 0 20.2l21.5 64.4c1.1 3.3 4.1 5.5 7.6 5.5h29.4c5.5 0 9.3-5.4 7.6-10.5l-11.6-34.8c-8.1-24.3 1.1-51.1 22.4-65.3c8.2-5.4 12.4-15.1 10.8-24.8l-3.7-21.9c-1-6.3 1.7-12.6 7.1-16.1s12.3-3.4 17.6 .1l13.7 9.2C210.3 329 233.5 336 257.2 336H288c8.8 0 16 7.2 16 16V472c0 4.4 3.6 8 8 8h32c4.4 0 8-3.6 8-8V311c0-6.2 .9-12.4 2.7-18.4l22-73.3c2-6.8 8.3-11.4 15.3-11.4h64.4c13 0 23.6-10.6 23.6-23.6c0-6.3-2.5-12.3-6.9-16.7l-60.4-60.4c-7.2-7.2-17-11.3-27.2-11.3c-17.3 0-32.5 11.5-37.1 28.2zM400 128a16 16 0 1 1 0 32 16 16 0 1 1 0-32zm136 16a16 16 0 1 0 -32 0 16 16 0 1 0 32 0z"/></svg>