<svg xmlns="http://www.w3.org/2000/svg" viewBox="0 0 640 512"><!--! Font Awesome Pro 6.4.0 by @fontawesome - https://fontawesome.com License - https://fontawesome.com/license (Commercial License) Copyright 2023 Fonticons, Inc. --><path d="M92.9 0C84.3 0 76 4.6 71.6 12.6c-2.4 4.3-6 11.3-9.2 18.7C59.6 37.9 56 47.5 56 56c0 16 6.9 29.6 14.8 40.1L19.5 155.5C6.9 170 0 188.6 0 207.8v5.4C0 254.5 33.5 288 74.7 288c17.5 0 34.4-6.1 47.8-17.3l13.7-11.4L160 330.6V336 464c0 26.5 21.5 48 48 48h48c26.5 0 48-21.5 48-48V416H432v48c0 26.5 21.5 48 48 48h48c26.5 0 48-21.5 48-48V336v-8V208c0-4.9-.4-9.7-1.3-14.4c2.9 2.9 5.5 5.8 8 8.7c9.2 10.9 15.9 21.8 20.2 30.1c2.2 4.1 3.7 7.5 4.7 9.8c.5 1.1 .9 2 1.1 2.6l.2 .6 0 .1 0 0 0 0 0 0 0 0c3 8.3 12.2 12.6 20.5 9.5s12.6-12.2 9.6-20.5L624 240c15-5.5 15-5.5 15-5.5l0 0 0 0 0-.1-.1-.3-.4-1c-.3-.9-.8-2-1.5-3.5c-1.3-2.9-3.2-7.1-5.7-12c-5.1-9.8-13-22.8-24.1-35.9c-22.2-26.2-58.3-53.6-111-53.7c0 0-.1 0-.1 0H277.5c-4.3 0-8.5-1.7-11.5-4.8L225.9 81.9c3.6-7.6 6.1-16.3 6.1-25.9c0-8.5-3.6-18.1-6.4-24.7c-3.1-7.4-6.8-14.4-9.2-18.7C212 4.6 203.7 0 195.1 0c-5.8 0-11.4 2-15.8 5.8L144 35.5 108.7 5.8C104.3 2 98.7 0 92.9 0zm403 160c0 0 0 0 .1 0c.1 0 .1 0 .2 0c26.4 .1 47.8 21.5 47.8 48V320H190.2l-31-93.1c-1.7-5-5.7-8.9-10.8-10.3s-10.6-.3-14.6 3.1l-31.7 26.4c-7.7 6.4-17.4 9.9-27.4 9.9C51.1 256 32 236.9 32 213.3v-5.4c0-11.5 4.1-22.7 11.7-31.4l60.4-69.9c5.5-6.3 5.1-15.9-.8-21.8C94.2 75.6 88 65.5 88 56l0 0s0-.1 0-.3c0-.2 .1-.5 .1-.9c.1-.8 .4-1.7 .7-2.9c.7-2.4 1.7-5.2 3-8.2c1.1-2.5 2.3-5.1 3.4-7.5l37.5 31.5c3.7 3.1 8.5 4.4 13.3 3.5c.6-.1 1.1-.2 1.7-.3c3-.4 5.7-1.7 8-3.6l37-31.1c1.2 2.4 2.3 4.9 3.4 7.5c1.3 3 2.3 5.8 3 8.2c.3 1.2 .6 2.1 .7 2.9c.1 .4 .1 .7 .1 .9c0 .2 0 .3 0 .3l0 0c0 6.1-2.5 12.5-7.2 19.1c-4.4 6.3-3.8 14.9 1.6 20.4l48.7 50c9 9.3 21.4 14.5 34.4 14.5H495.9zM192 464V352H544V464c0 8.8-7.2 16-16 16H480c-8.8 0-16-7.2-16-16V400c0-8.8-7.2-16-16-16H288c-8.8 0-16 7.2-16 16v64c0 8.8-7.2 16-16 16H208c-8.8 0-16-7.2-16-16zm80-256c0-8.8-7.2-16-16-16s-16 7.2-16 16v16H224c-8.8 0-16 7.2-16 16s7.2 16 16 16h16v16c0 8.8 7.2 16 16 16s16-7.2 16-16V256h16c8.8 0 16-7.2 16-16s-7.2-16-16-16H272V208zm112 0c0-8.8-7.2-16-16-16s-16 7.2-16 16v16H336c-8.8 0-16 7.2-16 16s7.2 16 16 16h16v16c0 8.8 7.2 16 16 16s16-7.2 16-16V256h16c8.8 0 16-7.2 16-16s-7.2-16-16-16H384V208zm96-16c-8.8 0-16 7.2-16 16v16H448c-8.8 0-16 7.2-16 16s7.2 16 16 16h16v16c0 8.8 7.2 16 16 16s16-7.2 16-16V256h16c8.8 0 16-7.2 16-16s-7.2-16-16-16H496V208c0-8.8-7.2-16-16-16z"/></svg>