<svg xmlns="http://www.w3.org/2000/svg" viewBox="0 0 576 512"><!--! Font Awesome Pro 6.4.0 by @fontawesome - https://fontawesome.com License - https://fontawesome.com/license (Commercial License) Copyright 2023 Fonticons, Inc. --><path d="M64 0H240V32H64C46.3 32 32 46.3 32 64V256H544V64c0-17.7-14.3-32-32-32H336V0H512c35.3 0 64 28.7 64 64V256v32 64c0 35.3-28.7 64-64 64H362.9l10.7 64H432c8.8 0 16 7.2 16 16s-7.2 16-16 16H360 216 144c-8.8 0-16-7.2-16-16s7.2-16 16-16h58.4l10.7-64H64c-35.3 0-64-28.7-64-64V288 256 64C0 28.7 28.7 0 64 0zM32 288v64c0 17.7 14.3 32 32 32H231.7c.2 0 .4 0 .6 0H343.7c.2 0 .4 0 .6 0H512c17.7 0 32-14.3 32-32V288H32zM234.9 480H341.1l-10.7-64H245.6l-10.7 64zM304 16V169.4l52.7-52.7c6.2-6.2 16.4-6.2 22.6 0s6.2 16.4 0 22.6l-80 80c-6.2 6.2-16.4 6.2-22.6 0l-80-80c-6.2-6.2-6.2-16.4 0-22.6s16.4-6.2 22.6 0L272 169.4V16c0-8.8 7.2-16 16-16s16 7.2 16 16z"/></svg>