<svg xmlns="http://www.w3.org/2000/svg" viewBox="0 0 640 512"><!--! Font Awesome Pro 6.4.0 by @fontawesome - https://fontawesome.com License - https://fontawesome.com/license (Commercial License) Copyright 2023 Fonticons, Inc. --><path d="M512 64V320h96V96c0-17.7-14.3-32-32-32H512zm-32 0H384V192h96V64zM352 64H288V320h64V64zm-96 0H160V192h96V64zM128 64H64C46.3 64 32 78.3 32 96V320h96V64zM32 352v64c0 17.7 14.3 32 32 32H304V352H32zm304 96H576c17.7 0 32-14.3 32-32V352H336v96zM0 96C0 60.7 28.7 32 64 32H576c35.3 0 64 28.7 64 64V416c0 35.3-28.7 64-64 64H64c-35.3 0-64-28.7-64-64V96zM256 320V224H160v96h96zm224-96H384v96h96V224z"/></svg>