<svg xmlns="http://www.w3.org/2000/svg" viewBox="0 0 448 512"><!--! Font Awesome Pro 6.4.0 by @fontawesome - https://fontawesome.com License - https://fontawesome.com/license (Commercial License) Copyright 2023 Fonticons, Inc. --><path d="M220.1 35.6L47.9 136.2l176 101.2L400 133l-172-97.5 11.6-20.4L228.1 35.5c-2.5-1.4-5.5-1.4-8 .1zM32 164V366.6c0 2.9 1.6 5.6 4.1 7L208 469.9V265.3L32 164zM240 469.9l171.9-96.3c2.5-1.4 4.1-4.1 4.1-7V160.8L240 265.1V469.9zM203.9 7.9c12.3-7.2 27.5-7.3 39.9-.3L427.7 112c12.5 7.1 20.3 20.4 20.3 34.8V366.6c0 14.5-7.8 27.8-20.5 34.9l-184 103c-12.1 6.8-26.9 6.8-39.1 0l-184-103C7.8 394.4 0 381.1 0 366.6V150.1c0-14.2 7.5-27.4 19.8-34.5L203.9 7.9z"/></svg>