<svg xmlns="http://www.w3.org/2000/svg" viewBox="0 0 512 512"><!--! Font Awesome Pro 6.4.0 by @fontawesome - https://fontawesome.com License - https://fontawesome.com/license (Commercial License) Copyright 2023 Fonticons, Inc. --><path d="M480 256A224 224 0 1 0 32 256a224 224 0 1 0 448 0zM0 256a256 256 0 1 1 512 0A256 256 0 1 1 0 256zm112-16v32c0 4.4 3.6 8 8 8H392c4.4 0 8-3.6 8-8V240c0-4.4-3.6-8-8-8H120c-4.4 0-8 3.6-8 8zm-32 0c0-22.1 17.9-40 40-40H392c22.1 0 40 17.9 40 40v32c0 22.1-17.9 40-40 40H120c-22.1 0-40-17.9-40-40V240z"/></svg>