<svg xmlns="http://www.w3.org/2000/svg" viewBox="0 0 576 512"><!--! Font Awesome Pro 6.4.0 by @fontawesome - https://fontawesome.com License - https://fontawesome.com/license (Commercial License) Copyright 2023 Fonticons, Inc. --><path d="M416 32c17.7 0 32 14.3 32 32V480H128V64c0-17.7 14.3-32 32-32H416zm64 448V64c0-35.3-28.7-64-64-64H160C124.7 0 96 28.7 96 64V480H16c-8.8 0-16 7.2-16 16s7.2 16 16 16H96h32H448h32 80c8.8 0 16-7.2 16-16s-7.2-16-16-16H480zM408 256a24 24 0 1 0 -48 0 24 24 0 1 0 48 0z"/></svg>