<svg xmlns="http://www.w3.org/2000/svg" viewBox="0 0 384 512"><!--! Font Awesome Pro 6.4.0 by @fontawesome - https://fontawesome.com License - https://fontawesome.com/license (Commercial License) Copyright 2023 Fonticons, Inc. --><path d="M16 448H368c8.8 0 16 7.2 16 16s-7.2 16-16 16H16c-8.8 0-16-7.2-16-16s7.2-16 16-16zm174.2-96.8c.5 .5 1.1 .8 1.8 .8s1.4-.3 1.8-.8L318.2 219.3c1.2-1.2 1.8-2.9 1.8-4.6c0-3.7-3-6.7-6.7-6.7H256c-8.8 0-16-7.2-16-16V72c0-4.4-3.6-8-8-8H152c-4.4 0-8 3.6-8 8V192c0 8.8-7.2 16-16 16H70.7c-3.7 0-6.7 3-6.7 6.7c0 1.7 .7 3.3 1.8 4.6L190.2 351.2zM192 384c-9.5 0-18.6-3.9-25.1-10.8L42.5 241.2C35.8 234 32 224.5 32 214.7C32 193.3 49.3 176 70.7 176H112V72c0-22.1 17.9-40 40-40h80c22.1 0 40 17.9 40 40V176h41.3c21.4 0 38.7 17.3 38.7 38.7c0 9.9-3.8 19.3-10.5 26.5L217.1 373.2c-6.5 6.9-15.6 10.8-25.1 10.8z"/></svg>