<svg xmlns="http://www.w3.org/2000/svg" viewBox="0 0 640 512"><!--! Font Awesome Pro 6.4.0 by @fontawesome - https://fontawesome.com License - https://fontawesome.com/license (Commercial License) Copyright 2023 Fonticons, Inc. --><path d="M208 64c8.8 0 16 7.2 16 16V256 432c0 8.8-7.2 16-16 16H176c-8.8 0-16-7.2-16-16V368 144 80c0-8.8 7.2-16 16-16h32zM128 413.3V432c0 26.5 21.5 48 48 48h32c26.5 0 48-21.5 48-48V272H384V432c0 26.5 21.5 48 48 48h32c26.5 0 48-21.5 48-48V413.3c5 1.8 10.4 2.7 16 2.7h32c26.5 0 48-21.5 48-48V272h16c8.8 0 16-7.2 16-16s-7.2-16-16-16H608V144c0-26.5-21.5-48-48-48H528c-5.6 0-11 1-16 2.7V80c0-26.5-21.5-48-48-48H432c-26.5 0-48 21.5-48 48V240H256V80c0-26.5-21.5-48-48-48H176c-26.5 0-48 21.5-48 48V98.7C123 97 117.6 96 112 96H80c-26.5 0-48 21.5-48 48v96H16c-8.8 0-16 7.2-16 16s7.2 16 16 16H32v96c0 26.5 21.5 48 48 48h32c5.6 0 11-1 16-2.7zM512 144c0-8.8 7.2-16 16-16h32c8.8 0 16 7.2 16 16V256 368c0 8.8-7.2 16-16 16H528c-8.8 0-16-7.2-16-16V144zM480 368v64c0 8.8-7.2 16-16 16H432c-8.8 0-16-7.2-16-16V256 80c0-8.8 7.2-16 16-16h32c8.8 0 16 7.2 16 16v64V368zM128 144V368c0 8.8-7.2 16-16 16H80c-8.8 0-16-7.2-16-16V256 144c0-8.8 7.2-16 16-16h32c8.8 0 16 7.2 16 16z"/></svg>