<svg xmlns="http://www.w3.org/2000/svg" viewBox="0 0 576 512"><!--! Font Awesome Pro 6.4.0 by @fontawesome - https://fontawesome.com License - https://fontawesome.com/license (Commercial License) Copyright 2023 Fonticons, Inc. --><path d="M423.4 32H288l0 0 0 0H152.3c-.2 0-.4 0-.6 0H57c-14.7 0-27.5 10-31 24.2L.9 156.6c-.6 2.3-.9 4.6-.9 6.9C0 179.2 12.8 192 28.5 192h5.3H66h61.7 .6L288 192l159.7 0h.6H510h32.2 5.3c15.7 0 28.5-12.8 28.5-28.5c0-2.3-.3-4.7-.9-6.9L550.1 56.2C546.5 42 533.7 32 519 32H424c-.2 0-.4 0-.6 0zM37.5 224l3.8 32H16c-8.8 0-16 7.2-16 16s7.2 16 16 16H45.1L64 448.9V464c0 8.8 7.2 16 16 16s16-7.2 16-16V448H480v16c0 8.8 7.2 16 16 16s16-7.2 16-16V448.9L530.9 288H560c8.8 0 16-7.2 16-16s-7.2-16-16-16H534.7l3.8-32H506.2L483.7 416H92.3L69.8 224H37.5zm490.2-64H461.2L443 64l76 0 24 96H528.2h-.4zM410.4 64l18.2 96H304V64l106.4 0zM272 64v96H147.3l18-96L272 64zM132.7 64l-18 96H48.2h-.4H33L57 64l75.7 0z"/></svg>