<svg xmlns="http://www.w3.org/2000/svg" viewBox="0 0 512 512"><!-- Font Awesome Pro 6.0.0-alpha2 by @fontawesome - https://fontawesome.com License - https://fontawesome.com/license (Commercial License) --><path d="M191.941 119.25C191.941 112.25 186.25 106.5 179.348 106.5H179.227C175.836 106.5 172.566 107.75 170.266 110.25L141.809 138.75C139.387 141.125 138.055 144.25 138.055 147.625V147.75C138.055 154.75 143.746 160.375 150.77 160.375H168.813C172.203 160.375 175.352 159.125 177.652 156.75L188.188 146.25C190.609 143.75 191.941 140.625 191.941 137.25V119.25ZM256 16C123.451 16 16 123.451 16 256S123.451 496 256 496S496 388.549 496 256S388.549 16 256 16ZM303.953 458.199V432C303.953 405.5 282.52 384 256 384H235.777C231.902 384 222.699 380.875 219.551 378.625L197.391 361.875C194 359.375 191.941 355.25 191.941 351.125V327.25C191.941 322.5 194.484 318.125 198.48 315.625L241.348 289.875C243.527 288.625 245.949 288 248.25 288H279.492C282.641 288 285.789 289.25 288.332 291.25L340.523 336H370.676L387.992 353.25C397.559 362.75 410.152 368 423.473 368H430.992C402.301 412.668 357.07 445.596 303.953 458.199ZM447.953 336H423.594C418.75 336 414.148 334.125 410.758 330.75L393.441 313.375C387.387 307.375 379.273 304 370.797 304H352.512L309.281 266.875C301.047 259.75 290.633 256 279.734 256H248.492C240.258 256 232.145 258.25 225.121 262.5L182.254 288.25C168.449 296.375 160.094 311.25 160.094 327.25V351.125C160.094 365.375 166.754 378.875 178.258 387.5L200.539 404.25C209.137 410.75 225.121 416 235.898 416H256.121C264.84 416 272.105 423.25 272.105 432V463.184C266.773 463.596 261.436 464 256 464C141.309 464 48 370.691 48 256C48 145.543 134.615 55.178 243.457 48.635L240.016 51.125C229.844 58.75 224.031 70.25 224.031 82.5V105.75C224.031 112.125 227.059 122.75 229.844 128C229.117 130.125 208.773 143 205.262 146.5C196.664 155.125 191.941 166.5 191.941 178.625V195C191.941 220 212.406 240.375 237.352 240.375H262.66C273.68 240.375 283.852 236.5 291.844 229.75C295.84 231.25 300.078 231.875 304.559 231.875H317.879C343.551 231.875 350.09 211.75 353.965 210.375C359.051 219.5 367.527 226.625 377.457 229.875C373.219 244.125 376.609 260.25 387.629 271.5L405.793 290.625C414.512 299.5 426.379 304.5 438.488 304.5H458.059C455.457 315.33 452.18 325.898 447.953 336ZM438.73 272.375C435.098 272.375 431.586 270.875 429.043 268.375L410.637 249C406.762 245.125 406.883 238.875 410.758 235C423.352 222.375 421.172 226.375 421.172 217.25C421.172 214.75 420.203 212.25 418.387 210.5L410.516 202.625C408.699 200.75 406.277 199.75 403.855 199.75H390.414C381.938 199.75 377.82 189.5 383.754 183.625L391.625 176.25C393.441 174.5 395.742 173.5 398.285 173.5H406.641C411.848 173.5 416.086 169.25 416.086 164V153.75C416.086 148.625 411.848 144.25 406.641 144.25H378.426C371.039 144.25 364.984 150.25 364.984 157.75V163.25C364.984 169.125 361.352 174.25 355.781 176L329.262 184.75C325.023 186.25 324.66 189.75 324.66 193C324.66 196.75 321.754 199.75 318 199.75H304.559C300.926 199.75 297.898 196.75 297.898 193C297.898 184.625 285.426 184.375 282.641 190C273.559 202.375 271.137 208.25 262.66 208.25H237.352C229.965 208.25 224.031 202.25 224.031 194.75V178.375C224.031 174.75 225.363 171.375 227.906 168.875C247.402 154.875 257.453 151.25 257.453 137.375C257.453 134.5 259.27 131.875 262.055 131L295.719 119.75C297.051 119.25 298.383 118.625 299.352 117.5L321.875 95C326.84 90 325.387 80.125 315.215 80.125H297.777L284.457 99V105.75C284.457 109.375 281.43 112.375 277.676 112.375H262.66C259.027 112.375 256 109.375 256 105.75V82.5C256 80.375 256.969 78.375 258.664 77.125L293.922 51.629C390.547 69.525 464 154.273 464 256C464 261.527 463.596 266.955 463.17 272.375H438.73Z"/></svg>