<svg xmlns="http://www.w3.org/2000/svg" viewBox="0 0 512 512"><!--! Font Awesome Pro 6.4.0 by @fontawesome - https://fontawesome.com License - https://fontawesome.com/license (Commercial License) Copyright 2023 Fonticons, Inc. --><path d="M155.3 4.7l64 64c6.2 6.2 6.2 16.4 0 22.6s-16.4 6.2-22.6 0L144 38.6 91.3 91.3c-6.2 6.2-16.4 6.2-22.6 0s-6.2-16.4 0-22.6l64-64c6.2-6.2 16.4-6.2 22.6 0zm160 0L368 57.4 420.7 4.7c6.2-6.2 16.4-6.2 22.6 0s6.2 16.4 0 22.6l-64 64c-6.2 6.2-16.4 6.2-22.6 0l-64-64c-6.2-6.2-6.2-16.4 0-22.6s16.4-6.2 22.6 0zM64 160c-17.7 0-32 14.3-32 32V448c0 17.7 14.3 32 32 32H448c17.7 0 32-14.3 32-32V192c0-17.7-14.3-32-32-32H64zM0 192c0-35.3 28.7-64 64-64H448c35.3 0 64 28.7 64 64V448c0 35.3-28.7 64-64 64H64c-35.3 0-64-28.7-64-64V192zm184 72a24 24 0 1 0 -48 0 24 24 0 1 0 48 0zm-80 0a56 56 0 1 1 112 0 56 56 0 1 1 -112 0zm248 24a24 24 0 1 0 0-48 24 24 0 1 0 0 48zm0-80a56 56 0 1 1 0 112 56 56 0 1 1 0-112zM144 384c-17.7 0-32 14.3-32 32v16c0 8.8-7.2 16-16 16s-16-7.2-16-16V416c0-35.3 28.7-64 64-64h32c35.3 0 64 28.7 64 64v16c0 8.8-7.2 16-16 16s-16-7.2-16-16V416c0-17.7-14.3-32-32-32H144zm160 32v16c0 8.8-7.2 16-16 16s-16-7.2-16-16V416c0-35.3 28.7-64 64-64h32c35.3 0 64 28.7 64 64v16c0 8.8-7.2 16-16 16s-16-7.2-16-16V416c0-17.7-14.3-32-32-32H336c-17.7 0-32 14.3-32 32z"/></svg>