<svg xmlns="http://www.w3.org/2000/svg" viewBox="0 0 448 512"><!--! Font Awesome Pro 6.4.0 by @fontawesome - https://fontawesome.com License - https://fontawesome.com/license (Commercial License) Copyright 2023 Fonticons, Inc. --><path d="M144 32c8.8 0 16 7.2 16 16s-7.2 16-16 16H32V176c0 8.8-7.2 16-16 16s-16-7.2-16-16V48c0-8.8 7.2-16 16-16H144zM0 336c0-8.8 7.2-16 16-16s16 7.2 16 16V448H144c8.8 0 16 7.2 16 16s-7.2 16-16 16H16c-8.8 0-16-7.2-16-16V336zM432 32c8.8 0 16 7.2 16 16V176c0 8.8-7.2 16-16 16s-16-7.2-16-16V64H304c-8.8 0-16-7.2-16-16s7.2-16 16-16H432zM416 336c0-8.8 7.2-16 16-16s16 7.2 16 16V464c0 8.8-7.2 16-16 16H304c-8.8 0-16-7.2-16-16s7.2-16 16-16H416V336z"/></svg>