<svg xmlns="http://www.w3.org/2000/svg" viewBox="0 0 512 512"><!--! Font Awesome Pro 6.4.0 by @fontawesome - https://fontawesome.com License - https://fontawesome.com/license (Commercial License) Copyright 2023 Fonticons, Inc. --><path d="M480 256A224 224 0 1 0 32 256a224 224 0 1 0 448 0zM0 256a256 256 0 1 1 512 0A256 256 0 1 1 0 256zm375.8 82.6l-.2 1.2c-5.8 34.7-35.8 60.2-71 60.2H192c-8.8 0-16-7.2-16-16s7.2-16 16-16H304.6c19.6 0 36.2-14.1 39.5-33.4l.2-1.2c1.5-8.7 9.7-14.6 18.4-13.2s14.6 9.7 13.2 18.4zM112 192h64c17.7 0 32 14.3 32 32s-14.3 32-32 32s-32-14.3-32-32H112c-8.8 0-16-7.2-16-16s7.2-16 16-16zm176 16c0-8.8 7.2-16 16-16h64c17.7 0 32 14.3 32 32s-14.3 32-32 32s-32-14.3-32-32H304c-8.8 0-16-7.2-16-16z"/></svg>