<svg xmlns="http://www.w3.org/2000/svg" viewBox="0 0 512 512"><!--! Font Awesome Pro 6.4.0 by @fontawesome - https://fontawesome.com License - https://fontawesome.com/license (Commercial License) Copyright 2023 Fonticons, Inc. --><path d="M325.2 469.1C303.4 476.2 280.2 480 256 480C132.3 480 32 379.7 32 256S132.3 32 256 32s224 100.3 224 224c0 25.9-4.4 50.8-12.5 73.9c10.9 1.2 21.2 4.5 30.6 9.5c9-26.2 13.9-54.2 13.9-83.4C512 114.6 397.4 0 256 0S0 114.6 0 256S114.6 512 256 512c28.6 0 56.1-4.7 81.8-13.4c-4.9-6.5-8.7-14.1-10.8-22.6l-1.8-7zM222.3 291.9c13.4 1.9 28.1 5.8 39.1 11.2c5.5 2.7 9.5 5.5 11.9 8c2.4 2.5 2.7 4.1 2.7 4.9s-.3 2.4-2.7 4.9c-2.4 2.6-6.4 5.3-11.9 8c-10.9 5.4-25.5 9.3-38.8 11.2c-.9 .1-1.8 .3-2.7 .6c-1.7 .6-3.2 1.6-4.4 2.8s-2.2 2.7-2.8 4.4c-.5 1.3-.7 2.7-.7 4.1s.2 2.8 .7 4.1c.6 1.7 1.6 3.2 2.8 4.4s2.7 2.2 4.4 2.8c.9 .3 1.7 .5 2.7 .6c13.3 1.9 27.9 5.8 38.8 11.2c5.5 2.7 9.5 5.5 11.9 8c2.4 2.5 2.7 4.1 2.7 4.9s-.3 2.4-2.7 4.9c-2.4 2.6-6.4 5.3-11.9 8c-11 5.4-25.7 9.3-39.1 11.2c-6.6 .9-11.1 7-10.2 13.6s7 11.1 13.6 10.2c15.1-2.1 32.4-6.6 46.3-13.4c6.9-3.4 13.6-7.7 18.7-13c5.2-5.4 9.3-12.6 9.3-21.4s-4.1-16-9.3-21.4c-5.1-5.4-11.8-9.6-18.7-13c-1.1-.5-2.1-1-3.3-1.5c1.1-.5 2.2-1 3.3-1.5c6.9-3.4 13.6-7.7 18.7-13c5.2-5.4 9.3-12.6 9.3-21.4s-4.1-16-9.3-21.4c-5.1-5.4-11.8-9.6-18.7-13c-13.9-6.8-31.2-11.3-46.3-13.4c-6.6-.9-12.6 3.6-13.6 10.2s3.6 12.6 10.2 13.6zm-46-59.9a24 24 0 1 0 0-48 24 24 0 1 0 0 48zm194.8 1.6c5.3 7.1 15.3 8.5 22.4 3.2s8.5-15.3 3.2-22.4c-30.4-40.5-91.2-40.5-121.6 0c-5.3 7.1-3.9 17.1 3.2 22.4s17.1 3.9 22.4-3.2c17.6-23.5 52.8-23.5 70.4 0zm70.1 127.5c-7.4-29-36.5-47.3-65.8-39.2c-28.9 8.1-45.1 38.6-37.7 67.4L358 468.1c4.5 17.4 22.3 27.7 39.6 22.9l74.9-21c28.9-8.1 45.1-38.6 37.7-67.4c-7.4-29-36.5-47.3-65.8-39.2l-2.4 .7-.8-3zm-57.1-8.3c10.8-3 22.9 3.5 26.1 16.3l4.8 18.9c1.1 4.2 3.8 7.7 7.5 9.9s8.2 2.7 12.3 1.5l18.1-5.1c10.8-3 22.9 3.5 26.1 16.3c3.3 13-4.2 25.5-15.3 28.6l-74.9 21-20.2-78.8c-3.3-13 4.2-25.5 15.3-28.6z"/></svg>