<svg xmlns="http://www.w3.org/2000/svg" viewBox="0 0 512 512"><!--! Font Awesome Pro 6.4.0 by @fontawesome - https://fontawesome.com License - https://fontawesome.com/license (Commercial License) Copyright 2023 Fonticons, Inc. --><path d="M480 256A224 224 0 1 0 32 256a224 224 0 1 0 448 0zM0 256a256 256 0 1 1 512 0A256 256 0 1 1 0 256zm277.4 39.1c-11-5.4-25.7-9.3-39.1-11.2c-6.6-.9-11.1-7-10.2-13.6s7-11.1 13.6-10.2c15.1 2.1 32.4 6.6 46.3 13.4c6.9 3.4 13.6 7.7 18.7 13c5.2 5.4 9.3 12.6 9.3 21.4s-4.1 16-9.3 21.4c-5.1 5.4-11.8 9.6-18.7 13c-1.1 .5-2.1 1-3.3 1.5c1.1 .5 2.2 1 3.3 1.5c6.9 3.4 13.6 7.7 18.7 13c5.2 5.4 9.3 12.6 9.3 21.4s-4.1 16-9.3 21.4c-5.1 5.4-11.8 9.6-18.7 13c-13.9 6.8-31.2 11.3-46.3 13.4c-6.6 .9-12.6-3.6-13.6-10.2s3.6-12.6 10.2-13.6c13.4-1.9 28.1-5.8 39.1-11.2c5.5-2.7 9.5-5.5 11.9-8c2.4-2.5 2.7-4.1 2.7-4.9s-.3-2.4-2.7-4.9c-2.4-2.6-6.4-5.3-11.9-8c-10.9-5.4-25.5-9.3-38.8-11.2c-.9-.1-1.8-.3-2.7-.6c-1.7-.6-3.2-1.6-4.4-2.8s-2.2-2.7-2.8-4.4c-.5-1.3-.7-2.6-.7-4.1s.2-2.8 .7-4.1c.6-1.7 1.6-3.2 2.8-4.4s2.7-2.2 4.4-2.8c.9-.3 1.7-.5 2.7-.6c13.3-1.9 27.9-5.8 38.8-11.2c5.5-2.7 9.5-5.5 11.9-8c2.4-2.5 2.7-4.1 2.7-4.9s-.3-2.4-2.7-4.9c-2.4-2.6-6.4-5.3-11.9-8zM152.4 208a24 24 0 1 1 48 0 24 24 0 1 1 -48 0zm184-24a24 24 0 1 1 0 48 24 24 0 1 1 0-48z"/></svg>