<svg xmlns="http://www.w3.org/2000/svg" viewBox="0 0 512 512"><!--! Font Awesome Pro 6.4.0 by @fontawesome - https://fontawesome.com License - https://fontawesome.com/license (Commercial License) Copyright 2023 Fonticons, Inc. --><path d="M256 32a224 224 0 1 1 0 448 224 224 0 1 1 0-448zm0 480A256 256 0 1 0 256 0a256 256 0 1 0 0 512zM184 208H104V192c0-22.1 17.9-40 40-40c.5 0 .9 0 1.4 0c-.9 2.5-1.4 5.2-1.4 8c0 13.3 10.7 24 24 24c5.2 0 10.1-1.7 14-4.5c1.3 3.9 2 8.1 2 12.5v16zm-40-88c-39.8 0-72 32.2-72 72v16c0 17.7 14.3 32 32 32h80c17.7 0 32-14.3 32-32V192c0-39.8-32.2-72-72-72zm236.1 53.1c2.5 5.8 3.9 12.2 3.9 18.9v16H288V192c0-26.5 21.5-48 48-48c2 0 3.9 .1 5.8 .3c-3.6 4.2-5.8 9.7-5.8 15.7c0 13.3 10.7 24 24 24c8.4 0 15.8-4.3 20.1-10.9zM256 192v17.9c0 16.6 13.5 30.1 30.1 30.1h99.8c16.6 0 30.1-13.5 30.1-30.1V192c0-44.2-35.8-80-80-80s-80 35.8-80 80zm4.7 224H248c-2 0-4 0-5.9-.1c7.2-27.5 32.2-47.9 61.9-47.9c15.9 0 30.5 5.8 41.7 15.5c-2.8 2.7-5.7 5.2-8.7 7.6c-21.5 15.7-47.9 24.9-76.3 24.9zm-50.6-4.2c-51.5-12.9-91.9-54.6-102.3-107.8H388.8c-2.8 20.6-10.3 39.6-21.5 55.9C350.4 345 328.3 336 304 336c-46.1 0-84.6 32.5-93.9 75.8zm146.2 4.8c36-26.5 60.7-67.7 65-115.3c1.4-15.7-11-29.3-26.8-29.3H92.8c-11.2 0-19.9 9.6-18.9 20.7c8 88 81.7 155.3 170.1 155.3H248h12.7 4.7c34.2 0 65.8-11.7 90.9-31.4z"/></svg>