<svg xmlns="http://www.w3.org/2000/svg" viewBox="0 0 640 512"><!--! Font Awesome Pro 6.4.0 by @fontawesome - https://fontawesome.com License - https://fontawesome.com/license (Commercial License) Copyright 2023 Fonticons, Inc. --><path d="M534.7 192C507.2 99.5 421.5 32 320 32S132.8 99.5 105.3 192H72.1C100.5 81.6 200.7 0 320 0S539.5 81.6 567.9 192H534.7zM264.4 176c0 13.3-10.7 24-24 24s-24-10.7-24-24c0-8.1 4-15.3 10.2-19.6l-39.6-13.2c-8.4-2.8-12.9-11.9-10.1-20.2s11.9-12.9 20.2-10.1l96 32c8.4 2.8 12.9 11.9 10.1 20.2s-11.9 12.9-20.2 10.1l-19.7-6.6c.8 2.3 1.2 4.8 1.2 7.4zm136 24c-13.3 0-24-10.7-24-24c0-2.7 .4-5.3 1.3-7.7l-20.6 6.9c-8.4 2.8-17.4-1.7-20.2-10.1s1.7-17.4 10.1-20.2l96-32c8.4-2.8 17.4 1.7 20.2 10.1s-1.7 17.4-10.1 20.2l-39.1 13c6.3 4.3 10.4 11.6 10.4 19.8c0 13.3-10.7 24-24 24zM32 288V448c0 17.7 14.3 32 32 32H576c17.7 0 32-14.3 32-32V288c0-17.7-14.3-32-32-32H64c-17.7 0-32 14.3-32 32zM0 288c0-35.3 28.7-64 64-64H576c35.3 0 64 28.7 64 64V448c0 35.3-28.7 64-64 64H64c-35.3 0-64-28.7-64-64V288zm400 64H384v32h16c8.8 0 16 7.2 16 16s-7.2 16-16 16H384v16c0 8.8-7.2 16-16 16s-16-7.2-16-16V416H320v16c0 8.8-7.2 16-16 16s-16-7.2-16-16V416H272c-8.8 0-16-7.2-16-16s7.2-16 16-16h16V352H272c-8.8 0-16-7.2-16-16s7.2-16 16-16h16V304c0-8.8 7.2-16 16-16s16 7.2 16 16v16h32V304c0-8.8 7.2-16 16-16s16 7.2 16 16v16h16c8.8 0 16 7.2 16 16s-7.2 16-16 16zm-80 0v32h32V352H320zm250.4-52.1c6.7 5.8 7.5 15.9 1.7 22.6l-96 112c-5.8 6.7-15.8 7.5-22.6 1.7s-7.5-15.8-1.7-22.6l96-112c5.8-6.7 15.8-7.5 22.6-1.7zM448 320a24 24 0 1 1 48 0 24 24 0 1 1 -48 0zm104 72a24 24 0 1 1 0 48 24 24 0 1 1 0-48zM208 288c8.8 0 16 7.2 16 16v64c0 8.8-7.2 16-16 16s-16-7.2-16-16V304c0-8.8 7.2-16 16-16zM184 424a24 24 0 1 1 48 0 24 24 0 1 1 -48 0zM128 304v1.8c4.6 .8 8.7 1.7 12.1 2.6c8.5 2.3 13.6 11 11.3 19.6s-11 13.6-19.6 11.3c-7.9-2.1-18.5-3.9-26.8-2.9c-4.1 .5-6.3 1.4-7.4 2.2c-.6 .4-1.2 .9-1.5 2.9c-.2 1-.1 1.6-.1 1.8c.1 .1 .5 .6 1.5 1.3c3.7 2.5 9.6 4.4 19.2 7.3l.7 .2c8 2.4 19.1 5.8 27.6 11.9c4.7 3.4 9.3 8.2 12.1 14.7c2.9 6.6 3.4 13.8 2.2 21.1c-2 11.5-7.9 20.5-17 25.9c-4.9 3-10.1 4.6-15.3 5.4v.8c0 8.8-7.2 16-16 16s-16-7.2-16-16v-3c-8.1-1.9-15.3-4.2-20.2-5.9c-8.4-2.8-12.9-11.9-10.1-20.2s11.9-12.9 20.2-10.1c9.5 3.2 21.9 6.9 32 7.1c5 .1 7.6-.8 8.8-1.5l0 0c.5-.3 1.4-.9 2-4c.2-1.2 .2-1.9 .2-2.3c0-.4-.1-.6-.1-.6l0 0c0-.1-.3-.6-1.6-1.6c-3.5-2.5-9.3-4.6-18.7-7.4L106 382l0 0c-7.7-2.3-18.3-5.5-26.4-11c-4.7-3.2-9.4-7.7-12.4-14.1c-3.1-6.5-3.7-13.7-2.5-20.9c1.8-10.2 7-18.1 14.5-23.5c5.3-3.8 11.2-5.9 16.9-7V304c0-8.8 7.2-16 16-16s16 7.2 16 16zM96.1 343.4s0 0 0-.1l0 .1c0 0 0 0 0 0z"/></svg>