<svg xmlns="http://www.w3.org/2000/svg" viewBox="0 0 512 512"><!--! Font Awesome Pro 6.4.0 by @fontawesome - https://fontawesome.com License - https://fontawesome.com/license (Commercial License) Copyright 2023 Fonticons, Inc. --><path d="M128 96a32 32 0 1 0 0-64 32 32 0 1 0 0 64zm0-96a64 64 0 1 1 0 128A64 64 0 1 1 128 0zM105.6 192c-25 0-45.8 19.1-47.8 44l-4.1 49.3C52.1 304 66.8 320 85.6 320h59.6c-.7 5.2-1.1 10.6-1.1 16v16H96V496c0 8.8-7.2 16-16 16s-16-7.2-16-16V348.3c-26.5-9.5-44.7-35.8-42.2-65.6l4.1-49.3C29.3 191.9 64 160 105.6 160h44.8c7 0 13.8 .9 20.2 2.6c-1.7 6.9-2.6 14-2.6 21.4c0 3.9 .3 7.8 .8 11.6c-5.7-2.4-11.9-3.6-18.4-3.6H105.6zM416 384H366.4c1-5.2 1.6-10.5 1.6-16V352H469.6L430.5 215.2C426.6 201.5 414 192 399.7 192H368.3c-11.5 0-21.8 6.1-27.5 15.6c2.1-7.5 3.2-15.4 3.2-23.6c0-6.3-.7-12.5-1.9-18.4c8.1-3.6 17-5.6 26.2-5.6h31.4c28.6 0 53.7 18.9 61.5 46.4l39.1 136.8c5.8 20.4-9.5 40.8-30.8 40.8H448V496c0 8.8-7.2 16-16 16s-16-7.2-16-16V384zM384 96a32 32 0 1 0 0-64 32 32 0 1 0 0 64zm0-96a64 64 0 1 1 0 128A64 64 0 1 1 384 0zM256 208a24 24 0 1 0 0-48 24 24 0 1 0 0 48zm0-80a56 56 0 1 1 0 112 56 56 0 1 1 0-112zm0 160c-26.5 0-48 21.5-48 48v32c0 8.8 7.2 16 16 16h64c8.8 0 16-7.2 16-16V336c0-26.5-21.5-48-48-48zM208 413.3c-18.6-6.6-32-24.4-32-45.3V336c0-44.2 35.8-80 80-80s80 35.8 80 80v32c0 20.9-13.4 38.7-32 45.3V496c0 8.8-7.2 16-16 16s-16-7.2-16-16V416H240v80c0 8.8-7.2 16-16 16s-16-7.2-16-16V413.3z"/></svg>