<svg xmlns="http://www.w3.org/2000/svg" viewBox="0 0 512 512"><!--! Font Awesome Pro 6.4.0 by @fontawesome - https://fontawesome.com License - https://fontawesome.com/license (Commercial License) Copyright 2023 Fonticons, Inc. --><path d="M160 64A32 32 0 1 0 96 64a32 32 0 1 0 64 0zM64 64a64 64 0 1 1 128 0A64 64 0 1 1 64 64zM57.8 236l-4.1 49.3C52.1 304 66.8 320 85.6 320h59.6c-.7 5.2-1.1 10.6-1.1 16v16H96V496c0 8.8-7.2 16-16 16s-16-7.2-16-16V348.3c-26.5-9.5-44.7-35.8-42.2-65.6l4.1-49.3C29.3 191.9 64 160 105.6 160h44.8c7 0 13.8 .9 20.2 2.6c-1.7 6.9-2.6 14-2.6 21.4c0 3.9 .3 7.8 .8 11.6c-5.7-2.4-11.9-3.6-18.4-3.6H105.6c-25 0-45.8 19.1-47.8 44zM416 352H368V336c0-5.4-.4-10.8-1.1-16h59.6c18.7 0 33.4-16 31.9-34.7L454.2 236c-2.1-24.9-22.9-44-47.8-44H361.6c-6.5 0-12.7 1.3-18.4 3.6c.5-3.8 .8-7.7 .8-11.6c0-7.4-.9-14.6-2.6-21.4c6.5-1.7 13.3-2.6 20.2-2.6h44.8c41.6 0 76.3 31.9 79.7 73.4l4.1 49.3c2.5 29.8-15.7 56.1-42.2 65.6V496c0 8.8-7.2 16-16 16s-16-7.2-16-16V352zm0-288a32 32 0 1 0 -64 0 32 32 0 1 0 64 0zm-96 0a64 64 0 1 1 128 0A64 64 0 1 1 320 64zM256 208a24 24 0 1 0 0-48 24 24 0 1 0 0 48zm0-80a56 56 0 1 1 0 112 56 56 0 1 1 0-112zm0 160c-26.5 0-48 21.5-48 48v32c0 8.8 7.2 16 16 16h64c8.8 0 16-7.2 16-16V336c0-26.5-21.5-48-48-48zM208 413.3c-18.6-6.6-32-24.4-32-45.3V336c0-44.2 35.8-80 80-80s80 35.8 80 80v32c0 20.9-13.4 38.7-32 45.3V496c0 8.8-7.2 16-16 16s-16-7.2-16-16V416H240v80c0 8.8-7.2 16-16 16s-16-7.2-16-16V413.3z"/></svg>