<svg xmlns="http://www.w3.org/2000/svg" viewBox="0 0 512 512"><!--! Font Awesome Pro 6.4.0 by @fontawesome - https://fontawesome.com License - https://fontawesome.com/license (Commercial License) Copyright 2023 Fonticons, Inc. --><path d="M240 16c0-8.8-7.2-16-16-16s-16 7.2-16 16V32H80c-8.8 0-16 7.2-16 16s7.2 16 16 16H208v48H189.3c-12.7 0-24.9 5.1-33.9 14.1L121.4 160H16c-8.8 0-16 7.2-16 16s7.2 16 16 16H128c4.2 0 8.3-1.7 11.3-4.7l38.6-38.6c3-3 7.1-4.7 11.3-4.7H224h34.7c4.2 0 8.3 1.7 11.3 4.7l38.6 38.6c3 3 7.1 4.7 11.3 4.7h48c61.9 0 112 50.1 112 112c0 8.8-7.2 16-16 16H432c-8.8 0-16-7.2-16-16c0-26.5-21.5-48-48-48H307.2c-5.7 0-11 3-13.8 8c-13.9 24-39.7 40-69.3 40s-55.5-16.1-69.3-40c-2.9-4.9-8.1-8-13.8-8H16c-8.8 0-16 7.2-16 16s7.2 16 16 16H132.1c20.2 29 53.8 48 91.9 48s71.7-19 91.9-48H368c8.8 0 16 7.2 16 16c0 26.5 21.5 48 48 48h32c26.5 0 48-21.5 48-48c0-79.5-64.5-144-144-144H326.6l-33.9-33.9c-9-9-21.2-14.1-33.9-14.1H240V64H368c8.8 0 16-7.2 16-16s-7.2-16-16-16H240V16zM448 431.6l13.3 21.3c1.8 2.8 2.7 6.1 2.7 9.4V464c0 8.8-7.2 16-16 16s-16-7.2-16-16v-1.7c0-3.3 .9-6.6 2.7-9.4L448 431.6zm-12.2-40.8l-28.2 45.1c-4.9 7.9-7.6 17-7.6 26.4V464c0 26.5 21.5 48 48 48s48-21.5 48-48v-1.7c0-9.3-2.6-18.5-7.6-26.4l-28.2-45.1c-2.6-4.2-7.3-6.8-12.2-6.8s-9.6 2.6-12.2 6.8z"/></svg>