<svg xmlns="http://www.w3.org/2000/svg" viewBox="0 0 512 512"><!--! Font Awesome Pro 6.4.0 by @fontawesome - https://fontawesome.com License - https://fontawesome.com/license (Commercial License) Copyright 2023 Fonticons, Inc. --><path d="M160 64c0-17.7 14.3-32 32-32H388.1c8.5 0 16.6 3.4 22.6 9.4l27.9 27.9c6 6 9.4 14.1 9.4 22.6V160h32V91.9c0-17-6.7-33.3-18.7-45.3L433.4 18.7C421.4 6.7 405.1 0 388.1 0H192c-35.3 0-64 28.7-64 64v72.6c-9.4-5.4-20.3-8.6-32-8.6H64c-35.3 0-64 28.7-64 64V448c0 35.3 28.7 64 64 64H96c19.1 0 36.3-8.4 48-21.7c11.7 13.3 28.9 21.7 48 21.7H448c35.3 0 64-28.7 64-64V256c0-35.3-28.7-64-64-64H160V64zm0 160H448c17.7 0 32 14.3 32 32V448c0 17.7-14.3 32-32 32H192c-17.7 0-32-14.3-32-32V224zm-32-32v16V448c0 17.7-14.3 32-32 32H64c-17.7 0-32-14.3-32-32V192c0-17.7 14.3-32 32-32H96c17.7 0 32 14.3 32 32zM296 304a24 24 0 1 0 -48 0 24 24 0 1 0 48 0zm72 24a24 24 0 1 0 0-48 24 24 0 1 0 0 48zm24 72a24 24 0 1 0 -48 0 24 24 0 1 0 48 0zM272 424a24 24 0 1 0 0-48 24 24 0 1 0 0 48z"/></svg>