<svg xmlns="http://www.w3.org/2000/svg" viewBox="0 0 448 512"><!--! Font Awesome Pro 6.4.0 by @fontawesome - https://fontawesome.com License - https://fontawesome.com/license (Commercial License) Copyright 2023 Fonticons, Inc. --><path d="M384 384c17.7 0 32-14.3 32-32V144.8c0-.3 0-.5 0-.8H336c-17.7 0-32-14.3-32-32V32H160c-17.7 0-32 14.3-32 32V352c0 17.7 14.3 32 32 32H384zm6-272L336 57.5V112h54zM96 64c0-35.3 28.7-64 64-64H304c12.8 0 25.1 5.1 34.1 14.2l96 96.8c8.9 9 13.9 21.1 13.9 33.8V352c0 35.3-28.7 64-64 64H160c-35.3 0-64-28.7-64-64V64zM16 96c8.8 0 16 7.2 16 16V384c0 53 43 96 96 96H336c8.8 0 16 7.2 16 16s-7.2 16-16 16H128C57.3 512 0 454.7 0 384V112c0-8.8 7.2-16 16-16zm245.3 64h21.3c17.7 0 32 14.3 32 32v21.3H336c17.7 0 32 14.3 32 32v21.3c0 17.7-14.3 32-32 32H314.7V320c0 17.7-14.3 32-32 32H261.3c-17.7 0-32-14.3-32-32V298.7H208c-17.7 0-32-14.3-32-32V245.3c0-17.7 14.3-32 32-32h21.3V192c0-17.7 14.3-32 32-32zm0 32v37.3c0 4.2-1.7 8.3-4.7 11.3s-7.1 4.7-11.3 4.7l-37.3 0v21.3h37.3c8.8 0 16 7.2 16 16V320h21.3V282.7c0-8.8 7.2-16 16-16l37.3 0V245.3H298.7c-8.8 0-16-7.2-16-16l0-37.3H261.3z"/></svg>