<svg xmlns="http://www.w3.org/2000/svg" viewBox="0 0 512 512"><!--! Font Awesome Pro 6.4.0 by @fontawesome - https://fontawesome.com License - https://fontawesome.com/license (Commercial License) Copyright 2023 Fonticons, Inc. --><path d="M64 480h96v32H64c-35.3 0-64-28.7-64-64V64C0 28.7 28.7 0 64 0H220.1c12.7 0 24.9 5.1 33.9 14.1L369.9 129.9c9 9 14.1 21.2 14.1 33.9V288H352V192H240c-26.5 0-48-21.5-48-48V32H64C46.3 32 32 46.3 32 64V448c0 17.7 14.3 32 32 32zM351.5 160c-.7-2.8-2.1-5.4-4.2-7.4L231.4 36.7c-2.1-2.1-4.6-3.5-7.4-4.2V144c0 8.8 7.2 16 16 16H351.5zM240 352h64c5.5 0 10.7 2.9 13.6 7.6s3.2 10.6 .7 15.6L265.9 480H304c8.8 0 16 7.2 16 16s-7.2 16-16 16H240c-5.5 0-10.7-2.9-13.6-7.6s-3.2-10.6-.7-15.6L278.1 384H240c-8.8 0-16-7.2-16-16s7.2-16 16-16zm144 16V496c0 8.8-7.2 16-16 16s-16-7.2-16-16V368c0-8.8 7.2-16 16-16s16 7.2 16 16zm32 0c0-8.8 7.2-16 16-16h24c30.9 0 56 25.1 56 56s-25.1 56-56 56h-8v32c0 8.8-7.2 16-16 16s-16-7.2-16-16V448 368zm32 64h8c13.3 0 24-10.7 24-24s-10.7-24-24-24h-8v48z"/></svg>