<svg xmlns="http://www.w3.org/2000/svg" viewBox="0 0 640 512"><!--! Font Awesome Pro 6.4.0 by @fontawesome - https://fontawesome.com License - https://fontawesome.com/license (Commercial License) Copyright 2023 Fonticons, Inc. --><path d="M480 448c0 17.7-14.3 32-32 32H192c-17.7 0-32-14.3-32-32V352H128v96c0 35.3 28.7 64 64 64H448c35.3 0 64-28.7 64-64V352H480v96zm0-256v64h32V163.9c0-12.7-5.1-24.9-14.1-33.9L382.1 14.1c-9-9-21.2-14.1-33.9-14.1H192c-35.3 0-64 28.7-64 64V256h32V64c0-17.7 14.3-32 32-32H320V144c0 26.5 21.5 48 48 48H480zm-.5-32H368c-8.8 0-16-7.2-16-16V32.5c2.8 .7 5.4 2.1 7.4 4.2L475.3 152.6c2.1 2.1 3.5 4.6 4.2 7.4zM48 288c-8.8 0-16 7.2-16 16s7.2 16 16 16H176c8.8 0 16-7.2 16-16s-7.2-16-16-16H48zm224 0c-8.8 0-16 7.2-16 16s7.2 16 16 16h96c8.8 0 16-7.2 16-16s-7.2-16-16-16H272zm192 0c-8.8 0-16 7.2-16 16s7.2 16 16 16H592c8.8 0 16-7.2 16-16s-7.2-16-16-16H464z"/></svg>