<svg xmlns="http://www.w3.org/2000/svg" viewBox="0 0 384 512"><!--! Font Awesome Pro 6.4.0 by @fontawesome - https://fontawesome.com License - https://fontawesome.com/license (Commercial License) Copyright 2023 Fonticons, Inc. --><path d="M320 480H64c-17.7 0-32-14.3-32-32V64c0-17.7 14.3-32 32-32H192V144c0 26.5 21.5 48 48 48H352V448c0 17.7-14.3 32-32 32zM240 160c-8.8 0-16-7.2-16-16V32.5c2.8 .7 5.4 2.1 7.4 4.2L347.3 152.6c2.1 2.1 3.5 4.6 4.2 7.4H240zM64 0C28.7 0 0 28.7 0 64V448c0 35.3 28.7 64 64 64H320c35.3 0 64-28.7 64-64V163.9c0-12.7-5.1-24.9-14.1-33.9L254.1 14.1c-9-9-21.2-14.1-33.9-14.1H64zM96 384h80v32H96V384zm0-32V320h80v32H96zm112 64V384h80v32H208zm0-64V320h80v32H208zm112 16V352 320 304 288 256c0-17.7-14.3-32-32-32H192 96c-17.7 0-32 14.3-32 32v32 16 16 32 16 16 32c0 17.7 14.3 32 32 32h80 16 16 80c17.7 0 32-14.3 32-32V384 368zM288 256v32H192 96V256h96 96z"/></svg>