<svg xmlns="http://www.w3.org/2000/svg" viewBox="0 0 640 512"><!--! Font Awesome Pro 6.4.0 by @fontawesome - https://fontawesome.com License - https://fontawesome.com/license (Commercial License) Copyright 2023 Fonticons, Inc. --><path d="M25.9 3.4C19-2 8.9-.8 3.4 6.1S-.8 23.1 6.1 28.6l608 480c6.9 5.5 17 4.3 22.5-2.6s4.3-17-2.6-22.5L25.9 3.4zM500.4 480L448 438.6V448H192V352 256 240H160 96V176 160.7L64 135.4V416c0 35.3 28.7 64 64 64H500.4zM139.6 32L192 73.4V64H448v96 96 16h32 64v64 15.3l32 25.3V96c0-35.3-28.7-64-64-64H139.6zM160 448H128c-17.7 0-32-14.3-32-32V368h64v80zM96 272h64v64H96V272zm384-96h64v64H480V176zm0-32V64h32c17.7 0 32 14.3 32 32v48H480z"/></svg>