<svg xmlns="http://www.w3.org/2000/svg" viewBox="0 0 640 512"><!--! Font Awesome Pro 6.4.0 by @fontawesome - https://fontawesome.com License - https://fontawesome.com/license (Commercial License) Copyright 2023 Fonticons, Inc. --><path d="M349.4 93.5c-9.6 .1-18.8-4.1-25-11.5c-12.9-15.5-26.5-30-40.8-43.7c-26.1 25-48 52.3-64 78.1c-18.3 29.6-27.6 57.9-27.6 75.8C192 262.5 248.2 320 320 320c71 0 128-57.6 128-127.8c0-12.8-7-38.2-20.6-64.3c-10.9-21.1-25.4-42.6-41.8-60.5c-3.8 4.4-7.7 9.1-11.6 14c-6 7.5-15.1 12-24.7 12.1zM327.5 37.1c7.4 7.9 14.5 16 21.5 24.4c6.4-8.1 13.6-16.8 21.2-24.5c1.7-1.7 3.5-3.4 5.2-5c5.6-5.1 14.4-5.1 20 0c24.7 22.7 45.6 52.7 60.4 81.1c14.5 28 24.2 58.8 24.2 79C480 280 408.7 352 320 352c-89.7 0-160-72.1-160-159.8c0-26.4 12.7-60.7 32.4-92.6c20-32.4 48.1-66.1 81.4-95.8c2.8-2.5 6.4-3.8 10-3.7c3.5 0 7 1.3 9.8 3.8c11.8 10.6 23.1 21.7 34 33.4zM285.1 96c4.8 0 9.4 2.2 12.4 6c2.1 2.6 17.6 22.4 32.6 41.5l17.5 22.3 23.3-27.2c3.2-3.7 7.8-5.7 12.7-5.6s9.4 2.5 12.3 6.4c3.9 5.2 6.4 10.3 8.3 14.1l0 0 0 .1c21.3 39.3 12.3 90.4-25 116.5l-.3 .2 0 0C361.3 282 342.3 288 321 288c-25.9 0-50.2-8.4-68.2-24.8C234.7 246.6 224 222.7 224 194c0-15.7 5-29.7 13.4-44.2c8.2-14.1 20.2-29.5 35.1-47.9c3-3.8 7.6-5.9 12.5-5.9zm94.8 81.3l-20.7 24.1c-3.1 3.6-7.7 5.7-12.5 5.6s-9.3-2.4-12.2-6.1L347 191l-12.6 9.9 0 0 0 0 0 0-.1-.2-.5-.6-1.8-2.4-6.6-8.5-20.4-26-20-25.5c-8.6 11-15.1 20.1-19.8 28.2c-6.6 11.3-9.1 19.8-9.1 28.1c0 20.3 7.3 35.4 18.4 45.6C285.7 249.9 301.9 256 321 256c14.7 0 27.6-4 40-12.2c20.1-14.2 27.8-41.8 18.9-66.5zM32 272c0-8.8 7.2-16 16-16h64c8.8 0 16 7.2 16 16s-7.2 16-16 16H64v96H576V288H528c-8.8 0-16-7.2-16-16s7.2-16 16-16h64c8.8 0 16 7.2 16 16V386.7c18.6 6.6 32 24.4 32 45.3v32c0 26.5-21.5 48-48 48H48c-26.5 0-48-21.5-48-48V432c0-20.9 13.4-38.7 32-45.3V272zm0 160v32c0 8.8 7.2 16 16 16H592c8.8 0 16-7.2 16-16V432c0-8.8-7.2-16-16-16H48c-8.8 0-16 7.2-16 16zm160-8a24 24 0 1 1 0 48 24 24 0 1 1 0-48zm104 24a24 24 0 1 1 48 0 24 24 0 1 1 -48 0zm152-24a24 24 0 1 1 0 48 24 24 0 1 1 0-48z"/></svg>