<svg xmlns="http://www.w3.org/2000/svg" viewBox="0 0 448 512"><!--! Font Awesome Pro 6.4.0 by @fontawesome - https://fontawesome.com License - https://fontawesome.com/license (Commercial License) Copyright 2023 Fonticons, Inc. --><path d="M32 16C32 7.2 24.8 0 16 0S0 7.2 0 16V67.8 80 384v20.9V496c0 8.8 7.2 16 16 16s16-7.2 16-16V396.2l101.8-27.8c36.4-9.9 75.1-6.1 108.8 10.8c48.7 24.4 105.7 26 155.8 4.6l30.2-12.9c11.8-5 19.4-16.6 19.4-29.4V59.3c0-24.4-26.4-39.8-47.6-27.6l-15.8 9c-40.6 23.2-90.2 24.6-132.1 3.7c-37.9-18.9-81.4-23.2-122.2-12.1L32 59.1V16zm0 76.2L128 66v67.5L32 154.4V92.2zm0 94.9l96-20.9v71.3L32 258.4V187.2zm128-27.8l3.5-.8c18.3-4 37.4-3.3 55.4 2l64.4 18.9c1.6 .5 3.2 .9 4.8 1.3v70.7l-60.1-17.7c-22.1-6.5-45.3-7.6-67.9-3.3V159.3zm160 26.9c17.5 1.3 35.2-.1 52.5-4l43.5-10v71.2L365.3 255c-14.9 3.4-30.2 4.5-45.3 3.1V186.2zm-32 98.6v77.3c-10.6-2.7-21-6.5-31-11.5c-30.2-15.1-63.7-21.6-97-19V263.3l3.5-.8c18.3-4 37.4-3.3 55.4 2l64.4 18.9c1.6 .5 3.2 .9 4.8 1.3zm32 81.8V290.2c17.5 1.3 35.2-.1 52.5-4l43.5-10v65.3l-30.2 12.9c-21 9-43.5 13.1-65.8 12.3zm0-212.6v-63c27.8-.8 55.5-8.4 80.4-22.6L416 59.6v79.7L365.3 151c-14.9 3.4-30.2 4.5-45.3 3.1zM288 89v58.6l-60.1-17.7c-22.1-6.5-45.3-7.6-67.9-3.3V59.1c26.7-3 53.9 1.8 78.2 13.9c15.9 8 32.7 13.3 49.8 16zM32 291.2l96-20.9v66.6c-.9 .2-1.7 .4-2.6 .7L32 363.1V291.2z"/></svg>