<svg xmlns="http://www.w3.org/2000/svg" viewBox="0 0 448 512"><!--! Font Awesome Pro 6.4.0 by @fontawesome - https://fontawesome.com License - https://fontawesome.com/license (Commercial License) Copyright 2023 Fonticons, Inc. --><path d="M32 16C32 7.2 24.8 0 16 0S0 7.2 0 16V64 367v33 96c0 8.8 7.2 16 16 16s16-7.2 16-16V392l96.3-24.1c41.1-10.3 84.6-5.5 122.5 13.4c44.2 22.1 95.5 24.8 141.7 7.4l34.7-13c12.5-4.7 20.8-16.6 20.8-30V66.1c0-23-24.2-38-44.8-27.7l-9.6 4.8c-46.3 23.2-100.8 23.2-147.1 0c-35.1-17.6-75.4-22-113.5-12.5L32 56V16zm0 298.6l107.1-23c33.6-7.2 68.6-4.4 100.7 8.1l25.8 10c45.2 17.6 95.1 18.8 141.2 3.5l9.2-3.1v35.6l-34.7 13c-37.9 14.2-80 12-116.2-6.1c-44.7-22.4-96-28-144.5-15.9L32 359V314.6zm0-32.7V242.6l102.2-21.9c36.4-7.8 74.3-3.9 108.4 11.3l13.8 6.2c50.6 22.5 108 23.9 159.6 3.9v34.4l-19.3 6.4c-38.9 13-81.2 11.9-119.4-2.9l-25.8-10c-37.9-14.7-79.2-18-119-9.5L32 281.9zm0-72V89L140.7 61.8c6.4-1.6 12.8-2.7 19.3-3.3V185.1c-10.9 .6-21.7 2-32.5 4.3L32 209.9zm160-24l0-47.8c17.4 2.1 34.4 6.7 50.6 13.9l13.8 6.2c50.6 22.5 108 23.9 159.6 3.9v45.7l-11.3 4.4c-43.7 17-92.4 15.8-135.3-3.2l-13.8-6.2c-20.3-9-41.8-14.7-63.6-16.9zm0-80l0-46.6c13.9 2 27.4 6.2 40.1 12.6c55.3 27.7 120.4 27.7 175.8 0l8.1-4.1v59.9l-11.3 4.4c-43.7 17-92.4 15.8-135.3-3.2l-13.8-6.2c-20.3-9-41.8-14.7-63.6-16.9zM88 120a16 16 0 1 0 -32 0 16 16 0 1 0 32 0zm32 0a16 16 0 1 0 0-32 16 16 0 1 0 0 32zM88 168a16 16 0 1 0 -32 0 16 16 0 1 0 32 0zm32 0a16 16 0 1 0 0-32 16 16 0 1 0 0 32z"/></svg>