<svg xmlns="http://www.w3.org/2000/svg" viewBox="0 0 640 512"><!--! Font Awesome Pro 6.4.0 by @fontawesome - https://fontawesome.com License - https://fontawesome.com/license (Commercial License) Copyright 2023 Fonticons, Inc. --><path d="M401.8 325.4l31.5 21c24 16 50.8 27.1 78.7 32.9V132.7c-28 5.8-54.7 16.9-78.7 32.9l-31.5 21-8.1 5.4H384 48c-8.8 0-16 7.2-16 16v96c0 8.8 7.2 16 16 16H384h9.7l8.1 5.4zM544 383.6c4.5 .3 9 .4 13.5 .4H592c8.8 0 16-7.2 16-16V144c0-8.8-7.2-16-16-16H557.5c-4.5 0-9 .1-13.5 .4V383.6zM0 304V208c0-26.5 21.5-48 48-48H384l31.5-21c42.1-28 91.5-43 142-43H592c26.5 0 48 21.5 48 48V368c0 26.5-21.5 48-48 48H557.5c-50.5 0-100-15-142-43L384 352H48c-26.5 0-48-21.5-48-48zm224-48c0-8.8 7.2-16 16-16h64c8.8 0 16 7.2 16 16s-7.2 16-16 16H240c-8.8 0-16-7.2-16-16z"/></svg>