<svg xmlns="http://www.w3.org/2000/svg" viewBox="0 0 448 512"><!--! Font Awesome Pro 6.4.0 by @fontawesome - https://fontawesome.com License - https://fontawesome.com/license (Commercial License) Copyright 2023 Fonticons, Inc. --><path d="M288 196.8V32H160V196.8c0 17.8-4.9 35.2-14.2 50.3L100.9 320H347.1l-44.8-72.9C292.9 232 288 214.6 288 196.8zM128 32H112c-8.8 0-16-7.2-16-16s7.2-16 16-16h48H288h48c8.8 0 16 7.2 16 16s-7.2 16-16 16H320V196.8c0 11.8 3.3 23.5 9.5 33.5L437.7 406.2c6.7 10.9 10.3 23.5 10.3 36.4c0 38.3-31.1 69.4-69.4 69.4H69.4C31.1 512 0 480.9 0 442.6c0-12.8 3.6-25.4 10.3-36.4L118.5 230.4c6.2-10.1 9.5-21.7 9.5-33.5V32zM37.5 423c-3.6 5.9-5.5 12.7-5.5 19.6C32 463.3 48.7 480 69.4 480H378.6c20.7 0 37.4-16.7 37.4-37.4c0-6.9-1.9-13.7-5.5-19.6l-43.7-71H81.2L37.5 423z"/></svg>