<svg xmlns="http://www.w3.org/2000/svg" viewBox="0 0 512 512"><!--! Font Awesome Pro 6.4.0 by @fontawesome - https://fontawesome.com License - https://fontawesome.com/license (Commercial License) Copyright 2023 Fonticons, Inc. --><path d="M32 96c0-17.7 14.3-32 32-32H188.1c8.5 0 16.6 3.4 22.6 9.4l35.9 35.9c12 12 28.3 18.7 45.3 18.7H448c17.7 0 32 14.3 32 32V416c0 17.7-14.3 32-32 32H64c-17.7 0-32-14.3-32-32V96zM64 32C28.7 32 0 60.7 0 96V416c0 35.3 28.7 64 64 64H448c35.3 0 64-28.7 64-64V160c0-35.3-28.7-64-64-64H291.9c-8.5 0-16.6-3.4-22.6-9.4L233.4 50.7c-12-12-28.3-18.7-45.3-18.7H64zm96 224c-8.8 0-16 7.2-16 16s7.2 16 16 16H352c8.8 0 16-7.2 16-16s-7.2-16-16-16H160z"/></svg>