<svg xmlns="http://www.w3.org/2000/svg" viewBox="0 0 512 512"><!--! Font Awesome Pro 6.4.0 by @fontawesome - https://fontawesome.com License - https://fontawesome.com/license (Commercial License) Copyright 2023 Fonticons, Inc. --><path d="M32 96c0-17.7 14.3-32 32-32H188.1c8.5 0 16.6 3.4 22.6 9.4l35.9 35.9c12 12 28.3 18.7 45.3 18.7H448c17.7 0 32 14.3 32 32V416c0 17.7-14.3 32-32 32H64c-17.7 0-32-14.3-32-32V96zM64 32C28.7 32 0 60.7 0 96V416c0 35.3 28.7 64 64 64H448c35.3 0 64-28.7 64-64V160c0-35.3-28.7-64-64-64H291.9c-8.5 0-16.6-3.4-22.6-9.4L233.4 50.7c-12-12-28.3-18.7-45.3-18.7H64zM208 192v.7c0 1-.8 3.4-4.1 5.3c-3.2 1.8-5.5 1.4-6.5 .8l-.6-.3c-15.3-8.8-34.9-3.6-43.7 11.7l-16 27.7c-8.8 15.3-3.6 34.9 11.7 43.7l.6 .3c.9 .5 2.6 2.4 2.6 6.1s-1.6 5.6-2.6 6.1l-.6 .3c-15.3 8.8-20.5 28.4-11.7 43.7l16 27.7c8.8 15.3 28.4 20.6 43.7 11.7l.6-.3c.9-.5 3.3-1 6.5 .8c3.3 1.9 4.1 4.3 4.1 5.3v.7c0 17.7 14.3 32 32 32h32c17.7 0 32-14.3 32-32v-.7c0-1 .8-3.4 4.1-5.3c3.2-1.8 5.5-1.4 6.5-.8l.6 .3c15.3 8.8 34.9 3.6 43.7-11.7l16-27.7c8.8-15.3 3.6-34.9-11.7-43.7l-.6-.3c-.9-.5-2.6-2.4-2.6-6.1s1.6-5.6 2.6-6.1l.6-.3c15.3-8.8 20.6-28.4 11.7-43.7l-16-27.7c-8.8-15.3-28.4-20.5-43.7-11.7l-.6 .3c-.9 .5-3.3 1-6.5-.8c-3.3-1.9-4.1-4.3-4.1-5.3V192c0-17.7-14.3-32-32-32H240c-17.7 0-32 14.3-32 32zm64 0v.7c0 15.1 9.4 26.8 20 33c10.7 6.2 25.5 8.3 38.5 .8l.6-.3 16 27.7-.6 .3c-13 7.5-18.6 21.4-18.6 33.8s5.5 26.3 18.6 33.8l.6 .3-16 27.7-.6-.3c-13-7.5-27.8-5.4-38.5 .8c-10.6 6.2-20 17.9-20 33v.7H240v-.7c0-15.1-9.4-26.8-20-33c-10.7-6.2-25.5-8.3-38.5-.8l-.6 .3-16-27.7 .6-.3c13-7.5 18.6-21.4 18.6-33.8s-5.5-26.3-18.6-33.8l-.6-.3 16-27.7 .6 .3c13 7.5 27.8 5.4 38.5-.8c10.6-6.2 20-17.9 20-33V192h32zm8 96a24 24 0 1 0 -48 0 24 24 0 1 0 48 0z"/></svg>