<svg xmlns="http://www.w3.org/2000/svg" viewBox="0 0 512 512"><!--! Font Awesome Pro 6.4.0 by @fontawesome - https://fontawesome.com License - https://fontawesome.com/license (Commercial License) Copyright 2023 Fonticons, Inc. --><path d="M282.1 32.3c-4.3-1.2-8.7 1.4-9.8 5.6l-24 88c-1.2 4.3 1.4 8.7 5.6 9.8s8.7-1.4 9.8-5.6l24-88c1.2-4.3-1.4-8.7-5.6-9.8zM262.5 167.5L255.1 192H221.7l9.7-32.4c-12.3-9.6-18.4-26-14-42.1l24-88c5.8-21.3 27.8-33.9 49.1-28.1s33.9 27.8 28.1 49.1l-24 88c-4.3 15.6-17.2 26.5-32.1 29zM223.4 256h1.2c-.4 0-.8 0-1.2 0zm88 0h1.1c-.4 0-.7 0-1.1 0zm65.7-88.6L361.5 192H323.6l26.9-42.2c-8.3-12.7-8.9-29.6-.2-43.3l56-88C418.1-.1 442.8-5.6 461.5 6.3s24.1 36.6 12.3 55.2l-56 88c-8.9 14-25.2 20.6-40.6 17.9zM444.3 33.3c-3.7-2.4-8.7-1.3-11 2.5l-56 88c-2.4 3.7-1.3 8.7 2.5 11s8.7 1.3 11-2.5l56-88c2.4-3.7 1.3-8.7-2.5-11zM32 256v64c0 70.7 57.3 128 128 128H288c70.7 0 128-57.3 128-128V256H160v48c0 8.8-7.2 16-16 16s-16-7.2-16-16V272c0-8.8-7.2-16-16-16s-16 7.2-16 16v64c0 8.8-7.2 16-16 16s-16-7.2-16-16V256H32zM0 256c0-17.7 14.3-32 32-32H416h8 24 48c8.8 0 16 7.2 16 16s-7.2 16-16 16H448v64c0 52.3-25.1 98.8-64 128v48c0 8.8-7.2 16-16 16s-16-7.2-16-16V466.7c-19.6 8.6-41.2 13.3-64 13.3H160c-22.8 0-44.4-4.8-64-13.3V496c0 8.8-7.2 16-16 16s-16-7.2-16-16V448C25.1 418.8 0 372.3 0 320V256z"/></svg>