<svg xmlns="http://www.w3.org/2000/svg" viewBox="0 0 512 512"><!--! Font Awesome Pro 6.4.0 by @fontawesome - https://fontawesome.com License - https://fontawesome.com/license (Commercial License) Copyright 2023 Fonticons, Inc. --><path d="M456 198.7L277.1 221.1c-30.3 3.8-53.1 29.6-53.1 60.1c0 9.4 2.2 18.7 6.4 27.1l38.2 76.4c2.2 4.4 3.4 9.3 3.4 14.3v.9c0 17.7-14.3 32-32 32h-2.9c-4.3 0-8.6-.9-12.6-2.6l-93.9-40.2c-8-3.4-16.5-5.2-25.2-5.2H92c-27.6-35.3-44-79.7-44-128C48 141.1 141.1 48 256 48c95 0 175.2 63.7 200 150.7zm6.4 31.4c17.5-2.2 30.2-18.3 25.7-35.3C461.1 91.9 367.4 16 256 16C123.5 16 16 123.5 16 256c0 56.3 19.4 108.1 51.9 149.1c5.7 7.1 14.4 10.9 23.5 10.9h14c4.3 0 8.6 .9 12.6 2.6l93.9 40.2c8 3.4 16.5 5.2 25.2 5.2H240c35.3 0 64-28.7 64-64v-.9c0-9.9-2.3-19.7-6.8-28.6L288 352h39.7l9.6 50.9c10.1 54 57.2 93.1 112.1 93.1h17c25.2 0 45.6-20.4 45.6-45.6V400 368c0-26.5-21.5-48-48-48H354.3l-14-74.5 122.2-15.3zm-154 19.2L321.7 320H272l-13-26c-2-4-3-8.4-3-12.8c0-14.4 10.7-26.6 25.1-28.4l27.4-3.4zM200 336a24 24 0 1 0 -48 0 24 24 0 1 0 48 0zm280 48H366.3l-6-32H464c8.8 0 16 7.2 16 16v16zM374.7 416H480v34.4c0 7.5-6.1 13.6-13.6 13.6h-17c-32.7 0-61.6-19.3-74.7-48z"/></svg>