<svg xmlns="http://www.w3.org/2000/svg" viewBox="0 0 320 512"><!--! Font Awesome Pro 6.4.0 by @fontawesome - https://fontawesome.com License - https://fontawesome.com/license (Commercial License) Copyright 2023 Fonticons, Inc. --><path d="M256 80c0-8.8 7.2-16 16-16s16 7.2 16 16V241.9v28.2V432c0 8.8-7.2 16-16 16s-16-7.2-16-16V296.2L77.4 441.8c-5 4-11.2 6.2-17.6 6.2C44.4 448 32 435.6 32 420.2V91.8C32 76.4 44.4 64 59.8 64c6.4 0 12.6 2.2 17.6 6.2L256 215.8V80zM64 100.6V411.4L254.7 256 64 100.6z"/></svg>