<svg xmlns="http://www.w3.org/2000/svg" viewBox="0 0 448 512"><!--! Font Awesome Pro 6.4.0 by @fontawesome - https://fontawesome.com License - https://fontawesome.com/license (Commercial License) Copyright 2023 Fonticons, Inc. --><path d="M64 64C46.3 64 32 78.3 32 96V416c0 17.7 14.3 32 32 32H384c17.7 0 32-14.3 32-32V96c0-17.7-14.3-32-32-32H64zM0 96C0 60.7 28.7 32 64 32H384c35.3 0 64 28.7 64 64V416c0 35.3-28.7 64-64 64H64c-35.3 0-64-28.7-64-64V96zM96 240H208V128H96V240zM240 120V240H360c13.3 0 24 10.7 24 24V392c0 13.3-10.7 24-24 24H232c-13.3 0-24-10.7-24-24V272H88c-13.3 0-24-10.7-24-24V120c0-13.3 10.7-24 24-24H216c13.3 0 24 10.7 24 24zm0 264H352V272H240V384z"/></svg>