<svg xmlns="http://www.w3.org/2000/svg" viewBox="0 0 640 512"><!--! Font Awesome Pro 6.4.0 by @fontawesome - https://fontawesome.com License - https://fontawesome.com/license (Commercial License) Copyright 2023 Fonticons, Inc. --><path d="M193.1 21.3c3-8.3-1.4-17.5-9.7-20.4s-17.5 1.4-20.4 9.7L144.5 62.8 127.2 10.9C124.4 2.6 115.3-2 106.9 .8S94 12.7 96.8 21.1L113 69.7 65.4 35.1c-7.1-5.2-17.2-3.6-22.4 3.5s-3.6 17.2 3.5 22.4L94.8 96H64C28.7 96 0 124.7 0 160V448c0 35.3 28.7 64 64 64H200.6c-5.4-9.4-8.6-20.3-8.6-32H64c-17.7 0-32-14.3-32-32V160c0-17.7 14.3-32 32-32H224c13.5 0 25.1 8.4 29.8 20.3c5.7-10 13.1-18.9 21.6-26.4C263.8 106.2 245.1 96 224 96H193.2l48.2-35.1c7.1-5.2 8.7-15.2 3.5-22.4s-15.2-8.7-22.4-3.5L176.3 68.7l16.8-47.4zM361.8 172.6L401.4 224H392 336c-17.7 0-32-14.3-32-32c0-17.6 14.4-32 32.2-32c10 0 19.6 4.7 25.6 12.6zM272 192c0 11.7 3.1 22.6 8.6 32H272c-26.5 0-48 21.5-48 48V464c0 26.5 21.5 48 48 48H592c26.5 0 48-21.5 48-48V272c0-26.5-21.5-48-48-48h-8.6c5.4-9.4 8.6-20.3 8.6-32c0-35.4-28.9-64-64.2-64c-19.9 0-38.8 9.2-51 25.1L432 211.4l-44.8-58.3c-12.2-15.8-31.1-25.1-51-25.1c-35.3 0-64.2 28.6-64.2 64zm-16 80c0-8.8 7.2-16 16-16h64 56 24v96H256V272zm0 192V384H416v96H272c-8.8 0-16-7.2-16-16zm352 0c0 8.8-7.2 16-16 16H448V384H608v80zm0-192v80H448V256h24 56 64c8.8 0 16 7.2 16 16zM472 224h-9.4l39.6-51.4c6.1-7.9 15.6-12.6 25.6-12.6c17.7 0 32.2 14.4 32.2 32c0 17.7-14.3 32-32 32H472z"/></svg>