<svg xmlns="http://www.w3.org/2000/svg" viewBox="0 0 512 512"><!--! Font Awesome Pro 6.4.0 by @fontawesome - https://fontawesome.com License - https://fontawesome.com/license (Commercial License) Copyright 2023 Fonticons, Inc. --><path d="M373.4 255.9C432.7 253.1 480 204 480 144c0-61.9-50.1-112-112-112c-44.7 0-83.2 26.2-101.2 64H232.2C252 40.1 305.3 0 368 0c79.5 0 144 64.5 144 144c0 79-63.6 143.1-142.3 144l3.7-32.1zM40.9 160c-4.8 0-8.5 4.2-7.9 8.9L43 256H309l10-87.1c.5-4.7-3.2-8.9-7.9-8.9H40.9zM65.4 451.7C67.3 467.8 81 480 97.2 480H254.7c16.3 0 29.9-12.2 31.8-28.3L305.3 288H46.6L65.4 451.7zM1.2 172.6C-1.6 148.8 17 128 40.9 128H311c23.9 0 42.5 20.8 39.7 44.6L318.3 455.3c-3.7 32.3-31.1 56.7-63.6 56.7H97.2c-32.5 0-59.9-24.4-63.6-56.7L1.2 172.6z"/></svg>