<svg xmlns="http://www.w3.org/2000/svg" viewBox="0 0 512 512"><!--! Font Awesome Pro 6.4.0 by @fontawesome - https://fontawesome.com License - https://fontawesome.com/license (Commercial License) Copyright 2023 Fonticons, Inc. --><path d="M510.3 23.2c4-7.9 .7-17.5-7.2-21.5s-17.5-.7-21.5 7.2L303.5 365.1l-243-65.7C30 291.2 0 314.2 0 345.8V464c0 26.5 21.5 48 48 48H226.3c24.2 0 46.4-13.7 57.2-35.4l42.7-85.5 184-368zM52.2 330.4l236.8 64-34 68c-5.4 10.8-16.5 17.7-28.6 17.7H48c-8.8 0-16-7.2-16-16V448H80c8.8 0 16-7.2 16-16s-7.2-16-16-16H32V400H80c8.8 0 16-7.2 16-16s-7.2-16-16-16H32V345.8c0-10.5 10-18.2 20.2-15.4z"/></svg>