<svg xmlns="http://www.w3.org/2000/svg" viewBox="0 0 512 512"><!--! Font Awesome Pro 6.4.0 by @fontawesome - https://fontawesome.com License - https://fontawesome.com/license (Commercial License) Copyright 2023 Fonticons, Inc. --><path d="M112 0c8.8 0 16 7.2 16 16V32h64V16c0-8.8 7.2-16 16-16s16 7.2 16 16V32h64V16c0-8.8 7.2-16 16-16s16 7.2 16 16V32h64V16c0-8.8 7.2-16 16-16s16 7.2 16 16V32 64 80v48 2.7c18.6 6.6 32 24.4 32 45.3v48c0 .9 0 1.8-.1 2.7c18.7 6.6 32.1 24.4 32.1 45.3v80c0 .9 0 1.8-.1 2.7c18.7 6.6 32.1 24.4 32.1 45.3v64c0 26.5-21.5 48-48 48H320 288 224 192 48c-26.5 0-48-21.5-48-48V400c0-20.9 13.4-38.7 32.1-45.3c-.1-.9-.1-1.8-.1-2.7V272c0-20.9 13.4-38.8 32.1-45.3c-.1-.9-.1-1.8-.1-2.7V176c0-20.9 13.4-38.7 32-45.3V128 80 64 32 16c0-8.8 7.2-16 16-16zM224 480h64c0-17.7-14.3-32-32-32s-32 14.3-32 32zm96 0h64V384H352 304 272 240 208 160 128v96h64c0-35.3 28.7-64 64-64s64 28.7 64 64zM128 80v48H384V80 64H128V80zm-16 80c-8.8 0-16 7.2-16 16l0 48h64V160H128 112zm48 96v96h48V336c0-26.5 21.5-48 48-48s48 21.5 48 48v16h48V256H320 272 240 192 160zm112-48v16h48V160H192v64h48V208c0-8.8 7.2-16 16-16s16 7.2 16 16zm0 144V336c0-8.8-7.2-16-16-16s-16 7.2-16 16v16h32zM416 224V176c0-8.8-7.2-16-16-16H384 352v64h64zm0 32H384v96h64V272c0-8.8-7.2-16-16-16H416zm0 224h48c8.8 0 16-7.2 16-16V400c0-8.8-7.2-16-16-16H448 416v96zM128 256H96 80c-8.8 0-16 7.2-16 16v80h64V256zM96 384H64 48c-8.8 0-16 7.2-16 16v64c0 8.8 7.2 16 16 16H96V384z"/></svg>