<svg xmlns="http://www.w3.org/2000/svg" viewBox="0 0 384 512"><!--! Font Awesome Pro 6.4.0 by @fontawesome - https://fontawesome.com License - https://fontawesome.com/license (Commercial License) Copyright 2023 Fonticons, Inc. --><path d="M67.2 278c-.5 1.8 .2 3.7 1.8 4.7c1.5 1 3.6 1.1 5.4-.2c80.8-56.9 145.7-73.7 193.6-73.9C183.4 144.5 145 62.6 133.2 32.8c-.1-.3-.3-.6-.5-.7c-.2-.1-.3-.1-.3-.1L67.2 278zm300.8-.3c0 1.1 0 2.1-.1 3.2c0 1.1 .1 2.3 .1 3.4c0 37.4-30.3 67.7-67.7 67.7l-6.4 0-.2 0H176c-8.8 0-16-7.2-16-16s7.2-16 16-16H293.7l.2 0c22.3-.1 40.5-17.4 42-39.3c-1-17.2-9.2-29.6-21.1-33.4C279.3 236 205 229.7 92.8 308.7c-12.2 8.6-28.8 9.2-41.6 .7c-12.9-8.6-19-24.5-15-39.5l65.1-246C105.1 9.8 117.8 0 132.3 0c13.9 0 25.7 8.8 30.6 21c12.5 31.4 58 127.5 163.5 188c24.1 13.8 41.6 39.2 41.6 68.7zM304 416H80c-8.8 0-16 7.2-16 16v48H320V432c0-8.8-7.2-16-16-16zM80 384H304c26.5 0 48 21.5 48 48v48 0h16c8.8 0 16 7.2 16 16s-7.2 16-16 16H16c-8.8 0-16-7.2-16-16s7.2-16 16-16H32v0V432c0-26.5 21.5-48 48-48z"/></svg>