<svg xmlns="http://www.w3.org/2000/svg" viewBox="0 0 576 512"><!--! Font Awesome Pro 6.4.0 by @fontawesome - https://fontawesome.com License - https://fontawesome.com/license (Commercial License) Copyright 2023 Fonticons, Inc. --><path d="M64 64H384c17.7 0 32 14.3 32 32v88.9c7.8-11.1 19.1-19.1 32-22.7V96c0-35.3-28.7-64-64-64H64C28.7 32 0 60.7 0 96V416c0 35.3 28.7 64 64 64H344.2c-6.6-9.9-12-20.6-16.1-32H64c-17.7 0-32-14.3-32-32V96c0-17.7 14.3-32 32-32zm320 64c0-17.7-14.3-32-32-32H296 224 152 96c-17.7 0-32 14.3-32 32V256 384c0 17.7 14.3 32 32 32h56 72 72 24.9c-.6-5.3-.9-10.6-.9-16c0-5.4 .3-10.7 .9-16H312V272h40v32l32-60V128zM96 128h40V240H96V128zm72 112V128h40V240H168zm72 0V128h40V240H240zm72 0V128h40V240H312zm-32 32V384H240V272h40zm-72 0V384H168V272h40zm-72 0V384H96V272h40zm257.4 90.4L464 230l70.6 132.4c6.2 11.6 9.4 24.5 9.4 37.6c0 44.2-35.8 80-80 80s-80-35.8-80-80c0-13.1 3.2-26.1 9.4-37.6zm-28.2-15.1C356.5 363.5 352 381.6 352 400c0 61.9 50.1 112 112 112s112-50.1 112-112c0-18.4-4.5-36.5-13.2-52.7L487.5 206.1c-4.6-8.7-13.7-14.1-23.5-14.1s-18.9 5.4-23.5 14.1L365.2 347.3z"/></svg>