<svg xmlns="http://www.w3.org/2000/svg" viewBox="0 0 448 512"><!--! Font Awesome Pro 6.4.0 by @fontawesome - https://fontawesome.com License - https://fontawesome.com/license (Commercial License) Copyright 2023 Fonticons, Inc. --><path d="M24 97.6V56H65.6V97.6H24zm0 119.5V175.5H65.6v41.6H24zm0 119.5V294.9H65.6v41.6H24zM24 456V414.4H65.6V456H24zM16 32C7.2 32 0 39.2 0 48v57.6c0 8.8 7.2 16 16 16H73.6c8.8 0 16-7.2 16-16V48c0-8.8-7.2-16-16-16H16zm0 119.5c-8.8 0-16 7.2-16 16v57.6c0 8.8 7.2 16 16 16H73.6c8.8 0 16-7.2 16-16V167.5c0-8.8-7.2-16-16-16H16zM0 286.9v57.6c0 8.8 7.2 16 16 16H73.6c8.8 0 16-7.2 16-16V286.9c0-8.8-7.2-16-16-16H16c-8.8 0-16 7.2-16 16zM16 390.4c-8.8 0-16 7.2-16 16V464c0 8.8 7.2 16 16 16H73.6c8.8 0 16-7.2 16-16V406.4c0-8.8-7.2-16-16-16H16zM143.5 97.6V56h41.6V97.6H143.5zm0 119.5V175.5h41.6v41.6H143.5zm0 119.5V294.9h41.6v41.6H143.5zm0 119.5V414.4h41.6V456H143.5zm-8-424c-8.8 0-16 7.2-16 16v57.6c0 8.8 7.2 16 16 16h57.6c8.8 0 16-7.2 16-16V48c0-8.8-7.2-16-16-16H135.5zm0 119.5c-8.8 0-16 7.2-16 16v57.6c0 8.8 7.2 16 16 16h57.6c8.8 0 16-7.2 16-16V167.5c0-8.8-7.2-16-16-16H135.5zm-16 135.5v57.6c0 8.8 7.2 16 16 16h57.6c8.8 0 16-7.2 16-16V286.9c0-8.8-7.2-16-16-16H135.5c-8.8 0-16 7.2-16 16zm16 103.5c-8.8 0-16 7.2-16 16V464c0 8.8 7.2 16 16 16h57.6c8.8 0 16-7.2 16-16V406.4c0-8.8-7.2-16-16-16H135.5zM262.9 56h41.6V97.6H262.9V56zm0 119.5h41.6v41.6H262.9V175.5zm0 119.5h41.6v41.6H262.9V294.9zm0 119.5h41.6V456H262.9V414.4zM238.9 48v57.6c0 8.8 7.2 16 16 16h57.6c8.8 0 16-7.2 16-16V48c0-8.8-7.2-16-16-16H254.9c-8.8 0-16 7.2-16 16zm0 119.5v57.6c0 8.8 7.2 16 16 16h57.6c8.8 0 16-7.2 16-16V167.5c0-8.8-7.2-16-16-16H254.9c-8.8 0-16 7.2-16 16zm16 103.5c-8.8 0-16 7.2-16 16v57.6c0 8.8 7.2 16 16 16h57.6c8.8 0 16-7.2 16-16V286.9c0-8.8-7.2-16-16-16H254.9zm-16 135.5V464c0 8.8 7.2 16 16 16h57.6c8.8 0 16-7.2 16-16V406.4c0-8.8-7.2-16-16-16H254.9c-8.8 0-16 7.2-16 16zM382.4 97.6V56H424V97.6H382.4zm0 119.5V175.5H424v41.6H382.4zm0 119.5V294.9H424v41.6H382.4zm0 119.5V414.4H424V456H382.4zm-8-424c-8.8 0-16 7.2-16 16v57.6c0 8.8 7.2 16 16 16H432c8.8 0 16-7.2 16-16V48c0-8.8-7.2-16-16-16H374.4zm0 119.5c-8.8 0-16 7.2-16 16v57.6c0 8.8 7.2 16 16 16H432c8.8 0 16-7.2 16-16V167.5c0-8.8-7.2-16-16-16H374.4zm-16 135.5v57.6c0 8.8 7.2 16 16 16H432c8.8 0 16-7.2 16-16V286.9c0-8.8-7.2-16-16-16H374.4c-8.8 0-16 7.2-16 16zm16 103.5c-8.8 0-16 7.2-16 16V464c0 8.8 7.2 16 16 16H432c8.8 0 16-7.2 16-16V406.4c0-8.8-7.2-16-16-16H374.4z"/></svg>