<svg xmlns="http://www.w3.org/2000/svg" viewBox="0 0 512 512"><!--! Font Awesome Pro 6.4.0 by @fontawesome - https://fontawesome.com License - https://fontawesome.com/license (Commercial License) Copyright 2023 Fonticons, Inc. --><path d="M0 16C0 7.2 7.2 0 16 0H496c8.8 0 16 7.2 16 16s-7.2 16-16 16H16C7.2 32 0 24.8 0 16zM64 128v64h64V128H64zm-32 0c0-17.7 14.3-32 32-32h64c17.7 0 32 14.3 32 32v64c0 17.7-14.3 32-32 32H64c-17.7 0-32-14.3-32-32V128zM64 416v64h64V416H64zm-32 0c0-17.7 14.3-32 32-32h64c17.7 0 32 14.3 32 32v64c0 17.7-14.3 32-32 32H64c-17.7 0-32-14.3-32-32V416zM288 128H224v64h64V128zM224 96h64c17.7 0 32 14.3 32 32v64c0 17.7-14.3 32-32 32H224c-17.7 0-32-14.3-32-32V128c0-17.7 14.3-32 32-32zm0 320v64h64V416H224zm-32 0c0-17.7 14.3-32 32-32h64c17.7 0 32 14.3 32 32v64c0 17.7-14.3 32-32 32H224c-17.7 0-32-14.3-32-32V416zM448 128H384v64h64V128zM384 96h64c17.7 0 32 14.3 32 32v64c0 17.7-14.3 32-32 32H384c-17.7 0-32-14.3-32-32V128c0-17.7 14.3-32 32-32zm0 320v64h64V416H384zm-32 0c0-17.7 14.3-32 32-32h64c17.7 0 32 14.3 32 32v64c0 17.7-14.3 32-32 32H384c-17.7 0-32-14.3-32-32V416zM16 288H496c8.8 0 16 7.2 16 16s-7.2 16-16 16H16c-8.8 0-16-7.2-16-16s7.2-16 16-16z"/></svg>