<svg xmlns="http://www.w3.org/2000/svg" viewBox="0 0 448 512"><!--! Font Awesome Pro 6.4.0 by @fontawesome - https://fontawesome.com License - https://fontawesome.com/license (Commercial License) Copyright 2023 Fonticons, Inc. --><path d="M88 64c4.4 0 8 3.6 8 8v48c0 4.4-3.6 8-8 8H40c-4.4 0-8-3.6-8-8V72c0-4.4 3.6-8 8-8H88zM40 32C17.9 32 0 49.9 0 72v48c0 22.1 17.9 40 40 40H88c22.1 0 40-17.9 40-40V72c0-22.1-17.9-40-40-40H40zM88 224c4.4 0 8 3.6 8 8v48c0 4.4-3.6 8-8 8H40c-4.4 0-8-3.6-8-8V232c0-4.4 3.6-8 8-8H88zM40 192c-22.1 0-40 17.9-40 40v48c0 22.1 17.9 40 40 40H88c22.1 0 40-17.9 40-40V232c0-22.1-17.9-40-40-40H40zm0 192H88c4.4 0 8 3.6 8 8v48c0 4.4-3.6 8-8 8H40c-4.4 0-8-3.6-8-8V392c0-4.4 3.6-8 8-8zM0 392v48c0 22.1 17.9 40 40 40H88c22.1 0 40-17.9 40-40V392c0-22.1-17.9-40-40-40H40c-22.1 0-40 17.9-40 40zM248 64c4.4 0 8 3.6 8 8v48c0 4.4-3.6 8-8 8H200c-4.4 0-8-3.6-8-8V72c0-4.4 3.6-8 8-8h48zM200 32c-22.1 0-40 17.9-40 40v48c0 22.1 17.9 40 40 40h48c22.1 0 40-17.9 40-40V72c0-22.1-17.9-40-40-40H200zm0 192h48c4.4 0 8 3.6 8 8v48c0 4.4-3.6 8-8 8H200c-4.4 0-8-3.6-8-8V232c0-4.4 3.6-8 8-8zm-40 8v48c0 22.1 17.9 40 40 40h48c22.1 0 40-17.9 40-40V232c0-22.1-17.9-40-40-40H200c-22.1 0-40 17.9-40 40zm88 152c4.4 0 8 3.6 8 8v48c0 4.4-3.6 8-8 8H200c-4.4 0-8-3.6-8-8V392c0-4.4 3.6-8 8-8h48zm-48-32c-22.1 0-40 17.9-40 40v48c0 22.1 17.9 40 40 40h48c22.1 0 40-17.9 40-40V392c0-22.1-17.9-40-40-40H200zM360 64h48c4.4 0 8 3.6 8 8v48c0 4.4-3.6 8-8 8H360c-4.4 0-8-3.6-8-8V72c0-4.4 3.6-8 8-8zm-40 8v48c0 22.1 17.9 40 40 40h48c22.1 0 40-17.9 40-40V72c0-22.1-17.9-40-40-40H360c-22.1 0-40 17.9-40 40zm88 152c4.4 0 8 3.6 8 8v48c0 4.4-3.6 8-8 8H360c-4.4 0-8-3.6-8-8V232c0-4.4 3.6-8 8-8h48zm-48-32c-22.1 0-40 17.9-40 40v48c0 22.1 17.9 40 40 40h48c22.1 0 40-17.9 40-40V232c0-22.1-17.9-40-40-40H360zm0 192h48c4.4 0 8 3.6 8 8v48c0 4.4-3.6 8-8 8H360c-4.4 0-8-3.6-8-8V392c0-4.4 3.6-8 8-8zm-40 8v48c0 22.1 17.9 40 40 40h48c22.1 0 40-17.9 40-40V392c0-22.1-17.9-40-40-40H360c-22.1 0-40 17.9-40 40z"/></svg>