<svg xmlns="http://www.w3.org/2000/svg" viewBox="0 0 576 512"><!--! Font Awesome Pro 6.4.0 by @fontawesome - https://fontawesome.com License - https://fontawesome.com/license (Commercial License) Copyright 2023 Fonticons, Inc. --><path d="M128 48c0-8.8-7.2-16-16-16s-16 7.2-16 16V64C43 64 0 107 0 160c0 47.3 34.3 86.7 79.4 94.6L33 440.2c-2.4 9.6-.2 19.7 5.8 27.5S54.1 480 64 480H168c14.7 0 27.5-10 31-24.2L225 352h63v16c0 8.8 7.2 16 16 16s16-7.2 16-16V336 304c0-8.8-7.2-16-16-16s-16 7.2-16 16v16H233l16-64H448c35.6 0 66.6-19.3 83.2-48H536c22.1 0 40-17.9 40-40V152c0-22.1-17.9-40-40-40h-4.8C514.6 83.3 483.6 64 448 64H128V48zM112 96H448c26.2 0 48.8 15.8 58.7 38.4c2.5 5.8 8.3 9.6 14.7 9.6H536c4.4 0 8 3.6 8 8v16c0 4.4-3.6 8-8 8H521.3c-6.4 0-12.1 3.8-14.7 9.6C496.8 208.2 474.2 224 448 224H257 224 96c-35.3 0-64-28.7-64-64s28.7-64 64-64h16zM96 144c-8.8 0-16 7.2-16 16s7.2 16 16 16H448c8.8 0 16-7.2 16-16s-7.2-16-16-16H96zM64 448l48-192H216L168 448H64z"/></svg>