<svg xmlns="http://www.w3.org/2000/svg" viewBox="0 0 640 512"><!--! Font Awesome Pro 6.4.0 by @fontawesome - https://fontawesome.com License - https://fontawesome.com/license (Commercial License) Copyright 2023 Fonticons, Inc. --><path d="M25.9 3.4C19-2 8.9-.8 3.4 6.1S-.8 23.1 6.1 28.6l608 480c6.9 5.5 17 4.3 22.5-2.6s4.3-17-2.6-22.5L25.9 3.4zM473.4 240c8.5 0 16.6-3.4 22.6-9.4L518.6 208H576c17.7 0 32-14.3 32-32V96c0-17.7-14.3-32-32-32H544V48c0-8.8-7.2-16-16-16s-16 7.2-16 16V64H180.1l40.5 32H528h48v80H518.6c-8.5 0-16.6 3.4-22.6 9.4L473.4 208H362.5L403 240h70.4zM249.5 281.9L208 448 96 448l40.1-160.5c4.3-17 1.3-33.8-6.7-47.5h67l-40.5-32H89.2 74 64l0-72.6L32 110.2V208c0 17.7 14.3 32 32 32H74c20.8 0 36.1 19.6 31 39.8L65 440.2c-2.4 9.6-.2 19.7 5.8 27.5S86.1 480 96 480H208c14.7 0 27.5-10 31-24.2l38-152.1-27.5-21.7z"/></svg>