<svg xmlns="http://www.w3.org/2000/svg" viewBox="0 0 640 512"><!--! Font Awesome Pro 6.4.0 by @fontawesome - https://fontawesome.com License - https://fontawesome.com/license (Commercial License) Copyright 2023 Fonticons, Inc. --><path d="M32 80c0-8.8-7.2-16-16-16S0 71.2 0 80V256 432c0 8.8 7.2 16 16 16s16-7.2 16-16V272H288V432c0 8.8 7.2 16 16 16s16-7.2 16-16V256 80c0-8.8-7.2-16-16-16s-16 7.2-16 16V240H32V80zm400.1 41.5c19.2-16.5 43.7-25.5 69-25.5H507c47 0 85 38.1 85 85c0 23.1-9.4 45.2-26.1 61.2l-185 178.2c-4.7 4.5-6.2 11.5-3.7 17.5s8.3 10 14.8 10H624c8.8 0 16-7.2 16-16s-7.2-16-16-16H431.7L588.1 265.3C611.1 243.3 624 212.8 624 181c0-64.6-52.4-117-117-117h-5.8c-33 0-64.8 11.8-89.9 33.2l-21.7 18.6c-6.7 5.8-7.5 15.9-1.7 22.6s15.8 7.5 22.6 1.7l21.7-18.6z"/></svg>