<svg xmlns="http://www.w3.org/2000/svg" viewBox="0 0 640 512"><!--! Font Awesome Pro 6.4.0 by @fontawesome - https://fontawesome.com License - https://fontawesome.com/license (Commercial License) Copyright 2023 Fonticons, Inc. --><path d="M32 80c0-8.8-7.2-16-16-16S0 71.2 0 80V256 432c0 8.8 7.2 16 16 16s16-7.2 16-16V272H288V432c0 8.8 7.2 16 16 16s16-7.2 16-16V256 80c0-8.8-7.2-16-16-16s-16 7.2-16 16V240H32V80zM505.4 67.1c-7.1-5.2-17.2-3.6-22.4 3.5L383.3 207.8C363 235.7 352 269.4 352 304c0 79.5 64.5 144 144 144s144-64.5 144-144s-64.5-144-144-144c-15 0-29.6 2.3-43.2 6.6l56.1-77.2c5.2-7.1 3.6-17.2-3.5-22.4zM496 192a112 112 0 1 1 0 224 112 112 0 1 1 0-224z"/></svg>