<svg xmlns="http://www.w3.org/2000/svg" viewBox="0 0 384 512"><!--! Font Awesome Pro 6.4.0 by @fontawesome - https://fontawesome.com License - https://fontawesome.com/license (Commercial License) Copyright 2023 Fonticons, Inc. --><path d="M208 16c0-8.8-7.2-16-16-16s-16 7.2-16 16V53.2L36.7 32.4C17.7 29.5 0 44.7 0 64V256c0 19.3 17.7 34.5 36.7 31.6l150.5-22.6c3.1-.5 6.3-.5 9.5 0l150.5 22.6c19.1 2.9 36.7-12.4 36.7-31.6V64c0-19.3-17.7-34.5-36.7-31.6L208 53.2V16zm0 283.1l-16-2.4-16 2.4V496c0 8.8 7.2 16 16 16s16-7.2 16-16V299.1zM32 255.8V64.2c0 0 .1-.1 .1-.1s.1-.1 .1-.1L182.5 86.6c6.3 .9 12.7 .9 19 0L351.8 64c0 0 .1 .1 .1 .1s.1 .1 .1 .1V255.8c0 0-.1 .1-.1 .1c0 0 0 0-.1 0s0 0-.1 0L201.5 233.4c-6.3-.9-12.7-.9-19 0L32.2 256c0 0-.1-.1-.1-.1s-.1-.1-.1-.1z"/></svg>