<svg xmlns="http://www.w3.org/2000/svg" viewBox="0 0 576 512"><!--! Font Awesome Pro 6.4.0 by @fontawesome - https://fontawesome.com License - https://fontawesome.com/license (Commercial License) Copyright 2023 Fonticons, Inc. --><path d="M425 226.6c-13.1 8.8-28.6 13.4-44.4 13.4H232c-30.9 0-56-25.1-56-56c0-8.6 1.9-16.7 5.4-24h-5.6L81.1 216.4c-8.3 4.9-17.8 7.6-27.5 7.6H52.3C23.4 224 0 200.6 0 171.7c0-17.7 9-34.2 23.8-43.9L143.4 50.1c18.2-11.8 39.4-18.1 61-18.1H560c8.8 0 16 7.2 16 16s-7.2 16-16 16H204.5c-15.5 0-30.6 4.5-43.6 12.9L41.2 154.7c-5.8 3.7-9.2 10.1-9.2 17c0 11.2 9.1 20.3 20.3 20.3h1.3c3.9 0 7.7-1.1 11.1-3l98.5-58.7c2.5-1.5 5.3-2.3 8.2-2.3H232h24 64c8.8 0 16 7.2 16 16s-7.2 16-16 16H256 232c-13.3 0-24 10.7-24 24s10.7 24 24 24H380.6c9.5 0 18.7-2.8 26.6-8.1l79.9-53.3 4-2.7H496h64c8.8 0 16 7.2 16 16s-7.2 16-16 16H500.8L425 226.6zM151 285.4c13.1-8.8 28.6-13.4 44.4-13.4H344c30.9 0 56 25.1 56 56c0 8.6-1.9 16.7-5.4 24h5.6l94.7-56.4c8.3-4.9 17.8-7.6 27.5-7.6h1.3c28.9 0 52.3 23.4 52.3 52.3c0 17.7-9 34.2-23.8 43.8L432.6 461.9c-18.2 11.8-39.4 18.1-61 18.1H16c-8.8 0-16-7.2-16-16s7.2-16 16-16H371.5c15.5 0 30.6-4.5 43.6-12.9l119.6-77.8c5.8-3.7 9.2-10.2 9.2-17c0-11.2-9.1-20.3-20.3-20.3h-1.3c-3.9 0-7.7 1.1-11.1 3l-98.5 58.7c-2.5 1.5-5.3 2.3-8.2 2.3H344 320 256c-8.8 0-16-7.2-16-16s7.2-16 16-16h64 24c13.3 0 24-10.7 24-24s-10.7-24-24-24H195.4c-9.5 0-18.7 2.8-26.6 8.1L88.9 365.3l-4 2.7H80 16c-8.8 0-16-7.2-16-16s7.2-16 16-16H75.2L151 285.4z"/></svg>