<svg xmlns="http://www.w3.org/2000/svg" viewBox="0 0 512 512"><!-- Font Awesome Pro 6.0.0-alpha2 by @fontawesome - https://fontawesome.com License - https://fontawesome.com/license (Commercial License) --><path d="M423.992 79.297C415.367 79.297 407.193 81.25 399.897 84.75C398.209 55.375 373.783 32 343.983 32C334.324 32 325.215 34.469 317.276 38.781C309.994 16.297 288.852 0 263.973 0C238.998 0 218.057 16.551 210.866 39.174C202.854 34.744 193.784 32 184 32C153.125 32 128 57.125 128 88V307.875L97.764 268.875C87.495 255.444 71.382 247.358 54.454 247.358C24.889 247.358 0 270.421 0 301.815C0 313.957 3.856 326.271 11.721 336.609L98.077 450.078C125.705 488.859 170.618 512 218.201 512H319.996C408.225 512 480 440.109 480 351.75V135.359C480 104.453 454.871 79.297 423.992 79.297ZM447.996 351.75C447.996 422.469 390.582 480 319.996 480H218.201C180.946 480 145.786 461.875 123.846 431.109L37.194 317.234C33.658 312.582 31.916 307.08 31.916 301.735C31.916 288.43 42.48 279.328 54.18 279.328C61.228 279.328 68.001 282.632 72.307 288.281L107.25 334.25C113.499 342.472 123.144 347.115 132.812 347.115C136.844 347.115 160.017 344.511 160.017 320.986C160.017 320.659 160.012 320.33 160 320V88C160 74.766 170.766 64 184 64S208 74.766 208 88V240C208 248.844 215.157 256 224 256C232.844 256 240 248.844 240 240V88C240 87.895 239.969 87.797 239.969 87.691V56C239.969 42.766 250.737 32 263.973 32C277.209 32 287.975 42.766 287.975 56V240C287.975 248.844 295.133 256 303.977 256C312.822 256 319.981 248.844 319.981 240V88C319.981 74.766 330.746 64 343.983 64C357.219 64 367.986 74.766 367.986 88V239.578C367.986 248.422 375.143 255.578 383.988 255.578C392.832 255.578 399.99 248.422 399.99 239.578V135.359C399.99 122.094 410.756 111.297 423.992 111.297S447.996 122.094 447.996 135.359V351.75Z"/></svg>