<svg xmlns="http://www.w3.org/2000/svg" viewBox="0 0 576 512"><!--! Font Awesome Pro 6.4.0 by @fontawesome - https://fontawesome.com License - https://fontawesome.com/license (Commercial License) Copyright 2023 Fonticons, Inc. --><path d="M195.4 304c-15.8 0-31.2 4.7-44.4 13.4L75.2 368H16c-8.8 0-16 7.2-16 16s7.2 16 16 16H80c3.2 0 6.2-.9 8.9-2.7l79.9-53.3c7.9-5.3 17.1-8.1 26.6-8.1H344c13.3 0 24 10.7 24 24s-10.7 24-24 24H320 256c-8.8 0-16 7.2-16 16s7.2 16 16 16h64 24 60.6c2.9 0 5.7-.8 8.2-2.3L511.3 355c3.4-2 7.2-3 11.1-3h1.3c11.2 0 20.3 9.1 20.3 20.3c0 6.9-3.5 13.3-9.2 17L415.1 467.1c-13 8.4-28.1 12.9-43.6 12.9H16c-8.8 0-16 7.2-16 16s7.2 16 16 16H371.5c21.7 0 42.9-6.3 61-18.1l119.6-77.8C567 406.5 576 390 576 372.3c0-28.9-23.4-52.3-52.3-52.3h-1.3c-9.7 0-19.1 2.6-27.5 7.6L400.2 384h-5.6c3.5-7.3 5.4-15.4 5.4-24c0-30.9-25.1-56-56-56H195.4z"/></svg>