<svg xmlns="http://www.w3.org/2000/svg" viewBox="0 0 512 512"><!--! Font Awesome Pro 6.4.0 by @fontawesome - https://fontawesome.com License - https://fontawesome.com/license (Commercial License) Copyright 2023 Fonticons, Inc. --><path d="M210.7 38.8C218 16.3 239.1 0 264 0s46 16.3 53.3 38.8c7.9-4.3 17-6.8 26.7-6.8c30.9 0 56 25.1 56 56v13.4c7.3-3.5 15.4-5.4 24-5.4c30.9 0 56 25.1 56 56V336c0 97.2-78.8 176-176 176h-8.5c-65.8 0-128.9-26.1-175.4-72.6L16.4 335.6c-21.9-21.9-21.9-57.3 0-79.2s57.3-21.9 79.2 0L128 288.8V88c0-30.9 25.1-56 56-56c9.7 0 18.8 2.5 26.7 6.8zM208 88c0-13.3-10.7-24-24-24s-24 10.7-24 24V327.4c0 6.5-3.9 12.3-9.9 14.8s-12.9 1.1-17.4-3.5L73 279c-9.4-9.4-24.6-9.4-33.9 0s-9.4 24.6 0 33.9L142.8 416.7c40.5 40.5 95.4 63.3 152.7 63.3H304c79.5 0 144-64.5 144-144V152c0-13.3-10.7-24-24-24c-13.2 0-24 10.7-24 23.9V240c0 8.8-7.2 16-16 16s-16-7.2-16-16V152.1l0-.1V88c0-13.3-10.7-24-24-24c-13.2 0-24 10.7-24 23.9V240c0 8.8-7.2 16-16 16s-16-7.2-16-16V88.1l0-.1 0-32c0-13.3-10.7-24-24-24s-24 10.7-24 24V79.9l0 .1V240c0 8.8-7.2 16-16 16s-16-7.2-16-16V88.1l0-.1zm13.7 250.8c0 5.8 2.3 11.4 6.5 15.4L288 412.4l59.8-58.1c4.2-4 6.5-9.6 6.5-15.4c0-11.9-9.6-21.5-21.5-21.5h-1.5c-6 0-11.7 2.3-16 6.5l-16.1 15.6c-6.2 6-16.1 6-22.3 0l-16.1-15.6c-4.3-4.2-10.1-6.5-16-6.5h-1.5c-11.9 0-21.5 9.6-21.5 21.5zm21.5-53.5h1.5c14.3 0 28.1 5.6 38.4 15.6l4.9 4.8 4.9-4.8c10.3-10 24-15.6 38.4-15.6h1.5c29.5 0 53.5 23.9 53.5 53.5c0 14.4-5.8 28.3-16.2 38.4l-70.9 69c-6.2 6-16.1 6-22.3 0l-70.9-69c-10.4-10.1-16.2-23.9-16.2-38.4c0-29.5 23.9-53.5 53.5-53.5z"/></svg>