<svg xmlns="http://www.w3.org/2000/svg" viewBox="0 0 576 512"><!--! Font Awesome Pro 6.4.0 by @fontawesome - https://fontawesome.com License - https://fontawesome.com/license (Commercial License) Copyright 2023 Fonticons, Inc. --><path d="M184 72.6c0 10.8 4.3 21.1 11.9 28.7L288 193.4l92.1-92.1c7.6-7.6 11.9-17.9 11.9-28.7C392 50.2 373.8 32 351.4 32c-10.8 0-21.1 4.3-28.7 11.9L299.3 67.3c-6.2 6.2-16.4 6.2-22.6 0L253.3 43.9C245.6 36.3 235.3 32 224.6 32C202.2 32 184 50.2 184 72.6zM224.6 0c19.2 0 37.7 7.6 51.3 21.3L288 33.4l12.1-12.1C313.7 7.6 332.2 0 351.4 0C391.5 0 424 32.5 424 72.6c0 19.2-7.6 37.7-21.3 51.3L299.3 227.3c-6.2 6.2-16.4 6.2-22.6 0L173.3 123.9C159.6 110.3 152 91.8 152 72.6C152 32.5 184.5 0 224.6 0zM151 317.4c13.1-8.8 28.6-13.4 44.4-13.4H344c30.9 0 56 25.1 56 56c0 8.6-1.9 16.7-5.4 24h5.6l94.7-56.4c8.3-4.9 17.8-7.6 27.5-7.6h1.3c28.9 0 52.3 23.4 52.3 52.3c0 17.7-9 34.2-23.8 43.8L432.6 493.9c-18.2 11.8-39.4 18.1-61 18.1H16c-8.8 0-16-7.2-16-16s7.2-16 16-16H371.5c15.5 0 30.6-4.5 43.6-12.9l119.6-77.8c5.8-3.7 9.2-10.2 9.2-17c0-11.2-9.1-20.3-20.3-20.3h-1.3c-3.9 0-7.7 1.1-11.1 3l-98.5 58.7c-2.5 1.5-5.3 2.3-8.2 2.3H344 320 256c-8.8 0-16-7.2-16-16s7.2-16 16-16h64 24c13.3 0 24-10.7 24-24s-10.7-24-24-24H195.4c-9.5 0-18.7 2.8-26.6 8.1L88.9 397.3l-4 2.7H80 16c-8.8 0-16-7.2-16-16s7.2-16 16-16H75.2L151 317.4z"/></svg>