<svg xmlns="http://www.w3.org/2000/svg" viewBox="0 0 448 512"><!--! Font Awesome Pro 6.4.0 by @fontawesome - https://fontawesome.com License - https://fontawesome.com/license (Commercial License) Copyright 2023 Fonticons, Inc. --><path d="M128 56c0-13.3 10.7-24 24-24s24 10.7 24 24v8H128V56zM96 64H32c-6.2 0-11.8 3.5-14.4 9.1s-1.9 12.1 1.9 16.9l24 30-24 30c-3.8 4.8-4.6 11.4-1.9 16.9s8.3 9.1 14.4 9.1H96v80c-19.4 14.6-32 37.8-32 64v32c0 88.4 71.6 160 160 160h64c88.4 0 160-71.6 160-160V304 272 248c0-30.9-25.1-56-56-56c-12.1 0-23.3 3.8-32.5 10.4C349.6 186.5 332 176 312 176c-9.7 0-18.8 2.5-26.7 6.8C278 160.3 256.9 144 232 144c-8.6 0-16.7 1.9-24 5.4V80 56c0-30.9-25.1-56-56-56S96 25.1 96 56v8zm80 32v48H65.3l11.2-14c4.7-5.8 4.7-14.1 0-20L65.3 96H176zm0 80v24 40H144c-5.5 0-10.8 .6-16 1.6V176h48zm0 96v0h32v0h24c13.2 0 24 10.7 24 24v0c0 13.3-10.7 24-24 24H176c-8.8 0-16 7.2-16 16s7.2 16 16 16h56c15.7 0 29.8-6.4 40-16.8c10.2 10.4 24.3 16.8 40 16.8c13.8 0 26.4-5 36.1-13.2C358.4 351.7 374.2 360 392 360c8.6 0 16.7-1.9 24-5.4C414.6 424.1 357.8 480 288 480H224c-70.7 0-128-57.3-128-128V320c0-26.5 21.5-48 48-48h32zm32-32V200c0-13.3 10.7-24 24-24s24 10.7 24 24v31.9l0 .1v13.4c-7.3-3.5-15.4-5.4-24-5.4H208zm80 32V232c0-13.2 10.8-24 24-24c13.3 0 24 10.7 24 24v16 48c0 13.3-10.7 24-24 24s-24-10.7-24-24v0l0-24zm128 0v32c0 13.3-10.7 24-24 24s-24-10.7-24-24v-8V248c0-13.3 10.7-24 24-24s24 10.7 24 24v24z"/></svg>