<svg xmlns="http://www.w3.org/2000/svg" viewBox="0 0 384 512"><!--! Font Awesome Pro 6.4.0 by @fontawesome - https://fontawesome.com License - https://fontawesome.com/license (Commercial License) Copyright 2023 Fonticons, Inc. --><path d="M64 56c0-13.3 10.7-24 24-24s24 10.7 24 24V200v40H80c-5.5 0-10.8 .6-16 1.6V56zm48 216v0h32v0h24c13.2 0 24 10.7 24 24v0c0 13.3-10.7 24-24 24H112c-8.8 0-16 7.2-16 16s7.2 16 16 16h56c15.7 0 29.8-6.4 40-16.8c10.2 10.4 24.3 16.8 40 16.8c13.8 0 26.4-5 36.1-13.2C294.4 351.7 310.2 360 328 360c8.6 0 16.7-1.9 24-5.4C350.6 424.1 293.8 480 224 480H160C89.3 480 32 422.7 32 352V320c0-26.5 21.5-48 48-48h32zm32-32V200c0-13.3 10.7-24 24-24s24 10.7 24 24v31.9c0 0 0 0 0 .1v13.4c-7.3-3.5-15.4-5.4-24-5.4H144zm0-90.6V56c0-30.9-25.1-56-56-56S32 25.1 32 56V256C12.6 270.6 0 293.8 0 320v32c0 88.4 71.6 160 160 160h64c88.4 0 160-71.6 160-160V304 272 248c0-30.9-25.1-56-56-56c-12.1 0-23.3 3.8-32.5 10.4C285.6 186.5 268 176 248 176c-9.7 0-18.8 2.5-26.7 6.8C214 160.3 192.9 144 168 144c-8.6 0-16.7 1.9-24 5.4zM224 272V232c0-13.2 10.8-24 24-24c13.3 0 24 10.7 24 24v16 48c0 13.3-10.7 24-24 24s-24-10.7-24-24v0l0-24zm128 0v32c0 13.3-10.7 24-24 24s-24-10.7-24-24v-8V248c0-13.3 10.7-24 24-24s24 10.7 24 24v24z"/></svg>