<svg xmlns="http://www.w3.org/2000/svg" viewBox="0 0 448 512"><!--! Font Awesome Pro 6.4.0 by @fontawesome - https://fontawesome.com License - https://fontawesome.com/license (Commercial License) Copyright 2023 Fonticons, Inc. --><path d="M136 0C105.1 0 80 25.1 80 56V256.6c-3.2 2-6.4 4.2-9.5 6.5L48 280c-20.1 15.1-32 38.8-32 64v19.5c0 53 29.1 101.7 75.7 126.8l8.3 4.5c21 11.3 44.4 17.2 68.3 17.2H304c61.9 0 112-50.1 112-112v-8V304c0-35.3-28.7-64-64-64c-2.8 0-5.6 .2-8.3 .5c-11-19.4-31.8-32.5-55.7-32.5c-5.3 0-10.5 .7-15.5 1.9c-10.8-20.2-32-33.9-56.5-33.9c-8.5 0-16.6 1.7-24 4.7V56c0-30.9-25.1-56-56-56zM112 56c0-13.3 10.7-24 24-24s24 10.7 24 24V213.5c0 7.1 4.6 13.3 11.4 15.3s14-.6 18-6.5c5.8-8.7 15.6-14.3 26.7-14.3c15.6 0 28.6 11.2 31.4 25.9c1 5.1 4.4 9.5 9.2 11.6s10.3 1.8 14.8-.9c4.8-2.9 10.5-4.6 16.6-4.6c14.7 0 27.2 10 30.9 23.6c1.2 4.4 4.2 8.1 8.3 10.1s8.8 2.2 13.1 .6c3.6-1.4 7.6-2.2 11.8-2.2c17.7 0 32 14.3 32 32v88 8c0 44.2-35.8 80-80 80H168.3c-18.5 0-36.8-4.6-53.1-13.4l-7.6 14.1 7.6-14.1-8.3-4.5C70.6 442.6 48 404.7 48 363.5V344c0-15.1 7.1-29.3 19.2-38.4L80 296v48c0 8.8 7.2 16 16 16s16-7.2 16-16V265.7 264 56z"/></svg>