<svg xmlns="http://www.w3.org/2000/svg" viewBox="0 0 512 512"><!--! Font Awesome Pro 6.4.0 by @fontawesome - https://fontawesome.com License - https://fontawesome.com/license (Commercial License) Copyright 2023 Fonticons, Inc. --><path d="M184 32c13.3 0 24 10.7 24 24V200l0 0v96c0 30.9 25.1 56 56 56c15.7 0 29.8-6.4 40-16.8c10.2 10.4 24.3 16.8 40 16.8c30.9 0 56-25.1 56-56V232 176 120c0-13.3 10.7-24 24-24s24 10.7 24 24V336c0 79.5-64.5 144-144 144h-8.5c-57.3 0-112.2-22.8-152.7-63.3L39 313c-9.4-9.4-9.4-24.6 0-33.9s24.6-9.4 33.9 0l59.7 59.7c4.6 4.6 11.5 5.9 17.4 3.5s9.9-8.3 9.9-14.8V56c0-13.3 10.7-24 24-24zM288 296c0 13.3-10.7 24-24 24s-24-10.7-24-24V199.9c0-13.2 10.8-23.9 24-23.9c13.3 0 24 10.7 24 24l0 8v24 64zm32-64c0-13.3 10.7-24 24-24s24 10.7 24 24v64c0 13.3-10.7 24-24 24s-24-10.7-24-24V232zm48-50.6c-7.3-3.5-15.4-5.4-24-5.4c-9.7 0-18.8 2.5-26.7 6.8C310 160.3 288.9 144 264 144c-8.6 0-16.7 1.9-24 5.4L240 80l0 0V56c0-30.9-25.1-56-56-56s-56 25.1-56 56V288.8L95.6 256.4c-21.9-21.9-57.3-21.9-79.2 0s-21.9 57.3 0 79.2L120.2 439.4C166.7 485.9 229.8 512 295.5 512H304c97.2 0 176-78.8 176-176V120c0-30.9-25.1-56-56-56s-56 25.1-56 56v56 5.4z"/></svg>