<svg xmlns="http://www.w3.org/2000/svg" viewBox="0 0 576 512"><!--! Font Awesome Pro 6.4.0 by @fontawesome - https://fontawesome.com License - https://fontawesome.com/license (Commercial License) Copyright 2023 Fonticons, Inc. --><path d="M125.1 0H144c88.4 0 160 71.6 160 160v96c0 8.8-7.2 16-16 16s-16-7.2-16-16V176H242.9C161.8 176 96 110.2 96 29.1C96 13 109 0 125.1 0zM144 32H128c1.5 62.1 52.4 112 114.9 112H271C263.1 80.9 209.3 32 144 32zM336 176V160c0-5.4-.2-10.7-.7-16C396.8 142.8 446.4 93.4 448 32H432c-45.7 0-85.8 23.9-108.4 59.9c-4.3-11.4-9.7-22.3-16-32.5C336.9 23.2 381.7 0 432 0h18.9C467 0 480 13 480 29.1c0 80.2-64.2 145.3-144 146.9zM151 317.4c13.1-8.8 28.6-13.4 44.4-13.4H344c30.9 0 56 25.1 56 56c0 8.6-1.9 16.7-5.4 24h5.6l94.7-56.4c8.3-4.9 17.8-7.6 27.5-7.6h1.3c28.9 0 52.3 23.4 52.3 52.3c0 17.7-9 34.2-23.8 43.8L432.6 493.9c-18.2 11.8-39.4 18.1-61 18.1H16c-8.8 0-16-7.2-16-16s7.2-16 16-16H371.5c15.5 0 30.6-4.5 43.6-12.9l119.6-77.8c5.8-3.7 9.2-10.2 9.2-17c0-11.2-9.1-20.3-20.3-20.3h-1.3c-3.9 0-7.7 1.1-11.1 3l-98.5 58.7c-2.5 1.5-5.3 2.3-8.2 2.3H344 320 256c-8.8 0-16-7.2-16-16s7.2-16 16-16h64 24c13.3 0 24-10.7 24-24s-10.7-24-24-24H195.4c-9.5 0-18.7 2.8-26.6 8.1L88.9 397.3l-4 2.7H80 16c-8.8 0-16-7.2-16-16s7.2-16 16-16H75.2L151 317.4z"/></svg>