<svg xmlns="http://www.w3.org/2000/svg" viewBox="0 0 448 512"><!--! Font Awesome Pro 6.4.0 by @fontawesome - https://fontawesome.com License - https://fontawesome.com/license (Commercial License) Copyright 2023 Fonticons, Inc. --><path d="M207.6 51.6c2-8.6-3.4-17.2-12-19.2s-17.2 3.4-19.2 12l-23 99.6H48c-8.8 0-16 7.2-16 16s7.2 16 16 16h98L109.1 336H16c-8.8 0-16 7.2-16 16s7.2 16 16 16h85.7L80.4 460.4c-2 8.6 3.4 17.2 12 19.2s17.2-3.4 19.2-12l23-99.6H261.7l-21.3 92.4c-2 8.6 3.4 17.2 12 19.2s17.2-3.4 19.2-12l23-99.6H400c8.8 0 16-7.2 16-16s-7.2-16-16-16H302l36.9-160H432c8.8 0 16-7.2 16-16s-7.2-16-16-16H346.3l21.3-92.4c2-8.6-3.4-17.2-12-19.2s-17.2 3.4-19.2 12l-23 99.6H186.3l21.3-92.4zM178.9 176H306L269.1 336H142l36.9-160z"/></svg>