<svg xmlns="http://www.w3.org/2000/svg" viewBox="0 0 512 512"><!--! Font Awesome Pro 6.4.0 by @fontawesome - https://fontawesome.com License - https://fontawesome.com/license (Commercial License) Copyright 2023 Fonticons, Inc. --><path d="M408.6 368L348.2 227c-9.3-21.6-10.3-45.9-2.8-68.2l37.3-112L246.5 124.6c-29.6 16.9-53 42.8-66.8 73.9L104.4 368h-35l81.1-182.5c16.6-37.4 44.7-68.4 80.2-88.7l165-94.3C398.5 .9 401.7 0 405 0c10.5 0 19 8.5 19 19v1.7c0 2.2-.4 4.4-1.1 6.5L375.7 168.9c-5 14.9-4.3 31 1.9 45.4L443.4 368H408.6zM480 456c0-13.3-10.7-24-24-24H56c-13.3 0-24 10.7-24 24s10.7 24 24 24H456c13.3 0 24-10.7 24-24zM56 400H456c30.9 0 56 25.1 56 56s-25.1 56-56 56H56c-30.9 0-56-25.1-56-56s25.1-56 56-56zM288 176v16h16c8.8 0 16 7.2 16 16s-7.2 16-16 16H288v16c0 8.8-7.2 16-16 16s-16-7.2-16-16V224H240c-8.8 0-16-7.2-16-16s7.2-16 16-16h16V176c0-8.8 7.2-16 16-16s16 7.2 16 16zM240 304v32h32c8.8 0 16 7.2 16 16s-7.2 16-16 16H240 208 176c-8.8 0-16-7.2-16-16s7.2-16 16-16h32V304c0-8.8 7.2-16 16-16s16 7.2 16 16z"/></svg>