<svg xmlns="http://www.w3.org/2000/svg" viewBox="0 0 576 512"><!--! Font Awesome Pro 6.4.0 by @fontawesome - https://fontawesome.com License - https://fontawesome.com/license (Commercial License) Copyright 2023 Fonticons, Inc. --><path d="M78.7 150.2L276.5 272H288 511.7c-.9-6.6-4.1-12.7-9.2-17.2l-3.2-2.8c-32.6-29-50-70.3-65.4-106.9l0 0 0 0c-2.4-5.8-4.8-11.4-7.2-16.9C402.1 71.5 345.6 32 280 32H256C176.1 32 107.6 80.8 78.7 150.2zm-10 31.4C65.6 195.3 64 209.4 64 224c0 45.4 15.7 87.1 42.1 120c12.5 15.5 21.9 35.3 21.9 57.4V496c0 8.8-7.2 16-16 16s-16-7.2-16-16V401.4c0-12.8-5.5-25.7-14.9-37.4C50.4 325.6 32 276.9 32 224C32 100.3 132.3 0 256 0h24c78.8 0 146.5 47.5 176.1 115.3c2.7 6.1 5.2 12.1 7.7 18.1l0 0 0 0c15.7 37.1 30.1 70.9 56.8 94.6l3.2 2.8c11.9 10.6 19.1 25.4 20.1 41.2h.1c0 10.6-1.5 21.2-4.4 31.4l-.2 .6L493.3 465.6c-7.8 27.5-33 46.4-61.5 46.4H288c-17.7 0-32-14.3-32-32V304v-7.1L68.7 181.7zM376 176a24 24 0 1 1 0 48 24 24 0 1 1 0-48zM288 480H431.7c14.3 0 26.8-9.5 30.8-23.2l4.8-16.8H368c-8.8 0-16-7.2-16-16s7.2-16 16-16H476.4l9.1-32H368c-8.8 0-16-7.2-16-16s7.2-16 16-16H494.7l11.4-40H288V480z"/></svg>