<svg xmlns="http://www.w3.org/2000/svg" viewBox="0 0 448 512"><!--! Font Awesome Pro 6.4.0 by @fontawesome - https://fontawesome.com License - https://fontawesome.com/license (Commercial License) Copyright 2023 Fonticons, Inc. --><path d="M0 48c0-8.8 7.2-16 16-16H80h64c8.8 0 16 7.2 16 16s-7.2 16-16 16H96V224H352V64H304c-8.8 0-16-7.2-16-16s7.2-16 16-16h64 64c8.8 0 16 7.2 16 16s-7.2 16-16 16H384V240 448h48c8.8 0 16 7.2 16 16s-7.2 16-16 16H304c-8.8 0-16-7.2-16-16s7.2-16 16-16h48V256H96V448h48c8.8 0 16 7.2 16 16s-7.2 16-16 16H16c-8.8 0-16-7.2-16-16s7.2-16 16-16H64V240 64H16C7.2 64 0 56.8 0 48z"/></svg>