<svg xmlns="http://www.w3.org/2000/svg" viewBox="0 0 512 512"><!--! Font Awesome Pro 6.4.0 by @fontawesome - https://fontawesome.com License - https://fontawesome.com/license (Commercial License) Copyright 2023 Fonticons, Inc. --><path d="M32 256C32 132.3 132.3 32 256 32s224 100.3 224 224V400.1c0 26.5-21.5 48-48 48l-82.7-.1c-6.6-18.6-24.4-32-45.3-32H240c-26.5 0-48 21.5-48 48s21.5 48 48 48h64c20.9 0 38.7-13.4 45.3-32l82.7 .1c44.2 0 80.1-35.8 80.1-80V256C512 114.6 397.4 0 256 0S0 114.6 0 256v48c0 8.8 7.2 16 16 16s16-7.2 16-16V256zM320 464c0 8.8-7.2 16-16 16H240c-8.8 0-16-7.2-16-16s7.2-16 16-16h64c8.8 0 16 7.2 16 16M144 224h16V352H144c-26.5 0-48-21.5-48-48V272c0-26.5 21.5-48 48-48zM64 272v32c0 44.2 35.8 80 80 80h16c17.7 0 32-14.3 32-32V224c0-17.7-14.3-32-32-32H144c-44.2 0-80 35.8-80 80zm288-48h16c26.5 0 48 21.5 48 48v32c0 26.5-21.5 48-48 48H352V224zm16-32H352c-17.7 0-32 14.3-32 32V352c0 17.7 14.3 32 32 32h16c44.2 0 80-35.8 80-80V272c0-44.2-35.8-80-80-80z"/></svg>