<svg xmlns="http://www.w3.org/2000/svg" viewBox="0 0 448 512"><!--! Font Awesome Pro 6.4.0 by @fontawesome - https://fontawesome.com License - https://fontawesome.com/license (Commercial License) Copyright 2023 Fonticons, Inc. --><path d="M176 32c8.8 0 16 7.2 16 16v96c0 38.1 12.4 75.1 35.2 105.6l19.2 25.6c27 36 41.6 79.8 41.6 124.8v64c0 8.8-7.2 16-16 16s-16-7.2-16-16V400c0-38.1-12.4-75.1-35.2-105.6l-19.2-25.6C174.6 232.8 160 189 160 144V48c0-8.8 7.2-16 16-16zM16 96c8.8 0 16 7.2 16 16v45.9c0 34.7 10.3 68.7 29.6 97.6l31.5 47.3c22.8 34.2 34.9 74.3 34.9 115.4V464c0 8.8-7.2 16-16 16s-16-7.2-16-16V418.1c0-34.7-10.3-68.7-29.6-97.6L34.9 273.2C12.2 239.1 0 198.9 0 157.9V112c0-8.8 7.2-16 16-16zm336 16v45.9c0 34.7 10.3 68.7 29.6 97.6l31.5 47.3c22.8 34.2 34.9 74.3 34.9 115.4V464c0 8.8-7.2 16-16 16s-16-7.2-16-16V418.1c0-34.7-10.3-68.7-29.6-97.6l-31.5-47.3C332.2 239.1 320 198.9 320 157.9V112c0-8.8 7.2-16 16-16s16 7.2 16 16z"/></svg>