<svg xmlns="http://www.w3.org/2000/svg" viewBox="0 0 640 512"><!--! Font Awesome Pro 6.4.0 by @fontawesome - https://fontawesome.com License - https://fontawesome.com/license (Commercial License) Copyright 2023 Fonticons, Inc. --><path d="M160 0c-8.8 0-16 7.2-16 16s7.2 16 16 16H352v96H144L110.4 83.2C101.3 71.1 87.1 64 72 64H44.8c-21 0-36.3 19.9-30.9 40.2l22.7 85.1c3.7 14 13.6 25.6 26.9 31.5l124.6 55.4c1.8 .8 3.4 1.9 4.8 3.3l90.4 90.4c9 9 21.3 14.1 34 14.1h.5 .5 .5 .5 .5 .4 .4 .5 .4 .4 .4 .4 .4 .4 .4 .4 .4 .4 .4 .4 .4 .4 .4 .4 .4 .4 .4 .4 .4 .4 .4 .4 .4 .4 .4 .4 .4 .4 .4 .4 .4 .4 .4 .4 .4 .4 .4 .4 .4 .4 .4 .4 .4 .4 .4 .4 .4 .4 .4 .4 .4 .4 .4 .4 .4 .4 .4 .4 .4 .4 .4 .4 .4 .4 .4 .4 .4 .4 .4 .4 .4 .4 .4 .4 .4 .4 .4 .4 .4 .4 .4 .4 .4 .4 .4 .4 .4 .4 .4 .4 .4 .4 .4 .4 .4 .4 .4 .4 .4 .4 .4 .4 .4 .4 .4 .4 .4 .4 .4 .4 .4 .4 .4 .4 .4 .4 .4 .4 .4 .4 .4 .4 .4 .4 .4 .4 .4 .4 .4 .4 .4 .4 .4 .4 .4 .4 .4 .4 .4 .4 .4 .4 .4 .4 .4 .4 .4 .4 .4 .4 .4 .4 .4 .4 .4 .4 .4 .4 .4 .4 .4 .4 .4 .4 .4 .4 .4 .4 .4 .4 .4 .4 .4 .4 .4 .4 .4 .4 .4 .4 .4 .4 .4 .4 .4 .4 .4 .4 .4 .4 .4 .4 .4 .4 .4 .4 .4 .4 .4 .4 .4 .4 .4 .4 .4 .4 .4 .4 .4 .4 .4 .4 .4 .4 .4 .4 .4 .4 .4 .4 .4 .4 .4 .4 .4 .4 .4 .4 .4 .4 .4 .4 .4 .4 .4 .4 .4 .4 .4 .4 .4 .4 .4 .4 .4 .4 .4 .4 .4 .4 .4 .4 .4 .4 .4 .4 .4 .4 .4 .4 .4 .4 .4 .4 .4 .4 .4 .4 .4 .4 .4 .4 .4 .4 .4 .4 .4 .4 .4 .4 .4 .4 .4 .4 .4 .4 .4 .4 .4 .4 .4 .4 .4 .4 .4 .4 .4 .4 .4 .4 .4 .4 .4 .4 .4 .4 .4 .4 .4 .4 .4 .4 .4 .4 .4 .4 .4 .4 .4 .4 .4 .4 .4 .4 .4 .4 .4 .4 .4 .4 .4 .4 .4 .4 .4 .4 .4 .4 .4 .4 .4 .4 .4 .4 .4 .4 .4 .4 .4 .4 .4 .4 .4 .4 .4 .4 .4 .4 .4 .4 .4 .4 .4 .4 .4 .4 .4 .4 .4 .4 .4 .4 .4 .4 .4 .4 .4 .4 .4 .4 .4 .4 .4 .4 .4 .4 .4 .4 .4 .4 .4 .4 .4 .4 .4 .4 .4 .4 .4 .4 .4 .4 .4 .4 .4 .4 .4 .4 .4 .4 .4 .4 .4 .4 .4 .4 .4 .4 .4 .4 .4 .4 .4 .4 .4 .4 .4 .4 .4 .4 .4 .4 .4 .4 .4 .4 .4 .4 .4 .4 .4 .4 .4 .4 .4 .4 .4 .4 .4 .4 .4 .4 .4 .4 .4 .4 .4 .4 .4 .4 .4 .4 .4 .4 .4 .4 .4 .4 .4 .4 .4 .4 .4 .4 .4 .4 .4 .4 .4 .4 .4 .4 .4 .4 .4 .4 .4 .4 .4 .4 .4 .4 .4 .4 .4 .4 .4 .4 .4 .4 .4 .4c30.9 0 56-25.1 56-56V272c0-79.5-64.5-144-144-144H384V32H576c8.8 0 16-7.2 16-16s-7.2-16-16-16H160zM72 96c5 0 9.8 2.4 12.8 6.4l38.4 51.2c3 4 7.8 6.4 12.8 6.4H352V352h-.1-.4-.4-.4-.4-.4-.4H349h-.4-.4-.4-.4-.4-.4-.4-.4-.4-.4-.4-.4-.4-.4-.4-.4-.4-.4H341h-.4-.4-.4-.4-.4-.4H338h-.4-.4-.4-.4-.4-.4H335h-.4-.4-.4-.4-.4-.4-.4-.4-.4-.4-.4-.4-.4-.4-.4H328h-.4-.4-.4-.4-.4-.4-.4-.4H324h-.4-.4-.4-.4-.4-.4-.4-.5H320h-.4-.5-.5-.5-.5-.5c-4.3 0-8.3-1.7-11.3-4.7l-90.4-90.4c-4.2-4.2-9.1-7.5-14.4-9.9L76.5 191.6c-4.4-2-7.7-5.8-9-10.5L44.8 96H72zM384.4 352H384V160h48c61.9 0 112 50.1 112 112v56c0 13.2-10.8 24-24 24h-.4-.4-.4-.4-.4-.4H517h-.4-.4-.4-.4-.4-.4-.4-.4-.4-.4-.4H512h-.4-.4-.4-.4H510h-.4-.4-.4-.4-.4-.4-.4-.4-.4-.4-.4H505h-.4-.4-.4-.4H503h-.4-.4-.4-.4H501h-.4-.4-.4-.4-.4-.4-.4-.4-.4-.4-.4-.4-.4-.4-.4-.4-.4-.4-.4-.4-.4-.4-.4-.4-.4-.4-.4-.4-.4H489h-.4-.4-.4-.4H487h-.4-.4-.4-.4H485h-.4-.4-.4-.4-.4-.4-.4-.4-.4-.4-.4-.4-.4-.4-.4-.4-.4H478h-.4-.4-.4-.4-.4-.4-.4-.4-.4-.4-.4-.4H473h-.4-.4-.4-.4H471h-.4-.4-.4-.4-.4-.4-.4H468h-.4-.4-.4-.4-.4-.4-.4-.4-.4-.4-.4-.4H463h-.4-.4-.4-.4-.4-.4-.4H460h-.4-.4-.4-.4-.4-.4-.4-.4-.4-.4-.4-.4H455h-.4-.4-.4-.4-.4-.4-.4H452h-.4-.4-.4-.4-.4-.4-.4H449h-.4-.4-.4-.4-.4-.4-.4H446h-.4-.4-.4-.4-.4-.4-.4H443h-.4-.4-.4-.4-.4-.4-.4H440h-.4-.4-.4-.4-.4-.4-.4H437h-.4-.4-.4-.4-.4-.4-.4H434h-.4-.4-.4-.4-.4-.4-.4H431h-.4-.4-.4-.4-.4-.4-.4H428h-.4-.4-.4-.4-.4-.4-.4H425h-.4-.4-.4-.4-.4-.4-.4H422h-.4-.4-.4-.4-.4-.4-.4H419h-.4-.4-.4-.4-.4-.4-.4H416h-.4-.4-.4-.4-.4-.4-.4H413h-.4-.4-.4-.4-.4-.4-.4H410h-.4-.4-.4-.4-.4-.4-.4H407h-.4-.4-.4-.4-.4-.4-.4H404h-.4-.4-.4-.4-.4-.4-.4-.4-.4-.4-.4-.4H399h-.4-.4-.4-.4-.4-.4-.4H396h-.4-.4-.4-.4H394h-.4-.4-.4-.4-.4-.4-.4H391h-.4-.4-.4-.4H389h-.4-.4-.4-.4-.4-.4-.4-.4-.4-.4-.4-.4zM635.3 475.3c6.2-6.2 6.2-16.4 0-22.6s-16.4-6.2-22.6 0l-8.6 8.6c-12 12-28.3 18.7-45.3 18.7H240c-8.8 0-16 7.2-16 16s7.2 16 16 16H558.9c25.5 0 49.9-10.1 67.9-28.1l8.6-8.6z"/></svg>