<svg xmlns="http://www.w3.org/2000/svg" viewBox="0 0 576 512"><!--! Font Awesome Pro 6.4.0 by @fontawesome - https://fontawesome.com License - https://fontawesome.com/license (Commercial License) Copyright 2023 Fonticons, Inc. --><path d="M84.4 .6C75.9-1.8 67 3.1 64.6 11.6l-53 185.5C3.2 226.6 25.3 256 56 256c8.8 0 16-7.2 16-16s-7.2-16-16-16c-9.4 0-16.2-9-13.6-18.1l53-185.5C97.8 11.9 92.9 3 84.4 .6zM295.7 2c-4.8-2.6-10.6-2.6-15.4 0L288 16l7.7-14zM511.5 403.9l0 0 0 0 0-.1-.1-.2-.3-1c-.2-.9-.6-2.2-1-3.9c-.9-3.4-2.1-8.3-3.6-14.5c-3-12.3-6.9-29.6-10.9-49.4c-8-39.8-15.7-88.5-15.7-126.9c0-28.6-13.1-55.9-30.6-79.6c-17.6-24-40.7-45.9-63.2-64.4c-22.6-18.6-45.2-34-62-44.8c-8.4-5.4-15.5-9.7-20.4-12.6c-2.5-1.5-4.4-2.6-5.8-3.4l-1.6-.9-.4-.2-.1-.1 0 0 0 0s0 0-7.7 14c-7.7-14-7.7-14-7.7-14l0 0 0 0-.1 .1-.4 .2-1.6 .9c-1.4 .8-3.3 1.9-5.8 3.4c-5 2.9-12 7.2-20.4 12.6c-16.8 10.8-39.4 26.2-62 44.8c-22.5 18.5-45.7 40.5-63.2 64.4C109.1 152.1 96 179.4 96 208c0 38.3-7.7 87.1-15.7 126.9c-4 19.8-7.9 37.1-10.9 49.4c-1.5 6.2-2.7 11.1-3.6 14.5c-.4 1.7-.8 3-1 3.9l-.3 1-.1 .2 0 .1 0 0 0 0 0 0c-1.9 7.2 1.4 14.8 8 18.3l166.9 87.4c2.6 1.4 5.5 2.2 8.5 2.5c13 1.1 24.1-9.1 24.1-22.1V285.1c0-15.3-10.8-28.4-25.7-31.4l-45.9-9.2c-4.9-1-8.3-5.2-8.3-10.2c0-5.7 4.6-10.4 10.4-10.4H373.6c5.7 0 10.4 4.6 10.4 10.4c0 4.9-3.5 9.2-8.3 10.2l-45.9 9.2c-15 3-25.7 16.1-25.7 31.4V489.9c0 13 11.1 23.2 24.1 22.1c3-.2 5.8-1.1 8.5-2.5l166.9-87.4c6.6-3.5 10-11.1 8-18.3l0 0zm-34.1-4.2L336 473.7V285.1l45.9-9.2c19.8-4 34.1-21.4 34.1-41.6c0-23.4-19-42.4-42.4-42.4H202.4C179 192 160 211 160 234.4c0 20.2 14.3 37.6 34.1 41.6l45.9 9.2V473.7L98.6 399.7c.6-2.4 1.2-5 1.9-8c3-12.6 7.1-30.4 11.1-50.6c8-40.2 16.3-91.5 16.3-133.1c0-19 8.9-39.5 24.4-60.7c15.4-21 36.3-41 57.8-58.6c21.4-17.5 42.8-32.2 59-42.6c7.7-5 14.2-8.9 18.9-11.6c4.6 2.7 11.1 6.7 18.9 11.6c16.2 10.3 37.6 25 59 42.6c21.4 17.6 42.3 37.7 57.8 58.6C439.1 168.5 448 189 448 208c0 41.7 8.3 92.9 16.3 133.1c4 20.2 8.1 37.9 11.1 50.6c.7 2.9 1.4 5.6 1.9 8zm34-388.1C509 3.1 500.1-1.8 491.6 .6s-13.4 11.3-11 19.8l53 185.5c2.6 9.1-4.2 18.1-13.6 18.1c-8.8 0-16 7.2-16 16s7.2 16 16 16c30.7 0 52.8-29.4 44.4-58.9l-53-185.5z"/></svg>