<svg xmlns="http://www.w3.org/2000/svg" viewBox="0 0 512 512"><!--! Font Awesome Pro 6.4.0 by @fontawesome - https://fontawesome.com License - https://fontawesome.com/license (Commercial License) Copyright 2023 Fonticons, Inc. --><path d="M240 32c114.9 0 208 93.1 208 208v16H256c-6.9 0-13 4.4-15.2 10.9L212.5 352H77.2c-25 0-45.2-20.2-45.2-45.2V240C32 125.1 125.1 32 240 32zm96 419.4l-93.6-88.1L267.5 288H336V451.4zM368 480V288H496c8.8 0 16-7.2 16-16s-7.2-16-16-16H480V240C480 107.5 372.5 0 240 0S0 107.5 0 240v66.8C0 349.4 34.6 384 77.2 384H217.7L349 507.7c3 2.8 6.9 4.3 11 4.3H464c8.8 0 16-7.2 16-16s-7.2-16-16-16H368zM285.3 103.1c-3.9-5.9-11.2-8.5-17.9-6.4s-11.4 8.3-11.4 15.3v96c0 8.8 7.2 16 16 16s16-7.2 16-16V164.8l34.7 52c3.9 5.9 11.2 8.5 17.9 6.4s11.4-8.3 11.4-15.3V112c0-8.8-7.2-16-16-16s-16 7.2-16 16v43.2l-34.7-52zM160 112c0-8.8-7.2-16-16-16s-16 7.2-16 16v64c0 26.5 21.5 48 48 48s48-21.5 48-48V112c0-8.8-7.2-16-16-16s-16 7.2-16 16v64c0 8.8-7.2 16-16 16s-16-7.2-16-16V112z"/></svg>