<svg xmlns="http://www.w3.org/2000/svg" viewBox="0 0 448 512"><!--! Font Awesome Pro 6.4.0 by @fontawesome - https://fontawesome.com License - https://fontawesome.com/license (Commercial License) Copyright 2023 Fonticons, Inc. --><path d="M255.8 496.6c-19.8 11.4-44.2 11.4-64 0L32 404.3C12.2 392.9 0 371.7 0 348.9V164.3c0-22.9 12.2-44 32-55.4L191.8 16.6c19.8-11.4 44.2-11.4 64 0l159.8 92.3c19.8 11.4 32 32.6 32 55.4V348.9c0 22.9-12.2 44-32 55.4L255.8 496.6zm-48-27.7c9.9 5.7 22.1 5.7 32 0l159.8-92.3c9.9-5.7 16-16.3 16-27.7V164.3c0-11.4-6.1-22-16-27.7L239.8 44.3c-9.9-5.7-22.1-5.7-32 0L48 136.6c-9.9 5.7-16 16.3-16 27.7l0 184.6c0 11.4 6.1 22 16 27.7l159.8 92.3zM94.7 170.6l33.1 82.9V176.6c0-8.8 7.2-16 16-16s16 7.2 16 16v160c0 7.7-5.4 14.3-13 15.7s-15-2.6-17.9-9.8L95.8 259.7v76.9c0 8.8-7.2 16-16 16s-16-7.2-16-16v-160c0-7.7 5.4-14.3 13-15.7s15 2.6 17.9 9.8zm97.1 5.9c0-8.8 7.2-16 16-16h48c8.8 0 16 7.2 16 16s-7.2 16-16 16h-32v48h32c8.8 0 16 7.2 16 16s-7.2 16-16 16h-32v64c0 8.8-7.2 16-16 16s-16-7.2-16-16v-80-80zm112-16h64c8.8 0 16 7.2 16 16s-7.2 16-16 16h-16v144c0 8.8-7.2 16-16 16s-16-7.2-16-16v-144h-16c-8.8 0-16-7.2-16-16s7.2-16 16-16z"/></svg>