<svg xmlns="http://www.w3.org/2000/svg" viewBox="0 0 576 512"><!--! Font Awesome Pro 6.4.0 by @fontawesome - https://fontawesome.com License - https://fontawesome.com/license (Commercial License) Copyright 2023 Fonticons, Inc. --><path d="M512 64c17.7 0 32 14.3 32 32V416c0 17.7-14.3 32-32 32H64c-17.7 0-32-14.3-32-32V96c0-17.7 14.3-32 32-32H512zM64 32C28.7 32 0 60.7 0 96V416c0 35.3 28.7 64 64 64H512c35.3 0 64-28.7 64-64V96c0-35.3-28.7-64-64-64H64zM320 176V336c0 8.8 7.2 16 16 16h48c53 0 96-43 96-96s-43-96-96-96H336c-8.8 0-16 7.2-16 16zm64 16c35.3 0 64 28.7 64 64s-28.7 64-64 64H352V192h32zM144 176c0-8.8-7.2-16-16-16s-16 7.2-16 16v80 80c0 8.8 7.2 16 16 16s16-7.2 16-16V272h96v64c0 8.8 7.2 16 16 16s16-7.2 16-16V256 176c0-8.8-7.2-16-16-16s-16 7.2-16 16v64H144V176z"/></svg>