<svg xmlns="http://www.w3.org/2000/svg" viewBox="0 0 576 512"><!--! Font Awesome Pro 6.4.0 by @fontawesome - https://fontawesome.com License - https://fontawesome.com/license (Commercial License) Copyright 2023 Fonticons, Inc. --><path d="M238.5 127.7c-5.5-9.7-5.5-21.6 0-31.4l27-48C271.1 38.2 281.8 32 293.4 32h53.3c11.6 0 22.2 6.2 27.9 16.3l27 48c5.5 9.7 5.5 21.6 0 31.4l-27 48c-5.7 10.1-16.3 16.3-27.9 16.3H293.4c-11.6 0-22.2-6.2-27.9-16.3l-27-48zM293.4 64l-27 48 27 48 53.3 0 27-48-27-48-53.3 0zM32 118.6L32 448c0 17.7 14.3 32 32 32H393.4L32 118.6zm-32 0C0 90.1 34.5 75.8 54.6 96L416 457.4c20.2 20.2 5.9 54.6-22.6 54.6H64c-35.3 0-64-28.7-64-64V118.6zM432.3 406.5c-10.1-5.7-16.3-16.3-16.3-27.9V325.4c0-11.6 6.2-22.2 16.3-27.9l48-27c9.7-5.5 21.6-5.5 31.4 0l48 27c10.1 5.7 16.3 16.3 16.3 27.9v53.3c0 11.6-6.2 22.2-16.3 27.9l-48 27c-9.7 5.5-21.6 5.5-31.4 0l-48-27zm63.7-.9l48-27V325.4l-48-27-48 27v53.3l48 27zM128 64a32 32 0 1 1 64 0 32 32 0 1 1 -64 0zM352 256a32 32 0 1 1 0 64 32 32 0 1 1 0-64z"/></svg>