<svg xmlns="http://www.w3.org/2000/svg" viewBox="0 0 640 512"><!--! Font Awesome Pro 6.4.0 by @fontawesome - https://fontawesome.com License - https://fontawesome.com/license (Commercial License) Copyright 2023 Fonticons, Inc. --><path d="M427.3 44.7c-6.2-6.2-16.4-6.2-22.6 0s-6.2 16.4 0 22.6l12.1 12.1c-4.4 3.2-8.4 6.8-12 10.8L382 81.2C353.6 69.8 323.4 64 292.9 64H224C118 64 32 150 32 256v8 0l0 19.1c0 25.4-8.7 50.1-24.5 70L3.5 358C-2 364.9-.9 375 6 380.5s17 4.4 22.5-2.5l3.9-4.9c20.4-25.5 31.6-57.3 31.6-90L64 264v0-8c0-88.4 71.6-160 160-160h68.9c26.5 0 52.7 5 77.2 14.9l18.2 7.3c-2.8 8.1-4.3 16.8-4.3 25.9v5c0 9.5-4.5 18.4-10.8 25.6C360 190.1 352 210.1 352 232c0 45.9 35.1 83.6 80 87.6V336c0 8.8 7.2 16 16 16s16-7.2 16-16V320h88c2.7 0 5.4-.1 8-.4V336c0 8.8 7.2 16 16 16s16-7.2 16-16V310.4c28.5-14.6 48-44.2 48-78.4c0-30.8-15.8-57.8-39.7-73.6c-4.9-3.2-8.3-8.5-8.3-14.4c0-22.4-9.2-42.7-24.1-57.3l11.4-11.4c6.2-6.2 6.2-16.4 0-22.6s-16.4-6.2-22.6 0L540.2 69.1C531.5 65.8 521.9 64 512 64H464c-5.4 0-10.7 .5-15.8 1.6L427.3 44.7zM448 288h-8c-30.9 0-56-25.1-56-56c0-14 5.1-26.7 13.5-36.5c9.2-10.7 18.5-26.7 18.5-46.5v-5c0-26.5 21.5-48 48-48h48c26.5 0 48 21.5 48 48c0 13.4 5.5 24.7 13.2 33c-25.7 5.1-45.2 27.7-45.2 55c0 8.8 7.2 16 16 16s16-7.2 16-16c0-13.3 10.7-24 24-24s24 10.7 24 24c0 30.9-25.1 56-56 56H448zm-32 83.8V424c0 13.3-10.7 24-24 24H360c-13.3 0-24-10.7-24-24V363.9c0-5.1-2.4-9.9-6.5-12.9s-9.4-3.9-14.3-2.4l-11.3 3.6c-31.2 9.8-64.6 9.8-95.8 0l-11.3-3.6c-4.9-1.5-10.2-.6-14.3 2.4s-6.5 7.8-6.5 12.9V424c0 13.3-10.7 24-24 24H120c-13.3 0-24-10.7-24-24V352c0-8.8-7.2-16-16-16s-16 7.2-16 16v72c0 30.9 25.1 56 56 56h32c30.9 0 56-25.1 56-56V385.4c31.5 8.1 64.5 8.1 96 0V424c0 30.9 25.1 56 56 56h32c30.9 0 56-25.1 56-56V384c-12.3 0-23.5-4.6-32-12.2zM480 144a16 16 0 1 0 -32 0 16 16 0 1 0 32 0zm-40 32c-8.8 0-16 7.2-16 16s7.2 16 16 16c13.3 0 24 10.7 24 24c0 8.8 7.2 16 16 16s16-7.2 16-16c0-30.9-25.1-56-56-56zm88-16a16 16 0 1 0 0-32 16 16 0 1 0 0 32z"/></svg>