<svg xmlns="http://www.w3.org/2000/svg" viewBox="0 0 640 512"><!--! Font Awesome Pro 6.4.0 by @fontawesome - https://fontawesome.com License - https://fontawesome.com/license (Commercial License) Copyright 2023 Fonticons, Inc. --><path d="M301.4 288H266.5L129.8 23.3c-4.1-7.9-1-17.5 6.9-21.6s17.5-1 21.6 6.9L302 286.9l-.6 1.1zm75 64L393 320H584c30.9 0 56 25.1 56 56v80c0 30.9-25.1 56-56 56H421.2c-23.9 0-45.9-13.4-56.9-34.6l-26.4-51 18-34.9 36.8 71.2c5.5 10.6 16.5 17.3 28.4 17.3H512V352H376.4zM544 352V480h40c13.3 0 24-10.7 24-24V376c0-13.3-10.7-24-24-24H544zM503.3 1.8c7.8 4.1 10.9 13.7 6.9 21.6l-234.6 454c-11 21.3-32.9 34.6-56.9 34.6H56c-30.9 0-56-25.1-56-56V376c0-30.9 25.1-56 56-56H320.9L481.8 8.7c4.1-7.9 13.7-10.9 21.6-6.9zM304.4 352H128V480h90.8c12 0 22.9-6.7 28.4-17.3L304.4 352zM56 352c-13.3 0-24 10.7-24 24v80c0 13.3 10.7 24 24 24H96V352H56z"/></svg>