<svg xmlns="http://www.w3.org/2000/svg" viewBox="0 0 576 512"><!-- Font Awesome Pro 6.0.0-alpha2 by @fontawesome - https://fontawesome.com License - https://fontawesome.com/license (Commercial License) --><path d="M576.004 256.01C576.004 251.575 574.172 247.161 570.58 244L298.58 4C295.565 1.344 291.783 0.016 288.002 0.016S280.44 1.344 277.424 4L5.424 244C1.832 247.161 0 251.575 0 256.01C0 264.934 7.242 271.993 16.05 271.993C19.808 271.993 23.571 270.68 26.58 268L64.002 234.982V464C64.002 490.469 85.533 512 112.002 512H192.002C218.471 512 240.002 490.469 240.002 464V352H336.002V464C336.002 490.469 357.533 512 384.002 512H464.002C490.471 512 512.002 490.469 512.002 464V234.982L549.424 268C552.455 270.688 556.237 272 560.002 272C568.729 272 576.004 264.947 576.004 256.01ZM480.002 208V464C480.002 472.812 472.83 480 464.002 480H384.002C375.174 480 368.002 472.812 368.002 464V352C368.002 334.344 353.643 320 336.002 320H240.002C222.362 320 208.002 334.344 208.002 352V464C208.002 472.812 200.83 480 192.002 480H112.002C103.174 480 96.002 472.812 96.002 464V208C96.002 207.623 95.813 207.309 95.787 206.938L288.002 37.344L480.217 206.938C480.192 207.309 480.002 207.623 480.002 208Z "></path></svg>