<svg xmlns="http://www.w3.org/2000/svg" viewBox="0 0 448 512"><!--! Font Awesome Pro 6.4.0 by @fontawesome - https://fontawesome.com License - https://fontawesome.com/license (Commercial License) Copyright 2023 Fonticons, Inc. --><path d="M288 112c0 8.8 7.2 16 16 16s16-7.2 16-16v-1.9l96.1-12c1 7.8 7.7 13.9 15.9 13.9c8.8 0 16-7.2 16-16V94.1 80 48 33.9 32c0-8.8-7.2-16-16-16c-8.1 0-14.8 6.1-15.9 13.9L320 17.9V16c0-8.8-7.2-16-16-16s-16 7.2-16 16V64v48zm32-61.9l96 12v3.8l-96 12V64 50.1zM48 448H400c8.8 0 16 7.2 16 16s-7.2 16-16 16H48c-8.8 0-16-7.2-16-16s7.2-16 16-16zM12.2 432C4.6 440.5 0 451.7 0 464c0 26.5 21.5 48 48 48H400c26.5 0 48-21.5 48-48c0-12.3-4.6-23.5-12.2-32c7.6-8.5 12.2-19.7 12.2-32s-4.6-23.5-12.2-32c7.6-8.5 12.2-19.7 12.2-32s-4.6-23.5-12.2-32c7.6-8.5 12.2-19.7 12.2-32c0-26.5-21.5-48-48-48H152c-30.9 0-56-25.1-56-56s25.1-56 56-56H256V80H152c-48.6 0-88 39.4-88 88s39.4 88 88 88H400c8.8 0 16 7.2 16 16s-7.2 16-16 16H152C85.7 288 32 234.3 32 168S85.7 48 152 48H256V16H152C68.1 16 0 84.1 0 168c0 48.8 23 92.2 58.7 120H48c-26.5 0-48 21.5-48 48c0 12.3 4.6 23.5 12.2 32C4.6 376.5 0 387.7 0 400s4.6 23.5 12.2 32zM152 320H400c8.8 0 16 7.2 16 16s-7.2 16-16 16H48c-8.8 0-16-7.2-16-16s7.2-16 16-16H152zM48 384H400c8.8 0 16 7.2 16 16s-7.2 16-16 16H48c-8.8 0-16-7.2-16-16s7.2-16 16-16z"/></svg>