<svg xmlns="http://www.w3.org/2000/svg" viewBox="0 0 640 512"><!--! Font Awesome Pro 6.4.0 by @fontawesome - https://fontawesome.com License - https://fontawesome.com/license (Commercial License) Copyright 2023 Fonticons, Inc. --><path d="M160 64c0-35.3 28.7-64 64-64H416c35.3 0 64 28.7 64 64V96h96c35.3 0 64 28.7 64 64V448c0 35.3-28.7 64-64 64H416v0H352 288 224v0H64c-35.3 0-64-28.7-64-64V160c0-35.3 28.7-64 64-64h96V64zM480 336V480h96c17.7 0 32-14.3 32-32V320H528c-8.8 0-16-7.2-16-16s7.2-16 16-16h80V224H528c-8.8 0-16-7.2-16-16s7.2-16 16-16h80V160c0-17.7-14.3-32-32-32H480V336zM160 128H64c-17.7 0-32 14.3-32 32v32h80c8.8 0 16 7.2 16 16s-7.2 16-16 16H32v64h80c8.8 0 16 7.2 16 16s-7.2 16-16 16H32V448c0 17.7 14.3 32 32 32h96V128zM448 336V64c0-17.7-14.3-32-32-32H224c-17.7 0-32 14.3-32 32V480h64V416c0-35.3 28.7-64 64-64s64 28.7 64 64v64h64V336zm-96 80c0-17.7-14.3-32-32-32s-32 14.3-32 32v64h64V416zM304 64h32c13.3 0 24 10.7 24 24v16h16c13.3 0 24 10.7 24 24v32c0 13.3-10.7 24-24 24H360v16c0 13.3-10.7 24-24 24H304c-13.3 0-24-10.7-24-24V184H264c-13.3 0-24-10.7-24-24V128c0-13.3 10.7-24 24-24h16V88c0-13.3 10.7-24 24-24zm8 56c0 8.8-7.2 16-16 16H272v16h24c8.8 0 16 7.2 16 16v24h16V168c0-8.8 7.2-16 16-16h24V136H344c-8.8 0-16-7.2-16-16V96H312v24z"/></svg>