<svg xmlns="http://www.w3.org/2000/svg" viewBox="0 0 576 512"><!--! Font Awesome Pro 6.4.0 by @fontawesome - https://fontawesome.com License - https://fontawesome.com/license (Commercial License) Copyright 2023 Fonticons, Inc. --><path d="M512 32H320c-17.7 0-32 14.3-32 32V80c-9.3-7-20.2-12-32-14.4V64c0-35.3 28.7-64 64-64H512c35.3 0 64 28.7 64 64V448c0 35.3-28.7 64-64 64H320c-5.1 0-10-.6-14.7-1.7c6.3-8.9 10.9-19.2 13.2-30.3c.5 0 1.1 0 1.6 0H512c17.7 0 32-14.3 32-32V64c0-17.7-14.3-32-32-32zM224 128H64c-17.7 0-32 14.3-32 32V352H256V160c0-17.7-14.3-32-32-32zM32 448c0 17.7 14.3 32 32 32H224c17.7 0 32-14.3 32-32V384H32v64zM64 96H224c35.3 0 64 28.7 64 64V448c0 35.3-28.7 64-64 64H64c-35.3 0-64-28.7-64-64V160c0-35.3 28.7-64 64-64zM320 320V288H544v32H320zm0 96V384H544v32H320zM136 176h16c4.4 0 8 3.6 8 8v40h40c4.4 0 8 3.6 8 8v16c0 4.4-3.6 8-8 8H160v40c0 4.4-3.6 8-8 8H136c-4.4 0-8-3.6-8-8V256H88c-4.4 0-8-3.6-8-8V232c0-4.4 3.6-8 8-8h40V184c0-4.4 3.6-8 8-8zM416 88c0-4.4 3.6-8 8-8h16c4.4 0 8 3.6 8 8v40h40c4.4 0 8 3.6 8 8v16c0 4.4-3.6 8-8 8H448v40c0 4.4-3.6 8-8 8H424c-4.4 0-8-3.6-8-8V160H376c-4.4 0-8-3.6-8-8V136c0-4.4 3.6-8 8-8h40V88z"/></svg>