<svg xmlns="http://www.w3.org/2000/svg" viewBox="0 0 576 512"><!-- Font Awesome Pro 6.0.0-alpha2 by @fontawesome - https://fontawesome.com License - https://fontawesome.com/license (Commercial License) --><path d="M512 96H448V64C448 28.652 419.346 0 384 0H192C156.654 0 128 28.652 128 64V96H64C28.654 96 0 124.652 0 160V496C0 504.836 7.164 512 16 512S32 504.836 32 496V160C32 142.326 46.326 128 64 128H128V496C128 504.836 135.164 512 144 512S160 504.836 160 496V416H416V496C416 504.836 423.164 512 432 512S448 504.836 448 496V128H512C529.674 128 544 142.326 544 160V496C544 504.836 551.164 512 560 512S576 504.836 576 496V160C576 124.652 547.346 96 512 96ZM416 384H160V288H416V384ZM416 256H160V64C160 46.326 174.326 32 192 32H384C401.674 32 416 46.326 416 64V256ZM341.334 106.666H309.334V74.666C309.334 68.773 304.557 64 298.666 64H277.334C271.443 64 266.666 68.773 266.666 74.666V106.666H234.666C228.775 106.666 224 111.441 224 117.332V138.666C224 144.557 228.775 149.332 234.666 149.332H266.666V181.332C266.666 187.223 271.443 192 277.334 192H298.666C304.557 192 309.334 187.223 309.334 181.332V149.332H341.334C347.225 149.332 352 144.557 352 138.666V117.332C352 111.441 347.225 106.666 341.334 106.666Z"/></svg>