<svg xmlns="http://www.w3.org/2000/svg" viewBox="0 0 576 512"><!--! Font Awesome Pro 6.4.0 by @fontawesome - https://fontawesome.com License - https://fontawesome.com/license (Commercial License) Copyright 2023 Fonticons, Inc. --><path d="M64 0C28.7 0 0 28.7 0 64V448c0 35.3 28.7 64 64 64H256c3.2 0 6.4-.2 9.5-.7c-5.5-9.2-8.9-19.9-9.4-31.3l-.1 0H64c-17.7 0-32-14.3-32-32V416H144c8.8 0 16-7.2 16-16s-7.2-16-16-16H32V320H144c8.8 0 16-7.2 16-16s-7.2-16-16-16H32V64c0-17.7 14.3-32 32-32H256c17.7 0 32 14.3 32 32V336v57.4c9.2-10.2 20-18.9 32-25.6V336 271.8 64c0-35.3-28.7-64-64-64H64zm80 80c-13.3 0-24 10.7-24 24v16H104c-13.3 0-24 10.7-24 24v32c0 13.3 10.7 24 24 24h16v16c0 13.3 10.7 24 24 24h32c13.3 0 24-10.7 24-24V200h16c13.3 0 24-10.7 24-24V144c0-13.3-10.7-24-24-24H200V104c0-13.3-10.7-24-24-24H144zm8 56V112h16v24c0 8.8 7.2 16 16 16h24v16H184c-8.8 0-16 7.2-16 16v24H152V184c0-8.8-7.2-16-16-16H112V152h24c8.8 0 16-7.2 16-16zM384 272a48 48 0 1 1 96 0 48 48 0 1 1 -96 0zm128 0a80 80 0 1 0 -160 0 80 80 0 1 0 160 0zM320 477.1c0-33.7 27.4-61.1 61.1-61.1H482.9c33.7 0 61.1 27.4 61.1 61.1c0 1.6-1.3 2.9-2.9 2.9H322.9c-1.6 0-2.9-1.3-2.9-2.9zM381.1 384c-51.4 0-93.1 41.7-93.1 93.1c0 19.3 15.6 34.9 34.9 34.9H541.1c19.3 0 34.9-15.6 34.9-34.9c0-51.4-41.7-93.1-93.1-93.1H432 381.1z"/></svg>