<svg xmlns="http://www.w3.org/2000/svg" viewBox="0 0 512 512"><!--! Font Awesome Pro 6.4.0 by @fontawesome - https://fontawesome.com License - https://fontawesome.com/license (Commercial License) Copyright 2023 Fonticons, Inc. --><path d="M240 0c-8.8 0-16 7.2-16 16c0 35.3 17.7 68.3 47.1 87.9l16.1 10.7C307.7 128.4 320 151.4 320 176c0 8.8 7.2 16 16 16s16-7.2 16-16c0-35.3-17.7-68.3-47.1-87.9L288.8 77.3C268.3 63.6 256 40.6 256 16c0-8.8-7.2-16-16-16zM32 336V320 288H272c.5 0 1 0 1.6-.1c1.3 0 2.5 .1 3.8 .1H448c17.7 0 32 14.3 32 32V448c0 17.7-14.3 32-32 32H64c-17.7 0-32-14.3-32-32V336zm170.7-80H32c0-35.3 28.7-64 64-64c13.8 0 27.3 4.5 38.4 12.8L202.7 256zM0 272v48 16V448c0 35.3 28.7 64 64 64H448c35.3 0 64-28.7 64-64V320c0-35.3-28.7-64-64-64H277.3c-13.8 0-27.3-4.5-38.4-12.8l-85.3-64C137 166.7 116.8 160 96 160c-53 0-96 43-96 96v16zM384 16c0-8.8-7.2-16-16-16s-16 7.2-16 16c0 35.3 17.7 68.3 47.1 87.9l16.1 10.7C435.7 128.4 448 151.4 448 176c0 8.8 7.2 16 16 16s16-7.2 16-16c0-35.3-17.7-68.3-47.1-87.9L416.8 77.3C396.3 63.6 384 40.6 384 16zM112 336c-8.8 0-16 7.2-16 16v80c0 8.8 7.2 16 16 16s16-7.2 16-16V352c0-8.8-7.2-16-16-16zm96 0c-8.8 0-16 7.2-16 16v80c0 8.8 7.2 16 16 16s16-7.2 16-16V352c0-8.8-7.2-16-16-16zm96 0c-8.8 0-16 7.2-16 16v80c0 8.8 7.2 16 16 16s16-7.2 16-16V352c0-8.8-7.2-16-16-16zm96 0c-8.8 0-16 7.2-16 16v80c0 8.8 7.2 16 16 16s16-7.2 16-16V352c0-8.8-7.2-16-16-16zM32 64a32 32 0 1 1 64 0A32 32 0 1 1 32 64zm96 0A64 64 0 1 0 0 64a64 64 0 1 0 128 0z"/></svg>