<svg xmlns="http://www.w3.org/2000/svg" viewBox="0 0 384 512"><!--! Font Awesome Pro 6.4.0 by @fontawesome - https://fontawesome.com License - https://fontawesome.com/license (Commercial License) Copyright 2023 Fonticons, Inc. --><path d="M0 496c0 8.8 7.2 16 16 16H368c8.8 0 16-7.2 16-16s-7.2-16-16-16H352V435.3c0-31.6-10.4-62.4-29.6-87.5L252.1 256l70.2-91.9C341.6 139 352 108.3 352 76.7V32h16c8.8 0 16-7.2 16-16s-7.2-16-16-16H16C7.2 0 0 7.2 0 16s7.2 16 16 16H32V76.7c0 31.6 10.4 62.4 29.6 87.5L131.9 256 61.6 347.9C42.4 373 32 403.7 32 435.3L32 480H16c-8.8 0-16 7.2-16 16zm64-16l0-44.7c0-24.6 8.1-48.5 23-68l77.7-101.6c4.4-5.7 4.4-13.7 0-19.4L87 144.7c-14.9-19.5-23-43.4-23-68L64 32H320V76.7c0 24.6-8.1 48.5-23 68L219.3 246.3c-4.4 5.7-4.4 13.7 0 19.4L297 367.3c14.9 19.5 23 43.4 23 68V480H64zM205 201.3l80-112c3.5-4.9 3.9-11.3 1.2-16.6S278 64 272 64H192 112c-6 0-11.5 3.3-14.2 8.7S95.5 84.4 99 89.3l80 112c3 4.2 7.9 6.7 13 6.7s10-2.5 13-6.7zM192 96h48.9L192 164.5 143.1 96H192z"/></svg>