<svg xmlns="http://www.w3.org/2000/svg" viewBox="0 0 576 512"><!--! Font Awesome Pro 6.4.0 by @fontawesome - https://fontawesome.com License - https://fontawesome.com/license (Commercial License) Copyright 2023 Fonticons, Inc. --><path d="M16 512c-8.8 0-16-7.2-16-16s7.2-16 16-16H32l0-44.7c0-31.6 10.4-62.4 29.6-87.5L131.9 256 61.6 164.1C42.4 139 32 108.3 32 76.7V32H16C7.2 32 0 24.8 0 16S7.2 0 16 0H368c8.8 0 16 7.2 16 16s-7.2 16-16 16H352V76.7c0 31.6-10.4 62.4-29.6 87.5L252.1 256l23.6 30.9c-5.7 11-10.3 22.7-13.6 34.9l-42.8-56c-4.4-5.7-4.4-13.7 0-19.4L297 144.7c14.9-19.5 23-43.4 23-68V32H64l0 44.7c0 24.6 8.1 48.5 23 68l77.7 101.6c4.4 5.7 4.4 13.7 0 19.4L87 367.3c-14.9 19.5-23 43.4-23 68L64 480H296.2c10 12.1 21.7 22.9 34.6 32H16zm176-96h70.6c3.2 11.2 7.4 21.9 12.6 32H192 112c-6 0-11.5-3.4-14.2-8.7S95.5 427.6 99 422.7l80-112c5.1-7.2 15.1-8.9 22.3-3.7s8.9 15.1 3.7 22.3L143.1 416H192zm0-208c-4.9 0-9.5-2.2-12.5-6l-64-80c-3.8-4.8-4.6-11.4-1.9-16.9s8.3-9.1 14.4-9.1h64 64c6.2 0 11.8 3.5 14.4 9.1s1.9 12.1-1.9 16.9l-64 80c-3 3.8-7.6 6-12.5 6zm-30.7-80L192 166.4 222.7 128H192 161.3zM432 480a112 112 0 1 0 0-224 112 112 0 1 0 0 224zm0-256a144 144 0 1 1 0 288 144 144 0 1 1 0-288zm0 64c8.8 0 16 7.2 16 16v48h32c8.8 0 16 7.2 16 16s-7.2 16-16 16H432c-8.8 0-16-7.2-16-16V304c0-8.8 7.2-16 16-16z"/></svg>