<svg xmlns="http://www.w3.org/2000/svg" viewBox="0 0 640 512"><!--! Font Awesome Pro 6.4.0 by @fontawesome - https://fontawesome.com License - https://fontawesome.com/license (Commercial License) Copyright 2023 Fonticons, Inc. --><path d="M464 0c-8.8 0-16 7.2-16 16V32 64v96 32V512h32V192H624c8.8 0 16-7.2 16-16V48c0-8.8-7.2-16-16-16H480V16c0-8.8-7.2-16-16-16zm16 160V64H608v96H480zm-64-24L281.6 35.2c-5.7-4.3-13.5-4.3-19.2 0l-256 192c-7.1 5.3-8.5 15.3-3.2 22.4s15.3 8.5 22.4 3.2L64 224V440c0 39.8 32.2 72 72 72l272 0c2.7 0 5.4-.2 8-.4V479.2c-2.6 .5-5.3 .8-8 .8H344V352c0-17.7-14.3-32-32-32H232c-17.7 0-32 14.3-32 32V480H136c-22.1 0-40-17.9-40-40V200L272 68 416 176V136zM312 352V480l-80 0V352l80 0z"/></svg>