<svg xmlns="http://www.w3.org/2000/svg" viewBox="0 0 640 512"><!--! Font Awesome Pro 6.4.0 by @fontawesome - https://fontawesome.com License - https://fontawesome.com/license (Commercial License) Copyright 2023 Fonticons, Inc. --><path d="M298.6 4c-6-5.3-15.1-5.3-21.2 0L5.4 244c-6.6 5.8-7.3 16-1.4 22.6s16 7.3 22.6 1.4L64 235V432c0 44.2 35.8 80 80 80H394.8c-12.9-9.1-24.5-19.9-34.6-32H144c-26.5 0-48-21.5-48-48V206.7L288 37.3 466.1 194.5c9.7-1.7 19.7-2.5 29.9-2.5c5.6 0 11.1 .3 16.5 .8L298.6 4zM368 240H336V208c0-17.7-14.3-32-32-32H272c-17.7 0-32 14.3-32 32v32H208c-17.7 0-32 14.3-32 32v32c0 17.7 14.3 32 32 32h32v32c0 17.7 14.3 32 32 32h32c6.7 0 12.9-2 18-5.5c-1.3-8.6-2-17.5-2-26.5c0-22.6 4.3-44.2 12-64H320c-8.8 0-16 7.2-16 16v48H272V320c0-8.8-7.2-16-16-16H208V272h48c4.2 0 8.3-1.7 11.3-4.7s4.7-7.1 4.7-11.3V208h32v48c0 8.8 7.2 16 16 16h28.5c7.5-11.4 16.2-22 26-31.3c-2.1-.4-4.3-.7-6.5-.7zm128 16a112 112 0 1 1 0 224 112 112 0 1 1 0-224zm0 256a144 144 0 1 0 0-288 144 144 0 1 0 0 288zm44.7-187.3L480 385.4l-28.7-28.7c-6.2-6.2-16.4-6.2-22.6 0s-6.2 16.4 0 22.6l40 40c6.2 6.2 16.4 6.2 22.6 0l72-72c6.2-6.2 6.2-16.4 0-22.6s-16.4-6.2-22.6 0z"/></svg>