<svg xmlns="http://www.w3.org/2000/svg" viewBox="0 0 576 512"><!--! Font Awesome Pro 6.4.0 by @fontawesome - https://fontawesome.com License - https://fontawesome.com/license (Commercial License) Copyright 2023 Fonticons, Inc. --><path d="M298.6 4c-6-5.3-15.1-5.3-21.2 0L5.4 244c-6.6 5.8-7.3 16-1.4 22.6s16 7.3 22.6 1.4L64 235V432c0 44.2 35.8 80 80 80H432c44.2 0 80-35.8 80-80V235l37.4 33c6.6 5.8 16.7 5.2 22.6-1.4s5.2-16.7-1.4-22.6L512 192.3V56c0-13.3-10.7-24-24-24H408c-13.3 0-24 10.7-24 24V79.4L298.6 4zM416 107.6V64h64V164.1l-64-56.5zM96 432V206.7L288 37.3 480 206.7V432c0 26.5-21.5 48-48 48H144c-26.5 0-48-21.5-48-48zM256 224a32 32 0 1 1 64 0 32 32 0 1 1 -64 0zm96 0a64 64 0 1 0 -128 0 64 64 0 1 0 128 0zM248 352h80c22.1 0 40 17.9 40 40v8c0 8.8 7.2 16 16 16s16-7.2 16-16v-8c0-39.8-32.2-72-72-72H248c-39.8 0-72 32.2-72 72v8c0 8.8 7.2 16 16 16s16-7.2 16-16v-8c0-22.1 17.9-40 40-40z"/></svg>