<svg xmlns="http://www.w3.org/2000/svg" viewBox="0 0 576 512"><!-- Font Awesome Pro 6.0.0-alpha2 by @fontawesome - https://fontawesome.com License - https://fontawesome.com/license (Commercial License) --><path d="M575.996 494.967C575.996 487.024 570.11 480.129 562.038 479.092C503.961 471.611 498.638 432.389 479.986 432.389C474.975 432.389 469.963 434.499 466.963 438.718C448.526 464.561 417.511 479.999 383.997 479.999C350.482 479.999 319.469 464.561 301.032 438.718C298.016 434.499 293.008 432.389 288 432.389S277.985 434.499 274.969 438.718C256.532 464.561 225.519 479.999 192.003 479.999C124.283 479.999 115.242 431.999 96.006 431.999C90.835 431.999 85.993 434.499 82.993 438.718C45.888 490.672 0.004 466.841 0.004 494.967C0.004 508.731 13.037 511 15.811 511C26.106 511 65.704 503.293 95.991 472.749C120.616 497.592 155.225 511.999 192.003 511.999C228.769 511.999 263.376 497.592 288 472.749C312.625 497.592 347.232 511.999 383.997 511.999C420.776 511.999 455.385 497.592 480.01 472.749C510.424 503.422 550.218 511.028 560.355 511.028C573.827 511.028 575.996 497.669 575.996 494.967ZM235.048 191.999C220.423 191.999 208.423 203.999 208.423 218.624V325.374C208.423 339.999 220.423 351.999 235.048 351.999H341.668C356.418 351.999 368.418 339.999 368.418 325.374V218.624C368.418 203.999 356.418 191.999 341.668 191.999H235.048ZM336.418 319.999H240.423V223.999H336.418V319.999ZM16.022 271.992C19.775 271.992 23.544 270.679 26.597 267.999L64.003 234.994V367.999C64.003 376.843 71.159 383.999 80.003 383.999S96.003 376.843 96.003 367.999V207.999C96.003 207.624 95.815 207.312 95.79 206.945L288 37.344L480.211 206.945C480.186 207.312 479.998 207.624 479.998 207.999V367.999C479.998 376.843 487.154 383.999 495.998 383.999C504.842 383.999 511.998 376.843 511.998 367.999V234.994L549.404 267.999C552.466 270.687 556.216 271.999 559.997 271.999C568.837 271.999 576.001 264.847 576.001 256.003C576.001 251.57 574.173 247.159 570.591 243.999L511.947 192.253C511.949 192.164 511.998 192.089 511.998 191.999V48C511.998 39.156 504.842 32 495.998 32H399.999C391.156 32 383.999 39.156 383.999 48V79.359L298.594 4C295.563 1.344 291.782 0.016 288 0.016S280.438 1.344 277.407 4L5.41 243.999C1.828 247.159 0 251.57 0 256.003C0 264.912 7.227 271.992 16.022 271.992ZM415.999 64H479.998V164.064L415.999 107.594V64Z "></path></svg>