<svg xmlns="http://www.w3.org/2000/svg" viewBox="0 0 640 512"><!--! Font Awesome Pro 6.4.0 by @fontawesome - https://fontawesome.com License - https://fontawesome.com/license (Commercial License) Copyright 2023 Fonticons, Inc. --><path d="M480 16V32H624c8.8 0 16 7.2 16 16V176c0 8.8-7.2 16-16 16H480V512H448V192 160 64 32 16c0-8.8 7.2-16 16-16s16 7.2 16 16zM608 160V64H480v96H608zM281.6 35.2L416 136v40L272 68 96 200V440c0 22.1 17.9 40 40 40l272 0c2.7 0 5.4-.3 8-.8v32.4c-2.6 .3-5.3 .4-8 .4l-272 0c-39.8 0-72-32.2-72-72V224L25.6 252.8c-7.1 5.3-17.1 3.9-22.4-3.2s-3.9-17.1 3.2-22.4l256-192c5.7-4.3 13.5-4.3 19.2 0zM256 176h32c17.7 0 32 14.3 32 32v32h32c17.7 0 32 14.3 32 32v32c0 17.7-14.3 32-32 32H320v32c0 17.7-14.3 32-32 32H256c-17.7 0-32-14.3-32-32V336H192c-17.7 0-32-14.3-32-32V272c0-17.7 14.3-32 32-32h32V208c0-17.7 14.3-32 32-32zm0 32v48c0 4.2-1.7 8.3-4.7 11.3s-7.1 4.7-11.3 4.7H192v32h48c8.8 0 16 7.2 16 16v48h32V320c0-8.8 7.2-16 16-16h48V272H304c-8.8 0-16-7.2-16-16V208H256z"/></svg>