<svg xmlns="http://www.w3.org/2000/svg" viewBox="0 0 576 512"><!--! Font Awesome Pro 6.4.0 by @fontawesome - https://fontawesome.com License - https://fontawesome.com/license (Commercial License) Copyright 2023 Fonticons, Inc. --><path d="M320 16c0-8.8-7.2-16-16-16s-16 7.2-16 16v7.4l-4.1 1.1L67.6 82.2C46.6 87.8 32 106.8 32 128.6V336c0 26.5 21.5 48 48 48H464c26.5 0 48-21.5 48-48V306c0-36.7-25-68.7-60.6-77.6L320 195.5V144 16zM75.9 113.1L288 56.6V128H240c-8.8 0-16 7.2-16 16s7.2 16 16 16h48v32H240c-8.8 0-16 7.2-16 16s7.2 16 16 16h62l141.6 35.4C465 264.7 480 283.9 480 306v30c0 8.8-7.2 16-16 16H80c-8.8 0-16-7.2-16-16V128.6c0-7.2 4.9-13.6 11.9-15.5zM128 432V416H96v16 48H16c-8.8 0-16 7.2-16 16s7.2 16 16 16h96H400h96c44.2 0 80-35.8 80-80c0-8.8-7.2-16-16-16s-16 7.2-16 16c0 26.5-21.5 48-48 48H416V432 416H384v16 48H128V432z"/></svg>