<svg xmlns="http://www.w3.org/2000/svg" viewBox="0 0 512 512"><!--! Font Awesome Pro 6.4.0 by @fontawesome - https://fontawesome.com License - https://fontawesome.com/license (Commercial License) Copyright 2023 Fonticons, Inc. --><path d="M32 416V327.9c0-2.6 .3-5.2 1-7.8l0-.1H134.1l23.2 46.3c5.4 10.8 16.5 17.7 28.6 17.7H326.1c12.1 0 23.2-6.8 28.6-17.7L377.9 320H479l0 .1c.6 2.5 1 5.1 1 7.8V416c0 17.7-14.3 32-32 32H64c-17.7 0-32-14.3-32-32zM471 288H377.9c-12.1 0-23.2 6.8-28.6 17.7L326.1 352H185.9l-23.2-46.3c-5.4-10.8-16.5-17.7-28.6-17.7H41L90.9 88.2C94.5 74 107.3 64 122 64H390c14.7 0 27.5 10 31 24.2L471 288zM0 327.9V416c0 35.3 28.7 64 64 64H448c35.3 0 64-28.7 64-64V327.9c0-5.2-.6-10.4-1.9-15.5l-58-231.9C445 52 419.4 32 390 32H122C92.6 32 67 52 59.9 80.5L1.9 312.4C.6 317.4 0 322.6 0 327.9z"/></svg>