<svg xmlns="http://www.w3.org/2000/svg" viewBox="0 0 576 512"><!--! Font Awesome Pro 6.4.0 by @fontawesome - https://fontawesome.com License - https://fontawesome.com/license (Commercial License) Copyright 2023 Fonticons, Inc. --><path d="M64 80c0-8.8 7.2-16 16-16h64c8.8 0 16 7.2 16 16V229.3c0 5.9 3.2 11.3 8.5 14.1s11.5 2.5 16.4-.8l138.7-92.5c5.3-3.5 12.4 .3 12.4 6.7v81.9c0 6 3.4 11.5 8.7 14.2s11.8 2.3 16.6-1.3l138-99.3c5.3-3.8 12.7 0 12.7 6.5V304v16 96c0 17.7-14.3 32-32 32H96c-17.7 0-32-14.3-32-32V352 304 80zM80 32C53.5 32 32 53.5 32 80V304v48 64c0 35.3 28.7 64 64 64H480c35.3 0 64-28.7 64-64V320 304 158.9c0-32.6-36.9-51.5-63.4-32.5L368 207.5V156.8c0-31.9-35.6-51-62.2-33.3L192 199.4V80c0-26.5-21.5-48-48-48H80zm56 272c-13.3 0-24 10.7-24 24v48c0 13.3 10.7 24 24 24h48c13.3 0 24-10.7 24-24V328c0-13.3-10.7-24-24-24H136zm104 24v48c0 13.3 10.7 24 24 24h48c13.3 0 24-10.7 24-24V328c0-13.3-10.7-24-24-24H264c-13.3 0-24 10.7-24 24zm32 40V336h32v32H272zm120-64c-13.3 0-24 10.7-24 24v48c0 13.3 10.7 24 24 24h48c13.3 0 24-10.7 24-24V328c0-13.3-10.7-24-24-24H392zm40 64H400V336h32v32zm-288 0V336h32v32H144z"/></svg>