<svg xmlns="http://www.w3.org/2000/svg" viewBox="0 0 576 512"><!--! Font Awesome Pro 6.4.0 by @fontawesome - https://fontawesome.com License - https://fontawesome.com/license (Commercial License) Copyright 2023 Fonticons, Inc. --><path d="M80 64c-8.8 0-16 7.2-16 16V304v48 64c0 17.7 14.3 32 32 32H480c17.7 0 32-14.3 32-32V320 304 158.9c0-6.5-7.4-10.3-12.7-6.5l-138 99.3c-4.9 3.5-11.3 4-16.6 1.3s-8.7-8.2-8.7-14.2V156.8c0-6.4-7.1-10.2-12.4-6.7L184.9 242.6c-4.9 3.3-11.2 3.6-16.4 .8s-8.5-8.2-8.5-14.1V80c0-8.8-7.2-16-16-16H80zM32 80c0-26.5 21.5-48 48-48h64c26.5 0 48 21.5 48 48V199.4l113.8-75.9c26.6-17.7 62.2 1.3 62.2 33.3v50.6l112.6-81.1c26.5-19.1 63.4-.1 63.4 32.5V304v16 96c0 35.3-28.7 64-64 64H96c-35.3 0-64-28.7-64-64V352 304 80z"/></svg>