<svg xmlns="http://www.w3.org/2000/svg" viewBox="0 0 640 512"><!--! Font Awesome Pro 6.4.0 by @fontawesome - https://fontawesome.com License - https://fontawesome.com/license (Commercial License) Copyright 2023 Fonticons, Inc. --><path d="M64 96c-17.7 0-32 14.3-32 32V384c0 17.7 14.3 32 32 32H576c17.7 0 32-14.3 32-32V128c0-17.7-14.3-32-32-32H64zM0 128C0 92.7 28.7 64 64 64H576c35.3 0 64 28.7 64 64V384c0 35.3-28.7 64-64 64H64c-35.3 0-64-28.7-64-64V128zm176 32c6.5 0 12.4 4 14.9 10.1l64 160c3.3 8.2-.7 17.5-8.9 20.8s-17.5-.7-20.8-8.9L216.4 320l-.4 0H136l-.4 0-8.8 21.9c-3.3 8.2-12.6 12.2-20.8 8.9s-12.2-12.6-8.9-20.8l64-160c2.4-6.1 8.3-10.1 14.9-10.1zm0 59.1L148.4 288h55.1L176 219.1zM288 176c0-8.8 7.2-16 16-16h56c30.9 0 56 25.1 56 56c0 12.1-3.8 23.3-10.4 32.5C421.5 258.4 432 276 432 296c0 30.9-25.1 56-56 56H304c-8.8 0-16-7.2-16-16V320 256 192 176zm72 96H320v48h56c13.3 0 24-10.7 24-24s-10.7-24-24-24H360zm0-32c13.3 0 24-10.7 24-24s-10.7-24-24-24H320v48h40z"/></svg>