<svg xmlns="http://www.w3.org/2000/svg" viewBox="0 0 320 512"><!--! Font Awesome Pro 6.4.0 by @fontawesome - https://fontawesome.com License - https://fontawesome.com/license (Commercial License) Copyright 2023 Fonticons, Inc. --><path d="M48 16c0 8.8 7.2 16 16 16H256c8.8 0 16-7.2 16-16s-7.2-16-16-16H64C55.2 0 48 7.2 48 16zM256 96c17.7 0 32 14.3 32 32V448c0 17.7-14.3 32-32 32H64c-17.7 0-32-14.3-32-32V128c0-17.7 14.3-32 32-32H256zM64 64C28.7 64 0 92.7 0 128V448c0 35.3 28.7 64 64 64H256c35.3 0 64-28.7 64-64V128c0-35.3-28.7-64-64-64H64zm80 384c0 8.8 7.2 16 16 16s16-7.2 16-16V432h8c44.2 0 80-35.8 80-80c0-8.8-7.2-16-16-16H224c-26.2 0-49.4 12.6-64 32c-14.6-19.4-37.8-32-64-32H72c-8.8 0-16 7.2-16 16c0 44.2 35.8 80 80 80h8v16zm34.7-48c6.6-18.6 24.4-32 45.3-32h5.3c-6.6 18.6-24.4 32-45.3 32h-5.3zM96 368c20.9 0 38.7 13.4 45.3 32H136c-20.9 0-38.7-13.4-45.3-32H96zm82.7-176c6.6-18.6 24.4-32 45.3-32h5.3c-6.6 18.6-24.4 32-45.3 32h-5.3zM264 144c0-8.8-7.2-16-16-16H224c-26.2 0-49.4 12.6-64 32c-14.6-19.4-37.8-32-64-32l-24 0c-8.8 0-16 7.2-16 16c0 44.2 35.8 80 80 80h24 24c44.2 0 80-35.8 80-80zM96 160c20.9 0 38.7 13.4 45.3 32H136c-20.9 0-38.7-13.4-45.3-32H96zm82.7 136c6.6-18.6 24.4-32 45.3-32h5.3c-6.6 18.6-24.4 32-45.3 32h-5.3zM264 248c0-8.8-7.2-16-16-16H224c-26.2 0-49.4 12.6-64 32c-14.6-19.4-37.8-32-64-32H72c-8.8 0-16 7.2-16 16c0 44.2 35.8 80 80 80h24 24c44.2 0 80-35.8 80-80zM96 264c20.9 0 38.7 13.4 45.3 32H136c-20.9 0-38.7-13.4-45.3-32H96z"/></svg>