<svg xmlns="http://www.w3.org/2000/svg" viewBox="0 0 320 512"><!--! Font Awesome Pro 6.4.0 by @fontawesome - https://fontawesome.com License - https://fontawesome.com/license (Commercial License) Copyright 2023 Fonticons, Inc. --><path d="M64 0H256c8.8 0 16 7.2 16 16s-7.2 16-16 16H64c-8.8 0-16-7.2-16-16S55.2 0 64 0zm0 96c-17.7 0-32 14.3-32 32v64H288V128c0-17.7-14.3-32-32-32H64zM32 224V352H288V224H32zm0 160v64c0 17.7 14.3 32 32 32H256c17.7 0 32-14.3 32-32V384H32zM0 128C0 92.7 28.7 64 64 64H256c35.3 0 64 28.7 64 64V448c0 35.3-28.7 64-64 64H64c-35.3 0-64-28.7-64-64V128z"/></svg>