<svg xmlns="http://www.w3.org/2000/svg" viewBox="0 0 640 512"><!--! Font Awesome Pro 6.4.0 by @fontawesome - https://fontawesome.com License - https://fontawesome.com/license (Commercial License) Copyright 2023 Fonticons, Inc. --><path d="M416 144a112 112 0 1 1 0 224 112 112 0 1 1 0-224zM523.3 352c22.8-25.5 36.7-59.1 36.7-96c0-37.3-14.2-71.2-37.4-96.8c.2 .3 .5 .5 .7 .8H576c17.7 0 32 14.3 32 32V320c0 17.7-14.3 32-32 32H523.3s0 0 0 0zM482 384h94c35.3 0 64-28.7 64-64V192c0-35.3-28.7-64-64-64H482c-19.8-10.2-42.2-16-66-16s-46.3 5.8-66 16H241.7c-11.8 0-23.4 1.6-34.7 4.8c-39.3 11.1-136.7 38.7-184 52.5C9.4 189.3 0 201.8 0 216v80c0 14.2 9.4 26.7 23 30.7c47.3 13.8 144.7 41.4 184 52.5c11.3 3.2 23 4.8 34.7 4.8H350c19.8 10.2 42.2 16 66 16s46.3-5.8 66-16zM308.7 352h-67c-8.8 0-17.6-1.2-26-3.6L207 379.2l8.7-30.8C176.4 337.3 79.1 309.7 32 296l0-80c47.1-13.7 144.4-41.3 183.7-52.4c8.5-2.4 17.2-3.6 26-3.6h67c-22.8 25.5-36.7 59.1-36.7 96s13.9 70.5 36.7 96zm56-147.3c-6.2 6.2-6.2 16.4 0 22.6L393.4 256l-28.7 28.7c-6.2 6.2-6.2 16.4 0 22.6s16.4 6.2 22.6 0L416 278.6l28.7 28.7c6.2 6.2 16.4 6.2 22.6 0s6.2-16.4 0-22.6L438.6 256l28.7-28.7c6.2-6.2 6.2-16.4 0-22.6s-16.4-6.2-22.6 0L416 233.4l-28.7-28.7c-6.2-6.2-16.4-6.2-22.6 0z"/></svg>