<svg xmlns="http://www.w3.org/2000/svg" viewBox="0 0 640 512"><!--! Font Awesome Pro 6.4.0 by @fontawesome - https://fontawesome.com License - https://fontawesome.com/license (Commercial License) Copyright 2023 Fonticons, Inc. --><path d="M608 128a96 96 0 1 0 -192 0 96 96 0 1 0 192 0zm32 0c0 70.7-57.3 128-128 128s-128-57.3-128-128v0H288v64c0 8.8-7.2 16-16 16s-16-7.2-16-16V128H192l0 64c0 8.8-7.2 16-16 16s-16-7.2-16-16l0-80c0-8.8 7.2-16 16-16l212 0C402.2 40.8 452.4 0 512 0c70.7 0 128 57.3 128 128zM32 384a96 96 0 1 0 192 0A96 96 0 1 0 32 384zM0 384c0-70.7 57.3-128 128-128s128 57.3 128 128v0h96V320c0-8.8 7.2-16 16-16s16 7.2 16 16v64h64l0-64c0-8.8 7.2-16 16-16s16 7.2 16 16l0 80c0 8.8-7.2 16-16 16H252c-14.2 55.2-64.3 96-124 96C57.3 512 0 454.7 0 384z"/></svg>