<svg xmlns="http://www.w3.org/2000/svg" viewBox="0 0 576 512"><!--! Font Awesome Pro 6.4.0 by @fontawesome - https://fontawesome.com License - https://fontawesome.com/license (Commercial License) Copyright 2023 Fonticons, Inc. --><path d="M64 32C46.3 32 32 46.3 32 64V224c0 17.7 14.3 32 32 32H512c17.7 0 32-14.3 32-32V64c0-17.7-14.3-32-32-32H64zM0 64C0 28.7 28.7 0 64 0H512c35.3 0 64 28.7 64 64V224c0 35.3-28.7 64-64 64H64c-35.3 0-64-28.7-64-64V64zm184 8h16c8.8 0 16 7.2 16 16v16c0 8.8-7.2 16-16 16H184c-8.8 0-16-7.2-16-16V88c0-8.8 7.2-16 16-16zM72 184c0-8.8 7.2-16 16-16h16c8.8 0 16 7.2 16 16v16c0 8.8-7.2 16-16 16H88c-8.8 0-16-7.2-16-16V184zM88 72h16c8.8 0 16 7.2 16 16v16c0 8.8-7.2 16-16 16H88c-8.8 0-16-7.2-16-16V88c0-8.8 7.2-16 16-16zM264 88c0-8.8 7.2-16 16-16h16c8.8 0 16 7.2 16 16v16c0 8.8-7.2 16-16 16H280c-8.8 0-16-7.2-16-16V88zM376 72h16c8.8 0 16 7.2 16 16v16c0 8.8-7.2 16-16 16H376c-8.8 0-16-7.2-16-16V88c0-8.8 7.2-16 16-16zm80 16c0-8.8 7.2-16 16-16h16c8.8 0 16 7.2 16 16v16c0 8.8-7.2 16-16 16H472c-8.8 0-16-7.2-16-16V88zm16 80h16c8.8 0 16 7.2 16 16v16c0 8.8-7.2 16-16 16H472c-8.8 0-16-7.2-16-16V184c0-8.8 7.2-16 16-16zM160 192c0-8.8 7.2-16 16-16H400c8.8 0 16 7.2 16 16s-7.2 16-16 16H176c-8.8 0-16-7.2-16-16zM288 473.4L404.7 356.7c6.2-6.2 16.4-6.2 22.6 0s6.2 16.4 0 22.6l-128 128c-6.2 6.2-16.4 6.2-22.6 0l-128-128c-6.2-6.2-6.2-16.4 0-22.6s16.4-6.2 22.6 0L288 473.4z"/></svg>