<svg xmlns="http://www.w3.org/2000/svg" viewBox="0 0 640 512"><!--! Font Awesome Pro 6.4.0 by @fontawesome - https://fontawesome.com License - https://fontawesome.com/license (Commercial License) Copyright 2023 Fonticons, Inc. --><path d="M576 96c17.7 0 32 14.3 32 32V384c0 17.7-14.3 32-32 32H224c-17.7 0-32-14.3-32-32V128c0-17.7 14.3-32 32-32H576zM224 64c-35.3 0-64 28.7-64 64V384c0 35.3 28.7 64 64 64H576c35.3 0 64-28.7 64-64V128c0-35.3-28.7-64-64-64H224zm8 88v16c0 8.8 7.2 16 16 16h16c8.8 0 16-7.2 16-16V152c0-8.8-7.2-16-16-16H248c-8.8 0-16 7.2-16 16zm16 80c-8.8 0-16 7.2-16 16v16c0 8.8 7.2 16 16 16h16c8.8 0 16-7.2 16-16V248c0-8.8-7.2-16-16-16H248zM232 344v16c0 8.8 7.2 16 16 16h16c8.8 0 16-7.2 16-16V344c0-8.8-7.2-16-16-16H248c-8.8 0-16 7.2-16 16zM344 136c-8.8 0-16 7.2-16 16v16c0 8.8 7.2 16 16 16h16c8.8 0 16-7.2 16-16V152c0-8.8-7.2-16-16-16H344zM328 248v16c0 8.8 7.2 16 16 16h16c8.8 0 16-7.2 16-16V248c0-8.8-7.2-16-16-16H344c-8.8 0-16 7.2-16 16zM440 136c-8.8 0-16 7.2-16 16v16c0 8.8 7.2 16 16 16h16c8.8 0 16-7.2 16-16V152c0-8.8-7.2-16-16-16H440zM424 248v16c0 8.8 7.2 16 16 16h16c8.8 0 16-7.2 16-16V248c0-8.8-7.2-16-16-16H440c-8.8 0-16 7.2-16 16zM536 136c-8.8 0-16 7.2-16 16v16c0 8.8 7.2 16 16 16h16c8.8 0 16-7.2 16-16V152c0-8.8-7.2-16-16-16H536zM520 248v16c0 8.8 7.2 16 16 16h16c8.8 0 16-7.2 16-16V248c0-8.8-7.2-16-16-16H536c-8.8 0-16 7.2-16 16zm16 80c-8.8 0-16 7.2-16 16v16c0 8.8 7.2 16 16 16h16c8.8 0 16-7.2 16-16V344c0-8.8-7.2-16-16-16H536zM320 352c0 8.8 7.2 16 16 16H464c8.8 0 16-7.2 16-16s-7.2-16-16-16H336c-8.8 0-16 7.2-16 16zM107.3 187.3c6.2-6.2 6.2-16.4 0-22.6s-16.4-6.2-22.6 0l-80 80c-6.2 6.2-6.2 16.4 0 22.6l80 80c6.2 6.2 16.4 6.2 22.6 0s6.2-16.4 0-22.6L38.6 256l68.7-68.7z"/></svg>