<svg xmlns="http://www.w3.org/2000/svg" viewBox="0 0 576 512"><!--! Font Awesome Pro 6.4.0 by @fontawesome - https://fontawesome.com License - https://fontawesome.com/license (Commercial License) Copyright 2023 Fonticons, Inc. --><path d="M64 96c-17.7 0-32 14.3-32 32V384c0 17.7 14.3 32 32 32H512c17.7 0 32-14.3 32-32V128c0-17.7-14.3-32-32-32H64zM0 128C0 92.7 28.7 64 64 64H512c35.3 0 64 28.7 64 64V384c0 35.3-28.7 64-64 64H64c-35.3 0-64-28.7-64-64V128zm88 8h16c8.8 0 16 7.2 16 16v16c0 8.8-7.2 16-16 16H88c-8.8 0-16-7.2-16-16V152c0-8.8 7.2-16 16-16zM72 248c0-8.8 7.2-16 16-16h16c8.8 0 16 7.2 16 16v16c0 8.8-7.2 16-16 16H88c-8.8 0-16-7.2-16-16V248zm16 80h16c8.8 0 16 7.2 16 16v16c0 8.8-7.2 16-16 16H88c-8.8 0-16-7.2-16-16V344c0-8.8 7.2-16 16-16zm80-176c0-8.8 7.2-16 16-16h16c8.8 0 16 7.2 16 16v16c0 8.8-7.2 16-16 16H184c-8.8 0-16-7.2-16-16V152zm16 80h16c8.8 0 16 7.2 16 16v16c0 8.8-7.2 16-16 16H184c-8.8 0-16-7.2-16-16V248c0-8.8 7.2-16 16-16zm80-80c0-8.8 7.2-16 16-16h16c8.8 0 16 7.2 16 16v16c0 8.8-7.2 16-16 16H280c-8.8 0-16-7.2-16-16V152zm16 80h16c8.8 0 16 7.2 16 16v16c0 8.8-7.2 16-16 16H280c-8.8 0-16-7.2-16-16V248c0-8.8 7.2-16 16-16zm80-80c0-8.8 7.2-16 16-16h16c8.8 0 16 7.2 16 16v16c0 8.8-7.2 16-16 16H376c-8.8 0-16-7.2-16-16V152zm16 80h16c8.8 0 16 7.2 16 16v16c0 8.8-7.2 16-16 16H376c-8.8 0-16-7.2-16-16V248c0-8.8 7.2-16 16-16zm80-80c0-8.8 7.2-16 16-16h16c8.8 0 16 7.2 16 16v16c0 8.8-7.2 16-16 16H472c-8.8 0-16-7.2-16-16V152zm16 80h16c8.8 0 16 7.2 16 16v16c0 8.8-7.2 16-16 16H472c-8.8 0-16-7.2-16-16V248c0-8.8 7.2-16 16-16zM456 344c0-8.8 7.2-16 16-16h16c8.8 0 16 7.2 16 16v16c0 8.8-7.2 16-16 16H472c-8.8 0-16-7.2-16-16V344zm-280-8H400c8.8 0 16 7.2 16 16s-7.2 16-16 16H176c-8.8 0-16-7.2-16-16s7.2-16 16-16z"/></svg>