<svg xmlns="http://www.w3.org/2000/svg" viewBox="0 0 512 512"><!--! Font Awesome Pro 6.4.0 by @fontawesome - https://fontawesome.com License - https://fontawesome.com/license (Commercial License) Copyright 2023 Fonticons, Inc. --><path d="M304 32c8.8 0 16 7.2 16 16s-7.2 16-16 16H240c-8.8 0-16-7.2-16-16s7.2-16 16-16h64zM240 0c-20.9 0-38.7 13.4-45.3 32H184c-44.2 0-80 35.8-80 80v48H93.7c-18.2 0-34.8 10.3-42.9 26.5L5.1 277.9c-3.3 6.7-5.1 14-5.1 21.5V304v48c0 17.7 14.3 32 32 32H480c17.7 0 32-14.3 32-32V304v-4.7c0-7.5-1.7-14.8-5.1-21.5l-45.7-91.3c-8.1-16.3-24.8-26.5-42.9-26.5H136V112c0-26.5 21.5-48 48-48h10.7c6.6 18.6 24.4 32 45.3 32h64c26.5 0 48-21.5 48-48s-21.5-48-48-48H240zM32 352V320H480v32H32zm3.8-64l43.6-87.2c2.7-5.4 8.3-8.8 14.3-8.8H418.3c6.1 0 11.6 3.4 14.3 8.8L476.2 288H35.8zM144 480c-8.8 0-16 7.2-16 16s7.2 16 16 16H256 368c8.8 0 16-7.2 16-16s-7.2-16-16-16H272V416H240v64H144z"/></svg>