<svg xmlns="http://www.w3.org/2000/svg" viewBox="0 0 384 512"><!--! Font Awesome Pro 6.4.0 by @fontawesome - https://fontawesome.com License - https://fontawesome.com/license (Commercial License) Copyright 2023 Fonticons, Inc. --><path d="M80 32c8.8 0 16 7.2 16 16V222.4L325.9 35.6c6.9-5.6 16.9-4.5 22.5 2.3s4.5 16.9-2.3 22.5L125.1 240H368c8.8 0 16 7.2 16 16s-7.2 16-16 16H125.1l221 179.6c6.9 5.6 7.9 15.6 2.3 22.5s-15.7 7.9-22.5 2.3L96 289.6V465c0 8.8-7.2 16-16 16s-16-7.2-16-16V272H16c-8.8 0-16-7.2-16-16s7.2-16 16-16H64V48c0-8.8 7.2-16 16-16z"/></svg>