<svg xmlns="http://www.w3.org/2000/svg" viewBox="0 0 576 512"><!--! Font Awesome Pro 6.4.0 by @fontawesome - https://fontawesome.com License - https://fontawesome.com/license (Commercial License) Copyright 2023 Fonticons, Inc. --><path d="M144 256a112 112 0 1 0 0-224 112 112 0 1 0 0 224zm143.1-96c-8 72-69 128-143.1 128C64.5 288 0 223.5 0 144S64.5 0 144 0c74.1 0 135.2 56 143.1 128h67.6c6.6-18.6 24.4-32 45.3-32h96c26.5 0 48 21.5 48 48s-21.5 48-48 48H400c-20.9 0-38.7-13.4-45.3-32H287.1zM272 320h16 32V288c0-17.7 14.3-32 32-32h96c17.7 0 32 14.3 32 32v32h32 16c8.8 0 16 7.2 16 16s-7.2 16-16 16H512V464c0 26.5-21.5 48-48 48H336c-26.5 0-48-21.5-48-48V352H272c-8.8 0-16-7.2-16-16s7.2-16 16-16zm80 0h96V288H352v32zm-32 32V464c0 8.8 7.2 16 16 16H464c8.8 0 16-7.2 16-16V352H320zM496 128H400c-8.8 0-16 7.2-16 16s7.2 16 16 16h96c8.8 0 16-7.2 16-16s-7.2-16-16-16zM192 144a48 48 0 1 0 -96 0 48 48 0 1 0 96 0zM64 144a80 80 0 1 1 160 0A80 80 0 1 1 64 144zM0 496c0-8.8 7.2-16 16-16H208c8.8 0 16 7.2 16 16s-7.2 16-16 16H16c-8.8 0-16-7.2-16-16zM160 352v32h16c8.8 0 16-7.2 16-16s-7.2-16-16-16H160zm0-32h16c26.5 0 48 21.5 48 48s-21.5 48-48 48H160c0 17.7-14.3 32-32 32H64c-17.7 0-32-14.3-32-32V336c0-8.8 7.2-16 16-16h80 16 16zm-32 64V352H64v64h64V384z"/></svg>