<svg xmlns="http://www.w3.org/2000/svg" viewBox="0 0 640 512"><!--! Font Awesome Pro 6.4.0 by @fontawesome - https://fontawesome.com License - https://fontawesome.com/license (Commercial License) Copyright 2023 Fonticons, Inc. --><path d="M338.2 50.8L273 344.4 457.4 160 341.1 43.7c-1.3 2.2-2.3 4.5-2.8 7.1zM258.9 407.9l-5.4 1.2-88.2 88.2c-9.4 9.4-22.1 14.6-35.3 14.6C102.4 512 80 489.6 80 462.1V316.3L24.2 349.7c-4.9 3-11.1 3-16.1 .2S0 341.8 0 336V240c0-5.8 3.1-11.1 8.1-13.9s11.2-2.8 16.1 .2L80 259.7V208c0-26.5-21.5-48-48-48H16c-8.8 0-16-7.2-16-16s7.2-16 16-16H32c44.2 0 80 35.8 80 80v51.7l55.8-33.5c4.9-3 11.1-3 16.1-.2s8.1 8.2 8.1 13.9v96c0 5.8-3.1 11.1-8.1 13.9s-11.2 2.8-16.1-.2L112 316.3V462.1c0 9.9 8 17.9 17.9 17.9c4.8 0 9.3-1.9 12.7-5.3l88.2-88.2 1.2-5.4L307 43.9C312.7 18.2 335.4 0 361.7 0H584c30.9 0 56 25.1 56 56V278.3c0 26.2-18.2 49-43.9 54.7L258.9 407.9zM480 182.6L295.6 367l293.6-65.2c2.6-.6 4.9-1.5 7.1-2.8L480 182.6zM608 56c0-.4 0-.9 0-1.3L502.6 160 608 265.4V56zM584 32H374.6L480 137.4 585.3 32c-.4 0-.9 0-1.3 0zM32 268.3v39.5L64.9 288 32 268.3zm128 39.5V268.3L127.1 288 160 307.7z"/></svg>