<svg xmlns="http://www.w3.org/2000/svg" viewBox="0 0 448 512"><!--! Font Awesome Pro 6.4.0 by @fontawesome - https://fontawesome.com License - https://fontawesome.com/license (Commercial License) Copyright 2023 Fonticons, Inc. --><path d="M16 32C7.2 32 0 39.2 0 48s7.2 16 16 16H139.5c6.2 0 11.9 3.6 14.5 9.3l7.6 16.5-.3-.1-160 368c-3.5 8.1 .2 17.5 8.3 21.1s17.5-.2 21.1-8.3L179.4 128.3 328.9 452.1c7.8 17 24.9 27.9 43.6 27.9H432c8.8 0 16-7.2 16-16s-7.2-16-16-16H372.5c-6.2 0-11.9-3.6-14.5-9.3L183.1 59.9c-7.8-17-24.9-27.9-43.6-27.9H16z"/></svg>