<svg xmlns="http://www.w3.org/2000/svg" viewBox="0 0 640 512"><!--! Font Awesome Pro 6.4.0 by @fontawesome - https://fontawesome.com License - https://fontawesome.com/license (Commercial License) Copyright 2023 Fonticons, Inc. --><path d="M224 32L160 192H480L416 32 224 32zM194.3 20.1C199.1 8 210.9 0 224 0H416c13.1 0 24.9 8 29.7 20.1l64 160c3.9 9.9 2.7 21-3.2 29.8s-15.9 14.1-26.5 14.1H160c-10.6 0-20.5-5.3-26.5-14.1s-7.2-20-3.2-29.8l64-160zM208 480h96V256h32V480h96c8.8 0 16 7.2 16 16s-7.2 16-16 16H320 208c-8.8 0-16-7.2-16-16s7.2-16 16-16z"/></svg>