<svg xmlns="http://www.w3.org/2000/svg" viewBox="0 0 512 512"><!--! Font Awesome Pro 6.4.0 by @fontawesome - https://fontawesome.com License - https://fontawesome.com/license (Commercial License) Copyright 2023 Fonticons, Inc. --><path d="M256 0c8.8 0 16 7.2 16 16V32.7c87.9 7.2 159 73.7 173.3 159.3H464c8.8 0 16 7.2 16 16s-7.2 16-16 16H448 416 96 64 48c-8.8 0-16-7.2-16-16s7.2-16 16-16H66.7C81 106.3 152.1 39.9 240 32.7V16c0-8.8 7.2-16 16-16zM99.2 192H412.8C398 119 333.4 64 256 64s-142 55-156.8 128zM64 352V256H96v96h80V256h32v96h96V256h32v96h80V256h32v96c8.8 0 16 7.2 16 16s-7.2 16-16 16H64c-8.8 0-16-7.2-16-16s7.2-16 16-16zM24 432c0-8.8 7.2-16 16-16H472c8.8 0 16 7.2 16 16s-7.2 16-16 16H40c-8.8 0-16-7.2-16-16zM0 496c0-8.8 7.2-16 16-16H496c8.8 0 16 7.2 16 16s-7.2 16-16 16H16c-8.8 0-16-7.2-16-16z"/></svg>