<svg xmlns="http://www.w3.org/2000/svg" viewBox="0 0 384 512"><!--! Font Awesome Pro 6.4.0 by @fontawesome - https://fontawesome.com License - https://fontawesome.com/license (Commercial License) Copyright 2023 Fonticons, Inc. --><path d="M176 464v16H64c-17.7 0-32-14.3-32-32V64c0-17.7 14.3-32 32-32H176V48c0 8.8 7.2 16 16 16s16-7.2 16-16V32H320c17.7 0 32 14.3 32 32V448c0 17.7-14.3 32-32 32H208V464c0-8.8-7.2-16-16-16s-16 7.2-16 16zM0 448c0 35.3 28.7 64 64 64H320c35.3 0 64-28.7 64-64V64c0-35.3-28.7-64-64-64H64C28.7 0 0 28.7 0 64V448zM176 344h32c8.8 0 16-7.2 16-16s-7.2-16-16-16H176c-8.8 0-16 7.2-16 16s7.2 16 16 16zm-48 24V272H256v96c0 8.8-7.2 16-16 16H144c-8.8 0-16-7.2-16-16zm0-224c0-8.8 7.2-16 16-16h96c8.8 0 16 7.2 16 16v96H128V144zM96 368c0 26.5 21.5 48 48 48h96c26.5 0 48-21.5 48-48V144c0-26.5-21.5-48-48-48H144c-26.5 0-48 21.5-48 48V368z"/></svg>