<svg xmlns="http://www.w3.org/2000/svg" viewBox="0 0 512 512"><!--! Font Awesome Pro 6.4.0 by @fontawesome - https://fontawesome.com License - https://fontawesome.com/license (Commercial License) Copyright 2023 Fonticons, Inc. --><path d="M256 0c8.8 0 16 7.2 16 16V160.5c123.3 7.6 223 102.5 238 223.6c2.2 17.5-12.4 31.9-30 31.9H32C14.3 416-.2 401.6 2 384.1C17 262.9 116.7 168.1 240 160.5V16c0-8.8 7.2-16 16-16zM34.3 384H477.7C462.2 275.5 368.8 192 256 192S49.8 275.5 34.3 384zM256 512c-38.7 0-71-27.5-78.4-64h33.1c6.6 18.6 24.4 32 45.3 32s38.7-13.4 45.3-32h33.1c-7.4 36.5-39.7 64-78.4 64z"/></svg>