<svg xmlns="http://www.w3.org/2000/svg" viewBox="0 0 384 512"><!--! Font Awesome Pro 6.4.0 by @fontawesome - https://fontawesome.com License - https://fontawesome.com/license (Commercial License) Copyright 2023 Fonticons, Inc. --><path d="M336 176c0 30.6-9.5 58.8-25.7 82.1c-4.1 5.9-8.8 12.3-13.6 19c-12.7 17.5-27.1 37.2-38 57.1c-8.9 16.2-13.7 33.3-16.2 49.9H275c2.2-12 5.9-23.7 11.8-34.5c9.9-18 22.2-34.9 34.5-51.8l0 0 0 0 0 0c5.2-7.1 10.4-14.2 15.4-21.4c19.8-28.5 31.4-63 31.4-100.3C368 78.8 289.2 0 192 0S16 78.8 16 176c0 37.3 11.6 71.9 31.4 100.3c5 7.2 10.2 14.3 15.4 21.4l0 0 0 0 0 0c12.3 16.8 24.6 33.7 34.5 51.8c5.9 10.8 9.6 22.5 11.8 34.5h32.4c-2.5-16.6-7.3-33.7-16.2-49.9c-10.9-20-25.3-39.7-38-57.1l0 0c-4.9-6.7-9.5-13-13.6-19C57.5 234.8 48 206.6 48 176C48 96.5 112.5 32 192 32s144 64.5 144 144zM146.7 448h90.5c-6.6 18.6-24.4 32-45.3 32s-38.7-13.4-45.3-32zM112 432c0 44.2 35.8 80 80 80s80-35.8 80-80v-5.3c0-5.9-4.8-10.7-10.7-10.7H122.7c-5.9 0-10.7 4.8-10.7 10.7V432zM208 88c0-8.8-7.2-16-16-16s-16 7.2-16 16v17.3c-8.3 1.5-16.7 4.3-24.1 8.7c-13 7.7-23.9 21.1-23.8 40.5c.1 18.4 10.8 30.1 22.7 37.3c10.5 6.3 23.8 10.4 34.8 13.7l0 0 0 0 1.6 .5c12.5 3.8 22.2 6.9 29 11.2c5.9 3.7 7.7 7 7.7 11.6c.1 6.6-2.7 10.8-7.8 14c-5.8 3.6-14.5 5.6-23.7 5.3c-11.8-.4-22.7-4.1-36.3-8.7l0 0 0 0 0 0c-2.3-.8-4.7-1.6-7.1-2.4c-8.4-2.8-17.4 1.7-20.2 10.1s1.7 17.4 10.1 20.2c2 .7 4.1 1.4 6.2 2.1l0 0c9.2 3.2 19.7 6.8 30.9 8.9V296c0 8.8 7.2 16 16 16s16-7.2 16-16V278.9c8.7-1.4 17.4-4.3 25.1-9.1c13.3-8.3 23.2-22.2 22.9-41.6c-.2-18.5-10.6-30.6-22.7-38.2c-11-6.9-25-11.2-36.3-14.6l0 0 0 0-.5-.1c-12.6-3.8-22.3-6.8-29.2-10.9c-6-3.6-7.2-6.4-7.3-10.1c0-5.4 2.4-9.4 8.1-12.8c6.2-3.7 15.1-5.7 23.6-5.5c10.1 .2 21 2.3 32.1 5.3c8.5 2.3 17.3-2.8 19.6-11.3s-2.8-17.3-11.3-19.6c-7.5-2-15.6-3.9-24.1-5.1V88z"/></svg>