<svg xmlns="http://www.w3.org/2000/svg" viewBox="0 0 640 512"><!--! Font Awesome Pro 6.4.0 by @fontawesome - https://fontawesome.com License - https://fontawesome.com/license (Commercial License) Copyright 2023 Fonticons, Inc. --><path d="M25.9 3.4C19-2 8.9-.8 3.4 6.1S-.8 23.1 6.1 28.6l608 480c6.9 5.5 17 4.3 22.5-2.6s4.3-17-2.6-22.5L25.9 3.4zM640 320c0-70.7-57.3-128-128-128H480c-8.8 0-16 7.2-16 16s7.2 16 16 16h32c53 0 96 43 96 96c0 24.2-8.9 46.3-23.7 63.1L609.5 403c19-22.3 30.5-51.3 30.5-83zM459.9 448l-40.5-32H335.9c-52.9 0-95.9-42.9-95.9-95.9c0-13.9 3-27.2 8.4-39.2l-25.7-20.3c-9.4 17.8-14.6 38.1-14.6 59.5C208 390.8 265.2 448 335.9 448H459.9zM400 191.9c0 13.9-3 27.2-8.4 39.2l25.7 20.3c9.4-17.8 14.6-38.1 14.6-59.5C432 121.2 374.8 64 304.1 64H180.1l40.5 32h83.5c52.9 0 95.9 42.9 95.9 95.9zm-344.3-63L30.5 109C11.5 131.4 0 160.3 0 192c0 70.7 57.3 128 128 128h32c8.8 0 16-7.2 16-16s-7.2-16-16-16H128c-53 0-96-43-96-96c0-24.2 8.9-46.3 23.7-63.1z"/></svg>