<svg xmlns="http://www.w3.org/2000/svg" viewBox="0 0 576 512"><!--! Font Awesome Pro 6.4.0 by @fontawesome - https://fontawesome.com License - https://fontawesome.com/license (Commercial License) Copyright 2023 Fonticons, Inc. --><path d="M268.2 126.4c11.6 9.2 28.1 9.2 39.7 0C331.2 107.9 354.3 96 376 96c14.3 0 30.9 5.5 49.4 15.7c18.4 10.1 36 23.4 52.6 36.3c18 14 34.5 29 46.5 42.5l23.9-21.3-23.9 21.3C538.3 206 544 216.3 544 224c0 11.4-5.7 25.3-14.7 43.5C519.5 287 505 310 486 332c-38 44-94 84-166 84H256c-72 0-128-40-166-84c-23.7-27.5-43.6-58.4-54.3-90.6C33.3 234 32 228 32 224c0-7.7 5.7-18 19.5-33.5L28.1 169.7l23.4 20.8C63.5 177 80 162 98 148c16.5-12.8 34.2-26.1 52.6-36.3C169.1 101.5 185.7 96 200 96c21.7 0 44.8 11.9 68.2 30.4zM576 224c0-21.1-14.2-39.7-27.6-54.8c-13.6-15.3-31.7-31.7-50.8-46.5C464.5 97 420 64 376 64c-32.7 0-63 17.5-88 37.3C263 81.5 232.7 64 200 64c-44 0-88.5 33-121.6 58.7c-19.1 14.8-37.1 31.2-50.8 46.5C14.2 184.3 0 202.9 0 224c0 9.2 2.6 19.1 5.3 27.5c12.4 37.3 34.9 71.9 60.4 101.4C107.2 400.9 171.3 448 256 448h64c84.7 0 148.8-47.1 190.2-95.1c20.9-24.2 36.8-49.4 47.7-71.1C566.6 264.3 576 244 576 224zm-219.7-7.1c2-.6 3.8-.9 5.4-.9c38.1 .4 66.1 5.6 84.1 11.1c4.7 1.4 8.5 2.9 11.7 4.2c-.4 .4-.9 .9-1.3 1.3c-7.5 7.4-19 16.9-34.3 26.4c-30.5 18.8-75.6 37-133.9 37s-103.4-18.2-133.9-37c-15.3-9.4-26.8-19-34.3-26.4c-.5-.5-.9-.9-1.3-1.3c3.2-1.3 7-2.7 11.7-4.2c18-5.5 46-10.7 84.1-11.1c1.6 0 3.4 .2 5.4 .9c11.6 3.6 44 13.1 68.3 13.1s56.7-9.5 68.3-13.1zm5.7-32.9c-5.4-.1-10.5 .8-15.3 2.3c-12.1 3.8-40 11.7-58.8 11.7s-46.7-7.9-58.8-11.7c-4.7-1.5-9.9-2.4-15.3-2.3c-40.7 .5-71.7 5.9-93.1 12.5c-10.6 3.3-19.2 6.9-25.5 10.6c-3.1 1.8-6.2 3.9-8.7 6.4C85 215.1 80 220.2 80 228c0 3.1 .9 5.5 1.3 6.6c.5 1.3 1.1 2.5 1.6 3.4c1 1.8 2.3 3.6 3.6 5.4c2.7 3.5 6.4 7.7 11 12.1c9.2 9 22.6 20 39.9 30.7C172 307.6 222.8 328 288 328s116-20.4 150.7-41.8c17.3-10.7 30.7-21.7 39.9-30.7c4.6-4.5 8.3-8.6 11-12.2c1.3-1.7 2.6-3.6 3.6-5.4c.5-.9 1.1-2.1 1.6-3.4c.4-1.1 1.3-3.5 1.3-6.6c0-7.8-5-12.9-6.7-14.5c-2.5-2.5-5.6-4.6-8.7-6.4c-6.3-3.7-14.9-7.3-25.5-10.6c-21.4-6.6-52.4-12-93.1-12.5z"/></svg>