<svg xmlns="http://www.w3.org/2000/svg" viewBox="0 0 512 512"><!--! Font Awesome Pro 6.4.0 by @fontawesome - https://fontawesome.com License - https://fontawesome.com/license (Commercial License) Copyright 2023 Fonticons, Inc. --><path d="M32 112H64V80H32v32zM0 72C0 58.7 10.7 48 24 48H72c13.3 0 24 10.7 24 24v48c0 13.3-10.7 24-24 24H64v96h64v-8c0-13.3 10.7-24 24-24h48c13.3 0 24 10.7 24 24v48c0 13.3-10.7 24-24 24H152c-13.3 0-24-10.7-24-24v-8H64V384c0 8.8 7.2 16 16 16h48v-8c0-13.3 10.7-24 24-24h48c13.3 0 24 10.7 24 24v48c0 13.3-10.7 24-24 24H152c-13.3 0-24-10.7-24-24v-8H80c-26.5 0-48-21.5-48-48V256 144H24c-13.3 0-24-10.7-24-24V72zM160 96c0-8.8 7.2-16 16-16H496c8.8 0 16 7.2 16 16s-7.2 16-16 16H176c-8.8 0-16-7.2-16-16zM288 256c0-8.8 7.2-16 16-16H496c8.8 0 16 7.2 16 16s-7.2 16-16 16H304c-8.8 0-16-7.2-16-16zm0 160c0-8.8 7.2-16 16-16H496c8.8 0 16 7.2 16 16s-7.2 16-16 16H304c-8.8 0-16-7.2-16-16zM160 432h32V400H160v32zm0-192v32h32V240H160z"/></svg>