<svg xmlns="http://www.w3.org/2000/svg" viewBox="0 0 512 512"><!--! Font Awesome Pro 6.4.0 by @fontawesome - https://fontawesome.com License - https://fontawesome.com/license (Commercial License) Copyright 2023 Fonticons, Inc. --><path d="M256 0c8.8 0 16 7.2 16 16V64.7c93.3 7.7 167.6 82.1 175.3 175.3H496c8.8 0 16 7.2 16 16s-7.2 16-16 16H447.3c-7.7 93.3-82.1 167.6-175.3 175.3V496c0 8.8-7.2 16-16 16s-16-7.2-16-16V447.3C146.7 439.6 72.4 365.3 64.7 272H16c-8.8 0-16-7.2-16-16s7.2-16 16-16H64.7C72.4 146.7 146.7 72.4 240 64.7V16c0-8.8 7.2-16 16-16zM96 256a160 160 0 1 0 320 0A160 160 0 1 0 96 256zm224 0a64 64 0 1 0 -128 0 64 64 0 1 0 128 0zm-160 0a96 96 0 1 1 192 0 96 96 0 1 1 -192 0z"/></svg>