<svg xmlns="http://www.w3.org/2000/svg" viewBox="0 0 512 512"><!--! Font Awesome Pro 6.4.0 by @fontawesome - https://fontawesome.com License - https://fontawesome.com/license (Commercial License) Copyright 2023 Fonticons, Inc. --><path d="M320 64c53 0 96 43 96 96v37.5c10-3.5 20.8-5.5 32-5.5V160c0-70.7-57.3-128-128-128H192C121.3 32 64 89.3 64 160v32c11.2 0 22 1.9 32 5.5V160c0-53 43-96 96-96H320zM96 320v96 16c0 8.8-7.2 16-16 16H48c-8.8 0-16-7.2-16-16V288c0-17.7 14.3-32 32-32s32 14.3 32 32v32zM80 480c20.9 0 38.7-13.4 45.3-32H386.7c6.6 18.6 24.4 32 45.3 32h32c26.5 0 48-21.5 48-48V288c0-35.3-28.7-64-64-64s-64 28.7-64 64H128c0-35.3-28.7-64-64-64s-64 28.7-64 64V432c0 26.5 21.5 48 48 48H80zm48-64V320H384v96H128zm288 16V416 320 288c0-17.7 14.3-32 32-32s32 14.3 32 32V432c0 8.8-7.2 16-16 16H432c-8.8 0-16-7.2-16-16z"/></svg>