<svg xmlns="http://www.w3.org/2000/svg" viewBox="0 0 576 512"><!--! Font Awesome Pro 6.4.0 by @fontawesome - https://fontawesome.com License - https://fontawesome.com/license (Commercial License) Copyright 2023 Fonticons, Inc. --><path d="M32 208V384c0 17.7 14.3 32 32 32H224c17.7 0 32-14.3 32-32V208c0-61.9-50.1-112-112-112S32 146.1 32 208zm256 0V384c0 11.7-3.1 22.6-8.6 32H512c17.7 0 32-14.3 32-32V208c0-61.9-50.1-112-112-112H234.5c32.6 26.4 53.5 66.8 53.5 112zM64 448c-35.3 0-64-28.7-64-64V208C0 128.5 64.5 64 144 64H432c79.5 0 144 64.5 144 144V384c0 35.3-28.7 64-64 64H224 64zm48-256h64c8.8 0 16 7.2 16 16s-7.2 16-16 16H112c-8.8 0-16-7.2-16-16s7.2-16 16-16zm224 0h96 56c13.3 0 24 10.7 24 24v80c0 13.3-10.7 24-24 24H440c-13.3 0-24-10.7-24-24V224H336c-8.8 0-16-7.2-16-16s7.2-16 16-16zm112 96h32V224H448v64z"/></svg>