<svg xmlns="http://www.w3.org/2000/svg" viewBox="0 0 576 512"><!--! Font Awesome Pro 6.4.0 by @fontawesome - https://fontawesome.com License - https://fontawesome.com/license (Commercial License) Copyright 2023 Fonticons, Inc. --><path d="M170.1 33.1c3.3-1.3 6.9-1.5 10.3-.5L399.1 95.1l144-57.6c15.8-6.3 32.9 5.3 32.9 22.3V394.6c0 9.8-6 18.6-15.1 22.3l-155 62c-3.3 1.3-6.9 1.5-10.3 .5L176.9 416.9l-144 57.6C17.1 480.8 0 469.2 0 452.2V117.4c0-9.8 6-18.6 15.1-22.3l155-62zM32 122.8V440.4l128-51.2V71.6L32 122.8zm352 320V124.1L192 69.2V387.9l192 54.9zm32-2.4l128-51.2V71.6L416 122.8V440.4z"/></svg>