<svg xmlns="http://www.w3.org/2000/svg" viewBox="0 0 512 512"><!--! Font Awesome Pro 6.4.0 by @fontawesome - https://fontawesome.com License - https://fontawesome.com/license (Commercial License) Copyright 2023 Fonticons, Inc. --><path d="M352 16c0 8.8 7.2 16 16 16h73.4l-75.6 75.6C337.1 80.6 298.5 64 256 64C167.6 64 96 135.6 96 224c0 83 63.1 151.2 144 159.2V416H208c-8.8 0-16 7.2-16 16s7.2 16 16 16h32v48c0 8.8 7.2 16 16 16s16-7.2 16-16V448h32c8.8 0 16-7.2 16-16s-7.2-16-16-16H272V383.2c80.9-8 144-76.2 144-159.2c0-34.3-10.8-66.1-29.2-92.2L464 54.6V128c0 8.8 7.2 16 16 16s16-7.2 16-16V16c0-8.8-7.2-16-16-16H368c-8.8 0-16 7.2-16 16zM256 96a128 128 0 1 1 0 256 128 128 0 1 1 0-256z"/></svg>