<svg xmlns="http://www.w3.org/2000/svg" viewBox="0 0 576 512"><!--! Font Awesome Pro 6.4.0 by @fontawesome - https://fontawesome.com License - https://fontawesome.com/license (Commercial License) Copyright 2023 Fonticons, Inc. --><path d="M80.9 150.2C46 180.3 32 222.2 32 272c0 47.9 16.9 83.2 41.9 106.7C99.2 402.4 135 416 176 416h8.4c12.1 0 23.2-6.8 28.6-17.7L236.2 352l28.6 14.3-23.2 46.3c-10.8 21.7-33 35.4-57.2 35.4H176C80 448 0 384 0 272S64 64 288 64s288 96 288 208s-80 176-176 176h-8.4c-24.2 0-46.4-13.7-57.2-35.4l-23.2-46.3c-4.4-8.8-13.3-14.3-23.2-14.3s-18.8 5.5-23.2 14.3L236.2 352c9.8-19.6 29.9-32 51.8-32s42 12.4 51.8 32l23.2 46.3c5.4 10.8 16.5 17.7 28.6 17.7H400c41 0 76.8-13.6 102.1-37.3c25-23.4 41.9-58.7 41.9-106.7c0-49.8-14-91.7-48.9-121.8C459.3 119.3 396.2 96 288 96s-171.3 23.3-207.1 54.2zM160 288a32 32 0 1 0 0-64 32 32 0 1 0 0 64zm0-96a64 64 0 1 1 0 128 64 64 0 1 1 0-128zm288 64a32 32 0 1 0 -64 0 32 32 0 1 0 64 0zm-96 0a64 64 0 1 1 128 0 64 64 0 1 1 -128 0z"/></svg>