<svg xmlns="http://www.w3.org/2000/svg" viewBox="0 0 640 512"><!--! Font Awesome Pro 6.4.0 by @fontawesome - https://fontawesome.com License - https://fontawesome.com/license (Commercial License) Copyright 2023 Fonticons, Inc. --><path d="M256 96V416H64c-17.7 0-32-14.3-32-32V128c0-17.7 14.3-32 32-32H256zm32 0H576c17.7 0 32 14.3 32 32V384c0 17.7-14.3 32-32 32H288V96zM64 64C28.7 64 0 92.7 0 128V384c0 35.3 28.7 64 64 64H576c35.3 0 64-28.7 64-64V128c0-35.3-28.7-64-64-64H64zm112 96c8.8 0 16 7.2 16 16V336c0 8.8-7.2 16-16 16H112c-8.8 0-16-7.2-16-16V176c0-8.8 7.2-16 16-16h64zm-64-32c-26.5 0-48 21.5-48 48V336c0 26.5 21.5 48 48 48h64c26.5 0 48-21.5 48-48V176c0-26.5-21.5-48-48-48H112z"/></svg>