<svg xmlns="http://www.w3.org/2000/svg" viewBox="0 0 576 512"><!--! Font Awesome Pro 6.4.0 by @fontawesome - https://fontawesome.com License - https://fontawesome.com/license (Commercial License) Copyright 2023 Fonticons, Inc. --><path d="M560 32c-8.8 0-16 7.2-16 16V59.5L32 187.5V176c0-8.8-7.2-16-16-16s-16 7.2-16 16v19.5V208v96 12.5V336c0 8.8 7.2 16 16 16s16-7.2 16-16V324.5l131.7 32.9c-2.4 8.4-3.7 17.4-3.7 26.6c0 53 43 96 96 96c46.2 0 84.7-32.6 93.9-76L544 452.5V464c0 8.8 7.2 16 16 16s16-7.2 16-16V440 72 48c0-8.8-7.2-16-16-16zM544 419.5L32 291.5v-71l512-128v327zM192 384c0-6.5 1-12.9 2.8-18.8l124 31C313.1 425.7 287.2 448 256 448c-35.3 0-64-28.7-64-64z"/></svg>