<svg xmlns="http://www.w3.org/2000/svg" viewBox="0 0 640 512"><!--! Font Awesome Pro 6.4.0 by @fontawesome - https://fontawesome.com License - https://fontawesome.com/license (Commercial License) Copyright 2023 Fonticons, Inc. --><path d="M202.7 288H352c17.7 0 32-14.3 32-32V64c0-17.7-14.3-32-32-32H64C46.3 32 32 46.3 32 64V256c0 17.7 14.3 32 32 32H96c17.7 0 32 14.3 32 32v16l55.5-41.6c5.5-4.2 12.3-6.4 19.2-6.4zM352 320H202.7l-81.1 60.8c-4.8 3.6-11.3 4.2-16.8 1.5s-8.8-8.2-8.8-14.3V352 320H64c-35.3 0-64-28.7-64-64V64C0 28.7 28.7 0 64 0H352c35.3 0 64 28.7 64 64V256c0 35.3-28.7 64-64 64zM320 448c-35.3 0-64-28.7-64-64V352h32v32c0 17.7 14.3 32 32 32H437.3c6.9 0 13.7 2.2 19.2 6.4L512 464V448c0-17.7 14.3-32 32-32h32c17.7 0 32-14.3 32-32V192c0-17.7-14.3-32-32-32H448V128H576c35.3 0 64 28.7 64 64V384c0 35.3-28.7 64-64 64H544v32 16c0 6.1-3.4 11.6-8.8 14.3s-11.9 2.1-16.8-1.5L437.3 448H320zM184.3 70.3c-16.4 0-31 10.3-36.4 25.7l-.3 .9c-3 8.3 1.4 17.5 9.7 20.4s17.5-1.4 20.4-9.7l.3-.9c.9-2.7 3.5-4.4 6.3-4.4h41.3c6.5 0 11.7 5.3 11.7 11.7c0 4.2-2.2 8.1-5.9 10.2l-31.4 18c-5 2.9-8 8.1-8 13.9v9.5c0 8.8 7.2 16 16 16s16-7.2 16-16v-.3L247.4 152c13.6-7.8 22-22.3 22-37.9c0-24.2-19.6-43.7-43.7-43.7H184.3zM208 250.7a22.7 22.7 0 1 0 0-45.3 22.7 22.7 0 1 0 0 45.3z"/></svg>