<svg xmlns="http://www.w3.org/2000/svg" viewBox="0 0 512 512"><!--! Font Awesome Pro 6.4.0 by @fontawesome - https://fontawesome.com License - https://fontawesome.com/license (Commercial License) Copyright 2023 Fonticons, Inc. --><path d="M192 416c0-17.7-14.3-32-32-32H64c-17.7 0-32-14.3-32-32V64c0-17.7 14.3-32 32-32H448c17.7 0 32 14.3 32 32V352c0 17.7-14.3 32-32 32H309.3c-6.9 0-13.7 2.2-19.2 6.4L192 464V416zM64 0C28.7 0 0 28.7 0 64V352c0 35.3 28.7 64 64 64h64 32v32 48c0 6.1 3.4 11.6 8.8 14.3s11.9 2.1 16.8-1.5L309.3 416H448c35.3 0 64-28.7 64-64V64c0-35.3-28.7-64-64-64H64zM168.7 121.8l-.2 .7c-2.2 8.5 2.9 17.3 11.4 19.5s17.3-2.9 19.5-11.4l.2-.7c2.8-10.6 12.3-17.9 23.2-17.9H280c17.6 0 32 14.5 32 32.3c0 12.1-6.8 23.2-17.5 28.7l-45.8 23.4c-5.4 2.7-8.7 8.2-8.7 14.3V240c0 8.8 7.2 16 16 16s16-7.2 16-16V220.3l37.1-18.9c21.5-11 34.9-33.2 34.9-57.2C344 109 315.5 80 280 80H222.9c-25.5 0-47.7 17.2-54.2 41.8zM280 304a24 24 0 1 0 -48 0 24 24 0 1 0 48 0z"/></svg>