<svg xmlns="http://www.w3.org/2000/svg" viewBox="0 0 512 512"><!--! Font Awesome Pro 6.4.0 by @fontawesome - https://fontawesome.com License - https://fontawesome.com/license (Commercial License) Copyright 2023 Fonticons, Inc. --><path d="M343.5 128H448c17.7 0 32 14.3 32 32V448c0 17.7-14.3 32-32 32H64c-17.7 0-32-14.3-32-32V160c0-17.7 14.3-32 32-32H168.5c9.5 0 18.5-4.2 24.6-11.5L256 41l62.9 75.5C325 123.8 334 128 343.5 128zM268.3 26.3l0 0L256 16l12.3 10.2s0 0 0 0zM168.5 96H64C28.7 96 0 124.7 0 160V448c0 35.3 28.7 64 64 64H448c35.3 0 64-28.7 64-64V160c0-35.3-28.7-64-64-64H343.5L268.3 5.8C265.3 2.1 260.7 0 256 0s-9.3 2.1-12.3 5.8L168.5 96z"/></svg>