<svg xmlns="http://www.w3.org/2000/svg" viewBox="0 0 512 512"><!--! Font Awesome Pro 6.4.0 by @fontawesome - https://fontawesome.com License - https://fontawesome.com/license (Commercial License) Copyright 2023 Fonticons, Inc. --><path d="M192 416c0-17.7-14.3-32-32-32H64c-17.7 0-32-14.3-32-32V64c0-17.7 14.3-32 32-32H448c17.7 0 32 14.3 32 32V352c0 17.7-14.3 32-32 32H309.3c-6.9 0-13.7 2.2-19.2 6.4L192 464V416zM64 0C28.7 0 0 28.7 0 64V352c0 35.3 28.7 64 64 64h64 32v32 48c0 6.1 3.4 11.6 8.8 14.3s11.9 2.1 16.8-1.5L309.3 416H448c35.3 0 64-28.7 64-64V64c0-35.3-28.7-64-64-64H64zm88 128a24 24 0 1 0 -48 0 24 24 0 1 0 48 0zm135.9 32.1L380.3 288H131.5l44.6-63.8 19 25.4c3 4 7.8 6.4 12.8 6.4s9.8-2.4 12.8-6.4l67.1-89.5zm-25.5-19.4L208 213.3l-6.5-8.7c-6-8-15.4-12.7-25.3-12.7c-10.3 0-20 5-26 13.5l-49.1 70.2c-3.3 4.7-5.1 10.4-5.1 16.2c0 15.6 12.6 28.2 28.2 28.2H387.9c15.5 0 28.1-12.6 28.1-28.1c0-5.9-1.9-11.7-5.3-16.4l-97-134.3c-6-8.3-15.6-13.2-25.8-13.2c-10 0-19.4 4.7-25.5 12.7z"/></svg>