<svg xmlns="http://www.w3.org/2000/svg" viewBox="0 0 384 512"><!--! Font Awesome Pro 6.4.0 by @fontawesome - https://fontawesome.com License - https://fontawesome.com/license (Commercial License) Copyright 2023 Fonticons, Inc. --><path d="M256 160V128H208c-8.8 0-16-7.2-16-16s7.2-16 16-16h48c0-35.3-28.7-64-64-64s-64 28.7-64 64V256c0 35.3 28.7 64 64 64s64-28.7 64-64H208c-8.8 0-16-7.2-16-16s7.2-16 16-16h48V192H208c-8.8 0-16-7.2-16-16s7.2-16 16-16h48zm32 16v64 16c0 53-43 96-96 96s-96-43-96-96V96c0-53 43-96 96-96s96 43 96 96v16 64zM48 192c8.8 0 16 7.2 16 16v48c0 70.7 57.3 128 128 128s128-57.3 128-128V208c0-8.8 7.2-16 16-16s16 7.2 16 16v48c0 83-63.1 151.2-144 159.2V480h64c8.8 0 16 7.2 16 16s-7.2 16-16 16H192 112c-8.8 0-16-7.2-16-16s7.2-16 16-16h64V415.2C95.1 407.2 32 339 32 256V208c0-8.8 7.2-16 16-16z"/></svg>