<svg xmlns="http://www.w3.org/2000/svg" viewBox="0 0 512 512"><!--! Font Awesome Pro 6.4.0 by @fontawesome - https://fontawesome.com License - https://fontawesome.com/license (Commercial License) Copyright 2023 Fonticons, Inc. --><path d="M192 0c-17.7 0-32 14.3-32 32c-17.7 0-32 14.3-32 32V288c0 17.7 14.3 32 32 32h96c17.7 0 32-14.3 32-32V160c88.4 0 160 71.6 160 160s-71.6 160-160 160H208 16c-8.8 0-16 7.2-16 16s7.2 16 16 16H208h80H496c8.8 0 16-7.2 16-16s-7.2-16-16-16H394.2c51.7-34.4 85.8-93.2 85.8-160c0-106-86-192-192-192V64c0-17.7-14.3-32-32-32c0-17.7-14.3-32-32-32H192zm0 32h32V48c0 8.8 7.2 16 16 16h16V288H160V64h16c8.8 0 16-7.2 16-16V32zM160 368c0 8.8 7.2 16 16 16h64c8.8 0 16-7.2 16-16s-7.2-16-16-16H176c-8.8 0-16 7.2-16 16zM96 432c0 8.8 7.2 16 16 16H304c8.8 0 16-7.2 16-16s-7.2-16-16-16H112c-8.8 0-16 7.2-16 16z"/></svg>