<svg xmlns="http://www.w3.org/2000/svg" viewBox="0 0 384 512"><!--! Font Awesome Pro 6.4.0 by @fontawesome - https://fontawesome.com License - https://fontawesome.com/license (Commercial License) Copyright 2023 Fonticons, Inc. --><path d="M287.2 21.1c2.8-8.4-1.7-17.4-10.1-20.2s-17.4 1.7-20.2 10.1L222.7 113.2c-12.3 8.2-22.8 18.9-30.7 31.4C173.6 115.4 141.1 96 104 96c-27.9 0-53.3 11-72 29V112c0-8.8-7.2-16-16-16s-16 7.2-16 16v80H.3c-.2 2.6-.3 5.3-.3 8V432c0 8.8 7.2 16 16 16s16-7.2 16-16V200c0-39.8 32.2-72 72-72s72 32.2 72 72v53.4L96.8 490.9c-2.8 8.4 1.7 17.4 10.1 20.2s17.4-1.7 20.2-10.1L176 354.6V416v16c0 8.8 7.2 16 16 16s16-7.2 16-16V416 258.6l41.2-123.7c9.3-4.4 19.8-6.9 30.8-6.9c39.8 0 72 32.2 72 72V432c0 8.8 7.2 16 16 16s16-7.2 16-16V200c0-57.4-46.6-104-104-104c-6.3 0-12.4 .6-18.3 1.6l25.5-76.6z"/></svg>