<svg xmlns="http://www.w3.org/2000/svg" viewBox="0 0 512 512"><!--! Font Awesome Pro 6.4.0 by @fontawesome - https://fontawesome.com License - https://fontawesome.com/license (Commercial License) Copyright 2023 Fonticons, Inc. --><path d="M507.3 27.3l-108 108 47.1 47.1c6 6 8.4 14.6 6.3 22.8l-.2 .6c-2.7 10.7-12.3 18.2-23.3 18.2H312c-13.3 0-24-10.7-24-24V82.7c0-11 7.5-20.6 18.2-23.3l.6-.2c8.2-2 16.8 .4 22.8 6.3l47.1 47.1 108-108c6.2-6.2 16.4-6.2 22.6 0s6.2 16.4 0 22.6zM4.7 27.3c-6.2-6.2-6.2-16.4 0-22.6s16.4-6.2 22.6 0l108 108 47.1-47.1c6-6 14.6-8.4 22.8-6.3l.6 .2C216.5 62.1 224 71.7 224 82.7V200c0 13.3-10.7 24-24 24H82.7c-11 0-20.6-7.5-23.3-18.2l-.2-.6c-2-8.2 .4-16.8 6.3-22.8l47.1-47.1L4.7 27.3zm502.6 480c-6.2 6.2-16.4 6.2-22.6 0l-108-108-47.1 47.1c-6 6-14.6 8.4-22.8 6.3l-.6-.2c-10.7-2.7-18.2-12.3-18.2-23.3V312c0-13.3 10.7-24 24-24H429.3c11 0 20.6 7.5 23.3 18.2l.2 .6c2 8.2-.4 16.8-6.3 22.8l-47.1 47.1 108 108c6.2 6.2 6.2 16.4 0 22.6zM4.7 484.7l108-108L65.6 329.6c-6-6-8.4-14.6-6.3-22.8l.2-.6C62.1 295.5 71.7 288 82.7 288H200c13.3 0 24 10.7 24 24V429.3c0 11-7.5 20.6-18.2 23.3l-.6 .2c-8.2 2-16.8-.4-22.8-6.3l-47.1-47.1-108 108c-6.2 6.2-16.4 6.2-22.6 0s-6.2-16.4 0-22.6zM410.7 192L320 101.3V192h90.7zM192 101.3L101.3 192H192V101.3zM410.7 320H320v90.7L410.7 320zM192 410.7V320H101.3L192 410.7z"/></svg>