<svg xmlns="http://www.w3.org/2000/svg" viewBox="0 0 640 512"><!--! Font Awesome Pro 6.4.0 by @fontawesome - https://fontawesome.com License - https://fontawesome.com/license (Commercial License) Copyright 2023 Fonticons, Inc. --><path d="M548.7 27.3L585.4 64l-45.3 0H524.6L384 64l-.3 0H96c-35.3 0-64 28.7-64 64V348.1l14.1-14.1L64 316.1V192c53 0 96-43 96-96H524.3h15.8l45.3 0-36.7 36.7c-6.2 6.2-6.2 16.4 0 22.6s16.4 6.2 22.6 0l64-64c3-3 4.7-7.1 4.7-11.3s-1.7-8.3-4.7-11.3l-64-64c-6.2-6.2-16.4-6.2-22.6 0s-6.2 16.4 0 22.6zM128 96c0 35.3-28.7 64-64 64V128c0-17.7 14.3-32 32-32h32zM54.6 448l45.3 0 0 0H544c35.3 0 64-28.7 64-64V163.9l-14.1 14.1L576 195.9V320h0c-53 0-96 43-96 96H256.4l-.4 0L54.6 416l36.7-36.7c6.2-6.2 6.2-16.4 0-22.6s-16.4-6.2-22.6 0l-64 64c-3 3-4.7 7.1-4.7 11.3s1.7 8.3 4.7 11.3l64 64c6.2 6.2 16.4 6.2 22.6 0s6.2-16.4 0-22.6L54.6 448zM576 352h0v32c0 17.7-14.3 32-32 32H512c0-35.3 28.7-64 64-64zM256 256a64 64 0 1 1 128 0 64 64 0 1 1 -128 0zm160 0a96 96 0 1 0 -192 0 96 96 0 1 0 192 0z"/></svg>