<svg xmlns="http://www.w3.org/2000/svg" viewBox="0 0 512 512"><!--! Font Awesome Pro 6.4.0 by @fontawesome - https://fontawesome.com License - https://fontawesome.com/license (Commercial License) Copyright 2023 Fonticons, Inc. --><path d="M224 80v5.3c-18.6-6.6-32-24.4-32-45.3V34.7c18.6 6.6 32 24.4 32 45.3zM160 16V40c0 31.7 18.4 59 45.1 72c-26.7 13-45.1 40.3-45.1 72v24c0 8.8 7.2 16 16 16c44.2 0 80-35.8 80-80v-8V104 80c0-44.2-35.8-80-80-80c-8.8 0-16 7.2-16 16zM48 16c-8.8 0-16 7.2-16 16s7.2 16 16 16h64c8.8 0 16-7.2 16-16s-7.2-16-16-16H48zM16 96c-8.8 0-16 7.2-16 16s7.2 16 16 16H144c8.8 0 16-7.2 16-16s-7.2-16-16-16H16zm16 96c0 8.8 7.2 16 16 16h64c8.8 0 16-7.2 16-16s-7.2-16-16-16H48c-8.8 0-16 7.2-16 16zM336 85.3c-18.6-6.6-32-24.4-32-45.3V34.7c18.6 6.6 32 24.4 32 45.3v5.3zM288 0c-8.8 0-16 7.2-16 16V40c0 31.7 18.4 59 45.1 72c-26.7 13-45.1 40.3-45.1 72v24c0 8.8 7.2 16 16 16c44.2 0 80-35.8 80-80v-8V104 80c0-44.2-35.8-80-80-80zM448 80v5.3c-18.6-6.6-32-24.4-32-45.3V34.7c18.6 6.6 32 24.4 32 45.3zM384 16V40c0 31.7 18.4 59 45.1 72c-26.7 13-45.1 40.3-45.1 72v24c0 8.8 7.2 16 16 16c44.2 0 80-35.8 80-80v-8V104 80c0-44.2-35.8-80-80-80c-8.8 0-16 7.2-16 16zM304 189.3V184c0-20.9 13.4-38.7 32-45.3V144c0 20.9-13.4 38.7-32 45.3zM192 184c0-20.9 13.4-38.7 32-45.3V144c0 20.9-13.4 38.7-32 45.3V184zm224 5.3V184c0-20.9 13.4-38.7 32-45.3V144c0 20.9-13.4 38.7-32 45.3zM480 304v32c-26.5 0-48-21.5-48-48h32c8.8 0 16 7.2 16 16zM32 368c44.2 0 80-35.8 80-80H400c0 44.2 35.8 80 80 80v32c-44.2 0-80 35.8-80 80H112c0-44.2-35.8-80-80-80V368zM432 480c0-26.5 21.5-48 48-48v32c0 8.8-7.2 16-16 16H432zM32 432c26.5 0 48 21.5 48 48H48c-8.8 0-16-7.2-16-16V432zM80 288c0 26.5-21.5 48-48 48V304c0-8.8 7.2-16 16-16H80zM48 256c-26.5 0-48 21.5-48 48V464c0 26.5 21.5 48 48 48H464c26.5 0 48-21.5 48-48V304c0-26.5-21.5-48-48-48H48zM224 384a32 32 0 1 1 64 0 32 32 0 1 1 -64 0zm96 0a64 64 0 1 0 -128 0 64 64 0 1 0 128 0z"/></svg>