<svg xmlns="http://www.w3.org/2000/svg" viewBox="0 0 640 512"><!--! Font Awesome Pro 6.4.0 by @fontawesome - https://fontawesome.com License - https://fontawesome.com/license (Commercial License) Copyright 2023 Fonticons, Inc. --><path d="M64 96H512c17.7 0 32 14.3 32 32v69.6c10.2-4 21.1-5.9 32-5.6V128c0-35.3-28.7-64-64-64H64C28.7 64 0 92.7 0 128V384c0 35.3 28.7 64 64 64H330.2l8-32H64c-17.7 0-32-14.3-32-32V128c0-17.7 14.3-32 32-32zm48 192c-8.8 0-16 7.2-16 16s7.2 16 16 16H368c8.8 0 16-7.2 16-16s-7.2-16-16-16H112zM96 208c0 8.8 7.2 16 16 16H464c8.8 0 16-7.2 16-16s-7.2-16-16-16H112c-8.8 0-16 7.2-16 16zm486.8 56l17.4 17.4c6.2 6.2 6.2 16.4 0 22.6l-24.8 24.8-40-40L560.2 264c6.2-6.2 16.4-6.2 22.6 0zM406.5 417.7L512.7 311.5l40 40L446.4 457.7c-2.1 2.1-4.6 3.5-7.4 4.2l-49 12.3 12.3-49c.7-2.8 2.2-5.4 4.2-7.4zM537.5 241.4L383.8 395.1c-6.2 6.2-10.5 13.9-12.6 22.3l-18.7 74.9c-1.4 5.5 .2 11.2 4.2 15.2s9.7 5.6 15.2 4.2L446.8 493c8.4-2.1 16.1-6.5 22.3-12.6L622.8 326.6c18.7-18.7 18.7-49.1 0-67.9l-17.4-17.4c-18.7-18.7-49.1-18.7-67.9 0z"/></svg>