<svg xmlns="http://www.w3.org/2000/svg" viewBox="0 0 640 512"><!--! Font Awesome Pro 6.4.0 by @fontawesome - https://fontawesome.com License - https://fontawesome.com/license (Commercial License) Copyright 2023 Fonticons, Inc. --><path d="M336 48c0-8.8 7.2-16 16-16h40.9c20.7 0 39 13.2 45.5 32.8l5.2 15.5L500.3 52c5.2-2.6 11-4 16.9-4C532 48 544 60 544 74.9v74.3c0 14.8-12 26.9-26.9 26.9c-5.9 0-11.6-1.4-16.9-4L469 156.4 494.5 233c5.7-.7 11.6-1 17.5-1c41.5 0 79.1 16.6 106.5 43.5c6.3 6.2 6.4 16.3 .2 22.6s-16.3 6.4-22.6 .2C574.4 277.1 544.7 264 512 264c-56.5 0-104 39.1-116.7 91.8c-1.1 4.6-2 9.3-2.5 14.1c-.9 8.1-7.8 14.1-15.9 14.1H336 288 256c0 53-43 96-96 96s-96-43-96-96H32c-17.7 0-32-14.3-32-32V320c0-70.7 57.3-128 128-128h96c17.7 0 32 14.3 32 32v96c0 17.7 14.3 32 32 32h32 16 16 11.4c.3-1.3 .6-2.5 .9-3.8c12.2-50.8 50-91.6 98.9-108.2l-55-165.1c-2.2-6.5-8.3-10.9-15.2-10.9H352c-8.8 0-16-7.2-16-16zm118.7 65.5c.2 .1 .3 .1 .5 .2L512 142.1V81.9l-56.8 28.4c-.4 .2-.9 .4-1.3 .6l.9 2.6zM112 128H240c8.8 0 16 7.2 16 16s-7.2 16-16 16H112c-8.8 0-16-7.2-16-16s7.2-16 16-16zm112 96H128c-53 0-96 43-96 96l0 32H69.5h35.1H215.4h17.1c-5.4-9.4-8.6-20.3-8.6-32V224zM160 448c35.3 0 64-28.7 64-64H96c0 35.3 28.7 64 64 64zm352 0a64 64 0 1 0 0-128 64 64 0 1 0 0 128zm0-160a96 96 0 1 1 0 192 96 96 0 1 1 0-192z"/></svg>