<svg xmlns="http://www.w3.org/2000/svg" viewBox="0 0 640 512"><!--! Font Awesome Pro 6.4.0 by @fontawesome - https://fontawesome.com License - https://fontawesome.com/license (Commercial License) Copyright 2023 Fonticons, Inc. --><path d="M400 0c5 0 9.8 2.4 12.8 6.4c34.7 46.3 78.1 74.9 133.5 111.5l0 0 0 0 0 0c5.2 3.4 10.5 7 16 10.6c28.9 19.2 45.7 51.7 45.7 86.1c0 28.6-11.4 54.5-29.8 73.5c34.3 1.2 61.8 29.3 61.8 64v96c0 35.3-28.7 64-64 64H544 512 464 432 368 336 288 256 224c-35.3 0-64-28.7-64-64V352c0-34.6 27.5-62.8 61.8-64c-18.5-19-29.8-44.9-29.8-73.5c0-34.4 16.7-66.9 45.7-86.1c5.4-3.6 10.8-7.1 16-10.6l0 0 0 0C309.1 81.3 352.5 52.7 387.2 6.4c3-4 7.8-6.4 12.8-6.4zm32 480V424c0-10.1-4.7-19.6-12.8-25.6L400 384l-19.2 14.4c-8.1 6-12.8 15.5-12.8 25.6v56h64zm32 0h48V400c0-8.8 7.2-16 16-16s16 7.2 16 16v80h32c17.7 0 32-14.3 32-32V352c0-17.7-14.3-32-32-32H502.6 400 297.4 224c-17.7 0-32 14.3-32 32v96c0 17.7 14.3 32 32 32h32V400c0-8.8 7.2-16 16-16s16 7.2 16 16v80h48V424c0-20.1 9.5-39.1 25.6-51.2L400 344l38.4 28.8C454.5 384.9 464 403.9 464 424v56zM576 214.6c0-24-11.7-46.3-31.4-59.4c-5.6-3.7-11.1-7.3-16.5-10.9l0 0 0 0 0 0 0 0 0 0 0 0c-48.6-32.1-92.1-60.7-128-102.7c-35.9 41.9-79.4 70.6-128 102.7l0 0c-5.5 3.6-11 7.2-16.6 10.9c-19.7 13.1-31.4 35.4-31.4 59.4c0 40.6 32.9 73.4 73.4 73.4H400 502.6c40.6 0 73.4-32.9 73.4-73.4zM70.4 5.2c5.7-4.3 13.5-4.3 19.2 0l16 12C139.8 42.9 160 83.2 160 126v2 32V272c0 8.8-7.2 16-16 16s-16-7.2-16-16V160H32v16V448c0 17.7 14.3 32 32 32h48c8.8 0 16 7.2 16 16s-7.2 16-16 16H64c-35.3 0-64-28.7-64-64V176 126C0 83.2 20.2 42.9 54.4 17.2l16-12zM32 128h96v-2c0-32.7-15.4-63.6-41.6-83.2L80 38l-6.4 4.8C47.4 62.4 32 93.3 32 126v2z"/></svg>