<svg xmlns="http://www.w3.org/2000/svg" viewBox="0 0 512 512"><!--! Font Awesome Pro 6.4.0 by @fontawesome - https://fontawesome.com License - https://fontawesome.com/license (Commercial License) Copyright 2023 Fonticons, Inc. --><path d="M80 0C71.2 0 64 7.2 64 16c0 24.7 9.8 48.5 27.3 65.9l18.7 18.7C121.5 112.2 128 127.8 128 144c0 8.8 7.2 16 16 16s16-7.2 16-16c0-24.7-9.8-48.5-27.3-65.9L113.9 59.3C102.5 47.8 96 32.2 96 16C96 7.2 88.8 0 80 0zM32 224H336h16V416c0 35.3-28.7 64-64 64H96c-35.3 0-64-28.7-64-64V224zm352 0h16c44.2 0 80 35.8 80 80s-35.8 80-80 80H384V224zm0 192h16c61.9 0 112-50.1 112-112s-50.1-112-112-112H352 336 32c-17.7 0-32 14.3-32 32V416c0 53 43 96 96 96H288c53 0 96-43 96-96zM224 16c0-8.8-7.2-16-16-16s-16 7.2-16 16c0 24.7 9.8 48.5 27.3 65.9l18.7 18.7C249.5 112.2 256 127.8 256 144c0 8.8 7.2 16 16 16s16-7.2 16-16c0-24.7-9.8-48.5-27.3-65.9L241.9 59.3C230.5 47.8 224 32.2 224 16z"/></svg>