<svg xmlns="http://www.w3.org/2000/svg" viewBox="0 0 576 512"><!--! Font Awesome Pro 6.4.0 by @fontawesome - https://fontawesome.com License - https://fontawesome.com/license (Commercial License) Copyright 2023 Fonticons, Inc. --><path d="M144 96H64V352c0 35.3 28.7 64 64 64H320c35.3 0 64-28.7 64-64V272 96H352 176v40.5l36.5 30.4C219.8 173 224 182 224 191.5V256c0 17.7-14.3 32-32 32H128c-17.7 0-32-14.3-32-32V191.5c0-9.5 4.2-18.5 11.5-24.6L144 136.5V96zm16-32H352h32 80c61.9 0 112 50.1 112 112s-50.1 112-112 112H416v64c0 53-43 96-96 96H128c-53 0-96-43-96-96V96c0-17.7 14.3-32 32-32h96zM464 96H416V256h48c44.2 0 80-35.8 80-80s-35.8-80-80-80zM128 256h64V191.5l-32-26.7-32 26.7 0 64.5z"/></svg>