<svg xmlns="http://www.w3.org/2000/svg" viewBox="0 0 512 512"><!--! Font Awesome Pro 6.4.0 by @fontawesome - https://fontawesome.com License - https://fontawesome.com/license (Commercial License) Copyright 2023 Fonticons, Inc. --><path d="M512 23c0-12.7-10.3-23-23-23c-2.3 0-4.6 .3-6.8 1l-311 95.7C164.6 98.8 160 105 160 112V232 372.4C143 359.7 120.6 352 96 352c-53 0-96 35.8-96 80s43 80 96 80s96-35.8 96-80V246.3l288-88.6V308.4c-17-12.7-39.4-20.4-64-20.4c-53 0-96 35.8-96 80s43 80 96 80s96-35.8 96-80V136.4c0-.2 0-.5 0-.7V23zM480 368c0 21.3-22.9 48-64 48s-64-26.7-64-48s22.9-48 64-48s64 26.7 64 48zM160 432c0 21.3-22.9 48-64 48s-64-26.7-64-48s22.9-48 64-48s64 26.7 64 48zM480 124.2L192 212.8v-89L480 35.2v89z"/></svg>