<svg xmlns="http://www.w3.org/2000/svg" viewBox="0 0 640 512"><!--! Font Awesome Pro 6.4.0 by @fontawesome - https://fontawesome.com License - https://fontawesome.com/license (Commercial License) Copyright 2023 Fonticons, Inc. --><path d="M384 64H64C46.3 64 32 78.3 32 96V416c0 17.7 14.3 32 32 32H352c16.6 12.5 35.8 21.8 56.6 27.1c-7.6 3.2-15.9 4.9-24.6 4.9H64c-35.3 0-64-28.7-64-64V96C0 60.7 28.7 32 64 32H384c35.3 0 64 28.7 64 64v64c-11 0-21.7 1.1-32 3.2V96c0-17.7-14.3-32-32-32zm0 64v45.3c-11.4 5-22.2 11.3-32 18.7V128H240v82.7c18.6 6.6 32 24.4 32 45.3c0 26.5-21.5 48-48 48s-48-21.5-48-48c0-20.9 13.4-38.7 32-45.3V128c0-17.7 14.3-32 32-32H352c17.7 0 32 14.3 32 32zM320 416H96c-17.7 0-32-14.3-32-32V128c0-17.7 14.3-32 32-32h48c8.8 0 16 7.2 16 16s-7.2 16-16 16l-48 0V384H301.3c5 11.4 11.3 22.2 18.7 32zM224 240a16 16 0 1 0 0 32 16 16 0 1 0 0-32zM448 416.2a96 96 0 1 0 0-192 96 96 0 1 0 0 192zm0 32c-70.7 0-128-57.3-128-128s57.3-128 128-128s128 57.3 128 128c0 29.6-10 56.8-26.9 78.5l86.2 86.2c6.2 6.2 6.2 16.4 0 22.6s-16.4 6.2-22.6 0l-86.2-86.2c-21.7 16.9-48.9 26.9-78.5 26.9z"/></svg>