<svg xmlns="http://www.w3.org/2000/svg" viewBox="0 0 512 512"><!--! Font Awesome Pro 6.4.0 by @fontawesome - https://fontawesome.com License - https://fontawesome.com/license (Commercial License) Copyright 2023 Fonticons, Inc. --><path d="M384 64H64C46.3 64 32 78.3 32 96V416c0 17.7 14.3 32 32 32H227c-1.6 10.5-2.6 21.2-2.9 32H64c-35.3 0-64-28.7-64-64V96C0 60.7 28.7 32 64 32H384c35.3 0 64 28.7 64 64V227c-10.9 1.7-21.6 4-32 6.9V96c0-17.7-14.3-32-32-32zm0 64V245.3c-11.1 4.8-21.8 10.2-32 16.4V128H240v82.7c18.6 6.6 32 24.4 32 45.3c0 26.5-21.5 48-48 48s-48-21.5-48-48c0-20.9 13.4-38.7 32-45.3V128c0-17.7 14.3-32 32-32H352c17.7 0 32 14.3 32 32zM233.9 416H96c-17.7 0-32-14.3-32-32V128c0-17.7 14.3-32 32-32h48c8.8 0 16 7.2 16 16s-7.2 16-16 16l-48 0V384H245.3c-4.4 10.3-8.2 21-11.3 32zM224 240a16 16 0 1 0 0 32 16 16 0 1 0 0-32zm272 16c8.8 0 16 7.2 16 16s-7.2 16-16 16c-114.9 0-208 93.1-208 208c0 8.8-7.2 16-16 16s-16-7.2-16-16c0-132.5 107.5-240 240-240zM480 448a32 32 0 1 1 0 64 32 32 0 1 1 0-64zm32-80c0 8.8-7.2 16-16 16c-61.9 0-112 50.1-112 112c0 8.8-7.2 16-16 16s-16-7.2-16-16c0-79.5 64.5-144 144-144c8.8 0 16 7.2 16 16z"/></svg>