<svg xmlns="http://www.w3.org/2000/svg" viewBox="0 0 640 512"><!--! Font Awesome Pro 6.4.0 by @fontawesome - https://fontawesome.com License - https://fontawesome.com/license (Commercial License) Copyright 2023 Fonticons, Inc. --><path d="M25.9 3.4C19-2 8.9-.8 3.4 6.1S-.8 23.1 6.1 28.6l608 480c6.9 5.5 17 4.3 22.5-2.6s4.3-17-2.6-22.5L25.9 3.4zM544 351.3V96c0-35.3-28.7-64-64-64H160c-6 0-11.9 .8-17.4 2.4L180.1 64H192h64H480c17.7 0 32 14.3 32 32V326l32 25.3zm-64-50.5V128c0-17.7-14.3-32-32-32H336c-17.7 0-32 14.3-32 32v33.8l32 25.3V128H448V275.5l32 25.3zM378.8 384H192V236.5l-32-25.3V384c0 17.7 14.3 32 32 32H419.4l-40.5-32zM128 186L96 160.7V416c0 35.3 28.7 64 64 64H480c6 0 11.9-.8 17.4-2.4L459.9 448H160c-17.7 0-32-14.3-32-32V186z"/></svg>