<svg xmlns="http://www.w3.org/2000/svg" viewBox="0 0 512 512"><!--! Font Awesome Pro 6.4.0 by @fontawesome - https://fontawesome.com License - https://fontawesome.com/license (Commercial License) Copyright 2023 Fonticons, Inc. --><path d="M192 32H128c-17.7 0-32 14.3-32 32v48h32c8.8 0 16 7.2 16 16s-7.2 16-16 16H96v96h32c8.8 0 16 7.2 16 16s-7.2 16-16 16H96v96h32c8.8 0 16 7.2 16 16s-7.2 16-16 16H96v48c0 17.7 14.3 32 32 32h64V32zm32 448H416c17.7 0 32-14.3 32-32V64c0-17.7-14.3-32-32-32H224V480zm-16 32H128c-35.3 0-64-28.7-64-64V400H16c-8.8 0-16-7.2-16-16s7.2-16 16-16H64V272H16c-8.8 0-16-7.2-16-16s7.2-16 16-16H64V144H16c-8.8 0-16-7.2-16-16s7.2-16 16-16H64V64C64 28.7 92.7 0 128 0h80H416c35.3 0 64 28.7 64 64V448c0 35.3-28.7 64-64 64H208z"/></svg>