<svg xmlns="http://www.w3.org/2000/svg" viewBox="0 0 448 512"><!--! Font Awesome Pro 6.4.0 by @fontawesome - https://fontawesome.com License - https://fontawesome.com/license (Commercial License) Copyright 2023 Fonticons, Inc. --><path d="M384 64c17.7 0 32 14.3 32 32V304H320c-26.5 0-48 21.5-48 48v96H64c-17.7 0-32-14.3-32-32V96c0-17.7 14.3-32 32-32H384zm18.7 272L304 434.7V352c0-8.8 7.2-16 16-16h82.7zM64 32C28.7 32 0 60.7 0 96V416c0 35.3 28.7 64 64 64H277.5c17 0 33.3-6.7 45.3-18.7L429.3 354.7c12-12 18.7-28.3 18.7-45.3V96c0-35.3-28.7-64-64-64H64zm64 344a24 24 0 1 0 -48 0 24 24 0 1 0 48 0zM104 112a24 24 0 1 0 0 48 24 24 0 1 0 0-48zm24 144a24 24 0 1 0 -48 0 24 24 0 1 0 48 0z"/></svg>