<svg xmlns="http://www.w3.org/2000/svg" viewBox="0 0 448 512"><!--! Font Awesome Pro 6.4.0 by @fontawesome - https://fontawesome.com License - https://fontawesome.com/license (Commercial License) Copyright 2023 Fonticons, Inc. --><path d="M384 64c17.7 0 32 14.3 32 32V309.5c0 3.6-.6 7.2-1.8 10.5H336c-26.5 0-48 21.5-48 48v78.2c-3.3 1.2-6.9 1.8-10.5 1.8H64c-17.7 0-32-14.3-32-32V96c0-17.7 14.3-32 32-32H384zm2.7 288L320 418.7V368c0-8.8 7.2-16 16-16h50.7zM64 32C28.7 32 0 60.7 0 96V416c0 35.3 28.7 64 64 64H277.5c17 0 33.3-6.7 45.3-18.7L429.3 354.7c12-12 18.7-28.3 18.7-45.3V96c0-35.3-28.7-64-64-64H64zM176 144v32H144c-17.7 0-32 14.3-32 32v32c0 17.7 14.3 32 32 32h32v32c0 17.7 14.3 32 32 32h32c17.7 0 32-14.3 32-32V272h32c17.7 0 32-14.3 32-32V208c0-17.7-14.3-32-32-32H272V144c0-17.7-14.3-32-32-32H208c-17.7 0-32 14.3-32 32zm64 0v48c0 8.8 7.2 16 16 16h48v32H256c-8.8 0-16 7.2-16 16v48H208V256c0-8.8-7.2-16-16-16H144V208h48c4.2 0 8.3-1.7 11.3-4.7s4.7-7.1 4.7-11.3V144h32z"/></svg>