<svg xmlns="http://www.w3.org/2000/svg" viewBox="0 0 512 512"><!--! Font Awesome Pro 6.4.0 by @fontawesome - https://fontawesome.com License - https://fontawesome.com/license (Commercial License) Copyright 2023 Fonticons, Inc. --><path d="M16 0C7.2 0 0 7.2 0 16s7.2 16 16 16l480 0c8.8 0 16-7.2 16-16s-7.2-16-16-16L16 0zM176 160c8.8 0 16 7.2 16 16l0 288c0 8.8-7.2 16-16 16H112c-8.8 0-16-7.2-16-16l0-288c0-8.8 7.2-16 16-16h64zm-64-32c-26.5 0-48 21.5-48 48l0 288c0 26.5 21.5 48 48 48h64c26.5 0 48-21.5 48-48l0-288c0-26.5-21.5-48-48-48H112zm288 32c8.8 0 16 7.2 16 16l0 160c0 8.8-7.2 16-16 16H336c-8.8 0-16-7.2-16-16l0-160c0-8.8 7.2-16 16-16h64zm-64-32c-26.5 0-48 21.5-48 48l0 160c0 26.5 21.5 48 48 48h64c26.5 0 48-21.5 48-48l0-160c0-26.5-21.5-48-48-48H336z"/></svg>