<svg xmlns="http://www.w3.org/2000/svg" viewBox="0 0 448 512"><!--! Font Awesome Pro 6.4.0 by @fontawesome - https://fontawesome.com License - https://fontawesome.com/license (Commercial License) Copyright 2023 Fonticons, Inc. --><path d="M48 64c-8.8 0-16 7.2-16 16V240c0 8.8 7.2 16 16 16h96c8.8 0 16-7.2 16-16V80c0-8.8-7.2-16-16-16H48zM0 80C0 53.5 21.5 32 48 32h96c26.5 0 48 21.5 48 48V240c0 26.5-21.5 48-48 48H48c-26.5 0-48-21.5-48-48V80zM304 256c-8.8 0-16 7.2-16 16V432c0 8.8 7.2 16 16 16h96c8.8 0 16-7.2 16-16V272c0-8.8-7.2-16-16-16H304zm-48 16c0-26.5 21.5-48 48-48h96c26.5 0 48 21.5 48 48V432c0 26.5-21.5 48-48 48H304c-26.5 0-48-21.5-48-48V272zM144 352H48c-8.8 0-16 7.2-16 16v64c0 8.8 7.2 16 16 16h96c8.8 0 16-7.2 16-16V368c0-8.8-7.2-16-16-16zM48 320h96c26.5 0 48 21.5 48 48v64c0 26.5-21.5 48-48 48H48c-26.5 0-48-21.5-48-48V368c0-26.5 21.5-48 48-48zM304 64c-8.8 0-16 7.2-16 16v64c0 8.8 7.2 16 16 16h96c8.8 0 16-7.2 16-16V80c0-8.8-7.2-16-16-16H304zM256 80c0-26.5 21.5-48 48-48h96c26.5 0 48 21.5 48 48v64c0 26.5-21.5 48-48 48H304c-26.5 0-48-21.5-48-48V80z"/></svg>