<svg xmlns="http://www.w3.org/2000/svg" viewBox="0 0 512 512"><!--! Font Awesome Pro 6.4.0 by @fontawesome - https://fontawesome.com License - https://fontawesome.com/license (Commercial License) Copyright 2023 Fonticons, Inc. --><path d="M64 32H288c17.7 0 32 14.3 32 32v64h32V64c0-35.3-28.7-64-64-64H64C28.7 0 0 28.7 0 64V288c0 35.3 28.7 64 64 64h64V320H64c-17.7 0-32-14.3-32-32V64c0-17.7 14.3-32 32-32zm96 352v64c0 35.3 28.7 64 64 64H448c35.3 0 64-28.7 64-64V224c0-35.3-28.7-64-64-64H384v32h64c17.7 0 32 14.3 32 32V448c0 17.7-14.3 32-32 32H224c-17.7 0-32-14.3-32-32V384H160zm128-32c35.3 0 64-28.7 64-64H320c0 17.7-14.3 32-32 32H256v32h32zm64-160V160H320 288v32h32v64h32V192zM224 352l0-32H192V256H160v64 32h32 32zM160 224h32c0-17.7 14.3-32 32-32h32V160H224c-35.3 0-64 28.7-64 64z"/></svg>