<svg xmlns="http://www.w3.org/2000/svg" viewBox="0 0 512 512"><!--! Font Awesome Pro 6.4.0 by @fontawesome - https://fontawesome.com License - https://fontawesome.com/license (Commercial License) Copyright 2023 Fonticons, Inc. --><path d="M163.2 43.8c7.5-7.5 17.7-11.7 28.3-11.7h129c10.6 0 20.8 4.2 28.3 11.7L468.2 163.2c7.5 7.5 11.7 17.7 11.7 28.3v129c0 10.6-4.2 20.8-11.7 28.3L348.8 468.2c-7.5 7.5-17.7 11.7-28.3 11.7h-129c-10.6 0-20.8-4.2-28.3-11.7L43.8 348.8 21.2 371.4l22.6-22.6c-7.5-7.5-11.7-17.7-11.7-28.3v-129c0-10.6 4.2-20.8 11.7-28.3L163.2 43.8zM.1 320.5c0 19.1 7.6 37.4 21.1 50.9L140.6 490.8c13.5 13.5 31.8 21.1 50.9 21.1h129c19.1 0 37.4-7.6 50.9-21.1L490.8 371.4c13.5-13.5 21.1-31.8 21.1-50.9v-129c0-19.1-7.6-37.4-21.1-50.9L371.4 21.2C357.9 7.7 339.6 .1 320.5 .1h-129c-19.1 0-37.4 7.6-50.9 21.1L21.2 140.6C7.7 154.1 .1 172.4 .1 191.5v129z"/></svg>