<svg xmlns="http://www.w3.org/2000/svg" viewBox="0 0 640 512"><!--! Font Awesome Pro 6.4.0 by @fontawesome - https://fontawesome.com License - https://fontawesome.com/license (Commercial License) Copyright 2023 Fonticons, Inc. --><path d="M336 96c8.8 0 16-7.2 16-16s-7.2-16-16-16H176c-8.8 0-16 7.2-16 16s7.2 16 16 16l64 0v64H128 96 48c-26.5 0-48 21.5-48 48v62.7c0 20 12.4 37.9 31.1 44.9L96 340v28c0 26.5 21.5 48 48 48H403.1c18.4 0 35.8-7.9 48-21.7L633.5 187.7c12.3-13.9-.3-35.4-18.4-31.5L448 192l-50.5-25.2c-8.9-4.4-18.7-6.8-28.6-6.8H272V96l64 0zm97.7 124.6c6.5 3.2 13.9 4.2 21 2.7l129.1-27.7L427.1 373.2c-6.1 6.9-14.8 10.8-24 10.8H144c-8.8 0-16-7.2-16-16V352 317.8 192H368.9c5 0 9.9 1.2 14.3 3.4l50.5 25.2zM96 305.8L42.4 285.7c-6.2-2.3-10.4-8.3-10.4-15V208c0-8.8 7.2-16 16-16H96V305.8z"/></svg>