<svg xmlns="http://www.w3.org/2000/svg" viewBox="0 0 512 512"><!--! Font Awesome Pro 6.4.0 by @fontawesome - https://fontawesome.com License - https://fontawesome.com/license (Commercial License) Copyright 2023 Fonticons, Inc. --><path d="M448 96c17.7 0 32 14.3 32 32V384c0 17.7-14.3 32-32 32H64c-17.7 0-32-14.3-32-32V128c0-17.7 14.3-32 32-32H448zM64 64C28.7 64 0 92.7 0 128V384c0 35.3 28.7 64 64 64H448c35.3 0 64-28.7 64-64V128c0-35.3-28.7-64-64-64H64zm0 272c0 8.8 7.2 16 16 16h64c8.8 0 16-7.2 16-16s-7.2-16-16-16H80c-8.8 0-16 7.2-16 16zm128 0c0 8.8 7.2 16 16 16h64c8.8 0 16-7.2 16-16s-7.2-16-16-16H208c-8.8 0-16 7.2-16 16zM96 160H416v96H96l0-96zm-32 0v96c0 17.7 14.3 32 32 32H416c17.7 0 32-14.3 32-32V160c0-17.7-14.3-32-32-32H96c-17.7 0-32 14.3-32 32z"/></svg>