<svg xmlns="http://www.w3.org/2000/svg" viewBox="0 0 512 512"><!--! Font Awesome Pro 6.4.0 by @fontawesome - https://fontawesome.com License - https://fontawesome.com/license (Commercial License) Copyright 2023 Fonticons, Inc. --><path d="M352 32c17.7 0 32 14.3 32 32V96c0 17.7-14.3 32-32 32H64c-17.7 0-32-14.3-32-32V64c0-17.7 14.3-32 32-32H352zm64 32c0-35.3-28.7-64-64-64H64C28.7 0 0 28.7 0 64V96c0 35.3 28.7 64 64 64H352c35.3 0 64-28.7 64-64V64zM240 352c8.8 0 16 7.2 16 16v96c0 8.8-7.2 16-16 16H208c-8.8 0-16-7.2-16-16V368c0-8.8 7.2-16 16-16h32zm-32-32c-26.5 0-48 21.5-48 48v96c0 26.5 21.5 48 48 48h32c26.5 0 48-21.5 48-48V368c0-26.5-21.5-48-48-48V288c0-17.7 14.3-32 32-32H448c35.3 0 64-28.7 64-64V128c0-35.3-28.7-64-64-64V96c17.7 0 32 14.3 32 32v64c0 17.7-14.3 32-32 32H272c-35.3 0-64 28.7-64 64v32z"/></svg>