<svg xmlns="http://www.w3.org/2000/svg" viewBox="0 0 512 512"><!-- Font Awesome Pro 6.0.0-alpha2 by @fontawesome - https://fontawesome.com License - https://fontawesome.com/license (Commercial License) --><path d="M186.192 297.715C180.633 293.274 173.726 290.479 166.737 290.479C164.917 290.479 163.093 290.666 161.284 291.067C142.302 295.254 124.844 304.513 110.814 318.628C88.414 341.137 78.493 371.522 81.068 401.009C83.322 426.832 64.076 448.007 32.037 448.007C14.343 448.007 0 462.33 0 480.003C0 497.673 14.343 512 32.037 512C32.037 512 60.195 512 85.816 512C140.411 512 218.973 504.432 258.114 465.084C277.352 445.728 286.78 420.619 287.331 395.244C287.554 385.014 283.157 375.186 275.162 368.798L186.192 297.715ZM235.425 442.519C211.729 466.34 157.2 480.001 85.816 480.001L32.037 480.005C57.088 480.005 79.183 470.949 94.254 454.509C108.153 439.343 114.793 419.356 112.949 398.226C111.093 376.971 118.584 356.187 133.513 341.184C142.414 332.229 153.707 325.886 166.272 322.761L255.337 394.548C254.936 412.964 247.862 430.004 235.425 442.519ZM496.907 21.585C486 8.883 470.874 1.289 454.467 0.196C437.763 -1.148 421.902 4.477 409.339 15.773L224.53 181.547C217.623 187.812 211.482 195.155 206.842 202.702C197.153 218.248 192.028 236.435 192.012 255.262C191.997 264.09 199.154 271.261 207.998 271.277H208.013C216.842 271.277 223.999 264.121 224.014 255.293C224.03 242.434 227.483 230.091 234.046 219.545C237.172 214.467 241.328 209.514 245.969 205.295L430.715 39.584C436.747 34.178 444.435 31.507 452.201 32.116C460.108 32.632 467.358 36.303 472.609 42.412C481.406 52.677 482.531 67.895 475.359 79.442L343.6 291.448C334.475 306.134 320.255 316.447 303.567 320.446C294.988 322.524 289.691 331.165 291.753 339.758C293.519 347.086 300.082 352.007 307.301 352.007C308.536 352.007 309.801 351.867 311.067 351.57C335.959 345.57 357.179 330.227 370.79 308.338L502.548 96.332C517.002 73.083 514.69 42.35 496.907 21.585Z"/></svg>