<svg xmlns="http://www.w3.org/2000/svg" viewBox="0 0 640 512"><!--! Font Awesome Pro 6.4.0 by @fontawesome - https://fontawesome.com License - https://fontawesome.com/license (Commercial License) Copyright 2023 Fonticons, Inc. --><path d="M384 64H64C46.3 64 32 78.3 32 96V416c0 17.7 14.3 32 32 32H314.4c6.6 11.4 14.4 22.2 23.2 32H64c-35.3 0-64-28.7-64-64V96C0 60.7 28.7 32 64 32H384c35.3 0 64 28.7 64 64v32.2c-11.1-1-22.6 1.9-32 8.8V96c0-17.7-14.3-32-32-32zM327.2 239.5c-2.3 .4-4.7 .5-7.2 .5H128c-26.5 0-48-21.5-48-48V160c0-26.5 21.5-48 48-48H320c26.5 0 48 21.5 48 48v24.9c-15.5 17.9-29.3 36.3-40.8 54.5zM112 280a24 24 0 1 1 0 48 24 24 0 1 1 0-48zm96 0a24 24 0 1 1 0 48 24 24 0 1 1 0-48zM112 160v32c0 8.8 7.2 16 16 16H320c8.8 0 16-7.2 16-16V160c0-8.8-7.2-16-16-16H128c-8.8 0-16 7.2-16 16zm397.4 93.3c-9.6 .1-18.8-4.1-25-11.5c-12.9-15.5-26.5-30-40.8-43.7c-26.1 25-48 52.3-64 78.1C361.4 305.8 352 334.1 352 352c0 70.3 56.2 127.8 128 127.8c71 0 128-57.6 128-127.8c0-12.8-7-38.2-20.6-64.3c-10.9-21.1-25.4-42.6-41.8-60.5c-3.8 4.4-7.7 9.1-11.6 14c-6 7.5-15.1 12-24.7 12.1zM487.5 197c7.4 7.9 14.5 16 21.5 24.4c6.4-8.1 13.6-16.8 21.2-24.5c1.7-1.7 3.5-3.4 5.2-5c5.6-5.1 14.4-5.1 20 0c24.7 22.7 45.6 52.7 60.4 81.1c14.5 28 24.2 58.8 24.2 79c0 87.8-71.3 159.8-160 159.8c-89.7 0-160-72.1-160-159.8c0-26.4 12.7-60.7 32.4-92.6c20-32.4 48.1-66.1 81.4-95.8c2.8-2.5 6.4-3.8 10-3.7c3.5 0 7 1.3 9.8 3.8c11.8 10.6 23.1 21.7 34 33.4zm-42.5 58.9c4.8 0 9.4 2.2 12.4 6c2.1 2.6 17.6 22.4 32.6 41.5l17.5 22.3 23.3-27.2c3.2-3.7 7.8-5.7 12.7-5.6s9.4 2.5 12.3 6.4c3.9 5.2 6.4 10.3 8.3 14.1l0 .1c21.3 39.3 12.3 90.4-25 116.5l-.3 .2 0 0c-17.5 11.7-36.6 17.7-57.9 17.7c-25.9 0-50.2-8.4-68.2-24.8c-18.2-16.6-28.8-40.5-28.8-69.2c0-15.7 5-29.7 13.4-44.2c8.2-14.1 20.2-29.5 35.1-47.9c3-3.8 7.6-5.9 12.5-5.9zm94.8 81.3l-20.7 24.1c-3.1 3.6-7.7 5.7-12.5 5.6s-9.3-2.4-12.2-6.1l12.6-9.9-12.6 9.9 0 0 0 0 0 0-.1-.2-.5-.6-1.8-2.4-6.6-8.5-20.4-26-20-25.5c-8.6 11-15.1 20.1-19.8 28.2c-6.6 11.3-9.1 19.8-9.1 28.1c0 20.3 7.3 35.4 18.4 45.6c11.3 10.3 27.5 16.4 46.6 16.4c14.7 0 27.6-4 40-12.2c20.1-14.2 27.8-41.8 18.9-66.5z"/></svg>