<svg xmlns="http://www.w3.org/2000/svg" viewBox="0 0 512 512"><!--! Font Awesome Pro 6.4.0 by @fontawesome - https://fontawesome.com License - https://fontawesome.com/license (Commercial License) Copyright 2023 Fonticons, Inc. --><path d="M64 32C46.3 32 32 46.3 32 64V289.6C68.5 297 96 329.3 96 368v16c0 17.7 14.3 32 32 32s32-14.3 32-32V352H144c-17.7 0-32-14.3-32-32V256c0-17.7 14.3-32 32-32h64c17.7 0 32 14.3 32 32v64c0 17.7-14.3 32-32 32H192v32c0 35.3-28.7 64-64 64s-64-28.7-64-64V368c0-20.9-13.4-38.7-32-45.3V448c0 17.7 14.3 32 32 32H448c17.7 0 32-14.3 32-32V64c0-17.7-14.3-32-32-32H64zM0 64C0 28.7 28.7 0 64 0H448c35.3 0 64 28.7 64 64V448c0 35.3-28.7 64-64 64H64c-35.3 0-64-28.7-64-64V64zM112 80h96c8.8 0 16 7.2 16 16s-7.2 16-16 16H112c-8.8 0-16-7.2-16-16s7.2-16 16-16zm192 0h96c8.8 0 16 7.2 16 16s-7.2 16-16 16H304c-8.8 0-16-7.2-16-16s7.2-16 16-16zM112 144h96c8.8 0 16 7.2 16 16s-7.2 16-16 16H112c-8.8 0-16-7.2-16-16s7.2-16 16-16zm192 0h96c8.8 0 16 7.2 16 16s-7.2 16-16 16H304c-8.8 0-16-7.2-16-16s7.2-16 16-16zM208 320V256H144v64h32 32zm112-64V416h64V256H320zm-32 0c0-17.7 14.3-32 32-32h64c17.7 0 32 14.3 32 32V416c0 17.7-14.3 32-32 32H320c-17.7 0-32-14.3-32-32V256z"/></svg>