<svg xmlns="http://www.w3.org/2000/svg" viewBox="0 0 384 512"><!--! Font Awesome Pro 6.4.0 by @fontawesome - https://fontawesome.com License - https://fontawesome.com/license (Commercial License) Copyright 2023 Fonticons, Inc. --><path d="M320 32h16c8.8 0 16-7.2 16-16s-7.2-16-16-16H224 208 176 144C82.1 0 32 50.1 32 112s50.1 112 112 112h48v80c0 8.8 7.2 16 16 16s16-7.2 16-16l0-80V208 32h64V304c0 8.8 7.2 16 16 16s16-7.2 16-16V32zM192 32V192H144c-44.2 0-80-35.8-80-80s35.8-80 80-80h32 16zM122.2 348.3c6.8-5.7 7.7-15.7 2-22.5s-15.7-7.7-22.5-2l-96 80C2.1 406.7 0 411.3 0 416s2.1 9.3 5.8 12.3l96 80c6.8 5.7 16.9 4.7 22.5-2s4.7-16.9-2-22.5L60.2 432H368c8.8 0 16-7.2 16-16s-7.2-16-16-16H60.2l62.1-51.7z"/></svg>