<svg xmlns="http://www.w3.org/2000/svg" viewBox="0 0 512 512"><!--! Font Awesome Pro 6.4.0 by @fontawesome - https://fontawesome.com License - https://fontawesome.com/license (Commercial License) Copyright 2023 Fonticons, Inc. --><path d="M136.5 51.2C138.7 40.2 148.4 32 160 32s21.3 8.2 23.5 19.2C185 58.6 191.6 64 199.2 64H208c8.8 0 16 7.2 16 16V96H96V80c0-8.8 7.2-16 16-16h8.8c7.6 0 14.2-5.4 15.7-12.8zM160 0c-22.3 0-41.6 13.1-50.6 32H64C28.7 32 0 60.7 0 96V384c0 35.3 28.7 64 64 64H192V416H64c-17.7 0-32-14.3-32-32V96c0-17.7 14.3-32 32-32h2.7C65 69 64 74.4 64 80V96c0 17.7 14.3 32 32 32H208c11.5-15.4 28.5-26.4 48-30.4c0-.5 0-1.1 0-1.6V80c0-5.6-1-11-2.7-16H256c17.7 0 32 14.3 32 32h32c0-35.3-28.7-64-64-64H210.6c-9-18.9-28.3-32-50.6-32zM448 480H288c-17.7 0-32-14.3-32-32V192c0-17.7 14.3-32 32-32H396.1c4.2 0 8.3 1.7 11.3 4.7l67.9 67.9c3 3 4.7 7.1 4.7 11.3V448c0 17.7-14.3 32-32 32zm49.9-270.1l-67.9-67.9c-9-9-21.2-14.1-33.9-14.1H288c-35.3 0-64 28.7-64 64V448c0 35.3 28.7 64 64 64H448c35.3 0 64-28.7 64-64V243.9c0-12.7-5.1-24.9-14.1-33.9z"/></svg>