<svg xmlns="http://www.w3.org/2000/svg" viewBox="0 0 448 512"><!--! Font Awesome Pro 6.4.0 by @fontawesome - https://fontawesome.com License - https://fontawesome.com/license (Commercial License) Copyright 2023 Fonticons, Inc. --><path d="M352 32H96C78.3 32 64 46.3 64 64V448H32V64C32 28.7 60.7 0 96 0H352c35.3 0 64 28.7 64 64V448H384V64c0-17.7-14.3-32-32-32zM16 480H432c8.8 0 16 7.2 16 16s-7.2 16-16 16H16c-8.8 0-16-7.2-16-16s7.2-16 16-16zM112 96a16 16 0 1 1 32 0 16 16 0 1 1 -32 0zM320 80a16 16 0 1 1 0 32 16 16 0 1 1 0-32z"/></svg>