<svg xmlns="http://www.w3.org/2000/svg" viewBox="0 0 640 512"><!--! Font Awesome Pro 6.4.0 by @fontawesome - https://fontawesome.com License - https://fontawesome.com/license (Commercial License) Copyright 2023 Fonticons, Inc. --><path d="M128 96a32 32 0 1 0 0-64 32 32 0 1 0 0 64zm0-96a64 64 0 1 1 0 128A64 64 0 1 1 128 0zM105.6 192c-25 0-45.8 19.1-47.8 44l-4.1 49.3C52.1 304 66.8 320 85.6 320h45.2c2.3 6.6 6.1 12.7 11.3 17.9L156.1 352H96V496c0 8.8-7.2 16-16 16s-16-7.2-16-16V348.3c-26.5-9.5-44.7-35.8-42.2-65.6l4.1-49.3C29.3 191.9 64 160 105.6 160h44.8c28.3 0 53.4 14.8 67.7 37.3c-4.3 2.2-8.4 5.1-12 8.8l-12.6 12.6c-7.9-15.9-24.3-26.7-43-26.7H105.6zM160 496V355.9l32 32V496c0 8.8-7.2 16-16 16s-16-7.2-16-16zm288 0V387.9l32-32V496c0 8.8-7.2 16-16 16s-16-7.2-16-16zm96-144H483.9l14.1-14.1c5.2-5.2 9-11.4 11.3-17.9h45.2c18.7 0 33.4-16 31.9-34.7L582.2 236c-2.1-24.9-22.9-44-47.8-44H489.6c-18.7 0-35.1 10.8-43 26.7l-12.6-12.6c-3.6-3.6-7.7-6.5-12-8.8c14.2-22.5 39.3-37.3 67.7-37.3h44.8c41.6 0 76.3 31.9 79.7 73.4l4.1 49.3c2.5 29.8-15.7 56.1-42.2 65.6V496c0 8.8-7.2 16-16 16s-16-7.2-16-16V352zM512 96a32 32 0 1 0 0-64 32 32 0 1 0 0 64zm0-96a64 64 0 1 1 0 128A64 64 0 1 1 512 0zM251.3 251.3L214.6 288H425.4l-36.7-36.7c-6.2-6.2-6.2-16.4 0-22.6s16.4-6.2 22.6 0l64 64c6.2 6.2 6.2 16.4 0 22.6l-64 64c-6.2 6.2-16.4 6.2-22.6 0s-6.2-16.4 0-22.6L425.4 320H214.6l36.7 36.7c6.2 6.2 6.2 16.4 0 22.6s-16.4 6.2-22.6 0l-64-64c-6.2-6.2-6.2-16.4 0-22.6l64-64c6.2-6.2 16.4-6.2 22.6 0s6.2 16.4 0 22.6z"/></svg>