<svg xmlns="http://www.w3.org/2000/svg" viewBox="0 0 640 512"><!--! Font Awesome Pro 6.4.0 by @fontawesome - https://fontawesome.com License - https://fontawesome.com/license (Commercial License) Copyright 2023 Fonticons, Inc. --><path d="M136 56a24 24 0 1 1 48 0 24 24 0 1 1 -48 0zm80 0A56 56 0 1 0 104 56a56 56 0 1 0 112 0zM147.3 160h25.4c6.8 0 13.3 1.4 19.3 4V320H128V164c6-2.6 12.5-4 19.3-4zM128 496V352h64V496c0 8.8 7.2 16 16 16s16-7.2 16-16V202.2l49.9 93.4c4.2 7.8 13.9 10.7 21.7 6.6s10.7-13.9 6.6-21.7L243.3 170.3c-13.9-26-41-42.3-70.6-42.3H147.3c-29.5 0-56.7 16.3-70.6 42.3L17.9 280.5c-4.2 7.8-1.2 17.5 6.6 21.7s17.5 1.2 21.7-6.6L96 202.1V496c0 8.8 7.2 16 16 16s16-7.2 16-16zM456 56a24 24 0 1 1 48 0 24 24 0 1 1 -48 0zm80 0A56 56 0 1 0 424 56a56 56 0 1 0 112 0zM467.3 160h25.4c6.8 0 13.3 1.4 19.3 4V320H448V164c6-2.6 12.5-4 19.3-4zM448 496V352h64V496c0 8.8 7.2 16 16 16s16-7.2 16-16V202.2l49.9 93.4c4.2 7.8 13.9 10.7 21.7 6.6s10.7-13.9 6.6-21.7L563.3 170.3c-13.9-26-41-42.3-70.6-42.3H467.3c-29.5 0-56.6 16.3-70.6 42.3L337.9 280.5c-4.2 7.8-1.2 17.5 6.6 21.7s17.5 1.2 21.7-6.6L416 202.1V496c0 8.8 7.2 16 16 16s16-7.2 16-16z"/></svg>