<svg xmlns="http://www.w3.org/2000/svg" viewBox="0 0 512 512"><!--! Font Awesome Pro 6.4.0 by @fontawesome - https://fontawesome.com License - https://fontawesome.com/license (Commercial License) Copyright 2023 Fonticons, Inc. --><path d="M160 64A32 32 0 1 0 96 64a32 32 0 1 0 64 0zM64 64a64 64 0 1 1 128 0A64 64 0 1 1 64 64zM81.5 215.2L42.4 352H213.6L174.5 215.2C170.6 201.5 158 192 143.7 192H112.3c-14.3 0-26.8 9.5-30.8 23.2zm-30.8-8.8c7.8-27.5 33-46.4 61.5-46.4h31.4c28.6 0 53.7 18.9 61.5 46.4l39.1 136.8c5.8 20.4-9.5 40.8-30.8 40.8H192V496c0 8.8-7.2 16-16 16s-16-7.2-16-16V384H96V496c0 8.8-7.2 16-16 16s-16-7.2-16-16V384H42.4c-21.3 0-36.6-20.3-30.8-40.8L50.7 206.4zM416 64a32 32 0 1 0 -64 0 32 32 0 1 0 64 0zm-96 0a64 64 0 1 1 128 0A64 64 0 1 1 320 64zm17.5 151.2L298.4 352H469.6L430.5 215.2C426.6 201.5 414 192 399.7 192H368.3c-14.3 0-26.8 9.5-30.8 23.2zm-30.8-8.8c7.8-27.5 33-46.4 61.5-46.4h31.4c28.6 0 53.7 18.9 61.5 46.4l39.1 136.8c5.8 20.4-9.5 40.8-30.8 40.8H448V496c0 8.8-7.2 16-16 16s-16-7.2-16-16V384H352V496c0 8.8-7.2 16-16 16s-16-7.2-16-16V384H298.4c-21.3 0-36.6-20.3-30.8-40.8l39.1-136.8z"/></svg>