<svg xmlns="http://www.w3.org/2000/svg" viewBox="0 0 576 512"><!-- Font Awesome Pro 6.0.0-alpha2 by @fontawesome - https://fontawesome.com License - https://fontawesome.com/license (Commercial License) --><path d="M446.77 310.109C448.387 306.199 448.387 301.801 446.77 297.891C445.955 295.922 444.777 294.148 443.293 292.668L379.313 228.688C373.063 222.438 362.938 222.438 356.688 228.688S350.438 245.063 356.688 251.313L393.375 288H182.625L219.312 251.312C225.562 245.062 225.562 234.937 219.312 228.688S202.937 222.438 196.688 228.688L132.707 292.668C131.223 294.148 130.045 295.922 129.23 297.891C127.613 301.801 127.613 306.199 129.23 310.109C130.045 312.078 131.223 313.852 132.707 315.332L196.687 379.312C199.812 382.438 203.906 384 208 384S216.188 382.438 219.312 379.312C225.562 373.062 225.562 362.937 219.312 356.688L182.625 320H393.375L356.687 356.688C350.437 362.938 350.437 373.063 356.687 379.312C359.812 382.438 363.906 384 368 384S376.188 382.438 379.312 379.312L443.293 315.332C444.777 313.852 445.955 312.078 446.77 310.109ZM96 128C131.375 128 160 99.375 160 64S131.375 0 96 0S32 28.625 32 64S60.625 128 96 128ZM96 32C113.645 32 128 46.355 128 64S113.645 96 96 96S64 81.645 64 64S78.355 32 96 32ZM144 384C135.156 384 128 391.156 128 400V496C128 504.844 135.156 512 144 512S160 504.844 160 496V400C160 391.156 152.844 384 144 384ZM137.767 216.292C142.282 223.722 151.941 226.193 159.438 221.828C167.094 217.406 169.719 207.625 165.281 199.969C151.031 175.312 124.469 160 96 160H80C35.817 160 0 195.817 0 240V320C0 337.673 14.327 352 32 352H32V496C32 504.844 39.156 512 48 512S64 504.844 64 496V336C64 327.163 56.837 320 48 320H32V240C32 213.49 53.49 192 80 192L99.27 192C115.712 192 129.228 202.241 137.767 216.292ZM480 128C515.375 128 544 99.375 544 64S515.375 0 480 0S416 28.625 416 64S444.625 128 480 128ZM480 32C497.645 32 512 46.355 512 64S497.645 96 480 96S448 81.645 448 64S462.355 32 480 32ZM432 384C423.156 384 416 391.156 416 400V496C416 504.844 423.156 512 432 512S448 504.844 448 496V400C448 391.156 440.844 384 432 384ZM496 160H480C451.531 160 424.969 175.312 410.719 199.969C406.281 207.625 408.906 217.406 416.562 221.828C424.062 226.241 433.725 223.736 438.238 216.284C446.745 202.236 460.245 192 476.668 192L496 192C522.51 192 544 213.49 544 240V320H528C519.163 320 512 327.163 512 336V496C512 504.844 519.156 512 528 512S544 504.844 544 496V352H544C561.673 352 576 337.673 576 320V240C576 195.817 540.183 160 496 160Z"/></svg>