<svg xmlns="http://www.w3.org/2000/svg" viewBox="0 0 640 512"><!--! Font Awesome Pro 6.4.0 by @fontawesome - https://fontawesome.com License - https://fontawesome.com/license (Commercial License) Copyright 2023 Fonticons, Inc. --><path d="M48 32c-8.8 0-16 7.2-16 16V400c0 8.8 7.2 16 16 16h80l0-70.4c0-70.6 41.2-134.7 105.3-164.1c52.8-24.2 86.7-77 86.7-135.1L320 32 48 32zM352 46.4c0 63.8-33.6 122.3-87.4 154.7L328.1 288l64.5 0c9.3 0 18.2 4.1 24.3 11.2l91.2 106.4 8.9 10.4H592c8.8 0 16-7.2 16-16V48c0-8.8-7.2-16-16-16L352 32V46.4zM367 416H474.9l-82.3-96-51.3 0-54 40.5 93.5 126c5.3 7.1 3.8 17.1-3.3 22.4s-17.1 3.8-22.4-3.3L312.5 448H48c-26.5 0-48-21.5-48-48V48C0 21.5 21.5 0 48 0H592c26.5 0 48 21.5 48 48V400c0 26.5-21.5 48-48 48H390.5L367 416zm-98.7-81.2l35.1-26.3-67.6-92.4c-13.2 7.4-25.1 16.7-35.2 27.5l67.7 91.2zm-87.8-64.6c-13.2 22.4-20.6 48.3-20.6 75.4l0 70.4H288.7L180.6 270.2zM168 136a24 24 0 1 0 -48 0 24 24 0 1 0 48 0zm-80 0a56 56 0 1 1 112 0A56 56 0 1 1 88 136z"/></svg>