<svg xmlns="http://www.w3.org/2000/svg" viewBox="0 0 512 512"><!--! Font Awesome Pro 6.4.0 by @fontawesome - https://fontawesome.com License - https://fontawesome.com/license (Commercial License) Copyright 2023 Fonticons, Inc. --><path d="M176 33.1V46.8H88V44.9l88-11.7zM180.8 .2L76.8 14.1C64.9 15.6 56 25.8 56 37.8V54.8c0 13.3 10.7 24 24 24H184c13.3 0 24-10.7 24-24V24C208 9.5 195.2-1.7 180.8 .2zM352 96.6a32 32 0 1 1 64 0 32 32 0 1 1 -64 0zm96 0a64 64 0 1 0 -128 0 64 64 0 1 0 128 0zM320 256.5c0-17.7 14.3-32 32-32h64c17.7 0 32 14.3 32 32v31.8H320V256.5zm-32 0v31.8c0 17.7 14.3 32 32 32H448c17.7 0 32-14.3 32-32V256.5c0-35.3-28.7-64-64-64H352c-35.3 0-64 28.7-64 64zm-171.5-32H160c17.7 0 32 14.3 32 32v13.2l-75.5-45.2zm44.2 63.8H64V256.5c0-8.2 3.1-15.6 8.1-21.3l88.7 53.1zM96 192.5c-35.3 0-64 28.7-64 64v31.8c0 17.7 14.3 32 32 32H192c17.7 0 32-14.3 32-32V256.5c0-35.3-28.7-64-64-64H96zM64 96.6c0 35.3 28.7 63.9 64 63.9s64-28.6 64-63.9H160c0 17.6-14.3 31.9-32 31.9s-32-14.3-32-31.9H64zm82.6 259.6c-6.6-5.9-16.7-5.3-22.6 1.3s-5.3 16.7 1.3 22.6l40.5 35.9H16c-8.8 0-16 7.2-16 16s7.2 16 16 16H165.9l-40.5 35.9c-6.6 5.9-7.2 16-1.3 22.6s16 7.2 22.6 1.3l72-63.9c3.4-3 5.4-7.4 5.4-12s-2-8.9-5.4-12l-72-63.9zm218.8 0l-72 63.9c-3.4 3-5.4 7.4-5.4 12s2 8.9 5.4 12l72 63.9c6.6 5.9 16.7 5.3 22.6-1.3s5.3-16.7-1.3-22.6l-40.5-35.9H496c8.8 0 16-7.2 16-16s-7.2-16-16-16H346.1l40.5-35.9c6.6-5.9 7.2-16 1.3-22.6s-16-7.2-22.6-1.3z"/></svg>