<svg xmlns="http://www.w3.org/2000/svg" viewBox="0 0 384 512"><!--! Font Awesome Pro 6.4.0 by @fontawesome - https://fontawesome.com License - https://fontawesome.com/license (Commercial License) Copyright 2023 Fonticons, Inc. --><path d="M192 80a24 24 0 1 0 0-48 24 24 0 1 0 0 48zm0-80a56 56 0 1 1 0 112A56 56 0 1 1 192 0zm0 352h48 64 16V320c0-31.1-22.3-57.1-51.7-62.8c-12.9-2.5-23-12.6-25.4-25.5l-6.1-32.5c-4.3-22.7-24.1-39.2-47.2-39.2H176c-26.5 0-48 21.5-48 48V352h16 48zm1.9-223.9c36.6 2 67.5 28.7 74.3 65.1l6.1 32.5c44.3 8.6 77.7 47.5 77.7 94.3v32c0 17.7-14.3 32-32 32H304 256V496c0 8.8-7.2 16-16 16s-16-7.2-16-16V384H192 160V496c0 8.8-7.2 16-16 16s-16-7.2-16-16l0-112c-17.7 0-32-14.3-32-32V232.1L62.1 295.5c-4.2 7.8-13.9 10.7-21.7 6.6s-10.7-13.9-6.6-21.7L88.2 178.8c16.7-31.3 49.2-50.8 84.7-50.8H176h13.6H192c.7 0 1.3 0 1.9 .1z"/></svg>