<svg xmlns="http://www.w3.org/2000/svg" viewBox="0 0 384 512"><!--! Font Awesome Pro 6.4.0 by @fontawesome - https://fontawesome.com License - https://fontawesome.com/license (Commercial License) Copyright 2023 Fonticons, Inc. --><path d="M72.7 32C50.2 32 32 50.2 32 72.7V160H16c-8.8 0-16 7.2-16 16s7.2 16 16 16H32V304 464c0 8.8 7.2 16 16 16s16-7.2 16-16V320H208c74.1 0 135.2-56 143.1-128H368c8.8 0 16-7.2 16-16s-7.2-16-16-16H351.1c-8-72-69-128-143.1-128H72.7zM318.9 160H64V72.7c0-4.8 3.9-8.7 8.7-8.7H208c56.4 0 103.1 41.7 110.9 96zM64 192H318.9c-7.8 54.3-54.4 96-110.9 96H64V192z"/></svg>