<svg xmlns="http://www.w3.org/2000/svg" viewBox="0 0 384 512"><!--! Font Awesome Pro 6.4.0 by @fontawesome - https://fontawesome.com License - https://fontawesome.com/license (Commercial License) Copyright 2023 Fonticons, Inc. --><path d="M71.4 32C49.6 32 32 49.6 32 71.4V128H16c-8.8 0-16 7.2-16 16s7.2 16 16 16H32v64H16c-8.8 0-16 7.2-16 16s7.2 16 16 16H32v80V464c0 8.8 7.2 16 16 16s16-7.2 16-16V352H192c65.6 0 122-39.5 146.7-96H368c8.8 0 16-7.2 16-16s-7.2-16-16-16H348.8c2.1-10.3 3.2-21 3.2-32s-1.1-21.7-3.2-32H368c8.8 0 16-7.2 16-16s-7.2-16-16-16H338.7C314 71.5 257.6 32 192 32H71.4zm231.5 96H64V71.4c0-4.1 3.3-7.4 7.4-7.4H192c47.4 0 88.7 25.7 110.9 64zM64 160H316c2.6 10.2 4 21 4 32s-1.4 21.8-4 32H64V160zm238.9 96c-22.1 38.3-63.5 64-110.9 64H64V256H302.9z"/></svg>