<svg xmlns="http://www.w3.org/2000/svg" viewBox="0 0 512 512"><!--! Font Awesome Pro 6.4.0 by @fontawesome - https://fontawesome.com License - https://fontawesome.com/license (Commercial License) Copyright 2023 Fonticons, Inc. --><path d="M80 64c8.8 0 16 7.2 16 16V432c0 8.8-7.2 16-16 16H48c-8.8 0-16-7.2-16-16V80c0-8.8 7.2-16 16-16H80zM48 32C21.5 32 0 53.5 0 80V432c0 26.5 21.5 48 48 48H80c26.5 0 48-21.5 48-48V80c0-26.5-21.5-48-48-48H48zM448 64c17.7 0 32 14.3 32 32V416c0 17.7-14.3 32-32 32H224c-17.7 0-32-14.3-32-32V96c0-17.7 14.3-32 32-32H448zM224 32c-35.3 0-64 28.7-64 64V416c0 35.3 28.7 64 64 64H448c35.3 0 64-28.7 64-64V96c0-35.3-28.7-64-64-64H224zm32 320a16 16 0 1 1 32 0 16 16 0 1 1 -32 0zm64 0a48 48 0 1 0 -96 0 48 48 0 1 0 96 0zm32-32c0 8.8 7.2 16 16 16h64c8.8 0 16-7.2 16-16s-7.2-16-16-16H368c-8.8 0-16 7.2-16 16zm0 64c0 8.8 7.2 16 16 16h64c8.8 0 16-7.2 16-16s-7.2-16-16-16H368c-8.8 0-16 7.2-16 16zM256 128H416v96H256V128zm-32 0v96c0 17.7 14.3 32 32 32H416c17.7 0 32-14.3 32-32V128c0-17.7-14.3-32-32-32H256c-17.7 0-32 14.3-32 32z"/></svg>