<svg xmlns="http://www.w3.org/2000/svg" viewBox="0 0 576 512"><!--! Font Awesome Pro 6.4.0 by @fontawesome - https://fontawesome.com License - https://fontawesome.com/license (Commercial License) Copyright 2023 Fonticons, Inc. --><path d="M176 32c17.7 0 32 14.3 32 32V368c0 17.7-14.3 32-32 32H144c-17.7 0-32-14.3-32-32V64c0-17.7 14.3-32 32-32h32zM144 0C120.3 0 99.6 12.9 88.6 32H64C28.7 32 0 60.7 0 96V448c0 35.3 28.7 64 64 64H512c35.3 0 64-28.7 64-64V96c0-35.3-28.7-64-64-64H480 320 231.4C220.4 12.9 199.7 0 176 0H144zM288 64v64c0 17.7 14.3 32 32 32H480c17.7 0 32-14.3 32-32V64c17.7 0 32 14.3 32 32V448c0 17.7-14.3 32-32 32H64c-17.7 0-32-14.3-32-32V96c0-17.7 14.3-32 32-32l16 0V368c0 35.3 28.7 64 64 64h32c35.3 0 64-28.7 64-64V64h48zm192 0v64H320V64H480zM352 240a16 16 0 1 1 -32 0 16 16 0 1 1 32 0zm-16-48a48 48 0 1 0 0 96 48 48 0 1 0 0-96zm0 160a16 16 0 1 1 0 32 16 16 0 1 1 0-32zm-48 16a48 48 0 1 0 96 0 48 48 0 1 0 -96 0zM480 240a16 16 0 1 1 -32 0 16 16 0 1 1 32 0zm-16-48a48 48 0 1 0 0 96 48 48 0 1 0 0-96zm0 160a16 16 0 1 1 0 32 16 16 0 1 1 0-32zm-48 16a48 48 0 1 0 96 0 48 48 0 1 0 -96 0z"/></svg>