<svg xmlns="http://www.w3.org/2000/svg" viewBox="0 0 640 512"><!--! Font Awesome Pro 6.4.0 by @fontawesome - https://fontawesome.com License - https://fontawesome.com/license (Commercial License) Copyright 2023 Fonticons, Inc. --><path d="M544 32H224c-17.7 0-32 14.3-32 32V233.4L265.4 160c12.5-12.5 32.8-12.5 45.3 0L352 201.4 457.4 96c12.5-12.5 32.8-12.5 45.3 0l53.8 53.8-33.9 11.3L480 118.6 363.3 235.3 278.6 320H384v32H240h0H224c-35.3 0-64-28.7-64-64V272v0V64c0-35.3 28.7-64 64-64H544c35.3 0 64 28.7 64 64v72c-6.7 0-13.5 1.1-20.2 3.3L576 143.2V64c0-17.7-14.3-32-32-32zM233.4 320l96-96L288 182.6l-96 96V288c0 17.7 14.3 32 32 32h9.4zM232 96a24 24 0 1 1 48 0 24 24 0 1 1 -48 0zM112 96h16v32 80V336v48 32H308.6c-8.3 8.8-15 19.6-18.3 32H128 112 96 64c-35.3 0-64-28.7-64-64V160c0-35.3 28.7-64 64-64H96h16zM32 192H96V128H64c-17.7 0-32 14.3-32 32v32zm0 160v32c0 17.7 14.3 32 32 32H96V352H32zm64-32V224H32v96H96zM640 198.2V248 392c0 1.1-.1 2.2-.3 3.2c.2 1.6 .3 3.2 .3 4.8c0 26.5-28.7 48-64 48s-64-21.5-64-48s28.7-48 64-48c11.7 0 22.6 2.3 32 6.4V270.2L448 323.5V464c0 26.5-28.7 48-64 48s-64-21.5-64-48s28.7-48 64-48c11.7 0 22.6 2.3 32 6.4V312 251.5c0-13.8 8.8-26 21.9-30.4l160-53.3c20.7-6.9 42.1 8.5 42.1 30.4zm-32 38.3V198.2L448 251.5v38.3l160-53.3zm-5.9 171.9c5.5-4.1 5.9-7.4 5.9-8.3s-.4-4.2-5.9-8.3c-5.5-4.1-14.6-7.7-26.1-7.7s-20.5 3.5-26.1 7.7c-5.5 4.1-5.9 7.4-5.9 8.3s.4 4.2 5.9 8.3c5.5 4.1 14.6 7.7 26.1 7.7s20.5-3.5 26.1-7.7zm-192 64c5.5-4.1 5.9-7.4 5.9-8.3s-.4-4.2-5.9-8.3c-5.5-4.1-14.6-7.7-26.1-7.7s-20.5 3.5-26.1 7.7c-5.5 4.1-5.9 7.4-5.9 8.3s.4 4.2 5.9 8.3c5.5 4.1 14.6 7.7 26.1 7.7s20.5-3.5 26.1-7.7z"/></svg>