<svg xmlns="http://www.w3.org/2000/svg" viewBox="0 0 576 512"><!--! Font Awesome Pro 6.4.0 by @fontawesome - https://fontawesome.com License - https://fontawesome.com/license (Commercial License) Copyright 2023 Fonticons, Inc. --><path d="M448 224v64c0 8.8-7.2 16-16 16s-16-7.2-16-16V224h32zM416 333.3V416H304V333.3c18.6-6.6 32-24.4 32-45.3V224h48v64c0 20.9 13.4 38.7 32 45.3zM448 416V333.3c18.6-6.6 32-24.4 32-45.3V224h64V384c0 17.7-14.3 32-32 32H448zm-16 32h80c35.3 0 64-28.7 64-64V224 208 192 128c0-35.3-28.7-64-64-64H64C28.7 64 0 92.7 0 128v64 16 16V384c0 35.3 28.7 64 64 64h80H288 432zM272 416H160V333.3c18.6-6.6 32-24.4 32-45.3V224h48v64c0 20.9 13.4 38.7 32 45.3V416zm-144 0H64c-17.7 0-32-14.3-32-32V224H96v64c0 20.9 13.4 38.7 32 45.3V416zm16-112c-8.8 0-16-7.2-16-16V224h32v64c0 8.8-7.2 16-16 16zm144 0c-8.8 0-16-7.2-16-16V224h32v64c0 8.8-7.2 16-16 16zM464 192H400 320 256 176 112 32V128c0-17.7 14.3-32 32-32H512c17.7 0 32 14.3 32 32v64H464z"/></svg>