<svg xmlns="http://www.w3.org/2000/svg" viewBox="0 0 512 512"><!--! Font Awesome Pro 6.4.0 by @fontawesome - https://fontawesome.com License - https://fontawesome.com/license (Commercial License) Copyright 2023 Fonticons, Inc. --><path d="M432 384v32c0 8.8-7.2 16-16 16s-16-7.2-16-16V384H368v32c0 8.8-7.2 16-16 16s-16-7.2-16-16V384H240v32c0 8.8-7.2 16-16 16s-16-7.2-16-16V384H176v32c0 8.8-7.2 16-16 16s-16-7.2-16-16V384H112v32c0 8.8-7.2 16-16 16s-16-7.2-16-16V384H32v64c0 17.7 14.3 32 32 32H448c17.7 0 32-14.3 32-32V384H432zm-16-32h64V327.6c0-12.1-6.8-23.2-17.7-28.6l-58.4-29.2c-31.8-15.9-51.9-48.4-51.9-84C352 100.8 283.2 32 198.3 32H192C103.6 32 32 103.6 32 192V352H96h64 64H352h64zm96-24.4V352v16 16 64c0 35.3-28.7 64-64 64H64c-35.3 0-64-28.7-64-64V384 368 352 192C0 86 86 0 192 0h6.3C300.8 0 384 83.2 384 185.7c0 23.5 13.2 44.9 34.2 55.4l58.4 29.2c21.7 10.8 35.4 33 35.4 57.2z"/></svg>