<svg xmlns="http://www.w3.org/2000/svg" viewBox="0 0 576 512"><!--! Font Awesome Pro 6.4.0 by @fontawesome - https://fontawesome.com License - https://fontawesome.com/license (Commercial License) Copyright 2023 Fonticons, Inc. --><path d="M288 80c-98.6 0-183.4 59.5-220.3 144.6C64.2 232.6 56 240 44.8 240c-8.8 0-16 7.2-16 16s7.2 16 16 16c26 0 46-9.5 59.3-18.9c6.1-4.3 14.1-4.8 20.7-1.2c1.4 .8 2.8 1.5 4.3 2.3c17 8.8 41.6 17.8 70.8 17.8s53.8-9 70.8-17.8c10.8-5.6 23.6-5.6 34.4 0c17 8.8 41.6 17.8 70.8 17.8s53.8-9 70.8-17.8c1.5-.8 2.9-1.5 4.3-2.3c6.6-3.7 14.7-3.1 20.7 1.2c13.3 9.4 33.3 18.9 59.3 18.9c8.8 0 16-7.2 16-16s-7.2-16-16-16c-11.2 0-19.4-7.4-22.9-15.4C471.4 139.5 386.6 80 288 80zM40 208.2C82.6 113.8 177.6 48 288 48s205.4 65.8 248.1 160.2c24.2 2.4 43.1 22.9 43.1 47.8c0 26.5-21.5 48-48 48c-30.2 0-54.2-9.8-71.3-20.5c-20 10.1-49 20.5-83.9 20.5c-35.8 0-65.4-11-85.5-21.3c-1.6-.8-3.5-.8-5 0C265.4 293 235.8 304 200 304c-34.8 0-63.8-10.4-83.9-20.5C99 294.2 75 304 44.8 304c-26.5 0-48-21.5-48-48c0-24.9 18.9-45.3 43.2-47.8zM58.5 335.4c11.4-.9 22-3 31.8-5.8l21.5 64.4c4.4 13.1 16.6 21.9 30.4 21.9H433.9c13.8 0 26-8.8 30.4-21.9l21.5-64.4c9.8 2.8 20.4 4.8 31.8 5.8l-22.9 68.8c-8.7 26.1-33.2 43.8-60.7 43.8H142.1c-27.5 0-52-17.6-60.7-43.8L58.5 335.4zM206.3 151.2l-16 32c-4 7.9-13.6 11.1-21.5 7.2s-11.1-13.6-7.2-21.5l16-32c4-7.9 13.6-11.1 21.5-7.2s11.1 13.6 7.2 21.5zm192-14.3l16 32c4 7.9 .7 17.5-7.2 21.5s-17.5 .7-21.5-7.2l-16-32c-4-7.9-.7-17.5 7.2-21.5s17.5-.7 21.5 7.2zM304 144v32c0 8.8-7.2 16-16 16s-16-7.2-16-16V144c0-8.8 7.2-16 16-16s16 7.2 16 16z"/></svg>