<svg xmlns="http://www.w3.org/2000/svg" viewBox="0 0 512 512"><!--! Font Awesome Pro 6.4.0 by @fontawesome - https://fontawesome.com License - https://fontawesome.com/license (Commercial License) Copyright 2023 Fonticons, Inc. --><path d="M160 48c0-26.5 21.5-48 48-48s48 21.5 48 48V224H416c53 0 96 43 96 96V464c0 26.5-21.5 48-48 48H432c-26.5 0-48-21.5-48-48V448c0-17.7-14.3-32-32-32H256c-17.7 0-32 14.3-32 32v16c0 26.5-21.5 48-48 48H144c-26.5 0-48-21.5-48-48V225.9L38.9 197.3C15.1 185.4 0 161 0 134.4C0 95.5 31.5 64 70.4 64H160V48zm96 336h96 3.7c10.2 0 20.3 1.9 29.7 5.7l23.1 9.2 36.9-12.3c7.2-2.4 15-2.2 22 .6l12.6 5V342.5c-4.7-.1-9.3-1.2-13.6-3.4l-19.1-9.6-26.7 10.7c-8.5 3.4-18 3-26.2-1.1l-19.1-9.6-26.7 10.7c-8.5 3.4-18 3-26.2-1.1l-19.1-9.6-26.7 10.7c-8.5 3.4-18 3-26.2-1.1l-19.1-9.6-26.7 10.7c-8.5 3.4-18 3-26.2-1.1l-19.1-9.6L128 342v50.3l12.6-5c7-2.8 14.8-3 22-.6L199.5 399l23.1-9.2c9.4-3.8 19.5-5.7 29.7-5.7H256zM128 307.6l19.4-7.8c8.5-3.4 18-3 26.2 1.1l19.1 9.6 26.7-10.7c8.5-3.4 18-3 26.2 1.1l19.1 9.6 26.7-10.7c8.5-3.4 18-3 26.2 1.1l19.1 9.6 26.7-10.7c8.5-3.4 18-3 26.2 1.1l19.1 9.6 26.7-10.7c8.5-3.4 18-3 26.2 1.1l17.6 8.8C474.2 279.3 447.8 256 416 256H240c-3.5 0-6.7-1.1-9.4-3l-19.3 7.7c-7 2.8-14.8 3-22 .6L152.5 249 128 258.8v48.7zM224 48c0-8.8-7.2-16-16-16s-16 7.2-16 16V80c0 8.8-7.2 16-16 16H70.4C49.2 96 32 113.2 32 134.4c0 14.5 8.2 27.8 21.2 34.3l65.9 33c5.4 2.7 8.8 8.3 8.8 14.3v8.4l12.6-5c7-2.8 14.8-3 22-.6L199.5 231l24.5-9.8V48zM128 426.8V464c0 8.8 7.2 16 16 16h32c8.8 0 16-7.2 16-16V448c0-6 .8-11.9 2.4-17.4c-1.7-.3-3.4-.7-5-1.2L152.5 417 128 426.8zm352 0L455.5 417l-36.9 12.3c-1.6 .6-3.3 1-5 1.2c1.6 5.5 2.4 11.4 2.4 17.4v16c0 8.8 7.2 16 16 16h32c8.8 0 16-7.2 16-16V426.8zM152 144a24 24 0 1 1 48 0 24 24 0 1 1 -48 0z"/></svg>