<svg xmlns="http://www.w3.org/2000/svg" viewBox="0 0 576 512"><!--! Font Awesome Pro 6.4.0 by @fontawesome - https://fontawesome.com License - https://fontawesome.com/license (Commercial License) Copyright 2023 Fonticons, Inc. --><path d="M576 256c0-13.4-5.7-25.2-13.3-34.8s-17.7-17.6-28.4-24c-21-12.8-47.3-21.2-68-21.2l-96.9 0-11.1-18.7c15-5.8 25.6-20.3 25.6-37.3V104c0-22.1-17.9-40-40-40H303L274.4 15.7C268.7 6 258.2 0 246.9 0H170.7c-16 0-27.6 15.4-23 30.8l15.2-4.5-15.2 4.5 43 145.2L136 176 97.6 124.8C91.6 116.7 82.1 112 72 112H30c-16.6 0-30 13.4-30 30c0 2.8 .4 5.6 1.2 8.3l21.5 75.1C9.5 229.4 0 241.6 0 256s9.5 26.6 22.6 30.6L1.2 361.7C.4 364.4 0 367.2 0 370c0 16.6 13.4 30 30 30H72c10.1 0 19.6-4.7 25.6-12.8L136 336h54.7l-43 145.2c-4.6 15.4 7 30.8 23 30.8l76.2 0c11.3 0 21.8-6 27.5-15.7L303 448h41c22.1 0 40-17.9 40-40V392c0-17-10.6-31.6-25.6-37.3L369.4 336h96.9c20.6 0 46.8-8.1 67.9-20.8C554.4 303.1 576 282.9 576 256zM341 384h3c4.4 0 8 3.6 8 8v16c0 4.4-3.6 8-8 8H322l19-32zm3-256h-3L322 96h22c4.4 0 8 3.6 8 8v16c0 4.4-3.6 8-8 8zm122.3 80c13.5 0 34.1 6.1 51.3 16.6c8.5 5.2 15.4 10.9 20 16.7c4.6 5.8 6.3 10.7 6.3 14.8c0 9.1-8.2 20.9-26.3 31.8c-17.2 10.3-37.8 16.2-51.4 16.2h-106c-5.7 0-10.9 3-13.8 7.8L246.9 480l-65.5 0 46.1-155.5c1.4-4.8 .5-10.1-2.5-14.1s-7.8-6.4-12.8-6.4L128 304c-5 0-9.8 2.4-12.8 6.4L72 368H32.6L63.4 260.4c.8-2.9 .8-5.9 0-8.8L32.6 144 72 144l43.2 57.6c3 4 7.8 6.4 12.8 6.4l84.1 0c5 0 9.8-2.4 12.8-6.4s4-9.3 2.5-14.1L181.4 32l65.5 0 99.6 168.2c2.9 4.9 8.1 7.8 13.8 7.8l106 0z"/></svg>