<svg xmlns="http://www.w3.org/2000/svg" viewBox="0 0 576 512"><!--! Font Awesome Pro 6.4.0 by @fontawesome - https://fontawesome.com License - https://fontawesome.com/license (Commercial License) Copyright 2023 Fonticons, Inc. --><path d="M270 0c-16 0-29.6 11.9-31.7 27.8L235.6 48H224c-26.5 0-48 21.5-48 48c0 26.1 20.8 47.3 46.8 48l-4.9 37-67.1 9-3.9-27.6C144 142.6 127.1 128 107.2 128H84.8c-19.9 0-36.8 14.6-39.6 34.3l-6.1 42.9C16.3 211.2 0 231.9 0 256s16.3 44.8 39.1 50.8l6.1 42.9C48 369.4 64.9 384 84.8 384h22.4c19.9 0 36.8-14.6 39.6-34.3l3.9-27.6 67.1 9 4.9 37c-26 .6-46.8 21.9-46.8 48c0 26.5 21.5 48 48 48h11.6l2.7 20.2C240.4 500.1 254 512 270 512h36c16 0 29.6-11.9 31.7-27.8l7-52.2H368v32c0 8.8 7.2 16 16 16s16-7.2 16-16V432c8.8 0 16-7.2 16-16s-7.2-16-16-16V368c0-8.8-7.2-16-16-16s-16 7.2-16 16v32H348.9l8.5-64 108.8 0c20.6 0 46.8-8.1 67.9-20.8C554.4 303.1 576 282.9 576 256c0-13.4-5.7-25.2-13.3-34.8s-17.7-17.6-28.4-24c-21-12.8-47.3-21.2-68-21.2H357.5l-8.5-64H368v32c0 8.8 7.2 16 16 16s16-7.2 16-16V112c8.8 0 16-7.2 16-16s-7.2-16-16-16V48c0-8.8-7.2-16-16-16s-16 7.2-16 16V80H344.7l-7-52.2C335.6 11.9 322 0 306 0H270zM224 400h3.1l4.3 32H224c-8.8 0-16-7.2-16-16s7.2-16 16-16zm0-320h7.3l-4.3 32H224c-8.8 0-16-7.2-16-16s7.2-16 16-16zm101.2 96H256c-.7 0-1.4 0-2.1 .1l-3.2 .4L270 32h36l19.2 144zm0 160L306 480H270L250.7 335.4l3.2 .4c.7 .1 1.4 .1 2.1 .1h69.2zM76.9 166.9c.6-3.9 3.9-6.9 7.9-6.9h22.4c4 0 7.4 2.9 7.9 6.9l6.2 43.2c1.2 8.7 9.3 14.8 18 13.6L257.1 208H466.3c13.5 0 34.1 6.1 51.3 16.6c8.5 5.2 15.4 10.9 20 16.7c4.6 5.8 6.3 10.7 6.3 14.8c0 9.1-8.2 20.9-26.3 31.8c-17.2 10.3-37.8 16.2-51.4 16.2l-209.3 0L139.2 288.3c-8.7-1.2-16.7 4.9-18 13.6l-6.2 43.2c-.6 3.9-3.9 6.9-7.9 6.9H84.8c-4 0-7.4-2.9-7.9-6.9l-7.8-54.4c-1-7.1-6.6-12.6-13.7-13.6l-5.6-.7C39.6 275 32 266.3 32 256s7.6-19 17.8-20.4l5.6-.7c7.1-.9 12.7-6.5 13.7-13.6l7.8-54.4z"/></svg>