<svg xmlns="http://www.w3.org/2000/svg" viewBox="0 0 576 512"><!--! Font Awesome Pro 6.4.0 by @fontawesome - https://fontawesome.com License - https://fontawesome.com/license (Commercial License) Copyright 2023 Fonticons, Inc. --><path d="M128 16c0-8.8-7.2-16-16-16s-16 7.2-16 16v96h32V16zm160 0c0-8.8-7.2-16-16-16s-16 7.2-16 16v96h32V16zM16 144c-8.8 0-16 7.2-16 16s7.2 16 16 16H32v64c0 83 63.1 151.2 144 159.2V496c0 8.8 7.2 16 16 16s16-7.2 16-16V399.2c17.3-1.7 33.7-6.2 48.9-12.9c-.6-6-.9-12.1-.9-18.3c0-6 .3-11.8 .9-17.6c-19 11.2-41.2 17.6-64.9 17.6c-70.7 0-128-57.3-128-128V176H320v56.2c9.8-8.1 20.6-15.2 32-21V176h16c8.8 0 16-7.2 16-16s-7.2-16-16-16H352 320 64 32 16zM320 368a112 112 0 1 1 224 0 112 112 0 1 1 -224 0zm256 0a144 144 0 1 0 -288 0 144 144 0 1 0 288 0zm-96.1-81c-4.3-3.7-10.6-4-15.1-.6l-96 72c-4.1 3.1-5.8 8.5-4.2 13.4s6.2 8.2 11.4 8.2h35.6l-30.1 54.2c-2.8 5-1.7 11.1 2.6 14.9s10.6 4 15.1 .6l96-72c4.1-3.1 5.8-8.5 4.2-13.4s-6.2-8.2-11.4-8.2H452.4l30.1-54.2c2.8-5 1.7-11.1-2.6-14.9z"/></svg>