<svg xmlns="http://www.w3.org/2000/svg" viewBox="0 0 384 512"><!--! Font Awesome Pro 6.4.0 by @fontawesome - https://fontawesome.com License - https://fontawesome.com/license (Commercial License) Copyright 2023 Fonticons, Inc. --><path d="M176 208V352c0 8.8 7.2 16 16 16s16-7.2 16-16V208H352c8.8 0 16-7.2 16-16s-7.2-16-16-16H208V32c0-8.8-7.2-16-16-16s-16 7.2-16 16V176H32c-8.8 0-16 7.2-16 16s7.2 16 16 16H176zM16 464c0 8.8 7.2 16 16 16H352c8.8 0 16-7.2 16-16s-7.2-16-16-16H32c-8.8 0-16 7.2-16 16z"/></svg>