<svg xmlns="http://www.w3.org/2000/svg" viewBox="0 0 384 512"><!--! Font Awesome Pro 6.4.0 by @fontawesome - https://fontawesome.com License - https://fontawesome.com/license (Commercial License) Copyright 2023 Fonticons, Inc. --><path d="M208 16c0-8.8-7.2-16-16-16s-16 7.2-16 16V32H96C78.3 32 64 46.3 64 64v.8C45.7 68.5 32 84.6 32 104V480H16c-8.8 0-16 7.2-16 16s7.2 16 16 16H368c8.8 0 16-7.2 16-16s-7.2-16-16-16H352V104c0-19.4-13.7-35.5-32-39.2V64c0-17.7-14.3-32-32-32H208V16zm112 88V480H64V104c0-4.4 3.6-8 8-8h8c8.8 0 16-7.2 16-16V64h96 96V80c0 8.8 7.2 16 16 16h8c4.4 0 8 3.6 8 8zM112 328V280h48v48H112zM88 272v64c0 8.8 7.2 16 16 16h64c8.8 0 16-7.2 16-16V272c0-8.8-7.2-16-16-16H104c-8.8 0-16 7.2-16 16zm24-120h20v20H112V152zm28 0h20v20H140V152zm0 28h20v20H140V180zm-8 20H112V180h20v20zm-28-72c-8.8 0-16 7.2-16 16v64c0 8.8 7.2 16 16 16h64c8.8 0 16-7.2 16-16V144c0-8.8-7.2-16-16-16H104zm120 72V180h20v20H224zm28 0V180h20v20H252zm0-28V152h20v20H252zm-8-20v20H224V152h20zm-44-8v64c0 8.8 7.2 16 16 16h64c8.8 0 16-7.2 16-16V144c0-8.8-7.2-16-16-16H216c-8.8 0-16 7.2-16 16z"/></svg>