<svg xmlns="http://www.w3.org/2000/svg" viewBox="0 0 448 512"><!-- Font Awesome Pro 6.0.0-alpha2 by @fontawesome - https://fontawesome.com License - https://fontawesome.com/license (Commercial License) --><path d="M392.875 197.75C393 195.875 393.125 194 393.125 192C393.125 156 370.25 125.25 338.25 112.75V112C338.25 50.25 287 0 224 0C217.5 0 211.625 0.75 206.25 1.625C195.125 3.25 185.75 10.75 181.5 21S178.75 43.25 185.25 52.25C188.375 56.25 192 63.125 192 71.875C192 91 175.625 106.625 155.375 106.625H141.75C93.75 106.625 54.75 144.875 54.75 191.875C54.75 193.75 54.875 195.75 55 197.75C22.375 214.25 0 247.625 0 285.25C0 338.25 42.75 381.693 96 384.068V384C104.836 384 112 376.838 112 368C112 359.164 104.836 352 96 352C60.424 349.738 32 320.459 32 285.25C32 250.5 59.875 222 95 219.25C90 211.25 86.75 202 86.75 192C86.75 162.5 111.375 138.75 141.75 138.75H155.375C193.25 138.75 224 108.875 224 72C224 57.5 219.125 44.25 211.125 33.25C215.25 32.75 219.625 32 224 32C269.375 32 306.25 67.75 306.25 112C306.25 121.375 304.25 130.25 301.25 138.75H306.25C336.625 138.75 361.25 162.625 361.25 192C361.25 202.125 358 211.25 353 219.25C388.125 222 416 250.5 416 285.25C416 318.75 385.125 347.25 352 352C343.164 352 336 359.162 336 368C336 376.836 343.164 384 352 384C405.312 381.572 448 338.195 448 285.25C448 247.625 425.625 214.25 392.875 197.75ZM288 352H195.25L284.031 250.531C289.875 243.875 289.188 233.781 282.531 227.969C275.938 222.188 265.813 222.781 259.969 229.469L147.969 357.469C143.813 362.188 142.844 368.906 145.438 374.625S153.719 384 160 384H252.75L163.969 485.469C158.125 492.125 158.812 502.219 165.469 508.031C168.5 510.688 172.25 512 176 512C180.438 512 184.875 510.156 188.031 506.531L300.031 378.531C304.188 373.813 305.156 367.094 302.563 361.375S294.281 352 288 352Z"/></svg>