<svg xmlns="http://www.w3.org/2000/svg" viewBox="0 0 320 512"><!--! Font Awesome Pro 6.4.0 by @fontawesome - https://fontawesome.com License - https://fontawesome.com/license (Commercial License) Copyright 2023 Fonticons, Inc. --><path d="M288 160c0-70.7-57.3-128-128-128S32 89.3 32 160V336c0 8.8 7.2 16 16 16h96V192c0-8.8 7.2-16 16-16s16 7.2 16 16V352h96c8.8 0 16-7.2 16-16V160zM144 384H48c-26.5 0-48-21.5-48-48V160C0 71.6 71.6 0 160 0s160 71.6 160 160V336c0 26.5-21.5 48-48 48H176V496c0 8.8-7.2 16-16 16s-16-7.2-16-16V384z"/></svg>