<svg xmlns="http://www.w3.org/2000/svg" viewBox="0 0 448 512"><!--! Font Awesome Pro 6.4.0 by @fontawesome - https://fontawesome.com License - https://fontawesome.com/license (Commercial License) Copyright 2023 Fonticons, Inc. --><path d="M31.1 0C13.9 0 0 13.9 0 31.1V208v96c0 8.8 7.2 16 16 16s16-7.2 16-16V224H137.4l128 128L132.7 484.7c-6.2 6.2-6.2 16.4 0 22.6s16.4 6.2 22.6 0L288 374.6 420.7 507.3c6.2 6.2 16.4 6.2 22.6 0s6.2-16.4 0-22.6L310.6 352 443.3 219.3c6.2-6.2 6.2-16.4 0-22.6s-16.4-6.2-22.6 0L288 329.4 182.4 223.8C241.3 220.5 288 171.7 288 112C288 50.1 237.9 0 176 0H31.1zM144 192s0 0 0 0H32V32H176c44.2 0 80 35.8 80 80s-35.8 80-80 80H144z"/></svg>