<svg xmlns="http://www.w3.org/2000/svg" viewBox="0 0 640 512"><!--! Font Awesome Pro 6.4.0 by @fontawesome - https://fontawesome.com License - https://fontawesome.com/license (Commercial License) Copyright 2023 Fonticons, Inc. --><path d="M76.9 0c-8.8 0-16 7.2-16 16s7.2 16 16 16H96V208H32V192c0-8.8-7.2-16-16-16s-16 7.2-16 16v32V384v32c0 8.8 7.2 16 16 16s16-7.2 16-16V400H320V368H32V240h80c8.8 0 16-7.2 16-16V32H256V224c0 8.8 7.2 16 16 16h48V208H288V32h16c8.8 0 16-7.2 16-16s-7.2-16-16-16H272 112 76.9zM449.6 133.4c5.3-3.5 11.4-5.4 17.8-5.4H576c17.7 0 32 14.3 32 32V448c0 17.7-14.3 32-32 32H467.4c-6.3 0-12.5-1.9-17.8-5.4l-51.4-34.3c-8.9-5.9-14.2-15.9-14.2-26.6V194.3c0-10.7 5.3-20.7 14.2-26.6l51.4-34.3zM431.9 501.3c10.5 7 22.9 10.7 35.5 10.7H576c35.3 0 64-28.7 64-64V160c0-35.3-28.7-64-64-64H467.4c-12.6 0-25 3.7-35.5 10.7L380.5 141c-17.8 11.9-28.5 31.9-28.5 53.3V413.7c0 21.4 10.7 41.4 28.5 53.3l51.4 34.3zM448 224c0 8.8 7.2 16 16 16h80c8.8 0 16-7.2 16-16s-7.2-16-16-16H464c-8.8 0-16 7.2-16 16zm0 80c0 8.8 7.2 16 16 16h80c8.8 0 16-7.2 16-16s-7.2-16-16-16H464c-8.8 0-16 7.2-16 16zm0 80c0 8.8 7.2 16 16 16h80c8.8 0 16-7.2 16-16s-7.2-16-16-16H464c-8.8 0-16 7.2-16 16z"/></svg>