<svg xmlns="http://www.w3.org/2000/svg" viewBox="0 0 512 512"><!--! Font Awesome Pro 6.4.0 by @fontawesome - https://fontawesome.com License - https://fontawesome.com/license (Commercial License) Copyright 2023 Fonticons, Inc. --><path d="M62 333.2l-12.8 9.6L62 333.2zM178.8 450l-9.6 12.8 9.6-12.8zM414 242.8l-12.8-9.6 12.8 9.6zm-352 0l-12.8-9.6L62 242.8zM304 64c0-19.4-10.5-35.8-25.1-46.7S244.8 0 224 0V32c14.5 0 27.1 4.4 35.7 10.9S272 56.9 272 64h32zm-25.3 46.8C293.4 99.9 304 83.5 304 64H272c0 7.1-3.8 14.8-12.4 21.2l19.2 25.6zM336 128H279.2v32H336V128zm48 104.8V176H352v56.8h32zM448 208c-19.5 0-35.9 10.6-46.8 25.3l25.6 19.2c6.4-8.6 14.1-12.4 21.2-12.4V208zm64 80c0-20.8-6.3-40.2-17.3-54.9s-27.3-25.1-46.7-25.1v32c7.1 0 14.7 3.8 21.1 12.3s10.9 21.1 10.9 35.7h32zm-64 80c19.4 0 35.8-10.5 46.7-25.1s17.3-34.1 17.3-54.9H480c0 14.5-4.4 27.1-10.9 35.7s-14.1 12.3-21.1 12.3v32zm-46.8-25.3c11 14.7 27.4 25.3 46.8 25.3V336c-7.1 0-14.8-3.8-21.2-12.4l-25.6 19.2zM384 464V343.2H352V464h32zM279.2 512H336V480H279.2v32zM272 416c0 7.1-3.8 14.8-12.4 21.2l19.2 25.6c14.7-11 25.3-27.4 25.3-46.8H272zm-48-32c14.5 0 27.1 4.4 35.7 10.9s12.3 14.1 12.3 21.1h32c0-19.4-10.5-35.8-25.1-46.7s-34.1-17.3-54.9-17.3v32zm-48 32c0-7.1 3.8-14.7 12.3-21.1s21.1-10.9 35.7-10.9V352c-20.8 0-40.2 6.3-54.9 17.3s-25.1 27.3-25.1 46.7h32zm12.4 21.2c-8.6-6.4-12.4-14.1-12.4-21.2H144c0 19.5 10.6 35.9 25.3 46.8l19.2-25.6zM48 512H168.8V480H48v32zM0 343.2V464H32V343.2H0zM96 336c-7.1 0-14.8-3.8-21.2-12.4L49.2 342.7C60.1 357.4 76.5 368 96 368V336zm32-48c0 14.5-4.4 27.1-10.9 35.7S103.1 336 96 336v32c19.4 0 35.8-10.5 46.7-25.1s17.3-34.1 17.3-54.9H128zM96 240c7.1 0 14.7 3.8 21.1 12.3s10.9 21.1 10.9 35.7h32c0-20.8-6.3-40.2-17.3-54.9S115.4 208 96 208v32zM74.8 252.4C81.2 243.8 88.9 240 96 240V208c-19.5 0-35.9 10.6-46.8 25.3l25.6 19.2zM0 176v56.8H32V176H0zm168.8-48H48v32H168.8V128zM144 64c0 19.5 10.6 35.9 25.3 46.8l19.2-25.6C179.8 78.8 176 71.1 176 64H144zM224 0c-20.8 0-40.2 6.3-54.9 17.3S144 44.6 144 64h32c0-7.1 3.8-14.7 12.3-21.1S209.5 32 224 32V0zM208 120.8c0-16.2-9.9-28.4-19.6-35.6l-19.2 25.6c5.2 3.8 6.7 7.7 6.7 10h32zM39.2 336c2.3 0 6.1 1.6 10 6.7l25.6-19.2C67.6 313.9 55.4 304 39.2 304v32zM32 343.2c0-4 3.2-7.2 7.2-7.2V304C17.5 304 0 321.5 0 343.2H32zM48 480c-8.8 0-16-7.2-16-16H0c0 26.5 21.5 48 48 48V480zm128-7.2c0 4-3.2 7.2-7.2 7.2v32c21.6 0 39.2-17.5 39.2-39.2H176zm-6.7-10c5.2 3.8 6.7 7.7 6.7 10h32c0-16.2-9.9-28.4-19.6-35.6l-19.2 25.6zM352 464c0 8.8-7.2 16-16 16v32c26.5 0 48-21.5 48-48H352zm39.2-160c-21.7 0-39.2 17.5-39.2 39.2h32c0-4 3.2-7.2 7.2-7.2V304zm35.6 19.6c-7.2-9.7-19.4-19.6-35.6-19.6v32c2.3 0 6.1 1.6 10 6.7l25.6-19.2zM168.8 160c21.6 0 39.2-17.5 39.2-39.2H176c0 4-3.2 7.2-7.2 7.2v32zM391.2 272c16.2 0 28.4-9.9 35.6-19.6l-25.6-19.2c-3.8 5.2-7.7 6.7-10 6.7v32zM32 176c0-8.8 7.2-16 16-16V128c-26.5 0-48 21.5-48 48H32zm320 56.8c0 21.6 17.5 39.2 39.2 39.2V240c-4 0-7.2-3.2-7.2-7.2H352zM39.2 240c-4 0-7.2-3.2-7.2-7.2H0C0 254.5 17.5 272 39.2 272V240zM336 160c8.8 0 16 7.2 16 16h32c0-26.5-21.5-48-48-48v32zM272 472.8c0-2.3 1.6-6.1 6.7-10l-19.2-25.6c-9.7 7.2-19.6 19.4-19.6 35.6h32zM49.2 233.3c-3.8 5.2-7.7 6.7-10 6.7v32c16.2 0 28.4-9.9 35.6-19.6L49.2 233.3zM240 120.8c0 21.6 17.5 39.2 39.2 39.2V128c-4 0-7.2-3.2-7.2-7.2H240zM279.2 480c-4 0-7.2-3.2-7.2-7.2H240c0 21.7 17.5 39.2 39.2 39.2V480zM259.6 85.2c-9.7 7.2-19.6 19.4-19.6 35.6h32c0-2.3 1.6-6.1 6.7-10L259.6 85.2z"/></svg>