<svg xmlns="http://www.w3.org/2000/svg" viewBox="0 0 640 512"><!--! Font Awesome Pro 6.4.0 by @fontawesome - https://fontawesome.com License - https://fontawesome.com/license (Commercial License) Copyright 2023 Fonticons, Inc. --><path d="M98 301.2l-12.8-9.6L98 301.2zM280.3 403.9l-9.1 13.2 9.1-13.2zm79.4 0l9.1 13.2-9.1-13.2zM542 301.2l-12.8 9.6 12.8-9.6zm0-90.3l-12.8-9.6 12.8 9.6zm-444 0l-12.8 9.6L98 210.8zM280.3 108.1l9.1 13.2-9.1-13.2zm79.4 0l-9.1 13.2 9.1-13.2zM271.2 94.9C252.7 107.7 240 128.2 240 152h32c0-11.8 6.3-23.1 17.4-30.8L271.2 94.9zM240 152c0 41.7 37.9 72 80 72V192c-28.6 0-48-19.8-48-40H240zm80 72c42.1 0 80-30.3 80-72H368c0 20.2-19.4 40-48 40v32zm80-72c0-23.8-12.7-44.3-31.2-57.1l-18.2 26.3c11.2 7.7 17.4 19 17.4 30.8h32zM366.6 96H464V64H366.6V96zM480 112v88.8h32V112H480zm74.8 108.4c6.4-8.6 14.1-12.4 21.2-12.4V176c-19.5 0-35.9 10.6-46.8 25.3l25.6 19.2zM576 208c7.1 0 14.7 3.8 21.1 12.3s10.9 21.1 10.9 35.7h32c0-20.8-6.3-40.2-17.3-54.9s-27.3-25.1-46.7-25.1v32zm32 48c0 14.5-4.4 27.1-10.9 35.7s-14.1 12.3-21.1 12.3v32c19.4 0 35.8-10.5 46.7-25.1s17.3-34.1 17.3-54.9H608zm-32 48c-7.1 0-14.8-3.8-21.2-12.4l-25.6 19.2c11 14.7 27.4 25.3 46.8 25.3V304zm-96 7.2V400h32V311.2H480zM464 416H366.6v32H464V416zm-95.2 1.1C387.3 404.3 400 383.8 400 360H368c0 11.8-6.3 23.1-17.4 30.8l18.2 26.3zM400 360c0-41.7-37.9-72-80-72v32c28.6 0 48 19.8 48 40h32zm-80-72c-42.1 0-80 30.3-80 72h32c0-20.2 19.4-40 48-40V288zm-80 72c0 23.8 12.7 44.3 31.2 57.1l18.2-26.3c-11.2-7.7-17.4-19-17.4-30.8H240zm33.5 56H176v32h97.5V416zM160 400V311.2H128V400h32zM85.2 291.6C78.8 300.2 71.1 304 64 304v32c19.5 0 35.9-10.6 46.8-25.3L85.2 291.6zM64 304c-7.1 0-14.7-3.8-21.1-12.3S32 270.5 32 256H0c0 20.8 6.3 40.2 17.3 54.9S44.6 336 64 336V304zM32 256c0-14.5 4.4-27.1 10.9-35.7S56.9 208 64 208V176c-19.4 0-35.8 10.5-46.7 25.1S0 235.2 0 256H32zm32-48c7.1 0 14.8 3.8 21.2 12.4l25.6-19.2C99.9 186.6 83.5 176 64 176v32zm96-7.2V112H128v88.8h32zM176 96h97.5V64H176V96zM120.8 272c-16.2 0-28.4 9.9-35.6 19.6l25.6 19.2c3.8-5.2 7.7-6.7 10-6.7V272zM272 417.4c0-.8 .6-1.4 1.5-1.4v32c16.9 0 30.5-13.7 30.5-30.6H272zm-.8-.4c.2 .2 .4 .3 .6 .5s.2 .3 .3 .3s0 0 0 0s-.1-.3-.1-.4h32c0-11.9-6.8-21.3-14.6-26.7l-18.2 26.3zm96.8 .4c0 .2 0 .3-.1 .4s0 .1 0 0s.1-.2 .3-.3s.3-.3 .6-.5l-18.2-26.3c-7.8 5.4-14.6 14.8-14.6 26.7h32zM480 400c0 8.8-7.2 16-16 16v32c26.5 0 48-21.5 48-48H480zm39.2-128c-21.7 0-39.2 17.5-39.2 39.2h32c0-4 3.2-7.2 7.2-7.2V272zm35.6 19.6c-7.2-9.7-19.4-19.6-35.6-19.6v32c2.3 0 6.1 1.6 10 6.7l25.6-19.2zM519.2 240c16.2 0 28.4-9.9 35.6-19.6l-25.6-19.2c-3.8 5.2-7.7 6.7-10 6.7v32zM160 112c0-8.8 7.2-16 16-16V64c-26.5 0-48 21.5-48 48h32zm320 88.8c0 21.6 17.5 39.2 39.2 39.2V208c-4 0-7.2-3.2-7.2-7.2H480zM120.8 240c21.6 0 39.2-17.5 39.2-39.2H128c0 4-3.2 7.2-7.2 7.2v32zM464 96c8.8 0 16 7.2 16 16h32c0-26.5-21.5-48-48-48V96zM85.2 220.4c7.2 9.7 19.4 19.6 35.6 19.6V208c-2.3 0-6.1-1.6-10-6.7L85.2 220.4zM368 94.5c0 .8-.6 1.5-1.4 1.5V64C349.7 64 336 77.7 336 94.5h32zM160 311.2c0-21.6-17.5-39.2-39.2-39.2v32c4 0 7.2 3.2 7.2 7.2h32zM272 94.5c0-.2 0-.3 .1-.4s0-.1 0 0s-.1 .2-.3 .3s-.3 .3-.6 .5l18.2 26.3c7.8-5.4 14.6-14.8 14.6-26.7H272zM366.6 416c.8 0 1.4 .6 1.4 1.4H336c0 16.9 13.7 30.6 30.6 30.6V416zm2.2-321.1c-.2-.2-.4-.3-.6-.5s-.2-.3-.3-.3s0 0 0 0s.1 .3 .1 .4H336c0 11.9 6.8 21.3 14.6 26.7l18.2-26.3zM176 416c-8.8 0-16-7.2-16-16H128c0 26.5 21.5 48 48 48V416zM304 94.5C304 77.7 290.3 64 273.5 64V96c-.8 0-1.5-.6-1.5-1.5h32z"/></svg>