<svg xmlns="http://www.w3.org/2000/svg" viewBox="0 0 512 512"><!-- Font Awesome Pro 6.0.0-alpha2 by @fontawesome - https://fontawesome.com License - https://fontawesome.com/license (Commercial License) --><path d="M112 32C50.145 32 0 82.145 0 144S50.145 256 112 256C143.383 256 171.666 243.016 192 222.221V304C192 383.406 127.406 448 48 448C39.156 448 32 455.156 32 464S39.156 480 48 480C145.047 480 224 401.047 224 304V144C224 82.145 173.855 32 112 32ZM112 224C67.889 224 32 188.111 32 144S67.889 64 112 64S192 99.889 192 144S156.111 224 112 224ZM400 32C338.145 32 288 82.145 288 144S338.145 256 400 256C431.383 256 459.666 243.016 480 222.221V304C480 383.406 415.406 448 336 448C327.156 448 320 455.156 320 464S327.156 480 336 480C433.047 480 512 401.047 512 304V144C512 82.145 461.855 32 400 32ZM400 224C355.889 224 320 188.111 320 144S355.889 64 400 64S480 99.889 480 144S444.111 224 400 224Z"/></svg>