<svg xmlns="http://www.w3.org/2000/svg" viewBox="0 0 448 512"><!--! Font Awesome Pro 6.4.0 by @fontawesome - https://fontawesome.com License - https://fontawesome.com/license (Commercial License) Copyright 2023 Fonticons, Inc. --><path d="M96 32H352c17.7 0 32 14.3 32 32V341.7l32 58.7V64c0-35.3-28.7-64-64-64H96C60.7 0 32 28.7 32 64V400.4l32-58.7V64c0-17.7 14.3-32 32-32zm67.1 256c-17.6 0-33.8 9.6-42.2 25.1L38.7 464.8C27.2 486.1 42.6 512 66.9 512H381.1c24.2 0 39.7-25.9 28.1-47.2L327.1 313.1c-8.4-15.5-24.6-25.1-42.2-25.1H163.1zM149 328.4c2.8-5.2 8.2-8.4 14.1-8.4H284.9c5.9 0 11.3 3.2 14.1 8.4L381.1 480H66.9L149 328.4z"/></svg>