<svg xmlns="http://www.w3.org/2000/svg" viewBox="0 0 640 512"><!--! Font Awesome Pro 6.4.0 by @fontawesome - https://fontawesome.com License - https://fontawesome.com/license (Commercial License) Copyright 2023 Fonticons, Inc. --><path d="M300.5 77.2l-3.7 7.5-8.3 1.2L245 92.2 276.6 123l6 5.9-1.4 8.3-7.4 43.3 39-20.6 7.4-3.9 7.5 3.9 38.7 20.3-7.4-43.3-1.4-8.3 6.1-5.9 31.4-30.3-43.4-6.3-8.3-1.2-3.7-7.5L320 37.8 300.5 77.2zm-5-62c10.3-20.6 39.4-19.9 49.1 .1l19.9 40.2 44 6.3 .2 0 0 0c22.1 3.4 31.5 30.6 15.3 46.9l-.2 .2 0 0-31.9 30.8 7.5 43.7 0 .3 0 0c3.4 22-19.5 39.1-39.8 28.9l-.3-.1 0 0L320.2 192l-39.5 20.9-.3 .2 0 0c-20.3 10.2-43.2-6.9-39.8-28.9l0-.3 0 0 7.5-43.8-31.9-31.1-.2-.2 0 0c-16.2-16.2-6.7-43.5 15.3-46.9l.2 0 0 0 44-6.3 19.9-40.2 0 0zM192 368v96c0 26.5-21.5 48-48 48H48c-26.5 0-48-21.5-48-48V368c0-26.5 21.5-48 48-48h96c26.5 0 48 21.5 48 48zm224 64v32c0 26.5-21.5 48-48 48H272c-26.5 0-48-21.5-48-48V368 304c0-26.5 21.5-48 48-48h96c26.5 0 48 21.5 48 48V432zM256 304V464c0 8.8 7.2 16 16 16h96c8.8 0 16-7.2 16-16V304c0-8.8-7.2-16-16-16H272c-8.8 0-16 7.2-16 16zM32 368v96c0 8.8 7.2 16 16 16h96c8.8 0 16-7.2 16-16V368c0-8.8-7.2-16-16-16H48c-8.8 0-16 7.2-16 16zm448 64v32c0 8.8 7.2 16 16 16h96c8.8 0 16-7.2 16-16V432c0-8.8-7.2-16-16-16H496c-8.8 0-16 7.2-16 16zm16-48h96c26.5 0 48 21.5 48 48v32c0 26.5-21.5 48-48 48H496c-26.5 0-48-21.5-48-48V432c0-26.5 21.5-48 48-48z"/></svg>