<svg xmlns="http://www.w3.org/2000/svg" viewBox="0 0 576 512"><!--! Font Awesome Pro 6.4.0 by @fontawesome - https://fontawesome.com License - https://fontawesome.com/license (Commercial License) Copyright 2023 Fonticons, Inc. --><path d="M39.3 2.6c4.5-3 10.3-3.4 15.2-1.2L195.4 64H272c18 0 34.6 6 48 16V48c0-8.8 7.2-16 16-16s16 7.2 16 16v96 16h32V80c0-8.8 7.2-16 16-16s16 7.2 16 16v80h32c0-6.1 3.4-11.6 8.8-14.3l96-48c5-2.5 10.9-2.2 15.6 .7s7.6 8.1 7.6 13.6V240c0 5.5-2.9 10.7-7.6 13.6s-10.6 3.2-15.6 .7l-96-48c-5.4-2.7-8.8-8.3-8.8-14.3H416v80c0 8.8-7.2 16-16 16s-16-7.2-16-16V192H352v16 96c0 8.8-7.2 16-16 16s-16-7.2-16-16V272c-12.4 9.3-27.6 15.1-44.2 15.9l0 .1L172.6 494.3c-7.9 15.8-27.1 22.2-42.9 14.3l-80-40c-15.8-7.9-22.2-27.1-14.3-42.9l69-137.9C46.1 283.8 0 235.3 0 176c0-30.5 12.2-58.2 32-78.4V16c0-5.4 2.7-10.5 7.3-13.4zM480 176v6.1l64 32V137.9l-64 32V176zM192.3 96c-.2 0-.5 0-.7 0H112c-44.2 0-80 35.8-80 80s35.8 80 80 80h8.2H256h16c26.5 0 48-21.5 48-48V176 144c0-26.5-21.5-48-48-48H192.3zM64 40.6V74.8C78.5 67.9 94.8 64 112 64h4.6L64 40.6zM140 288L64 440l80 40 96-192H140zM112 160a16 16 0 1 1 0 32 16 16 0 1 1 0-32zm48 16a16 16 0 1 1 32 0 16 16 0 1 1 -32 0zm80-16a16 16 0 1 1 0 32 16 16 0 1 1 0-32z"/></svg>