<svg xmlns="http://www.w3.org/2000/svg" viewBox="0 0 512 512"><!--! Font Awesome Pro 6.4.0 by @fontawesome - https://fontawesome.com License - https://fontawesome.com/license (Commercial License) Copyright 2023 Fonticons, Inc. --><path d="M448 64c17.7 0 32 14.3 32 32V416c0 17.7-14.3 32-32 32H64c-17.7 0-32-14.3-32-32V96c0-17.7 14.3-32 32-32H448zM64 32C28.7 32 0 60.7 0 96V416c0 35.3 28.7 64 64 64H448c35.3 0 64-28.7 64-64V96c0-35.3-28.7-64-64-64H64zM293.4 172c-6.6 5.9-7.2 16-1.3 22.6L346.6 256 292 317.4c-5.9 6.6-5.3 16.7 1.3 22.6s16.7 5.3 22.6-1.3l64-72c5.4-6.1 5.4-15.2 0-21.3l-64-72c-5.9-6.6-16-7.2-22.6-1.3zM220 194.6c5.9-6.6 5.3-16.7-1.3-22.6s-16.7-5.3-22.6 1.3l-64 72c-5.4 6.1-5.4 15.2 0 21.3l64 72c5.9 6.6 16 7.2 22.6 1.3s7.2-16 1.3-22.6L165.4 256 220 194.6z"/></svg>