<svg xmlns="http://www.w3.org/2000/svg" viewBox="0 0 640 512"><!--! Font Awesome Pro 6.4.0 by @fontawesome - https://fontawesome.com License - https://fontawesome.com/license (Commercial License) Copyright 2023 Fonticons, Inc. --><path d="M64 64C46.3 64 32 78.3 32 96V416c0 17.7 14.3 32 32 32H576c17.7 0 32-14.3 32-32V96c0-17.7-14.3-32-32-32H64zM0 96C0 60.7 28.7 32 64 32H576c35.3 0 64 28.7 64 64V416c0 35.3-28.7 64-64 64H64c-35.3 0-64-28.7-64-64V96zm96 64h48c35.3 0 64 28.7 64 64s-28.7 64-64 64H112v48c0 8.8-7.2 16-16 16s-16-7.2-16-16V272 176c0-8.8 7.2-16 16-16zm48 96c17.7 0 32-14.3 32-32s-14.3-32-32-32H112v64h32zm96-80c0-8.8 7.2-16 16-16h48c35.3 0 64 28.7 64 64c0 23.2-12.4 43.6-30.9 54.8l35.7 47.6c5.3 7.1 3.9 17.1-3.2 22.4s-17.1 3.9-22.4-3.2L304 288H272v48c0 8.8-7.2 16-16 16s-16-7.2-16-16V272 176zm32 80h32c17.7 0 32-14.3 32-32s-14.3-32-32-32H272v64zm208-96c44.2 0 80 35.8 80 80v32c0 44.2-35.8 80-80 80s-80-35.8-80-80V240c0-44.2 35.8-80 80-80zm-48 80v32c0 26.5 21.5 48 48 48s48-21.5 48-48V240c0-26.5-21.5-48-48-48s-48 21.5-48 48z"/></svg>