<svg xmlns="http://www.w3.org/2000/svg" viewBox="0 0 640 512"><!--! Font Awesome Pro 6.4.0 by @fontawesome - https://fontawesome.com License - https://fontawesome.com/license (Commercial License) Copyright 2023 Fonticons, Inc. --><path d="M157.5 74c9.2-25.2 33.2-42 60.1-42H422.4c26.9 0 50.9 16.8 60.1 42l44.1 120.6c-9.9-1.7-20.2-2.7-30.6-2.7c-1.5 0-2.9 0-4.4 .1L452.5 85c-4.6-12.6-16.6-21-30.1-21H336v48c0 8.8-7.2 16-16 16s-16-7.2-16-16V64H217.6c-13.4 0-25.4 8.4-30.1 21L70.6 405c-7.6 20.9 7.8 43 30.1 43H339.2c5.9 11.4 12.9 22.2 21 32H100.6c-44.5 0-75.4-44.2-60.1-86L157.5 74zM336 208v86.6c-3.5 7.6-6.5 15.6-8.9 23.8c-2.1 1.1-4.6 1.7-7.1 1.7c-8.8 0-16-7.2-16-16V208c0-8.8 7.2-16 16-16s16 7.2 16 16zM608 368a112 112 0 1 0 -224 0 112 112 0 1 0 224 0zm-256 0a144 144 0 1 1 288 0 144 144 0 1 1 -288 0zm144 32a24 24 0 1 1 0 48 24 24 0 1 1 0-48zm0-112c8.8 0 16 7.2 16 16v64c0 8.8-7.2 16-16 16s-16-7.2-16-16V304c0-8.8 7.2-16 16-16z"/></svg>