<svg xmlns="http://www.w3.org/2000/svg" viewBox="0 0 640 512"><!--! Font Awesome Pro 6.4.0 by @fontawesome - https://fontawesome.com License - https://fontawesome.com/license (Commercial License) Copyright 2023 Fonticons, Inc. --><path d="M93.3 108L160 208l32 48V198.3 116.8c0-15.8 20.5-22 29.3-8.9L288 208l32 48V198.3 116.8c0-15.8 20.5-22 29.3-8.9L416 208l32 48V198.3 116.8c0-15.8 20.5-22 29.3-8.9L606.8 302.2c14.2 21.3-1.1 49.7-26.6 49.7H512 480h-6.5H448 384 352h-6.5H320 256 224h-6.5H192 96 64V320 116.8c0-15.8 20.5-22 29.3-8.9zM512 320h68.2L480 169.7V256v64h32zm-90.6-46.2L352 169.7V256v64h32 64 4.2l-30.8-46.2zm-128 0L224 169.7V256v64h32 64 4.2l-30.8-46.2zm-128 0L96 169.7V320h96 4.2l-30.8-46.2zM16 416H624c8.8 0 16 7.2 16 16s-7.2 16-16 16H16c-8.8 0-16-7.2-16-16s7.2-16 16-16z"/></svg>