<svg xmlns="http://www.w3.org/2000/svg" viewBox="0 0 640 512"><!--! Font Awesome Pro 6.4.0 by @fontawesome - https://fontawesome.com License - https://fontawesome.com/license (Commercial License) Copyright 2023 Fonticons, Inc. --><path d="M576 32c17.7 0 32 14.3 32 32V448c0 17.7-14.3 32-32 32H496V416c0-8.8-7.2-16-16-16s-16 7.2-16 16v64H384c-17.7 0-32-14.3-32-32V64c0-17.7 14.3-32 32-32h80V96c0 8.8 7.2 16 16 16s16-7.2 16-16V32h80zm0-32H384c-35.3 0-64 28.7-64 64V448c0 35.3 28.7 64 64 64H576c35.3 0 64-28.7 64-64V64c0-35.3-28.7-64-64-64zM480 192c-8.8 0-16 7.2-16 16v96c0 8.8 7.2 16 16 16s16-7.2 16-16V208c0-8.8-7.2-16-16-16zM16 96c-8.8 0-16 7.2-16 16s7.2 16 16 16H80v64H16c-8.8 0-16 7.2-16 16s7.2 16 16 16H288V192H240V128h48V96H16zM264 288c-48.6 0-88 39.4-88 88v88c0 8.8-7.2 16-16 16H128c-8.8 0-16-7.2-16-16V376c0-48.6-39.4-88-88-88H16c-8.8 0-16 7.2-16 16s7.2 16 16 16h8c30.9 0 56 25.1 56 56v88c0 26.5 21.5 48 48 48h32c26.5 0 48-21.5 48-48V376c0-30.9 25.1-56 56-56h24V288H264zM208 128v64H112V128h96z"/></svg>