<svg xmlns="http://www.w3.org/2000/svg" viewBox="0 0 576 512"><!--! Font Awesome Pro 6.4.0 by @fontawesome - https://fontawesome.com License - https://fontawesome.com/license (Commercial License) Copyright 2023 Fonticons, Inc. --><path d="M185.6 32c-26.9 0-50.9 16.8-60.1 42L8.5 394c-15.3 41.8 15.7 86 60.1 86H507.4c44.5 0 75.4-44.2 60.1-86L450.5 74c-9.2-25.2-33.2-42-60.1-42H185.6zM155.5 85c4.6-12.6 16.6-21 30.1-21H272v48c0 8.8 7.2 16 16 16s16-7.2 16-16V64h86.4c13.4 0 25.4 8.4 30.1 21L537.4 405c7.6 20.9-7.8 43-30.1 43H304V400c0-8.8-7.2-16-16-16s-16 7.2-16 16v48H68.6c-22.2 0-37.7-22.1-30.1-43L155.5 85zM304 208c0-8.8-7.2-16-16-16s-16 7.2-16 16v96c0 8.8 7.2 16 16 16s16-7.2 16-16V208z"/></svg>