<svg xmlns="http://www.w3.org/2000/svg" viewBox="0 0 512 512"><!--! Font Awesome Pro 6.4.0 by @fontawesome - https://fontawesome.com License - https://fontawesome.com/license (Commercial License) Copyright 2023 Fonticons, Inc. --><path d="M403.5 133.1C368.3 90.9 315.3 64 256 64C165.2 64 89.1 127 69.1 211.7c-2 8.6-10.6 13.9-19.2 11.9s-13.9-10.6-11.9-19.2C61.3 105.5 150.1 32 256 32c69.2 0 131 31.4 172.1 80.6L464 154.9V96c0-8.8 7.2-16 16-16s16 7.2 16 16v96c0 8.8-7.2 16-16 16H384c-8.8 0-16-7.2-16-16s7.2-16 16-16h55.9l-36.3-42.8 0 0-.1-.1zM272 144V272c0 8.8-7.2 16-16 16s-16-7.2-16-16V144c0-8.8 7.2-16 16-16s16 7.2 16 16zM256 328a24 24 0 1 1 0 48 24 24 0 1 1 0-48zM32 432c-8.8 0-16-7.2-16-16V320c0-8.8 7.2-16 16-16h96c8.8 0 16 7.2 16 16s-7.2 16-16 16H72.1l36.3 42.8 0 0 .1 .1C143.7 421.1 196.7 448 256 448c90.8 0 166.9-63 186.9-147.7c2-8.6 10.7-13.9 19.3-11.9s13.9 10.6 11.9 19.2C450.7 406.5 361.9 480 256 480c-69.2 0-131-31.4-172.1-80.6L48 357.1V416c0 8.8-7.2 16-16 16z"/></svg>