<svg xmlns="http://www.w3.org/2000/svg" viewBox="0 0 640 512"><!--! Font Awesome Pro 6.4.0 by @fontawesome - https://fontawesome.com License - https://fontawesome.com/license (Commercial License) Copyright 2023 Fonticons, Inc. --><path d="M16 64C7.2 64 0 71.2 0 80s7.2 16 16 16H32v64H16c-8.8 0-16 7.2-16 16s7.2 16 16 16H32v48H16c-8.8 0-16 7.2-16 16s7.2 16 16 16H32v48H16c-8.8 0-16 7.2-16 16s7.2 16 16 16H32v64H16c-8.8 0-16 7.2-16 16s7.2 16 16 16H32 48 64 576h16 16 16c8.8 0 16-7.2 16-16s-7.2-16-16-16H608V352h16c8.8 0 16-7.2 16-16s-7.2-16-16-16H608V272h16c8.8 0 16-7.2 16-16s-7.2-16-16-16H608V192h16c8.8 0 16-7.2 16-16s-7.2-16-16-16H608V96h16c8.8 0 16-7.2 16-16s-7.2-16-16-16H608 592 576 64 48 32 16zM64 96h64V416H64V336 256 176 96zm448 0h64v80 80 80 80H512V96zm-32 0V416H160V96H480z"/></svg>