<svg xmlns="http://www.w3.org/2000/svg" viewBox="0 0 576 512"><!--! Font Awesome Pro 6.4.0 by @fontawesome - https://fontawesome.com License - https://fontawesome.com/license (Commercial License) Copyright 2023 Fonticons, Inc. --><path d="M112 64c-44.2 0-80 35.8-80 80s35.8 80 80 80H242.9 280h24c8.8 0 16-7.2 16-16V80c0-8.8-7.2-16-16-16H112zM80 251.4C33.8 237.6 0 194.7 0 144C0 82.1 50.1 32 112 32H304c26.5 0 48 21.5 48 48V208c0 26.5-21.5 48-48 48H261.2L144.3 454.6c-13.4 22.8-42.9 30.5-65.7 17L25.2 440.2C2.4 426.8-5.2 397.5 8.1 374.7L80 251.4zm34.3 4.6L35.7 390.8c-4.4 7.6-1.9 17.4 5.7 21.9l53.4 31.4c7.6 4.5 17.4 1.9 21.9-5.7L224.1 256H114.4zM432 32H560c8.8 0 16 7.2 16 16s-7.2 16-16 16H432c-8.8 0-16-7.2-16-16s7.2-16 16-16zm-16 80c0-8.8 7.2-16 16-16H560c8.8 0 16 7.2 16 16s-7.2 16-16 16H432c-8.8 0-16-7.2-16-16zm16 80H560c8.8 0 16 7.2 16 16s-7.2 16-16 16H432c-8.8 0-16-7.2-16-16s7.2-16 16-16zm-16 80c0-8.8 7.2-16 16-16H560c8.8 0 16 7.2 16 16s-7.2 16-16 16H432c-8.8 0-16-7.2-16-16zm16 48H560c8.8 0 16 7.2 16 16s-7.2 16-16 16H432c-8.8 0-16-7.2-16-16s7.2-16 16-16zM416 464c0-8.8 7.2-16 16-16H560c8.8 0 16 7.2 16 16s-7.2 16-16 16H432c-8.8 0-16-7.2-16-16z"/></svg>