<svg xmlns="http://www.w3.org/2000/svg" viewBox="0 0 576 512"><!--! Font Awesome Pro 6.4.0 by @fontawesome - https://fontawesome.com License - https://fontawesome.com/license (Commercial License) Copyright 2023 Fonticons, Inc. --><path d="M304 64h80V32H304V64zM272 16c0-8.8 7.2-16 16-16H400c8.8 0 16 7.2 16 16V80c0 8.8-7.2 16-16 16H315.5l89.6 64H512c35.3 0 64 28.7 64 64V448c0 35.3-28.7 64-64 64H352 320 256 224 64c-35.3 0-64-28.7-64-64V224c0-35.3 28.7-64 64-64H170.9L272 87.8V64 16zm48 400c0-17.7-14.3-32-32-32s-32 14.3-32 32v64h64V416zm32 64H512c17.7 0 32-14.3 32-32V224c0-17.7-14.3-32-32-32H400c-3.3 0-6.6-1-9.3-3L288 115.7 185.3 189c-2.7 1.9-6 3-9.3 3H64c-17.7 0-32 14.3-32 32V448c0 17.7 14.3 32 32 32H224V416c0-35.3 28.7-64 64-64s64 28.7 64 64v64zM256 240a32 32 0 1 0 64 0 32 32 0 1 0 -64 0zm32 64a64 64 0 1 1 0-128 64 64 0 1 1 0 128zM64 256c0-17.7 14.3-32 32-32h32c17.7 0 32 14.3 32 32v32c0 17.7-14.3 32-32 32H96c-17.7 0-32-14.3-32-32V256zm64 0H96v32h32V256zm320-32h32c17.7 0 32 14.3 32 32v32c0 17.7-14.3 32-32 32H448c-17.7 0-32-14.3-32-32V256c0-17.7 14.3-32 32-32zm0 32v32h32V256H448zM64 384c0-17.7 14.3-32 32-32h32c17.7 0 32 14.3 32 32v32c0 17.7-14.3 32-32 32H96c-17.7 0-32-14.3-32-32V384zm64 0H96v32h32V384zm320-32h32c17.7 0 32 14.3 32 32v32c0 17.7-14.3 32-32 32H448c-17.7 0-32-14.3-32-32V384c0-17.7 14.3-32 32-32zm0 32v32h32V384H448z"/></svg>