<svg xmlns="http://www.w3.org/2000/svg" viewBox="0 0 640 512"><!--! Font Awesome Pro 6.4.0 by @fontawesome - https://fontawesome.com License - https://fontawesome.com/license (Commercial License) Copyright 2023 Fonticons, Inc. --><path d="M311.1 2.7c5.4-3.6 12.4-3.6 17.8 0L468.8 96H576c35.3 0 64 28.7 64 64V272c0-30.5-12.2-58.2-32-78.4V160c0-17.7-14.3-32-32-32H464c-3.2 0-6.2-.9-8.9-2.7L320 35.2 184.9 125.3c-2.6 1.8-5.7 2.7-8.9 2.7H64c-17.7 0-32 14.3-32 32V448c0 17.7 14.3 32 32 32H256V384c0-35.3 28.7-64 64-64s64 28.7 64 64v96c0 11.7 3.1 22.6 8.6 32H384 352 288 256 64c-35.3 0-64-28.7-64-64V160c0-35.3 28.7-64 64-64H171.2l140-93.3zM352 384c0-17.7-14.3-32-32-32s-32 14.3-32 32v96h64V384zM128 160h32c17.7 0 32 14.3 32 32v64c0 17.7-14.3 32-32 32H128c-17.7 0-32-14.3-32-32V192c0-17.7 14.3-32 32-32zm0 32v64h32V192H128zM96 352c0-17.7 14.3-32 32-32h32c17.7 0 32 14.3 32 32v64c0 17.7-14.3 32-32 32H128c-17.7 0-32-14.3-32-32V352zm64 0H128v64h32V352zm160-96a64 64 0 1 0 0-128 64 64 0 1 0 0 128zm0-160a96 96 0 1 1 0 192 96 96 0 1 1 0-192zm16 64v16h8c8.8 0 16 7.2 16 16s-7.2 16-16 16H320c-8.8 0-16-7.2-16-16V160c0-8.8 7.2-16 16-16s16 7.2 16 16zm192 64c-26.5 0-48 21.5-48 48v48h96V272c0-26.5-21.5-48-48-48zm-80 48c0-44.2 35.8-80 80-80s80 35.8 80 80v48c17.7 0 32 14.3 32 32V480c0 17.7-14.3 32-32 32H448c-17.7 0-32-14.3-32-32V352c0-17.7 14.3-32 32-32V272zm160 80H448V480H608V352z"/></svg>