<svg xmlns="http://www.w3.org/2000/svg" viewBox="0 0 640 512"><!--! Font Awesome Pro 6.4.0 by @fontawesome - https://fontawesome.com License - https://fontawesome.com/license (Commercial License) Copyright 2023 Fonticons, Inc. --><path d="M328.9 2.7c-5.4-3.6-12.4-3.6-17.8 0L171.2 96H64C28.7 96 0 124.7 0 160V448c0 35.3 28.7 64 64 64H256h32 64 32H576c35.3 0 64-28.7 64-64V160c0-35.3-28.7-64-64-64H468.8L328.9 2.7zM384 384c0-35.3-28.7-64-64-64s-64 28.7-64 64v96H64c-17.7 0-32-14.3-32-32V160c0-17.7 14.3-32 32-32H176c3.2 0 6.2-.9 8.9-2.7L320 35.2l135.1 90.1c2.6 1.8 5.7 2.7 8.9 2.7H576c17.7 0 32 14.3 32 32V448c0 17.7-14.3 32-32 32H384V384zm-32 96H288V384c0-17.7 14.3-32 32-32s32 14.3 32 32v96zM96 192v64c0 17.7 14.3 32 32 32h32c17.7 0 32-14.3 32-32V192c0-17.7-14.3-32-32-32H128c-17.7 0-32 14.3-32 32zm64 0v64H128V192h32zm320-32c-17.7 0-32 14.3-32 32v64c0 17.7 14.3 32 32 32h32c17.7 0 32-14.3 32-32V192c0-17.7-14.3-32-32-32H480zm0 32h32v64H480V192zM96 352v64c0 17.7 14.3 32 32 32h32c17.7 0 32-14.3 32-32V352c0-17.7-14.3-32-32-32H128c-17.7 0-32 14.3-32 32zm64 0v64H128V352h32zm320-32c-17.7 0-32 14.3-32 32v64c0 17.7 14.3 32 32 32h32c17.7 0 32-14.3 32-32V352c0-17.7-14.3-32-32-32H480zm0 32h32v64H480V352zM320 128a64 64 0 1 1 0 128 64 64 0 1 1 0-128zm0 160a96 96 0 1 0 0-192 96 96 0 1 0 0 192zm16-128c0-8.8-7.2-16-16-16s-16 7.2-16 16v32c0 8.8 7.2 16 16 16h24c8.8 0 16-7.2 16-16s-7.2-16-16-16h-8V160z"/></svg>