<svg xmlns="http://www.w3.org/2000/svg" viewBox="0 0 640 512"><!--! Font Awesome Pro 6.4.0 by @fontawesome - https://fontawesome.com License - https://fontawesome.com/license (Commercial License) Copyright 2023 Fonticons, Inc. --><path d="M311.1 2.7c5.4-3.6 12.4-3.6 17.8 0L468.8 96H576c35.3 0 64 28.7 64 64V266.8c-9.1-12.9-19.9-24.5-32-34.6V160c0-17.7-14.3-32-32-32H464c-3.2 0-6.2-.9-8.9-2.7L320 35.2 184.9 125.3c-2.6 1.8-5.7 2.7-8.9 2.7H64c-17.7 0-32 14.3-32 32V448c0 17.7 14.3 32 32 32H256V384c0-35.3 28.7-64 64-64c2.2 0 4.4 .1 6.5 .3c-2.9 10.2-4.8 20.8-5.8 31.7l-.7 0c-17.7 0-32 14.3-32 32v96h32 32 8.2c10 12.1 21.7 22.9 34.6 32H384 352 288 256 64c-35.3 0-64-28.7-64-64V160c0-35.3 28.7-64 64-64H171.2l140-93.3zM416 192c0 7-.7 13.8-2.2 20.3c-31.3 16.5-57 42.2-73.5 73.5c-6.5 1.4-13.3 2.2-20.3 2.2c-53 0-96-43-96-96s43-96 96-96s96 43 96 96zM128 160h32c17.7 0 32 14.3 32 32v64c0 17.7-14.3 32-32 32H128c-17.7 0-32-14.3-32-32V192c0-17.7 14.3-32 32-32zm0 32v64h32V192H128zM96 352c0-17.7 14.3-32 32-32h32c17.7 0 32 14.3 32 32v64c0 17.7-14.3 32-32 32H128c-17.7 0-32-14.3-32-32V352zm64 0H128v64h32V352zm160-96a64 64 0 1 0 0-128 64 64 0 1 0 0 128zm16-96v16h8c8.8 0 16 7.2 16 16s-7.2 16-16 16H320c-8.8 0-16-7.2-16-16V160c0-8.8 7.2-16 16-16s16 7.2 16 16zM496 480a112 112 0 1 0 0-224 112 112 0 1 0 0 224zm0-256a144 144 0 1 1 0 288 144 144 0 1 1 0-288zm67.3 100.7c6.2 6.2 6.2 16.4 0 22.6l-72 72c-6.2 6.2-16.4 6.2-22.6 0l-40-40c-6.2-6.2-6.2-16.4 0-22.6s16.4-6.2 22.6 0L480 385.4l60.7-60.7c6.2-6.2 16.4-6.2 22.6 0z"/></svg>