<svg xmlns="http://www.w3.org/2000/svg" viewBox="0 0 576 512"><!--! Font Awesome Pro 6.4.0 by @fontawesome - https://fontawesome.com License - https://fontawesome.com/license (Commercial License) Copyright 2023 Fonticons, Inc. --><path d="M512 64H64C46.3 64 32 78.3 32 96v96.1c-2.7-.1-5.3-.1-8-.1H0V96C0 60.7 28.7 32 64 32H512c35.3 0 64 28.7 64 64V416c0 35.3-28.7 64-64 64H288V456c0-2.7 0-5.3-.1-8H512c17.7 0 32-14.3 32-32V96c0-17.7-14.3-32-32-32zM16 224c132.5 0 240 107.5 240 240c0 8.8-7.2 16-16 16s-16-7.2-16-16c0-114.9-93.1-208-208-208c-8.8 0-16-7.2-16-16s7.2-16 16-16zM32 416a32 32 0 1 1 0 64 32 32 0 1 1 0-64zM0 336c0-8.8 7.2-16 16-16c79.5 0 144 64.5 144 144c0 8.8-7.2 16-16 16s-16-7.2-16-16c0-61.9-50.1-112-112-112c-8.8 0-16-7.2-16-16z"/></svg>