<svg xmlns="http://www.w3.org/2000/svg" viewBox="0 0 576 512"><!--! Font Awesome Pro 6.4.0 by @fontawesome - https://fontawesome.com License - https://fontawesome.com/license (Commercial License) Copyright 2023 Fonticons, Inc. --><path d="M32 112c0-26.5 21.5-48 48-48s48 21.5 48 48V400c0 44.2 35.8 80 80 80H504c39.8 0 72-32.2 72-72V352c0-22.1-18-40-40-40h-.6-.6-.6-.6-.5-.6-.5-.5H531h-.5-.5-.5-.5-.5-.5-.5-.5-.5-.5-.5-.5H524h-.5H523h-.5-.5-.5-.5-.5-.5-.5-.5-.5-.5-.5-.5-.5-.5-.5-.5-.5-.5H513h-.5H512h-.5H511h-.5H510h-.5H509h-.5-.5-.5-.5-.5-.5-.5-.5-.5-.5-.5-.5-.5-.5-.5-.5-.5-.5-.5H499h-.5H498h-.5H497h-.5H496h-.5H495h-.5-.5-.5-.5-.5-.5-.5-.5-.5-.5-.5-.5-.5-.5-.5-.5-.5-.5-.5-.5H485h-.5H484h-.5-.5-.5-.5-.5-.5-.5-.5-.5-.5-.5-.5-.5-.5H477h-.5-.5-.5-.5-.5-.5-.5-.5-.5-.5-.5-.5H471h-.5-.5-.5-.5-.5-.5-.5-.5-.5-.5H466h-.5-.5-.5-.5-.4-.5-.4-.4H462h-.4-.4-.4-.4-.4-.4-.4-.4-.4-.4-.4-.4-.4-.4-.4-.4-.4H454h-.4-.4-.4-.4-.4-.4-.4-.4H450h-.4-.4-.4-.4-.4-.4-.4-.4-.4-.4-.4-.4-.4-.4-.4H443h-.4-.4-.4-.4-.4-.4H440h-.4-.4-.4-.4-.4-.4H437h-.4-.4-.4-.4-.4-.4H434h-.4-.4-.4-.4-.4-.4H431h-.4-.4-.4-.4-.4-.4H428h-.4-.4-.4-.4-.4-.4H425h-.4-.4-.4-.4-.4-.4H422h-.4-.4-.4-.4-.4-.4H419h-.4-.4-.4-.4-.4-.4H416h-.4-.4-.4-.4-.4-.4H413h-.4-.4-.4-.4-.4-.4H410h-.4-.4-.4-.4-.4-.4H407h-.4-.4-.4-.4-.4-.4H404h-.4-.4-.4-.4-.4-.4H401h-.4-.4-.4-.4-.4-.4H398h-.4-.4-.4-.4-.4-.4H395h-.4-.4-.4-.4-.4-.4H392h-.4-.4-.4-.4-.4-.4H389h-.4-.4-.4-.4-.4-.4-.4-.4-.4-.4-.4-.4-.4-.4-.4H382h-.4-.4-.4-.4-.4-.4-.4-.4H378h-.4-.4-.4-.4-.4-.4-.4-.4-.4-.4-.4-.4-.4-.4-.4-.4-.4H370h-.4-.4-.4-.5-.4-.5-.5-.5H366h-.5-.5-.5-.5-.5-.5-.5-.5-.5-.5H361h-.5-.5-.5-.5-.5-.5-.5-.5-.5-.5-.5-.5H355h-.5-.5-.5-.5-.5-.5-.5-.5-.5-.5-.5-.5-.5-.5H348h-.5H347h-.5-.5-.5-.5-.5-.5-.5-.5-.5-.5-.5-.5-.5-.5-.5-.5-.5-.5-.5-.5H337h-.5H336h-.5H335h-.5H334h-.5H333h-.5-.5-.5-.5-.5-.5-.5-.5-.5-.5-.5-.5-.5-.5-.5-.5-.5-.5-.5H323h-.5H322h-.5H321h-.5H320h-.5H319h-.5-.5-.5-.5-.5-.5-.5-.5-.5-.5-.5-.5-.5-.5-.5-.5-.5-.5H309h-.5H308h-.5-.5-.5-.5-.5-.5-.5-.5-.5-.5-.5-.5H301h-.5-.5-.5-.5-.5-.5-.6-.6H296c-22.1 0-40 17.9-40 40v48c0 26.5-21.5 48-48 48s-48-21.5-48-48V112c0-18-6-34.6-16-48H400c26.5 0 48 21.5 48 48V288h32V112c0-44.2-35.8-80-80-80H80C35.8 32 0 67.8 0 112v72c0 22.1 17.9 40 40 40H96V192H40c-4.4 0-8-3.6-8-8V112zM504 448H272c10-13.4 16-30 16-48V352c0-4.4 3.6-8 8-8h.6 .6 .6 .5 .5 .5 .5 .5 .5 .5 .5 .5 .5 .5 .5 .5 .5 .5 .5 .5 .5 .5 .5 .5 .5 .5 .5 .5 .5 .5 .5 .5 .5 .5 .5 .5 .5 .5 .5 .5 .5 .5 .5 .5 .5 .5 .5 .5 .5 .5 .5 .5 .5 .5 .5 .5 .5 .5 .5 .5 .5 .5 .5 .5 .5 .5 .5 .5 .5 .5 .5 .5 .5 .5 .5 .5 .5 .5 .5 .5 .5 .5 .5 .5 .5 .5 .5 .5 .5 .5 .5 .5 .5 .5 .5 .5 .5 .5 .5 .5 .5 .5 .5 .5 .5 .5 .5 .5 .5 .5 .5 .5 .5 .5 .5 .5 .5 .5 .5 .5 .5 .5 .5 .5 .5 .5 .5 .5 .5 .5 .5 .5 .5 .5 .5 .5 .5 .5 .5 .5 .5 .5 .5 .5 .5 .4 .5 .4 .4 .4 .4 .4 .4 .4 .4 .4 .4 .4 .4 .4 .4 .4 .4 .4 .4 .4 .4 .4 .4 .4 .4 .4 .4 .4 .4 .4 .4 .4 .4 .4 .4 .4 .4 .4 .4 .4 .4 .4 .4 .4 .4 .4 .4 .4 .4 .4 .4 .4 .4 .4 .4 .4 .4 .4 .4 .4 .4 .4 .4 .4 .4 .4 .4 .4 .4 .4 .4 .4 .4 .4 .4 .4 .4 .4 .4 .4 .4 .4 .4 .4 .4 .4 .4 .4 .4 .4 .4 .4 .4 .4 .4 .4 .4 .4 .4 .4 .4 .4 .4 .4 .4 .4 .4 .4 .4 .4 .4 .4 .4 .4 .4 .4 .4 .4 .4 .4 .4 .4 .4 .4 .4 .4 .4 .4 .4 .4 .4 .4 .4 .4 .4 .4 .4 .4 .4 .4 .4 .4 .4 .4 .4 .4 .4 .4 .4 .4 .4 .4 .4 .4 .4 .4 .4 .4 .4 .4 .4 .4 .4 .4 .4 .4 .4 .4 .4 .4 .4 .4 .4 .4 .4 .4 .4 .4 .4 .4 .4 .4 .4 .4 .4 .4 .4 .4 .4 .4 .4 .4 .4 .4 .4 .4 .4 .4 .4 .4 .4 .4 .4 .4 .4 .4 .4 .4 .4 .4 .4 .4 .4 .4 .4 .4 .4 .4 .4 .5 .4 .5 .5 .5 .5 .5 .5 .5 .5 .5 .5 .5 .5 .5 .5 .5 .5 .5 .5 .5 .5 .5 .5 .5 .5 .5 .5 .5 .5 .5 .5 .5 .5 .5 .5 .5 .5 .5 .5 .5 .5 .5 .5 .5 .5 .5 .5 .5 .5 .5 .5 .5 .5 .5 .5 .5 .5 .5 .5 .5 .5 .5 .5 .5 .5 .5 .5 .5 .5 .5 .5 .5 .5 .5 .5 .5 .5 .5 .5 .5 .5 .5 .5 .5 .5 .5 .5 .5 .5 .5 .5 .5 .5 .5 .5 .5 .5 .5 .5 .5 .5 .5 .5 .5 .5 .5 .5 .5 .5 .5 .5 .5 .5 .5 .5 .5 .5 .5 .5 .5 .5 .5 .5 .5 .5 .5 .5 .5 .5 .5 .5 .5 .5 .5 .5 .5 .5 .5 .5 .5 .6 .5 .6 .6 .6 .6c4.4 0 8 3.6 8 8v56c0 22.1-17.9 40-40 40z"/></svg>