<svg xmlns="http://www.w3.org/2000/svg" viewBox="0 0 512 512"><!--! Font Awesome Pro 6.4.0 by @fontawesome - https://fontawesome.com License - https://fontawesome.com/license (Commercial License) Copyright 2023 Fonticons, Inc. --><path d="M176 96c8.5 0 16.6-3.4 22.6-9.4l46.1-46.1c6.2-6.2 16.4-6.2 22.6 0l46.1 46.1c6 6 14.1 9.4 22.6 9.4h64c8.8 0 16 7.2 16 16v64c0 8.5 3.4 16.6 9.4 22.6L471 244.2c6.2 6.2 6.2 16.4 0 22.6l-45.6 45.6c-6 6-9.4 14.1-9.4 22.6V400c0 8.8-7.2 16-16 16H335.1c-8.5 0-16.6 3.4-22.6 9.4l-45.1 45.1c-6.2 6.2-16.4 6.2-22.6 0l-45.1-45.1c-6-6-14.1-9.4-22.6-9.4H112c-8.8 0-16-7.2-16-16V335.1c0-8.5-3.4-16.6-9.4-22.6L41 266.8 18.4 289.5 41 266.8c-6.2-6.2-6.2-16.4 0-22.6l45.6-45.6c6-6 9.4-14.1 9.4-22.6V112c0-8.8 7.2-16 16-16h64zM18.4 221.6c-18.7 18.7-18.7 49.1 0 67.9L64 335.1V400c0 26.5 21.5 48 48 48h64.9l45.1 45.1c18.7 18.7 49.1 18.7 67.9 0L335.1 448H400c26.5 0 48-21.5 48-48V335.1l45.6-45.6c18.7-18.7 18.7-49.1 0-67.9L448 176V112c0-26.5-21.5-48-48-48H336L289.9 17.9c-18.7-18.7-49.1-18.7-67.9 0L176 64H112c-26.5 0-48 21.5-48 48v64L18.4 221.6zM240 144V272c0 8.8 7.2 16 16 16s16-7.2 16-16V144c0-8.8-7.2-16-16-16s-16 7.2-16 16zm40 208a24 24 0 1 0 -48 0 24 24 0 1 0 48 0z"/></svg>