<svg xmlns="http://www.w3.org/2000/svg" viewBox="0 0 512 512"><!--! Font Awesome Pro 6.4.0 by @fontawesome - https://fontawesome.com License - https://fontawesome.com/license (Commercial License) Copyright 2023 Fonticons, Inc. --><path d="M176 96c8.5 0 16.6-3.4 22.6-9.4l46.1-46.1c6.2-6.2 16.4-6.2 22.6 0l46.1 46.1c6 6 14.1 9.4 22.6 9.4h64c8.8 0 16 7.2 16 16v64c0 8.5 3.4 16.6 9.4 22.6L471 244.2c6.2 6.2 6.2 16.4 0 22.6l-45.6 45.6c-6 6-9.4 14.1-9.4 22.6V400c0 8.8-7.2 16-16 16H335.1c-8.5 0-16.6 3.4-22.6 9.4l-45.1 45.1c-6.2 6.2-16.4 6.2-22.6 0l-45.1-45.1c-6-6-14.1-9.4-22.6-9.4H112c-8.8 0-16-7.2-16-16V335.1c0-8.5-3.4-16.6-9.4-22.6L41 266.8 18.4 289.5 41 266.8c-6.2-6.2-6.2-16.4 0-22.6l45.6-45.6c6-6 9.4-14.1 9.4-22.6V112c0-8.8 7.2-16 16-16h64zM18.4 221.6c-18.7 18.7-18.7 49.1 0 67.9L64 335.1V400c0 26.5 21.5 48 48 48h64.9l45.1 45.1c18.7 18.7 49.1 18.7 67.9 0L335.1 448H400c26.5 0 48-21.5 48-48V335.1l45.6-45.6c18.7-18.7 18.7-49.1 0-67.9L448 176V112c0-26.5-21.5-48-48-48H336L289.9 17.9c-18.7-18.7-49.1-18.7-67.9 0L176 64H112c-26.5 0-48 21.5-48 48v64L18.4 221.6zm150.3-51.8l-.2 .7c-2.2 8.5 2.9 17.3 11.4 19.5s17.3-2.9 19.5-11.4l.2-.7c2.8-10.6 12.3-17.9 23.2-17.9H280c17.6 0 32 14.5 32 32.3c0 12.1-6.8 23.2-17.5 28.7l-45.8 23.4c-5.4 2.7-8.7 8.2-8.7 14.3V288c0 8.8 7.2 16 16 16s16-7.2 16-16V268.3l37.1-18.9c21.5-11 34.9-33.2 34.9-57.2c0-35.2-28.5-64.3-64-64.3H222.9c-25.5 0-47.7 17.2-54.2 41.8zM280 352a24 24 0 1 0 -48 0 24 24 0 1 0 48 0z"/></svg>