<svg xmlns="http://www.w3.org/2000/svg" viewBox="0 0 640 512"><!--! Font Awesome Pro 6.4.0 by @fontawesome - https://fontawesome.com License - https://fontawesome.com/license (Commercial License) Copyright 2023 Fonticons, Inc. --><path d="M64 64H384c17.7 0 32 14.3 32 32v41c9.4-6.9 20.9-9.8 32-8.8V96c0-35.3-28.7-64-64-64H64C28.7 32 0 60.7 0 96V416c0 35.3 28.7 64 64 64H337.6c-8.8-9.8-16.5-20.6-23.2-32H64c-17.7 0-32-14.3-32-32V96c0-17.7 14.3-32 32-32zm64 80c0-8.8-7.2-16-16-16s-16 7.2-16 16V272c0 8.8 7.2 16 16 16s16-7.2 16-16V144zm64 0c0-8.8-7.2-16-16-16s-16 7.2-16 16V272c0 8.8 7.2 16 16 16s16-7.2 16-16V144zM509.4 253.3c9.6-.1 18.7-4.5 24.7-12.1c3.9-4.9 7.8-9.6 11.6-14c16.4 17.8 30.9 39.4 41.8 60.5C601 313.8 608 339.3 608 352c0 70.2-57 127.8-128 127.8c-71.8 0-128-57.5-128-127.8c0-17.9 9.4-46.2 27.6-75.8c15.9-25.8 37.9-53.1 64-78.1c14.3 13.7 27.9 28.3 40.8 43.7c6.2 7.4 15.3 11.6 25 11.5zM487.5 197c-10.9-11.6-22.2-22.8-34-33.4c-2.8-2.5-6.3-3.7-9.8-3.8c-3.6 0-7.2 1.2-10 3.7c-33.2 29.7-61.4 63.4-81.4 95.8C332.7 291.3 320 325.6 320 352c0 87.8 70.3 159.8 160 159.8c88.7 0 160-72 160-159.8c0-20.2-9.6-50.9-24.2-79c-14.8-28.5-35.7-58.5-60.4-81.1c-5.6-5.1-14.4-5.2-20 0c-1.8 1.6-3.5 3.3-5.2 5c-7.7 7.7-14.8 16.4-21.2 24.5c-7-8.4-14.1-16.5-21.5-24.4zm-42.5 58.9c-4.8 0-9.4 2.2-12.5 5.9c-14.9 18.4-26.9 33.8-35.1 47.9C389 324.1 384 338.2 384 353.9c0 28.7 10.7 52.6 28.8 69.2c18 16.5 42.3 24.8 68.2 24.8c21.3 0 40.3-6 57.9-17.7l0 0 .3-.2c37.3-26.1 46.3-77.2 25-116.5l0-.1c-1.9-3.9-4.5-9-8.3-14.1c-2.9-3.9-7.4-6.2-12.3-6.4s-9.5 1.9-12.7 5.6l-23.3 27.2-17.5-22.3c-15-19.1-30.5-38.9-32.6-41.5c-3-3.8-7.6-6-12.4-6zm94.8 81.3c9 24.7 1.3 52.3-18.9 66.5c-12.4 8.2-25.3 12.2-40 12.2c-19.1 0-35.3-6.1-46.6-16.4c-11.1-10.1-18.4-25.2-18.4-45.6c0-8.3 2.5-16.8 9.1-28.1c4.7-8.1 11.2-17.2 19.8-28.2l20 25.5 20.4 26 6.6 8.5 1.8 2.4 .5 .6 .1 .2 0 0 0 0 0 0 12.6-9.9-12.6 9.9c3 3.8 7.4 6 12.2 6.1s9.4-1.9 12.5-5.6l20.7-24.1z"/></svg>