<svg xmlns="http://www.w3.org/2000/svg" viewBox="0 0 512 512"><!--! Font Awesome Pro 6.4.0 by @fontawesome - https://fontawesome.com License - https://fontawesome.com/license (Commercial License) Copyright 2023 Fonticons, Inc. --><path d="M64 64C46.3 64 32 78.3 32 96v64c0 17.7 14.3 32 32 32H448c17.7 0 32-14.3 32-32V96c0-17.7-14.3-32-32-32H64zM0 96C0 60.7 28.7 32 64 32H448c35.3 0 64 28.7 64 64v64c0 35.3-28.7 64-64 64H64c-35.3 0-64-28.7-64-64V96zM64 320c-17.7 0-32 14.3-32 32v64c0 17.7 14.3 32 32 32H448c17.7 0 32-14.3 32-32V352c0-17.7-14.3-32-32-32H64zM0 352c0-35.3 28.7-64 64-64H448c35.3 0 64 28.7 64 64v64c0 35.3-28.7 64-64 64H64c-35.3 0-64-28.7-64-64V352zm304 32a24 24 0 1 1 48 0 24 24 0 1 1 -48 0zm24-280a24 24 0 1 1 0 48 24 24 0 1 1 0-48zm56 280a24 24 0 1 1 48 0 24 24 0 1 1 -48 0zm24-280a24 24 0 1 1 0 48 24 24 0 1 1 0-48z"/></svg>