<svg xmlns="http://www.w3.org/2000/svg" viewBox="0 0 640 512"><!--! Font Awesome Pro 6.4.0 by @fontawesome - https://fontawesome.com License - https://fontawesome.com/license (Commercial License) Copyright 2023 Fonticons, Inc. --><path d="M16 0c8.8 0 16 7.2 16 16V160H608V16c0-8.8 7.2-16 16-16s16 7.2 16 16V176 432v64c0 8.8-7.2 16-16 16s-16-7.2-16-16V448H32v48c0 8.8-7.2 16-16 16s-16-7.2-16-16V432 176 16C0 7.2 7.2 0 16 0zM32 416H608V192H32V416zM448 32H384V96h64V32zM384 0h64c17.7 0 32 14.3 32 32V96c0 17.7-14.3 32-32 32H384c-17.7 0-32-14.3-32-32V32c0-17.7 14.3-32 32-32zM128 288v64h64V288H128zm-32 0c0-17.7 14.3-32 32-32h64c17.7 0 32 14.3 32 32v64c0 17.7-14.3 32-32 32H128c-17.7 0-32-14.3-32-32V288zm192 0v64h64V288H288zm-32 0c0-17.7 14.3-32 32-32h64c17.7 0 32 14.3 32 32v64c0 17.7-14.3 32-32 32H288c-17.7 0-32-14.3-32-32V288z"/></svg>