<svg xmlns="http://www.w3.org/2000/svg" viewBox="0 0 576 512"><!--! Font Awesome Pro 6.4.0 by @fontawesome - https://fontawesome.com License - https://fontawesome.com/license (Commercial License) Copyright 2023 Fonticons, Inc. --><path d="M240 0c-26.5 0-48 21.5-48 48V64H144c-26.5 0-48 21.5-48 48V237.3L62.7 248.1C27.9 259.3 18 303.8 44.6 328.8l88.4 82.9c6.4 6 16.6 5.7 22.6-.7s5.7-16.6-.7-22.6L66.5 305.4c-8.9-8.3-5.6-23.1 6-26.9L272 214V384c0 8.8 7.2 16 16 16s16-7.2 16-16V214l199.5 64.5c11.6 3.8 14.9 18.6 6 26.9l-88.4 82.9c-6.4 6-6.8 16.2-.7 22.6s16.2 6.8 22.6 .7l88.4-82.9c26.7-25 16.7-69.4-18.1-80.7L480 237.3V112c0-26.5-21.5-48-48-48H384V48c0-26.5-21.5-48-48-48H240zM352 64H224V48c0-8.8 7.2-16 16-16h96c8.8 0 16 7.2 16 16V64zM192 96h16H368h16 48c8.8 0 16 7.2 16 16V226.9L302.8 180c-9.6-3.1-19.9-3.1-29.6 0L128 226.9V112c0-8.8 7.2-16 16-16h48zM133.8 458.8c-9.7-6.6-18-14-25.9-21.9c-6.6-6.5-17.2-6.5-23.8 0c-7.9 7.9-16.1 15.2-25.9 21.9c-12.8 8.7-28.1 16.6-44 19.8C6.4 480.1 0 486.4 0 494.2c0 9.8 8 17.9 17.7 16.2c23.1-4 43.6-15 58.5-25.2c7.9-5.4 14.6-10.8 19.8-15.3c5.1 4.5 11.9 9.9 19.8 15.3C134.4 497.9 161.7 512 192 512s57.5-14.1 76.2-26.8c7.9-5.4 14.6-10.8 19.8-15.3c5.1 4.5 11.9 9.9 19.8 15.3C326.4 497.9 353.7 512 384 512s57.5-14.1 76.2-26.8c7.9-5.4 14.6-10.8 19.8-15.3c5.1 4.5 11.9 9.9 19.8 15.3c15 10.2 35.4 21.2 58.5 25.2c9.7 1.7 17.7-6.4 17.7-16.2c0-7.9-6.4-14.1-14.1-15.7c-16-3.1-31.3-11.1-44.1-19.8c-9.8-6.7-18-14-26-21.9c-6.6-6.5-17.2-6.5-23.7 0c-7.9 7.9-16.1 15.2-25.9 21.9C425.6 470 404.9 480 384 480s-41.7-9.9-58.2-21.2c-9.8-6.7-18-14-26-21.9c-6.6-6.5-17.2-6.5-23.7 0c-7.9 7.9-16.1 15.2-25.9 21.9C233.6 470 212.9 480 192 480s-41.7-9.9-58.2-21.2z"/></svg>