<svg xmlns="http://www.w3.org/2000/svg" viewBox="0 0 384 512"><!--! Font Awesome Pro 6.4.0 by @fontawesome - https://fontawesome.com License - https://fontawesome.com/license (Commercial License) Copyright 2023 Fonticons, Inc. --><path d="M80 0c8.8 0 16 7.2 16 16V64c0 53 43 96 96 96s96-43 96-96V16c0-8.8 7.2-16 16-16s16 7.2 16 16c0 134.3 29.3 192.6 45.6 214.6c8.9 12 18.4 28.6 18.4 47.6V456c0 30.9-25.1 56-56 56H56c-30.9 0-56-25.1-56-56V278.2c0-19 9.5-35.7 18.4-47.6C34.7 208.6 64 150.3 64 16C64 7.2 71.2 0 80 0zM44.1 249.6c-7.6 10.2-12.1 20-12.1 28.6V396.3L310.6 195l1.4-1c-5.5-15.9-10.5-34.9-14.6-57.5C274.4 170 235.8 192 192 192s-82.4-22-105.5-55.5c-10.7 59.8-28.4 94.1-42.4 113.1zM32 435.7V456c0 13.3 10.7 24 24 24H328c13.3 0 24-10.7 24-24V278.2c0-8.6-4.6-18.4-12.1-28.6c-4.8-6.5-10-14.7-15.2-25.2L41.4 429 32 435.7z"/></svg>