<svg xmlns="http://www.w3.org/2000/svg" viewBox="0 0 640 512"><!--! Font Awesome Pro 6.4.0 by @fontawesome - https://fontawesome.com License - https://fontawesome.com/license (Commercial License) Copyright 2023 Fonticons, Inc. --><path d="M211.4 0c-27.7 0-54.5 9.6-76 27.1L56.3 91.9 12.9 127.4c-13.7 11.2-15.7 31.4-4.5 45l70.9 86.7c11.2 13.7 31.4 15.7 45 4.5L160 234.4V456c0 30.9 25.1 56 56 56H424c30.9 0 56-25.1 56-56V234.4l35.6 29.1c13.7 11.2 33.8 9.2 45-4.5l70.9-86.7c11.2-13.7 9.2-33.8-4.5-45l-10.1 12.4 10.1-12.4L583.7 91.9 504.6 27.1C483.1 9.6 456.3 0 428.6 0h-6.3c-1.3 0-2.5 .1-3.7 .2c-.8-.1-1.7-.2-2.6-.2H224c-.9 0-1.7 .1-2.6 .2c-1.2-.1-2.4-.2-3.7-.2h-6.3zm40.7 32H387.9C378 60 351.3 80 320 80s-58-20-67.9-48zM155.7 51.9C171.4 39 191.1 32 211.4 32h6.3l0 0c0 0 .2 .1 .4 .3c.5 .4 1 1.2 1.3 2.2C231.1 79.1 271.7 112 320 112s88.9-32.9 100.6-77.5c.3-1 .8-1.8 1.3-2.2c.2-.2 .4-.2 .4-.3l0 0h6.3c20.3 0 40 7 55.7 19.9l79.2 64.8 43.3 35.5-70.9 86.7-43.3-35.5-18.4-15.1c-4.8-3.9-11.4-4.7-17-2.1s-9.1 8.3-9.1 14.5V456c0 13.3-10.7 24-24 24H216c-13.3 0-24-10.7-24-24V200.7c0-6.2-3.6-11.8-9.1-14.5s-12.2-1.8-17 2.1l-18.4 15.1-43.3 35.5L33.2 152.1l43.3-35.5 79.2-64.8z"/></svg>