<svg xmlns="http://www.w3.org/2000/svg" viewBox="0 0 640 512"><!--! Font Awesome Pro 6.4.0 by @fontawesome - https://fontawesome.com License - https://fontawesome.com/license (Commercial License) Copyright 2023 Fonticons, Inc. --><path d="M0 185.8C0 206.9 17.1 224 38.2 224H64V464c0 26.5 21.5 48 48 48H336c26.5 0 48-21.5 48-48V388.1L338.3 352H96V224h80.2l-40.5-32H80 38.2c-3.4 0-6.2-2.8-6.2-6.2c0-1 .3-2.1 .8-3l27.4-50.3L34.7 112.3 4.7 167.4C1.6 173.1 0 179.4 0 185.8zM139.6 32h376c5.9 0 11.2 3.2 14 8.3l77.7 142.4c.5 .9 .8 1.9 .8 3c0 3.4-2.8 6.2-6.2 6.2H560 342.2l40.5 32H544V351.3l32 25.3V224h25.8c21.1 0 38.2-17.1 38.2-38.2c0-6.4-1.6-12.7-4.7-18.3L557.6 25C549.2 9.6 533.1 0 515.5 0h-391c-7 0-13.8 1.5-20 4.3l35 27.7zM96 464V384H352v80c0 8.8-7.2 16-16 16H112c-8.8 0-16-7.2-16-16zM25.9 3.4C19-2 8.9-.8 3.4 6.1S-.8 23.1 6.1 28.6l608 480c6.9 5.5 17 4.3 22.5-2.6s4.3-17-2.6-22.5L25.9 3.4z"/></svg>