<svg xmlns="http://www.w3.org/2000/svg" viewBox="0 0 512 512"><!--! Font Awesome Pro 6.4.0 by @fontawesome - https://fontawesome.com License - https://fontawesome.com/license (Commercial License) Copyright 2023 Fonticons, Inc. --><path d="M96 64V192H416V90.5c0-8.5-3.4-16.6-9.4-22.6L380.1 41.4c-6-6-14.1-9.4-22.6-9.4H128c-17.7 0-32 14.3-32 32zM64 192V64C64 28.7 92.7 0 128 0H357.5c17 0 33.3 6.7 45.3 18.7l26.5 26.5c12 12 18.7 28.3 18.7 45.3V192c35.3 0 64 28.7 64 64v96c0 17.7-14.3 32-32 32H32c-17.7 0-32-14.3-32-32V256c0-35.3 28.7-64 64-64zm0 32c-17.7 0-32 14.3-32 32v96H480V256c0-17.7-14.3-32-32-32H64zm344 48a24 24 0 1 1 48 0 24 24 0 1 1 -48 0zM96 496V416h32v80c0 8.8-7.2 16-16 16s-16-7.2-16-16zm96 0V416h32v80c0 8.8-7.2 16-16 16s-16-7.2-16-16zm96 0V416h32v80c0 8.8-7.2 16-16 16s-16-7.2-16-16zm96 0V416h32v80c0 8.8-7.2 16-16 16s-16-7.2-16-16z"/></svg>