<svg xmlns="http://www.w3.org/2000/svg" viewBox="0 0 512 512"><!--! Font Awesome Pro 6.4.0 by @fontawesome - https://fontawesome.com License - https://fontawesome.com/license (Commercial License) Copyright 2023 Fonticons, Inc. --><path d="M32 32C14.3 32 0 46.3 0 64V96c0 17.7 14.3 32 32 32H480c17.7 0 32-14.3 32-32V64c0-17.7-14.3-32-32-32H32zm0 32H480V96H32V64zM.9 453c-.6 2-.9 4.1-.9 6.1C0 470.7 9.3 480 20.9 480H491.1c11.5 0 20.9-9.3 20.9-20.9c0-2.1-.3-4.1-.9-6.1l-21.2-69H456.4l19.7 64H35.9l19.7-64H22.2L.9 453zM22.2 256L.9 325c-.6 2-.9 4.1-.9 6.1C0 342.7 9.3 352 20.9 352H491.1c11.5 0 20.9-9.3 20.9-20.9c0-2.1-.3-4.1-.9-6.1l-21.2-69H456.4l19.7 64H35.9l19.7-64H22.2zm453.9-64H35.9l9.8-32H12.3L.9 197c-.6 2-.9 4.1-.9 6.1C0 214.7 9.3 224 20.9 224H491.1c11.5 0 20.9-9.3 20.9-20.9c0-2.1-.3-4.1-.9-6.1l-11.4-37H466.2l9.8 32z"/></svg>