<svg xmlns="http://www.w3.org/2000/svg" viewBox="0 0 640 512"><!--! Font Awesome Pro 6.4.0 by @fontawesome - https://fontawesome.com License - https://fontawesome.com/license (Commercial License) Copyright 2023 Fonticons, Inc. --><path d="M416 464c0 8.8-7.2 16-16 16s-16-7.2-16-16V176c0-8.8 7.2-16 16-16s16 7.2 16 16V464zM400 128c-26.5 0-48 21.5-48 48V464c0 26.5 21.5 48 48 48s48-21.5 48-48V176c0-26.5-21.5-48-48-48zM256 464c0 8.8-7.2 16-16 16s-16-7.2-16-16V304c0-8.8 7.2-16 16-16s16 7.2 16 16V464zM240 256c-26.5 0-48 21.5-48 48V464c0 26.5 21.5 48 48 48s48-21.5 48-48V304c0-26.5-21.5-48-48-48zM96 432v32c0 8.8-7.2 16-16 16s-16-7.2-16-16V432c0-8.8 7.2-16 16-16s16 7.2 16 16zm-64 0v32c0 26.5 21.5 48 48 48s48-21.5 48-48V432c0-26.5-21.5-48-48-48s-48 21.5-48 48z"/></svg>