<svg xmlns="http://www.w3.org/2000/svg" viewBox="0 0 640 512"><!--! Font Awesome Pro 6.4.0 by @fontawesome - https://fontawesome.com License - https://fontawesome.com/license (Commercial License) Copyright 2023 Fonticons, Inc. --><path d="M64 128c0-35.3 28.7-64 64-64s64 28.7 64 64v3.4c0 26.2-2.4 52.3-7.2 78L59 243.7c-34.8 9.5-59 41.1-59 77.2v92.6C0 450.2 29.8 480 66.5 480c24 0 46.2-13 57.9-33.9L151.5 398c20.9-37.1 37.2-76.5 48.5-117.5l7.2-25.7c1.8-6.5 3.5-13 5-19.6l125.5-34.2-48 96c-2.5 5-2.2 10.9 .7 15.6s8.1 7.6 13.6 7.6h88.6c5.6-9.7 13.7-17.8 23.4-23.4V288H329.9l52.4-104.8c2.8-5.6 2.1-12.4-1.9-17.3s-10.5-7-16.6-5.3L218.8 200.1c3.4-22.7 5.2-45.7 5.2-68.7V128c0-53-43-96-96-96s-96 43-96 96v48c0 8.8 7.2 16 16 16s16-7.2 16-16V128zM240 384c-8.8 0-16 7.2-16 16s7.2 16 16 16H384V384H240zM67.4 274.6l109.4-29.8-.4 1.4-7.2 25.7c-10.7 38.5-26 75.6-45.6 110.4L96.5 430.4C90.4 441.3 78.9 448 66.5 448c-19 0-34.5-15.4-34.5-34.5V320.9c0-21.6 14.5-40.6 35.4-46.3zM528 224c26.5 0 48 21.5 48 48v48H480V272c0-26.5 21.5-48 48-48zm-80 48v48c-17.7 0-32 14.3-32 32V480c0 17.7 14.3 32 32 32H608c17.7 0 32-14.3 32-32V352c0-17.7-14.3-32-32-32V272c0-44.2-35.8-80-80-80s-80 35.8-80 80zm160 80V480H448V352H608z"/></svg>