<svg xmlns="http://www.w3.org/2000/svg" viewBox="0 0 640 512"><!--! Font Awesome Pro 6.4.0 by @fontawesome - https://fontawesome.com License - https://fontawesome.com/license (Commercial License) Copyright 2023 Fonticons, Inc. --><path d="M448 176c0-26.5-21.5-48-48-48s-48 21.5-48 48v23.7L384 225V176c0-8.8 7.2-16 16-16s16 7.2 16 16v74.2l32 25.3V176zM384 464V388.1l-32-25.3V464c0 26.5 21.5 48 48 48s48-21.5 48-48V438.6l-32-25.3V464c0 8.8-7.2 16-16 16s-16-7.2-16-16zM288 312.3l-66.6-52.6C204.1 267 192 284.1 192 304V464c0 26.5 21.5 48 48 48s48-21.5 48-48V312.3zm256 39V48c0-8.8 7.2-16 16-16s16 7.2 16 16V376.6l32 25.3V48c0-26.5-21.5-48-48-48s-48 21.5-48 48V326l32 25.3zM256 304V464c0 8.8-7.2 16-16 16s-16-7.2-16-16V304c0-8.8 7.2-16 16-16s16 7.2 16 16zM96 432v32c0 8.8-7.2 16-16 16s-16-7.2-16-16V432c0-8.8 7.2-16 16-16s16 7.2 16 16zm-64 0v32c0 26.5 21.5 48 48 48s48-21.5 48-48V432c0-26.5-21.5-48-48-48s-48 21.5-48 48zM25.9 3.4C19-2 8.9-.8 3.4 6.1S-.8 23.1 6.1 28.6l608 480c6.9 5.5 17 4.3 22.5-2.6s4.3-17-2.6-22.5L25.9 3.4z"/></svg>