<svg xmlns="http://www.w3.org/2000/svg" viewBox="0 0 512 512"><!--! Font Awesome Pro 6.4.0 by @fontawesome - https://fontawesome.com License - https://fontawesome.com/license (Commercial License) Copyright 2023 Fonticons, Inc. --><path d="M80 0c8.8 0 16 7.2 16 16V64l400 0c8.8 0 16 7.2 16 16s-7.2 16-16 16L96 96V496c0 8.8-7.2 16-16 16s-16-7.2-16-16V96H16C7.2 96 0 88.8 0 80s7.2-16 16-16l48 0V16C64 7.2 71.2 0 80 0zm80 160l0 192H448V160H160zm-32 0c0-17.7 14.3-32 32-32H448c17.7 0 32 14.3 32 32V352c0 17.7-14.3 32-32 32H160c-17.7 0-32-14.3-32-32V160z"/></svg>