<svg xmlns="http://www.w3.org/2000/svg" viewBox="0 0 448 512"><!--! Font Awesome Pro 6.4.0 by @fontawesome - https://fontawesome.com License - https://fontawesome.com/license (Commercial License) Copyright 2023 Fonticons, Inc. --><path d="M112 368c0 17.7 14.3 32 32 32H384c17.7 0 32-14.3 32-32V154.5c0-8.5-3.4-16.6-9.4-22.6L316.1 41.4c-6-6-14.1-9.4-22.6-9.4H144c-17.7 0-32 14.3-32 32V368zM80 64c0-35.3 28.7-64 64-64H293.5c17 0 33.3 6.7 45.3 18.7l90.5 90.5c12 12 18.7 28.3 18.7 45.3V368c0 35.3-28.7 64-64 64H144c-35.3 0-64-28.7-64-64V64zM16 96c8.8 0 16 7.2 16 16V384c0 53 43 96 96 96H368c8.8 0 16 7.2 16 16s-7.2 16-16 16H128C57.3 512 0 454.7 0 384V112c0-8.8 7.2-16 16-16zm160 96v16h48V176H192c-8.8 0-16 7.2-16 16zm120 16h56V192c0-8.8-7.2-16-16-16H296 256v32h40zm0 32H240 176v32h56 40 80V240H296zm-8 64v32h48c8.8 0 16-7.2 16-16V304H288zm-56 0H176v16c0 8.8 7.2 16 16 16h40 24V304H232zM192 144h48 56 40c26.5 0 48 21.5 48 48v32 64 32c0 26.5-21.5 48-48 48H272 232 192c-26.5 0-48-21.5-48-48V288 224 192c0-26.5 21.5-48 48-48z"/></svg>