<svg xmlns="http://www.w3.org/2000/svg" viewBox="0 0 448 512"><!--! Font Awesome Pro 6.4.0 by @fontawesome - https://fontawesome.com License - https://fontawesome.com/license (Commercial License) Copyright 2023 Fonticons, Inc. --><path d="M363.8 320H396L375 152.1C371 120 343.8 96 311.5 96h-175C104.2 96 77 120 73 152.1L52 320H84.2l20.5-164c2-16 15.6-28 31.8-28h175c16.1 0 29.8 12 31.8 28l20.5 164zm-185.6 0l13.8-110c1.1-8.8-5.1-16.8-13.9-17.9s-16.8 5.1-17.9 13.9L145.9 320h32.2zM48 384H400c8.8 0 16 7.2 16 16v32c0 8.8-7.2 16-16 16H48c-8.8 0-16-7.2-16-16V400c0-8.8 7.2-16 16-16zM0 400v32c0 26.5 21.5 48 48 48H400c26.5 0 48-21.5 48-48V400c0-26.5-21.5-48-48-48H48c-26.5 0-48 21.5-48 48z"/></svg>