<svg xmlns="http://www.w3.org/2000/svg" viewBox="0 0 640 512"><!--! Font Awesome Pro 6.4.0 by @fontawesome - https://fontawesome.com License - https://fontawesome.com/license (Commercial License) Copyright 2023 Fonticons, Inc. --><path d="M415.6 19.4c1.9-8.6-3.7-17.1-12.3-19s-17.1 3.7-19 12.3L380.2 32H168c-7.6 0-14.2 5.3-15.7 12.8L88.2 358.4c-6.1 29.8 16.7 57.6 47 57.6H432c26.5 0 48-21.5 48-48V315.8c0-18.2-10.3-34.8-26.5-42.9l-83.2-41.6L415.6 19.4zM279.2 64h94.2l-20.6 96c-.3 0-.5 0-.8 0H304c-8.8 0-16 7.2-16 16s7.2 16 16 16h41.9l-6.9 32H288c-8.8 0-16 7.2-16 16s7.2 16 16 16h60.2l90.9 45.5c5.4 2.7 8.8 8.3 8.8 14.3V368c0 8.8-7.2 16-16 16H135.2c-10.1 0-17.7-9.3-15.7-19.2l25.2-123.3c43.6-20 107.6-67.2 134.4-177.5zm-33 0c-20.3 76-60 115.7-93 136.6L181.1 64h65.1zM640 416c0-8.8-7.2-16-16-16s-16 7.2-16 16c0 35.3-28.7 64-64 64H16c-8.8 0-16 7.2-16 16s7.2 16 16 16H544c53 0 96-43 96-96z"/></svg>