<svg xmlns="http://www.w3.org/2000/svg" viewBox="0 0 512 512"><!--! Font Awesome Pro 6.4.0 by @fontawesome - https://fontawesome.com License - https://fontawesome.com/license (Commercial License) Copyright 2023 Fonticons, Inc. --><path d="M96 0c8.8 0 16 7.2 16 16V81.6c36.5 7.4 64 39.7 64 78.4s-27.5 71-64 78.4V496c0 8.8-7.2 16-16 16s-16-7.2-16-16V238.4C43.5 231 16 198.7 16 160s27.5-71 64-78.4V16C80 7.2 87.2 0 96 0zm0 208a48 48 0 1 0 0-96 48 48 0 1 0 0 96zM256 400a48 48 0 1 0 0-96 48 48 0 1 0 0 96zm80-48c0 38.7-27.5 71-64 78.4V496c0 8.8-7.2 16-16 16s-16-7.2-16-16V430.4c-36.5-7.4-64-39.7-64-78.4s27.5-71 64-78.4V16c0-8.8 7.2-16 16-16s16 7.2 16 16V273.6c36.5 7.4 64 39.7 64 78.4zM464 192a48 48 0 1 0 -96 0 48 48 0 1 0 96 0zm-32 78.4V496c0 8.8-7.2 16-16 16s-16-7.2-16-16V270.4c-36.5-7.4-64-39.7-64-78.4s27.5-71 64-78.4V16c0-8.8 7.2-16 16-16s16 7.2 16 16v97.6c36.5 7.4 64 39.7 64 78.4s-27.5 71-64 78.4z"/></svg>