<svg xmlns="http://www.w3.org/2000/svg" viewBox="0 0 640 512"><!--! Font Awesome Pro 6.4.0 by @fontawesome - https://fontawesome.com License - https://fontawesome.com/license (Commercial License) Copyright 2023 Fonticons, Inc. --><path d="M416 416v32c0 17.7-14.3 32-32 32H128c-17.7 0-32-14.3-32-32V416H416zm23.4 64c5.4-9.4 8.6-20.3 8.6-32V416c35.3 0 64-28.7 64-64V160c0-35.3-28.7-64-64-64V64c0-35.3-28.7-64-64-64H128C92.7 0 64 28.7 64 64V96C28.7 96 0 124.7 0 160V352c0 35.3 28.7 64 64 64v32c0 35.3 28.7 64 64 64H384 528c44.2 0 80-35.8 80-80V221.3c18.6-6.6 32-24.4 32-45.3c0-26.5-21.5-48-48-48s-48 21.5-48 48c0 20.9 13.4 38.7 32 45.3V432c0 26.5-21.5 48-48 48H439.4zM576 176a16 16 0 1 1 32 0 16 16 0 1 1 -32 0zM416 64V96H96V64c0-17.7 14.3-32 32-32l256 0c17.7 0 32 14.3 32 32zm32 64c17.7 0 32 14.3 32 32V352c0 17.7-14.3 32-32 32H64c-17.7 0-32-14.3-32-32V160c0-17.7 14.3-32 32-32H448zM112 176c-8.8 0-16 7.2-16 16s7.2 16 16 16h40.9L113 314.4c-3.1 8.3 1.1 17.5 9.4 20.6s17.5-1.1 20.6-9.4l48-128c1.8-4.9 1.2-10.4-1.8-14.7s-7.9-6.9-13.2-6.9H112zm120 0c-8.8 0-16 7.2-16 16s7.2 16 16 16h40.9L233 314.4c-3.1 8.3 1.1 17.5 9.4 20.6s17.5-1.1 20.6-9.4l48-128c1.8-4.9 1.2-10.4-1.8-14.7s-7.9-6.9-13.2-6.9H232zm120 0c-8.8 0-16 7.2-16 16s7.2 16 16 16h40.9L353 314.4c-3.1 8.3 1.1 17.5 9.4 20.6s17.5-1.1 20.6-9.4l48-128c1.8-4.9 1.2-10.4-1.8-14.7s-7.9-6.9-13.2-6.9H352z"/></svg>