<svg xmlns="http://www.w3.org/2000/svg" viewBox="0 0 640 512"><!--! Font Awesome Pro 6.4.0 by @fontawesome - https://fontawesome.com License - https://fontawesome.com/license (Commercial License) Copyright 2023 Fonticons, Inc. --><path d="M128 32c0-17.7 14.3-32 32-32H298.9c19.2 0 36.6 11.4 44.1 29.1l85.1 198.6c2.6 6 3.9 12.4 3.9 18.9V288h96V240c0-3.7 1.3-7.4 3.7-10.2l80-96c5.7-6.8 15.7-7.7 22.5-2s7.7 15.7 2 22.5L560 245.8V394.2l76.3 91.5c5.7 6.8 4.7 16.9-2 22.5s-16.9 4.7-22.5-2l-80-96c-2.4-2.9-3.7-6.5-3.7-10.2V320H446.4c20.7 20.3 33.6 48.7 33.6 80c0 61.9-50.1 112-112 112H112C50.1 512 0 461.9 0 400c0-44.7 26.2-83.2 64-101.2V168c0-22.1 17.9-40 40-40h24V32zM400 256H208c-5.3 0-10.3-2.7-13.3-7.1L135.4 160H104c-4.4 0-8 3.6-8 8V289.1c5.2-.7 10.6-1.1 16-1.1H368c11.1 0 21.9 1.6 32 4.6V256zM160 139.2L216.6 224H391.7L313.6 41.7c-2.5-5.9-8.3-9.7-14.7-9.7H160V139.2zM368 320H112c-44.2 0-80 35.8-80 80s35.8 80 80 80H368c44.2 0 80-35.8 80-80s-35.8-80-80-80zM120 376a24 24 0 1 1 0 48 24 24 0 1 1 0-48zm56 24a24 24 0 1 1 48 0 24 24 0 1 1 -48 0zm104-24a24 24 0 1 1 0 48 24 24 0 1 1 0-48zm56 24a24 24 0 1 1 48 0 24 24 0 1 1 -48 0z"/></svg>