<svg xmlns="http://www.w3.org/2000/svg" viewBox="0 0 320 512"><!--! Font Awesome Pro 6.4.0 by @fontawesome - https://fontawesome.com License - https://fontawesome.com/license (Commercial License) Copyright 2023 Fonticons, Inc. --><path d="M34.2 179.7L154.4 66.2c1.4-1.3 3.5-2.2 5.6-2.2s4.2 .8 5.6 2.2L285.8 179.7c1.4 1.3 2.2 3.2 2.2 5.2c0 3.9-3.2 7.1-7.1 7.1H39.1c-3.9 0-7.1-3.2-7.1-7.1c0-2 .8-3.8 2.2-5.2zm-22-23.3C4.4 163.8 0 174.1 0 184.9C0 206.5 17.5 224 39.1 224H280.9c21.6 0 39.1-17.5 39.1-39.1c0-10.8-4.4-21.1-12.3-28.4L187.6 42.9C180.1 35.9 170.2 32 160 32s-20.1 3.9-27.6 10.9L12.3 156.4zm22 175.9c-1.4-1.3-2.2-3.2-2.2-5.2c0-3.9 3.2-7.1 7.1-7.1H280.9c3.9 0 7.1 3.2 7.1 7.1c0 2-.8 3.8-2.2 5.2L165.6 445.8c-1.4 1.3-3.5 2.2-5.6 2.2s-4.2-.8-5.6-2.2L34.2 332.3zm-22 23.3L132.4 469.1c7.4 7 17.4 10.9 27.6 10.9s20.1-3.9 27.6-10.9L307.7 355.6c7.8-7.4 12.3-17.7 12.3-28.5c0-21.6-17.5-39.1-39.1-39.1H39.1C17.5 288 0 305.5 0 327.1c0 10.8 4.4 21.1 12.3 28.5z"/></svg>