<svg xmlns="http://www.w3.org/2000/svg" viewBox="0 0 640 512"><!--! Font Awesome Pro 6.4.0 by @fontawesome - https://fontawesome.com License - https://fontawesome.com/license (Commercial License) Copyright 2023 Fonticons, Inc. --><path d="M256 257.6V336v78.4c-20.3 20.7-48.7 33.6-80 33.6c-61.9 0-112-50.1-112-112s50.1-112 112-112c31.3 0 59.7 12.9 80 33.6zm0 78.4A80 80 0 1 0 96 336a80 80 0 1 0 160 0zm5.5 144c4.2 11.9 10.7 22.8 19 32H64c-35.3 0-64-28.7-64-64V64C0 28.7 28.7 0 64 0H280.4c-8.3 9.2-14.8 20.1-19 32H64C46.3 32 32 46.3 32 64V448c0 17.7 14.3 32 32 32H261.5zM176 160a32 32 0 1 0 0-64 32 32 0 1 0 0 64zm0-96a64 64 0 1 1 0 128 64 64 0 1 1 0-128zM152 336a24 24 0 1 1 48 0 24 24 0 1 1 -48 0zM352 32c-17.7 0-32 14.3-32 32V448c0 17.7 14.3 32 32 32H576c17.7 0 32-14.3 32-32V64c0-17.7-14.3-32-32-32H352zM288 64c0-35.3 28.7-64 64-64H576c35.3 0 64 28.7 64 64V448c0 35.3-28.7 64-64 64H352c-35.3 0-64-28.7-64-64V64zm176 96a32 32 0 1 0 0-64 32 32 0 1 0 0 64zm0-96a64 64 0 1 1 0 128 64 64 0 1 1 0-128zm0 352a80 80 0 1 0 0-160 80 80 0 1 0 0 160zm0-192a112 112 0 1 1 0 224 112 112 0 1 1 0-224zM440 336a24 24 0 1 1 48 0 24 24 0 1 1 -48 0z"/></svg>