<svg xmlns="http://www.w3.org/2000/svg" viewBox="0 0 512 512"><!--! Font Awesome Pro 6.4.0 by @fontawesome - https://fontawesome.com License - https://fontawesome.com/license (Commercial License) Copyright 2023 Fonticons, Inc. --><path d="M404.7 36.7c6.2-6.2 16.4-6.2 22.6 0l80 80c6.2 6.2 6.2 16.4 0 22.6l-80 80c-6.2 6.2-16.4 6.2-22.6 0s-6.2-16.4 0-22.6L457.4 144H400 339.9c-8.5 0-16.6 3.4-22.6 9.4L214.6 256 317.3 358.6c6 6 14.1 9.4 22.6 9.4H400h57.4l-52.7-52.7c-6.2-6.2-6.2-16.4 0-22.6s16.4-6.2 22.6 0l80 80c6.2 6.2 6.2 16.4 0 22.6l-80 80c-6.2 6.2-16.4 6.2-22.6 0s-6.2-16.4 0-22.6L457.4 400H400 339.9c-17 0-33.3-6.7-45.3-18.7L190.1 276.7c-3-3-7.1-4.7-11.3-4.7H48 16c-8.8 0-16-7.2-16-16s7.2-16 16-16H48 178.7c4.2 0 8.3-1.7 11.3-4.7L294.6 130.7c12-12 28.3-18.7 45.3-18.7H400h57.4L404.7 59.3c-6.2-6.2-6.2-16.4 0-22.6z"/></svg>