<svg xmlns="http://www.w3.org/2000/svg" viewBox="0 0 448 512"><!--! Font Awesome Pro 6.4.0 by @fontawesome - https://fontawesome.com License - https://fontawesome.com/license (Commercial License) Copyright 2023 Fonticons, Inc. --><path d="M64 64C46.3 64 32 78.3 32 96V416c0 17.7 14.3 32 32 32H384c17.7 0 32-14.3 32-32V96c0-17.7-14.3-32-32-32H64zM0 96C0 60.7 28.7 32 64 32H384c35.3 0 64 28.7 64 64V416c0 35.3-28.7 64-64 64H64c-35.3 0-64-28.7-64-64V96zm171.2 48.1l-56 12c-1.8 .4-3.2 2-3.2 3.9c0 114.9 93.1 208 208 208c1.9 0 3.5-1.3 3.9-3.2l12-56c.4-1.9-.6-3.8-2.3-4.5l-56-24c-1.6-.7-3.5-.2-4.7 1.1l-16.6 20.3c-5 6.1-13.6 7.6-20.4 3.7c-25.4-14.7-46.6-35.9-61.4-61.4c-3.9-6.8-2.4-15.4 3.7-20.4l20.3-16.6c1.4-1.1 1.8-3 1.1-4.7l-24-56c-.8-1.8-2.6-2.7-4.5-2.3zm33.9-10.3l24 56c6.3 14.7 2.1 31.9-10.3 42l-9.2 7.5c8.6 11.9 19.1 22.4 31 31l7.5-9.2c10.2-12.4 27.3-16.6 42-10.3l56 24c15.8 6.8 24.6 23.8 21 40.6l-12 56C351.6 388.1 337 400 320 400C187.5 400 80 292.6 80 160c0-17 11.9-31.6 28.5-35.2l56-12c16.8-3.6 33.9 5.2 40.6 21z"/></svg>