<svg xmlns="http://www.w3.org/2000/svg" viewBox="0 0 576 512"><!--! Font Awesome Pro 6.4.0 by @fontawesome - https://fontawesome.com License - https://fontawesome.com/license (Commercial License) Copyright 2023 Fonticons, Inc. --><path d="M64 64H384c17.7 0 32 14.3 32 32v74.8c9.9-4.7 20.7-8 32-9.6V96c0-35.3-28.7-64-64-64H64C28.7 32 0 60.6 0 96V416c0 35.3 28.7 64 64 64H320V448H64c-17.7 0-32-14.3-32-32V96c0-17.7 14.3-32 32-32zm174.3 72.8c-2.7-5.4-8.3-8.8-14.3-8.8s-11.6 3.4-14.3 8.8l-112 224c-4 7.9-.7 17.5 7.2 21.5s17.5 .7 21.5-7.2L145.9 336H302.1L320 371.8V352c0-12.2 3.4-23.5 9.3-33.2l-91-181.9zM224 179.8L286.1 304H161.9L224 179.8zM464 224c26.5 0 48 21.5 48 48v48H416V272c0-26.5 21.5-48 48-48zm-80 48v48c-17.7 0-32 14.3-32 32V480c0 17.7 14.3 32 32 32H544c17.7 0 32-14.3 32-32V352c0-17.7-14.3-32-32-32V272c0-44.2-35.8-80-80-80s-80 35.8-80 80zm0 80H544V480H384V352z"/></svg>