<svg xmlns="http://www.w3.org/2000/svg" viewBox="0 0 448 512"><!--! Font Awesome Pro 6.4.0 by @fontawesome - https://fontawesome.com License - https://fontawesome.com/license (Commercial License) Copyright 2023 Fonticons, Inc. --><path d="M384 64c17.7 0 32 14.3 32 32V416c0 17.7-14.3 32-32 32H64c-17.7 0-32-14.3-32-32V96c0-17.7 14.3-32 32-32H384zM64 32C28.7 32 0 60.7 0 96V416c0 35.3 28.7 64 64 64H384c35.3 0 64-28.7 64-64V96c0-35.3-28.7-64-64-64H64zM208 286.4V232 216 200c0-22.1-17.9-40-40-40H136c-22.1 0-40 17.9-40 40v32c0 22.1 17.9 40 40 40h32c2.7 0 5.4-.3 8-.8v15.2c0 15.9-11.7 29.4-27.5 31.7l-14.8 2.1c-8.7 1.3-14.8 9.4-13.6 18.1s9.4 14.8 18.1 13.6l14.8-2.1c31.5-4.5 54.9-31.5 54.9-63.4zM176 232c0 4.4-3.6 8-8 8H136c-4.4 0-8-3.6-8-8V200c0-4.4 3.6-8 8-8h32c4.4 0 8 3.6 8 8v16 16zm176 0V216 200c0-22.1-17.9-40-40-40H280c-22.1 0-40 17.9-40 40v32c0 22.1 17.9 40 40 40h32c2.7 0 5.4-.3 8-.8v15.2c0 15.9-11.7 29.4-27.5 31.7l-14.8 2.1c-8.7 1.3-14.8 9.4-13.6 18.1s9.4 14.8 18.1 13.6l14.8-2.1c31.5-4.5 54.9-31.5 54.9-63.4V232zm-32-16v16c0 4.4-3.6 8-8 8H280c-4.4 0-8-3.6-8-8V200c0-4.4 3.6-8 8-8h32c4.4 0 8 3.6 8 8v16z"/></svg>