<svg xmlns="http://www.w3.org/2000/svg" viewBox="0 0 448 512"><!--! Font Awesome Pro 6.4.0 by @fontawesome - https://fontawesome.com License - https://fontawesome.com/license (Commercial License) Copyright 2023 Fonticons, Inc. --><path d="M384 64c17.7 0 32 14.3 32 32V416c0 17.7-14.3 32-32 32H64c-17.7 0-32-14.3-32-32V96c0-17.7 14.3-32 32-32H384zm64 32c0-35.3-28.7-64-64-64H64C28.7 32 0 60.7 0 96V416c0 35.3 28.7 64 64 64H384c35.3 0 64-28.7 64-64V96zM276.8 144.1l56 12c1.8 .4 3.2 2 3.2 3.9c0 114.9-93.1 208-208 208c-1.9 0-3.5-1.3-3.9-3.2l-12-56c-.4-1.9 .6-3.8 2.3-4.5l56-24c1.6-.7 3.5-.2 4.7 1.1l16.6 20.3c5 6.1 13.6 7.6 20.4 3.7c25.4-14.7 46.6-35.9 61.4-61.4c3.9-6.8 2.4-15.4-3.7-20.4l-20.3-16.6c-1.4-1.1-1.8-3-1.1-4.7l24-56c.8-1.8 2.6-2.7 4.5-2.3zm-33.9-10.3l-24 56c-6.3 14.7-2.1 31.9 10.3 42l9.2 7.5c-8.6 11.9-19.1 22.4-31 31l-7.5-9.2c-10.2-12.4-27.3-16.6-42-10.3l-56 24c-15.8 6.8-24.6 23.8-21 40.6l12 56C96.4 388.1 111 400 128 400c132.5 0 240-107.4 240-240c0-17-11.9-31.6-28.5-35.2l-56-12c-16.8-3.6-33.9 5.2-40.6 21z"/></svg>