<svg xmlns="http://www.w3.org/2000/svg" viewBox="0 0 448 512"><!--! Font Awesome Pro 6.4.0 by @fontawesome - https://fontawesome.com License - https://fontawesome.com/license (Commercial License) Copyright 2023 Fonticons, Inc. --><path d="M64 64C46.3 64 32 78.3 32 96V416c0 17.7 14.3 32 32 32H384c17.7 0 32-14.3 32-32V96c0-17.7-14.3-32-32-32H64zM0 96C0 60.7 28.7 32 64 32H384c35.3 0 64 28.7 64 64V416c0 35.3-28.7 64-64 64H64c-35.3 0-64-28.7-64-64V96zm144 32v80c0 44.2 35.8 80 80 80s80-35.8 80-80V128H230.6l20.7 20.7c3.4 3.4 5.1 8.1 4.6 12.9s-3.1 9.1-7 11.7l-30.2 20.1 31.5 26.3c6.8 5.7 7.7 15.7 2 22.5s-15.7 7.7-22.5 2l-48-40c-3.9-3.2-6-8.1-5.7-13.1s2.9-9.7 7.1-12.5l31.8-21.2L185.4 128H144zm-1.1-32H305.1c17.1 0 30.9 13.8 30.9 30.9V208c0 56.4-41.7 103.1-96 110.9V384h32c8.8 0 16 7.2 16 16s-7.2 16-16 16H176c-8.8 0-16-7.2-16-16s7.2-16 16-16h32V318.9c-54.3-7.8-96-54.4-96-110.9V126.9c0-17.1 13.8-30.9 30.9-30.9z"/></svg>