<svg xmlns="http://www.w3.org/2000/svg" viewBox="0 0 448 512"><!--! Font Awesome Pro 6.4.0 by @fontawesome - https://fontawesome.com License - https://fontawesome.com/license (Commercial License) Copyright 2023 Fonticons, Inc. --><path d="M64 64C46.3 64 32 78.3 32 96V416c0 17.7 14.3 32 32 32H384c17.7 0 32-14.3 32-32V96c0-17.7-14.3-32-32-32H64zM0 96C0 60.7 28.7 32 64 32H384c35.3 0 64 28.7 64 64V416c0 35.3-28.7 64-64 64H64c-35.3 0-64-28.7-64-64V96zm176 32H288c8.8 0 16 7.2 16 16s-7.2 16-16 16H188.5L172 225.9l80.4 8.1c38.4 3.9 67.6 36.2 67.6 74.8c0 41.5-33.7 75.2-75.2 75.2h-44c-27.4 0-53-13.7-68.3-36.4l-1.8-2.7c-4.9-7.3-3-17.3 4.4-22.2s17.3-3 22.2 4.4l1.8 2.7c9.3 13.9 25 22.3 41.8 22.3h44c23.8 0 43.2-19.3 43.2-43.2c0-22.2-16.8-40.7-38.8-42.9l-98.8-10c-4.6-.5-8.8-2.9-11.5-6.7s-3.6-8.6-2.4-13.1l24-96c1.8-7.1 8.2-12.1 15.5-12.1z"/></svg>