<svg xmlns="http://www.w3.org/2000/svg" viewBox="0 0 448 512"><!--! Font Awesome Pro 6.4.0 by @fontawesome - https://fontawesome.com License - https://fontawesome.com/license (Commercial License) Copyright 2023 Fonticons, Inc. --><path d="M384 64c17.7 0 32 14.3 32 32V416c0 17.7-14.3 32-32 32c0-70.7-57.3-128-128-128H192c-70.7 0-128 57.3-128 128c-17.7 0-32-14.3-32-32V96c0-17.7 14.3-32 32-32H384zM352 448H96c0-53 43-96 96-96h64c53 0 96 43 96 96zM64 32C28.7 32 0 60.7 0 96V416c0 35.3 28.7 64 64 64H384c35.3 0 64-28.7 64-64V96c0-35.3-28.7-64-64-64H64zM224 256a48 48 0 1 1 0-96 48 48 0 1 1 0 96zm-80-48a80 80 0 1 0 160 0 80 80 0 1 0 -160 0z"/></svg>