<svg xmlns="http://www.w3.org/2000/svg" viewBox="0 0 448 512"><!--! Font Awesome Pro 6.4.0 by @fontawesome - https://fontawesome.com License - https://fontawesome.com/license (Commercial License) Copyright 2023 Fonticons, Inc. --><path d="M64 64C46.3 64 32 78.3 32 96V416c0 17.7 14.3 32 32 32H384c17.7 0 32-14.3 32-32V96c0-17.7-14.3-32-32-32H64zM0 96C0 60.7 28.7 32 64 32H384c35.3 0 64 28.7 64 64V416c0 35.3-28.7 64-64 64H64c-35.3 0-64-28.7-64-64V96zm144 88V297.4c0 3.7 3 6.6 6.6 6.6c1.8 0 3.4-.7 4.7-1.9l25.4-25.4c6.2-6.2 16.4-6.2 22.6 0l59.1 59.1c3.6 3.6 9 4.9 13.9 3.3c2-.7 3.8-1.8 5.3-3.3l22.1-22.1c1.5-1.5 2.6-3.3 3.3-5.3c1.6-4.9 .4-10.3-3.3-13.9l-59.1-59.1c-6.2-6.2-6.2-16.4 0-22.6l25.4-25.4c1.2-1.2 1.9-2.9 1.9-4.7c0-3.7-3-6.6-6.6-6.6H152c-4.4 0-8 3.6-8 8zm8-40H265.4c21.3 0 38.6 17.3 38.6 38.6c0 10.2-4.1 20.1-11.3 27.3L278.6 224l47.7 47.7c12.2 12.2 16.5 30.3 11 46.7c-2.2 6.7-6 12.8-11 17.8l-22.1 22.1c-5 5-11.1 8.8-17.8 11c-16.4 5.5-34.5 1.2-46.7-11L192 310.6l-14.1 14.1c-7.2 7.2-17.1 11.3-27.3 11.3c-21.3 0-38.6-17.3-38.6-38.6V184c0-22.1 17.9-40 40-40z"/></svg>