<svg xmlns="http://www.w3.org/2000/svg" viewBox="0 0 448 512"><!--! Font Awesome Pro 6.4.0 by @fontawesome - https://fontawesome.com License - https://fontawesome.com/license (Commercial License) Copyright 2023 Fonticons, Inc. --><path d="M384 64c17.7 0 32 14.3 32 32V416c0 17.7-14.3 32-32 32H64c-17.7 0-32-14.3-32-32V96c0-17.7 14.3-32 32-32H384zM64 32C28.7 32 0 60.7 0 96V416c0 35.3 28.7 64 64 64H384c35.3 0 64-28.7 64-64V96c0-35.3-28.7-64-64-64H64zm80 96c-8.8 0-16 7.2-16 16v48H104c-8.8 0-16 7.2-16 16s7.2 16 16 16h40 40c8.8 0 16-7.2 16-16s-7.2-16-16-16H160V144c0-8.8-7.2-16-16-16zm0 128c-8.8 0-16 7.2-16 16v96c0 8.8 7.2 16 16 16s16-7.2 16-16V272c0-8.8-7.2-16-16-16zM304 128c-8.8 0-16 7.2-16 16V256H264c-8.8 0-16 7.2-16 16s7.2 16 16 16h40 40c8.8 0 16-7.2 16-16s-7.2-16-16-16H320V144c0-8.8-7.2-16-16-16zm0 192c-8.8 0-16 7.2-16 16v32c0 8.8 7.2 16 16 16s16-7.2 16-16V336c0-8.8-7.2-16-16-16z"/></svg>