<svg xmlns="http://www.w3.org/2000/svg" viewBox="0 0 512 512"><!--! Font Awesome Pro 6.4.0 by @fontawesome - https://fontawesome.com License - https://fontawesome.com/license (Commercial License) Copyright 2023 Fonticons, Inc. --><path d="M418.3 286.6l-50 81.4h90.2c3 0 5.4-2.4 5.4-5.4c0-1-.3-2-.8-2.8l-44.9-73.1zM399.5 256L330.8 144H181.2L112.5 256l68.7 112H330.8l68.7-112zm37.5 0l53.4 87c3.6 5.9 5.5 12.7 5.5 19.6c0 20.7-16.8 37.4-37.4 37.4H348.7l-56.2 91.5C284.8 504.3 270.9 512 256 512s-28.8-7.7-36.6-20.5L163.3 400H53.4C32.8 400 16 383.2 16 362.6c0-6.9 1.9-13.7 5.5-19.6l53.4-87L21.5 169c-3.6-5.9-5.5-12.7-5.5-19.6C16 128.8 32.8 112 53.4 112H163.3l56.2-91.5C227.2 7.7 241.1 0 256 0s28.8 7.7 36.6 20.5L348.7 112H458.6c20.7 0 37.4 16.8 37.4 37.4c0 6.9-1.9 13.7-5.5 19.6l-53.4 87zM368.4 144l50 81.4 44.9-73.1c.5-.9 .8-1.8 .8-2.8c0-3-2.4-5.4-5.4-5.4H368.4zm-57.2-32L265.3 37.2c-2-3.2-5.5-5.2-9.3-5.2s-7.3 2-9.3 5.2L200.8 112H311.2zM143.6 144H53.4c-3 0-5.4 2.4-5.4 5.4c0 1 .3 2 .8 2.8l44.9 73.1 50-81.4zm-50 142.6L48.8 359.7c-.5 .9-.8 1.8-.8 2.8c0 3 2.4 5.4 5.4 5.4h90.2l-50-81.4zM200.8 400l45.9 74.8c2 3.2 5.5 5.2 9.3 5.2s7.3-2 9.3-5.2L311.2 400H200.8z"/></svg>