<svg xmlns="http://www.w3.org/2000/svg" viewBox="0 0 512 512"><!--! Font Awesome Pro 6.4.0 by @fontawesome - https://fontawesome.com License - https://fontawesome.com/license (Commercial License) Copyright 2023 Fonticons, Inc. --><path d="M353.2 224L503.8 57.1c5.3-5.9 8.2-13.5 8.2-21.4V32c0-17.7-14.3-32-32-32h-3.7c-7.9 0-15.6 2.9-21.4 8.2L215.8 224h47.8L476.3 32l3.7 0v3.7L310.1 224h43.1zM139.3 270.1L13.2 396.2C4.7 404.6 0 416.1 0 428s4.7 23.4 13.2 31.8l39 39C60.6 507.3 72.1 512 84 512s23.4-4.7 31.8-13.2L331.3 283.3c4.6-4.6 5.9-11.5 3.5-17.4s-8.3-9.9-14.8-9.9H173.3c-12.7 0-24.9 5.1-33.9 14.1zM281.4 288L184 385.4l-28.7-28.7L126.6 328l35.3-35.3c3-3 7.1-4.7 11.3-4.7H281.4zM144 390.6L161.4 408 93.2 476.2c-2.4 2.4-5.7 3.8-9.2 3.8s-6.7-1.4-9.2-3.8L66.6 468 144 390.6zM121.4 368L44 445.4l-8.2-8.2c-2.4-2.4-3.8-5.7-3.8-9.2s1.4-6.7 3.8-9.2L104 350.6 121.4 368z"/></svg>