<svg xmlns="http://www.w3.org/2000/svg" viewBox="0 0 448 512"><!--! Font Awesome Pro 6.4.0 by @fontawesome - https://fontawesome.com License - https://fontawesome.com/license (Commercial License) Copyright 2023 Fonticons, Inc. --><path d="M384 32c17.7 0 32 14.3 32 32V320H32V64c0-17.7 14.3-32 32-32H384zm32 320v96c0 17.7-14.3 32-32 32H64c-17.7 0-32-14.3-32-32V352H416zM64 0C28.7 0 0 28.7 0 64V448c0 35.3 28.7 64 64 64H384c35.3 0 64-28.7 64-64V64c0-35.3-28.7-64-64-64H64zM248 416a24 24 0 1 0 -48 0 24 24 0 1 0 48 0z"/></svg>