<svg xmlns="http://www.w3.org/2000/svg" viewBox="0 0 448 512"><!--! Font Awesome Pro 6.4.0 by @fontawesome - https://fontawesome.com License - https://fontawesome.com/license (Commercial License) Copyright 2023 Fonticons, Inc. --><path d="M32 229.5V80c0-8.8 7.2-16 16-16H197.5c8.5 0 16.6 3.4 22.6 9.4l176 176c12.5 12.5 12.5 32.8 0 45.3L262.6 428.1c-12.5 12.5-32.8 12.5-45.3 0l-176-176L18.7 274.7l22.6-22.6c-6-6-9.4-14.1-9.4-22.6zm-32 0c0 17 6.7 33.3 18.7 45.3l176 176c25 25 65.5 25 90.5 0L418.7 317.3c25-25 25-65.5 0-90.5l-176-176c-12-12-28.3-18.7-45.3-18.7H48C21.5 32 0 53.5 0 80V229.5zM112 168a24 24 0 1 0 0-48 24 24 0 1 0 0 48z"/></svg>