<svg xmlns="http://www.w3.org/2000/svg" viewBox="0 0 512 512"><!--! Font Awesome Pro 6.4.0 by @fontawesome - https://fontawesome.com License - https://fontawesome.com/license (Commercial License) Copyright 2023 Fonticons, Inc. --><path d="M192 48V64H320V48c0-8.8-7.2-16-16-16H208c-8.8 0-16 7.2-16 16zM160 64V48c0-26.5 21.5-48 48-48h96c26.5 0 48 21.5 48 48V64h.4c35.3 0 66.5 23.2 76.6 57l34.3 114.4 .4 1.3C492.6 253.2 512 284.3 512 320v96 16 16 48c0 8.8-7.2 16-16 16s-16-7.2-16-16V448H32v48c0 8.8-7.2 16-16 16s-16-7.2-16-16V448 432 416 320c0-35.7 19.4-66.8 48.3-83.3l.4-1.3L83 121c10.2-33.8 41.3-57 76.6-57h.4zm-.4 32c-21.2 0-39.9 13.9-46 34.2L85.3 224.6c3.5-.4 7.1-.6 10.7-.6H416c3.6 0 7.2 .2 10.7 .6l-28.3-94.4c-6.1-20.3-24.8-34.2-46-34.2H159.6zM74.7 259.9l-.5-.1C49.6 268.7 32 292.3 32 320v96H480V320c0-27.7-17.6-51.3-42.3-60.2l-.5 .1-.1-.3c-6.6-2.3-13.8-3.6-21.2-3.6H96c-7.4 0-14.5 1.3-21.2 3.6l-.1 .3zM80 328a24 24 0 1 1 48 0 24 24 0 1 1 -48 0zm328-24a24 24 0 1 1 0 48 24 24 0 1 1 0-48z"/></svg>