<svg xmlns="http://www.w3.org/2000/svg" viewBox="0 0 576 512"><!--! Font Awesome Pro 6.4.0 by @fontawesome - https://fontawesome.com License - https://fontawesome.com/license (Commercial License) Copyright 2023 Fonticons, Inc. --><path d="M560 194l4 15.5c7.1-1.8 12-8.2 12-15.5H560zm0 124h16c0-7.3-4.9-13.7-12-15.5L560 318zM16 318l-4-15.5C4.9 304.3 0 310.7 0 318H16zm0-124H0c0 7.3 4.9 13.7 12 15.5L16 194zM64 64C28.7 64 0 92.7 0 128H32c0-17.7 14.3-32 32-32V64zm448 0H64V96H512V64zm64 64c0-35.3-28.7-64-64-64V96c17.7 0 32 14.3 32 32h32zm0 66V128H544v66h32zm-48 62c0-22.3 15.3-41.2 36-46.5l-8-31c-34.5 8.9-60 40.2-60 77.5h32zm36 46.5c-20.7-5.3-36-24.1-36-46.5H496c0 37.3 25.5 68.6 60 77.5l8-31zM576 384V318H544v66h32zm-64 64c35.3 0 64-28.7 64-64H544c0 17.7-14.3 32-32 32v32zM64 448H512V416H64v32zM0 384c0 35.3 28.7 64 64 64V416c-17.7 0-32-14.3-32-32H0zm0-66v66H32V318H0zm48-62c0 22.3-15.3 41.2-36 46.5l8 31c34.5-8.9 60-40.2 60-77.5H48zM12 209.5c20.7 5.3 36 24.1 36 46.5H80c0-37.3-25.5-68.6-60-77.5l-8 31zM0 128v66H32V128H0z"/></svg>