<svg xmlns="http://www.w3.org/2000/svg" viewBox="0 0 640 512"><!--! Font Awesome Pro 6.4.0 by @fontawesome - https://fontawesome.com License - https://fontawesome.com/license (Commercial License) Copyright 2023 Fonticons, Inc. --><path d="M64 96c-17.7 0-32 14.3-32 32V384c0 17.7 14.3 32 32 32H576c17.7 0 32-14.3 32-32V334.4c-36.5-7.4-64-39.7-64-78.4s27.5-71 64-78.4V128c0-17.7-14.3-32-32-32H64zM0 128C0 92.7 28.7 64 64 64H576c35.3 0 64 28.7 64 64v66.4c0 8-8 13.6-16 13.6c-26.5 0-48 21.5-48 48s21.5 48 48 48c8 0 16 5.6 16 13.6V384c0 35.3-28.7 64-64 64H64c-35.3 0-64-28.7-64-64V128zm464 16a16 16 0 1 1 0 32 16 16 0 1 1 0-32zm0 64a16 16 0 1 1 0 32 16 16 0 1 1 0-32zm-16 80a16 16 0 1 1 32 0 16 16 0 1 1 -32 0zm16 48a16 16 0 1 1 0 32 16 16 0 1 1 0-32zM217.8 218.9c1.6 4.9 .8 10.2-2.2 14.4s-7.8 6.6-13 6.6H160c-5 0-9.8-2.4-12.8-6.4L128 208h-3.5l10.1 40.2c1.3 5.1 1.3 10.4 0 15.5L124.5 304H128l19.2-25.6c3-4 7.8-6.4 12.8-6.4h42.7c5.1 0 10 2.5 13 6.6s3.8 9.5 2.2 14.4L198.2 352h20c2.8 0 5.5-1.5 6.9-4l39.7-68.1c2.9-4.9 8.1-7.9 13.8-7.9h40.3c11.8 0 23.1-4.7 31.5-13c1.6-1.6 1.6-4.3 0-5.9c-8.4-8.4-19.7-13-31.5-13H278.7c-5.7 0-11-3-13.8-7.9L225.1 164c-1.4-2.5-4.1-4-6.9-4h-20l19.6 58.9zM187.1 128h31.1c14.2 0 27.4 7.6 34.6 19.8L287.9 208h31.1c20.3 0 39.8 8.1 54.1 22.4c14.1 14.1 14.1 37 0 51.2c-14.4 14.4-33.8 22.4-54.1 22.4H287.9l-35.1 60.2c-7.2 12.3-20.3 19.8-34.6 19.8H187.1c-16.4 0-27.9-16-22.8-31.6L180.5 304H168l-14.4 19.2c-6 8.1-15.5 12.8-25.6 12.8H114.2c-15.6 0-27.1-14.7-23.3-29.8L103.5 256 91 205.8c-3.8-15.1 7.7-29.8 23.3-29.8H128c10.1 0 19.6 4.7 25.6 12.8L168 208h12.5l-16.1-48.4c-5.2-15.5 6.4-31.6 22.8-31.6z"/></svg>