<svg xmlns="http://www.w3.org/2000/svg" viewBox="0 0 512 512"><!--! Font Awesome Pro 6.4.0 by @fontawesome - https://fontawesome.com License - https://fontawesome.com/license (Commercial License) Copyright 2023 Fonticons, Inc. --><path d="M32 112c0 17.7 14.3 32 32 32l176 0h32l176 0c17.7 0 32-14.3 32-32V40.9l-23.5 9.4C433.8 59.3 409.6 64 385.2 64H126.8c-24.4 0-48.6-4.7-71.3-13.7L32 40.9V112zm208 64H96v80l144 0V176zM64 176c-35.3 0-64-28.7-64-64V13.4C0 6 6 0 13.4 0c1.7 0 3.4 .3 5 1l49 19.6C86.3 28.1 106.5 32 126.8 32H385.2c20.4 0 40.5-3.9 59.4-11.4L493.6 1c1.6-.6 3.3-1 5-1C506 0 512 6 512 13.4V112c0 35.3-28.7 64-64 64v80h48c8.8 0 16 7.2 16 16s-7.2 16-16 16H448V496c0 8.8-7.2 16-16 16s-16-7.2-16-16V288l-160 0L96 288V496c0 8.8-7.2 16-16 16s-16-7.2-16-16V288H16c-8.8 0-16-7.2-16-16s7.2-16 16-16H64V176zm352 0H272v80l144 0V176z"/></svg>