<svg xmlns="http://www.w3.org/2000/svg" viewBox="0 0 448 512"><!--! Font Awesome Pro 6.4.0 by @fontawesome - https://fontawesome.com License - https://fontawesome.com/license (Commercial License) Copyright 2023 Fonticons, Inc. --><path d="M352 32c35.3 0 64 28.7 64 64V224H32V96c0-35.3 28.7-64 64-64H352zM32 352V256H416v96c0 35.3-28.7 64-64 64H96c-35.3 0-64-28.7-64-64zM96 0C43 0 0 43 0 96V352c0 46 32.4 84.4 75.6 93.8L36.7 484.7c-6.2 6.2-6.2 16.4 0 22.6s16.4 6.2 22.6 0L118.6 448H329.4l59.3 59.3c6.2 6.2 16.4 6.2 22.6 0s6.2-16.4 0-22.6l-38.9-38.9C415.6 436.4 448 398 448 352V96c0-53-43-96-96-96H96zM224 368a32 32 0 1 0 0-64 32 32 0 1 0 0 64z"/></svg>