<svg xmlns="http://www.w3.org/2000/svg" viewBox="0 0 448 512"><!--! Font Awesome Pro 6.4.0 by @fontawesome - https://fontawesome.com License - https://fontawesome.com/license (Commercial License) Copyright 2023 Fonticons, Inc. --><path d="M41.3 50c9.1-11.4 22.9-18 37.5-18H208V96H160c-53 0-96 43-96 96V352c0 28.9 12.8 54.8 33 72.4L36.7 484.7c-6.2 6.2-6.2 16.4 0 22.6s16.4 6.2 22.6 0l65.8-65.8c10.8 4.2 22.6 6.5 34.9 6.5H288c12.3 0 24-2.3 34.9-6.5l65.8 65.8c6.2 6.2 16.4 6.2 22.6 0s6.2-16.4 0-22.6L351 424.4c20.2-17.6 33-43.5 33-72.4V192c0-53-43-96-96-96H240V32H369.2c14.6 0 28.4 6.6 37.5 18l12.8 16c5.5 6.9 15.6 8 22.5 2.5s8-15.6 2.5-22.5L431.7 30C416.5 11 393.5 0 369.2 0H78.8C54.5 0 31.5 11 16.3 30L3.5 46C-2 52.9-.9 63 6 68.5S23 72.9 28.5 66L41.3 50zM160 128h48 32 48c35.3 0 64 28.7 64 64v64H96V192c0-35.3 28.7-64 64-64zM96 288H352v64c0 35.3-28.7 64-64 64H160c-35.3 0-64-28.7-64-64V288zm96 56a24 24 0 1 0 -48 0 24 24 0 1 0 48 0zm88 24a24 24 0 1 0 0-48 24 24 0 1 0 0 48z"/></svg>