<svg xmlns="http://www.w3.org/2000/svg" viewBox="0 0 576 512"><!--! Font Awesome Pro 6.4.0 by @fontawesome - https://fontawesome.com License - https://fontawesome.com/license (Commercial License) Copyright 2023 Fonticons, Inc. --><path d="M207.1 53.2c2.9-8.4-1.5-17.5-9.9-20.4s-17.5 1.5-20.4 9.9L158.5 96H112c-8.8 0-16 7.2-16 16s7.2 16 16 16h35.4l-33.2 96H72c-8.8 0-16 7.2-16 16s7.2 16 16 16h31.1L69.8 352H32c-8.8 0-16 7.2-16 16s7.2 16 16 16H58.8L32.9 458.8c-2.9 8.3 1.5 17.5 9.9 20.4s17.5-1.5 20.4-9.9L92.6 384H483.4l29.5 85.2c2.9 8.3 12 12.8 20.4 9.9s12.8-12 9.9-20.4L517.2 384H544c8.8 0 16-7.2 16-16s-7.2-16-16-16H506.2l-33.2-96H504c8.8 0 16-7.2 16-16s-7.2-16-16-16H461.9l-33.2-96H464c8.8 0 16-7.2 16-16s-7.2-16-16-16H417.5L399.1 42.8c-2.9-8.4-12-12.8-20.4-9.9s-12.8 12-9.9 20.4L383.7 96H192.3l14.8-42.8zM181.2 128H394.8L428 224H148l33.2-96zM472.3 352H103.7l33.2-96H439.1l33.2 96z"/></svg>