<svg xmlns="http://www.w3.org/2000/svg" viewBox="0 0 512 512"><!--! Font Awesome Pro 6.4.0 by @fontawesome - https://fontawesome.com License - https://fontawesome.com/license (Commercial License) Copyright 2023 Fonticons, Inc. --><path d="M464 0c-8.8 0-16 7.2-16 16V32H432c-8.8 0-16 7.2-16 16s7.2 16 16 16h16V80c0 8.8 7.2 16 16 16s16-7.2 16-16V64h16c8.8 0 16-7.2 16-16s-7.2-16-16-16H480V16c0-8.8-7.2-16-16-16zM48 128c-8.8 0-16 7.2-16 16v16H16c-8.8 0-16 7.2-16 16s7.2 16 16 16H32v16c0 8.8 7.2 16 16 16s16-7.2 16-16V192H80c8.8 0 16-7.2 16-16s-7.2-16-16-16H64V144c0-8.8-7.2-16-16-16zM208 16c0 8.8 7.2 16 16 16h64c8.8 0 16-7.2 16-16s-7.2-16-16-16H224c-8.8 0-16 7.2-16 16zM160 144c0 8.8 7.2 16 16 16H336c8.8 0 16-7.2 16-16s-7.2-16-16-16H176c-8.8 0-16 7.2-16 16zM96 272c0 8.8 7.2 16 16 16H400c8.8 0 16-7.2 16-16s-7.2-16-16-16H112c-8.8 0-16 7.2-16 16zm64 128c0 8.8 7.2 16 16 16H336c8.8 0 16-7.2 16-16s-7.2-16-16-16H176c-8.8 0-16 7.2-16 16zm-32 96c0-8.8 7.2-16 16-16H368c8.8 0 16 7.2 16 16s7.2 16 16 16s16-7.2 16-16c0-26.5-21.5-48-48-48H144c-26.5 0-48 21.5-48 48c0 8.8 7.2 16 16 16s16-7.2 16-16z"/></svg>