<svg xmlns="http://www.w3.org/2000/svg" viewBox="0 0 384 512"><!--! Font Awesome Pro 6.4.0 by @fontawesome - https://fontawesome.com License - https://fontawesome.com/license (Commercial License) Copyright 2023 Fonticons, Inc. --><path d="M128 16c0-8.8-7.2-16-16-16s-16 7.2-16 16V32H64c-8.8 0-16 7.2-16 16s7.2 16 16 16h96c8.8 0 16-7.2 16-16s-7.2-16-16-16H128V16zm160 0c0-8.8-7.2-16-16-16s-16 7.2-16 16V32H224c-8.8 0-16 7.2-16 16s7.2 16 16 16h96c8.8 0 16-7.2 16-16s-7.2-16-16-16H288V16zM48 112c0 8.8 7.2 16 16 16h96c8.8 0 16-7.2 16-16s-7.2-16-16-16H64c-8.8 0-16 7.2-16 16zm160 0c0 8.8 7.2 16 16 16h96c8.8 0 16-7.2 16-16s-7.2-16-16-16H224c-8.8 0-16 7.2-16 16zM16 160c-8.8 0-16 7.2-16 16s7.2 16 16 16H32V480H16c-8.8 0-16 7.2-16 16s7.2 16 16 16H48 336h32c8.8 0 16-7.2 16-16s-7.2-16-16-16H352V192h16c8.8 0 16-7.2 16-16s-7.2-16-16-16H336 48 16zM64 480V192H320V480H64zm78.6-144l61.9-61.9-4.4 44.3c-.4 4.5 1 9 4.1 12.3s7.3 5.3 11.9 5.3h25.4l-61.9 61.9 4.4-44.3c.4-4.5-1-9-4.1-12.3s-7.3-5.3-11.9-5.3H142.6zm75.6-112c-5.6 0-11 2.2-15 6.2L102.3 331c-4.1 4.1-6.3 9.6-6.3 15.3c0 12 9.7 21.7 21.7 21.7h32.7l-5.7 56.6c-1.3 12.5 8.6 23.4 21.2 23.4c5.6 0 11-2.2 15-6.2L281.7 341c4.1-4.1 6.3-9.6 6.3-15.3c0-12-9.7-21.7-21.7-21.7H233.7l5.7-56.6c1.3-12.5-8.6-23.4-21.2-23.4z"/></svg>