<svg xmlns="http://www.w3.org/2000/svg" viewBox="0 0 512 512"><!-- Font Awesome Pro 6.0.0-alpha2 by @fontawesome - https://fontawesome.com License - https://fontawesome.com/license (Commercial License) --><path d="M510.77 9.891C509.148 5.973 506.027 2.852 502.109 1.23C500.154 0.422 498.082 0 496 0H384C375.156 0 368 7.156 368 16S375.156 32 384 32H457.375L375.355 114.02C344.881 83.191 302.664 64 256 64S167.119 83.191 136.645 114.02L118.625 96L131.312 83.312C137.562 77.062 137.562 66.937 131.312 60.688S114.937 54.438 108.688 60.688L96 73.375L54.625 32H128C136.844 32 144 24.844 144 16S136.844 0 128 0H16C13.918 0 11.846 0.422 9.891 1.23C5.973 2.852 2.852 5.973 1.23 9.891C0.422 11.846 0 13.918 0 16V128C0 136.844 7.156 144 16 144S32 136.844 32 128V54.625L73.375 96L60.688 108.688C54.438 114.938 54.438 125.063 60.688 131.312C63.812 134.438 67.906 136 72 136S80.188 134.438 83.312 131.312L96 118.625L116.305 138.93C98.477 165.6 88 197.586 88 232C88 319.146 154.963 390.182 240 398.381V432H192C183.156 432 176 439.156 176 448S183.156 464 192 464H240V496C240 504.844 247.156 512 256 512S272 504.844 272 496V464H320C328.844 464 336 456.844 336 448S328.844 432 320 432H272V398.381C357.037 390.182 424 319.146 424 232C424 197.586 413.523 165.6 395.695 138.93L480 54.625V128C480 136.844 487.156 144 496 144S512 136.844 512 128V16C512 13.918 511.578 11.846 510.77 9.891ZM256 368C181 368 120 307 120 232S181 96 256 96S392 157 392 232S331 368 256 368Z"/></svg>