<svg xmlns="http://www.w3.org/2000/svg" viewBox="0 0 448 512"><!--! Font Awesome Pro 6.4.0 by @fontawesome - https://fontawesome.com License - https://fontawesome.com/license (Commercial License) Copyright 2023 Fonticons, Inc. --><path d="M164.2 39.5L148.9 64H299.1L283.8 39.5c-2.9-4.7-8.1-7.5-13.6-7.5H177.7c-5.5 0-10.6 2.8-13.6 7.5zM311 22.6L336.9 64H384h32 16c8.8 0 16 7.2 16 16s-7.2 16-16 16H416V432c0 44.2-35.8 80-80 80H112c-44.2 0-80-35.8-80-80V96H16C7.2 96 0 88.8 0 80s7.2-16 16-16H32 64h47.1L137 22.6C145.8 8.5 161.2 0 177.7 0h92.5c16.6 0 31.9 8.5 40.7 22.6zM64 96V432c0 26.5 21.5 48 48 48H336c26.5 0 48-21.5 48-48V96H64zm155.9 93.3c5.9 6.6 5.4 16.7-1.2 22.6l-49 44.1H240c44.2 0 80 35.8 80 80v40c0 8.8-7.2 16-16 16s-16-7.2-16-16V336c0-26.5-21.5-48-48-48H169.7l49 44.1c6.6 5.9 7.1 16 1.2 22.6s-16 7.1-22.6 1.2l-80-72c-3.4-3-5.3-7.4-5.3-11.9s1.9-8.9 5.3-11.9l80-72c6.6-5.9 16.7-5.4 22.6 1.2z"/></svg>