<svg xmlns="http://www.w3.org/2000/svg" viewBox="0 0 448 512"><!--! Font Awesome Pro 6.4.0 by @fontawesome - https://fontawesome.com License - https://fontawesome.com/license (Commercial License) Copyright 2023 Fonticons, Inc. --><path d="M177.7 32h92.5c5.5 0 10.6 2.8 13.6 7.5L299.1 64H148.9l15.3-24.5c2.9-4.7 8.1-7.5 13.6-7.5zM336.9 64L311 22.6C302.2 8.5 286.8 0 270.3 0H177.7C161.2 0 145.8 8.5 137 22.6L111.1 64H64.1 32 16C7.2 64 0 71.2 0 80s7.2 16 16 16H34.3L59.8 452.6C62.1 486.1 90 512 123.6 512H324.4c33.6 0 61.4-25.9 63.8-59.4L413.7 96H432c8.8 0 16-7.2 16-16s-7.2-16-16-16H416 383.9 336.9zm44.8 32L356.3 450.3C355.1 467 341.2 480 324.4 480H123.6c-16.8 0-30.7-13-31.9-29.7L66.4 96H381.6z"/></svg>