<svg xmlns="http://www.w3.org/2000/svg" viewBox="0 0 448 512"><!--! Font Awesome Pro 6.4.0 by @fontawesome - https://fontawesome.com License - https://fontawesome.com/license (Commercial License) Copyright 2023 Fonticons, Inc. --><path d="M235.3 4.7c-6.2-6.2-16.4-6.2-22.6 0L72 145.4c-5.1 5.1-8 12.1-8 19.3C64 179.8 76.2 192 91.3 192h17.9L38.7 274.3c-4.3 5-6.7 11.4-6.7 18C32 307.6 44.4 320 59.7 320H77.2L6.7 402.3c-4.3 5-6.7 11.4-6.7 18C0 435.6 12.4 448 27.7 448H160h48v48c0 8.8 7.2 16 16 16s16-7.2 16-16V448h48H420.3c15.3 0 27.7-12.4 27.7-27.7c0-6.6-2.4-13-6.7-18L370.8 320h17.5c15.3 0 27.7-12.4 27.7-27.7c0-6.6-2.4-13-6.7-18L338.8 192h17.9c15.1 0 27.3-12.2 27.3-27.3c0-7.2-2.9-14.2-8-19.3L235.3 4.7zM240 416V208c0-8.8-7.2-16-16-16s-16 7.2-16 16V416H160 37.1l87.1-101.6c4.1-4.7 5-11.4 2.4-17.1s-8.3-9.3-14.5-9.3H69.1l87.1-101.6c4.1-4.7 5-11.4 2.4-17.1s-8.3-9.3-14.5-9.3H102.6L224 38.6 345.4 160H304c-6.2 0-11.9 3.6-14.5 9.3s-1.7 12.4 2.4 17.1L378.9 288H336c-6.2 0-11.9 3.6-14.5 9.3s-1.7 12.4 2.4 17.1L410.9 416H288 240z"/></svg>