<svg xmlns="http://www.w3.org/2000/svg" viewBox="0 0 640 512"><!--! Font Awesome Pro 6.4.0 by @fontawesome - https://fontawesome.com License - https://fontawesome.com/license (Commercial License) Copyright 2023 Fonticons, Inc. --><path d="M167.6 11.9c12.8-15 35.9-15 48.7 0L318.5 131.8c4.1 4.8 6.4 11 6.4 17.4c0 14.8-12 26.8-26.8 26.8H286.1l61.4 67.4c4.5 4.9 7 11.3 7 17.9c0 14.7-11.9 26.6-26.6 26.6H312.7l65.6 84.4C382 377.2 384 383 384 389c0 14.9-12.1 27-27 27H235.1 208v80c0 8.8-7.2 16-16 16s-16-7.2-16-16V416H148.9 27c-14.9 0-27-12.1-27-27c0-6 2-11.8 5.7-16.6L71.3 288H56.2c-14.7 0-26.6-11.9-26.6-26.6c0-6.6 2.5-13 7-17.9L97.9 176H85.9c-14.8 0-26.8-12-26.8-26.8c0-6.4 2.3-12.5 6.4-17.4L167.6 11.9zM235.1 384H346.8L267.4 281.8c-3.7-4.8-4.4-11.4-1.7-16.9s8.3-9 14.4-9h35.7L238 170.8c-4.3-4.7-5.4-11.4-2.8-17.2s8.3-9.5 14.6-9.5h37L192 32.7 97.1 144h37c6.3 0 12.1 3.7 14.6 9.5s1.5 12.6-2.8 17.2L68.3 256H104c6.1 0 11.7 3.5 14.4 9s2 12-1.7 16.9L37.2 384H148.9 176V208c0-8.8 7.2-16 16-16s16 7.2 16 16V384h27.1zM423.5 12.6c12.7-15.4 36.2-15.6 49.1-.4l102 119.7c4.1 4.8 6.4 11 6.4 17.4c0 14.8-12 26.8-26.8 26.8H542.1l61.4 67.4c4.5 4.9 7 11.3 7 17.9c0 14.7-11.9 26.6-26.6 26.6H568.7l65.6 84.4C638 377.2 640 383 640 389c0 14.9-12.1 27-27 27H464v80c0 8.8-7.2 16-16 16s-16-7.2-16-16V400 208c0-8.8 7.2-16 16-16s16 7.2 16 16V384H602.8L523.4 281.8c-3.8-4.8-4.4-11.4-1.7-16.9s8.3-9 14.4-9h35.7L494 170.8c-4.3-4.7-5.4-11.4-2.8-17.2s8.3-9.5 14.6-9.5h37L448.2 32.9 388 106.2c-5.6 6.8-15.7 7.8-22.5 2.2s-7.8-15.7-2.2-22.5l60.2-73.2z"/></svg>