<svg xmlns="http://www.w3.org/2000/svg" viewBox="0 0 640 512"><!--! Font Awesome Pro 6.4.0 by @fontawesome - https://fontawesome.com License - https://fontawesome.com/license (Commercial License) Copyright 2023 Fonticons, Inc. --><path d="M336 32c-8.8 0-16 7.2-16 16V496c0 8.8-7.2 16-16 16s-16-7.2-16-16V48c0-26.5 21.5-48 48-48H464c26.5 0 48 21.5 48 48V192h32V112c0-8.8 7.2-16 16-16s16 7.2 16 16v80h16c26.5 0 48 21.5 48 48V496c0 8.8-7.2 16-16 16s-16-7.2-16-16V240c0-8.8-7.2-16-16-16H560 496c-8.8 0-16-7.2-16-16V48c0-8.8-7.2-16-16-16H336zm48 32h32c17.7 0 32 14.3 32 32v32c0 17.7-14.3 32-32 32H384c-17.7 0-32-14.3-32-32V96c0-17.7 14.3-32 32-32zm0 32v32h32V96H384zm96 192c0-17.7 14.3-32 32-32h32c17.7 0 32 14.3 32 32v32c0 17.7-14.3 32-32 32H512c-17.7 0-32-14.3-32-32V288zm64 0H512v32h32V288zm-32 96h32c17.7 0 32 14.3 32 32v32c0 17.7-14.3 32-32 32H512c-17.7 0-32-14.3-32-32V416c0-17.7 14.3-32 32-32zm0 32v32h32V416H512zM352 224c0-17.7 14.3-32 32-32h32c17.7 0 32 14.3 32 32v32c0 17.7-14.3 32-32 32H384c-17.7 0-32-14.3-32-32V224zm64 0H384v32h32V224zm-32 96h32c17.7 0 32 14.3 32 32v32c0 17.7-14.3 32-32 32H384c-17.7 0-32-14.3-32-32V352c0-17.7 14.3-32 32-32zm0 32v32h32V352H384zM128 224c8.8 0 16 7.2 16 16v48h32c26.5 0 48-21.5 48-48c0-16-7.8-30.2-19.9-38.9l-8-5.8c-4.9-3.5-7.4-9.5-6.4-15.5l.4-2.6c1.1-6.7 1.9-11.9 1.9-17.2c0-35.3-28.7-64-64-64s-64 28.7-64 64c0 5.3 .8 10.5 1.9 17.2l.4 2.6c.9 6-1.5 11.9-6.4 15.5l-8 5.8C39.8 209.8 32 224 32 240c0 26.5 21.5 48 48 48h32V240c0-8.8 7.2-16 16-16zm-16 96H80c-44.2 0-80-35.8-80-80c0-26.7 13.1-50.3 33.2-64.9l0 0c-.7-4.7-1.2-9.9-1.2-15.1c0-53 43-96 96-96s96 43 96 96c0 5.2-.5 10.4-1.2 15.1l0 0C242.9 189.7 256 213.3 256 240c0 44.2-35.8 80-80 80H144V496c0 8.8-7.2 16-16 16s-16-7.2-16-16V320z"/></svg>