<svg xmlns="http://www.w3.org/2000/svg" viewBox="0 0 640 512"><!--! Font Awesome Pro 6.4.0 by @fontawesome - https://fontawesome.com License - https://fontawesome.com/license (Commercial License) Copyright 2023 Fonticons, Inc. --><path d="M96 64V176c0 26.5-21.5 48-48 48s-48-21.5-48-48V160c0-8.8 7.2-16 16-16s16 7.2 16 16v16c0 8.8 7.2 16 16 16s16-7.2 16-16V32C64 20.2 70.4 9.8 80 4.3C84.7 1.6 90.2 0 96 0h3.8 45.9c9.1 0 17.8 3.9 23.9 10.7L384 252V144c0-26.5 21.5-48 48-48h56.5c19.8 0 38.4 9.1 50.5 24.7l90.8 116.8c6.6 8.4 10.1 18.8 10.1 29.5V368c0 26.5-21.5 48-48 48H576c0 53-43 96-96 96s-96-43-96-96H256c0 53-43 96-96 96s-96-43-96-96H48c-26.5 0-48-21.5-48-48V304c0-26.5 21.5-48 48-48H192L96 64zM250.5 384H389.5c13.2-37.3 48.7-64 90.5-64s77.4 26.7 90.5 64H592c8.8 0 16-7.2 16-16V288H416 384 373.2 208 48c-8.8 0-16 7.2-16 16v64c0 8.8 7.2 16 16 16H69.5c13.2-37.3 48.7-64 90.5-64s77.4 26.7 90.5 64zM416 416a64 64 0 1 0 128 0 64 64 0 1 0 -128 0zm97.8-275.6c-6.1-7.8-15.4-12.4-25.3-12.4H432c-8.8 0-16 7.2-16 16V256H603.7L513.8 140.4zM145.6 32l-29.9 0 112 224h117L145.6 32zM224 416A64 64 0 1 0 96 416a64 64 0 1 0 128 0z"/></svg>