<svg xmlns="http://www.w3.org/2000/svg" viewBox="0 0 640 512"><!--! Font Awesome Pro 6.4.0 by @fontawesome - https://fontawesome.com License - https://fontawesome.com/license (Commercial License) Copyright 2023 Fonticons, Inc. --><path d="M352 32c17.7 0 32 14.3 32 32V384H250.5c-13.2-37.3-48.7-64-90.5-64s-77.4 26.7-90.5 64H64c-17.7 0-32-14.3-32-32V64c0-17.7 14.3-32 32-32H352zM0 352c0 35.3 28.7 64 64 64c0 53 43 96 96 96s96-43 96-96H384c0 53 43 96 96 96s96-43 96-96h48c8.8 0 16-7.2 16-16s-7.2-16-16-16H608V235.8c0-11.5-4.1-22.5-11.6-31.2l-78.7-91.8C508.6 102.1 495.3 96 481.3 96H416V64c0-35.3-28.7-64-64-64H64C28.7 0 0 28.7 0 64V352zM416 128h65.3c4.7 0 9.1 2 12.1 5.6L570.9 224H416V128zm0 216.4V256H576V384h-5.5c-13.2-37.3-48.7-64-90.5-64c-24.6 0-47 9.2-64 24.4zM160 352a64 64 0 1 1 0 128 64 64 0 1 1 0-128zm256 64a64 64 0 1 1 128 0 64 64 0 1 1 -128 0zM251.3 91.3c6.2-6.2 6.2-16.4 0-22.6s-16.4-6.2-22.6 0l-96 96c-4.6 4.6-5.9 11.5-3.5 17.4s8.3 9.9 14.8 9.9h89.4l-68.7 68.7c-6.2 6.2-6.2 16.4 0 22.6s16.4 6.2 22.6 0l96-96c4.6-4.6 5.9-11.5 3.5-17.4s-8.3-9.9-14.8-9.9H182.6l68.7-68.7z"/></svg>