<svg xmlns="http://www.w3.org/2000/svg" viewBox="0 0 640 512"><!--! Font Awesome Pro 6.4.0 by @fontawesome - https://fontawesome.com License - https://fontawesome.com/license (Commercial License) Copyright 2023 Fonticons, Inc. --><path d="M176 64h94.1c5.6 0 10.7 2.9 13.7 7.7L357.2 192H160V80c0-8.8 7.2-16 16-16zM394.8 192l-5.1-8.3L311 55c-8.7-14.3-24.2-23-41-23H176c-26.5 0-48 21.5-48 48V192H56c-30.9 0-56 25.1-56 56v96c0 19.4 13.7 35.5 32 39.2l0 .8c0 53 43 96 96 96s96-43 96-96h48c0 53 43 96 96 96s96-43 96-96h56.5l75.2 90.2c5.7 6.8 15.7 7.7 22.5 2s7.7-15.7 2-22.5L544 362.2V352 213.8l76.3-91.6c5.7-6.8 4.7-16.9-2-22.5s-16.9-4.7-22.5 2l-80 96c-2.4 2.9-3.7 6.5-3.7 10.2V352H479.2c.5-2.6 .8-5.3 .8-8V248c0-30.9-25.1-56-56-56H394.8zM448 330.9C430.8 305 401.4 288 368 288c-41.8 0-77.4 26.7-90.5 64H218.5c-13.2-37.3-48.7-64-90.5-64c-41.7 0-77.1 26.5-90.4 63.6c-3.2-1-5.6-4.1-5.6-7.6V248c0-13.3 10.7-24 24-24H424c13.3 0 24 10.7 24 24v82.9zM64 384a64 64 0 1 1 128 0A64 64 0 1 1 64 384zm304-64a64 64 0 1 1 0 128 64 64 0 1 1 0-128z"/></svg>