<svg xmlns="http://www.w3.org/2000/svg" viewBox="0 0 640 512"><!--! Font Awesome Pro 6.4.0 by @fontawesome - https://fontawesome.com License - https://fontawesome.com/license (Commercial License) Copyright 2023 Fonticons, Inc. --><path d="M128 32H352c17.7 0 32 14.3 32 32V384H250.5c-13.2-37.3-48.7-64-90.5-64c-24.6 0-47 9.2-64 24.4V288H64v96 32c0 53 43 96 96 96s96-43 96-96H384c0 53 43 96 96 96s96-43 96-96h48c8.8 0 16-7.2 16-16s-7.2-16-16-16H608V235.8c0-11.5-4.1-22.5-11.6-31.2l-78.7-91.8C508.6 102.1 495.3 96 481.3 96H416V64c0-35.3-28.7-64-64-64H128C92.7 0 64 28.7 64 64V96H16c-8.8 0-16 7.2-16 16s7.2 16 16 16H240c8.8 0 16-7.2 16-16s-7.2-16-16-16H96V64c0-17.7 14.3-32 32-32zM570.9 224H416V128h65.3c4.7 0 9.1 2 12.1 5.6L570.9 224zM416 256H576V384h-5.5c-13.2-37.3-48.7-64-90.5-64c-24.6 0-47 9.2-64 24.4V256zM96 416a64 64 0 1 1 128 0A64 64 0 1 1 96 416zm384-64a64 64 0 1 1 0 128 64 64 0 1 1 0-128zM48 160c-8.8 0-16 7.2-16 16s7.2 16 16 16H272c8.8 0 16-7.2 16-16s-7.2-16-16-16H48zM16 224c-8.8 0-16 7.2-16 16s7.2 16 16 16H240c8.8 0 16-7.2 16-16s-7.2-16-16-16H16z"/></svg>