<svg xmlns="http://www.w3.org/2000/svg" viewBox="0 0 512 512"><!--! Font Awesome Pro 6.4.0 by @fontawesome - https://fontawesome.com License - https://fontawesome.com/license (Commercial License) Copyright 2023 Fonticons, Inc. --><path d="M80 32C53.5 32 32 53.5 32 80V248.4c10.8-9.7 23.9-17 38.3-21l31.3-88.8c9-25.6 33.2-42.7 60.4-42.7H350c27.1 0 51.3 17.1 60.4 42.7l31.3 88.8c14.4 4 27.4 11.3 38.3 21V80c0-26.5-21.5-48-48-48H80zM32 320v48c0 26.5 21.5 48 48 48H432c26.5 0 48-21.5 48-48V320c0-35.3-28.7-64-64-64H96c-35.3 0-64 28.7-64 64zM0 320V80C0 35.8 35.8 0 80 0H432c44.2 0 80 35.8 80 80V320v48c0 26.2-12.6 49.4-32 64v64c0 8.8-7.2 16-16 16s-16-7.2-16-16V446.4c-5.2 1-10.5 1.6-16 1.6H80c-5.5 0-10.8-.6-16-1.6V496c0 8.8-7.2 16-16 16s-16-7.2-16-16V432C12.6 417.4 0 394.2 0 368V320zm105.4-96H406.6l-26.3-74.7C375.7 136.6 363.6 128 350 128H162c-13.6 0-25.7 8.6-30.2 21.3L105.4 224zM80 328a24 24 0 1 1 48 0 24 24 0 1 1 -48 0zm328-24a24 24 0 1 1 0 48 24 24 0 1 1 0-48z"/></svg>