<svg xmlns="http://www.w3.org/2000/svg" viewBox="0 0 384 512"><!--! Font Awesome Pro 6.4.0 by @fontawesome - https://fontawesome.com License - https://fontawesome.com/license (Commercial License) Copyright 2023 Fonticons, Inc. --><path d="M80 32c8.8 0 16 7.2 16 16v77.1L251.6 80.6c8.5-2.4 17.4 2.5 19.8 11s-2.5 17.4-11 19.8L96 158.4v62.7l155.6-44.5c8.5-2.4 17.4 2.5 19.8 11s-2.5 17.4-11 19.8L96 254.4V448h95.2C277 448 347.5 380.4 351 294.7l1-23.3c.4-8.8 7.8-15.7 16.7-15.3s15.7 7.8 15.3 16.7L383 296c-4.3 102.8-88.9 184-191.8 184H80c-8.8 0-16-7.2-16-16V263.5l-27.6 7.9c-8.5 2.4-17.4-2.5-19.8-11s2.5-17.4 11-19.8L64 230.2V167.5l-27.6 7.9c-8.5 2.4-17.4-2.5-19.8-11s2.5-17.4 11-19.8L64 134.2V48c0-8.8 7.2-16 16-16z"/></svg>