<svg xmlns="http://www.w3.org/2000/svg" viewBox="0 0 640 512"><!--! Font Awesome Pro 6.4.0 by @fontawesome - https://fontawesome.com License - https://fontawesome.com/license (Commercial License) Copyright 2023 Fonticons, Inc. --><path d="M448 32h24 8 5.8c24.7 0 45.4 18.8 47.8 43.4l7.7 80.8c1.1 11.9-4.5 23.4-14.7 29.7c-14.4 9-33.4 4.9-42.9-9.2l-6.4-9.6c-3-4.5-8-7.1-13.3-7.1H432c-8.8 0-16 7.2-16 16v52.8c-.3 1.5-.4 3-.3 4.5c.2 2.2 .3 4.4 .3 6.7c0 24-10.4 45.1-26.7 59.6c-3.4 3-5.3 7.4-5.3 11.9V472c0 4.4-3.6 8-8 8H344c-4.4 0-8-3.6-8-8V334.7c0-7.8-5.6-14.5-13.3-15.8c-1.4-.2-2.8-.5-4.3-.8L202.2 291.9c-5.2-1.2-10.6 .3-14.5 4s-5.7 9-4.8 14.3c.8 4.5 1.1 9.1 1.1 13.7c0 11.3-2.3 22.4-6.7 32.8l-8.1 19c-5 11.7-5.9 24.8-2.5 37l15.9 57.2c1.4 5.1-2.4 10.1-7.7 10.1H141.6c-3.6 0-6.7-2.4-7.7-5.9l-13.5-48.6c-6.3-22.8-4.7-47.1 4.6-68.8l8.1-19c1.9-4.4 2.8-9.1 2.8-13.9c0-4.6-.9-9.3-2.7-13.5L99.9 230.2C97.3 224 96 217.4 96 210.7c0-28 22.7-50.7 50.7-50.7H192h40 88c8.8 0 16-7.2 16-16c0-61.9 50.1-112 112-112zM564.2 64c-2.5-12.2-7.7-23.4-15-32.9C555.5 29 560 23 560 16c0-8.8-7.2-16-16-16H485.8 480h-8H448C373.9 0 312.8 56 304.9 128H232 192 146.7c-33.5 0-62.3 19.9-75.3 48.5C31.3 180.8 0 214.7 0 256v48c0 8.8 7.2 16 16 16s16-7.2 16-16V256c0-20.9 13.4-38.7 32-45.3c0 10.9 2.2 21.7 6.4 31.7l33.4 80.1c.2 .4 .2 .8 .2 1.2c0 .4-.1 .9-.3 1.3l-8.1 19c-12.2 28.4-14.3 60.2-6 90l13.5 48.6c4.8 17.3 20.6 29.3 38.5 29.3h33.2c26.5 0 45.6-25.2 38.5-50.7l-15.9-57.2c-1.5-5.3-1.1-10.9 1.1-15.9l8.1-19c5.6-13.1 8.8-27.2 9.2-41.4L304 347.6V472c0 22.1 17.9 40 40 40h32c22.1 0 40-17.9 40-40V318.4c19.6-20 32-47.5 32-78.4c0-1.9-.1-3.9-.1-5.8c.1-.7 .1-1.4 .1-2.2V192h7.4l1.7 2.5c19 28.6 57.4 36.8 86.5 18.6c20.4-12.7 31.8-35.9 29.6-59.9l-4.7-49.4 65.2-21.7c3.8-1.3 6.4-4.8 6.4-8.8c0-5.1-4.2-9.3-9.3-9.3H564.2zM480 112a16 16 0 1 0 0-32 16 16 0 1 0 0 32z"/></svg>