<svg xmlns="http://www.w3.org/2000/svg" viewBox="0 0 640 512"><!--! Font Awesome Pro 6.4.0 by @fontawesome - https://fontawesome.com License - https://fontawesome.com/license (Commercial License) Copyright 2023 Fonticons, Inc. --><path d="M176 0c-.9 0-1.8 .1-2.7 .2C135.2 2.6 100.8 24.3 82.2 58L15.8 178.8C5.5 197.7 0 218.9 0 240.4V368c0 26.5 21.5 48 48 48H80c26.5 0 48-21.5 48-48V288 240.4l32-58.2V288h32V121.2c0-6.7-4.2-12.7-10.4-15s-13.3-.5-17.7 4.5c-1.9 2.2-3.6 4.6-5.1 7.3L100 225c-2.6 4.7-4 10-4 15.4V368c0 8.8-7.2 16-16 16H48c-8.8 0-16-7.2-16-16V240.4c0-16.2 4.1-32.1 11.9-46.3L110.3 73.4C123.8 49 149 33.3 176.7 32.1c.4 0 .7 0 1.1-.1h52.3l72 144-56 112h35.8l52.4-104.8L409.9 32h52.3c.4 0 .7 .1 1.1 .1c27.7 1.3 53 16.9 66.4 41.4l66.4 120.7c7.8 14.2 11.9 30.1 11.9 46.3V368c0 8.8-7.2 16-16 16H560c-8.8 0-16-7.2-16-16V240.4c0-5.4-1.4-10.7-4-15.4L481.2 118c-1.4-2.6-3.1-5.1-5-7.3c-4.4-5.1-11.4-6.9-17.7-4.5s-10.4 8.3-10.4 15V288h32V182.3l32 58.2V288v80c0 26.5 21.5 48 48 48h32c26.5 0 48-21.5 48-48V240.4c0-21.6-5.4-42.8-15.8-61.7L557.8 58c-18.5-33.7-53-55.4-91.1-57.8c-.9-.1-1.8-.2-2.7-.2H400 240 176zm89.9 32H374.1L320 140.2 265.9 32zM448 384v72c0 13.3-10.7 24-24 24H216c-13.3 0-24-10.7-24-24V384H160v72c0 30.9 25.1 56 56 56H424c30.9 0 56-25.1 56-56V384H448zM144 336c0 8.8 7.2 16 16 16H290.1l-47.4 71.1c-4.9 7.4-2.9 17.3 4.4 22.2s17.3 2.9 22.2-4.4l50.7-76 50.7 76c4.9 7.4 14.8 9.3 22.2 4.4s9.3-14.8 4.4-22.2L349.9 352H480c8.8 0 16-7.2 16-16s-7.2-16-16-16H320 160c-8.8 0-16 7.2-16 16z"/></svg>