<svg xmlns="http://www.w3.org/2000/svg" viewBox="0 0 448 512"><!--! Font Awesome Pro 6.4.0 by @fontawesome - https://fontawesome.com License - https://fontawesome.com/license (Commercial License) Copyright 2023 Fonticons, Inc. --><path d="M224 32c-53 0-96 43-96 96v64H368c44.2 0 80 35.8 80 80V432c0 44.2-35.8 80-80 80H80c-44.2 0-80-35.8-80-80V272c0-44.2 35.8-80 80-80H96V128C96 57.3 153.3 0 224 0c58 0 107 38.6 122.7 91.4c2.5 8.5-2.3 17.4-10.8 19.9s-17.4-2.3-19.9-10.8C304.2 60.9 267.5 32 224 32zM80 224c-26.5 0-48 21.5-48 48V432c0 26.5 21.5 48 48 48H368c26.5 0 48-21.5 48-48V272c0-26.5-21.5-48-48-48H80zM264 368H184c-8.8 0-16-7.2-16-16s7.2-16 16-16h80c8.8 0 16 7.2 16 16s-7.2 16-16 16z"/></svg>