<svg xmlns="http://www.w3.org/2000/svg" viewBox="0 0 256 512"><!--! Font Awesome Pro 6.4.0 by @fontawesome - https://fontawesome.com License - https://fontawesome.com/license (Commercial License) Copyright 2023 Fonticons, Inc. --><path d="M103.3 9.7C110 3.5 118.8 0 128 0s18 3.5 24.7 9.7l91 84c7.8 7.2 12.3 17.4 12.3 28.1c0 21.1-17.1 38.3-38.3 38.3H192V352h25.7c21.1 0 38.3 17.1 38.3 38.3c0 10.7-4.5 20.9-12.3 28.1l-91 84c-6.7 6.2-15.6 9.7-24.7 9.7s-18-3.5-24.7-9.7l-91-84C4.5 411.1 0 400.9 0 390.3C0 369.1 17.1 352 38.3 352H64V160H38.3C17.1 160 0 142.9 0 121.7c0-10.7 4.5-20.9 12.3-28.1l91-84zM128 32c-1.1 0-2.2 .4-3 1.2l-91 84c-1.3 1.2-2 2.9-2 4.6c0 3.5 2.8 6.3 6.3 6.3H80c8.8 0 16 7.2 16 16V368v0 0 0 0 0 0 0 0 0 0 0 0 0 0 0 0 0 0 0 0 0 0 0 0 0 0 0 0 0 0 0 0c0 8.8-7.2 16-16 16H38.3c-3.5 0-6.3 2.8-6.3 6.3c0 1.7 .7 3.4 2 4.6l91 84c.8 .8 1.9 1.2 3 1.2s2.2-.4 3-1.2l91-84c1.3-1.2 2-2.8 2-4.6c0-3.5-2.8-6.3-6.3-6.3H176c-8.8 0-16-7.2-16-16v0 0 0 0 0 0 0 0 0 0 0 0 0 0 0 0 0 0 0 0 0 0 0 0 0 0 0 0 0 0 0 0V144c0-8.8 7.2-16 16-16h41.7c3.5 0 6.3-2.8 6.3-6.3c0-1.7-.7-3.4-2-4.6l-91-84c-.8-.8-1.9-1.2-3-1.2z"/></svg>