<svg xmlns="http://www.w3.org/2000/svg" viewBox="0 0 448 512"><!--! Font Awesome Pro 6.4.0 by @fontawesome - https://fontawesome.com License - https://fontawesome.com/license (Commercial License) Copyright 2023 Fonticons, Inc. --><path d="M222.2 32.8c.5-.5 1.1-.8 1.8-.8s1.4 .3 1.8 .8L350.2 164.7c1.2 1.2 1.8 2.9 1.8 4.6c0 3.7-3 6.7-6.7 6.7H288c-8.8 0-16 7.2-16 16V312c0 4.4-3.6 8-8 8H184c-4.4 0-8-3.6-8-8V192c0-8.8-7.2-16-16-16H102.7c-3.7 0-6.7-3-6.7-6.7c0-1.7 .7-3.3 1.8-4.6L222.2 32.8zM224 0c-9.5 0-18.6 3.9-25.1 10.8L74.5 142.8C67.8 150 64 159.5 64 169.3c0 21.4 17.3 38.7 38.7 38.7H144V312c0 22.1 17.9 40 40 40h80c22.1 0 40-17.9 40-40V208h41.3c21.4 0 38.7-17.3 38.7-38.7c0-9.9-3.8-19.3-10.5-26.5L249.1 10.8C242.6 3.9 233.5 0 224 0zM32 336c0-8.8-7.2-16-16-16s-16 7.2-16 16v96c0 44.2 35.8 80 80 80H368c44.2 0 80-35.8 80-80V336c0-8.8-7.2-16-16-16s-16 7.2-16 16v96c0 26.5-21.5 48-48 48H80c-26.5 0-48-21.5-48-48V336z"/></svg>