<svg xmlns="http://www.w3.org/2000/svg" viewBox="0 0 384 512"><!--! Font Awesome Pro 6.4.0 by @fontawesome - https://fontawesome.com License - https://fontawesome.com/license (Commercial License) Copyright 2023 Fonticons, Inc. --><path d="M190.2 64.8c.5-.5 1.1-.8 1.8-.8s1.4 .3 1.8 .8L318.2 196.7c1.2 1.2 1.8 2.9 1.8 4.6c0 3.7-3 6.7-6.7 6.7H256c-8.8 0-16 7.2-16 16V344c0 4.4-3.6 8-8 8H152c-4.4 0-8-3.6-8-8V224c0-8.8-7.2-16-16-16H70.7c-3.7 0-6.7-3-6.7-6.7c0-1.7 .7-3.3 1.8-4.6L190.2 64.8zM192 32c-9.5 0-18.6 3.9-25.1 10.8L42.5 174.8C35.8 182 32 191.5 32 201.3C32 222.7 49.3 240 70.7 240H112V344c0 22.1 17.9 40 40 40h80c22.1 0 40-17.9 40-40V240h41.3c21.4 0 38.7-17.3 38.7-38.7c0-9.9-3.8-19.3-10.5-26.5L217.1 42.8C210.6 35.9 201.5 32 192 32zM16 480H368c8.8 0 16-7.2 16-16s-7.2-16-16-16H16c-8.8 0-16 7.2-16 16s7.2 16 16 16z"/></svg>