<svg xmlns="http://www.w3.org/2000/svg" viewBox="0 0 448 512"><!--! Font Awesome Pro 6.4.0 by @fontawesome - https://fontawesome.com License - https://fontawesome.com/license (Commercial License) Copyright 2023 Fonticons, Inc. --><path d="M224 32C135.6 32 64 103.6 64 192v16c0 8.8-7.2 16-16 16s-16-7.2-16-16V192C32 86 118 0 224 0S416 86 416 192v16c0 61.9-50.1 112-112 112H240 224 208c-17.7 0-32-14.3-32-32s14.3-32 32-32h32c17.7 0 32 14.3 32 32h32c44.2 0 80-35.8 80-80V192c0-88.4-71.6-160-160-160zm0 32c70.7 0 128 57.3 128 128c0 13.9-2.2 27.3-6.3 39.8C337.4 246.3 321.8 256 304 256h-8.4c15.2-17 24.4-39.4 24.4-64c0-53-43-96-96-96s-96 43-96 96c0 24.6 9.3 47.1 24.5 64.1c-5.4 9.4-8.5 20.3-8.5 31.9c0 1.4 0 2.7 .1 4C114.8 268.6 96 232.5 96 192c0-70.7 57.3-128 128-128zM208 352h16 16 64 9.6C387.8 352 448 412.2 448 486.4c0 14.1-11.5 25.6-25.6 25.6H25.6C11.5 512 0 500.5 0 486.4C0 412.2 60.2 352 134.4 352H208zm105.6 32H134.4C80 384 35.5 426.4 32.2 480H415.8c-3.3-53.6-47.8-96-102.2-96z"/></svg>