<svg xmlns="http://www.w3.org/2000/svg" viewBox="0 0 448 512"><!--! Font Awesome Pro 6.4.0 by @fontawesome - https://fontawesome.com License - https://fontawesome.com/license (Commercial License) Copyright 2023 Fonticons, Inc. --><path d="M320 144c0 53-43 96-96 96s-96-43-96-96V128l34.3 0c31.7 0 61.1-14.5 80.4-38.7l6.3 6.3c10.5 10.5 24.7 16.4 39.6 16.4h30.1c.9 5.2 1.3 10.5 1.3 16v16zm32-16C352 57.3 294.7 0 224 0S96 57.3 96 128c0 35.3-16.6 68.4-44.8 89.6l-4.3 3.2C37.5 227.9 32 238.9 32 250.7C32 271.3 48.7 288 69.3 288H128c8.8 0 16-7.2 16-16s-7.2-16-16-16H69.3c-2.9 0-5.3-2.4-5.3-5.3c0-1.7 .8-3.3 2.1-4.3l4.3-3.2c15.8-11.9 28.8-26.7 38.4-43.4C129.5 242.6 173.3 272 224 272s94.5-29.4 115.2-72.2c9.6 16.7 22.6 31.5 38.4 43.4l4.3 3.2c1.3 1 2.1 2.6 2.1 4.3c0 2.9-2.4 5.3-5.3 5.3H320c-8.8 0-16 7.2-16 16s7.2 16 16 16h58.7c20.6 0 37.3-16.7 37.3-37.3c0-11.8-5.5-22.8-14.9-29.9l-4.3-3.2C368.6 196.4 352 163.3 352 128zM225.5 57.1C213.5 81 189.1 96 162.3 96H133.5c13.2-37.3 48.7-64 90.5-64c35.5 0 66.6 19.3 83.2 48H288.6c-6.4 0-12.5-2.5-17-7L251.3 52.7c-6.2-6.2-16.4-6.2-22.6 0c-1.3 1.3-2.4 2.8-3.1 4.5zM270.8 336c5.8 0 11.5 .3 17.2 1v33.3c-23.1 6.9-40 28.3-40 53.7v24c0 8.8 7.2 16 16 16h16c8.8 0 16-7.2 16-16s-7.2-16-16-16v-8c0-13.3 10.7-24 24-24s24 10.7 24 24v8c-8.8 0-16 7.2-16 16s7.2 16 16 16h16c8.8 0 16-7.2 16-16V424c0-25.4-16.9-46.8-40-53.7V344.5c55.6 20 95.5 73 96 135.5H32c.5-68.2 48.2-125.3 112-140.2v30.9c-18.6 6.6-32 24.4-32 45.3c0 26.5 21.5 48 48 48s48-21.5 48-48c0-20.9-13.4-38.7-32-45.3V336l1.2 0h93.6zM176 416a16 16 0 1 1 -32 0 16 16 0 1 1 32 0zM0 481.2c0 17 13.8 30.8 30.8 30.8H417.2c17 0 30.8-13.8 30.8-30.8C448 383.3 368.7 304 270.8 304H177.2C79.3 304 0 383.3 0 481.2z"/></svg>