<svg xmlns="http://www.w3.org/2000/svg" viewBox="0 0 640 512"><!--! Font Awesome Pro 6.4.0 by @fontawesome - https://fontawesome.com License - https://fontawesome.com/license (Commercial License) Copyright 2023 Fonticons, Inc. --><path d="M224 224a96 96 0 1 0 0-192 96 96 0 1 0 0 192zM32 480H384c0 11.7 3.1 22.6 8.6 32H29.7C13.3 512 0 498.7 0 482.3C0 383.8 79.8 304 178.3 304h91.4c43.6 0 83.6 15.7 114.6 41.7c-.2 2.1-.3 4.2-.3 6.3v39c-26.8-33.5-68-55-114.3-55H178.3c-80 0-145 64.3-146.3 144zM96 128a128 128 0 1 1 256 0A128 128 0 1 1 96 128zm432 96c-26.5 0-48 21.5-48 48v48h96V272c0-26.5-21.5-48-48-48zm-80 48c0-44.2 35.8-80 80-80s80 35.8 80 80v48c17.7 0 32 14.3 32 32V480c0 17.7-14.3 32-32 32H448c-17.7 0-32-14.3-32-32V352c0-17.7 14.3-32 32-32V272zm0 80V480H608V352H448z"/></svg>