<svg xmlns="http://www.w3.org/2000/svg" viewBox="0 0 448 512"><!--! Font Awesome Pro 6.4.0 by @fontawesome - https://fontawesome.com License - https://fontawesome.com/license (Commercial License) Copyright 2023 Fonticons, Inc. --><path d="M128 144V76.9l96-42 96 42V144H128zM96 76.9V144v16 16 0c0 70.7 57.3 128 128 128s128-57.3 128-128v0V160 144 76.9c0-12.7-7.5-24.2-19.2-29.3l-96-42c-8.2-3.6-17.5-3.6-25.7 0l-96 42C103.5 52.7 96 64.2 96 76.9zM320 176v0c0 53-43 96-96 96c-35.5 0-66.6-19.3-83.2-48h21.5c35.5 0 68.3-18.3 87-48H320zm-112.8 0c-12.4 10.2-28.2 16-44.8 16h-33c-.9-5.2-1.3-10.5-1.3-16v0h79.2zM121.1 356.3l69 69c18.7 18.7 49.1 18.7 67.9 0l69-69c51.4 16.8 88.5 64.9 89.1 121.6H32c.6-56.8 37.7-104.9 89.1-121.6zm21.7-23.5c-7.5-7.5-18.3-11-28.4-7.9C48.2 344.9 0 406.4 0 479.2c0 17 13.8 30.7 30.7 30.7H417.3c17 0 30.7-13.8 30.7-30.7c0-72.8-48.2-134.3-114.4-154.4c-10.1-3.1-20.9 .4-28.4 7.9l-69.8 69.8c-6.2 6.2-16.4 6.2-22.6 0l-69.8-69.8zM208 56V72H192c-4.4 0-8 3.6-8 8V96c0 4.4 3.6 8 8 8h16v16c0 4.4 3.6 8 8 8h16c4.4 0 8-3.6 8-8V104h16c4.4 0 8-3.6 8-8V80c0-4.4-3.6-8-8-8H240V56c0-4.4-3.6-8-8-8H216c-4.4 0-8 3.6-8 8z"/></svg>