<svg xmlns="http://www.w3.org/2000/svg" viewBox="0 0 448 512"><!--! Font Awesome Pro 6.4.0 by @fontawesome - https://fontawesome.com License - https://fontawesome.com/license (Commercial License) Copyright 2023 Fonticons, Inc. --><path d="M176 60.8c-28.7 16.6-48 47.6-48 83.2H320c0-35.5-19.3-66.6-48-83.2V80c0 8.8-7.2 16-16 16s-16-7.2-16-16V32H208V80c0 8.8-7.2 16-16 16s-16-7.2-16-16V60.8zM271.2 25C318.5 43.8 352 90 352 144l16 0c8.8 0 16 7.2 16 16s-7.2 16-16 16H80c-8.8 0-16-7.2-16-16s7.2-16 16-16l16 0c0-54 33.5-100.2 80.8-119C180 10.7 192.7 0 208 0h32c15.3 0 28 10.7 31.2 25zM224 320c-65.3 0-119.1-48.9-127-112h32.3c7.6 45.4 47.1 80 94.7 80s87.1-34.6 94.7-80H351c-7.9 63.1-61.7 112-127 112zM415.8 480c-3.3-53.6-47.8-96-102.2-96H134.4C80 384 35.5 426.4 32.2 480H415.8zM0 486.4C0 412.2 60.2 352 134.4 352H224h89.6C387.8 352 448 412.2 448 486.4c0 14.1-11.5 25.6-25.6 25.6H25.6C11.5 512 0 500.5 0 486.4z"/></svg>