<svg xmlns="http://www.w3.org/2000/svg" viewBox="0 0 640 512"><!--! Font Awesome Pro 6.4.0 by @fontawesome - https://fontawesome.com License - https://fontawesome.com/license (Commercial License) Copyright 2023 Fonticons, Inc. --><path d="M224 224a96 96 0 1 0 0-192 96 96 0 1 0 0 192zM32 480H388.1c10.3 11.3 22.1 21.9 35.5 31.5c-1.7 .3-3.5 .5-5.3 .5H29.7C13.3 512 0 498.7 0 482.3C0 383.8 79.8 304 178.3 304h91.4c17.6 0 34.6 2.6 50.7 7.3c.6 11 1.9 22.9 4.1 35.3c-16.9-6.9-35.5-10.6-54.9-10.6H178.3c-80 0-145 64.3-146.3 144zM96 128a128 128 0 1 1 256 0A128 128 0 1 1 96 128zM384.1 301.4c1.3 53 22.6 129.5 95.9 170V263l-95.9 38.4zm223.9 0L512 263V471.4c73.4-40.5 94.6-117.1 95.9-170zm-103-75.7l120 48C634 277.4 640 286.2 640 296c0 63.3-25.9 168.8-134.8 214.2c-5.9 2.5-12.6 2.5-18.5 0C377.9 464.8 352 359.3 352 296c0-9.8 6-18.6 15.1-22.3l120-48c5.7-2.3 12.1-2.3 17.8 0z"/></svg>