<svg xmlns="http://www.w3.org/2000/svg" viewBox="0 0 448 512"><!--! Font Awesome Pro 6.4.0 by @fontawesome - https://fontawesome.com License - https://fontawesome.com/license (Commercial License) Copyright 2023 Fonticons, Inc. --><path d="M238.7 4.4C234.3 1.5 229.2 0 224 0s-10.3 1.5-14.7 4.4L176.9 26.1c-5.4 3.6-12.4 3.6-17.8 0L124 2.7C121.4 .9 118.3 0 115.2 0H112c-8.8 0-16 7.2-16 16V128v16c0 70.7 57.3 128 128 128s128-57.3 128-128V128 16c0-8.8-7.2-16-16-16h-3.2c-3.2 0-6.2 .9-8.9 2.7L288.9 26.1c-5.4 3.6-12.4 3.6-17.8 0L238.7 4.4zM320 112H128V43.8l13.4 8.9c16.1 10.7 37.1 10.7 53.3 0L224 33.1l29.4 19.6c16.1 10.7 37.1 10.7 53.3 0L320 43.8V112zM128 144H320c0 53-43 96-96 96s-96-43-96-96zm40 192H280c75.1 0 136 60.9 136 136v8H32v-8c0-75.1 60.9-136 136-136zm0-32C75.2 304 0 379.2 0 472v8c0 17.7 14.3 32 32 32H416c17.7 0 32-14.3 32-32v-8c0-92.8-75.2-168-168-168H168z"/></svg>