<svg xmlns="http://www.w3.org/2000/svg" viewBox="0 0 640 512"><!--! Font Awesome Pro 6.4.0 by @fontawesome - https://fontawesome.com License - https://fontawesome.com/license (Commercial License) Copyright 2023 Fonticons, Inc. --><path d="M32 32h96c8.8 0 16-7.2 16-16s-7.2-16-16-16H24C10.7 0 0 10.7 0 24V128c0 8.8 7.2 16 16 16s16-7.2 16-16V32zm576 0v96c0 8.8 7.2 16 16 16s16-7.2 16-16V24c0-13.3-10.7-24-24-24H512c-8.8 0-16 7.2-16 16s7.2 16 16 16h96zM128 480H32V384c0-8.8-7.2-16-16-16s-16 7.2-16 16V488c0 13.3 10.7 24 24 24H128c8.8 0 16-7.2 16-16s-7.2-16-16-16zm480 0H512c-8.8 0-16 7.2-16 16s7.2 16 16 16H616c13.3 0 24-10.7 24-24V384c0-8.8-7.2-16-16-16s-16 7.2-16 16v96zM288 192a32 32 0 1 1 64 0 32 32 0 1 1 -64 0zm96 0a64 64 0 1 0 -128 0 64 64 0 1 0 128 0zM360 320c19.4 0 35.5 13.7 39.2 32H240.8c3.7-18.3 19.8-32 39.2-32h80zm-80-32c-39.8 0-72 32.2-72 72c0 13.3 10.7 24 24 24H408c13.3 0 24-10.7 24-24c0-39.8-32.2-72-72-72H320 280zM159.8 176a16 16 0 1 1 32 0 16 16 0 1 1 -32 0zm64 0a48 48 0 1 0 -96 0 48 48 0 1 0 96 0zM128 312c0-13.3 10.7-24 24-24h56c8.8 0 16-7.2 16-16s-7.2-16-16-16H152c-30.9 0-56 25.1-56 56v8c0 8.8 7.2 16 16 16s16-7.2 16-16v-8zM464.2 160a16 16 0 1 1 0 32 16 16 0 1 1 0-32zm0 64a48 48 0 1 0 0-96 48 48 0 1 0 0 96zM488 288c13.3 0 24 10.7 24 24v8c0 8.8 7.2 16 16 16s16-7.2 16-16v-8c0-30.9-25.1-56-56-56H432c-8.8 0-16 7.2-16 16s7.2 16 16 16h56z"/></svg>