<svg xmlns="http://www.w3.org/2000/svg" viewBox="0 0 640 512"><!--! Font Awesome Pro 6.4.0 by @fontawesome - https://fontawesome.com License - https://fontawesome.com/license (Commercial License) Copyright 2023 Fonticons, Inc. --><path d="M128 128a96 96 0 1 1 192 0 96 96 0 1 1 -192 0zM32 480c1.2-79.7 66.2-144 146.3-144h91.4c6.5 0 12.9 .4 19.2 1.2c-.6-5.7-.9-11.4-.9-17.2c0-5.1 .2-10.1 .7-15c-6.2-.7-12.6-1-19-1H178.3C79.8 304 0 383.8 0 482.3C0 498.7 13.3 512 29.7 512H418.3c16.4 0 29.7-13.3 29.7-29.7c0-.8 0-1.5 0-2.3H416 192 32zM224 256A128 128 0 1 0 224 0a128 128 0 1 0 0 256zm224-31.9a96 96 0 1 1 0 192 96 96 0 1 1 0-192zm0 224c29.6 0 56.8-10 78.5-26.9l86.2 86.2c6.2 6.2 16.4 6.2 22.6 0s6.2-16.4 0-22.6l-86.2-86.2C566 377 576 349.7 576 320.2c0-70.7-57.3-128-128-128s-128 57.3-128 128s57.3 128 128 128z"/></svg>