<svg xmlns="http://www.w3.org/2000/svg" viewBox="0 0 448 512"><!--! Font Awesome Pro 6.4.0 by @fontawesome - https://fontawesome.com License - https://fontawesome.com/license (Commercial License) Copyright 2023 Fonticons, Inc. --><path d="M169.1 37.7c-5.8 6.6-12 17.3-18.1 31.9c-6.1 14.5-11.3 31-15.5 47.2c24.4 6.4 54 11.2 88.6 11.2c33.4 0 63.3-5.2 88.3-12.1c-4.2-15.9-9.3-32-15.3-46.3c-6.1-14.6-12.4-25.3-18.1-31.9c-4-4.6-6.3-5.6-7-5.7c-4.8 0-7.3 .6-8.5 1c-1 .3-1.9 .8-3.6 1.8c-.1 .1-.4 .3-.7 .5C255.7 37.9 242.2 48 224 48s-31.7-10.1-35.1-12.7l0 0c-.3-.3-.6-.4-.7-.5c-1.6-1.1-2.5-1.5-3.6-1.8c-1.1-.4-3.6-1-8.5-1c-.6 .2-3 1.2-7 5.7zM272 0c34.2 0 57 54.9 70.8 106c.8-.3 1.6-.6 2.4-.9c14.8-5.7 26.5-11.4 34.3-15.7c3.9-2.1 6.9-3.9 8.9-5c1-.6 1.7-1 2.2-1.3l.5-.3 .1 0 0 0 0 0c7.4-4.9 17.3-2.9 22.2 4.4s2.9 17.3-4.4 22.2L400 96c8.9 13.3 8.9 13.3 8.9 13.3l0 0 0 0-.1 0-.2 .1-.8 .5c-.7 .4-1.6 1-2.8 1.7c-2.4 1.4-5.8 3.5-10.3 5.8c-8.9 4.8-21.7 11.1-37.9 17.3C324.4 147.4 278.4 160 224 160c-58.3 0-104.3-12.5-135.9-25.1c-15.8-6.3-28-12.7-36.3-17.5c-4.2-2.4-7.4-4.5-9.6-6c-1.1-.7-2-1.3-2.6-1.8l-.7-.5-.2-.2-.1-.1 0 0 0 0s0 0 9.6-12.8l-9.6 12.8c-7.1-5.3-8.5-15.3-3.2-22.4c5.3-7.1 15.3-8.5 22.4-3.2l.1 0 .4 .3c.4 .3 1 .7 1.8 1.3c1.7 1.1 4.4 2.8 7.9 4.9c7.2 4.2 18 9.8 32.2 15.5c1.6 .6 3.3 1.3 5 1.9C118.7 55.7 141.5 0 176 0c18 0 25.9 5.4 32.5 9.9c4.7 3.3 8.8 6.1 15.5 6.1s10.8-2.8 15.5-6.1C246.1 5.4 254 0 272 0zm-.3 32a.1 .1 0 1 0 .1 .1 .1 .1 0 1 0 -.1-.1zm-95.6 0a.1 .1 0 1 0 .3 .1 .1 .1 0 1 0 -.3-.1zM100 224c-2.6-10.2-4-21-4-32c0-6.7 .5-13.3 1.5-19.7c9.6 3.1 19.9 6.1 31.1 8.8c-.4 3.6-.6 7.2-.6 10.9c0 53 43 96 96 96s96-43 96-96c0-4-.2-7.9-.7-11.7c11.1-2.8 21.5-5.8 31-9c1.1 6.8 1.7 13.7 1.7 20.8c0 11-1.4 21.8-4 32h71.2c7.1 0 12.8 5.7 12.8 12.8c0 2.1-.5 4.1-1.5 6l-45.7 86.8C423.6 364.8 448 415.5 448 472v8c0 17.7-14.3 32-32 32H272.4c-.2 0-.5 0-.7 0H176.4c-.2 0-.5 0-.7 0H32c-17.7 0-32-14.3-32-32v-8c0-56.5 24.4-107.2 63.2-142.4L17.5 242.8c-1-1.8-1.5-3.9-1.5-6c0-7.1 5.7-12.8 12.8-12.8H100zm234.8 32c-22.1 38.3-63.5 64-110.9 64s-88.7-25.7-110.9-64H60.6l30.9 58.7c6.8 12.9 4 28.8-6.8 38.6C52.3 382.7 32 424.9 32 472l0 8H154.8l-26.2-91.6c-2.4-8.5 2.5-17.4 11-19.8s17.4 2.5 19.8 11l20.3 70.9L201.8 384H192c-8.8 0-16-7.2-16-16s7.2-16 16-16h32 32c8.8 0 16 7.2 16 16s-7.2 16-16 16h-9.8l22.2 66.5 20.3-70.9c2.4-8.5 11.3-13.4 19.8-11s13.4 11.3 11 19.8L293.2 480H416v-8c0-47.1-20.3-89.3-52.7-118.6c-10.8-9.8-13.6-25.7-6.8-38.6L387.4 256H334.9zM203.5 480h40.9L224 418.6 203.5 480zM144 184.4c10.1 2 20.8 3.6 32 4.9V198c0 7 5.7 12.7 12.7 12.7c5.5 0 10.3-3.5 12-8.7l3.5-10.5c6.5 .3 13.1 .5 19.8 .5c6.7 0 13.3-.2 19.8-.5l3.5 10.5c1.7 5.2 6.6 8.7 12 8.7c7 0 12.7-5.7 12.7-12.7v-9c11.2-1.4 21.8-3.2 32-5.3V198c0 24.7-20 44.7-44.7 44.7c-14.1 0-27-6.6-35.3-17.3c-8.3 10.7-21.2 17.3-35.3 17.3c-24.7 0-44.7-20-44.7-44.7V184.4z"/></svg>