<svg xmlns="http://www.w3.org/2000/svg" viewBox="0 0 640 512"><!--! Font Awesome Pro 6.4.0 by @fontawesome - https://fontawesome.com License - https://fontawesome.com/license (Commercial License) Copyright 2023 Fonticons, Inc. --><path d="M144 32a48 48 0 1 1 0 96 48 48 0 1 1 0-96zm0 128A80 80 0 1 0 144 0a80 80 0 1 0 0 160zm112 64a64 64 0 1 1 128 0 64 64 0 1 1 -128 0zm119.2 78.5c12-8.4 21.9-19.5 29-32.5c7.5-13.7 11.8-29.4 11.8-46.1c0-53-43-96-96-96s-96 43-96 96s43 96 96 96c20.6 0 39.6-6.5 55.2-17.5zM360.1 352H261.3C187.7 352 128 411.7 128 485.3c0 14.7 11.9 26.7 26.7 26.7H445.6c-1.1-2-2.1-4-3-6c-19.6 2.1-40.8-4.6-55.4-23.1c-.7-.9-1.5-1.9-2.2-2.8H160.1c2.8-53.5 47-96 101.2-96H372.1l0 0c-6.7-9.1-11.1-20.1-12-32zm278.2-67.4C629.1 232 583.2 192 528 192H444c2.6 10.2 4 21 4 32h65 15c28.7 0 53.9 15.2 68 37.9c15.5 1.4 30.9 8.5 42.3 22.7zM464 80a48 48 0 1 1 96 0 48 48 0 1 1 -96 0zm128 0A80 80 0 1 0 432 80a80 80 0 1 0 160 0zM196 192H112C50.1 192 0 242.1 0 304c0 8.8 7.2 16 16 16s16-7.2 16-16c0-44.2 35.8-80 80-80h80c0-11 1.4-21.8 4-32zM501 289.3v-.6c3.9-.5 7.9-.7 12-.7s8.1 .3 12 .7v.6c0 16.5 10.6 29.2 22 35.8c11.5 6.7 27.7 9.4 41.9 1.2l.5-.3c2.1 2.7 4 5.6 5.8 8.5l1.9 3.2c1.6 2.9 3.1 5.9 4.4 9l-.5 .3c-14.3 8.2-20 23.7-20 36.9s5.7 28.7 20 36.9l.5 .3c-1.3 3.1-2.7 6.1-4.3 9l-1.9 3.4c-1.8 2.9-3.7 5.7-5.7 8.4l-.5-.3c-14.2-8.2-30.4-5.5-41.9 1.2c-11.4 6.6-22 19.2-22 35.8v.6c-3.9 .5-7.9 .7-12 .7s-8.1-.3-12-.7v-.6c0-16.5-10.6-29.2-22-35.8c-11.5-6.7-27.7-9.4-41.9-1.2l-.5 .3c-2.1-2.7-4-5.5-5.7-8.4l-1.9-3.3c-1.6-2.9-3.1-5.9-4.4-9l.5-.3c14.3-8.2 20-23.7 20-36.9s-5.7-28.7-20-36.9l-.5-.3c1.3-3.1 2.8-6.1 4.4-9.1l1.8-3.2c1.8-2.9 3.7-5.8 5.8-8.5l.5 .3c14.2 8.2 30.4 5.5 41.9-1.2c11.4-6.6 22-19.2 22-35.8zM513 256c-6.1 0-12.2 .4-18.1 1.3c-16.2 2.3-25.9 16.5-25.9 30.7v1.4c0 2-1.5 5.4-6.1 8.1c-4.5 2.6-8.1 2.2-9.9 1.1l-1.2-.7c-12.2-7.1-29.4-5.8-39.5 7.1c-3.3 4.2-6.3 8.6-9.1 13.2l0 0-.1 .2-2 3.4 0 0-.1 .2c-2.5 4.6-4.8 9.4-6.8 14.3c-6.1 15.2 1.4 30.7 13.6 37.7l1.2 .7c1.8 1 4 4 4 9.2s-2.2 8.2-4 9.2l-1.2 .7c-12.2 7.1-19.7 22.6-13.6 37.7c2 4.9 4.2 9.6 6.7 14.2l0 0 .1 .3 2.1 3.6 0 0 .2 .3c2.7 4.6 5.8 8.9 9 13.1c10.1 12.8 27.3 14.1 39.5 7.1l1.2-.7c1.8-1 5.4-1.5 9.9 1.1c4.6 2.7 6.1 6.1 6.1 8.1v1.4c0 14.1 9.7 28.4 25.9 30.7c5.9 .8 12 1.3 18.1 1.3s12.2-.4 18.1-1.3c16.2-2.3 25.9-16.5 25.9-30.7v-1.4c0-2 1.5-5.4 6.1-8.1c4.5-2.6 8.1-2.2 9.9-1.1l1.2 .7c12.2 7.1 29.4 5.8 39.5-7.1c3.3-4.2 6.3-8.5 9-13.1l0 0 .2-.3 2.1-3.6 0 0 .1-.3c2.5-4.6 4.8-9.3 6.7-14.1c6.1-15.2-1.4-30.7-13.6-37.7l-1.2-.7c-1.8-1-4-4-4-9.2s2.2-8.2 4-9.2l1.2-.7c12.2-7.1 19.7-22.6 13.6-37.7c-2-4.9-4.2-9.7-6.8-14.2l0 0-.1-.2-2-3.5 0 0-.1-.2c-2.8-4.6-5.8-9-9.1-13.2c-10.1-12.8-27.3-14.1-39.5-7.1l-1.2 .7c-1.8 1-5.4 1.5-9.9-1.1c-4.6-2.7-6.1-6.1-6.1-8.1v-1.4c0-14.1-9.7-28.4-25.9-30.7c-5.9-.8-12-1.3-18.1-1.3zm15 128a16 16 0 1 1 -32 0 16 16 0 1 1 32 0zm-16 48a48 48 0 1 0 0-96 48 48 0 1 0 0 96z"/></svg>