<svg xmlns="http://www.w3.org/2000/svg" viewBox="0 0 448 512"><!--! Font Awesome Pro 6.4.0 by @fontawesome - https://fontawesome.com License - https://fontawesome.com/license (Commercial License) Copyright 2023 Fonticons, Inc. --><path d="M314.5 96h-32c-12.7 0-24.9-5.1-33.9-14.1L235.3 68.7c-6.2-6.2-16.4-6.2-22.6 0L199.4 81.9c-9 9-21.2 14.1-33.9 14.1h-32c13.2-37.3 48.7-64 90.5-64s77.4 26.7 90.5 64zm5.5 32v16c0 53-43 96-96 96s-96-43-96-96V128l37.5 0c21.2 0 41.6-8.4 56.6-23.4l1.9-1.9 1.9 1.9c15 15 35.4 23.4 56.6 23.4H320zM224 272c46.7 0 87.5-25 109.9-62.3c8.7 8.8 20.8 14.3 34.1 14.3c26.5 0 48-21.5 48-48V112c0-26.5-21.5-48-48-48c-10.6 0-20.4 3.4-28.3 9.2C319.2 29.9 275.1 0 224 0s-95.2 29.9-115.7 73.2C100.4 67.4 90.6 64 80 64c-26.5 0-48 21.5-48 48v64c0 26.5 21.5 48 48 48c13.4 0 25.4-5.5 34.1-14.3C136.5 247 177.3 272 224 272zm128-96V144 128 112c0-8.8 7.2-16 16-16s16 7.2 16 16v64c0 8.8-7.2 16-16 16s-16-7.2-16-16zM168 336H280c75.1 0 136 60.9 136 136v8H32v-8c0-75.1 60.9-136 136-136zm0-32C75.2 304 0 379.2 0 472v8c0 17.7 14.3 32 32 32H416c17.7 0 32-14.3 32-32v-8c0-92.8-75.2-168-168-168H168zM96 144v32c0 8.8-7.2 16-16 16s-16-7.2-16-16V112c0-8.8 7.2-16 16-16s16 7.2 16 16v16 16z"/></svg>