<svg xmlns="http://www.w3.org/2000/svg" viewBox="0 0 640 512"><!--! Font Awesome Pro 6.4.0 by @fontawesome - https://fontawesome.com License - https://fontawesome.com/license (Commercial License) Copyright 2023 Fonticons, Inc. --><path d="M192.4 89.2C203.2 37.2 249 0 302.1 0H528c61.9 0 112 50.1 112 112c0 44.8-26.3 83.5-64.3 101.4C596.1 243.9 608 280.5 608 320V448c0 35.3-28.7 64-64 64H468.7c10.4-9.2 19.2-20 26.2-32H544c17.7 0 32-14.3 32-32V320c0-88.4-71.6-160-160-160c-17.7 0-32 14.3-32 32v96c-11 0-21.8 1.4-32 4V192c0-35.3 28.7-64 64-64c54.6 0 103.9 22.8 138.8 59.4c31-11 53.2-40.6 53.2-75.4c0-44.2-35.8-80-80-80H302.1c-37.9 0-70.6 26.6-78.3 63.7L197 224H164.3L192.4 89.2zM157.7 256h32.7L163.7 384.1C197.3 386 224 413.9 224 448c0 35.3-28.7 64-64 64H24.2C10.8 512 0 501.2 0 487.8c0-5.2 .8-10.4 2.5-15.3l7.6-22.9C23.2 410.4 59.9 384 101.2 384H131l26.7-128zM144.3 416c-.2 0-.4 0-.6 0H101.2c-27.5 0-52 17.6-60.7 43.8L33.7 480H160c17.7 0 32-14.3 32-32s-14.3-32-32-32H144.3zM448 416a64 64 0 1 0 -128 0 64 64 0 1 0 128 0zm-160 0a96 96 0 1 1 192 0 96 96 0 1 1 -192 0zm96-24a24 24 0 1 1 0 48 24 24 0 1 1 0-48z"/></svg>