<svg xmlns="http://www.w3.org/2000/svg" viewBox="0 0 640 512"><!--! Font Awesome Pro 6.4.0 by @fontawesome - https://fontawesome.com License - https://fontawesome.com/license (Commercial License) Copyright 2023 Fonticons, Inc. --><path d="M512 96H128c-17.7 0-32 14.3-32 32v16V368v16c0 17.7 14.3 32 32 32H512c17.7 0 32-14.3 32-32V368 144 128c0-17.7-14.3-32-32-32zM48 128l16 0c0-35.3 28.7-64 64-64H512c35.3 0 64 28.7 64 64h16c26.5 0 48 21.5 48 48V336c0 26.5-21.5 48-48 48H576c0 35.3-28.7 64-64 64H128c-35.3 0-64-28.7-64-64H48c-26.5 0-48-21.5-48-48V176c0-26.5 21.5-48 48-48zM592 352c8.8 0 16-7.2 16-16V176c0-8.8-7.2-16-16-16H576V352h16zM48 352H64V160H48c-8.8 0-16 7.2-16 16V336c0 8.8 7.2 16 16 16zM176 160H464c8.8 0 16 7.2 16 16s-7.2 16-16 16H176c-8.8 0-16-7.2-16-16s7.2-16 16-16zm0 80H464c8.8 0 16 7.2 16 16s-7.2 16-16 16H176c-8.8 0-16-7.2-16-16s7.2-16 16-16zm0 80H464c8.8 0 16 7.2 16 16s-7.2 16-16 16H176c-8.8 0-16-7.2-16-16s7.2-16 16-16z"/></svg>