<svg xmlns="http://www.w3.org/2000/svg" viewBox="0 0 448 512"><!--! Font Awesome Pro 6.4.0 by @fontawesome - https://fontawesome.com License - https://fontawesome.com/license (Commercial License) Copyright 2023 Fonticons, Inc. --><path d="M173.4 69.1l33.4 87.4-17.1 44.8L125.3 32.8c-1.7-.5-3.3-.8-4.9-.8H96c-8.8 0-16 7.2-16 16v80 58.7c0 11.6-3.2 23-9.1 32.9L36.6 276.8c-3 5-4.6 10.7-4.6 16.5V464c0 8.8 7.2 16 16 16H161.6c2.4 11.8 7.4 22.7 14.4 32H48c-26.5 0-48-21.5-48-48V293.3c0-11.6 3.2-23 9.1-32.9l34.3-57.2c3-5 4.6-10.7 4.6-16.5V128 48l0-.3C48.2 21.3 69.6 0 96 0h24.4H125c6.3 0 12.3 1.8 17.4 5.1C152.6 10 161 17.6 167.1 24.7C176 35 192.9 48 224 48s48-13 56.9-23.3C287 17.6 295.4 10 305.6 5.1C310.7 1.8 316.7 0 323 0h4.6H352c26.5 0 48 21.5 48 48v80 58.7c0 5.8 1.6 11.5 4.6 16.5l34.3 57.2c6 9.9 9.1 21.3 9.1 32.9V464c0 26.5-21.5 48-48 48H240c-26.5 0-48-21.5-48-48V296.9c0-7.8 1.4-15.6 4.2-22.9L274.6 69.1C261.3 75.6 244.6 80 224 80s-37.3-4.4-50.6-10.9zM322.7 32.8L226.1 285.4c-1.4 3.6-2.1 7.5-2.1 11.4V464c0 8.8 7.2 16 16 16H400c8.8 0 16-7.2 16-16V293.3c0-5.8-1.6-11.5-4.6-16.5l-34.3-57.2c-6-9.9-9.1-21.3-9.1-32.9V128 48c0-7.7-5.5-14.2-12.8-15.7c-1-.2-2.1-.3-3.2-.3H327.6c-1.6 0-3.2 .3-4.9 .8zM112 416a16 16 0 1 0 0-32 16 16 0 1 0 0 32zm0-64a48 48 0 1 1 0 96 48 48 0 1 1 0-96zm-4.7-107.3L120 257.4l12.7-12.7c6.2-6.2 16.4-6.2 22.6 0s6.2 16.4 0 22.6L142.6 280l12.7 12.7c6.2 6.2 6.2 16.4 0 22.6s-16.4 6.2-22.6 0L120 302.6l-12.7 12.7c-6.2 6.2-16.4 6.2-22.6 0s-6.2-16.4 0-22.6L97.4 280 84.7 267.3c-6.2-6.2-6.2-16.4 0-22.6s16.4-6.2 22.6 0zM312 240c19.6 0 35.9 14.1 39.3 32.7c18.6 3.4 32.7 19.7 32.7 39.3c0 22.1-17.9 40-40 40h-8H288c-8.8 0-16-7.2-16-16V288v-8c0-22.1 17.9-40 40-40zm-8 40v8 32h32 8c4.4 0 8-3.6 8-8s-3.6-8-8-8h-8c-8.8 0-16-7.2-16-16v-8c0-4.4-3.6-8-8-8s-8 3.6-8 8z"/></svg>