<svg xmlns="http://www.w3.org/2000/svg" viewBox="0 0 640 512"><!--! Font Awesome Pro 6.4.0 by @fontawesome - https://fontawesome.com License - https://fontawesome.com/license (Commercial License) Copyright 2023 Fonticons, Inc. --><path d="M25.9 3.4C19-2 8.9-.8 3.4 6.1S-.8 23.1 6.1 28.6l608 480c6.9 5.5 17 4.3 22.5-2.6s4.3-17-2.6-22.5L25.9 3.4zM416 175.2V128c0-35.3-28.7-64-64-64H180.1l40.5 32H352c17.7 0 32 14.3 32 32v97l32 25.3v-75zM64 384V135.4L34.1 111.8C32.7 117 32 122.4 32 128V384c0 35.3 28.7 64 64 64H352c26.4 0 49-16 58.8-38.8l-27.1-21.4C381.8 403.7 368.4 416 352 416H96c-17.7 0-32-14.3-32-32zM576 134.2V376.6l26.5 20.9c3.5-5.8 5.5-12.5 5.5-19.7V134.2c0-21.1-17.1-38.2-38.2-38.2c-6.4 0-12.8 1.6-18.4 4.7L448 157.6v36.5l118.8-65.4c.9-.5 1.9-.8 3-.8c3.4 0 6.2 2.8 6.2 6.2z"/></svg>