<svg xmlns="http://www.w3.org/2000/svg" viewBox="0 0 384 512"><!--! Font Awesome Pro 6.4.0 by @fontawesome - https://fontawesome.com License - https://fontawesome.com/license (Commercial License) Copyright 2023 Fonticons, Inc. --><path d="M96 16C96 7.2 88.8 0 80 0S64 7.2 64 16V96H56C25.1 96 0 121.1 0 152V302.1c0 10.6 4.2 20.8 11.7 28.3l17.9 17.9c1.5 1.5 2.3 3.5 2.3 5.7V456c0 30.9 25.1 56 56 56H296c30.9 0 56-25.1 56-56V353.9c0-2.1 .8-4.2 2.3-5.7l17.9-17.9c7.5-7.5 11.7-17.7 11.7-28.3V152c0-30.9-25.1-56-56-56H96V16zM80 128H328c13.3 0 24 10.7 24 24V302.1c0 2.1-.8 4.2-2.3 5.7l-17.9 17.9c-7.5 7.5-11.7 17.7-11.7 28.3V456c0 13.3-10.7 24-24 24H88c-13.3 0-24-10.7-24-24V353.9c0-10.6-4.2-20.8-11.7-28.3L34.3 307.7c-1.5-1.5-2.3-3.5-2.3-5.7V152c0-13.3 10.7-24 24-24H80zm96-80c-8.8 0-16 7.2-16 16s7.2 16 16 16h32c8.8 0 16-7.2 16-16s-7.2-16-16-16H176zm96 0c-8.8 0-16 7.2-16 16s7.2 16 16 16h32c8.8 0 16-7.2 16-16s-7.2-16-16-16H272zM96 192c0 8.8 7.2 16 16 16H272c8.8 0 16-7.2 16-16s-7.2-16-16-16H112c-8.8 0-16 7.2-16 16zm0 64c0 8.8 7.2 16 16 16H272c8.8 0 16-7.2 16-16s-7.2-16-16-16H112c-8.8 0-16 7.2-16 16zm0 64c0 8.8 7.2 16 16 16H272c8.8 0 16-7.2 16-16s-7.2-16-16-16H112c-8.8 0-16 7.2-16 16z"/></svg>