<svg xmlns="http://www.w3.org/2000/svg" viewBox="0 0 576 512"><!--! Font Awesome Pro 6.4.0 by @fontawesome - https://fontawesome.com License - https://fontawesome.com/license (Commercial License) Copyright 2023 Fonticons, Inc. --><path d="M458.3 34.9c3.1-3.1 8.2-3.1 11.3 0l39.4 39.4c3.1 3.1 3.1 8.2 0 11.3L388.7 206.1l-50.7-50.7L458.3 34.9zM66.9 426.3L315.3 177.9l50.7 50.7L117.7 477.1c-3.1 3.1-8.2 3.1-11.3 0L66.9 437.7c-3.1-3.1-3.1-8.2 0-11.3zM435.7 12.3L44.3 403.7c-15.6 15.6-15.6 40.9 0 56.6l39.4 39.4c15.6 15.6 40.9 15.6 56.6 0L531.7 108.3c15.6-15.6 15.6-40.9 0-56.6L492.3 12.3c-15.6-15.6-40.9-15.6-56.6 0zM128 80c0-8.8-7.2-16-16-16s-16 7.2-16 16v48H48c-8.8 0-16 7.2-16 16s7.2 16 16 16H96v48c0 8.8 7.2 16 16 16s16-7.2 16-16V160h48c8.8 0 16-7.2 16-16s-7.2-16-16-16H128V80zM464 320c-8.8 0-16 7.2-16 16v48H400c-8.8 0-16 7.2-16 16s7.2 16 16 16h48v48c0 8.8 7.2 16 16 16s16-7.2 16-16V416h48c8.8 0 16-7.2 16-16s-7.2-16-16-16H480V336c0-8.8-7.2-16-16-16zM252.2 16c0-6.7-5.4-12.2-12.2-12.2s-12.2 5.4-12.2 12.2V35.8H208c-6.7 0-12.2 5.4-12.2 12.2s5.4 12.2 12.2 12.2h19.8V80c0 6.7 5.4 12.2 12.2 12.2s12.2-5.4 12.2-12.2V60.2H272c6.7 0 12.2-5.4 12.2-12.2s-5.4-12.2-12.2-12.2H252.2V16z"/></svg>