<svg xmlns="http://www.w3.org/2000/svg" viewBox="0 0 640 512"><!--! Font Awesome Pro 6.4.0 by @fontawesome - https://fontawesome.com License - https://fontawesome.com/license (Commercial License) Copyright 2023 Fonticons, Inc. --><path d="M326.2 36c-4-1.7-8.4-1.7-12.4 0L51.6 146.4C39.7 151.4 32 163 32 175.9V496c0 8.8-7.2 16-16 16s-16-7.2-16-16V175.9c0-25.8 15.4-49 39.2-59L301.4 6.5c11.9-5 25.3-5 37.3 0L600.8 116.9c23.7 10 39.2 33.2 39.2 59V496c0 8.8-7.2 16-16 16s-16-7.2-16-16V175.9c0-12.9-7.7-24.5-19.6-29.5L326.2 36zM96 224c0-17.7 14.3-32 32-32H512c17.7 0 32 14.3 32 32V496c0 8.8-7.2 16-16 16s-16-7.2-16-16V224H128V496c0 8.8-7.2 16-16 16s-16-7.2-16-16V224zM352 400v80h80c8.8 0 16-7.2 16-16V416c0-8.8-7.2-16-16-16H352zm-32 80V400H192v64c0 8.8 7.2 16 16 16H320zm0-176c0-8.8-7.2-16-16-16H208c-8.8 0-16 7.2-16 16v64H320V304zm112 64c26.5 0 48 21.5 48 48v48c0 26.5-21.5 48-48 48H208c-26.5 0-48-21.5-48-48V304c0-26.5 21.5-48 48-48h96c26.5 0 48 21.5 48 48v32 32h32 48z"/></svg>