<svg xmlns="http://www.w3.org/2000/svg" viewBox="0 0 384 512"><!--! Font Awesome Pro 6.4.0 by @fontawesome - https://fontawesome.com License - https://fontawesome.com/license (Commercial License) Copyright 2023 Fonticons, Inc. --><path d="M96 48V64H288V48c0-8.8-7.2-16-16-16H112c-8.8 0-16 7.2-16 16zM64 65.6V48C64 21.5 85.5 0 112 0H272c26.5 0 48 21.5 48 48V65.6c36.5 7.4 64 39.7 64 78.4V368c0 38.7-27.5 71-64 78.4V464c0 26.5-21.5 48-48 48l-160 0c-26.5 0-48-21.5-48-48l0-17.6C27.5 439 0 406.7 0 368V144c0-38.7 27.5-71 64-78.4zM96 464c0 8.8 7.2 16 16 16l160 0c8.8 0 16-7.2 16-16V448H96v16zM80 96c-26.5 0-48 21.5-48 48V368c0 26.5 21.5 48 48 48H304c26.5 0 48-21.5 48-48V144c0-26.5-21.5-48-48-48H80zm16 96H288V160H96v32zM64 144c0-8.8 7.2-16 16-16H304c8.8 0 16 7.2 16 16v64c0 8.8-7.2 16-16 16H80c-8.8 0-16-7.2-16-16V144zm64 136a24 24 0 1 1 -48 0 24 24 0 1 1 48 0zm64 24a24 24 0 1 1 0-48 24 24 0 1 1 0 48zm112-24a24 24 0 1 1 -48 0 24 24 0 1 1 48 0zM104 384a24 24 0 1 1 0-48 24 24 0 1 1 0 48zm112-24a24 24 0 1 1 -48 0 24 24 0 1 1 48 0zm64 24a24 24 0 1 1 0-48 24 24 0 1 1 0 48z"/></svg>