<svg xmlns="http://www.w3.org/2000/svg" viewBox="0 0 512 512"><!--! Font Awesome Pro 6.4.0 by @fontawesome - https://fontawesome.com License - https://fontawesome.com/license (Commercial License) Copyright 2023 Fonticons, Inc. --><path d="M112 176a144 144 0 1 1 288 0 144 144 0 1 1 -288 0zm320 0c0-28.8-6.9-56-19.2-80H448c17.7 0 32 14.3 32 32V448c0 17.7-14.3 32-32 32H64c-17.7 0-32-14.3-32-32V128c0-17.7 14.3-32 32-32H99.2C86.9 120 80 147.2 80 176c0 97.2 78.8 176 176 176s176-78.8 176-176zM391.8 64C359.5 24.9 310.7 0 256 0S152.5 24.9 120.2 64H64C28.7 64 0 92.7 0 128V448c0 35.3 28.7 64 64 64H448c35.3 0 64-28.7 64-64V128c0-35.3-28.7-64-64-64H391.8zM320 224c0-20.6-9.7-39-24.9-50.7l23.6-55c3.5-8.1-.3-17.5-8.4-21s-17.5 .3-21 8.4l-23.6 55c-3.2-.5-6.4-.7-9.7-.7c-35.3 0-64 28.7-64 64s28.7 64 64 64s64-28.7 64-64zm-64-32a32 32 0 1 1 0 64 32 32 0 1 1 0-64z"/></svg>