<svg xmlns="http://www.w3.org/2000/svg" viewBox="0 0 512 512"><!--! Font Awesome Pro 6.4.0 by @fontawesome - https://fontawesome.com License - https://fontawesome.com/license (Commercial License) Copyright 2023 Fonticons, Inc. --><path d="M32 64L60 256H452L480 64H32zM64.7 288L82 406.9c3.4 23.6 23.7 41.1 47.5 41.1h253c23.8 0 44.1-17.5 47.5-41.1L447.3 288H64.7zM7.8 43.1C13.9 36 22.7 32 32 32H480c9.3 0 18.1 4 24.2 11.1s8.8 16.4 7.5 25.5l-50 342.9c-5.7 39.3-39.4 68.5-79.2 68.5h-253c-39.7 0-73.4-29.1-79.2-68.5L.3 68.6C-1 59.4 1.7 50.1 7.8 43.1z"/></svg>