<svg xmlns="http://www.w3.org/2000/svg" viewBox="0 0 640 512"><!--! Font Awesome Pro 6.4.0 by @fontawesome - https://fontawesome.com License - https://fontawesome.com/license (Commercial License) Copyright 2023 Fonticons, Inc. --><path d="M390.3 352c-33.2 57.4-95.2 96-166.3 96C118 448 32 362 32 256S118 64 224 64s192 86 192 192h32C448 132.3 347.7 32 224 32S0 132.3 0 256S100.3 480 224 480c89.4 0 166.5-52.3 202.4-128H390.3zM224 128c-8.8 0-16 7.2-16 16V272c0 8.8 7.2 16 16 16s16-7.2 16-16V144c0-8.8-7.2-16-16-16zm24 224a24 24 0 1 0 -48 0 24 24 0 1 0 48 0zM496 480h48c53 0 96-43 96-96s-43-96-96-96H336c-8.8 0-16 7.2-16 16s7.2 16 16 16H544c35.3 0 64 28.7 64 64s-28.7 64-64 64H496c-8.8 0-16 7.2-16 16s7.2 16 16 16zm48-256c53 0 96-43 96-96s-43-96-96-96H496c-8.8 0-16 7.2-16 16s7.2 16 16 16h48c35.3 0 64 28.7 64 64s-28.7 64-64 64H471.9c2.7 10.4 4.7 21.1 6.1 32h66z"/></svg>