<svg xmlns="http://www.w3.org/2000/svg" viewBox="0 0 512 512"><!--! Font Awesome Pro 6.4.0 by @fontawesome - https://fontawesome.com License - https://fontawesome.com/license (Commercial License) Copyright 2023 Fonticons, Inc. --><path d="M16 0c8.8 0 16 7.2 16 16V128H96V86.7c0-20.1 18.3-35.2 38-31.4L486 123c15.1 2.9 26 16.1 26 31.4V261.6c0 15.3-10.9 28.5-26 31.4L134 360.7c-19.7 3.8-38-11.3-38-31.4V288H32V496c0 8.8-7.2 16-16 16s-16-7.2-16-16V272 144 16C0 7.2 7.2 0 16 0zM32 160v96H96V160H32zm96-73.3V329.3l96-18.5V105.2L128 86.7zm128 24.6V304.6L384 280V136L256 111.4zm160 30.8V273.9l64-12.3 0-107.1-64-12.3z"/></svg>