<svg xmlns="http://www.w3.org/2000/svg" viewBox="0 0 320 512"><!--! Font Awesome Pro 6.4.0 by @fontawesome - https://fontawesome.com License - https://fontawesome.com/license (Commercial License) Copyright 2023 Fonticons, Inc. --><path d="M49.6 160H270.4l3.2 35.6C279.7 262.4 227.1 320 160 320S40.3 262.4 46.4 195.6L49.6 160zm2.9-32l8.7-96 197.6 0 8.7 96H52.5zM29.4 29.1L14.5 192.7C7.2 272.8 65.9 342.7 144 351.1V480H80c-8.8 0-16 7.2-16 16s7.2 16 16 16h80 80c8.8 0 16-7.2 16-16s-7.2-16-16-16H176V351.1c78.1-8.5 136.8-78.3 129.5-158.5L290.6 29.1C289.1 12.6 275.3 0 258.8 0H61.2C44.7 0 30.9 12.6 29.4 29.1z"/></svg>