<svg xmlns="http://www.w3.org/2000/svg" viewBox="0 0 576 512"><!--! Font Awesome Pro 6.4.0 by @fontawesome - https://fontawesome.com License - https://fontawesome.com/license (Commercial License) Copyright 2023 Fonticons, Inc. --><path d="M144 64c-8.8 0-16 7.2-16 16V384H448V80c0-8.8-7.2-16-16-16H144zM480 80V384h16c8.8 0 16 7.2 16 16s-7.2 16-16 16H480 448 128 96 80c-8.8 0-16-7.2-16-16s7.2-16 16-16H96V80c0-26.5 21.5-48 48-48H432c26.5 0 48 21.5 48 48zM48 320H64v32H48c-8.8 0-16 7.2-16 16v64c0 8.8 7.2 16 16 16H528c8.8 0 16-7.2 16-16V368c0-8.8-7.2-16-16-16H512V320h16c26.5 0 48 21.5 48 48v64c0 26.5-21.5 48-48 48H48c-26.5 0-48-21.5-48-48V368c0-26.5 21.5-48 48-48zM212.7 148.7c6.2-6.2 16.4-6.2 22.6 0L288 201.4l52.7-52.7c6.2-6.2 16.4-6.2 22.6 0s6.2 16.4 0 22.6L310.6 224l52.7 52.7c6.2 6.2 6.2 16.4 0 22.6s-16.4 6.2-22.6 0L288 246.6l-52.7 52.7c-6.2 6.2-16.4 6.2-22.6 0s-6.2-16.4 0-22.6L265.4 224l-52.7-52.7c-6.2-6.2-6.2-16.4 0-22.6z"/></svg>