<svg xmlns="http://www.w3.org/2000/svg" viewBox="0 0 320 512"><!--! Font Awesome Pro 6.4.0 by @fontawesome - https://fontawesome.com License - https://fontawesome.com/license (Commercial License) Copyright 2023 Fonticons, Inc. --><path d="M29 38.7C23.8 31.5 13.8 29.9 6.7 35S-2.1 50.2 3 57.4L123 224H48c-8.8 0-16 7.2-16 16s7.2 16 16 16h96v64H48c-8.8 0-16 7.2-16 16s7.2 16 16 16h96V464c0 8.8 7.2 16 16 16s16-7.2 16-16V352h96c8.8 0 16-7.2 16-16s-7.2-16-16-16H176V256h96c8.8 0 16-7.2 16-16s-7.2-16-16-16H197L317 57.4c5.2-7.2 3.5-17.2-3.6-22.3s-17.2-3.5-22.3 3.6l-131 182L29 38.7z"/></svg>