<svg xmlns="http://www.w3.org/2000/svg" viewBox="0 0 512 512"><!--! Font Awesome Pro 6.4.0 by @fontawesome - https://fontawesome.com License - https://fontawesome.com/license (Commercial License) Copyright 2023 Fonticons, Inc. --><path d="M256 0c-48.9 0-92.5 28.8-121.6 53.8c-10.7 9.2-20 18.3-27.5 26.2H48 0v48 96 24 24V464v48H48 464h48V464 272 248 224 128 80H464 405.1c-7.5-7.9-16.8-17.1-27.5-26.2C348.5 28.8 304.9 0 256 0zm0 48c26.4 0 53.6 13.8 77.7 32H178.3c24.1-18.2 51.4-32 77.7-32zM464 272V464H48V272H464zm0-48H48V128H464v96zM112 200a24 24 0 1 0 0-48 24 24 0 1 0 0 48zm104-24a24 24 0 1 0 -48 0 24 24 0 1 0 48 0zm104 24a24 24 0 1 0 0-48 24 24 0 1 0 0 48zm104-24a24 24 0 1 0 -48 0 24 24 0 1 0 48 0zM368 304v32h32V304H368zm-32 48v32h32V352H336zm64 48H368v32h32V400zM272 352v32h32V352H272zm64-16V304H304v32h32zm-32 96h32V400H304v32zm-64-80H208v32h32V352zm0-48v32h32V304H240zm32 96H240v32h32V400zM144 352v32h32V352H144zm64-48H176v32h32V304zm-32 96v32h32V400H176zm-64-48H80v32h32V352zm0-48v32h32V304H112zm32 96H112v32h32V400zm256-48v32h32V352H400z"/></svg>