<svg xmlns="http://www.w3.org/2000/svg" viewBox="0 0 576 512"><!--! Font Awesome Pro 6.4.0 by @fontawesome - https://fontawesome.com License - https://fontawesome.com/license (Commercial License) Copyright 2023 Fonticons, Inc. --><path d="M320 80a32 32 0 1 1 -64 0 32 32 0 1 1 64 0zM288 0c-44.2 0-80 35.8-80 80c0 35.9 23.7 66.3 56.3 76.4c-.2 1.2-.3 2.4-.3 3.6v32H216 192v48h24 48V464H120V352h72L96 256 0 352H72V488v24H96 288 480h24V488 352h72l-96-96-96 96h72V464H312V240h48 24V192H360 312V160c0-1.2-.1-2.4-.3-3.6C344.3 146.3 368 115.9 368 80c0-44.2-35.8-80-80-80z"/></svg>