<svg xmlns="http://www.w3.org/2000/svg" viewBox="0 0 576 512"><!--! Font Awesome Pro 6.4.0 by @fontawesome - https://fontawesome.com License - https://fontawesome.com/license (Commercial License) Copyright 2023 Fonticons, Inc. --><path d="M496 192H448V144 48 0H400 176 128V48 96H80 48 0v48V464v48H48h80H256h32 32H448h80 48V464 240 192H528 496zM320 384H256v80H128 48V144h80 48V96 48H400V192v48h48 80V464H448 320V384zm-16-48h64V272H304v64zm192 96V368H432v64h64zM80 336h64V272H80v64zm64 96V368H80v64h64zm64-96h64V272H208v64zM368 80H304v64h64V80zM208 80v64h64V80H208zM368 240V176H304v64h64zm64 96h64V272H432v64zM144 240V176H80v64h64zm64 0h64V176H208v64z"/></svg>