<svg xmlns="http://www.w3.org/2000/svg" viewBox="0 0 576 512"><!--! Font Awesome Pro 6.4.0 by @fontawesome - https://fontawesome.com License - https://fontawesome.com/license (Commercial License) Copyright 2023 Fonticons, Inc. --><path d="M288-1.9l17 17 80 80 17 17L368 145.9l-17-17-39-39V328v24H264V328 89.9l-39 39-17 17L174.1 112l17-17 80-80 17-17zM48 192H192v48H48V401c-2.4 1.3-4.8 2.5-7.3 3.7C27.6 410.7 13 415 0 415V240 192H48zM576 415c-13 0-27.6-4.3-40.7-10.3c-2.5-1.1-4.9-2.4-7.3-3.7V240H384V192H528h48v48V415zM79 488.9C59.7 499.8 31.5 512 0 512V464c19.7 0 39.4-7.8 55.3-16.9c15.4-8.7 27.2-19.3 40.2-30.9l.4-.4 .4 .4c13 11.6 24.9 22.2 40.3 30.9c15.9 9 35.6 16.9 55.3 16.9s39.5-7.8 55.3-16.9c15.4-8.7 27-19.1 40-30.7l.7-.6 .7 .6c13 11.6 24.6 22 40 30.7c15.9 9 35.6 16.9 55.3 16.9s39.5-7.8 55.3-16.9c15.4-8.7 27-19.1 40-30.7l.7-.6 .7 .6c13 11.6 24.6 22 40 30.7c15.9 9 35.7 16.9 55.4 16.9v48c-31.5 0-59.7-12.2-79.1-23.1c-6.5-3.7-12.2-7.4-17-10.7c-4.7 3.3-10.5 7-16.9 10.7c-19.3 11-47.6 23.1-79.1 23.1s-59.7-12.2-79.1-23.1c-6.5-3.7-12.2-7.4-16.9-10.7c-4.7 3.3-10.5 7-16.9 10.7c-19.3 11-47.6 23.1-79.1 23.1s-59.7-12.2-79.1-23.1c-6.5-3.7-12.2-7.4-16.9-10.7c-4.7 3.3-10.4 7-16.9 10.7z"/></svg>