<svg xmlns="http://www.w3.org/2000/svg" viewBox="0 0 448 512"><!--! Font Awesome Pro 6.4.0 by @fontawesome - https://fontawesome.com License - https://fontawesome.com/license (Commercial License) Copyright 2023 Fonticons, Inc. --><path d="M315.3 6.1L333 22.3 422.1 104H424v1.7l5 4.6L448.3 128 429 145.7l-5 4.6V152h-1.9L333 233.7l-17.7 16.2-32.4-35.4 17.7-16.2L351.1 152H48V264v24H0V264 128 104H24 351.1L300.6 57.7 282.9 41.5 315.3 6.1zm-84.8 256l17.7 16.2 96 88L363.5 384l-19.3 17.7-96 88-17.7 16.2-32.4-35.4 17.7-16.2L266.3 408H48v80 24H0V488 384 360H24 266.3l-50.5-46.3-17.7-16.2 32.4-35.4z"/></svg>