<svg xmlns="http://www.w3.org/2000/svg" viewBox="0 0 576 512"><!--! Font Awesome Pro 6.4.0 by @fontawesome - https://fontawesome.com License - https://fontawesome.com/license (Commercial License) Copyright 2023 Fonticons, Inc. --><path d="M431.4 32l6.4 14 89.3 194H474.2l-14.8-32.2c-1.1 .2-2.2 .2-3.4 .2H372.5l-14.7 32H304.9L394.2 46l6.4-14h30.8zm6 128L416 113.4 394.6 160h42.8zM143 50.2l17-17 17 17 96 96 17 17L256 197.1l-17-17-55-55V456v24H136V456 125.1l-55 55-17 17L30.1 163.2l17-17 96-96zM352 288H480h24v24 8 9.9l-7 7-95 95H480h24v48H480 352 328V456v-8-9.9l7-7 95-95H352 328V288h24z"/></svg>