<svg xmlns="http://www.w3.org/2000/svg" viewBox="0 0 512 512"><!--! Font Awesome Pro 6.4.0 by @fontawesome - https://fontawesome.com License - https://fontawesome.com/license (Commercial License) Copyright 2023 Fonticons, Inc. --><path d="M48 14.1L65 31l111 111V56 32h48V56 200v24H200 56 32V176H56h86.1L31 65l-17-17L48 14.1zM497.9 48L481 65l-111 111H456h24v48H456 312 288V200 56 32h48V56v86.1L447 31l17-17L497.9 48zM32 288H56 200h24v24V456v24H176V456 369.9L65 481l-17 17L14.1 464l17-17 111-111H56 32V288zm256 0h24H456h24v48H456 369.9L481 447l17 17L464 497.9l-17-17-111-111V456v24H288V456 312 288z"/></svg>