<svg xmlns="http://www.w3.org/2000/svg" viewBox="0 0 576 512"><!--! Font Awesome Pro 6.4.0 by @fontawesome - https://fontawesome.com License - https://fontawesome.com/license (Commercial License) Copyright 2023 Fonticons, Inc. --><path d="M328 32V80h24 78.1l-95 95-7 7V192v8 24h24H480h24V176H480 401.9l95-95 7-7V64 56 32H480 352 328zM160 33.3l-17 17-96 96-17 17L64 197.1l17-17 55-55V456v24h48V456 125.1l55 55 17 17 33.9-33.9-17-17-96-96-17-17zM400.6 272l-6.4 14L304.9 480h52.8l14.7-32H456c1.2 0 2.3-.1 3.4-.2L474.2 480h52.8L437.8 286l-6.4-14H400.6zM416 353.4L437.4 400H394.6L416 353.4z"/></svg>