<svg xmlns="http://www.w3.org/2000/svg" viewBox="0 0 448 512"><!--! Font Awesome Pro 6.4.0 by @fontawesome - https://fontawesome.com License - https://fontawesome.com/license (Commercial License) Copyright 2023 Fonticons, Inc. --><path d="M241 18.2l-17-17-17 17-64 64-17 17L160 133.1l17-17 23-23V168v24h48V168 93.1l23 23 17 17 33.9-33.9-17-17-64-64zM248 344V320H200v24 74.9l-23-23-17-17-33.9 33.9 17 17 64 64 17 17 17-17 64-64 17-17L288 378.9l-17 17-23 23V344zM24 232H0v48H24 424h24V232H424 24z"/></svg>