<svg xmlns="http://www.w3.org/2000/svg" viewBox="0 0 512 512"><!--! Font Awesome Pro 6.4.0 by @fontawesome - https://fontawesome.com License - https://fontawesome.com/license (Commercial License) Copyright 2023 Fonticons, Inc. --><path d="M273 18.2l-17-17-17 17-72 72-17 17L184 141.1l17-17 31-31V232H93.1l31-31 17-17-33.9-33.9-17 17-72 72-17 17 17 17 72 72 17 17L141.1 328l-17-17-31-31H232V420.2l-30.7-32-16.6-17.3-34.7 33.2 16.6 17.3 72 75.2L256 514.7l17.3-18.1 72-75.2 16.6-17.3-34.7-33.2-16.6 17.3-30.7 32V280H418.9l-31 31-17 17 33.9 33.9 17-17 72-72 17-17-17-17-72-72-17-17L370.9 184l17 17 31 31H280V93.1l31 31 17 17 33.9-33.9-17-17-72-72z"/></svg>