<svg xmlns="http://www.w3.org/2000/svg" viewBox="0 0 640 512"><!--! Font Awesome Pro 6.4.0 by @fontawesome - https://fontawesome.com License - https://fontawesome.com/license (Commercial License) Copyright 2023 Fonticons, Inc. --><path d="M52.2 18.2l-17-17L1.3 35.2l17 17L126.1 160H88 64v48H88h96 24V184 88 64H160V88v38.1L52.2 18.2zM621.8 52.2l17-17L604.8 1.3l-17 17L480 126.1V88 64H432V88v96 24h24 96 24V160H552 513.9L621.8 52.2zM126.1 352L18.2 459.8l-17 17 33.9 33.9 17-17L160 385.9V424v24h48V424 328 304H184 88 64v48H88h38.1zM480 385.9L587.8 493.8l17 17 33.9-33.9-17-17L513.9 352H552h24V304H552 456 432v24 96 24h48V424 385.9zM320 320a64 64 0 1 0 0-128 64 64 0 1 0 0 128z"/></svg>