<svg xmlns="http://www.w3.org/2000/svg" viewBox="0 0 640 512"><!--! Font Awesome Pro 6.4.0 by @fontawesome - https://fontawesome.com License - https://fontawesome.com/license (Commercial License) Copyright 2023 Fonticons, Inc. --><path d="M168 0V24l0 118.1 23-23 17-17L241.9 136l-17 17-64 64-17 17-17-17L63 153l-17-17L80 102.1l17 17 23 23L120 24l0-24h48zM280 200a40 40 0 1 1 80 0 40 40 0 1 1 -80 0zm-22.3 56H272h96 14.3l6.8 12.6L434 352h14 96 14.1l6.9 12.3 56 100.8 11.7 21-42 23.3-11.7-21-19-34.2V488v24H536 456 432V488 454.2l-19 34.2-11.7 21-42-23.3 11.7-21 35.3-63.4-3.4-6.3-18.9-35V408v24H360 280 256V408 360.3l-18.9 35-3.4 6.3L269 465.1l11.7 21-42 23.3-11.7-21-19-34.2V488v24H184 104 80V488 454.2L61 488.5l-11.7 21-42-23.3 11.7-21L75 364.3 81.9 352H96h96 14l44.9-83.4 6.8-12.6zM304 304v80h32V304H304zm152-8a40 40 0 1 1 80 0 40 40 0 1 1 -80 0zM144 256a40 40 0 1 1 0 80 40 40 0 1 1 0-80zM128 464h32V400H128v64zM520 24l0 118.1 23-23 17-17L593.9 136l-17 17-64 64-17 17-17-17-64-64-17-17L432 102.1l17 17 23 23L472 24V0h48V24zM480 400v64h32V400H480z"/></svg>