<svg xmlns="http://www.w3.org/2000/svg" viewBox="0 0 576 512"><!--! Font Awesome Pro 6.4.0 by @fontawesome - https://fontawesome.com License - https://fontawesome.com/license (Commercial License) Copyright 2023 Fonticons, Inc. --><path d="M160 478.7l-17-17-96-96-17-17L64 314.9l17 17 55 55V56 32h48V56 386.9l55-55 17-17 33.9 33.9-17 17-96 96-17 17zM328 32h24H480h24V56v8 9.9l-7 7-95 95H480h24v48H480 352 328V200v-8-9.9l7-7 95-95H352 328V32zm72.6 240h30.8l6.4 14 89.3 194H474.2l-14.8-32.2c-1.1 .2-2.2 .2-3.4 .2H372.5l-14.7 32H304.9l89.3-194 6.4-14zM416 353.4L394.6 400h42.8L416 353.4z"/></svg>