<svg xmlns="http://www.w3.org/2000/svg" viewBox="0 0 512 512"><!--! Font Awesome Pro 6.4.0 by @fontawesome - https://fontawesome.com License - https://fontawesome.com/license (Commercial License) Copyright 2023 Fonticons, Inc. --><path d="M256 88v40h24l72-64L280 0H256V40H24 0V64 256v24H24 464V424H416V384H376 328 288v40 48 40h40 48 40V472h72 24V448 256 232H488 48V88H256zM160 384v40H128V384H88 40 0v40 48 40H40 88h40V472h32v40h24l72-64-72-64H160zM424 40h48V88H424V40zM384 0V40 88v40h40 48 40V88 40 0H472 424 384zM88 424v48H40V424H88zm240 0h48v48H328V424z"/></svg>