<svg xmlns="http://www.w3.org/2000/svg" viewBox="0 0 640 512"><!--! Font Awesome Pro 6.4.0 by @fontawesome - https://fontawesome.com License - https://fontawesome.com/license (Commercial License) Copyright 2023 Fonticons, Inc. --><path d="M48.4 14.8L29.4 .1 0 38 19 52.7 591.5 497.2l19 14.7L639.9 474l-19-14.7-12.9-10V432 80 32H560 80 70.5L48.4 14.8zm84 65.2H560V412l-94.8-73.6C493.2 321.7 512 291 512 256c0-53-43-96-96-96H360 336v24 54.1l-93.9-72.9-2.2-5.2h-4.4l-103-80zM420.6 303.8L384 275.4V208h32c26.5 0 48 21.5 48 48c0 25-19 45.5-43.4 47.8zM32 432v48H80 487.4l-60.9-48H80V159L32 121.2V432zm94.4-80h52.2l10.3-24.2h70.4L269.5 352h52.2l-1.7-3.9-78.5-61.9 .7 1.6H205.9l9.5-22.2-39.1-30.8L126.4 352z"/></svg>