<svg xmlns="http://www.w3.org/2000/svg" viewBox="0 0 640 512"><!--! Font Awesome Pro 6.4.0 by @fontawesome - https://fontawesome.com License - https://fontawesome.com/license (Commercial License) Copyright 2023 Fonticons, Inc. --><path d="M0 448l64 64L313.4 262.6l-64-64L0 448zM400 48L385.9 33.9 352 0 318.1 33.9 257.9 94.1 224 128l33.9 33.9L384 288v80 48h32c5.4 0 10.7-.2 16-.6C543 407.6 631.6 319 639.4 208c.4-5.3 .6-10.6 .6-16V160H592 512l-48-48 48-48L448 0 400 48zM512 208h79.3c-7.6 84.4-74.8 151.7-159.3 159.3V288 268.1l-14.1-14.1L291.9 128 352 67.9 478.1 193.9 492.1 208H512z"/></svg>