<svg xmlns="http://www.w3.org/2000/svg" viewBox="0 0 512 512"><!--! Font Awesome Pro 6.4.0 by @fontawesome - https://fontawesome.com License - https://fontawesome.com/license (Commercial License) Copyright 2023 Fonticons, Inc. --><path d="M91.9 150.1C84 181.9 80 214.4 80 247.2v17.7c0 32.7 4 65.3 11.9 97L97.5 384h317l5.5-22.1c7.9-31.7 11.9-64.3 11.9-97V247.2c0-32.7-4-65.3-11.9-97L414.5 128H97.5l-5.5 22.1zM417.5 48H94.5L103 80H409l8.5-32zm-316 384l-8 32h325l-8-32h-309zM44.8 48L32 0H81.7 430.3 480L467.2 48l-12 44.9 11.4 45.6c8.9 35.5 13.4 72 13.4 108.7v17.7c0 36.6-4.5 73.1-13.4 108.7L456 416l12 48 12 48H430.5 81.5 32l12-48 12-48L45.4 373.5C36.5 338 32 301.5 32 264.8V247.2c0-36.6 4.5-73.1 13.4-108.7L56.8 92.9 44.8 48zM160 160c40.7 0 76.4 21.8 96 54.3c19.6-32.5 55.3-54.3 96-54.3h32v16c0 59.2-45.9 107.6-104 111.7V328v24H232V328 287.7c-58.1-4.1-104-52.6-104-111.7V160h32z"/></svg>