<svg xmlns="http://www.w3.org/2000/svg" viewBox="0 0 448 512"><!--! Font Awesome Pro 6.4.0 by @fontawesome - https://fontawesome.com License - https://fontawesome.com/license (Commercial License) Copyright 2023 Fonticons, Inc. --><path d="M400 48V464H48V48H400zM48 0H0V48 464v48H48 400h48V464 48 0H400 48zM80 96v64h64V96H80zm64 320V352H80v64h64zm32-312v48h24H344h24V104H344 200 176zm32 128v48h24H344h24V232H344 232 208zM176 360v48h24H344h24V360H344 200 176zm-4.7-116.7L182.6 232 160 209.4l-11.3 11.3L112 257.4 99.3 244.7 88 233.4 65.4 256l11.3 11.3 24 24L112 302.6l11.3-11.3 48-48z"/></svg>