<svg xmlns="http://www.w3.org/2000/svg" viewBox="0 0 640 512"><!--! Font Awesome Pro 6.4.0 by @fontawesome - https://fontawesome.com License - https://fontawesome.com/license (Commercial License) Copyright 2023 Fonticons, Inc. --><path d="M112 32H64V192h48V32zM64 480h48V320H64V480zm96 0h32V320H160V480zm64 0h48V320H224V480zm0-288h48V32H224V192zM336 480h48V320H336V480zm0-288h48V32H336V192zM464 480h32V320H464V480zm0-288h32V32H464V192zm64 288h48V320H528V480zm0-288h48V32H528V192zm-368 0h32V32H160V192zM0 232v48l640 0V232L0 232z"/></svg>