<svg xmlns="http://www.w3.org/2000/svg" viewBox="0 0 576 512"><!--! Font Awesome Pro 6.4.0 by @fontawesome - https://fontawesome.com License - https://fontawesome.com/license (Commercial License) Copyright 2023 Fonticons, Inc. --><path d="M0 0H24 136h24V48H136 48v88 24H0V136 24 0zM144 128V384H96V128h48zm32 0h32V384H176V128zm272 0h32V384H448V128zm-208 0h48V384H240V128zm176 0V384H368V128h48zM552 0h24V24 136v24H528V136 48H440 416V0h24H552zM0 512V488 376 352H48v24 88h88 24v48H136 24 0zm552 0H440 416V464h24 88V376 352h48v24V488v24H552z"/></svg>