<svg xmlns="http://www.w3.org/2000/svg" viewBox="0 0 576 512"><!--! Font Awesome Pro 6.4.0 by @fontawesome - https://fontawesome.com License - https://fontawesome.com/license (Commercial License) Copyright 2023 Fonticons, Inc. --><path d="M256.4 29.8L245.3 51.1 171.8 192H404.2L330.7 51.1 319.6 29.8 362.2 7.6l11.1 21.3L458.4 192h36.1H544h32v48H532L464 512H112L44 240H0V192H32 81.5h36.1L202.7 28.9 213.8 7.6l42.6 22.2zM93.5 240l56 224h277l56-224H93.5zM224 312v80 24H176V392 312 288h48v24zm88-24v24 80 24H264V392 312 288h48zm88 24v80 24H352V392 312 288h48v24z"/></svg>