<svg xmlns="http://www.w3.org/2000/svg" viewBox="0 0 640 512"><!--! Font Awesome Pro 6.4.0 by @fontawesome - https://fontawesome.com License - https://fontawesome.com/license (Commercial License) Copyright 2023 Fonticons, Inc. --><path d="M75.9 96.9c-31 29.7-58 64.9-75.9 104.2V372.8l134.3 58.4-8-55.8L48 341.3V212c14.8-29.2 36.1-56.5 61.1-80.4C152.8 89.7 221 48 320 48s167.2 41.7 210.9 83.6c25 23.9 46.3 51.2 61.1 80.4V341.3l-78.3 34.1-8 55.8L640 372.8V201.1c-17.8-39.2-44.8-74.5-75.9-104.2C513.6 48.5 434 0 320 0S126.4 48.5 75.9 96.9zM184 128H160v24 56h48V176H432v32h48V152 128H456 184zM512 240h-8H480 432 208 160 136h-8H112v48h24 10.1l7.2 50.3 22.9 160 2 13.7H192h8 7.2l4.8-5.3 44.2-49.5L300 506.6l4.8 5.4H312h16 7.2l4.8-5.4 43.9-49.4 44.2 49.5 4.8 5.3H440h8 13.9l2-13.7 22.9-160 7.2-50.3H504h24V240H512zM183.7 324.6L178.4 288H184h43.7l-44 36.6zM276.6 289l1.2-1h84.4l1.2 1L320 337.6 276.6 289zm179.7 35.6l-44-36.6H456h5.6l-5.2 36.6zm-19.8 25.2l-52.7 59.3-42.4-47.5L388 309.4l48.5 40.3zm-31.3 83.4l42.3-47.6-11.7 81.9-30.6-34.3zm-42.9 0L320.8 480h-1.6l-41.6-46.8L320 385.6l42.4 47.5zM256.2 409.1l-52.7-59.3L252 309.4l46.6 52.2-42.4 47.5zm-63.8-23.6l42.3 47.6-30.6 34.3-11.7-81.9z"/></svg>