<svg xmlns="http://www.w3.org/2000/svg" viewBox="0 0 576 512"><!--! Font Awesome Pro 6.4.0 by @fontawesome - https://fontawesome.com License - https://fontawesome.com/license (Commercial License) Copyright 2023 Fonticons, Inc. --><path d="M256.4 29.8L245.3 51.1 171.8 192H404.2L330.7 51.1 319.6 29.8 362.2 7.6l11.1 21.3L458.4 192h36.1H544h32v48H532L464 512H112L44 240H0V192H32 81.5h36.1L202.7 28.9 213.8 7.6l42.6 22.2zM482.5 240H93.5l56 224h277l56-224zM144 296a24 24 0 1 1 48 0 24 24 0 1 1 -48 0zm264-24a24 24 0 1 1 0 48 24 24 0 1 1 0-48z"/></svg>