<svg xmlns="http://www.w3.org/2000/svg" viewBox="0 0 640 512"><!--! Font Awesome Pro 6.4.0 by @fontawesome - https://fontawesome.com License - https://fontawesome.com/license (Commercial License) Copyright 2023 Fonticons, Inc. --><path d="M544 399.6V368l-64-72V208c0-77.4-55-142-128-156.8V0H288V51.2c-42.9 8.7-79.5 34.5-102.5 70.1L48.4 14.8 29.4 .1 0 38 19 52.7 591.5 497.2l19 14.7L639.9 474l-19-14.7L544 399.6zM223.6 150.9C243.2 118 279 96 320 96c61.9 0 112 50.1 112 112v88 16.6L223.6 150.9zM406.2 416l-60.9-48h-185l35.7-40.1L208 314.2V296 259.9l-48-37.8V296L96 368v48h48H406.2zM384 448H320 256c0 17 6.7 33.3 18.7 45.3s28.3 18.7 45.3 18.7s33.3-6.7 45.3-18.7s18.7-28.3 18.7-45.3z"/></svg>