<svg xmlns="http://www.w3.org/2000/svg" viewBox="0 0 448 512"><!--! Font Awesome Pro 6.4.0 by @fontawesome - https://fontawesome.com License - https://fontawesome.com/license (Commercial License) Copyright 2023 Fonticons, Inc. --><path d="M256 0H192V51.2C119 66 64 130.6 64 208v88L0 368v48H48 400h48V368l-64-72V208c0-77.4-55-142-128-156.8V0zm80 314.2l12.1 13.6L383.8 368H64.2l35.7-40.1L112 314.2V296 208c0-61.9 50.1-112 112-112s112 50.1 112 112v88 18.2zM288 448H224 160c0 17 6.7 33.3 18.7 45.3s28.3 18.7 45.3 18.7s33.3-6.7 45.3-18.7s18.7-28.3 18.7-45.3zM248 152H200v24 40H160 136v48h24 40v40 24h48V304 264h40 24V216H288 248V176 152z"/></svg>