<svg xmlns="http://www.w3.org/2000/svg" viewBox="0 0 640 512"><!--! Font Awesome Pro 6.4.0 by @fontawesome - https://fontawesome.com License - https://fontawesome.com/license (Commercial License) Copyright 2023 Fonticons, Inc. --><path d="M554.8 132.7L578.7 150c8.2 5.9 13.3 15.3 13.3 26v32H432V176c0-10.6 5.1-20.1 13.3-26l23.9-17.3-4.6-29.1c-.4-2.5-.6-5-.6-7.6c0-26.5 21.5-48 48-48s48 21.5 48 48c0 2.6-.2 5.2-.6 7.6l-4.6 29.1zM417.2 111.1C397.1 125.7 384 149.3 384 176v32 48h48 56V488v24h48V488 256h56 48V208 176c0-26.7-13.1-50.3-33.2-64.9c.8-4.9 1.2-10 1.2-15.1c0-53-43-96-96-96s-96 43-96 96c0 5.1 .4 10.2 1.2 15.1zM80 240H304v32H80V240zM32 192v48 32 48H56v32H32 24 0v48H24h8v88 24H80V488 400H304v88 24h48V488 400h8 24V352H360h-8H328V320h24V272 240 192H304 80 32zm72 128H280v32H104V320z"/></svg>