<svg xmlns="http://www.w3.org/2000/svg" viewBox="0 0 384 512"><!--! Font Awesome Pro 6.4.0 by @fontawesome - https://fontawesome.com License - https://fontawesome.com/license (Commercial License) Copyright 2023 Fonticons, Inc. --><path d="M248 0h56 24V24 176h32 24v48H360 304 248 224V176h24 32V48H248 224V0h24zM24 288H80h24v24V464h32 24v48H136 80 24 0V464H24 56V336H24 0V288H24zM0 0H24 168h24V24 200v24H168 24 0V200 24 0zM48 48V176h96V48H48zM216 288H360h24v24V488v24H360 216 192V488 312 288h24zm24 176h96V336H240V464z"/></svg>