<svg xmlns="http://www.w3.org/2000/svg" viewBox="0 0 320 512"><!--! Font Awesome Pro 6.4.0 by @fontawesome - https://fontawesome.com License - https://fontawesome.com/license (Commercial License) Copyright 2023 Fonticons, Inc. --><path d="M64 0h48V64h32V0h48V64.7c54 6 96 51.8 96 107.3c0 27.5-10.3 52.6-27.2 71.6C295.9 261.5 320 297.9 320 340c0 59.6-48.4 108-108 108H192v64H144V448H112v64H64V448H48 0V400 280 232 112 64H48 64V0zM48 112V232H180c33.1 0 60-26.9 60-60s-26.9-60-60-60H48zM180 280H48V400H212c33.1 0 60-26.9 60-60s-26.9-60-60-60H180z"/></svg>