<svg xmlns="http://www.w3.org/2000/svg" viewBox="0 0 640 512"><!--! Font Awesome Pro 6.4.0 by @fontawesome - https://fontawesome.com License - https://fontawesome.com/license (Commercial License) Copyright 2023 Fonticons, Inc. --><path d="M24 0H0V24 224v24 24V424v24H24 313.6c-8.6-14.9-15.2-31-19.6-48H48V272H310.1c9-16.9 20-33 31.6-48H48V48H400V160.5c15.4-14.4 31.5-28.1 48-41.5V24 0H424 24zM288 352.2c0-13.7 2.1-27.1 5.8-40.2H120 96v48h24H288.2c-.1-2.6-.2-5.2-.2-7.8zm225-128c-32.3-37.5-65-64-65-64s-128 103.6-128 192s71.6 160 160 160s160-71.6 160-160c0-73.6-96-160-96-160s-13.9 12.5-31 32zM530 433c-15 10-31 15-49 15c-45 0-81-29-81-78c0-24 15-45 45-82c4 5 62 79 62 79l36-42c3 4 5 8 7 12c18 33 10 75-20 96z"/></svg>