<svg xmlns="http://www.w3.org/2000/svg" viewBox="0 0 512 512"><!--! Font Awesome Pro 6.4.0 by @fontawesome - https://fontawesome.com License - https://fontawesome.com/license (Commercial License) Copyright 2023 Fonticons, Inc. --><path d="M0 0H24 128h32 16.2H462.5 512L500 48l-20 80L428 336h4 48v48 80 48H432 144 96V464 384 336h48 12l-6.7-80H24 0V232 24 0zM406.5 224H304 288V192h16H414.5l16-64H304 288V96h16H438.5l12-48H180.2l24 288H378.5l28-112zM144 384v80H432V384H416 160 144zM48 48V208h97.3L132 48H48zM288 400a24 24 0 1 1 0 48 24 24 0 1 1 0-48z"/></svg>