<svg xmlns="http://www.w3.org/2000/svg" viewBox="0 0 576 512"><!--! Font Awesome Pro 6.4.0 by @fontawesome - https://fontawesome.com License - https://fontawesome.com/license (Commercial License) Copyright 2023 Fonticons, Inc. --><path d="M153.6 44.8L84.9 0 72.4 12.8c-96.6 99-96.6 259.4 0 358.4L84.9 384l68.7-44.8-25-89.6-58.9 6.7c-12.6-41.8-12.6-86.8 0-128.6l58.9 6.7 25-89.6zM272 48H514.5l-12 48H368 352v32h16H494.5l-16 64H368 352v32h16H470.5l-28 112H272V48zM492 336l52-208 20-80L576 0H526.5 272 224V48 336H192v48 80 48h48H496h48V464 384 336H496h-4zM240 384h32H480h16v80H240V384zm152 40a24 24 0 1 0 -48 0 24 24 0 1 0 48 0z"/></svg>