<svg xmlns="http://www.w3.org/2000/svg" viewBox="0 0 512 512"><!--! Font Awesome Pro 6.4.0 by @fontawesome - https://fontawesome.com License - https://fontawesome.com/license (Commercial License) Copyright 2023 Fonticons, Inc. --><path d="M0 0V48H20L12 80 0 128H49.5 112V80H61.5l8-32H112h32V80v48 80 48V372.1C116 382 96 408.6 96 440c0 39.8 32.2 72 72 72s72-32.2 72-72c0-31.4-20-58-48-67.9V256 208 128 80 48h32H442.5l8 32H224v48H462.5 512L500 80l-8-32h20V0H488h-8H192 144 32 24 0zM144 440a24 24 0 1 1 48 0 24 24 0 1 1 -48 0zM112 208H63l13.2-48H26.5L13.2 208 0 256H49.8 112V208zm112 48H462.2 512l-13.2-48-13.2-48H435.7L449 208H224v48z"/></svg>