<svg xmlns="http://www.w3.org/2000/svg" viewBox="0 0 640 512"><!--! Font Awesome Pro 6.4.0 by @fontawesome - https://fontawesome.com License - https://fontawesome.com/license (Commercial License) Copyright 2023 Fonticons, Inc. --><path d="M176 80v48h56 48 56V80H176zm-48 48V80H80v48h48zM80 176v56H232V176H80zm0 160h48V280H80v56zm0 48v48H232V384H176 128 80zm96-48H289c-.6 5.3-1 10.7-1 16.2c0 10.9 .9 21.5 2.6 31.8H280v48h25.3c8.1 17.6 18.7 33.8 31.4 48H80 32V432 80 32H80 432h48V80v65.8c-10.4-9.2-21.2-18-32-26.8c-22.3 18.1-43.9 36.7-64 57H280v56h55.7c-11.2 15.1-21.5 31.1-29.6 48H176v56zM432 128V80H384v48h48zm81 96.1c17.2-19.5 31-32 31-32s96 86.4 96 160c0 88.4-71.6 160-160 160s-160-71.6-160-160s128-192 128-192s32.6 26.4 65 64zM530 433c30-21 38-63 20-96c-2-4-4-8-7-12l-36 42s-58-74-62-79c-30 37-45 58-45 82c0 49 36 78 81 78c18 0 34-5 49-15z"/></svg>