<svg xmlns="http://www.w3.org/2000/svg" viewBox="0 0 640 512"><!--! Font Awesome Pro 6.4.0 by @fontawesome - https://fontawesome.com License - https://fontawesome.com/license (Commercial License) Copyright 2023 Fonticons, Inc. --><path d="M144 80V432H496V80H144zM96 32h48H496h48V80 432v48H496 144 96V432 80 32zM232 184c0-30.9 25.1-56 56-56h56.9c34.9 0 63.1 28.3 63.1 63.1c0 22.6-12.1 43.5-31.7 54.8L344 264.4V272v24H296V272 250.5 236.6l12.1-6.9 44.3-25.4c4.7-2.7 7.6-7.7 7.6-13.1c0-8.4-6.8-15.1-15.1-15.1H288c-4.4 0-8 3.6-8 8l0 6.5-48 0V184zm64 152h48v48H296V336zM160 120a24 24 0 1 1 48 0 24 24 0 1 1 -48 0zM456 96a24 24 0 1 1 0 48 24 24 0 1 1 0-48zM160 392a24 24 0 1 1 48 0 24 24 0 1 1 -48 0zm296-24a24 24 0 1 1 0 48 24 24 0 1 1 0-48z"/></svg>