<svg xmlns="http://www.w3.org/2000/svg" viewBox="0 0 448 512"><!--! Font Awesome Pro 6.4.0 by @fontawesome - https://fontawesome.com License - https://fontawesome.com/license (Commercial License) Copyright 2023 Fonticons, Inc. --><path d="M120 259.2C95.5 273.4 75.6 294.6 63 320H321c-12.6-25.4-32.5-46.6-57.1-60.8l-24-13.9V217.7 48H144V217.7v27.7l-24 13.9zM288 48V217.7c14.2 8.2 27.2 18.2 38.8 29.6L366.1 208l-7-7-17-17L376 150.1l17 17 24 24 24 24 17 17L424 265.9l-17-17-7-7-43.3 43.3C374 314.1 384 347.9 384 384c0 49.2-18.5 94-48.9 128H48.9C18.5 478 0 433.2 0 384c0-71.1 38.6-133.1 96-166.3V48H88 64V0H88h8 48 96 48 8 24V48H296h-8z"/></svg>