<svg xmlns="http://www.w3.org/2000/svg" viewBox="0 0 448 512"><!--! Font Awesome Pro 6.4.0 by @fontawesome - https://fontawesome.com License - https://fontawesome.com/license (Commercial License) Copyright 2023 Fonticons, Inc. --><path d="M0 88C0 39.4 39.4 0 88 0H424h24V24 376v24H424h-8v64h8 24v48H424 80c-44.2 0-80-35.8-80-80c0-2.7 .1-5.4 .4-8H0V88zM48 432c0 17.7 14.3 32 32 32H368V400H80c-17.7 0-32 14.3-32 32zm0-73.3c9.8-4.3 20.6-6.7 32-6.7H400V48H88C65.9 48 48 65.9 48 88V358.7zM160 112l16-32 16 32 32 16-32 16-16 32-16-32-32-16 32-16zM264 216l24-56 24 56 56 24-56 24-24 56-24-56-56-24 56-24z"/></svg>