<svg xmlns="http://www.w3.org/2000/svg" viewBox="0 0 640 512"><!--! Font Awesome Pro 6.4.0 by @fontawesome - https://fontawesome.com License - https://fontawesome.com/license (Commercial License) Copyright 2023 Fonticons, Inc. --><path d="M512 337.2V55.6L344 80.2V373l168-35.8zM296 373V80.2L128 55.6V337.2L296 373zM80 0l48 7L320 35.2 512 7l48-7V48.5 376L333.4 424.4c-8.8 1.9-17.9 1.9-26.7 0L80 376V48.5 0zM48 25.6l.5 .1c-.3 2.7-.5 5.4-.5 8.1V74.6 342.1v66.5L320 463l272-54.4V342.1 74.6 33.8c0-2.8-.2-5.5-.5-8.1l.5-.1L640 16V65 448L320 512 0 448V65 16l48 9.6z"/></svg>