<svg xmlns="http://www.w3.org/2000/svg" viewBox="0 0 448 512"><!--! Font Awesome Pro 6.4.0 by @fontawesome - https://fontawesome.com License - https://fontawesome.com/license (Commercial License) Copyright 2023 Fonticons, Inc. --><path d="M448 88c0-48.6-39.4-88-88-88H24 0V24 376v24H24h8v64H24 0v48H24 368c44.2 0 80-35.8 80-80c0-2.7-.1-5.4-.4-8h.4V88zM368 400c17.7 0 32 14.3 32 32s-14.3 32-32 32H80V400H368zm32-41.3c-9.8-4.3-20.6-6.7-32-6.7H48V48H360c22.1 0 40 17.9 40 40V358.7zM216 56L202.1 80l-27.7 48H119 91.3l13.9 24 27.7 48-27.7 48L91.3 272H119h55.4l27.7 48L216 344l13.9-24 27.7-48H313h27.7l-13.9-24-27.7-48 27.7-48 13.9-24H313 257.6L229.9 80 216 56zM146.7 176l-13.9-24h27.7l-13.9 24zm41.6-24h55.4l27.7 48-27.7 48H188.3l-27.7-48 27.7-48zm-55.4 96l13.9-24 13.9 24H132.9zM216 296l-13.9-24h27.7L216 296zm83.1-48H271.4l13.9-24 13.9 24zm0-96l-13.9 24-13.9-24h27.7zm-97-24L216 104l13.9 24H202.1z"/></svg>