<svg xmlns="http://www.w3.org/2000/svg" viewBox="0 0 448 512"><!--! Font Awesome Pro 6.4.0 by @fontawesome - https://fontawesome.com License - https://fontawesome.com/license (Commercial License) Copyright 2023 Fonticons, Inc. --><path d="M0 88C0 39.4 39.4 0 88 0H424h24V24 376v24H424h-8v64h8 24v48H424 80c-44.2 0-80-35.8-80-80c0-2.7 .1-5.4 .4-8H0V88zM80 400c-17.7 0-32 14.3-32 32s14.3 32 32 32H368V400H80zM48 358.7c9.8-4.3 20.6-6.7 32-6.7H400V48H88C65.9 48 48 65.9 48 88V358.7zM176.5 216h-31c4.8 26.1 21.1 48.2 43.5 60.8c-6.6-16.9-11-37.8-12.5-60.8zm0-32c1.4-22.9 5.9-43.8 12.5-60.8c-22.4 12.6-38.7 34.7-43.5 60.8h31zM112 200a120 120 0 1 1 240 0 120 120 0 1 1 -240 0zm206.5 16h-31c-1.4 22.9-5.9 43.8-12.5 60.8c22.4-12.6 38.7-34.7 43.5-60.8zM275 123.2c6.6 16.9 11 37.8 12.5 60.8h31c-4.8-26.1-21.1-48.2-43.5-60.8zM255.4 216H208.6c1.6 22.6 6.5 41.8 12.8 55.3c4.7 10.1 8.6 14.2 10.6 15.8c2-1.6 5.9-5.7 10.6-15.8c6.3-13.5 11.2-32.7 12.8-55.3zm-46.9-32h46.9c-1.6-22.6-6.5-41.8-12.8-55.3c-4.7-10.1-8.6-14.2-10.6-15.8c-2 1.6-5.9 5.7-10.6 15.8c-6.3 13.5-11.2 32.7-12.8 55.3z"/></svg>