<svg xmlns="http://www.w3.org/2000/svg" viewBox="0 0 448 512"><!--! Font Awesome Pro 6.4.0 by @fontawesome - https://fontawesome.com License - https://fontawesome.com/license (Commercial License) Copyright 2023 Fonticons, Inc. --><path d="M0 88C0 39.4 39.4 0 88 0H424h24V24 376v24H424h-8v64h8 24v48H424 80c-44.2 0-80-35.8-80-80c0-2.7 .1-5.4 .4-8H0V88zM80 400c-17.7 0-32 14.3-32 32s14.3 32 32 32H368V400H80zM48 358.7c9.8-4.3 20.6-6.7 32-6.7H400V48H88C65.9 48 48 65.9 48 88V358.7zm77.6-191.3l23.2 23.2 12.3-12.3-28.8-28.9c10.9-22.7 28.7-41.5 50.6-53.8c-18.6 29.6-12 68.5 15.3 90.2c-15.4 16.1-20.9 39.2-14.3 60.3c6.4 21.2 24 37.3 45.7 41.8l1.5-35.8-10.5 7.8-6.3-5.9 8.6-15.6-19.7-4.1v-8.6l19.7-4.1-9.4-15.6 6.3-5.9 13.1 8.9 5-125h8.7l5.2 126.6 15.4-10.5 6.1 5.9-9.3 15.6 19.7 4.1v8.6l-19.7 4 9.3 15.7-6.1 5.9-13.8-9.4 1.5 37.4c21.7-4.5 39.3-20.6 45.7-41.8c6.6-21.2 1.1-44.4-14.3-60.3c27.3-21.7 33.8-60.6 15.3-90.2c22.1 12.3 39.7 31.1 50.6 53.8l-28.8 28.9 12.3 12.3 23.2-23.2c3.3 11.1 5.6 22.5 5.6 34.5c0 .3 0 .5-.1 .8s-.1 .5-.1 .8L323.9 239l11.5 13.1 25.8-22.5c-12.7 54.2-60.9 94.6-118.9 94.6s-106.2-40.4-118.9-94.6l25.8 22.5L160.7 239l-40.5-35.5c0-.3 0-.5-.1-.8s-.1-.5-.1-.8c0-12 2.3-23.5 5.6-34.5z"/></svg>