<svg xmlns="http://www.w3.org/2000/svg" viewBox="0 0 512 512"><!--! Font Awesome Pro 6.4.0 by @fontawesome - https://fontawesome.com License - https://fontawesome.com/license (Commercial License) Copyright 2023 Fonticons, Inc. --><path d="M272 48V288l208 96v80h8 24v48H488h-8H432 344 320 272l-96-32-48-16v16 32h-7.8H80 48 0V464 384L24 256 0 64V48 0H48 224h48V48zM143.2 418.5L279.8 464H320h24 88V414.7L251.9 331.6 224 318.7V288 48H144V232v24H96V232 48H48V61L71.6 250l.9 7.4-1.4 7.4L48 388.5V416h79.8c5.2 0 10.3 .8 15.4 2.5z"/></svg>