<svg xmlns="http://www.w3.org/2000/svg" viewBox="0 0 512 512"><!--! Font Awesome Pro 6.4.0 by @fontawesome - https://fontawesome.com License - https://fontawesome.com/license (Commercial License) Copyright 2023 Fonticons, Inc. --><path d="M200 32h16 24V80H216 200 176V32h24zm-24 72h24 16 24v48H216 200 176V104zM56 176H72 96v48H72 56 32V176H56zm192 0h16 24v48H264 248 224V176h24zm-96 0h16 24v48H168 152 128V176h24zM80 104h24 16 24v48H120 104 80V104zm264 72h16 24v48H360 344 320V176h24zm-72-72h24 16 24v48H312 296 272V104zm168 72h16 24v48H456 440 416V176h24zm-72-72h24 16 24v48H408 392 368V104zM272 32h24 16 24V80H312 296 272V32zM144 431.8v.2H368v-.2V401.5l27.4-13c33.7-16 58.6-47.1 66.2-84.5H50.4c7.6 37.4 32.5 68.5 66.2 84.5l27.4 13v30.3zm-48 0C46.1 408.1 9.8 360.6 1.7 304C.6 296.2 0 288.1 0 280V256H48 464h48v24c0 8.1-.6 16.2-1.7 24c-8.1 56.6-44.4 104.1-94.3 127.8v.2 48H368 144 96V432v-.2z"/></svg>