<svg xmlns="http://www.w3.org/2000/svg" viewBox="0 0 448 512"><!--! Font Awesome Pro 6.4.0 by @fontawesome - https://fontawesome.com License - https://fontawesome.com/license (Commercial License) Copyright 2023 Fonticons, Inc. --><path d="M32 224C32 118 118 32 224 32s192 86 192 192H32zm411.2 80c-7.2 57.5-52.1 102.3-108.2 110.6c-6.2 .9-12.4 1.4-18.8 1.4H272l42.7 48L336 488v24H309 293.1 288 160h-5.1H139 112V488l21.3-24L176 416H131.8c-6.4 0-12.7-.5-18.8-1.4C56.9 406.3 12.1 361.5 4.8 304c-.1-1.1-.3-2.2-.4-3.3L0 256H48.2 399.8 448l-4.5 44.7c-.1 1.1-.2 2.2-.4 3.3zm-207 143.9L224 434.2l-12.1 13.6L197.6 464h52.9l-14.3-16.1zM176 368h96 10.9 33.3c38.4 0 70.9-27.1 78.4-64H53.4c7.5 36.9 40 64 78.4 64h33.3H176z"/></svg>