<svg xmlns="http://www.w3.org/2000/svg" viewBox="0 0 512 512"><!--! Font Awesome Pro 6.4.0 by @fontawesome - https://fontawesome.com License - https://fontawesome.com/license (Commercial License) Copyright 2023 Fonticons, Inc. --><path d="M256 0H211.2L236 37.3l10.8 16.3c.7 1.1 1.1 2.4 1.1 3.7c0 3.7-3 6.7-6.7 6.7H172c-42 0-76 34-76 76c0 4.9 .5 9.8 1.4 14.5C50.8 164.8 16 206.3 16 256v72 24H40h8.3c4.1 53.7 49 96 103.7 96h32l-24 64H352l-24-64h32c54.7 0 99.6-42.3 103.7-96H472h24V328 256c0-49.9-35.2-91.6-82.1-101.7c1.4-5.9 2.1-12 2.1-18.3C416 60.9 355.1 0 280 0H256zm40 57.3c0-2.7-.2-5.3-.6-8C336.7 56.6 368 92.7 368 136c0 5.8-1.5 11.3-4.3 16H280 256v48h24 36.4 58.8H384h8c30.9 0 56 25.1 56 56v48H64V256c0-30.9 25.1-56 56-56h8 6.5H168h22.8H192V152H168 146.7c-1.7-3.6-2.7-7.7-2.7-12c0-15.5 12.5-28 28-28h69.3c30.2 0 54.7-24.5 54.7-54.7z"/></svg>