<svg xmlns="http://www.w3.org/2000/svg" viewBox="0 0 448 512"><!--! Font Awesome Pro 6.4.0 by @fontawesome - https://fontawesome.com License - https://fontawesome.com/license (Commercial License) Copyright 2023 Fonticons, Inc. --><path d="M224 208c0-22.7 6.7-43.8 18.3-61.4c19.8-30.2 53.8-50.2 92.6-50.6l1.1 0c61.9 0 112 50.1 112 112c0 5.4-.4 10.8-1.1 16H225.1c-.7-5.2-1.1-10.6-1.1-16zM0 208C0 146.1 50.1 96 112 96l1.1 0c38.7 .4 72.7 20.4 92.6 50.6C196.9 165.2 192 186 192 208c0 5.4 .3 10.7 .9 16H1.1C.4 218.8 0 213.4 0 208zM325.4 64.4c-40.9 3-77.1 23-101.4 53.1c-24.3-30.1-60.5-50.1-101.4-53.1C140.5 26.3 179.2 0 224 0s83.5 26.3 101.4 64.4zM443.2 304c-7.2 57.5-52.1 102.3-108.2 110.6c-6.2 .9-12.4 1.4-18.8 1.4H272l42.7 48L336 488v24H309 293.1 288 160h-5.1H139 112V488l21.3-24L176 416H131.8c-6.4 0-12.7-.5-18.8-1.4C56.9 406.3 12.1 361.5 4.8 304c-.1-1.1-.3-2.2-.4-3.3L0 256H48.2 399.8 448l-4.5 44.7c-.1 1.1-.2 2.2-.4 3.3zm-207 143.9L224 434.2l-12.1 13.6L197.6 464h52.9l-14.3-16.1zM176 368h96 10.9 33.3c38.4 0 70.9-27.1 78.4-64H53.4c7.5 36.9 40 64 78.4 64h33.3H176z"/></svg>