<svg xmlns="http://www.w3.org/2000/svg" viewBox="0 0 512 512"><!--! Font Awesome Pro 6.4.0 by @fontawesome - https://fontawesome.com License - https://fontawesome.com/license (Commercial License) Copyright 2023 Fonticons, Inc. --><path d="M0 192c0-35.3 28.7-64 64-64c.5 0 1.1 0 1.6 0C73 91.5 105.3 64 144 64c15 0 29 4.1 40.9 11.2C198.2 49.6 225.1 32 256 32s57.8 17.6 71.1 43.2C339 68.1 353 64 368 64c38.7 0 71 27.5 78.4 64c.5 0 1.1 0 1.6 0c35.3 0 64 28.7 64 64c0 11.7-3.1 22.6-8.6 32H8.6C3.1 214.6 0 203.7 0 192zM144 431.8v.2H368v-.2V401.5l27.4-13c33.7-16 58.6-47.1 66.2-84.5H50.4c7.6 37.4 32.5 68.5 66.2 84.5l27.4 13v30.3zm-48 0C46.1 408.1 9.8 360.6 1.7 304C.6 296.2 0 288.1 0 280V256H48 464h48v24c0 8.1-.6 16.2-1.7 24c-8.1 56.6-44.4 104.1-94.3 127.8v.2 48H368 144 96V432v-.2z"/></svg>