<svg xmlns="http://www.w3.org/2000/svg" viewBox="0 0 640 512"><!--! Font Awesome Pro 6.4.0 by @fontawesome - https://fontawesome.com License - https://fontawesome.com/license (Commercial License) Copyright 2023 Fonticons, Inc. --><path d="M312.8 157.6l7.2 .9 167.3-20.9 44.1-93L444.6 3.5 384 131.5c0-1.2 0-2.3 0-3.5C384 57.3 326.7 0 256 0S128 57.3 128 128c0 2.2 .1 4.3 .2 6.5l65.5 8.2c-1.1-4.7-1.7-9.6-1.7-14.7c0-35.3 28.7-64 64-64s64 28.7 64 64c0 10.7-2.6 20.7-7.2 29.6zM64 160L0 288l224 64 96-160L64 160zM576 339.6l-48 13.7v57.2l-184 46V312 288H296v24V456.5l-184-46V353.3L64 339.6V448l256 64 256-64V339.6zM640 288L576 160 320 192l96 160 224-64z"/></svg>