<svg xmlns="http://www.w3.org/2000/svg" viewBox="0 0 576 512"><!--! Font Awesome Pro 6.4.0 by @fontawesome - https://fontawesome.com License - https://fontawesome.com/license (Commercial License) Copyright 2023 Fonticons, Inc. --><path d="M59.6 160L95.2 80H200v80H59.6zM248 160V80H352.8l35.6 80H248zM48 208H358.6c22.3-10.3 47.2-16 73.4-16c5.4 0 10.7 .2 16 .7V176L384 32H64L0 176V432v48H48 296.2c-11.8-14.3-21.4-30.5-28.2-48H48V208zM576 368a144 144 0 1 0 -288 0 144 144 0 1 0 288 0zm-65.4-32l-11.3 11.3-72 72L416 430.6l-11.3-11.3-40-40L353.4 368 376 345.4l11.3 11.3L416 385.4l60.7-60.7L488 313.4 510.6 336z"/></svg>