<svg xmlns="http://www.w3.org/2000/svg" viewBox="0 0 512 512"><!--! Font Awesome Pro 6.4.0 by @fontawesome - https://fontawesome.com License - https://fontawesome.com/license (Commercial License) Copyright 2023 Fonticons, Inc. --><path d="M424 24V0H376V24 65.2C326.2 72.9 288 116 288 168c0 43.7 27.4 82.8 68.4 97.7l70.7 25.7c22.1 8 36.8 29.1 36.8 52.6c0 30.9-25.1 56-56 56h-6.6c-17.7 0-35.2-4.6-50.6-13.4l-27-15.4-23.8 41.7 27 15.4c15.2 8.7 31.8 14.6 48.9 17.6V488v24h48V488 446.8c49.8-7.7 88-50.8 88-102.8c0-43.7-27.4-82.8-68.4-97.7l-70.7-25.7c-22.1-8-36.8-29.1-36.8-52.6c0-30.9 25.1-56 56-56h12.3c15.3 0 30.4 2.9 44.6 8.6l14.3 5.7 17.8-44.6L466.7 76C453 70.5 438.6 66.9 424 65.2V24zM0 32V56 280 480H48V304h59.9l56.3 176h50.4L156.7 299C214 283 256 230.4 256 168c0-75.1-60.9-136-136-136H24 0zM48 256V80h72c48.6 0 88 39.4 88 88s-39.4 88-88 88H48z"/></svg>