<svg xmlns="http://www.w3.org/2000/svg" viewBox="0 0 512 512"><!--! Font Awesome Pro 6.4.0 by @fontawesome - https://fontawesome.com License - https://fontawesome.com/license (Commercial License) Copyright 2023 Fonticons, Inc. --><path d="M232 88v24h48V88 24 0H232V24 88zm24 120a48 48 0 1 1 0 96 48 48 0 1 1 0-96zm0 144a96 96 0 1 0 0-192 96 96 0 1 0 0 192zM0 232v48H24 88h24V232H88 24 0zm424 0H400v48h24 64 24V232H488 424zM232 512h48V488 424 400H232v24 64 24zM92 58L58 92l17 17 45.3 45.3 17 17 33.9-33.9-17-17L108.9 75 92 58zM391.8 357.8l-17-17-33.9 33.9 17 17L403.1 437l17 17L454 420l-17-17-45.3-45.3zM58 420L92 454l17-17 45.3-45.3 17-17-33.9-33.9-17 17L75 403.1 58 420zM357.8 120.2l-17 17 33.9 33.9 17-17L437 108.9l17-17L420 58l-17 17-45.3 45.3z"/></svg>