<svg xmlns="http://www.w3.org/2000/svg" viewBox="0 0 384 512"><!--! Font Awesome Pro 6.4.0 by @fontawesome - https://fontawesome.com License - https://fontawesome.com/license (Commercial License) Copyright 2023 Fonticons, Inc. --><path d="M48 48V464h96V352h96V464h96V48H48zM0 0H48 336h48V48 464v48H336 48 0V464 48 0zM168 328H88V248h80v80zm48-80h80v80H216V248zM112 96v64c0 8.8 7.2 16 16 16s16-7.2 16-16V96 80h32V96v64c0 26.5-21.5 48-48 48s-48-21.5-48-48V96 80h32V96zM224 80h8 9.9l4.4 8.8L272 140.2V96 80h32V96v96 16H288h-8-9.9l-4.4-8.8L240 147.8V192v16H208V192 96 80h16z"/></svg>