<svg xmlns="http://www.w3.org/2000/svg" viewBox="0 0 640 512"><!--! Font Awesome Pro 6.4.0 by @fontawesome - https://fontawesome.com License - https://fontawesome.com/license (Commercial License) Copyright 2023 Fonticons, Inc. --><path d="M48 48H336V294.6c11.1-24.3 27.7-45.5 48-62.3V48 0H336 48 0V48 464v48H48 336h48v-8.2c-20.3-16.8-36.9-38.1-48-62.3V464H240V352H144V464H48V48zM88 88v80h80V88H88zm208 0H216v80h80V88zM88 216v80h80V216H88zm208 0H216v80h80V216zM640 368a144 144 0 1 0 -288 0 144 144 0 1 0 288 0zm-65.4-32l-11.3 11.3-72 72L480 430.6l-11.3-11.3-40-40L417.4 368 440 345.4l11.3 11.3L480 385.4l60.7-60.7L552 313.4 574.6 336z"/></svg>