<svg xmlns="http://www.w3.org/2000/svg" viewBox="0 0 640 512"><!--! Font Awesome Pro 6.4.0 by @fontawesome - https://fontawesome.com License - https://fontawesome.com/license (Commercial License) Copyright 2023 Fonticons, Inc. --><path d="M48 48H336V294.6c11.1-24.3 27.7-45.5 48-62.3V48 0H336 48 0V48 464v48H48 336h48v-8.2c-20.3-16.8-36.9-38.1-48-62.3V464H240V352H144V464H48V48zM88 88v80h80V88H88zm208 0H216v80h80V88zM88 216v80h80V216H88zm208 0H216v80h80V216zM496 512a144 144 0 1 0 0-288 144 144 0 1 0 0 288zm59.3-180.7L518.6 368l36.7 36.7L566.6 416 544 438.6l-11.3-11.3L496 390.6l-36.7 36.7L448 438.6 425.4 416l11.3-11.3L473.4 368l-36.7-36.7L425.4 320 448 297.4l11.3 11.3L496 345.4l36.7-36.7L544 297.4 566.6 320l-11.3 11.3z"/></svg>