<svg xmlns="http://www.w3.org/2000/svg" viewBox="0 0 640 512"><!--! Font Awesome Pro 6.4.0 by @fontawesome - https://fontawesome.com License - https://fontawesome.com/license (Commercial License) Copyright 2023 Fonticons, Inc. --><path d="M336 48V464H240V352H144V464H48V48H336zM48 0H0V48 464v48H48 336h48V464 48 0H336 48zM168 88H88v80h80V88zm48 0v80h80V88H216zM168 216H88v80h80V216zm48 0v80h80V216H216zm424-24H624c-44.2 0-80 35.8-80 80v16h16c44.2 0 80-35.8 80-80V192zm0 128V304H624c-44.2 0-80 35.8-80 80v16h16c44.2 0 80-35.8 80-80zm0 112V416H624c-44.2 0-80 35.8-80 80v16h16c44.2 0 80-35.8 80-80zM512 496c0-44.2-35.8-80-80-80H416v16c0 44.2 35.8 80 80 80h16V496zm0-96V384c0-44.2-35.8-80-80-80H416v16c0 44.2 35.8 80 80 80h16zm0-128c0-44.2-35.8-80-80-80H416v16c0 44.2 35.8 80 80 80h16V272zM552 32l-48 0V56 160v24h48V160 56 32zm72 64V72H576V96v32 24h48V128 96zM480 72H432V96v32 24l48 0V128 96 72z"/></svg>