<svg xmlns="http://www.w3.org/2000/svg" viewBox="0 0 384 512"><!--! Font Awesome Pro 6.4.0 by @fontawesome - https://fontawesome.com License - https://fontawesome.com/license (Commercial License) Copyright 2023 Fonticons, Inc. --><path d="M336 48H48 0V0H48 336h48V48H336zm0 192h48V464v48H336 48 0V464 240H48V464h96V352h96V464h96V240zM32 80H48h8 9.9l4.4 8.8L96 140.2V96 80h32V96v96 16H112h-8H94.1l-4.4-8.8L64 147.8V192v16H32V192 96 80zm136 0h48 16v32H216 184v64h16V160 144h32v16 32 16H216 168 152V192 96 80h16zm120 48v32c0 8.8 7.2 16 16 16s16-7.2 16-16V128c0-8.8-7.2-16-16-16s-16 7.2-16 16zm16-48c26.5 0 48 21.5 48 48v32c0 26.5-21.5 48-48 48s-48-21.5-48-48V128c0-26.5 21.5-48 48-48zM168 248v80H88V248h80zm128 80H216V248h80v80z"/></svg>