<svg xmlns="http://www.w3.org/2000/svg" viewBox="0 0 512 512"><!--! Font Awesome Pro 6.4.0 by @fontawesome - https://fontawesome.com License - https://fontawesome.com/license (Commercial License) Copyright 2023 Fonticons, Inc. --><path d="M438.1 0H448h8 24V24 179.6c18.6 8.8 32 32.5 32 60.4s-13.4 51.6-32 60.4V456v24H456h-8-9.9l-7-7-43.6-43.6c-47.8-47.8-112-75.4-179.4-77.2V464v48H160 112 64V464 352H48 0V304 176 128H48 160h40.7c70 0 137.2-27.8 186.7-77.3L431 7l7-7zM421.3 395.4L432 406.1V73.9L421.3 84.6C364.5 141.4 288.1 174 208 175.9v.1V304v0 .1c80.1 1.9 156.5 34.5 213.3 91.3zM48 176V304H64v0h48 48V176H48zm64 176V464h48V352H112z"/></svg>