<svg xmlns="http://www.w3.org/2000/svg" viewBox="0 0 640 512"><!--! Font Awesome Pro 6.4.0 by @fontawesome - https://fontawesome.com License - https://fontawesome.com/license (Commercial License) Copyright 2023 Fonticons, Inc. --><path d="M64.4 208l20 256H256v48H40L3.8 48 0 0H48.1 335.9 384l-3.8 48-9.9 126.7c-24.6 8.7-44.5 20.5-60.4 33.3H64.4zm-3.7-48H323.4l8.7-112H51.9l8.8 112zM336 301.1v35H592v-35c-.7-1.3-1.6-3.1-2.8-5.1c-3.5-5.8-9.3-13.8-18.5-22c-3.1-2.8-6.7-5.7-10.8-8.5c-.7 8.2-7.6 14.6-15.9 14.6c-8.8 0-16-7.2-16-16c0-4.9 2.2-9.4 5.8-12.3c-14.7-5.7-33-10-55.7-11.3c1.2 2.3 1.9 4.9 1.9 7.6c0 8.8-7.2 16-16 16s-16-7.2-16-16c0-2.8 .7-5.3 1.9-7.6c-22.7 1.3-41 5.6-55.7 11.3c3.5 2.9 5.8 7.4 5.8 12.3c0 8.8-7.2 16-16 16c-8.3 0-15.2-6.4-15.9-14.6c-4.1 2.8-7.7 5.7-10.8 8.5c-9.2 8.2-15 16.2-18.5 22c-1.2 2-2.1 3.7-2.8 5.1zm0 115v48H592v-48H336zm-48-40v-8-8-64-4l1.3-3.8 22.7 7.8c-22.7-7.8-22.7-7.8-22.7-7.8l0 0 0-.1 .1-.2 .2-.4c.1-.3 .3-.7 .5-1.2c.4-.9 .9-2.2 1.6-3.6c1.3-3 3.3-6.9 6.1-11.5c5.6-9.2 14.4-21.2 27.6-33c27-24.1 70.7-46.1 138.7-46.1s111.7 22 138.7 46.1c13.3 11.8 22.1 23.8 27.6 33c2.8 4.6 4.8 8.6 6.1 11.5c.7 1.5 1.2 2.7 1.6 3.6c.2 .5 .3 .9 .5 1.2l.2 .4 .1 .2 0 .1 0 0c0 0 0 0-22.7 7.8l22.7-7.8 1.3 3.8v4 64 8 8 8 8 96 24H616 312 288v-24-96-8-8z"/></svg>