<svg xmlns="http://www.w3.org/2000/svg" viewBox="0 0 576 512"><!--! Font Awesome Pro 6.4.0 by @fontawesome - https://fontawesome.com License - https://fontawesome.com/license (Commercial License) Copyright 2023 Fonticons, Inc. --><path d="M112 272H464V400H432 364.2 144 112V272zm0-48V144H264v80H112zm352 0H312V144H464v80zM368 96V80L208 80V96H115.5c6.9-6.7 19.2-15.8 39-24.5C183.5 58.8 227 48 288 48c111.7 0 157.4 31 173.1 48H368zM88 448h8v40 24h48V488 448H364.2 432v40 24h48V488 448h8 24V424 256h32V128H512V92.1 85.8l-3.1-5.5C490.3 47 429.6 0 288 0C221.4 0 171.2 11.9 135.3 27.5C100.2 42.9 76.9 62.7 67.1 80.4L64 85.8v6.3V128H32V256H64V424v24H88zm88-80a32 32 0 1 0 0-64 32 32 0 1 0 0 64zm224 0a32 32 0 1 0 0-64 32 32 0 1 0 0 64z"/></svg>