<svg xmlns="http://www.w3.org/2000/svg" viewBox="0 0 512 512"><!--! Font Awesome Pro 6.4.0 by @fontawesome - https://fontawesome.com License - https://fontawesome.com/license (Commercial License) Copyright 2023 Fonticons, Inc. --><path d="M288 64a32 32 0 1 0 0-64 32 32 0 1 0 0 64zm-64-8a32 32 0 1 0 -64 0 32 32 0 1 0 64 0zM160 272v80H80V272h80zm48 0h96v80H208V272zm144 0h80v80H352V272zm80 128v64H80V400H184 328 432zM80 224H32v48V464v48H80 432h48V464 272 224H432 280V147.4l205-43.9 23.5-5L498.4 51.5l-23.5 5-224 48-224 48-23.5 5 10.1 46.9 23.5-5 195-41.8V224H80z"/></svg>