<svg xmlns="http://www.w3.org/2000/svg" viewBox="0 0 512 512"><!--! Font Awesome Pro 6.4.0 by @fontawesome - https://fontawesome.com License - https://fontawesome.com/license (Commercial License) Copyright 2023 Fonticons, Inc. --><path d="M304 464H208V320 224 96c0-26.5 21.5-48 48-48s48 21.5 48 48V464zM48 320H160V464v48h48 96 48V464 448H464h48V400 272 224H416v48 80H352V96c0-53-43-96-96-96s-96 43-96 96V224H96V144 96H0v48V272v48H48zM256 144a16 16 0 1 0 -32 0 16 16 0 1 0 32 0zm16 240a16 16 0 1 0 0-32 16 16 0 1 0 0 32z"/></svg>