<svg xmlns="http://www.w3.org/2000/svg" viewBox="0 0 448 512"><!--! Font Awesome Pro 6.4.0 by @fontawesome - https://fontawesome.com License - https://fontawesome.com/license (Commercial License) Copyright 2023 Fonticons, Inc. --><path d="M63.9 44.9C58.8 52.1 56 60.8 56 69.6V72c0 22.1 17.9 40 40 40s40-17.9 40-40V69.6c0-8.8-2.8-17.5-7.9-24.6L96 0 63.9 44.9zM120 168V144H72v24 56H48 0v48V464v48H48 400h48V464 272 224H400 376V168 144H328v24 56H248V168 144H200v24 56H120V168zM48 340.3V272H400v68.3l-37.7-17.9-10.6-5-10.5 5.2L288 349.2l-53.3-26.6L224 317.2l-10.7 5.4L160 349.2l-53.3-26.6-10.5-5.2-10.6 5L48 340.3zm0 53.2l47.7-22.7 53.5 26.8 10.7 5.4 10.7-5.4L224 370.8l53.3 26.6 10.7 5.4 10.7-5.4 53.5-26.8L400 393.4V464H48V393.4zM224 0L191.9 44.9c-5.1 7.2-7.9 15.8-7.9 24.6V72c0 22.1 17.9 40 40 40s40-17.9 40-40V69.6c0-8.8-2.8-17.5-7.9-24.6L224 0zm95.9 44.9c-5.1 7.2-7.9 15.8-7.9 24.6V72c0 22.1 17.9 40 40 40s40-17.9 40-40V69.6c0-8.8-2.8-17.5-7.9-24.6L352 0 319.9 44.9z"/></svg>