<svg xmlns="http://www.w3.org/2000/svg" viewBox="0 0 512 512"><!--! Font Awesome Pro 6.4.0 by @fontawesome - https://fontawesome.com License - https://fontawesome.com/license (Commercial License) Copyright 2023 Fonticons, Inc. --><path d="M280 0V24 232H488h24v48H488 280V488v24H232V488 280H24 0V232H24 232V24 0h48zM400 32h24V56 88h32 24v24 24H456 424v32 24H400 376V168 136H344 320V112 88h24 32V56 32h24zM72.4 326.5l17 17L112 366.1l22.6-22.6 17-17 33.9 33.9-17 17L145.9 400l22.6 22.6 17 17-33.9 33.9-17-17L112 433.9 89.4 456.6l-17 17L38.5 439.6l17-17L78.1 400 55.4 377.4l-17-17 33.9-33.9zM64 88h96 24v48H160 64 40V88H64zM352 336h96 24v48H448 352 328V336h24zm0 80h96 24v48H448 352 328V416h24z"/></svg>