<svg xmlns="http://www.w3.org/2000/svg" viewBox="0 0 512 512"><!--! Font Awesome Pro 6.4.0 by @fontawesome - https://fontawesome.com License - https://fontawesome.com/license (Commercial License) Copyright 2023 Fonticons, Inc. --><path d="M184 0V24 64H328V24 0h48V24 64H480v80 48V464v48H432 80 32V464 192 144 64H136V24 0h48zM432 192H80V464H432V192zm-95 89l-47 47 47 47 17 17L320 425.9l-17-17-47-47-47 47-17 17L158.1 392l17-17 47-47-47-47-17-17L192 230.1l17 17 47 47 47-47 17-17L353.9 264l-17 17z"/></svg>