<svg xmlns="http://www.w3.org/2000/svg" viewBox="0 0 576 512"><!--! Font Awesome Pro 6.4.0 by @fontawesome - https://fontawesome.com License - https://fontawesome.com/license (Commercial License) Copyright 2023 Fonticons, Inc. --><path d="M0 224l24-42.1L128 0 522.1 154.8 576 176l-47.7 32.8-34 23.4 0 0L381 310.1 320 352l-90.1-36L182.4 440.5 176.5 456H160 48v32 24H0V488 432 376 352H48v24 32h95.5l41.9-109.9L45 242 0 224zm314 73.9L474.3 187.6 149.1 59.9 69 199.9l244.9 98zM520 400L387.7 344.3l142.6-98.1L576 264 520 400z"/></svg>