<svg xmlns="http://www.w3.org/2000/svg" viewBox="0 0 640 512"><!--! Font Awesome Pro 6.4.0 by @fontawesome - https://fontawesome.com License - https://fontawesome.com/license (Commercial License) Copyright 2023 Fonticons, Inc. --><path d="M0 320V224H128v96H0zM0 448V352H128v96H0zm288 0H160V352H288V320H160V224H288V192H160V64H288h48H592h48v48V400v48H592 336 288zm48-336V400H592V112H336zM33.1 192C47.3 177.6 56 157.8 56 136c0-6.2-.7-12.2-2-18c5.8 1.3 11.8 2 18 2c21.8 0 41.6-8.7 56-22.9V160h0v32l0 0H33.1z"/></svg>