<svg xmlns="http://www.w3.org/2000/svg" viewBox="0 0 512 512"><!--! Font Awesome Pro 6.4.0 by @fontawesome - https://fontawesome.com License - https://fontawesome.com/license (Commercial License) Copyright 2023 Fonticons, Inc. --><path d="M256 48C141.1 48 48 141.1 48 256V488v24H0V488 256C0 114.6 114.6 0 256 0S512 114.6 512 256V488v24H464V488 256c0-114.9-93.1-208-208-208zM175.1 224H336.9h17.4l5.4 16.6L385.4 320H392h24v24V488v24H368V488v-8H144v8 24H96V488 344 320h24 6.5l25.7-79.4 5.4-16.6h17.5zM368 432V368H144v64H368zM335 320l-15.6-48H192.6L177 320H335zM160 400a24 24 0 1 1 48 0 24 24 0 1 1 -48 0zm168-24a24 24 0 1 1 0 48 24 24 0 1 1 0-48z"/></svg>