<svg xmlns="http://www.w3.org/2000/svg" viewBox="0 0 640 512"><!--! Font Awesome Pro 6.4.0 by @fontawesome - https://fontawesome.com License - https://fontawesome.com/license (Commercial License) Copyright 2023 Fonticons, Inc. --><path d="M128 32H111.8l-6 15.1L47.8 192H0v48V352v48H48 65.3c7.6 45.4 47.1 80 94.7 80s87.1-34.6 94.7-80H385.3c7.6 45.4 47.1 80 94.7 80s87.1-34.6 94.7-80H592h48V352 240 192H592 523.5L402.7 41l-7.2-9H384 128zM434.7 368a48 48 0 1 1 90.5 32 48 48 0 1 1 -90.5-32zm135.8-16c-13.2-37.3-48.7-64-90.5-64s-77.4 26.7-90.5 64H250.5c-13.2-37.3-48.7-64-90.5-64s-77.4 26.7-90.5 64H48V240h80V192H99.4L144.2 80H372.5l89.6 112H432v48H592V352H570.5zM160 336a48 48 0 1 1 0 96 48 48 0 1 1 0-96zm32-112h88l-24 96L384 192H296l24-96L192 224z"/></svg>