<svg xmlns="http://www.w3.org/2000/svg" viewBox="0 0 640 512"><!--! Font Awesome Pro 6.4.0 by @fontawesome - https://fontawesome.com License - https://fontawesome.com/license (Commercial License) Copyright 2023 Fonticons, Inc. --><path d="M48 48H304v80l48 0V48 0H304 48 0V48 432v48H48 192l0-48H48V48zM256 192H192v47.7l56.7 .4 1.8 0 5.5-15.9V192zM160 96H96v64h64V96zm32 0v64h64V96H192zm-32 96H96v64h64V192zm0 96H96v64h64V288zM311.1 160l-5.7 15.9L271.1 272H224v48 80 16 32 64h48V448H592v64h48V448 416 400 320 272H592.9l-34.3-96.1L552.9 160H536 328 311.1zM576.6 320H592v80H272V320h15.4c.4 0 .7 0 1.1 0H575.4c.4 0 .7 0 1.1 0zM519.1 208l22.9 64H322.1l22.9-64H519.1zM336 384a24 24 0 1 0 0-48 24 24 0 1 0 0 48zm216-24a24 24 0 1 0 -48 0 24 24 0 1 0 48 0z"/></svg>