<svg xmlns="http://www.w3.org/2000/svg" viewBox="0 0 576 512"><!--! Font Awesome Pro 6.4.0 by @fontawesome - https://fontawesome.com License - https://fontawesome.com/license (Commercial License) Copyright 2023 Fonticons, Inc. --><path d="M152 32H134.7l-5.5 16.4L86.7 176H80 32 0v48H32V352v48 80H80V400H496v80h48V400 352 224h32V176H544 496h-6.7L446.8 48.4 441.3 32H424 152zM480 224h16V352H80V224H96 480zm-41.3-48H137.3l32-96H406.7l32 96zM176 288a32 32 0 1 0 -64 0 32 32 0 1 0 64 0zm256 32a32 32 0 1 0 0-64 32 32 0 1 0 0 64z"/></svg>