<svg xmlns="http://www.w3.org/2000/svg" viewBox="0 0 512 512"><!--! Font Awesome Pro 6.4.0 by @fontawesome - https://fontawesome.com License - https://fontawesome.com/license (Commercial License) Copyright 2023 Fonticons, Inc. --><path d="M120 32H102.7L97.2 48.4 54.7 176H48 0v48V352v48 80H48V400H464v80h48V400 352 224 176H464h-6.7L414.8 48.4 409.3 32H392 120zM406.7 176H105.3l32-96H374.7l32 96zM464 224V352H48V224H464zM144 288a32 32 0 1 0 -64 0 32 32 0 1 0 64 0zm256 32a32 32 0 1 0 0-64 32 32 0 1 0 0 64z"/></svg>