<svg xmlns="http://www.w3.org/2000/svg" viewBox="0 0 640 512"><!--! Font Awesome Pro 6.4.0 by @fontawesome - https://fontawesome.com License - https://fontawesome.com/license (Commercial License) Copyright 2023 Fonticons, Inc. --><path d="M416 80c61.9 0 112 50.1 112 112V368H480V176 128H432 368 320v48V368H275.2c-16.6-28.7-47.6-48-83.2-48s-66.6 19.3-83.2 48H48V80H416zM48 416H96c0 53 43 96 96 96s96-43 96-96h32 48 64 48 48 48l40 0h24V368H616l-40 0V192c0-88.4-71.6-160-160-160H48 0V80 368v48H48zM432 224H416 392v48h24 16v96H368V176h64v48zM288 128H96V256H288V128zM192 368a48 48 0 1 1 0 96 48 48 0 1 1 0-96z"/></svg>