<svg xmlns="http://www.w3.org/2000/svg" viewBox="0 0 384 512"><!--! Font Awesome Pro 6.4.0 by @fontawesome - https://fontawesome.com License - https://fontawesome.com/license (Commercial License) Copyright 2023 Fonticons, Inc. --><path d="M48 48V464H336V48H48zM0 0H48 336h48V48 464v48H336 48 0V464 48 0zM192 120.8l39.6 39.6 64 64c21.9 21.9 21.9 57.3 0 79.2s-57.3 21.9-79.2 0l-8.4-8.4V336h16 16v32H224 208 176 160 144V336h16 16V295.2l-8.4 8.4c-21.9 21.9-57.3 21.9-79.2 0s-21.9-57.3 0-79.2l64-64L192 120.8z"/></svg>