<svg xmlns="http://www.w3.org/2000/svg" viewBox="0 0 640 512"><!--! Font Awesome Pro 6.4.0 by @fontawesome - https://fontawesome.com License - https://fontawesome.com/license (Commercial License) Copyright 2023 Fonticons, Inc. --><path d="M0 0H24h80 24V24 416h80H496 616h24v48H616 544c0 26.5-21.5 48-48 48s-48-21.5-48-48H256c0 26.5-21.5 48-48 48s-48-21.5-48-48H104 80V440 48H24 0V0zM304 0h24H472h24V24 96h64 48v48V304v48H560 240 192V304 144 96h48 64V24 0zm48 96h96V48H352V96zM240 144V304h48V144H240zm96 0V304H464V144H336zM560 304V144H512V304h48z"/></svg>