<svg xmlns="http://www.w3.org/2000/svg" viewBox="0 0 640 512"><!--! Font Awesome Pro 6.4.0 by @fontawesome - https://fontawesome.com License - https://fontawesome.com/license (Commercial License) Copyright 2023 Fonticons, Inc. --><path d="M24 0H0V48H24 76.1l60.3 316.5 3.7 19.5H160 320.7c-.5-5.3-.7-10.6-.7-16c0-10.9 1-21.6 2.9-32h-143l-9.1-48H339.2c9.2-18 21.4-34.2 36-48H161.6L131.1 80H510.7L475.3 193.2c6.8-.8 13.7-1.2 20.7-1.2c10 0 19.7 .8 29.2 2.4L561 80l15-48H525.7 122l-2.4-12.5L115.9 0H96 24zM176 512a48 48 0 1 0 0-96 48 48 0 1 0 0 96zM496 224a144 144 0 1 0 0 288 144 144 0 1 0 0-288zM417.4 360l11.3-11.3 56-56L496 281.4l11.3 11.3 56 56L574.6 360 552 382.6l-11.3-11.3L512 342.6V432v16H480V432 342.6l-28.7 28.7L440 382.6 417.4 360z"/></svg>