<svg xmlns="http://www.w3.org/2000/svg" viewBox="0 0 576 512"><!--! Font Awesome Pro 6.4.0 by @fontawesome - https://fontawesome.com License - https://fontawesome.com/license (Commercial License) Copyright 2023 Fonticons, Inc. --><path d="M0 0H24 96h19.9l3.7 19.5 42 220.5H462.2l63-208h50.2L503 271l-5.2 17H480 170.7l9.1 48H488h24v48H488 160 140.1l-3.7-19.5L76.1 48H24 0V0zM128 464a48 48 0 1 1 96 0 48 48 0 1 1 -96 0zm336-48a48 48 0 1 1 0 96 48 48 0 1 1 0-96zM344 24l0 86.1 23-23 17-17L417.9 104l-17 17-64 64-17 17-17-17-64-64-17-17L256 70.1l17 17 23 23L296 24V0h48V24z"/></svg>