<svg xmlns="http://www.w3.org/2000/svg" viewBox="0 0 640 512"><!--! Font Awesome Pro 6.4.0 by @fontawesome - https://fontawesome.com License - https://fontawesome.com/license (Commercial License) Copyright 2023 Fonticons, Inc. --><path d="M64 0H88h72 19.9l3.7 19.5L186 32H589.7 640L625 80 560 288H234.7l9.1 48H552h24v48H552 224 204.1l-3.7-19.5L140.1 48H88 64V0zM195.1 80l30.5 160H524.7l50-160H195.1zM192 464a48 48 0 1 1 96 0 48 48 0 1 1 -96 0zm336-48a48 48 0 1 1 0 96 48 48 0 1 1 0-96zM24 96h80 24v48H104 24 0V96H24zm0 80h96 24v48H120 24 0V176H24zm0 80H136h24v48H136 24 0V256H24z"/></svg>