<svg xmlns="http://www.w3.org/2000/svg" viewBox="0 0 640 512"><!--! Font Awesome Pro 6.4.0 by @fontawesome - https://fontawesome.com License - https://fontawesome.com/license (Commercial License) Copyright 2023 Fonticons, Inc. --><path d="M24 0H0V48H24 80V440v24h24 56c0 26.5 21.5 48 48 48s48-21.5 48-48H448c0 26.5 21.5 48 48 48s48-21.5 48-48h72 24V416H616 496 208 128V24 0H104 24zM240 80H368V304H240V80zM192 32V80 304v48h48H368h48V304 80 32H368 240 192zM496 80h64v64H496V80zM448 32V80v64 48h48 64 48V144 80 32H560 496 448zM592 272v32H496V272h96zm-96-48H448v48 32 48h48 96 48V304 272 224H592 496z"/></svg>