<svg xmlns="http://www.w3.org/2000/svg" viewBox="0 0 576 512"><!--! Font Awesome Pro 6.4.0 by @fontawesome - https://fontawesome.com License - https://fontawesome.com/license (Commercial License) Copyright 2023 Fonticons, Inc. --><path d="M24 0H0V48H24 76.1l60.3 316.5 3.7 19.5H160 488h24V336H488 179.9l-9.1-48H480h17.8l5.2-17L575.4 32H525.2l-63 208H161.6l-42-220.5L115.9 0H96 24zM176 512a48 48 0 1 0 0-96 48 48 0 1 0 0 96zm336-48a48 48 0 1 0 -96 0 48 48 0 1 0 96 0zM274.7 48.8L240.8 82.7l17 17L286.1 128l-28.3 28.3-17 17 33.9 33.9 17-17L320 161.9l28.3 28.3 17 17 33.9-33.9-17-17L353.9 128l28.3-28.3 17-17L365.3 48.8l-17 17L320 94.1 291.7 65.8l-17-17z"/></svg>