<svg xmlns="http://www.w3.org/2000/svg" viewBox="0 0 512 512"><!--! Font Awesome Pro 6.4.0 by @fontawesome - https://fontawesome.com License - https://fontawesome.com/license (Commercial License) Copyright 2023 Fonticons, Inc. --><path d="M32 0H320V128H208v32H480l32 224v80 48H464 48 0V464 384L32 160H144V128H32V0zM80 48V80H96 256h16V48H256 96 80zM464 464V432H48v32H464zM438.4 208H73.6L48.5 384h415L438.4 208zM136 232v48H88V232h48zm96 0v48H184V232h48zm-48 80v48H136V312h48zm96-80h48v48H280V232zm0 128H232V312h48v48zm96-128h48v48H376V232zm0 80v48H328V312h48z"/></svg>