<svg xmlns="http://www.w3.org/2000/svg" viewBox="0 0 576 512"><!--! Font Awesome Pro 6.4.0 by @fontawesome - https://fontawesome.com License - https://fontawesome.com/license (Commercial License) Copyright 2023 Fonticons, Inc. --><path d="M528 80V432H472l-33.8-81.2L432 336H416 160 144l-6.2 14.8L104 432H48V80H528zM420 432H156l20-48H400l20 48zM48 32H0V80 432v48H48 528h48V432 80 32H528 48zM176 208a16 16 0 1 1 0 32 16 16 0 1 1 0-32zm64 16c0-5.5-.7-10.9-2-16H338c-1.3 5.1-2 10.5-2 16s.7 10.9 2 16H238c1.3-5.1 2-10.5 2-16zm224 0c0-35.3-28.7-64-64-64H176c-35.3 0-64 28.7-64 64s28.7 64 64 64H400c35.3 0 64-28.7 64-64zm-80 0a16 16 0 1 1 32 0 16 16 0 1 1 -32 0z"/></svg>