<svg xmlns="http://www.w3.org/2000/svg" viewBox="0 0 448 512"><!--! Font Awesome Pro 6.4.0 by @fontawesome - https://fontawesome.com License - https://fontawesome.com/license (Commercial License) Copyright 2023 Fonticons, Inc. --><path d="M304 48V224h48V48 0H304 144 96V48 224h48V48H304zM64 152V128H16v24 48 24H64V200 152zm368 0V128H384v24 48 24h48V200 152zM248 400H368h48V368l-6.9-16L368 256H80L38.9 352 32 368v32H80 200v64H152 128v48h24 72 72 24V464H296 248V400zM111.7 304H336.3l20.6 48H248 200 91.1l20.6-48z"/></svg>