<svg xmlns="http://www.w3.org/2000/svg" viewBox="0 0 576 512"><!--! Font Awesome Pro 6.4.0 by @fontawesome - https://fontawesome.com License - https://fontawesome.com/license (Commercial License) Copyright 2023 Fonticons, Inc. --><path d="M80 48V464H272V48H80zM32 464V48 0H80 272h48V48 256h8c48.6 0 88 39.4 88 88v28c0 15.5 12.5 28 28 28s28-12.5 28-28V268.3c-32.5-10.2-56-40.5-56-76.3V152 128h24 8V80 64h32V80v48h32V80 64h32V80v48h8 24v24 40c0 35.8-23.5 66.1-56 76.3V372c0 42-34 76-76 76s-76-34-76-76V344c0-22.1-17.9-40-40-40h-8V464l32 0v48H320 272 80 32 0V464l32 0zM464 192c0 17.7 14.3 32 32 32s32-14.3 32-32V176H464v16zM96 224L224 112l-22.9 80H256L128 304l22.9-80H96z"/></svg>