<svg xmlns="http://www.w3.org/2000/svg" viewBox="0 0 512 512"><!--! Font Awesome Pro 6.4.0 by @fontawesome - https://fontawesome.com License - https://fontawesome.com/license (Commercial License) Copyright 2023 Fonticons, Inc. --><path d="M495 82.7l18.7-15-30-37.5L465 45.3 320.1 161.2l-113-91.8L192.7 57.7l-15 11-152 112L6.4 194.9l28.5 38.6 19.3-14.2 137-101 113.6 92.3 15 12.2L335 210.7l160-128zM200 264V440H184V264h16zm-16-40H144v40V440v40h40 16 40V440 264 224H200 184zM72 360v80H56V360H72zM56 320H16v40 80 40H56 72h40V440 360 320H72 56zm256 8h16V440H312V328zm-40-40v40V440v40h40 16 40V440 328 288H328 312 272zm184-24V440H440V264h16zm-16-40H400v40V440v40h40 16 40V440 264 224H456 440z"/></svg>