<svg xmlns="http://www.w3.org/2000/svg" viewBox="0 0 512 512"><!--! Font Awesome Pro 6.4.0 by @fontawesome - https://fontawesome.com License - https://fontawesome.com/license (Commercial License) Copyright 2023 Fonticons, Inc. --><path d="M256 96a48 48 0 1 0 0-96 48 48 0 1 0 0 96zM150.6 88h-20L127 107.7c-5.4 29.8-31.6 52.4-63 52.4c-10.1 0-19.6-2.3-28.1-6.5L24 147.8l-11.3 6.9-1.3 .8L-8.4 167.8 3.2 188 97.6 352H153l-83-144.1c40.5-2.2 75.3-25.9 93.1-59.8c22 26.8 55.4 43.9 92.8 43.9s70.8-17.1 92.8-43.9c17.8 34 52.6 57.7 93.1 59.8L359 352h55.4l94.4-164 11.6-20.2-19.9-12.2-1.3-.8L488 147.8l-11.9 5.8c-8.5 4.1-18 6.5-28.1 6.5c-31.4 0-57.5-22.6-63-52.4L381.4 88h-20H343.3 327.9l-6.4 14c-11.4 24.8-36.5 42-65.5 42s-54.1-17.2-65.5-42l-6.4-14H168.7 150.6zM116.7 464l16.6-32H378.8l16.6 32H116.7zM448 461.3L408 384H104L64 461.3V464v48h48H400h48V464v-2.7z"/></svg>