<svg xmlns="http://www.w3.org/2000/svg" viewBox="0 0 512 512"><!--! Font Awesome Pro 6.4.0 by @fontawesome - https://fontawesome.com License - https://fontawesome.com/license (Commercial License) Copyright 2023 Fonticons, Inc. --><path d="M144 0V16 32h16 16V64H160 144V96h40 48v24l-8 24-21.3 64H224v48H200h-5.8l13.1 96H158.8l-13.1-96H110.3L97.2 352H48.7l13.1-96H56 32V208H53.3L32 144l-8-24V96H72h40V64H96 80V32H96h16V16 0h32zM103.9 208h48.1l21.3-64H82.6l21.3 64zM71.5 432L53.8 464H202.2l-17.8-32H71.5zm141.2-48L256 461.9 299.3 384H468.7L512 461.9V464v48H464 304 256 208 48 0V464v-2.1L43.3 384H212.7zM280 160H488h24v24 72 8.7l-5.6 6.7L472 312.7V328v24H424V328 304v-8.7l5.6-6.7L464 247.3V208H432v16 16H400V224 208H368v16 16H336V224 208H304v39.3l34.4 41.3 5.6 6.7V304v24 24H296V328 312.7l-34.4-41.3-5.6-6.7V256 184 160h24zm29.8 304H458.2l-17.8-32H327.5l-17.8 32z"/></svg>