<svg xmlns="http://www.w3.org/2000/svg" viewBox="0 0 448 512"><!--! Font Awesome Pro 6.4.0 by @fontawesome - https://fontawesome.com License - https://fontawesome.com/license (Commercial License) Copyright 2023 Fonticons, Inc. --><path d="M48 384v12.1L83.9 432H364.1L400 396.1V384H48zm351.4-48c-5.2-68.4-43.7-119.9-90-162.8c-19.9-18.4-39.7-33.9-58.6-48.7l0 0c-5-3.9-10-7.8-14.9-11.7c-4-3.2-8-6.4-11.9-9.6c-3.9 3.3-8 6.5-11.9 9.6c-4.9 3.9-9.8 7.7-14.9 11.7l0 0 0 0c-18.8 14.7-38.7 30.2-58.6 48.7c-46.3 42.8-84.8 94.3-90 162.8H399.4zM168.4 86.2c7.7-6 15-11.7 21.6-17.1C207.7 54.6 220.5 42.5 224 32c3.5 10.5 16.3 22.6 34.1 37.1c6.6 5.3 13.8 11 21.6 17.1C346.3 138.2 448 217.7 448 352v32 32l-64 64H64L0 416V384 352C0 217.7 101.7 138.2 168.4 86.2l0 0z"/></svg>