<svg xmlns="http://www.w3.org/2000/svg" viewBox="0 0 640 512"><!--! Font Awesome Pro 6.4.0 by @fontawesome - https://fontawesome.com License - https://fontawesome.com/license (Commercial License) Copyright 2023 Fonticons, Inc. --><path d="M240 56V32H192V56 456v24h48V456 272H368V456v24h48V456 56 32H368V56 224H240V56zM472 32H448V56 456v24h48V456 272h88 24V224H584 496V80H616h24V32H616 472zM88 40C43.8 40 8 75.8 8 120V408c0 44.2 35.8 80 80 80s80-35.8 80-80V392H120v16c0 17.7-14.3 32-32 32s-32-14.3-32-32V120c0-17.7 14.3-32 32-32s32 14.3 32 32v16h48V120c0-44.2-35.8-80-80-80z"/></svg>