<svg xmlns="http://www.w3.org/2000/svg" viewBox="0 0 320 512"><!--! Font Awesome Pro 6.4.0 by @fontawesome - https://fontawesome.com License - https://fontawesome.com/license (Commercial License) Copyright 2023 Fonticons, Inc. --><path d="M136 72a24 24 0 1 1 48 0 24 24 0 1 1 -48 0zm96 0A72 72 0 1 0 88 72a72 72 0 1 0 144 0zM116.9 160H105.5l-7.2 8.8L.6 288.8l37.2 30.3 47.1-57.9L49.2 368.4 38.7 400H72 96v88 24h48V488 400h32v88 24h48V488 400h24 33.3l-10.5-31.6L235.1 261.3l47.1 57.9 37.2-30.3-97.7-120-7.2-8.8H203.1h-1.8H184 136 118.7h-1.8zM105.3 352l48-144h13.4l48 144H105.3z"/></svg>