<svg xmlns="http://www.w3.org/2000/svg" viewBox="0 0 512 512"><!--! Font Awesome Pro 6.4.0 by @fontawesome - https://fontawesome.com License - https://fontawesome.com/license (Commercial License) Copyright 2023 Fonticons, Inc. --><path d="M256 48a208 208 0 1 1 0 416 208 208 0 1 1 0-416zm0 464A256 256 0 1 0 256 0a256 256 0 1 0 0 512zM208 96V256c0 26.5 21.5 48 48 48s48-21.5 48-48H280 264V224h16 24V192H280 264V160h16 24V96H208zM176 256V232H128v24c0 62.5 44.8 114.5 104 125.8V392v24h48V392 381.8c59.2-11.2 104-63.3 104-125.8V232H336v24c0 44.2-35.8 80-80 80s-80-35.8-80-80z"/></svg>