<svg xmlns="http://www.w3.org/2000/svg" viewBox="0 0 512 512"><!--! Font Awesome Pro 6.4.0 by @fontawesome - https://fontawesome.com License - https://fontawesome.com/license (Commercial License) Copyright 2023 Fonticons, Inc. --><path d="M208 304V256 53.6C116.3 75.2 48 157.6 48 256c0 114.9 93.1 208 208 208c98.4 0 180.8-68.3 202.4-160H256 208zm299.5 0C485 422.4 381 512 256 512C114.6 512 0 397.4 0 256C0 131 89.6 27 208 4.5C223.5 1.5 239.6 0 256 0V48 208v48h48H464h48c0 16.4-1.5 32.5-4.5 48z"/></svg>