<svg xmlns="http://www.w3.org/2000/svg" viewBox="0 0 512 512"><!--! Font Awesome Pro 6.4.0 by @fontawesome - https://fontawesome.com License - https://fontawesome.com/license (Commercial License) Copyright 2023 Fonticons, Inc. --><path d="M256 48a208 208 0 1 1 0 416 208 208 0 1 1 0-416zm0 464A256 256 0 1 0 256 0a256 256 0 1 0 0 512zM208 128H186.1l-2 21.8-8 88L174 261.1l23.2 2.8 79.1 9.5c15.8 1.9 27.7 15.3 27.7 31.2c0 17.4-14.1 31.5-31.5 31.5h-33c-12.1 0-23.2-6.7-29-17.3l-5.4-10-42.3 22.7 5.4 10c14.1 26.2 41.5 42.6 71.2 42.6h33c43.9 0 79.5-35.6 79.5-79.5c0-40.2-30.1-74.1-70-78.9l-56-6.7 3.9-42.9H312h24V128H312 208z"/></svg>