<svg xmlns="http://www.w3.org/2000/svg" viewBox="0 0 512 512"><!--! Font Awesome Pro 6.4.0 by @fontawesome - https://fontawesome.com License - https://fontawesome.com/license (Commercial License) Copyright 2023 Fonticons, Inc. --><path d="M256 48a208 208 0 1 1 0 416 208 208 0 1 1 0-416zm0 464A256 256 0 1 0 256 0a256 256 0 1 0 0 512zM409.5 152h-50L318.8 293.5 278.9 168.7 273.5 152h-35l-5.3 16.7L193.2 293.5 152.5 152h-50l66.4 230.6 5 17.4h35.6l5.3-16.7L256 254.7l41.1 128.6 5.3 16.7h35.6l5-17.4L409.5 152z"/></svg>