<svg xmlns="http://www.w3.org/2000/svg" viewBox="0 0 512 512"><!--! Font Awesome Pro 6.4.0 by @fontawesome - https://fontawesome.com License - https://fontawesome.com/license (Commercial License) Copyright 2023 Fonticons, Inc. --><path d="M464 256A208 208 0 1 0 48 256a208 208 0 1 0 416 0zM0 256a256 256 0 1 1 512 0A256 256 0 1 1 0 256zm208 0V96h96V256c0 26.5-21.5 48-48 48s-48-21.5-48-48zm-32-24v24c0 44.2 35.8 80 80 80s80-35.8 80-80V232h48v24c0 62.5-44.8 114.5-104 125.8V392v24H232V392 381.8C172.8 370.5 128 318.5 128 256V232h48z"/></svg>