<svg xmlns="http://www.w3.org/2000/svg" viewBox="0 0 640 512"><!--! Font Awesome Pro 6.4.0 by @fontawesome - https://fontawesome.com License - https://fontawesome.com/license (Commercial License) Copyright 2023 Fonticons, Inc. --><path d="M128 0V24 64h48V24 0h48V24 64 88v8 16H176 128 80 48V464H224v48H24 0V488 88 64H24 80V24 0h48zM512 112v48h48 32 48v48V464v48H592 512 304 256V464 160 48 0h48H464h48V48v64zM464 48H304V160 464H512h80V208H512 464V160 48zM352 352V288h64v64H352zM416 96v64H352V96h64zM352 256V192h64v64H352zm192 96v64H480V352h64zM96 320V256h64v64H96zm0 96V352h64v64H96zm64-256v64H96V160h64zM480 320V256h64v64H480z"/></svg>