<svg xmlns="http://www.w3.org/2000/svg" viewBox="0 0 640 512"><!--! Font Awesome Pro 6.4.0 by @fontawesome - https://fontawesome.com License - https://fontawesome.com/license (Commercial License) Copyright 2023 Fonticons, Inc. --><path d="M224 96h16 32 96 96 32 16v32H496 480v32h57.8l66.6-37L640 103.2V144 368v40.8L604.3 389l-66.6-37H104h-3.5l-3.4-1-80-24L0 321.9V304 208 190.1L17.1 185l80-24 3.4-1H104 256V128H240 224V96zm64 64h64V128H288v32zm96 0h64V128H384v32zM248 256a24 24 0 1 1 48 0 24 24 0 1 1 -48 0zm120-24a24 24 0 1 1 0 48 24 24 0 1 1 0-48zm72 24a24 24 0 1 1 48 0 24 24 0 1 1 -48 0zm115.7-51l-5.4 3H544 107.5L48 225.9v60.3L107.5 304H544h6.2l5.4 3L592 327.2V184.8L555.7 205z"/></svg>