<svg xmlns="http://www.w3.org/2000/svg" viewBox="0 0 576 512"><!--! Font Awesome Pro 6.4.0 by @fontawesome - https://fontawesome.com License - https://fontawesome.com/license (Commercial License) Copyright 2023 Fonticons, Inc. --><path d="M67.2 1.3l17 17L193 127l7 7V144v40h40 9.9l7 7L385 319l7 7V336v40h40 9.9l7 7 76.8 76.8 17 17-33.9 33.9-17-17L422.1 424H368 344V400 345.9L230.1 232H176 152V208 153.9L50.2 52.2l-17-17L67.2 1.3zm0 224l17 17L161 319l7 7V336v40h40 9.9l7 7 76.8 76.8 17 17-33.9 33.9-17-17L198.1 424H144 120V400 345.9L50.2 276.2l-17-17 33.9-33.9zm241-207L321 31l7 7V48 88h40 9.9l7 7 64 64 7 7V176v40h40 9.9l7 7 12.8 12.8 17 17-33.9 33.9-17-17-5.8-5.8H432 408V240 185.9L358.1 136H304 280V112 57.9l-5.8-5.8-17-17L291.2 1.3l17 17z"/></svg>