<svg xmlns="http://www.w3.org/2000/svg" viewBox="0 0 576 512"><!--! Font Awesome Pro 6.4.0 by @fontawesome - https://fontawesome.com License - https://fontawesome.com/license (Commercial License) Copyright 2023 Fonticons, Inc. --><path d="M528 80V432H48V80H528zM48 32H0V80 432v48H48 528h48V432 80 32H528 48zM200 208c17 0 32 8.9 40.6 22.3l40.5-25.7c-17-26.8-46.9-44.6-81.1-44.6c-53 0-96 43-96 96s43 96 96 96c34.2 0 64.1-17.8 81.1-44.6l-40.5-25.7C232 295.1 217 304 200 304c-26.5 0-48-21.5-48-48s21.5-48 48-48zm144 48c0-26.5 21.5-48 48-48c17 0 32 8.9 40.6 22.3l40.5-25.7c-17-26.8-47-44.6-81.1-44.6c-53 0-96 43-96 96s43 96 96 96c34.2 0 64.1-17.8 81.1-44.6l-40.5-25.7C424 295.1 409 304 392 304c-26.5 0-48-21.5-48-48z"/></svg>