<svg xmlns="http://www.w3.org/2000/svg" viewBox="0 0 640 512"><!--! Font Awesome Pro 6.4.0 by @fontawesome - https://fontawesome.com License - https://fontawesome.com/license (Commercial License) Copyright 2023 Fonticons, Inc. --><path d="M48.4 14.8L29.4 .1 0 38 19 52.7 591.5 497.2l19 14.7L639.9 474l-19-14.7-12.9-10V432 80 32H560 80 70.5L48.4 14.8zm84 65.2H560V412l-91.4-71c14.9-7.8 27.5-19.5 36.5-33.6l-40.5-25.7C456 295.1 441 304 424 304c-1.1 0-2.2 0-3.2-.1L378.4 271c-1.6-4.7-2.4-9.8-2.4-15c0-26.5 21.5-48 48-48c17 0 32 8.9 40.6 22.3l40.5-25.7c-17-26.8-46.9-44.6-81.1-44.6c-45.4 0-83.4 31.5-93.4 73.9L302 211.7l11.1-7.1c-16.4-25.8-44.9-43.4-77.6-44.6L132.4 80zM32 432v48H80 487.4l-60.9-48H80V159L32 121.2V432zM136 256c0 53 43 96 96 96c24.1 0 46.2-8.9 63-23.6l-39.1-30.8c-7 4.1-15.2 6.4-23.9 6.4c-26.5 0-48-21.5-48-48c0-4.7 .7-9.2 1.9-13.5l-39.1-30.8C139.9 224.9 136 240 136 256z"/></svg>