<svg xmlns="http://www.w3.org/2000/svg" viewBox="0 0 576 512"><!--! Font Awesome Pro 6.4.0 by @fontawesome - https://fontawesome.com License - https://fontawesome.com/license (Commercial License) Copyright 2023 Fonticons, Inc. --><path d="M429.2 107.1c0 53 42.8 96 95.6 96c18.8 0 36.4-5.5 51.2-14.9c-20.7 39-60.9 65.9-107.5 67.8c-11-23.3-29.9-42.2-53.1-53.2c-2.2-47.4-33.7-87.1-76.7-101.2C350.9 43.5 402.1 0 463.5 0c18.8 0 36.7 4.1 52.8 11.5c-48.8 4.4-87 45.5-87 95.6zM64 416h56L56 512H0l64-96zm96 0h56l-64 96H96l64-96zm152 0l-64 96H192l64-96h56zm40 0h56l-64 96H288l64-96zM176.6 144c-26.5 0-48 21.5-48 48v24 24h-24H96c-26.5 0-48 21.5-48 48v48H80.6h31.8l0 0H248.6h0 88v0h24H368h32V304c0-17.7-14.3-32-32-32h-7.4-24V248 208c0-17.7-14.3-32-32-32c-14.9 0-27.5 10.2-31 24h-49v-8c0-26.5-21.5-48-48-48zm208 240v0h-24-112 0-144-24H48.8l0 0H24 0V360 288c0-47.8 34.9-87.4 80.6-94.8V192c0-53 43-96 96-96c34.9 0 65.4 18.6 82.2 46.4c13-9.1 28.7-14.4 45.8-14.4c44.2 0 80 35.8 80 80v17.7c36.2 7.6 63.4 39.8 63.4 78.3v56 24H424 384.6z"/></svg>