<svg xmlns="http://www.w3.org/2000/svg" viewBox="0 0 576 512"><!--! Font Awesome Pro 6.4.0 by @fontawesome - https://fontawesome.com License - https://fontawesome.com/license (Commercial License) Copyright 2023 Fonticons, Inc. --><path d="M248 48c-33.9 0-61.7 26.4-63.9 59.8l-1.4 22.5H160.2 152c-22.1 0-40 17.9-40 40V192H464V170.3c0-22.1-17.9-40-40-40h-1.5H403.2l-4.1-18.9c-3.9-18-20-31.4-39.1-31.4c-8.4 0-16.2 2.6-22.6 7l-21.2 14.6L303.1 79.5C291.9 60.6 271.4 48 248 48zM139.8 83.1C152.5 35.3 196.1 0 248 0c33 0 62.6 14.3 83.1 36.9c9.1-3.2 18.8-4.9 28.9-4.9c35.7 0 66.4 21.2 80.2 51.8c40.9 7.6 71.8 43.4 71.8 86.5V216v24H488 88 64V216 170.3c0-44.4 33-81.2 75.8-87.2zM95 272h48L80 384H32L95 272zm112 0h48L192 384H144l63-112zm112 0h48L304 384H256l63-112zm112 0h48L416 384H368l63-112zM79 488.9C59.7 499.8 31.5 512 0 512V464c19.7 0 39.4-7.8 55.3-16.9c15.4-8.7 27.2-19.3 40.2-30.9l.4-.4 .4 .4c13 11.6 24.9 22.2 40.3 30.9c15.9 9 35.6 16.9 55.3 16.9s39.5-7.8 55.3-16.9c15.4-8.7 27-19.1 40-30.7l.7-.6 .7 .6c13 11.6 24.6 22 40 30.7c15.9 9 35.6 16.9 55.3 16.9s39.5-7.8 55.3-16.9c15.4-8.7 27-19.1 40-30.7l.7-.6 .7 .6c13 11.6 24.6 22 40 30.7c15.9 9 35.7 16.9 55.4 16.9v48c-31.5 0-59.7-12.2-79.1-23.1c-6.5-3.7-12.2-7.4-17-10.7c-4.8 3.3-10.5 7-16.9 10.7c-19.3 11-47.6 23.1-79.1 23.1s-59.7-12.2-79.1-23.1c-6.5-3.7-12.2-7.4-16.9-10.7c-4.7 3.3-10.5 7-16.9 10.7c-19.3 11-47.6 23.1-79.1 23.1s-59.7-12.2-79.1-23.1c-6.5-3.7-12.2-7.4-16.9-10.7c-4.7 3.3-10.4 7-16.9 10.7z"/></svg>