<svg xmlns="http://www.w3.org/2000/svg" viewBox="0 0 640 512"><!--! Font Awesome Pro 6.4.0 by @fontawesome - https://fontawesome.com License - https://fontawesome.com/license (Commercial License) Copyright 2023 Fonticons, Inc. --><path d="M48.4 14.8L29.4 .1 0 38 19 52.7 591.5 497.2l19 14.7L635.2 480H640V432 352c0-59.6-40.8-109.8-96-124V208c0-70.7-57.3-128-128-128c-13.9 0-27.3 2.2-39.9 6.3C346.8 53 303.9 32 256 32c-46.8 0-89 20.1-118.2 52.2L48.4 14.8zm127.5 99C196.2 92.9 224.6 80 256 80c33.5 0 63.5 14.6 84.1 38L361 141.8l30.1-9.8c7.8-2.5 16.1-3.9 24.9-3.9c44.2 0 80 35.8 80 80v20 37.2l36 9.3c34.5 8.9 60 40.3 60 77.5v80h-6.2L175.9 113.8zM144 234.1V209.5L97.2 172.6c-.8 6.4-1.2 12.9-1.2 19.4v8.2C40.1 220 0 273.3 0 336v96 48H48h96H487.4l-60.9-48H144 48V336c0-41.7 26.6-77.3 64-90.6l32-11.3z"/></svg>