<svg xmlns="http://www.w3.org/2000/svg" viewBox="0 0 512 512"><!--! Font Awesome Pro 6.4.0 by @fontawesome - https://fontawesome.com License - https://fontawesome.com/license (Commercial License) Copyright 2023 Fonticons, Inc. --><path d="M368 176V128c0-26.5-21.5-48-48-48c-9.7 0-18.7 2.8-26.2 7.7l-38.8 25.3L228.4 75.2C216.7 58.7 197.6 48 176 48c-35.3 0-64 28.7-64 64v21.5 33.9L80 178.7c-18.7 6.6-32 24.5-32 45.3v48H96 207.2L144 320H96 48 0V272 224c0-41.8 26.7-77.4 64-90.5V112C64 50.1 114.1 0 176 0c37.9 0 71.3 18.8 91.6 47.5C282.7 37.7 300.7 32 320 32c53 0 96 43 96 96c53 0 96 43 96 96v48 48H464 416 400v0H323.5l15-48H416h48V224c0-26.5-21.5-48-48-48H368zM232 384H144V360L320 224 280 352h88v24L192 512l40-128z"/></svg>