<svg xmlns="http://www.w3.org/2000/svg" viewBox="0 0 512 512"><!--! Font Awesome Pro 6.4.0 by @fontawesome - https://fontawesome.com License - https://fontawesome.com/license (Commercial License) Copyright 2023 Fonticons, Inc. --><path d="M266.3 48.1C246 18.9 213.1 0 176 0C114.1 0 64 52.7 64 117.6v22.5C26.7 154 0 191.3 0 235.2V288v48H48 96h37.6l-2.9-14.4 12.1-12.1L164.4 288H96 48V235.2c0-24.4 14.7-43.4 32.7-50.1L112 173.5V140.1 117.6C112 76.9 142.8 48 176 48c20.6 0 39.6 10.6 51.8 28.7l27 40.2 40-27.4c7.5-5.1 16.1-7.9 25.3-7.9c24.3 0 48 21.4 48 52.8v48h48c24.3 0 48 21.4 48 52.8V288H416 347.6l21.5 21.5 12.1 12.1L378.4 336H416h48 48V288 235.2c0-55.7-43-100.8-96-100.8c0-55.7-43-100.8-96-100.8c-18.7 0-36.1 5.6-50.9 15.3c-.5 .3-1 .7-1.5 1c-.4-.6-.8-1.2-1.3-1.8zM172.1 434.7l-6.6 33.1 22.6 22.6 33.1-6.6L240 512h32l18.7-28.1 33.1 6.6 22.6-22.6-6.6-33.1L368 416V384l-28.1-18.7 6.6-33.1-22.6-22.6-33.1 6.6L272 288H240l-18.7 28.1-33.1-6.6-22.6 22.6 6.6 33.1L144 384v32l28.1 18.7zM48 464a48 48 0 1 0 0-96 48 48 0 1 0 0 96zm416 0a48 48 0 1 0 0-96 48 48 0 1 0 0 96z"/></svg>