<svg xmlns="http://www.w3.org/2000/svg" viewBox="0 0 640 512"><!--! Font Awesome Pro 6.4.0 by @fontawesome - https://fontawesome.com License - https://fontawesome.com/license (Commercial License) Copyright 2023 Fonticons, Inc. --><path d="M121.3 0L104 104 0 121.3 60.7 208 0 294.7 104 312l17.3 104 42-29.4c8.8-37.6 34.2-68.7 68-85.4c-7.5 1.9-15.3 2.9-23.4 2.9c-53 0-96-43-96-96s43-96 96-96c36.6 0 68.4 20.5 84.6 50.6c7.5-23.3 23.6-42.6 44.5-54.4L312 104 294.7 0 208 60.7 121.3 0zM272 208a64 64 0 1 0 -128 0 64 64 0 1 0 128 0zm134.6-32H438l12.6-28.8c5-11.4 16.3-19.2 29.3-19.2c15.4 0 28.4 11 31.3 25.5l7.8 38.5h39.2 9.6c13.2 0 24 10.7 24 24v24H576 553.7c18.8 11.3 33.9 28.1 43.4 48H624h15.9v-48V216c0-39.8-32.2-72-72-72h-9.6c-7.4-36.5-39.7-64-78.4-64c-32.8 0-61 19.7-73.3 48H384c-35.3 0-64 28.6-64 64c0 3 .2 6 .6 8.9c14.6-5.8 30.6-9 47.3-9l.1 0c.1-8.8 7.2-15.9 16-15.9h22.6zm-38 96c26.5 0 48 21.5 48 48v8h49c3.5-13.8 16.1-24 31-24c17.7 0 32 14.3 32 32v40 24h24H560c17.7 0 32 14.3 32 32v32H560h-7.4-24v0h-88 0H304.4l0 0H272.6 240V416c0-26.5 21.5-48 48-48h8.6 24V344 320c0-26.5 21.5-48 48-48zm208 240H616h24V488 432c0-38.5-27.2-70.7-63.4-78.3V336c0-44.2-35.8-80-80-80c-17 0-32.8 5.3-45.8 14.4C434 242.6 403.4 224 368.6 224c-53 0-96 43-96 96v1.2c-45.7 7.4-80.6 47-80.6 94.8v72 24h24 24.8l0 0h31.8 24 144 0 112 24v0z"/></svg>