<svg xmlns="http://www.w3.org/2000/svg" viewBox="0 0 640 512"><!--! Font Awesome Pro 6.4.0 by @fontawesome - https://fontawesome.com License - https://fontawesome.com/license (Commercial License) Copyright 2023 Fonticons, Inc. --><path d="M390.4 188.8c4.6 3.5 9 7.2 13.1 11.1c12.2-4.5 25.3-7.2 39-7.8c3.6-10 5.5-20.9 5.5-32.1c0-53-43-96-96-96H309.2C291.2 26.2 252.7 0 208 0C151.6 0 104.9 41.7 97.1 96L96 96C43 96 0 139 0 192v48 48H48 96h64.9c1.9-17.1 6.8-33.3 14.1-48H96 48V192c0-26.5 21.4-47.9 47.9-48l1 0 41.9 .2 5.9-41.5C149.1 71.8 175.8 48 208 48c25.5 0 47.5 14.9 57.9 36.6l13 27.4h30.3H352c26.5 0 48 21.5 48 48c0 10.8-3.6 20.8-9.6 28.8zM496 320v48h48c26.5 0 48 21.5 48 48v48H544 224 176V416c0-20.8 13.3-38.7 32-45.3l32-11.3V325.5 304c0-35.3 28.7-64 64-64c21.6 0 40.7 10.7 52.4 27.2l26.7 37.9 38.8-25.3c7.5-4.9 16.4-7.7 26.2-7.7c26.5 0 48 21.5 48 48zM128 512h48 48H544h48 48V464 416c0-53-43-96-96-96c0-53-43-96-96-96c-19.3 0-37.3 5.7-52.4 15.5C375.3 210.8 341.9 192 304 192c-61.9 0-112 50.1-112 112v21.5c-37.3 13.2-64 48.7-64 90.5v48 48z"/></svg>