<svg xmlns="http://www.w3.org/2000/svg" viewBox="0 0 640 512"><!--! Font Awesome Pro 6.4.0 by @fontawesome - https://fontawesome.com License - https://fontawesome.com/license (Commercial License) Copyright 2023 Fonticons, Inc. --><path d="M448 140C448 72.3 499 16.5 564.7 8.9C548.2 3.1 530.5 0 512 0C423.6 0 352 71.6 352 160c0 11.5 1.2 22.7 3.5 33.5c53.7 8.2 96.5 49.8 106.4 103c14.2 5.4 27.1 13.3 38.4 23.1c3.9 .3 7.8 .4 11.8 .4c51.2 0 96.7-24 126-61.4c-17.5 8.6-37.2 13.4-58 13.4c-72.9 0-132-59.1-132-132zM335.3 272c26.5 0 48 21.5 48 48v24 24h24 8c26.5 0 48 21.5 48 48v48h-32H399.4l0 0H263.3h0-88v0h-24-8-32V432c0-17.7 14.3-32 32-32h8 24V376 336c0-17.7 14.3-32 32-32c17.3 0 31.4 13.7 32 30.8l48-.9V320c0-26.5 21.5-48 48-48zm-208 240v0h24 112 0 144 24 31.8l0 0h24.2 24V488 416c0-47.6-34.6-87-80-94.7V320c0-53-43-96-96-96c-34.9 0-65.4 18.6-82.2 46.4c-13-9.1-28.7-14.4-45.8-14.4c-44.2 0-80 35.8-80 80v17.6c-36.5 7.4-64 39.7-64 78.4v56 24h24 40zm106-335.8H256c8.8 0 16 7.2 16 16v17.1c14.4-8.4 30.7-14 48-16.2v-.9c0-35.3-28.6-64-64-64H233.4c-12.3-28.2-40.5-48-73.3-48c-38.7 0-71 27.5-78.4 64H72.1c-39.8 0-72 32.2-72 72v24 48h48 24l0 0h34.7c9.4-19.9 24.6-36.6 43.4-48H120l0 0h-48-24v-24c0-13.2 10.7-24 24-24h9.6 39.2l7.8-38.5c3-14.6 15.9-25.5 31.3-25.5c13 0 24.4 7.8 29.3 19.2L202 176.1h31.4z"/></svg>