<svg xmlns="http://www.w3.org/2000/svg" viewBox="0 0 448 512"><!--! Font Awesome Pro 6.4.0 by @fontawesome - https://fontawesome.com License - https://fontawesome.com/license (Commercial License) Copyright 2023 Fonticons, Inc. --><path d="M277.2 32H256h-9.9l-7 7-15 15L209 39l-7-7H192 170.8C129.5 32 96 65.5 96 106.8c0 8.8 1.6 17.5 4.6 25.7c-8.2-3-16.9-4.6-25.7-4.6C33.5 128 0 161.5 0 202.8V224v9.9l7 7 15 15L7 271l-7 7V288v21.2C0 350.5 33.5 384 74.8 384c8.8 0 17.5-1.6 25.7-4.6c-3 8.2-4.6 16.9-4.6 25.7c0 41.3 33.5 74.8 74.8 74.8H192h9.9l7-7 15-15 15 15 7 7H256h21.2c41.3 0 74.8-33.5 74.8-74.8c0-8.8-1.6-17.5-4.6-25.7c8.2 3 16.9 4.6 25.7 4.6c41.3 0 74.8-33.5 74.8-74.8V288v-9.9l-7-7-15-15 15-15 7-7V224 202.8c0-41.3-33.5-74.8-74.8-74.8c-8.8 0-17.5 1.6-25.7 4.6c3-8.2 4.6-16.9 4.6-25.7C352 65.5 318.5 32 277.2 32zM241 105l25-25 11.2 0C292 80 304 92 304 106.8c0 4.6-1.2 9-3.4 13L267 180.3l-13.8 24.9 21.6 21.6L299.7 213l60.5-33.6c4-2.2 8.5-3.4 13-3.4c14.8 0 26.8 12 26.8 26.8v11.2l-25 25-17 17 17 17 25 25v11.2c0 14.8-12 26.8-26.8 26.8c-4.6 0-9-1.2-13-3.4L299.7 299l-24.9-13.8-21.6 21.6L267 331.7l33.6 60.5c2.2 4 3.4 8.5 3.4 13c0 14.8-12 26.8-26.8 26.8H265.9l-25-25-17-17-17 17-25 25H170.8C156 432 144 420 144 405.2c0-4.6 1.2-9 3.4-13L181 331.7l13.8-24.9-21.6-21.6L148.3 299 87.9 332.6c-4 2.2-8.5 3.4-13 3.4C60 336 48 324 48 309.2V297.9l25-25 17-17L73 239l-25-25V202.8C48 188 60 176 74.8 176c4.6 0 9 1.2 13 3.4L148.3 213l24.9 13.8 21.6-21.6L181 180.3l-33.6-60.5c-2.2-4-3.4-8.5-3.4-13C144 92 156 80 170.8 80h11.2l25 25 17 17 17-17z"/></svg>