<svg xmlns="http://www.w3.org/2000/svg" viewBox="0 0 512 512"><!--! Font Awesome Pro 6.4.0 by @fontawesome - https://fontawesome.com License - https://fontawesome.com/license (Commercial License) Copyright 2023 Fonticons, Inc. --><path d="M192 416l96-96h32v72h16c39.8 0 72-32.2 72-72V160h-8H352V112 48 0h48 64 48V48v64 48H464h-8V320c0 66.3-53.7 120-120 120H320v72H288l-96-96zM400 48v64h64V48H400zM320 96l-96 96H192V120H176c-39.8 0-72 32.2-72 72V352h8 48v48 64 48H112 48 0V464 400 352H48h8V192c0-66.3 53.7-120 120-120h16V0h32l96 96zM48 400v64h64V400H48z"/></svg>