<svg xmlns="http://www.w3.org/2000/svg" viewBox="0 0 448 512"><!--! Font Awesome Pro 6.4.0 by @fontawesome - https://fontawesome.com License - https://fontawesome.com/license (Commercial License) Copyright 2023 Fonticons, Inc. --><path d="M380.3 125.1l-38.8 77.6-2.9 5.7-5.3 3.5L146.2 336.7l-44.3 80.5c22 11.1 49.7 15.2 81.3 10.7c45.5-6.5 96.1-30.9 138.9-73.8s67.3-93.4 73.8-138.9c5.1-36-1-66.9-15.7-90.1zM343.5 91.2c-22.3-11.8-50.7-16.4-83.4-11.7c-45.5 6.5-96.1 30.9-138.9 73.8S54 246.7 47.5 292.2c-5.3 37.4 1.4 69.3 17.4 92.8L107 308.4l2.8-5.1 4.9-3.3L301.4 175.6l42.2-84.3zm57.4-16.7c74.2 74.2 54.2 214.6-44.8 313.6s-239.4 119-313.6 44.8s-54.2-214.6 44.8-313.6s239.4-119 313.6-44.8z"/></svg>