<svg xmlns="http://www.w3.org/2000/svg" viewBox="0 0 640 512"><!--! Font Awesome Pro 6.4.0 by @fontawesome - https://fontawesome.com License - https://fontawesome.com/license (Commercial License) Copyright 2023 Fonticons, Inc. --><path d="M400 80V336H281.3 264 184 166.7 48V80H400zM48 384H150.7l-16 48H64v48h54.7H152 296h33.3H384V432H313.3l-16-48H400h48V336 80 32H400 48 0V80 336v48H48zm137.3 48l16-48h45.4l16 48H185.3zM528 80h64v32H528V80zm0 80h64v32H528V160zm64 80V432H528V240h64zM480 32V80 432v48h48 64 48V432 80 32H592 528 480zm80 328a24 24 0 1 0 0-48 24 24 0 1 0 0 48z"/></svg>