<svg xmlns="http://www.w3.org/2000/svg" viewBox="0 0 640 512"><!--! Font Awesome Pro 6.4.0 by @fontawesome - https://fontawesome.com License - https://fontawesome.com/license (Commercial License) Copyright 2023 Fonticons, Inc. --><path d="M464 48V208H176V48h80v96l64-48 64 48V48h80zm0-48H384 256 176 128V48 208v48h48H464h48V208 48 0H464zM592 400c0 35.3-28.7 64-64 64H112c-35.3 0-64-28.7-64-64s28.7-64 64-64H528c35.3 0 64 28.7 64 64zM112 288C50.1 288 0 338.1 0 400s50.1 112 112 112H528c61.9 0 112-50.1 112-112s-50.1-112-112-112H112zm48 112a32 32 0 1 0 -64 0 32 32 0 1 0 64 0zm160 32a32 32 0 1 0 0-64 32 32 0 1 0 0 64zm224-32a32 32 0 1 0 -64 0 32 32 0 1 0 64 0z"/></svg>