<svg xmlns="http://www.w3.org/2000/svg" viewBox="0 0 512 512"><!--! Font Awesome Pro 6.4.0 by @fontawesome - https://fontawesome.com License - https://fontawesome.com/license (Commercial License) Copyright 2023 Fonticons, Inc. --><path d="M48 272v72H464V272H48zm0 120v72H464V392H48zM0 224H48 464h48v48V464v48H464 48 0V464 272 224zm400 80a16 16 0 1 1 32 0 16 16 0 1 1 -32 0zm16 112a16 16 0 1 1 0 32 16 16 0 1 1 0-32zM80 304a16 16 0 1 1 32 0 16 16 0 1 1 -32 0zM96 416a16 16 0 1 1 0 32 16 16 0 1 1 0-32z"/></svg>