<svg xmlns="http://www.w3.org/2000/svg" viewBox="0 0 576 512"><!--! Font Awesome Pro 6.4.0 by @fontawesome - https://fontawesome.com License - https://fontawesome.com/license (Commercial License) Copyright 2023 Fonticons, Inc. --><path d="M288 4.4l8.1 2.9 136 48.5L448 61.5V78.4 207.5l112.5 42.7 15.5 5.9v16.6V426.8v15.7l-14.3 6.3L433.7 505l-9.4 4.1-9.5-3.9L288 452.7 161.2 505.2l-9.5 3.9-9.4-4.1-128-56.3L0 442.4V426.8 272.6 256.1l15.5-5.9L128 207.5V78.4 61.5l15.9-5.7 136-48.5L288 4.4zM400 117.9l-88 33.7v86.9l88-31.4V117.9zM264 151.7l-88-33.7v89.3l88 31.4V151.7zm48 259.1l88 36.4V353.9l-88-33.7v90.6zm136 35.5l80-35.2V323.2l-80 30.7v92.4zM264 320.2l-88 33.7v93.3l88-36.4V320.2zM48 411.1l80 35.2V353.9L48 323.2v87.9zM288 55.4L214.9 81.5l73.1 28 73.1-28L288 55.4zM152.3 249.7L70.8 280.6 152 311.7l83.9-32.1-83.6-29.8zm352.9 30.9l-81.4-30.9-83.6 29.8L424 311.7l81.2-31.1z"/></svg>