<svg xmlns="http://www.w3.org/2000/svg" viewBox="0 0 448 512"><!--! Font Awesome Pro 6.4.0 by @fontawesome - https://fontawesome.com License - https://fontawesome.com/license (Commercial License) Copyright 2023 Fonticons, Inc. --><path d="M224 0H179.2L204 37.3l10.8 16.3c.7 1.1 1.1 2.4 1.1 3.7c0 3.7-3 6.7-6.7 6.7H148c-45 0-81.8 35.4-83.9 79.9C26.5 159.6 0 196.7 0 240v56 24H24 424h24V296 240c0-43.3-26.4-80.4-64-96C382.5 64.2 317.4 0 237.3 0H224zm40 57.3c0-1.9-.1-3.8-.3-5.7c41.7 11.5 72.3 49.7 72.3 95.1c0 3.1-.4 6.1-1.1 8.9l-6.1 24.8 25.1 4.5c26.2 4.7 46 27.6 46 55.1v32H48V240c0-27.4 19.7-50.3 45.8-55.1l24.6-4.5L112.9 156c-.6-2.6-.9-5.2-.9-8c0-19.9 16.1-36 36-36h61.3c30.2 0 54.7-24.5 54.7-54.7zM96 512h51.9l-20-160H69.3L96 512zm84.1 0h87.8l20-160H160.1l20 160zm120 0H352l26.7-160H320.1l-20 160z"/></svg>