<svg xmlns="http://www.w3.org/2000/svg" viewBox="0 0 512 512"><!--! Font Awesome Pro 6.4.0 by @fontawesome - https://fontawesome.com License - https://fontawesome.com/license (Commercial License) Copyright 2023 Fonticons, Inc. --><path d="M256 16V0H224V16 40c0 30.9 25.1 56 56 56h8 8 20.6l-.3 .9L256 112v32h46.2L295 168H104c-28.5 0-54.2 12.5-71.8 32.2C12.5 217.8 0 243.5 0 272v48 16H32V321.9l8 8v18.2L25.2 392.4l-2.6 7.9 2.9 7.9 32 88L63.2 512H80h80 34.3l-11.7-32.2L156.4 408 183 386.7l9-7.2V369.3l16.4 5.5 3.7 1.2H216h48V488v24h24 80 24V488 311.8c0-2.6 .4-5.1 1.2-7.6L409.3 256H496h24V232 168 157.4l-7.9-7.1-68-61.8C460.8 78.7 472 60.7 472 40V16 0H440V16 40c0 13.3-10.7 24-24 24h-8H346.6c3.5-7.3 5.4-15.4 5.4-24V16 0H320V16 40c0 13.3-10.7 24-24 24h-8-8c-13.3 0-24-10.7-24-24V16zM144 356.5l-31 24.8L99.6 392l5.9 16.2L125.7 464H96.8L73.4 399.7l13.4-40.1 1.2-3.7V352 320v-9.9l-7-7-25-25V264c0-26.5 21.5-48 48-48H312.9h17.9l5.1-17.1 26-86.9h36.8L472 178.6V208H392 374.7l-5.5 16.4L347.7 289c-2.4 7.3-3.7 15-3.7 22.8V464H312V352 328H288 219.9l-44.3-14.8L144 302.7V336v20.5zM416 160a16 16 0 1 0 -32 0 16 16 0 1 0 32 0z"/></svg>