<svg xmlns="http://www.w3.org/2000/svg" viewBox="0 0 640 512"><!--! Font Awesome Pro 6.4.0 by @fontawesome - https://fontawesome.com License - https://fontawesome.com/license (Commercial License) Copyright 2023 Fonticons, Inc. --><path d="M112 0s-16 12.1-16 32c0 11.8 4.4 21.5 9.9 28.9L13.8 168.4 .8 183.5 13.3 199l64 80 12.7 15.8 17.7-9.8L157 257.5l35 75.7V488v24h24 96 24V488 432h96v56 24h24 96 24V488 328 205.4l32.1 28.5 31.9-35.9-72-64-6.8-6.1H552 288.3L209.9 66.1c7.3-8 14.1-19.3 14.1-34.1c0-19.9-16-32-16-32L160 45.7 112 0zM240 464V352H528V464H480V408 384H456 312 288v24 56H240zM528 176V304H231.4l-41.6-90.1L179 190.5 156.3 203l-54.3 30.2L63.2 184.5l76.1-88.8 29.8-.7 96 75.8 6.5 5.2H280 528zM386 229.4L375.5 208 365 229.4l-24.2 3.1 17.7 16.3L354 272l21.4-11.3L396.9 272l-4.4-23.3 17.7-16.3L386 229.4zM279.5 208L269 229.4l-24.2 3.1 17.7 16.3L258 272l21.4-11.3L300.9 272l-4.4-23.3 17.7-16.3L290 229.4 279.5 208zM474 229.4L463.5 208 453 229.4l-24.2 3.1 17.7 16.3L442 272l21.4-11.3L484.9 272l-4.4-23.3 17.7-16.3L474 229.4z"/></svg>