<svg xmlns="http://www.w3.org/2000/svg" viewBox="0 0 576 512"><!--! Font Awesome Pro 6.4.0 by @fontawesome - https://fontawesome.com License - https://fontawesome.com/license (Commercial License) Copyright 2023 Fonticons, Inc. --><path d="M48 0H224V48H48V256H528V48H352V0H528h48V48 256v48 64 48H528 364.3l8 48H424h24v48H424 352 224 152 128V464h24 51.7l8-48H48 0V368 304 256 48 0H48zm0 304v64H528V304H48zM252.3 464h71.3l-8-48H260.3l-8 48zM312 24V134.1l39-39 17-17L401.9 112l-17 17-80 80-17 17-17-17-80-80-17-17L208 78.1l17 17 39 39V24 0h48V24z"/></svg>