<svg xmlns="http://www.w3.org/2000/svg" viewBox="0 0 512 512"><!--! Font Awesome Pro 6.4.0 by @fontawesome - https://fontawesome.com License - https://fontawesome.com/license (Commercial License) Copyright 2023 Fonticons, Inc. --><path d="M232 488l24 24 24-24 9.9-9.9L473.3 294.7l4.7-4.7L512 256l-18.9-18.9-15.1-15.1L289.9 33.9 280 24 256 0 232 24l-9.9 9.9L33.9 222.1 18.9 237.1 0 256l33.9 33.9 4.7 4.7L222.1 478.1 232 488zm0-67.9l-89.9-89.9L232 361.1v59zM69.4 254.5L232 91.9V310.4L69.4 254.5zM280 91.9L442.6 254.5 280 310.4V91.9zm0 269.2l89.9-30.9L280 420.1v-59z"/></svg>