<svg xmlns="http://www.w3.org/2000/svg" viewBox="0 0 640 512"><!--! Font Awesome Pro 6.4.0 by @fontawesome - https://fontawesome.com License - https://fontawesome.com/license (Commercial License) Copyright 2023 Fonticons, Inc. --><path d="M91.2 48L503.3 368H560V48H91.2zM32 2.1V0H80 560h48V48 368v48H565.2l55.8 43.3 19 14.7-29.4 37.9-19-14.7L19 52.7 0 38 29.4 .1l2.6 2zM80 368H345L406 416h-9.6l8 48H456h10.9L480 474.3V512H456 384 256 184 160V464h24 51.7l8-48H80 32V368 121.4l48 37.8V368zm267.7 48H292.3l-8 48h71.3l-8-48z"/></svg>