<svg xmlns="http://www.w3.org/2000/svg" viewBox="0 0 640 512"><!--! Font Awesome Pro 6.4.0 by @fontawesome - https://fontawesome.com License - https://fontawesome.com/license (Commercial License) Copyright 2023 Fonticons, Inc. --><path d="M48 48H528V194.9c17 3.1 33.1 8.7 48 16.3V48 0H528 48 0V48 368v48H48 211.7l-8 48H152 128v48h24 72H352h42.8c-18.3-12.9-34.1-29.2-46.3-48H323.7 280 252.3l8-48H280h35.7 11c-4.3-15.3-6.6-31.4-6.6-48H48V48zm432 72V96H456 376 352v48h24 22.1L304 238.1l-63-63-17-17-17 17L103 279 137 313l87-87 63 63 17 17 17-17 111-111V200v4c15.1-5.9 31.2-9.8 48-11.3V120zM640 368a144 144 0 1 0 -288 0 144 144 0 1 0 288 0zM521.4 393.4a35.9 35.9 0 1 0 -50.7-50.7 35.9 35.9 0 1 0 50.7 50.7zm10 32.6c-21.6 13.2-49.1 13.2-70.7 0l-25.3 25.3-22.6-22.6L438 403.3c-13.2-21.6-13.2-49.1 0-70.7l-25.3-25.3 22.6-22.6L460.7 310c21.6-13.2 49.1-13.2 70.7 0l25.3-25.3 22.6 22.6L554 332.7c13.2 21.6 13.2 49.1 0 70.7l25.3 25.3-22.6 22.6L531.3 426z"/></svg>