<svg xmlns="http://www.w3.org/2000/svg" viewBox="0 0 512 512"><!--! Font Awesome Pro 6.4.0 by @fontawesome - https://fontawesome.com License - https://fontawesome.com/license (Commercial License) Copyright 2023 Fonticons, Inc. --><path d="M216 352H128l32 80-32 80h88l32-80-32-80zM160 136a24 24 0 1 0 0 48 24 24 0 1 0 0-48zM63.9 205.9l12.3 20.6 16.9-10.1-6.7-18.5-22.6 8.1zM39.5 220.6L27.2 200l12.3 20.6zM24 229.9L11.7 209.3 0 216.3v13.6H24zM24 296H0v24H24V296zm224.9 0l16.8-17.2-7-6.8h-9.8v24zM298 344l-16.8 17.2 7 6.8H298V344zm30 0v24h24V344H328zm0-48V272H304v24h24zm92.5-183.3l-21.1-11.4-8 14.8 11.2 12.6 17.9-16zM464 32l21.1 11.4L496 23.2 476.3 11.4 464 32zm-8-4.8L468.3 6.6l-8.9-5.3-10 2.8L456 27.2zM350.3 56.8l-11.6 21 8.6 4.7 9.4-2.6-6.5-23.1zM192 48h30.3V0H192V48zM80 160C80 98.1 130.1 48 192 48V0C103.6 0 32 71.6 32 160H80zm6.5 37.8C82.3 186 80 173.3 80 160H32c0 18.9 3.3 37.1 9.4 54l45.2-16.2zM51.9 241.1l24.4-14.6L51.6 185.3 27.2 200l24.7 41.2zm-15.5 9.3l15.5-9.3L27.2 200l-15.5 9.3 24.7 41.2zM48 248V229.9H0V248H48zm0 16V248H0v16H48zm0 32V264H0v32H48zm8-24H24v48H56V272zm136 0H56v48H192V272zm24 0H192v48h24V272zm32.9 0H216v48h32.9V272zm65.9 54.8l-49.1-48-33.6 34.3 49.1 48 33.6-34.3zM328 320H298v48h30V320zm-24-24v48h48V296H304zm40-24H328v48h16V272zm88 88c0-48.6-39.4-88-88-88v48c22.1 0 40 17.9 40 40h48zm0 8v-8H384v8h48zm-88 88c48.6 0 88-39.4 88-88H384c0 22.1-17.9 40-40 40v48zm1.7-48H344v48h1.7V408zM464 289.7C464 355 411 408 345.7 408v48C437.5 456 512 381.5 512 289.7H464zM402.6 128.7c38.2 42.8 61.4 99.1 61.4 160.9h48c0-74.1-27.8-141.7-73.6-192.9l-35.8 32zM442.9 20.6l-43.5 80.7 42.3 22.8 43.5-80.7L442.9 20.6zm.8 27.2l8 4.8 24.7-41.2-8-4.8L443.7 47.8zM356.8 79.9L462.5 50.3 449.5 4.1 343.8 33.7l12.9 46.2zM222.3 48c42.2 0 81.9 10.8 116.4 29.8l23.2-42C320.5 13 272.9 0 222.3 0V48zM344 408H216v48H344V408z"/></svg>