<svg xmlns="http://www.w3.org/2000/svg" viewBox="0 0 384 512"><!--! Font Awesome Pro 6.4.0 by @fontawesome - https://fontawesome.com License - https://fontawesome.com/license (Commercial License) Copyright 2023 Fonticons, Inc. --><path d="M248 267.9l-33.9-33.9L112 131.9 67.9 176 169.9 278.1 203.9 312l-33.9 33.9L131.9 384H320V195.9l-38.1 38.1L248 267.9zm38.1-105.9L320 128l33.9 33.9L368 176V384v48H320 112L97.9 417.9 64 384l33.9-33.9 4.1-4.1L136 312l-33.9-33.9L33.9 209.9 0 176l33.9-33.9L78.1 97.9 112 64l33.9 33.9 68.1 68.1L248 200l33.9-33.9 4.1-4.1z"/></svg>