<svg xmlns="http://www.w3.org/2000/svg" viewBox="0 0 640 512"><!--! Font Awesome Pro 6.4.0 by @fontawesome - https://fontawesome.com License - https://fontawesome.com/license (Commercial License) Copyright 2023 Fonticons, Inc. --><path d="M272 0h24H424h24 72 11l7.2 8.4 96 112 5.8 6.7V136v64 24H616 520h-9.9l-7-7-23-23V212l131.2 98.4 19.2 14.4L640 332v12 24 72 48 24H616 568 520 432 24 0V488 424 400H24 53.4l343-32.4-45.7-49.8-8.4-9.2-6.3-6.9v-9.3V280l0-8V248l0-92-49.7-22.1L272 127.6V112v-8V88.4l14.3-6.3 28-12.5L284.3 53 272 46.1V32 24 0zM424 48H374.2l5.4 3 42.1 23.4-44 19.5L346.1 108l23.7 10.5 14.3 6.3v15.6L384 248v24l0 8v3.1l2.1 2.3 78.3 85.4L497 406.4l-48.1 4.5-392.2 37-1.1 .1H54.5 48v16H432h88 48 24V440 368 356l-9.6-7.2L441.6 243.2 432 236V224 168 144h24 32 9.9l7 7 25 25H592V144.9L509 48H448 424zm94.7 39.7c-1.8 5.3-5.5 10.1-10.8 13.1c-11.5 6.6-26.2 2.7-32.8-8.8c-2.9-5-3.8-10.6-2.9-15.9l46.4 11.6zm1.3-8.1v.9c0-.3 0-.6 0-.9zM160 96l144 86.4V280v34.2l5.3 5.8H96l80-80L0 256 160 96z"/></svg>