<svg xmlns="http://www.w3.org/2000/svg" viewBox="0 0 448 512"><!--! Font Awesome Pro 6.4.0 by @fontawesome - https://fontawesome.com License - https://fontawesome.com/license (Commercial License) Copyright 2023 Fonticons, Inc. --><path d="M446.7 67.2l-17 17L327.6 186.3l67.7 67.7 11.3 11.3L429.3 288l-22.6 22.6-11.3 11.3L246.6 470.6l-9.4 9.4H224 48 32 0V448 432 256 242.7l9.4-9.4L158.1 84.7l11.3-11.3L192 50.7l22.6 22.6 11.3 11.3 67.7 67.7L395.8 50.2l17-17 33.9 33.9zM48 262.6V432H217.4l58.3-58.3L106.3 204.3 48 262.6zm92.3-92.3L309.7 339.7 361.4 288 192 118.6l-51.7 51.7z"/></svg>