<svg xmlns="http://www.w3.org/2000/svg" viewBox="0 0 640 512"><!--! Font Awesome Pro 6.4.0 by @fontawesome - https://fontawesome.com License - https://fontawesome.com/license (Commercial License) Copyright 2023 Fonticons, Inc. --><path d="M128 32h24 80 24V56 232H384V56 32h24 80 24V56v48h56 24v24V232h24 24v48H616 592V384v24H568 512v48 24H488 408 384V456 280H256V456v24H232 152 128V456 408H72 48V384 280H24 0V232H24 48V128 104H72h56V56 32zm48 72v24V384v24 24h32V80H176v24zm-48 48H96V360h32V152zM464 384V128 104 80H432V432h32V408 384zm80-24V152H512V360h32z"/></svg>