<svg xmlns="http://www.w3.org/2000/svg" viewBox="0 0 576 512"><!--! Font Awesome Pro 6.4.0 by @fontawesome - https://fontawesome.com License - https://fontawesome.com/license (Commercial License) Copyright 2023 Fonticons, Inc. --><path d="M32 32L0 160H114.9L140.5 32H32zM272 160V32H173.1L147.5 160H272zm32 0H428.5L402.9 32H304V160zm157.1 0H576L544 32H435.5l25.6 128zM86.4 240H489.6l-20 160H106.4l-20-160zM42 272L64 448v8 24h48V456v-8H464v8 24h48V456v-8l22-176h18 24V224H552 540l4-32H495.6 80.4 32l4 32H24 0v48H24 42z"/></svg>