<svg xmlns="http://www.w3.org/2000/svg" viewBox="0 0 640 512"><!--! Font Awesome Pro 6.4.0 by @fontawesome - https://fontawesome.com License - https://fontawesome.com/license (Commercial License) Copyright 2023 Fonticons, Inc. --><path d="M112 48H432V96h48V48 0H432 112 64V48 192h48V48zM48 272H336v3.6L192 378.5 48 275.6V272zm0 62.6l130.1 92.9 13.9 10 13.9-10 130-92.9V464H48V334.6zM0 224v48V464v48H48 336h48V464 272 224H336 48 0zm272-32V176H592V368H416v48H592h48V368 176 128H592 272 224v48 16h48zm288 16H496v64h64V208z"/></svg>