<svg xmlns="http://www.w3.org/2000/svg" viewBox="0 0 640 512"><!--! Font Awesome Pro 6.4.0 by @fontawesome - https://fontawesome.com License - https://fontawesome.com/license (Commercial License) Copyright 2023 Fonticons, Inc. --><path d="M208 48a48 48 0 1 1 96 0 48 48 0 1 1 -96 0zm206.9 64h9 24H552h64 24v24V264v24H616 552 481.1L249.9 490.2l-18.1 15.8-6.8 5.9h-9H192 88 24 0V488 360 336H24 88h70.9L390.1 133.8l18.1-15.8 6.8-5.9zm18 48l-11.3 9.9L183.8 378.1 177 384h-9H88 48v80H88 192h15l11.3-9.9L456.2 245.9 463 240h9 80 40V160H552 448 433zM320 128v24.5l-128 112V128H320z"/></svg>