<svg xmlns="http://www.w3.org/2000/svg" viewBox="0 0 640 512"><!--! Font Awesome Pro 6.4.0 by @fontawesome - https://fontawesome.com License - https://fontawesome.com/license (Commercial License) Copyright 2023 Fonticons, Inc. --><path d="M528 256c0-114.9-93.1-208-208-208s-208 93.1-208 208c0 33.5 7.9 65 21.9 93c16.7 33.4 12.5 72.2-.1 100.7c-2.1 4.7-4.6 9.5-7.6 14.4H319.9l.1 0h0 0l.1 0h164c-2.7-7.5-4.1-15.6-4.1-24c0-32.6 21.6-60.1 51.3-69c-10.9-20.5-14.2-44.9-9.1-66.1c3.8-15.6 5.8-32 5.8-48.9zm0 184c0 13.3 10.7 24 24 24l0 0h56v48l-56 0H320.1l-.1 0-.1 0H46.6 24L0 512V488 464H24l0 0H46.6c38.9 0 61.8-58.8 44.4-93.6C73.7 336 64 297.1 64 256C64 114.6 178.6 0 320 0S576 114.6 576 256c0 20.7-2.5 40.8-7.1 60.1c-6 24.8 11.1 51.8 36.5 51.9c0 0 0 0 0 0h0H616l24 0v23.9c0 0 0 .1 0 .1s0 .1 0 .1V416H616c0 0 0 0 0 0H605.5h0L552 416c-13.3 0-24 10.7-24 24zM263.8 158.1a32 32 0 1 1 -16.6 61.8 32 32 0 1 1 16.6-61.8zm115.4 64A32 32 0 1 1 441 238.7a32 32 0 1 1 -61.8-16.6zM177.3 300.8l43.2-21c11.3 23.2 33.6 50.1 72.7 60.6s71.9-1.7 93.2-16.1l26.9 39.8c-29.5 19.9-76.5 37.8-132.5 22.8s-87.9-54-103.4-86z"/></svg>