<svg xmlns="http://www.w3.org/2000/svg" viewBox="0 0 640 512"><!--! Font Awesome Pro 6.4.0 by @fontawesome - https://fontawesome.com License - https://fontawesome.com/license (Commercial License) Copyright 2023 Fonticons, Inc. --><path d="M128 0c23.7 0 44.4 12.9 55.4 32H224c35.3 0 64 28.7 64 64v64H224 0V96C0 60.7 28.7 32 64 32h8.6C83.6 12.9 104.3 0 128 0zm84.7 192H224h44.1c2.7 4.7 4.3 10.2 4.3 16c0 17.7-14.3 32-32 32s-32-14.3-32-32c0-5.8 1.6-11.3 4.3-16zM307.4 48.4C296.8 29.8 280.1 15.2 260.1 7c19.2-4.6 39.2-7 59.9-7C461.4 0 576 114.6 576 256c0 14.8-1.3 29.3-3.7 43.5c-12.5-10.8-28.3-17.8-45.7-19.2c.9-8 1.4-16.1 1.4-24.3c0-114.9-93.1-208-208-208c-4.2 0-8.4 .1-12.6 .4zM72.1 192h50c-6.5 20.2-10 41.7-10 64c0 81 46.3 151.2 114 185.6c-1.3 7.3-2 14.8-2 22.4v29.4c-93.8-38-160-130-160-237.4c0-22.1 2.8-43.5 8.1-64zM640 512H320 256v-8.1V480 464c0-3.3 .2-6.6 .5-9.9c4.4-43.1 37.3-77.7 79.5-84.8c0-.4 0-.9 0-1.3c0-44.2 35.8-80 80-80c29.3 0 54.9 15.8 68.9 39.3c8.8-9.4 21.3-15.3 35.1-15.3c26.5 0 48 21.5 48 48v11c41.4 10.7 72 48.2 72 93v48zM400.4 176a32 32 0 1 1 0 64 32 32 0 1 1 0-64z"/></svg>