<svg xmlns="http://www.w3.org/2000/svg" viewBox="0 0 512 512"><!--! Font Awesome Pro 6.4.0 by @fontawesome - https://fontawesome.com License - https://fontawesome.com/license (Commercial License) Copyright 2023 Fonticons, Inc. --><path d="M48 256C48 141.1 141.1 48 256 48c30.7 0 59.9 6.7 86.1 18.6l19.9-43.7C329.6 8.2 293.7 0 256 0C114.6 0 0 114.6 0 256S114.6 512 256 512s256-114.6 256-256c0-37.7-8.2-73.6-22.9-105.9l-43.7 19.9C457.3 196.1 464 225.3 464 256c0 114.9-93.1 208-208 208S48 370.9 48 256zM256 424a40 40 0 1 0 0-80 40 40 0 1 0 0 80zM391.5 237.7c-20 27.1-59.8 27.1-79.8 0l-32.2 23.8c36 48.7 108.2 48.7 144.2 0l-32.2-23.8zm-271.8 0L87.5 261.5c36 48.7 108.2 48.7 144.2 0l-32.2-23.8c-20 27.1-59.8 27.1-79.8 0zM288 96v32h16 26.7l-36.3 27.2L288 160v8 8 16h16 64 16V160H368 341.3l36.3-27.2L384 128v-8-8V96H368 304 288zM432 0H416V32h16 26.7L422.4 59.2 416 64v8 8V96h16 64 16V64H496 469.3l36.3-27.2L512 32V24 16 0H496 432z"/></svg>