<svg xmlns="http://www.w3.org/2000/svg" viewBox="0 0 512 512"><!--! Font Awesome Pro 6.4.0 by @fontawesome - https://fontawesome.com License - https://fontawesome.com/license (Commercial License) Copyright 2023 Fonticons, Inc. --><path d="M256 464C141.1 464 48 370.9 48 256c0-22.3 3.5-43.8 10-64h6v96 16H80 224h16V288 192h32v96 16h16H432h16V288 192h6c6.5 20.2 10 41.7 10 64c0 114.9-93.1 208-208 208zM256 0C148.6 0 56.6 66.2 18.6 160H16 0v32H8.1C2.8 212.5 0 233.9 0 256C0 397.4 114.6 512 256 512s256-114.6 256-256c0-22.1-2.8-43.5-8.1-64H512V160H496h-2.6C455.4 66.2 363.4 0 256 0zM240 160V144H224 80.7c37-57.7 101.7-96 175.3-96s138.3 38.3 175.3 96H288 272v16H240zm16 256c61.9 0 112-36.8 132-66.7L348 322.7C336 340.8 300.1 368 256 368s-80-27.2-92-45.3L124 349.3c19.9 29.9 70 66.7 132 66.7zm48-144V176H416v96H304zM96 176H208v96H96V176zm96.4 48a32 32 0 1 0 -64 0 32 32 0 1 0 64 0zm160 32a32 32 0 1 0 0-64 32 32 0 1 0 0 64z"/></svg>