<svg xmlns="http://www.w3.org/2000/svg" viewBox="0 0 512 512"><!--! Font Awesome Pro 6.4.0 by @fontawesome - https://fontawesome.com License - https://fontawesome.com/license (Commercial License) Copyright 2023 Fonticons, Inc. --><path d="M64 64a64 64 0 1 1 128 0A64 64 0 1 1 64 64zM78 208l-4 96h38 32v48H112V488v24H64V488 352H24l2-48 6-144H177.6c-1 5.2-1.6 10.5-1.6 16c0 11.4 2.4 22.2 6.7 32H178 128 78zm258-32c0-5.5-.6-10.8-1.6-16H480l6 144 2 48H448V488v24H400V488 352H368V304h32 38l-4-96H384 334h-4.7c4.3-9.8 6.7-20.6 6.7-32zM320 64a64 64 0 1 1 128 0A64 64 0 1 1 320 64zm-64 64a48 48 0 1 1 0 96 48 48 0 1 1 0-96zM224 368h64V304H224v64zm112 48H304v96H208V416H176V368 304 256h48 64 48v48 64 48z"/></svg>