<svg xmlns="http://www.w3.org/2000/svg" viewBox="0 0 576 512"><!--! Font Awesome Pro 6.4.0 by @fontawesome - https://fontawesome.com License - https://fontawesome.com/license (Commercial License) Copyright 2023 Fonticons, Inc. --><path d="M48 464h80v24 24H48 0V464 112C0 50.1 50.1 0 112 0c54.6 0 100.1 39.1 110 90.8l-4.4 1.9-19.4 8.5-8.9 19.2-26 55.7H48V464zM176 128V112c0-35.3-28.7-64-64-64s-64 28.7-64 64v16H176zm32 336h96V368H432v96h96V273.5L483.1 164.6 368 116.1 252.9 164.6 208 273.5V464zm-48 0V264l56-136L368 64l152 64 56 136V464v48H528 208 160V464zM416 224v96H320V224h96z"/></svg>