<svg xmlns="http://www.w3.org/2000/svg" viewBox="0 0 384 512"><!--! Font Awesome Pro 6.4.0 by @fontawesome - https://fontawesome.com License - https://fontawesome.com/license (Commercial License) Copyright 2023 Fonticons, Inc. --><path d="M48 48H224V160H336V464H48V48zM256 0H48 0V48 464v48H48 336h48V464 128L256 0zM93.7 305.1c0 14.3 5.9 28 16.4 37.8l70.9 66.4L192 419.5l10.9-10.2 70.9-66.4c10.5-9.8 16.4-23.5 16.4-37.8c0-28.6-23.2-51.8-51.8-51.8H235c-14 0-27.5 5.3-37.8 14.9l-5.2 4.8-5.2-4.8c-10.3-9.6-23.8-14.9-37.8-14.9h-3.5c-28.6 0-51.8 23.2-51.8 51.8z"/></svg>