<svg xmlns="http://www.w3.org/2000/svg" viewBox="0 0 384 512"><!--! Font Awesome Pro 6.4.0 by @fontawesome - https://fontawesome.com License - https://fontawesome.com/license (Commercial License) Copyright 2023 Fonticons, Inc. --><path d="M48 464V48H224V160H336V464H48zM256 0H48 0V48 464v48H48 336h48V464 128L256 0zM114.7 224H65.3l47.5 189.8 4.5 18.2H136h8 18.4l4.8-17.7 24.8-92 24.8 92 4.8 17.7H240h8 18.7l4.5-18.2L318.7 224H269.3l-26 104L220 241.7 215.2 224H196.8h-9.6H168.8L164 241.7 140.7 328l-26-104z"/></svg>