<svg xmlns="http://www.w3.org/2000/svg" viewBox="0 0 576 512"><!--! Font Awesome Pro 6.4.0 by @fontawesome - https://fontawesome.com License - https://fontawesome.com/license (Commercial License) Copyright 2023 Fonticons, Inc. --><path d="M48 464H284.5c12.3 18.8 28 35.1 46.3 48H48 0V464 48 0H48 256L384 128v70.6c-17.2 4.9-33.4 12.3-48 21.8V160H224V48H48V464zm240-96a144 144 0 1 1 288 0 144 144 0 1 1 -288 0zm222.6-32L488 313.4l-11.3 11.3L416 385.4l-28.7-28.7L376 345.4 353.4 368l11.3 11.3 40 40L416 430.6l11.3-11.3 72-72L510.6 336z"/></svg>