<svg xmlns="http://www.w3.org/2000/svg" viewBox="0 0 384 512"><!--! Font Awesome Pro 6.4.0 by @fontawesome - https://fontawesome.com License - https://fontawesome.com/license (Commercial License) Copyright 2023 Fonticons, Inc. --><path d="M48 48H224V160H336V464H48V48zM256 0H48 0V48 464v48H48 336h48V464 128L256 0zM176 256v48H112V256h64zm-64 80h64v48H112V336zm96 0h64v48H208V336zm-16 80h16 64 32V384 336 320 304 256 224H272 208 192 176 112 80v32 48 16 16 48 32h32 64 16zm16-112V256h64v48H208z"/></svg>