<svg xmlns="http://www.w3.org/2000/svg" viewBox="0 0 640 512"><!--! Font Awesome Pro 6.4.0 by @fontawesome - https://fontawesome.com License - https://fontawesome.com/license (Commercial License) Copyright 2023 Fonticons, Inc. --><path d="M384 272V254.9l-10.9-13.3L240.9 80H591.1L458.9 241.6 448 254.9V272 380.1l-64-51.2V272zM192 32V80 96L336 272v80l112 89.6L496 480V418.5 272L640 96V80 32H592 240 192zM304 283.4l-9.5-11.6-27.6 33.8L256 318.9V336v76.1l-64-51.2V336 318.9l-10.8-13.3L48.9 144h141l-22.7-27.7-7.2-8.8V96H48 0v48 16L144 336v48l112 89.6L304 512V450.5 367.4 352 336 283.4z"/></svg>