<svg xmlns="http://www.w3.org/2000/svg" viewBox="0 0 640 512"><!--! Font Awesome Pro 6.4.0 by @fontawesome - https://fontawesome.com License - https://fontawesome.com/license (Commercial License) Copyright 2023 Fonticons, Inc. --><path d="M353 64.1c17.2-19.5 31-32 31-32s96 86.4 96 160c0 88.4-71.6 160-160 160s-160-71.6-160-160s128-192 128-192s32.6 26.4 65 64zM370 273c30-21 38-63 20-96c-2-4-4-8-7-12l-36 42s-58-74-62-79c-30 37-45 58-45 82c0 49 36 78 81 78c18 0 34-5 49-15zM32 256H56h48 24v48H104 80v80H560V304H536 512V256h24 48 24v24V384h32v48 32 48H592 48 0V464 432 384H32V280 256zM352 448c0 5.8-1.6 11.3-4.3 16h72.6c-2.7-4.7-4.3-10.2-4.3-16s1.6-11.3 4.3-16H347.7c2.7 4.7 4.3 10.2 4.3 16zm128 0c0 5.8-1.6 11.3-4.3 16H592V432H475.7c2.7 4.7 4.3 10.2 4.3 16zM164.3 432H48v32H164.3c-2.7-4.7-4.3-10.2-4.3-16s1.6-11.3 4.3-16zm55.4 0c2.7 4.7 4.3 10.2 4.3 16s-1.6 11.3-4.3 16h72.6c-2.7-4.7-4.3-10.2-4.3-16s1.6-11.3 4.3-16H219.7z"/></svg>