<svg xmlns="http://www.w3.org/2000/svg" viewBox="0 0 512 512"><!--! Font Awesome Pro 6.4.0 by @fontawesome - https://fontawesome.com License - https://fontawesome.com/license (Commercial License) Copyright 2023 Fonticons, Inc. --><path d="M200 0V24 56h88V32L512 0V160L288 128V104H200v26.6c50.3 11 88 55.8 88 109.4V464v48H240 112 64V464 240c0-53.6 37.7-98.4 88-109.4V104.9c-46.9 5.5-86.5 34.8-106.3 75.6l-43.1-21C30.1 102.8 86.1 62.4 152 56.7V24 0h48zM112 464H240V416H112v48zm0-224V368H240V240c0-35.3-28.7-64-64-64s-64 28.7-64 64z"/></svg>