<svg xmlns="http://www.w3.org/2000/svg" viewBox="0 0 448 512"><!--! Font Awesome Pro 6.4.0 by @fontawesome - https://fontawesome.com License - https://fontawesome.com/license (Commercial License) Copyright 2023 Fonticons, Inc. --><path d="M48 0V24 52l85-21.2c38.1-9.5 78.3-5.1 113.5 12.5c46.3 23.2 100.8 23.2 147.1 0L400 40l48-24V69.7 368l-55.5 20.8c-46.2 17.3-97.6 14.6-141.7-7.4c-37.9-19-81.3-23.7-122.5-13.4L48 388V488v24H0V488 400 350.5 64 24 0H48zm0 150.7l80-17.4V81.5l-80 20v49.3zm0 49.1v46.9l80-17.4V182.5L48 199.9zm0 96v42.7l68.6-17.2c3.8-.9 7.6-1.8 11.4-2.5V278.5L48 295.9zm128 18.8c33.1 .7 65.9 8.7 96 23.7V288.5l-55.4-16.3c-13.2-3.9-27-5.1-40.6-3.6v46zm144 37c18.7 1.5 37.7-1.1 55.6-7.8l24.4-9.1V288L374.3 294c-17.9 4.1-36.1 5.5-54.3 4.3v53.5zm80-113V192L374.3 198c-17.9 4.1-36.1 5.5-54.3 4.3v47.8c14.5 1.4 29.2 .4 43.5-2.9l36.5-8.4zm0-96V92.9c-25.6 10.4-52.8 15.6-80 15.6v45.5c14.5 1.4 29.2 .4 43.5-2.9l36.5-8.4zM272 103.1c-16.1-3.7-31.9-9.4-47-16.9c-15.3-7.7-32.1-11.8-49-12.3v50.6c18.2-1.3 36.5 .6 54.1 5.8L272 142.5V103.1zm0 89.5l-55.4-16.3c-13.2-3.9-27-5.1-40.6-3.6v47.8c18.2-1.3 36.5 .6 54.1 5.8L272 238.5v-46z"/></svg>