<svg xmlns="http://www.w3.org/2000/svg" viewBox="0 0 640 512"><!--! Font Awesome Pro 6.4.0 by @fontawesome - https://fontawesome.com License - https://fontawesome.com/license (Commercial License) Copyright 2023 Fonticons, Inc. --><path d="M224 0h32V48H224V309.9l-59.3 96.3-4.7 7.7v9.1 19.6c-10 3.5-20.8 5.5-32 5.5c-53 0-96-43-96-96V48H0V0H32 80h96 48zM192 422.9l29-47.2c-.4 1.4-.7 2.8-1.2 4.1L320 217.2V48h-8H288V0h24H520h24V48H520h-8V217.2L636.4 419.4l3.6 5.8V432v56 24H616 216 192V488 432v-6.8l2.4-3.8c-.8 .7-1.6 1.5-2.4 2.2v-.6zM80 48V160h96V48H80zm0 160V352c0 26.5 21.5 48 48 48s48-21.5 48-48V208H80zM464 48H368V224v6.8l-3.6 5.8L313.1 320H518.9l-51.3-83.4-3.6-5.8V224 48zM240 438.8V464H592V438.8L548.4 368H283.6L240 438.8z"/></svg>