<svg xmlns="http://www.w3.org/2000/svg" viewBox="0 0 640 512"><!--! Font Awesome Pro 6.4.0 by @fontawesome - https://fontawesome.com License - https://fontawesome.com/license (Commercial License) Copyright 2023 Fonticons, Inc. --><path d="M272 228.5V214.9 48H176V214.9v13.6l-7.1 11.6L100 352H325.5l-35.6 20.5L360 493.8V512H48 0V464 422.9l128-208V48h-8H96V0h24 8 48 96 48 8 24V48H328h-8V214.9l19 30.9-27.3 47.3-32.6-53L272 228.5zm164-22.1h88.1v42.4c7.9 3.4 15.4 7.7 22.3 12.8l35-20.2 45 77.8-35.2 20.3c.4 4 .7 8.1 .7 12.3s-.2 8.2-.7 12.3l35.2 20.3-45 77.8-35.1-20.2c-6.9 5.1-14.3 9.4-22.3 12.8V497H436V454.8c-8-3.4-15.6-7.7-22.5-12.9l-34.9 20.1-45-77.8 34.9-20.1c-.4-4.1-.7-8.2-.7-12.4s.2-8.3 .7-12.4l-34.9-20.2 44.9-77.8 34.9 20.2c6.9-5.1 14.5-9.4 22.5-12.9V206.4zm92.1 145.3a48.1 48.1 0 1 0 -96.1 0 48.1 48.1 0 1 0 96.1 0z"/></svg>