<svg xmlns="http://www.w3.org/2000/svg" viewBox="0 0 448 512"><!--! Font Awesome Pro 6.4.0 by @fontawesome - https://fontawesome.com License - https://fontawesome.com/license (Commercial License) Copyright 2023 Fonticons, Inc. --><path d="M176 196.5V167.4 48h96V167.4v29.1L297.8 210c51.3 26.7 86.2 80.3 86.2 141.9c-64.4-.9-94.8-12.3-122.5-22.7c-23.8-9-45.7-17.2-85.5-17.2c-55.8 0-92.3 16.1-111.5 27.9C68.7 283.4 102.3 235 150.2 210L176 196.5zm144-29.1V48h8 24V0H328h-8H272 176 128h-8H96V48h24 8V167.4C61.4 202.1 16 271.8 16 352c0 64.3 29.2 121.8 75.1 160H356.9c45.9-38.2 75.1-95.7 75.1-160c0-80.2-45.4-149.9-112-184.6z"/></svg>