<svg xmlns="http://www.w3.org/2000/svg" viewBox="0 0 576 512"><!--! Font Awesome Pro 6.4.0 by @fontawesome - https://fontawesome.com License - https://fontawesome.com/license (Commercial License) Copyright 2023 Fonticons, Inc. --><path d="M0 480H48 258l6.9-48H48V80H80V184v24h24H296h24V184 83.9l80 80V284.4l48-48V144L336 32H48 0V80 432v48zM128 160V80H272v80H128zm96 224a64 64 0 1 0 0-128 64 64 0 1 0 0 128zM505 224l-41.3 41.3 71 71L576 294.9l-71-71zm-63.9 63.9L299.9 429.1 288 512l82.9-11.9L512.1 358.9l-71-71z"/></svg>