<svg xmlns="http://www.w3.org/2000/svg" viewBox="0 0 512 512"><!--! Font Awesome Pro 6.4.0 by @fontawesome - https://fontawesome.com License - https://fontawesome.com/license (Commercial License) Copyright 2023 Fonticons, Inc. --><path d="M282.5 110L256 76.8 229.5 110 202 144.3l-36.6-24.4L144 105.7V160c0 44.2 35.8 80 80 80h8 48 8c44.2 0 80-35.8 80-80V105.7l-21.4 14.2L310 144.3 282.5 110zM232 288h-8c-70.7 0-128-57.3-128-128V73.7 16l48 32 48 32 33.3-41.6L256 0l30.7 38.4L320 80l48-32 48-32V73.7 160c0 70.7-57.3 128-128 128h-8v85.4c41-52 104.6-85.4 176-85.4h8 48c0 16.5-1.8 32.5-5.2 48C484.9 436.6 395.2 512 288 512h-8H232h-8C116.8 512 27.1 436.6 5.2 336C1.8 320.5 0 304.5 0 288H48h8c71.4 0 135 33.4 176 85.4V288zM56 336H54.6C75.5 409.9 143.4 464 224 464h1.4C204.5 390.1 136.6 336 56 336zm400 0c-80.6 0-148.5 54.1-169.4 128H288c80.6 0 148.5-54.1 169.4-128H456z"/></svg>