<svg xmlns="http://www.w3.org/2000/svg" viewBox="0 0 576 512"><!--! Font Awesome Pro 6.4.0 by @fontawesome - https://fontawesome.com License - https://fontawesome.com/license (Commercial License) Copyright 2023 Fonticons, Inc. --><path d="M48 24V0H0V24 136 424v24H24 256V400H48V160H256V112H48V24zM412.1 80H432h96v96H336V48h44.1l17.9 17.9L412.1 80zM528 32H432L400 0H336 288V48 176v48h48H528h48V176 80 32H528zM412.1 368H432h96v96H336V336h44.1l17.9 17.9L412.1 368zM528 320H432l-32-32H336 288v48V464v48h48H528h48V464 368 320H528z"/></svg>