<svg xmlns="http://www.w3.org/2000/svg" viewBox="0 0 512 512"><!--! Font Awesome Pro 6.4.0 by @fontawesome - https://fontawesome.com License - https://fontawesome.com/license (Commercial License) Copyright 2023 Fonticons, Inc. --><path d="M224 32l48 64H464h48v48V432v48H464 48 0V432 80 32H48 224zm48 112H248l-14.4-19.2L200 80H48V432H464V144H272zM144 251.2c0-32.7 26.5-59.2 59.2-59.2h2.4c15.9 0 31.2 6.2 42.7 17.2l7.7 7.4 7.7-7.4c11.5-11 26.8-17.2 42.7-17.2h2.4c32.7 0 59.2 26.5 59.2 59.2c0 16.1-6.6 31.5-18.2 42.7l-82.8 79.6L256 384.1l-11.1-10.7-82.8-79.6c-11.6-11.2-18.2-26.6-18.2-42.7z"/></svg>