<svg xmlns="http://www.w3.org/2000/svg" viewBox="0 0 512 512"><!--! Font Awesome Pro 6.4.0 by @fontawesome - https://fontawesome.com License - https://fontawesome.com/license (Commercial License) Copyright 2023 Fonticons, Inc. --><path d="M379.6 163.5l-19 28.5H322.1l30.8-46.2-13.3-8.9L430.9 0l53.3 35.5L392.9 172.4l-13.3-8.9zM264.5 192h-33l9.2-36.8-15.5-3.9L263 0l62.1 15.5L287.3 166.8l-15.5-3.9L264.5 192zM192 272v48H144V272H128v80H80V272H48v48c0 61.9 50.1 112 112 112H288c61.9 0 112-50.1 112-112V272h-8H192zm256 0v48c0 52.3-25.1 98.8-64 128v40 24H336V488 472.7c-15.2 4.8-31.3 7.3-48 7.3H160c-16.7 0-32.8-2.6-48-7.3V488v24H64V488 448C25.1 418.8 0 372.3 0 320V272 224H48 392h8 16 32 40 24v48H488 448z"/></svg>