<svg xmlns="http://www.w3.org/2000/svg" viewBox="0 0 448 512"><!--! Font Awesome Pro 6.4.0 by @fontawesome - https://fontawesome.com License - https://fontawesome.com/license (Commercial License) Copyright 2023 Fonticons, Inc. --><path d="M56 32V56 73.8c10.6-2.4 19.7-5.6 30.2-9.4c4.2-1.5 8.7-3.1 13.6-4.8C117.9 53.5 138.6 48 166.4 48c34.2 0 58.1 8.5 79 15.8l.6 .2c20.5 7.2 37.9 13.3 63.6 13.3c25.8 0 39.5-4.7 81-19.2c7.6-2.6 16.1-5.6 25.7-8.9L448 38.4V72 360v17.2l-16.2 5.5c-8.9 3-17 5.9-24.4 8.5c-41.4 14.5-63.4 22.2-97.8 22.2c-34.2 0-58.2-8.5-79.1-15.9l-.5-.2C209.4 390 192 384 166.4 384c-12.8 0-23.4 1.5-32.9 3.7L112 392.8V343.5l10.5-2.5c12.9-3 27.1-5 43.9-5c34.2 0 58.1 8.5 79 15.8l.6 .2c20.5 7.2 37.9 13.3 63.6 13.3c25.8 0 39.5-4.8 81-19.2l9.5-3.3V105.7c-36.8 12.8-58.1 19.6-90.5 19.6c-34.2 0-58.2-8.5-79.1-15.9l-.5-.2C209.4 102 192 96 166.4 96c-20.8 0-36 3.9-51.2 9.1c-3.3 1.1-6.8 2.4-10.4 3.7l0 0 0 0 0 0c-12.7 4.6-27.5 9.9-44.2 13.1l-4.5 .9V456v24H8V456 56 32H56z"/></svg>