<svg xmlns="http://www.w3.org/2000/svg" viewBox="0 0 640 512"><!--! Font Awesome Pro 6.4.0 by @fontawesome - https://fontawesome.com License - https://fontawesome.com/license (Commercial License) Copyright 2023 Fonticons, Inc. --><path d="M153.4 48L159 32h34l5.6 16 152 432H299.8L260.4 368H91.6L52.2 480H1.3L153.4 48zM108.5 320h135L176 128.3 108.5 320zM640 184V456v24H592V456v-8.8c-22.1 20.4-51.6 32.8-84 32.8c-68.5 0-124-55.5-124-124V284c0-68.5 55.5-124 124-124c32.4 0 61.9 12.4 84 32.8V184 160h48v24zM508 208c-42 0-76 34-76 76v72c0 42 34 76 76 76s76-34 76-76V284c0-42-34-76-76-76z"/></svg>