<svg xmlns="http://www.w3.org/2000/svg" viewBox="0 0 640 512"><!--! Font Awesome Pro 6.4.0 by @fontawesome - https://fontawesome.com License - https://fontawesome.com/license (Commercial License) Copyright 2023 Fonticons, Inc. --><path d="M72 0H96 200h24V48H200 120V192h48 24v48H168 120V456v24H96 24 0V432H24 72V240H24 0V192H24 72V24 0zM272 320c0 57.5 16.4 110.9 44.3 155.2l-40.6 25.6C243 448.9 224 386.7 224 320s19-128.9 51.7-180.8l40.6 25.6C288.4 209.1 272 262.5 272 320zm320 0c0-57.5-16.4-110.9-44.3-155.2l40.6-25.6C621 191.1 640 253.3 640 320s-19 128.9-51.7 180.8l-40.6-25.6C575.6 430.9 592 377.5 592 320zM393 247l39 39 39-39 17-17L521.9 264l-17 17-39 39 39 39 17 17L488 409.9l-17-17-39-39-39 39-17 17L342.1 376l17-17 39-39-39-39-17-17L376 230.1l17 17z"/></svg>