<svg xmlns="http://www.w3.org/2000/svg" viewBox="0 0 640 512"><!--! Font Awesome Pro 6.4.0 by @fontawesome - https://fontawesome.com License - https://fontawesome.com/license (Commercial License) Copyright 2023 Fonticons, Inc. --><path d="M80 80V432H432V80H80zM32 32H80 432h48V80 272h32V200 168 144h24 48 24v24 32 24H584 560v72 24H536 480V432v48H432 80 32V432 80 32zm352 96V256H128V128H384zM192 288v16 16h16 16v32H208 192v16 16H160V368 352H144 128V320h16 16V304 288h32zm104 16a24 24 0 1 1 0 48 24 24 0 1 1 0-48zm40 24a24 24 0 1 1 48 0 24 24 0 1 1 -48 0z"/></svg>