<svg xmlns="http://www.w3.org/2000/svg" viewBox="0 0 640 512"><!--! Font Awesome Pro 6.4.0 by @fontawesome - https://fontawesome.com License - https://fontawesome.com/license (Commercial License) Copyright 2023 Fonticons, Inc. --><path d="M591.7 480H440l-16-96H216l-16 96H48.3 0l5.4-48L42.8 96 160 32H320 480L597.2 96l37.5 336 5.4 48H591.7zm-423-103.9l6.7-40.1H216 424h40.7l6.7 40.1 9.3 55.9H586.4L552.3 126.2 467.7 80H320 172.3L87.7 126.2 53.6 432H159.3l9.3-55.9zM232 168v32h32 24v48H264 232v32 24H184V280 248H152 128V200h24 32V168 144h48v24zm168 72a32 32 0 1 1 0 64 32 32 0 1 1 0-64zm32-64a32 32 0 1 1 64 0 32 32 0 1 1 -64 0z"/></svg>