<svg xmlns="http://www.w3.org/2000/svg" viewBox="0 0 640 512"><!--! Font Awesome Pro 6.4.0 by @fontawesome - https://fontawesome.com License - https://fontawesome.com/license (Commercial License) Copyright 2023 Fonticons, Inc. --><path d="M320 6.1l9 3.7 296 120 15 6.1V152 488v24H592V488 168.2L320 57.9 48 168.2V488v24H0V488 152 135.8l15-6.1L311 9.8l9-3.7zM96 192h24H520h24v24V488v24H496V488 320H144V488v24H96V488 216 192zm48 80H496V240H144v32zm64 80H432h24v24V488v24H408V488v-8H232v8 24H184V488 376 352h24zm200 80V400H232v32H408z"/></svg>