<svg xmlns="http://www.w3.org/2000/svg" viewBox="0 0 512 512"><!--! Font Awesome Pro 6.4.0 by @fontawesome - https://fontawesome.com License - https://fontawesome.com/license (Commercial License) Copyright 2023 Fonticons, Inc. --><path d="M272 48V192H80V48H272zm0 192V464H80l0-224H272zM32 48V464L0 464v48H32 80 272h48 32V464l-32 0V304h8c22.1 0 40 17.9 40 40v32c0 39.8 32.2 72 72 72s72-32.2 72-72V136v-9.9l-7-7L417 31l-17-17L366.1 48l17 17 33 33V160c0 29.8 20.4 54.9 48 62V376c0 13.3-10.7 24-24 24s-24-10.7-24-24V344c0-48.6-39.4-88-88-88h-8V48 0H272 80 32V48z"/></svg>