<svg xmlns="http://www.w3.org/2000/svg" viewBox="0 0 576 512"><!--! Font Awesome Pro 6.4.0 by @fontawesome - https://fontawesome.com License - https://fontawesome.com/license (Commercial License) Copyright 2023 Fonticons, Inc. --><path d="M528 80V432H48V80H528zM48 32H0V80 432v48H48 528h48V432 80 32H528 48zM324 156H284v20V336v20h40V336 176 156zm24 0v20 80 80 20h40V336 276h60 20V236H448 388V196h76 20V156H464 368 348zM132 256c0-33.1 26.9-60 60-60c13.5 0 26 4.5 36 12l24-32c-16.7-12.6-37.5-20-60-20c-55.2 0-100 44.8-100 100s44.8 100 100 100c22.5 0 43.3-7.4 60-20l8-6V320 264 244H240 184 164v40h20 36v25.1c-8.4 4.4-17.9 6.9-28 6.9c-33.1 0-60-26.9-60-60z"/></svg>