<svg xmlns="http://www.w3.org/2000/svg" viewBox="0 0 576 512"><!--! Font Awesome Pro 6.4.0 by @fontawesome - https://fontawesome.com License - https://fontawesome.com/license (Commercial License) Copyright 2023 Fonticons, Inc. --><path d="M353.5 68.8L318.7 128H320h72c22.1 0 40-17.9 40-40s-17.9-40-40-40h-2.2c-14.9 0-28.8 7.9-36.3 20.8zM288 197.5l-61.6 73.9-15.4 18.4-36.9-30.7 15.4-18.4L243.4 176H184 48V320H528V176H392 332.6l53.9 64.6 15.4 18.4-36.9 30.7-15.4-18.4L288 197.5zM48 384v80H528V384H48zM256 128h1.3L222.5 68.8C214.9 55.9 201.1 48 186.2 48H184c-22.1 0-40 17.9-40 40s17.9 40 40 40h72zm7.9-83.6l24.1 41 24.1-41C328.3 16.9 357.9 0 389.8 0H392c48.6 0 88 39.4 88 88c0 14.4-3.5 28-9.6 40H528h48v48V464v48H528 48 0V464 176 128H48h57.6C99.5 116 96 102.4 96 88c0-48.6 39.4-88 88-88h2.2c31.9 0 61.5 16.9 77.7 44.4z"/></svg>