<svg xmlns="http://www.w3.org/2000/svg" viewBox="0 0 512 512"><!--! Font Awesome Pro 6.4.0 by @fontawesome - https://fontawesome.com License - https://fontawesome.com/license (Commercial License) Copyright 2023 Fonticons, Inc. --><path d="M372.5 239.9c50.9-2.4 91.5-44.4 91.5-95.9c0-53-43-96-96-96c-35.5 0-66.6 19.3-83.2 48H232.2C252 40.1 305.3 0 368 0c79.5 0 144 64.5 144 144s-64.5 144-144 144l-.5 0 5-48.1zM61.6 256H290.4l8.3-80H53.3l8.3 80zm5 48L83.3 464H268.7l16.7-160H66.6zM312 512H40L5 176 0 128H48.3 303.7 352l-5 48L312 512z"/></svg>