<svg xmlns="http://www.w3.org/2000/svg" viewBox="0 0 576 512"><!--! Font Awesome Pro 6.4.0 by @fontawesome - https://fontawesome.com License - https://fontawesome.com/license (Commercial License) Copyright 2023 Fonticons, Inc. --><path d="M0 32H24 128h96 96H424h24V56 157.9l-48 73.7V80H344V232h55.8l-56.1 86.1c-15.4 23.7-23.7 51.4-23.7 79.7V400c0 29.6 8.9 57.1 24.2 80H320 224 128 24 0V456 256 56 32zM48 80V232h56V80H48zm0 352h56V280H48V432zm152 0V280H152V432h48zm96 0V280H248V432h48zM248 80V232h48V80H248zM200 232V80H152V232h48zm264-40l93.5 143.6c12.1 18.5 18.5 40.2 18.5 62.3V400c0 61.9-50.1 112-112 112s-112-50.1-112-112v-2.1c0-22.1 6.4-43.7 18.5-62.3L464 192z"/></svg>