<svg xmlns="http://www.w3.org/2000/svg" viewBox="0 0 640 512"><!--! Font Awesome Pro 6.4.0 by @fontawesome - https://fontawesome.com License - https://fontawesome.com/license (Commercial License) Copyright 2023 Fonticons, Inc. --><path d="M48 88V64H0V88 248 424v24H48V424 272H272V424v24h48V424 248 88 64H272V88 224H48V88zm442.7 24h9.2c42.1 0 76.2 34.1 76.2 76.2c0 21.3-8.9 41.5-24.5 56L375.7 406.4l-7.7 7.1V448h24H616h24V400H616 453.4L584.1 279.4c25.5-23.5 39.9-56.6 39.9-91.2C624 119.6 568.4 64 499.8 64h-9.2c-28.1 0-55.3 10.1-76.6 28.3l-29.7 25.4-18.2 15.6 31.2 36.4 18.2-15.6 29.7-25.4C457.9 118 474 112 490.7 112z"/></svg>