<svg xmlns="http://www.w3.org/2000/svg" viewBox="0 0 640 512"><!--! Font Awesome Pro 6.4.0 by @fontawesome - https://fontawesome.com License - https://fontawesome.com/license (Commercial License) Copyright 2023 Fonticons, Inc. --><path d="M48 88V64H0V88 248 424v24H48V424 272H272V424v24h48V424 248 88 64H272V88 224H48V88zM600 64H400 376v48h24H542.1L423 231l-7 7V272h24 88c35.3 0 64 28.7 64 64s-28.7 64-64 64H457.4c-16.1 0-29.8-12-31.8-28L423.8 357l-47.6 6 1.9 14.9c5 40 39 70.1 79.4 70.1H528c61.9 0 112-50.1 112-112s-50.1-112-112-112H497.9L617 105l7-7V64H600z"/></svg>