<svg xmlns="http://www.w3.org/2000/svg" viewBox="0 0 640 512"><!--! Font Awesome Pro 6.4.0 by @fontawesome - https://fontawesome.com License - https://fontawesome.com/license (Commercial License) Copyright 2023 Fonticons, Inc. --><path d="M48 88V64H0V88 248 424v24H48V424 272H272V424v24h48V424 248 88 64H272V88 224H48V88zM387.2 195.5C364.4 224 352 259.5 352 296h.2c-.1 2.6-.2 5.3-.2 8c0 79.5 64.5 144 144 144s144-64.5 144-144s-64.5-144-144-144c-6.8 0-13.4 .5-20 1.4L553.9 64H492.5L387.2 195.5zM400 304a96 96 0 1 1 192 0 96 96 0 1 1 -192 0z"/></svg>