<svg xmlns="http://www.w3.org/2000/svg" viewBox="0 0 416 512"><!--! Font Awesome Pro 6.4.0 by @fontawesome - https://fontawesome.com License - https://fontawesome.com/license (Commercial License) Copyright 2023 Fonticons, Inc. --><path d="M197.4 10.3L175.6 .2 165.5 21.9 152 50.8l-4.1-8.8L137.7 20.2 116 30.3 43.5 64.1 21.7 74.3 31.9 96 81.4 202.2 63.8 240H56 32v24 56 0 24 0c0 92.8 75.2 168 168 168h48c92.8 0 168-75.2 168-168v-8V312 256 184 160H392 336v-8V128H312 257.2l24.2-52 10.1-21.8L269.9 44.1 197.4 10.3zM114.5 84l11 23.6-17.7 37.9L85.5 97.5l29-13.5zM152 240H116.7L198.8 64l29 13.5L152 240zm216-32v48 32H336v-8V208h32zM312 336h56v8c0 66.3-53.7 120-120 120H200c-66.3 0-120-53.7-120-120l0 0 0-24 0 0 0-32H208v32H152 128v48h24 80 24V344 304h32v8 24h24zM256 176h32v8 72H256V176z"/></svg>