<svg xmlns="http://www.w3.org/2000/svg" viewBox="0 0 576 512"><!--! Font Awesome Pro 6.4.0 by @fontawesome - https://fontawesome.com License - https://fontawesome.com/license (Commercial License) Copyright 2023 Fonticons, Inc. --><path d="M224 48v80l64-32 64 32V48h80V208H144V48h80zM144 0H96V48 208v48h48H432h48V208 48 0H432 144zm24 304h-7.3l-6 4-90 60H24 0v48H24 72h7.3l6-4 90-60H360v32H320 296 256 232v48h24 40 24 48 32 7l5.9-3.7 80.4-51 15 24L416.6 464H24 0v48H24 424h7.4l6.1-4.2 116.8-80 19-13-12.2-19.5-40-64-12.8-20.5-20.4 13L408 374.5V328 304H384 168z"/></svg>