<svg xmlns="http://www.w3.org/2000/svg" viewBox="0 0 640 512"><!--! Font Awesome Pro 6.4.0 by @fontawesome - https://fontawesome.com License - https://fontawesome.com/license (Commercial License) Copyright 2023 Fonticons, Inc. --><path d="M344 32V8H296V32v2.8c-4.7 1.2-9.3 2.7-13.6 4.7c-15.8 7.2-30 20.7-33.4 40.7c-1.9 10.9-.9 21.6 3.7 31.4c4.5 9.6 11.6 16.3 18.7 21.1c12.1 8.2 28 13 39.6 16.5l2.3 .7c14.1 4.3 22.8 7.3 28.1 11.1c2 1.5 2.4 2.3 2.4 2.4l0 0c0 .1 .1 .3 .2 .9c.1 .6 .1 1.7-.2 3.5c-.3 1.9-1.2 3.9-5.6 5.8c-5.2 2.2-14.3 3.5-26.6 1.6c-5.7-.9-15.9-4.4-25.4-7.6c-2.3-.8-4.5-1.5-6.6-2.2l-22.8-7.6-15.2 45.5 22.8 7.6c1.1 .4 2.6 .9 4.2 1.4l0 0 0 0c7 2.4 18 6.2 27.3 8.5V224l0 24h48V224v-2.2c4.5-1 8.9-2.4 13-4.2c16.7-7.2 30.5-21.1 34-41.7c1.9-11 1.1-21.8-3.2-31.7c-4.3-9.8-11.1-16.9-18.2-22.1c-12.7-9.2-29.4-14.3-41.4-17.9l-1-.3c-14.4-4.3-23.3-7.2-28.8-10.9c-1.5-1-2.1-1.7-2.2-1.9c-.1-.3-.1-1.1 .2-2.7l0 0c.1-.3 .5-2.6 5.9-5.1c5.6-2.5 14.7-4.1 26.4-2.3c4.3 .7 17.6 3.3 21.3 4.3L373 91.4 385.4 45l-23.2-6.2c-3.9-1-11.8-2.6-18.2-3.9V32zM296.1 91.2a.1 .1 0 1 0 .1-.1 .1 .1 0 1 0 -.1 .1zM144 64H120 24 0V88 392v9.9l7 7 84.8 84.8 17 17 33.9-33.9-17-17L48 382.1V112H96V312v9.9l7 7 7 7 17 17 40 40 16 16 1 1 16 16L233.9 392l-16-16-1-1-16-16-23-23L208 305.9l88 88V488v24h24 24V488 393.9l88-88L462.1 336l-23 23 0 0-16 16-17 17L440 425.9l17-17 16-16 0 0 40-40 17-17 7-7 7-7V312 112h48V382.1l-77.8 77.8-17 17 33.9 33.9 17-17L633 409l7-7V392 88 64H616 520 496V88 302.1l-47-47-17-17-17 17-95 95-95-95-17-17-17 17-47 47V88 64z"/></svg>