<svg xmlns="http://www.w3.org/2000/svg" viewBox="0 0 640 512"><!--! Font Awesome Pro 6.4.0 by @fontawesome - https://fontawesome.com License - https://fontawesome.com/license (Commercial License) Copyright 2023 Fonticons, Inc. --><path d="M272.8 64H200h-9.5l-6.9 6.5L122.3 128H56 32v48H56h75.8 9.5l6.9-6.5L209.5 112h15.3l48-48zM328 64h-9.5l-6.9 6.5-136 128-17 16 15.5 17.4 64 72 16.2 18.3 18-16.6L340.1 243 432 334.9v1.8l-49 49-9.7-9.7-17-17-17 17L309.4 406l-21-21-17-17-17 17-23.3 23.3-21.3-21.3-17-17-7-7-52-52-7-7h-9.9H56 32v48H56h51l45 45 7 7 17 17 38.2 38.2 17 17 17-17 23.3-23.3 21 21 17 17 17-17L356.3 427l9.7 9.7 17 17 17-17L468.5 368H584h24V320H584 485l-1.2-1.2L375.4 210.4l.8-.8 17.6-16.3-32.6-35.3-17.6 16.3-86 79.4-32.3-36.3L337.5 112h77.4l65.2 57.9 6.8 6.1H496h88 24V128H584 505.1L439.9 70.1 433.1 64H424 328z"/></svg>