<svg xmlns="http://www.w3.org/2000/svg" viewBox="0 0 384 512"><!--! Font Awesome Pro 6.4.0 by @fontawesome - https://fontawesome.com License - https://fontawesome.com/license (Commercial License) Copyright 2023 Fonticons, Inc. --><path d="M40 0H16V24 240H0v24 56 0 24s0 0 0 0c0 92.8 75.2 168 168 168h48c92.7 0 167.9-75.1 168-167.9c0 0 0-.1 0-.1v0V256 216 192H360 304V176H280 224v-8V144H200 144V24 0H120 40zM336 256v80H304V240h32v16zm-6.8 128c-16.5 46.6-60.9 80-113.2 80H168c-66.3 0-120-53.7-120-120c0 0 0 0 0 0V320v0V288h72 56v32H120 96v48h24 56 24 24 32v16h24 49.2zM96 240H64V48H96v96 24 72zm80 0H144V192h32v8 40zm48-16h32v96H224V264 224z"/></svg>