<svg xmlns="http://www.w3.org/2000/svg" viewBox="0 0 448 512"><!--! Font Awesome Pro 6.4.0 by @fontawesome - https://fontawesome.com License - https://fontawesome.com/license (Commercial License) Copyright 2023 Fonticons, Inc. --><path d="M48 0H72h80 24V24 80h16v64h40 24v24 8h56 24v16h56 24v24 40 88 0l0 .1C415.9 436.9 340.7 512 248 512H200c-92.8 0-168-75.2-168-168v0V320v0V264 240H48V176H0l43.6-48L0 80H48V24 0zM96 176v64h32V176H96zm32-96V48H96V80h32zM368 240H336v96h32V256 240zM312 384H288V368H256 232 208 152 128V320h24 56V288H152 80v32 0 24 0c0 66.3 53.7 120 120 120h48c52.2 0 96.7-33.4 113.2-80H312zM176 192v48h32V200v-8H176zm112 32H256v40 56h32V224z"/></svg>