<svg xmlns="http://www.w3.org/2000/svg" viewBox="0 0 384 512"><!--! Font Awesome Pro 6.4.0 by @fontawesome - https://fontawesome.com License - https://fontawesome.com/license (Commercial License) Copyright 2023 Fonticons, Inc. --><path d="M16 0H40h80 24V24 144h56 24v24 8h32V88 64h24 80 24V88 256v32 56c0 92.8-75.2 168-168 168H168C75.2 512 0 436.8 0 344c0 0 0 0 0 0V320v0V264 240H16V24 0zM48 320v0 24s0 0 0 0c0 66.3 53.7 120 120 120h48c66.3 0 120-53.7 120-120V288 256 112H304v64 24 56 88 24H280 224 200 176 120 96V320h24 56V288H120 48v32zM176 200v-8H144v48h32V200zM96 168V144 48H64V240H96V168zm160 56H224v40 56h32V256 224z"/></svg>