<svg xmlns="http://www.w3.org/2000/svg" viewBox="0 0 576 512"><!--! Font Awesome Pro 6.4.0 by @fontawesome - https://fontawesome.com License - https://fontawesome.com/license (Commercial License) Copyright 2023 Fonticons, Inc. --><path d="M176 76c0 15.5 12.5 28 28 28h84 24v48H288 204c-42 0-76-34-76-76s34-76 76-76H328c66.3 0 120 53.7 120 120s-53.7 120-120 120H280v24 24H232V264 216 192h24 72c39.8 0 72-32.2 72-72s-32.2-72-72-72H204c-15.5 0-28 12.5-28 28zM160.7 304H168 384h24v24 46.5l79.9-50.8 20.4-13 12.8 20.5 40 64 12.2 19.5-19 13-116.8 80-6.1 4.2H424 24 0V464H24 416.6l91.7-62.8-15-24-80.4 51L407 432h-7H368 320 296 256 232V384h24 40 24 40V352H175.3l-90 60-6 4H72 24 0V368H24 64.7l90-60 6-4z"/></svg>