<svg xmlns="http://www.w3.org/2000/svg" viewBox="0 0 512 512"><!--! Font Awesome Pro 6.4.0 by @fontawesome - https://fontawesome.com License - https://fontawesome.com/license (Commercial License) Copyright 2023 Fonticons, Inc. --><path d="M210.3 3.3L186.5 .8 184 24.6 174 119 147.6 43.8l-8-22.6-22.6 8L41.5 55.7l-22.6 8 8 22.6L80.9 240H64v24 56 0 24 0c0 92.8 75.2 168 168 168h48c92.8 0 168-75.2 168-168v-8V312 256 184 160H424 368v-8V128H344 301.8l9.5-90 2.5-23.9-23.9-2.5L210.3 3.3zM288 181.7c2.2-1.6 4.1-3.5 5.7-5.7H320v8 72H288V181.7zM253.5 128H240v24 88H216.6l-5.4-15.3 18-171.2L261 56.9 253.5 128zM110.3 82.4L165.7 240H131.8L80.1 93l30.2-10.6zM400 256v32H368v-8V208h32v48zm0 80v8c0 66.3-53.7 120-120 120H232c-66.3 0-120-53.7-120-120l0 0 0-24 0 0 0-32H240v32H184 160v48h24 80 24V344 304h32v8 24h24 56z"/></svg>