<svg xmlns="http://www.w3.org/2000/svg" viewBox="0 0 544 512"><!--! Font Awesome Pro 6.4.0 by @fontawesome - https://fontawesome.com License - https://fontawesome.com/license (Commercial License) Copyright 2023 Fonticons, Inc. --><path d="M368 16V80 96H336V80 16 0h32V16zm-98.7 7.1l32 48 8.9 13.3-26.6 17.8-8.9-13.3-32-48-8.9-13.3L260.4 9.8l8.9 13.3zM191.4 94.6l17 15.8L288 184.8V168 144h24 80 24v24V329.6C416 430.3 334.3 512 233.6 512c-22.5 0-44.1-2.1-65.9-10.4c-21.8-8.3-42.1-22.1-63.1-43.1L88 441.9 71 425 55 409l-.1-.1L31 385l-17-17 17-17 31-31L31 289l-17-17 17-17 31-31L47 209l-17-17 17-17 48-48 17-17 17 17 15 15 31-31 16.4-16.4zM113 207l88 88 17 17L184 345.9l-17-17-71-71L81.9 272 96 286.1l17 17 40 40 17 17L136 393.9l-17-17-23-23L81.9 368l7 7 16 16 17 17 16.6 16.6c17.4 17.4 32.1 26.8 46.2 32.1c14.2 5.4 29.3 7.2 48.9 7.2C307.8 464 368 403.8 368 329.6V192H336v48 20l-29.8 7.4-10.6-9.9-103-96.2L177.9 176l71 71 17 17L232 297.9l0 0 0 0-17-17-88-88-15-15L97.9 192l15 15zM361.6 512c-4.9 0-9.8-.1-14.7-.3c23.2-14.5 43.5-33.3 59.7-55.4c52.1-18.5 89.4-68.2 89.4-126.7V192H448V168 144h72 24v24V329.6C544 430.3 462.3 512 361.6 512zm82-502.2l26.6 17.8-8.9 13.3-32 48-8.9 13.3L393.8 84.4l8.9-13.3 32-48 8.9-13.3z"/></svg>