<svg xmlns="http://www.w3.org/2000/svg" viewBox="0 0 640 512"><!--! Font Awesome Pro 6.4.0 by @fontawesome - https://fontawesome.com License - https://fontawesome.com/license (Commercial License) Copyright 2023 Fonticons, Inc. --><path d="M120 64h24V88 302.1l47-47 17-17 17 17 95 95 95-95 17-17 17 17 47 47V88 64h24 96 24V88 392v9.9l-7 7-84.8 84.8-17 17-33.9-33.9 17-17L592 382.1V112H544V312v9.9l-7 7-7 7-17 17-40 40c0 0 0 0 0 0l-16 16-17 17L406.1 392l17-17 16-16c0 0 0 0 0 0l23-23L432 305.9l-88 88V488v24H320 296V488 393.9l-88-88L177.9 336l23 23 16 16 1 1 16 16L200 425.9l-16-16-1-1-16-16-40-40-17-17-7-7-7-7V312 112H48V382.1l77.8 77.8 17 17-33.9 33.9-17-17L7 409l-7-7V392 88 64H24h96z"/></svg>