<svg xmlns="http://www.w3.org/2000/svg" viewBox="0 0 512 512"><!--! Font Awesome Pro 6.4.0 by @fontawesome - https://fontawesome.com License - https://fontawesome.com/license (Commercial License) Copyright 2023 Fonticons, Inc. --><path d="M216 0H192V24v8h0H136 112V56 261.5l-7.5-7.5L76.2 225.7l-17-17-17 17L7 260.9l-7 7v9.9 42.7 9.9l7 7 6.9 6.9L106.5 437c48 48 113.1 75 181 75H296c101.6 0 184-82.4 184-184h0V304 120 96H456 400V56 32H376 320V24l0-24H296 216zM192 80V232v24h48V232 80h0V56 48h32v8V232v24h48V232 80h32v8h0v24V232v24h48V232 144h32V280h0v24 24c0 75.1-60.9 136-136 136h-8.5c-55.2 0-108.1-21.9-147.1-60.9L48 310.6V287.8l11.2-11.2 11.3 11.3 40.8 40.8 17 17 17-17L153 321l7-7V304 80h32z"/></svg>