<svg xmlns="http://www.w3.org/2000/svg" viewBox="0 0 576 512"><!--! Font Awesome Pro 6.4.0 by @fontawesome - https://fontawesome.com License - https://fontawesome.com/license (Commercial License) Copyright 2023 Fonticons, Inc. --><path d="M148 74c0-40.9 33.1-74 74-74h3c19.9 0 39.1 7.7 53.4 21.5l9.6 9.2 9.6-9.2C311.9 7.7 331.1 0 351 0h3c40.9 0 74 33.1 74 74c0 20.1-8.2 39.4-22.7 53.3L301.9 226.8 288 240.2l-13.9-13.3L170.7 127.3C156.2 113.4 148 94.1 148 74zm12.7 230H168 384h24v24 46.5l79.9-50.8 20.4-13 12.8 20.5 40 64 12.2 19.5-19 13-116.8 80-6.1 4.2H424 24 0V464H24 416.6l91.7-62.8-15-24-80.4 51L407 432h-7H368 320 296 256 232V384h24 40 24 40V352H175.3l-90 60-6 4H72 24 0V368H24 64.7l90-60 6-4z"/></svg>