<svg xmlns="http://www.w3.org/2000/svg" viewBox="0 0 640 512"><!--! Font Awesome Pro 6.4.0 by @fontawesome - https://fontawesome.com License - https://fontawesome.com/license (Commercial License) Copyright 2023 Fonticons, Inc. --><path d="M180 74c0 20.1 8.2 39.4 22.7 53.3l103.4 99.5L320 240.2l13.9-13.3 103.4-99.5C451.8 113.4 460 94.1 460 74c0-40.9-33.1-74-74-74h-3c-19.9 0-39 7.7-53.4 21.5L320 30.7l-9.6-9.2C296.1 7.7 276.9 0 257 0h-3c-40.9 0-74 33.1-74 74zM144 64H120 24 0V88 392v9.9l7 7 84.8 84.8 17 17 33.9-33.9-17-17L48 382.1V112H96V312v9.9l7 7 7 7 17 17 40 40 16 16 1 1 16 16L233.9 392l-16-16-1-1-16-16-23-23L208 305.9l88 88V488v24h24 24V488 393.9l88-88L462.1 336l-23 23 0 0-16 16-17 17L440 425.9l17-17 16-16 0 0 40-40 17-17 7-7 7-7V312 112h48V382.1l-77.8 77.8-17 17 33.9 33.9 17-17L633 409l7-7V392 88 64H616 520 496V88 302.1l-47-47-17-17-17 17-95 95-95-95-17-17-17 17-47 47V88 64z"/></svg>