<svg xmlns="http://www.w3.org/2000/svg" viewBox="0 0 576 512"><!--! Font Awesome Pro 6.4.0 by @fontawesome - https://fontawesome.com License - https://fontawesome.com/license (Commercial License) Copyright 2023 Fonticons, Inc. --><path d="M104 0H80V24c0 83.9 68.1 152 152 152h32v80 24h48V256 176 152C312 68.1 243.9 0 160 0H104zM232 128c-49.2 0-90.4-34.1-101.2-80H160c49.2 0 90.4 34.1 101.2 80H232zM168 304h-7.3l-6 4-90 60H24 0v48H24 72h7.3l6-4 90-60H360v32H320 296 256 232v48h24 40 24 48 32 7l5.9-3.7 80.4-51 15 24L416.6 464H24 0v48H24 424h7.4l6.1-4.2 116.8-80 19-13-12.2-19.5-40-64-12.8-20.5-20.4 13L408 374.5V328 304H384 168zM352 176c83.9 0 152-68.1 152-152V0H480 424c-44.1 0-83.9 18.8-111.6 48.8c10 14.7 17.9 30.9 23.3 48.3C354 67.6 386.7 48 424 48h29.2c-10.8 45.9-52 80-101.2 80h-9.6c1 7.9 1.6 15.9 1.6 24v24l8 0z"/></svg>