<svg xmlns="http://www.w3.org/2000/svg" viewBox="0 0 640 512"><!--! Font Awesome Pro 6.4.0 by @fontawesome - https://fontawesome.com License - https://fontawesome.com/license (Commercial License) Copyright 2023 Fonticons, Inc. --><path d="M48.4 14.8L29.4 .1 0 38 19 52.7 591.5 497.2l19 14.7L639.9 474l-19-14.7L503.3 368H584h24V320H584 456 441.5L341.1 242.1l35.1-32.4 17.6-16.3-32.6-35.3-17.6 16.3-41 37.9-39.3-30.5L337.5 112h77.4l65.2 57.9 6.8 6.1H496h88 24V128H584 505.1L439.9 70.1 433.1 64H424 328h-9.5l-6.9 6.5L225 151.9l-31.8-24.7L209.5 112h15.3l48-48H200h-9.5l-6.9 6.5-28.7 27L48.4 14.8zm336 384.1l-38-29.9-37 37-21-21-17-17-17 17-23.3 23.3-21.3-21.3-17-17-7-7-52-52-7-7h-9.9H56 32v48H56h51l45 45 7 7 17 17 38.2 38.2 17 17 17-17 23.3-23.3 21 21 17 17 17-17 58-58zM101.5 176L40.6 128H32v48H56h45.5z"/></svg>