<svg xmlns="http://www.w3.org/2000/svg" viewBox="0 0 640 512"><!--! Font Awesome Pro 6.4.0 by @fontawesome - https://fontawesome.com License - https://fontawesome.com/license (Commercial License) Copyright 2023 Fonticons, Inc. --><path d="M202.9 121.5l-9.6 71.9c31.6 4 61.6 16.8 86.5 37L311.3 256H442.2L409.7 87 202.9 121.5zM560 400c17.7 0 32-14.3 32-32c0-35.1-28.4-66.8-65.6-92.2c-12.3-8.4-24.7-15.5-35.6-21.2l28 145.4H560zM448 32l31.6 164.4 .1 0c4.5 1.9 10.8 4.6 18.3 8.1c15 7.1 35.2 17.7 55.5 31.6C592.4 262.8 640 307.1 640 368c0 44.2-35.8 80-80 80H480 464 24 0V424 363.6C0 277.9 62.8 207 144.8 194.1L160 80 448 32zM48 363.6V400H412.4L249.5 267.7c-22-17.9-49.6-27.7-77.9-27.7C103.3 240 48 295.3 48 363.6z"/></svg>