<svg xmlns="http://www.w3.org/2000/svg" viewBox="0 0 512 512"><!--! Font Awesome Pro 6.4.0 by @fontawesome - https://fontawesome.com License - https://fontawesome.com/license (Commercial License) Copyright 2023 Fonticons, Inc. --><path d="M368 192L410.5 64.4 432 0 371.3 30.4 176 128 48 416h52.5L212.9 163.2 349.8 94.8l-27.4 82.1-5.8 17.3 7.2 16.8L411.8 416H464L368 192zM237.7 416L248 392l56-24-56-24-24-56-24 56-56 24 56 24 10.3 24h27.4zM0 448v64H32 480h32V448H480 32 0zM256 256l16-32 32-16-32-16-16-32-16 32-32 16 32 16 16 32z"/></svg>