<svg xmlns="http://www.w3.org/2000/svg" viewBox="0 0 512 512"><!--! Font Awesome Pro 6.4.0 by @fontawesome - https://fontawesome.com License - https://fontawesome.com/license (Commercial License) Copyright 2023 Fonticons, Inc. --><path d="M163.1 118.4L124.8 89.6c-8-6-17.9-9.6-28.8-9.6c-26.5 0-48 21.5-48 48v1.4c0 4.9 .7 9.8 2.2 14.5L99.5 304h52L128.2 170.7 125.5 155l31.5-5.5 2.7 15.8L183.9 304H240V160 144h32v16V304h56.1l24.1-138.7 2.7-15.8 31.5 5.5-2.7 15.8L360.6 304h52l49.3-160.1c1.4-4.7 2.2-9.6 2.2-14.5V128c0-26.5-21.5-48-48-48c-10.9 0-20.8 3.5-28.8 9.6l-38.4 28.8L320 80c-14.7-19.5-37.9-32-64-32s-49.3 12.5-64 32l-28.8 38.4zM448 352H64L4.3 158C1.5 148.7 0 139.1 0 129.4V128C0 75 43 32 96 32c21.6 0 41.6 7.1 57.6 19.2C177 20.1 214.1 0 256 0s79 20.1 102.4 51.2l0 0c16-12 36-19.2 57.6-19.2c53 0 96 43 96 96v1.4c0 9.7-1.4 19.4-4.3 28.6L448 352zM64 384h48v80H400V384h48v80 48H400 112 64V464 384z"/></svg>