<svg xmlns="http://www.w3.org/2000/svg" viewBox="0 0 512 512"><!--! Font Awesome Pro 6.4.0 by @fontawesome - https://fontawesome.com License - https://fontawesome.com/license (Commercial License) Copyright 2023 Fonticons, Inc. --><path d="M256 80C141.1 80 48 173.1 48 288V392v24H0V392 288C0 146.6 114.6 32 256 32s256 114.6 256 256V392v24H464V392 288c0-114.9-93.1-208-208-208zM160 320H128V432h32V320zm-32-48h32 48v48V432v48H160 128 80V432 320 272h48zm256 48H352V432h32V320zm48-48v48V432v48H384 352 304V432 320 272h48 32 48z"/></svg>