<svg xmlns="http://www.w3.org/2000/svg" viewBox="0 0 448 512"><!--! Font Awesome Pro 6.4.0 by @fontawesome - https://fontawesome.com License - https://fontawesome.com/license (Commercial License) Copyright 2023 Fonticons, Inc. --><path d="M200 32V56v88c0 36.4 11.8 71.7 33.6 100.8l19.2 25.6c28 37.4 43.2 82.9 43.2 129.6v56 24H248V456 400c0-36.3-11.8-71.7-33.6-100.8l-19.2-25.6C167.2 236.2 152 190.7 152 144V56 32h48zM48 96v24 37.9c0 33.2 9.8 65.6 28.2 93.2l31.5 47.3c23.7 35.5 36.3 77.2 36.3 119.8V456v24H96V456 418.1c0-33.2-9.8-65.6-28.2-93.2L36.3 277.7C12.6 242.2 0 200.5 0 157.9V120 96H48zm304 24v37.9c0 33.2 9.8 65.6 28.2 93.2l31.5 47.3c23.7 35.5 36.3 77.2 36.3 119.8V456v24H400V456 418.1c0-33.2-9.8-65.6-28.2-93.2l-31.5-47.3C316.6 242.2 304 200.5 304 157.9V120 96h48v24z"/></svg>