<svg xmlns="http://www.w3.org/2000/svg" viewBox="0 0 640 512"><!--! Font Awesome Pro 6.4.0 by @fontawesome - https://fontawesome.com License - https://fontawesome.com/license (Commercial License) Copyright 2023 Fonticons, Inc. --><path d="M128 0h24H552h24V48H552 384v80h8 .1 .1 .1 .1 .1 .1 .1 .1 .1 .1 .1 .1 .1 .1 .1 .1 .1 .1 .1 .1 .1 .1 .1 .1 .1 .1 .1 .1 .1 .1 .1 .1 .1 .1 .1 .1 .1 .1 .1 .1 .1 .1 .1 .1 .1 .1 .1 .1 .1 .1 .1 .1 .1 .1 .1 .1 .1 .1 .1 .1 .1 .1 .1 .1 .1 .1 .1 .1 .1 .1 .1 .1 .1 .1 .1 .1 .1 .1 .1 .1 .1 .1 .1 .1 .1 .1 .1 .1 .1 .1 .1 .1 .1 .1 .1 .1 .1 .1 .1 .1 .1 .1 .1 .1 .1 .1 .1 .1 .1 .1 .1 .1 .1 .1 .1 .1 .1 .1 .1 .1 .1 .1 .1 .1 .1 .1 .1 .1 .1 .1 .1 .1 .1 .1 .1 .1 .1 .1 .1 .1 .1 .1 .1 .1 .1 .1 .1 .1 .1 .1 .1 .1 .1 .1 .1 .1 .1 .1 .1 .1 .1 .1 .1 .1 .1 .1 .1 .1 .1 .1 .1 .1 .1 .1 .1 .1 .1 .1 .1 .1 .1 .1 .1 .1 .1 .1 .1 .1 .1 .1 .1 .1 .1 .1 .1 .1 .1 .1 .1 .1 .1 .1 .1 .1 .1 .1 .1 .1 .1 .1 .1 .1 .1 .1 .1 .1 .1 .1 .1 .1 .1 .1 .1 .1 .1 .1 .1 .1 .1 .1 .1 .1 .1 .1 .1 .1 .1 .1 .1 .1 .1 .1 .1 .1 .1 .1 .1 .1 .1 .1 .1 .1 .1 .1 .1 .1 .1 .1 .1 .1 .1 .1 .1 .1 .1 .1 .1 .1 .1 .1 .1 .1 .1 .1 .1 .1 .1 .1 .1 .1 .1 .1 .1 .1 .1 .1 .1 .1 .1 .1 .1 .1 .1 .1 .1 .1 .1 .1 .1 .1 .1 .1 .1 .1 .1 .1 .1 .1 .1 .1 .1 .1 .1 .1 .1 .1 .1 .1 .1 .1 .1 .1 .1 .1 .1 .1 .1 .1 .1 .1 .1 .1 .1 .1 .1 .1 .1 .1 .1 .1 .1 .1 .1 .1 .1 .1 .1 .1 .1 .1 .1 .1 .1 .1 .1 .1 .1 .1 .1 .1 .1 .1 .1 .1 .1 .1 .1 .1 .1 .1 .1 .1 .1 .1 .1 .1 .1 .1 .1 .1 .1 .1 .1 .1 .1 .1 .1 .1 .1 .1 .1 .1 .1 .1 .1 .1 .1 .1 .1 .1 .1 .1 .1 .1 .1 .1 .1 .1 .1 .1 .1 .1 .1 .1 .1 .1 .1 .1 .1 .1 .1 .1 .1 .1 .1 .1 .1 .1 .1 .1 .1 .1 .1 .1 .1 .1 .1 .1 .1 .1 .1 .1 .1 .1 .1 .1 .1 .1 .1 .1 .1 .1 .1 .1 .1 .1 .1 .1 .1 .1 .1 .1 .1 .1 .1 .1 .1 .1 .1 .1 .1 .1 .1 .1 .1 .1 .1 .1 .1 .1 .1 .1 .1 .1 .1 .1 .1 .1 .1 .1 .1 .1 .1 .1 .1 .1 .1 .1 .1 .1 .1 .1 .1 .1 .1 .1 .1 .1 .1 .1 .1 .1c84 0 152 68.1 152 152v96 24H552h-.5-.5-.5-.5-.5-.5-.5-.5-.5-.5H546h-.5H545h-.5-.5-.5-.5-.5-.5-.5-.5-.5-.5-.5-.5H538h-.5H537h-.5-.5-.5-.5-.5-.5-.5-.5-.5-.5-.5-.5-.5-.5-.5-.5-.5-.5-.5-.5H526h-.5H525h-.5H524h-.5H523h-.5-.5-.5-.5-.5-.5-.5-.5-.5-.5-.5-.5-.5-.5-.5-.5-.5-.5-.5-.5-.5-.5-.5-.5-.5-.5-.5-.5-.5-.5-.5-.5-.5-.5-.5-.5-.5-.5-.5-.5-.5H502h-.5H501h-.5H500h-.5H499h-.5-.5-.5-.5-.5-.5-.5-.5-.5-.5-.5-.5-.5-.5-.5-.5-.5-.5-.5-.5-.5-.5H488h-.5H487h-.5H486h-.5-.5-.5-.5-.5-.5-.5-.5-.5-.5-.5-.5-.5-.5H479h-.5H478h-.5-.5-.5-.5-.5-.5-.5-.5-.5-.5-.5-.5-.5-.5H471h-.5-.5-.5-.5-.5-.5-.5-.5-.5-.5-.5-.5H465h-.5H464h-.5-.5-.5-.5-.5-.5-.5-.5-.5-.5H459h-.5H458h-.5-.5-.5-.5-.5-.5-.5-.5-.5-.5H453h-.5-.5-.5-.5-.5-.5-.5-.5-.5-.5H448h-.5-.5-.5-.5-.5-.5-.5-.5-.5-.5H443h-.5-.5-.5-.5-.5-.5-.5-.5-.5-.5H438h-.5-.5-.5-.5-.5-.5-.5-.5-.5-.5H433h-.5-.5-.5-.5-.5-.5-.5-.5-.5-.5H428h-.5-.5-.5-.5-.5-.5-.5-.5-.5-.5H423h-.5-.5-.5-.5-.5-.5-.5-.5-.5-.5H418h-.5-.5-.5-.5-.5-.5-.5-.5-.5-.5H413h-.5-.5-.5-.5-.5-.5-.5-.5-.5-.5H408h-.5-.5-.5-.5-.5-.5-.5-.5-.5-.5H403h-.5-.5-.5-.5-.5-.5-.5-.5-.5-.5H398h-.5H397h-.5-.5-.5-.5-.5-.5-.5-.5-.5-.5H392h-.5H391h-.5-.5-.5-.5-.5-.5-.5-.5-.5-.5-.5-.5H385h-.5-.5-.5-.5-.5-.5-.5-.5-.5-.5-.5-.5-.5-.5H378h-.5H377h-.5-.5-.5-.5-.5-.5-.5-.5-.5-.5-.5-.5-.5-.5H370h-.5H369h-.5H368h-.5-.5-.5-.5-.5-.5-.5-.5-.5-.5-.5-.5-.5-.5-.5-.5-.5-.5-.5-.5-.5-.5H357h-.5H356h-.5H355h-.5H354h-.5-.5-.5-.5-.5-.5-.5-.5-.5-.5-.5-.5-.5-.5-.5-.5-.5-.5-.5-.5-.5-.5-.5-.5-.5-.5-.5-.5-.5-.5-.5-.5-.5-.5-.5-.5-.5-.5-.5-.5-.5H333h-.5H332h-.5H331h-.5H330h-.5-.5-.5-.5-.5-.5-.5-.5-.5-.5-.5-.5-.5-.5-.5-.5-.5-.5-.5-.5H319h-.5H318h-.5-.5-.5-.5-.5-.5-.5-.5-.5-.5-.5-.5H311h-.5H310h-.5-.5-.5-.5-.5-.5-.5-.5-.5-.5H304h-9.9l-7-7L186.2 292.1 46.3 229.9l-11.4-5-2.4-12.2-24-120L2.7 64H32 72 82.9l7.2 8.2L138.9 128H336V48H152 128V0zM77.1 191.1l132.6 59 4.1 1.8L217 255l97 97h.3 .5 .5 .5 .5 .5 .5 .5 .5 .5 .5 .5 .5 .5 .5 .5 .5 .5 .5 .5 .5 .5 .5 .5 .5 .5 .5 .5 .5 .5 .5 .5 .5 .5 .5 .5 .5 .5 .5 .5 .5 .5 .4V176H128 117.1l-7.2-8.2L61.3 112.2l15.8 78.9zM384 352h.1 .5 .5 .5 .5 .5 .5 .5 .5 .5 .5 .5 .5 .5 .5 .5 .5 .5 .5 .5 .5 .5 .5 .5 .5 .5 .5 .5 .5 .5 .5 .5 .5 .5 .5 .5 .5 .5 .5 .5 .5 .5 .5 .5 .5 .5 .5 .5 .5 .5 .5 .5 .5 .5 .5 .5 .5 .5 .5 .5 .5 .5 .5 .5 .5 .5 .5 .5 .5 .5 .5 .5 .5 .5 .5 .5 .5 .5 .5 .5 .5 .5 .5 .5 .5 .5 .5 .5 .5 .5 .5 .5 .5 .5 .5 .5 .5 .5 .5 .5 .5 .5 .5 .5 .5 .5 .5 .5 .5 .5 .5 .5 .5 .5 .5 .5 .5 .5 .5 .5 .5 .5 .5 .5 .5 .5 .5 .5 .5 .5 .5 .5 .5 .5 .5 .5 .5 .5 .5 .5 .5 .5 .5 .5 .5 .5 .5 .5 .5 .5 .5 .5 .5 .5 .5 .5 .5 .5 .5 .5 .5 .5 .5 .5 .5 .5 .5 .5 .5 .5 .5 .5 .5 .5 .5 .5 .5 .5 .5 .5 .5 .5 .5 .5 .5 .5 .5 .5 .5 .5 .5 .5 .5 .5 .5 .5 .5 .5 .5 .5 .5 .5 .5 .5 .5 .5 .5 .5 .5 .5 .5 .5 .5 .5 .5 .5 .5 .5 .5 .5 .5 .5 .5 .5 .5 .5 .5 .5 .5 .5 .5 .5 .5 .5 .5 .5 .5 .5 .5 .5 .5 .5 .5 .5 .5 .5 .5 .5 .5 .5 .5 .5 .5 .5 .5 .5 .5 .5 .5 .5 .5 .5 .5 .5 .5 .5 .5 .5 .5 .5 .5 .5 .5 .5 .5 .5 .5 .5 .5 .5 .5 .5 .5 .5 .5 .5 .5 .5 .5 .5 .5 .5 .5 .5 .5 .5 .5 .5 .5 .5 .5 .5 .5 .5 .5 .5 .5 .4V280c0-57.4-46.5-104-104-104H424h-.1-.1-.1-.1-.1-.1-.1-.1-.1-.1-.1-.1-.1-.1-.1H423h-.1-.1-.1-.1-.1-.1-.1-.1-.1-.1-.1-.1-.1-.1-.1H422 422h-.1-.1-.1-.1-.1-.1-.1-.1-.1-.1-.1-.1-.1-.1-.1H421 421h-.1-.1-.1-.1-.1-.1-.1-.1-.1-.1-.1-.1-.1-.1-.1H420h-.1-.1-.1-.1-.1-.1-.1-.1-.1-.1-.1-.1-.1-.1-.1H419 419h-.1-.1-.1-.1-.1-.1-.1-.1-.1-.1-.1-.1-.1-.1-.1H418h-.1-.1-.1-.1-.1-.1-.1-.1-.1-.1-.1-.1-.1-.1-.1H417 417h-.1-.1-.1-.1-.1-.1-.1-.1-.1-.1-.1-.1-.1-.1H416 416h-.1-.1-.1-.1-.1-.1-.1-.1-.1-.1-.1-.1-.1-.1-.1H415h-.1-.1-.1-.1-.1-.1-.1-.1-.1-.1-.1-.1-.1-.1-.1H414 414h-.1-.1-.1-.1-.1-.1-.1-.1-.1-.1-.1-.1-.1-.1H413 413h-.1-.1-.1-.1-.1-.1-.1-.1-.1-.1-.1-.1-.1-.1H412 412h-.1-.1-.1-.1-.1-.1-.1-.1-.1-.1-.1-.1-.1-.1H411 411h-.1-.1-.1-.1-.1-.1-.1-.1-.1-.1-.1-.1-.1-.1-.1H410h-.1-.1-.1-.1-.1-.1-.1-.1-.1-.1-.1-.1-.1-.1-.1H409h-.1-.1-.1-.1-.1-.1-.1-.1-.1-.1-.1-.1-.1-.1-.1H408h-.1-.1-.1-.1-.1-.1-.1-.1-.1-.1-.1-.1-.1-.1H407 407h-.1-.1-.1-.1-.1-.1-.1-.1-.1-.1-.1-.1-.1-.1H406 406h-.1-.1-.1-.1-.1-.1-.1-.1-.1-.1-.1-.1-.1-.1H405 405h-.1-.1-.1-.1-.1-.1-.1-.1-.1-.1-.1-.1-.1-.1H404 404h-.1-.1-.1-.1-.1-.1-.1-.1-.1-.1-.1-.1-.1-.1H403h-.1-.1-.1-.1-.1-.1-.1-.1-.1-.1-.1-.1-.1-.1-.1H402h-.1-.1-.1-.1-.1-.1-.1-.1-.1-.1-.1-.1-.1-.1H401 401h-.1-.1-.1-.1-.1-.1-.1-.1-.1-.1-.1-.1-.1-.1H400 400h-.1-.1-.1-.1-.1-.1-.1-.1-.1-.1-.1-.1-.1-.1H399h-.1-.1-.1-.1-.1-.1-.1-.1-.1-.1-.1-.1-.1-.1H398 398h-.1-.1-.1-.1-.1-.1-.1-.1-.1-.1-.1-.1-.1-.1H397h-.1-.1-.1-.1-.1-.1-.1-.1-.1-.1-.1-.1-.1-.1H396 396h-.1-.1-.1-.1-.1-.1-.1-.1-.1-.1-.1-.1-.1-.1H395h-.1-.1-.1-.1-.1-.1-.1-.1-.1-.1-.1-.1-.1-.1H394 394h-.1-.1-.1-.1-.1-.1-.1-.1-.1-.1-.1-.1-.1H393 393h-.1-.1-.1-.1-.1-.1-.1-.1-.1-.1-.1-.1-.1-.1H392h-8V352zM640 456v32 24H616 248 224V464h24H592v-8V432h48v24z"/></svg>