<svg xmlns="http://www.w3.org/2000/svg" viewBox="0 0 512 512"><!--! Font Awesome Pro 6.4.0 by @fontawesome - https://fontawesome.com License - https://fontawesome.com/license (Commercial License) Copyright 2023 Fonticons, Inc. --><path d="M461.6 224H510C495.6 108.2 403.8 16.4 288 2V50.5C377.3 64.2 447.8 134.8 461.6 224zM510 288H461.6C447.8 377.3 377.3 447.8 288 461.6V510c115.8-14.4 207.6-106.2 222-222zM2 288C16.4 403.8 108.2 495.6 224 510V461.6C134.7 447.8 64.2 377.3 50.4 288H2zm0-64H50.4C64.2 134.8 134.7 64.2 224 50.5V2C108.2 16.4 16.4 108.2 2 224zm190-64V136H144v24V352v24h48V352 280H320v72 24h48V352 160 136H320v24 72H192V160z"/></svg>