<svg xmlns="http://www.w3.org/2000/svg" viewBox="0 0 576 512"><!--! Font Awesome Pro 6.4.0 by @fontawesome - https://fontawesome.com License - https://fontawesome.com/license (Commercial License) Copyright 2023 Fonticons, Inc. --><path d="M208 32V56 296v24h48V296 80h64V296v24h48V296 56 32H344 232 208zM0 384v24s80 72 288 72s288-72 288-72V384H0zm32-96v64H80V288c0-68.4 39-127.7 96-156.8V78.7C91.8 110.9 32 192.5 32 288zm464-2.2l0 66.2h48l0-64 0-2.4c-1-94.5-60.5-174.9-144-206.9v52.5c56.4 28.8 95.2 87.2 96 154.6z"/></svg>