<svg xmlns="http://www.w3.org/2000/svg" viewBox="0 0 576 512"><!--! Font Awesome Pro 6.4.0 by @fontawesome - https://fontawesome.com License - https://fontawesome.com/license (Commercial License) Copyright 2023 Fonticons, Inc. --><path d="M184 315.9l-14.1 14.1L131.9 368 184 420.1l38.1-38.1L236.1 368H256h47.4l16.2-22.5-113-113L184 248.6V296v19.9zm62-111.8L347.9 306 489.2 109.1 442.9 62.8 246 204.1zM136 224L448 0 552 104 328 416H256l-38.1 38.1-33.7 33.7-.2 .2-.3-.3L169 473l-32 32-7 7H120 24 0V488 472v-9.9l7-7 72-72L64 368l72-72V224zM113 417l-47 47h44.1l25-25L113 417z"/></svg>