<svg xmlns="http://www.w3.org/2000/svg" viewBox="0 0 576 512"><!--! Font Awesome Pro 6.4.0 by @fontawesome - https://fontawesome.com License - https://fontawesome.com/license (Commercial License) Copyright 2023 Fonticons, Inc. --><path d="M336.8 139l-2.6 21H313 256 198.9 176.2c-35.5 0-64.2 28.8-64.2 64.2c0 8.2 1.6 16.3 4.6 23.9l25.3 63.3 3.5 8.6-3.3 8.7-20.6 54.8-2.7 7.3 2.1 7.5L139.1 464h49.8l-17.6-63.4-2.1-7.5 2.7-7.3 15.8-42.1c2.8-7.5 4.3-15.4 4.3-23.5c0-.4 0-.9 0-1.3l-.7-32.7 31.4 9.2 88 25.7c2.1 .6 4.2 1.1 6.3 1.6l19 4v19.4V464h48V318.2 308.1l7.3-7.1c15.1-14.8 24.7-35.3 24.7-58.8c0-11.2-2.2-21.7-6.2-31.4l-1.8-4.4v-4.8V184 160h24 8 9.9l7 7 28.3 28.3 42.7-19V115.3L483.2 48H480h-8H440c-53 0-96.8 39.7-103.2 91zm204-91L572 94.7l4 6V108v84 15.6l-14.3 6.3-72 32-15.1 6.7L464 241.9l0 .3c0 33.2-12.2 62.9-32 85.5V488v24H408 312 288V488 364.5l-51.8-15.1c-1 3.8-2.2 7.5-3.6 11.2l-13 34.8 24 86.3 8.5 30.4H220.5 120.8 102.6l-4.9-17.6L74.6 411.3l-4.2-15.1-2.1-7.5 2.7-7.3 5.5-14.6 17.3-46.1L72 265.9c-5.3-13.3-8-27.4-8-41.7c0-2.9 .1-5.7 .3-8.5C54.4 223 48 234.8 48 248v64 24H0V312 248c0-47.3 37.3-85.9 84.1-87.9c20.3-29.1 54-48.1 92.1-48.1h22.6H256h37.3C310.9 47.5 369.9 0 440 0h32 8 16 12.8H536h24V48H540.8zM448 96a16 16 0 1 1 32 0 16 16 0 1 1 -32 0z"/></svg>