<svg xmlns="http://www.w3.org/2000/svg" viewBox="0 0 640 512"><!--! Font Awesome Pro 6.4.0 by @fontawesome - https://fontawesome.com License - https://fontawesome.com/license (Commercial License) Copyright 2023 Fonticons, Inc. --><path d="M184 0H160V24 80H24 0v24 88 48 48 48V488v24H24h0 0 0 0 0 0 0 0 0 0 0 0 0 0 0 0 0 0 0 0 0 0 0 0 0 0 0 0 .1 .1 .1H25 25h.1 .1 .1 .1 .1 .1 .1 .1 .1 .1 .1 .1 .1H26h.1 .1 .1 .1 .1 .1 .1 .1 .1 .1H27h.1 .1 .1 .1 .1 .1 .1 .1H28h.1 .1 .1 .1 .1 .1 .1H29h.1 .1 .1 .1 .1 .1 .1H30h.1 .1 .1 .1 .1 .1H31h.2 .2 .2 .2 .2H32h.2 .2 .2 .2 .2 .2 .2 .2 .2 .2 .2H34h.2 .2 .2 .2 .2 .2 .2 .2 .2 .2H36h.2 .2 .2 .2H37h.2 .2 .2 .2H38h.2 .2 .2 .2H39h.2 .2 .2 .2 .2 .2 .2 .2H41h.2 .2 .2 .2 .2 .2 .2 .2 .2 .2 .2 .2H44h.2 .2 .2H45h.2 .2 .2H46h.3 .3 .3H47h.3 .3 .3H48h.3 .3 .3 .3 .3 .3 .3 .3 .3 .3H51h.3 .3 .3 .3 .3 .3 .3 .3 .3 .3 .3 .3 .3 .3 .3 .3 .3 .3 .3 .3H57h.3 .3 .3 .3 .3 .3 .3 .3 .3H60h.3 .3H61h.3 .3 .3 .3 .3 .3 .3 .3 .3 .3 .3 .3 .3 .3 .3 .3 .3 .3 .3 .3 .3 .3 .3 .3 .3 .3 .3 .3 .3 .3 .3 .3 .3 .3 .3 .3 .3 .3 .4 .4 .4 .4 .4 .4H76h.4 .4 .4 .4 .4 .4 .4 .4 .4 .4H80h.4 .4 .4 .4 .4 .4 .4 .4 .4 .4 .4 .4 .4 .4 .4 .4 .4 .4 .4 .4 .4 .4 .4H89h.4 .4 .4 .4 .4 .4 .4 .4 .4 .4 .4 .4 .4 .4 .4 .4 .4 .4 .4 .4 .4 .4 .4 .4 .4 .4 .4 .4 .4 .4 .4 .4 .4 .4 .4 .4 .4 .4 .4 .4 .4 .4 .4 .4 .4 .4 .4 .4 .4 .4 .4 .4 .4 .4 .4 .4 .4 .4 .4 .4 .4 .4 .4 .4 .4 .4 .4 .4 .4 .4 .4 .4 .4 .4 .4 .4 .4 .4 .4 .4 .4 .4 .4 .4 .4 .4 .4 .4 .4 .4 .4 .4 .4 .4 .4 .4 .4 .4 .4 .4 .4 .4 .4 .4 .4 .4 .5 .5 .5 .5 .5 .5 .5 .5 .5 .5 .5 .5 .5 .5 .5 .5 .5 .5 .5 .5 .5 .5 .5 .5 .5 .5 .5 .5 .5 .5 .5 .5 .5 .5 .5 .5 .5 .5 .5 .5 .5 .5 .5 .5 .5 .5 .5 .5 .5 .5 .5 .5 .5 .5 .5 .5 .5 .5 .5 .5 .5 .5 .5 .5 .5 .5 .5 .5 .5 .5 .5 .5 .5 .5 .5 .5 .5 .5 .5 .5 .5 .5 .5 .5 .5 .5 .5 .5 .5 .5 .5 .5 .5 .5 .5 .5 .5 .5 .5 .5 .5 .5 .5 .5 .5 .5 .5 .5v0H456h8v0H616h24V488 336 288 240 192 104 80H616 480V24 0H456 184zM592 192H536 512v48h24 56v48H536 512v48h24 56V464H480V336 128H592v64zM104 240h24V192H104 48V128H160V464h-.1-.5-.5-.5H158h-.5-.5-.5-.5-.5-.5-.5-.5-.5-.5-.5-.5-.5-.5H151h-.5-.5-.5-.5-.5-.5-.5-.5-.5-.5-.5-.5H145h-.5-.5-.5-.5-.5-.5-.5-.5-.5-.5H140h-.5-.5-.5-.5-.5-.5-.5-.5-.5-.5H135h-.5-.5-.5-.4-.4-.4-.4-.4-.4-.4-.4-.4-.4-.4-.4-.4-.4-.4-.4-.4-.4-.4-.4-.4-.4-.4H123h-.4-.4-.4-.4-.4-.4-.4-.4H119h-.4-.4-.4-.4-.4-.4H116h-.4-.4-.4-.4-.4-.4H113h-.4-.4-.4-.4-.4-.4-.4-.4-.4-.4-.4-.4-.4-.4-.4-.4-.4-.4H105h-.4-.4-.4-.4H103h-.4-.4-.4-.4-.4-.4-.4-.4-.4-.4-.4-.4-.4-.4-.4-.4-.4-.4-.4-.4-.4-.4-.4-.4-.4-.4-.4-.4-.4-.4-.4-.4-.4-.4H89h-.4-.4-.4-.4-.4-.4-.4-.4-.4-.4-.4-.4-.4-.4-.4-.4-.4-.4-.4-.4-.4-.4-.4H80h-.4-.4-.4-.4-.4-.4-.4-.4-.4-.4H76h-.4-.4-.4-.4-.4-.4-.4-.3-.3-.3-.3-.3-.3-.3-.3-.3-.3-.3-.3-.3-.3-.3-.3-.3-.3-.3-.3-.3-.3-.3-.3-.3-.3-.3-.3-.3-.3-.3-.3-.3-.3-.3-.3-.3H61h-.3-.3H60h-.3-.3-.3-.3-.3-.3-.3-.3-.3H57h-.3-.3-.3-.3-.3-.3-.3-.3-.3-.3-.3-.3-.3-.3-.3-.3-.3-.3-.3-.3H51h-.3-.3-.3-.3-.3-.3-.3-.3-.3-.3H48h0V336h56 24V288H104 48V240h56zM208 464V48H432V336 464H368V352H272V464H208zM296 80v40H256v48h40v40h48V168h40V120H344V80H296z"/></svg>