<svg xmlns="http://www.w3.org/2000/svg" viewBox="0 0 576 512"><!--! Font Awesome Pro 6.4.0 by @fontawesome - https://fontawesome.com License - https://fontawesome.com/license (Commercial License) Copyright 2023 Fonticons, Inc. --><path d="M303.5 13.7L288 .5 272.5 13.7l-264 224 31.1 36.6L64 253.5V390.9c3.8-2.6 7.8-5.5 12.3-8.7l1.1-.8L96 368l16 11.5V212.8L288 63.5 464 212.8V379.5L480 368l19.7 14.2 0 0c4.4 3.2 8.5 6.1 12.3 8.7V253.5l24.5 20.8 31.1-36.6-264-224zM256 224h64v64H256V224zm0-48H208v48 64 48h48 64 48V288 224 176H320 256zM79 488.9c6.5-3.7 12.2-7.4 16.9-10.7c4.7 3.3 10.5 7 16.9 10.7c19.3 11 47.6 23.1 79.1 23.1s59.7-12.2 79.1-23.1c6.5-3.7 12.2-7.4 16.9-10.7c4.7 3.3 10.5 7 16.9 10.7c19.3 11 47.6 23.1 79.1 23.1s59.7-12.2 79.1-23.1c6.5-3.7 12.2-7.4 16.9-10.7c4.8 3.3 10.5 7 17 10.7c19.3 11 47.6 23.1 79.1 23.1V464c-19.7 0-39.5-7.8-55.4-16.9c-15.4-8.7-27-19.1-40-30.7l-.7-.6-.7 .6c-13 11.6-24.6 22-40 30.7c-15.9 9-35.6 16.9-55.3 16.9s-39.5-7.8-55.3-16.9c-15.4-8.7-27-19.1-40-30.7l-.7-.6-.7 .6c-13 11.6-24.6 22-40 30.7c-15.9 9-35.6 16.9-55.3 16.9s-39.5-7.8-55.3-16.9c-15.4-8.7-27.2-19.3-40.3-30.9l-.4-.4-.4 .4c-13 11.6-24.8 22.2-40.2 30.9C39.5 456.2 19.7 464 0 464v48c31.5 0 59.7-12.2 79-23.1z"/></svg>