<svg xmlns="http://www.w3.org/2000/svg" viewBox="0 0 640 512"><!--! Font Awesome Pro 6.4.0 by @fontawesome - https://fontawesome.com License - https://fontawesome.com/license (Commercial License) Copyright 2023 Fonticons, Inc. --><path d="M240 1.3l15 12 200 160 18.7 15-30 37.5-18.7-15-9-7.2V240H368V165.1L240 62.7 112 165.1V368H272v48H88 64V392 203.5l-9 7.2-18.7 15-30-37.5 18.7-15 200-160 15-12zM288 192v48H272v48H192V192h96zM544 320H352V464H544V320zm-240 0V272h48H544h48v48V464h48v24l-24 24H592 544 352 304 280l-24-24V464h48V320z"/></svg>