<svg xmlns="http://www.w3.org/2000/svg" viewBox="0 0 640 512"><!--! Font Awesome Pro 6.4.0 by @fontawesome - https://fontawesome.com License - https://fontawesome.com/license (Commercial License) Copyright 2023 Fonticons, Inc. --><path d="M496 0H448V24v8V192 512h48V192H640V32H496V24 0zM416 133L286.3 36.7 272 26.1 257.7 36.7 19.4 213.5 .2 227.8l28.6 38.5L48 252.1l16-11.9V488v24H88 192v.6h48V512l64 0v.6h48V512l64 0V464H352V328 304H328 216 192v24V464H112V218.4 204.6L272 85.9 416 192.7V133zM304 352V464l-64 0V352h64z"/></svg>