<svg xmlns="http://www.w3.org/2000/svg" viewBox="0 0 640 512"><!--! Font Awesome Pro 6.4.0 by @fontawesome - https://fontawesome.com License - https://fontawesome.com/license (Commercial License) Copyright 2023 Fonticons, Inc. --><path d="M0 0H24 96h48 64 48 72 24V24 134.3l-48 40V48H256V88v24H208V88 48H144V88v24H96V88 48H48V206.9l57.9 65.2 6.1 6.8V288 488v24H64V488 297.1L6.1 231.9 0 225.1V216 24 0zM304 216l48-40 96-80L640 256V464v48H592 304 256V464 256l48-40zM176 144c22.1 0 40 17.9 40 40v56H136V184c0-22.1 17.9-40 40-40zM304 278.5V464H592V278.5l-144-120-144 120zM496 272v96H400V272h96z"/></svg>