<svg xmlns="http://www.w3.org/2000/svg" viewBox="0 0 384 512"><!--! Font Awesome Pro 6.4.0 by @fontawesome - https://fontawesome.com License - https://fontawesome.com/license (Commercial License) Copyright 2023 Fonticons, Inc. --><path d="M216 24.7V-1.5L189.9 .8C83.5 9.9 0 99.2 0 208C0 309.2 72.3 393.5 168 412.2v74.6 26.2l26.1-2.2C300.5 501.5 384 412.2 384 303.4c0-101.2-72.3-185.5-168-204.2V24.7zM48 208C48 133.5 99 70.8 168 53v67 22l21.9 1.9C271.8 151 336 219.7 336 303.4c0 74.6-51 137.2-120 155v-67-22l-21.9-1.9C112.2 360.4 48 291.7 48 208zm128 48a16 16 0 1 1 32 0 16 16 0 1 1 -32 0zm80 0a64 64 0 1 0 -128 0 64 64 0 1 0 128 0z"/></svg>