<svg xmlns="http://www.w3.org/2000/svg" viewBox="0 0 512 512"><!--! Font Awesome Pro 6.4.0 by @fontawesome - https://fontawesome.com License - https://fontawesome.com/license (Commercial License) Copyright 2023 Fonticons, Inc. --><path d="M125.5 21.5C111.7 7.7 92.8 0 73.3 0C33.2 0 0 32.5 0 72.6c0 20.1 8.3 39.2 22.9 52.9L128 224l105.1-98.5C247.7 111.8 256 92.6 256 72.6C256 32.5 222.8 0 182.7 0c-19.5 0-38.5 7.7-52.3 21.5L128 24l-2.5-2.5zM128 158.2L55.8 90.5c-5-4.6-7.8-11.1-7.8-17.9C48 59.6 59.1 48 73.3 48c7 0 13.7 2.8 18.3 7.5l33.7-33.7L91.6 55.5l2.5 2.5L128 91.9l33.9-33.9 2.5-2.5c4.6-4.6 11.4-7.5 18.3-7.5C196.9 48 208 59.6 208 72.6c0 6.8-2.8 13.3-7.8 17.9L128 158.2zM224 288l-16-32H80L64 288H48 0v48V464v48H48 240h48V464 336 288H240 224zm16 48V464H48V336H64 93.7l13.3-26.5 2.7-5.5h68.7l2.7 5.5L194.3 336H224h16zm-48 56a48 48 0 1 0 -96 0 48 48 0 1 0 96 0zM457.1 256L320 400l72.2 10.5L374.9 512 512 368l-72.2-10.5L457.1 256zM288 256c35.3 0 64-21.5 64-48V83.7L464 61.3v68.2c-5.1-1-10.5-1.5-16-1.5c-35.3 0-64 21.5-64 48s28.7 48 64 48s64-21.5 64-48V32 2.7L483.3 8.5l-160 32L304 44.3V64v97.5c-5.1-1-10.5-1.5-16-1.5c-35.3 0-64 21.5-64 48s28.7 48 64 48z"/></svg>