<svg xmlns="http://www.w3.org/2000/svg" viewBox="0 0 576 512"><!--! Font Awesome Pro 6.4.0 by @fontawesome - https://fontawesome.com License - https://fontawesome.com/license (Commercial License) Copyright 2023 Fonticons, Inc. --><path d="M528 368v64H400V368H528zm0-48H480V192h11.1c23.4 37 36.9 80.9 36.9 128zM432 192V320H395.4c-13.8-46.3-56.6-80-107.4-80s-93.6 33.7-107.4 80H144V192H432zM96 320H48c0-47.1 13.5-91 36.9-128H96V320zM288 80c5.4 0 10.7 .2 16 .5V144H124.8C167.7 104.3 225 80 288 80zm64 64V88.6c37.6 10.4 71.4 29.6 99.2 55.4H352zM176 368v64H48V368H176zM48 480H176 400 528h48V432 320C576 160.9 447.1 32 288 32S0 160.9 0 320V432v48H48zM288 288c35.3 0 64 28.7 64 64v80H224V352c0-35.3 28.7-64 64-64z"/></svg>