<svg xmlns="http://www.w3.org/2000/svg" viewBox="0 0 640 512"><!--! Font Awesome Pro 6.4.0 by @fontawesome - https://fontawesome.com License - https://fontawesome.com/license (Commercial License) Copyright 2023 Fonticons, Inc. --><path d="M48.4 14.8L29.4 .1 0 38 19 52.7 591.5 497.2l19 14.7L639.9 474l-19-14.7L576 424.4V80 32H528 112 70.5L48.4 14.8zm84 65.2H528V387.2l-66.9-51.9L387.4 233.9 367.8 207 348.5 234l-6.3 8.8L256 176c0-26.5-21.5-48-48-48c-4.1 0-8.1 .5-11.9 1.5L132.4 80zm355 400L286.1 321.4l-27.8 38.9L225 327l-17.9-17.9-16.9 18.8-72 80-6.2 6.8V184.2L64 146.4V432v48h48H487.4z"/></svg>