<svg xmlns="http://www.w3.org/2000/svg" viewBox="0 0 512 512"><!--! Font Awesome Pro 6.4.0 by @fontawesome - https://fontawesome.com License - https://fontawesome.com/license (Commercial License) Copyright 2023 Fonticons, Inc. --><path d="M62.5 96H160l32 64H320l32-64h97.5l-40-48h-307l-40 48zM512 96v48 96 48H464 48 0V240 144 96L80 0H432l80 96zm-48 48H381.7l-18.7 37.5L349.7 208H320 192 162.3l-13.3-26.5L130.3 144H48v96H464V144zM192 384H320l32-64H464h48v48 96 48H464 48 0V464 368 320H48 160l32 64zm189.7-16l-18.7 37.5L349.7 432H320 192 162.3l-13.3-26.5L130.3 368H48v96H464V368H381.7z"/></svg>