<svg xmlns="http://www.w3.org/2000/svg" viewBox="0 0 576 512"><!--! Font Awesome Pro 6.4.0 by @fontawesome - https://fontawesome.com License - https://fontawesome.com/license (Commercial License) Copyright 2023 Fonticons, Inc. --><path d="M192 80v43.3V176l48-21.8 80-36.4L368 96v27.3 25.5V176l48-21.8 80-36.4L544 96v52.7V432v48H496 80 32V432 80 32H80h64 48V80zm19.9 139.7L144 250.5V176 80H80V432H496V170.5L387.9 219.7 320 250.5V176v-5.5L211.9 219.7zM208 296v80H128V296h80zm120 0v80H248V296h80zm40 0h80v80H368V296z"/></svg>