<svg xmlns="http://www.w3.org/2000/svg" viewBox="0 0 640 512"><!--! Font Awesome Pro 6.4.0 by @fontawesome - https://fontawesome.com License - https://fontawesome.com/license (Commercial License) Copyright 2023 Fonticons, Inc. --><path d="M48 112V400H592V112H48zM0 64H48 592h48v48V400v48H592 48 0V400 112 64zm328 96h52c33.1 0 60 26.9 60 60c0 9.2-2.1 17.9-5.8 25.7c13.3 11 21.8 27.6 21.8 46.3c0 33.1-26.9 60-60 60H328 304V328v-8V256 192v-8V160h24zm24 72h28c6.6 0 12-5.4 12-12s-5.4-12-12-12H352v24zm44 72c6.6 0 12-5.4 12-12s-5.4-12-12-12H380 352v24h44zM203.4 160l2.8 7.1 72 180 2 4.9H228.6L219 328H149l-9.6 24H87.8l2-4.9 72-180 2.8-7.1h38.9zm-3.7 120L184 240.6 168.2 280h31.5z"/></svg>