<svg xmlns="http://www.w3.org/2000/svg" viewBox="0 0 320 512"><!--! Font Awesome Pro 6.4.0 by @fontawesome - https://fontawesome.com License - https://fontawesome.com/license (Commercial License) Copyright 2023 Fonticons, Inc. --><path d="M32 0V48H288V0H32zM272 128V464H48V128H272zM48 80H0v48V464v48H48 272h48V464 128 80H272 48zM192 320c35.3 0 64-28.7 64-64H208c-19.1 0-36.3 8.4-48 21.7c-11.7-13.3-28.9-21.7-48-21.7H64c0 35.3 28.7 64 64 64h16 32 16zm0-96c35.3 0 64-28.7 64-64H208c-19.1 0-36.3 8.4-48 21.7c-11.7-13.3-28.9-21.7-48-21.7H64c0 35.3 28.7 64 64 64h16 32 16zm0 192c35.3 0 64-28.7 64-64H208c-19.1 0-36.3 8.4-48 21.7c-11.7-13.3-28.9-21.7-48-21.7H64c0 35.3 28.7 64 64 64h16v16 16h32V432 416h16z"/></svg>