<svg xmlns="http://www.w3.org/2000/svg" viewBox="0 0 640 512"><!--! Font Awesome Pro 6.4.0 by @fontawesome - https://fontawesome.com License - https://fontawesome.com/license (Commercial License) Copyright 2023 Fonticons, Inc. --><path d="M442.6 41.5l9.5-22L408 .5l-9.5 22-193.1 448-9.5 22 44.1 19 9.5-22 193.1-448zM1.4 96L138.1 401.8l6.4 14.2h31.1l6.4-14.2L318.6 96H266L160 333.2 54 96H1.4zm463.1 0l-6.3 14.2L321.4 416H374l28.6-64H557.4L586 416h52.6L501.9 110.2 495.6 96H464.4zM480 178.8L536 304H424l56-125.2z"/></svg>