<svg xmlns="http://www.w3.org/2000/svg" viewBox="0 0 640 512"><!--! Font Awesome Pro 6.4.0 by @fontawesome - https://fontawesome.com License - https://fontawesome.com/license (Commercial License) Copyright 2023 Fonticons, Inc. --><path d="M285.4 354.6l0 0L480 160 592 272v11.3L285.4 354.6zM480 160L368 48H592L480 160zM615.2 327.2l24.8-5.8V296 48 32 0H608 592 344 318.6l-5.8 24.8-79.5 342-.5 2-1.4 5.8-.4 .4-89 89H120V356.7l-24-10-24 10V488v24H96h56 9.9l7-7 96-96 .4-.4 5.8-1.4 2-.5 342-79.5zM0 128v48H24 72V286L0 256v96l72-30 24-10 24 10 72 30V256l-72 30V152 128H96 24 0z"/></svg>