<svg xmlns="http://www.w3.org/2000/svg" viewBox="0 0 448 512"><!--! Font Awesome Pro 6.4.0 by @fontawesome - https://fontawesome.com License - https://fontawesome.com/license (Commercial License) Copyright 2023 Fonticons, Inc. --><path d="M51.3 256H0l18-48L96 0H352l78 208 18 48H396.7 51.3zm18-48H378.7l-60-160H129.3l-60 160zM144 320V288h48v32 19.9l-13.9 13.9 0 0c-.1 .1-.4 .4-.7 .8c-.8 .9-2.1 2.3-3.7 4.3c-3.3 4.1-7.9 10.2-12.5 17.8C151.7 392.4 144 411.8 144 432c0 12.2 3.8 23.2 8.5 32H295.5c4.7-8.8 8.5-19.8 8.5-32c0-18.8-7.6-38.1-17.3-54.7c-4.7-7.9-9.4-14.4-12.8-18.7c-1.7-2.2-3.1-3.8-3.9-4.7c-.4-.5-.7-.8-.8-.9l0 0 0 0-.1-.1c0 0 0 0 0 0L256 339.2V320 288h48v32s48 50.5 48 112c0 48-32 80-32 80H128s-32-32-32-80c0-64 48-112 48-112z"/></svg>