<svg xmlns="http://www.w3.org/2000/svg" viewBox="0 0 512 512"><!--! Font Awesome Pro 6.4.0 by @fontawesome - https://fontawesome.com License - https://fontawesome.com/license (Commercial License) Copyright 2023 Fonticons, Inc. --><path d="M347.3 97.9L309.3 59.9C301.6 52.3 291.3 48 280.6 48C258.2 48 240 66.2 240 88.6c0 10.8 4.3 21.1 11.9 28.7l38.1 38.1L304 169.4v19.9 62.9L444.1 112H381.3 361.4L347.3 97.9zM381.3 64H464l14.1 14.1L512 112l-33.9 33.9L432 192l-48 48-46.1 46.1L304 320l-33.9-33.9L256 272V189.3l-13.7-13.7c-.6 .7-1.3 1.4-2 2.1l-93.1 86L204.4 464H360h24v48H360 24 0V464H24 154.5L96.9 262.6l-4.1-14.2 10.9-10 104-96c.5-.5 1-.9 1.5-1.3C198.1 126 192 107.6 192 88.6C192 39.7 231.7 0 280.6 0c23.5 0 46 9.3 62.6 25.9L381.3 64zM480 240c0 26.5-21.5 48-48 48c-14 0-26.5-6-35.3-15.5l67.8-67.8C474 213.5 480 226 480 240z"/></svg>