<svg xmlns="http://www.w3.org/2000/svg" viewBox="0 0 640 512"><!--! Font Awesome Pro 6.4.0 by @fontawesome - https://fontawesome.com License - https://fontawesome.com/license (Commercial License) Copyright 2023 Fonticons, Inc. --><path d="M272 64H0V448H272h32 16H592h48V400 112 64H592 320 304 272zm320 48V400H320V112H592zM144.9 160h30.3l3.4 8.6 47.8 119.6c.1 .3 .2 .6 .3 .9l23.8 59.6 1.4 3.4H208.9l-14.4-36H125.5l-14.4 36H68.1l1.4-3.4L93.3 289c.1-.3 .2-.6 .4-.9l47.8-119.6 3.4-8.6zM160 229.9L141.5 276h36.9L160 229.9zM476 164H436v20 4H384 364v40h20 72 34l-21.6 51.7c-2.6-2.3-5.2-4.8-7.7-7.3l-14.6-14.6L432 243.7 403.7 272l14.1 14.1 14.4 14.4L409 309.3l-18.7 7 14 37.5 18.7-7 45.3-17c2.1 1.4 4.3 2.8 6.5 4.1l18.9 11.3 17.2 10.3 20.6-34.3-17.1-10.3-12.4-7.4L533.3 228H536h20V188H536 520 476v-4V164z"/></svg>