<svg xmlns="http://www.w3.org/2000/svg" viewBox="0 0 640 512"><!--! Font Awesome Pro 6.4.0 by @fontawesome - https://fontawesome.com License - https://fontawesome.com/license (Commercial License) Copyright 2023 Fonticons, Inc. --><path d="M256 32H112 64V80 320h48V80H256V32zM384 80H528V320h48V80 32H528 384V80zM344 32H296V56 238.1l-39-39-17-17L206.1 216l17 17 80 80 17 17 17-17 80-80 17-17L400 182.1l-17 17-39 39V56 32zM83.9 432l-32-32H588.1l-32 32H83.9zM576 480l64-64V400 352H592 48 0v48 16l64 64H576z"/></svg>