<svg xmlns="http://www.w3.org/2000/svg" viewBox="0 0 640 512"><!--! Font Awesome Pro 6.4.0 by @fontawesome - https://fontawesome.com License - https://fontawesome.com/license (Commercial License) Copyright 2023 Fonticons, Inc. --><path d="M48.4 14.8L29.4 .1 0 38 19 52.7 591.5 497.2l19 14.7L639.9 474l-19-14.7-13.6-10.6L640 416V400 352H592 482.7L132.4 80H528V320h48V80 32H528 112 70.5L48.4 14.8zM544.6 400h43.6l-19 19-24.5-19zM51.9 400H385.7l-60.9-48H48 0v48 16l64 64H487.2l-60.9-48H83.9l-32-32zM112 184.4L64 146.6V320h48V184.4z"/></svg>