<svg xmlns="http://www.w3.org/2000/svg" viewBox="0 0 640 512"><!--! Font Awesome Pro 6.4.0 by @fontawesome - https://fontawesome.com License - https://fontawesome.com/license (Commercial License) Copyright 2023 Fonticons, Inc. --><path d="M112 80H528V320h48V80 32H528 112 64V80 320h48V80zM51.9 400H588.1l-32 32H83.9l-32-32zM640 416V400 352H592 48 0v48 16l64 64H576l64-64zM281 177l17-17L264 126.1l-17 17-48 48-17 17 17 17 48 48 17 17L297.9 256l-17-17-31-31 31-31zM393 143l-17-17L342.1 160l17 17 31 31-31 31-17 17L376 289.9l17-17 48-48 17-17-17-17-48-48z"/></svg>