<svg xmlns="http://www.w3.org/2000/svg" viewBox="0 0 640 512"><!--! Font Awesome Pro 6.4.0 by @fontawesome - https://fontawesome.com License - https://fontawesome.com/license (Commercial License) Copyright 2023 Fonticons, Inc. --><path d="M112 80H528V320h48V80 32H528 112 64V80 320h48V80zM51.9 400H588.1l-32 32H83.9l-32-32zM640 416V400 352H592 48 0v48 16l64 64H576l64-64zM176 128H160v16 80 16h16 64 16V224 144 128H240 176zm16 80V160h32v48H192zm112-80H288v32h16v64 16h32V224 144 128H320 304zm80 0v16 80 16h16 64 16V224 144 128H464 400 384zm32 32h32v48H416V160zM192 272H176v32h16v16h32V288 272H208 192zm256 0H432 416 400v32h16v16h32V288 272zm-80 16V272H352 288 272v16 32h32V304h32v16h32V288z"/></svg>