<svg xmlns="http://www.w3.org/2000/svg" viewBox="0 0 384 512"><!--! Font Awesome Pro 6.4.0 by @fontawesome - https://fontawesome.com License - https://fontawesome.com/license (Commercial License) Copyright 2023 Fonticons, Inc. --><path d="M168 32V97.5c7.9-1 15.9-1.5 24-1.5s16.1 .5 24 1.5V32h48v78c70.4 28.5 120 97.5 120 178H336c0-53.3-29-99.8-72-124.7V288H216l0-142c-7.8-1.3-15.8-2-24-2s-16.2 .7-24 2l0 142H120l0-124.7C77 188.2 48 234.7 48 288c0 79.5 64.5 144 144 144H384v48H192 0V432H65C25.1 396.8 0 345.3 0 288c0-80.6 49.6-149.6 120-178l0-78h48z"/></svg>