<svg xmlns="http://www.w3.org/2000/svg" viewBox="0 0 512 512"><!--! Font Awesome Pro 6.4.0 by @fontawesome - https://fontawesome.com License - https://fontawesome.com/license (Commercial License) Copyright 2023 Fonticons, Inc. --><path d="M470.3 258.4L512 248V176l-48-32 16-64L432 32 368 48 336 0H264L253.6 41.7 240 96 209.9 65.9l-9.5-9.5L176 32 142.1 65.9 128 80l6.9 48.2L144 192 96 160l-4.4 4.4L32 224l48 96 0 64v14.1L18.2 459.8l-17 17 33.9 33.9 17-17L113.9 432H128h64l96 48 59.6-59.6L352 416l-32-48 63.8 9.1L432 384l14.1-14.1L480 336l-24.4-24.4-9.5-9.5L416 272l54.3-13.6zM161.9 384L313.9 232.1l17-17-33.9-33.9-17 17L128 350.1V320 308.7l-5.1-10.1L90.4 233.5l11.7-11.7 15.3 10.2 20.8 13.9 54.2-54.2-.9-6.4-11.6-81.4 26.2 26.2 24 24L290 94l11.5-46h8.8l17.8 26.6 18.8 28.1 32.8-8.2 37.6-9.4 9.6 9.6-9.4 37.6-8.2 32.8 28.1 18.8L464 201.7v8.8L418 222l-59.9 59.9 24 24 26.2 26.2-81.4-11.6-6.4-.9-54.2 54.2 13.9 20.8 10.2 15.3-11.7 11.7-65.1-32.5L203.3 384H192 161.9z"/></svg>