<svg xmlns="http://www.w3.org/2000/svg" viewBox="0 0 640 512"><!--! Font Awesome Pro 6.4.0 by @fontawesome - https://fontawesome.com License - https://fontawesome.com/license (Commercial License) Copyright 2023 Fonticons, Inc. --><path d="M69.3 36l-20-13.3L22.7 62.7 42.7 76l48 32 20 13.3 26.6-39.9L117.3 68l-48-32zM597.3 76l20-13.3L590.7 22.7 570.7 36l-48 32-20 13.3 26.6 39.9 20-13.3 48-32zM24 192H0v48H24 72 96V192H72 24zm544 0H544v48h24 48 24V192H616 568zM448 208v96h48V208c0-97.2-78.8-176-176-176s-176 78.8-176 176v96h48V208c0-70.7 57.3-128 128-128s128 57.3 128 128zM144 432V384H496v48H144zM96 336v48 48 48h48H496h48V432 384 336H496 144 96zM320 144V112c-53 0-96 43-96 96h32c0-35.3 28.7-64 64-64z"/></svg>