<svg xmlns="http://www.w3.org/2000/svg" viewBox="0 0 512 512"><!--! Font Awesome Pro 6.4.0 by @fontawesome - https://fontawesome.com License - https://fontawesome.com/license (Commercial License) Copyright 2023 Fonticons, Inc. --><path d="M280 24V0H232V24 161.1C117.9 171.7 25.5 257.2 4.5 368C1.5 383.5 0 399.6 0 416H48 464h48c0-16.4-1.5-32.5-4.5-48C486.5 257.2 394.1 171.7 280 161.1V24zM256 208c98.4 0 180.8 68.3 202.4 160H53.6C75.2 276.3 157.6 208 256 208zm0 304c35.3 0 64-28.7 64-64H192c0 35.3 28.7 64 64 64z"/></svg>