<svg xmlns="http://www.w3.org/2000/svg" viewBox="0 0 512 512"><!--! Font Awesome Pro 6.4.0 by @fontawesome - https://fontawesome.com License - https://fontawesome.com/license (Commercial License) Copyright 2023 Fonticons, Inc. --><path d="M144 96l33.9-33.9L208 32H400h48V80v32 48H400 208l-30.1-30.1L144 96zm256 16V80H227.9l-16 16 16 16H400zM64 128a32 32 0 1 1 0-64 32 32 0 1 1 0 64zm0 160a32 32 0 1 1 0-64 32 32 0 1 1 0 64zM32 416a32 32 0 1 1 64 0 32 32 0 1 1 -64 0zm112 0l33.9-33.9L208 352H400h48v48 32 48H400 208l-30.1-30.1L144 416zm256 16V400H227.9l-16 16 16 16H400zM177.9 289.9L144 256l33.9-33.9L208 192H464h48v48 32 48H464 208l-30.1-30.1zM227.9 272H464V240H227.9l-16 16 16 16z"/></svg>