<svg xmlns="http://www.w3.org/2000/svg" viewBox="0 0 512 512"><!--! Font Awesome Pro 6.4.0 by @fontawesome - https://fontawesome.com License - https://fontawesome.com/license (Commercial License) Copyright 2023 Fonticons, Inc. --><path d="M384 84.7V128v17.2l80-21.8V62.8L384 84.7zM336 366.3V208 158.2 128 48L464 13.1 512 0V49.8 160L384 194.9V432c0 44.2-50.1 80-112 80s-112-35.8-112-80s50.1-80 112-80c23.8 0 45.9 5.3 64 14.3zm0 65.7c0-2.6-1.4-9.4-12.7-17.5c-11.2-8-29.2-14.5-51.3-14.5s-40.1 6.5-51.3 14.5C209.4 422.6 208 429.4 208 432s1.4 9.4 12.7 17.5c11.2 8 29.2 14.5 51.3 14.5s40.1-6.5 51.3-14.5c11.3-8.1 12.7-14.9 12.7-17.5zM24 48H264h24V96H264 24 0V48H24zm0 128H264h24v48H264 24 0V176H24zm0 128H136h24v48H136 24 0V304H24z"/></svg>