<svg xmlns="http://www.w3.org/2000/svg" viewBox="0 0 512 512"><!--! Font Awesome Pro 6.4.0 by @fontawesome - https://fontawesome.com License - https://fontawesome.com/license (Commercial License) Copyright 2023 Fonticons, Inc. --><path d="M80 96V2C74.9 .7 69.5 0 64 0C28.7 0 0 28.7 0 64v64c0 35.3 28.7 64 64 64l.7 0 66 44 6 4H144h32v16H131.8L87.2 233.7l-14.3-7.2L58.5 255.2l14.3 7.2 48 24 3.4 1.7H128h48v16H114.6L69.1 288.8l-15.2-5.1L43.8 314.1l15.2 5.1 48 16 2.5 .8H112h64v16H160h-3.8l-3.4 1.7-32 16-14.3 7.2 14.3 28.6 14.3-7.2L163.8 384H176l24.5 68.5C176.8 461.8 160 485 160 512H352c0-27-16.8-50.2-40.5-59.5L336 384h12.2l28.6 14.3 14.3 7.2 14.3-28.6-14.3-7.2-32-16-3.4-1.7H352 336V336h64 2.6l2.5-.8 48-16 15.2-5.1-10.1-30.4-15.2 5.1L397.4 304H336V288h48 3.8l3.4-1.7 48-24 14.3-7.2-14.3-28.6-14.3 7.2L380.2 256H336V240h32 7.3l6-4 66-44c.2 0 .5 0 .7 0c35.3 0 64-28.7 64-64V64c0-35.3-28.7-64-64-64c-5.5 0-10.9 .7-16 2V96L389.1 38.8C385.8 46.6 384 55.1 384 64v64c0 14.9 5.1 28.6 13.6 39.4L360.7 192H335.5c-2.6-22.5-16-42.9-31.5-59.2V53.6l34.6-5.8 15.8-2.6-5.3-31.6-15.8 2.6-48 8L272 26.4V40v65.6c-3.2-2.2-6.3-4.1-9-5.8c-4.3-2.6-9.7-2.6-14 0c-2.8 1.6-5.8 3.6-9 5.8V40 26.4l-13.4-2.2-48-8-15.8-2.6-5.3 31.6 15.8 2.6L208 53.6v79.2c-15.5 16.3-28.9 36.7-31.5 59.2H151.3l-36.9-24.6c8.5-10.9 13.6-24.6 13.6-39.4V64c0-8.9-1.8-17.4-5.1-25.2L80 96zM288 200v40 16 32 16 32 16 23.7L262.2 448H249.8L224 375.7V352 336 304 288 256 240 200c0-6.6 3.8-17 15.4-30.3c5.2-6 11-11.4 16.6-16c5.7 4.7 11.5 10.1 16.6 16C284.2 183 288 193.4 288 200z"/></svg>