<svg xmlns="http://www.w3.org/2000/svg" viewBox="0 0 448 512"><!--! Font Awesome Pro 6.4.0 by @fontawesome - https://fontawesome.com License - https://fontawesome.com/license (Commercial License) Copyright 2023 Fonticons, Inc. --><path d="M224 48c44.2 0 80 35.8 80 80v32H144V128c0-44.2 35.8-80 80-80zM96 128v32H48 0v48V464v48H48 400h48V464 208 160H400 352V128C352 57.3 294.7 0 224 0S96 57.3 96 128zM48 208H96h48H304h48 48V464H48V208zM283.1 440H336L250.4 254.6l-1.8-3.8L240 232H208l-8.7 18.8-1.8 3.8L112 440h52.9l18.5-40h81.3l18.5 40zM224 311.9L242.5 352h-37L224 311.9z"/></svg>