<svg xmlns="http://www.w3.org/2000/svg" viewBox="0 0 576 512"><!--! Font Awesome Pro 6.4.0 by @fontawesome - https://fontawesome.com License - https://fontawesome.com/license (Commercial License) Copyright 2023 Fonticons, Inc. --><path d="M312 32H288V80h24 48c84.6 0 154.7 62.6 166.3 144H434.6l-45.5-83.5-18-33.1-22.4 30.3-35 47.5-29.4-46.2L265 108.8l-20.6 29.4L184.2 224H80 32v48 67.2l54 24.7L4.5 480H63.1l67.2-95.8 28.7 13.1-51.2 78.1-3 4.6h57.4l41.9-64h71l-32.1 56.1-4.5 7.9h55.3l36.6-64H441.2l32 64h53.7l-1.4-2.7-31.2-62.3c46.2-6.9 81.6-46.6 81.7-94.7l0-.2V248c0-119.3-96.7-216-216-216H312zm-7.6 336l-1.3-.7-.4 .7H210.5l-52-23.8L209.1 272H311.9l.7 1.1 1.8-1.1h91.7l.3 .6 1-.6H528v48c0 26.5-21.5 48-48 48H304.4zM114 323.9L80 308.4V272h70.5L114 323.9zM242.8 224L263 195.2 281.4 224H242.8zm102 0L365 196.6l15 27.4H344.8zM496 320a24 24 0 1 0 -48 0 24 24 0 1 0 48 0z"/></svg>