<svg xmlns="http://www.w3.org/2000/svg" viewBox="0 0 512 512"><!--! Font Awesome Pro 6.4.0 by @fontawesome - https://fontawesome.com License - https://fontawesome.com/license (Commercial License) Copyright 2023 Fonticons, Inc. --><path d="M208 48a160 160 0 1 1 0 320 160 160 0 1 1 0-320zm0 368c48.8 0 93.7-16.8 129.1-44.9l124 124 17 17L512 478.1l-17-17-124-124C399.2 301.7 416 256.8 416 208C416 93.1 322.9 0 208 0S0 93.1 0 208S93.1 416 208 416zM104 216v48 24h48V264l0-48V192H104l0 24zm80-96V264v24h48V264 120 96l-48 0v24zm80 64v80 24h48V264 184 160l-48 0v24z"/></svg>