<svg xmlns="http://www.w3.org/2000/svg" viewBox="0 0 512 512"><!--! Font Awesome Pro 6.4.0 by @fontawesome - https://fontawesome.com License - https://fontawesome.com/license (Commercial License) Copyright 2023 Fonticons, Inc. --><path d="M227.2 100.7L160 0H57.7 0L32 48l87.4 131.1c12.1-10.5 25.3-19.6 39.6-27.2L89.7 48h44.6l59.6 89.4c16.4-5.1 33.7-8.3 51.6-9.2l-18.4-27.5zM480 48L512 0H454.3 352L284.8 100.7l-18.4 27.5c17.9 .9 35.2 4 51.6 9.2L377.7 48h44.6L353 152c14.3 7.5 27.5 16.7 39.6 27.2L480 48zM256 208a128 128 0 1 1 0 256 128 128 0 1 1 0-256zm0 304a176 176 0 1 0 0-352 176 176 0 1 0 0 352zm0-272l-28.2 57.2-63.1 9.2 45.7 44.5-10.8 62.8L256 384l56.4 29.7-10.8-62.8 45.7-44.5-63.1-9.2L256 240z"/></svg>