<svg xmlns="http://www.w3.org/2000/svg" viewBox="0 0 512 512"><!--! Font Awesome Pro 6.4.0 by @fontawesome - https://fontawesome.com License - https://fontawesome.com/license (Commercial License) Copyright 2023 Fonticons, Inc. --><path d="M368.7 63.3L336 96s0 0 0 0l-1.2 1.2c.3 .3 .7 .7 1 1C334.6 113.6 324.6 203.4 264 264s-150.4 70.6-165.7 71.8c-.4-.3-.7-.7-1-1L96 336s0 0 0 0L63.3 368.7 35.2 396.8l-34 34c11.8 11 24.5 21 37.9 30C87.4 493.1 145.5 512 208 512c167.9 0 304-136.1 304-304c0-62.5-18.9-120.6-51.2-168.9c-9-13.4-19-26.1-30-37.9l-34 34L368.7 63.3zm5.1 95c6.6 18 10.2 37.5 10.2 57.8c0 92.8-75.2 168-168 168c-20.3 0-39.7-3.6-57.8-10.2c3.3-.8 6.7-1.8 10.1-2.8c38-10.9 88.5-32 129.6-73.1s62.2-91.6 73.1-129.6c1-3.4 1.9-6.8 2.8-10.1zM101 398.9c33.3 21 72.7 33.1 115 33.1c119.3 0 216-96.7 216-216c0-42.3-12.1-81.7-33.1-115l27.2-27.2c24.1 39 37.9 85 37.9 134.2c0 141.4-114.6 256-256 256c-49.2 0-95.2-13.9-134.2-37.9L101 398.9z"/></svg>