<svg xmlns="http://www.w3.org/2000/svg" viewBox="0 0 576 512"><!--! Font Awesome Pro 6.4.0 by @fontawesome - https://fontawesome.com License - https://fontawesome.com/license (Commercial License) Copyright 2023 Fonticons, Inc. --><path d="M48 48H336V220.5c14.6-9.5 30.8-17 48-21.8V48 0H336 48 0V48 464v48H48 330.8c-18.3-12.9-34.1-29.2-46.3-48H48V48zM288 224H264 120 96v48h24H264h20.5c1.1-1.8 2.3-3.5 3.5-5.2V224zM120 128H96v48h24H264h24V128H264 120zm0 192H96v48h24 48 24V320H168 120zM432 512a144 144 0 1 0 0-288 144 144 0 1 0 0 288zm15.3-224v32h-32V288h32zm1.2 64v16 64l15.5 0 0 32-15.5 0H448l-32 0-16 0 0-32 16 0 .5 0V384l-.5 0-16 0 0-32 16 0 16.5 0 16 0z"/></svg>