<svg xmlns="http://www.w3.org/2000/svg" viewBox="0 0 576 512"><!--! Font Awesome Pro 6.4.0 by @fontawesome - https://fontawesome.com License - https://fontawesome.com/license (Commercial License) Copyright 2023 Fonticons, Inc. --><path d="M0 112V64H48 528h48v48 50.7c-18.6 6.6-32 24.4-32 45.3s13.4 38.7 32 45.3V400v48H528 48 0V400 253.3c18.6-6.6 32-24.4 32-45.3s-13.4-38.7-32-45.3V112zm48 24.5C67.6 154 80 179.5 80 208s-12.4 54-32 71.5V304H528V279.5c-19.6-17.6-32-43.1-32-71.5s12.4-54 32-71.5V112H48v24.5zM528 352H48v48h56V376h48v24h32V376h48v24h32V376h48v24h32V376h48v24h32V376h48v24h56V352zM192 144v24 80 24H144V248 168 144h48zm120 0v24 80 24H264V248 168 144h48zm120 0v24 80 24H384V248 168 144h48z"/></svg>