<svg xmlns="http://www.w3.org/2000/svg" viewBox="0 0 640 512"><!--! Font Awesome Pro 6.4.0 by @fontawesome - https://fontawesome.com License - https://fontawesome.com/license (Commercial License) Copyright 2023 Fonticons, Inc. --><path d="M96 384l48-24 80-40H368h48V272 48 0H368 48 0V48 272v48H48 96v10.3V368v16zM202.5 277.1L144 306.3V272H96 48V48H368V272H224 212.7l-10.1 5.1zM256 400v48h48H416l80 40 48 24V496 458.3 448h48 48V400 176 128H592 448v48H592V400H544 496v34.3l-58.5-29.3L427.3 400H416 304V352H256v48z"/></svg>