<svg xmlns="http://www.w3.org/2000/svg" viewBox="0 0 512 512"><!--! Font Awesome Pro 6.4.0 by @fontawesome - https://fontawesome.com License - https://fontawesome.com/license (Commercial License) Copyright 2023 Fonticons, Inc. --><path d="M160 512l48-32 96-64H464h48V368 48 0H464 48 0V48 368v48H48h64 48v38.3V464v48zM277.4 376.1L208 422.3V416 368H160 48V48H464V368H304 289.5l-12.1 8.1zM144 240a32 32 0 1 0 0-64 32 32 0 1 0 0 64zm144-32a32 32 0 1 0 -64 0 32 32 0 1 0 64 0zm80 32a32 32 0 1 0 0-64 32 32 0 1 0 0 64z"/></svg>