<svg xmlns="http://www.w3.org/2000/svg" viewBox="0 0 640 512"><!--! Font Awesome Pro 6.4.0 by @fontawesome - https://fontawesome.com License - https://fontawesome.com/license (Commercial License) Copyright 2023 Fonticons, Inc. --><path d="M272 480l-48 32V464v-9.7V416H176 144 96V368 208H64v16H0V160H64v16H96V48 0h48H496h48V48 176h32V160h64v64H576V208H544V368v48H496 368l-96 64zM144 368h80 48v48 6.3l69.4-46.2 12.1-8.1H368 496V192 48H144V192 368zM464 96V288H176V96H464zM240 224a32 32 0 1 0 0-64 32 32 0 1 0 0 64zm192-32a32 32 0 1 0 -64 0 32 32 0 1 0 64 0z"/></svg>