<svg xmlns="http://www.w3.org/2000/svg" viewBox="0 0 512 512"><!--! Font Awesome Pro 6.4.0 by @fontawesome - https://fontawesome.com License - https://fontawesome.com/license (Commercial License) Copyright 2023 Fonticons, Inc. --><path d="M160 464v48l48-32 96-64H464h48V368 48 0H464 48 0V48 368v48H48h64 48v38.3V464zm117.4-87.9L208 422.3V416 368H160 48V48H464V368H304 289.5l-12.1 8.1zM280 296V185.9l31 31 17 17L361.9 200l-17-17-72-72-17-17-17 17-72 72-17 17L184 233.9l17-17 31-31V296v24h48V296z"/></svg>