<svg xmlns="http://www.w3.org/2000/svg" viewBox="0 0 512 512"><!--! Font Awesome Pro 6.4.0 by @fontawesome - https://fontawesome.com License - https://fontawesome.com/license (Commercial License) Copyright 2023 Fonticons, Inc. --><path d="M256 0H160V32H128V80 272v48h32v32h96V320h32V272 80 32H256V0zM176 80h64V272H176V80zM24 464H0v48H24 320 488h24V464H488 447c39.9-35.2 65-86.7 65-144c0-106-86-192-192-192h0v48h0c79.5 0 144 64.5 144 144s-64.5 144-144 144h0H24zm72-80v48h24H296h24V384H296 120 96z"/></svg>