<svg xmlns="http://www.w3.org/2000/svg" viewBox="0 0 512 512"><!--! Font Awesome Pro 6.4.0 by @fontawesome - https://fontawesome.com License - https://fontawesome.com/license (Commercial License) Copyright 2023 Fonticons, Inc. --><path d="M48 48H224V0H48 0V48 464v48H48 304h48V464 288H304V464H48V48zm96 352H128v32h16 64 16V400H208 144zM256 48c114.9 0 208 93.1 208 208h48C512 114.6 397.4 0 256 0V48zm32 208a32 32 0 1 0 0-64 32 32 0 1 0 0 64zm80 0h48c0-88.4-71.6-160-160-160v48c61.9 0 112 50.1 112 112z"/></svg>