<svg xmlns="http://www.w3.org/2000/svg" viewBox="0 0 512 512"><!--! Font Awesome Pro 6.4.0 by @fontawesome - https://fontawesome.com License - https://fontawesome.com/license (Commercial License) Copyright 2023 Fonticons, Inc. --><path d="M320 0V48h24 54.1L286.7 159.3 191.6 77.8 175.9 64.3 160.3 77.9l-120 104 31.4 36.3 104.4-90.5 96.3 82.5 16.9 14.5L305 209l127-127V136v24h48V136 24 0H456 344 320zM103.5 304h305c3.6 29 26.6 51.9 55.5 55.5v49c-29 3.6-51.9 26.6-55.5 55.5h-305c-3.6-29-26.6-51.9-55.5-55.5v-49c28.9-3.6 51.9-26.6 55.5-55.5zM48 256H0v48V464v48H48 464h48V464 304 256H464 48zM256 448a64 64 0 1 0 0-128 64 64 0 1 0 0 128z"/></svg>