<svg xmlns="http://www.w3.org/2000/svg" viewBox="0 0 512 512"><!--! Font Awesome Pro 6.4.0 by @fontawesome - https://fontawesome.com License - https://fontawesome.com/license (Commercial License) Copyright 2023 Fonticons, Inc. --><path d="M176 0H160V16c0 44.2 35.8 80 80 80h16V80c0-44.2-35.8-80-80-80zM56 16H32V64H56h48 24V16H104 56zM24 88H0v48H24 136h24V88H136 24zm8 72v48H56h48 24V160H104 56 32zM272 0V16c0 44.2 35.8 80 80 80h16V80c0-44.2-35.8-80-80-80H272zM400 0H384V16c0 44.2 35.8 80 80 80h16V80c0-44.2-35.8-80-80-80zm80 128H464c-44.2 0-80 35.8-80 80v16h16c44.2 0 80-35.8 80-80V128zm-128 0c-44.2 0-80 35.8-80 80v16h16c44.2 0 80-35.8 80-80V128H352zm-96 0H240c-44.2 0-80 35.8-80 80v16h16c44.2 0 80-35.8 80-80V128zM48 359.5c28.9-3.6 51.9-26.6 55.5-55.5h305c3.6 29 26.6 51.9 55.5 55.5v49c-29 3.6-51.9 26.6-55.5 55.5h-305c-3.6-29-26.6-51.9-55.5-55.5v-49zM48 256H0v48V464v48H48 464h48V464 304 256H464 48zM256 448a64 64 0 1 0 0-128 64 64 0 1 0 0 128z"/></svg>