<svg xmlns="http://www.w3.org/2000/svg" viewBox="0 0 576 512"><!--! Font Awesome Pro 6.4.0 by @fontawesome - https://fontawesome.com License - https://fontawesome.com/license (Commercial License) Copyright 2023 Fonticons, Inc. --><path d="M276.1 405.2l5.6-1.4 0 0c55.2-14.1 117.5-30 182.8-28.1c4.1-31.4 30.9-55.7 63.5-55.7V144c-35.3 0-63.9-28.6-64-63.9c-49.9-1.8-103.1 11.1-164.1 26.6l-5.6 1.4c-55.2 14.1-117.5 30-182.8 28.1C107.4 167.7 80.5 192 48 192V368c35.3 0 63.9 28.6 64 63.9c49.9 1.8 103.1-11.1 164.1-26.6zM0 60.3c16 8.2 32 14.3 48 18.7c80 22.1 160 1.7 240-18.7c96-24.5 192-48.9 288 0V398.9v52.8c-16-8.2-32-14.3-48-18.7c-80-22.1-160-1.7-240 18.7c-96 24.5-192 48.9-288 0V113.1 60.3zM384 256c0 61.9-43 112-96 112s-96-50.1-96-112s43-112 96-112s96 50.1 96 112zM256 192v32h16v64h-8H248v32h16 8 32 8 16V288H312h-8V208 192H288 272 256z"/></svg>