<svg xmlns="http://www.w3.org/2000/svg" viewBox="0 0 640 512"><!--! Font Awesome Pro 6.4.0 by @fontawesome - https://fontawesome.com License - https://fontawesome.com/license (Commercial License) Copyright 2023 Fonticons, Inc. --><path d="M512 176V112l-18.5 0 0 0H160v16c0 35.3-28.7 64-64 64H80v93.5L50.7 314.7 32 333.5V112 64H80 383.6l.4 0 128 0V0h24L640 88 536 176H512zm48 144V226.5l29.3-29.3L608 178.5V400v48H560 146.5l0 0L128 448l0 64H104L0 424l104-88h24l0 64 128 0 .4 0H480V384c0-35.3 28.7-64 64-64h16zM320 160a96 96 0 1 1 0 192 96 96 0 1 1 0-192z"/></svg>