<svg xmlns="http://www.w3.org/2000/svg" viewBox="0 0 640 512"><!--! Font Awesome Pro 6.4.0 by @fontawesome - https://fontawesome.com License - https://fontawesome.com/license (Commercial License) Copyright 2023 Fonticons, Inc. --><path d="M528 80c0 35.3 28.7 64 64 64V272c-35.3 0-64 28.7-64 64H208c0-35.3-28.7-64-64-64V144c35.3 0 64-28.7 64-64H528zM144 32H96V80 336v48h48H592h48V336 80 32H592 144zM448 208a80 80 0 1 0 -160 0 80 80 0 1 0 160 0zM48 120V96H0v24V456v24H24 520h24V432H520 48V120z"/></svg>