<svg xmlns="http://www.w3.org/2000/svg" viewBox="0 0 640 512"><!--! Font Awesome Pro 6.4.0 by @fontawesome - https://fontawesome.com License - https://fontawesome.com/license (Commercial License) Copyright 2023 Fonticons, Inc. --><path d="M304 213.2L48.4 14.8 29.4 .1 0 38 19 52.7 591.5 497.2l19 14.7L639.9 474l-19-14.7L352 250.5V196.9L512 160V49.3 0L464 11.1 304 48v80 30.7V208v5.2zm48 160.1l-48-37.8v30.8c-18.1-9-40.2-14.3-64-14.3c-61.9 0-112 35.8-112 80s50.1 80 112 80s112-35.8 112-80V373.3zM352 128V86.2L464 60.3v61.5L352 147.7V128zM291.3 414.5c11.3 8.1 12.7 14.9 12.7 17.5s-1.4 9.4-12.7 17.5c-11.2 8-29.2 14.5-51.3 14.5s-40.1-6.5-51.3-14.5C177.4 441.4 176 434.6 176 432s1.4-9.4 12.7-17.5c11.2-8 29.2-14.5 51.3-14.5s40.1 6.5 51.3 14.5z"/></svg>