<svg xmlns="http://www.w3.org/2000/svg" viewBox="0 0 512 512"><!--! Font Awesome Pro 6.4.0 by @fontawesome - https://fontawesome.com License - https://fontawesome.com/license (Commercial License) Copyright 2023 Fonticons, Inc. --><path d="M512-.3V32 144 368s0 0 0 0c0 44.2-43 80-96 80s-96-35.8-96-80s43-80 96-80c17.5 0 33.9 3.9 48 10.7V176.3L192 257.9V432v0c0 44.2-43 80-96 80s-96-35.8-96-80s43-80 96-80c17.5 0 33.9 3.9 48 10.7V240 128 110.1l17.1-5.1 320-96L512-.3zM464 368c0-9.8-12.9-32-48-32s-48 22.2-48 32s12.9 32 48 32s48-22.1 48-32c0 0 0 0 0 0zM96 400c-35.1 0-48 22.2-48 32s12.9 32 48 32s48-22.1 48-32v0c0-9.8-12.9-32-48-32zm96-192.3l272-81.6V64.3L192 145.9v61.9z"/></svg>