<svg xmlns="http://www.w3.org/2000/svg" viewBox="0 0 640 512"><!--! Font Awesome Pro 6.4.0 by @fontawesome - https://fontawesome.com License - https://fontawesome.com/license (Commercial License) Copyright 2023 Fonticons, Inc. --><path d="M400 48v96H240V48H400zM240 0H192V48v96 48h48 56v40H24 0v48H24 136v40H80 32v48 96 48H80 240h48V464 368 320H240 184V280H456v40H400 352v48 96 48h48H560h48V464 368 320H560 504V280H616h24V232H616 344V192h56 48V144 48 0H400 240zM80 368H240v96H80V368zm480 0v96H400V368H560z"/></svg>