<svg xmlns="http://www.w3.org/2000/svg" viewBox="0 0 512 512"><!--! Font Awesome Pro 6.4.0 by @fontawesome - https://fontawesome.com License - https://fontawesome.com/license (Commercial License) Copyright 2023 Fonticons, Inc. --><path d="M400 80H48V432H235.3c-4.5 15.5-7.7 31.5-9.5 48H48 0V432 80 32H48 400h48V80 231.1c-16.6 3.8-32.6 9-48 15.5V80zm-32 56V262.5c-17.2 10-33.3 21.6-48 34.8V160H248v54.4c14.3 8.3 24 23.8 24 41.6c0 26.5-21.5 48-48 48s-48-21.5-48-48c0-17.8 9.7-33.3 24-41.6V136 112h24H344h24v24zM246.6 400H104 80V376 136 112h24 32 24v48H136h-8V352H272.5c-10.1 15.1-18.8 31.1-25.9 48zM512 304c-114.9 0-208 93.1-208 208H256c0-141.4 114.6-256 256-256v48zM480 448a32 32 0 1 1 0 64 32 32 0 1 1 0-64zm-80 64H352c0-88.4 71.6-160 160-160v48c-61.9 0-112 50.1-112 112z"/></svg>