<svg xmlns="http://www.w3.org/2000/svg" viewBox="0 0 576 512"><!--! Font Awesome Pro 6.4.0 by @fontawesome - https://fontawesome.com License - https://fontawesome.com/license (Commercial License) Copyright 2023 Fonticons, Inc. --><path d="M400 80H48V432H320l0 48H48 0V432 80 32H48 400h48V80v81.1c-17.7 2.5-34 9.2-48 18.9V80zm-32 56v78.3c-10.2 16.9-16 36.6-16 57.7v16H320V160H248v54.4c14.3 8.3 24 23.8 24 41.6c0 26.5-21.5 48-48 48s-48-21.5-48-48c0-17.8 9.7-33.3 24-41.6V136 112h24H344h24v24zM128 352H320l0 48H104 80V376 136 112h24 32 24v48H136h-8V352zM464 240c-17.7 0-32 14.3-32 32v48h64V272c0-17.7-14.3-32-32-32zm-80 32c0-44.2 35.8-80 80-80s80 35.8 80 80v48h32V512H352V320h32V272z"/></svg>