<svg xmlns="http://www.w3.org/2000/svg" viewBox="0 0 640 512"><!--! Font Awesome Pro 6.4.0 by @fontawesome - https://fontawesome.com License - https://fontawesome.com/license (Commercial License) Copyright 2023 Fonticons, Inc. --><path d="M48.4 14.8L29.4 .1 0 38 19 52.7 591.5 497.2l19 14.7L639.9 474l-19-14.7L544 399.6V80 32H496 144 96V51.8l-47.6-37zM144 89V80H496V362.3l-32-24.8V136 112H440 320 296v24 71l-60.6-47H256V112H232 200 176v1.9L144 89zM416 300.2l-48.4-37.6c.3-2.2 .4-4.4 .4-6.6c0-17.8-9.7-33.3-24-41.6V160h72V300.2zM487.4 480l-60.9-48H144V209.5L96 171.6V432v48h48H487.4zM385.8 400l-60.9-48H224V272.5l-48-37.8V376v24h24H385.8z"/></svg>