<svg xmlns="http://www.w3.org/2000/svg" viewBox="0 0 448 512"><!--! Font Awesome Pro 6.4.0 by @fontawesome - https://fontawesome.com License - https://fontawesome.com/license (Commercial License) Copyright 2023 Fonticons, Inc. --><path d="M164.8 38.4L400 352V464H313.9l-17-17-56-56-7-7H224 192c-35.3 0-64 28.7-64 64s28.7 64 64 64H424h24V488 344v-8l-4.8-6.4-240-320L164.8 38.4zM214.1 432l32 32H192c-8.8 0-16-7.2-16-16s7.2-16 16-16h22.1zM141 303.5l23.5-5-10.1-46.9-23.5 5-22.8 4.9C45.1 274.9 0 330.7 0 395.2c0 40.6 18 79.1 49.2 105.1l7.4 6.2 30.7-36.9-7.4-6.2C59.7 446.5 48 421.5 48 395.2c0-41.9 29.2-78 70.2-86.8l22.8-4.9z"/></svg>