<svg xmlns="http://www.w3.org/2000/svg" viewBox="0 0 512 512"><!--! Font Awesome Pro 6.4.0 by @fontawesome - https://fontawesome.com License - https://fontawesome.com/license (Commercial License) Copyright 2023 Fonticons, Inc. --><path d="M48 48H304v80h48V48 0H304 48 0V48 304v48H48h80V304H48V48zM160 384v80 48h48H464h48V464 208 160H464 384v48h80V464H208V384H160zm96-32h48 48V304 288H304v16H256v48zm96-144V160H304 288v48h16v48h48V208zM224 352l0-48H208V256H160v48 48h48 16zM160 208v16l48 0V208h48V160H208 160v48z"/></svg>