<svg xmlns="http://www.w3.org/2000/svg" viewBox="0 0 512 512"><!--! Font Awesome Pro 6.4.0 by @fontawesome - https://fontawesome.com License - https://fontawesome.com/license (Commercial License) Copyright 2023 Fonticons, Inc. --><path d="M96 48H48V96H0V48 0H48 96V48zm32 0V0h96V48H128zM0 128H48v96H0V128zm352 32v48 48 48 48H304 224 208 160V304 256 208 160h48 80 16 48zM160 416h48v48h48v48H208 160V464 416zM352 48V96H304V48H256V0h48 48V48zm64 160V160h48 48v48 48H464V208H416zM96 304v48H48 0V304 256H48v48H96zM288 464h96v48H288V464zm176 48H416V464h48V416h48v48 48H464zm48-128H464V288h48v96zM208 208v96h96V208H208z"/></svg>