<svg xmlns="http://www.w3.org/2000/svg" viewBox="0 0 448 512"><!--! Font Awesome Pro 6.4.0 by @fontawesome - https://fontawesome.com License - https://fontawesome.com/license (Commercial License) Copyright 2023 Fonticons, Inc. --><path d="M48 80V240h96V80H48zM0 32H48h96 48V80 240v48H144 48 0V240 80 32zM304 272V432h96V272H304zm-48-48h48 96 48v48V432v48H400 304 256V432 272 224zM144 368H48v64h96V368zM48 320h96 48v48 64 48H144 48 0V432 368 320H48zM304 80v64h96V80H304zM256 32h48 96 48V80v64 48H400 304 256V144 80 32z"/></svg>