<svg xmlns="http://www.w3.org/2000/svg" viewBox="0 0 512 512"><!--! Font Awesome Pro 6.4.0 by @fontawesome - https://fontawesome.com License - https://fontawesome.com/license (Commercial License) Copyright 2023 Fonticons, Inc. --><path d="M368 0L336 32l32 32 32-32L368 0zm24 200h-9.9l-7 7-57 57H231.7C242 247.8 248 228.6 248 208c0-57.4-46.6-104-104-104c-23.4 0-45 7.7-62.4 20.8l28.8 38.4c9.4-7 21-11.2 33.6-11.2c30.9 0 56 25.1 56 56s-25.1 56-56 56H88l24 48h32 12c42 0 76 34 76 76c0 41.5-33.2 75.2-74.5 76C47.5 462.6 16 368 16 368s-15.7 141.6 140 144v0c.5 0 1.1 0 1.6 0c.8 0 1.6 0 2.4 0v-.1c66.6-2.1 120-56.8 120-123.9c0-28.6-9.7-55-26-76h74 9.9l7-7 57-57H424c22.1 0 40 17.9 40 40V400c0 17.7-14.3 32-32 32c-64 0-80-48-80-48v48s0 48 80 48c44.2 0 80-35.8 80-80V288c0-48.6-39.4-88-88-88H392zm88-88V64s-66.5 32-112 32s-112-32-112-32s16 80 120 80c72 0 104-32 104-32z"/></svg>