<svg xmlns="http://www.w3.org/2000/svg" viewBox="0 0 576 512"><!--! Font Awesome Pro 6.4.0 by @fontawesome - https://fontawesome.com License - https://fontawesome.com/license (Commercial License) Copyright 2023 Fonticons, Inc. --><path d="M274.5 216L505.9 61.8l8.3 8.4L360 301.5 274.5 216zM199.1 321.6l55.4 55.4c1 4.9 1.6 9.9 1.6 15.1c0 39.8-32.2 72-72 72H112V392c0-39.8 32.2-72 72-72c5.2 0 10.2 .5 15.1 1.6zM512 0L224 192l-32 80 .3 .3c-2.7-.2-5.5-.3-8.3-.3c-66.3 0-120 53.7-120 120v24 48H48 24 16 0v48H24 48 64h48 72c66.3 0 120-53.7 120-120c0-2.8-.1-5.5-.3-8.3l.3 .3 80-32L576 64 512 0z"/></svg>