<svg xmlns="http://www.w3.org/2000/svg" viewBox="0 0 512 512"><!--! Font Awesome Pro 6.4.0 by @fontawesome - https://fontawesome.com License - https://fontawesome.com/license (Commercial License) Copyright 2023 Fonticons, Inc. --><path d="M48 48V294.7C76.3 307 96 335.2 96 368v16c0 17.7 14.3 32 32 32s32-14.3 32-32V352H128V256h96v96H192v32c0 35.3-28.7 64-64 64s-64-28.7-64-64V368c0-14.2-6.2-27-16-35.8V464H464V48H48zM0 0H48 464h48V48 464v48H464 48 0V464 48 0zM112 96h96 16v32H208 112 96V96h16zm192 0h96 16v32H400 304 288V96h16zM112 160h96 16v32H208 112 96V160h16zm192 0h96 16v32H400 304 288V160h16zm112 96V416H288V256H416z"/></svg>