<svg xmlns="http://www.w3.org/2000/svg" viewBox="0 0 384 512"><!--! Font Awesome Pro 6.4.0 by @fontawesome - https://fontawesome.com License - https://fontawesome.com/license (Commercial License) Copyright 2023 Fonticons, Inc. --><path d="M304 48h24 24V0H328 224 200 168 144C82.1 0 32 50.1 32 112s50.1 112 112 112h32v72 24h48V296 224 200 48h32l0 248v24h48V296 48zM176 48V176H144c-35.3 0-64-28.7-64-64s28.7-64 64-64h24 8zM121.5 373.2l18-15.9-31.8-36-18 15.9L20.9 398 .6 416l20.4 18 68.8 60.8 18 15.9 31.8-36-18-15.9L100.2 440H360h24V392H360 100.2l21.3-18.8z"/></svg>