<svg xmlns="http://www.w3.org/2000/svg" viewBox="0 0 640 512"><!--! Font Awesome Pro 6.4.0 by @fontawesome - https://fontawesome.com License - https://fontawesome.com/license (Commercial License) Copyright 2023 Fonticons, Inc. --><path d="M64 512l51-10.2L224 480 340.1 363.9l-38-29.9L200.3 435.8l-75.1 15 15-75.1L234.8 281l-38-29.9L96 352 74.2 461 64 512zM303.2 212.6l82.7-82.7 60.1 60.1-75.1 75.1-67.7-52.5zm105.9 82.2L542.1 161.9 576 128 542.1 94.1 481.9 33.9 448 0 414.1 33.9 265 183 48.4 14.8 29.4 .1 0 38 19 52.7 591.5 497.2l19 14.7L639.9 474l-19-14.7L409.1 294.9z"/></svg>