<svg xmlns="http://www.w3.org/2000/svg" viewBox="0 0 640 512"><!--! Font Awesome Pro 6.4.0 by @fontawesome - https://fontawesome.com License - https://fontawesome.com/license (Commercial License) Copyright 2023 Fonticons, Inc. --><path d="M160 96a48 48 0 1 0 0-96 48 48 0 1 0 0 96zm-51.1 32H94.8l-6.9 12.4-75.3 136L1 297.4l42 23.3 11.6-21L96 224.9V488v24h48V488 352h32V488v24h48V488 224.9l41.4 74.8 11.6 21 42-23.3-11.6-21-75.3-136L225.2 128H211.1 108.9zM176 304H144V176h32V304zM480 96a48 48 0 1 0 0-96 48 48 0 1 0 0 96zm-51.1 32H414.8l-6.9 12.4-75.3 136-11.6 21 42 23.3 11.6-21L416 224.9V488v24h48V488 352h32V488v24h48V488 224.9l41.4 74.8 11.6 21 42-23.3-11.6-21-75.3-136L545.2 128H531.1 428.9zM496 304H464V176h32V304z"/></svg>