<svg xmlns="http://www.w3.org/2000/svg" viewBox="0 0 576 512"><!--! Font Awesome Pro 6.4.0 by @fontawesome - https://fontawesome.com License - https://fontawesome.com/license (Commercial License) Copyright 2023 Fonticons, Inc. --><path d="M128 48A48 48 0 1 0 32 48a48 48 0 1 0 96 0zM16 128l0 24 0 336 0 24 48 0 0-24 0-136H96V488v24h48V488 285.1L96 215.7v.3 88H64l0-128h43.4l64.8 93.7 7.2 10.3H192h48 24V232H240 204.6l-64.8-93.7L132.6 128H120 40 16zM400 96a48 48 0 1 0 0-96 48 48 0 1 0 0 96zM272.6 165.5L277 184h19 40V488v24h48V488 352h32V488v24h48V488 184h40 19l4.4-18.5 32-136-46.7-11L485 136l-170 0L287.4 18.5l-46.7 11 32 136zM416 184V304H384V184h32z"/></svg>