<svg xmlns="http://www.w3.org/2000/svg" viewBox="0 0 576 512"><!--! Font Awesome Pro 6.4.0 by @fontawesome - https://fontawesome.com License - https://fontawesome.com/license (Commercial License) Copyright 2023 Fonticons, Inc. --><path d="M32 48a48 48 0 1 1 96 0A48 48 0 1 1 32 48zm365.5 70.4l8.8 2.4h0l88 24h0l13.2 3.6 3.6 13.2 22.3 81.9L577 287 543 321l-48-48-4.5-4.5-1.7-6.1-6.4-23.4-25.7 82.3 54.4 44.2 6.2 5 1.9 7.8 24 96 5.8 23.3-46.6 11.6-5.8-23.3-22.1-88.2L370 312.6c-18.1-14.7-25.2-39.1-17.8-61.2l22.7-68-35.7 17.9-20.7 55.2-10 26.6-24.6-14.3L160.7 197l62.7 285.8 6.4 29.1H180.7l-4.1-18.9L145.6 352H114.7l35.1 160H100.7L48 271.9V328v24H0V328 152 128H24 131.1h6.5l5.6 3.3L281.9 212l15.8-37 3.1-8.3 .6-.3 7.9-3.9h0l80-40h0l8.2-4.1zm30.3 58l-30 90.1c-1.1 3.2 0 6.6 2.5 8.7l16.3 13.3 32.4-103.8c.2-.8 .5-1.6 .9-2.3l-22.1-6zM76.1 176l28.1 128H135L106.9 176H76.1zM416 48a48 48 0 1 1 96 0 48 48 0 1 1 -96 0zM331.5 402.5l24.1-60.4 39 31.7-20.4 51.1-1.8 4.6L369 433l-60.8 60.8-17 17-33.9-33.9 17-17 57.3-57.3z"/></svg>