<svg xmlns="http://www.w3.org/2000/svg" viewBox="0 0 640 512"><!--! Font Awesome Pro 6.4.0 by @fontawesome - https://fontawesome.com License - https://fontawesome.com/license (Commercial License) Copyright 2023 Fonticons, Inc. --><path d="M332.2 11.3L320 4.1l-12.2 7.2L23 179.3 2.3 191.5l24.4 41.3 20.7-12.2L320 59.9 592.6 220.7l20.7 12.2 24.4-41.3L617 179.3 332.2 11.3zM496 336a40 40 0 1 0 0-80 40 40 0 1 0 0 80zm-48 16H434l-44.9-83.4L382.3 256H368 272 257.7l-6.8 12.6L206 352H192 96 81.9L75 364.3 19 465.1l-11.7 21 42 23.3 11.7-21 19-34.2V488v24h24 80 24V488 454.2l19 34.2 11.7 21 42-23.3-11.7-21-35.2-63.4 3.4-6.3 18.9-35V408v24h24 80 24V408 360.3l18.9 35 3.4 6.3L371 465.1l-11.7 21 42 23.3 11.7-21 19-34.2V488v24h24 80 24V488 454.2l19 34.2 11.7 21 42-23.3-11.7-21L565 364.3 558.1 352H544 448zm32 112V400h32v64H480zM360 200a40 40 0 1 0 -80 0 40 40 0 1 0 80 0zM304 304h32v80H304V304zM144 336a40 40 0 1 0 0-80 40 40 0 1 0 0 80zM128 464V400h32v64H128z"/></svg>