<svg xmlns="http://www.w3.org/2000/svg" viewBox="0 0 576 512"><!--! Font Awesome Pro 6.4.0 by @fontawesome - https://fontawesome.com License - https://fontawesome.com/license (Commercial License) Copyright 2023 Fonticons, Inc. --><path d="M112 48a48 48 0 1 1 96 0 48 48 0 1 1 -96 0zM94.8 128h14.1H211.1h14.1l6.9 12.4 64.1 115.7c-11.8 14.3-21.4 30.5-28.2 48.1l-2.5-4.6L224 224.9V488v24H176V488 352H144V488v24H96V488 224.9L54.6 299.6 43 320.6 1 297.4l11.6-21 75.3-136L94.8 128zM144 304h32V176H144V304zm144 64a144 144 0 1 1 288 0 144 144 0 1 1 -288 0zm222.6-32L488 313.4l-11.3 11.3L416 385.4l-28.7-28.7L376 345.4 353.4 368l11.3 11.3 40 40L416 430.6l11.3-11.3 72-72L510.6 336z"/></svg>