<svg xmlns="http://www.w3.org/2000/svg" viewBox="0 0 320 512"><!--! Font Awesome Pro 6.4.0 by @fontawesome - https://fontawesome.com License - https://fontawesome.com/license (Commercial License) Copyright 2023 Fonticons, Inc. --><path d="M154.3 .3a48 48 0 1 1 11.3 95.3A48 48 0 1 1 154.3 .3zM176 128h35.1 14.1l6.9 12.4 75.3 136 11.6 21-42 23.3-11.6-21L224 224.9V488v24H176V488 352h0V304h0V176h0V128zm-81.2 0h14.1H128h16V237.7L113.3 336H144v48h0V488v24H96V488 384H48l15-48 37-118.3L54.6 299.6 43 320.6 1 297.4l11.6-21 75.3-136L94.8 128z"/></svg>