<svg xmlns="http://www.w3.org/2000/svg" viewBox="0 0 512 512"><!--! Font Awesome Pro 6.4.0 by @fontawesome - https://fontawesome.com License - https://fontawesome.com/license (Commercial License) Copyright 2023 Fonticons, Inc. --><path d="M56 14.1v32H200V0L56 14.1zM384 160a64 64 0 1 0 0-128 64 64 0 1 0 0 128zM64 96c0 35.3 28.7 64 64 64s64-28.7 64-64c0-5.5-.7-10.9-2-16H66c-1.3 5.1-2 10.5-2 16zM345.8 272l6-32h64.3l6 32H345.8zM312 192l-15 80-9 48h48.8 94.3H480l-9-48-15-80H312zM58.7 213.1L32 320H197.8L58.7 213.1zm159 81.9L192 192H83.8L217.8 295zM272 432l96 80h16V456l104 0h24V408H488l-104 0V352H368l-96 80zM128 352v56L24 408H0l0 48H24l104 0v56h16l96-80-96-80H128z"/></svg>