<svg xmlns="http://www.w3.org/2000/svg" viewBox="0 0 384 512"><!--! Font Awesome Pro 6.4.0 by @fontawesome - https://fontawesome.com License - https://fontawesome.com/license (Commercial License) Copyright 2023 Fonticons, Inc. --><path d="M144 128a48 48 0 1 0 0-96 48 48 0 1 0 0 96zm-32 32H88v24V304c0 30.9 25.1 56 56 56h40 75l13.2 99.2L275 480h21 64 24V432H360 317l-13.2-99.2L301 312H280 208V256h56 24V208H264 208V184 160H184 112zm48 48V312H144c-4.4 0-8-3.6-8-8V208h24zM48 152V128H0v24V424v24H24 200h24V400H200 48V152z"/></svg>