<svg xmlns="http://www.w3.org/2000/svg" viewBox="0 0 512 512"><!--! Font Awesome Pro 6.4.0 by @fontawesome - https://fontawesome.com License - https://fontawesome.com/license (Commercial License) Copyright 2023 Fonticons, Inc. --><path d="M320 24l0-24H272V24v88.5L110.1 186.1 96 192.5V208 360v24h48l0-24 0-112.2L307.9 501 348.2 475 263.6 344.3 327 304l46.3 0 64.8 72.1 16.1 17.8 35.7-32.1-16.1-17.8-72-80-7.2-7.9H384l-63.7 0h-.6l-19 0-53.8-79.3 59-26.8 14.1-6.4 0-15.5 0-104zM263.9 287.2L237.5 304 176 208.9l26.6-12.1 61.3 90.4zM112 128a48 48 0 1 0 0-96 48 48 0 1 0 0 96z"/></svg>