<svg xmlns="http://www.w3.org/2000/svg" viewBox="0 0 448 512"><!--! Font Awesome Pro 6.4.0 by @fontawesome - https://fontawesome.com License - https://fontawesome.com/license (Commercial License) Copyright 2023 Fonticons, Inc. --><path d="M192 80a32 32 0 1 1 64 0 32 32 0 1 1 -64 0zm112 0A80 80 0 1 0 144 80a80 80 0 1 0 160 0zM136 192H123.9l-7.2 9.7L12.7 342.4 8 348.8v7.9 57.4 15.7L22.3 436l168 73.9L209.7 466 56 398.4V364.6L148.1 240H300.6l87.6 107.7-64 94.8-13.4 19.9 39.8 26.9 13.4-19.9 74-109.6 10-14.8-11.2-13.8-106-130.4-7.2-8.9H312 136zm56 136V304H144v24 56 13.2l11.1 7.1 88 56L249 464h7 24V416H263l-71-45.2V328zm80 56a48 48 0 1 0 0-96 48 48 0 1 0 0 96z"/></svg>