<svg xmlns="http://www.w3.org/2000/svg" viewBox="0 0 640 512"><!--! Font Awesome Pro 6.4.0 by @fontawesome - https://fontawesome.com License - https://fontawesome.com/license (Commercial License) Copyright 2023 Fonticons, Inc. --><path d="M448 48a48 48 0 1 0 -96 0 48 48 0 1 0 96 0zM208 384A80 80 0 1 1 48 384a80 80 0 1 1 160 0zM128 256a128 128 0 1 0 0 256 128 128 0 1 0 0-256zM592 384a80 80 0 1 1 -160 0 80 80 0 1 1 160 0zM512 256a128 128 0 1 0 0 256 128 128 0 1 0 0-256zM340.9 115.8l-13.4-8.5-13.1 9-72.1 49.6c-40.2 27.6-36 88.2 7.6 110l54.1 27V416v24h48V416 288 273.2l-13.3-6.6-67.4-33.7c-10.9-5.4-11.9-20.6-1.9-27.5l59-40.6 74.6 47.5L409 216h7 64 24V168H480 423l-82.1-52.2z"/></svg>