<svg xmlns="http://www.w3.org/2000/svg" viewBox="0 0 576 512"><!--! Font Awesome Pro 6.4.0 by @fontawesome - https://fontawesome.com License - https://fontawesome.com/license (Commercial License) Copyright 2023 Fonticons, Inc. --><path d="M240 0c-44.2 0-80 35.8-80 80s35.8 80 80 80c43.9 0 79.5-35.3 80-79V79c-.5-43.7-36.1-79-80-79zM160 192H144.1l-6.2 14.6-88 208-9.4 22.1 44.2 18.7 9.4-22.1L152 296.5V512h48V240h72V512h48V277.6l0-85.6H160zM208 80a32 32 0 1 1 64 0 32 32 0 1 1 -64 0zM416 0H400V32h16v96H400v16 32 16H352v48 96 48h16 32 16v48 32 48h46.5H464h48l-12-48-16-64h60V352H480V325.3L544 304V192H496v72l-16 5.3V176 128H464V0H448 416zm16 336H416 400V240h32v96z"/></svg>