<svg xmlns="http://www.w3.org/2000/svg" viewBox="0 0 512 512"><!--! Font Awesome Pro 6.4.0 by @fontawesome - https://fontawesome.com License - https://fontawesome.com/license (Commercial License) Copyright 2023 Fonticons, Inc. --><path d="M400 32a48 48 0 1 1 0 96 48 48 0 1 1 0-96zM128 128h24H325.6h9.9l7 7 16 16 17.9 17.9-18.8 16.9-87 78.1H352h24v24 96 19.7l64.2 33.3 37.1-18.5 21.5-10.7 21.5 42.9-21.5 10.7-48 24-10.9 5.5-10.9-5.6-416-216L-8.4 258.2l22.1-42.6 21.3 11.1 124.1 64.4c-4.3-11.5-2.2-25.4 8.8-35.1l90.7-80H152 128V128zM328 312H199.3L328 378.8V312z"/></svg>