<svg xmlns="http://www.w3.org/2000/svg" viewBox="0 0 576 512"><!--! Font Awesome Pro 6.4.0 by @fontawesome - https://fontawesome.com License - https://fontawesome.com/license (Commercial License) Copyright 2023 Fonticons, Inc. --><path d="M320 48a48 48 0 1 0 -96 0 48 48 0 1 0 96 0zM136 112h-8l-6.4 4.8-64 48L38.4 179.2l28.8 38.4 19.2-14.4L144 160h33.4l-31.8 95.4c-8.5 25.5 2.3 53.4 25.7 66.5l88 49.5L215.4 512h50.3l45.3-144.8 5.8-18.5-16.9-9.5-43.4-24.4 28.1-84.4 12.5 40.8 5.2 16.9H320h72 24V240H392 337.7l-26.8-87.1-3.9-12.6-12.7-3.5-88-24-3.1-.8H200 136zm55.1 158.5l34.2-102.7 27 7.4L213.8 290.7l-19-10.7c-3.3-1.9-4.9-5.9-3.7-9.5zM103.4 368H24 0v48H24h96 16.6l5.9-15.5 18-47.9-4.9-2.8c-14.1-8-25.4-19.3-33-32.6L103.4 368zM528 48V464H432V320H384V464v48h48 96 48V464 48 0H528 432 384V48 208h48V48h96z"/></svg>