<svg xmlns="http://www.w3.org/2000/svg" viewBox="0 0 512 512"><!--! Font Awesome Pro 6.4.0 by @fontawesome - https://fontawesome.com License - https://fontawesome.com/license (Commercial License) Copyright 2023 Fonticons, Inc. --><path d="M256 96a48 48 0 1 0 0-96 48 48 0 1 0 0 96zm-51.1 32H190.8l-6.9 12.4-75.3 136L97 297.4l42 23.3 11.6-21L192 224.9V488v24h48V488 352h32V488v24h48V488 224.9l41.4 74.8 11.6 21 42-23.3-11.6-21-75.3-136L321.2 128H307.1 204.9zM272 304H240V176h32V304zM57 23L40 6.1 6.1 40 23 57l64 64 17 17L137.9 104 121 87 57 23zM489 57l17-17L472 6.1 455 23 391 87l-17 17L408 137.9l17-17 64-64zM121 425l17-17L104 374.1 87 391 23 455l-17 17L40 505.9l17-17 64-64zM425 391l-17-17L374.1 408l17 17 64 64 17 17L505.9 472l-17-17-64-64z"/></svg>