<svg xmlns="http://www.w3.org/2000/svg" viewBox="0 0 384 512"><!--! Font Awesome Pro 6.4.0 by @fontawesome - https://fontawesome.com License - https://fontawesome.com/license (Commercial License) Copyright 2023 Fonticons, Inc. --><path d="M80 96A48 48 0 1 0 80 0a48 48 0 1 0 0 96zM0 488l0 24 48 0 0-24 0-109.9L1.6 341.6c-.5-.4-1.1-.9-1.6-1.3L0 488zM24 128H0v24V272.4c0 17.2 7.9 33.4 21.4 44l92.2 72.4L131.2 512h48.5L159.8 372.6l-1.4-9.5-7.6-5.9L120 332.9V328 246.2L139.8 277l7.1 11H160h32 40 8 16 80 48V240 144 96H336 240 192v48 96H173.1L108.2 139l-7.1-11H88 24zM240 240V144h96v96H256 240zM72 184V295.2L51.1 278.7c-1.9-1.5-3.1-3.8-3.1-6.3V176H72v8z"/></svg>