<svg xmlns="http://www.w3.org/2000/svg" viewBox="0 0 576 512"><!--! Font Awesome Pro 6.4.0 by @fontawesome - https://fontawesome.com License - https://fontawesome.com/license (Commercial License) Copyright 2023 Fonticons, Inc. --><path d="M216 0H192V24 208h48V48h7.6l78.9 200.8L273.1 416.7l-10 31.3H296 528v40 24h48V488 448 424 24 0H552 264 228.8 216zM528 400H328.8l46-144.7 2.6-8.1-3.1-7.9L299.2 48H528V400zM192 320V488v24h48V488 320H192zM64 128a48 48 0 1 0 0-96 48 48 0 1 0 0 96zM0 160v24V288v8.5l0 0V488v24H48V488 355.6l56 68.9V488v24h48V488 416v-8.5l-5.4-6.6L120 368.1V262.4L133.3 279l7.2 9H152h64 24V240H216 163.5l-56.8-71-7.2-9H88 24 0zM72 309L48 279.5V264 240h0V208H72V309z"/></svg>