<svg xmlns="http://www.w3.org/2000/svg" viewBox="0 0 640 512"><!--! Font Awesome Pro 6.4.0 by @fontawesome - https://fontawesome.com License - https://fontawesome.com/license (Commercial License) Copyright 2023 Fonticons, Inc. --><path d="M240 0a48 48 0 1 1 0 96 48 48 0 1 1 0-96zM360.2 63.1l12.3 20.6 46.8 78.1L576 240v96l-84 56 54 72h4.1l33-33 17-17L633.9 448l-17 17-40 40-7 7H560 440 416V464h24 46l-48-64H313.3c4.3 9.8 6.7 20.6 6.7 32c0 44.2-35.8 80-80 80H80c-44.2 0-80-35.8-80-80c0-26.2 12.6-49.4 32-64l8-16 40-80H288l24-32H280 268l-7.2-9.6L220 176H191.6l-25.7 57.7-43.9-19.5 32-72 6.3-14.3H176h56 12l7.2 9.6L292 192h56l18.7-24.9-35.3-58.8L319.1 87.8l41.2-24.7zm38.2 141.8l-.3 .2-71.8 95.7L312 320H288 109.7l-16 32H240 465.5L528 310.3V269.7L398.5 204.9zM80 400c-17.7 0-32 14.3-32 32s14.3 32 32 32H240c17.7 0 32-14.3 32-32s-14.3-32-32-32H80z"/></svg>