<svg xmlns="http://www.w3.org/2000/svg" viewBox="0 0 640 512"><!--! Font Awesome Pro 6.4.0 by @fontawesome - https://fontawesome.com License - https://fontawesome.com/license (Commercial License) Copyright 2023 Fonticons, Inc. --><path d="M416 272v96l160 32 64-160C602.7 192 486.4 96 320 96S37.3 192 0 240L64 400l160-32V272c62.3-20.8 129.7-20.8 192 0zM176 328.6L93.7 345.1 55.6 249.9C99.2 207.1 193.2 144 320 144s220.8 63.1 264.4 105.9l-38.1 95.2L464 328.6V272 237.4l-32.8-10.9c-72.2-24.1-150.2-24.1-222.4 0L176 237.4V272v56.6z"/></svg>