<svg xmlns="http://www.w3.org/2000/svg" viewBox="0 0 640 512"><!--! Font Awesome Pro 6.4.0 by @fontawesome - https://fontawesome.com License - https://fontawesome.com/license (Commercial License) Copyright 2023 Fonticons, Inc. --><path d="M336.4 369.2l31.9 18.4 26-26 33.2-33.2L521.7 366l-17.8 97.9C289.4 459.7 116.3 286.6 112.1 72L210 54.2l37.7 94.2-33.2 33.2-26 26 18.4 31.9c31 53.8 75.8 98.6 129.6 129.6zM576 336L416 272l-55.6 55.6c-46.5-26.8-85.2-65.5-112-112L304 160 240 0 64 32l0 32c0 247.4 200.6 448 448 448h32l32-176zM456 224h48V200 136h64 24V88H568 504V24 0H456V24 88H392 368v48h24 64v64 24z"/></svg>