<svg xmlns="http://www.w3.org/2000/svg" viewBox="0 0 640 512"><!--! Font Awesome Pro 6.4.0 by @fontawesome - https://fontawesome.com License - https://fontawesome.com/license (Commercial License) Copyright 2023 Fonticons, Inc. --><path d="M120 0H232h24V48H232 177.9l80 80H366.1L475.8 18.2l17-17 33.9 33.9-17 17L393 169l-7 7H376 248h-9.9l-7-7-87-87V136v24H96V136 24 0h24zM416 464V384c-62.3-20.8-129.7-20.8-192 0v80L64 512 0 352c37.3-48 153.6-144 320-144s282.7 96 320 144L576 512 416 464zM176 384V349.4l32.8-10.9c72.2-24.1 150.2-24.1 222.4 0L464 349.4V384v44.3l83.7 25.1 36.6-91.5C540.8 319.1 446.8 256 320 256S99.2 319.1 55.6 361.9l36.6 91.5L176 428.3V384z"/></svg>