<svg xmlns="http://www.w3.org/2000/svg" viewBox="0 0 576 512"><!--! Font Awesome Pro 6.4.0 by @fontawesome - https://fontawesome.com License - https://fontawesome.com/license (Commercial License) Copyright 2023 Fonticons, Inc. --><path d="M144 48V368h80V48H144zM96 0h48 80 48V32h48 24 24H528h48V80v64 24 24V464v48H528 48 0V464 80 32H48 96V0zm0 80H48V464H528V192H344 320V168 80H272V368v48H224 144 96V368 80zm432 0H368v64H528V80zM320 240h64v64H320V240zm64 96v64H320V336h64zm32-96h64v64H416V240zm64 96v64H416V336h64z"/></svg>