<svg xmlns="http://www.w3.org/2000/svg" viewBox="0 0 640 512"><!--! Font Awesome Pro 6.4.0 by @fontawesome - https://fontawesome.com License - https://fontawesome.com/license (Commercial License) Copyright 2023 Fonticons, Inc. --><path d="M240 48V304h15.6l69.1-94.2L344 183.4l19.4 26.4L380 232.4l56-85.6L456 116.1l20.1 30.7L578.8 304H592V48H240zM192 0h48H592h48V48 304v48H592 240 192V304 48 0zM136 128h24v48 88V376v8 80H352V384h48v80h64V384h48v80 48H464 400 376 352 160 136 112 48 0V464 176 128H48h64 24zm-24 48H48v64h64V176zM48 464h64V400H48v64zm0-112h64V288H48v64zM304 80a32 32 0 1 1 0 64 32 32 0 1 1 0-64z"/></svg>