<svg xmlns="http://www.w3.org/2000/svg" viewBox="0 0 640 512"><!--! Font Awesome Pro 6.4.0 by @fontawesome - https://fontawesome.com License - https://fontawesome.com/license (Commercial License) Copyright 2023 Fonticons, Inc. --><path d="M592 48H240V272h15.6l69.1-94.2L344 151.4l19.4 26.4 10.3 14 63.7-78.9L456 89.8l18.7 23.1 37.6 46.6L368 207.6V320H240 192V272 48 0h48H592h48V48v69l-48 16V48zM160 400H326c-2.2 1.4-4.4 2.9-6.5 4.5c-13.8 10.3-25.3 25.3-29.7 43.5H160 136 112 48 0V400 160 112H48h64 24 24v48 72 88 8 72zM304 80a32 32 0 1 1 0 64 32 32 0 1 1 0-64zM112 208V160H48v48h64zm0 192V352H48v48h64zm0-96V256H48v48h64zM640 152v33.3 48 160c0 1.2-.1 2.4-.3 3.6c.2 1.5 .3 2.9 .3 4.4c0 26.5-28.7 48-64 48s-64-21.5-64-48s28.7-48 64-48c5.5 0 10.9 .5 16 1.5V266.6l-144 48V465.3c0 26.5-28.7 48-64 48s-64-21.5-64-48s28.7-48 64-48c5.5 0 10.9 .5 16 1.5V297.3v-48V232l16.4-5.5 192-64L640 152z"/></svg>