<svg xmlns="http://www.w3.org/2000/svg" viewBox="0 0 512 512"><!--! Font Awesome Pro 6.4.0 by @fontawesome - https://fontawesome.com License - https://fontawesome.com/license (Commercial License) Copyright 2023 Fonticons, Inc. --><path d="M272 24V0H224V24 48H24 0V72 176v17.3l16.4 5.5L96 225.3V488v24h24H232h24V488 408h96v80 24h24H488h24V488 248 224H488 272V96 48 24zM48 96H224V221.2l-23.3 9.3-25.6-12.8-6.4-3.2-6.7 2.7L144 224.4V208 190.7l-16.4-5.5L48 158.7V96zM205.9 262.9l18.1-7.2V272h24H464v30.1l-8.8-4.4-6.4-3.2-6.7 2.7-33.3 13.3-25.6-12.8-6.4-3.2-6.7 2.7-33.3 13.3-25.6-12.8-6.4-3.2-6.7 2.7-33.3 13.3-25.6-12.8-6.4-3.2-6.7 2.7-33.3 13.3-25.6-12.8-6.4-3.2-6.7 2.7-10.1 4V258.8l23.3-9.3 25.6 12.8 6.4 3.2 6.7-2.7zM144 335.6l15.3-6.1 25.6 12.8 6.4 3.2 6.7-2.7 33.3-13.3 25.6 12.8 6.4 3.2 6.7-2.7 33.3-13.3 25.6 12.8 6.4 3.2 6.7-2.7 33.3-13.3 25.6 12.8 6.4 3.2 6.7-2.7 33.3-13.3 16.7 8.4v54.5l-18.1-7.2-6.7-2.7-6.4 3.2-25.6 12.8-7.3-2.9V384 360H376 232 208v24 11.6l-7.3 2.9-25.6-12.8-6.4-3.2-6.7 2.7L144 392.4V335.6zm0 91.2l23.3-9.3 25.6 12.8 6.4 3.2 6.7-2.7 2.1-.8v34H144V426.8zm296.7-9.3l23.3 9.3V464H400V430l2.1 .8 6.7 2.7 6.4-3.2 25.6-12.8zM176 168a24 24 0 1 0 0-48 24 24 0 1 0 0 48z"/></svg>