<svg xmlns="http://www.w3.org/2000/svg" viewBox="0 0 640 512"><!--! Font Awesome Pro 6.4.0 by @fontawesome - https://fontawesome.com License - https://fontawesome.com/license (Commercial License) Copyright 2023 Fonticons, Inc. --><path d="M48 96v24 8H320 464v-8V96h48v24 32 40.7c-5.3-.5-10.6-.7-16-.7c-10.9 0-21.6 1-32 2.9V176H320 48V336H322.9c-1.9 10.4-2.9 21.1-2.9 32c0 5.4 .2 10.7 .7 16H48v8 24H0V392 360 152 120 96H48zM352 368a144 144 0 1 1 288 0 144 144 0 1 1 -288 0zm222.6-32L552 313.4l-11.3 11.3L480 385.4l-28.7-28.7L440 345.4 417.4 368l11.3 11.3 40 40L480 430.6l11.3-11.3 72-72L574.6 336z"/></svg>