<svg xmlns="http://www.w3.org/2000/svg" viewBox="0 0 640 512"><!--! Font Awesome Pro 6.4.0 by @fontawesome - https://fontawesome.com License - https://fontawesome.com/license (Commercial License) Copyright 2023 Fonticons, Inc. --><path d="M501.1 0h2 11.5H616h24V48H616 528.2L413.1 238.3l8.7 6.1 19.4 13.6-13.3 19.6L318.7 438.3c-31.3 46.1-83.3 73.7-139 73.7H168C75.2 512 0 436.8 0 344V200 176H24 248h24v24 41.4l37-48.1 14-18.2 18.8 13.2 6.2 4.3L495 10.2 501.1 0zM48 224V344c0 66.3 53.7 120 120 120h11.7c39.8 0 77-19.7 99.3-52.6l95.9-141.3L333 240.8l-66 85.8L224 312V224H48z"/></svg>