<svg xmlns="http://www.w3.org/2000/svg" viewBox="0 0 640 512"><!--! Font Awesome Pro 6.4.0 by @fontawesome - https://fontawesome.com License - https://fontawesome.com/license (Commercial License) Copyright 2023 Fonticons, Inc. --><path d="M320 .1l17.5 18.7 72 76.8 6.5 6.9V112v73.5l53 34.3 11 7.1V240 464H592V357.1l-80-51.8V248.1l117 75.7 11 7.1V344 488v24H616 384v0H224v0H24 0V488 344 330.9l11-7.1 117-75.7v57.2L48 357.1V464H160V240 226.9l11-7.1 53-34.3V112v-9.5l6.5-6.9 72-76.8L320 .1zM272 121.5v77.1 13.1l-11 7.1-53 34.3V464h64V368c0-26.5 21.5-48 48-48s48 21.5 48 48v96h64V253.1l-53-34.3-11-7.1V198.6 121.5L320 70.3l-48 51.2z"/></svg>