<svg xmlns="http://www.w3.org/2000/svg" viewBox="0 0 576 512"><!--! Font Awesome Pro 6.4.0 by @fontawesome - https://fontawesome.com License - https://fontawesome.com/license (Commercial License) Copyright 2023 Fonticons, Inc. --><path d="M562.1 219.3c7.6 9.5 13.9 22 13.9 36.7c0 29.1-23 49.4-41.4 60.4C514.9 328.2 490.2 336 470 336H370.5L276.8 499.9 269.9 512H256l-80 0H144.2l8.7-30.6L194.5 336 164 336l-40.8 54.4L116 400H104 32-1.3L9.2 368.4 46.7 256 9.2 143.6-1.3 112H32h72l12 0 7.2 9.6L164 176l30.5 0L152.9 30.6 144.2 0 176 0l80 0 13.9 0 6.9 12.1L370.5 176l99.5 0c20.3 0 45.1 8.1 64.6 20c10 6.1 19.9 13.8 27.5 23.3zM509.8 237c-14-8.5-30.2-13-39.7-13l-113.5 0H342.6l-6.9-12.1L242.1 48H207.8l41.5 145.4 8.7 30.6-31.8 0L152 224H140l-7.2-9.6L92 160H65.3l29.5 88.4 2.5 7.6-2.5 7.6L65.3 352H92l40.8-54.4L140 288h12l74.3 0h31.8l-8.7 30.6L207.8 464h34.3l93.7-163.9 6.9-12.1h13.9H470c9.7 0 26-4.4 39.8-12.8C525 266.1 528 258.4 528 256c0-.6-.2-2.8-3.3-6.7c-3.1-3.9-8.1-8.2-14.9-12.3z"/></svg>