<svg xmlns="http://www.w3.org/2000/svg" viewBox="0 0 576 512"><!--! Font Awesome Pro 6.4.0 by @fontawesome - https://fontawesome.com License - https://fontawesome.com/license (Commercial License) Copyright 2023 Fonticons, Inc. --><path d="M576 256c0-14.7-6.3-27.2-13.9-36.7c-7.6-9.5-17.4-17.3-27.5-23.3c-19.6-11.9-44.3-20-64.6-20l-99.5 0-27.4-48H368V64H306.5L276.8 12.1 269.9 0H256 176 144.2l8.7 30.6L194.5 176 164 176l-40.8-54.4L116 112l-12 0H32-1.3L9.2 143.6 36.7 226C24.6 230.6 16 242.3 16 256s8.6 25.4 20.7 30L9.2 368.4-1.3 400H32h72 12l7.2-9.6L164 336l30.5 0L152.9 481.4 144.2 512H176l80 0h13.9l6.9-12.1L306.5 448H368V384H343.1l27.4-48H470c20.2 0 44.9-7.8 64.5-19.6C553 305.4 576 285.1 576 256zM470 224c9.5 0 25.8 4.6 39.7 13c6.7 4.1 11.8 8.4 14.9 12.3c3.1 3.9 3.3 6.1 3.3 6.7c0 2.4-3 10.1-18.1 19.2C496 283.6 479.8 288 470 288H356.6 342.6l-6.9 12.1L242.1 464H207.8l41.5-145.4 8.7-30.6H226.3L152 288H140l-7.2 9.6L92 352H65.3l29.5-88.4 2.5-7.6-2.5-7.6L65.3 160H92l40.8 54.4L140 224h12l74.3 0 31.8 0-8.7-30.6L207.8 48h34.3l93.7 163.9 6.9 12.1h13.9L470 224z"/></svg>