<svg xmlns="http://www.w3.org/2000/svg" viewBox="0 0 640 512"><!--! Font Awesome Pro 6.4.0 by @fontawesome - https://fontawesome.com License - https://fontawesome.com/license (Commercial License) Copyright 2023 Fonticons, Inc. --><path d="M283.3 13.9C292.8 6.3 305.3 0 320 0c29.1 0 49.4 23.1 60.4 41.4C392.2 61.1 400 85.8 400 106v51.5l163.9 93.7 12.1 6.9V272v80 31.8l-30.6-8.7-52.2-14.9 127.7 99.1 19 14.7-29.4 37.9-19-14.7L19 52.7 0 38 29.4 .1l19 14.7L235.5 160.1l4.5-2.6V106c0-20.3 8.1-45.1 20-64.6c6.1-10 13.8-19.9 23.3-27.5zm-6.8 178l115 89.3 136.5 39V285.9L364.1 192.3 352 185.4V171.4 106c0-9.7-4.4-26-12.8-39.8C330.1 51 322.4 48 320 48c-.6 0-2.8 .2-6.7 3.3c-3.9 3.1-8.2 8.1-12.3 14.9c-8.5 14-13 30.2-13 39.7v65.5 13.9l-11.5 6.6zM416 423.8l48 37.8V488v24H440 424h-3.6l-3.4-1.1L320 481.1l-96.9 29.8-3.4 1.1H216 200 176V488 416 404l9.6-7.2L240 356l0-22.5L94.6 375.1 64 383.8V352 272 258.1l12.1-6.9 70-40 40.7 32L112 285.9v34.3L238.6 284 288 322.9l0 45.1v12l-9.6 7.2L224 428v32.4l88.9-27.4 7.1-2.2 7.1 2.2L416 460.4V423.8z"/></svg>