<svg xmlns="http://www.w3.org/2000/svg" viewBox="0 0 640 512"><!--! Font Awesome Pro 6.4.0 by @fontawesome - https://fontawesome.com License - https://fontawesome.com/license (Commercial License) Copyright 2023 Fonticons, Inc. --><path d="M176 33.4l-8.7-3.1-8.5 3.6-96 40L20 91.6l39.2 24.7L192 199.9 151 221.4l-45.5-19.5-11.9-5.1L82.7 204l-48 32L11.3 251.6l19.1 20.7 96 104 7.1 7.7H144 256h5.9l5.2-2.8L524.5 246.1c45.3-23.8 81.5-61.7 103.1-108c19.6-42-11-90.1-57.4-90.1H519.5c-24.6 0-48.8 6-70.5 17.4L375.1 104 176 33.4zm-52.1 67l44.7-18.6L369 152.8l9.9 3.5 9.3-4.9 83.1-43.5c14.9-7.8 31.4-11.9 48.3-11.9h50.8c11.2 0 18.6 11.6 13.9 21.8c-17.2 36.8-46 67-81.9 85.8L250.1 336H154.5L84.7 260.4l13.8-9.2 44.1 18.9 10.5 4.5 10.1-5.3 88.1-46.2 36.9-19.4-35.3-22.2L124 100.4zM24 464H0v48H24 616h24V464H616 24z"/></svg>