<svg xmlns="http://www.w3.org/2000/svg" viewBox="0 0 640 512"><!--! Font Awesome Pro 6.4.0 by @fontawesome - https://fontawesome.com License - https://fontawesome.com/license (Commercial License) Copyright 2023 Fonticons, Inc. --><path d="M219.3 13.9C228.8 6.3 241.3 0 256 0c29.1 0 49.4 23.1 60.4 41.4C328.2 61.1 336 85.8 336 106v51.5l91 52c-16.1 7.9-30.9 18.1-43.8 30.3l-83.1-47.5L288 185.4V171.4 106c0-9.7-4.4-26-12.8-39.8C266.1 51 258.4 48 256 48c-.6 0-2.8 .2-6.7 3.3c-3.9 3.1-8.2 8.1-12.3 14.9c-8.5 14-13 30.2-13 39.7v65.5 13.9l-12.1 6.9L48 285.9v34.3l145.4-41.5 30.6-8.7v31.8l0 66.3v12l-9.6 7.2L160 428v32.4l88.9-27.4 7.1-2.2 7.1 2.2 91.8 28.3c12.5 19.9 29 37.2 48.2 50.7H384 360h-3.6l-3.4-1.1L256 481.1l-96.9 29.8-3.4 1.1H152 136 112V488 416 404l9.6-7.2L176 356l0-22.5L30.6 375.1 0 383.8V352 272 258.1l12.1-6.9L176 157.5V106c0-20.3 8.1-45.1 20-64.6c6.1-10 13.8-19.9 23.3-27.5zm99.3 264.8l29 8.3c-12.5 24.2-19.6 51.7-19.6 80.8c0 16.3 2.2 32 6.3 47l-36.7-27.6L288 380V368 301.7 269.9l30.6 8.7zM496 224a144 144 0 1 1 0 288 144 144 0 1 1 0-288zm16 224V416H480v32h32zm0-176H480v16 80 16h32V368 288 272z"/></svg>