<svg xmlns="http://www.w3.org/2000/svg" viewBox="0 0 576 512"><!--! Font Awesome Pro 6.4.0 by @fontawesome - https://fontawesome.com License - https://fontawesome.com/license (Commercial License) Copyright 2023 Fonticons, Inc. --><path d="M120 24V0H72V24v88h48V24zm192 0V0H264V24v88h48V24zM24 144H0v48H24h8v64c0 80.2 59 146.6 136 158.2V512h48V414.2c15.2-2.3 29.7-6.7 43.1-12.9c-2.1-10.8-3.1-21.9-3.1-33.3c0-7.1 .4-14.1 1.2-20.9C238.9 360.2 216.3 368 192 368c-61.9 0-112-50.1-112-112V192H304v55.2c13.8-14.6 30-26.8 48-36V192h8 24V144H360h-8H304 80 32 24zM432 512a144 144 0 1 0 0-288 144 144 0 1 0 0 288zm24-224l-10.7 64H512L408 448l10.7-64H352l104-96z"/></svg>