<svg xmlns="http://www.w3.org/2000/svg" viewBox="0 0 576 512"><!--! Font Awesome Pro 6.4.0 by @fontawesome - https://fontawesome.com License - https://fontawesome.com/license (Commercial License) Copyright 2023 Fonticons, Inc. --><path d="M288 368a144 144 0 1 1 288 0 144 144 0 1 1 -288 0zm214.6-48L480 297.4l-11.3 11.3L432 345.4l-36.7-36.7L384 297.4 361.4 320l11.3 11.3L409.4 368l-36.7 36.7L361.4 416 384 438.6l11.3-11.3L432 390.6l36.7 36.7L480 438.6 502.6 416l-11.3-11.3L454.6 368l36.7-36.7L502.6 320zM120 0V24v88H72V24 0h48zM312 0V24v88H264V24 0h48zM0 144H24h8H80 304h48 8 24v48H360h-8v19.2c-18 9.2-34.2 21.4-48 36V192H80v64c0 61.9 50.1 112 112 112c24.3 0 46.9-7.8 65.2-20.9c-.8 6.9-1.2 13.9-1.2 20.9c0 11.4 1.1 22.5 3.1 33.3c-13.5 6.2-28 10.7-43.1 12.9V512H168V414.2C91 402.6 32 336.2 32 256V192H24 0V144z"/></svg>