<svg xmlns="http://www.w3.org/2000/svg" viewBox="0 0 384 512"><!--! Font Awesome Pro 6.4.0 by @fontawesome - https://fontawesome.com License - https://fontawesome.com/license (Commercial License) Copyright 2023 Fonticons, Inc. --><path d="M208 0V16 32H320V64h32v48V464h32v48H352 304 80 32 0V464H32V112 64H64V32H176V16 0h32zM80 464H304V112H80V464zm24-328h32v32H104V136zm0 48h32v32H104V184zm80-48v32H152V136h32zm-32 48h32v32H152V184zm80-48v32H200V136h32zm0 48v32H200V184h32zm16-48h32v32H248V136zm32 48v32H248V184h32zM104 232h80v80H104V232z"/></svg>