<svg xmlns="http://www.w3.org/2000/svg" viewBox="0 0 640 512"><!--! Font Awesome Pro 6.4.0 by @fontawesome - https://fontawesome.com License - https://fontawesome.com/license (Commercial License) Copyright 2023 Fonticons, Inc. --><path d="M128 48A48 48 0 1 0 32 48a48 48 0 1 0 96 0zM592 80v64H480V80H592zM272 32H224V80v64 48h48H592h48V144 80 32H592 272zM592 368v64H352V368H592zM272 320H224v48 64 48h48H592h48V432 368 320H592 272zM80 384a48 48 0 1 0 0-96 48 48 0 1 0 0 96zM32 128L0 224H160l-32-96H32zM160 512l-32-96H32L0 512H160z"/></svg>