<svg xmlns="http://www.w3.org/2000/svg" viewBox="0 0 448 512"><!--! Font Awesome Pro 6.4.0 by @fontawesome - https://fontawesome.com License - https://fontawesome.com/license (Commercial License) Copyright 2023 Fonticons, Inc. --><path d="M161.2 0h33.6c58.8 0 132.5 41.8 140.5 121.2C364.2 135.7 384 165.5 384 200v6.6c37.4 14.4 64 50.7 64 93.2V376v24H424 341l11-8.3V352h48V299.8c0-25.9-19-47.3-43.7-51.2L336 245.4V224.9 200c0-18.6-12.7-34.3-30-38.7l-18.7-4.8 .7-19.3c0-.5 0-1 0-1.5c0-40.2-26.7-68.8-58.4-81c1.3 5.6 2.4 11.6 2.4 16.8c0 37.8-19.4 60.9-38.8 73.5c-18.2 11.9-36.2 14.6-37.8 14.8l-1.7 .2H152h0c-22.1 0-40 17.9-40 40v24.9 20.5l-20.3 3.2C67 252.5 48 274 48 299.8V352H64v48H24 0V376 299.8c0-42.5 26.6-78.8 64-93.2V200c0-47.8 38.1-86.7 85.6-88c2.8-.6 10.2-2.6 17.5-7.3c8.6-5.6 17-14.8 17-33.3c0 0 0 0 0 0c0-.3-.2-1.5-.7-4c-.6-2.8-1.5-6.1-2.6-9.9c-2.2-7.4-4.9-15.2-7-21.1l-.1-.2 0 0 0-.1c-.5-1.6-1.1-3.1-1.5-4.3L161.2 0zM184 384H96V360L272 224 232 352h88v24L144 512l40-128z"/></svg>