<svg xmlns="http://www.w3.org/2000/svg" viewBox="0 0 448 512"><!--! Font Awesome Pro 6.4.0 by @fontawesome - https://fontawesome.com License - https://fontawesome.com/license (Commercial License) Copyright 2023 Fonticons, Inc. --><path d="M32 156c0 1.3 .1 2.7 .2 4h87.6H328.2h87.6c.1-1.3 .2-2.7 .2-4c0-20.9-14.5-38.3-34-42.9c1.3-4.2 2-8.6 2-13.1c0-24.3-19.7-44-44-44c-1.9 0-3.7 .1-5.6 .3C329.3 37.7 312.3 24 292 24c-8.5 0-16.5 2.4-23.2 6.6C261.8 12.7 244.4 0 224 0s-37.8 12.7-44.8 30.6C172.5 26.4 164.5 24 156 24c-20.3 0-37.3 13.7-42.4 32.3c-1.8-.2-3.7-.3-5.6-.3c-24.3 0-44 19.7-44 44c0 4.6 .7 9 2 13.1c-19.5 4.5-34 22-34 42.9zm85.5 308l-56-224h39.8l46.1 192h32.9L134.2 240H208V416v16h32V416 240h73.8L267.7 432h32.9l46.1-192h39.8l-56 224h-213zM224 192H49.5 0l12 48L80 512H368l68-272 12-48H398.5 224z"/></svg>