<svg xmlns="http://www.w3.org/2000/svg" viewBox="0 0 640 512"><!--! Font Awesome Pro 6.4.0 by @fontawesome - https://fontawesome.com License - https://fontawesome.com/license (Commercial License) Copyright 2023 Fonticons, Inc. --><path d="M112 0H64V24c0 45.1 21.2 69 37.7 87.5l.4 .4C117.5 129.3 128 141.5 128 168v24h48V168c0-45.1-21.2-69-37.7-87.5l-.4-.4C122.5 62.7 112 50.5 112 24V0zM224 0H176V24c0 45.1 21.2 69 37.7 87.5l.4 .4C229.5 129.3 240 141.5 240 168v24h48V168c0-45.1-21.2-69-37.7-87.5l-.4-.4C234.5 62.7 224 50.5 224 24V0zm16 464V443.1l-26.7-13.2c-55.1-27.3-93.9-82.4-97.8-147.5l-.6-10.3H525.1l-.6 10.3c-3.8 65.1-42.7 120.3-97.8 147.5L400 443.1V464H240zM65.9 256H40 16v48H40 69.5C80.2 378.6 127.4 440.9 192 472.9V512h48H400h48V472.9c64.6-32 111.8-94.3 122.5-168.9H600h24V256H600 574.1l1.9-32H527.9 112.1 64l1.9 32zM432 112c-50.7 0-93.6 33.7-107.4 80H539.4c-13.8-46.3-56.6-80-107.4-80z"/></svg>