<svg xmlns="http://www.w3.org/2000/svg" viewBox="0 0 448 512"><!--! Font Awesome Pro 6.4.0 by @fontawesome - https://fontawesome.com License - https://fontawesome.com/license (Commercial License) Copyright 2023 Fonticons, Inc. --><path d="M24 0H0V24 200v96 24H48V296 224h78.1l128 128L146.2 459.8l-17 17 33.9 33.9 17-17L288 385.9 395.8 493.8l17 17 33.9-33.9-17-17L321.9 352 429.8 244.2l17-17-33.9-33.9-17 17L288 318.1l-95.3-95.3C246.6 214.7 288 168.2 288 112C288 50.1 237.9 0 176 0H24zM176 176H48V48H176c35.3 0 64 28.7 64 64s-28.7 64-64 64z"/></svg>