<svg xmlns="http://www.w3.org/2000/svg" viewBox="0 0 448 512"><!--! Font Awesome Pro 6.4.0 by @fontawesome - https://fontawesome.com License - https://fontawesome.com/license (Commercial License) Copyright 2023 Fonticons, Inc. --><path d="M112 0h24H248h24V24 40h64 9.9l7 7 56 56 17 17L392 153.9l-17-17-49-49H272v40H224V48H160v80H112V24 0zM80.1 512H32l3.3-48L56 160H328l20.7 304 3.3 48H303.9 80.1zm220.5-48L283.2 208H100.8L83.4 464H300.6zM192 272l43.7 54.2c7.9 9.8 12.3 22 12.3 34.7c0 30.5-24.7 55.2-55.2 55.2h-1.7c-30.5 0-55.2-24.7-55.2-55.2c0-12.6 4.3-24.9 12.3-34.7L192 272z"/></svg>