<svg xmlns="http://www.w3.org/2000/svg" viewBox="0 0 640 512"><!--! Font Awesome Pro 6.4.0 by @fontawesome - https://fontawesome.com License - https://fontawesome.com/license (Commercial License) Copyright 2023 Fonticons, Inc. --><path d="M280 88h24V64H280V88zm0 14.4l15.8 18.1 8.2-7.2V102.4H280zm80 0H336v10.9l8.2 7.2L360 102.4zM360 88V64H336V88h24zm144 0h24V64H504V88zm0 128H480v24h24V216zm26.5 0v24h13.6l7-11.6L530.5 216zm0 80l20.6-12.4-7-11.6H530.5v24zM504 296V272H480v24h24zm0 128v24h24V424H504zm-144 0H336v24h24V424zm0-14.4l-15.8-18.1-8.2 7.2v10.9h24zm-80 0h24V398.7l-8.2-7.2L280 409.6zm0 14.4v24h24V424H280zm-144 0H112v24h24V424zm0-128h24V272H136v24zm-26.5 0V272H95.9l-7 11.6L109.5 296zm0-80L88.9 228.4l7 11.6h13.6V216zm26.5 0v24h24V216H136zm0-128V64H112V88h24zm120 0v14.4h48V88H256zm8.2-3.7C249.8 96.9 240 115.1 240 136h48c0-5.3 2.4-10.8 7.8-15.5L264.2 84.3zM240 136c0 43.1 39.4 72 80 72V160c-21.3 0-32-14.1-32-24H240zm80 72c40.6 0 80-28.9 80-72H352c0 9.9-10.7 24-32 24v48zm80-72c0-20.9-9.8-39.1-24.2-51.7l-31.6 36.1c5.4 4.7 7.8 10.3 7.8 15.5h48zm-16-33.6V88H336v14.4h48zM360 112H504V64H360v48zM480 88V216h48V88H480zm24 152h26.5V192H504v48zm47.1-11.6c5.8-9.6 12.4-12.4 16.9-12.4V168c-25.8 0-46.2 15.9-58 35.6l41.1 24.7zM568 216c4 0 9.5 2.1 14.7 9.1s9.3 17.9 9.3 30.9h48c0-22.4-6.8-43.5-18.9-59.7S590.5 168 568 168v48zm24 40c0 13-4 23.8-9.3 30.9s-10.7 9.1-14.7 9.1v48c22.5 0 41-12.2 53.1-28.3S640 278.4 640 256H592zm-24 40c-4.5 0-11.2-2.8-16.9-12.4L510 308.4c11.8 19.7 32.2 35.6 58 35.6V296zm-37.5-24H504v48h26.5V272zM480 296V424h48V296H480zm24 104H360v48H504V400zM384 424V409.6H336V424h48zm-8.2 3.7C390.2 415.1 400 396.9 400 376H352c0 5.3-2.4 10.8-7.8 15.5l31.6 36.1zM400 376c0-43.1-39.4-72-80-72v48c21.3 0 32 14.1 32 24h48zm-80-72c-40.6 0-80 28.9-80 72h48c0-9.9 10.7-24 32-24V304zm-80 72c0 20.9 9.8 39.1 24.2 51.7l31.6-36.1c-5.4-4.7-7.8-10.3-7.8-15.5H240zm16 33.6V424h48V409.6H256zm24-9.6H136v48H280V400zM160 424V296H112V424h48zM136 272H109.5v48H136V272zM88.9 283.6C83.2 293.2 76.5 296 72 296v48c25.8 0 46.2-15.9 58-35.6L88.9 283.6zM72 296c-4 0-9.5-2.1-14.7-9.1S48 269 48 256H0c0 22.4 6.8 43.5 18.9 59.7S49.5 344 72 344V296zM48 256c0-13 4-23.8 9.3-30.9s10.7-9.1 14.7-9.1V168c-22.5 0-41 12.2-53.1 28.3S0 233.6 0 256H48zm24-40c4.5 0 11.2 2.8 16.9 12.4L130 203.6C118.2 183.9 97.8 168 72 168v48zm37.5 24H136V192H109.5v48zM160 216V88H112V216h48zM136 112H280V64H136v48z"/></svg>