<svg xmlns="http://www.w3.org/2000/svg" viewBox="0 0 512 512"><!--! Font Awesome Pro 6.4.0 by @fontawesome - https://fontawesome.com License - https://fontawesome.com/license (Commercial License) Copyright 2023 Fonticons, Inc. --><path d="M512 0V208H432v16c0 17.7-14.3 32-32 32s-32-14.3-32-32V208l-64 0V144h32c17.7 0 32-14.3 32-32s-14.3-32-32-32H304V0H512zM0 240V64H224v80h16c17.7 0 32 14.3 32 32s-14.3 32-32 32H224v80H160V256c0-17.7-14.3-32-32-32s-32 14.3-32 32v32H48V464H224V416H208c-17.7 0-32-14.3-32-32s14.3-32 32-32h16V288h80v32c0 17.7 14.3 32 32 32s32-14.3 32-32V288h80V512H256 224 24 0V488 288 240z"/></svg>