<svg xmlns="http://www.w3.org/2000/svg" viewBox="0 0 512 512"><!--! Font Awesome Pro 6.4.0 by @fontawesome - https://fontawesome.com License - https://fontawesome.com/license (Commercial License) Copyright 2023 Fonticons, Inc. --><path d="M192 109.5h24V95.9l-11.6-7L192 109.5zm0 10.5v24h24V120H192zM24 120V96H0v24H24zm0 120H0v24H24V240zm14.4 0v24H49.3l7.2-8.2L38.4 240zm0 80l18.1-15.8L49.3 296H38.4v24zM24 320V296H0v24H24zm0 168H0v24H24V488zm168 0v24h24V488H192zm0-14.4h24V462.7l-8.2-7.2L192 473.6zm80 0l-15.8-18.1-8.2 7.2v10.9h24zm0 14.4H248v24h24V488zm120 0v24h24V488H392zm0-168V296H368v24h24zm10.5 0l20.6-12.4-7-11.6H402.5v24zm0-80v24h13.6l7-11.6L402.5 240zM392 240H368v24h24V240zm0-120h24V96H392v24zm-120 0H248v24h24V120zm0-10.5L259.6 88.9l-11.6 7v13.6h24zM204.4 88.9C194.8 83.2 192 76.5 192 72H144c0 25.8 15.9 46.2 35.6 58l24.7-41.1zM216 120V109.5H168V120h48zM24 144H192V96H24v48zm24 96V120H0V240H48zM24 264H38.4V216H24v48zm32.5-8.2c4.7-5.4 10.3-7.8 15.5-7.8V200c-20.9 0-39.1 9.8-51.7 24.2l36.1 31.6zM72 248c9.9 0 24 10.7 24 32h48c0-40.6-28.9-80-72-80v48zm24 32c0 21.3-14.1 32-24 32v48c43.1 0 72-39.4 72-80H96zM72 312c-5.3 0-10.8-2.4-15.5-7.8L20.3 335.8C32.9 350.2 51.1 360 72 360V312zM38.4 296H24v48H38.4V296zM48 488V320H0V488H48zm144-24H24v48H192V464zm-24 9.6V488h48V473.6H168zM152 440c0 20.9 9.8 39.1 24.2 51.7l31.6-36.1c-5.4-4.7-7.8-10.3-7.8-15.5H152zm80-72c-40.6 0-80 28.9-80 72h48c0-9.9 10.7-24 32-24V368zm80 72c0-43.1-39.4-72-80-72v48c21.3 0 32 14.1 32 24h48zm-24.2 51.7C302.2 479.1 312 460.9 312 440H264c0 5.3-2.4 10.8-7.8 15.5l31.6 36.1zM296 488V473.6H248V488h48zm96-24H272v48H392V464zM368 320V488h48V320H368zm34.5-24H392v48h10.5V296zM440 320c-4.5 0-11.2-2.8-16.9-12.4L382 332.4c11.8 19.7 32.2 35.6 58 35.6V320zm24-40c0 13-4 23.8-9.3 30.9s-10.7 9.1-14.7 9.1v48c22.5 0 41-12.2 53.1-28.3S512 302.4 512 280H464zm-24-40c4 0 9.5 2.1 14.7 9.1s9.3 17.9 9.3 30.9h48c0-22.4-6.8-43.5-18.9-59.7S462.5 192 440 192v48zm-16.9 12.4c5.8-9.6 12.4-12.4 16.9-12.4V192c-25.8 0-46.2 15.9-58 35.6l41.1 24.7zM392 264h10.5V216H392v48zM368 120V240h48V120H368zm-96 24H392V96H272v48zm-24-34.5V120h48V109.5H248zM272 72c0 4.5-2.8 11.2-12.4 16.9L284.4 130C304.1 118.2 320 97.8 320 72H272zM232 48c13 0 23.8 4 30.9 9.3s9.1 10.7 9.1 14.7h48c0-22.5-12.2-41-28.3-53.1S254.4 0 232 0V48zM192 72c0-4 2.1-9.5 9.1-14.7S219 48 232 48V0c-22.4 0-43.5 6.8-59.7 18.9S144 49.5 144 72h48z"/></svg>