<svg xmlns="http://www.w3.org/2000/svg" viewBox="0 0 448 512"><!--! Font Awesome Pro 6.4.0 by @fontawesome - https://fontawesome.com License - https://fontawesome.com/license (Commercial License) Copyright 2023 Fonticons, Inc. --><path d="M0 216C0 149.7 53.7 96 120 96h16 24v48H136 120c-39.8 0-72 32.2-72 72v8h96 48v48 96 48H144 48 0V368 320 272 224v-8zm48 56v48 48h96V272H48zm352 0H304v48 48h96V272zM256 320V272 224v-8c0-66.3 53.7-120 120-120h16 24v48H392 376c-39.8 0-72 32.2-72 72v8h96 48v48 96 48H400 304 256V368 320z"/></svg>