<svg xmlns="http://www.w3.org/2000/svg" viewBox="0 0 448 512"><!--! Font Awesome Pro 6.4.0 by @fontawesome - https://fontawesome.com License - https://fontawesome.com/license (Commercial License) Copyright 2023 Fonticons, Inc. --><path d="M448 296c0 66.3-53.7 120-120 120H312 288V368h24 16c39.8 0 72-32.2 72-72v-8H304 256V240 144 96h48 96 48v48 48 48 48 8zm-48-56V192 144H304v96h96zM48 240h96V192 144H48v96zm144-48v48 48 8c0 66.3-53.7 120-120 120H56 32V368H56 72c39.8 0 72-32.2 72-72v-8H48 0V240 144 96H48h96 48v48 48z"/></svg>