<svg xmlns="http://www.w3.org/2000/svg" viewBox="0 0 512 512"><!--! Font Awesome Pro 6.4.0 by @fontawesome - https://fontawesome.com License - https://fontawesome.com/license (Commercial License) Copyright 2023 Fonticons, Inc. --><path d="M224 0L203.2 0l-2.9 20.6L196.5 47c-7.8 54.3 8.4 108.9 43.5 150.1v20.6c-66.8 20.7-119.8 73-141.4 139.4C90.3 353.8 81.4 352 72 352c-39.8 0-72 32.2-72 72s32.2 72 72 72c5.5 0 10.9-.6 16-1.8V512h24 96l96 0h40 16.6l0 0h13.6 93.3 42.4L488 475.7l-17.1-28.6L385 304h63 24V280 191.1 179.7l-8.8-7.2L404 124.3c-6.1-4.9-12.5-9.3-19.3-13c10.8-26.9 14.5-56.5 10.3-86L391.4 0l-40 0L340.3 11c-5.8 5.7-11.1 11.9-15.8 18.3c14.7 21.4 25.1 45.4 30.7 70.4c-8.4-2.1-17-3.4-25.7-3.7c-8.2-29.3-23.8-56.6-46.2-78.8L272.9 7l-7-7L256 0 224 0zM88.7 406.7c-.4 5.7-.7 11.4-.7 17.3v17.9c-4.2 3.8-9.9 6.1-16 6.1c-13.3 0-24-10.7-24-24s10.7-24 24-24c6.5 0 12.4 2.6 16.7 6.7zm231.3 31V464H304l-96 0H136V424c0-80.8 57-148.2 133-164.3l19-4V236.2 187.9v-9.6l-6.6-6.9C251.8 140.1 237.8 96.8 244 53.8l.8-5.8 1.3 0 3.4 3.4 3.3-3.4-3.3 3.4c20.4 20.2 33.2 46.2 37.2 73.7l3.8 25.9 25.5-6c2.7-.6 5.5-1 8.5-1c17.9 0 35.3 6.2 49.3 17.5l50.3 41V256H360 336v24 28.9 6.6l3.4 5.7L425.1 464H387.7l-19.2-32-4-6.6-17.8-29.7-12.2-20.4L320 351.1l-.9-1.4-21.7 20.6-21.5 20.4L232.2 432h60.2H304h16v5.7zM352 208a16 16 0 1 0 0-32 16 16 0 1 0 0 32z"/></svg>