<svg xmlns="http://www.w3.org/2000/svg" viewBox="0 0 512 512"><!--! Font Awesome Pro 6.4.0 by @fontawesome - https://fontawesome.com License - https://fontawesome.com/license (Commercial License) Copyright 2023 Fonticons, Inc. --><path d="M485.7 55.3L509 49.6 497.6 3 474.3 8.7l-456 112L0 125.2V128v16 32V304v24V464v48H48 464h48V464 176 128H464 189.8l296-72.7zM48 272H464V464H48V328 304 272zM368 432a64 64 0 1 0 0-128 64 64 0 1 0 0 128zM80 320v32H96 224h16V320H224 96 80zm16 64v32h16 96 16V384H208 112 96z"/></svg>