<svg xmlns="http://www.w3.org/2000/svg" viewBox="0 0 512 512"><!--! Font Awesome Pro 6.4.0 by @fontawesome - https://fontawesome.com License - https://fontawesome.com/license (Commercial License) Copyright 2023 Fonticons, Inc. --><path d="M485.7 55.3L509 49.6 497.6 3 474.3 8.7l-456 112L0 125.2V128v16 32V304v24V464v48H48 464h48V464 176 128H464 189.8l296-72.7zM48 176H464V464H48V328 304 176zM352 288a32 32 0 1 1 0 64 32 32 0 1 1 0-64zm0 112a80 80 0 1 0 0-160 80 80 0 1 0 0 160zM112 240H96v32h16 96 16V240H208 112zM96 304H80v32H96 224h16V304H224 96zm16 64H96v32h16 96 16V368H208 112z"/></svg>