<svg xmlns="http://www.w3.org/2000/svg" viewBox="0 0 640 512"><!--! Font Awesome Pro 6.4.0 by @fontawesome - https://fontawesome.com License - https://fontawesome.com/license (Commercial License) Copyright 2023 Fonticons, Inc. --><path d="M48 464l300.5 0c12.3 18.8 28 35.1 46.3 48L48 512H0V464 208 160H48l416 0h48v32.7c-5.3-.5-10.6-.7-16-.7c-26.2 0-51.1 5.7-73.4 16L48 208l0 256zM464 80v48L48 128V80l416 0zM416 0V48L96 48V0H416zM352 368a144 144 0 1 1 288 0 144 144 0 1 1 -288 0zm224.7 77.7L552 416H440l-24.7 29.7c20.4 21.2 49 34.3 80.7 34.3s60.3-13.2 80.7-34.3zM544 336a48 48 0 1 0 -96 0 48 48 0 1 0 96 0z"/></svg>