<svg xmlns="http://www.w3.org/2000/svg" viewBox="0 0 448 512"><!--! Font Awesome Pro 6.4.0 by @fontawesome - https://fontawesome.com License - https://fontawesome.com/license (Commercial License) Copyright 2023 Fonticons, Inc. --><path d="M24 0H0V48H24 64V72v40h40H344h40V72 48h40 24V0H424 384 344 104 64 24zm80 72V48H344V72H104zM24 464H0v48H24 64h40H344h40 40 24V464H424 384V440 400H344 104 64v40 24H24zm320 0H104V440H344v24zM64 176H384V144H64v32zm0 64H432h16V208H432 64v32zm0 64H384V272H64v32zm0 64H384V336H64v32z"/></svg>