<svg xmlns="http://www.w3.org/2000/svg" viewBox="0 0 640 512"><!--! Font Awesome Pro 6.4.0 by @fontawesome - https://fontawesome.com License - https://fontawesome.com/license (Commercial License) Copyright 2023 Fonticons, Inc. --><path d="M95.6 432L196.2 80H296v24 24h48V104 80h99.8l32.3 113.1c6.5-.7 13.2-1.1 19.9-1.1c10.4 0 20.6 .9 30.5 2.6L480 32H344 296 160L45.7 432 32 480H81.9 360.2c-21.9-26.6-36.2-59.7-39.5-96H296v24 24H95.6zM344 216V192H296v24 80 24h30.6c4.1-14.4 10-28.1 17.4-40.8V216zM496 512a144 144 0 1 0 0-288 144 144 0 1 0 0 288zm16-240v16 80 16H480V368 288 272h32zm0 176H480V416h32v32z"/></svg>