<svg xmlns="http://www.w3.org/2000/svg" viewBox="0 0 640 512"><!--! Font Awesome Pro 6.4.0 by @fontawesome - https://fontawesome.com License - https://fontawesome.com/license (Commercial License) Copyright 2023 Fonticons, Inc. --><path d="M95.6 432L196.2 80H296v24 24h48V104 80h99.8l27.3 95.5c13.6-8.1 29.1-13.3 45.6-15L480 32H344 296 160L45.7 432 32 480H81.9 384l0-48H344V408 384H296v24 24H95.6zM344 216V192H296v24 80 24h48V296 216zm184 24c17.7 0 32 14.3 32 32v48H496V272c0-17.7 14.3-32 32-32zm-80 32v48H416V512H640V320H608V272c0-44.2-35.8-80-80-80s-80 35.8-80 80z"/></svg>