<svg xmlns="http://www.w3.org/2000/svg" viewBox="0 0 640 512"><!--! Font Awesome Pro 6.4.0 by @fontawesome - https://fontawesome.com License - https://fontawesome.com/license (Commercial License) Copyright 2023 Fonticons, Inc. --><path d="M95.6 432L196.2 80H296v24 24h48V104 80h99.8l32.3 113.1c6.5-.7 13.2-1.1 19.9-1.1c10.4 0 20.6 .9 30.5 2.6L480 32H344 296 160L45.7 432 32 480H81.9 360.2c-21.9-26.6-36.2-59.7-39.5-96H296v24 24H95.6zM344 216V192H296v24 80 24h30.6c4.1-14.4 10-28.1 17.4-40.8V216zM640 368a144 144 0 1 0 -288 0 144 144 0 1 0 288 0zm-65.4-32l-11.3 11.3-72 72L480 430.6l-11.3-11.3-40-40L417.4 368 440 345.4l11.3 11.3L480 385.4l60.7-60.7L552 313.4 574.6 336z"/></svg>