<svg xmlns="http://www.w3.org/2000/svg" viewBox="0 0 640 512"><!--! Font Awesome Pro 6.4.0 by @fontawesome - https://fontawesome.com License - https://fontawesome.com/license (Commercial License) Copyright 2023 Fonticons, Inc. --><path d="M344 24V0H296V24 96H144 96v48V464v48h48H496h48V464 144 96H496 344V24zM296 144h48H496V464H144V144H296zM64 224H0V416H64V224zm576 0H576V416h64V224zM192 384v32h16 32 16V384H240 208 192zm144 0H304 288v32h16 32 16V384H336zm64 0H384v32h16 32 16V384H432 400zM280 256a40 40 0 1 0 -80 0 40 40 0 1 0 80 0zm120 40a40 40 0 1 0 0-80 40 40 0 1 0 0 80z"/></svg>