<svg xmlns="http://www.w3.org/2000/svg" viewBox="0 0 512 512"><!--! Font Awesome Pro 6.4.0 by @fontawesome - https://fontawesome.com License - https://fontawesome.com/license (Commercial License) Copyright 2023 Fonticons, Inc. --><path d="M48 464V67.9l66.7 66.7-14.1 14.1L89.4 160 112 182.6l11.3-11.3 14.1-14.1 57.4 57.4-14.1 14.1L169.4 240 192 262.6l11.3-11.3 14.1-14.1 57.4 57.4-14.1 14.1L249.4 320 272 342.6l11.3-11.3 14.1-14.1 57.4 57.4-14.1 14.1L329.4 400 352 422.6l11.3-11.3 14.1-14.1L444.1 464H48zM0 0V48 464v48H48 464h48V464L48 0H0zM128 256V384H256L128 256z"/></svg>