<svg xmlns="http://www.w3.org/2000/svg" viewBox="0 0 512 512"><!--! Font Awesome Pro 6.4.0 by @fontawesome - https://fontawesome.com License - https://fontawesome.com/license (Commercial License) Copyright 2023 Fonticons, Inc. --><path d="M288 272H240V224l0-176V0H192 48 0V48 272 464v48H48 240l224 0h48V464 320 272H464 288zm96 48v64 16h32V384 320h48V464l-224 0H48l0-192L48 48l144 0 0 48-64 0H112v32h16l64 0v64H128l-16 0v32h16l64 0 0 48 0 16H128 112v32h16 64l0 64v16h32V384 320h16 48v64 16h32V384 320h64z"/></svg>