<svg xmlns="http://www.w3.org/2000/svg" viewBox="0 0 512 512"><!--! Font Awesome Pro 6.4.0 by @fontawesome - https://fontawesome.com License - https://fontawesome.com/license (Commercial License) Copyright 2023 Fonticons, Inc. --><path d="M0 32H24h96c75.1 0 136 60.9 136 136c0 62.4-42 115-99.3 131l57.9 181H164.2L107.9 304H48V480H0V280 56 32zM48 256h72c48.6 0 88-39.4 88-88s-39.4-88-88-88H48V256zm264-96h88c61.9 0 112 50.1 112 112s-50.1 112-112 112H336V488v24H288V488 184 160h24zm88 176c35.3 0 64-28.7 64-64s-28.7-64-64-64H336V336h64z"/></svg>