<svg xmlns="http://www.w3.org/2000/svg" viewBox="0 0 512 512"><!--! Font Awesome Pro 6.4.0 by @fontawesome - https://fontawesome.com License - https://fontawesome.com/license (Commercial License) Copyright 2023 Fonticons, Inc. --><path d="M382.9 48L360.2 80.9 333 120.4c8.2 5.3 17.8 11.7 28.2 19.4C422.6 185.5 512 274.8 512 416v48 48H464 48 0V464 416C0 274.8 89.4 185.5 150.8 139.9c10.4-7.7 20-14.2 28.2-19.4L151.8 80.9 129.1 48 96 0h58.3H357.7 416L382.9 48zM464 416c0-139-102.9-220.6-156.9-255.2L293.3 152H218.7l-13.8 8.8C150.9 195.4 48 277 48 416v48H464V416zM286 104l7.5-10.8L324.6 48H187.4l31.1 45.2L226 104h60z"/></svg>