<svg xmlns="http://www.w3.org/2000/svg" viewBox="0 0 384 512"><!--! Font Awesome Pro 6.4.0 by @fontawesome - https://fontawesome.com License - https://fontawesome.com/license (Commercial License) Copyright 2023 Fonticons, Inc. --><path d="M384 512l-7.5-48L321.3 110.7C311.3 47 256.5 0 192 0S72.7 47 62.7 110.7L7.5 464 0 512H48.6 335.4 384zm-56.1-48H56.1L98.6 192H285.4l42.5 272zM192 48a16 16 0 1 1 0 32 16 16 0 1 1 0-32zM128 96a16 16 0 1 1 32 0 16 16 0 1 1 -32 0zM240 80a16 16 0 1 1 0 32 16 16 0 1 1 0-32z"/></svg>