<svg xmlns="http://www.w3.org/2000/svg" viewBox="0 0 512 512"><!--! Font Awesome Pro 6.4.0 by @fontawesome - https://fontawesome.com License - https://fontawesome.com/license (Commercial License) Copyright 2023 Fonticons, Inc. --><path d="M464 112v32H48V112H464zM48 64H0v48 32 48H48 464h48V144 112 64H464 48zM464 400H48V368H464v32zM48 320H0v48 32 48H48 464h48V400 368 320H464 48zm94.2-103.2l-5.8-1.5-5.8 1.3-104 24L3.2 246 14 292.8l23.4-5.4 98.2-22.7 114.2 30.5 6.2 1.6 6.2-1.6 114.2-30.5 98.2 22.7 23.4 5.4L508.8 246l-23.4-5.4-104-24-5.8-1.3-5.8 1.5L256 247.2 142.2 216.8z"/></svg>