<svg xmlns="http://www.w3.org/2000/svg" viewBox="0 0 640 512"><!--! Font Awesome Pro 6.4.0 by @fontawesome - https://fontawesome.com License - https://fontawesome.com/license (Commercial License) Copyright 2023 Fonticons, Inc. --><path d="M151.1 44.9c12-13.7 21.7-22.4 21.7-22.4s67.2 60.5 67.2 112c0 14.7-2.8 28.7-7.9 41.5H176.8c8.9-15.4 9.3-35.4 .2-52.1c-1.4-2.8-2.8-5.6-4.9-8.4l-25.2 29.4s-40.6-51.8-43.4-55.3C82.5 115.5 72 130.2 72 147c0 11.2 2.7 21 7.5 29H23.9c-5.1-12.8-7.9-26.8-7.9-41.5C16 72.6 105.6 .1 105.6 .1s22.8 18.5 45.5 44.8zM0 208H19.7 24 40 232h16 18.3H272v48H248.8l-20.2 55.4 1 .8L318 224l-16-16L336 174.1l16 16L366 176l-16-16L384 126.1l16 16L414 128l-16-16L432 78.1l16 16 23-23 7-7H488h88 9.9l7 7 40 40 7 7V128v32 24H616 539.1L312.2 449.8c-33.7 39.5-83 62.2-134.9 62.2h-5.5C76.9 512 0 435.1 0 340.2c0-9.5 .8-18.9 2.3-28.2l9.3-56H0V208zm448-46.1L433.9 176l0 0L400 209.9l0 0L385.9 224l0 0L352 257.9l0 0L249 360.8l-14.7 14.7-16.6-12.4-32-23.8-14.3-10.7 6.1-16.8L197.7 256H60.3L49.7 319.9c-1.1 6.7-1.7 13.5-1.7 20.3C48 408.6 103.4 464 171.8 464h5.5c37.8 0 73.8-16.6 98.3-45.4L509.7 144.4l7.2-8.4H528h62.1l-24-24H497.9l-16 16 0 0L448 161.9l0 0zM96 312a24 24 0 1 1 48 0 24 24 0 1 1 -48 0z"/></svg>