<svg xmlns="http://www.w3.org/2000/svg" viewBox="0 0 640 512"><!--! Font Awesome Pro 6.4.0 by @fontawesome - https://fontawesome.com License - https://fontawesome.com/license (Commercial License) Copyright 2023 Fonticons, Inc. --><path d="M240 80c0 2.8 .1 5.5 .4 8.3L112.7 129.1l-22.9 7.3 14.6 45.7 22.9-7.3 132.3-42.3c9.6 11 22.1 19.4 36.4 23.8V488v24h24H520h24V464H520 344V156.3c30.1-9.5 52.5-36.2 55.6-68.6L527.3 46.9 512.7 1.1 389.6 40.5C375.8 16.3 349.8 0 320 0c-44.2 0-80 35.8-80 80zM97.5 224l-6.7 12.9-88 168L0 410.1V416v32 9.9l7 7 40 40 7 7H64 192h9.9l7-7 40-40 7-7V448l0-32v-5.9l-2.7-5.2-88-168L158.5 224H144 112 97.5zm29 48h3l75.4 144H51.1l75.4-144zM496 96H481.5l-6.7 12.9-88 168-2.7 5.2V288v32 9.9l7 7 40 40 7 7H448 576h9.9l7-7 40-40 7-7V320 288v-5.9l-2.7-5.2-88-168L542.5 96H528 496zM435.1 288l75.4-144h3l75.4 144H435.1zM320 48a32 32 0 1 1 0 64 32 32 0 1 1 0-64z"/></svg>