<svg xmlns="http://www.w3.org/2000/svg" viewBox="0 0 576 512"><!--! Font Awesome Pro 6.4.0 by @fontawesome - https://fontawesome.com License - https://fontawesome.com/license (Commercial License) Copyright 2023 Fonticons, Inc. --><path d="M576 32H416V80H576V32zM118 413.7L64.3 382.1 132.6 256h73.6L118 413.7zM261.2 256H304h48V208 80 32H304 112C50.1 32 0 82.1 0 144c0 50.9 34 93.9 80.4 107.5L0 400l94.6 55.7L136 480l23.4-41.9L261.2 256zM416 192v48H576V192H416zM576 432H416v48H576V432zM416 128v32H576V128H416zM576 288H416v32H576V288zM416 352v32H576V352H416zM112 80H304V208H288 233 112c-35.3 0-64-28.7-64-64s28.7-64 64-64z"/></svg>