<svg xmlns="http://www.w3.org/2000/svg" viewBox="0 0 512 512"><!--! Font Awesome Pro 6.4.0 by @fontawesome - https://fontawesome.com License - https://fontawesome.com/license (Commercial License) Copyright 2023 Fonticons, Inc. --><path d="M128 0V64h48V0H128zM304 0V64h48V0H304zM256 0H224V64h32V0zM384 0V288h32V0H384zM512 0H464V288h48V0zM48 144H304V464H48V144zm0-48H0v48V464v48H48 304h48V464 144 96H304 48zM272 256V176H80v80H272zM160 304H80v48h80V304zM80 384v48h80V384H80zm192-80H192v48h80V304zm-80 80v48h80V384H192z"/></svg>