<svg xmlns="http://www.w3.org/2000/svg" viewBox="0 0 576 512"><!--! Font Awesome Pro 6.4.0 by @fontawesome - https://fontawesome.com License - https://fontawesome.com/license (Commercial License) Copyright 2023 Fonticons, Inc. --><path d="M312 0H416V96H318.1l89.6 64H552h24v24V488v24H552 336 240 24 0V488 184 160H24 168.3L264 91.6V24 0h24 24zM528 464V208H400h-7.7l-6.3-4.5-98.1-70-98.1 70-6.3 4.5H176 48V464H240V400c0-26.5 21.5-48 48-48s48 21.5 48 48v64H528zM240 240a48 48 0 1 1 96 0 48 48 0 1 1 -96 0zm-80 16v64H96V256h64zm256 0h64v64H416V256zM160 352v64H96V352h64zm320 0v64H416V352h64z"/></svg>