<svg xmlns="http://www.w3.org/2000/svg" viewBox="0 0 640 512"><!--! Font Awesome Pro 6.4.0 by @fontawesome - https://fontawesome.com License - https://fontawesome.com/license (Commercial License) Copyright 2023 Fonticons, Inc. --><path d="M466.7 144l-11.4-6.8L320 56 184.7 137.2 173.3 144H160 48V464H256V384c0-35.3 28.7-64 64-64s64 28.7 64 64v80H592V144H480 466.7zM592 96h48v48V464v48H592 48 0V464 144 96H48 160L320 0 480 96H592zM160 192v96H96V192h64zm320 0h64v96H480V192zM160 320v96H96V320h64zm320 0h64v96H480V320zM240 192a80 80 0 1 1 160 0 80 80 0 1 1 -160 0zm96-48H304v16 32 16h16 24 16V176H344h-8V160 144z"/></svg>