<svg xmlns="http://www.w3.org/2000/svg" viewBox="0 0 640 512"><!--! Font Awesome Pro 6.4.0 by @fontawesome - https://fontawesome.com License - https://fontawesome.com/license (Commercial License) Copyright 2023 Fonticons, Inc. --><path d="M80 320a16 16 0 1 1 32 0 16 16 0 1 1 -32 0zm80 0A64 64 0 1 0 32 320a64 64 0 1 0 128 0zm32 192l-32-96H32L0 512H192zM304 320a16 16 0 1 1 32 0 16 16 0 1 1 -32 0zm80 0a64 64 0 1 0 -128 0 64 64 0 1 0 128 0zm32 192l-32-96H256l-32 96H416zM544 304a16 16 0 1 1 0 32 16 16 0 1 1 0-32zm0 80a64 64 0 1 0 0-128 64 64 0 1 0 0 128zm64 32H480l-32 96H640l-32-96zM560 48H80V225.3c-18.3 3.1-34.8 11.3-48 23.1V48 0H80 560h48V48 248.4c-13.2-11.8-29.7-20.1-48-23.1V48z"/></svg>