<svg xmlns="http://www.w3.org/2000/svg" viewBox="0 0 576 512"><!--! Font Awesome Pro 6.4.0 by @fontawesome - https://fontawesome.com License - https://fontawesome.com/license (Commercial License) Copyright 2023 Fonticons, Inc. --><path d="M48 112c0-17.7 14.3-32 32-32s32 14.3 32 32V400c0 44.2 35.8 80 80 80H496c44.2 0 80-35.8 80-80V328 304H552h-.7-.7-.7-.7-.7-.7-.7-.7-.7-.7-.7-.7-.7-.7-.7H541h-.7-.7H539h-.7-.7H537h-.7-.7H535h-.7-.7H533h-.7-.7H531h-.7-.7H529h-.7-.7H527h-.7-.7-.6-.7-.6-.6-.6-.6-.6-.6-.6-.6-.6H518h-.6-.6-.6-.6-.6-.6-.6-.6-.6-.6H511h-.6-.6-.6-.6-.6-.6-.6H506h-.6-.6-.6-.6-.6-.6-.6H501h-.6-.6-.6-.6-.6-.6-.6-.6-.6-.6-.6-.6-.6-.6-.6-.6-.6H490h-.6-.6-.6-.6H487h-.6-.6-.6-.6H484h-.6-.6-.6-.6-.6-.6-.6-.6-.6-.6-.6H477h-.6-.6-.6-.6H474h-.6-.6-.6-.6-.6-.6-.6-.6-.6-.6-.6-.6-.6-.6-.6-.6-.6-.6H463h-.6-.6-.6-.6-.6-.6H459h-.6-.6-.6-.6-.6-.6-.6-.6-.6-.6-.6-.6-.6-.6-.6H450h-.6-.6-.6-.6-.6-.6-.6-.6-.6-.6-.6-.6-.6-.6-.6H441h-.6-.6-.6-.6-.6-.6-.6-.6H436h-.6-.6-.6-.6-.6-.6-.6-.6-.6-.6H430h-.6-.5-.6-.6-.5-.6-.5-.5H425h-.6-.5-.5-.5-.5-.5-.5-.5-.5-.5H419h-.5-.5-.5-.5-.5-.5-.5-.5-.5-.5H413h-.5-.5-.5-.5-.5-.5-.5-.5-.5-.5-.5-.5H406h-.5-.5-.5-.5-.5-.5-.5-.5-.5-.5H400h-.5-.5-.5-.5-.5-.5-.5-.5-.5-.5H394h-.5-.5-.5-.5-.5-.5-.5-.5-.5-.5-.5-.5H387h-.5-.5-.5-.5-.5-.5-.5-.5-.5-.5H381h-.5-.5-.5-.5-.5-.5-.5-.5-.5-.5H375h-.5-.5-.5-.6-.5-.6-.6-.5H370h-.6-.6-.6-.6-.6-.6-.6-.6-.6-.6H364h-.6-.6-.6-.6-.6-.6-.6-.6H359h-.6-.6-.6-.6-.6-.6-.6-.6-.6-.6-.6-.6-.6-.6-.6H350h-.6-.6-.6-.6-.6-.6-.6-.6-.6-.6-.6-.6-.6-.6-.6H341h-.6-.6-.6-.6-.6-.6H337h-.6-.6-.6-.6-.6-.6-.6-.6-.6-.6-.6-.6-.6-.6-.6-.6-.6-.6H326h-.6-.6-.6-.6H323h-.6-.6-.6-.6-.6-.6-.6-.6-.6-.6-.6H316h-.6-.6-.6-.6H313h-.6-.6-.6-.6H310h-.6-.6-.6-.6-.6-.6-.6-.6-.6-.6-.6-.6-.6-.6-.6-.6-.6H299h-.6-.6-.6-.6-.6-.6-.6H294h-.6-.6-.6-.6-.6-.6-.6H289h-.6-.6-.6-.6-.6-.6-.6-.6-.6-.6H282h-.6-.6-.6-.6-.6-.6-.6-.6-.6-.7-.7-.7-.7H273h-.7-.7H271h-.7-.7H269h-.7-.7H267h-.7-.7H265h-.7-.7H263h-.7-.7H261h-.7-.7H259h-.7-.7-.7-.7-.7-.7-.7-.7-.7-.7-.7-.7-.7-.7-.7H248 224v24 72c0 17.7-14.3 32-32 32s-32-14.3-32-32V112c0-11.4-2.4-22.2-6.7-32H400c17.7 0 32 14.3 32 32V272h48V112c0-44.2-35.8-80-80-80H80C35.8 32 0 67.8 0 112v72 24H24 80V160H48V112zM496 432H265.3c4.3-9.8 6.7-20.6 6.7-32V352h.3 .7 .7 .7 .7 .7 .7 .6 .6 .6 .6 .6 .6 .6 .6 .6 .6 .6 .6 .6 .6 .6 .6 .6 .6 .6 .6 .6 .6 .6 .6 .6 .6 .6 .6 .6 .6 .6 .6 .6 .6 .6 .6 .6 .6 .6 .6 .6 .6 .6 .6 .6 .6 .6 .6 .6 .6 .6 .6 .6 .6 .6 .6 .6 .6 .6 .6 .6 .6 .6 .6 .6 .6 .6 .6 .6 .6 .6 .6 .6 .6 .6 .6 .6 .6 .6 .6 .6 .6 .6 .6 .6 .6 .6 .6 .6 .6 .6 .6 .6 .6 .6 .6 .6 .6 .6 .6 .6 .6 .6 .6 .6 .6 .6 .6 .6 .6 .6 .6 .6 .6 .6 .6 .6 .6 .6 .6 .6 .6 .6 .6 .6 .6 .6 .6 .6 .6 .6 .6 .6 .6 .6 .6 .6 .6 .6 .6 .6 .6 .6 .6 .6 .6 .6 .6 .6 .6 .6 .6 .6 .6 .6 .6 .6 .6 .6 .6 .5 .6 .6 .5 .6 .5 .5 .5 .6 .5 .5 .5 .5 .5 .5 .5 .5 .5 .5 .5 .5 .5 .5 .5 .5 .5 .5 .5 .5 .5 .5 .5 .5 .5 .5 .5 .5 .5 .5 .5 .5 .5 .5 .5 .5 .5 .5 .5 .5 .5 .5 .5 .5 .5 .5 .5 .5 .5 .5 .5 .5 .5 .5 .5 .5 .5 .5 .5 .5 .5 .5 .5 .5 .5 .5 .5 .5 .5 .5 .5 .5 .5 .5 .5 .5 .5 .5 .5 .5 .5 .5 .5 .5 .5 .5 .5 .5 .5 .5 .6 .5 .5 .5 .6 .5 .6 .6 .5 .6 .6 .6 .6 .6 .6 .6 .6 .6 .6 .6 .6 .6 .6 .6 .6 .6 .6 .6 .6 .6 .6 .6 .6 .6 .6 .6 .6 .6 .6 .6 .6 .6 .6 .6 .6 .6 .6 .6 .6 .6 .6 .6 .6 .6 .6 .6 .6 .6 .6 .6 .6 .6 .6 .6 .6 .6 .6 .6 .6 .6 .6 .6 .6 .6 .6 .6 .6 .6 .6 .6 .6 .6 .6 .6 .6 .6 .6 .6 .6 .6 .6 .6 .6 .6 .6 .6 .6 .6 .6 .6 .6 .6 .6 .6 .6 .6 .6 .6 .6 .6 .6 .6 .6 .6 .6 .6 .6 .6 .6 .6 .6 .6 .6 .6 .6 .6 .6 .6 .6 .6 .6 .6 .6 .6 .6 .6 .6 .6 .6 .6 .6 .6 .6 .6 .6 .6 .6 .6 .6 .6 .6 .6 .6 .6 .6 .6 .6 .6 .6 .6 .6 .6 .6 .6 .6 .6 .6 .6 .6 .6 .7 .6 .7 .7 .7 .3v48c0 17.7-14.3 32-32 32z"/></svg>