<svg xmlns="http://www.w3.org/2000/svg" viewBox="0 0 640 512"><!--! Font Awesome Pro 6.4.0 by @fontawesome - https://fontawesome.com License - https://fontawesome.com/license (Commercial License) Copyright 2023 Fonticons, Inc. --><path d="M48 48V464h64V416 96 48H48zM160 464v48H112 48 0V464 48 0H48h64 48V48H480V0h48 64 48V48 464v48H592 528 480V464H160zm320-48V96H160V416H480zm48 48h64V48H528V96 416v48zM187.1 332l10.5-18 33.8-58-33.8-58-10.5-18H208h67.8l33.9-58L320 104.2l10.4 17.8 33.9 58H432h20.9l-10.5 18-33.8 58 33.8 58 10.5 18H432 364.2l-33.9 58L320 407.8 309.6 390l-33.9-58H208 187.1zM320 360.2L336.4 332H303.6L320 360.2zM289.6 308h60.9l30.3-52-30.3-52H289.6l-30.3 52 30.3 52zm105.1-28.2L378.2 308h32.9l-16.4-28.2zM411.1 204H378.2l16.4 28.2L411.1 204zM320 151.8L303.6 180h32.9L320 151.8zm-74.7 80.4L261.8 204H228.9l16.4 28.2zM261.8 308l-16.4-28.2L228.9 308h32.9z"/></svg>