<svg xmlns="http://www.w3.org/2000/svg" viewBox="0 0 576 512"><!--! Font Awesome Pro 6.4.0 by @fontawesome - https://fontawesome.com License - https://fontawesome.com/license (Commercial License) Copyright 2023 Fonticons, Inc. --><path d="M80 80c-17.7 0-32 14.3-32 32v48H80v48H24 0V184 112C0 67.8 35.8 32 80 32H400c44.2 0 80 35.8 80 80V272H464 448 432 400 384V240h16 32V160H400 384V128h16 32V112c0-17.7-14.3-32-32-32H153.3c4.3 9.8 6.7 20.6 6.7 32V224h48 16v32H208 160V400c0 17.7 14.3 32 32 32s32-14.3 32-32V328 304h24 .7 .7 .7 .7 .7 .7 .7 .7 .7 .7 .7 .7 .7 .7 .7 .7 .7 .7 .7 .7 .7 .7 .7 .7 .7 .7 .7 .7 .7 .7 .7 .7 .7 .7 .7 .7 .7 .7 .7 .7 .7 .7 .6 .6 .6 .6 .6 .6 .6 .6 .6 .6 .6 .6 .6 .6 .6 .6 .6 .6 .6 .6 .6 .6 .6 .6 .6 .6 .6 .6 .6 .6 .6 .6 .6 .6 .6 .6 .6 .6 .6 .6 .6 .6 .6 .6 .6 .6 .6 .6 .6 .6 .6 .6 .6 .6 .6 .6 .6 .6 .6 .6 .6 .6 .6 .6 .6 .6 .6 .6 .6 .6 .6 .6 .6 .6 .6 .6 .6 .6 .6 .6 .6 .6 .6 .6 .6 .6 .6 .6 .6 .6 .6 .6 .6 .6 .6 .6 .6 .6 .6 .6 .6 .6 .6 .6 .6 .6 .6 .6 .6 .6 .6 .6 .6 .6 .6 .6 .6 .6 .6 .6 .6 .6 .6 .6 .6 .6 .6 .6 .6 .6 .6 .6 .6 .6 .6 .6 .6 .6 .6 .6 .6 .6 .6 .6 .6 .6 .6 .6 .6 .6 .6 .6 .6 .6 .6 .6 .6 .6 .6 .6 .5 .6 .6 .5 .6 .5 .5 .5 .6 .5 .5 .5 .5 .5 .5 .5 .5 .5 .5 .5 .5 .5 .5 .5 .5 .5 .5 .5 .5 .5 .5 .5 .5 .5 .5 .5 .5 .5 .5 .5 .5 .5 .5 .5 .5 .5 .5 .5 .5 .5 .5 .5 .5 .5 .5 .5 .5 .5 .5 .5 .5 .5 .5 .5 .5 .5 .5 .5 .5 .5 .5 .5 .5 .5 .5 .5 .5 .5 .5 .5 .5 .5 .5 .5 .5 .5 .5 .5 .5 .5 .5 .5 .5 .5 .5 .5 .5 .5 .5 .6 .5 .5 .5 .6 .5 .6 .6 .5 .6 .6 .6 .6 .6 .6 .6 .6 .6 .6 .6 .6 .6 .6 .6 .6 .6 .6 .6 .6 .6 .6 .6 .6 .6 .6 .6 .6 .6 .6 .6 .6 .6 .6 .6 .6 .6 .6 .6 .6 .6 .6 .6 .6 .6 .6 .6 .6 .6 .6 .6 .6 .6 .6 .6 .6 .6 .6 .6 .6 .6 .6 .6 .6 .6 .6 .6 .6 .6 .6 .6 .6 .6 .6 .6 .6 .6 .6 .6 .6 .6 .6 .6 .6 .6 .6 .6 .6 .6 .6 .6 .6 .6 .6 .6 .6 .6 .6 .6 .6 .6 .6 .6 .6 .6 .6 .6 .6 .6 .6 .6 .6 .6 .6 .6 .6 .6 .6 .6 .6 .6 .6 .6 .6 .6 .6 .6 .6 .6 .6 .6 .6 .6 .6 .6 .6 .6 .6 .6 .6 .6 .6 .6 .6 .6 .6 .6 .6 .6 .6 .6 .6 .6 .6 .6 .6 .6 .6 .6 .6 .6 .7 .6 .7 .7 .7 .7 .7 .7 .7 .7 .7 .7 .7 .7 .7 .7 .7 .7 .7 .7 .7 .7 .7 .7 .7 .7 .7 .7 .7 .7 .7 .7 .7 .7 .7 .7 .7 .7 .7 .7 .7 24v24 72c0 44.2-35.8 80-80 80H192c-44.2 0-80-35.8-80-80V112c0-17.7-14.3-32-32-32zM265.3 432H496c17.7 0 32-14.3 32-32V352h-.3H527h-.7-.7-.6-.7-.6-.6-.6-.6-.6-.6-.6-.6-.6H518h-.6-.6-.6-.6-.6-.6-.6-.6-.6-.6H511h-.6-.6-.6-.6-.6-.6-.6H506h-.6-.6-.6-.6-.6-.6-.6H501h-.6-.6-.6-.6-.6-.6-.6-.6-.6-.6-.6-.6-.6-.6-.6-.6-.6H490h-.6-.6-.6-.6H487h-.6-.6-.6-.6H484h-.6-.6-.6-.6-.6-.6-.6-.6-.6-.6-.6H477h-.6-.6-.6-.6H474h-.6-.6-.6-.6-.6-.6-.6-.6-.6-.6-.6-.6-.6-.6-.6-.6-.6-.6H463h-.6-.6-.6-.6-.6-.6H459h-.6-.6-.6-.6-.6-.6-.6-.6-.6-.6-.6-.6-.6-.6-.6H450h-.6-.6-.6-.6-.6-.6-.6-.6-.6-.6-.6-.6-.6-.6-.6H441h-.6-.6-.6-.6-.6-.6-.6-.6H436h-.6-.6-.6-.6-.6-.6-.6-.6-.6-.6H430h-.6-.5-.6-.6-.5-.6-.5-.5H425h-.6-.5-.5-.5-.5-.5-.5-.5-.5-.5H419h-.5-.5-.5-.5-.5-.5-.5-.5-.5-.5H413h-.5-.5-.5-.5-.5-.5-.5-.5-.5-.5-.5-.5H406h-.5-.5-.5-.5-.5-.5-.5-.5-.5-.5H400v32 16H368V384 352h-.2-.6-.6-.6-.6-.6-.6H364h-.6-.6-.6-.6-.6-.6-.6-.6H359h-.6-.6-.6-.6-.6-.6-.6-.6-.6-.6-.6-.6-.6-.6-.6H350h-.6-.6-.6-.6-.6-.6-.6-.6-.6-.6-.6-.6-.6-.6-.6H341h-.6-.6-.6-.6-.6-.6H337h-.6-.6-.6-.6-.6-.6-.6-.6-.6-.6-.6-.6-.6-.6-.6-.6-.6-.6H326h-.6-.6-.6-.6H323h-.6-.6-.6-.6-.6-.6-.6-.6-.6-.6-.6H316h-.6-.6-.6-.6H313h-.6-.6-.6-.6H310h-.6-.6-.6-.6-.6-.6-.6-.6-.6-.6-.6-.6-.6-.6-.6-.6-.6H299h-.6-.6-.6-.6-.6-.6-.6H294h-.6-.6-.6-.6-.6-.6-.6H289h-.6-.6-.6-.6-.6-.6-.6-.6-.6-.6H282h-.6-.6-.6-.6-.6-.6-.6-.6-.6-.7-.7-.7-.7H273h-.7H272v48c0 11.4-2.4 22.2-6.7 32z"/></svg>