<svg xmlns="http://www.w3.org/2000/svg" viewBox="0 0 512 512"><!--! Font Awesome Pro 6.4.0 by @fontawesome - https://fontawesome.com License - https://fontawesome.com/license (Commercial License) Copyright 2023 Fonticons, Inc. --><path d="M289.9 33.9l41 41h58 48v48 58l41 41L512 256l-33.9 33.9-41 41v58 48H389 331l-41 41L256 512l-33.9-33.9-41-41H123 75V389 331l-41-41L0 256l33.9-33.9 41-41V123 75h48 58l41-41L256 0l33.9 33.9zm41 89H311.1L297 108.9l-41-41-41 41L200.9 123H181 123v58 19.9L108.9 215l-41 41 41 41L123 311.1V331v58h58 19.9L215 403.1l41 41 41-41L311.1 389H331h58V331 311.1L403.1 297l41-41-41-41L389 200.9V181 123H331zm-51 5v24V264v24H232V264 152 128h48zM232 320h48v48H232V320z"/></svg>