<svg xmlns="http://www.w3.org/2000/svg" viewBox="0 0 512 512"><!--! Font Awesome Pro 6.4.0 by @fontawesome - https://fontawesome.com License - https://fontawesome.com/license (Commercial License) Copyright 2023 Fonticons, Inc. --><path d="M289.9 33.9l33 33h66 48v48 66l41 41L512 256l-33.9 33.9-41 41v66 48H389 323l-33 33L256 512l-33.9-33.9-33-33H123 75V397 331l-41-41L0 256l33.9-33.9 41-41V115 67h48 66l33-33L256 0l33.9 33.9zm33 81H303.1L289 100.9l-33-33-33 33L208.9 115H189 123v66 19.9L108.9 215l-41 41 41 41L123 311.1V331v66h66 19.9L223 411.1l33 33 33-33L303.1 397H323h66V331 311.1L403.1 297l41-41-41-41L389 200.9V181 115H323zM168 184c0-30.9 25.1-56 56-56h56.9c34.9 0 63.1 28.3 63.1 63.1c0 22.6-12.1 43.5-31.7 54.8L280 264.4V272v24H232V272 250.5 236.6l12.1-6.9 44.3-25.4c4.7-2.7 7.6-7.7 7.6-13.1c0-8.4-6.8-15.1-15.1-15.1H224c-4.4 0-8 3.6-8 8l0 6.5-48 0V184zm64 152h48v48H232V336z"/></svg>