<svg xmlns="http://www.w3.org/2000/svg" viewBox="0 0 512 512"><!--! Font Awesome Pro 6.4.0 by @fontawesome - https://fontawesome.com License - https://fontawesome.com/license (Commercial License) Copyright 2023 Fonticons, Inc. --><path d="M512 32V0H464h-8C370.5 0 296.1 48 258.4 118.5c12.1 14.5 22.7 30.2 31.6 47.1C314 97.1 379.3 48 456 48h7.3c-7.5 83.3-73.1 149.9-156 159c4.9 15.1 8.4 30.9 10.5 47.1c104.4-13.9 186.1-99.7 193.6-206c.4-5.3 .6-10.6 .6-16zM56 112c97.2 0 176 78.8 176 176v16h-8c-97.2 0-176-78.8-176-176V112h8zM279.9 280C275.6 160 177 64 56 64H48 0v48 16C0 251.7 100.3 352 224 352h8V488v24h48V488 352 304 288v-8h-.1z"/></svg>