<svg xmlns="http://www.w3.org/2000/svg" viewBox="0 0 640 512"><!--! Font Awesome Pro 6.4.0 by @fontawesome - https://fontawesome.com License - https://fontawesome.com/license (Commercial License) Copyright 2023 Fonticons, Inc. --><path d="M48 80H400v80.5c15.4-14.4 31.5-28.1 48-41.5V80 32H400 48 0V80 432v48H48 336.8c-12.7-14.2-23.4-30.4-31.4-48H48V80zm96 72V128H96v24V264v24h48V264 152zm96 0V128H192v24V264v24h48V264 152zm273 72.1c-32.3-37.5-65-64-65-64s-128 103.6-128 192s71.6 160 160 160s160-71.6 160-160c0-73.6-96-160-96-160s-13.9 12.5-31 32zM530 433c-15 10-31 15-49 15c-45 0-81-29-81-78c0-24 15-45 45-82c4 5 62 79 62 79l36-42c3 4 5 8 7 12c18 33 10 75-20 96z"/></svg>