<svg xmlns="http://www.w3.org/2000/svg" viewBox="0 0 640 512"><!--! Font Awesome Pro 6.4.0 by @fontawesome - https://fontawesome.com License - https://fontawesome.com/license (Commercial License) Copyright 2023 Fonticons, Inc. --><path d="M331.3 112l10.1 5.1 112.1 56.1L592 138.5V98.6L444.1 49.3 304 72.7V112h16 11.3zM304 160H256V112 32L448 0 640 64V176L448 224 320 160H304zM128 32h96V160H128V32zm75.3 368H192 176v39.3l140.1 23.4L464 413.4V373.5L325.6 338.9 213.5 394.9 203.3 400zM176 352h16l128-64 192 48V448L320 512 128 480V400 352h48zM0 480V352H96V480H0z"/></svg>