<svg xmlns="http://www.w3.org/2000/svg" viewBox="0 0 512 512"><!--! Font Awesome Pro 6.4.0 by @fontawesome - https://fontawesome.com License - https://fontawesome.com/license (Commercial License) Copyright 2023 Fonticons, Inc. --><path d="M24 32H0V56v96 24H24 65c9.8 98.8 93.1 176 194.5 176h77.3c17.3 0 31.2 14 31.2 31.2c0 22-22.1 37.1-42.6 29.1l-68.7-26.7L224 372.9V408v48 24h24 88c97.2 0 176-78.8 176-176s-78.8-176-176-176H48V80H424V32H24zM259.5 304c-74.8 0-136.7-55.8-146.2-128H296V304H259.5zm84.5 .3V176.2c39.7 2.4 74.5 23 96.3 53.5L362 308.1c-5.7-1.9-11.7-3.2-18-3.8zm57 32.6l60.1-60.1c1.9 8.8 2.9 17.8 2.9 27.2c0 42-20.2 79.3-51.4 102.6c2.2-7.3 3.4-15.1 3.4-23.4c0-17.3-5.5-33.3-15-46.3zM224 248a24 24 0 1 0 0-48 24 24 0 1 0 0 48z"/></svg>