<svg xmlns="http://www.w3.org/2000/svg" viewBox="0 0 512 512"><!--! Font Awesome Pro 6.4.0 by @fontawesome - https://fontawesome.com License - https://fontawesome.com/license (Commercial License) Copyright 2023 Fonticons, Inc. --><path d="M429.8 47l57 57H488v1.3l5.8 5.8 17 17-17 17-5.8 5.8V152h-1.3l-57 57-17 17L378.9 192l17-17 23-23H332l-58 77.3-30-40 56.8-75.7L308 104h12 98.9l-23-23-17-17 33.9-33.9 17 17zM204 322.7l-56.8 75.7L140 408H128 24 0V360H24h92l58-77.3 30 40zm208.8-36.6l17 17 57 57H488v1.3l5.8 5.8 17 17-17 17-5.8 5.8V408h-1.3l-57 57-17 17L378.9 448l17-17 23-23H320 308l-7.2-9.6L116 152H24 0V104H24 128h12l7.2 9.6L332 360h86.9l-23-23-17-17 33.9-33.9z"/></svg>