<svg xmlns="http://www.w3.org/2000/svg" viewBox="0 0 640 512"><!--! Font Awesome Pro 6.4.0 by @fontawesome - https://fontawesome.com License - https://fontawesome.com/license (Commercial License) Copyright 2023 Fonticons, Inc. --><path d="M32 384H24 0V360 328 184 152 128H24h8V80 32H80 192L405.3 160H456c70.4 0 127.6 23.5 171.2 81.6L638 256l-10.8 14.4C583.6 328.5 526.4 352 456 352H405.3L192 480H80 32V432 384zm280-32H160.9L128 371.4V432h50.7L312 352zm0-192L178.7 80H128v60.6L160.9 160H312zM48 184V328v8H93.5l48.8-28.7 5.6-3.3h6.5H456c34.4 0 63.3-6.5 88-21.1V229.1c-24.7-14.7-53.6-21.1-88-21.1H154.4h-6.5l-5.6-3.3L93.5 176H48v8zm432 40v64H448V224h32z"/></svg>