<svg xmlns="http://www.w3.org/2000/svg" viewBox="0 0 640 512"><!--! Font Awesome Pro 6.4.0 by @fontawesome - https://fontawesome.com License - https://fontawesome.com/license (Commercial License) Copyright 2023 Fonticons, Inc. --><path d="M48.4 14.8L29.4 .1 0 38 19 52.7 591.5 497.2l19 14.7L639.9 474l-19-14.7L565.2 416H616h24V368H616 503.3l-61.8-48H552h24V272H552 450.1l28.5-79.9 16.1-45.2-45.8 14.2-133 41.2c2.7-22 4.1-44.2 4.1-66.4V128c0-53-43-96-96-96c-37.4 0-69.8 21.4-85.7 52.6L48.4 14.8zM177.7 115.2C183.3 94.9 201.9 80 224 80c26.5 0 48 21.5 48 48v7.9c0 16.9-.9 33.7-2.6 50.5l-91.7-71.2zM343.5 243.9l73.7-22.8-22.4 62.7-51.3-39.9zM345.2 368H304.1c-7 16.3-14.8 32.4-23.3 48H406.2l-60.9-48zM112.9 265.1L96 270.3V288 456v24h24 72 13.6l7-11.7 29.3-48.8c18.5-30.8 33.8-63.3 45.7-97l-40-31.6c-11.5 36.3-27.2 71.2-46.8 103.9L178.4 432H144V305.7l87.7-27.1-45.8-36.1-73 22.6zM64 368H24 0v48H24 64V368z"/></svg>