<svg xmlns="http://www.w3.org/2000/svg" viewBox="0 0 640 512"><!--! Font Awesome Pro 6.4.0 by @fontawesome - https://fontawesome.com License - https://fontawesome.com/license (Commercial License) Copyright 2023 Fonticons, Inc. --><path d="M560 48V412l-32-24.8V48h32zm48 401.3V48 0H560 528 480V48 349.9l-24-18.6V176 128H408 376 328v48 55.9L48.4 14.8 29.4 .1 0 38 19 52.7 591.5 497.2l19 14.7L639.9 474l-19-14.7-12.9-10zM376 269.1V176h32V294l-32-24.8zm32 148.3V464H376V392.2l-48-37.8V464v48h48 32 48V464v-8.7l-48-37.8zM203.1 256H176v48V464v48h48 32 48V464 335.5L203.1 256zM224 304h32V464H224V304zM112 432v32H80V432h32zM80 384H32v48 32 48H80h32 48V464 432 384H112 80z"/></svg>