<svg xmlns="http://www.w3.org/2000/svg" viewBox="0 0 640 512"><!--! Font Awesome Pro 6.4.0 by @fontawesome - https://fontawesome.com License - https://fontawesome.com/license (Commercial License) Copyright 2023 Fonticons, Inc. --><path d="M528 48V464h32V48H528zM480 0h48 32 48V48 464v48H560 528 480V464 48 0zM376 176V464h32V176H376zm-48-48h48 32 48v48V464v48H408 376 328V464 176 128zM256 304H224V464h32V304zm-32-48h32 48v48V464v48H256 224 176V464 304 256h48zM80 432v32h32V432H80zM32 384H80h32 48v48 32 48H112 80 32V464 432 384z"/></svg>