<svg xmlns="http://www.w3.org/2000/svg" viewBox="0 0 640 512"><!--! Font Awesome Pro 6.4.0 by @fontawesome - https://fontawesome.com License - https://fontawesome.com/license (Commercial License) Copyright 2023 Fonticons, Inc. --><path d="M69.3 36l48 32 20 13.3-26.6 39.9L90.7 108l-48-32-20-13.3L49.3 22.7 69.3 36zM597.3 76l-48 32-20 13.3L502.7 81.3l20-13.3 48-32 20-13.3 26.6 39.9L597.3 76zM24 192H88h24v48H88 24 0V192H24zm528 0h64 24v48H616 552 528V192h24zM490 304H441.6l-20-160H218.4l-20 160H150L176 96H464l26 208zm-246.1 0l12.2-98 1.8-14h32.2l-2.2 18-11.8 94H243.9zM496 384H144v48H496V384zM144 336H496h48v48 48 48H496 144 96V432 384 336h48z"/></svg>