<svg xmlns="http://www.w3.org/2000/svg" viewBox="0 0 512 512"><!--! Font Awesome Pro 6.4.0 by @fontawesome - https://fontawesome.com License - https://fontawesome.com/license (Commercial License) Copyright 2023 Fonticons, Inc. --><path d="M280 0V24 64H424h24v48H424 280v48H488h24v48H488 280v48H392h24v48H392 280v85.7L368 352h80v96l-64 64H128L64 448V352h80l88 37.7V304H120 96V256h24H232V208H24 0V160H24 232V112H88 64V64H88 232V24 0h48zM184 440a24 24 0 1 0 -48 0 24 24 0 1 0 48 0zm192 0a24 24 0 1 0 -48 0 24 24 0 1 0 48 0z"/></svg>