<svg xmlns="http://www.w3.org/2000/svg" viewBox="0 0 640 512"><!--! Font Awesome Pro 6.4.0 by @fontawesome - https://fontawesome.com License - https://fontawesome.com/license (Commercial License) Copyright 2023 Fonticons, Inc. --><path d="M344 24V0H296V24 64H216 201.8l-6.8 12.5L216 88c-21.1-11.5-21.1-11.5-21.1-11.5l0 0 0 0-.1 .1-.2 .4-.9 1.6c-.7 1.4-1.8 3.4-3.2 6C187.9 90 184 97.5 179.4 107c-9.2 18.9-21.4 45.4-33.7 76.1C121.5 243.6 96 323.2 96 392v64 24h24 64 5.4l4.9-2.3L296 429.8V488v24h48V488 429.8l101.8 47.9 4.9 2.3H456h64 24V456 392c0-68.8-25.5-148.4-49.7-208.9c-12.3-30.7-24.5-57.2-33.7-76.1c-4.6-9.5-8.4-17-11.2-22.2c-1.4-2.6-2.4-4.6-3.2-6l-.9-1.6-.2-.4-.1-.1 0 0 0 0s0 0-21.1 11.5l21.1-11.5L438.2 64H424 344V24zm-48 88v60.3L193.6 192.8c10.6-25.9 21-48.4 29-64.8c3.1-6.3 5.7-11.7 8-16H296zM173.6 245.8L296 221.3V278L152.7 319.8c5.3-24.7 12.7-49.8 21-74.1zM144.8 372.1L296 328v48.8L178.6 432H144V392c0-6.5 .3-13.1 .8-19.9zM344 376.8V328l151.2 44.1c.5 6.8 .8 13.4 .8 19.9v40H461.4L344 376.8zm143.3-57L344 278V221.3l122.4 24.5c8.3 24.2 15.6 49.4 21 74.1zm-40.9-127L344 172.3V112h65.5c2.2 4.3 4.9 9.7 8 16c8 16.4 18.4 38.9 29 64.8zM0 64V88 194.4 208v24 24V488v24H48V488 256 232 221.6l21.7-13c36.1-21.7 58.3-60.7 58.3-102.9V88 64H104 24 0zM48 165.5V112H79.7c-1.9 21.7-13.6 41.4-31.7 53.5zM616 64H536 512V88v17.6c0 42.2 22.1 81.2 58.3 102.9l21.7 13V232v24V488v24h48V488 256 232 208 194.4 88 64H616zm-24 48v53.5c-18.2-12.1-29.8-31.8-31.7-53.5H592z"/></svg>