<svg xmlns="http://www.w3.org/2000/svg" viewBox="0 0 640 512"><!--! Font Awesome Pro 6.4.0 by @fontawesome - https://fontawesome.com License - https://fontawesome.com/license (Commercial License) Copyright 2023 Fonticons, Inc. --><path d="M416 0h48V43c0 38.2 15.2 74.8 42.2 101.8l21 21c21 21 32.8 49.5 32.8 79.2v43H512V245c0-17-6.7-33.3-18.7-45.3l-21-21C436.2 142.7 416 93.9 416 43V0zM640 288H592V245c0-38.2-15.2-74.8-42.2-101.8l-21-21c-21-21-32.8-49.5-32.8-79.2V0h48V43c0 17 6.7 33.3 18.7 45.3l21 21c36 36 56.2 84.8 56.2 135.8v43zm-80 88V488v24H512V488 376 352h48v24zm80 0V488v24H592V488 376 352h48v24zM224 464H432V400H224v64zM0 352H48 432h48v48 64 48H432 48 0V464 400 352z"/></svg>