<svg xmlns="http://www.w3.org/2000/svg" viewBox="0 0 448 512"><!--! Font Awesome Pro 6.4.0 by @fontawesome - https://fontawesome.com License - https://fontawesome.com/license (Commercial License) Copyright 2023 Fonticons, Inc. --><path d="M336 144v48H112V144H336zM64 48V192H24 0v48H24 48.7C28 272.3 16 310.8 16 352c0 64.3 29.2 121.8 75.1 160H356.9c45.9-38.2 75.1-95.7 75.1-160c0-41.2-12-79.7-32.7-112H424h24V192H424 384V48 0H336 112 64V48zm0 304c0-43.6 17.4-83.1 45.7-112H112 336h2.3c28.3 28.9 45.7 68.4 45.7 112c0 43.6-17.4 83.1-45.7 112H109.7C81.4 435.1 64 395.6 64 352zm88-16a24 24 0 1 0 0-48 24 24 0 1 0 0 48zm168-24a24 24 0 1 0 -48 0 24 24 0 1 0 48 0zM224 448l27.8-48.7c2.7-4.8 4.2-10.2 4.2-15.7c0-17.5-14.2-31.6-31.6-31.6h-.8c-17.5 0-31.6 14.2-31.6 31.6c0 5.5 1.4 10.9 4.2 15.7L224 448z"/></svg>