<svg xmlns="http://www.w3.org/2000/svg" viewBox="0 0 640 512"><!--! Font Awesome Pro 6.4.0 by @fontawesome - https://fontawesome.com License - https://fontawesome.com/license (Commercial License) Copyright 2023 Fonticons, Inc. --><path d="M136 0H112V24 128H72 48v24V308.1C19 328.3 0 361.9 0 400c0 61.9 50.1 112 112 112H368c61.9 0 112-50.1 112-112c0-20.4-5.5-39.5-15-56h47v56 9.3l6.2 6.9 80 88 35.5-32.3L560 390.7V249.3l73.8-81.1-35.5-32.3-80 88-6.2 6.9V240v56H432V232 208v-5.4l-2.3-4.9-88-184L335.1 0H320 136zM381.4 208H219.5l-56.8-71-2.7-3.4V48H304.9l76.5 160zM132.5 176l56.8 71 7.2 9H208 384v33.1c-5.2-.7-10.6-1.1-16-1.1H112c-5.4 0-10.8 .4-16 1.1V176h16 20.5zM112 336H368c35.3 0 64 28.7 64 64s-28.7 64-64 64H112c-35.3 0-64-28.7-64-64s28.7-64 64-64zm32 64a24 24 0 1 0 -48 0 24 24 0 1 0 48 0zm56 24a24 24 0 1 0 0-48 24 24 0 1 0 0 48zm104-24a24 24 0 1 0 -48 0 24 24 0 1 0 48 0zm56 24a24 24 0 1 0 0-48 24 24 0 1 0 0 48z"/></svg>