<svg xmlns="http://www.w3.org/2000/svg" viewBox="0 0 512 512"><!--! Font Awesome Pro 6.4.0 by @fontawesome - https://fontawesome.com License - https://fontawesome.com/license (Commercial License) Copyright 2023 Fonticons, Inc. --><path d="M187.7 400.2c1.4-.1 2.9-.2 4.3-.2c31.6 0 62.3 10.8 87 30.5L320.8 464h25.5l-2.5-22.6c-6.6-59.1 18.6-117.3 66.2-153L464 248V225.3L420.7 209c-47.5-17.8-84.4-56.1-100.4-104.2L301.4 48H278.5L257.7 73c-38.8 46.5-99.5 68.6-159.1 57.7L48 121.5v24.2l43.1 65.9c12.7 19.4 19.7 41.9 20.2 65c.7 27.8-8.1 55-24.8 77.3L64 384v27.4l123.7-11.2zM64 459.6L16 464V415.8 368l32.2-43c10.2-13.6 15.6-30.3 15.2-47.4c-.3-14.2-4.6-28-12.4-39.8L0 160V112.8 64l48 8.7 59.1 10.8c42.5 7.7 86-8 113.7-41.2L256 0h80l29.9 89.7c11.4 34.4 37.8 61.7 71.7 74.4L512 192v80l-73.2 54.9c-34 25.5-52 67-47.3 109.3l3.1 27.9 5.3 48H351.7 304l-55-44c-16.2-12.9-36.3-20-57-20L64 459.6z"/></svg>