<svg xmlns="http://www.w3.org/2000/svg" viewBox="0 0 384 512"><!--! Font Awesome Pro 6.4.0 by @fontawesome - https://fontawesome.com License - https://fontawesome.com/license (Commercial License) Copyright 2023 Fonticons, Inc. --><path d="M0 0V96v19.9l19.5 3.7L128 140.2V91.4L48 76.1V0H0zM256 91.4v48.9l108.5-20.7 19.5-3.7V96 0H336V76.1L256 91.4zM160 344a24 24 0 1 0 -48 0 24 24 0 1 0 48 0zm-48 64a24 24 0 1 0 -48 0 24 24 0 1 0 48 0zM24 496a24 24 0 1 0 0-48 24 24 0 1 0 0 48zM272 344a24 24 0 1 0 -48 0 24 24 0 1 0 48 0zm-80 88a24 24 0 1 0 0-48 24 24 0 1 0 0 48zm-32 40a24 24 0 1 0 -48 0 24 24 0 1 0 48 0zm136-40a24 24 0 1 0 0-48 24 24 0 1 0 0 48zm-24 40a24 24 0 1 0 -48 0 24 24 0 1 0 48 0zm88 24a24 24 0 1 0 0-48 24 24 0 1 0 0 48zM216 56V32H168V56 208H88 64v48H88 192 296h24V208H296 216V56z"/></svg>