<svg xmlns="http://www.w3.org/2000/svg" viewBox="0 0 512 512"><!--! Font Awesome Pro 6.4.0 by @fontawesome - https://fontawesome.com License - https://fontawesome.com/license (Commercial License) Copyright 2023 Fonticons, Inc. --><path d="M48 24A24 24 0 1 0 0 24a24 24 0 1 0 48 0zM24 152a24 24 0 1 0 0-48 24 24 0 1 0 0 48zm0 104a24 24 0 1 0 0-48 24 24 0 1 0 0 48zM88 96a24 24 0 1 0 0-48 24 24 0 1 0 0 48zm24 88a24 24 0 1 0 -48 0 24 24 0 1 0 48 0zm40-32a24 24 0 1 0 0-48 24 24 0 1 0 0 48zm312 80a24 24 0 1 0 48 0 24 24 0 1 0 -48 0zm24-80a24 24 0 1 0 0-48 24 24 0 1 0 0 48zM464 24a24 24 0 1 0 48 0 24 24 0 1 0 -48 0zM424 96a24 24 0 1 0 0-48 24 24 0 1 0 0 48zm-24 88a24 24 0 1 0 48 0 24 24 0 1 0 -48 0zm-40-32a24 24 0 1 0 0-48 24 24 0 1 0 0 48zM240 362.9l-15.6-14.3L175.8 304H232h48 56.2l-48.7 44.6L272 362.9V384v80H240V384 362.9zM232 256H144 96v40l8.7 8L192 384v80 48h48 32 48V464 384l87.3-80 8.7-8V256H368 280V88 64H232V88 256z"/></svg>