<svg xmlns="http://www.w3.org/2000/svg" viewBox="0 0 640 512"><!--! Font Awesome Pro 6.4.0 by @fontawesome - https://fontawesome.com License - https://fontawesome.com/license (Commercial License) Copyright 2023 Fonticons, Inc. --><path d="M48.4 14.8L29.4 .1 0 38 19 52.7 591.5 497.2l19 14.7L639.9 474l-19-14.7L544 399.6V80 32H496 144 96V51.8l-47.6-37zM144 89V80H496V362.3l-87.1-67.6C428 277.2 440 252 440 224c0-53-43-96-96-96H256 232v24 5.3L144 89zM369.9 264.4L280 194.6V176h64c26.5 0 48 21.5 48 48c0 17-8.8 31.9-22.1 40.4zM280 320v-3.4l-48-37.8V320v40 24h48V360v-8V320zM144 209.5L96 171.6V432v48h48H487.4l-60.9-48H144V209.5z"/></svg>