<svg xmlns="http://www.w3.org/2000/svg" viewBox="0 0 640 512"><!--! Font Awesome Pro 6.4.0 by @fontawesome - https://fontawesome.com License - https://fontawesome.com/license (Commercial License) Copyright 2023 Fonticons, Inc. --><path d="M258.8 0H280h80 21.2l2.6 21 27.4 219H488h24v24 88h56V168H544V120h24V96 72h48V96v24h24v48H616V448v24H568V448v-2.7L512 464v16H488h-8v32H416V480H392 368 272 248 224v32H160V480h-8H128V464L72 445.3V448v24H24V448 168H0V120H24V96 72H72V96v24H96v48H72V352h56V264 240h24 76.8L256.2 21l2.6-21zM368 432V281.5L338.8 48H301.2L272 281.5V432h96zm48 0h48V288H416V432zM224 288H176V432h48V288zm96-64c17.7 0 32 14.3 32 32v64H288V256c0-17.7 14.3-32 32-32z"/></svg>