<svg xmlns="http://www.w3.org/2000/svg" viewBox="0 0 640 512"><!--! Font Awesome Pro 6.4.0 by @fontawesome - https://fontawesome.com License - https://fontawesome.com/license (Commercial License) Copyright 2023 Fonticons, Inc. --><path d="M347.2 51.4L406.6 164l125.4 21.7 57.3 9.9-40.5 41.7L460 328.5l18.1 125.9 8.3 57.6-52.2-25.7L320.1 430.2 205.9 486.3 153.7 512l8.3-57.6 18.1-125.9L91.4 237.3 50.9 195.6l57.3-9.9L233.6 164 292.9 51.4 320.1 0l27.1 51.4zm-27.1 51.4V376.7l21.2 10.4L426 428.8l-13.4-93.4L409.2 312l16.4-16.9 65.8-67.7-93-16.1-23.3-4-11-20.9-44.1-83.5z"/></svg>