<svg xmlns="http://www.w3.org/2000/svg" viewBox="0 0 576 512"><!--! Font Awesome Pro 6.4.0 by @fontawesome - https://fontawesome.com License - https://fontawesome.com/license (Commercial License) Copyright 2023 Fonticons, Inc. --><path d="M351.6 195.6L313.3 77.7 288.1 0 262.8 77.7 224.5 195.6h-124H18.9l66.1 48 100.3 72.9L146.9 434.3 121.7 512l66.1-48 100.3-72.9L388.3 464l66.1 48-25.2-77.7L390.9 316.4l100.3-72.9 66.1-48H475.6h-124zm57.9 48l-46.8 34-28.2 20.5 10.8 33.2 17.9 55.1-46.8-34-28.2-20.5-28.2 20.5-46.8 34 17.9-55.1 10.8-33.2-28.2-20.5-46.8-34h57.9 34.9l10.8-33.2 17.9-55.1 17.9 55.1 10.8 33.2h34.9 57.9z"/></svg>