<svg xmlns="http://www.w3.org/2000/svg" viewBox="0 0 512 512"><!--! Font Awesome Pro 6.4.0 by @fontawesome - https://fontawesome.com License - https://fontawesome.com/license (Commercial License) Copyright 2023 Fonticons, Inc. --><path d="M184 24V0H136V24 192v24h24 96.2c-.2 2.6-.2 5.3-.2 8v64c0 39.8-32.2 72-72 72H24 0v8 16 8 96 24H24 48V488 416h64c9.6 0 19 3.5 30.6 11.1c8.8 5.7 17.1 12.6 26.9 20.7c4.2 3.4 8.6 7.1 13.5 11C214.6 484 255.9 512 320 512c106 0 192-86 192-192V224c0-70.7-57.3-128-128-128c-50.6 0-94.4 29.4-115.1 72H184V24zm18 388.3c-2-1.6-4-3.3-6-4.9c46.2-4.6 84.6-35.4 100.4-77.3c12.2-6.9 22.6-8 32.7-6.6c12.4 1.7 24.9 7.1 41.1 14.4l1.2 .6c14.8 6.6 33.1 14.8 53 17.6c11.5 1.6 23.3 1.3 35.4-1.5C444.4 417.4 387.6 464 320 464c-47.9 0-78.6-20-107-42.7c-3.5-2.8-7.2-5.8-10.9-8.9l0 0 0 0 0 0zM464 301.6c-12.4 7.1-22.9 8.2-33.1 6.8c-12.4-1.7-24.9-7.1-41.1-14.4l-1.2-.6c-14.8-6.6-33.1-14.8-53-17.6c-10.3-1.4-20.8-1.4-31.6 .7V224c0-44.2 35.8-80 80-80s80 35.8 80 80v77.6z"/></svg>