<svg xmlns="http://www.w3.org/2000/svg" viewBox="0 0 512 512"><!--! Font Awesome Pro 6.4.0 by @fontawesome - https://fontawesome.com License - https://fontawesome.com/license (Commercial License) Copyright 2023 Fonticons, Inc. --><path d="M24 0H200h24V48H200 24 0V0H24zm0 80H200h24v48H200 136v72 24H88V200 128H24 0V80H24zM512 2.7V32 176c0 26.5-28.7 48-64 48s-64-21.5-64-48s28.7-48 64-48c5.5 0 10.9 .5 16 1.5V61.3L352 83.7V208v0c0 26.5-28.7 48-64 48s-64-21.5-64-48s28.7-48 64-48c5.5 0 10.9 .5 16 1.5V64 44.3l19.3-3.9 160-32L512 2.7zM288 320a32 32 0 1 1 64 0 32 32 0 1 1 -64 0zm222.7 3.2l-17 17L340.2 493.8l-17 17-33.9-33.9 17-17L459.8 306.2l17-17 33.9 33.9zM480 448a32 32 0 1 1 0 64 32 32 0 1 1 0-64zM40 256h88 24v24 32.5c0 27-12.4 52.6-33.7 69.2l31.9 28.5 24-26.4 16.1-17.8 35.5 32.3-16.1 17.8-23.7 26.1 18.7 16.7 17.9 16-32 35.8-17.9-16-19-17-24 26.4-7.1 7.9H112 24 0V488 471.3c0-35.7 15.9-69.5 43.3-92.3C25.9 362.4 16 339.4 16 315.3V280 256H40zm48.4 88.2c9.8-7.6 15.6-19.3 15.6-31.7V304H64v11.3c0 11.4 4.9 22.3 13.4 29.8l4.5 4 6.5-5zm-12.3 70C60.3 426.3 50.4 444.4 48.4 464h53L118 445.8 79.6 411.5l-3.5 2.7z"/></svg>