<svg xmlns="http://www.w3.org/2000/svg" viewBox="0 0 640 512"><!--! Font Awesome Pro 6.4.0 by @fontawesome - https://fontawesome.com License - https://fontawesome.com/license (Commercial License) Copyright 2023 Fonticons, Inc. --><path d="M304 480l-25.3-25.3-34-34-32.7 35.2-19.4 20.9L160 512l-34-34L98 450 64 416l35.2-32.7 20.9-19.4 35.2-32.7-34-34L96 272l0-108.8 97.6-97.6c87.5-87.5 229.3-87.5 316.8 0c67.1 67.1 82.7 166.3 46.8 248.3c-12.7-9.6-27.3-17-43.1-21.3c27.1-64 14.5-140.9-37.7-193.1c-68.7-68.7-180.2-68.7-248.9 0l-47 47L375.7 341.8c-9.9 13.9-17.1 29.8-20.8 47.1L146.6 180.5l-2.6 2.6v69l45.2 45.2 35.2 35.2-36.5 33.9-54.8 50.8 25.6 25.6 50.8-54.8 33.9-36.5 35.2 35.2L323.9 432H353c2.2 17.3 7.8 33.5 16.1 48H304zm224-64a48 48 0 1 0 -96 0 48 48 0 1 0 96 0zm-144 0a96 96 0 1 1 192 0 96 96 0 1 1 -192 0z"/></svg>