<svg xmlns="http://www.w3.org/2000/svg" viewBox="0 0 512 512"><!--! Font Awesome Pro 6.4.0 by @fontawesome - https://fontawesome.com License - https://fontawesome.com/license (Commercial License) Copyright 2023 Fonticons, Inc. --><path d="M0 96V416c0 35.3 28.7 64 64 64H448c35.3 0 64-28.7 64-64V96c0-35.3-28.7-64-64-64H64C28.7 32 0 60.7 0 96zM464 280V416c0 8.8-7.2 16-16 16H112V280H464zM448 80c8.8 0 16 7.2 16 16V232H112V80H448zm16 352l-336 0 0-152 336 0 0 152zm0-200l-336 0 0-152 336 0 0 152zM0 432l0 48 48 0 416 0 48 0 0-48 0-352 0-48-48 0L48 32 0 32 0 80 0 432z"/></svg>