<svg xmlns="http://www.w3.org/2000/svg" viewBox="0 0 640 512"><!--! Font Awesome Pro 6.4.0 by @fontawesome - https://fontawesome.com License - https://fontawesome.com/license (Commercial License) Copyright 2023 Fonticons, Inc. --><path d="M48 112V400H592V112H48zM0 64H48 592h48v48V400v48H592 48 0V400 112 64zm368 80v96H80V144H368zM80 336H96 352h16v32H352 96 80V336zm320 0h16H544h16v32H544 416 400V336zM112 272v32H80V272h32zm32 0h32v32H144V272zm96 0v32H208V272h32zm32 0h32v32H272V272zm96 0v32H336V272h32z"/></svg>