<svg xmlns="http://www.w3.org/2000/svg" viewBox="0 0 640 512"><!--! Font Awesome Pro 6.4.0 by @fontawesome - https://fontawesome.com License - https://fontawesome.com/license (Commercial License) Copyright 2023 Fonticons, Inc. --><path d="M152 40V64 286.7L232 260V64 40h48V64 244l80-26.7V64 40h48V64 201.4l80-26.7V64 40h48V64v94.7l64.4-21.5 22.8-7.6 15.2 45.5-22.8 7.6L536 209.3V448v24H488V448 225.3L408 252V448v24H360V448 268l-80 26.7V448v24H232V448 310.6l-80 26.7V448v24H104V448 353.3L39.6 374.8l-22.8 7.6L1.6 336.8l22.8-7.6L104 302.7V64 40h48z"/></svg>