<svg xmlns="http://www.w3.org/2000/svg" viewBox="0 0 512 512"><!--! Font Awesome Pro 6.4.0 by @fontawesome - https://fontawesome.com License - https://fontawesome.com/license (Commercial License) Copyright 2023 Fonticons, Inc. --><path d="M80 294.5L69.3 307.7C56 324.2 48 345.1 48 368c0 53 43 96 96 96s96-43 96-96c0-22.9-8-43.8-21.3-60.3L208 294.5v-17V48H80V277.5v17zM208 0h48V48 277.5c20 24.7 32 56.2 32 90.5c0 79.5-64.5 144-144 144S0 447.6 0 368c0-34.3 12-65.8 32-90.5V48 0H80 208zM192 368c0 26.5-21.5 48-48 48s-48-21.5-48-48c0-20.9 13.4-38.7 32-45.3V176 160h32v16V322.8c18.6 6.6 32 24.4 32 45.3zM320 32h24H488h24V80H488 344 320V32zm0 128h24H488h24v48H488 344 320V160zm32 128h24H488h24v48H488 376 352V288z"/></svg>