<svg xmlns="http://www.w3.org/2000/svg" viewBox="0 0 640 512"><!--! Font Awesome Pro 6.4.0 by @fontawesome - https://fontawesome.com License - https://fontawesome.com/license (Commercial License) Copyright 2023 Fonticons, Inc. --><path d="M231.9 153.9L249.9 138 218 102.1l-17.9 15.9L168 146.6 168 24V0H120V24l0 122.6L87.9 118.1 70 102.1 38.1 138l17.9 15.9 72 64L144 232.1l15.9-14.2 72-64zM24 512H136h49.3H582.7 616h16 8V464H620.8L576 272 384 128 192 272 147.2 464H24 0v48H24zM533.2 299.9L571.5 464H472L408 336V206l125.2 93.9zM360 206V464H196.5l38.3-164.1L360 206z"/></svg>