<svg xmlns="http://www.w3.org/2000/svg" viewBox="0 0 512 512"><!--! Font Awesome Pro 6.4.0 by @fontawesome - https://fontawesome.com License - https://fontawesome.com/license (Commercial License) Copyright 2023 Fonticons, Inc. --><path d="M145.1 112h27.7l13.9-24c13.9-24 39.8-40 69.3-40s55.4 16 69.3 40l13.9 24h27.7H368c53 0 96 43 96 96s-43 96-96 96H334.4 314.8l-14 13.7C289.2 329.1 273.5 336 256 336s-33.2-6.9-44.8-18.3l-14-13.7H177.6 144c-53 0-96-43-96-96s43-96 96-96h1.1zM256 0c-47.4 0-88.7 25.7-110.9 64H144C64.5 64 0 128.5 0 208s64.5 144 144 144h33.6c20.2 19.8 47.9 32 78.4 32s58.2-12.2 78.4-32H368c79.5 0 144-64.5 144-144s-64.5-144-144-144h-1.1C344.7 25.7 303.4 0 256 0zM104 472h80V392H104v80zM0 448v64H64V448H0z"/></svg>