<svg xmlns="http://www.w3.org/2000/svg" viewBox="0 0 512 512"><!--! Font Awesome Pro 6.4.0 by @fontawesome - https://fontawesome.com License - https://fontawesome.com/license (Commercial License) Copyright 2023 Fonticons, Inc. --><path d="M224 480h24 96 24V456 423c0-30.3-5.9-59.8-16.9-87H448h40 24V312 232 208H496V168 144H472V104 80H448V56 32H424 384 272 259.9h-7.3l-6 4-10.1 6.7L160 93.8v57.7L263.1 82.7l4-2.7H272 384h16v24 24h24v40 24h24v40 24h16v32H448 311.9 268.4l23.2 36.8C309.8 353.7 320 387.6 320 423v9H272v-9c0-49.8-27.2-95.6-70.9-119.4l-4.6-2.5-18.6-10.1-5.4-2.9h-6.1H164h-4v48h.3l13.2 7.2 4.6 2.5C206.4 361.2 224 390.8 224 423v33 24zm-96-96V96H0V384H128z"/></svg>