<svg xmlns="http://www.w3.org/2000/svg" viewBox="0 0 640 512"><!--! Font Awesome Pro 6.4.0 by @fontawesome - https://fontawesome.com License - https://fontawesome.com/license (Commercial License) Copyright 2023 Fonticons, Inc. --><path d="M144 80H592v54.2c-24.1 15.7-40 42.9-40 73.8s15.9 58.1 40 73.8V336H144V80zm496 88V120 80 32H592 144 96V80 336v48h48H592h48V336 296 248c-22.1 0-40-17.9-40-40s17.9-40 40-40zM512 112a16 16 0 1 0 -32 0 16 16 0 1 0 32 0zm0 64a16 16 0 1 0 -32 0 16 16 0 1 0 32 0zm-16 80a16 16 0 1 0 0-32 16 16 0 1 0 0 32zm16 48a16 16 0 1 0 -32 0 16 16 0 1 0 32 0zM264 96l26.7 80H248l-24-32H192l16 64-16 64h32l24-32h42.7L264 320h56l46.7-80h40.3c16.1 0 31.5-6.4 42.8-17.7c7.9-7.9 7.9-20.7 0-28.5C438.4 182.4 423 176 406.9 176H366.7L320 96H264zM48 120V96H0v24V456v24H24 520h24V432H520 48V120z"/></svg>