<svg xmlns="http://www.w3.org/2000/svg" viewBox="0 0 576 512"><!--! Font Awesome Pro 6.4.0 by @fontawesome - https://fontawesome.com License - https://fontawesome.com/license (Commercial License) Copyright 2023 Fonticons, Inc. --><path d="M0 112V64H48 528h48v48 48 48c-26.5 0-48 21.5-48 48s21.5 48 48 48v48 48 48H528 48 0V400 352 304c26.5 0 48-21.5 48-48s-21.5-48-48-48V160 112zm48 60.8c28.7 16.6 48 47.6 48 83.2s-19.3 66.6-48 83.2V400H528V339.2c-28.7-16.6-48-47.6-48-83.2s19.3-66.6 48-83.2V112H48v60.8z"/></svg>