<svg xmlns="http://www.w3.org/2000/svg" viewBox="0 0 640 512"><!--! Font Awesome Pro 6.4.0 by @fontawesome - https://fontawesome.com License - https://fontawesome.com/license (Commercial License) Copyright 2023 Fonticons, Inc. --><path d="M160 64v64h-8H104 96V64h64zm-8 112h8 48V128 64 16H160 96 48V64v64 48H96h8v56H24 0v48H24 296v56h-8H240v48 64 48h48 64 48V448 384 336H352h-8V280H616h24V232H616 536V176h8 48V128 64 16H544 480 432V64v64 48h48 8v56H152V176zM344 384h8v64H288V384h8 48zM480 64h64v64H480V64z"/></svg>