<svg xmlns="http://www.w3.org/2000/svg" viewBox="0 0 512 512"><!--! Font Awesome Pro 6.4.0 by @fontawesome - https://fontawesome.com License - https://fontawesome.com/license (Commercial License) Copyright 2023 Fonticons, Inc. --><path d="M256 0H232V24v80 24h48V104 49.4C383.6 61.3 464 149.2 464 256c0 114.9-93.1 208-208 208S48 370.9 48 256c0-43.3 13.2-83.5 35.8-116.8l13.5-19.8-39.7-27L44.2 112.2C16.3 153.2 0 202.7 0 256C0 397.4 114.6 512 256 512s256-114.6 256-256S397.4 0 256 0zM193 159l-17-17L142.1 176l17 17 80 80 17 17L289.9 256l-17-17-80-80z"/></svg>