<svg xmlns="http://www.w3.org/2000/svg" viewBox="0 0 512 512"><!--! Font Awesome Pro 6.4.0 by @fontawesome - https://fontawesome.com License - https://fontawesome.com/license (Commercial License) Copyright 2023 Fonticons, Inc. --><path d="M128 32h24H360h24V56v72h48l80 80v88 48 88 48H464 48 0V432 344 296 208l80-80h48V56 32zM48 344v88H464V344H368v16 24H320V360 344H192v16 24H144V360 344H48zm416-48V227.9L412.1 176H99.9L48 227.9V296h96V280 256h48v24 16H320V280 256h48v24 16h96zM336 80H176v48H336V80z"/></svg>