<svg xmlns="http://www.w3.org/2000/svg" viewBox="0 0 448 512"><!--! Font Awesome Pro 6.4.0 by @fontawesome - https://fontawesome.com License - https://fontawesome.com/license (Commercial License) Copyright 2023 Fonticons, Inc. --><path d="M64 143.3c0 12.5 2.9 24.9 8.5 36.1l28.9 57.9 1.5 3 .6 3.2L139.8 432h1.9l35.1-126.4 4.9-17.6H200h48 18.2l4.9 17.6L306.2 432h1.9l36.3-188.5 .6-3.2 1.5-3 26.9-53.8c6.9-13.9 10.6-29.2 10.6-44.8c0-32.4-26.3-58.7-58.7-58.7H314.6C298 80 282 85.9 269.4 96.7l-7 6 8.1 6 19.2 14.4-28.8 38.4-19.2-14.4L225 134.8l-15.4-11.6-32-24-8-6C158.2 84.6 144.3 80 130 80h-2.7C92.3 80 64 108.3 64 143.3zm159-70l15.1-13C259.4 42 286.5 32 314.6 32h10.7C384.2 32 432 79.8 432 138.7c0 23-5.4 45.7-15.6 66.2l-25.4 50.8L351.6 460.5 347.8 480H328 288 269.8l-4.9-17.6L229.8 336H218.2L183.1 462.4 178.2 480H160 120 100.2l-3.7-19.5L57.1 255.8 29.6 200.8C20.7 183 16 163.3 16 143.3C16 81.8 65.8 32 127.3 32H130c24.7 0 48.7 8 68.4 22.8l8 6L223 73.2z"/></svg>