<svg xmlns="http://www.w3.org/2000/svg" viewBox="0 0 512 512"><!--! Font Awesome Pro 6.4.0 by @fontawesome - https://fontawesome.com License - https://fontawesome.com/license (Commercial License) Copyright 2023 Fonticons, Inc. --><path d="M256 .8l10 4.6L434 82.2l21.8 10-20 43.7L416 126.7V232v24H392 371l34.7 208H488h24v48H488 24 0V464H24h82.3L141 256H120 96V232 126.7l-19.8 9.1-20-43.7L78 82.2 246 5.4 256 .8zm0 52.8L144 104.8V128H368V104.8L256 53.6zM144 176v32H368V176H144zM330.8 464L256 400.7 181.2 464H330.8zM185.9 278.5L256 337.8l70.1-59.3L322.3 256H189.7l-3.7 22.5zm-9.2 55.1l-13.8 83 55.9-47.3-42.1-35.6zm116.4 35.6l55.9 47.3-13.8-83-42.1 35.6z"/></svg>