<svg xmlns="http://www.w3.org/2000/svg" viewBox="0 0 448 512"><!--! Font Awesome Pro 6.4.0 by @fontawesome - https://fontawesome.com License - https://fontawesome.com/license (Commercial License) Copyright 2023 Fonticons, Inc. --><path d="M160 0h24 40 40 24V48H264 248V96h56 16v16 16h88 32.3L431 158.9 387.5 304H392h24l0 48H392 368V488v24H320V488 352l-192 0V488v24H80V488 352H56 32l0-48H56h4.5L17 158.9 7.7 128H40h88V112 96h16 56V48H184 160V0zM337.3 304l38.4-128H320V304h17.3zM272 304V176H176V304l96 0zm-144 0V176H72.3l38.4 128H128z"/></svg>