<svg xmlns="http://www.w3.org/2000/svg" viewBox="0 0 320 512"><!--! Font Awesome Pro 6.4.0 by @fontawesome - https://fontawesome.com License - https://fontawesome.com/license (Commercial License) Copyright 2023 Fonticons, Inc. --><path d="M48 48V352c0 61.9 50.1 112 112 112s112-50.1 112-112V48H48zM0 0H48 272h48V48 352c0 88.4-71.6 160-160 160S0 440.4 0 352V48 0zM144 376a16 16 0 1 0 32 0 16 16 0 1 0 -32 0zm64 0a48 48 0 1 1 -96 0 48 48 0 1 1 96 0zm0-120a48 48 0 1 1 -96 0 48 48 0 1 1 96 0zM144 136a16 16 0 1 0 32 0 16 16 0 1 0 -32 0zm64 0a48 48 0 1 1 -96 0 48 48 0 1 1 96 0z"/></svg>