<svg xmlns="http://www.w3.org/2000/svg" viewBox="0 0 576 512"><!--! Font Awesome Pro 6.4.0 by @fontawesome - https://fontawesome.com License - https://fontawesome.com/license (Commercial License) Copyright 2023 Fonticons, Inc. --><path d="M392.9 32h-51l23 64H211.1l23-64h-51l-23 64H112 88v48h24 30.8L114 224H72 48v48H72 96.7L67.9 352H32 8v48H32 50.7L21.9 480h51l28.8-80H474.3l28.8 80h51l-28.8-80H544h24V352H544 508.1l-28.8-80H504h24V224H504 462l-28.8-80H464h24V96H464 415.9l-23-64zM382.2 144L411 224H165l28.8-80H382.2zm46.1 128l28.8 80H118.9l28.8-80H428.3z"/></svg>