<svg xmlns="http://www.w3.org/2000/svg" viewBox="0 0 512 512"><!--! Font Awesome Pro 6.4.0 by @fontawesome - https://fontawesome.com License - https://fontawesome.com/license (Commercial License) Copyright 2023 Fonticons, Inc. --><path d="M256 48C141.1 48 48 141.1 48 256V488v24H0V488 256C0 114.6 114.6 0 256 0S512 114.6 512 256V488v24H464V488 256c0-114.9-93.1-208-208-208zM160 192v64H352V192H160zm0 112v96H352V304H160zM112 144h48H352h48v48V400v48H353.9l47 47 17 17H350.1l-64-64H225.9l-64 64H94.1l0 0 17-17 47-47H112V400 192 144zm64 208a24 24 0 1 1 48 0 24 24 0 1 1 -48 0zm136-24a24 24 0 1 1 0 48 24 24 0 1 1 0-48z"/></svg>