<svg xmlns="http://www.w3.org/2000/svg" viewBox="0 0 640 512"><!--! Font Awesome Pro 6.4.0 by @fontawesome - https://fontawesome.com License - https://fontawesome.com/license (Commercial License) Copyright 2023 Fonticons, Inc. --><path d="M0 32H24 536h24V56 336h56 24v48H616 288c0 53-43 96-96 96s-96-43-96-96H24 0V360 56 32zM108.8 336c16.6-28.7 47.6-48 83.2-48s66.6 19.3 83.2 48H512V80H48V336h60.8zM160 112v24 96 24H112V232 136 112h48zm96 0v24 96 24H208V232 136 112h48zm96 0v24V280v24H304V280 136 112h48zm96 0v24V280v24H400V280 136 112h48zM240 384a48 48 0 1 0 -96 0 48 48 0 1 0 96 0z"/></svg>