<svg xmlns="http://www.w3.org/2000/svg" viewBox="0 0 448 512"><!--! Font Awesome Pro 6.4.0 by @fontawesome - https://fontawesome.com License - https://fontawesome.com/license (Commercial License) Copyright 2023 Fonticons, Inc. --><path d="M48 48V208H200l0-160H48zM248 208H400V48H248l0 160zM48 256V400H400V256H48zM0 0H48 400h48V48 400v48H400 385.9l47 47 17 17H382.1l-64-64H129.9l-64 64H-1.9l17-17 47-47H48 0V400 48 0zM96 320a32 32 0 1 1 64 0 32 32 0 1 1 -64 0zm224-32a32 32 0 1 1 0 64 32 32 0 1 1 0-64z"/></svg>