<svg xmlns="http://www.w3.org/2000/svg" viewBox="0 0 512 512"><!--! Font Awesome Pro 6.4.0 by @fontawesome - https://fontawesome.com License - https://fontawesome.com/license (Commercial License) Copyright 2023 Fonticons, Inc. --><path d="M48 256C48 141.1 141.1 48 256 48s208 93.1 208 208V488v24h48V488 256C512 114.6 397.4 0 256 0S0 114.6 0 256V488v24H48V488 256zm304 0H160V192H352v64zM160 400V304H352v96H160zm0-256H112v48V400v48h46l-47 47-17 17 0 0h67.9l64-64h60.1l64 64h67.9l-17-17-47-47H400V400 192 144H352 160zM288 352a32 32 0 1 0 -64 0 32 32 0 1 0 64 0z"/></svg>