<svg xmlns="http://www.w3.org/2000/svg" viewBox="0 0 640 512"><!--! Font Awesome Pro 6.4.0 by @fontawesome - https://fontawesome.com License - https://fontawesome.com/license (Commercial License) Copyright 2023 Fonticons, Inc. --><path d="M160 0H147.2L140 10.7 93.8 80H80.1 32 0v48H35.6L64 512H352l28.4-384H416V80H384 335.9 322.2L276 10.7 268.8 0H256 160zM264.5 80h-113l21.3-32h70.3l21.3 32zM108.6 464L83.7 128H296.5l.9 1.3 1.9-1.3h33L307.4 464H108.6zM640 128H448v48H640V128zM608 256H448v48H608V256zM448 384v48h96V384H448z"/></svg>