<svg xmlns="http://www.w3.org/2000/svg" viewBox="0 0 448 512"><!--! Font Awesome Pro 6.4.0 by @fontawesome - https://fontawesome.com License - https://fontawesome.com/license (Commercial License) Copyright 2023 Fonticons, Inc. --><path d="M160 0H147.2L140 10.7 93.8 80H80.1 32 0v48H35.6L64 512H384l28.4-384H448V80H416 367.9 354.2L308 10.7 300.8 0H288 160zM296.5 80h-145l21.3-32H275.2l21.3 32zM108.6 464L83.7 128H364.3L339.4 464H108.6zM316.3 224L288 195.7l-14.1 14.1L224 259.7l-49.9-49.9L160 195.7 131.7 224l14.1 14.1L195.7 288l-49.9 49.9L131.7 352 160 380.3l14.1-14.1L224 316.3l49.9 49.9L288 380.3 316.3 352l-14.1-14.1L252.3 288l49.9-49.9L316.3 224z"/></svg>