<svg xmlns="http://www.w3.org/2000/svg" viewBox="0 0 448 512"><!--! Font Awesome Pro 6.4.0 by @fontawesome - https://fontawesome.com License - https://fontawesome.com/license (Commercial License) Copyright 2023 Fonticons, Inc. --><path d="M160 0H147.2L140 10.7 93.8 80H80.1 32 0v48H35.6L64 512H384l28.4-384H448V80H416 367.9 354.2L308 10.7 300.8 0H288 160zM296.5 80h-145l21.3-32H275.2l21.3 32zM108.6 464L83.7 128H364.3L339.4 464H108.6zM244.2 209.7l-26.6-29.9-14.9 13.3-72 64L113.9 272l16.8 14.9 72 64 14.9 13.3 26.6-29.9L229.3 321 196.6 292H240c24.3 0 44 19.7 44 44v24 20h40V360 336c0-46.4-37.6-84-84-84H196.6l32.7-29.1 14.9-13.3z"/></svg>