<svg xmlns="http://www.w3.org/2000/svg" viewBox="0 0 576 512"><!--! Font Awesome Pro 6.4.0 by @fontawesome - https://fontawesome.com License - https://fontawesome.com/license (Commercial License) Copyright 2023 Fonticons, Inc. --><path d="M160 80H416V240H352V192H224v48H160V80zM48 160c0-38.7 27.5-71 64-78.4V240H48V160zm0 272V288h64V432H48zm368 0H160V288h64v64H352V288h64V432zm112 0H464V288h64V432zm0-272v80H464V81.6c36.5 7.4 64 39.7 64 78.4zM128 32C57.3 32 0 89.3 0 160V432v48H48 528h48V432 160c0-70.7-57.3-128-128-128H128zM304 256v32 16H272V288 256 240h32v16z"/></svg>