<svg xmlns="http://www.w3.org/2000/svg" viewBox="0 0 640 512"><!--! Font Awesome Pro 6.4.0 by @fontawesome - https://fontawesome.com License - https://fontawesome.com/license (Commercial License) Copyright 2023 Fonticons, Inc. --><path d="M312 0H288V24 488v24h48V488 48H464V216v24h24 56 48V488v24h48V488 216 192H616 592V120 96H544v24 72H512V24 0H488 312zm56 80v64h64V80H368zm64 96H368v64h64V176zm-64 96v64h64V272H368zm192 0H496v64h64V272zm-64 96v64h64V368H496zM222 176c1-5 2-10 2-16c0-53-43-96-96-96c-54 0-96 43-96 96c0 6 0 11 1 16C13 190 0 214 0 240v80H80 96V512h64V320h16 80V240c0-26-14-50-34-64z"/></svg>