<svg xmlns="http://www.w3.org/2000/svg" viewBox="0 0 448 512"><!--! Font Awesome Pro 6.4.0 by @fontawesome - https://fontawesome.com License - https://fontawesome.com/license (Commercial License) Copyright 2023 Fonticons, Inc. --><path d="M392 188.1V176l-15.3-16L257.2 34.8 224 0 190.8 34.8 71.3 160 56 176v12.1V208H89.5h2.3H104L56 256 40 272 24 288v24.2V320H56h3.9H72h8L40 368 13.3 400 0 416v32H48 200v40 24h48V488 448H400h48V416l-13.3-16L408 368l-40-48h8 12.1H392h32v-7.8V288l-16-16-16-16-48-48h12.2 2.3H392V188.1zM248 400V216 192H200v24V400H75.8l41.1-49.3L144 318.2V272H107.9l30.1-30.1L176 203.9V160H137.6L224 69.5 310.4 160H272v43.9l38.1 38.1L340.1 272H304v46.2l27.1 32.6L372.2 400H248z"/></svg>