<svg xmlns="http://www.w3.org/2000/svg" viewBox="0 0 448 512"><!--! Font Awesome Pro 6.4.0 by @fontawesome - https://fontawesome.com License - https://fontawesome.com/license (Commercial License) Copyright 2023 Fonticons, Inc. --><path d="M392 208.6V192l-14-16L255.9 36.4 224 0 192.1 36.4 70 176 56 192v16.6V224h48L69.7 272 35.4 320 24 336v27.8V368H72h8L45.7 416 11.4 464 0 480v32H48 400h48V480l-11.4-16-34.3-48L368 368h8 48v-4.2V336l-11.4-16-34.3-48L344 224h48V208.6zM314.2 176H250.7l54.2 75.9L353.6 320H274.7l54.2 75.9L377.6 464H70.4l48.6-68.1L173.3 320H94.4l48.6-68.1L197.3 176H133.8L224 72.9 314.2 176zM224 280a24 24 0 1 0 -48 0 24 24 0 1 0 48 0zm64 160a24 24 0 1 0 0-48 24 24 0 1 0 0 48z"/></svg>