<svg xmlns="http://www.w3.org/2000/svg" viewBox="0 0 640 512"><!--! Font Awesome Pro 6.4.0 by @fontawesome - https://fontawesome.com License - https://fontawesome.com/license (Commercial License) Copyright 2023 Fonticons, Inc. --><path d="M0 512l30-48L291.7 45.3 320 0l28.3 45.3L610 464l30 48H583.4 56.6 0zM320 90.6L86.6 464H553.4L320 90.6zM312 176a24 24 0 1 1 0 48 24 24 0 1 1 0-48zm-26.1 65.1l40 16 5.6 2.3 2.7 5.4 27.6 55.3 52.1 31.3L432 320l64 112H368l30.2-52.8-56.7-34-85.7-51.4-14.4-8.6 9.3-14 16-24 7.2-10.8 12.1 4.8zm-33.8 91.6l60.3 37.7 7.5 4.7V384v32 16H304 288V416 392.9l-37.9-23.7L218.9 432H183.1l2.6-5.1 43.7-87.7 7.9-15.8 14.9 9.3z"/></svg>