<svg xmlns="http://www.w3.org/2000/svg" viewBox="0 0 640 512"><!--! Font Awesome Pro 6.4.0 by @fontawesome - https://fontawesome.com License - https://fontawesome.com/license (Commercial License) Copyright 2023 Fonticons, Inc. --><path d="M48 48V368H76.8c16.6-28.7 47.6-48 83.2-48s66.6 19.3 83.2 48H320h48V48H48zM480 512c-53 0-96-43-96-96h-8-8H320 256c0 53-43 96-96 96s-96-43-96-96H48 0V368 48 0H48 368h48V48 96h56 9.9l7 7L601 215l7 7V232 368h8 24v48H616 576c0 53-43 96-96 96zM416 240H558.1l-96-96H416v96zM160 464a48 48 0 1 0 0-96 48 48 0 1 0 0 96zm368-48a48 48 0 1 0 -96 0 48 48 0 1 0 96 0zM241 95l80 80 17 17-17 17-80 80-17 17L190.1 272l17-17 39-39H112 88V168h24H246.1l-39-39-17-17L224 78.1l17 17z"/></svg>