<svg xmlns="http://www.w3.org/2000/svg" viewBox="0 0 640 512"><!--! Font Awesome Pro 6.4.0 by @fontawesome - https://fontawesome.com License - https://fontawesome.com/license (Commercial License) Copyright 2023 Fonticons, Inc. --><path d="M368 96h24 80 9.9l7 7L601 215l7 7V232 368h8 24v48H616 576c0 53-43 96-96 96s-96-43-96-96h-8H256c0 53-43 96-96 96s-96-43-96-96H24 0V368H24 76.8c16.6-28.7 47.6-48 83.2-48s66.6 19.3 83.2 48H368V120 96zm94.1 48H416v96H558.1l-96-96zM208 416a48 48 0 1 0 -96 0 48 48 0 1 0 96 0zm272 48a48 48 0 1 0 0-96 48 48 0 1 0 0 96z"/></svg>