<svg xmlns="http://www.w3.org/2000/svg" viewBox="0 0 640 512"><!--! Font Awesome Pro 6.4.0 by @fontawesome - https://fontawesome.com License - https://fontawesome.com/license (Commercial License) Copyright 2023 Fonticons, Inc. --><path d="M368 48H112V96H240h16v32H240 16 0V96H16 64V48 0h48H368h48V48 96h56 9.9l7 7L601 215l7 7V232 368h8 24v48H616 576c0 53-43 96-96 96s-96-43-96-96h-8-8H320 256c0 53-43 96-96 96s-96-43-96-96V368 288h48v44.8c14.1-8.2 30.5-12.8 48-12.8c35.5 0 66.6 19.3 83.2 48H320h48V48zm48 96v96H558.1l-96-96H416zM208 416a48 48 0 1 0 -96 0 48 48 0 1 0 96 0zm272 48a48 48 0 1 0 0-96 48 48 0 1 0 0 96zM48 160H272h16v32H272 48 32V160H48zM16 224H240h16v32H240 16 0V224H16z"/></svg>