<svg xmlns="http://www.w3.org/2000/svg" viewBox="0 0 640 512"><!--! Font Awesome Pro 6.4.0 by @fontawesome - https://fontawesome.com License - https://fontawesome.com/license (Commercial License) Copyright 2023 Fonticons, Inc. --><path d="M352 80v24V224 336H243.2c-16.6-28.7-47.6-48-83.2-48s-66.6 19.3-83.2 48H64V288 128 80H352zM16 288v48H0v48H16h8H64c0 53 43 96 96 96s96-43 96-96h96 32c0 53 43 96 96 96s96-43 96-96h32 8 24V336H616h-8V224H539L477.7 93.8 471.2 80H456 400V32H352 64 16V80v48H0V288H16zm144 48a48 48 0 1 1 0 96 48 48 0 1 1 0-96zM485.9 224H400V128h40.8l45.2 96zM528 384a48 48 0 1 1 -96 0 48 48 0 1 1 96 0z"/></svg>