<svg xmlns="http://www.w3.org/2000/svg" viewBox="0 0 640 512"><!--! Font Awesome Pro 6.4.0 by @fontawesome - https://fontawesome.com License - https://fontawesome.com/license (Commercial License) Copyright 2023 Fonticons, Inc. --><path d="M368 48V368H320 243.2c-16.6-28.7-47.6-48-83.2-48s-66.6 19.3-83.2 48H48V48H368zm16 368c0 53 43 96 96 96s96-43 96-96h40 24V368H616h-8V232v-9.9l-7-7L489 103l-7-7H472 416V48 0H368 48 0V48 368v48H48 64c0 53 43 96 96 96s96-43 96-96h64 48 8 8zm78.1-272l96 96H416V144h46.1zM112 416a48 48 0 1 1 96 0 48 48 0 1 1 -96 0zm368-48a48 48 0 1 1 0 96 48 48 0 1 1 0-96z"/></svg>