<svg xmlns="http://www.w3.org/2000/svg" viewBox="0 0 512 512"><!--! Font Awesome Pro 6.4.0 by @fontawesome - https://fontawesome.com License - https://fontawesome.com/license (Commercial License) Copyright 2023 Fonticons, Inc. --><path d="M322 253.2V188.8c-42.3-17.2-89.7-17.2-132 0v64.4L32 288-8 152.6C22.8 112.4 118.7 32 256 32s233.2 80.4 264 120.6L480 288 322 253.2zM142 188.8V156.4l29.9-12.2c53.9-21.9 114.2-21.9 168.1 0L370 156.4v32.3 25.9l76.6 16.9 19.7-66.8C431 130.1 356.3 80 256 80S81 130.1 45.6 164.7l19.7 66.8L142 214.6V188.8zM32 320H96v64H32V320zm0 96H96v64H32V416zm160-96v64H128V320h64zm32 0h64v64H224V320zm160 0v64H320V320h64zm32 0h64v64H416V320zm64 96v64H416V416h64zm-352 0H384v64H128V416z"/></svg>