<svg xmlns="http://www.w3.org/2000/svg" viewBox="0 0 384 512"><!--! Font Awesome Pro 6.4.0 by @fontawesome - https://fontawesome.com License - https://fontawesome.com/license (Commercial License) Copyright 2023 Fonticons, Inc. --><path d="M112 32V56v56.2L249.4 72.9l23.1-6.6 13.2 46.2-23.1 6.6L112 162.1v46.1l137.4-39.3 23.1-6.6 13.2 46.2-23.1 6.6L112 258.1V432h88c75.1 0 136-60.9 136-136V280 256h48v24 16c0 101.6-82.4 184-184 184H88 64V456 271.8l-25.4 7.3-23.1 6.6L2.3 239.5l23.1-6.6 38.6-11V175.8l-25.4 7.3-23.1 6.6L2.3 143.5l23.1-6.6 38.6-11V56 32h48z"/></svg>