<svg xmlns="http://www.w3.org/2000/svg" viewBox="0 0 512 512"><!--! Font Awesome Pro 6.4.0 by @fontawesome - https://fontawesome.com License - https://fontawesome.com/license (Commercial License) Copyright 2023 Fonticons, Inc. --><path d="M168 6.1l17 17 71 71 71-71 17-17L377.9 40 361 57l-39 39H464h48v48V464v48H464 48 0V464 144 96H48 190.1L151 57l-17-17L168 6.1zM48 144V464H464V144H48zm368 56a24 24 0 1 1 0 48 24 24 0 1 1 0-48zM392 304a24 24 0 1 1 48 0 24 24 0 1 1 -48 0zM352 192V416H96V192H352z"/></svg>