<svg xmlns="http://www.w3.org/2000/svg" viewBox="0 0 512 512"><!--! Font Awesome Pro 6.4.0 by @fontawesome - https://fontawesome.com License - https://fontawesome.com/license (Commercial License) Copyright 2023 Fonticons, Inc. --><path d="M280 0V24v9.1C394.1 43.7 486.5 129.2 507.5 240c3 15.5 4.5 31.6 4.5 48H464 48 0c0-16.4 1.5-32.5 4.5-48C25.5 129.2 117.9 43.7 232 33.1V24 0h48zM256 80C157.6 80 75.2 148.3 53.6 240H458.4C436.8 148.3 354.4 80 256 80zm24 358.6c0 40.6-32.9 73.4-73.4 73.4c-27.8 0-53.2-15.7-65.7-40.6l-2.3-4.7-10.7-21.5 42.9-21.5 10.7 21.5 2.3 4.7c4.3 8.6 13.1 14.1 22.8 14.1c14.1 0 25.4-11.4 25.4-25.4V320h48V438.6z"/></svg>