<svg xmlns="http://www.w3.org/2000/svg" viewBox="0 0 640 512"><!--! Font Awesome Pro 6.4.0 by @fontawesome - https://fontawesome.com License - https://fontawesome.com/license (Commercial License) Copyright 2023 Fonticons, Inc. --><path d="M440 48h32 8 3.2L528 115.3v61.1l-42.7 19L457 167l-7-7H440h-8H408v24 17.7 4.8l1.8 4.4c4 9.6 6.2 20.2 6.2 31.4c0 23.5-9.6 44.1-24.7 58.8l-7.3 7.1v10.1V464H336V346.2 326.8l-19-4c-2.1-.4-4.2-1-6.3-1.6l-88-25.7-31.4-9.2 .7 32.7c0 .4 0 .9 0 1.3c0 8-1.4 16-4.3 23.5L172 385.8l-2.7 7.3 2.1 7.5L188.9 464H139.1l-18.2-65.6-2.1-7.5 2.7-7.3 20.6-54.8 3.3-8.7-3.5-8.6-25.3-63.3c-3-7.6-4.6-15.7-4.6-23.9c0-35.5 28.8-64.2 64.2-64.2h22.6H256h57 21.2l2.6-21C343.2 87.7 387 48 440 48zM551.5 64L540.8 48H560V0H536 508.8 496 480h-8H440C369.9 0 310.9 47.5 293.3 112H256 198.9 176.2c-38.1 0-71.8 19-92.1 48.1C37.3 162.1 0 200.7 0 248v64 24H48V312 248c0-13.2 6.4-25 16.3-32.2c-.2 2.8-.3 5.6-.3 8.5c0 14.3 2.7 28.4 8 41.7l21.9 54.6L76.6 366.7l-5.5 14.6-2.7 7.3 2.1 7.5 4.2 15.1 23.1 83.2 4.9 17.6h18.2 99.6 31.6l-8.5-30.4-24-86.3 13-34.8c1.4-3.7 2.6-7.4 3.6-11.2L288 364.5V488v24h24 96 24V488 327.8c19.8-22.6 32-52.3 32-85.5l0-.3 10.7 10.7 15.1-6.7 72-32 14.3-6.3V192 108v-6.7L640 80V64H551.5zM464 112a16 16 0 1 0 0-32 16 16 0 1 0 0 32z"/></svg>