<svg xmlns="http://www.w3.org/2000/svg" viewBox="0 0 512 512"><!--! Font Awesome Pro 6.4.0 by @fontawesome - https://fontawesome.com License - https://fontawesome.com/license (Commercial License) Copyright 2023 Fonticons, Inc. --><path d="M464 256A208 208 0 1 0 48 256a208 208 0 1 0 416 0zM0 256a256 256 0 1 1 512 0A256 256 0 1 1 0 256zm160.4-86.5L220.4 192h71.3l59.9-22.5 22.5-8.4L390.9 206l-22.5 8.4-64 24-.4 .2v53.5l30.8 92.3 7.6 22.8-45.5 15.2-7.6-22.8L262.7 320H249.3l-26.5 79.6-7.6 22.8-45.5-15.2 7.6-22.8L208 292.1V238.6l-.4-.2-64-24L121.1 206 138 161.1l22.5 8.4zM256 80a40 40 0 1 1 0 80 40 40 0 1 1 0-80z"/></svg>