<svg xmlns="http://www.w3.org/2000/svg" viewBox="0 0 448 512"><!--! Font Awesome Pro 6.4.0 by @fontawesome - https://fontawesome.com License - https://fontawesome.com/license (Commercial License) Copyright 2023 Fonticons, Inc. --><path d="M64 32V96H0V32H64zm96 0V96H96V32h64zm32 0h64V96H192V32zm160 0V96H288V32h64zm32 0h64V96H384V32zM256 352V304h48 28.1L224 195.9 115.9 304H144h48v48 80h64V352zm1.9-190.1L384 288v16 48H352 336 304v48 32 48H256 192 144V432 400 352H112 96 64V304 288L190.1 161.9 224 128l33.9 33.9z"/></svg>