<svg xmlns="http://www.w3.org/2000/svg" viewBox="0 0 640 512"><!--! Font Awesome Pro 6.4.0 by @fontawesome - https://fontawesome.com License - https://fontawesome.com/license (Commercial License) Copyright 2023 Fonticons, Inc. --><path d="M0 0H24 616h24V48H616 24 0V0zM0 464H24 616h24v48H616 24 0V464zM83.2 160a64 64 0 1 1 128 0 64 64 0 1 1 -128 0zM64 256H203.4l-7.8 20.8L167.4 352H32l32-96zm411.8 96l-28.2-75.2L439.8 256H576l32 96H475.8zm-58.2-64l24 64 6 16 18 48H414.3 228.9 177.6l18-48 6-16L224 292.3l1.6-4.3H416h1.6zm17.6-128a64 64 0 1 1 128 0 64 64 0 1 1 -128 0zM321.6 96a80 80 0 1 1 0 160 80 80 0 1 1 0-160zM246.9 368H396.3l-12-32H258.9l-12 32z"/></svg>