<svg xmlns="http://www.w3.org/2000/svg" viewBox="0 0 448 512"><!--! Font Awesome Pro 6.4.0 by @fontawesome - https://fontawesome.com License - https://fontawesome.com/license (Commercial License) Copyright 2023 Fonticons, Inc. --><path d="M224 32C135.6 32 64 103.6 64 192v32H32V192C32 86 118 0 224 0S416 86 416 192V304v16H400 272 224 176V256h96v32H384V192c0-88.4-71.6-160-160-160zM14.4 464L48 352h96 6.6H176h48 48 25.4H400l33.6 112L448 512H397.9 50.1 0l14.4-48zM144 291.9c-29.3-23.5-48-59.5-48-99.9c0-70.7 57.3-128 128-128s128 57.3 128 128c0 23.3-6.2 45.2-17.1 64H304V224 192c0-44.2-35.8-80-80-80s-80 35.8-80 80v32 67.9zM83.7 400L64.5 464h319l-19.2-64H83.7z"/></svg>