<svg xmlns="http://www.w3.org/2000/svg" viewBox="0 0 448 512"><!--! Font Awesome Pro 6.4.0 by @fontawesome - https://fontawesome.com License - https://fontawesome.com/license (Commercial License) Copyright 2023 Fonticons, Inc. --><path d="M224 208a80 80 0 1 0 0-160 80 80 0 1 0 0 160zm128-80A128 128 0 1 1 96 128a128 128 0 1 1 256 0zM209.1 359.2L176 304h48 48l-33.1 55.2 15.9 59.2L304 320h80l48 144 16 48H397.4 280 261.7 186.3 168 50.6 0l16-48L64 320h80l49.2 98.4 15.9-59.2zM381.4 464l-32-96H333.7l-48 96h95.7zM114.3 368H98.6l-32 96h95.7l-48-96z"/></svg>