<svg xmlns="http://www.w3.org/2000/svg" viewBox="0 0 448 512"><!--! Font Awesome Pro 6.4.0 by @fontawesome - https://fontawesome.com License - https://fontawesome.com/license (Commercial License) Copyright 2023 Fonticons, Inc. --><path d="M240 16V0H208V16 64H112 64v48V272v48h48H336h48V272 112 64H336 240V16zm96 96V272H304V240H272v32H240V240H208v32H176V240H144v32H112V112H336zM83.7 400H364.3l19.2 64H304V432 416H272v16 32H240V432 416H208v16 32H176V432 416H144v16 32H64.5l19.2-64zM224 512h64H397.9 448l-14.4-48L400 352H48L14.4 464 0 512H50.1 160h64zM32 128H0V256H32V128zm416 0H416V256h32V128zm-304 5.4L125.4 152l9.3 9.3L149.4 176l-14.7 14.7-9.3 9.3L144 218.6l9.3-9.3L168 194.6l14.7 14.7 9.3 9.3L210.6 200l-9.3-9.3L186.6 176l14.7-14.7 9.3-9.3L192 133.4l-9.3 9.3L168 157.4l-14.7-14.7-9.3-9.3zm121.3 9.3l-9.3-9.3L237.4 152l9.3 9.3L261.4 176l-14.7 14.7-9.3 9.3L256 218.6l9.3-9.3L280 194.6l14.7 14.7 9.3 9.3L322.6 200l-9.3-9.3L298.6 176l14.7-14.7 9.3-9.3L304 133.4l-9.3 9.3L280 157.4l-14.7-14.7z"/></svg>