<svg xmlns="http://www.w3.org/2000/svg" viewBox="0 0 640 512"><!--! Font Awesome Pro 6.4.0 by @fontawesome - https://fontawesome.com License - https://fontawesome.com/license (Commercial License) Copyright 2023 Fonticons, Inc. --><path d="M144 160A80 80 0 1 0 144 0a80 80 0 1 0 0 160zm368 0A80 80 0 1 0 512 0a80 80 0 1 0 0 160zM48 192L0 320H235.3c-26.6-23.5-43.3-57.8-43.3-96c0-11 1.4-21.8 4-32H48zM640 320L592 192H444c2.6 10.2 4 21 4 32c0 38.2-16.8 72.5-43.3 96H640zM320 176a48 48 0 1 1 0 96 48 48 0 1 1 0-96zm0 144a96 96 0 1 0 0-192 96 96 0 1 0 0 192zM211.7 400H428.3l19.2 64h-255l19.2-64zM464 352H176L142.4 464 128 512h50.1H461.9 512l-14.4-48L464 352z"/></svg>