<svg xmlns="http://www.w3.org/2000/svg" viewBox="0 0 640 512"><!--! Font Awesome Pro 6.4.0 by @fontawesome - https://fontawesome.com License - https://fontawesome.com/license (Commercial License) Copyright 2023 Fonticons, Inc. --><path d="M0 0V24 136v24H48V136 48h88 24V0H136 24 0zM640 0H616 504 480V48h24 88v88 24h48V136 24 0zM24 512H136h24V464H136 48V376 352H0v24V488v24H24zm616 0V488 376 352H592v24 88H504 480v48h24H616h24zM260.1 288H224l-20 80-12 48h49.5 157H448l-12-48-20-80H379.9 320 260.1zm14.6-48a72 72 0 1 0 90.5-112.1A72 72 0 1 0 274.7 240zm-13.3 96h117l8 32h-133l8-32zM320 160a24 24 0 1 1 0 48 24 24 0 1 1 0-48zm200 96H441l6.1 24.2L461 336h83l-24-80zm-400 0L96 336h83L193 280.2 199 256H120zm55.8-32a48 48 0 1 0 0-96 48 48 0 1 0 0 96zM512 176a48 48 0 1 0 -96 0 48 48 0 1 0 96 0z"/></svg>