<svg xmlns="http://www.w3.org/2000/svg" viewBox="0 0 448 512"><!--! Font Awesome Pro 6.4.0 by @fontawesome - https://fontawesome.com License - https://fontawesome.com/license (Commercial License) Copyright 2023 Fonticons, Inc. --><path d="M96 48v80h.3c-.2 2.6-.3 5.3-.3 8v24 16 0 48L48 272v32H224 400V272l-48-48V176 160 136c0-2.7-.1-5.4-.3-8h.3V48L224 0 96 48zm48 128h64l32-32 16 16h48v16c0 44.2-35.8 80-80 80s-80-35.8-80-80zM208 40h32V64h24V96H240v24H208V96H184V64h24V40zM189 456.9l6.7 7.1H68.5l29.1-80h22.8L189 456.9zM379.5 464H252.3l6.7-7.1L327.6 384h22.8l29.1 80zM384 336H306.8L257 389l-33 35-33-35-49.9-53H64L17.5 464 0 512H51.1 396.9 448l-17.5-48L384 336z"/></svg>