<svg xmlns="http://www.w3.org/2000/svg" viewBox="0 0 640 512"><!--! Font Awesome Pro 6.4.0 by @fontawesome - https://fontawesome.com License - https://fontawesome.com/license (Commercial License) Copyright 2023 Fonticons, Inc. --><path d="M224 208a80 80 0 1 0 0-160 80 80 0 1 0 0 160zM99.5 352L65 464H348.5c12.3 18.8 28 35.1 46.3 48H50.2 0l14.8-48L64 304H224 332c-5.9 15.1-9.8 31.2-11.3 48H99.5zM96 128a128 128 0 1 1 256 0A128 128 0 1 1 96 128zM352 368a144 144 0 1 1 288 0 144 144 0 1 1 -288 0zm160-80H480v16 64 16h16 48 16V352H544 512V304 288z"/></svg>