<svg xmlns="http://www.w3.org/2000/svg" viewBox="0 0 448 512"><!--! Font Awesome Pro 6.4.0 by @fontawesome - https://fontawesome.com License - https://fontawesome.com/license (Commercial License) Copyright 2023 Fonticons, Inc. --><path d="M304 144c0 44.2-35.8 80-80 80s-80-35.8-80-80V128c0-5.5 .6-10.8 1.6-16H208l32-32 16 16h41.3c4.3 9.8 6.7 20.6 6.7 32v16zM224 0C153.3 0 96 57.3 96 128v16c0 70.7 57.3 128 128 128s128-57.3 128-128V128C352 57.3 294.7 0 224 0zM184.8 451.7l8.7 12.3H66.6l32-96h27.1l59.1 83.7zM381.4 464H254.5l8.7-12.3L322.3 368h27.1l32 96zM384 320H297.4l-44 62.4L224 424l-29.4-41.6-44-62.4H64L16 464 0 512H50.6 397.4 448l-16-48L384 320z"/></svg>