<svg xmlns="http://www.w3.org/2000/svg" viewBox="0 0 448 512"><!--! Font Awesome Pro 6.4.0 by @fontawesome - https://fontawesome.com License - https://fontawesome.com/license (Commercial License) Copyright 2023 Fonticons, Inc. --><path d="M304 144V128c0-11.4-2.4-22.2-6.7-32H256L240 80l-32 32H145.6c-1 5.2-1.6 10.5-1.6 16v16c0 44.2 35.8 80 80 80s80-35.8 80-80zM224 0c70.7 0 128 57.3 128 128v16c0 70.7-57.3 128-128 128s-128-57.3-128-128V128C96 57.3 153.3 0 224 0zM209.1 359.2L176 304h48 48l-33.1 55.2 15.9 59.2L304 320h80l48 144 16 48H397.4 280 261.7 186.3 168 50.6 0l16-48L64 320h80l49.2 98.4 15.9-59.2zM381.4 464l-32-96H333.7l-48 96h95.7zM114.3 368H98.6l-32 96h95.7l-48-96z"/></svg>