<svg xmlns="http://www.w3.org/2000/svg" viewBox="0 0 448 512"><!--! Font Awesome Pro 6.4.0 by @fontawesome - https://fontawesome.com License - https://fontawesome.com/license (Commercial License) Copyright 2023 Fonticons, Inc. --><path d="M96 53.7V144c0 70.7 57.3 128 128 128s128-57.3 128-128V53.7 0L304 24l-16 8L224 0 160 32l-16-8L96 0V53.7zM144 128H304v16c0 44.2-35.8 80-80 80s-80-35.8-80-80V128zM99.5 352H348.5L383 464H65L99.5 352zM384 304H64L14.8 464 0 512H50.2 397.8 448l-14.8-48L384 304z"/></svg>