<svg xmlns="http://www.w3.org/2000/svg" viewBox="0 0 448 512"><!--! Font Awesome Pro 6.4.0 by @fontawesome - https://fontawesome.com License - https://fontawesome.com/license (Commercial License) Copyright 2023 Fonticons, Inc. --><path d="M224 256c70.7 0 128-57.3 128-128S294.7 0 224 0c-49.6 0-92.6 28.2-113.8 69.4c-3-5.8-6.8-11.3-11.7-16.1c-25-25-67.9-22.6-67.9-22.6s-2.4 42.9 22.6 67.9c5.8 5.8 12.6 10.1 19.6 13.4c-7 3.2-13.8 7.6-19.6 13.4c-25 25-22.6 67.9-22.6 67.9s42.9 2.4 67.9-22.6c1.2-1.2 2.4-2.5 3.5-3.8c16.4 51.8 64.8 89.3 122 89.3zM160 96H288h16v32H288 160 144V96h16zm97.3 322.6l.6-.6L323.9 352h24.7L383 464H302.7l-45.4-45.4zM292.8 512h105H448l-14.8-48L384 304H304l-46.1 46.1L224 384l-33.9-33.9L144 304H64L14.8 464 0 512H50.2 292.8zm-57.9-48H65L99.5 352h23.4l112 112z"/></svg>