<svg xmlns="http://www.w3.org/2000/svg" viewBox="0 0 448 512"><!--! Font Awesome Pro 6.4.0 by @fontawesome - https://fontawesome.com License - https://fontawesome.com/license (Commercial License) Copyright 2023 Fonticons, Inc. --><path d="M323 120C309.4 78 270 48 224 48s-85.4 30-99 72H323zm5.5 36.4L248 171.5v95.9l9.9-1.7c8.4-48.3 43-79.4 71.5-95.4l-.9-13.8zm-209 0l-.9 13.8c28.5 16 63.1 47.1 71.5 95.4l9.9 1.7V171.5l-80.5-15.1zM96 70C123.1 27.7 170.5 0 224 0c80.1 0 146.5 62.2 151.7 142.2l8.3 128.2 1.4 21.4-21.2 3.7-136 24c-2.8 .5-5.6 .5-8.3 0l-136-24-21.2-3.7L64 271.2V256 16 0H80 96h16V32H96V70zM64.5 464H160l64-48 64 48h95.5l-19.2-64H83.7L64.5 464zM48 352H400l33.6 112L448 512H397.9 50.1 0l14.4-48L48 352z"/></svg>