<svg xmlns="http://www.w3.org/2000/svg" viewBox="0 0 448 512"><!--! Font Awesome Pro 6.4.0 by @fontawesome - https://fontawesome.com License - https://fontawesome.com/license (Commercial License) Copyright 2023 Fonticons, Inc. --><path d="M224 208c-44.2 0-80-35.8-80-80h32H304c0 44.2-35.8 80-80 80zM150.7 96C163 67.7 191.2 48 224 48c1.2 0 2.5 0 3.7 .1L170.2 96H150.7zM264.6 59c14.5 8.5 26 21.5 32.8 37H220.2l44.4-37zM224 256A128 128 0 1 0 224 0a128 128 0 1 0 0 256zM65 464L96 363.2V464H65zm239 0H261.3l-32-48H304v48zm32 0V400 384H320 208l-21.3-32H348.5L383 464H336zm48-160H64L14.8 464 0 512H50.2 397.8 448l-14.8-48L384 304z"/></svg>