<svg xmlns="http://www.w3.org/2000/svg" viewBox="0 0 448 512"><!--! Font Awesome Pro 6.4.0 by @fontawesome - https://fontawesome.com License - https://fontawesome.com/license (Commercial License) Copyright 2023 Fonticons, Inc. --><path d="M304 144c0 44.2-35.8 80-80 80s-80-35.8-80-80V128c0-5.5 .6-10.8 1.6-16H208l32-32 16 16h41.3c4.3 9.8 6.7 20.6 6.7 32v16zM224 0C153.3 0 96 57.3 96 128v16 48L48 240v32H224 400V240l-48-48V144 128C352 57.3 294.7 0 224 0zM185.6 444.8L200 464H66.6l32-96H128l57.6 76.8zM381.4 464H248l14.4-19.2L320 368h29.4l32 96zM384 320H296l-42 56-30 40-30-40-42-56H64L16 464 0 512H50.6 397.4 448l-16-48L384 320z"/></svg>