<svg xmlns="http://www.w3.org/2000/svg" viewBox="0 0 640 512"><!--! Font Awesome Pro 6.4.0 by @fontawesome - https://fontawesome.com License - https://fontawesome.com/license (Commercial License) Copyright 2023 Fonticons, Inc. --><path d="M224 48a80 80 0 1 1 0 160 80 80 0 1 1 0-160zM99.5 352H325.9c-3.4-16.1-5.3-32.3-5.7-48H224 64L14.8 464 0 512H50.2 397.8h28.3c-19.2-13.7-35.7-30-49.5-48H65L99.5 352zM352 128A128 128 0 1 0 96 128a128 128 0 1 0 256 0zM591.3 312.4c-5.2 61-38.8 121.7-95.3 148V275.5l95.3 36.9zM496 512c96-32 144-130.2 144-216V279.8L496 224 352 279.8V296c0 85.8 48 184 144 216z"/></svg>