<svg xmlns="http://www.w3.org/2000/svg" viewBox="0 0 640 512"><!--! Font Awesome Pro 6.4.0 by @fontawesome - https://fontawesome.com License - https://fontawesome.com/license (Commercial License) Copyright 2023 Fonticons, Inc. --><path d="M304 128a80 80 0 1 1 -160 0 80 80 0 1 1 160 0zM224 0a128 128 0 1 0 0 256A128 128 0 1 0 224 0zM50.2 512L99.5 352H136v50.3c-23.1 6.9-40 28.3-40 53.7c0 30.9 25.1 56 56 56s56-25.1 56-56c0-25.4-16.9-46.8-40-53.7V352H280v50c-27.6 7.1-48 32.2-48 62v32 16h16 24 16V480H272h-8V464c0-17.7 14.3-32 32-32s32 14.3 32 32v16h-8H304v32h16 24 16V496 464c0-29.8-20.4-54.9-48-62V352h36.5l49.2 160H448L384 304H64L0 512H50.2zM152 432a24 24 0 1 1 0 48 24 24 0 1 1 0-48zM384 0V224h64v64l96-64h96V0H384z"/></svg>