<svg xmlns="http://www.w3.org/2000/svg" viewBox="0 0 448 512"><!--! Font Awesome Pro 6.4.0 by @fontawesome - https://fontawesome.com License - https://fontawesome.com/license (Commercial License) Copyright 2023 Fonticons, Inc. --><path d="M80 99.2L48 80V48L224 0 400 48V80L368 99.2V128c-16 10.7-67.2 32-144 32s-128-21.3-144-32V99.2zM227 48.6l-3-1.2-3 1.2L189 61.4l-5 2v5.4c0 17.2 7 46.1 36.9 58.6l3.1 1.3 3.1-1.3C257 114.9 264 86 264 68.8V63.4l-5-2L227 48.6zM96 192c0-7.9 .7-15.7 2.1-23.2c14 5.4 28.5 9.9 43.3 13.4c-.4 3.2-.6 6.5-.6 9.8c0 46 37.2 83.2 83.2 83.2s83.2-37.2 83.2-83.2c0-3.3-.2-6.6-.6-9.8c14.8-3.6 29.3-8.1 43.3-13.4c1.4 7.5 2.1 15.3 2.1 23.2c0 70.7-57.3 128-128 128s-128-57.3-128-128zM208 464l-12.8-9.6L122.7 400h-39L64.5 464H208zm145 0h30.5l-19.2-64h-39l-72.5 54.4L240 464h63l-8.3-6-12.1-8.7 14.9 0 19.8 0 6.1-18.8 4.6-14.2 4.6 14.2 6.1 18.8 19.8 0 14.9 0L361.2 458l-8.3 6zM309.3 352H400l33.6 112L448 512H397.9 50.1 0l14.4-48L48 352h90.7L224 416l85.3-64z"/></svg>