<svg xmlns="http://www.w3.org/2000/svg" viewBox="0 0 640 512"><!--! Font Awesome Pro 6.4.0 by @fontawesome - https://fontawesome.com License - https://fontawesome.com/license (Commercial License) Copyright 2023 Fonticons, Inc. --><path d="M104 136a56 56 0 1 1 112 0 56 56 0 1 1 -112 0zm160 0A104 104 0 1 0 56 136a104 104 0 1 0 208 0zm216 88a96 96 0 1 0 0-192 96 96 0 1 0 0 192zM98.6 336H221.4l32 96H66.6l32-96zM256 288H64L16 432 0 480H50.6 269.4 320l-16-48L256 288zm384 0H320l64 192H576l64-192z"/></svg>