<svg xmlns="http://www.w3.org/2000/svg" viewBox="0 0 640 512"><!--! Font Awesome Pro 6.4.0 by @fontawesome - https://fontawesome.com License - https://fontawesome.com/license (Commercial License) Copyright 2023 Fonticons, Inc. --><path d="M64 304L53.6 337.9l-34.5 112L14.8 464 0 512H50.2 65 383h14.8H448l-14.8-48-4.3-14.1-34.5-112L384 304H348.5 224 99.5 64zM332.8 464H115.2 65l14.8-48 19.7-64H348.5l19.7 64L383 464H332.8zM352 128A128 128 0 1 0 96 128a128 128 0 1 0 256 0zm-208 0a80 80 0 1 1 160 0 80 80 0 1 1 -160 0zM640 512L576 320H422.4l56.2 182.6 2.9 9.4H640zM432 256c61.9 0 112-50.1 112-112s-50.1-112-112-112c-24.8 0-47.7 8.1-66.3 21.7C377.4 75.9 384 101.2 384 128c0 35.6-11.6 68.5-31.3 95.1C373 243.4 401 256 432 256z"/></svg>