<svg xmlns="http://www.w3.org/2000/svg" viewBox="0 0 448 512"><!--! Font Awesome Pro 6.4.0 by @fontawesome - https://fontawesome.com License - https://fontawesome.com/license (Commercial License) Copyright 2023 Fonticons, Inc. --><path d="M304 128c0-11.4-2.4-22.2-6.7-32H256L240 80l-32 32H145.6c-1 5.2-1.6 10.5-1.6 16v16c0 44.2 35.8 80 80 80s80-35.8 80-80V128zM96 128C96 57.3 153.3 0 224 0s128 57.3 128 128v16c0 70.7-57.3 128-128 128s-128-57.3-128-128V128zm3.5 224L50.2 512H0L64 304H384l64 208H397.8L348.5 352H312v50c27.6 7.1 48 32.2 48 62v32 16H344 320 304V480h16 8V464c0-17.7-14.3-32-32-32s-32 14.3-32 32v16h8 16v32H272 248 232V496 464c0-29.8 20.4-54.9 48-62V352H168v50.3c23.1 6.9 40 28.3 40 53.7c0 30.9-25.1 56-56 56s-56-25.1-56-56c0-25.4 16.9-46.8 40-53.7V352H99.5zM176 456a24 24 0 1 0 -48 0 24 24 0 1 0 48 0z"/></svg>