<svg xmlns="http://www.w3.org/2000/svg" viewBox="0 0 640 512"><!--! Font Awesome Pro 6.4.0 by @fontawesome - https://fontawesome.com License - https://fontawesome.com/license (Commercial License) Copyright 2023 Fonticons, Inc. --><path d="M0 0H24 616h24V24 488v24H616 24 0V488 24 0zM48 48V464H592V48H48zm79.8 112a48 48 0 1 1 96 0 48 48 0 1 1 -96 0zM120 240h79L193 264.2 179 320H96l24-80zm424 80H461L447 264.2 441 240h79l24 80zM416 160a48 48 0 1 1 96 0 48 48 0 1 1 -96 0zM253.5 352h133l-8-32h-117l-8 32zM224 272H416l20 80 12 48H398.5h-157H192l12-48 20-80zM344 168a24 24 0 1 0 -48 0 24 24 0 1 0 48 0zm-96 0a72 72 0 1 1 144 0 72 72 0 1 1 -144 0z"/></svg>