<svg xmlns="http://www.w3.org/2000/svg" viewBox="0 0 640 512"><!--! Font Awesome Pro 6.4.0 by @fontawesome - https://fontawesome.com License - https://fontawesome.com/license (Commercial License) Copyright 2023 Fonticons, Inc. --><path d="M544 352v47.6l76.9 59.7 19 14.7-29.4 37.9-19-14.7L19 52.7 0 38 29.4 .1l19 14.7 66.7 51.8L122.5 0h48.3L159.6 101.1 200 132.5V24 0h48V24 168v1.8l43.1 33.5c3.1-5.7 4.9-12.3 4.9-19.2V169.3L280.2 26.7 277.2 0h48.3l2.4 21.3 16 144 .1 1.3V168v16c0 18.1-5.4 34.9-14.8 48.8L384 275.4V176C384 57.1 460.4 14.5 496 3.3C503.5 1 509.2 0 512 0h32V48 224v24 56 48zM104 184v-6.1L248 291.4V488v24H200V488 272h-8c-48.6 0-88-39.4-88-88zm328-8V304h64V248 224 55.1c-7.1 3.6-14.9 8.5-22.6 15.2C453.7 87.4 432 118.3 432 176z"/></svg>