<svg xmlns="http://www.w3.org/2000/svg" viewBox="0 0 512 512"><!--! Font Awesome Pro 6.4.0 by @fontawesome - https://fontawesome.com License - https://fontawesome.com/license (Commercial License) Copyright 2023 Fonticons, Inc. --><path d="M280 24V0H232V24 80H128V56 32H80V56 80H48V56 32H0V56v48 24H24 80h3.2L232 227.2V272H128V248 224H80v24 24H48V248 224H0v24 48 24H24 80h3.2L232 419.2V488v24h48V488 419.2L428.8 320H432h56 24V296 248 224H464v24 24H432V248 224H384v24 24H280V227.2L428.8 128H432h56 24V104 56 32H464V56 80H432V56 32H384V56 80H280V24zm91.2 104L280 188.8V128h91.2zM232 188.8L140.8 128H232v60.8zM371.2 320L280 380.8V320h91.2zM232 380.8L140.8 320H232v60.8z"/></svg>