<svg xmlns="http://www.w3.org/2000/svg" viewBox="0 0 512 512"><!--! Font Awesome Pro 6.4.0 by @fontawesome - https://fontawesome.com License - https://fontawesome.com/license (Commercial License) Copyright 2023 Fonticons, Inc. --><path d="M280 24V0H232V24 80H128V56 32H80V56 80H64.2c-.2 0-.3 0-.5 0H48V56 32H0V56v48 24H24 80h3.2L232 227.2V296 488v24h48V488 296 227.2L428.8 128H432h56 24V104 56 32H464V56 80H448.2c-.2 0-.3 0-.5 0H432V56 32H384V56 80H280V24zm91.2 104L280 188.8V128h91.2zM232 188.8L140.8 128H232v60.8z"/></svg>