<svg xmlns="http://www.w3.org/2000/svg" viewBox="0 0 640 512"><!--! Font Awesome Pro 6.4.0 by @fontawesome - https://fontawesome.com License - https://fontawesome.com/license (Commercial License) Copyright 2023 Fonticons, Inc. --><path d="M24 32H0V56 360v24H24 64c0 53 43 96 96 96s96-43 96-96H384c0 53 43 96 96 96s96-43 96-96h40 24V360 216v-8.8l-5.7-6.7-136-160L491.1 32H480 360 200 24zM480 288c-35.5 0-66.6 19.3-83.2 48H243.2c-16.6-28.7-47.6-48-83.2-48s-66.6 19.3-83.2 48H48V240H200 360 592v96H563.2c-16.6-28.7-47.6-48-83.2-48zM48 192V80H176V192H48zm176 0V80H336V192H224zm160 0V80h84.9l95.2 112H384zm48 192a48 48 0 1 1 96 0 48 48 0 1 1 -96 0zM160 336a48 48 0 1 1 0 96 48 48 0 1 1 0-96z"/></svg>