<svg xmlns="http://www.w3.org/2000/svg" viewBox="0 0 576 512"><!--! Font Awesome Pro 6.4.0 by @fontawesome - https://fontawesome.com License - https://fontawesome.com/license (Commercial License) Copyright 2023 Fonticons, Inc. --><path d="M48 48V432H528V48H48zM0 0H48 528h48V48 432v48H528 512v8 24H464V488v-8H112v8 24H64V488v-8H48 0V432 48 0zM320 240a96 96 0 1 0 -192 0 96 96 0 1 0 192 0zM80 240a144 144 0 1 1 288 0A144 144 0 1 1 80 240zm144-48a48 48 0 1 1 0 96 48 48 0 1 1 0-96zm272-16c0 17.8-9.7 33.3-24 41.6V328v24H424V328 217.6c-14.3-8.3-24-23.8-24-41.6c0-26.5 21.5-48 48-48s48 21.5 48 48z"/></svg>