<svg xmlns="http://www.w3.org/2000/svg" viewBox="0 0 576 512"><!--! Font Awesome Pro 6.4.0 by @fontawesome - https://fontawesome.com License - https://fontawesome.com/license (Commercial License) Copyright 2023 Fonticons, Inc. --><path d="M336 112V400H48V112H336zM48 64H0v48V400v48H48 336h48V400 352 160 112 64H336 48zM528 370.3l-112-56V368l112 56 48 24V394.3 117.7 64L528 88 416 144v53.7l112-56V370.3zM232 352h24V304H232 177.9L281 201l17-17L264 150.1l-17 17-103 103V216 192H96v24V328v24h24H232z"/></svg>