<svg xmlns="http://www.w3.org/2000/svg" viewBox="0 0 576 512"><!--! Font Awesome Pro 6.4.0 by @fontawesome - https://fontawesome.com License - https://fontawesome.com/license (Commercial License) Copyright 2023 Fonticons, Inc. --><path d="M336 112V400H48V112H336zM48 64H0v48V400v48H48 336h48V400 352 160 112 64H336 48zM528 370.3l-112-56V368l112 56 48 24V394.3 117.7 64L528 88 416 144v53.7l112-56V370.3zM152 160H128v48h24 54.1L103 311l-17 17L120 361.9l17-17 103-103V296v24h48V296 184 160H264 152z"/></svg>