<svg xmlns="http://www.w3.org/2000/svg" viewBox="0 0 640 512"><!--! Font Awesome Pro 6.4.0 by @fontawesome - https://fontawesome.com License - https://fontawesome.com/license (Commercial License) Copyright 2023 Fonticons, Inc. --><path d="M333.8 12.3L320 2.7l-13.8 9.6C258.9 45.5 197.5 64.5 137.7 80.8L128 83.5v49.8l22.3-6.1c3.2-.9 6.4-1.8 9.7-2.7v49.8c-31.3 29-70.1 48.9-112.1 57.3l-4.6 .9L32 234.7l0 49V288H56 96v40 8.6c-22.8 28.7-53.9 49.7-89.1 60.3L0 398.9V448H64l0 0v40l0 24 0 0h48V488 448H296v40 24h48V488 448H528v40 24h48l0 0 0-24V448l0 0h64V398.9l-6.9-2.1c-35.2-10.6-66.3-31.6-89.1-60.3V328 288h40 24v-6.2V233.1l-3.7-.7-9.9-1.8c-42.7-7.8-82.3-27.4-114.4-56.5V124.5c3.3 .9 6.5 1.8 9.7 2.7l22.3 6.1V83.5l-9.7-2.6C442.5 64.5 381.1 45.5 333.8 12.3zM496 288v32H344 320 296 144V288H296h24 24H496zM432.1 110.3c0 .6-.1 1.1-.1 1.7v48H344 320 296 208V112c0-.6 0-1.2-.1-1.7C246.2 97.9 285.4 82.4 320 60.8c34.6 21.6 73.8 37.2 112.1 49.5zM487.9 240H344 320 296 153.1c14.6-9.3 28.4-20 41.1-32H296h24 24H445.9c13 12 27.1 22.7 42 32zm19.8 128c9.5 11.7 20.1 22.4 31.6 32H344 320 296 100.7c11.5-9.6 22.1-20.3 31.6-32H296h24 24H507.7z"/></svg>