<svg xmlns="http://www.w3.org/2000/svg" viewBox="0 0 576 512"><!--! Font Awesome Pro 6.4.0 by @fontawesome - https://fontawesome.com License - https://fontawesome.com/license (Commercial License) Copyright 2023 Fonticons, Inc. --><path d="M159.9 316.1L146.2 304H128 48V208h80 18.2l13.6-12.1L272 96.2V415.8L159.9 316.1zM0 352H48h80L272 480h48V432 80 32H272L128 160H48 0v48 96 48zM441 183l-17-17L390.1 200l17 17 39 39-39 39-17 17L424 345.9l17-17 39-39 39 39 17 17L569.9 312l-17-17-39-39 39-39 17-17L536 166.1l-17 17-39 39-39-39z"/></svg>