<svg xmlns="http://www.w3.org/2000/svg" viewBox="0 0 512 512"><!--! Font Awesome Pro 6.4.0 by @fontawesome - https://fontawesome.com License - https://fontawesome.com/license (Commercial License) Copyright 2023 Fonticons, Inc. --><path d="M464 256A208 208 0 1 0 48 256a208 208 0 1 0 416 0zM0 256a256 256 0 1 1 512 0A256 256 0 1 1 0 256zM176 112v32l64 0V112 96h32v16 32h64V112 96h32v16 32h32 16v32H400 368v64h32 16v32H400 368v64h32 16v32H400 368v32 16H336V400 368H272v32 16H240V400 368H176v32 16H144V400 368H112 96V336h16 32V272H112 96V240h16 32V176H112 96V144h16 32V112 96h32v16zm0 128l64 0V176l-64 0v64zm96 0h64V176H272v64zm0 32v64h64V272H272zm-32 0H176v64h64V272z"/></svg>