<svg xmlns="http://www.w3.org/2000/svg" viewBox="0 0 640 512"><!--! Font Awesome Pro 6.4.0 by @fontawesome - https://fontawesome.com License - https://fontawesome.com/license (Commercial License) Copyright 2023 Fonticons, Inc. --><path d="M.2 1.3l33.2 2L248.7 16H391.3L606.6 3.6l33.2-1.9-8.6 32.1L567.3 272H576v48H554.4l0 0h-12c20.7 20.3 33.6 48.7 33.6 80c0 61.9-50.1 112-112 112c-56.4 0-103.1-41.7-110.9-96H286.9c-7.8 54.3-54.4 96-110.9 96c-61.9 0-112-50.1-112-112c0-31.3 12.9-59.7 33.6-80h-12l0 0H64V272h8.7L8.8 33.4 .2 1.3zM517.6 272L576.2 53.4 416 62.7 416 272H517.6zM272 272h96V64H272V272zM63.8 53.1L122.4 272H224V62.6L63.8 53.1zM160 416H114c5.8 22.5 23.5 40.2 46 46V416zm0-32V338c-22.5 5.8-40.2 23.5-46 46h46zm32 78c22.5-5.8 40.2-23.5 46-46H192v46zm0-124v46h46c-5.8-22.5-23.5-40.2-46-46zM448 462V416H402c5.8 22.5 23.5 40.2 46 46zm-46-78h46V338c-22.5 5.8-40.2 23.5-46 46zm124 32H480v46c22.5-5.8 40.2-23.5 46-46zm0-32c-5.8-22.5-23.5-40.2-46-46v46h46z"/></svg>