<svg xmlns="http://www.w3.org/2000/svg" viewBox="0 0 448 512"><!--! Font Awesome Pro 6.4.0 by @fontawesome - https://fontawesome.com License - https://fontawesome.com/license (Commercial License) Copyright 2023 Fonticons, Inc. --><path d="M116.9 0H136 384h24V24 388.7c23.5 9.5 40 32.5 40 59.3c0 35.3-28.7 64-64 64s-64-28.7-64-64c0-26.9 16.5-49.9 40-59.3V224H115L55.4 485.3l-5.3 23.4L3.3 498.1l5.3-23.4 104-456L116.9 0zm9.1 176H360V48H155.1L125.9 176zM384 464a16 16 0 1 0 0-32 16 16 0 1 0 0 32z"/></svg>