<svg xmlns="http://www.w3.org/2000/svg" viewBox="0 0 448 512"><!--! Font Awesome Pro 6.4.0 by @fontawesome - https://fontawesome.com License - https://fontawesome.com/license (Commercial License) Copyright 2023 Fonticons, Inc. --><path d="M48 48V464H400V48H48zM0 0H48 400h48V48 464v48H400 48 0V464 48 0zM104 80a24 24 0 1 1 0 48 24 24 0 1 1 0-48zm56 24a24 24 0 1 1 48 0 24 24 0 1 1 -48 0zM144 256c32 0 56 16 80 32s48 32 80 32c3.6 0 7.1-.1 10.6-.3c3.5-9.9 5.4-20.6 5.4-31.7c0-53-43-96-96-96c-42 0-77.6 26.9-90.7 64.4c3.6-.3 7.2-.4 10.7-.4zm80-112a144 144 0 1 1 0 288 144 144 0 1 1 0-288z"/></svg>