<svg xmlns="http://www.w3.org/2000/svg" viewBox="0 0 384 512"><!--! Font Awesome Pro 6.4.0 by @fontawesome - https://fontawesome.com License - https://fontawesome.com/license (Commercial License) Copyright 2023 Fonticons, Inc. --><path d="M320 0H64V112h1C25.1 147.2 0 198.7 0 256s25.1 108.8 65 144H64V512H320V400h-1c39.9-35.2 65-86.7 65-144s-25.1-108.8-65-144h1V0zM48 256a144 144 0 1 1 288 0A144 144 0 1 1 48 256zm168-80V152H168v24 80 12.8l10.7 7.1 48 32 20 13.3 26.6-39.9-20-13.3L216 243.2V176z"/></svg>