<svg xmlns="http://www.w3.org/2000/svg" viewBox="0 0 576 512"><!--! Font Awesome Pro 6.4.0 by @fontawesome - https://fontawesome.com License - https://fontawesome.com/license (Commercial License) Copyright 2023 Fonticons, Inc. --><path d="M96 126.2c-4.7 3.3-10.4 7-16.9 10.7C59.7 147.8 31.5 160 0 160V112c19.7 0 39.4-7.8 55.3-16.9c15.4-8.7 27.2-19.3 40.2-30.9l0 0 .4-.4 .4 .4c13 11.6 24.9 22.2 40.3 30.9c15.9 9 35.6 16.9 55.3 16.9s39.5-7.8 55.3-16.9c15.4-8.7 27-19.1 40-30.7l.7-.6 .7 .6c13 11.6 24.6 22 40 30.7c15.9 9 35.6 16.9 55.3 16.9s39.5-7.8 55.3-16.9c15.4-8.7 27-19.1 40-30.7l.7-.6 .7 .6c13 11.6 24.6 22 40 30.7c15.9 9 35.7 16.9 55.4 16.9v48c-31.5 0-59.8-12.2-79.1-23.1c-6.5-3.7-12.2-7.4-17-10.7c-4.7 3.3-10.5 7-16.9 10.7c-19.3 11-47.6 23.1-79.1 23.1s-59.7-12.2-79.1-23.1c-6.5-3.7-12.2-7.4-16.9-10.7c-4.7 3.3-10.5 7-16.9 10.7c-19.3 11-47.6 23.1-79.1 23.1s-59.7-12.2-79.1-23.1c-6.5-3.7-12.2-7.4-16.9-10.7zm0 288c-4.7 3.3-10.4 7-16.9 10.7C59.7 435.8 31.5 448 0 448V400c19.7 0 39.4-7.8 55.3-16.9c15.4-8.7 27.2-19.3 40.2-30.9l0 0 .4-.4 .4 .4c13 11.6 24.9 22.2 40.3 30.9c15.9 9 35.6 16.9 55.3 16.9s39.5-7.8 55.3-16.9c15.4-8.7 27-19.1 40-30.7l.7-.6 .7 .6c13 11.6 24.6 22 40 30.7c15.9 9 35.6 16.9 55.3 16.9s39.5-7.8 55.3-16.9c15.4-8.7 27-19.1 40-30.7l0 0 .7-.6 .7 .6c13 11.6 24.6 22 40 30.7c15.9 9 35.7 16.9 55.4 16.9v48c-31.5 0-59.8-12.2-79.1-23.1c-6.5-3.7-12.2-7.4-17-10.7c-4.7 3.3-10.5 7-16.9 10.7c-19.3 11-47.6 23.1-79.1 23.1s-59.7-12.2-79.1-23.1c-6.5-3.7-12.2-7.4-16.9-10.7c-4.7 3.3-10.5 7-16.9 10.7c-19.3 11-47.6 23.1-79.1 23.1s-59.7-12.2-79.1-23.1c-6.5-3.7-12.2-7.4-16.9-10.7zM79 280.9C59.7 291.8 31.5 304 0 304V256c19.7 0 39.4-7.8 55.3-16.9c15.4-8.7 27.2-19.3 40.2-30.9l.4-.4 .4 .4c13 11.6 24.9 22.2 40.3 30.9c15.9 9 35.6 16.9 55.3 16.9s39.5-7.8 55.3-16.9c15.4-8.7 27-19.1 40-30.7l.7-.6 .7 .6c13 11.6 24.6 22 40 30.7c15.9 9 35.6 16.9 55.3 16.9s39.5-7.8 55.3-16.9c15.4-8.7 27-19.1 40-30.7l.7-.6 .7 .6c13 11.6 24.6 22 40 30.7c15.9 9 35.7 16.9 55.4 16.9v48c-31.5 0-59.8-12.2-79.1-23.1c-6.5-3.7-12.2-7.4-17-10.7c-4.7 3.3-10.5 7-16.9 10.7c-19.3 11-47.6 23.1-79.1 23.1s-59.7-12.2-79.1-23.1c-6.5-3.7-12.2-7.4-16.9-10.7c-4.7 3.3-10.5 7-16.9 10.7c-19.3 11-47.6 23.1-79.1 23.1s-59.7-12.2-79.1-23.1c-6.5-3.7-12.2-7.4-16.9-10.7c-4.7 3.3-10.4 7-16.9 10.7z"/></svg>