<svg xmlns="http://www.w3.org/2000/svg" viewBox="0 0 640 512"><!--! Font Awesome Pro 6.4.0 by @fontawesome - https://fontawesome.com License - https://fontawesome.com/license (Commercial License) Copyright 2023 Fonticons, Inc. --><path d="M385 144.5l5.7 12.3 0 0L385 144.5l0 0zM354.3 78.4c2.9-5.4 6.6-10.5 11.2-15c21.9 22 28.4 53.5 19.5 81.2L354.3 78.4zm0 0l-22.8-49c-16.8 16.8-27.2 37.7-31 59.4L286.3 74.6l-33.9 33.9 22.7 49 0 0-22.8-49c-12.7 12.7-21.7 27.7-27 43.6L48.4 14.8 29.4 .1 0 38 19 52.7 591.5 497.2l19 14.7L639.9 474l-19-14.7L458 332.8l9.3-9.3 33.9-33.9-9.1-9.1c15.8-4.2 30.7-12.5 43-24.9l11.3-11.3 33.9-33.9-33.9-33.9 0 0c-11.6-11.5-24.8-20.4-38.9-26.6C546.8 140.9 576 105.9 576 64V48 0H528 512c-41.9 0-77 29.3-85.8 68.5C420 54.3 411.1 41 399.4 29.4l0 0L365.5-4.5 331.6 29.4l22.7 49 0 0zm65.4 224.7l-47.4-36.8c21.9-1.2 44.3 6.5 61 23.3l-11.3 11.3c-.8 .8-1.6 1.5-2.4 2.2zM307.9 216.3l-8.5-6.6-24.2-52.1c2.9-5.4 6.6-10.5 11.2-15c20 20 27.2 48 21.5 73.7zm-8.5-6.6L267.7 185c.4-9.5 2.9-18.9 7.5-27.5l24.2 52zm55-131.2L385 144.5c-2.2 6.8-5.3 13.3-9.4 19.5l-10.1-10.1c-20.4-20.4-24.2-51.2-11.2-75.4zM173.3 346.1l11.3 11.3 0 0L82.2 459.8l-17 17 33.9 33.9 17-17L218.5 391.4l11.2 11.2c43.7 43.7 114.6 43.7 158.4 0l-49-22.8c-24.2 13-55 9.2-75.4-11.2l-10.1-10.2c6.1-4 12.7-7.2 19.5-9.4l-8.4-3.9 0 0 8.4 3.9c15.5-5 32.2-5.1 47.7-.5l-90.2-71.1c.1 8.5-1.2 17-3.9 25.2l4 8.5 0 0-4-8.5c-2.2 6.8-5.3 13.3-9.4 19.5l-10.1-10.1c-17.6-17.6-22.8-43-15.6-65.2l-39.1-30.8c-21.4 42.1-14.5 94.8 20.7 129.9zm165.9 33.8L273 349.2l0 0 66.1 30.7 0 0zm0 0l49 22.8 .5-.5-38.1-30c-3.6 3-7.4 5.6-11.3 7.8zm-112.5-77l0 0L206 258.3l0 0 20.7 44.5zm285.8-92.5l-11.3 11.3c-18.7 18.7-49.1 18.7-67.9 0l-21.5-21.5c31-20.5 73.3-17.2 100.6 10.2zM512 48h16V64c0 22.1-17.9 40-40 40H472V88c0-22.1 17.9-40 40-40z"/></svg>