<svg xmlns="http://www.w3.org/2000/svg" viewBox="0 0 640 512"><!--! Font Awesome Pro 6.4.0 by @fontawesome - https://fontawesome.com License - https://fontawesome.com/license (Commercial License) Copyright 2023 Fonticons, Inc. --><path d="M344 56V32H296V56 312v24h48V312 56zM1.2 155.9l32.4 35.4C96.1 134 175.8 95.3 264 83.7V56 35.3C163.3 47.2 72.3 90.8 1.2 155.9zM119.4 286.4l32.5 35.3C183 293 221.4 272.2 264 262.3V213.3c-55.2 10.6-104.9 36.5-144.6 73.1zM376 213.3v49.1c42.6 9.8 81 30.6 112.1 59.3l32.5-35.3c-39.7-36.6-89.4-62.5-144.6-73.1zM264 424a56 56 0 1 0 112 0 56 56 0 1 0 -112 0zM376 56V83.7C464.2 95.3 543.9 134 606.3 191.3l32.4-35.4C567.7 90.8 476.7 47.2 376 35.3V56z"/></svg>