<svg xmlns="http://www.w3.org/2000/svg" viewBox="0 0 512 512"><!--! Font Awesome Pro 6.4.0 by @fontawesome - https://fontawesome.com License - https://fontawesome.com/license (Commercial License) Copyright 2023 Fonticons, Inc. --><path d="M288 0V48h24 44c24.3 0 44 19.7 44 44s-19.7 44-44 44H24 0v48H24 356c50.8 0 92-41.2 92-92s-41.2-92-92-92H312 288zm64 416h24 44c50.8 0 92-41.2 92-92s-41.2-92-92-92H24 0v48H24 420c24.3 0 44 19.7 44 44s-19.7 44-44 44H376 352v48zM120 512h44c50.8 0 92-41.2 92-92s-41.2-92-92-92H24 0v48H24 164c24.3 0 44 19.7 44 44s-19.7 44-44 44H120 96v48h24z"/></svg>