<svg xmlns="http://www.w3.org/2000/svg" viewBox="0 0 640 512"><!--! Font Awesome Pro 6.4.0 by @fontawesome - https://fontawesome.com License - https://fontawesome.com/license (Commercial License) Copyright 2023 Fonticons, Inc. --><path d="M224 432c61.8 0 116.1-31.8 147.5-80h54.9c-36 75.7-113.1 128-202.4 128C100.3 480 0 379.7 0 256S100.3 32 224 32c118.3 0 215.2 91.8 223.4 208H399.3C391.2 150.3 315.8 80 224 80C126.8 80 48 158.8 48 256s78.8 176 176 176zM544 224H478c-2.1-16.5-5.7-32.6-10.8-48H544c26.5 0 48-21.5 48-48s-21.5-48-48-48H504 480V32h24 40c53 0 96 43 96 96s-43 96-96 96zM448 480V432h24 64c30.9 0 56-25.1 56-56s-25.1-56-56-56H344 320V272h24H536c57.4 0 104 46.6 104 104s-46.6 104-104 104H472 448zM248 128v24V264v24H200V264 152 128h48zM200 368V320h48v48H200z"/></svg>