<svg xmlns="http://www.w3.org/2000/svg" viewBox="0 0 512 512"><!--! Font Awesome Pro 6.4.0 by @fontawesome - https://fontawesome.com License - https://fontawesome.com/license (Commercial License) Copyright 2023 Fonticons, Inc. --><path d="M320 32c-17.7 0-32 14.3-32 32s14.3 32 32 32h50.7L256 210.7 141.3 96H192c17.7 0 32-14.3 32-32s-14.3-32-32-32H64C46.3 32 32 46.3 32 64V192c0 17.7 14.3 32 32 32s32-14.3 32-32V141.3L210.7 256 96 370.7V320c0-17.7-14.3-32-32-32s-32 14.3-32 32V448c0 17.7 14.3 32 32 32H192c17.7 0 32-14.3 32-32s-14.3-32-32-32H141.3L256 301.3 370.7 416H320c-17.7 0-32 14.3-32 32s14.3 32 32 32H448c17.7 0 32-14.3 32-32V320c0-17.7-14.3-32-32-32s-32 14.3-32 32v50.7L301.3 256 416 141.3V192c0 17.7 14.3 32 32 32s32-14.3 32-32V64c0-17.7-14.3-32-32-32H320z"/></svg>