<svg xmlns="http://www.w3.org/2000/svg" viewBox="0 0 640 512"><!--! Font Awesome Pro 6.4.0 by @fontawesome - https://fontawesome.com License - https://fontawesome.com/license (Commercial License) Copyright 2023 Fonticons, Inc. --><path d="M448 32c0-17.7-14.3-32-32-32s-32 14.3-32 32H256c0-17.7-14.3-32-32-32s-32 14.3-32 32H80C53.5 32 32 53.5 32 80V352c-17.7 0-32 14.3-32 32s14.3 32 32 32H80 288v64c0 17.7 14.3 32 32 32s32-14.3 32-32V416H560h48c17.7 0 32-14.3 32-32s-14.3-32-32-32V80c0-26.5-21.5-48-48-48H448zM320 352H96V96h96v32c-17.7 0-32 14.3-32 32s14.3 32 32 32h32 32c17.7 0 32-14.3 32-32s-14.3-32-32-32V96H384v32c-17.7 0-32 14.3-32 32s14.3 32 32 32h32 32c17.7 0 32-14.3 32-32s-14.3-32-32-32V96h96V352H320z"/></svg>