<svg xmlns="http://www.w3.org/2000/svg" viewBox="0 0 640 512"><!--! Font Awesome Pro 6.4.0 by @fontawesome - https://fontawesome.com License - https://fontawesome.com/license (Commercial License) Copyright 2023 Fonticons, Inc. --><path d="M152 0c-13.3 0-24 10.7-24 24v8c-8.8 0-16 7.2-16 16s7.2 16 16 16H256c8.8 0 16-7.2 16-16s-7.2-16-16-16V24c0-13.3-10.7-24-24-24H152zM32 192H352c0-26.5-10.7-50.5-28.1-67.9c-1.1-1.1-2.1-2.1-3.2-3.1c-17.1-15.5-39.7-25-64.6-25H128c-53 0-96 43-96 96zm352 0H575.1c-1.2-9.7-4.6-18.7-9.6-26.5c6.4-9.5 10.1-21 10.1-33.3c0-23.2-13.4-44.3-34.4-54.2L528 71.8c-5.3-2.5-10.8-4.4-16.4-5.7V24c0-13.3-10.7-24-24-24h-80c-13.3 0-24 10.7-24 24V66.1c-5.6 1.3-11.1 3.2-16.4 5.7L354.1 78c-7.2 3.4-13.5 8-18.6 13.6C365 115.1 384 151.3 384 192zM32 224c-17.7 0-32 14.3-32 32s14.3 32 32 32L56.2 457c4.5 31.5 31.5 55 63.4 55h401c31.8 0 58.9-23.4 63.4-55L608 288c17.7 0 32-14.3 32-32s-14.3-32-32-32H32zM308.5 326.1l-7.6 11.4c-4.8 7.2-14.5 9.3-21.8 4.7c-7.6-4.8-9.8-14.9-4.8-22.4l7.6-11.4c8.5-12.7 22.8-20.4 38.1-20.4c15.4 0 29.8 7.7 38.2 20.6l8.5 12.9c4.9 7.5 2.7 17.6-4.9 22.4c-7.4 4.6-17.1 2.5-21.8-4.8l-8.5-12.9c-2.6-3.9-6.9-6.2-11.5-6.2c-4.6 0-8.9 2.3-11.5 6.1zm-43.1 64.7l-7.9 11.9c-.9 1.4-1.4 3.1-1.4 4.7c0 4.7 3.8 8.6 8.6 8.6h25.2c8.8 0 16 7.2 16 16s-7.2 16-16 16H264.6c-22.4 0-40.6-18.2-40.6-40.6c0-8 2.4-15.8 6.8-22.5l7.9-11.9c4.8-7.2 14.5-9.3 21.8-4.7c7.6 4.8 9.8 14.9 4.8 22.4zM353.7 416h20.9c4.8 0 8.6-3.9 8.6-8.6c0-1.7-.5-3.3-1.4-4.7l-6.6-10.1c-4.9-7.5-2.7-17.6 4.9-22.4c7.4-4.6 17.1-2.5 21.8 4.8l6.6 10.1c4.4 6.6 6.7 14.4 6.7 22.4c0 22.4-18.2 40.6-40.6 40.6H353.7c-8.8 0-16-7.2-16-16s7.2-16 16-16z"/></svg>