<svg xmlns="http://www.w3.org/2000/svg" viewBox="0 0 512 512"><!--! Font Awesome Pro 6.4.0 by @fontawesome - https://fontawesome.com License - https://fontawesome.com/license (Commercial License) Copyright 2023 Fonticons, Inc. --><path d="M160 0c17.7 0 32 14.3 32 32V64H320V32c0-17.7 14.3-32 32-32s32 14.3 32 32V64h48c26.5 0 48 21.5 48 48v48H32V112c0-26.5 21.5-48 48-48h48V32c0-17.7 14.3-32 32-32zM32 192H480V464c0 26.5-21.5 48-48 48H80c-26.5 0-48-21.5-48-48V192zm308.8 75c-14.7-14.7-38.6-14.7-53.3 0L272.6 282l53.3 53.3 14.9-14.9c14.7-14.7 14.7-38.6 0-53.3zM178.1 376.5c-4.1 4.1-7 9.2-8.4 14.9L160.5 428c-1.4 5.5 .2 11.2 4.2 15.2s9.7 5.6 15.2 4.2l36.6-9.2c5.6-1.4 10.8-4.3 14.9-8.4l71.9-71.9L250 304.6l-71.9 71.9z"/></svg>