<svg xmlns="http://www.w3.org/2000/svg" viewBox="0 0 576 512"><!--! Font Awesome Pro 6.4.0 by @fontawesome - https://fontawesome.com License - https://fontawesome.com/license (Commercial License) Copyright 2023 Fonticons, Inc. --><path d="M64 96c0-35.3 28.7-64 64-64H448c35.3 0 64 28.7 64 64V246.3l53.3 79.9c7 10.5 10.7 22.9 10.7 35.5V416c0 35.3-28.7 64-64 64H64c-35.3 0-64-28.7-64-64V361.7c0-12.6 3.7-25 10.7-35.5L64 246.3V96zM288 256a64 64 0 1 0 0-128 64 64 0 1 0 0 128zM448 128a32 32 0 1 0 -64 0 32 32 0 1 0 64 0zM112 384c-8.8 0-16 7.2-16 16s7.2 16 16 16H464c8.8 0 16-7.2 16-16s-7.2-16-16-16H112z"/></svg>