<svg xmlns="http://www.w3.org/2000/svg" viewBox="0 0 576 512"><!-- Font Awesome Pro 6.0.0-alpha2 by @fontawesome - https://fontawesome.com License - https://fontawesome.com/license (Commercial License) --><path d="M160 352C177.625 352 192 337.625 192 320S177.625 288 160 288S128 302.375 128 320S142.375 352 160 352ZM528 32H48C21.49 32 0 53.49 0 80V128H576V80C576 53.49 554.51 32 528 32ZM0 432C0 458.51 21.49 480 48 480H528C554.51 480 576 458.51 576 432V160H0V432ZM320 224H512V416H320V224ZM160 224C212.951 224 256 267.051 256 320S212.951 416 160 416C107.051 416 64 372.949 64 320S107.051 224 160 224Z"/></svg>