<svg xmlns="http://www.w3.org/2000/svg" viewBox="0 0 512 512"><!--! Font Awesome Pro 6.4.0 by @fontawesome - https://fontawesome.com License - https://fontawesome.com/license (Commercial License) Copyright 2023 Fonticons, Inc. --><path d="M64 64c0-17.7-14.3-32-32-32S0 46.3 0 64V400c0 44.2 35.8 80 80 80H480c17.7 0 32-14.3 32-32s-14.3-32-32-32H80c-8.8 0-16-7.2-16-16V64zm313.4 57.4L288 210.7l-57.4-57.4c-12.5-12.5-32.8-12.5-45.3 0l-80 80c-12.5 12.5-12.5 32.8 0 45.3s32.8 12.5 45.3 0L208 221.3l57.4 57.4c12.5 12.5 32.8 12.5 45.3 0l112-112 18.7 18.7c4.2 4.2 10 6.6 16 6.6c12.5 0 22.6-10.1 22.6-22.6V96.2v-.3V80c0-8.8-7.2-16-16-16H374.6C362.1 64 352 74.1 352 86.6c0 6 2.4 11.8 6.6 16l18.7 18.7zm64 141.3l-18.7 18.7-34.7-34.7-45.3 45.3 34.7 34.7-18.7 18.7c-4.2 4.2-6.6 10-6.6 16c0 12.5 10.1 22.6 22.6 22.6l89.4 0c8.8 0 16-7.2 16-16V278.6c0-12.5-10.1-22.6-22.6-22.6c-6 0-11.8 2.4-16 6.6z"/></svg>