<svg xmlns="http://www.w3.org/2000/svg" viewBox="0 0 320 512"><!--! Font Awesome Pro 6.4.0 by @fontawesome - https://fontawesome.com License - https://fontawesome.com/license (Commercial License) Copyright 2023 Fonticons, Inc. --><path d="M67.4 384L80 264 49.4 233.4c-6-6-9.4-14.1-9.4-22.6V112c0-8.8 7.2-16 16-16H80c8.8 0 16 7.2 16 16v24c0 4.4 3.6 8 8 8h16c4.4 0 8-3.6 8-8V112c0-8.8 7.2-16 16-16h32c8.8 0 16 7.2 16 16v24c0 4.4 3.6 8 8 8h16c4.4 0 8-3.6 8-8V112c0-8.8 7.2-16 16-16h24c8.8 0 16 7.2 16 16v98.7c0 8.5-3.4 16.6-9.4 22.6L240 264l12.6 120H67.4zM136 280.9c0 3.9 3.2 7.1 7.1 7.1h33.8c3.9 0 7.1-3.2 7.1-7.1V248c0-13.3-10.7-24-24-24s-24 10.7-24 24v32.9zM20.8 473.6L64 416H256l43.2 57.6c3.1 4.2 4.8 9.2 4.8 14.4c0 13.3-10.7 24-24 24H40c-13.3 0-24-10.7-24-24c0-5.2 1.7-10.2 4.8-14.4z"/></svg>