<svg xmlns="http://www.w3.org/2000/svg" viewBox="0 0 512 512"><!--! Font Awesome Pro 6.4.0 by @fontawesome - https://fontawesome.com License - https://fontawesome.com/license (Commercial License) Copyright 2023 Fonticons, Inc. --><path d="M48 224c-26.5 0-48 21.5-48 48v80H512V272c0-26.5-21.5-48-48-48H48zM512 384H0v80c0 26.5 21.5 48 48 48H464c26.5 0 48-21.5 48-48V384zM64 272a16 16 0 1 1 0 32 16 16 0 1 1 0-32zM48 448a16 16 0 1 1 32 0 16 16 0 1 1 -32 0zM448 272a16 16 0 1 1 0 32 16 16 0 1 1 0-32zM432 448a16 16 0 1 1 32 0 16 16 0 1 1 -32 0z"/></svg>