<svg xmlns="http://www.w3.org/2000/svg" viewBox="0 0 640 512"><!--! Font Awesome Pro 6.4.0 by @fontawesome - https://fontawesome.com License - https://fontawesome.com/license (Commercial License) Copyright 2023 Fonticons, Inc. --><path d="M0 64C0 28.7 28.7 0 64 0H512c35.3 0 64 28.7 64 64V211.2c-19.5-10-41.1-16.4-64-18.5V64H64V352H320.7c-.5 5.3-.7 10.6-.7 16c0 59.5 29.5 112.1 74.8 144H160c-17.7 0-32-14.3-32-32s14.3-32 32-32h69.3L240 416H64c-35.3 0-64-28.7-64-64V64zm480 56v72.7c-16.7 1.5-32.7 5.3-47.7 11.2c-.2-1.3-.3-2.6-.3-3.9V177.9L321 289c-4.5 4.5-10.6 7-17 7s-12.5-2.5-17-7l-63-63-87 87c-9.4 9.4-24.6 9.4-33.9 0s-9.4-24.6 0-33.9L207 175c9.4-9.4 24.6-9.4 33.9 0l63 63L398.1 144H376c-13.3 0-24-10.7-24-24s10.7-24 24-24h80c13.3 0 24 10.7 24 24zM352 368a144 144 0 1 1 288 0 144 144 0 1 1 -288 0zm118.6-25.4a35.9 35.9 0 1 1 50.7 50.7 35.9 35.9 0 1 1 -50.7-50.7zM531.3 426l17.3 17.3c6.2 6.2 16.4 6.2 22.6 0s6.2-16.4 0-22.6L554 403.3c13.2-21.6 13.2-49.1 0-70.7l17.3-17.3c6.2-6.2 6.2-16.4 0-22.6s-16.4-6.2-22.6 0L531.3 310c-21.6-13.2-49.1-13.2-70.7 0l-17.3-17.3c-6.2-6.2-16.4-6.2-22.6 0s-6.2 16.4 0 22.6L438 332.7c-13.2 21.6-13.2 49.1 0 70.7l-17.3 17.3c-6.2 6.2-6.2 16.4 0 22.6s16.4 6.2 22.6 0L460.7 426c21.6 13.2 49.1 13.2 70.7 0z"/></svg>