<svg xmlns="http://www.w3.org/2000/svg" viewBox="0 0 448 512"><!--! Font Awesome Pro 6.4.0 by @fontawesome - https://fontawesome.com License - https://fontawesome.com/license (Commercial License) Copyright 2023 Fonticons, Inc. --><path d="M73.9 345.9L196.7 468.7c7.2 7.2 17.1 11.3 27.3 11.3s20.1-4.1 27.3-11.3L374.1 345.9c6.4-6.4 9.9-15 9.9-24c0-18.7-15.2-33.9-33.9-33.9H288V160c0-17.7-14.3-32-32-32H192c-17.7 0-32 14.3-32 32V288H97.9C79.2 288 64 303.2 64 321.9c0 9 3.6 17.6 9.9 24zM32 32a32 32 0 1 0 0 64 32 32 0 1 0 0-64zm96 0a32 32 0 1 0 0 64 32 32 0 1 0 0-64zM256 64a32 32 0 1 0 -64 0 32 32 0 1 0 64 0zm64-32a32 32 0 1 0 0 64 32 32 0 1 0 0-64zM448 64a32 32 0 1 0 -64 0 32 32 0 1 0 64 0z"/></svg>