<svg xmlns="http://www.w3.org/2000/svg" viewBox="0 0 448 512"><!--! Font Awesome Pro 6.4.0 by @fontawesome - https://fontawesome.com License - https://fontawesome.com/license (Commercial License) Copyright 2023 Fonticons, Inc. --><path d="M374.1 217.9L251.3 340.7c-7.2 7.2-17.1 11.3-27.3 11.3s-20.1-4.1-27.3-11.3L73.9 217.9c-6.4-6.4-9.9-15-9.9-24C64 175.2 79.2 160 97.9 160l62.1 0 0-128c0-17.7 14.3-32 32-32h64c17.7 0 32 14.3 32 32l0 128 62.1 0c18.7 0 33.9 15.2 33.9 33.9c0 9-3.6 17.6-9.9 24zM64 352v64c0 17.7 14.3 32 32 32H352c17.7 0 32-14.3 32-32V352c0-17.7 14.3-32 32-32s32 14.3 32 32v64c0 53-43 96-96 96H96c-53 0-96-43-96-96V352c0-17.7 14.3-32 32-32s32 14.3 32 32z"/></svg>