<svg xmlns="http://www.w3.org/2000/svg" viewBox="0 0 640 512"><!--! Font Awesome Pro 6.4.0 by @fontawesome - https://fontawesome.com License - https://fontawesome.com/license (Commercial License) Copyright 2023 Fonticons, Inc. --><path d="M128 64c0-35.3 28.7-64 64-64H352V128c0 17.7 14.3 32 32 32H512v96H128V64zm0 304H512v80c0 35.3-28.7 64-64 64H192c-35.3 0-64-28.7-64-64V368zM512 128H384V0L512 128zM56 288H168c13.3 0 24 10.7 24 24s-10.7 24-24 24H56c-13.3 0-24-10.7-24-24s10.7-24 24-24zm224 0h80c13.3 0 24 10.7 24 24s-10.7 24-24 24H280c-13.3 0-24-10.7-24-24s10.7-24 24-24zm192 0H584c13.3 0 24 10.7 24 24s-10.7 24-24 24H472c-13.3 0-24-10.7-24-24s10.7-24 24-24z"/></svg>