<svg xmlns="http://www.w3.org/2000/svg" viewBox="0 0 512 512"><!--! Font Awesome Pro 6.4.0 by @fontawesome - https://fontawesome.com License - https://fontawesome.com/license (Commercial License) Copyright 2023 Fonticons, Inc. --><path d="M0 64C0 28.7 28.7 0 64 0H224V128c0 17.7 14.3 32 32 32H384V304H176c-35.3 0-64 28.7-64 64V512H64c-35.3 0-64-28.7-64-64V64zm384 64H256V0L384 128zM176 352h32c26.5 0 48 21.5 48 48v64c0 26.5-21.5 48-48 48H176c-8.8 0-16-7.2-16-16V368c0-8.8 7.2-16 16-16zm16 128h16c8.8 0 16-7.2 16-16V400c0-8.8-7.2-16-16-16H192v96zM456 352h16c22.1 0 40 17.9 40 40v8c0 8.8-7.2 16-16 16s-16-7.2-16-16v-8c0-4.4-3.6-8-8-8H456c-4.4 0-8 3.6-8 8v80c0 4.4 3.6 8 8 8h16c4.4 0 8-3.6 8-8v-8c0-8.8 7.2-16 16-16s16 7.2 16 16v8c0 22.1-17.9 40-40 40H456c-22.1 0-40-17.9-40-40V392c0-22.1 17.9-40 40-40zM288 392c0-22.1 17.9-40 40-40h16c22.1 0 40 17.9 40 40v80c0 22.1-17.9 40-40 40H328c-22.1 0-40-17.9-40-40V392zm40-8c-4.4 0-8 3.6-8 8v80c0 4.4 3.6 8 8 8h16c4.4 0 8-3.6 8-8V392c0-4.4-3.6-8-8-8H328z"/></svg>