<svg xmlns="http://www.w3.org/2000/svg" viewBox="0 0 576 512"><!-- Font Awesome Pro 6.0.0-alpha2 by @fontawesome - https://fontawesome.com License - https://fontawesome.com/license (Commercial License) --><path d="M288 32C129 32 0 161 0 320C0 372.75 14.25 422.25 39 464.75C44.625 474.375 55.375 480 66.5 480H509.5C520.625 480 531.375 474.375 537 464.75C561.75 422.25 576 372.75 576 320C576 161 447 32 288 32ZM343.125 416H232.875C227.375 406.5 224 395.75 224 384C224 357.125 240.5 334.25 264 324.75V128C264 114.75 274.75 104 288 104S312 114.75 312 128V324.75C335.5 334.25 352 357.125 352 384C352 395.75 348.625 406.5 343.125 416Z"/></svg>