<svg xmlns="http://www.w3.org/2000/svg" viewBox="0 0 576 512"><!--! Font Awesome Pro 6.4.0 by @fontawesome - https://fontawesome.com License - https://fontawesome.com/license (Commercial License) Copyright 2023 Fonticons, Inc. --><path d="M304 0c-26.5 0-48 21.5-48 48V64c35.3 0 64 28.7 64 64V480c0 11.7-3.1 22.6-8.6 32H528c26.5 0 48-21.5 48-48V384H464c-8.8 0-16-7.2-16-16s7.2-16 16-16H576V288H464c-8.8 0-16-7.2-16-16s7.2-16 16-16H576V48c0-26.5-21.5-48-48-48H304zM408 96c0-8.8 7.2-16 16-16h16c8.8 0 16 7.2 16 16v24h24c8.8 0 16 7.2 16 16v16c0 8.8-7.2 16-16 16H456v24c0 8.8-7.2 16-16 16H424c-8.8 0-16-7.2-16-16V168H384c-8.8 0-16-7.2-16-16V136c0-8.8 7.2-16 16-16h24V96zM0 144V384H144c8.8 0 16 7.2 16 16s-7.2 16-16 16H0v48c0 26.5 21.5 48 48 48H240c26.5 0 48-21.5 48-48V144c0-26.5-21.5-48-48-48H48C21.5 96 0 117.5 0 144zm120 48c0-8.8 7.2-16 16-16h16c8.8 0 16 7.2 16 16v24h24c8.8 0 16 7.2 16 16v16c0 8.8-7.2 16-16 16H168v24c0 8.8-7.2 16-16 16H136c-8.8 0-16-7.2-16-16V264H96c-8.8 0-16-7.2-16-16V232c0-8.8 7.2-16 16-16h24V192z"/></svg>