<svg xmlns="http://www.w3.org/2000/svg" viewBox="0 0 384 512"><!-- Font Awesome Pro 6.0.0-alpha2 by @fontawesome - https://fontawesome.com License - https://fontawesome.com/license (Commercial License) --><path d="M352 448V426.664C352 398.969 343.018 372.023 326.4 349.867L256 256L326.4 162.133C343.018 139.977 352 113.027 352 85.332V64C369.674 64 384 49.672 384 32C384 14.326 369.674 0 352 0H32C14.326 0 0 14.326 0 32C0 49.672 14.326 64 32 64V85.332C32 113.027 40.982 139.977 57.6 162.133L128 256L57.6 349.867C40.982 372.023 32 398.969 32 426.664V448C14.326 448 0 462.326 0 480C0 497.672 14.326 512 32 512H352C369.674 512 384 497.672 384 480C384 462.326 369.674 448 352 448ZM108.799 123.734C100.545 112.727 96 99.09 96 85.332V64H288V85.332C288 99.09 283.455 112.727 275.201 123.734L192 234.668L108.799 123.734ZM96 448V426.664C96 412.91 100.545 399.273 108.799 388.266L192 277.332L275.201 388.266C283.455 399.273 288 412.91 288 426.664V448H96Z"/></svg>