<svg xmlns="http://www.w3.org/2000/svg" viewBox="0 0 640 512"><!--! Font Awesome Pro 6.4.0 by @fontawesome - https://fontawesome.com License - https://fontawesome.com/license (Commercial License) Copyright 2023 Fonticons, Inc. --><path d="M64 96c0-35.3 28.7-64 64-64H512c35.3 0 64 28.7 64 64V352H512V96H128V352H64V96zM0 403.2C0 392.6 8.6 384 19.2 384H620.8c10.6 0 19.2 8.6 19.2 19.2c0 42.4-34.4 76.8-76.8 76.8H76.8C34.4 480 0 445.6 0 403.2zM200 128h16c22.1 0 40 17.9 40 40v32c0 22.1-17.9 40-40 40H200c-22.1 0-40-17.9-40-40V168c0-22.1 17.9-40 40-40zm-8 40v32c0 4.4 3.6 8 8 8h16c4.4 0 8-3.6 8-8V168c0-4.4-3.6-8-8-8H200c-4.4 0-8 3.6-8 8zm112-40h16c8.8 0 16 7.2 16 16v80c0 8.8-7.2 16-16 16s-16-7.2-16-16V160c-8.8 0-16-7.2-16-16s7.2-16 16-16zm80 40c0-22.1 17.9-40 40-40h16c22.1 0 40 17.9 40 40v32c0 22.1-17.9 40-40 40H424c-22.1 0-40-17.9-40-40V168zm40-8c-4.4 0-8 3.6-8 8v32c0 4.4 3.6 8 8 8h16c4.4 0 8-3.6 8-8V168c0-4.4-3.6-8-8-8H424zM192 272h16c8.8 0 16 7.2 16 16v64H192V304c-8.8 0-16-7.2-16-16s7.2-16 16-16zm256 16v64H416V304c-8.8 0-16-7.2-16-16s7.2-16 16-16h16c8.8 0 16 7.2 16 16zm-80 24v40l-32 0V312c0-4.4-3.6-8-8-8H312c-4.4 0-8 3.6-8 8v40l-32 0V312c0-22.1 17.9-40 40-40h16c22.1 0 40 17.9 40 40z"/></svg>