<svg xmlns="http://www.w3.org/2000/svg" viewBox="0 0 576 512"><!-- Font Awesome Pro 6.0.0-alpha2 by @fontawesome - https://fontawesome.com License - https://fontawesome.com/license (Commercial License) --><path d="M96 304.078C96 291.918 100.971 280.252 109.641 272.07L181.771 203.994C183.422 202.439 185.545 201.684 187.383 200.416C177.98 176.768 155 160 128 160H64C28.654 160 0 188.652 0 224V320C0 337.672 14.328 352 32 352V480C32 497.672 46.328 512 64 512H128C145.674 512 160 497.672 160 480V383.613L109.639 336.084C100.971 327.902 96 316.236 96 304.078ZM480 128C515.375 128 544 99.375 544 64S515.375 0 480 0S416 28.625 416 64S444.625 128 480 128ZM96 128C131.375 128 160 99.375 160 64S131.375 0 96 0S32 28.625 32 64S60.625 128 96 128ZM444.396 295.344L372.275 227.277C368.785 223.984 363.668 223.084 359.262 224.979C354.857 226.877 352 231.219 352 236.012V272H224V236.012C224 231.217 221.143 226.879 216.738 224.979C212.332 223.086 207.215 223.984 203.725 227.275L131.604 295.342C126.799 299.877 126.799 308.277 131.604 312.813L203.725 380.879C207.215 384.17 212.332 385.07 216.738 383.176C221.143 381.277 224 376.938 224 372.143V336H352V372.143C352 376.938 354.857 381.277 359.262 383.178C363.668 385.07 368.785 384.17 372.275 380.879L444.396 312.812C449.201 308.277 449.201 299.877 444.396 295.344ZM512 160H448C421.002 160 398.02 176.77 388.617 200.418C390.459 201.689 392.586 202.445 394.24 204.006L466.357 272.068C475.025 280.248 480 291.912 480 304.072C480.002 316.234 475.031 327.902 466.361 336.084L416 383.615V480C416 497.672 430.328 512 448 512H512C529.674 512 544 497.672 544 480V352C561.674 352 576 337.672 576 320V224C576 188.652 547.348 160 512 160Z"/></svg>