<svg xmlns="http://www.w3.org/2000/svg" viewBox="0 0 256 512"><!--! Font Awesome Pro 6.4.0 by @fontawesome - https://fontawesome.com License - https://fontawesome.com/license (Commercial License) Copyright 2023 Fonticons, Inc. --><path d="M64 64a64 64 0 1 1 128 0A64 64 0 1 1 64 64zM50.7 206.4c7.8-27.5 33-46.4 61.5-46.4h31.4c28.6 0 53.7 18.9 61.5 46.4l39.1 136.8c5.8 20.4-9.5 40.8-30.8 40.8H192v80c0 26.5-21.5 48-48 48H112c-26.5 0-48-21.5-48-48V384H42.4c-21.3 0-36.6-20.3-30.8-40.8L50.7 206.4z"/></svg>