<svg xmlns="http://www.w3.org/2000/svg" viewBox="0 0 640 512"><!-- Font Awesome Pro 6.0.0-alpha2 by @fontawesome - https://fontawesome.com License - https://fontawesome.com/license (Commercial License) --><path d="M93.252 257.748C71.252 275.246 53.002 313.494 38.627 355.242L99.002 333.119C104.752 330.994 109.627 337.869 105.627 342.617L11 454.736C3.75 487.109 0 510.232 0 510.232S206.754 523.732 266.629 476.109C326.631 428.363 343.256 325.994 343.256 325.994L256.504 216.75C256.504 216.75 153.129 209.875 93.252 257.748ZM636.512 31.012L616.76 6.014C611.26 -0.861 601.26 -1.986 594.26 3.389L361.756 181.252L327.756 138.256C322.631 131.881 312.631 133.131 309.131 140.506L283.756 195.127L370.506 304.246L429.258 291.871C437.258 290.246 440.758 280.746 435.633 274.246L401.508 231.375L634.01 53.51C640.887 48.01 642.01 37.887 636.512 31.012ZM496 352C451.818 352 416 387.816 416 432S451.818 512 496 512C540.184 512 576 476.184 576 432S540.184 352 496 352Z"/></svg>