<svg xmlns="http://www.w3.org/2000/svg" viewBox="0 0 512 512"><!-- Font Awesome Pro 6.0.0-alpha2 by @fontawesome - https://fontawesome.com License - https://fontawesome.com/license (Commercial License) --><path d="M400 256C405.998 256 411.77 255.143 417.514 254.234L416 256V320C416 355.25 387.25 384 352 384H344C330.75 384 320 394.75 320 408V456C320 469.25 330.75 480 344 480H352C440.375 480 512 408.375 512 320V144C512 82.145 461.855 32 400 32S288 82.145 288 144S338.145 256 400 256ZM112 256C117.998 256 123.77 255.143 129.514 254.234L128 256V320C128 355.25 99.25 384 64 384H56C42.75 384 32 394.75 32 408V456C32 469.25 42.75 480 56 480H64C152.375 480 224 408.375 224 320V144C224 82.145 173.855 32 112 32S0 82.145 0 144S50.145 256 112 256Z"/></svg>