<svg xmlns="http://www.w3.org/2000/svg" viewBox="0 0 512 512"><!-- Font Awesome Pro 6.0.0-alpha2 by @fontawesome - https://fontawesome.com License - https://fontawesome.com/license (Commercial License) --><path d="M496 59.036V204.93C496 215.519 487.416 224.104 476.826 224.104H331.079C307.019 224.104 294.966 195.018 311.974 178L345.724 144.23C320.258 123.715 289.182 112 256.011 112C217.54 112 181.382 126.969 154.194 154.188C126.974 181.375 112.004 217.531 112.004 256S126.974 330.625 154.194 357.812C181.382 385.031 217.54 400 256.011 400C282.596 400 308.076 392.851 330.255 379.453C348.585 368.379 372.275 372.259 387.419 387.402L387.419 387.402C409.128 409.111 405.672 446.153 379.363 461.977C342.483 484.158 300.152 496 256.011 496C191.914 496 131.63 471.031 86.316 425.688C40.97 380.375 16 320.094 16 256S40.97 131.625 86.316 86.312C131.63 40.969 191.914 16 256.011 16C314.853 16 370.332 37.262 414.117 75.795L449.93 39.961C466.926 22.954 496 34.992 496 59.036Z"/></svg>