<svg xmlns="http://www.w3.org/2000/svg" viewBox="0 0 576 512"><!-- Font Awesome Pro 6.0.0-alpha2 by @fontawesome - https://fontawesome.com License - https://fontawesome.com/license (Commercial License) --><path d="M550.589 287.226L79.062 35.739C63.469 27.489 44.062 33.333 35.766 48.927C27.453 64.521 33.344 83.896 48.938 92.24L416.012 287.995H48C21.49 287.995 0 309.486 0 335.995V431.999C0 458.509 21.491 480 48.001 480H528C554.51 480 576 458.51 576 432V329.579C576 311.852 566.23 295.568 550.589 287.226ZM127.994 399.984C127.994 408.785 120.795 415.985 111.994 415.985H80.008C71.207 415.985 64.008 408.785 64.008 399.984V367.997C64.008 359.196 71.207 351.997 80.008 351.997H111.994C120.795 351.997 127.994 359.196 127.994 367.997V399.984ZM223.994 399.984C223.994 408.785 216.795 415.985 207.994 415.985H176.008C167.207 415.985 160.008 408.785 160.008 399.984V367.997C160.008 359.196 167.207 351.997 176.008 351.997H207.994C216.795 351.997 223.994 359.196 223.994 367.997V399.984Z"/></svg>