<svg xmlns="http://www.w3.org/2000/svg" viewBox="0 0 576 512"><!--! Font Awesome Pro 6.4.0 by @fontawesome - https://fontawesome.com License - https://fontawesome.com/license (Commercial License) Copyright 2023 Fonticons, Inc. --><path d="M96 32C43 32 0 75 0 128v32H64V128c0-17.7 14.3-32 32-32h32V32H96zM0 192V320H64V192H0zM64 352H0v32c0 53 43 96 96 96h32V416H96c-17.7 0-32-14.3-32-32V352zM384 128v70.6c15.3-4.3 31.4-6.6 48-6.6c5.4 0 10.7 .2 16 .7V128c0-53-43-96-96-96H320V96h32c17.7 0 32 14.3 32 32zM160 480H296.2c-15.3-18.5-26.9-40.2-33.6-64H160v64zm0-384H288V32H160V96zM432 512a144 144 0 1 0 0-288 144 144 0 1 0 0 288zm16-208v48h48c8.8 0 16 7.2 16 16s-7.2 16-16 16H448v48c0 8.8-7.2 16-16 16s-16-7.2-16-16V384H368c-8.8 0-16-7.2-16-16s7.2-16 16-16h48V304c0-8.8 7.2-16 16-16s16 7.2 16 16z"/></svg>