<svg xmlns="http://www.w3.org/2000/svg" viewBox="0 0 448 512"><!--! Font Awesome Pro 6.4.0 by @fontawesome - https://fontawesome.com License - https://fontawesome.com/license (Commercial License) Copyright 2023 Fonticons, Inc. --><path d="M0 96C0 60.7 28.7 32 64 32l320 0c35.3 0 64 28.7 64 64l0 320c0 35.3-28.7 64-64 64L64 480c-35.3 0-64-28.7-64-64L0 96zm185.4 39.1L85.5 242.2C82 245.9 80 250.9 80 256s2 10.1 5.5 13.8l99.9 107.1c4.2 4.5 10.1 7.1 16.3 7.1c12.3 0 22.3-10 22.3-22.3l0-57.7 96 0c17.7 0 32-14.3 32-32l0-32c0-17.7-14.3-32-32-32l-96 0 0-57.7c0-12.3-10-22.3-22.3-22.3c-6.2 0-12.1 2.6-16.3 7.1z"/></svg>