<svg xmlns="http://www.w3.org/2000/svg" viewBox="0 0 448 512"><!--! Font Awesome Pro 6.4.0 by @fontawesome - https://fontawesome.com License - https://fontawesome.com/license (Commercial License) Copyright 2023 Fonticons, Inc. --><path d="M384 480c35.3 0 64-28.7 64-64V96c0-35.3-28.7-64-64-64H64C28.7 32 0 60.7 0 96V416c0 35.3 28.7 64 64 64H384zM320 198.6V336c0 8.8-7.2 16-16 16H166.6c-12.5 0-22.6-10.1-22.6-22.6c0-6 2.4-11.8 6.6-16L184 280l-66.3-66.3C114 210 112 205.1 112 200s2-10 5.7-13.7l36.7-36.7c3.6-3.6 8.5-5.7 13.7-5.7s10 2 13.7 5.7L248 216l33.4-33.4c4.2-4.2 10-6.6 16-6.6c12.5 0 22.6 10.1 22.6 22.6z"/></svg>