<svg xmlns="http://www.w3.org/2000/svg" viewBox="0 0 448 512"><!--! Font Awesome Pro 6.4.0 by @fontawesome - https://fontawesome.com License - https://fontawesome.com/license (Commercial License) Copyright 2023 Fonticons, Inc. --><path d="M64 32C28.7 32 0 60.7 0 96V416c0 35.3 28.7 64 64 64H384c35.3 0 64-28.7 64-64V96c0-35.3-28.7-64-64-64H64zm39.1 185.4l107.1-99.9c3.8-3.5 8.7-5.5 13.8-5.5s10.1 2 13.8 5.5l107.1 99.9c4.5 4.2 7.1 10.1 7.1 16.3c0 12.3-10 22.3-22.3 22.3H272v96c0 17.7-14.3 32-32 32H208c-17.7 0-32-14.3-32-32V256H118.3C106 256 96 246 96 233.7c0-6.2 2.6-12.1 7.1-16.3z"/></svg>