<svg xmlns="http://www.w3.org/2000/svg" viewBox="0 0 512 512"><!-- Font Awesome Pro 6.0.0-alpha2 by @fontawesome - https://fontawesome.com License - https://fontawesome.com/license (Commercial License) --><path d="M498.562 0H404.195C386.24 0 377.248 21.709 389.943 34.406L411.145 55.605L344.139 122.611C318.85 105.867 288.602 96 256 96S193.15 105.867 167.861 122.611L151.594 106.344L157.654 100.281C163.904 94.033 163.904 83.902 157.654 77.654L146.346 66.344C140.096 60.096 129.967 60.096 123.717 66.344L117.656 72.406L100.857 55.605L122.057 34.406C134.752 21.709 125.76 0 107.805 0H13.438C6.016 0 0 6.016 0 13.438V107.805C0 125.76 21.709 134.752 34.406 122.057L55.607 100.855L72.406 117.656L66.346 123.717C60.096 129.965 60.096 140.096 66.346 146.344L77.654 157.654C83.904 163.902 94.033 163.902 100.283 157.654L106.344 151.594L122.611 167.861C105.867 193.15 96 223.398 96 256C96 333.404 150.971 397.947 224 412.775V432.004H208C199.164 432.004 192 439.168 192 448.004V464C192 472.836 199.164 480 208 480H224V496C224 504.836 231.164 512 240 512H272C280.836 512 288 504.836 288 496V480H304C312.836 480 320 472.836 320 464V448.004C320 439.168 312.836 432.004 304 432.004H288V412.775C361.029 397.947 416 333.404 416 256C416 223.398 406.133 193.15 389.389 167.861L456.395 100.855L477.594 122.057C490.291 134.752 512 125.76 512 107.805V13.438C512 6.016 505.984 0 498.562 0ZM256 336C211.889 336 176 300.111 176 256C176 211.887 211.889 176 256 176C300.113 176 336 211.887 336 256C336 300.111 300.113 336 256 336Z"/></svg>