<svg xmlns="http://www.w3.org/2000/svg" viewBox="0 0 640 512"><!-- Font Awesome Pro 6.0.0-alpha2 by @fontawesome - https://fontawesome.com License - https://fontawesome.com/license (Commercial License) --><path d="M636.627 138.996L593.583 224.994C585.719 240.705 566.661 247.137 550.885 239.406L479.901 200.598L480 480C480.006 497.67 465.684 512 448.012 512H191.989C174.317 512 159.995 497.67 160 480L160.1 200.598L89.116 239.406C73.34 247.137 54.282 240.705 46.418 224.994L3.374 138.996C-4.537 123.193 1.946 103.846 17.78 96L203.465 0C223.59 27.75 268.09 47.25 319.965 47.25C319.977 47.25 319.989 47.248 320 47.248S320.024 47.25 320.036 47.25C371.911 47.25 416.411 27.75 436.536 0L622.221 96C638.055 103.846 644.538 123.193 636.627 138.996Z"/></svg>