<svg xmlns="http://www.w3.org/2000/svg" viewBox="0 0 448 512"><!--! Font Awesome Pro 6.4.0 by @fontawesome - https://fontawesome.com License - https://fontawesome.com/license (Commercial License) Copyright 2023 Fonticons, Inc. --><path d="M224 0a128 128 0 1 0 0 256A128 128 0 1 0 224 0zM157.3 327.1c-3.2-4.3-8.4-6.7-13.7-6.2C62.9 329.7 0 398.2 0 481.3c0 17 13.8 30.7 30.7 30.7H417.3c17 0 30.7-13.8 30.7-30.7c0-83.1-62.9-151.5-143.7-160.3c-5.3-.6-10.5 1.9-13.7 6.2l-53.9 71.8c-6.4 8.5-19.2 8.5-25.6 0l-53.9-71.8z"/></svg>