<svg width="106" height="69" viewBox="0 0 106 69" fill="none" xmlns="http://www.w3.org/2000/svg">
<rect y="0.284363" width="106" height="68" rx="4" fill="#4B465C" fill-opacity="0.02"/>
<path d="M0 4.28436C0 2.07522 1.79086 0.284363 4 0.284363H14V68.2844H4C1.79086 68.2844 0 66.4935 0 64.2844V4.28436Z" fill="#8692D0" fill-opacity="0.08"/>
<rect x="3" y="24.8921" width="8" height="2.87399" rx="1.43699" fill="#8692D0" fill-opacity="0.16"/>
<rect x="3.5" y="6.34387" width="7" height="7" rx="2" fill="#8692D0" fill-opacity="0.16"/>
<rect x="3" y="35.7661" width="8" height="2.87399" rx="1.43699" fill="#8692D0" fill-opacity="0.16"/>
<rect x="3" y="46.64" width="8" height="2.87399" rx="1.43699" fill="#8692D0" fill-opacity="0.16"/>
<rect x="3" y="57.514" width="8" height="2.87399" rx="1.43699" fill="#8692D0" fill-opacity="0.16"/>
<rect x="21.8838" y="5.09766" width="76.8877" height="9.06667" rx="2" fill="#8692D0" fill-opacity="0.08"/>
<rect x="26.1094" y="7.36426" width="4" height="4.53333" rx="1" fill="#8692D0" fill-opacity="0.16"/>
<rect x="79.752" y="7.36426" width="4" height="4.53333" rx="1" fill="#8692D0" fill-opacity="0.16"/>
<rect x="85.752" y="7.36426" width="4" height="4.53333" rx="1" fill="#8692D0" fill-opacity="0.16"/>
<rect x="91.752" y="7.36426" width="4" height="4.53333" rx="1" fill="#8692D0" fill-opacity="0.16"/>
<rect x="51.4619" y="20.4922" width="47.7216" height="18.1333" rx="2" fill="#8692D0" fill-opacity="0.08"/>
<rect x="21.8838" y="20.4922" width="22.5942" height="18.1333" rx="2" fill="#8692D0" fill-opacity="0.08"/>
<rect x="21.8838" y="44.0254" width="77.2998" height="18.1333" rx="2" fill="#8692D0" fill-opacity="0.08"/>
</svg>
