<svg width="106" height="69" viewBox="0 0 106 69" fill="none" xmlns="http://www.w3.org/2000/svg">
<rect y="0.284363" width="106" height="68" rx="4" fill="#4B465C" fill-opacity="0.02"/>
<rect x="19.7939" y="5.0976" width="66" height="9.06667" rx="2" fill="#4B465C" fill-opacity="0.08"/>
<rect x="22.7744" y="7.3642" width="4" height="4.53333" rx="1" fill="#4B465C" fill-opacity="0.16"/>
<rect x="22.7744" y="7.3642" width="4" height="4.53333" rx="1" stroke="#DBDADE"/>
<rect x="66.7744" y="7.3642" width="4" height="4.53333" rx="1" fill="#4B465C" fill-opacity="0.16"/>
<rect x="66.7744" y="7.3642" width="4" height="4.53333" rx="1" stroke="#DBDADE"/>
<rect x="72.7744" y="7.3642" width="4" height="4.53333" rx="1" fill="#4B465C" fill-opacity="0.16"/>
<rect x="72.7744" y="7.3642" width="4" height="4.53333" rx="1" stroke="#DBDADE"/>
<rect x="78.7744" y="7.3642" width="4" height="4.53333" rx="1" fill="#4B465C" fill-opacity="0.16"/>
<rect x="78.7744" y="7.3642" width="4" height="4.53333" rx="1" stroke="#DBDADE"/>
<rect x="45.2061" y="20.4921" width="41" height="18.1333" rx="2" fill="#4B465C" fill-opacity="0.08"/>
<rect x="19.7939" y="20.4921" width="19.4118" height="18.1333" rx="2" fill="#4B465C" fill-opacity="0.08"/>
<rect x="19.7939" y="44.0253" width="66.4121" height="18.1333" rx="2" fill="#4B465C" fill-opacity="0.08"/>
</svg>
