<svg width="107" height="55" viewBox="0 0 107 55" fill="none" xmlns="http://www.w3.org/2000/svg">
<g opacity="0.2">
<path d="M53.7454 22.1082C53.1858 20.8551 52.1872 19.8497 50.9379 19.2816C49.6885 18.7135 48.2745 18.6217 46.9622 19.0236C45.6499 19.4255 44.5298 20.2934 43.8129 21.4637C43.0959 22.634 42.8316 24.0261 43.0697 25.3778C43.2492 26.377 43.6899 27.3109 44.347 28.0848C45.1924 27.5173 46.1881 27.2153 47.2064 27.2176C47.777 27.2147 48.3438 27.3098 48.8822 27.4988C49.2105 26.2806 49.8223 25.1572 50.6674 24.2204C51.5126 23.2836 52.5673 22.5598 53.7454 22.1082Z" fill="#4B465C"/>
<path d="M53.7454 22.1082C53.1858 20.8551 52.1872 19.8497 50.9379 19.2816C49.6885 18.7135 48.2745 18.6217 46.9622 19.0236C45.6499 19.4255 44.5298 20.2934 43.8129 21.4637C43.0959 22.634 42.8316 24.0261 43.0697 25.3778C43.2492 26.377 43.6899 27.3109 44.347 28.0848C45.1924 27.5173 46.1881 27.2153 47.2064 27.2176C47.777 27.2147 48.3438 27.3098 48.8822 27.4988C49.2105 26.2806 49.8223 25.1572 50.6674 24.2204C51.5126 23.2836 52.5673 22.5598 53.7454 22.1082Z" fill="white" fill-opacity="0.2"/>
</g>
<path d="M48.6123 29.5613C48.6123 27.9853 49.0797 26.4446 49.9553 25.1341C50.8309 23.8237 52.0754 22.8023 53.5315 22.1992C54.9876 21.596 56.5899 21.4382 58.1357 21.7457C59.6815 22.0532 61.1014 22.8121 62.2158 23.9266C63.3303 25.041 64.0892 26.4609 64.3967 28.0067C64.7042 29.5525 64.5464 31.1548 63.9432 32.6109C63.3401 34.067 62.3187 35.3115 61.0083 36.1871C59.6978 37.0627 58.1571 37.5301 56.5811 37.5301H47.2061C45.8385 37.5301 44.527 36.9868 43.56 36.0199C42.5931 35.0529 42.0498 33.7414 42.0498 32.3738C42.0498 31.0063 42.5931 29.6948 43.56 28.7278C44.527 27.7608 45.8385 27.2176 47.2061 27.2176C47.7766 27.2147 48.3435 27.3098 48.8818 27.4988" stroke="#4B465C" stroke-width="2" stroke-linecap="round" stroke-linejoin="round"/>
<path d="M48.6123 29.5613C48.6123 27.9853 49.0797 26.4446 49.9553 25.1341C50.8309 23.8237 52.0754 22.8023 53.5315 22.1992C54.9876 21.596 56.5899 21.4382 58.1357 21.7457C59.6815 22.0532 61.1014 22.8121 62.2158 23.9266C63.3303 25.041 64.0892 26.4609 64.3967 28.0067C64.7042 29.5525 64.5464 31.1548 63.9432 32.6109C63.3401 34.067 62.3187 35.3115 61.0083 36.1871C59.6978 37.0627 58.1571 37.5301 56.5811 37.5301H47.2061C45.8385 37.5301 44.527 36.9868 43.56 36.0199C42.5931 35.0529 42.0498 33.7414 42.0498 32.3738C42.0498 31.0063 42.5931 29.6948 43.56 28.7278C44.527 27.7608 45.8385 27.2176 47.2061 27.2176C47.7766 27.2147 48.3435 27.3098 48.8818 27.4988" stroke="white" stroke-opacity="0.2" stroke-width="2" stroke-linecap="round" stroke-linejoin="round"/>
<path d="M47.6396 18.8621L47.1475 16.0965" stroke="#4B465C" stroke-width="2" stroke-linecap="round" stroke-linejoin="round"/>
<path d="M47.6396 18.8621L47.1475 16.0965" stroke="white" stroke-opacity="0.2" stroke-width="2" stroke-linecap="round" stroke-linejoin="round"/>
<path d="M44.0068 21.1824L41.6982 19.5652" stroke="#4B465C" stroke-width="2" stroke-linecap="round" stroke-linejoin="round"/>
<path d="M44.0068 21.1824L41.6982 19.5652" stroke="white" stroke-opacity="0.2" stroke-width="2" stroke-linecap="round" stroke-linejoin="round"/>
<path d="M43.0693 25.3777L40.3037 25.8699" stroke="#4B465C" stroke-width="2" stroke-linecap="round" stroke-linejoin="round"/>
<path d="M43.0693 25.3777L40.3037 25.8699" stroke="white" stroke-opacity="0.2" stroke-width="2" stroke-linecap="round" stroke-linejoin="round"/>
<path d="M51.835 19.7996L53.4521 17.491" stroke="#4B465C" stroke-width="2" stroke-linecap="round" stroke-linejoin="round"/>
<path d="M51.835 19.7996L53.4521 17.491" stroke="white" stroke-opacity="0.2" stroke-width="2" stroke-linecap="round" stroke-linejoin="round"/>
<path d="M44.347 28.0848C43.6899 27.3109 43.2492 26.377 43.0697 25.3778C42.8316 24.0261 43.0959 22.634 43.8129 21.4637C44.5298 20.2934 45.6499 19.4255 46.9622 19.0236C48.2745 18.6217 49.6885 18.7135 50.9379 19.2816C52.1872 19.8497 53.1858 20.8551 53.7454 22.1082" stroke="#4B465C" stroke-width="2" stroke-linecap="round" stroke-linejoin="round"/>
<path d="M44.347 28.0848C43.6899 27.3109 43.2492 26.377 43.0697 25.3778C42.8316 24.0261 43.0959 22.634 43.8129 21.4637C44.5298 20.2934 45.6499 19.4255 46.9622 19.0236C48.2745 18.6217 49.6885 18.7135 50.9379 19.2816C52.1872 19.8497 53.1858 20.8551 53.7454 22.1082" stroke="white" stroke-opacity="0.2" stroke-width="2" stroke-linecap="round" stroke-linejoin="round"/>
</svg>
