<svg width="106" height="69" viewBox="0 0 106 69" fill="none" xmlns="http://www.w3.org/2000/svg">
<rect y="0.217621" width="106" height="68" rx="4" fill="#4B465C" fill-opacity="0.02"/>
<path d="M0 4.21762C0 2.00848 1.79086 0.217621 4 0.217621H28V68.2176H4C1.79086 68.2176 0 66.4268 0 64.2176V4.21762Z" fill="#4B465C" fill-opacity="0.08"/>
<rect x="5" y="24.8253" width="18" height="2.87399" rx="1.43699" fill="#4B465C" fill-opacity="0.16"/>
<rect x="5" y="24.8253" width="18" height="2.87399" rx="1.43699" stroke="#DBDADE"/>
<rect x="9" y="6.27713" width="10" height="10" rx="2" fill="#4B465C" fill-opacity="0.16"/>
<rect x="9" y="6.27713" width="10" height="10" rx="2" stroke="#DBDADE"/>
<rect x="5" y="35.6993" width="18" height="2.87399" rx="1.43699" fill="#4B465C" fill-opacity="0.16"/>
<rect x="5" y="35.6993" width="18" height="2.87399" rx="1.43699" stroke="#DBDADE"/>
<rect x="5" y="46.5733" width="18" height="2.87399" rx="1.43699" fill="#4B465C" fill-opacity="0.16"/>
<rect x="5" y="46.5733" width="18" height="2.87399" rx="1.43699" stroke="#DBDADE"/>
<rect x="5" y="57.4472" width="18" height="2.87399" rx="1.43699" fill="#4B465C" fill-opacity="0.16"/>
<rect x="5" y="57.4472" width="18" height="2.87399" rx="1.43699" stroke="#DBDADE"/>
<rect x="34.7715" y="5.03091" width="66" height="9.06667" rx="2" fill="#4B465C" fill-opacity="0.08"/>
<rect x="37.752" y="7.29752" width="4" height="4.53333" rx="1" fill="#4B465C" fill-opacity="0.16"/>
<rect x="37.752" y="7.29752" width="4" height="4.53333" rx="1" stroke="#DBDADE"/>
<rect x="81.752" y="7.29752" width="4" height="4.53333" rx="1" fill="#4B465C" fill-opacity="0.16"/>
<rect x="81.752" y="7.29752" width="4" height="4.53333" rx="1" stroke="#DBDADE"/>
<rect x="87.752" y="7.29752" width="4" height="4.53333" rx="1" fill="#4B465C" fill-opacity="0.16"/>
<rect x="87.752" y="7.29752" width="4" height="4.53333" rx="1" stroke="#DBDADE"/>
<rect x="93.752" y="7.29752" width="4" height="4.53333" rx="1" fill="#4B465C" fill-opacity="0.16"/>
<rect x="93.752" y="7.29752" width="4" height="4.53333" rx="1" stroke="#DBDADE"/>
<rect x="59.6094" y="20.4254" width="41" height="18.1333" rx="2" fill="#4B465C" fill-opacity="0.08"/>
<rect x="34.7715" y="20.4254" width="19.4118" height="18.1333" rx="2" fill="#4B465C" fill-opacity="0.08"/>
<rect x="34.7715" y="43.9586" width="66" height="18.1333" rx="2" fill="#4B465C" fill-opacity="0.08"/>
</svg>
