<svg width="107" height="55" viewBox="0 0 107 55" fill="none" xmlns="http://www.w3.org/2000/svg">
<g opacity="0.2">
<path d="M53.0996 34.2488C56.9829 34.2488 60.1309 31.1008 60.1309 27.2176C60.1309 23.3343 56.9829 20.1863 53.0996 20.1863C49.2164 20.1863 46.0684 23.3343 46.0684 27.2176C46.0684 31.1008 49.2164 34.2488 53.0996 34.2488Z" fill="#8692D0"/>
<path d="M53.0996 34.2488C56.9829 34.2488 60.1309 31.1008 60.1309 27.2176C60.1309 23.3343 56.9829 20.1863 53.0996 20.1863C49.2164 20.1863 46.0684 23.3343 46.0684 27.2176C46.0684 31.1008 49.2164 34.2488 53.0996 34.2488Z" fill="white" fill-opacity="0.4"/>
</g>
<path d="M53.0996 34.2488C56.9829 34.2488 60.1309 31.1008 60.1309 27.2176C60.1309 23.3343 56.9829 20.1863 53.0996 20.1863C49.2164 20.1863 46.0684 23.3343 46.0684 27.2176C46.0684 31.1008 49.2164 34.2488 53.0996 34.2488Z" stroke="#8692D0" stroke-width="2" stroke-linecap="round" stroke-linejoin="round"/>
<path d="M53.0996 34.2488C56.9829 34.2488 60.1309 31.1008 60.1309 27.2176C60.1309 23.3343 56.9829 20.1863 53.0996 20.1863C49.2164 20.1863 46.0684 23.3343 46.0684 27.2176C46.0684 31.1008 49.2164 34.2488 53.0996 34.2488Z" stroke="white" stroke-opacity="0.4" stroke-width="2" stroke-linecap="round" stroke-linejoin="round"/>
<path d="M53.0996 16.4363V15.4988" stroke="#8692D0" stroke-width="2" stroke-linecap="round" stroke-linejoin="round"/>
<path d="M53.0996 16.4363V15.4988" stroke="white" stroke-opacity="0.4" stroke-width="2" stroke-linecap="round" stroke-linejoin="round"/>
<path d="M45.4707 19.5887L44.8145 18.9324" stroke="#8692D0" stroke-width="2" stroke-linecap="round" stroke-linejoin="round"/>
<path d="M45.4707 19.5887L44.8145 18.9324" stroke="white" stroke-opacity="0.4" stroke-width="2" stroke-linecap="round" stroke-linejoin="round"/>
<path d="M42.3184 27.2176H41.3809" stroke="#8692D0" stroke-width="2" stroke-linecap="round" stroke-linejoin="round"/>
<path d="M42.3184 27.2176H41.3809" stroke="white" stroke-opacity="0.4" stroke-width="2" stroke-linecap="round" stroke-linejoin="round"/>
<path d="M45.4707 34.8465L44.8145 35.5027" stroke="#8692D0" stroke-width="2" stroke-linecap="round" stroke-linejoin="round"/>
<path d="M45.4707 34.8465L44.8145 35.5027" stroke="white" stroke-opacity="0.4" stroke-width="2" stroke-linecap="round" stroke-linejoin="round"/>
<path d="M53.0996 37.9988V38.9363" stroke="#8692D0" stroke-width="2" stroke-linecap="round" stroke-linejoin="round"/>
<path d="M53.0996 37.9988V38.9363" stroke="white" stroke-opacity="0.4" stroke-width="2" stroke-linecap="round" stroke-linejoin="round"/>
<path d="M60.7285 34.8465L61.3848 35.5027" stroke="#8692D0" stroke-width="2" stroke-linecap="round" stroke-linejoin="round"/>
<path d="M60.7285 34.8465L61.3848 35.5027" stroke="white" stroke-opacity="0.4" stroke-width="2" stroke-linecap="round" stroke-linejoin="round"/>
<path d="M63.8809 27.2176H64.8184" stroke="#8692D0" stroke-width="2" stroke-linecap="round" stroke-linejoin="round"/>
<path d="M63.8809 27.2176H64.8184" stroke="white" stroke-opacity="0.4" stroke-width="2" stroke-linecap="round" stroke-linejoin="round"/>
<path d="M60.7285 19.5887L61.3848 18.9324" stroke="#8692D0" stroke-width="2" stroke-linecap="round" stroke-linejoin="round"/>
<path d="M60.7285 19.5887L61.3848 18.9324" stroke="white" stroke-opacity="0.4" stroke-width="2" stroke-linecap="round" stroke-linejoin="round"/>
</svg>
