<svg width="107" height="55" viewBox="0 0 107 55" fill="none" xmlns="http://www.w3.org/2000/svg">
<g opacity="0.2">
<path d="M43.1875 32.8426V20.6551C43.1875 20.1578 43.385 19.6809 43.7367 19.3293C44.0883 18.9776 44.5652 18.7801 45.0625 18.7801H61.9375C62.4348 18.7801 62.9117 18.9776 63.2633 19.3293C63.615 19.6809 63.8125 20.1578 63.8125 20.6551V32.8426H43.1875Z" fill="#8692D0"/>
<path d="M43.1875 32.8426V20.6551C43.1875 20.1578 43.385 19.6809 43.7367 19.3293C44.0883 18.9776 44.5652 18.7801 45.0625 18.7801H61.9375C62.4348 18.7801 62.9117 18.9776 63.2633 19.3293C63.615 19.6809 63.8125 20.1578 63.8125 20.6551V32.8426H43.1875Z" fill="white" fill-opacity="0.4"/>
</g>
<path d="M43.1875 32.8426V20.6551C43.1875 20.1578 43.385 19.6809 43.7367 19.3293C44.0883 18.9776 44.5652 18.7801 45.0625 18.7801H61.9375C62.4348 18.7801 62.9117 18.9776 63.2633 19.3293C63.615 19.6809 63.8125 20.1578 63.8125 20.6551V32.8426M55.375 22.5301H51.625M41.3125 32.8426H65.6875V34.7176C65.6875 35.2149 65.49 35.6918 65.1383 36.0434C64.7867 36.395 64.3098 36.5926 63.8125 36.5926H43.1875C42.6902 36.5926 42.2133 36.395 41.8617 36.0434C41.51 35.6918 41.3125 35.2149 41.3125 34.7176V32.8426Z" stroke="#8692D0" stroke-width="2" stroke-linecap="round" stroke-linejoin="round"/>
<path d="M43.1875 32.8426V20.6551C43.1875 20.1578 43.385 19.6809 43.7367 19.3293C44.0883 18.9776 44.5652 18.7801 45.0625 18.7801H61.9375C62.4348 18.7801 62.9117 18.9776 63.2633 19.3293C63.615 19.6809 63.8125 20.1578 63.8125 20.6551V32.8426M55.375 22.5301H51.625M41.3125 32.8426H65.6875V34.7176C65.6875 35.2149 65.49 35.6918 65.1383 36.0434C64.7867 36.395 64.3098 36.5926 63.8125 36.5926H43.1875C42.6902 36.5926 42.2133 36.395 41.8617 36.0434C41.51 35.6918 41.3125 35.2149 41.3125 34.7176V32.8426Z" stroke="white" stroke-opacity="0.4" stroke-width="2" stroke-linecap="round" stroke-linejoin="round"/>
</svg>
