<svg xmlns="http://www.w3.org/2000/svg" viewBox="0 0 576 512"><!--! Font Awesome Pro 6.4.0 by @fontawesome - https://fontawesome.com License - https://fontawesome.com/license (Commercial License) Copyright 2023 Fonticons, Inc. --><path d="M512 80c8.8 0 16 7.2 16 16V208H448V176h8c13.3 0 24-10.7 24-24s-10.7-24-24-24h-8V80h64zm-96 48h-8c-13.3 0-24 10.7-24 24s10.7 24 24 24h8v32H288V176h8c13.3 0 24-10.7 24-24s-10.7-24-24-24h-8V80H416v48zm-160 0h-8c-13.3 0-24 10.7-24 24s10.7 24 24 24h8v32H160V176h8c13.3 0 24-10.7 24-24s-10.7-24-24-24h-8V80h96v48zm-128 0h-8c-13.3 0-24 10.7-24 24s10.7 24 24 24h8v32H48V96c0-8.8 7.2-16 16-16h64v48zM48 416V240h80v24h-8c-13.3 0-24 10.7-24 24s10.7 24 24 24h8v24h-8c-13.3 0-24 10.7-24 24s10.7 24 24 24h8v48H64c-8.8 0-16-7.2-16-16zm112-32h8c13.3 0 24-10.7 24-24s-10.7-24-24-24h-8V312h8c13.3 0 24-10.7 24-24s-10.7-24-24-24h-8V240h96v24h-8c-13.3 0-24 10.7-24 24s10.7 24 24 24h8v24h-8c-13.3 0-24 10.7-24 24s10.7 24 24 24h8v48H160V384zm128-72h8c13.3 0 24-10.7 24-24s-10.7-24-24-24h-8V240H416v96h-8c-13.3 0-24 10.7-24 24s10.7 24 24 24h8v48H288V384h8c13.3 0 24-10.7 24-24s-10.7-24-24-24h-8V312zm160 72h8c13.3 0 24-10.7 24-24s-10.7-24-24-24h-8V240h80V416c0 8.8-7.2 16-16 16H448V384zM64 32C28.7 32 0 60.7 0 96V416c0 35.3 28.7 64 64 64H512c35.3 0 64-28.7 64-64V96c0-35.3-28.7-64-64-64H64z"/></svg>