<svg xmlns="http://www.w3.org/2000/svg" viewBox="0 0 384 512"><!-- Font Awesome Pro 6.0.0-alpha2 by @fontawesome - https://fontawesome.com License - https://fontawesome.com/license (Commercial License) --><path d="M377.109 305.816L306.021 224H342.348C364.296 224 376.069 198.223 361.683 181.666L211.563 8.891C206.414 2.963 199.193 0 191.972 0C184.748 0 177.525 2.965 172.375 8.895L22.057 181.967C7.777 198.408 19.47 224 41.261 224H77.952L6.887 305.822C-8.801 323.885 4.044 352 27.984 352H159.97V384H79.876C53.336 384 31.82 405.49 31.82 432V464C31.82 490.51 53.336 512 79.876 512H304.138C330.678 512 352.194 490.51 352.194 464V432C352.194 405.49 330.678 384 304.138 384H224.044V352H356.016C379.958 352 392.803 323.879 377.109 305.816ZM304.138 432V464H79.876V432H304.138ZM72.09 304L160.257 202.484C169.256 192.125 161.888 176 148.157 176H90.858L191.974 59.578L293.131 176H235.798C222.065 176 214.699 192.127 223.7 202.486L311.902 304H72.09ZM192.007 112C178.738 112 167.979 122.746 167.979 136S178.738 160 192.007 160C205.276 160 216.035 149.254 216.035 136S205.276 112 192.007 112Z"/></svg>