<svg xmlns="http://www.w3.org/2000/svg" viewBox="0 0 576 512"><!--! Font Awesome Pro 6.4.0 by @fontawesome - https://fontawesome.com License - https://fontawesome.com/license (Commercial License) Copyright 2023 Fonticons, Inc. --><path d="M64 48c-8.8 0-16 7.2-16 16V192c0 8.8 7.2 16 16 16H512c8.8 0 16-7.2 16-16V64c0-8.8-7.2-16-16-16H64zM0 64C0 28.7 28.7 0 64 0H512c35.3 0 64 28.7 64 64V192c0 35.3-28.7 64-64 64H64c-35.3 0-64-28.7-64-64V64zm120 64H456c13.3 0 24 10.7 24 24s-10.7 24-24 24H120c-13.3 0-24-10.7-24-24s10.7-24 24-24zM368 288V392c0 22.1 17.9 40 40 40s40-17.9 40-40c0-14.8-8-27.7-20-34.7c-11.5-6.6-15.4-21.3-8.7-32.8s21.3-15.4 32.8-8.7C478.3 331 496 359.4 496 392c0 48.6-39.4 88-88 88s-88-39.4-88-88V288h48zM208 424V288h48V424c0 48.6-39.4 88-88 88s-88-39.4-88-88c0-32.6 17.7-61 43.9-76.2c11.5-6.6 26.2-2.7 32.8 8.7s2.7 26.2-8.7 32.8c-12 7-20 19.9-20 34.7c0 22.1 17.9 40 40 40s40-17.9 40-40z"/></svg>