<svg xmlns="http://www.w3.org/2000/svg" viewBox="0 0 576 512"><!--! Font Awesome Pro 6.4.0 by @fontawesome - https://fontawesome.com License - https://fontawesome.com/license (Commercial License) Copyright 2023 Fonticons, Inc. --><path d="M64 80H384c8.8 0 16 7.2 16 16v98.9c10.4-1.9 21.1-2.9 32-2.9c5.4 0 10.7 .2 16 .7V96c0-35.3-28.7-64-64-64H64C28.7 32 0 60.7 0 96V416c0 35.3 28.7 64 64 64H296.2c-11.8-14.3-21.4-30.5-28.2-48H64c-8.8 0-16-7.2-16-16V96c0-8.8 7.2-16 16-16zm160 32c-79.5 0-144 64.5-144 144s64.5 144 144 144c11.8 0 23.2-1.4 34.2-4.1c-1.4-9.1-2.2-18.4-2.2-27.9c0-71.4 42.5-132.9 103.6-160.5C339.7 151.8 286.5 112 224 112zM192 256a32 32 0 1 1 64 0 32 32 0 1 1 -64 0zM576 368a144 144 0 1 0 -288 0 144 144 0 1 0 288 0zm-66.3 80.7C489.5 468.1 462.2 480 432 480s-57.5-11.9-77.7-31.3c6.2-19 24-32.7 45.1-32.7h65.2c21 0 38.9 13.7 45.1 32.7zM384 336a48 48 0 1 1 96 0 48 48 0 1 1 -96 0z"/></svg>