<svg xmlns="http://www.w3.org/2000/svg" viewBox="0 0 640 512"><!--! Font Awesome Pro 6.4.0 by @fontawesome - https://fontawesome.com License - https://fontawesome.com/license (Commercial License) Copyright 2023 Fonticons, Inc. --><path d="M109.6 133.9c-9.9 7.3-18.5 16.1-25.5 26.2C37.3 162.1 0 200.7 0 248v64c0 13.3 10.7 24 24 24s24-10.7 24-24V248c0-13.2 6.4-25 16.3-32.2c-.2 2.8-.3 5.6-.3 8.5c0 14.3 2.7 28.4 8 41.7l21.9 54.6-8.2 21.7c-11.3 30.1-12.7 63.1-4.1 94.1l11.2 40.5c5.8 20.8 24.7 35.2 46.2 35.2h49.8c31.7 0 54.7-30.3 46.2-60.8l-14.8-53.3c-.5-1.6-.4-3.4 .2-5l12.1-32.3c1.4-3.7 2.6-7.4 3.6-11.2L288 364.5V464c0 26.5 21.5 48 48 48h48c26.5 0 48-21.5 48-48V327.8c19.8-22.6 32-52.3 32-85.5l0-1.6 0-.7v-7.8c17.7 6 37.5 5.8 55.8-1.5c34.4-13.8 55-49.3 49.7-86l-9.9-69.2c-1.6-11.3-5.3-21.9-10.7-31.3C555.6 40 560 32.5 560 24c0-13.3-10.7-24-24-24H480V.3c-2.5-.2-5-.3-7.5-.3H472 440h-8c-1.8 0-3.5 .2-5.2 .6C365 5.9 313.7 48.2 295.3 105.3L164.3 27.4c-7.4-4.4-16.6-4.5-24.1-.2S128 39.4 128 48c0 76.3 36.1 130.2 71.3 164.2c17.5 17 35 29.3 48.1 37.3c6.6 4 12.1 7.1 16.1 9.1c2 1 3.6 1.8 4.8 2.4c.6 .3 1 .5 1.4 .6l.4 .2 .1 .1 .1 0 0 0c0 0 0 0 9.6-22l-9.6 22c12.1 5.3 26.3-.2 31.6-12.4s-.2-26.3-12.4-31.6l0 0-.1 0-.7-.3c-.7-.3-1.9-.9-3.4-1.7c-3-1.5-7.5-4-12.9-7.3c-10.9-6.7-25.4-16.9-39.9-30.9c-20.8-20.2-41.2-47.8-50.8-84.1l19.4 11.6 86.4 51.4c2.6 1.6 5.4 2.6 8.3 3v.3h3.6c.3 0 .6 0 .8 0H313c12.1 0 22.3-9 23.8-21c6.1-49.1 46.6-87.7 96.6-90.8c.7 0 1.3-.1 2-.2H440h32 .5c19.9 0 36.8 14.6 39.6 34.3l9.9 69.2c2.1 14.8-6.2 29.1-20 34.7c-13.3 5.3-28.4 1.3-37.3-9.8l-5.9-7.3c-6.4-8-17.1-11-26.7-7.7s-16.1 12.5-16.1 22.6v55c0 .5 0 1 0 1.5c0 .6 0 1.2 0 1.7c0 23.5-9.6 44.1-24.7 58.8c-4.6 4.5-7.3 10.7-7.3 17.2V464H336V346.2c0-11.3-7.9-21.1-19-23.5c-2.1-.4-4.2-1-6.3-1.6l-88-25.7c-7.3-2.1-15.3-.7-21.3 4s-9.6 11.9-9.4 19.5c0 .4 0 .9 0 1.3c0 8-1.4 16-4.3 23.5L175.6 376c-4.2 11.1-4.7 23.2-1.5 34.6L188.9 464H139.1l-11.2-40.5c-5.9-21.2-4.9-43.7 2.8-64.4l8.2-21.7c4.2-11.2 4.1-23.6-.4-34.7l-21.9-54.6c-3-7.6-4.6-15.7-4.6-23.9c0-17.4 7-33.3 18.2-44.8c-8-13.7-15-28.9-20.6-45.5zM464 112a16 16 0 1 0 0-32 16 16 0 1 0 0 32zM630.7 64H544v48l89.6-29.9c3.8-1.3 6.4-4.8 6.4-8.8c0-5.1-4.2-9.3-9.3-9.3z"/></svg>