<svg xmlns="http://www.w3.org/2000/svg" viewBox="0 0 640 512"><!--! Font Awesome Pro 6.4.0 by @fontawesome - https://fontawesome.com License - https://fontawesome.com/license (Commercial License) Copyright 2023 Fonticons, Inc. --><path d="M152 32c13.3 0 24 10.7 24 24h24c13.3 0 24 10.7 24 24v48H416V80c0-13.3 10.7-24 24-24h24c0-13.3 10.7-24 24-24s24 10.7 24 24V80c0 13.3-10.7 24-24 24H464v48 8h24c13.3 0 24 10.7 24 24v56h8 40V152c0-13.3 10.7-24 24-24s24 10.7 24 24V264c0 13.3-10.7 24-24 24H544v72c0 13.3-10.7 24-24 24H480v72c0 13.3-10.7 24-24 24H376c-13.3 0-24-10.7-24-24s10.7-24 24-24h56V384H208v48h56c13.3 0 24 10.7 24 24s-10.7 24-24 24H184c-13.3 0-24-10.7-24-24V384H120c-13.3 0-24-10.7-24-24V288H56c-13.3 0-24-10.7-24-24V152c0-13.3 10.7-24 24-24s24 10.7 24 24v88h40 8V184c0-13.3 10.7-24 24-24h24v-8V104H152c-13.3 0-24-10.7-24-24V56c0-13.3 10.7-24 24-24zm72 144v8c0 13.3-10.7 24-24 24H176v56c0 13.3-10.7 24-24 24h-8v48h40H456h40V288h-8c-13.3 0-24-10.7-24-24V208H440c-13.3 0-24-10.7-24-24v-8H224zm0 64c0-8.8 7.2-16 16-16h32c8.8 0 16 7.2 16 16v48c0 8.8-7.2 16-16 16H240c-8.8 0-16-7.2-16-16V240zm144-16h32c8.8 0 16 7.2 16 16v48c0 8.8-7.2 16-16 16H368c-8.8 0-16-7.2-16-16V240c0-8.8 7.2-16 16-16z"/></svg>