<svg xmlns="http://www.w3.org/2000/svg" viewBox="0 0 320 512"><!--! Font Awesome Pro 6.4.0 by @fontawesome - https://fontawesome.com License - https://fontawesome.com/license (Commercial License) Copyright 2023 Fonticons, Inc. --><path d="M80 128c0 42.3 22.6 78.9 50.5 107.6c10.3 10.6 20.6 19.4 29.5 26.3c8.9-6.9 19.3-15.7 29.5-26.3C217.4 206.9 240 170.3 240 128c0-44.2-35.8-80-80-80s-80 35.8-80 80zM98.9 272C66 238.9 32 189.8 32 128C32 57.3 89.3 0 160 0s128 57.3 128 128c0 61.8-34 110.9-66.9 144H296c13.3 0 24 10.7 24 24s-10.7 24-24 24H184V488c0 13.3-10.7 24-24 24s-24-10.7-24-24V320H24c-13.3 0-24-10.7-24-24s10.7-24 24-24H98.9z"/></svg>