<svg xmlns="http://www.w3.org/2000/svg" viewBox="0 0 512 512"><!--! Font Awesome Pro 6.4.0 by @fontawesome - https://fontawesome.com License - https://fontawesome.com/license (Commercial License) Copyright 2023 Fonticons, Inc. --><path d="M256 464l67-116 13.8-23.8c0-.1 .1-.1 .1-.2l11.5-20 56.3 97.5C366.9 440.1 314.2 464 256 464zM163.6 208l-56.3-97.5C145.1 71.9 197.8 48 256 48L189 164l-13.9 24-11.5 20zm87.8-56l56.3-97.5c54.8 14 100.9 49.8 128.5 97.5h-134H274.7c-.1 0-.2 0-.3 0H251.4zm104.1 68.3c-.1-.1-.1-.2-.2-.3l-11.5-20H456.4c5 17.8 7.6 36.6 7.6 56c0 37.9-10.1 73.4-27.8 104l-67-116-13.7-23.7zM48 256c0-37.9 10.1-73.4 27.8-104l67 116 25.4 44H55.6c-5-17.8-7.6-36.6-7.6-56zM204.3 457.5c-54.8-14-100.9-49.8-128.5-97.5h134 50.8l-56.3 97.5zM256 512A256 256 0 1 0 256 0a256 256 0 1 0 0 512zM216.7 212c4.3-7.4 12.1-11.9 20.6-12h37.3c8.5 .1 16.3 4.6 20.5 11.8l18.7 32.3c4.2 7.4 4.2 16.4 0 23.8c0 0 0 .1-.1 .1l-18.5 32c0 0 0 .1 0 .1c-4.3 7.4-12.2 11.9-20.7 11.9H237.5c-8.6 0-16.5-4.6-20.8-12l-18.5-32c-4.3-7.4-4.3-16.6 0-24l18.5-32z"/></svg>