<svg xmlns="http://www.w3.org/2000/svg" viewBox="0 0 192 512"><!--! Font Awesome Pro 6.4.0 by @fontawesome - https://fontawesome.com License - https://fontawesome.com/license (Commercial License) Copyright 2023 Fonticons, Inc. --><path d="M128 176c8.8 0 16-7.2 16-16V128 96c0-8.8-7.2-16-16-16H64c-8.8 0-16 7.2-16 16v64c0 8.8 7.2 16 16 16h64zm16 46c-5.1 1.3-10.5 2-16 2H64c-35.3 0-64-28.7-64-64V96C0 60.7 28.7 32 64 32h64c35.3 0 64 28.7 64 64v32 32 72c0 66.3-53.7 120-120 120H56c-13.3 0-24-10.7-24-24s10.7-24 24-24H72c39.8 0 72-32.2 72-72V222z"/></svg>