<svg xmlns="http://www.w3.org/2000/svg" viewBox="0 0 576 512"><!--! Font Awesome Pro 6.4.0 by @fontawesome - https://fontawesome.com License - https://fontawesome.com/license (Commercial License) Copyright 2023 Fonticons, Inc. --><path d="M111 39c9.4-9.4 24.6-9.4 33.9 0l96 96c9.4 9.4 9.4 24.6 0 33.9s-24.6 9.4-33.9 0l-55-55V456c0 13.3-10.7 24-24 24s-24-10.7-24-24V113.9L49 169c-9.4 9.4-24.6 9.4-33.9 0s-9.4-24.6 0-33.9l96-96zm201 9h48c13.3 0 24 10.7 24 24s-10.7 24-24 24H312c-13.3 0-24-10.7-24-24s10.7-24 24-24zm0 128H424c13.3 0 24 10.7 24 24s-10.7 24-24 24H312c-13.3 0-24-10.7-24-24s10.7-24 24-24zm0 128H488c13.3 0 24 10.7 24 24s-10.7 24-24 24H312c-13.3 0-24-10.7-24-24s10.7-24 24-24zm0 128H552c13.3 0 24 10.7 24 24s-10.7 24-24 24H312c-13.3 0-24-10.7-24-24s10.7-24 24-24z"/></svg>