<svg xmlns="http://www.w3.org/2000/svg" viewBox="0 0 512 512"><!--! Font Awesome Pro 6.4.0 by @fontawesome - https://fontawesome.com License - https://fontawesome.com/license (Commercial License) Copyright 2023 Fonticons, Inc. --><path d="M304 24c0 13.3 10.7 24 24 24H430.1L207 271c-9.4 9.4-9.4 24.6 0 33.9s24.6 9.4 33.9 0l223-223V184c0 13.3 10.7 24 24 24s24-10.7 24-24V24c0-13.3-10.7-24-24-24H328c-13.3 0-24 10.7-24 24zM72 32C32.2 32 0 64.2 0 104V440c0 39.8 32.2 72 72 72H408c39.8 0 72-32.2 72-72V312c0-13.3-10.7-24-24-24s-24 10.7-24 24V440c0 13.3-10.7 24-24 24H72c-13.3 0-24-10.7-24-24V104c0-13.3 10.7-24 24-24H200c13.3 0 24-10.7 24-24s-10.7-24-24-24H72z"/></svg>