<svg xmlns="http://www.w3.org/2000/svg" viewBox="0 0 512 512"><!--! Font Awesome Pro 6.4.0 by @fontawesome - https://fontawesome.com License - https://fontawesome.com/license (Commercial License) Copyright 2023 Fonticons, Inc. --><path d="M241 137c-9.4 9.4-24.6 9.4-33.9 0s-9.4-24.6 0-33.9L303 7c9.4-9.4 24.6-9.4 33.9 0l96 96c9.4 9.4 9.4 24.6 0 33.9s-24.6 9.4-33.9 0l-55-55V384v8c0 39.8 32.2 72 72 72h72c13.3 0 24 10.7 24 24s-10.7 24-24 24H416c-66.3 0-120-53.7-120-120v-8c0-39.8-32.2-72-72-72H81.9l55 55c9.4 9.4 9.4 24.6 0 33.9s-24.6 9.4-33.9 0L7 305c-4.5-4.5-7-10.6-7-17s2.5-12.5 7-17l96-96c9.4-9.4 24.6-9.4 33.9 0s9.4 24.6 0 33.9l-55 55H224c27 0 51.9 8.9 72 24V81.9l-55 55z"/></svg>