<svg xmlns="http://www.w3.org/2000/svg" viewBox="0 0 512 512"><!--! Font Awesome Pro 6.4.0 by @fontawesome - https://fontawesome.com License - https://fontawesome.com/license (Commercial License) Copyright 2023 Fonticons, Inc. --><path d="M273 7c-9.4-9.4-24.6-9.4-33.9 0L167 79c-9.4 9.4-9.4 24.6 0 33.9s24.6 9.4 33.9 0l31-31V232H81.9l31-31c9.4-9.4 9.4-24.6 0-33.9s-24.6-9.4-33.9 0L7 239c-9.4 9.4-9.4 24.6 0 33.9l72 72c9.4 9.4 24.6 9.4 33.9 0s9.4-24.6 0-33.9l-31-31H232V430.1l-31-31c-9.4-9.4-24.6-9.4-33.9 0s-9.4 24.6 0 33.9l72 72c9.4 9.4 24.6 9.4 33.9 0l72-72c9.4-9.4 9.4-24.6 0-33.9s-24.6-9.4-33.9 0l-31 31V280H430.1l-31 31c-9.4 9.4-9.4 24.6 0 33.9s24.6 9.4 33.9 0l72-72c9.4-9.4 9.4-24.6 0-33.9l-72-72c-9.4-9.4-24.6-9.4-33.9 0s-9.4 24.6 0 33.9l31 31H280V81.9l31 31c9.4 9.4 24.6 9.4 33.9 0s9.4-24.6 0-33.9L273 7z"/></svg>