<svg xmlns="http://www.w3.org/2000/svg" viewBox="0 0 640 512"><!--! Font Awesome Pro 6.4.0 by @fontawesome - https://fontawesome.com License - https://fontawesome.com/license (Commercial License) Copyright 2023 Fonticons, Inc. --><path d="M145 71c-9.4-9.4-24.6-9.4-33.9 0L23 159c-9.4 9.4-9.4 24.6 0 33.9s24.6 9.4 33.9 0l47-47V328c0 48.6 39.4 88 88 88H328c13.3 0 24-10.7 24-24s-10.7-24-24-24H192c-22.1 0-40-17.9-40-40V145.9l47 47c9.4 9.4 24.6 9.4 33.9 0s9.4-24.6 0-33.9L145 71zM312 96c-13.3 0-24 10.7-24 24s10.7 24 24 24H448c22.1 0 40 17.9 40 40V366.1l-47-47c-9.4-9.4-24.6-9.4-33.9 0s-9.4 24.6 0 33.9l88 88c9.4 9.4 24.6 9.4 33.9 0l88-88c9.4-9.4 9.4-24.6 0-33.9s-24.6-9.4-33.9 0l-47 47V184c0-48.6-39.4-88-88-88H312z"/></svg>