<svg xmlns="http://www.w3.org/2000/svg" viewBox="0 0 512 512"><!--! Font Awesome Pro 6.4.0 by @fontawesome - https://fontawesome.com License - https://fontawesome.com/license (Commercial License) Copyright 2023 Fonticons, Inc. --><path d="M273 7c-9.4-9.4-24.6-9.4-33.9 0L127 119c-9.4 9.4-9.4 24.6 0 33.9s24.6 9.4 33.9 0l71-71V328c0 13.3 10.7 24 24 24s24-10.7 24-24V81.9l71 71c9.4 9.4 24.6 9.4 33.9 0s9.4-24.6 0-33.9L273 7zM72 32C32.2 32 0 64.2 0 104V440c0 39.8 32.2 72 72 72H440c39.8 0 72-32.2 72-72V104c0-39.8-32.2-72-72-72h-8c-13.3 0-24 10.7-24 24s10.7 24 24 24h8c13.3 0 24 10.7 24 24V440c0 13.3-10.7 24-24 24H72c-13.3 0-24-10.7-24-24V104c0-13.3 10.7-24 24-24h8c13.3 0 24-10.7 24-24s-10.7-24-24-24H72z"/></svg>