<svg xmlns="http://www.w3.org/2000/svg" viewBox="0 0 512 512"><!-- Font Awesome Pro 6.0.0-alpha2 by @fontawesome - https://fontawesome.com License - https://fontawesome.com/license (Commercial License) --><path d="M40 16C53.25 16 64 26.75 64 40V142.094C103.738 75.566 176.152 32 256 32C379.5 32 480 132.5 480 256S379.5 480 256 480C203.688 480 152.781 461.562 112.625 428.125C102.437 419.625 101.062 404.5 109.562 394.312C118.062 384.094 133.219 382.75 143.375 391.25C174.906 417.531 214.906 432 256 432C353.031 432 432 353.031 432 256S353.031 80 256 80C189.455 80 129.225 118.281 99.537 176H200C213.25 176 224 186.75 224 200S213.25 224 200 224H40C26.75 224 16 213.25 16 200V40C16 26.75 26.75 16 40 16Z"/></svg>