<svg xmlns="http://www.w3.org/2000/svg" viewBox="0 0 640 512"><!--! Font Awesome Pro 6.4.0 by @fontawesome - https://fontawesome.com License - https://fontawesome.com/license (Commercial License) Copyright 2023 Fonticons, Inc. --><path d="M7 7C16.4-2.3 31.6-2.3 41 7l119 119V88c0-13.3 10.7-24 24-24s24 10.7 24 24v96c0 13.3-10.7 24-24 24H88c-13.3 0-24-10.7-24-24s10.7-24 24-24h38.1L7 41C-2.3 31.6-2.3 16.4 7 7zM633 7c9.4 9.4 9.4 24.6 0 33.9l-119 119H552c13.3 0 24 10.7 24 24s-10.7 24-24 24H456c-13.3 0-24-10.7-24-24V88c0-13.3 10.7-24 24-24s24 10.7 24 24v38.1L599 7c9.4-9.4 24.6-9.4 33.9 0zM256 256a64 64 0 1 1 128 0 64 64 0 1 1 -128 0zM432 424V328c0-13.3 10.7-24 24-24h96c13.3 0 24 10.7 24 24s-10.7 24-24 24H513.9L633 471c9.4 9.4 9.4 24.6 0 33.9s-24.6 9.4-33.9 0l-119-119V424c0 13.3-10.7 24-24 24s-24-10.7-24-24zm-224 0c0 13.3-10.7 24-24 24s-24-10.7-24-24V385.9L41 505c-9.4 9.4-24.6 9.4-33.9 0s-9.4-24.6 0-33.9l119-119H88c-13.3 0-24-10.7-24-24s10.7-24 24-24h96c13.3 0 24 10.7 24 24v96z"/></svg>