<svg xmlns="http://www.w3.org/2000/svg" viewBox="0 0 512 512"><!--! Font Awesome Pro 6.4.0 by @fontawesome - https://fontawesome.com License - https://fontawesome.com/license (Commercial License) Copyright 2023 Fonticons, Inc. --><path d="M489 57c9.4-9.4 9.4-24.6 0-33.9s-24.6-9.4-33.9 0l-135 135V72c0-13.3-10.7-24-24-24s-24 10.7-24 24V216c0 13.3 10.7 24 24 24H440c13.3 0 24-10.7 24-24s-10.7-24-24-24H353.9L489 57zM23 455c-9.4 9.4-9.4 24.6 0 33.9s24.6 9.4 33.9 0l135-135V440c0 13.3 10.7 24 24 24s24-10.7 24-24V296c0-13.3-10.7-24-24-24H72c-13.3 0-24 10.7-24 24s10.7 24 24 24h86.1L23 455z"/></svg>