<svg xmlns="http://www.w3.org/2000/svg" viewBox="0 0 448 512"><!--! Font Awesome Pro 6.4.0 by @fontawesome - https://fontawesome.com License - https://fontawesome.com/license (Commercial License) Copyright 2023 Fonticons, Inc. --><path d="M246.1 46.7C242.4 37.8 233.7 32 224 32s-18.4 5.8-22.1 14.7L127.4 224H24c-13.3 0-24 10.7-24 24s10.7 24 24 24h83.2L87.1 320H24c-13.3 0-24 10.7-24 24s10.7 24 24 24H66.9L33.9 446.7c-5.1 12.2 .6 26.3 12.8 31.4s26.3-.6 31.4-12.8L119 368H329l40.9 97.3c5.1 12.2 19.2 18 31.4 12.8s18-19.2 12.8-31.4L381.1 368H424c13.3 0 24-10.7 24-24s-10.7-24-24-24H360.9l-20.2-48H424c13.3 0 24-10.7 24-24s-10.7-24-24-24H320.6L246.1 46.7zM268.5 224H179.5L224 118l44.5 106zM159.3 272H288.7l20.2 48H139.2l20.2-48z"/></svg>