<svg xmlns="http://www.w3.org/2000/svg" viewBox="0 0 448 512"><!--! Font Awesome Pro 6.4.0 by @fontawesome - https://fontawesome.com License - https://fontawesome.com/license (Commercial License) Copyright 2023 Fonticons, Inc. --><path d="M192 48h64c4.4 0 8 3.6 8 8V80H184V56c0-4.4 3.6-8 8-8zm-56 8V80h-8C57.3 80 0 137.3 0 208V448c0 35.3 28.7 64 64 64h40H344h40c35.3 0 64-28.7 64-64V208c0-70.7-57.3-128-128-128h-8V56c0-30.9-25.1-56-56-56H192c-30.9 0-56 25.1-56 56zM368 464V376 312c0-39.8-32.2-72-72-72H152c-39.8 0-72 32.2-72 72v64 88H64c-8.8 0-16-7.2-16-16V208c0-44.2 35.8-80 80-80h32H288h32c44.2 0 80 35.8 80 80V448c0 8.8-7.2 16-16 16H368zm-240 0V400H320v64H128zm16-304c-13.3 0-24 10.7-24 24s10.7 24 24 24H304c13.3 0 24-10.7 24-24s-10.7-24-24-24H144zM320 352H128V312c0-13.3 10.7-24 24-24H296c13.3 0 24 10.7 24 24v40z"/></svg>