<svg xmlns="http://www.w3.org/2000/svg" viewBox="0 0 512 512"><!--! Font Awesome Pro 6.4.0 by @fontawesome - https://fontawesome.com License - https://fontawesome.com/license (Commercial License) Copyright 2023 Fonticons, Inc. --><path d="M16 424c0 13.3 10.7 24 24 24s24-10.7 24-24V287.9L238.6 440.6c5.4 4.8 12.4 7.4 19.6 7.4c16.5 0 29.8-13.3 29.8-29.8V287.9L462.6 440.6c5.4 4.8 12.4 7.4 19.6 7.4c16.5 0 29.8-13.3 29.8-29.8V93.8C512 77.3 498.7 64 482.2 64c-7.2 0-14.2 2.6-19.6 7.4L288 224.1V93.8C288 77.3 274.7 64 258.2 64c-7.2 0-14.2 2.6-19.6 7.4L64 224.1V88c0-13.3-10.7-24-24-24S16 74.7 16 88V424zM464 133.9V378.1L324.4 256 464 133.9zM240 378.1L100.4 256 240 133.9V378.1z"/></svg>