<svg xmlns="http://www.w3.org/2000/svg" viewBox="0 0 512 512"><!--! Font Awesome Pro 6.4.0 by @fontawesome - https://fontawesome.com License - https://fontawesome.com/license (Commercial License) Copyright 2023 Fonticons, Inc. --><path d="M91.9 150.1C84 181.9 80 214.4 80 247.2v17.7c0 32.7 4 65.3 11.9 97L97.5 384h317l5.5-22.1c7.9-31.7 11.9-64.3 11.9-97V247.2c0-32.7-4-65.3-11.9-97L414.5 128H97.5l-5.5 22.1zM427.5 48H84.5L98.7 80H413.3l14.2-32zM83.7 464H428.3l-12.8-32H96.5L83.7 464zM55 99.8L35.4 55.7C33.2 50.6 32 45.1 32 39.6C32 17.7 49.7 0 71.6 0H440.4C462.3 0 480 17.7 480 39.6c0 5.5-1.2 11-3.4 16.1L457 99.8l9.7 38.7c8.9 35.5 13.4 72 13.4 108.7v17.7c0 36.6-4.5 73.1-13.4 108.7l-8.8 35.1 19.3 48.2c1.9 4.8 2.9 9.8 2.9 14.9c0 22.2-18 40.2-40.2 40.2H72.2C50 512 32 494 32 471.8c0-5.1 1-10.2 2.9-14.9l19.3-48.2-8.8-35.1C36.5 338 32 301.5 32 264.8V247.2c0-36.6 4.5-73.1 13.4-108.7L55 99.8zM144 160h2c47.3 0 88.4 26 110 64.5C277.6 186 318.7 160 366 160h2c8.8 0 16 7.2 16 16c0 59.2-45.9 107.6-104 111.7V328c0 13.3-10.7 24-24 24s-24-10.7-24-24V287.7c-58.1-4.1-104-52.6-104-111.7c0-8.8 7.2-16 16-16z"/></svg>