<svg xmlns="http://www.w3.org/2000/svg" viewBox="0 0 640 512"><!--! Font Awesome Pro 6.4.0 by @fontawesome - https://fontawesome.com License - https://fontawesome.com/license (Commercial License) Copyright 2023 Fonticons, Inc. --><path d="M368 96a48 48 0 1 0 -96 0 48 48 0 1 0 96 0zm48 0c0 26.7-10.9 50.9-28.6 68.3c9-2.8 18.6-4.3 28.6-4.3c53 0 96 43 96 96c0 26.7-10.9 50.9-28.6 68.3c9-2.8 18.6-4.3 28.6-4.3c53 0 96 43 96 96s-43 96-96 96s-96-43-96-96c0-26.7 10.9-50.9 28.6-68.3c-9 2.8-18.6 4.3-28.6 4.3s-19.5-1.5-28.6-4.3C405.1 365.1 416 389.3 416 416c0 53-43 96-96 96s-96-43-96-96c0-26.7 10.9-50.9 28.6-68.3c-9 2.8-18.6 4.3-28.6 4.3s-19.5-1.5-28.6-4.3C213.1 365.1 224 389.3 224 416c0 53-43 96-96 96s-96-43-96-96s43-96 96-96c9.9 0 19.5 1.5 28.6 4.3C138.9 306.9 128 282.7 128 256c0-53 43-96 96-96c9.9 0 19.5 1.5 28.6 4.3C234.9 146.9 224 122.7 224 96c0-53 43-96 96-96s96 43 96 96zm-96 96c-9.9 0-19.5-1.5-28.6-4.3C309.1 205.1 320 229.3 320 256c0-26.7 10.9-50.9 28.6-68.3c-9 2.8-18.6 4.3-28.6 4.3zm0 64c0 26.7-10.9 50.9-28.6 68.3c9-2.8 18.6-4.3 28.6-4.3s19.5 1.5 28.6 4.3C330.9 306.9 320 282.7 320 256zM176 416a48 48 0 1 0 -96 0 48 48 0 1 0 96 0zm48-112a48 48 0 1 0 0-96 48 48 0 1 0 0 96zM368 416a48 48 0 1 0 -96 0 48 48 0 1 0 96 0zm48-112a48 48 0 1 0 0-96 48 48 0 1 0 0 96zM560 416a48 48 0 1 0 -96 0 48 48 0 1 0 96 0z"/></svg>