<svg xmlns="http://www.w3.org/2000/svg" viewBox="0 0 384 512"><!--! Font Awesome Pro 6.4.0 by @fontawesome - https://fontawesome.com License - https://fontawesome.com/license (Commercial License) Copyright 2023 Fonticons, Inc. --><path d="M26.4 32.1C13.2 30.8 1.4 40.4 .1 53.6s8.3 25 21.5 26.3L44 82.1c20.4 2 36 19.3 36 39.8V176H24c-13.3 0-24 10.7-24 24s10.7 24 24 24H80V392c0 48.6 39.4 88 88 88h32c101.6 0 184-82.4 184-184V264c0-48.6-39.4-88-88-88H280c-13.3 0-24 10.7-24 24s10.7 24 24 24h16c22.1 0 40 17.9 40 40v32c0 75.1-60.9 136-136 136H168c-22.1 0-40-17.9-40-40V224h40c13.3 0 24-10.7 24-24s-10.7-24-24-24H128V121.9c0-45.2-34.3-83.1-79.2-87.6L26.4 32.1z"/></svg>