<svg xmlns="http://www.w3.org/2000/svg" viewBox="0 0 512 512"><!-- Font Awesome Pro 6.0.0-alpha2 by @fontawesome - https://fontawesome.com License - https://fontawesome.com/license (Commercial License) --><path d="M488 462.172H24C10.801 462.172 0 472.971 0 486.172C0 499.371 10.801 510.172 24 510.172H488C501.199 510.172 512 499.371 512 486.172C512 472.971 501.199 462.172 488 462.172ZM456 430.172C469.199 430.172 480 419.371 480 406.172C480 392.971 469.199 382.172 456 382.172H56C42.801 382.172 32 392.971 32 406.172C32 419.371 42.801 430.172 56 430.172H456ZM497.172 95.984L265.172 -0.016C259.297 -2.453 252.703 -2.453 246.828 -0.016L14.828 95.984C5.844 99.703 0 108.453 0 118.172V182.172C0 195.422 10.75 206.172 24 206.172H64V350.172H112V206.172H176V350.172H224V206.172H288V350.172H336V206.172H400V350.172H448V206.172H488C501.25 206.172 512 195.422 512 182.172V118.172C512 108.453 506.156 99.703 497.172 95.984ZM464 158.172H301.062C302.85 153.145 304 147.812 304 142.172C304 115.662 282.51 94.172 256 94.172S208 115.662 208 142.172C208 147.812 209.15 153.145 210.938 158.172H48V134.203L256 48.141L464 134.203V158.172Z"/></svg>