<svg xmlns="http://www.w3.org/2000/svg" viewBox="0 0 512 512"><!--! Font Awesome Pro 6.4.0 by @fontawesome - https://fontawesome.com License - https://fontawesome.com/license (Commercial License) Copyright 2023 Fonticons, Inc. --><path d="M32 80V205.8c14.5-7.7 30.8-12.4 48-13.6l0-.3V160c0-17.7 14.3-32 32-32h96c17.7 0 32 14.3 32 32v32h32V160c0-17.7 14.3-32 32-32h96c17.7 0 32 14.3 32 32v32l0 .3c17.2 1.1 33.5 5.9 48 13.6V80c0-26.5-21.5-48-48-48H80C53.5 32 32 53.5 32 80zM88 224c-48.6 0-88 39.4-88 88v80 64c0 13.3 10.7 24 24 24s24-10.7 24-24V416H464v40c0 13.3 10.7 24 24 24s24-10.7 24-24V392 312c0-48.6-39.4-88-88-88H88zM464 368H48V312c0-22.1 17.9-40 40-40H424c22.1 0 40 17.9 40 40v56z"/></svg>