<svg xmlns="http://www.w3.org/2000/svg" viewBox="0 0 576 512"><!--! Font Awesome Pro 6.4.0 by @fontawesome - https://fontawesome.com License - https://fontawesome.com/license (Commercial License) Copyright 2023 Fonticons, Inc. --><path d="M24 0C37.3 0 48 10.7 48 24V160H256V40c0-22.1 17.9-40 40-40H456c66.3 0 120 53.7 120 120v64 96V439.7 488c0 13.3-10.7 24-24 24s-24-10.7-24-24V463.7H280 48V488c0 13.3-10.7 24-24 24s-24-10.7-24-24V439.7 184 24C0 10.7 10.7 0 24 0zM256 415.7V296c0-22.1 17.9-40 40-40H528V208H280 48V415.7H256zM528 160V120c0-39.8-32.2-72-72-72H304V160H528zm0 144H304V415.7H528V304zM96 328a56 56 0 1 1 112 0A56 56 0 1 1 96 328zM152 16a56 56 0 1 1 0 112 56 56 0 1 1 0-112z"/></svg>