<svg xmlns="http://www.w3.org/2000/svg" viewBox="0 0 512 512"><!--! Font Awesome Pro 6.4.0 by @fontawesome - https://fontawesome.com License - https://fontawesome.com/license (Commercial License) Copyright 2023 Fonticons, Inc. --><path d="M216 64c-13.3 0-24 10.7-24 24s10.7 24 24 24h16v33.3C119.6 157.2 32 252.4 32 368H80c0-97.2 78.8-176 176-176s176 78.8 176 176h48c0-115.6-87.6-210.8-200-222.7V112h16c13.3 0 24-10.7 24-24s-10.7-24-24-24H256 216zM24 400c-13.3 0-24 10.7-24 24s10.7 24 24 24H488c13.3 0 24-10.7 24-24s-10.7-24-24-24H24z"/></svg>