<svg xmlns="http://www.w3.org/2000/svg" viewBox="0 0 640 512"><!--! Font Awesome Pro 6.4.0 by @fontawesome - https://fontawesome.com License - https://fontawesome.com/license (Commercial License) Copyright 2023 Fonticons, Inc. --><path d="M578.7 150c-14.7-10.6-22.1-28.5-19.3-46.4c.4-2.5 .6-5 .6-7.6c0-26.5-21.5-48-48-48s-48 21.5-48 48c0 2.6 .2 5.2 .6 7.6c2.8 17.9-4.6 35.8-19.3 46.4c-8.2 5.9-13.3 15.3-13.3 26c0 17.7 14.3 32 32 32h96c17.7 0 32-14.3 32-32c0-10.6-5.1-20.1-13.3-26zM608 96c0 5.1-.4 10.2-1.2 15.1C626.9 125.7 640 149.3 640 176c0 44.2-35.8 80-80 80H536V488c0 13.3-10.7 24-24 24s-24-10.7-24-24V256H464c-44.2 0-80-35.8-80-80c0-26.7 13.1-50.3 33.2-64.9c-.8-4.9-1.2-10-1.2-15.1c0-53 43-96 96-96s96 43 96 96zM80 272H304V240H80v32zM32 224c0-17.7 14.3-32 32-32H320c17.7 0 32 14.3 32 32v64c0 14.9-10.2 27.4-24 31v33h32c13.3 0 24 10.7 24 24s-10.7 24-24 24h-8v88c0 13.3-10.7 24-24 24s-24-10.7-24-24V400H80v88c0 13.3-10.7 24-24 24s-24-10.7-24-24V400H24c-13.3 0-24-10.7-24-24s10.7-24 24-24H56V319c-13.8-3.6-24-16.1-24-31V224zm72 96v32H280V320H104z"/></svg>