<svg xmlns="http://www.w3.org/2000/svg" viewBox="0 0 640 512"><!--! Font Awesome Pro 6.4.0 by @fontawesome - https://fontawesome.com License - https://fontawesome.com/license (Commercial License) Copyright 2023 Fonticons, Inc. --><path d="M440 24c0-13.3-10.7-24-24-24s-24 10.7-24 24v8H248V24c0-13.3-10.7-24-24-24s-24 10.7-24 24v8H80C53.5 32 32 53.5 32 80V352H24c-13.3 0-24 10.7-24 24s10.7 24 24 24H80 296v88c0 13.3 10.7 24 24 24s24-10.7 24-24V400H560h56c13.3 0 24-10.7 24-24s-10.7-24-24-24h-8V80c0-26.5-21.5-48-48-48H440V24zM320 352H80L80 80H200v48h-8c-13.3 0-24 10.7-24 24s10.7 24 24 24h32 32c13.3 0 24-10.7 24-24s-10.7-24-24-24h-8V80H392v48h-8c-13.3 0-24 10.7-24 24s10.7 24 24 24h32 32c13.3 0 24-10.7 24-24s-10.7-24-24-24h-8V80H560V352H320z"/></svg>