<svg xmlns="http://www.w3.org/2000/svg" viewBox="0 0 640 512"><!--! Font Awesome Pro 6.4.0 by @fontawesome - https://fontawesome.com License - https://fontawesome.com/license (Commercial License) Copyright 2023 Fonticons, Inc. --><path d="M38.8 5.1C28.4-3.1 13.3-1.2 5.1 9.2S-1.2 34.7 9.2 42.9l592 464c10.4 8.2 25.5 6.3 33.7-4.1s6.3-25.5-4.1-33.7L512 376V360c0-39.8-32.2-72-72-72H399.7L295.4 206.2C310.5 193 320 173.6 320 152V72c0-39.8-32.2-72-72-72H200c-39.8 0-72 32.2-72 72v3L38.8 5.1zM176 112.6V72c0-13.3 10.7-24 24-24h48c13.3 0 24 10.7 24 24v80c0 10.7-7 19.7-16.6 22.8L176 112.6zM456 24c0-7.7-3.7-15-10-19.5s-14.3-5.7-21.6-3.3l-48 16C363.8 21.4 357 35 361.2 47.6S379 67 391.6 62.8L408 57.3V176H376c-13.3 0-24 10.7-24 24s10.7 24 24 24h56 56c13.3 0 24-10.7 24-24s-10.7-24-24-24H456V24zM232 312c0-7.7-3.7-15-10-19.5s-14.3-5.7-21.6-3.3l-48 16c-12.6 4.2-19.4 17.8-15.2 30.4s17.8 19.4 30.4 15.2l16.4-5.5V464H152c-13.3 0-24 10.7-24 24s10.7 24 24 24h56 56c13.3 0 24-10.7 24-24s-10.7-24-24-24H232V312zm88 48v80c0 39.8 32.2 72 72 72h48c22.2 0 42-10 55.2-25.8l-37.8-29.7c-4.4 4.7-10.6 7.6-17.5 7.6H392c-13.3 0-24-10.7-24-24V385.9l-47.1-37.1c-.6 3.7-.9 7.4-.9 11.2z"/></svg>