<svg xmlns="http://www.w3.org/2000/svg" viewBox="0 0 320 512"><!--! Font Awesome Pro 6.4.0 by @fontawesome - https://fontawesome.com License - https://fontawesome.com/license (Commercial License) Copyright 2023 Fonticons, Inc. --><path d="M64 24C64 10.7 74.7 0 88 0s24 10.7 24 24V64h32V24c0-13.3 10.7-24 24-24s24 10.7 24 24V64.7c54 6 96 51.8 96 107.3c0 27.5-10.3 52.6-27.2 71.6C295.9 261.5 320 297.9 320 340c0 59.6-48.4 108-108 108H192v40c0 13.3-10.7 24-24 24s-24-10.7-24-24V448H112v40c0 13.3-10.7 24-24 24s-24-10.7-24-24V448H41.7C18.7 448 0 429.3 0 406.3V280v-6.3V232 101.6C0 80.8 16.8 64 37.6 64H64V24zM48 232H180c33.1 0 60-26.9 60-60s-26.9-60-60-60H48V232zm132 48H48V400H212c33.1 0 60-26.9 60-60s-26.9-60-60-60H180z"/></svg>