<svg xmlns="http://www.w3.org/2000/svg" viewBox="0 0 512 512"><!--! Font Awesome Pro 6.4.0 by @fontawesome - https://fontawesome.com License - https://fontawesome.com/license (Commercial License) Copyright 2023 Fonticons, Inc. --><path d="M0 80C0 35.8 35.8 0 80 0h48 32 16.2H471c20.8 0 36.1 19.6 31 39.8L425.6 345.5C457.8 361 480 393.9 480 432v16c0 35.3-28.7 64-64 64H160c-35.3 0-64-28.7-64-64V432c0-40.5 25.1-75.1 60.6-89.2L149.3 256H80c-44.2 0-80-35.8-80-80V80zM144 432v16c0 8.8 7.2 16 16 16H416c8.8 0 16-7.2 16-16V432c0-26.5-21.5-48-48-48H192c-26.5 0-48 21.5-48 48zM406.5 224H304c-8.8 0-16-7.2-16-16s7.2-16 16-16H414.5l16-64H304c-8.8 0-16-7.2-16-16s7.2-16 16-16H438.5l12-48H180.2l24 288H378.5l28-112zM80 48C62.3 48 48 62.3 48 80v96c0 17.7 14.3 32 32 32h65.3L132 48H80zM288 400a24 24 0 1 1 0 48 24 24 0 1 1 0-48z"/></svg>