<svg xmlns="http://www.w3.org/2000/svg" viewBox="0 0 512 512"><!--! Font Awesome Pro 6.4.0 by @fontawesome - https://fontawesome.com License - https://fontawesome.com/license (Commercial License) Copyright 2023 Fonticons, Inc. --><path d="M24 0C10.7 0 0 10.7 0 24S10.7 48 24 48H144V160v48 36.1C116 254 96 280.7 96 312c0 39.8 32.2 72 72 72s72-32.2 72-72c0-31.3-20-58-48-67.9V208 160 48H488c13.3 0 24-10.7 24-24s-10.7-24-24-24H24zM144 312a24 24 0 1 1 48 0 24 24 0 1 1 -48 0zM0 488c0 13.3 10.7 24 24 24H488c13.3 0 24-10.7 24-24s-10.7-24-24-24H24c-13.3 0-24 10.7-24 24zM64.3 320H24c-13.3 0-24 10.7-24 24s10.7 24 24 24H80.3c-9-14.1-14.7-30.4-16-48zm191.3 48H488c13.3 0 24-10.7 24-24s-10.7-24-24-24H271.7c-1.3 17.6-7 33.9-16 48zM24 160c-13.3 0-24 10.7-24 24s10.7 24 24 24h88V160H24zm200 48H488c13.3 0 24-10.7 24-24s-10.7-24-24-24H224v48z"/></svg>