<svg xmlns="http://www.w3.org/2000/svg" viewBox="0 0 640 512"><!--! Font Awesome Pro 6.4.0 by @fontawesome - https://fontawesome.com License - https://fontawesome.com/license (Commercial License) Copyright 2023 Fonticons, Inc. --><path d="M480 80c8.8 0 16 7.2 16 16V416c0 8.8-7.2 16-16 16H160c-8.8 0-16-7.2-16-16V96c0-8.8 7.2-16 16-16H480zM160 32c-35.3 0-64 28.7-64 64V416c0 35.3 28.7 64 64 64H480c35.3 0 64-28.7 64-64V96c0-35.3-28.7-64-64-64H160zm48 88a24 24 0 1 0 -48 0 24 24 0 1 0 48 0zm248 24a24 24 0 1 0 0-48 24 24 0 1 0 0 48zM208 392a24 24 0 1 0 -48 0 24 24 0 1 0 48 0zm248 24a24 24 0 1 0 0-48 24 24 0 1 0 0 48z"/></svg>