<svg xmlns="http://www.w3.org/2000/svg" viewBox="0 0 640 512"><!--! Font Awesome Pro 6.4.0 by @fontawesome - https://fontawesome.com License - https://fontawesome.com/license (Commercial License) Copyright 2023 Fonticons, Inc. --><path d="M88 0C39.4 0 0 39.4 0 88V424H.4c-.3 2.6-.4 5.3-.4 8c0 44.2 35.8 80 80 80H394.8c-18.3-12.9-34.1-29.2-46.3-48H80c-17.7 0-32-14.3-32-32s14.3-32 32-32H322.9c-1.9-10.4-2.9-21.1-2.9-32c0-5.4 .2-10.7 .7-16H80c-11.4 0-22.2 2.4-32 6.7V88c0-22.1 17.9-40 40-40H392c4.4 0 8 3.6 8 8V220.5c14.6-9.5 30.8-17 48-21.8V56c0-30.9-25.1-56-56-56H88zM640 368a144 144 0 1 0 -288 0 144 144 0 1 0 288 0zM492.7 300.7c6.2-6.2 16.4-6.2 22.6 0l56 56c6.2 6.2 6.2 16.4 0 22.6l-56 56c-6.2 6.2-16.4 6.2-22.6 0s-6.2-16.4 0-22.6L521.4 384H432c-8.8 0-16-7.2-16-16s7.2-16 16-16h89.4l-28.7-28.7c-6.2-6.2-6.2-16.4 0-22.6z"/></svg>