<svg xmlns="http://www.w3.org/2000/svg" viewBox="0 0 448 512"><!-- Font Awesome Pro 6.0.0-alpha2 by @fontawesome - https://fontawesome.com License - https://fontawesome.com/license (Commercial License) --><path d="M424 400C437.25 400 448 389.25 448 376V24C448 10.75 437.25 0 424 0H80C35.891 0 0 35.875 0 80V432C0 476.125 35.891 512 80 512H424C437.25 512 448 501.25 448 488S437.25 464 424 464H416V400H424ZM368 464H80C62.359 464 48 449.656 48 432S62.359 400 80 400H368V464ZM400 352H80C68.625 352 57.797 354.375 48 358.688V80C48 62.344 62.359 48 80 48H400V352ZM228.906 286.938C219.438 285.656 208.094 281.953 198.062 278.688L192.906 277C184.344 274.344 175.469 278.938 172.781 287.344C170.062 295.75 174.688 304.766 183.094 307.469L188.156 309.109C199.438 312.797 212.25 316.984 224.5 318.641C231.094 319.563 237.406 320.016 243.406 320.016C277.906 320.016 302.156 305.016 307.062 279.313C310.828 259.555 303.562 246.736 292.105 237.723C299.797 231.086 305.109 222.65 307.062 212.453C315.25 169.484 272.312 158.391 243.938 151.047L237.219 149.281C204.312 140.531 202.844 134.656 204.375 126.688C206.563 115.281 226.188 109.578 251 113.047C258.969 114.172 268.094 116.859 274.219 118.781C282.75 121.406 291.625 116.672 294.281 108.266C296.906 99.828 292.187 90.859 283.781 88.219C272.281 84.641 263.312 82.469 255.5 81.359C211.031 75.109 178.688 90.516 172.938 120.688C169.156 140.52 176.758 153.422 187.875 162.299C180.191 168.932 174.887 177.352 172.938 187.531C164.844 230.016 208.156 241.531 229 247.078L235.938 248.891C272.375 258.312 277.594 263.016 275.625 273.312C273.469 284.75 253.812 290.484 228.906 286.938ZM275.625 206.453C273.766 216.135 261.242 219.334 253.453 220.436C250.203 219.539 246.977 218.684 243.969 217.906L237.219 216.141C204.312 207.391 202.844 201.516 204.375 193.547C206.234 183.846 218.813 180.646 226.594 179.555C227.363 179.762 228.281 180.027 229 180.219L235.906 182.016C272.375 191.453 277.594 196.156 275.625 206.453Z"/></svg>