<svg xmlns="http://www.w3.org/2000/svg" viewBox="0 0 512 512"><!--! Font Awesome Pro 6.4.0 by @fontawesome - https://fontawesome.com License - https://fontawesome.com/license (Commercial License) Copyright 2023 Fonticons, Inc. --><path d="M256 0c13.3 0 24 10.7 24 24V228.7c23.5 9.5 40 32.5 40 59.3c0 35.3-28.7 64-64 64s-64-28.7-64-64c0-26.9 16.5-49.9 40-59.3V24c0-13.3 10.7-24 24-24zm0 272a16 16 0 1 0 0 32 16 16 0 1 0 0-32zM112 176H80c-17.7 0-32 14.3-32 32V432c0 17.7 14.3 32 32 32H432c17.7 0 32-14.3 32-32V208c0-17.7-14.3-32-32-32H400V288c0 79.5-64.5 144-144 144s-144-64.5-144-144V176zm16-48c17.7 0 32 14.3 32 32V288c0 53 43 96 96 96s96-43 96-96V160c0-17.7 14.3-32 32-32h48c44.2 0 80 35.8 80 80V432c0 44.2-35.8 80-80 80H80c-44.2 0-80-35.8-80-80V208c0-44.2 35.8-80 80-80h48z"/></svg>