<svg xmlns="http://www.w3.org/2000/svg" viewBox="0 0 320 512"><!--! Font Awesome Pro 6.4.0 by @fontawesome - https://fontawesome.com License - https://fontawesome.com/license (Commercial License) Copyright 2023 Fonticons, Inc. --><path d="M96 24c0-13.3 10.7-24 24-24h80c13.3 0 24 10.7 24 24V78c10.7 3.7 20.9 9.2 30 16.2l6 4.6c22.7 17.4 36 44.4 36 73.1c0 12.5-2.5 24.4-7 35.3c4.5 10 7 21.1 7 32.8c0 11.4-2.4 22.2-6.7 32c4.3 9.8 6.7 20.6 6.7 32s-2.4 22.2-6.7 32c4.3 9.8 6.7 20.6 6.7 32s-2.4 22.2-6.7 32c4.3 9.8 6.7 20.6 6.7 32c0 44.2-35.8 80-80 80H104c-44.2 0-80-35.8-80-80c0-11.4 2.4-22.2 6.7-32c-4.3-9.8-6.7-20.6-6.7-32s2.4-22.2 6.7-32c-4.3-9.8-6.7-20.6-6.7-32s2.4-22.2 6.7-32c-4.3-9.8-6.7-20.6-6.7-32c0-11.7 2.5-22.8 7-32.8c-4.5-10.9-7-22.8-7-35.3c0-28.6 13.3-55.6 36-73.1l6-4.6c9.1-7 19.3-12.5 30-16.2V24zM237.8 208c0-4.5 1.2-8.9 3.6-12.9c4.2-6.7 6.6-14.7 6.6-23.2c0-13.7-6.4-26.7-17.3-35l-6-4.6c-10.4-8-23.1-12.3-36.2-12.3H131.4c-13.1 0-25.8 4.3-36.2 12.3l-6 4.6c-10.9 8.4-17.3 21.3-17.3 35c0 8.6 2.4 16.5 6.6 23.2c2.5 4 3.7 8.4 3.6 12.9H237.8zM82 336c0 4.8-1.4 9.6-4.3 13.7C74.1 354.9 72 361.2 72 368s2.1 13.1 5.7 18.3c5.8 8.2 5.8 19.2 0 27.5C74.1 418.9 72 425.2 72 432c0 17.7 14.3 32 32 32H216c17.7 0 32-14.3 32-32c0-6.8-2.1-13.1-5.7-18.3c-5.8-8.2-5.8-19.2 0-27.5c3.6-5.2 5.7-11.4 5.7-18.3s-2.1-13.1-5.7-18.3c-2.9-4.1-4.3-8.9-4.3-13.7H82z"/></svg>