<svg xmlns="http://www.w3.org/2000/svg" viewBox="0 0 512 512"><!--! Font Awesome Pro 6.4.0 by @fontawesome - https://fontawesome.com License - https://fontawesome.com/license (Commercial License) Copyright 2023 Fonticons, Inc. --><path d="M176 56c0 13.3 10.7 24 24 24h16c13.3 0 24-10.7 24-24s-10.7-24-24-24H200c-13.3 0-24 10.7-24 24zm24 48c-13.3 0-24 10.7-24 24s10.7 24 24 24h16c13.3 0 24-10.7 24-24s-10.7-24-24-24H200zM56 176c-13.3 0-24 10.7-24 24s10.7 24 24 24H72c13.3 0 24-10.7 24-24s-10.7-24-24-24H56zm88.7 244.6c-4-13.5-13.8-24.6-26.8-30.3C82.7 374.9 56.7 342.7 49.8 304H462.2c-6.9 38.7-32.9 70.9-68.1 86.3c-12.9 5.7-22.7 16.7-26.8 30.3c-2 6.6-8.2 11.4-15.3 11.4H160c-7.2 0-13.4-4.8-15.3-11.4zM27.4 256C12.3 256 0 268.3 0 283.4c0 67.4 40.6 125.4 98.6 150.8C106.5 460.7 131 480 160 480H352c29 0 53.5-19.3 61.4-45.7c58.1-25.4 98.6-83.4 98.6-150.8c0-15.1-12.3-27.4-27.4-27.4H27.4zM224 200c0 13.3 10.7 24 24 24h16c13.3 0 24-10.7 24-24s-10.7-24-24-24H248c-13.3 0-24 10.7-24 24zm-96 0c0 13.3 10.7 24 24 24h16c13.3 0 24-10.7 24-24s-10.7-24-24-24H152c-13.3 0-24 10.7-24 24zm-24-96c-13.3 0-24 10.7-24 24s10.7 24 24 24h16c13.3 0 24-10.7 24-24s-10.7-24-24-24H104zm216 96c0 13.3 10.7 24 24 24h16c13.3 0 24-10.7 24-24s-10.7-24-24-24H344c-13.3 0-24 10.7-24 24zm-24-96c-13.3 0-24 10.7-24 24s10.7 24 24 24h16c13.3 0 24-10.7 24-24s-10.7-24-24-24H296zm120 96c0 13.3 10.7 24 24 24h16c13.3 0 24-10.7 24-24s-10.7-24-24-24H440c-13.3 0-24 10.7-24 24zm-24-96c-13.3 0-24 10.7-24 24s10.7 24 24 24h16c13.3 0 24-10.7 24-24s-10.7-24-24-24H392zM296 32c-13.3 0-24 10.7-24 24s10.7 24 24 24h16c13.3 0 24-10.7 24-24s-10.7-24-24-24H296z"/></svg>