<svg xmlns="http://www.w3.org/2000/svg" viewBox="0 0 448 512"><!--! Font Awesome Pro 6.4.0 by @fontawesome - https://fontawesome.com License - https://fontawesome.com/license (Commercial License) Copyright 2023 Fonticons, Inc. --><path d="M32 224H416c0-106-86-192-192-192S32 118 32 224zM173.8 368h-2.2H145c-41.4 0-77.2-26.3-90.5-64H393.5c-13.3 37.7-49.1 64-90.5 64H276.3h-2.2H173.8zm36.9 78.7L224 430.8l13.3 15.9L251.7 464H196.3l14.4-17.3zm92.3 3.9L274.2 416H303c10.6 0 20.9-1.1 30.9-3.3c58.5-12.8 104.3-61.2 112-122.8l2-15.9c.6-4.6-.8-9.1-3.9-12.6s-7.4-5.4-12-5.4H16c-4.6 0-9 2-12 5.4s-4.5 8-3.9 12.6l2 15.9c7.7 61.6 53.5 110 112 122.8c10 2.2 20.3 3.3 30.9 3.3h28.8L145 450.6l-10.9 13.1-.3 .3-.4 .5L128 471l-12.3 14.7c-4 4.8-4.8 11.4-2.2 17s8.3 9.2 14.5 9.2h19.2 8.5 .6H291.7h.6 8.5H320c6.2 0 11.9-3.6 14.5-9.2s1.8-12.3-2.2-17L320 471l-5.5-6.5-.4-.5-.3-.3L303 450.6z"/></svg>