<svg xmlns="http://www.w3.org/2000/svg" viewBox="0 0 512 512"><!--! Font Awesome Pro 6.4.0 by @fontawesome - https://fontawesome.com License - https://fontawesome.com/license (Commercial License) Copyright 2023 Fonticons, Inc. --><path d="M128 48c-17.7 0-32 14.3-32 32v4.4c0 5.8 .7 11.5 2.1 17.1l9.4 37.4c1.7 6.9 3 14 3.7 21.1h33.6c.7-7.1 2-14.2 3.7-21.1l9.4-37.4c1.4-5.6 2.1-11.3 2.1-17.1V80c0-17.7-14.3-32-32-32zM102.3 230.2L74 305.7c-6.6 17.6-10 36.3-10 55.1c0 22.4 4.8 44.5 14.1 64.9L95.5 464h65.1l17.4-38.3c9.3-20.4 14.1-42.5 14.1-64.9c0-18.8-3.4-37.5-10-55.1l-28.3-75.5c-2.7-7.2-4.9-14.6-6.4-22.2H108.8c-1.6 7.5-3.7 14.9-6.4 22.2zM48 80C48 35.8 83.8 0 128 0s80 35.8 80 80v4.4c0 9.7-1.2 19.3-3.5 28.7l-9.4 37.4c-2.1 8.2-3.1 16.7-3.1 25.2v1c0 12.5 2.2 24.8 6.6 36.5L227 288.9c8.6 23 13 47.4 13 72c0 29.3-6.3 58.2-18.4 84.8L200 493.2c-5.2 11.4-16.6 18.8-29.1 18.8H85.2c-12.5 0-23.9-7.3-29.1-18.8L34.4 445.6C22.3 419 16 390.1 16 360.8c0-24.6 4.4-48.9 13-72l28.3-75.5c4.4-11.7 6.6-24 6.6-36.5v-1c0-8.5-1-17-3.1-25.2l-9.4-37.4c-2.3-9.4-3.5-19-3.5-28.7V80zM384 48c-17.7 0-32 14.3-32 32v4.4c0 5.8 .7 11.5 2.1 17.1l9.4 37.4c1.7 6.9 3 14 3.7 21.1h33.6c.7-7.1 2-14.2 3.7-21.1l9.4-37.4c1.4-5.6 2.1-11.3 2.1-17.1V80c0-17.7-14.3-32-32-32zM358.3 230.2L330 305.7c-6.6 17.6-10 36.3-10 55.1c0 22.4 4.8 44.5 14.1 64.9L351.5 464h65.1l17.4-38.3c9.3-20.4 14.1-42.5 14.1-64.9c0-18.8-3.4-37.5-10-55.1l-28.3-75.5c-2.7-7.2-4.9-14.6-6.4-22.2H364.8c-1.6 7.5-3.7 14.9-6.4 22.2zM304 80c0-44.2 35.8-80 80-80s80 35.8 80 80v4.4c0 9.7-1.2 19.3-3.5 28.7l-9.4 37.4c-2.1 8.2-3.1 16.7-3.1 25.2v1c0 12.5 2.2 24.8 6.6 36.5L483 288.9c8.6 23 13 47.4 13 72c0 29.3-6.3 58.2-18.4 84.8L456 493.2c-5.2 11.4-16.6 18.8-29.1 18.8H341.2c-12.6 0-23.9-7.3-29.1-18.8l-21.7-47.6C278.3 419 272 390.1 272 360.8c0-24.6 4.4-48.9 13-72l28.3-75.5c4.4-11.7 6.6-24 6.6-36.5v-1c0-8.5-1-17-3.1-25.2l-9.4-37.4c-2.3-9.4-3.5-19-3.5-28.7V80z"/></svg>