<svg xmlns="http://www.w3.org/2000/svg" viewBox="0 0 512 512"><!--! Font Awesome Pro 6.4.0 by @fontawesome - https://fontawesome.com License - https://fontawesome.com/license (Commercial License) Copyright 2023 Fonticons, Inc. --><path d="M256 0c-8.9 0-17 4.9-21.2 12.7s-3.7 17.3 1.2 24.6l10.8 16.3c.7 1.1 1.1 2.4 1.1 3.7c0 3.7-3 6.7-6.7 6.7H172c-42 0-76 34-76 76c0 4.7 .4 9.3 1.2 13.8C51 162.5 16 203.2 16 252c0 29 12.3 55.1 32 73.3V344c0 57.4 46.6 104 104 104h30.1l-20.4 40.8c-1.1 2.3-1.7 4.7-1.7 7.2c0 2.9 .8 5.8 2.4 8.4c2.9 4.7 8.1 7.6 13.6 7.6H336c5.5 0 10.7-2.9 13.6-7.6c1.6-2.6 2.4-5.5 2.4-8.4c0-2.4-.6-4.9-1.7-7.2L329.9 448H360c57.4 0 104-46.6 104-104V325.3c19.7-18.3 32-44.4 32-73.3c0-49.1-35.3-89.9-82-98.4c1.3-5.7 2-11.6 2-17.6C416 60.9 355.1 0 280 0H256zM396 304H116c-28.7 0-52-23.3-52-52s23.3-52 52-52h12 6.5H168c13.3 0 24-10.7 24-24s-10.7-24-24-24H146.7c-1.7-3.6-2.7-7.7-2.7-12c0-15.5 12.5-28 28-28h69.3c30.2 0 54.7-24.5 54.7-54.7c0-2.7-.2-5.3-.6-8C336.7 56.6 368 92.7 368 136c0 5.8-1.5 11.3-4.3 16H280c-13.3 0-24 10.7-24 24s10.7 24 24 24h95.2H384h12c28.7 0 52 23.3 52 52s-23.3 52-52 52z"/></svg>