<svg xmlns="http://www.w3.org/2000/svg" viewBox="0 0 512 512"><!--! Font Awesome Pro 6.4.0 by @fontawesome - https://fontawesome.com License - https://fontawesome.com/license (Commercial License) Copyright 2023 Fonticons, Inc. --><path d="M208 48H117.5l57.1 228.4 2.9 11.6H332.3l7.1-17.8L389.9 144H336c-31.1 0-56.2-9.9-75.5-28.2c-15.8-15-25.1-33.7-30.5-44.6l-.9-1.8C222.3 56 219.8 52 217.5 49.8c-.5-.5-.8-.6-1.3-.8c-.7-.3-3-1-8.2-1zM384 288h8c13.3 0 24 10.7 24 24s-10.7 24-24 24H120c-13.3 0-24-10.7-24-24s10.7-24 24-24h8l-8-32-12-48L64.9 35.4c-.6-2.3-.9-4.6-.9-6.9C64 12.8 76.8 0 92.5 0H208c40 0 52 24 64 48s24 48 64 48h85.2C436 96 448 108 448 122.8c0 3.4-.7 6.8-1.9 10L416 208l-19.2 48L384 288zM75 208l12 48H48V368H464V256H431.3l19.2-48H464c26.5 0 48 21.5 48 48V464c0 26.5-21.5 48-48 48H48c-26.5 0-48-21.5-48-48V256c0-26.5 21.5-48 48-48H75zM48 416v48H464V416H48z"/></svg>