<svg xmlns="http://www.w3.org/2000/svg" viewBox="0 0 448 512"><!--! Font Awesome Pro 6.4.0 by @fontawesome - https://fontawesome.com License - https://fontawesome.com/license (Commercial License) Copyright 2023 Fonticons, Inc. --><path d="M261.3 80h81.1c6.3 0 12.1 3.7 14.6 9.5L388.4 160H288L261.3 80zm-74.7 0L160 160 59.6 160 91 89.5c2.6-5.8 8.3-9.5 14.6-9.5h81.1zM160 208v48c0 17.7 14.3 32 32 32h64c17.7 0 32-14.3 32-32V208H400V416c0 8.8-7.2 16-16 16H64c-8.8 0-16-7.2-16-16V208H160zM400.9 70c-10.3-23.1-33.2-38-58.5-38H105.6C80.3 32 57.4 46.9 47.1 70L5.5 163.6c-3.6 8.2-5.5 17-5.5 26V416c0 35.3 28.7 64 64 64H384c35.3 0 64-28.7 64-64V189.6c0-9-1.9-17.8-5.5-26L400.9 70z"/></svg>