<svg xmlns="http://www.w3.org/2000/svg" viewBox="0 0 576 512"><!--! Font Awesome Pro 6.4.0 by @fontawesome - https://fontawesome.com License - https://fontawesome.com/license (Commercial License) Copyright 2023 Fonticons, Inc. --><path d="M152 32c-48.6 0-88 39.4-88 88v45.5c0 10.6-4.2 20.8-11.7 28.3L7 239c-9.4 9.4-9.4 24.6 0 33.9l45.3 45.3c7.5 7.5 11.7 17.7 11.7 28.3V392c0 48.6 39.4 88 88 88h48c13.3 0 24-10.7 24-24s-10.7-24-24-24H152c-22.1 0-40-17.9-40-40V346.5c0-23.3-9.3-45.7-25.8-62.2L57.9 256l28.3-28.3c16.5-16.5 25.8-38.9 25.8-62.2V120c0-22.1 17.9-40 40-40h48c13.3 0 24-10.7 24-24s-10.7-24-24-24H152zm272 0H376c-13.3 0-24 10.7-24 24s10.7 24 24 24h48c22.1 0 40 17.9 40 40v45.5c0 23.3 9.3 45.7 25.8 62.2L518.1 256l-28.3 28.3c-16.5 16.5-25.8 38.9-25.8 62.2V392c0 22.1-17.9 40-40 40H376c-13.3 0-24 10.7-24 24s10.7 24 24 24h48c48.6 0 88-39.4 88-88V346.5c0-10.6 4.2-20.8 11.7-28.3L569 273c9.4-9.4 9.4-24.6 0-33.9l-45.3-45.3c-7.5-7.5-11.7-17.7-11.7-28.3V120c0-48.6-39.4-88-88-88z"/></svg>