<svg xmlns="http://www.w3.org/2000/svg" viewBox="0 0 640 512"><!--! Font Awesome Pro 6.4.0 by @fontawesome - https://fontawesome.com License - https://fontawesome.com/license (Commercial License) Copyright 2023 Fonticons, Inc. --><path d="M56 32C42.7 32 32 42.7 32 56s10.7 24 24 24h48v64H56c-13.3 0-24 10.7-24 24s10.7 24 24 24h72H256 449.6c20.2-19.8 47.9-32 78.4-32c27.3 0 52.4 9.8 71.8 26.1c5-4.4 8.2-10.9 8.2-18.1c0-13.3-10.7-24-24-24H536V80h40c13.3 0 24-10.7 24-24s-10.7-24-24-24H56zM336 240H304c-57.4 0-104 46.6-104 104v88H152V336c0-53-43-96-96-96c-13.3 0-24 10.7-24 24s10.7 24 24 24c26.5 0 48 21.5 48 48V440c0 22.1 17.9 40 40 40h64c22.1 0 40-17.9 40-40V344c0-30.9 25.1-56 56-56h32c24.9 0 45.9 16.2 53.2 38.6c5.5-12.6 14.9-23.2 26.8-30v-19c-19.1-22.9-47.8-37.5-80-37.5zM488 80v64H408V80h80zM360 80v64H280V80h80zM232 80v64H152V80h80zM528 240c17.7 0 32 14.3 32 32v48H496V272c0-17.7 14.3-32 32-32zm-80 32v48c-17.7 0-32 14.3-32 32V480c0 17.7 14.3 32 32 32H608c17.7 0 32-14.3 32-32V352c0-17.7-14.3-32-32-32V272c0-44.2-35.8-80-80-80s-80 35.8-80 80z"/></svg>