<svg xmlns="http://www.w3.org/2000/svg" viewBox="0 0 640 512"><!--! Font Awesome Pro 6.4.0 by @fontawesome - https://fontawesome.com License - https://fontawesome.com/license (Commercial License) Copyright 2023 Fonticons, Inc. --><path d="M149.1 12.5C145 5 137.1 0 128 0c-8.8 0-16.5 4.7-20.7 11.8C94.3 33 80.7 53.9 65.3 71.5c-15.5 17.7-31.7 30.6-49.4 36.9C3.4 113-3.1 126.7 1.4 139.2s18.2 18.9 30.7 14.4c28.2-10.2 50.8-29.4 69.2-50.4c.9-1 1.8-2 2.6-3V240H24c-13.3 0-24 10.7-24 24s10.7 24 24 24H616c13.3 0 24-10.7 24-24s-10.7-24-24-24H536V100.2c.9 1 1.7 2 2.6 3c18.4 21 41 40.3 69.2 50.4c12.5 4.5 26.2-2 30.7-14.4s-2-26.2-14.4-30.7c-17.7-6.4-33.9-19.3-49.4-36.9c-15.4-17.6-29-38.6-42-59.8C528.5 4.7 520.8 0 512 0c-9.1 0-17 5-21.1 12.5C455.8 73.6 390.3 112 320 112s-135.8-38.4-170.9-99.5zM200 240H152V92.8c14.5 13.7 30.7 25.6 48 35.4V240zm96 0H248V149c15.5 4.8 31.6 8.1 48 9.8V240zm96 0H344V158.8c16.4-1.6 32.5-4.9 48-9.8v91zm96 0H440V128.3c17.3-9.8 33.5-21.7 48-35.4V240zM0 360c0 13.3 10.7 24 24 24H40c30.9 0 56 25.1 56 56v24c0 26.5 21.5 48 48 48h49.4c25.7 0 46.6-20.9 46.6-46.6V464c0-44.2 35.8-80 80-80s80 35.8 80 80v1.4c0 25.7 20.9 46.6 46.6 46.6H496c26.5 0 48-21.5 48-48V440c0-30.9 25.1-56 56-56h16c13.3 0 24-10.7 24-24s-10.7-24-24-24H600c-57.4 0-104 46.6-104 104v24H448c0-70.7-57.3-128-128-128s-128 57.3-128 128H144V440c0-57.4-46.6-104-104-104H24c-13.3 0-24 10.7-24 24z"/></svg>