<svg xmlns="http://www.w3.org/2000/svg" viewBox="0 0 640 512"><!--! Font Awesome Pro 6.4.0 by @fontawesome - https://fontawesome.com License - https://fontawesome.com/license (Commercial License) Copyright 2023 Fonticons, Inc. --><path d="M56 32C42.7 32 32 42.7 32 56s10.7 24 24 24h48v64H56c-13.3 0-24 10.7-24 24s10.7 24 24 24h72H256 496h88c13.3 0 24-10.7 24-24s-10.7-24-24-24H536V80h40c13.3 0 24-10.7 24-24s-10.7-24-24-24H56zM339.1 288.1c8-15.7 18.3-30 30.4-42.5C359 241.9 347.8 240 336 240H304c-57.4 0-104 46.6-104 104v88H152V336c0-53-43-96-96-96c-13.3 0-24 10.7-24 24s10.7 24 24 24c26.5 0 48 21.5 48 48V440c0 22.1 17.9 40 40 40h64c22.1 0 40-17.9 40-40V344c0-30.9 25.1-56 56-56h32c1.1 0 2.1 0 3.1 .1zM488 80v64H408V80h80zM360 80v64H280V80h80zM232 80v64H152V80h80zM640 368a144 144 0 1 0 -288 0 144 144 0 1 0 288 0zm-99.3-43.3c6.2-6.2 16.4-6.2 22.6 0s6.2 16.4 0 22.6l-72 72c-6.2 6.2-16.4 6.2-22.6 0l-40-40c-6.2-6.2-6.2-16.4 0-22.6s16.4-6.2 22.6 0L480 385.4l60.7-60.7z"/></svg>