<svg xmlns="http://www.w3.org/2000/svg" viewBox="0 0 448 512"><!--! Font Awesome Pro 6.4.0 by @fontawesome - https://fontawesome.com License - https://fontawesome.com/license (Commercial License) Copyright 2023 Fonticons, Inc. --><path d="M96 152v8H48v-8C48 68.1 116.1 0 200 0h48c83.9 0 152 68.1 152 152v8H352v-8c0-57.4-46.6-104-104-104H200C142.6 48 96 94.6 96 152zM0 216c0-13.3 10.7-24 24-24H72.4 375.6 424c13.3 0 24 10.7 24 24s-10.7 24-24 24h-6L389.3 470c-3 24-23.4 42-47.6 42H106.4c-24.2 0-44.6-18-47.6-42L30 240H24c-13.3 0-24-10.7-24-24zm78.4 24l28 224H341.6l28-224H78.4z"/></svg>