<svg xmlns="http://www.w3.org/2000/svg" viewBox="0 0 512 512"><!--! Font Awesome Pro 6.4.0 by @fontawesome - https://fontawesome.com License - https://fontawesome.com/license (Commercial License) Copyright 2023 Fonticons, Inc. --><path d="M448 48c8.8 0 16 7.2 16 16V448c0 8.8-7.2 16-16 16H288c-8.8 0-16-7.2-16-16V64c0-8.8 7.2-16 16-16H448zM288 0c-35.3 0-64 28.7-64 64V448c0 35.3 28.7 64 64 64H448c35.3 0 64-28.7 64-64V64c0-35.3-28.7-64-64-64H288zM192 128H72c-39.8 0-72 32.2-72 72V440c0 39.8 32.2 72 72 72H216.4c-11.8-13.2-20.1-29.7-23.1-48H72c-13.3 0-24-10.7-24-24V200c0-13.3 10.7-24 24-24H192V128zM112 320c-8.8 0-16 7.2-16 16v32c0 8.8 7.2 16 16 16h32c8.8 0 16-7.2 16-16V336c0-8.8-7.2-16-16-16H112zm224 16c0 8.8 7.2 16 16 16h32c8.8 0 16-7.2 16-16V304c0-8.8-7.2-16-16-16H352c-8.8 0-16 7.2-16 16v32zM112 224c-8.8 0-16 7.2-16 16v32c0 8.8 7.2 16 16 16h32c8.8 0 16-7.2 16-16V240c0-8.8-7.2-16-16-16H112zM336 112v32c0 8.8 7.2 16 16 16h32c8.8 0 16-7.2 16-16V112c0-8.8-7.2-16-16-16H352c-8.8 0-16 7.2-16 16zm16 144h32c8.8 0 16-7.2 16-16V208c0-8.8-7.2-16-16-16H352c-8.8 0-16 7.2-16 16v32c0 8.8 7.2 16 16 16z"/></svg>