<svg xmlns="http://www.w3.org/2000/svg" viewBox="0 0 640 512"><!--! Font Awesome Pro 6.4.0 by @fontawesome - https://fontawesome.com License - https://fontawesome.com/license (Commercial License) Copyright 2023 Fonticons, Inc. --><path d="M464 112V288H416V112H128c-8.8 0-16 7.2-16 16V288H64V128c0-35.3 28.7-64 64-64H416h24 24 48c35.3 0 64 28.7 64 64V288H528V128c0-8.8-7.2-16-16-16H464zM0 344c0-13.3 10.7-24 24-24H616c13.3 0 24 10.7 24 24s-10.7 24-24 24h-8v48c0 17.7-14.3 32-32 32H64c-17.7 0-32-14.3-32-32V368H24c-13.3 0-24-10.7-24-24z"/></svg>