<svg xmlns="http://www.w3.org/2000/svg" viewBox="0 0 512 512"><!--! Font Awesome Pro 6.4.0 by @fontawesome - https://fontawesome.com License - https://fontawesome.com/license (Commercial License) Copyright 2023 Fonticons, Inc. --><path d="M464 304v.2 .4 .4 .4 .4 .4 .4 .4 .4 .4 .4 .4 .4 .4 .4 .4 .4 .4 .4 .4 .4 .4 .4 .4 .4 .4 .4 .4 .4 .4 .4 .4 .4 .4 .4 .4 .4 .4 .4 .4 .4 .4 .4 .4 .4 .4 .4 .4 .4 .4 .4 .4 .4 .4 .4 .4 .4 .4 .4 .4 .4 .4 .4 .4 .4 .4 .4 .4 .4 .4 .4 .4 .4 .4 .3 .3 .3 .3 .3 .3 .3 .3 .3 .3 .3 .3 .3 .3 .3 .3 .3 .3 .3 .3 .3 .3 .3 .3 .3 .3 .3 .3 .3 .3 .3 .3 .3 .3 .3 .3 .3 .3 .3 .3 .3 .3 .3 .3 .3 .3 .3 .3 .3 .3 .3 .3 .3 .3 .3 .3 .3 .3 .3 .3 .3 .3H48V304H464zM48 416V384H464v.2 .2 .2 .2 .2 .2 .2 .2 .2 .2 .2 .2 .2 .2 .2 .2 .2 .2 .2 .2 .2 .2 .2 .2 .2 .2 .2 .2 .2 .2 .2 .2 .2 .2 .2 .2 .2 .2 .2 .2 .2 .2 .2 .2 .2 .2 .2 .2 .2 .2 .2 .2 .2 .2 .2 .2 .2 .2 .2 .2 .2 .2 .2 .2 .2 .2 .2 .2 .2 .2 .2 .2 .2 .2 .2 .2 .2 .2 .2 .2 .2 .2 .2 .2 .2 .2 .2 .2 .2 .2 .2 .2 .2 .2 .2 .2 .2 .2 .2 .2 .2 .2 .2 .2 .2 .2 .2 .2 .2 .2 .2 .2 .2 .2 .2 .2 .2 .2 .2 .2 .2 .2 .2 .2 .2 .2 .2 .2 .2 .2 .2 .2 .2 .2 .2 .2 .2 .2 .2 .2 .2 .2 .2 .2 .2 .2 .2 .2 .2 .2 .2 .2c0 8.8-7.2 16-16 16H64c-8.8 0-16-7.2-16-16zM296 32c-7.2 0-14.2 2.4-19.8 6.9l-264 208C4.5 252.9 0 262.2 0 272V416c0 35.3 28.7 64 64 64H448c35.3 0 64-28.6 64-64v-.2-.2-.2-.2-.2V415v-.2-.2-.2-.2-.2-.2-.2-.2-.2-.2V413v-.2-.2-.2-.2-.2-.2-.2-.2-.2-.2V411v-.2-.2-.2-.2V410v-.2-.2-.2-.2-.2-.2-.2-.2-.2-.2-.2-.2-.2-.2-.2-.2-.2-.2-.2-.2V406v-.2-.2-.2-.2-.2-.2-.2-.2-.2-.2-.2-.2-.2-.2-.2-.2-.2-.2-.2-.2-.2-.2-.2V401v-.2-.2-.2-.2-.2-.2-.2-.2-.2-.2-.2-.2-.2V398v-.2-.2-.2-.2-.2-.2-.2-.2V396v-.2-.2-.2-.2-.2-.2-.2-.2V394v-.2-.2-.2V393v-.2-.2-.2-.2-.2-.2-.2-.2-.2-.2-.2-.2V390v-.2-.2-.2V389v-.2-.2-.2-.2-.2-.2-.2-.2-.2-.2-.2-.2-.2-.2-.2-.2-.2-.2-.2-.2-.3-.2-.3-.3-.3-.3-.3-.3-.3-.3-.3-.3-.3-.3-.3-.3-.3-.3-.3V379v-.3-.3-.3V378v-.3-.3-.3-.3-.3-.3-.3-.3-.3-.3-.3-.3-.3-.3V374v-.3-.3-.3-.3-.3-.3-.3-.3-.3-.3V371v-.3-.3-.3-.3-.3-.3V369v-.3-.3-.3-.3-.3-.3V367v-.3-.3-.3-.3-.3-.3V365v-.3-.3-.3-.3-.3-.3V363v-.3-.3-.3-.3-.3-.3-.3-.3-.3V360v-.3-.3-.3-.3-.3-.3-.3-.3-.3V357v-.3-.3-.3-.3-.3-.3-.3-.3-.3-.3-.3-.3V353v-.3-.3V352v-.3-.3-.3-.3-.3-.3-.3-.3-.3-.3-.3-.3-.3-.3-.3-.3-.3-.3V346v-.3-.3V345v-.3-.3V344v-.3-.3V343v-.3-.3V342v-.3-.3V341v-.3-.3V340v-.3-.3V339v-.3-.3V338v-.3-.3V337v-.3-.3-.3-.3-.3-.3-.3-.3-.3-.3-.3-.3-.3-.3-.3-.3-.4-.4-.4V330v-.4-.4V329v-.4-.4-.4-.4-.4-.4-.4-.4-.4-.4V325v-.4-.4V324v-.4-.4-.4-.4-.4-.4-.4V321v-.4-.4-.4-.4-.4-.4-.4-.4-.4-.4-.4-.4-.4-.4-.4-.4-.4-.4-.4-.4-.4-.4-.4V312v-.4-.4-.4-.4-.4-.4-.4-.4-.4-.4-.4-.4V307v-.4-.4-.4-.4V305v-.4-.4-.4-.4-.4-.4-.4-.4-.4-.4-.4-.4-.4-.4-.4-.4-.4-.4-.4V297v-.4-.4-.4-.4V295v-.4-.4-.4-.4-.4-.4-.4-.4-.4-.4-.4V290v-.4-.4-.4-.4-.4-.4-.4-.4-.4-.4-.4V285v-.4-.4-.4-.4-.4-.4V282v-.4-.4-.4-.4-.4-.4V279v-.4-.4-.4-.4-.4-.4-.4-.4V275v-.4-.4-.4-.4-.4-.4-.4-.4-.4-.4-.4-.4-.4-.4-.4-.4-.5V267v-.5-.5-.5-.5-.5-.5-.5-.5-.5-.5V262v-.5-.5-.5-.5-.5-.5-.5-.5-.5-.5-.5-.5V256c0-74.3-32.8-130.8-76.1-168.2C393.6 51.2 340.3 32 296 32z"/></svg>