<svg xmlns="http://www.w3.org/2000/svg" viewBox="0 0 512 512"><!--! Font Awesome Pro 6.4.0 by @fontawesome - https://fontawesome.com License - https://fontawesome.com/license (Commercial License) Copyright 2023 Fonticons, Inc. --><path d="M184 24c0-13.3-10.7-24-24-24s-24 10.7-24 24V64H96c-35.3 0-64 28.7-64 64v16 48V448c0 35.3 28.7 64 64 64H416c35.3 0 64-28.7 64-64V192 144 128c0-35.3-28.7-64-64-64H376V24c0-13.3-10.7-24-24-24s-24 10.7-24 24V64H184V24zM80 192H432V448c0 8.8-7.2 16-16 16H96c-8.8 0-16-7.2-16-16V192zm48 96a32 32 0 1 0 64 0 32 32 0 1 0 -64 0zm224 64a32 32 0 1 0 0 64 32 32 0 1 0 0-64zM224 288c0 13.3 10.7 24 24 24H360c13.3 0 24-10.7 24-24s-10.7-24-24-24H248c-13.3 0-24 10.7-24 24zm40 72H152c-13.3 0-24 10.7-24 24s10.7 24 24 24H264c13.3 0 24-10.7 24-24s-10.7-24-24-24z"/></svg>