<svg xmlns="http://www.w3.org/2000/svg" viewBox="0 0 512 512"><!--! Font Awesome Pro 6.4.0 by @fontawesome - https://fontawesome.com License - https://fontawesome.com/license (Commercial License) Copyright 2023 Fonticons, Inc. --><path d="M56 0h80c13.3 0 24 10.7 24 24s-10.7 24-24 24H56c-4.4 0-8 3.6-8 8v80c0 13.3-10.7 24-24 24s-24-10.7-24-24V56C0 25.1 25.1 0 56 0zM376 0h80c30.9 0 56 25.1 56 56v80c0 13.3-10.7 24-24 24s-24-10.7-24-24V56c0-4.4-3.6-8-8-8H376c-13.3 0-24-10.7-24-24s10.7-24 24-24zM48 376v80c0 4.4 3.6 8 8 8h80c13.3 0 24 10.7 24 24s-10.7 24-24 24H56c-30.9 0-56-25.1-56-56V376c0-13.3 10.7-24 24-24s24 10.7 24 24zm464 0v80c0 30.9-25.1 56-56 56H376c-13.3 0-24-10.7-24-24s10.7-24 24-24h80c4.4 0 8-3.6 8-8V376c0-13.3 10.7-24 24-24s24 10.7 24 24zM173.8 120.2c6.3-14.7 20.8-24.2 36.8-24.2h90.9c16 0 30.5 9.5 36.8 24.2l3.3 7.8H352c35.3 0 64 28.7 64 64V320c0 35.3-28.7 64-64 64H160c-35.3 0-64-28.7-64-64V192c0-35.3 28.7-64 64-64h10.5l3.3-7.8zm42 23.8l-7.5 17.5c-3.8 8.8-12.5 14.5-22.1 14.5H160c-8.8 0-16 7.2-16 16V320c0 8.8 7.2 16 16 16H352c8.8 0 16-7.2 16-16V192c0-8.8-7.2-16-16-16H325.7c-9.6 0-18.3-5.7-22.1-14.5L296.2 144H215.8zM200 256a56 56 0 1 1 112 0 56 56 0 1 1 -112 0z"/></svg>