<svg xmlns="http://www.w3.org/2000/svg" viewBox="0 0 512 512"><!--! Font Awesome Pro 6.4.0 by @fontawesome - https://fontawesome.com License - https://fontawesome.com/license (Commercial License) Copyright 2023 Fonticons, Inc. --><path d="M199.1 32c-24.1 0-45.5 15.4-53.1 38.3l22.8 7.6-22.8-7.6L137.4 96H64C28.7 96 0 124.7 0 160V416c0 35.3 28.7 64 64 64H448c35.3 0 64-28.7 64-64V160c0-35.3-28.7-64-64-64H374.6l-8.6-25.7C358.4 47.4 337 32 312.9 32H199.1zm-7.6 53.5c1.1-3.3 4.1-5.5 7.6-5.5H312.9c3.4 0 6.5 2.2 7.6 5.5l14 42.1c3.3 9.8 12.4 16.4 22.8 16.4H448c8.8 0 16 7.2 16 16V416c0 8.8-7.2 16-16 16H64c-8.8 0-16-7.2-16-16V160c0-8.8 7.2-16 16-16h90.7c10.3 0 19.5-6.6 22.8-16.4l14-42.1zM256 400a112 112 0 1 0 0-224 112 112 0 1 0 0 224zM192 288a64 64 0 1 1 128 0 64 64 0 1 1 -128 0z"/></svg>