<svg xmlns="http://www.w3.org/2000/svg" viewBox="0 0 576 512"><!--! Font Awesome Pro 6.4.0 by @fontawesome - https://fontawesome.com License - https://fontawesome.com/license (Commercial License) Copyright 2023 Fonticons, Inc. --><path d="M224 120A72 72 0 1 0 80 120a72 72 0 1 0 144 0zM344 240H152C85.7 240 32 186.3 32 120S85.7 0 152 0c39.3 0 74.1 18.8 96 48c21.9-29.1 56.7-48 96-48c66.3 0 120 53.7 120 120s-53.7 120-120 120zM272 120a72 72 0 1 0 144 0 72 72 0 1 0 -144 0zM112 336V448c0 8.8 7.2 16 16 16H352c8.8 0 16-7.2 16-16V336c0-8.8-7.2-16-16-16H144 128c-8.8 0-16 7.2-16 16zm32-64H352c35.3 0 64 28.7 64 64V448c0 35.3-28.7 64-64 64H128c-35.3 0-64-28.7-64-64V336c0-5.5 .7-10.9 2-16H24c-13.3 0-24-10.7-24-24s10.7-24 24-24H128h16zm384 36.6l-80 36V292l75.6-34c2.9-1.3 6-2.2 9.1-2.8c22.6-3.8 43.3 13.7 43.3 36.6V472.5c0 21.8-17.7 39.5-39.5 39.5c-5.6 0-11.1-1.2-16.2-3.5L448 476V423.4l80 36V308.6z"/></svg>