<svg xmlns="http://www.w3.org/2000/svg" viewBox="0 0 640 512"><!--! Font Awesome Pro 6.4.0 by @fontawesome - https://fontawesome.com License - https://fontawesome.com/license (Commercial License) Copyright 2023 Fonticons, Inc. --><path d="M64.5 80H192 321.4C302.1 65.3 263.5 48 192 48C126.6 48 86.2 64.8 64.5 80zM48 128v80H168V128H48zm0 128v96c0 13.3 10.7 24 24 24H192v48H80v32c0 13.3-10.7 24-24 24s-24-10.7-24-24V411.9C12.7 399 0 377 0 352V118.2c0-22 4.6-51.9 28.8-71.4C58.6 22.7 111.5 0 192 0c84.9 0 135.8 22.1 164.5 46.6c23.4 20 27.5 49.9 27.5 71.6V128H348.2c-4.1 0-8.2 .3-12.2 .8V128H216v80h36.9l-13.7 48H192 48zm56 32a24 24 0 1 1 0 48 24 24 0 1 1 0-48zm257.8-80c-10.1 0-19.2 6.4-22.6 15.9L322.1 272H541.9l-17.2-48.1c-3.4-9.6-12.5-15.9-22.6-15.9H361.8zm-96.4 79.9L294 207.8c10.2-28.7 37.4-47.8 67.8-47.8H502.2c30.4 0 57.6 19.1 67.8 47.8l28.6 80.1c.2 .5 .3 .9 .5 1.4C623.8 306.7 640 335.5 640 368v32 16 32 40c0 13.3-10.7 24-24 24s-24-10.7-24-24V448H272v40c0 13.3-10.7 24-24 24s-24-10.7-24-24V448 416 400 368c0-32.5 16.2-61.3 40.9-78.7c.1-.5 .3-.9 .5-1.4zM544 320H320c-26.5 0-48 21.5-48 48v32H592V368c0-26.5-21.5-48-48-48zM336 336a24 24 0 1 1 0 48 24 24 0 1 1 0-48zm168 24a24 24 0 1 1 48 0 24 24 0 1 1 -48 0z"/></svg>