<svg xmlns="http://www.w3.org/2000/svg" viewBox="0 0 640 512"><!--! Font Awesome Pro 6.4.0 by @fontawesome - https://fontawesome.com License - https://fontawesome.com/license (Commercial License) Copyright 2023 Fonticons, Inc. --><path d="M288 48H64c-8.8 0-16 7.2-16 16V416c0 8.8 7.2 16 16 16H192v48H64c-35.3 0-64-28.7-64-64V64C0 28.7 28.7 0 64 0H288c35.3 0 64 28.7 64 64v64.5c-17.5 1.7-33.9 7.7-48 17.1V64c0-8.8-7.2-16-16-16zM256 219.1l-13.1 36.6c-.9 .2-1.9 .3-2.9 .3H208c-8.8 0-16-7.2-16-16V208c0-8.8 7.2-16 16-16h32c8.8 0 16 7.2 16 16v11.1zM96 112c0-8.8 7.2-16 16-16h32c8.8 0 16 7.2 16 16v32c0 8.8-7.2 16-16 16H112c-8.8 0-16-7.2-16-16V112zM208 96h32c8.8 0 16 7.2 16 16v32c0 8.8-7.2 16-16 16H208c-8.8 0-16-7.2-16-16V112c0-8.8 7.2-16 16-16zM96 208c0-8.8 7.2-16 16-16h32c8.8 0 16 7.2 16 16v32c0 8.8-7.2 16-16 16H112c-8.8 0-16-7.2-16-16V208zm0 96c0-8.8 7.2-16 16-16h32c8.8 0 16 7.2 16 16v32c0 8.8-7.2 16-16 16H112c-8.8 0-16-7.2-16-16V304zm265.8-96c-10.1 0-19.2 6.4-22.6 15.9L322.1 272H541.9l-17.2-48.1c-3.4-9.6-12.5-15.9-22.6-15.9H361.8zm-96.4 79.9L294 207.8c10.2-28.7 37.4-47.8 67.8-47.8H502.2c30.4 0 57.6 19.1 67.8 47.8l28.6 80.1c.2 .5 .3 .9 .5 1.4C623.8 306.7 640 335.5 640 368v32 16 32 40c0 13.3-10.7 24-24 24s-24-10.7-24-24V448H272v40c0 13.3-10.7 24-24 24s-24-10.7-24-24V448 416 400 368c0-32.5 16.2-61.3 40.9-78.7c.1-.5 .3-.9 .5-1.4zM544 320H320c-26.5 0-48 21.5-48 48v32H592V368c0-26.5-21.5-48-48-48zM336 336a24 24 0 1 1 0 48 24 24 0 1 1 0-48zm168 24a24 24 0 1 1 48 0 24 24 0 1 1 -48 0z"/></svg>