<svg xmlns="http://www.w3.org/2000/svg" viewBox="0 0 640 512"><!--! Font Awesome Pro 6.4.0 by @fontawesome - https://fontawesome.com License - https://fontawesome.com/license (Commercial License) Copyright 2023 Fonticons, Inc. --><path d="M134.2 105.1L99.4 192H128v48H64c-8.8 0-16 7.2-16 16v96H69.5c13.2-37.3 48.7-64 90.5-64s77.4 26.7 90.5 64H389.5c13.2-37.3 48.7-64 90.5-64s77.4 26.7 90.5 64H592V320c0-44.2-35.8-80-80-80H416V192h46.1L384.5 95c-7.6-9.5-19.1-15-31.2-15H171.3c-16.4 0-31.1 10-37.1 25.1zM46.8 194.3l42.8-107C103 53.9 135.3 32 171.3 32H353.2c26.7 0 52 12.2 68.7 33L524 192.6c65.1 6 116 60.8 116 127.4v48c0 17.7-14.3 32-32 32H574.7c-7.6 45.4-47.1 80-94.7 80s-87.1-34.6-94.7-80H254.7c-7.6 45.4-47.1 80-94.7 80s-87.1-34.6-94.7-80H32c-17.7 0-32-14.3-32-32V256c0-29.4 19.8-54.2 46.8-61.7zM434.7 400a48 48 0 1 0 90.5-32 48 48 0 1 0 -90.5 32zM208 384a48 48 0 1 0 -96 0 48 48 0 1 0 96 0zM331.2 100.6c5.3 5.2 6.3 13.3 2.5 19.6L300.3 176H352c7.1 0 13.4 4.7 15.4 11.6s-.8 14.2-6.9 18l-128 80c-6.3 3.9-14.4 3-19.7-2.2s-6.3-13.3-2.5-19.6L243.7 208H192c-7.1 0-13.4-4.7-15.4-11.6s.8-14.2 6.9-18l128-80c6.3-3.9 14.4-3 19.7 2.2z"/></svg>