<svg xmlns="http://www.w3.org/2000/svg" viewBox="0 0 512 512"><!--! Font Awesome Pro 6.4.0 by @fontawesome - https://fontawesome.com License - https://fontawesome.com/license (Commercial License) Copyright 2023 Fonticons, Inc. --><path d="M165.4 80H346.6c17 0 32.1 10.7 37.8 26.8L408.6 176H103.4l24.2-69.2c5.6-16 20.8-26.8 37.8-26.8zM82.3 90.9L48.1 188.8C19.3 205.4 0 236.4 0 272v64c0 23.7 12.9 44.4 32 55.4V456c0 13.3 10.7 24 24 24s24-10.7 24-24V400H432v56c0 13.3 10.7 24 24 24s24-10.7 24-24V391.4c19.1-11.1 32-31.7 32-55.4V272c0-35.6-19.4-66.6-48.1-83.2L429.7 90.9C417.3 55.6 384 32 346.6 32H165.4C128 32 94.7 55.6 82.3 90.9zM96 224H416c20.9 0 38.7 13.4 45.3 32H408c-13.3 0-24 10.7-24 24s10.7 24 24 24h56v32c0 8.8-7.2 16-16 16H320V320c0-17.7-14.3-32-32-32H224c-17.7 0-32 14.3-32 32v32H64c-8.8 0-16-7.2-16-16V304h56c13.3 0 24-10.7 24-24s-10.7-24-24-24H50.7c6.6-18.6 24.4-32 45.3-32z"/></svg>