<svg xmlns="http://www.w3.org/2000/svg" viewBox="0 0 512 512"><!--! Font Awesome Pro 6.4.0 by @fontawesome - https://fontawesome.com License - https://fontawesome.com/license (Commercial License) Copyright 2023 Fonticons, Inc. --><path d="M80 96c0-17.7 14.3-32 32-32h64c17.7 0 32 14.3 32 32l96 0c0-17.7 14.3-32 32-32h64c17.7 0 32 14.3 32 32h16c35.3 0 64 28.7 64 64V384c0 35.3-28.7 64-64 64H64c-35.3 0-64-28.7-64-64V160c0-35.3 28.7-64 64-64l16 0zM64 144c-8.8 0-16 7.2-16 16V384c0 8.8 7.2 16 16 16H448c8.8 0 16-7.2 16-16V160c0-8.8-7.2-16-16-16H64zm304 32c8.8 0 16 7.2 16 16v32h32c8.8 0 16 7.2 16 16s-7.2 16-16 16H384v32c0 8.8-7.2 16-16 16s-16-7.2-16-16V256H320c-8.8 0-16-7.2-16-16s7.2-16 16-16h32V192c0-8.8 7.2-16 16-16zM96 224h96c8.8 0 16 7.2 16 16s-7.2 16-16 16H96c-8.8 0-16-7.2-16-16s7.2-16 16-16z"/></svg>