<svg xmlns="http://www.w3.org/2000/svg" viewBox="0 0 576 512"><!--! Font Awesome Pro 6.4.0 by @fontawesome - https://fontawesome.com License - https://fontawesome.com/license (Commercial License) Copyright 2023 Fonticons, Inc. --><path d="M197.4 80c-17 0-32.1 10.7-37.8 26.8L135.4 176H440.6l-24.2-69.2c-5.6-16-20.8-26.8-37.8-26.8H197.4zM44.8 224H40c-13.3 0-24-10.7-24-24s10.7-24 24-24H84.6l29.8-85.1C126.7 55.6 160 32 197.4 32H378.6c37.4 0 70.7 23.6 83.1 58.9L491.4 176H536c13.3 0 24 10.7 24 24s-10.7 24-24 24h-4.8c8.2 14.1 12.8 30.5 12.8 48v80 48 56c0 13.3-10.7 24-24 24s-24-10.7-24-24V400H80v56c0 13.3-10.7 24-24 24s-24-10.7-24-24V400 352 272c0-17.5 4.7-33.9 12.8-48zm83.2 0c-26.5 0-48 21.5-48 48v80H496V272c0-26.5-21.5-48-48-48H128zm-16 64a32 32 0 1 1 64 0 32 32 0 1 1 -64 0zm320-32a32 32 0 1 1 0 64 32 32 0 1 1 0-64z"/></svg>