<svg xmlns="http://www.w3.org/2000/svg" viewBox="0 0 640 512"><!--! Font Awesome Pro 6.4.0 by @fontawesome - https://fontawesome.com License - https://fontawesome.com/license (Commercial License) Copyright 2023 Fonticons, Inc. --><path d="M80 80c-17.7 0-32 14.3-32 32V336c0 17.7 14.3 32 32 32h28.8c16.6-28.7 47.6-48 83.2-48s66.6 19.3 83.2 48H528V192c0-61.9-50.1-112-112-112H80zM96 416H80c-44.2 0-80-35.8-80-80V112C0 67.8 35.8 32 80 32H416c88.4 0 160 71.6 160 160V368l40 0c13.3 0 24 10.7 24 24s-10.7 24-24 24l-40 0H528 288c0 53-43 96-96 96s-96-43-96-96zm0-256c0-17.7 14.3-32 32-32H256c17.7 0 32 14.3 32 32v64c0 17.7-14.3 32-32 32H128c-17.7 0-32-14.3-32-32V160zm256-32h64c17.7 0 32 14.3 32 32v64c0 17.7-14.3 32-32 32H352c-17.7 0-32-14.3-32-32V160c0-17.7 14.3-32 32-32zM240 416a48 48 0 1 0 -96 0 48 48 0 1 0 96 0z"/></svg>