<svg xmlns="http://www.w3.org/2000/svg" viewBox="0 0 640 512"><!--! Font Awesome Pro 6.4.0 by @fontawesome - https://fontawesome.com License - https://fontawesome.com/license (Commercial License) Copyright 2023 Fonticons, Inc. --><path d="M0 24C0 10.7 10.7 0 24 0H72c30.9 0 56 25.1 56 56V408c0 4.4 3.6 8 8 8h72H496 616c13.3 0 24 10.7 24 24s-10.7 24-24 24H544c0 26.5-21.5 48-48 48s-48-21.5-48-48H256c0 26.5-21.5 48-48 48s-48-21.5-48-48H136c-30.9 0-56-25.1-56-56V56c0-4.4-3.6-8-8-8H24C10.7 48 0 37.3 0 24z"/></svg>