<svg xmlns="http://www.w3.org/2000/svg" viewBox="0 0 640 512"><!--! Font Awesome Pro 6.4.0 by @fontawesome - https://fontawesome.com License - https://fontawesome.com/license (Commercial License) Copyright 2023 Fonticons, Inc. --><path d="M24 0C10.7 0 0 10.7 0 24S10.7 48 24 48H72c4.4 0 8 3.6 8 8V408c0 30.9 25.1 56 56 56h24c0 26.5 21.5 48 48 48s48-21.5 48-48H448c0 26.5 21.5 48 48 48s48-21.5 48-48h72c13.3 0 24-10.7 24-24s-10.7-24-24-24H496 208 136c-4.4 0-8-3.6-8-8V56c0-30.9-25.1-56-56-56H24zM240 80H368V304H240l0-224zm-48 0V304c0 26.5 21.5 48 48 48H368c26.5 0 48-21.5 48-48V80c0-26.5-21.5-48-48-48H240c-26.5 0-48 21.5-48 48zm368 0v64H496V80h64zM496 32c-26.5 0-48 21.5-48 48v64c0 26.5 21.5 48 48 48h64c26.5 0 48-21.5 48-48V80c0-26.5-21.5-48-48-48H496zm0 240h96v32H496V272zm-48 0v32c0 26.5 21.5 48 48 48h96c26.5 0 48-21.5 48-48V272c0-26.5-21.5-48-48-48H496c-26.5 0-48 21.5-48 48z"/></svg>