<svg xmlns="http://www.w3.org/2000/svg" viewBox="0 0 640 512"><!--! Font Awesome Pro 6.4.0 by @fontawesome - https://fontawesome.com License - https://fontawesome.com/license (Commercial License) Copyright 2023 Fonticons, Inc. --><path d="M64 24C64 10.7 74.7 0 88 0h45.5c22 0 41.5 12.8 50.6 32h411c26.3 0 45.5 25 38.6 50.4l-41 152.3c-8.5 31.4-37 53.3-69.5 53.3H234.7l5.4 28.5c2.2 11.3 12.1 19.5 23.6 19.5H552c13.3 0 24 10.7 24 24s-10.7 24-24 24H263.7c-34.6 0-64.3-24.6-70.7-58.5l-51.6-271c-.7-3.8-4-6.5-7.9-6.5H88C74.7 48 64 37.3 64 24zM225.6 240H523.2c10.9 0 20.4-7.3 23.2-17.8L584.7 80H195.1l30.5 160zM192 464a48 48 0 1 1 96 0 48 48 0 1 1 -96 0zm336-48a48 48 0 1 1 0 96 48 48 0 1 1 0-96zM24 96h80c13.3 0 24 10.7 24 24s-10.7 24-24 24H24c-13.3 0-24-10.7-24-24s10.7-24 24-24zm0 80h96c13.3 0 24 10.7 24 24s-10.7 24-24 24H24c-13.3 0-24-10.7-24-24s10.7-24 24-24zm0 80H136c13.3 0 24 10.7 24 24s-10.7 24-24 24H24c-13.3 0-24-10.7-24-24s10.7-24 24-24z"/></svg>