<svg xmlns="http://www.w3.org/2000/svg" viewBox="0 0 640 512"><!--! Font Awesome Pro 6.4.0 by @fontawesome - https://fontawesome.com License - https://fontawesome.com/license (Commercial License) Copyright 2023 Fonticons, Inc. --><path d="M24 0C10.7 0 0 10.7 0 24S10.7 48 24 48H72c4.4 0 8 3.6 8 8V408c0 30.9 25.1 56 56 56h24c0 26.5 21.5 48 48 48s48-21.5 48-48H448c0 26.5 21.5 48 48 48s48-21.5 48-48h72c13.3 0 24-10.7 24-24s-10.7-24-24-24H496 208 136c-4.4 0-8-3.6-8-8V56c0-30.9-25.1-56-56-56H24zM240 80h96v96c0 5.9 3.2 11.3 8.5 14.1s11.5 2.5 16.4-.8L400 163.2l39.1 26.1c4.9 3.3 11.2 3.6 16.4 .8s8.5-8.2 8.5-14.1V80h96V304H240V80zm-48 0V304c0 26.5 21.5 48 48 48H560c26.5 0 48-21.5 48-48V80c0-26.5-21.5-48-48-48H240c-26.5 0-48 21.5-48 48z"/></svg>