<svg xmlns="http://www.w3.org/2000/svg" viewBox="0 0 576 512"><!-- Font Awesome Pro 6.0.0-alpha2 by @fontawesome - https://fontawesome.com License - https://fontawesome.com/license (Commercial License) --><path d="M352 384H464C481.625 384 496 369.625 496 352V240C496 222.375 481.625 208 464 208H352C334.375 208 320 222.375 320 240V352C320 369.625 334.375 384 352 384ZM368 256H448V336H368V256ZM512 32H64C28.654 32 0 60.654 0 96V416C0 451.346 28.654 480 64 480H512C547.348 480 576 451.346 576 416V96C576 60.654 547.348 32 512 32ZM528 416C528 424.822 520.822 432 512 432H64C55.178 432 48 424.822 48 416V160H528V416ZM184 400C241.438 400 288 353.438 288 296S241.438 192 184 192S80 238.562 80 296S126.562 400 184 400ZM184 240C214.879 240 240 265.121 240 296S214.879 352 184 352S128 326.879 128 296S153.121 240 184 240ZM184 320C197.256 320 208 309.254 208 296C208 282.744 197.256 272 184 272C170.746 272 160 282.744 160 296C160 309.254 170.746 320 184 320Z"/></svg>