<svg xmlns="http://www.w3.org/2000/svg" viewBox="0 0 640 512"><!--! Font Awesome Pro 6.4.0 by @fontawesome - https://fontawesome.com License - https://fontawesome.com/license (Commercial License) Copyright 2023 Fonticons, Inc. --><path d="M176 24c0-13.3-10.7-24-24-24s-24 10.7-24 24V224H48V184c0-13.3-10.7-24-24-24s-24 10.7-24 24V440c0 39.8 32.2 72 72 72H568c39.8 0 72-32.2 72-72V184c0-13.3-10.7-24-24-24s-24 10.7-24 24v40H512V24c0-13.3-10.7-24-24-24s-24 10.7-24 24V64H400V24c0-13.3-10.7-24-24-24s-24 10.7-24 24V64H288V24c0-13.3-10.7-24-24-24s-24 10.7-24 24V64H176V24zm0 88H464V224H176V112zM48 272H592V440c0 13.3-10.7 24-24 24H384V384c0-35.3-28.7-64-64-64s-64 28.7-64 64v80H72c-13.3 0-24-10.7-24-24V272z"/></svg>