<svg xmlns="http://www.w3.org/2000/svg" viewBox="0 0 448 512"><!--! Font Awesome Pro 6.4.0 by @fontawesome - https://fontawesome.com License - https://fontawesome.com/license (Commercial License) Copyright 2023 Fonticons, Inc. --><path d="M248 48H200V224H152V58.7c-23.9 13.8-40 39.7-40 69.3v96H64V128C64 57.3 121.3 0 192 0h64c70.7 0 128 57.3 128 128v96H336V128c0-29.6-16.1-55.5-40-69.3V224H248V48zM67.1 304l-18 48H398.9l-18-48H67.1zM22.1 287.1c7-18.7 24.9-31.1 44.9-31.1H380.9c20 0 37.9 12.4 44.9 31.1l19.2 51.3c1.9 5.1 2.9 10.5 2.9 16c0 20.4-13.5 37.7-32 43.5v90c0 13.3-10.7 24-24 24s-24-10.7-24-24V400H80v88c0 13.3-10.7 24-24 24s-24-10.7-24-24V398c-18.5-5.8-32-23.1-32-43.5c0-5.5 1-10.9 2.9-16l19.2-51.3z"/></svg>