<svg xmlns="http://www.w3.org/2000/svg" viewBox="0 0 576 512"><!--! Font Awesome Pro 6.4.0 by @fontawesome - https://fontawesome.com License - https://fontawesome.com/license (Commercial License) Copyright 2023 Fonticons, Inc. --><path d="M80 88c0-4.4 3.6-8 8-8H488c4.4 0 8 3.6 8 8V400h48V88c0-30.9-25.1-56-56-56H88C57.1 32 32 57.1 32 88V400H80V88zM224 408v24H24c-13.3 0-24 10.7-24 24s10.7 24 24 24H224h24H392h24H552c13.3 0 24-10.7 24-24s-10.7-24-24-24H416V408c0-30.9-25.1-56-56-56H280c-30.9 0-56 25.1-56 56zm144 0v24H272V408c0-4.4 3.6-8 8-8h80c4.4 0 8 3.6 8 8z"/></svg>