<svg xmlns="http://www.w3.org/2000/svg" viewBox="0 0 320 512"><!--! Font Awesome Pro 6.4.0 by @fontawesome - https://fontawesome.com License - https://fontawesome.com/license (Commercial License) Copyright 2023 Fonticons, Inc. --><path d="M80 0C68.1 0 58 8.7 56.3 20.5L29.7 201C19.1 272.5 67.8 337.3 136 349.8V464H72c-13.3 0-24 10.7-24 24s10.7 24 24 24h88 88c13.3 0 24-10.7 24-24s-10.7-24-24-24H184V349.8c64.4-12.2 110.8-72.8 102.6-140.6l-22.8-188C262.4 9.1 252.1 0 240 0H80zm8.9 128l11.8-80h118l9.7 80H88.9zm-7.1 48H234.2l4.7 38.9c5.7 47.4-31.2 89.1-78.9 89.1c-51.1 0-90.3-45.4-82.9-96l4.7-32z"/></svg>