<svg xmlns="http://www.w3.org/2000/svg" viewBox="0 0 512 512"><!--! Font Awesome Pro 6.4.0 by @fontawesome - https://fontawesome.com License - https://fontawesome.com/license (Commercial License) Copyright 2023 Fonticons, Inc. --><path d="M48 56c0-13.3-10.7-24-24-24S0 42.7 0 56V408c0 39.8 32.2 72 72 72H488c13.3 0 24-10.7 24-24s-10.7-24-24-24H72c-13.3 0-24-10.7-24-24V56zm272-8c0-8.8-7.2-16-16-16s-16 7.2-16 16V96c-17.7 0-32 14.3-32 32v96c0 17.7 14.3 32 32 32v48c0 8.8 7.2 16 16 16s16-7.2 16-16V256c17.7 0 32-14.3 32-32V128c0-17.7-14.3-32-32-32V48zm64 176v64c0 17.7 14.3 32 32 32v48c0 8.8 7.2 16 16 16s16-7.2 16-16V320c17.7 0 32-14.3 32-32V224c0-17.7-14.3-32-32-32V144c0-8.8-7.2-16-16-16s-16 7.2-16 16v48c-17.7 0-32 14.3-32 32zM160 128c-17.7 0-32 14.3-32 32V288c0 17.7 14.3 32 32 32v48c0 8.8 7.2 16 16 16s16-7.2 16-16V320c17.7 0 32-14.3 32-32V160c0-17.7-14.3-32-32-32V80c0-8.8-7.2-16-16-16s-16 7.2-16 16v48z"/></svg>