<svg xmlns="http://www.w3.org/2000/svg" viewBox="0 0 512 512"><!--! Font Awesome Pro 6.4.0 by @fontawesome - https://fontawesome.com License - https://fontawesome.com/license (Commercial License) Copyright 2023 Fonticons, Inc. --><path d="M176 80V192H48L48 80H176zM48 32C21.5 32 0 53.5 0 80V192c0 26.5 21.5 48 48 48H176c26.5 0 48-21.5 48-48V80c0-26.5-21.5-48-48-48H48zM176 320V432H48l0-112H176zM48 272c-26.5 0-48 21.5-48 48V432c0 26.5 21.5 48 48 48H176c26.5 0 48-21.5 48-48V320c0-26.5-21.5-48-48-48H48zM304 80H464v32H304V80zm-48 0v32c0 26.5 21.5 48 48 48H464c26.5 0 48-21.5 48-48V80c0-26.5-21.5-48-48-48H304c-26.5 0-48 21.5-48 48zM464 240v32H304V240H464zM304 192c-26.5 0-48 21.5-48 48v32c0 26.5 21.5 48 48 48H464c26.5 0 48-21.5 48-48V240c0-26.5-21.5-48-48-48H304zm0 208H464v32H304V400zm-48 0v32c0 26.5 21.5 48 48 48H464c26.5 0 48-21.5 48-48V400c0-26.5-21.5-48-48-48H304c-26.5 0-48 21.5-48 48z"/></svg>