<svg xmlns="http://www.w3.org/2000/svg" viewBox="0 0 512 512"><!--! Font Awesome Pro 6.4.0 by @fontawesome - https://fontawesome.com License - https://fontawesome.com/license (Commercial License) Copyright 2023 Fonticons, Inc. --><path d="M503.6 74.2c10.1-8.6 11.2-23.8 2.6-33.8s-23.8-11.2-33.8-2.6L320.2 168.3 207.8 69.9c-8.2-7.1-20.1-7.9-29.1-1.9L10.7 180c-11 7.4-14 22.3-6.7 33.3s22.3 14 33.3 6.7L190 118.2l114.2 99.9c9 7.9 22.4 7.9 31.4 .2l168-144zM200 432c0 4.4-3.6 8-8 8s-8-3.6-8-8V272c0-4.4 3.6-8 8-8s8 3.6 8 8V432zm-8-208c-26.5 0-48 21.5-48 48V432c0 26.5 21.5 48 48 48s48-21.5 48-48V272c0-26.5-21.5-48-48-48zM72 432c0 4.4-3.6 8-8 8s-8-3.6-8-8V368c0-4.4 3.6-8 8-8s8 3.6 8 8v64zM64 320c-26.5 0-48 21.5-48 48v64c0 26.5 21.5 48 48 48s48-21.5 48-48V368c0-26.5-21.5-48-48-48zm264 16v96c0 4.4-3.6 8-8 8s-8-3.6-8-8V336c0-4.4 3.6-8 8-8s8 3.6 8 8zm-56 0v96c0 26.5 21.5 48 48 48s48-21.5 48-48V336c0-26.5-21.5-48-48-48s-48 21.5-48 48zm184 96c0 4.4-3.6 8-8 8s-8-3.6-8-8V272c0-4.4 3.6-8 8-8s8 3.6 8 8V432zm-8-208c-26.5 0-48 21.5-48 48V432c0 26.5 21.5 48 48 48s48-21.5 48-48V272c0-26.5-21.5-48-48-48z"/></svg>