<svg xmlns="http://www.w3.org/2000/svg" viewBox="0 0 512 512"><!--! Font Awesome Pro 6.4.0 by @fontawesome - https://fontawesome.com License - https://fontawesome.com/license (Commercial License) Copyright 2023 Fonticons, Inc. --><path d="M464 240.2V256H48c0-3.9 2-7.6 5.3-9.8L301.5 80.7c.7-.4 1.5-.7 2.3-.7C392.3 80 464 151.7 464 240.2zM48 304H464V416c0 8.8-7.2 16-16 16H64c-8.8 0-16-7.2-16-16V304zm464-48V240.2C512 125.2 418.8 32 303.8 32c-10.3 0-20.3 3-28.9 8.7L26.6 206.2C10 217.3 0 236 0 256V416c0 35.3 28.7 64 64 64H448c35.3 0 64-28.7 64-64V256z"/></svg>