<svg xmlns="http://www.w3.org/2000/svg" viewBox="0 0 640 512"><!--! Font Awesome Pro 6.4.0 by @fontawesome - https://fontawesome.com License - https://fontawesome.com/license (Commercial License) Copyright 2023 Fonticons, Inc. --><path d="M384 56c0-13.3 10.7-24 24-24H520c13.3 0 24 10.7 24 24s-10.7 24-24 24H488v32h88c35.3 0 64 28.7 64 64V416c0 35.3-28.7 64-64 64H64c-35.3 0-64-28.7-64-64V176c0-35.3 28.7-64 64-64H96V96c0-8.8 7.2-16 16-16H240c8.8 0 16 7.2 16 16v16H440V80H408c-13.3 0-24-10.7-24-24zM64 160c-8.8 0-16 7.2-16 16V416c0 8.8 7.2 16 16 16H576c8.8 0 16-7.2 16-16V176c0-8.8-7.2-16-16-16H64zm376 32a104 104 0 1 1 0 208 104 104 0 1 1 0-208zm16 48c0-8.8-7.2-16-16-16s-16 7.2-16 16v48c0 8.8 7.2 16 16 16s16-7.2 16-16V240zM126.5 222.5A104 104 0 1 1 273.5 369.5 104 104 0 1 1 126.5 222.5zm124.5 22.6c-6.2-6.2-16.4-6.2-22.6 0L194.3 279c-6.2 6.2-6.2 16.4 0 22.6s16.4 6.2 22.6 0l33.9-33.9c6.2-6.2 6.2-16.4 0-22.6z"/></svg>