<svg xmlns="http://www.w3.org/2000/svg" viewBox="0 0 512 512"><!--! Font Awesome Pro 6.4.0 by @fontawesome - https://fontawesome.com License - https://fontawesome.com/license (Commercial License) Copyright 2023 Fonticons, Inc. --><path d="M128 0c8.8 0 16 7.2 16 16V32h16c8.8 0 16 7.2 16 16s-7.2 16-16 16H144V96h45.1c23.7 0 42.9 19.2 42.9 42.9c0 4.7-.8 9.4-2.3 13.8l-19.6 57.5c8.2 3.8 13.9 12.1 13.9 21.8c0 11.6-8.2 21.3-19.2 23.5l2.1 96.5h-48l-2.1-96H99.2l-2.1 96h-48l2.1-96.5C40.2 253.3 32 243.6 32 232c0-9.6 5.7-17.9 13.9-21.8L26.3 152.8c-1.5-4.5-2.3-9.1-2.3-13.8C24 115.2 43.2 96 66.9 96H112V64H96c-8.8 0-16-7.2-16-16s7.2-16 16-16h16V16c0-8.8 7.2-16 16-16zm54 144H74l21.8 64h64.4L182 144zM52.7 464H203.3l-16.6-32H69.2L52.7 464zm143.9-80c12 0 22.9 6.7 28.4 17.3l26.5 51.2c3 5.8 4.6 12.2 4.6 18.7c0 22.5-18.2 40.8-40.8 40.8H40.8C18.2 512 0 493.8 0 471.2c0-6.5 1.6-12.9 4.6-18.7l26.5-51.2C36.5 390.7 47.5 384 59.5 384h137zM280 160H488c13.3 0 24 10.7 24 24v72c0 5-1.6 9.9-4.5 13.9L472 319.7V352H424V312c0-5 1.6-9.9 4.5-13.9L464 248.3V208H432v16c0 8.8-7.2 16-16 16s-16-7.2-16-16V208H368v16c0 8.8-7.2 16-16 16s-16-7.2-16-16V208H304v40.3l35.5 49.7c2.9 4.1 4.5 8.9 4.5 13.9v40H296V319.7l-35.5-49.7c-2.9-4.1-4.5-8.9-4.5-13.9V184c0-13.3 10.7-24 24-24zM475.6 396.3L507 452.9c3.3 5.9 5 12.6 5 19.3c0 22-17.8 39.8-39.8 39.8H295.8c-22 0-39.8-17.8-39.8-39.8c0-6.8 1.7-13.4 5-19.3l31.4-56.6c4.2-7.6 12.3-12.3 21-12.3H454.6c8.7 0 16.7 4.7 21 12.3zM327.5 432l-17.8 32H458.2l-17.8-32H327.5z"/></svg>