<svg xmlns="http://www.w3.org/2000/svg" viewBox="0 0 448 512"><!--! Font Awesome Pro 6.4.0 by @fontawesome - https://fontawesome.com License - https://fontawesome.com/license (Commercial License) Copyright 2023 Fonticons, Inc. --><path d="M48 176H400V80H48v96zM0 64C0 46.3 14.3 32 32 32H416c17.7 0 32 14.3 32 32V192c0 17.7-14.3 32-32 32V360 464c0 13.3-10.7 24-24 24s-24-10.7-24-24V384H288v80c0 13.3-10.7 24-24 24s-24-10.7-24-24V384H184 80v80c0 13.3-10.7 24-24 24s-24-10.7-24-24V360l0-136c-17.7 0-32-14.3-32-32V64zM80 224V336h80V224H80zm128 0V336h56H368V224H208z"/></svg>