<svg xmlns="http://www.w3.org/2000/svg" viewBox="0 0 512 512"><!--! Font Awesome Pro 6.4.0 by @fontawesome - https://fontawesome.com License - https://fontawesome.com/license (Commercial License) Copyright 2023 Fonticons, Inc. --><path d="M464 256A208 208 0 1 0 48 256a208 208 0 1 0 416 0zM0 256a256 256 0 1 1 512 0A256 256 0 1 1 0 256zm216 16h64c26.5 0 48-21.5 48-48s-21.5-48-48-48H216v96zm64 48H216v40c0 13.3-10.7 24-24 24s-24-10.7-24-24V296 160c0-17.7 14.3-32 32-32h80c53 0 96 43 96 96s-43 96-96 96z"/></svg>