<svg xmlns="http://www.w3.org/2000/svg" viewBox="0 0 512 512"><!--! Font Awesome Pro 6.4.0 by @fontawesome - https://fontawesome.com License - https://fontawesome.com/license (Commercial License) Copyright 2023 Fonticons, Inc. --><path d="M256 48a208 208 0 1 1 0 416 208 208 0 1 1 0-416zm0 464A256 256 0 1 0 256 0a256 256 0 1 0 0 512zM184 128c-13.3 0-24 10.7-24 24V288v72c0 13.3 10.7 24 24 24s24-10.7 24-24V312h68c50.8 0 92-41.2 92-92s-41.2-92-92-92H184zm92 136H208V176h68c24.3 0 44 19.7 44 44s-19.7 44-44 44z"/></svg>