<svg xmlns="http://www.w3.org/2000/svg" viewBox="0 0 512 512"><!--! Font Awesome Pro 6.4.0 by @fontawesome - https://fontawesome.com License - https://fontawesome.com/license (Commercial License) Copyright 2023 Fonticons, Inc. --><path d="M256 48a208 208 0 1 1 0 416 208 208 0 1 1 0-416zm0 464A256 256 0 1 0 256 0a256 256 0 1 0 0 512zM160 176V368c0 6.2 3.5 11.8 9.1 14.4s12.1 1.9 16.9-1.9l70-56 70 56c4.8 3.8 11.4 4.6 16.9 1.9s9.1-8.3 9.1-14.4V176c0-26.5-21.5-48-48-48H208c-26.5 0-48 21.5-48 48z"/></svg>