<svg xmlns="http://www.w3.org/2000/svg" viewBox="0 0 512 512"><!--! Font Awesome Pro 6.4.0 by @fontawesome - https://fontawesome.com License - https://fontawesome.com/license (Commercial License) Copyright 2023 Fonticons, Inc. --><path d="M256 48a208 208 0 1 1 0 416 208 208 0 1 1 0-416zm0 464A256 256 0 1 0 256 0a256 256 0 1 0 0 512zM184 128c-13.3 0-24 10.7-24 24V360c0 13.3 10.7 24 24 24h72c70.7 0 128-57.3 128-128s-57.3-128-128-128H184zm72 208H208V176h48c44.2 0 80 35.8 80 80s-35.8 80-80 80z"/></svg>