<svg xmlns="http://www.w3.org/2000/svg" viewBox="0 0 512 512"><!--! Font Awesome Pro 6.4.0 by @fontawesome - https://fontawesome.com License - https://fontawesome.com/license (Commercial License) Copyright 2023 Fonticons, Inc. --><path d="M256 48a208 208 0 1 1 0 416 208 208 0 1 1 0-416zm0 464A256 256 0 1 0 256 0a256 256 0 1 0 0 512zM160 152V256 360c0 13.3 10.7 24 24 24H292c42 0 76-34 76-76c0-24.6-11.7-46.4-29.8-60.3c8.7-12.4 13.8-27.4 13.8-43.7c0-42-34-76-76-76H184c-13.3 0-24 10.7-24 24zm144 52c0 15.5-12.5 28-28 28H208V176h68c15.5 0 28 12.5 28 28zM208 336V280h68 16c15.5 0 28 12.5 28 28s-12.5 28-28 28H208z"/></svg>