<svg xmlns="http://www.w3.org/2000/svg" viewBox="0 0 640 512"><!--! Font Awesome Pro 6.4.0 by @fontawesome - https://fontawesome.com License - https://fontawesome.com/license (Commercial License) Copyright 2023 Fonticons, Inc. --><path d="M104 0C90.7 0 80 10.7 80 24V64H72C32.2 64 0 96.2 0 136V440c0 39.8 32.2 72 72 72H240c-10-13.4-16-30-16-48H72c-13.3 0-24-10.7-24-24V136c0-13.3 10.7-24 24-24h8 48 48 48V64 24c0-13.3-10.7-24-24-24s-24 10.7-24 24V64H128V24c0-13.3-10.7-24-24-24zM464 160c0 26.5 21.5 48 48 48h64c8.8 0 16 7.2 16 16V448c0 8.8-7.2 16-16 16H448 320c-8.8 0-16-7.2-16-16V224 64c0-8.8 7.2-16 16-16H448c8.8 0 16 7.2 16 16v96zm48-48V64c0-35.3-28.7-64-64-64H320c-35.3 0-64 28.7-64 64V224 448c0 35.3 28.7 64 64 64H448 576c35.3 0 64-28.7 64-64V224c0-35.3-28.7-64-64-64H560 512V112zM352 336c0 8.8 7.2 16 16 16h32c8.8 0 16-7.2 16-16V304c0-8.8-7.2-16-16-16H368c-8.8 0-16 7.2-16 16v32zM368 96c-8.8 0-16 7.2-16 16v32c0 8.8 7.2 16 16 16h32c8.8 0 16-7.2 16-16V112c0-8.8-7.2-16-16-16H368zM352 240c0 8.8 7.2 16 16 16h32c8.8 0 16-7.2 16-16V208c0-8.8-7.2-16-16-16H368c-8.8 0-16 7.2-16 16v32zM496 416h32c8.8 0 16-7.2 16-16V368c0-8.8-7.2-16-16-16H496c-8.8 0-16 7.2-16 16v32c0 8.8 7.2 16 16 16zM480 304c0 8.8 7.2 16 16 16h32c8.8 0 16-7.2 16-16V272c0-8.8-7.2-16-16-16H496c-8.8 0-16 7.2-16 16v32zM112 320h32c8.8 0 16-7.2 16-16V272c0-8.8-7.2-16-16-16H112c-8.8 0-16 7.2-16 16v32c0 8.8 7.2 16 16 16zM96 400c0 8.8 7.2 16 16 16h32c8.8 0 16-7.2 16-16V368c0-8.8-7.2-16-16-16H112c-8.8 0-16 7.2-16 16v32zm16-176h32c8.8 0 16-7.2 16-16V176c0-8.8-7.2-16-16-16H112c-8.8 0-16 7.2-16 16v32c0 8.8 7.2 16 16 16z"/></svg>