<svg xmlns="http://www.w3.org/2000/svg" viewBox="0 0 512 512"><!--! Font Awesome Pro 6.4.0 by @fontawesome - https://fontawesome.com License - https://fontawesome.com/license (Commercial License) Copyright 2023 Fonticons, Inc. --><path d="M48 208H464V416c0 8.8-7.2 16-16 16H64c-8.8 0-16-7.2-16-16V208zm352-48H336l80-80h32c8.8 0 16 7.2 16 16l-64 64zM320 80l-80 80H176l80-80h64zM160 80L80 160H48V128L96 80h64zm352 80V96c0-35.3-28.7-64-64-64H64C28.7 32 0 60.7 0 96v64 24 24V416c0 35.3 28.7 64 64 64H448c35.3 0 64-28.7 64-64V208 184 160z"/></svg>