<svg xmlns="http://www.w3.org/2000/svg" viewBox="0 0 576 512"><!--! Font Awesome Pro 6.4.0 by @fontawesome - https://fontawesome.com License - https://fontawesome.com/license (Commercial License) Copyright 2023 Fonticons, Inc. --><path d="M39 7C48.4-2.3 63.6-2.3 73 7L176.6 110.6c15 15 23.4 35.4 23.4 56.6V184h16.8c21.2 0 41.6 8.4 56.6 23.4l95.2 95.2c15 15 23.4 35.4 23.4 56.6V376h16.8c21.2 0 41.6 8.4 56.6 23.4L537 471c9.4 9.4 9.4 24.6 0 33.9s-24.6 9.4-33.9 0l-71.6-71.6c-6-6-14.1-9.4-22.6-9.4H368c-13.3 0-24-10.7-24-24V359.2c0-8.5-3.4-16.6-9.4-22.6l-95.2-95.2c-6-6-14.1-9.4-22.6-9.4H176c-13.3 0-24-10.7-24-24V167.2c0-8.5-3.4-16.6-9.4-22.6L39 41C29.7 31.6 29.7 16.4 39 7zm0 224c9.4-9.4 24.6-9.4 33.9 0L146.9 305c13.5 13.5 21.1 31.8 21.1 50.9V376h20.1c19.1 0 37.4 7.6 50.9 21.1L313 471c9.4 9.4 9.4 24.6 0 33.9s-24.6 9.4-33.9 0L205.1 431c-4.5-4.5-10.6-7-17-7H144c-13.3 0-24-10.7-24-24V355.9c0-6.4-2.5-12.5-7-17L39 265c-9.4-9.4-9.4-24.6 0-33.9zM297 7l9.9 9.9C320.4 30.5 328 48.8 328 67.9V88h20.1c19.1 0 37.4 7.6 50.9 21.1L434.9 145c13.5 13.5 21.1 31.8 21.1 50.9V216h20.1c19.1 0 37.4 7.6 50.9 21.1L537 247c9.4 9.4 9.4 24.6 0 33.9s-24.6 9.4-33.9 0l-9.9-9.9c-4.5-4.5-10.6-7-17-7H432c-13.3 0-24-10.7-24-24V195.9c0-6.4-2.5-12.5-7-17L365.1 143c-4.5-4.5-10.6-7-17-7H304c-13.3 0-24-10.7-24-24V67.9c0-6.4-2.5-12.5-7-17L263 41c-9.4-9.4-9.4-24.6 0-33.9s24.6-9.4 33.9 0z"/></svg>