<svg xmlns="http://www.w3.org/2000/svg" viewBox="0 0 512 512"><!--! Font Awesome Pro 6.4.0 by @fontawesome - https://fontawesome.com License - https://fontawesome.com/license (Commercial License) Copyright 2023 Fonticons, Inc. --><path d="M48 106.7V56c0-13.3-10.7-24-24-24S0 42.7 0 56V168c0 13.3 10.7 24 24 24H136c13.3 0 24-10.7 24-24s-10.7-24-24-24H80.7c37-57.8 101.7-96 175.3-96c114.9 0 208 93.1 208 208s-93.1 208-208 208c-42.5 0-81.9-12.7-114.7-34.5c-11-7.3-25.9-4.3-33.3 6.7s-4.3 25.9 6.7 33.3C155.2 496.4 203.8 512 256 512c141.4 0 256-114.6 256-256S397.4 0 256 0C170.3 0 94.4 42.1 48 106.7zM256 128c-13.3 0-24 10.7-24 24V256c0 6.4 2.5 12.5 7 17l72 72c9.4 9.4 24.6 9.4 33.9 0s9.4-24.6 0-33.9l-65-65V152c0-13.3-10.7-24-24-24z"/></svg>