<svg xmlns="http://www.w3.org/2000/svg" viewBox="0 0 448 512"><!--! Font Awesome Pro 6.4.0 by @fontawesome - https://fontawesome.com License - https://fontawesome.com/license (Commercial License) Copyright 2023 Fonticons, Inc. --><path d="M385.4 134.2c-13.2 27.4-29.7 55.9-48.4 74.7c-34.5 34.8-69.6 52.3-101.5 68.2l-.8 .4c-32.1 16-61 30.6-89.7 59.4c-16.5 16.6-34.2 46.5-49.4 76.9c22.9 13.6 52.9 19.1 87.6 14.1c45.5-6.5 96.1-30.9 138.9-73.8s67.3-93.4 73.8-138.9c4.5-31.5 .4-59.1-10.5-81zm-34.9-39c-23.2-14.8-54.2-20.9-90.3-15.8c-45.5 6.5-96.1 30.9-138.9 73.8S54 246.7 47.5 292.2c-4.8 33.6 .2 62.7 12.8 85.3c14.6-27.4 32.1-55.8 50.7-74.4c34.5-34.8 69.6-52.3 101.5-68.2l.8-.4c32.1-16 61-30.6 89.7-59.4c16.8-16.9 33.6-48.3 47.5-79.8zm50.5-20.7c74.2 74.2 54.2 214.6-44.8 313.6s-239.4 119-313.6 44.8s-54.2-214.6 44.8-313.6s239.4-119 313.6-44.8z"/></svg>