<svg xmlns="http://www.w3.org/2000/svg" viewBox="0 0 512 512"><!--! Font Awesome Pro 6.4.0 by @fontawesome - https://fontawesome.com License - https://fontawesome.com/license (Commercial License) Copyright 2023 Fonticons, Inc. --><path d="M0 92C0 41.2 41.2 0 92 0s92 41.2 92 92v44H328V92c0-50.8 41.2-92 92-92s92 41.2 92 92v4c0 53-43 96-96 96H376V320h40c53 0 96 43 96 96v4c0 50.8-41.2 92-92 92s-92-41.2-92-92V376H184v44c0 50.8-41.2 92-92 92s-92-41.2-92-92v-4c0-53 43-96 96-96h40V192H96C43 192 0 149 0 96V92zm136 52v-8V92c0-24.3-19.7-44-44-44S48 67.7 48 92v4c0 26.5 21.5 48 48 48h40zm48 176v8H328v-8V192v-8H184v8V320zm-48 48H96c-26.5 0-48 21.5-48 48v4c0 24.3 19.7 44 44 44s44-19.7 44-44V376v-8zm240 8v44c0 24.3 19.7 44 44 44s44-19.7 44-44v-4c0-26.5-21.5-48-48-48H376v8zm0-232h40c26.5 0 48-21.5 48-48V92c0-24.3-19.7-44-44-44s-44 19.7-44 44v44 8z"/></svg>