<svg xmlns="http://www.w3.org/2000/svg" viewBox="0 0 448 512"><!--! Font Awesome Pro 6.4.0 by @fontawesome - https://fontawesome.com License - https://fontawesome.com/license (Commercial License) Copyright 2023 Fonticons, Inc. --><path d="M384 48c8.8 0 16 7.2 16 16V368c0 8.8-7.2 16-16 16H64c-8.8 0-16-7.2-16-16V64c0-8.8 7.2-16 16-16H384zM64 0C28.7 0 0 28.7 0 64V368c0 23.7 12.9 44.4 32 55.4V480c0 17.7 14.3 32 32 32H384c17.7 0 32-14.3 32-32V423.4c19.1-11.1 32-31.7 32-55.4V64c0-35.3-28.7-64-64-64H64zM80 432H368v32H80V432zm0-320v96c0 17.7 14.3 32 32 32H336c17.7 0 32-14.3 32-32V112c0-17.7-14.3-32-32-32H112c-17.7 0-32 14.3-32 32zM208 320c0 8.8 7.2 16 16 16H352c8.8 0 16-7.2 16-16s-7.2-16-16-16H224c-8.8 0-16 7.2-16 16zm-88 32a24 24 0 1 0 0-48 24 24 0 1 0 0 48z"/></svg>