<svg xmlns="http://www.w3.org/2000/svg" viewBox="0 0 512 512"><!--! Font Awesome Pro 6.4.0 by @fontawesome - https://fontawesome.com License - https://fontawesome.com/license (Commercial License) Copyright 2023 Fonticons, Inc. --><path d="M160 88c0-13.3-10.7-24-24-24s-24 10.7-24 24v88H24c-13.3 0-24 10.7-24 24s10.7 24 24 24H136c13.3 0 24-10.7 24-24V88zM24 288c-13.3 0-24 10.7-24 24s10.7 24 24 24h88v88c0 13.3 10.7 24 24 24s24-10.7 24-24V312c0-13.3-10.7-24-24-24H24zM400 88c0-13.3-10.7-24-24-24s-24 10.7-24 24V200c0 13.3 10.7 24 24 24H488c13.3 0 24-10.7 24-24s-10.7-24-24-24H400V88zM376 288c-13.3 0-24 10.7-24 24V424c0 13.3 10.7 24 24 24s24-10.7 24-24V336h88c13.3 0 24-10.7 24-24s-10.7-24-24-24H376z"/></svg>