<svg xmlns="http://www.w3.org/2000/svg" viewBox="0 0 640 512"><!--! Font Awesome Pro 6.4.0 by @fontawesome - https://fontawesome.com License - https://fontawesome.com/license (Commercial License) Copyright 2023 Fonticons, Inc. --><path d="M312.4 480c-11.8-13.2-20.1-29.7-23.1-48H120c-13.3 0-24 10.7-24 24s10.7 24 24 24H312.4zM64 32C28.7 32 0 60.7 0 96V320c0 35.3 28.7 64 64 64H288V336H64c-8.8 0-16-7.2-16-16V96c0-8.8 7.2-16 16-16H289.3c3.1-18.3 11.3-34.8 23.1-48H64zM576 80c8.8 0 16 7.2 16 16V416c0 8.8-7.2 16-16 16H384c-8.8 0-16-7.2-16-16V96c0-8.8 7.2-16 16-16H576zM384 32c-35.3 0-64 28.7-64 64V416c0 35.3 28.7 64 64 64H576c35.3 0 64-28.7 64-64V96c0-35.3-28.7-64-64-64H384zm96 144a32 32 0 1 0 0-64 32 32 0 1 0 0 64zM448 320a32 32 0 1 1 64 0 32 32 0 1 1 -64 0zm112 0a80 80 0 1 0 -160 0 80 80 0 1 0 160 0z"/></svg>