<svg xmlns="http://www.w3.org/2000/svg" viewBox="0 0 640 512"><!--! Font Awesome Pro 6.4.0 by @fontawesome - https://fontawesome.com License - https://fontawesome.com/license (Commercial License) Copyright 2023 Fonticons, Inc. --><path d="M24 32C10.7 32 0 42.7 0 56S10.7 80 24 80h8V432H24c-13.3 0-24 10.7-24 24s10.7 24 24 24H56 584h32c13.3 0 24-10.7 24-24s-10.7-24-24-24h-8V80h8c13.3 0 24-10.7 24-24s-10.7-24-24-24H584 56 24zM80 432V80H560V432H80zm96-280c0-13.3-10.7-24-24-24s-24 10.7-24 24V360c0 13.3 10.7 24 24 24s24-10.7 24-24V152zm112 0c0-13.3-10.7-24-24-24s-24 10.7-24 24V360c0 13.3 10.7 24 24 24s24-10.7 24-24V152zm112 0c0-13.3-10.7-24-24-24s-24 10.7-24 24V360c0 13.3 10.7 24 24 24s24-10.7 24-24V152zm112 0c0-13.3-10.7-24-24-24s-24 10.7-24 24V360c0 13.3 10.7 24 24 24s24-10.7 24-24V152z"/></svg>