<svg xmlns="http://www.w3.org/2000/svg" viewBox="0 0 640 512"><!--! Font Awesome Pro 6.4.0 by @fontawesome - https://fontawesome.com License - https://fontawesome.com/license (Commercial License) Copyright 2023 Fonticons, Inc. --><path d="M152 0H328c13.3 0 24 10.7 24 24s-10.7 24-24 24H259l-4.5 26.9c6 5 10.8 11.4 13.9 18.8l198.8 26.5c13.1 1.8 22.4 13.8 20.6 27c-.8 5.9-3.7 11-7.8 14.7V192c0 8.8-7.2 16-16 16s-16-7.2-16-16V166.1L262 141.3c-8.8 11.4-22.6 18.7-38 18.7c-26.5 0-48-21.5-48-48c0-20.6 13-38.1 31.2-45l3.2-19H152c-13.3 0-24-10.7-24-24s10.7-24 24-24zm88 112a16 16 0 1 0 -32 0 16 16 0 1 0 32 0zM416 264c0-13.3 10.7-24 24-24h48c13.3 0 24 10.7 24 24v24h16c61.9 0 112 50.1 112 112s-50.1 112-112 112H112C50.1 512 0 461.9 0 400c0-56.4 41.7-103.1 96-110.9V264c0-13.3 10.7-24 24-24h48c13.3 0 24 10.7 24 24v24h64V264c0-13.3 10.7-24 24-24h48c13.3 0 24 10.7 24 24v24h64V264zM112 336c-35.3 0-64 28.7-64 64s28.7 64 64 64H528c35.3 0 64-28.7 64-64s-28.7-64-64-64H488 440 328 280 168 120h-8zm16 32a32 32 0 1 1 0 64 32 32 0 1 1 0-64zm160 32a32 32 0 1 1 64 0 32 32 0 1 1 -64 0zm224-32a32 32 0 1 1 0 64 32 32 0 1 1 0-64z"/></svg>