<svg xmlns="http://www.w3.org/2000/svg" viewBox="0 0 512 512"><!--! Font Awesome Pro 6.4.0 by @fontawesome - https://fontawesome.com License - https://fontawesome.com/license (Commercial License) Copyright 2023 Fonticons, Inc. --><path d="M.2 120l0 0 0 0C4.4 53 60 0 128 0h44.7c7.1 0 10.7 8.6 5.7 13.7L141.7 50.3c-5 5-1.5 13.7 5.7 13.7H184c4.4 0 8.1 3.6 7.5 8c-3.9 31.6-30.9 56-63.5 56H48v33.3c0 9.4 5.4 17.9 13.9 21.8L133.3 216c16.9-12.2 37-20.3 58.7-23V152c0-13.3 10.7-24 24-24s24 10.7 24 24v40h32V152c0-13.3 10.7-24 24-24s24 10.7 24 24v41c21.7 2.7 41.7 10.9 58.7 23l71.4-32.9c8.5-3.9 13.9-12.4 13.9-21.8V128H384c-32.6 0-59.6-24.4-63.5-56c-.5-4.4 3.1-8 7.5-8h36.7c7.1 0 10.7-8.6 5.7-13.7L333.7 13.7c-5-5-1.5-13.7 5.7-13.7H384c68 0 123.6 53 127.8 120l0 0 0 0c0 .1 0 .3 0 .4l.2 7.6h-7.9l-.1 0h8v33.3c0 28.1-16.3 53.6-41.8 65.4L413.1 253c2.2 3.6 4.2 7.2 6 11h31.2l26.9-13.5c11.9-5.9 26.3-1.1 32.2 10.7s1.1 26.3-10.7 32.2l-32 16c-3.3 1.7-7 2.5-10.7 2.5H431.8c.2 2.6 .2 5.3 .2 8v1.4l23.6 7.9c3.5 1.2 6.7 3.2 9.4 5.8l32 32c9.4 9.4 9.4 24.6 0 33.9s-24.6 9.4-33.9 0l-28-28-30-10L387 381l36.6 12.2c3.5 1.2 6.7 3.2 9.4 5.8l32 32c9.4 9.4 9.4 24.6 0 33.9s-24.6 9.4-33.9 0l-28-28-54-18-2.2 2.2L371.7 435c7.6 4.2 12.3 12.3 12.3 21v32c0 13.3-10.7 24-24 24s-24-10.7-24-24V470.1L297.9 449c-.6-.3-1.1-.6-1.6-1H215.7c-.5 .3-1.1 .7-1.6 1L176 470.1V488c0 13.3-10.7 24-24 24s-24-10.7-24-24V456c0-8.7 4.7-16.7 12.3-21l24.9-13.8L163 419l-54 18L81 465c-9.4 9.4-24.6 9.4-33.9 0s-9.4-24.6 0-33.9l32-32c2.6-2.6 5.8-4.6 9.4-5.8L125 381 107 363 77 373 49 401c-9.4 9.4-24.6 9.4-33.9 0s-9.4-24.6 0-33.9l32-32c2.6-2.6 5.8-4.6 9.4-5.8L80 321.4V320c0-2.7 .1-5.4 .2-8H56c-3.7 0-7.4-.9-10.7-2.5l-32-16C1.4 287.5-3.4 273.1 2.5 261.3s20.3-16.7 32.2-10.7L61.7 264H92.9c1.8-3.8 3.9-7.4 6-11L41.8 226.7C16.3 214.9 0 189.4 0 161.3V128H8l-.1 0H0l.2-7.6c0-.1 0-.3 0-.4zM296 240H216h-8c-42.9 0-77.9 33.8-79.9 76.2L211.9 400h88.2l83.8-83.8c-2-42.4-37-76.2-79.9-76.2h-8z"/></svg>