<svg xmlns="http://www.w3.org/2000/svg" viewBox="0 0 512 512"><!--! Font Awesome Pro 6.4.0 by @fontawesome - https://fontawesome.com License - https://fontawesome.com/license (Commercial License) Copyright 2023 Fonticons, Inc. --><path d="M56 272c-4.4 0-8 3.6-8 8v64H464V280c0-4.4-3.6-8-8-8H56zM48 392v64c0 4.4 3.6 8 8 8H456c4.4 0 8-3.6 8-8V392H48zM0 280c0-30.9 25.1-56 56-56H456c30.9 0 56 25.1 56 56V456c0 30.9-25.1 56-56 56H56c-30.9 0-56-25.1-56-56V280zm400 24a16 16 0 1 1 32 0 16 16 0 1 1 -32 0zm16 112a16 16 0 1 1 0 32 16 16 0 1 1 0-32zM80 304a16 16 0 1 1 32 0 16 16 0 1 1 -32 0zM96 416a16 16 0 1 1 0 32 16 16 0 1 1 0-32z"/></svg>