<svg xmlns="http://www.w3.org/2000/svg" viewBox="0 0 512 512"><!--! Font Awesome Pro 6.4.0 by @fontawesome - https://fontawesome.com License - https://fontawesome.com/license (Commercial License) Copyright 2023 Fonticons, Inc. --><path d="M80 24C80 10.7 90.7 0 104 0s24 10.7 24 24V350.1L350.1 128 160 128V80l238.1 0L471 7c9.4-9.4 24.6-9.4 33.9 0s9.4 24.6 0 33.9l-73 73L432 384h56c13.3 0 24 10.7 24 24s-10.7 24-24 24H432v56c0 13.3-10.7 24-24 24s-24-10.7-24-24l0-326.1L161.9 384H352v48H136c-30.9 0-56-25.1-56-56V128H24c-13.3 0-24-10.7-24-24S10.7 80 24 80H80V24z"/></svg>