<svg xmlns="http://www.w3.org/2000/svg" viewBox="0 0 576 512"><!--! Font Awesome Pro 6.4.0 by @fontawesome - https://fontawesome.com License - https://fontawesome.com/license (Commercial License) Copyright 2023 Fonticons, Inc. --><path d="M329.9 80c-2.8 0-5.4 1.5-6.8 3.8L253.8 197.2c-10.2 16.6-28.3 26.8-47.8 26.8H24c-13.3 0-24-10.7-24-24s10.7-24 24-24H206.1c2.8 0 5.4-1.5 6.8-3.8L282.2 58.8C292.3 42.2 310.4 32 329.9 32H552c13.3 0 24 10.7 24 24s-10.7 24-24 24H329.9zm-124 240l61.7 108c1.4 2.5 4.1 4 6.9 4H552c13.3 0 24 10.7 24 24s-10.7 24-24 24H274.6c-20.1 0-38.7-10.8-48.6-28.2L150.6 320H24c-13.3 0-24-10.7-24-24s10.7-24 24-24H552c13.3 0 24 10.7 24 24s-10.7 24-24 24H205.9z"/></svg>