<svg xmlns="http://www.w3.org/2000/svg" viewBox="0 0 512 512"><!--! Font Awesome Pro 6.4.0 by @fontawesome - https://fontawesome.com License - https://fontawesome.com/license (Commercial License) Copyright 2023 Fonticons, Inc. --><path d="M200.3 48L158.7 72 256 102.8 353.3 72 311.7 48 200.3 48zm-97.1 56.7L49.7 197.3l83.9 93.1L232 241.2V145.6L103.2 104.7zM48 267.1v44.7l55.7 96.5L140 429.2l-33.1-96.8L48 267.1zM202.7 464h108l43.9-131.8L256 282.8l-98.5 49.3L202.7 464zm170.5-35.4l35.2-20.3L464 311.7V267.1l-58.8 65.3-32.1 96.2zm89.2-231.3l-53.4-92.5L280 145.6v95.6l98.4 49.2 83.9-93.1zM176.3 6.4c7.3-4.2 15.6-6.4 24-6.4H311.7c8.4 0 16.7 2.2 24 6.4l96.5 55.7c7.3 4.2 13.4 10.3 17.6 17.6l55.7 96.5c4.2 7.3 6.4 15.6 6.4 24V311.7c0 8.4-2.2 16.7-6.4 24l-55.7 96.5c-4.2 7.3-10.3 13.4-17.6 17.6l-96.5 55.7c-7.3 4.2-15.6 6.4-24 6.4H200.3c-8.4 0-16.7-2.2-24-6.4L79.7 449.8c-7.3-4.2-13.4-10.3-17.6-17.6L6.4 335.7c-4.2-7.3-6.4-15.6-6.4-24V200.3c0-8.4 2.2-16.7 6.4-24L62.2 79.7c4.2-7.3 10.3-13.4 17.6-17.6L176.3 6.4z"/></svg>