<svg xmlns="http://www.w3.org/2000/svg" viewBox="0 0 576 512"><!--! Font Awesome Pro 6.4.0 by @fontawesome - https://fontawesome.com License - https://fontawesome.com/license (Commercial License) Copyright 2023 Fonticons, Inc. --><path d="M512 48c8.8 0 16 7.2 16 16V352c0 8.8-7.2 16-16 16H336.5c-.3 0-.6 0-.8 0H240.4c-.3 0-.6 0-.8 0H64c-8.8 0-16-7.2-16-16V64c0-8.8 7.2-16 16-16H512zM64 416H211.7l-8 48H152c-13.3 0-24 10.7-24 24s10.7 24 24 24h72H352h72c13.3 0 24-10.7 24-24s-10.7-24-24-24H372.3l-8-48H512c35.3 0 64-28.7 64-64V64c0-35.3-28.7-64-64-64H64C28.7 0 0 28.7 0 64V352c0 35.3 28.7 64 64 64zm188.3 48l8-48h55.3l8 48H252.3zM256 128v48H208c-8.8 0-16 7.2-16 16v32c0 8.8 7.2 16 16 16h48v48c0 8.8 7.2 16 16 16h32c8.8 0 16-7.2 16-16V240h48c8.8 0 16-7.2 16-16V192c0-8.8-7.2-16-16-16H320V128c0-8.8-7.2-16-16-16H272c-8.8 0-16 7.2-16 16z"/></svg>