<svg xmlns="http://www.w3.org/2000/svg" viewBox="0 0 576 512"><!--! Font Awesome Pro 6.4.0 by @fontawesome - https://fontawesome.com License - https://fontawesome.com/license (Commercial License) Copyright 2023 Fonticons, Inc. --><path d="M64 0H224V48H64c-8.8 0-16 7.2-16 16V352c0 8.8 7.2 16 16 16H239.5c.3 0 .6 0 .8 0h95.2c.3 0 .6 0 .8 0H512c8.8 0 16-7.2 16-16V64c0-8.8-7.2-16-16-16H352V0H512c35.3 0 64 28.7 64 64V352c0 35.3-28.7 64-64 64H364.3l8 48H424c13.3 0 24 10.7 24 24s-10.7 24-24 24H352 224 152c-13.3 0-24-10.7-24-24s10.7-24 24-24h51.7l8-48H64c-35.3 0-64-28.7-64-64V64C0 28.7 28.7 0 64 0zM260.3 416l-8 48h71.3l-8-48H260.3zM312 24V206.1l39-39c9.4-9.4 24.6-9.4 33.9 0s9.4 24.6 0 33.9l-80 80c-9.4 9.4-24.6 9.4-33.9 0l-80-80c-9.4-9.4-9.4-24.6 0-33.9s24.6-9.4 33.9 0l39 39V24c0-13.3 10.7-24 24-24s24 10.7 24 24z"/></svg>