<svg xmlns="http://www.w3.org/2000/svg" viewBox="0 0 640 512"><!--! Font Awesome Pro 6.4.0 by @fontawesome - https://fontawesome.com License - https://fontawesome.com/license (Commercial License) Copyright 2023 Fonticons, Inc. --><path d="M64 48H512c8.8 0 16 7.2 16 16V194.9c17 3.1 33.1 8.7 48 16.3V64c0-35.3-28.7-64-64-64H64C28.7 0 0 28.7 0 64V352c0 35.3 28.7 64 64 64H211.7l-8 48H152c-13.3 0-24 10.7-24 24s10.7 24 24 24h72H352h42.8c-18.3-12.9-34.1-29.2-46.3-48H323.7 288 252.3l8-48H288h27.7 11c-4.3-15.3-6.6-31.4-6.6-48H240.4c-.3 0-.6 0-.8 0H64c-8.8 0-16-7.2-16-16V64c0-8.8 7.2-16 16-16zM480 192.7V120c0-13.3-10.7-24-24-24H376c-13.3 0-24 10.7-24 24s10.7 24 24 24h22.1L304 238.1l-63-63c-9.4-9.4-24.6-9.4-33.9 0L103 279c-9.4 9.4-9.4 24.6 0 33.9s24.6 9.4 33.9 0l87-87 63 63c4.5 4.5 10.6 7 17 7s12.5-2.5 17-7l111-111V200c0 1.3 .1 2.6 .3 3.9c15-5.8 31-9.7 47.7-11.2zM640 368a144 144 0 1 0 -288 0 144 144 0 1 0 288 0zM521.4 393.4a35.9 35.9 0 1 0 -50.7-50.7 35.9 35.9 0 1 0 50.7 50.7zm10 32.6c-21.6 13.2-49.1 13.2-70.7 0l-17.3 17.3c-6.2 6.2-16.4 6.2-22.6 0s-6.2-16.4 0-22.6L438 403.3c-13.2-21.6-13.2-49.1 0-70.7l-17.3-17.3c-6.2-6.2-6.2-16.4 0-22.6s16.4-6.2 22.6 0L460.7 310c21.6-13.2 49.1-13.2 70.7 0l17.3-17.3c6.2-6.2 16.4-6.2 22.6 0s6.2 16.4 0 22.6L554 332.7c13.2 21.6 13.2 49.1 0 70.7l17.3 17.3c6.2 6.2 6.2 16.4 0 22.6s-16.4 6.2-22.6 0L531.3 426z"/></svg>