<svg xmlns="http://www.w3.org/2000/svg" viewBox="0 0 512 512"><!--! Font Awesome Pro 6.4.0 by @fontawesome - https://fontawesome.com License - https://fontawesome.com/license (Commercial License) Copyright 2023 Fonticons, Inc. --><path d="M80 160c0 13.3 2.3 26 6.5 37.8c3.9 10.8-.4 22.8-10.2 28.7L56.8 238.2 44.7 217.9l12.1 20.2c-5.5 3.3-8.8 9.2-8.8 15.6c0 10.1 8.2 18.2 18.2 18.2H192h24 32.9c6.3 0 12.3 2.5 16.8 6.8L304 316.3V296c0-13.3 10.7-24 24-24h16c48.6 0 88 39.4 88 88v8c0 .9 0 1.8 0 2.6c19.9-21.2 32-49.6 32-81c0-60.8-22.4-116.2-59.4-158.7c-7.2-8.2-7.9-20.3-1.7-29.3c10.4-15.3 23.4-35.5 31.4-51.9c-27.3 4-58.4 14.3-84.2 24.6c-6.4 2.5-13.5 2.2-19.6-.8C297.9 57.2 261.2 48 222.3 48H192C130.1 48 80 98.1 80 160zM277.7 408H344c22.1 0 40-17.9 40-40v-8c0-19.4-13.7-35.5-32-39.2v1.9c0 25-20.3 45.3-45.3 45.3c-11.8 0-23.2-4.6-31.7-12.9L239.1 320H216 192 66.2C29.6 320 0 290.4 0 253.8C0 230.5 12.2 209 32.1 197l3.7-2.2C33.3 183.6 32 171.9 32 160C32 71.6 103.6 0 192 0h30.3C265 0 305.6 9.3 342.2 25.9C374.9 13.5 418.7 0 456 0c7.8 0 17.9 2.4 25.2 11.3c6.7 8.1 7.5 17.4 7.3 23.2c-.4 11.3-5.2 23.4-9.7 33.1c-7 15-17.1 31.8-26.4 46.2C489.8 162.5 512 223.5 512 289.7C512 381.5 437.5 456 345.7 456H344 277.7c-19.9 34.5-56.8 56-97 56H176c-5.5 0-10.7-2.9-13.6-7.6s-3.2-10.6-.7-15.6L190.1 432l-28.4-56.8c-2.5-5-2.2-10.9 .7-15.6s8.1-7.6 13.6-7.6h4.7c40.2 0 77.1 21.5 97 56zM136 160a24 24 0 1 1 48 0 24 24 0 1 1 -48 0z"/></svg>