<svg xmlns="http://www.w3.org/2000/svg" viewBox="0 0 448 512"><!--! Font Awesome Pro 6.4.0 by @fontawesome - https://fontawesome.com License - https://fontawesome.com/license (Commercial License) Copyright 2023 Fonticons, Inc. --><path d="M114.2 320L224 430 333.8 320H280c-13.3 0-24-10.7-24-24V176H192V296c0 13.3-10.7 24-24 24H114.2zM224 480c-11.5 0-22.5-4.6-30.6-12.7L77.6 351.2C68.9 342.5 64 330.7 64 318.4c0-25.6 20.8-46.4 46.4-46.4H144V176c0-26.5 21.5-48 48-48h64c26.5 0 48 21.5 48 48v96h33.6c25.6 0 46.4 20.8 46.4 46.4c0 12.3-4.9 24.1-13.6 32.8L254.6 467.3c-8.1 8.1-19.1 12.7-30.6 12.7zM32 96a32 32 0 1 1 0-64 32 32 0 1 1 0 64zm96 0a32 32 0 1 1 0-64 32 32 0 1 1 0 64zm64-32a32 32 0 1 1 64 0 32 32 0 1 1 -64 0zM320 96a32 32 0 1 1 0-64 32 32 0 1 1 0 64zm64-32a32 32 0 1 1 64 0 32 32 0 1 1 -64 0z"/></svg>