<svg xmlns="http://www.w3.org/2000/svg" viewBox="0 0 512 512"><!--! Font Awesome Pro 6.4.0 by @fontawesome - https://fontawesome.com License - https://fontawesome.com/license (Commercial License) Copyright 2023 Fonticons, Inc. --><path d="M512 165.4c0-40-14.1-77.6-40.9-107.8C422.7 2.6 361 0 342.8 0c-45.2 0-88.7 17.9-120.9 49.7c-26.4 26.4-61.7 69.5-61.9 139.5l.1 88.7-40.6 40.5c-6 6.1-13.9 8.9-22.1 8.9c-13.8 0-18.3-7.2-37.1-7.2c-19.8 0-38.9 9.8-50.3 27.2C3.3 357.3 0 368.8 0 380.3c0 22.4 16.8 59.6 59.1 59.6c4.9 0 9.9-.6 14.7-1.7c-1.1 4.8-1.7 9.8-1.7 14.7c0 15 5.3 29.8 16.8 41.4C100.6 506 116.1 512 131.7 512c32.9 0 60.4-26.6 60.4-60.3c0-19-7.2-23-7.2-37c0-8.2 2.8-16 8.9-22.1L234.2 352l88.8 0c38.8 0 72.8-10.1 104-31.1c53.8-35.9 85-94.6 85-155.4zm-47.4-1.2c0 61.2-52.3 139.7-141.6 139.7H240c-17.7 0-32-14.3-32-32V189.7c0-41 14.3-72.6 47.8-106c25.5-25.3 55.8-35.9 85.1-35.9c54.8 0 123.8 41.9 123.8 116.4zM240 304c-17.7 0-32-14.3-32-32V176c0-70.7 57.3-128 128-128s128 57.3 128 128s-57.3 128-128 128H240zm-37.5 78c10.2-14.4 23.9-30 41.5-30h92c97.2 0 176-78.8 176-176S433.2 0 336 0S160 78.8 160 176v92c0 17.7-15.6 31.3-30 41.5c-2.4 1.7-4.6 3.6-6.8 5.7c-12 12-31.5 11.1-47.9 6.8c-4.9-1.3-10-2-15.4-2c-33.1 0-60 26.9-60 60s26.9 60 60 60c6.3 0 12 5.7 12 12c0 33.1 26.9 60 60 60s60-26.9 60-60c0-5.3-.7-10.5-2-15.4c-4.3-16.4-5.2-35.9 6.8-47.9c2.1-2.1 4-4.4 5.7-6.7z"/></svg>