<svg xmlns="http://www.w3.org/2000/svg" viewBox="0 0 640 512"><!--! Font Awesome Pro 6.4.0 by @fontawesome - https://fontawesome.com License - https://fontawesome.com/license (Commercial License) Copyright 2023 Fonticons, Inc. --><path d="M424 88c0 13.3-10.7 24-24 24l-72 0v32l68.6 0c12.6 0 25 3.7 35.5 10.7L483.5 189c17.8 11.9 28.5 31.9 28.5 53.3V384c0 35.3-28.7 64-64 64H254.8c-19.4 0-37.8-8.8-50-24l-32-40H144c-35.3 0-64-28.7-64-64V280H48v72c0 13.3-10.7 24-24 24s-24-10.7-24-24V160c0-13.3 10.7-24 24-24s24 10.7 24 24v72H80V208c0-35.3 28.7-64 64-64h16 32l88 0V112l-72 0c-13.3 0-24-10.7-24-24s10.7-24 24-24H400c13.3 0 24 10.7 24 24zM288 224a32 32 0 1 1 0 64 32 32 0 1 1 0-64zM160 256a32 32 0 1 1 64 0 32 32 0 1 1 -64 0zm224-32a32 32 0 1 1 0 64 32 32 0 1 1 0-64zM172.8 336c14.6 0 28.4 6.6 37.5 18l32 40c3 3.8 7.6 6 12.5 6H448c8.8 0 16-7.2 16-16V242.3c0-5.3-2.7-10.3-7.1-13.3l-51.4-34.3c-2.6-1.8-5.7-2.7-8.9-2.7H192 160 144c-8.8 0-16 7.2-16 16V320c0 8.8 7.2 16 16 16h28.8zM576 192h32c17.7 0 32 14.3 32 32V416c0 17.7-14.3 32-32 32H576c-17.7 0-32-14.3-32-32V224c0-17.7 14.3-32 32-32z"/></svg>