<svg xmlns="http://www.w3.org/2000/svg" viewBox="0 0 640 512"><!--! Font Awesome Pro 6.4.0 by @fontawesome - https://fontawesome.com License - https://fontawesome.com/license (Commercial License) Copyright 2023 Fonticons, Inc. --><path d="M112 48H432V96h48V48c0-26.5-21.5-48-48-48H112C85.5 0 64 21.5 64 48V192h48V48zM48 272H336v6.9L192.1 385.4c0 0-.1 0-.1 0s-.1 0-.1 0L48 278.9V272zm0 66.6L163.3 424c8.3 6.2 18.4 9.5 28.7 9.5s20.4-3.3 28.7-9.5L336 338.6V464H48V338.6zM0 272V464c0 26.5 21.5 48 48 48H336c26.5 0 48-21.5 48-48V272c0-26.5-21.5-48-48-48H48c-26.5 0-48 21.5-48 48zm272-80V176H592V368H416v48H592c26.5 0 48-21.5 48-48V176c0-26.5-21.5-48-48-48H272c-26.5 0-48 21.5-48 48v16h48zm240 16c-8.8 0-16 7.2-16 16v32c0 8.8 7.2 16 16 16h32c8.8 0 16-7.2 16-16V224c0-8.8-7.2-16-16-16H512z"/></svg>