<svg xmlns="http://www.w3.org/2000/svg" viewBox="0 0 576 512"><!--! Font Awesome Pro 6.4.0 by @fontawesome - https://fontawesome.com License - https://fontawesome.com/license (Commercial License) Copyright 2023 Fonticons, Inc. --><path d="M97 319c-9.4 9.4-9.4 24.6 0 33.9l72 72c4.5 4.5 10.6 7 17 7H294.1c6.4 0 12.5-2.5 17-7l65-65L216 200 97 319zM285.1 63c28.1-28.1 73.7-28.1 101.8 0L513 189.1c28.1 28.1 28.1 73.7 0 101.8L371.9 432H520c13.3 0 24 10.7 24 24s-10.7 24-24 24H296v0c-.6 0-1.3 0-1.9 0H185.9c-19.1 0-37.4-7.6-50.9-21.1l-72-72c-28.1-28.1-28.1-73.7 0-101.8L285.1 63z"/></svg>