<svg xmlns="http://www.w3.org/2000/svg" viewBox="0 0 320 512"><!--! Font Awesome Pro 6.4.0 by @fontawesome - https://fontawesome.com License - https://fontawesome.com/license (Commercial License) Copyright 2023 Fonticons, Inc. --><path d="M48.6 240c-.4 5.3-.6 10.6-.6 16s.2 10.7 .6 16H24c-13.3 0-24 10.7-24 24s10.7 24 24 24H57.3C84.8 412.5 170.5 480 272 480h24c13.3 0 24-10.7 24-24s-10.7-24-24-24H272c-74.6 0-138.4-46.4-164-112H264c13.3 0 24-10.7 24-24s-10.7-24-24-24H96.7c-.5-5.3-.7-10.6-.7-16s.2-10.7 .7-16H264c13.3 0 24-10.7 24-24s-10.7-24-24-24H108c25.6-65.6 89.4-112 164-112h24c13.3 0 24-10.7 24-24s-10.7-24-24-24H272C170.5 32 84.8 99.5 57.3 192H24c-13.3 0-24 10.7-24 24s10.7 24 24 24H48.6z"/></svg>