<svg xmlns="http://www.w3.org/2000/svg" viewBox="0 0 576 512"><!--! Font Awesome Pro 6.4.0 by @fontawesome - https://fontawesome.com License - https://fontawesome.com/license (Commercial License) Copyright 2023 Fonticons, Inc. --><path d="M48 464l0-288H163.3l23.4-50.2c7.2-15.5 19.8-27.9 35.3-35C212.1 39.1 166.6 0 112 0C50.1 0 0 50.1 0 112V464c0 26.5 21.5 48 48 48H148.1c-11-13.3-18.1-29.8-19.8-48H48zM176 128H48V112c0-35.3 28.7-64 64-64s64 28.7 64 64v16zm81.9 34.4L368 114.2l110.1 48.2 49.9 107V456c0 4.4-3.6 8-8 8H432V408c0-22.1-17.9-40-40-40H344c-22.1 0-40 17.9-40 40v56H216c-4.4 0-8-3.6-8-8V269.3l49.9-107zM384 68.8c-10.2-4.5-21.8-4.5-32.1 0L235.9 119.6c-8.9 3.9-16.1 10.9-20.2 19.7L163.8 250.6c-2.5 5.3-3.8 11.1-3.8 16.9V456c0 30.9 25.1 56 56 56H520c30.9 0 56-25.1 56-56V267.5c0-5.8-1.3-11.6-3.8-16.9L520.3 139.3c-4.1-8.8-11.3-15.8-20.2-19.7L384 68.8zM320 248v48c0 13.3 10.7 24 24 24h48c13.3 0 24-10.7 24-24V248c0-13.3-10.7-24-24-24H344c-13.3 0-24 10.7-24 24z"/></svg>