<svg xmlns="http://www.w3.org/2000/svg" viewBox="0 0 512 512"><!--! Font Awesome Pro 6.4.0 by @fontawesome - https://fontawesome.com License - https://fontawesome.com/license (Commercial License) Copyright 2023 Fonticons, Inc. --><path d="M224 64c13.3 0 24 10.7 24 24v21L352 96c17.7 0 32 14.3 32 32s-14.3 32-32 32L248 147v45h26.7c14.9 0 29.1 5.9 39.6 16.4L329.9 224H360c83.9 0 152 68.1 152 152v16c0 30.9-25.1 56-56 56H408c-30.9 0-56-25.1-56-56c0-4.4-3.6-8-8-8H323.9c-23.4 29.2-59.5 48-99.9 48s-76.5-18.8-99.9-48H24c-13.3 0-24-10.7-24-24s10.7-24 24-24H136.3c8.2 0 15.8 4.2 20.2 11.1C170.8 369.3 195.7 384 224 384s53.2-14.7 67.4-36.9c4.4-6.9 12-11.1 20.2-11.1H344c30.9 0 56 25.1 56 56c0 4.4 3.6 8 8 8h48c4.4 0 8-3.6 8-8V376c0-57.4-46.6-104-104-104H320c-6.4 0-12.5-2.5-17-7l-22.6-22.6c-1.5-1.5-3.5-2.3-5.7-2.3H181.3c-2.1 0-4.2 .8-5.7 2.3L153 265c-4.5 4.5-10.6 7-17 7H24c-13.3 0-24-10.7-24-24s10.7-24 24-24H126.1l15.6-15.6c10.5-10.5 24.7-16.4 39.6-16.4H200V147L96 160c-17.7 0-32-14.3-32-32s14.3-32 32-32l104 13V88c0-13.3 10.7-24 24-24z"/></svg>