<svg xmlns="http://www.w3.org/2000/svg" viewBox="0 0 512 512"><!--! Font Awesome Pro 6.4.0 by @fontawesome - https://fontawesome.com License - https://fontawesome.com/license (Commercial License) Copyright 2023 Fonticons, Inc. --><path d="M64 32c7.8 0 15 3.7 19.5 10.1l40 56c2.9 4.1 4.5 8.9 4.5 13.9v48h64V112c0-5 1.6-9.9 4.5-13.9l40-56C241 35.7 248.2 32 256 32s15 3.7 19.5 10.1l40 56c2.9 4.1 4.5 8.9 4.5 13.9v48h64V112c0-5 1.6-9.9 4.5-13.9l40-56C433 35.7 440.2 32 448 32s15 3.7 19.5 10.1l40 56c2.9 4.1 4.5 8.9 4.5 13.9V448c0 17.7-14.3 32-32 32H416c-17.7 0-32-14.3-32-32V400H320v48c0 17.7-14.3 32-32 32H224c-17.7 0-32-14.3-32-32V400H128v48c0 17.7-14.3 32-32 32H32c-17.7 0-32-14.3-32-32V112c0-5 1.6-9.9 4.5-13.9l40-56C49 35.7 56.2 32 64 32zM320 352h64V208H320V352zM192 208H128V352h64V208zM48 119.7V432H80V119.7L64 97.3 48 119.7zm192 0V432h32V119.7L256 97.3l-16 22.4zM432 432h32V119.7L448 97.3l-16 22.4V432z"/></svg>