<svg xmlns="http://www.w3.org/2000/svg" viewBox="0 0 640 512"><!--! Font Awesome Pro 6.4.0 by @fontawesome - https://fontawesome.com License - https://fontawesome.com/license (Commercial License) Copyright 2023 Fonticons, Inc. --><path d="M448 464H192c-8.8 0-16-7.2-16-16V368H128v80c0 35.3 28.7 64 64 64H448c35.3 0 64-28.7 64-64V368H464v80c0 8.8-7.2 16-16 16zm16-304v96h48V154.5c0-17-6.7-33.3-18.7-45.3L402.7 18.7C390.7 6.7 374.5 0 357.5 0H192c-35.3 0-64 28.7-64 64V256h48V64c0-8.8 7.2-16 16-16H352v80c0 17.7 14.3 32 32 32h80zM56 288c-13.3 0-24 10.7-24 24s10.7 24 24 24H168c13.3 0 24-10.7 24-24s-10.7-24-24-24H56zm224 0c-13.3 0-24 10.7-24 24s10.7 24 24 24h80c13.3 0 24-10.7 24-24s-10.7-24-24-24H280zm192 0c-13.3 0-24 10.7-24 24s10.7 24 24 24H584c13.3 0 24-10.7 24-24s-10.7-24-24-24H472z"/></svg>