<svg xmlns="http://www.w3.org/2000/svg" viewBox="0 0 384 512"><!--! Font Awesome Pro 6.4.0 by @fontawesome - https://fontawesome.com License - https://fontawesome.com/license (Commercial License) Copyright 2023 Fonticons, Inc. --><path d="M48 448V64c0-8.8 7.2-16 16-16H224v80c0 17.7 14.3 32 32 32h80V448c0 8.8-7.2 16-16 16H64c-8.8 0-16-7.2-16-16zM64 0C28.7 0 0 28.7 0 64V448c0 35.3 28.7 64 64 64H320c35.3 0 64-28.7 64-64V154.5c0-17-6.7-33.3-18.7-45.3L274.7 18.7C262.7 6.7 246.5 0 229.5 0H64zm40 192c-13.3 0-24 10.7-24 24v80 64c0 13.3 10.7 24 24 24s24-10.7 24-24V320h22.1c.3 .3 .6 .7 .9 1l55 55-23 23c-9.4 9.4-9.4 24.6 0 33.9s24.6 9.4 33.9 0l23-23 23 23c9.4 9.4 24.6 9.4 33.9 0s9.4-24.6 0-33.9l-23-23 23-23c9.4-9.4 9.4-24.6 0-33.9s-24.6-9.4-33.9 0l-23 23-31.1-31.1C227.5 299.7 240 279.3 240 256c0-35.3-28.7-64-64-64H104zm72 80H128V240h48c8.8 0 16 7.2 16 16s-7.2 16-16 16z"/></svg>