<svg xmlns="http://www.w3.org/2000/svg" viewBox="0 0 640 512"><!--! Font Awesome Pro 6.4.0 by @fontawesome - https://fontawesome.com License - https://fontawesome.com/license (Commercial License) Copyright 2023 Fonticons, Inc. --><path d="M233.8 32C210.7 32 192 50.7 192 73.8c0 9.3 3.1 18.4 8.9 25.8L336 272.3v63.9c0 12.3 5.6 23.9 15.3 31.5l92.9 73c21 16.5 51.8 1.5 51.8-25.2V272.3L631.1 99.6c5.8-7.4 8.9-16.4 8.9-25.8C640 50.7 621.3 32 598.2 32H233.8zM378.9 249.2L246.5 80h339L453.1 249.2c-3.3 4.2-5.1 9.4-5.1 14.8V382.6l-64-50.3V264c0-5.4-1.8-10.6-5.1-14.8zM163.4 96H41.8C18.7 96 0 114.7 0 137.8c0 9.3 3.1 18.4 8.9 25.8L144 336.3v31.9c0 12.3 5.6 23.9 15.3 31.5l92.9 73c21 16.5 51.8 1.5 51.8-25.2V336.3v-.1V283.3l-9.7-12.5-33.2 42.4c-3.3 4.2-5.1 9.4-5.1 14.8v86.6l-64-50.3V328c0-5.4-1.8-10.6-5.1-14.8L54.5 144H195l-19.3-24.6c-5.5-7-9.6-15-12.3-23.4z"/></svg>