<svg xmlns="http://www.w3.org/2000/svg" viewBox="0 0 384 512"><!--! Font Awesome Pro 6.4.0 by @fontawesome - https://fontawesome.com License - https://fontawesome.com/license (Commercial License) Copyright 2023 Fonticons, Inc. --><path d="M53.9 186.1C19.4 220.6 0 267.4 0 316.2v11.5C0 429.5 82.5 512 184.3 512h15.1C301.4 512 384 429.4 384 327.4c0-66.1-27.1-129.2-74.9-174.8L230.9 78.2C221.4 69.1 216 56.6 216 43.4V37.3v-16C216 9.6 206.4 0 194.7 0c-6.7 0-13 3.2-17.1 8.5L168 21.3l-9.9 13.2c-14.4 19.3-23.2 42.2-25.2 66.2l-.9 10.8c-.3 3.9-.5 7.8-.4 11.7c.2 22.9 6.6 45.4 18.4 65c2.2 3.7 4.6 7.2 7.2 10.6L168 213.3l21.2 28.3c7 9.3 10.8 20.7 10.8 32.4v14c0 22.1-17.9 40-40 40s-40-17.9-40-40V229.3v-2.5V188.3c0-15.6-12.7-28.3-28.3-28.3c-1.3 0-2.6 .1-3.9 .3c-6 .8-11.7 3.6-16.1 8L53.9 186.1zm18.1 53V288c0 48.6 39.4 88 88 88s88-39.4 88-88V274c0-22.1-7.2-43.5-20.4-61.2l-32-42.7c-11.8-15.7-17.4-35.1-15.7-54.6l.9-10.8c.3-3.6 .8-7.2 1.6-10.7c4.3 6.9 9.4 13.3 15.4 18.9l33.1-34.8-33.1 34.8L276 187.4c38.3 36.5 60 87.1 60 140C336 402.9 274.9 464 199.4 464H184.3C109 464 48 403 48 327.7V316.2c0-27.7 8.5-54.6 24-77.2z"/></svg>