<svg xmlns="http://www.w3.org/2000/svg" viewBox="0 0 576 512"><!--! Font Awesome Pro 6.4.0 by @fontawesome - https://fontawesome.com License - https://fontawesome.com/license (Commercial License) Copyright 2023 Fonticons, Inc. --><path d="M149.3 203.9c19.8-22.8 47.5-46.1 78.2-63.6C258.4 122.8 290.7 112 320 112c44.8 0 97.6 25.1 140.5 58.9c21.1 16.6 38.7 34.5 50.7 50.7C524 238.8 528 250.7 528 256s-4 17.2-16.8 34.4c-12.1 16.2-29.6 34.1-50.7 50.7C417.6 374.9 364.8 400 320 400c-29.3 0-61.6-10.8-92.5-28.4c-30.7-17.5-58.4-40.8-78.2-63.6c-8-9.2-21.7-10.9-31.7-4L60 343.6l17.6-74.8c2-8.4 2-17.2 0-25.7L60 168.4 117.6 208c10.1 6.9 23.7 5.2 31.7-4zM320 64c-40.4 0-81 14.5-116.3 34.6c-28.5 16.2-54.7 36.7-76 58.1L46.9 101.1C42 97.8 36.3 96 30.4 96C11.7 96-2.2 113.5 2.1 131.7L30.9 254.2c.3 1.2 .3 2.5 0 3.7L2.1 380.3C-2.2 398.5 11.7 416 30.4 416c5.9 0 11.6-1.8 16.5-5.1l80.9-55.6c21.3 21.3 47.5 41.8 76 58.1C239 433.5 279.6 448 320 448c60.2 0 123.4-32.2 170.2-69.1c23.8-18.7 44.5-39.5 59.6-59.8C564.1 299.8 576 277.4 576 256s-11.9-43.8-26.2-63.1c-15-20.3-35.8-41.1-59.6-59.8C443.4 96.2 380.2 64 320 64zm-4.7 107.3c6.2-6.2 6.2-16.4 0-22.6s-16.4-6.2-22.6 0l-64 64c-6.2 6.2-6.2 16.4 0 22.6s16.4 6.2 22.6 0l64-64zm112 16c6.2-6.2 6.2-16.4 0-22.6s-16.4-6.2-22.6 0l-160 160c-6.2 6.2-6.2 16.4 0 22.6s16.4 6.2 22.6 0l160-160zm16 112c6.2-6.2 6.2-16.4 0-22.6s-16.4-6.2-22.6 0l-64 64c-6.2 6.2-6.2 16.4 0 22.6s16.4 6.2 22.6 0l64-64z"/></svg>