<svg xmlns="http://www.w3.org/2000/svg" viewBox="0 0 640 512"><!--! Font Awesome Pro 6.4.0 by @fontawesome - https://fontawesome.com License - https://fontawesome.com/license (Commercial License) Copyright 2023 Fonticons, Inc. --><path d="M175 389.4l49-79.6V48h8c13.3 0 24-10.7 24-24s-10.7-24-24-24h-8H176 80 32 24C10.7 0 0 10.7 0 24S10.7 48 24 48h8V352c0 53 43 96 96 96c11.2 0 22-1.9 32-5.5c0-18.7 5.2-37.1 15-53.1zM80 48h96V160H80V48zm0 160h96V352c0 26.5-21.5 48-48 48s-48-21.5-48-48V208zM312 0c-13.3 0-24 10.7-24 24s10.7 24 24 24h8V217.2L202 408.9c-6.6 10.7-10 22.9-10 35.5c0 37.4 30.3 67.6 67.6 67.6H572.4c37.4 0 67.6-30.3 67.6-67.6c0-12.5-3.5-24.8-10-35.5L512 217.2V48h8c13.3 0 24-10.7 24-24s-10.7-24-24-24H312zM464 48V224c0 4.4 1.2 8.8 3.6 12.6L518.9 320H313.1l51.3-83.4c2.3-3.8 3.6-8.1 3.6-12.6V48h96zM242.9 434.1L283.6 368H548.4l40.6 66.1c1.9 3.1 2.9 6.7 2.9 10.3c0 10.8-8.8 19.6-19.6 19.6H259.6c-10.9 0-19.6-8.8-19.6-19.6c0-3.6 1-7.2 2.9-10.3z"/></svg>