<svg xmlns="http://www.w3.org/2000/svg" viewBox="0 0 448 512"><!--! Font Awesome Pro 6.4.0 by @fontawesome - https://fontawesome.com License - https://fontawesome.com/license (Commercial License) Copyright 2023 Fonticons, Inc. --><path d="M176 196.8c0 20.7-5.8 41-16.6 58.7L119.7 320H328.3l-39.7-64.5c-10.9-17.7-16.6-38-16.6-58.7V48H176V196.8zM320 48V196.8c0 11.8 3.3 23.5 9.5 33.5L437.7 406.2c6.7 10.9 10.3 23.5 10.3 36.4c0 38.3-31.1 69.4-69.4 69.4H69.4C31.1 512 0 480.9 0 442.6c0-12.8 3.6-25.4 10.3-36.4L118.5 230.4c6.2-10.1 9.5-21.7 9.5-33.5V48h-8c-13.3 0-24-10.7-24-24s10.7-24 24-24h40H288h40c13.3 0 24 10.7 24 24s-10.7 24-24 24h-8z"/></svg>