<svg xmlns="http://www.w3.org/2000/svg" viewBox="0 0 576 512"><!--! Font Awesome Pro 6.4.0 by @fontawesome - https://fontawesome.com License - https://fontawesome.com/license (Commercial License) Copyright 2023 Fonticons, Inc. --><path d="M48 96V416c0 8.8 7.2 16 16 16H268c6.9 17.5 16.4 33.7 28.2 48H64c-35.3 0-64-28.7-64-64V96C0 60.7 28.7 32 64 32H309.5c17 0 33.3 6.7 45.3 18.7l74.5 74.5-33.9 33.9L320.8 84.7c-.3-.3-.5-.5-.8-.8V184c0 13.3-10.7 24-24 24H104c-13.3 0-24-10.7-24-24V80H64c-8.8 0-16 7.2-16 16zm381.3 29.3c12 12 18.7 28.3 18.7 45.3v22.2c-5.3-.5-10.6-.7-16-.7c-10.9 0-21.6 1-32 2.9V170.5c0-4.2-1.7-8.3-4.7-11.3l33.9-33.9zM256 368c0 2.5 .1 4.9 .2 7.4c-9.4 5.5-20.4 8.6-32.2 8.6c-35.3 0-64-28.7-64-64s28.7-64 64-64c22.1 0 41.6 11.2 53.1 28.3C263.7 309.2 256 337.7 256 368zM128 80v80H272V80H128zM288 368a144 144 0 1 1 288 0 144 144 0 1 1 -288 0zm140.7-67.3c-6.2 6.2-6.2 16.4 0 22.6L457.4 352H368c-8.8 0-16 7.2-16 16s7.2 16 16 16h89.4l-28.7 28.7c-6.2 6.2-6.2 16.4 0 22.6s16.4 6.2 22.6 0l56-56c6.2-6.2 6.2-16.4 0-22.6l-56-56c-6.2-6.2-16.4-6.2-22.6 0z"/></svg>