<svg xmlns="http://www.w3.org/2000/svg" viewBox="0 0 512 512"><!--! Font Awesome Pro 6.4.0 by @fontawesome - https://fontawesome.com License - https://fontawesome.com/license (Commercial License) Copyright 2023 Fonticons, Inc. --><path d="M273.9 8.1C269.4 2.9 262.9 0 256 0s-13.4 2.9-17.9 8.1L189 63.3 134.7 21.1c-7.2-5.6-17-6.6-25.3-2.6S96 30.8 96 40V152c0 75.1 60.9 136 136 136v85.4C191 321.4 127.4 288 56 288H28c-15.5 0-28 12.5-28 28C0 424.2 87.8 512 196 512h36 48 36c108.2 0 196-87.8 196-196c0-15.5-12.5-28-28-28H456c-71.4 0-135 33.4-176 85.4V288c75.1 0 136-60.9 136-136V40c0-9.2-5.2-17.5-13.5-21.6s-18-3-25.3 2.6L323 63.3 273.9 8.1zM280 240H232c-48.6 0-88-39.4-88-88V89.1l33.3 25.9c10 7.8 24.3 6.5 32.7-3L256 60.1l46.1 51.8c8.4 9.5 22.7 10.8 32.7 3L368 89.1V152c0 48.6-39.4 88-88 88zM196 464c-75 0-136.9-55.7-146.7-128H56c80.6 0 148.5 54.1 169.4 128H196zm120 0H286.6c20.9-73.9 88.8-128 169.4-128h6.7C452.9 408.3 391 464 316 464z"/></svg>