<svg xmlns="http://www.w3.org/2000/svg" viewBox="0 0 640 512"><!--! Font Awesome Pro 6.4.0 by @fontawesome - https://fontawesome.com License - https://fontawesome.com/license (Commercial License) Copyright 2023 Fonticons, Inc. --><path d="M144 304H576c8.8 0 16-7.2 16-16V224c0-8.8-7.2-16-16-16H144v96zm-48 0V208H64c-8.8 0-16 7.2-16 16v64c0 8.8 7.2 16 16 16H96zM64 160H96h24 24H576c35.3 0 64 28.7 64 64v64c0 35.3-28.7 64-64 64H144 120 96 64c-35.3 0-64-28.7-64-64V224c0-35.3 28.7-64 64-64zm256 72a24 24 0 1 1 0 48 24 24 0 1 1 0-48zm72 24a24 24 0 1 1 48 0 24 24 0 1 1 -48 0zm120-24a24 24 0 1 1 0 48 24 24 0 1 1 0-48z"/></svg>