<svg xmlns="http://www.w3.org/2000/svg" viewBox="0 0 576 512"><!--! Font Awesome Pro 6.4.0 by @fontawesome - https://fontawesome.com License - https://fontawesome.com/license (Commercial License) Copyright 2023 Fonticons, Inc. --><path d="M48 24C48 10.7 37.3 0 24 0S0 10.7 0 24V136 392c0 30.9 25.1 56 56 56H256V400H56c-4.4 0-8-3.6-8-8V160H256V112H48V24zM336 176V48h44.1l17 17c9.6 9.6 22.6 15 36.2 15H528v96H336zM288 32V192c0 17.7 14.3 32 32 32H544c17.7 0 32-14.3 32-32V64c0-17.7-14.3-32-32-32H433.3c-.8 0-1.7-.3-2.3-.9L409.4 9.4c-6-6-14.1-9.4-22.6-9.4H320c-17.7 0-32 14.3-32 32zm48 432V336h44.1l17 17c9.6 9.6 22.6 15 36.2 15H528v96H336zM288 320V480c0 17.7 14.3 32 32 32H544c17.7 0 32-14.3 32-32V352c0-17.7-14.3-32-32-32H433.3c-.8 0-1.7-.3-2.3-.9l-21.7-21.7c-6-6-14.1-9.4-22.6-9.4H320c-17.7 0-32 14.3-32 32z"/></svg>