<svg xmlns="http://www.w3.org/2000/svg" viewBox="0 0 512 512"><!--! Font Awesome Pro 6.4.0 by @fontawesome - https://fontawesome.com License - https://fontawesome.com/license (Commercial License) Copyright 2023 Fonticons, Inc. --><path d="M251.7 127.6l0 0c1.4 1.4 2.8 2.7 4.3 3.9V304c0 6.1 3.4 11.6 8.8 14.3s11.9 2.1 16.8-1.5L336 276l54.4 40.8c4.8 3.6 11.3 4.2 16.8 1.5s8.8-8.3 8.8-14.3V144h32c8.8 0 16 7.2 16 16V416c0 8.8-7.2 16-16 16H64c-8.8 0-16-7.2-16-16V96c0-8.8 7.2-16 16-16H197.5c4.2 0 8.3 1.7 11.3 4.7l33.9-33.9L208.8 84.7l42.9 42.9zm33.9-33.9L242.7 50.7c-12-12-28.3-18.7-45.3-18.7H64C28.7 32 0 60.7 0 96V416c0 35.3 28.7 64 64 64H448c35.3 0 64-28.7 64-64V160c0-35.3-28.7-64-64-64H291.3c-2.1 0-4.2-.8-5.7-2.3z"/></svg>