<svg xmlns="http://www.w3.org/2000/svg" viewBox="0 0 512 512"><!-- Font Awesome Pro 6.0.0-alpha2 by @fontawesome - https://fontawesome.com License - https://fontawesome.com/license (Commercial License) --><path d="M448 96H275.883L226.746 50.746C214.742 38.742 198.465 32 181.49 32H64C28.654 32 0 60.656 0 96V416C0 451.344 28.654 480 64 480H448C483.346 480 512 451.344 512 416V160C512 124.656 483.346 96 448 96ZM464 416C464 424.824 456.822 432 448 432H64C55.178 432 48 424.824 48 416V96C48 87.176 55.178 80 64 80H181.49C185.764 80 189.783 81.664 192.805 84.688L256 144H448C456.822 144 464 151.176 464 160V416Z"/></svg>