<svg xmlns="http://www.w3.org/2000/svg" viewBox="0 0 640 512"><!--! Font Awesome Pro 6.4.0 by @fontawesome - https://fontawesome.com License - https://fontawesome.com/license (Commercial License) Copyright 2023 Fonticons, Inc. --><path d="M80 160H96V40c0-22.1 17.9-40 40-40H293c16.6 0 31.5 10.3 37.4 25.8l83 218.9c1.7 4.5 2.6 9.3 2.6 14.2V272v72.4c19.6 17.6 32 43.1 32 71.6c0 53-43 96-96 96s-96-43-96-96H192c0 53-43 96-96 96s-96-43-96-96V368 240c0-44.2 35.8-80 80-80zm160 80H360.3L287.4 48H144V171.4L240 240zm0 48c-10 0-19.8-3.1-27.9-8.9L112.6 208H80c-17.7 0-32 14.3-32 32v92.8C62.1 324.7 78.5 320 96 320c35.5 0 66.6 19.3 83.2 48h89.7c16.6-28.7 47.6-48 83.2-48c5.5 0 10.8 .5 16 1.3V288H240zM96 464a48 48 0 1 0 0-96 48 48 0 1 0 0 96zm256 0a48 48 0 1 0 0-96 48 48 0 1 0 0 96zM528 24V400h88c13.3 0 24 10.7 24 24s-10.7 24-24 24H504c-13.3 0-24-10.7-24-24V24c0-13.3 10.7-24 24-24s24 10.7 24 24z"/></svg>