<svg xmlns="http://www.w3.org/2000/svg" viewBox="0 0 640 512"><!--! Font Awesome Pro 6.4.0 by @fontawesome - https://fontawesome.com License - https://fontawesome.com/license (Commercial License) Copyright 2023 Fonticons, Inc. --><path d="M48 112v48c0 8.8 7.2 16 16 16H80h80c8.8 0 16-7.2 16-16V112H136 88 48zm176 48c0 5.5-.7 10.9-2 16H418c-1.3-5.1-2-10.5-2-16V112v-8V64 24c0-13.3 10.7-24 24-24c7.1 0 13.4 3.1 17.8 7.9c3.8 4.3 6.2 9.9 6.2 16.1V64h40V24c0-6.2 2.3-11.8 6.2-16.1C514.6 3.1 520.9 0 528 0s13.4 3.1 17.8 7.9c3.8 4.3 6.2 9.9 6.2 16.1V64h40V24c0-6.2 2.3-11.8 6.2-16.1C602.6 3.1 608.9 0 616 0c13.3 0 24 10.7 24 24V64v40 8 48c0 23.7-12.9 44.4-32 55.4V224 448c0 35.3-28.7 64-64 64H384 256 96c-35.3 0-64-28.7-64-64V224v-8.6C12.9 204.4 0 183.7 0 160V112v-8V64 24C0 10.7 10.7 0 24 0c7.1 0 13.4 3.1 17.8 7.9C45.7 12.2 48 17.8 48 24V64H88V24c0-6.2 2.3-11.8 6.2-16.1C98.6 3.1 104.9 0 112 0s13.4 3.1 17.8 7.9c3.9 4.3 6.2 9.9 6.2 16.1V64h40V24c0-6.2 2.3-11.8 6.2-16.1C186.6 3.1 192.9 0 200 0c13.3 0 24 10.7 24 24V64v40 8 48zM384 464h64V224H192V464h64V384c0-35.3 28.7-64 64-64s64 28.7 64 64v80zm112 0h48c8.8 0 16-7.2 16-16V224H496V464zM96 464h48V224H80V448c0 8.8 7.2 16 16 16zM560 176h16c8.8 0 16-7.2 16-16V112H552 504 464v48c0 8.8 7.2 16 16 16h80z"/></svg>