<svg xmlns="http://www.w3.org/2000/svg" viewBox="0 0 320 512"><!--! Font Awesome Pro 6.4.0 by @fontawesome - https://fontawesome.com License - https://fontawesome.com/license (Commercial License) Copyright 2023 Fonticons, Inc. --><path d="M72 32C58.7 32 48 42.7 48 56V216 320H24c-13.3 0-24 10.7-24 24s10.7 24 24 24H48v88c0 13.3 10.7 24 24 24s24-10.7 24-24V368H200c13.3 0 24-10.7 24-24s-10.7-24-24-24H96V240H264c13.3 0 24-10.7 24-24s-10.7-24-24-24H96V80H296c13.3 0 24-10.7 24-24s-10.7-24-24-24H72z"/></svg>