<svg xmlns="http://www.w3.org/2000/svg" viewBox="0 0 640 512"><!--! Font Awesome Pro 6.4.0 by @fontawesome - https://fontawesome.com License - https://fontawesome.com/license (Commercial License) Copyright 2023 Fonticons, Inc. --><path d="M72 88c0-48.6 39.4-88 88-88h40c13.3 0 24 10.7 24 24s-10.7 24-24 24H160c-22.1 0-40 17.9-40 40V192h48c13.3 0 24 10.7 24 24s-10.7 24-24 24H120V390.7c0 44.8-33.7 82.5-78.3 87.5l-15.1 1.7c-13.2 1.5-25-8-26.5-21.2s8-25 21.2-26.5l15.1-1.7C56.7 428.2 72 411.1 72 390.7V240H24c-13.3 0-24-10.7-24-24s10.7-24 24-24H72V88zm244.3 76.8C288.4 209.1 272 262.5 272 320s16.4 110.9 44.3 155.2c7.1 11.2 3.7 26-7.5 33.1s-26 3.7-33.1-7.5C243 448.9 224 386.7 224 320s19-128.9 51.7-180.8c7.1-11.2 21.9-14.6 33.1-7.5s14.6 21.9 7.5 33.1zm231.4 0c-7.1-11.2-3.7-26 7.5-33.1s26-3.7 33.1 7.5C621 191.1 640 253.3 640 320s-19 128.9-51.7 180.8c-7.1 11.2-21.9 14.6-33.1 7.5s-14.6-21.9-7.5-33.1C575.6 430.9 592 377.5 592 320s-16.4-110.9-44.3-155.2zM393 247l39 39 39-39c9.4-9.4 24.6-9.4 33.9 0s9.4 24.6 0 33.9l-39 39 39 39c9.4 9.4 9.4 24.6 0 33.9s-24.6 9.4-33.9 0l-39-39-39 39c-9.4 9.4-24.6 9.4-33.9 0s-9.4-24.6 0-33.9l39-39-39-39c-9.4-9.4-9.4-24.6 0-33.9s24.6-9.4 33.9 0z"/></svg>