<svg xmlns="http://www.w3.org/2000/svg" viewBox="0 0 384 512"><!--! Font Awesome Pro 6.4.0 by @fontawesome - https://fontawesome.com License - https://fontawesome.com/license (Commercial License) Copyright 2023 Fonticons, Inc. --><path d="M64 48c-8.8 0-16 7.2-16 16V416c0 26.5 21.5 48 48 48H288c26.5 0 48-21.5 48-48V64c0-8.8-7.2-16-16-16H64zM0 64C0 28.7 28.7 0 64 0H320c35.3 0 64 28.7 64 64V416c0 53-43 96-96 96H96c-53 0-96-43-96-96V64zM232 336a24 24 0 1 1 0 48 24 24 0 1 1 0-48zm24-24a24 24 0 1 1 48 0 24 24 0 1 1 -48 0zM128 288c8.8 0 16 7.2 16 16v16h16c8.8 0 16 7.2 16 16s-7.2 16-16 16H144v16c0 8.8-7.2 16-16 16s-16-7.2-16-16V352H96c-8.8 0-16-7.2-16-16s7.2-16 16-16h16V304c0-8.8 7.2-16 16-16zM112 96H272c8.8 0 16 7.2 16 16V224c0 17.7-14.3 32-32 32H128c-17.7 0-32-14.3-32-32V112c0-8.8 7.2-16 16-16z"/></svg>