<svg xmlns="http://www.w3.org/2000/svg" viewBox="0 0 640 512"><!--! Font Awesome Pro 6.4.0 by @fontawesome - https://fontawesome.com License - https://fontawesome.com/license (Commercial License) Copyright 2023 Fonticons, Inc. --><path d="M38.8 5.1C28.4-3.1 13.3-1.2 5.1 9.2S-1.2 34.7 9.2 42.9l592 464c10.4 8.2 25.5 6.3 33.7-4.1s6.3-25.5-4.1-33.7l-67.2-52.7C571.4 404.9 576 391 576 376V155.9c0-19.1-7.6-37.4-21.1-50.9L481 31c-9.4-9.4-24.6-9.4-33.9 0s-9.4 24.6 0 33.9l33 33V160c0 29.8 20.4 54.9 48 62V376c0 3.8-.9 7.4-2.5 10.6L384 275.7V64c0-35.3-28.7-64-64-64H160c-30.9 0-56.7 21.9-62.7 51L38.8 5.1zM144 87.6V64c0-8.8 7.2-16 16-16H320c8.8 0 16 7.2 16 16V238L144 87.6zM144 464V209.5L96 171.6V464l-8 0c-13.3 0-24 10.7-24 24s10.7 24 24 24h8 48H336h48 8c13.3 0 24-10.7 24-24s-10.7-24-24-24l-8 0V398.5l-48-37.8V464H144z"/></svg>