<svg xmlns="http://www.w3.org/2000/svg" viewBox="0 0 576 512"><!-- Font Awesome Pro 6.0.0-alpha2 by @fontawesome - https://fontawesome.com License - https://fontawesome.com/license (Commercial License) --><path d="M288 32C129 32 0 161 0 320C0 372.75 14.25 422.25 39 464.75C44.625 474.375 55.375 480 66.5 480H509.5C520.625 480 531.375 474.375 537 464.75C561.75 422.25 576 372.75 576 320C576 161 447 32 288 32ZM288 432C265.945 432 248 414.057 248 392S265.945 352 288 352C310.057 352 328 369.943 328 392S310.057 432 288 432ZM500.25 432H365.965C372.166 419.949 376 406.486 376 392C376 351.777 348.854 318.232 312 307.732V152C312 138.75 301.25 128 288 128S264 138.75 264 152V307.732C227.148 318.232 200 351.777 200 392C200 406.486 203.834 419.949 210.035 432H75.75C57.5 397.625 48 359.125 48 320C48 187.625 155.625 80 288 80S528 187.625 528 320C528 359.125 518.5 397.625 500.25 432Z"/></svg>