<svg xmlns="http://www.w3.org/2000/svg" viewBox="0 0 448 512"><!--! Font Awesome Pro 6.4.0 by @fontawesome - https://fontawesome.com License - https://fontawesome.com/license (Commercial License) Copyright 2023 Fonticons, Inc. --><path d="M297.4 384C358 356.2 400 295 400 224c0-97.2-78.8-176-176-176S48 126.8 48 224c0 71 42 132.2 102.6 160H67.2C25.7 343.3 0 286.7 0 224C0 100.3 100.3 0 224 0S448 100.3 448 224c0 62.7-25.7 119.3-67.2 160H297.4zM232 80a24 24 0 1 1 0 48 24 24 0 1 1 0-48zm3.3 84.7l64 64c4.6 4.6 5.9 11.5 3.5 17.4s-8.3 9.9-14.8 9.9H271.5l44.8 53.8c4 4.8 4.8 11.4 2.2 17s-8.3 9.2-14.5 9.2H248v48H200V336H144c-6.2 0-11.9-3.6-14.5-9.2s-1.8-12.3 2.2-17L176.5 256H160c-6.5 0-12.3-3.9-14.8-9.9s-1.1-12.9 3.5-17.4l64-64c6.2-6.2 16.4-6.2 22.6 0zM328 144a24 24 0 1 1 0 48 24 24 0 1 1 0-48zM80 184a24 24 0 1 1 48 0 24 24 0 1 1 -48 0zM20.3 474.2L61.1 416H386.9l40.8 58.2c5.1 7.3 5.8 16.9 1.6 24.8S416.9 512 408 512H40c-8.9 0-17.2-5-21.3-12.9s-3.5-17.5 1.6-24.8z"/></svg>