<svg xmlns="http://www.w3.org/2000/svg" viewBox="0 0 512 512"><!--! Font Awesome Pro 6.4.0 by @fontawesome - https://fontawesome.com License - https://fontawesome.com/license (Commercial License) Copyright 2023 Fonticons, Inc. --><path d="M120 0c13.3 0 24 10.7 24 24v8h48V24c0-13.3 10.7-24 24-24s24 10.7 24 24v8h32V24c0-13.3 10.7-24 24-24s24 10.7 24 24v8h48V24c0-13.3 10.7-24 24-24s24 10.7 24 24v8V64 80v48 2.7c18.6 6.6 32 24.4 32 45.3v48c0 .9 0 1.8-.1 2.7c18.7 6.6 32.1 24.4 32.1 45.3v64c0 .9 0 1.8-.1 2.7c18.7 6.6 32.1 24.4 32.1 45.3v80c0 26.5-21.5 48-48 48H48c-26.5 0-48-21.5-48-48V384c0-20.9 13.4-38.7 32.1-45.3c0-.9-.1-1.8-.1-2.7V272c0-20.9 13.4-38.7 32.1-45.3c0-.9-.1-1.8-.1-2.7V176c0-20.9 13.4-38.7 32-45.3V128 80 64 32 24c0-13.3 10.7-24 24-24zm24 80v48H368V80H144zm-32 96v48h48V176H144 112zm208 48V176H192v48h32c0-17.7 14.3-32 32-32s32 14.3 32 32h32zm32-48v48h48V176H368 352zm0 96H160v64h64V320c0-17.7 14.3-32 32-32s32 14.3 32 32v16h64V272zm32 64h48V272H400 384v64zM128 464h80V448c0-26.5 21.5-48 48-48s48 21.5 48 48v16h80V384H352 160 128v80zm288 0h48V384H432 416v80zM128 272H112 80v64h48V272zM96 384H80 48v80H96V384z"/></svg>