<svg xmlns="http://www.w3.org/2000/svg" viewBox="0 0 640 512"><!--! Font Awesome Pro 6.4.0 by @fontawesome - https://fontawesome.com License - https://fontawesome.com/license (Commercial License) Copyright 2023 Fonticons, Inc. --><path d="M38.8 5.1C28.4-3.1 13.3-1.2 5.1 9.2S-1.2 34.7 9.2 42.9l592 464c10.4 8.2 25.5 6.3 33.7-4.1s6.3-25.5-4.1-33.7L412.3 297.8 432.9 240h32.5c10.6 0 20.8-4.2 28.3-11.7L513.9 208H568c22.1 0 40-17.9 40-40V104c0-22.1-17.9-40-40-40h-8V56c0-13.3-10.7-24-24-24s-24 10.7-24 24v8H113.9L38.8 5.1zM175.2 112H536h24v48H510.6c-10.6 0-20.8 4.2-28.3 11.7L462.1 192H299 277.2L175.2 112zM338.5 240h43.4l-9.5 26.6L338.5 240zM80 192V159L32 121.2V200c0 22.1 17.9 40 40 40h2c20.8 0 36.1 19.6 31 39.8L65 440.2c-2.4 9.6-.2 19.7 5.8 27.5S86.1 480 96 480H208c14.7 0 27.5-10 31-24.2L265 352h59.9l-91.4-72-38 152h-79l35.1-140.6c4.5-18.1 2.5-35.9-4.3-51.4h35.4l-60.9-48H100.8 80z"/></svg>