<svg xmlns="http://www.w3.org/2000/svg" viewBox="0 0 640 512"><!--! Font Awesome Pro 6.4.0 by @fontawesome - https://fontawesome.com License - https://fontawesome.com/license (Commercial License) Copyright 2023 Fonticons, Inc. --><path d="M48 88c0-13.3-10.7-24-24-24S0 74.7 0 88V248 424c0 13.3 10.7 24 24 24s24-10.7 24-24V272H272V424c0 13.3 10.7 24 24 24s24-10.7 24-24V248 88c0-13.3-10.7-24-24-24s-24 10.7-24 24V224H48V88zM440 64c-11.4 0-21.3 8.1-23.5 19.3l-32 160c-1.4 7.1 .4 14.4 5 19.9s11.4 8.8 18.6 8.8H528c35.3 0 64 28.7 64 64s-28.7 64-64 64H464.4c-13.8 0-26-8.8-30.4-21.9l-3.2-9.7c-4.2-12.6-17.8-19.4-30.4-15.2s-19.4 17.8-15.2 30.4l3.2 9.7C399.4 426 429.9 448 464.4 448H528c61.9 0 112-50.1 112-112s-50.1-112-112-112H437.3l22.4-112H584c13.3 0 24-10.7 24-24s-10.7-24-24-24H440z"/></svg>