<svg xmlns="http://www.w3.org/2000/svg" viewBox="0 0 448 512"><!--! Font Awesome Pro 6.4.0 by @fontawesome - https://fontawesome.com License - https://fontawesome.com/license (Commercial License) Copyright 2023 Fonticons, Inc. --><path d="M224 0c-35.3 0-64 28.7-64 64V184.5c-2.6-.3-5.3-.5-8-.5c-35.3 0-64 28.7-64 64v10.8c-2.4 1.9-4.7 3.9-6.9 5.9L60.8 283.2C42.5 299.9 32 323.5 32 348.3v10.2c0 54.1 28.7 104.1 75.4 131.3l2.6 1.5c23.2 13.6 49.7 20.7 76.6 20.7H312c66.3 0 120-53.7 120-120v-8V288c0-35.3-28.7-64-64-64c-5.3 0-10.5 .7-15.5 1.9c-10.8-20.2-32-33.9-56.5-33.9c-2.7 0-5.4 .2-8 .5V64c0-35.3-28.7-64-64-64zM208 64c0-8.8 7.2-16 16-16s16 7.2 16 16V232c0 10.3 6.6 19.5 16.4 22.8s20.6-.1 26.8-8.3c3-3.9 7.6-6.4 12.8-6.4c8.8 0 16 7.2 16 16v8c0 10.3 6.6 19.5 16.4 22.8s20.6-.1 26.8-8.3c3-3.9 7.6-6.4 12.8-6.4c8.8 0 16 7.2 16 16v96 8c0 39.8-32.2 72-72 72H186.6c-18.4 0-36.5-4.9-52.4-14.2l-11.7 20 11.7-20-2.6-1.5C99.6 429.7 80 395.5 80 358.5V348.3c0-11.3 4.8-22 13.1-29.6l10.9-9.9V344c0 8.8 7.2 16 16 16s16-7.2 16-16V271v-7V248c0-8.8 7.2-16 16-16c5.2 0 9.9 2.5 12.8 6.4c6.2 8.3 17 11.6 26.8 8.3s16.4-12.4 16.4-22.8V64z"/></svg>