<svg xmlns="http://www.w3.org/2000/svg" viewBox="0 0 576 512"><!--! Font Awesome Pro 6.4.0 by @fontawesome - https://fontawesome.com License - https://fontawesome.com/license (Commercial License) Copyright 2023 Fonticons, Inc. --><path d="M224 24c0-13.3 10.7-24 24-24h48c13.3 0 24 10.7 24 24V80h56c13.3 0 24 10.7 24 24v48c0 13.3-10.7 24-24 24H320v56c0 13.3-10.7 24-24 24H248c-13.3 0-24-10.7-24-24V176H168c-13.3 0-24-10.7-24-24V104c0-13.3 10.7-24 24-24h56V24zM187.4 352c-7.9 0-15.6 2.3-22.2 6.7L85.3 412c-3.9 2.6-8.6 4-13.3 4H24c-13.3 0-24-10.7-24-24s10.7-24 24-24H64.7l73.8-49.2C153 309.1 170 304 187.4 304H344c35.3 0 64 28.7 64 64c0 .7 0 1.3 0 2l64.9-40c10.7-6.6 22.9-10 35.5-10h7.4c33.3 0 60.3 27 60.3 60.3c0 20.4-10.4 39.5-27.5 50.6l-95.6 61.9c-19.4 12.6-42.1 19.3-65.2 19.3H24c-13.3 0-24-10.7-24-24s10.7-24 24-24H387.7c13.9 0 27.5-4 39.1-11.6l95.6-61.9c3.5-2.3 5.6-6.1 5.6-10.3c0-6.8-5.5-12.3-12.3-12.3h-7.4c-3.6 0-7.2 1-10.3 2.9l-93.5 57.5c-3.8 2.3-8.1 3.6-12.6 3.6H344 320 256c-13.3 0-24-10.7-24-24s10.7-24 24-24h64 24c8.8 0 16-7.2 16-16s-7.2-16-16-16H187.4z"/></svg>