<svg xmlns="http://www.w3.org/2000/svg" viewBox="0 0 576 512"><!--! Font Awesome Pro 6.4.0 by @fontawesome - https://fontawesome.com License - https://fontawesome.com/license (Commercial License) Copyright 2023 Fonticons, Inc. --><path d="M165.2 358.7c6.6-4.4 14.3-6.7 22.2-6.7H344c8.8 0 16 7.2 16 16s-7.2 16-16 16H320 256c-13.3 0-24 10.7-24 24s10.7 24 24 24h64 24 48c4.4 0 8.8-1.2 12.6-3.6l93.5-57.5c3.1-1.9 6.7-2.9 10.3-2.9h7.4c6.8 0 12.3 5.5 12.3 12.3c0 4.2-2.1 8-5.6 10.3l-95.6 61.9C415.1 460 401.5 464 387.7 464H24c-13.3 0-24 10.7-24 24s10.7 24 24 24H387.7c23.1 0 45.8-6.7 65.2-19.3l95.6-61.9c17.2-11.1 27.5-30.2 27.5-50.6c0-33.3-27-60.3-60.3-60.3h-7.4c-12.5 0-24.8 3.5-35.5 10L408 370c0-.7 0-1.3 0-2c0-35.3-28.7-64-64-64H187.4c-17.4 0-34.4 5.1-48.8 14.8L64.7 368H24c-13.3 0-24 10.7-24 24s10.7 24 24 24H72c4.7 0 9.4-1.4 13.3-4l79.9-53.3z"/></svg>