<svg xmlns="http://www.w3.org/2000/svg" viewBox="0 0 448 512"><!--! Font Awesome Pro 6.4.0 by @fontawesome - https://fontawesome.com License - https://fontawesome.com/license (Commercial License) Copyright 2023 Fonticons, Inc. --><path d="M96 64c0-35.3 28.7-64 64-64s64 28.7 64 64V96v64 .5c2.6-.3 5.3-.5 8-.5c24.5 0 45.7 13.7 56.5 33.9c5-1.2 10.2-1.9 15.5-1.9c23.9 0 44.8 13.1 55.7 32.5c2.7-.3 5.5-.5 8.3-.5c35.3 0 64 28.7 64 64v96 8c0 66.3-53.7 120-120 120H186.6c-26.9 0-53.3-7.1-76.6-20.7l-2.6-1.5C60.7 462.5 32 412.5 32 358.5V348.3c0-24.8 10.5-48.4 28.8-65.1l20.3-18.4c4.8-4.3 9.7-8.3 14.9-11.9V176H43.8c-6.5 0-11.8-5.3-11.8-11.8c0-3.9 1.9-7.5 5.1-9.7L75.6 128 37.1 101.5c-3.2-2.2-5.1-5.8-5.1-9.7C32 85.3 37.3 80 43.8 80H96V64zm48 112v88 2 78c0 8.8-7.2 16-16 16s-16-7.2-16-16V301.5L93.1 318.7C84.8 326.3 80 337 80 348.3v10.2c0 37 19.6 71.2 51.6 89.8l2.6 1.5-11.7 20 11.7-20c15.9 9.3 34 14.2 52.4 14.2H312c39.8 0 72-32.2 72-72v-8V288c0-8.8-7.2-16-16-16c-3.6 0-6.9 1.2-9.6 3.2c-7.3 5.5-17 6.3-25.1 2.3s-13.3-12.4-13.3-21.5c0-8.8-7.2-16-16-16c-5.2 0-9.9 2.5-12.8 6.4c-6.2 8.3-17 11.6-26.8 8.3s-16.4-12.4-16.4-22.8v-8c0-8.8-7.2-16-16-16c-5.2 0-9.9 2.5-12.8 6.4c-6.2 8.3-17 11.6-26.8 8.3s-16.4-12.4-16.4-22.8V176H144zm32-96V64c0-8.8-7.2-16-16-16s-16 7.2-16 16V80h32z"/></svg>