<svg xmlns="http://www.w3.org/2000/svg" viewBox="0 0 448 512"><!--! Font Awesome Pro 6.4.0 by @fontawesome - https://fontawesome.com License - https://fontawesome.com/license (Commercial License) Copyright 2023 Fonticons, Inc. --><path d="M0 56C0 42.7 10.7 32 24 32H136c13.3 0 24 10.7 24 24s-10.7 24-24 24H104V224H344V80H312c-13.3 0-24-10.7-24-24s10.7-24 24-24H424c13.3 0 24 10.7 24 24s-10.7 24-24 24H392V248 432h32c13.3 0 24 10.7 24 24s-10.7 24-24 24H312c-13.3 0-24-10.7-24-24s10.7-24 24-24h32V272H104V432h32c13.3 0 24 10.7 24 24s-10.7 24-24 24H24c-13.3 0-24-10.7-24-24s10.7-24 24-24H56V248 80H24C10.7 80 0 69.3 0 56z"/></svg>