<svg xmlns="http://www.w3.org/2000/svg" viewBox="0 0 512 512"><!--! Font Awesome Pro 6.4.0 by @fontawesome - https://fontawesome.com License - https://fontawesome.com/license (Commercial License) Copyright 2023 Fonticons, Inc. --><path d="M256 80C141.1 80 48 173.1 48 288V392c0 13.3-10.7 24-24 24s-24-10.7-24-24V288C0 146.6 114.6 32 256 32s256 114.6 256 256V392c0 13.3-10.7 24-24 24s-24-10.7-24-24V288c0-114.9-93.1-208-208-208zM160 432V320c-17.7 0-32 14.3-32 32v48c0 17.7 14.3 32 32 32zm0-160h16c17.7 0 32 14.3 32 32V448c0 17.7-14.3 32-32 32H160c-44.2 0-80-35.8-80-80V352c0-44.2 35.8-80 80-80zm192 48V432c17.7 0 32-14.3 32-32V352c0-17.7-14.3-32-32-32zm80 32v48c0 44.2-35.8 80-80 80H336c-17.7 0-32-14.3-32-32V304c0-17.7 14.3-32 32-32h16c44.2 0 80 35.8 80 80z"/></svg>