<svg xmlns="http://www.w3.org/2000/svg" viewBox="0 0 640 512"><!--! Font Awesome Pro 6.4.0 by @fontawesome - https://fontawesome.com License - https://fontawesome.com/license (Commercial License) Copyright 2023 Fonticons, Inc. --><path d="M128 24c0-13.3 10.7-24 24-24H552c13.3 0 24 10.7 24 24s-10.7 24-24 24H384v80h8 .1 .1 .1 .1 .1 .1 .1 .1 .1 .1 .1 .1 .1 .1 .1 .1 .1 .1 .1 .1 .1 .1 .1 .1 .1 .1 .1 .1 .1 .1 .1 .1 .1 .1 .1 .1 .1 .1 .1 .1 .1 .1 .1 .1 .1 .1 .1 .1 .1 .1 .1 .1 .1 .1 .1 .1 .1 .1 .1 .1 .1 .1 .1 .1 .1 .1 .1 .1 .1 .1 .1 .1 .1 .1 .1 .1 .1 .1 .1 .1 .1 .1 .1 .1 .1 .1 .1 .1 .1 .1 .1 .1 .1 .1 .1 .1 .1 .1 .1 .1 .1 .1 .1 .1 .1 .1 .1 .1 .1 .1 .1 .1 .1 .1 .1 .1 .1 .1 .1 .1 .1 .1 .1 .1 .1 .1 .1 .1 .1 .1 .1 .1 .1 .1 .1 .1 .1 .1 .1 .1 .1 .1 .1 .1 .1 .1 .1 .1 .1 .1 .1 .1 .1 .1 .1 .1 .1 .1 .1 .1 .1 .1 .1 .1 .1 .1 .1 .1 .1 .1 .1 .1 .1 .1 .1 .1 .1 .1 .1 .1 .1 .1 .1 .1 .1 .1 .1 .1 .1 .1 .1 .1 .1 .1 .1 .1 .1 .1 .1 .1 .1 .1 .1 .1 .1 .1 .1 .1 .1 .1 .1 .1 .1 .1 .1 .1 .1 .1 .1 .1 .1 .1 .1 .1 .1 .1 .1 .1 .1 .1 .1 .1 .1 .1 .1 .1 .1 .1 .1 .1 .1 .1 .1 .1 .1 .1 .1 .1 .1 .1 .1 .1 .1 .1 .1 .1 .1 .1 .1 .1 .1 .1 .1 .1 .1 .1 .1 .1 .1 .1 .1 .1 .1 .1 .1 .1 .1 .1 .1 .1 .1 .1 .1 .1 .1 .1 .1 .1 .1 .1 .1 .1 .1 .1 .1 .1 .1 .1 .1 .1 .1 .1 .1 .1 .1 .1 .1 .1 .1 .1 .1 .1 .1 .1 .1 .1 .1 .1 .1 .1 .1 .1 .1 .1 .1 .1 .1 .1 .1 .1 .1 .1 .1 .1 .1 .1 .1 .1 .1 .1 .1 .1 .1 .1 .1 .1 .1 .1 .1 .1 .1 .1 .1 .1 .1 .1 .1 .1 .1 .1 .1 .1 .1 .1 .1 .1 .1 .1 .1 .1 .1 .1 .1 .1 .1 .1 .1 .1 .1 .1 .1 .1 .1 .1 .1 .1 .1 .1 .1 .1 .1 .1 .1 .1 .1 .1 .1 .1 .1 .1 .1 .1 .1 .1 .1 .1 .1 .1 .1 .1 .1 .1 .1 .1 .1 .1 .1 .1 .1 .1 .1 .1 .1 .1 .1 .1 .1 .1 .1 .1 .1 .1 .1 .1 .1 .1 .1 .1 .1 .1 .1 .1 .1 .1 .1 .1 .1 .1 .1 .1 .1 .1 .1 .1 .1 .1 .1 .1 .1 .1 .1 .1 .1 .1 .1 .1 .1 .1 .1 .1 .1 .1 .1 .1 .1 .1 .1 .1 .1 .1 .1 .1 .1 .1 .1 .1 .1 .1 .1 .1 .1 .1 .1 .1 .1 .1 .1 .1 .1 .1 .1 .1 .1 .1 .1 .1 .1 .1 .1 .1 .1 .1c84 0 152 68.1 152 152v56c0 35.4-28.7 64-64 64h-.4-.4-.4-.4H510h-.4-.4-.4-.4-.4-.4-.4-.4-.4-.4-.4-.4-.4-.4-.4-.4-.4H503h-.4-.4-.4-.4-.4-.4-.4-.4-.4-.4-.4-.4H498h-.4-.4-.4-.4-.4-.4-.4-.4-.4-.4-.4-.4H493h-.4-.4-.4-.4-.4-.4-.4H490h-.4-.4-.4-.4-.4-.4-.4H487h-.4-.4-.4-.4-.4-.4-.4H484h-.4-.4-.4-.4-.4-.4-.4H481h-.4-.4-.4-.4-.4-.4-.4H478h-.4-.4-.4-.4-.4-.4-.4H475h-.4-.4-.4-.4-.4-.4-.4-.4-.4-.4H471h-.4-.4-.4-.4-.4-.4-.4-.4-.4-.4H467h-.4-.4-.4-.4-.4-.4-.4H464h-.4-.4-.4-.4-.4-.4-.4-.4-.4-.4H460h-.4-.4-.4-.4-.4-.4-.4-.4-.4-.4H456h-.4-.4-.4-.4-.4-.4-.4-.4-.4-.4-.4-.4-.4H451h-.4-.4-.4-.4-.4-.4-.4-.4-.4-.4H447h-.4-.4-.4-.4-.4-.4-.4-.4-.4-.4-.4-.4-.4H442h-.4-.4-.4-.4-.4-.4-.4-.4-.4-.4H438h-.4-.4H437h-.4-.4-.4-.4-.4-.4-.4-.4-.4-.4H433h-.4-.4-.4-.4-.4-.4-.4-.4-.4-.4-.4-.4-.4H428h-.4-.4-.4-.4-.4-.4-.4-.4-.4-.4-.4-.4-.4H423h-.4-.4-.4-.4-.4-.4-.4-.4-.4-.4-.4-.4-.4H418h-.4-.4-.4-.4-.4-.4-.4-.4-.4-.4H414h-.4-.4H413h-.4-.4-.4-.4-.4-.4-.4-.4-.4-.4H409h-.4-.4-.4-.4-.4-.4-.4-.4-.4-.4H405h-.4-.4H404h-.4-.4-.4-.4-.4-.4-.4-.4-.4-.4H400h-.4-.4-.4-.4-.4-.4-.4-.4-.4-.4H396h-.4-.4-.4-.4-.4-.4-.4-.4-.4-.4H392h-.4-.4-.4-.4-.4-.4-.4-.4-.4-.4H388h-.4-.4-.4-.4-.4-.4-.4H385h-.4-.4-.4-.4-.4-.4-.4-.4-.4-.4H381h-.4-.4-.4-.4-.4-.4-.4H378h-.4-.4-.4-.4-.4-.4-.4H375h-.4-.4-.4-.4-.4-.4-.4H372h-.4-.4-.4-.4-.4-.4-.4H369h-.4-.4-.4-.4-.4-.4-.4H366h-.4-.4-.4-.4-.4-.4-.4H363h-.4-.4-.4-.4-.4-.4-.4-.4-.4-.4-.4-.4H358h-.4-.4-.4-.4-.4-.4-.4-.4-.4-.4-.4-.4H353h-.4-.4-.4-.4-.4-.4-.4-.4-.4-.4-.4-.4-.4-.4-.4-.4-.4H346h-.4-.4-.4-.4H344h-.4-.4-.4-.4H342h-.4-.4-.4-.4-.4-.4-.4-.4-.4-.4-.4-.4-.4-.4-.4-.4-.4-.4-.4-.4-.4-.4-.4-.4H332h-.4-.4-.4-.4H330h-.4-.4-.4-.4H328h-.4-.4-.4-.4-.4-.4-.4-.4-.4-.4-.4-.4-.4-.4-.4-.4H321h-.4c-17 0-33.3-6.7-45.3-18.7l-88.1-88.1c-.7-.7-1.5-1.3-2.4-1.7L61.4 236.7c-16.6-7.4-28.6-22.4-32.2-40.2L12.3 111.8C7.3 87.1 26.3 64 51.5 64h6C73.6 64 89 71 99.6 83.1L138.9 128H336V48H152c-13.3 0-24-10.7-24-24zM76.3 187.1c.5 2.5 2.2 4.7 4.6 5.7l123.4 54.9c6.3 2.8 12 6.7 16.9 11.6l88.1 88.1c3 3 7.1 4.7 11.3 4.7h.4 .4 .4 .4 .4 .4 .4 .4 .4 .4 .4 .4 .4 .4 .4 .4 .4 .4 .4 .4 .4 .4 .4 .4 .4 .4 .4 .4 .4 .4 .4 .4 .4 .4 .4 .4 .4 .3V176H128c-6.9 0-13.5-3-18.1-8.2L63.5 114.7c-.6-.7-1.3-1.2-2-1.7l14.8 74zM384 352h.3 .4 .4 .4 .4 .4 .4 .4 .4 .4 .4 .4 .4 .4 .4 .4 .4 .4 .4 .4 .4 .4 .4 .4 .4 .4 .4 .4 .4 .4 .4 .4 .4 .4 .4 .4 .4 .4 .4 .4 .4 .4 .4 .4 .4 .4 .4 .4 .4 .4 .4 .4 .4 .4 .4 .4 .4 .4 .4 .4 .4 .4 .4 .4 .4 .4 .4 .4 .4 .4 .4 .4 .4 .4 .4 .4 .4 .4 .4 .4 .4 .4 .4 .4 .4 .4 .4 .4 .4 .4 .4 .4 .4 .4 .4 .4 .4 .4 .4 .4 .4 .4 .4 .4 .4 .4 .4 .4 .4 .4 .4 .4 .4 .4 .4 .4 .4 .4 .4 .4 .4 .4 .4 .4 .4 .4 .4 .4 .4 .4 .4 .4 .4 .4 .4 .4 .4 .4 .4 .4 .4 .4 .4 .4 .4 .4 .4 .4 .4 .4 .4 .4 .4 .4 .4 .4 .4 .4 .4 .4 .4 .4 .4 .4 .4 .4 .4 .4 .4 .4 .4 .4 .4 .4 .4 .4 .4 .4 .4 .4 .4 .4 .4 .4 .4 .4 .4 .4 .4 .4 .4 .4 .4 .4 .4 .4 .4 .4 .4 .4 .4 .4 .4 .4 .4 .4 .4 .4 .4 .4 .4 .4 .4 .4 .4 .4 .4 .4 .4 .4 .4 .4 .4 .4 .4 .4 .4 .4 .4 .4 .4 .4 .4 .4 .4 .4 .4 .4 .4 .4 .4 .4 .4 .4 .4 .4 .4 .4 .4 .4 .4 .4 .4 .4 .4 .4 .4 .4 .4 .4 .4 .4 .4 .4 .4 .4 .4 .4 .4 .4 .4 .4 .4 .4 .4 .4 .4 .4 .4 .4 .4 .4 .4 .4 .4 .4 .4 .4 .4 .4 .4 .4 .4 .4 .4 .4 .4 .4 .4 .4 .4 .4 .4 .4 .4 .4 .4 .4 .4 .4 .4 .4 .4 .4 .4 .4 .4 .4 .4 .4 .4 .4 .4 .4 .4 .4 .4 .4 .4 .4 .4 .4 .4 .4 .4 .4 .4 .4 .4 .4 .4 .4 .4 .4 .4 .4 .4 .4 .4c8.8 0 16-7.2 16-16V280c0-57.4-46.5-104-104-104H424h-.1-.1-.1-.1-.1-.1-.1-.1-.1-.1-.1-.1-.1-.1-.1H423h-.1-.1-.1-.1-.1-.1-.1-.1-.1-.1-.1-.1-.1-.1-.1H422 422h-.1-.1-.1-.1-.1-.1-.1-.1-.1-.1-.1-.1-.1-.1-.1H421 421h-.1-.1-.1-.1-.1-.1-.1-.1-.1-.1-.1-.1-.1-.1-.1H420h-.1-.1-.1-.1-.1-.1-.1-.1-.1-.1-.1-.1-.1-.1-.1H419 419h-.1-.1-.1-.1-.1-.1-.1-.1-.1-.1-.1-.1-.1-.1-.1H418h-.1-.1-.1-.1-.1-.1-.1-.1-.1-.1-.1-.1-.1-.1-.1H417 417h-.1-.1-.1-.1-.1-.1-.1-.1-.1-.1-.1-.1-.1-.1H416 416h-.1-.1-.1-.1-.1-.1-.1-.1-.1-.1-.1-.1-.1-.1-.1H415h-.1-.1-.1-.1-.1-.1-.1-.1-.1-.1-.1-.1-.1-.1-.1H414 414h-.1-.1-.1-.1-.1-.1-.1-.1-.1-.1-.1-.1-.1-.1H413 413h-.1-.1-.1-.1-.1-.1-.1-.1-.1-.1-.1-.1-.1-.1H412 412h-.1-.1-.1-.1-.1-.1-.1-.1-.1-.1-.1-.1-.1-.1H411 411h-.1-.1-.1-.1-.1-.1-.1-.1-.1-.1-.1-.1-.1-.1-.1H410h-.1-.1-.1-.1-.1-.1-.1-.1-.1-.1-.1-.1-.1-.1-.1H409h-.1-.1-.1-.1-.1-.1-.1-.1-.1-.1-.1-.1-.1-.1-.1H408h-.1-.1-.1-.1-.1-.1-.1-.1-.1-.1-.1-.1-.1-.1-.1H407h-.1-.1-.1-.1-.1-.1-.1-.1-.1-.1-.1-.1-.1-.1H406 406h-.1-.1-.1-.1-.1-.1-.1-.1-.1-.1-.1-.1-.1-.1H405 405h-.1-.1-.1-.1-.1-.1-.1-.1-.1-.1-.1-.1-.1-.1H404 404h-.1-.1-.1-.1-.1-.1-.1-.1-.1-.1-.1-.1-.1-.1H403h-.1-.1-.1-.1-.1-.1-.1-.1-.1-.1-.1-.1-.1-.1-.1H402h-.1-.1-.1-.1-.1-.1-.1-.1-.1-.1-.1-.1-.1-.1H401 401h-.1-.1-.1-.1-.1-.1-.1-.1-.1-.1-.1-.1-.1-.1H400 400h-.1-.1-.1-.1-.1-.1-.1-.1-.1-.1-.1-.1-.1-.1H399h-.1-.1-.1-.1-.1-.1-.1-.1-.1-.1-.1-.1-.1-.1H398 398h-.1-.1-.1-.1-.1-.1-.1-.1-.1-.1-.1-.1-.1-.1H397h-.1-.1-.1-.1-.1-.1-.1-.1-.1-.1-.1-.1-.1-.1H396 396h-.1-.1-.1-.1-.1-.1-.1-.1-.1-.1-.1-.1-.1-.1H395h-.1-.1-.1-.1-.1-.1-.1-.1-.1-.1-.1-.1-.1-.1H394 394h-.1-.1-.1-.1-.1-.1-.1-.1-.1-.1-.1-.1-.1H393 393h-.1-.1-.1-.1-.1-.1-.1-.1-.1-.1-.1-.1-.1-.1H392h-8V352zM631 474.7l-22.5 18c-15.6 12.5-35 19.3-55 19.3H248c-13.3 0-24-10.7-24-24s10.7-24 24-24H553.6c9.1 0 17.9-3.1 25-8.8l22.5-18c10.4-8.3 25.5-6.6 33.7 3.8s6.6 25.5-3.8 33.7z"/></svg>