<svg xmlns="http://www.w3.org/2000/svg" viewBox="0 0 576 512"><!--! Font Awesome Pro 6.4.0 by @fontawesome - https://fontawesome.com License - https://fontawesome.com/license (Commercial License) Copyright 2023 Fonticons, Inc. --><path d="M512 80c8.8 0 16 7.2 16 16V416c0 8.8-7.2 16-16 16H64c-8.8 0-16-7.2-16-16V96c0-8.8 7.2-16 16-16H512zM64 32C28.7 32 0 60.7 0 96V416c0 35.3 28.7 64 64 64H512c35.3 0 64-28.7 64-64V96c0-35.3-28.7-64-64-64H64zM304 184V328c0 13.3 10.7 24 24 24h56c53 0 96-43 96-96s-43-96-96-96H328c-13.3 0-24 10.7-24 24zm80 24c26.5 0 48 21.5 48 48s-21.5 48-48 48H352V208h32zM160 184c0-13.3-10.7-24-24-24s-24 10.7-24 24v72 72c0 13.3 10.7 24 24 24s24-10.7 24-24V280h64v48c0 13.3 10.7 24 24 24s24-10.7 24-24V256 184c0-13.3-10.7-24-24-24s-24 10.7-24 24v48H160V184z"/></svg>