<svg xmlns="http://www.w3.org/2000/svg" viewBox="0 0 576 512"><!--! Font Awesome Pro 6.4.0 by @fontawesome - https://fontawesome.com License - https://fontawesome.com/license (Commercial License) Copyright 2023 Fonticons, Inc. --><path d="M128 64a32 32 0 1 1 64 0 32 32 0 1 1 -64 0zm124.4 71.8c-2.7-4.9-2.7-10.8 0-15.7l27-48c2.8-5 8.2-8.2 13.9-8.2l53.3 0c5.8 0 11.1 3.1 13.9 8.2l27 48c2.7 4.9 2.7 10.8 0 15.7l-27 48c-2.8 5-8.2 8.2-13.9 8.2H293.4c-5.8 0-11.1-3.1-13.9-8.2l-27-48zM48 145.9V440c0 13.3 10.7 24 24 24H366.1L48 145.9zM0 126.6C0 91 43.1 73.1 68.3 98.3L413.7 443.7c25.2 25.2 7.4 68.3-28.3 68.3H72c-39.8 0-72-32.2-72-72V126.6zm504.2 277l-48-27c-5-2.8-8.2-8.2-8.2-13.9V309.4c0-5.8 3.1-11.1 8.2-13.9l48-27c4.9-2.7 10.8-2.7 15.7 0l48 27c5 2.8 8.2 8.2 8.2 13.9v53.3c0 5.8-3.1 11.1-8.2 13.9l-48 27c-4.9 2.7-10.8 2.7-15.7 0zM352 256a32 32 0 1 1 0 64 32 32 0 1 1 0-64z"/></svg>