<svg xmlns="http://www.w3.org/2000/svg" viewBox="0 0 576 512"><!-- Font Awesome Pro 6.0.0-alpha2 by @fontawesome - https://fontawesome.com License - https://fontawesome.com/license (Commercial License) --><path d="M575.999 248.025C575.999 241.218 573.121 234.455 567.531 229.695L303.531 5.701C299.051 1.9 293.525 0 288 0C282.474 0 276.948 1.9 272.468 5.701L8.468 229.695C2.878 234.455 0 241.218 0 248.025C0 264.157 13.859 272.003 23.999 272.003C29.488 272.003 35.006 270.132 39.531 266.319L63.999 245.556V448.004C63.999 483.348 92.653 512 127.999 512H448C483.346 512 512 483.348 512 448.004V245.556L536.468 266.319C541 270.131 546.5 272.006 552 272.006C562.1 272.006 575.999 264.075 575.999 248.025ZM464 448.002C464 456.802 456.8 464.001 448 464.001H127.999C119.199 464.001 111.999 456.802 111.999 448.002V208.008C111.999 207.045 111.562 206.225 111.451 205.291L288 55.481L464 204.827V448.002ZM224 224.008C224 259.352 252.654 288.006 288 288.006S352 259.352 352 224.008C352 188.661 323.345 160.009 288 160.009S224 188.661 224 224.008ZM256 320.011C211.816 320.011 176 355.825 176 400.006C176 408.842 183.164 416.005 192 416.005H383.999C392.835 416.005 399.999 408.842 399.999 400.006C399.999 355.825 364.183 320.011 319.999 320.011H256Z "></path></svg>