<svg xmlns="http://www.w3.org/2000/svg" viewBox="0 0 576 512"><!--! Font Awesome Pro 6.4.0 by @fontawesome - https://fontawesome.com License - https://fontawesome.com/license (Commercial License) Copyright 2023 Fonticons, Inc. --><path d="M64 48H256c8.8 0 16 7.2 16 16V415.7c11.3-20 27.9-36.7 48-47.9V271.8 64c0-35.3-28.7-64-64-64H64C28.7 0 0 28.7 0 64V448c0 35.3 28.7 64 64 64H256c3.2 0 6.4-.2 9.5-.7c-6-10-9.5-21.8-9.5-34.4c0-4.4 .2-8.7 .7-13c-.2 0-.4 0-.7 0H64c-8.8 0-16-7.2-16-16V416h88c13.3 0 24-10.7 24-24s-10.7-24-24-24H48V320h88c13.3 0 24-10.7 24-24s-10.7-24-24-24H48V64c0-8.8 7.2-16 16-16zm72 64v24H112c-8.8 0-16 7.2-16 16v16c0 8.8 7.2 16 16 16h24v24c0 8.8 7.2 16 16 16h16c8.8 0 16-7.2 16-16V184h24c8.8 0 16-7.2 16-16V152c0-8.8-7.2-16-16-16H184V112c0-8.8-7.2-16-16-16H152c-8.8 0-16 7.2-16 16zM512 272a80 80 0 1 0 -160 0 80 80 0 1 0 160 0zM288 477.1c0 19.3 15.6 34.9 34.9 34.9H541.1c19.3 0 34.9-15.6 34.9-34.9c0-51.4-41.7-93.1-93.1-93.1H381.1c-51.4 0-93.1 41.7-93.1 93.1z"/></svg>