<svg xmlns="http://www.w3.org/2000/svg" viewBox="0 0 640 512"><!--! Font Awesome Pro 6.4.0 by @fontawesome - https://fontawesome.com License - https://fontawesome.com/license (Commercial License) Copyright 2023 Fonticons, Inc. --><path d="M56 48c-4.4 0-8 3.6-8 8V203.8c0 2 .7 3.9 2 5.3l55.9 62.9c3.9 4.4 6.1 10.1 6.1 15.9V488c0 13.3-10.7 24-24 24s-24-10.7-24-24V297.1L14.1 241C5 230.8 0 217.5 0 203.8V56C0 25.1 25.1 0 56 0H296c30.9 0 56 25.1 56 56v68.6l-48 44V56c0-4.4-3.6-8-8-8H256V88c0 13.3-10.7 24-24 24s-24-10.7-24-24V48H144V88c0 13.3-10.7 24-24 24s-24-10.7-24-24V48H56zm120 96c22.1 0 40 17.9 40 40v40c0 8.8-7.2 16-16 16H152c-8.8 0-16-7.2-16-16V184c0-22.1 17.9-40 40-40zm100.8 93l128-117.3c24.5-22.4 62-22.4 86.5 0L619.2 237c13.2 12.1 20.8 29.2 20.8 47.2V448c0 35.3-28.7 64-64 64H320c-35.3 0-64-28.7-64-64V284.2c0-17.9 7.5-35.1 20.8-47.2zM304 284.2V448c0 8.8 7.2 16 16 16H576c8.8 0 16-7.2 16-16V284.2c0-4.5-1.9-8.8-5.2-11.8L458.8 155c-6.1-5.6-15.5-5.6-21.6 0l-128 117.3c-3.3 3-5.2 7.3-5.2 11.8zM400 296c0-13.3 10.7-24 24-24h48c13.3 0 24 10.7 24 24v48c0 13.3-10.7 24-24 24H424c-13.3 0-24-10.7-24-24V296z"/></svg>