<svg xmlns="http://www.w3.org/2000/svg" viewBox="0 0 640 512"><!--! Font Awesome Pro 6.4.0 by @fontawesome - https://fontawesome.com License - https://fontawesome.com/license (Commercial License) Copyright 2023 Fonticons, Inc. --><path d="M352 48H576c8.8 0 16 7.2 16 16V448c0 8.8-7.2 16-16 16H416c0 18-6 34.6-16 48H576c35.3 0 64-28.7 64-64V64c0-35.3-28.7-64-64-64H352c-35.3 0-64 28.7-64 64v60.6l48 44V64c0-8.8 7.2-16 16-16zm61.2 208H432c8.8 0 16-7.2 16-16V208c0-8.8-7.2-16-16-16H400c-8.8 0-16 7.2-16 16v4.6l6.1 5.6c11.2 10.3 19.2 23.4 23.1 37.9zm2.8 96h16c8.8 0 16-7.2 16-16V304c0-8.8-7.2-16-16-16H416v64zm64-144v32c0 8.8 7.2 16 16 16h32c8.8 0 16-7.2 16-16V208c0-8.8-7.2-16-16-16H496c-8.8 0-16 7.2-16 16zm16 80c-8.8 0-16 7.2-16 16v32c0 8.8 7.2 16 16 16h32c8.8 0 16-7.2 16-16V304c0-8.8-7.2-16-16-16H496zM400 96c-8.8 0-16 7.2-16 16v32c0 8.8 7.2 16 16 16h32c8.8 0 16-7.2 16-16V112c0-8.8-7.2-16-16-16H400zm80 16v32c0 8.8 7.2 16 16 16h32c8.8 0 16-7.2 16-16V112c0-8.8-7.2-16-16-16H496c-8.8 0-16 7.2-16 16zM20.8 237C7.5 249.1 0 266.2 0 284.2V448c0 35.3 28.7 64 64 64H320c35.3 0 64-28.7 64-64V284.2c0-17.9-7.5-35.1-20.8-47.2l-128-117.3c-24.5-22.4-62-22.4-86.5 0L20.8 237zM48 284.2c0-4.5 1.9-8.8 5.2-11.8L181.2 155c6.1-5.6 15.5-5.6 21.6 0l128 117.3c3.3 3 5.2 7.3 5.2 11.8V448c0 8.8-7.2 16-16 16H64c-8.8 0-16-7.2-16-16V284.2zM144 296v48c0 13.3 10.7 24 24 24h48c13.3 0 24-10.7 24-24V296c0-13.3-10.7-24-24-24H168c-13.3 0-24 10.7-24 24z"/></svg>