<svg xmlns="http://www.w3.org/2000/svg" viewBox="0 0 640 512"><!--! Font Awesome Pro 6.4.0 by @fontawesome - https://fontawesome.com License - https://fontawesome.com/license (Commercial License) Copyright 2023 Fonticons, Inc. --><path d="M224.8 5.4c8.8-7.2 21.5-7.2 30.3 0l216 176c10.3 8.4 11.8 23.5 3.4 33.8s-23.5 11.8-33.8 3.4L416 198.4V240H368V159.3L240 55 112 159.3V360c0 4.4 3.6 8 8 8H272v48H120c-30.9 0-56-25.1-56-56V198.4L39.2 218.6c-10.3 8.4-25.4 6.8-33.8-3.4s-6.8-25.4 3.4-33.8l216-176zM288 216v45.7c-6 6.8-10.6 14.9-13.3 23.8c-3.2 1.6-6.9 2.5-10.7 2.5H216c-13.3 0-24-10.7-24-24V216c0-13.3 10.7-24 24-24h48c13.3 0 24 10.7 24 24zm64 104V464H544V320H352zm-48-16c0-17.7 14.3-32 32-32H560c17.7 0 32 14.3 32 32V464h36c6.6 0 12 5.4 12 12c0 19.9-16.1 36-36 36H592 544 352 304 292c-19.9 0-36-16.1-36-36c0-6.6 5.4-12 12-12h36V304z"/></svg>