<svg xmlns="http://www.w3.org/2000/svg" viewBox="0 0 576 512"><!--! Font Awesome Pro 6.4.0 by @fontawesome - https://fontawesome.com License - https://fontawesome.com/license (Commercial License) Copyright 2023 Fonticons, Inc. --><path d="M256 0c-17.7 0-32 14.3-32 32V96c0 17.7 14.3 32 32 32h64c17.7 0 32-14.3 32-32V32c0-17.7-14.3-32-32-32H256zM192 64H64C28.7 64 0 92.7 0 128V448c0 35.3 28.7 64 64 64H512c35.3 0 64-28.7 64-64V128c0-35.3-28.7-64-64-64H384v48H512c8.8 0 16 7.2 16 16V448c0 8.8-7.2 16-16 16H64c-8.8 0-16-7.2-16-16V128c0-8.8 7.2-16 16-16H192V64zm96 240a64 64 0 1 0 0-128 64 64 0 1 0 0 128zm-32 32c-44.2 0-80 35.8-80 80c0 8.8 7.2 16 16 16H384c8.8 0 16-7.2 16-16c0-44.2-35.8-80-80-80H256z"/></svg>