<svg xmlns="http://www.w3.org/2000/svg" viewBox="0 0 576 512"><!--! Font Awesome Pro 6.4.0 by @fontawesome - https://fontawesome.com License - https://fontawesome.com/license (Commercial License) Copyright 2023 Fonticons, Inc. --><path d="M64 112c-8.8 0-16 7.2-16 16V384c0 8.8 7.2 16 16 16H83.8l80.8-110.2c4.5-6.2 11.7-9.8 19.4-9.8s14.8 3.6 19.4 9.8L232.8 330l83.1-127.1c4.4-6.8 12-10.9 20.1-10.9s15.7 4.1 20.1 10.9L485 400h27c8.8 0 16-7.2 16-16V128c0-8.8-7.2-16-16-16H64zM96 448H64c-35.3 0-64-28.7-64-64V128C0 92.7 28.7 64 64 64H512c35.3 0 64 28.7 64 64V384c0 35.3-28.7 64-64 64H472 272 200 96zm64-288a32 32 0 1 1 0 64 32 32 0 1 1 0-64z"/></svg>