<svg xmlns="http://www.w3.org/2000/svg" viewBox="0 0 512 512"><!--! Font Awesome Pro 6.4.0 by @fontawesome - https://fontawesome.com License - https://fontawesome.com/license (Commercial License) Copyright 2023 Fonticons, Inc. --><path d="M280 288c0 13.3-10.7 24-24 24s-24-10.7-24-24V81.9l-63 63c-9.4 9.4-24.6 9.4-33.9 0s-9.4-24.6 0-33.9L239 7c9.4-9.4 24.6-9.4 33.9 0L377 111c9.4 9.4 9.4 24.6 0 33.9s-24.6 9.4-33.9 0l-63-63V288zM149.1 405.5L130.3 368H48v96H464V368H381.7l-18.7 37.5C354.8 421.7 338.2 432 320 432H192c-18.2 0-34.8-10.3-42.9-26.5zm24.2-58.9L192 384H320l18.7-37.5c8.1-16.3 24.8-26.5 42.9-26.5H464c26.5 0 48 21.5 48 48v96c0 26.5-21.5 48-48 48H48c-26.5 0-48-21.5-48-48V368c0-26.5 21.5-48 48-48h82.3c18.2 0 34.8 10.3 42.9 26.5z"/></svg>