<svg xmlns="http://www.w3.org/2000/svg" viewBox="0 0 320 512"><!--! Font Awesome Pro 6.4.0 by @fontawesome - https://fontawesome.com License - https://fontawesome.com/license (Commercial License) Copyright 2023 Fonticons, Inc. --><path d="M0 56C0 42.7 10.7 32 24 32h80H296c13.3 0 24 10.7 24 24s-10.7 24-24 24H211.3c17.7 19.8 30.1 44.6 34.7 72h50c13.3 0 24 10.7 24 24s-10.7 24-24 24H246c-11.4 68.1-70.7 120-142 120H98.9L261.9 436.5c10.8 7.7 13.3 22.7 5.6 33.5s-22.7 13.3-33.5 5.6l-224-160C1.6 309.5-2 298.6 1.1 288.7S13.6 272 24 272h80c44.7 0 82.3-30.6 93-72H24c-13.3 0-24-10.7-24-24s10.7-24 24-24H197c-10.7-41.4-48.2-72-93-72H24C10.7 80 0 69.3 0 56z"/></svg>