<svg xmlns="http://www.w3.org/2000/svg" viewBox="0 0 320 512"><!--! Font Awesome Pro 6.4.0 by @fontawesome - https://fontawesome.com License - https://fontawesome.com/license (Commercial License) Copyright 2023 Fonticons, Inc. --><path d="M32 24c0 13.3 10.7 24 24 24H264c13.3 0 24-10.7 24-24s-10.7-24-24-24H56C42.7 0 32 10.7 32 24zM256 128c8.8 0 16 7.2 16 16v80H48V144c0-8.8 7.2-16 16-16H256zm16 240v80c0 8.8-7.2 16-16 16H64c-8.8 0-16-7.2-16-16V368H272zM64 80C28.7 80 0 108.7 0 144V448c0 35.3 28.7 64 64 64H256c35.3 0 64-28.7 64-64V144c0-35.3-28.7-64-64-64H64z"/></svg>