<svg xmlns="http://www.w3.org/2000/svg" viewBox="0 0 640 512"><!--! Font Awesome Pro 6.4.0 by @fontawesome - https://fontawesome.com License - https://fontawesome.com/license (Commercial License) Copyright 2023 Fonticons, Inc. --><path d="M216 0h23.8 .4H296c13.3 0 24 10.7 24 24s-10.7 24-24 24h-6.9c4.7 6.1 9.8 12.6 15.1 19.6c25.3 32.8 56.8 74.1 81.8 108.4h97.1c5.7 0 11.3 .9 16.7 2.5l108.1 33.8C627 218.3 640 236 640 256s-13 37.7-32.1 43.7L499.8 333.4c-5.4 1.7-11 2.6-16.7 2.6H386L288.5 464H296c13.3 0 24 10.7 24 24s-10.7 24-24 24H240.2h-.5H216 184c-13.3 0-24-10.7-24-24s10.7-24 24-24h8V336H177.9l-31.6 31.6c-10.5 10.5-24.7 16.4-39.6 16.4H88c-30.9 0-56-25.1-56-56V280H24c-13.3 0-24-10.7-24-24s10.7-24 24-24h8V184c0-30.9 25.1-56 56-56h18.7c14.9 0 29.1 5.9 39.6 16.4L177.9 176H192V48h-8c-13.3 0-24-10.7-24-24s10.7-24 24-24h32zm24 176h86.4c-19.9-26.7-41.6-55.1-60.1-79.1C256.3 84 247.3 72.4 240 63V176zM80 280v48c0 4.4 3.6 8 8 8h18.7c2.1 0 4.2-.8 5.7-2.3L151 295c4.5-4.5 10.6-7 17-7H483.1c.8 0 1.6-.1 2.4-.4L586.7 256 485.5 224.4c-.8-.2-1.6-.4-2.4-.4H168c-6.4 0-12.5-2.5-17-7l-38.6-38.6c-1.5-1.5-3.5-2.3-5.7-2.3H88c-4.4 0-8 3.6-8 8v48h56c13.3 0 24 10.7 24 24s-10.7 24-24 24H80zm160 56V448.4L325.6 336H240z"/></svg>