<svg xmlns="http://www.w3.org/2000/svg" viewBox="0 0 448 512"><!--! Font Awesome Pro 6.4.0 by @fontawesome - https://fontawesome.com License - https://fontawesome.com/license (Commercial License) Copyright 2023 Fonticons, Inc. --><path d="M224 48a64 64 0 1 1 0 128 64 64 0 1 1 0-128zm24 173.4c50.3-11 88-55.8 88-109.4C336 50.1 285.9 0 224 0S112 50.1 112 112c0 53.6 37.7 98.4 88 109.4V320h48V221.4zM96 320c-17.7 0-32 14.3-32 32c-35.3 0-64 28.7-64 64v32c0 35.3 28.7 64 64 64H384c35.3 0 64-28.7 64-64V416c0-35.3-28.7-64-64-64H128c0-17.7-14.3-32-32-32zm0 80H384c8.8 0 16 7.2 16 16v32c0 8.8-7.2 16-16 16H64c-8.8 0-16-7.2-16-16V416c0-8.8 7.2-16 16-16H96z"/></svg>