<svg xmlns="http://www.w3.org/2000/svg" viewBox="0 0 576 512"><!--! Font Awesome Pro 6.4.0 by @fontawesome - https://fontawesome.com License - https://fontawesome.com/license (Commercial License) Copyright 2023 Fonticons, Inc. --><path d="M288 48.8L490.4 112 288 175.2 85.6 112 288 48.8zm9.5 173.8l230.5-72v45.7L292.8 269.7c-3.1 1-6.4 1-9.5 0L48 196.2V150.5l230.5 72c6.2 1.9 12.9 1.9 19.1 0zM48 229.8l225.7 70.5c9.3 2.9 19.3 2.9 28.6 0L528 229.8v30.5l-4.8 1.5c-8.4 2.6-13.1 11.6-10.5 20c2.1 6.8 8.5 11.2 15.3 11.2v95.2l-240 75-240-75V293c6.8 0 13.1-4.4 15.3-11.2c2.6-8.4-2.1-17.4-10.5-20L48 260.2V229.8zM22.5 81.5C9.1 85.6 0 98 0 112V400c0 14 9.1 26.4 22.5 30.5l256 80c6.2 1.9 12.9 1.9 19.1 0l256-80C566.9 426.4 576 414 576 400V112c0-14-9.1-26.4-22.5-30.5l-256-80c-6.2-1.9-12.9-1.9-19.1 0l-256 80zm94.3 200.3c-8.4-2.6-17.4 2.1-20 10.5s2.1 17.4 10.5 20l64 20c8.4 2.6 17.4-2.1 20-10.5s-2.1-17.4-10.5-20l-64-20zm352 30.5c8.4-2.6 13.1-11.6 10.5-20s-11.6-13.1-20-10.5l-64 20c-8.4 2.6-13.1 11.6-10.5 20s11.6 13.1 20 10.5l64-20zm-224 9.5c-8.4-2.6-17.4 2.1-20 10.5s2.1 17.4 10.5 20l38.5 12c9.3 2.9 19.3 2.9 28.6 0l38.5-12c8.4-2.6 13.1-11.6 10.5-20s-11.6-13.1-20-10.5l-38.5 12c-3.1 1-6.4 1-9.5 0l-38.5-12z"/></svg>