<svg xmlns="http://www.w3.org/2000/svg" viewBox="0 0 576 512"><!--! Font Awesome Pro 6.4.0 by @fontawesome - https://fontawesome.com License - https://fontawesome.com/license (Commercial License) Copyright 2023 Fonticons, Inc. --><path d="M64 48c-8.8 0-16 7.2-16 16V240c0 8.8 7.2 16 16 16H512c8.8 0 16-7.2 16-16V64c0-8.8-7.2-16-16-16H64zM0 64C0 28.7 28.7 0 64 0H512c35.3 0 64 28.7 64 64V240c0 35.3-28.7 64-64 64H64c-35.3 0-64-28.7-64-64V64zM159 359c9.4-9.4 24.6-9.4 33.9 0l95 95 95-95c9.4-9.4 24.6-9.4 33.9 0s9.4 24.6 0 33.9L305 505c-4.5 4.5-10.6 7-17 7s-12.5-2.5-17-7L159 393c-9.4-9.4-9.4-24.6 0-33.9zm1-167c0-8.8 7.2-16 16-16H400c8.8 0 16 7.2 16 16v16c0 8.8-7.2 16-16 16H176c-8.8 0-16-7.2-16-16V192zM120 88h16c8.8 0 16 7.2 16 16v16c0 8.8-7.2 16-16 16H120c-8.8 0-16-7.2-16-16V104c0-8.8 7.2-16 16-16zm64 16c0-8.8 7.2-16 16-16h16c8.8 0 16 7.2 16 16v16c0 8.8-7.2 16-16 16H200c-8.8 0-16-7.2-16-16V104zm96-16h16c8.8 0 16 7.2 16 16v16c0 8.8-7.2 16-16 16H280c-8.8 0-16-7.2-16-16V104c0-8.8 7.2-16 16-16zm64 16c0-8.8 7.2-16 16-16h16c8.8 0 16 7.2 16 16v16c0 8.8-7.2 16-16 16H360c-8.8 0-16-7.2-16-16V104zm96-16h16c8.8 0 16 7.2 16 16v16c0 8.8-7.2 16-16 16H440c-8.8 0-16-7.2-16-16V104c0-8.8 7.2-16 16-16z"/></svg>