<svg xmlns="http://www.w3.org/2000/svg" viewBox="0 0 640 512"><!--! Font Awesome Pro 6.4.0 by @fontawesome - https://fontawesome.com License - https://fontawesome.com/license (Commercial License) Copyright 2023 Fonticons, Inc. --><path d="M182 257.1l0 0 0 0c.2 1.8 .4 3.4 .5 4.9c4 39.7-27.2 74-66.8 74c-27.2 0-40.8-10.9-50.4-27.7C53.7 288 48 257.7 48 224c0-36.3 11.4-83.8 33.4-120.8c22-37 48.8-55.2 78.3-55.2c35.5 0 64.3 20.2 70.4 41.3L115.7 336 230.1 89.3c5.2 18.2 .1 35-22.1 60.1c-33.6 37.9-28.6 83.7-26 107.6zM276.2 76.2C262.2 26.9 207.7 0 159.7 0C53.7 0 0 135.2 0 224c0 74.9 24.3 160 115.7 160c68.1 0 121.3-58.9 114.6-126.8l-.3-2.8c-.2-1.6-.3-3.2-.5-4.8l22.1 11c2.7 1.4 4.4 4.1 4.4 7.2V488c0 13.3 10.7 24 24 24s24-10.7 24-24V267.8c0-21.2-12-40.6-31-50.1l-38.3-19.2c-.5-.2-.9-.4-1.4-.6c2.4-5.7 5.8-11.3 10.5-16.6c26.6-30 44.2-63.6 32.4-105.1zM406.6 197.9c-.5 .2-.9 .4-1.4 .6L367 217.7c-19 9.5-31 28.9-31 50.1V488c0 13.3 10.7 24 24 24s24-10.7 24-24V267.8c0-3 1.7-5.8 4.4-7.2l22.1-11c-.2 1.6-.3 3.2-.5 4.8l-.3 2.8C403 325.1 456.2 384 524.3 384C615.7 384 640 298.9 640 224C640 135.2 586.3 0 480.3 0c-48 0-102.5 26.9-116.5 76.2c-11.8 41.5 5.8 75.2 32.4 105.1c4.7 5.3 8.1 10.9 10.5 16.6zM432 149.5c-22.3-25.1-27.3-41.9-22.1-60.1L524.3 336 409.9 89.3C416 68.2 444.8 48 480.3 48c29.5 0 56.4 18.2 78.3 55.2c22 37 33.4 84.5 33.4 120.8c0 33.7-5.7 64-17.3 84.3c-9.6 16.8-23.3 27.7-50.4 27.7c-39.6 0-70.8-34.3-66.8-74c.2-1.5 .3-3.1 .5-4.9l0 0c2.6-23.9 7.6-69.7-26-107.6z"/></svg>