<svg xmlns="http://www.w3.org/2000/svg" viewBox="0 0 576 512"><!--! Font Awesome Pro 6.4.0 by @fontawesome - https://fontawesome.com License - https://fontawesome.com/license (Commercial License) Copyright 2023 Fonticons, Inc. --><path d="M240 144A96 96 0 1 0 48 144a96 96 0 1 0 192 0zm46 24c-11.4 68.1-70.7 120-142 120C64.5 288 0 223.5 0 144S64.5 0 144 0c71.4 0 130.6 51.9 142 120h66.7c3.8-22.7 23.6-40 47.3-40h96c26.5 0 48 21.5 48 48v32c0 26.5-21.5 48-48 48H400c-23.8 0-43.5-17.3-47.3-40H286zM80 144a64 64 0 1 1 128 0A64 64 0 1 1 80 144zM376 264c0-13.3 10.7-24 24-24s24 10.7 24 24v8h40 56c13.3 0 24 10.7 24 24s-10.7 24-24 24h-8V464c0 26.5-21.5 48-48 48H336c-26.5 0-48-21.5-48-48V320h-8c-13.3 0-24-10.7-24-24s10.7-24 24-24h56 40v-8zm-40 56V464H464V320H336zM32 336c0-8.8 7.2-16 16-16h80 16 32c26.5 0 48 21.5 48 48s-21.5 48-48 48H160c0 17.7-14.3 32-32 32H64c-17.7 0-32-14.3-32-32V336zm128 48h16c8.8 0 16-7.2 16-16s-7.2-16-16-16H160v32zM0 488c0-13.3 10.7-24 24-24H200c13.3 0 24 10.7 24 24s-10.7 24-24 24H24c-13.3 0-24-10.7-24-24zM400 128v32h96V128H400z"/></svg>