<svg xmlns="http://www.w3.org/2000/svg" viewBox="0 0 640 512"><!--! Font Awesome Pro 6.4.0 by @fontawesome - https://fontawesome.com License - https://fontawesome.com/license (Commercial License) Copyright 2023 Fonticons, Inc. --><path d="M38.8 5.1C28.4-3.1 13.3-1.2 5.1 9.2S-1.2 34.7 9.2 42.9l592 464c10.4 8.2 25.5 6.3 33.7-4.1s6.3-25.5-4.1-33.7l-20.3-15.9c18.2-17.5 29.5-42 29.5-69.2c0-17.7-14.3-32-32-32H481.4L134.4 80H512c8.8 0 16 7.2 16 16V320h48V96c0-35.3-28.7-64-64-64H128c-14.4 0-27.8 4.8-38.5 12.9L38.8 5.1zM542.6 400h46.6c-3.3 9.3-9.4 17.3-17.3 23l-29.4-23zM426.3 432H96c-20.9 0-38.7-13.4-45.3-32H385.7l-60.9-48H32c-17.7 0-32 14.3-32 32c0 53 43 96 96 96H487.2l-60.9-48zM112 184.4L64 146.6V320h48V184.4z"/></svg>