<svg xmlns="http://www.w3.org/2000/svg" viewBox="0 0 640 512"><!--! Font Awesome Pro 6.4.0 by @fontawesome - https://fontawesome.com License - https://fontawesome.com/license (Commercial License) Copyright 2023 Fonticons, Inc. --><path d="M128 80H512c8.8 0 16 7.2 16 16V320h48V96c0-35.3-28.7-64-64-64H128C92.7 32 64 60.7 64 96V320h48V96c0-8.8 7.2-16 16-16zM50.7 400H589.3c-6.6 18.6-24.4 32-45.3 32H96c-20.9 0-38.7-13.4-45.3-32zM32 352c-17.7 0-32 14.3-32 32c0 53 43 96 96 96H544c53 0 96-43 96-96c0-17.7-14.3-32-32-32H32zM200 128c-22.1 0-40 17.9-40 40v32c0 22.1 17.9 40 40 40h16c22.1 0 40-17.9 40-40V168c0-22.1-17.9-40-40-40H200zm-8 40c0-4.4 3.6-8 8-8h16c4.4 0 8 3.6 8 8v32c0 4.4-3.6 8-8 8H200c-4.4 0-8-3.6-8-8V168zm112-40c-8.8 0-16 7.2-16 16s7.2 16 16 16v64c0 8.8 7.2 16 16 16s16-7.2 16-16V144c0-8.8-7.2-16-16-16H304zm80 40v32c0 22.1 17.9 40 40 40h16c22.1 0 40-17.9 40-40V168c0-22.1-17.9-40-40-40H424c-22.1 0-40 17.9-40 40zm40-8h16c4.4 0 8 3.6 8 8v32c0 4.4-3.6 8-8 8H424c-4.4 0-8-3.6-8-8V168c0-4.4 3.6-8 8-8zM192 272c-8.8 0-16 7.2-16 16s7.2 16 16 16v16h32V288c0-8.8-7.2-16-16-16H192zm240 0H416c-8.8 0-16 7.2-16 16s7.2 16 16 16v16h32V288c0-8.8-7.2-16-16-16zm-64 40c0-22.1-17.9-40-40-40H312c-22.1 0-40 17.9-40 40v8h32v-8c0-4.4 3.6-8 8-8h16c4.4 0 8 3.6 8 8v8h32v-8z"/></svg>