<svg xmlns="http://www.w3.org/2000/svg" viewBox="0 0 640 512"><!--! Font Awesome Pro 6.4.0 by @fontawesome - https://fontawesome.com License - https://fontawesome.com/license (Commercial License) Copyright 2023 Fonticons, Inc. --><path d="M128 80H512c8.8 0 16 7.2 16 16V320h48V96c0-35.3-28.7-64-64-64H128C92.7 32 64 60.7 64 96V320h48V96c0-8.8 7.2-16 16-16zM50.7 400H589.3c-6.6 18.6-24.4 32-45.3 32H96c-20.9 0-38.7-13.4-45.3-32zM32 352c-17.7 0-32 14.3-32 32c0 53 43 96 96 96H544c53 0 96-43 96-96c0-17.7-14.3-32-32-32H32zM288 144v48H240c-8.8 0-16 7.2-16 16v32c0 8.8 7.2 16 16 16h48v48c0 8.8 7.2 16 16 16h32c8.8 0 16-7.2 16-16V256h48c8.8 0 16-7.2 16-16V208c0-8.8-7.2-16-16-16H352V144c0-8.8-7.2-16-16-16H304c-8.8 0-16 7.2-16 16z"/></svg>