<svg xmlns="http://www.w3.org/2000/svg" viewBox="0 0 512 512"><!-- Font Awesome Pro 6.0.0-alpha2 by @fontawesome - https://fontawesome.com License - https://fontawesome.com/license (Commercial License) --><path d="M485.844 345.527C473.562 340.465 459.562 346.371 454.562 358.684C451.25 366.779 452.687 375.623 457.562 382.123L255.438 463.967L54.406 382.154C59.312 375.623 60.75 366.779 57.438 358.684C52.438 346.371 38.406 340.465 26.156 345.527C10.281 351.996 0 367.092 0 383.998S10.281 415.998 26.156 422.467L237.5 508.5C243.344 510.812 249.656 512 255.938 512C262.313 512 268.688 510.812 274.688 508.406L485.844 422.467C501.719 415.998 512 400.904 512 383.998S501.719 351.996 485.844 345.527ZM485.844 217.525L274.5 131.494C262.75 126.805 249.25 126.836 237.312 131.588L26.156 217.525C10.281 223.994 0 239.088 0 255.996C0 272.902 10.281 287.996 26.156 294.465L237.5 380.498C243.344 382.811 249.656 383.998 255.938 383.998C262.313 383.998 268.688 382.811 274.688 380.404L485.844 294.465C501.719 287.996 512 272.902 512 255.996C512 239.088 501.719 223.994 485.844 217.525ZM255.438 335.965L59 256.027L256.562 176.025L453 255.965L255.438 335.965ZM376 104H488C501.25 104 512 93.25 512 80S501.25 56 488 56H376C362.75 56 352 66.75 352 80S362.75 104 376 104Z"/></svg>