<svg xmlns="http://www.w3.org/2000/svg" viewBox="0 0 512 512"><!-- Font Awesome Pro 6.0.0-alpha2 by @fontawesome - https://fontawesome.com License - https://fontawesome.com/license (Commercial License) --><path d="M26.156 166.464L237.5 252.497C243.344 254.809 249.656 255.997 255.938 255.997C262.313 255.997 268.688 254.809 274.688 252.403L485.844 166.464C501.719 159.996 512 144.902 512 127.995S501.719 95.995 485.844 89.526L274.5 3.494C262.75 -1.194 249.25 -1.163 237.312 3.587L26.156 89.526C10.281 95.995 0 111.089 0 127.995S10.281 159.996 26.156 166.464ZM256.562 48.025L453 127.964L255.438 207.965L59 128.026L256.562 48.025ZM485.844 345.529C473.562 340.498 459.562 346.404 454.562 358.686C451.25 366.779 452.687 375.623 457.562 382.123L255.438 463.968L54.406 382.155C59.312 375.623 60.75 366.779 57.438 358.686C52.438 346.404 38.406 340.498 26.156 345.529C10.281 351.998 0 367.092 0 383.998C0 400.905 10.281 415.999 26.156 422.468L237.5 508.5C243.344 510.812 249.656 512 255.938 512C262.313 512 268.688 510.812 274.688 508.406L485.844 422.468C501.719 415.999 512 400.905 512 383.998C512 367.092 501.719 351.998 485.844 345.529ZM485.844 217.528C473.562 212.465 459.562 218.371 454.562 230.684C451.25 238.778 452.687 247.622 457.562 254.122L255.438 335.967L54.406 254.153C59.312 247.622 60.75 238.778 57.438 230.684C52.438 218.371 38.406 212.465 26.156 217.528C10.281 223.996 0 239.09 0 255.997S10.281 287.997 26.156 294.466L237.5 380.498C243.344 382.811 249.656 383.998 255.938 383.998C262.313 383.998 268.688 382.811 274.688 380.405L485.844 294.466C501.719 287.997 512 272.903 512 255.997S501.719 223.996 485.844 217.528Z"/></svg>