<svg xmlns="http://www.w3.org/2000/svg" viewBox="0 0 640 512"><!--! Font Awesome Pro 6.4.0 by @fontawesome - https://fontawesome.com License - https://fontawesome.com/license (Commercial License) Copyright 2023 Fonticons, Inc. --><path d="M69.3 36c-11-7.4-25.9-4.4-33.3 6.7s-4.4 25.9 6.7 33.3l48 32c11 7.4 25.9 4.4 33.3-6.7s4.4-25.9-6.7-33.3l-48-32zM597.3 76c11-7.4 14-22.3 6.7-33.3s-22.3-14-33.3-6.7l-48 32c-11 7.4-14 22.3-6.7 33.3s22.3 14 33.3 6.7l48-32zM24 192c-13.3 0-24 10.7-24 24s10.7 24 24 24H72c13.3 0 24-10.7 24-24s-10.7-24-24-24H24zm544 0c-13.3 0-24 10.7-24 24s10.7 24 24 24h48c13.3 0 24-10.7 24-24s-10.7-24-24-24H568zM448 208v96h48V208c0-97.2-78.8-176-176-176s-176 78.8-176 176v96h48V208c0-70.7 57.3-128 128-128s128 57.3 128 128zM144 432V384H496v48H144zM96 384v48c0 26.5 21.5 48 48 48H496c26.5 0 48-21.5 48-48V384c0-26.5-21.5-48-48-48H144c-26.5 0-48 21.5-48 48zM320 144c8.8 0 16-7.2 16-16s-7.2-16-16-16c-53 0-96 43-96 96c0 8.8 7.2 16 16 16s16-7.2 16-16c0-35.3 28.7-64 64-64z"/></svg>