<svg xmlns="http://www.w3.org/2000/svg" viewBox="0 0 384 512"><!--! Font Awesome Pro 6.4.0 by @fontawesome - https://fontawesome.com License - https://fontawesome.com/license (Commercial License) Copyright 2023 Fonticons, Inc. --><path d="M169.4 48c3.3 9.3 12.2 16 22.6 16s19.3-6.7 22.6-16H320c8.8 0 16 7.2 16 16V448c0 8.8-7.2 16-16 16H214.6c-3.3-9.3-12.2-16-22.6-16s-19.3 6.7-22.6 16H64c-8.8 0-16-7.2-16-16V64c0-8.8 7.2-16 16-16H169.4zM64 0C28.7 0 0 28.7 0 64V448c0 35.3 28.7 64 64 64H320c35.3 0 64-28.7 64-64V64c0-35.3-28.7-64-64-64H64zm80 256h96V368H144V256zm0-160c-26.5 0-48 21.5-48 48V368c0 26.5 21.5 48 48 48h96c26.5 0 48-21.5 48-48V144c0-26.5-21.5-48-48-48H144z"/></svg>