<svg xmlns="http://www.w3.org/2000/svg" viewBox="0 0 512 512"><!--! Font Awesome Pro 6.4.0 by @fontawesome - https://fontawesome.com License - https://fontawesome.com/license (Commercial License) Copyright 2023 Fonticons, Inc. --><path d="M24 40H200c13.3 0 24 10.7 24 24s-10.7 24-24 24H24C10.7 88 0 77.3 0 64S10.7 40 24 40zm0 128H200c13.3 0 24 10.7 24 24s-10.7 24-24 24H24c-13.3 0-24-10.7-24-24s10.7-24 24-24zM0 320c0-13.3 10.7-24 24-24H200c13.3 0 24 10.7 24 24s-10.7 24-24 24H24c-13.3 0-24-10.7-24-24zM24 424H200c13.3 0 24 10.7 24 24s-10.7 24-24 24H24c-13.3 0-24-10.7-24-24s10.7-24 24-24zM288 192c0-13.3 10.7-24 24-24H488c13.3 0 24 10.7 24 24s-10.7 24-24 24H312c-13.3 0-24-10.7-24-24zM312 40H488c13.3 0 24 10.7 24 24s-10.7 24-24 24H312c-13.3 0-24-10.7-24-24s10.7-24 24-24zM288 320c0-13.3 10.7-24 24-24H488c13.3 0 24 10.7 24 24s-10.7 24-24 24H312c-13.3 0-24-10.7-24-24zm24 104H488c13.3 0 24 10.7 24 24s-10.7 24-24 24H312c-13.3 0-24-10.7-24-24s10.7-24 24-24z"/></svg>