<svg xmlns="http://www.w3.org/2000/svg" viewBox="0 0 576 512"><!--! Font Awesome Pro 6.4.0 by @fontawesome - https://fontawesome.com License - https://fontawesome.com/license (Commercial License) Copyright 2023 Fonticons, Inc. --><path d="M113.8 39.9c-4.6-5.1-11-7.9-17.8-7.9s-13.3 2.9-17.8 7.9l-72 80c-8.9 9.9-8.1 25 1.8 33.9s25 8.1 33.9-1.8L72 118.5V393.5L41.8 359.9c-8.9-9.9-24-10.7-33.9-1.8s-10.7 24-1.8 33.9l72 80c4.6 5.1 11 7.9 17.8 7.9s13.3-2.9 17.8-7.9l72-80c8.9-9.9 8.1-25-1.8-33.9s-25-8.1-33.9 1.8L120 393.5V118.5l30.2 33.5c8.9 9.9 24 10.7 33.9 1.8s10.7-24 1.8-33.9l-72-80zM248 72c-13.3 0-24 10.7-24 24s10.7 24 24 24H552c13.3 0 24-10.7 24-24s-10.7-24-24-24H248zm0 160c-13.3 0-24 10.7-24 24s10.7 24 24 24H552c13.3 0 24-10.7 24-24s-10.7-24-24-24H248zM224 416c0 13.3 10.7 24 24 24H552c13.3 0 24-10.7 24-24s-10.7-24-24-24H248c-13.3 0-24 10.7-24 24z"/></svg>