<svg xmlns="http://www.w3.org/2000/svg" viewBox="0 0 576 512"><!--! Font Awesome Pro 6.4.0 by @fontawesome - https://fontawesome.com License - https://fontawesome.com/license (Commercial License) Copyright 2023 Fonticons, Inc. --><path d="M0 256C0 167.6 71.6 96 160 96h72c13.3 0 24 10.7 24 24s-10.7 24-24 24H160C98.1 144 48 194.1 48 256s50.1 112 112 112h72c13.3 0 24 10.7 24 24s-10.7 24-24 24H160C71.6 416 0 344.4 0 256zm576 0c0 88.4-71.6 160-160 160H344c-13.3 0-24-10.7-24-24s10.7-24 24-24h72c61.9 0 112-50.1 112-112s-50.1-112-112-112H344c-13.3 0-24-10.7-24-24s10.7-24 24-24h72c88.4 0 160 71.6 160 160zM184 232H392c13.3 0 24 10.7 24 24s-10.7 24-24 24H184c-13.3 0-24-10.7-24-24s10.7-24 24-24z"/></svg>