<svg xmlns="http://www.w3.org/2000/svg" viewBox="0 0 512 512"><!--! Font Awesome Pro 6.4.0 by @fontawesome - https://fontawesome.com License - https://fontawesome.com/license (Commercial License) Copyright 2023 Fonticons, Inc. --><path d="M64 32a64 64 0 1 0 0 128A64 64 0 1 0 64 32zM184 72c-13.3 0-24 10.7-24 24s10.7 24 24 24H488c13.3 0 24-10.7 24-24s-10.7-24-24-24H184zm0 160c-13.3 0-24 10.7-24 24s10.7 24 24 24H488c13.3 0 24-10.7 24-24s-10.7-24-24-24H184zm0 160c-13.3 0-24 10.7-24 24s10.7 24 24 24H488c13.3 0 24-10.7 24-24s-10.7-24-24-24H184zM64 280a24 24 0 1 1 0-48 24 24 0 1 1 0 48zm0-88a64 64 0 1 0 0 128 64 64 0 1 0 0-128zM40 416a24 24 0 1 1 48 0 24 24 0 1 1 -48 0zm88 0A64 64 0 1 0 0 416a64 64 0 1 0 128 0z"/></svg>