<svg xmlns="http://www.w3.org/2000/svg" viewBox="0 0 448 512"><!--! Font Awesome Pro 6.4.0 by @fontawesome - https://fontawesome.com License - https://fontawesome.com/license (Commercial License) Copyright 2023 Fonticons, Inc. --><path d="M17.1 33C27.3 30 38.2 34 44 42.8L224 316.3 403.9 42.8C409.8 34 420.7 30 430.9 33S448 45.4 448 56V456c0 13.3-10.7 24-24 24s-24-10.7-24-24V136.1l-156 237c-4.4 6.7-12 10.8-20 10.8s-15.6-4.1-20-10.8L48 136.1V456c0 13.3-10.7 24-24 24s-24-10.7-24-24V56C0 45.4 7 36.1 17.1 33z"/></svg>