<svg xmlns="http://www.w3.org/2000/svg" viewBox="0 0 512 512"><!--! Font Awesome Pro 6.4.0 by @fontawesome - https://fontawesome.com License - https://fontawesome.com/license (Commercial License) Copyright 2023 Fonticons, Inc. --><path d="M352 24c0 13.3 10.7 24 24 24h38.1L371.2 90.9C340.3 64.2 300 48 256 48C158.8 48 80 126.8 80 224c0 89.1 66.2 162.7 152 174.4v.2 .3 .3 .3 .3 .3 .3 .3 .3 .3 .3 .3 .3 .3 .3 .3 .3 .3 .3 .3 .3 .3 .3 .3 .3 .3 .3 .3 .3 .3 .3 .3 .3 .3 .3 .3 .3 .3 .3 .3 .3 .3 .3 .3 .3 .3 .3 .3 .3 .3 .3 .3 .3 .2H208c-13.3 0-24 10.7-24 24s10.7 24 24 24h24v.1 .2 .2 .2 .2 .2 .2 .2 .2 .2 .2 .2 .2 .2 .2 .2 .2 .2 .2 .2 .2 .2 .2 .2 .2 .2 .2 .2 .2 .2 .2 .2 .2 .2 .2 .2 .2 .2 .2 .2 .2 .2 .2 .2 .2 .2 .2 .2 .2 .2 .2 .2 .2 .2 .2 .2 .2 .2 .2 .2 .2 .2 .2 .1 .1 .1 .1 .1 .1 .1 .1 .1 .1 .1 .1 .1 .1 .1 .1 .1 .1 .1 .1 .1 .1 .1 .1 .1 .1 .1 .1 .1 .1 .1 .1 .1 .1 .1 .1 .1 .1 .1 .1 .1 .1 .1 .1 .1 .1 .1 .1 .1 .1 .1 .1 .1 .1 .1 .1 .1 .1 .1 .1 .1 .1 .1 .1 .1 .1 .1 .1 .1 .1 .1 .1 .1 .1 .1 .1 .1 .1 .1 .1 .1 .1 .1 .1 .1 .1 .1 .1 .1 .1 .1 .1 .1 .1 .1 .1 .1 .1 .1 .1 .1 .1 .1 .1 .1 .1 .1 .1 .1 .1 .1 .1 .1 .1 .1 .1 .1 0 0 0 0 0 0 0 0 0 0 0 0 0 0 0 0 0 0 0 0 0 0 0 0 0 0 0 0 0 0 0 0 0 0 0 0 0 0 0 0 0 0 0 0 0 0 0 0 0 0 0 0 0l24 0H232c0 13.3 10.7 24 24 24s24-10.7 24-24H256l24 0v0 0 0 0 0 0 0 0 0 0 0 0 0 0 0 0 0 0 0 0 0 0 0 0 0 0 0 0 0 0 0 0 0 0 0 0 0 0 0 0 0 0 0 0 0 0 0 0 0 0 0 0 0-.1-.1-.1-.1-.1-.1-.1-.1-.1-.1V486 486v-.1-.1-.1-.1-.1-.1-.1-.1-.1-.1-.1-.1-.1V485 485v-.1-.1-.1-.1-.1-.1-.1-.1-.1-.1-.1V484v-.1-.1-.1-.1-.1-.1-.1-.1-.1-.1V483v-.1-.1-.1-.1-.1-.1-.1-.1-.1-.1-.1-.1-.1-.1-.1-.1-.1-.1-.1V481v-.1-.1-.1-.1-.1-.1-.1-.1V480v-.1-.1-.1-.1-.1-.1-.1V479v-.1-.1-.1-.1-.1-.1-.1V478v-.1-.1-.1-.1-.1-.1V477v-.1-.1-.1-.1-.1-.1V476v-.1-.1-.1-.1-.1-.1V475v-.1-.2-.2-.2-.2-.2V474v-.2-.2-.2-.2-.2V473v-.2-.2-.2-.2-.2-.2-.2-.2-.2-.2-.2-.2-.2-.2-.2-.2-.2V470v-.2-.2-.2-.2-.2V469v-.2-.2-.2-.2-.2-.2-.2-.2-.2-.2V467v-.2-.2-.2-.2-.2-.2-.2-.2-.2-.2-.2-.2-.2-.2-.2V464h24c13.3 0 24-10.7 24-24s-10.7-24-24-24H280v-.2-.3-.3-.3-.3-.3-.3-.3-.3V413v-.3-.3V412v-.3-.3V411v-.3-.3V410v-.3-.3-.3-.3-.3-.3-.3-.3-.3-.3-.3-.3-.3-.3-.3-.3-.3-.3-.3-.3V403v-.3-.3V402v-.3-.3V401v-.3-.3V400v-.3-.3-.3-.3-.2c85.8-11.7 152-85.3 152-174.4c0-35.8-10.7-69.2-29.1-97L448 81.9V120c0 13.3 10.7 24 24 24s24-10.7 24-24V24c0-13.3-10.7-24-24-24H376c-13.3 0-24 10.7-24 24zM256 96a128 128 0 1 1 0 256 128 128 0 1 1 0-256z"/></svg>