<svg xmlns="http://www.w3.org/2000/svg" viewBox="0 0 512 512"><!--! Font Awesome Pro 6.4.0 by @fontawesome - https://fontawesome.com License - https://fontawesome.com/license (Commercial License) Copyright 2023 Fonticons, Inc. --><path d="M35.3 0C15.8 0 0 15.8 0 35.3c0 9.4 3.7 18.3 10.3 25L232 281.9V464H152c-13.3 0-24 10.7-24 24s10.7 24 24 24H256 360c13.3 0 24-10.7 24-24s-10.7-24-24-24H280V281.9L501.7 60.3c6.6-6.6 10.3-15.6 10.3-25C512 15.8 496.2 0 476.7 0H35.3zM318.1 176L256 238.1 193.9 176H318.1zm48-48H145.9l-80-80H446.1l-80 80z"/></svg>