<svg xmlns="http://www.w3.org/2000/svg" viewBox="0 0 384 512"><!--! Font Awesome Pro 6.4.0 by @fontawesome - https://fontawesome.com License - https://fontawesome.com/license (Commercial License) Copyright 2023 Fonticons, Inc. --><path d="M73 5.3C83.3-3 98.4-1.4 106.7 9c18.5 23.1 51.4 38.9 84.9 39l.3 0 .3 0c33.5-.1 66.4-15.9 84.9-39C285.6-1.4 300.7-3 311 5.3s12 23.4 3.7 33.7c-9.9 12.4-22.2 23.1-36 31.8C332 101.1 368 158.3 368 224c0 89.1-66.2 162.7-152 174.4V424h32c13.3 0 24 10.7 24 24s-10.7 24-24 24H216v16c0 13.3-10.7 24-24 24s-24-10.7-24-24V472H136c-13.3 0-24-10.7-24-24s10.7-24 24-24h32V398.4C82.2 386.7 16 313.1 16 224c0-65.7 36-122.9 89.3-153.2C91.5 62.1 79.2 51.4 69.3 39C61 28.7 62.6 13.6 73 5.3zM192 96l-.3 0C121.1 96.2 64 153.4 64 224c0 70.7 57.3 128 128 128s128-57.3 128-128c0-70.6-57.1-127.8-127.7-128l-.3 0z"/></svg>