<svg xmlns="http://www.w3.org/2000/svg" viewBox="0 0 512 512"><!--! Font Awesome Pro 6.4.0 by @fontawesome - https://fontawesome.com License - https://fontawesome.com/license (Commercial License) Copyright 2023 Fonticons, Inc. --><path d="M343.5 368H448c8.8 0 16-7.2 16-16V64c0-8.8-7.2-16-16-16H64c-8.8 0-16 7.2-16 16V352c0 8.8 7.2 16 16 16H168.5c14.2 0 27.8 6.3 36.9 17.3L256 446l50.6-60.7c9.1-10.9 22.6-17.3 36.9-17.3zm-175 48H64c-35.3 0-64-28.7-64-64V64C0 28.7 28.7 0 64 0H448c35.3 0 64 28.7 64 64V352c0 35.3-28.7 64-64 64H343.5l-75.2 90.2c-3 3.6-7.5 5.8-12.3 5.8s-9.3-2.1-12.3-5.8L168.5 416z"/></svg>