<svg xmlns="http://www.w3.org/2000/svg" viewBox="0 0 640 512"><!--! Font Awesome Pro 6.4.0 by @fontawesome - https://fontawesome.com License - https://fontawesome.com/license (Commercial License) Copyright 2023 Fonticons, Inc. --><path d="M72 48C58.7 48 48 58.7 48 72V248c0 13.3 10.7 24 24 24h48c13.3 0 24 10.7 24 24v19.2L202.7 276c3.9-2.6 8.6-4 13.3-4H344c13.3 0 24-10.7 24-24V72c0-13.3-10.7-24-24-24H72zM0 72C0 32.2 32.2 0 72 0H344c39.8 0 72 32.2 72 72V248c0 39.8-32.2 72-72 72H223.3l-90 60c-7.4 4.9-16.8 5.4-24.6 1.2S96 368.9 96 360V320H72c-39.8 0-72-32.2-72-72V72zM256 352h48v24c0 13.3 10.7 24 24 24h96c4.7 0 9.4 1.4 13.3 4L496 443.2V424c0-13.3 10.7-24 24-24h48c13.3 0 24-10.7 24-24V200c0-13.3-10.7-24-24-24H448V128H568c39.8 0 72 32.2 72 72V376c0 39.8-32.2 72-72 72H544v40c0 8.9-4.9 17-12.7 21.2s-17.3 3.7-24.6-1.2l-90-60H328c-39.8 0-72-32.2-72-72V352zM224 79.1V89.5c5.9 .9 11.6 2.3 16.8 3.6c8.6 2.2 13.7 10.9 11.5 19.5s-10.9 13.7-19.5 11.5c-8.8-2.3-17.3-3.9-25-4c-6.4-.1-13 1.4-17.4 3.9c-3.9 2.2-4.8 4.3-4.8 6.8l0 .1c0 1 0 2.2 4.1 4.6c5.1 3 12.5 5.2 22.7 8.2l.5 .2c9 2.6 20.4 6 29.6 11.6c10.2 6.3 19.6 16.6 19.8 32.8c.2 16.7-8.6 28.6-20 35.5c-5.7 3.4-12 5.7-18.4 7v10.3c0 8.8-7.2 16-16 16s-16-7.2-16-16V230c-8.2-1.7-15.8-4.3-22.5-6.5l0 0 0 0c-1.7-.6-3.3-1.1-4.9-1.6c-8.4-2.7-13-11.7-10.3-20.2s11.7-13 20.2-10.3c2 .6 3.9 1.3 5.8 1.9l0 0 0 0c10.9 3.6 19.2 6.4 28.2 6.6c6.9 .2 13.3-1.3 17.3-3.7c3.3-2 4.6-4.2 4.6-7.7c0-1.8-.4-3.4-4.5-5.9c-5-3.1-12.4-5.4-22.5-8.4l-1.4-.4c-8.7-2.5-19.7-5.8-28.4-10.9c-10.1-5.9-19.8-16-19.9-32.2c-.1-16.8 9.7-28.3 20.8-34.7c5.5-3.2 11.5-5.3 17.6-6.6V79.1c0-8.8 7.2-16 16-16s16 7.2 16 16z"/></svg>