<svg xmlns="http://www.w3.org/2000/svg" viewBox="0 0 512 512"><!--! Font Awesome Pro 6.4.0 by @fontawesome - https://fontawesome.com License - https://fontawesome.com/license (Commercial License) Copyright 2023 Fonticons, Inc. --><path d="M208 416c0-26.5-21.5-48-48-48H64c-8.8 0-16-7.2-16-16V64c0-8.8 7.2-16 16-16H448c8.8 0 16 7.2 16 16V352c0 8.8-7.2 16-16 16H309.3c-10.4 0-20.5 3.4-28.8 9.6L208 432V416zm-.2 76.2l.2-.2 101.3-76H448c35.3 0 64-28.7 64-64V64c0-35.3-28.7-64-64-64H64C28.7 0 0 28.7 0 64V352c0 35.3 28.7 64 64 64h48 48v48 4 .3 6.4V496c0 6.1 3.4 11.6 8.8 14.3s11.9 2.1 16.8-1.5L202.7 496l5.1-3.8zm-3.6-343.6c-4.9 1.6-8.2 6.2-8.2 11.4v96c0 6.6 5.4 12 12 12s12-5.4 12-12V196l26.4 35.2c2.3 3 5.8 4.8 9.6 4.8s7.3-1.8 9.6-4.8L292 196v60c0 6.6 5.4 12 12 12s12-5.4 12-12V160c0-5.2-3.3-9.8-8.2-11.4s-10.3 .1-13.4 4.2L256 204l-38.4-51.2c-3.1-4.1-8.5-5.8-13.4-4.2zM108 182.9c0-3.1 1.3-5.3 4.8-7.4c3.9-2.3 9.6-3.6 15-3.5c6.9 .1 17.4 1.7 24.3 3.5c6.4 1.7 13-2.1 14.7-8.5s-2.1-13-8.5-14.7c-8.6-2.3-21-4.2-30.1-4.3c-8.7-.1-19 1.8-27.6 6.8C91.6 160.2 84 169.5 84 183c.1 12.9 7.6 21.1 15.8 26c7.2 4.3 16.2 7 23.5 9.2l1.1 .3c8.4 2.5 14.6 4.6 19 7.3c3.7 2.3 4.5 4.1 4.5 6.6c.1 3.9-1.5 6.3-4.6 8.2c-3.6 2.2-9.1 3.5-15 3.4c-7.9-.3-15.4-2.8-24.9-6c-1.3-.4-2.7-.9-4.1-1.4c-6.3-2.1-13.1 1.3-15.2 7.6s1.3 13.1 7.6 15.2c1.2 .4 2.4 .8 3.7 1.3l0 0 0 0c9.1 3.1 20.3 6.9 32 7.3c9.2 .3 19.8-1.6 28.5-7c9.2-5.7 16.1-15.4 15.9-28.9c-.2-12.9-7.4-21.3-15.8-26.6c-7.5-4.7-17-7.6-24.5-9.8l-.4-.1c-8.5-2.6-14.8-4.5-19.2-7.2c-3.7-2.2-4.2-3.8-4.2-5.6zm256 0c0-3.1 1.3-5.3 4.8-7.4c3.9-2.3 9.6-3.6 15-3.5c6.6 .1 13.7 1.5 21.1 3.5c6.4 1.7 13-2.1 14.7-8.5s-2.1-13-8.5-14.7c-8-2.1-17.4-4.2-26.9-4.3c-8.7-.1-19 1.8-27.6 6.8c-9 5.3-16.6 14.6-16.5 28.1c.1 12.9 7.6 21.1 15.8 26c7.2 4.3 16.2 7 23.5 9.2l1.1 .3c8.4 2.5 14.6 4.6 19 7.3c3.7 2.3 4.5 4.1 4.5 6.6c.1 3.9-1.5 6.3-4.6 8.2c-3.6 2.2-9.1 3.5-15 3.4c-7.6-.2-14.7-2.7-23.8-5.8l0 0 0 0c-1.5-.5-3.1-1.1-4.8-1.6c-6.3-2.1-13.1 1.3-15.2 7.6s1.3 13.1 7.6 15.2c1.3 .4 2.7 .9 4.1 1.4l0 0c8.9 3.1 19.8 6.8 31.3 7.2c9.2 .3 19.8-1.6 28.5-7c9.2-5.7 16.1-15.4 15.9-28.9c-.2-12.9-7.4-21.3-15.8-26.6c-7.5-4.7-17-7.6-24.5-9.8l-.4-.1c-8.5-2.6-14.8-4.5-19.2-7.2c-3.7-2.2-4.2-3.8-4.2-5.6z"/></svg>