<svg xmlns="http://www.w3.org/2000/svg" viewBox="0 0 512 512"><!--! Font Awesome Pro 6.4.0 by @fontawesome - https://fontawesome.com License - https://fontawesome.com/license (Commercial License) Copyright 2023 Fonticons, Inc. --><path d="M343.5 144H448c8.8 0 16 7.2 16 16V448c0 8.8-7.2 16-16 16H64c-8.8 0-16-7.2-16-16V160c0-8.8 7.2-16 16-16H168.5c14.2 0 27.8-6.3 36.9-17.3L256 66l50.6 60.7c9.1 10.9 22.6 17.3 36.9 17.3zm-175-48H64C28.7 96 0 124.7 0 160V448c0 35.3 28.7 64 64 64H448c35.3 0 64-28.7 64-64V160c0-35.3-28.7-64-64-64H343.5L268.3 5.8C265.3 2.1 260.7 0 256 0s-9.3 2.1-12.3 5.8L168.5 96z"/></svg>