<svg xmlns="http://www.w3.org/2000/svg" viewBox="0 0 640 512"><!--! Font Awesome Pro 6.4.0 by @fontawesome - https://fontawesome.com License - https://fontawesome.com/license (Commercial License) Copyright 2023 Fonticons, Inc. --><path d="M48 72c0-13.3 10.7-24 24-24H344c13.3 0 24 10.7 24 24V248c0 13.3-10.7 24-24 24H216c-4.7 0-9.4 1.4-13.3 4L144 315.2V296c0-13.3-10.7-24-24-24H72c-13.3 0-24-10.7-24-24V72zM72 0C32.2 0 0 32.2 0 72V248c0 39.8 32.2 72 72 72H96v40c0 8.9 4.9 17 12.7 21.2s17.3 3.7 24.6-1.2l90-60H344c39.8 0 72-32.2 72-72V72c0-39.8-32.2-72-72-72H72zM256 376c0 39.8 32.2 72 72 72h88.7l90 60c7.4 4.9 16.8 5.4 24.6 1.2S544 496.9 544 488V448h24c39.8 0 72-32.2 72-72V200c0-39.8-32.2-72-72-72H448v48H568c13.3 0 24 10.7 24 24V376c0 13.3-10.7 24-24 24H520c-13.3 0-24 10.7-24 24v19.2L437.3 404c-3.9-2.6-8.6-4-13.3-4H328c-13.3 0-24-10.7-24-24V352H256v24z"/></svg>