<svg xmlns="http://www.w3.org/2000/svg" viewBox="0 0 640 512"><!--! Font Awesome Pro 6.4.0 by @fontawesome - https://fontawesome.com License - https://fontawesome.com/license (Commercial License) Copyright 2023 Fonticons, Inc. --><path d="M256 48c68.7 0 129.5 33.3 167.4 84.6c16.7-8 37.2-5.5 51.5 7.4c5.6 5.1 11.1 10.2 16.6 15.5C452.5 64.1 361.7 0 256 0C114.6 0 0 114.6 0 256S114.6 512 256 512c33.6 0 65.7-6.5 95.1-18.3c-12.6-11.6-23.6-24.8-32.8-39.2c-19.7 6.2-40.6 9.5-62.3 9.5C141.1 464 48 370.9 48 256S141.1 48 256 48zM368 152c0-13.3-10.7-24-24-24s-24 10.7-24 24v48c0 11.2 7.6 20.6 18 23.2c9-12.9 19.1-25.7 30-38.3V152zm-176 0c0-13.3-10.7-24-24-24s-24 10.7-24 24v48c0 13.3 10.7 24 24 24s24-10.7 24-24V152zm88 0c0-13.3-10.7-24-24-24s-24 10.7-24 24v48c0 13.3 10.7 24 24 24s24-10.7 24-24V152zm173.5 11.6c-2.8-2.5-6.3-3.7-9.8-3.8c-3.6 0-7.2 1.2-10 3.7c-33.2 29.7-61.4 63.4-81.4 95.8C332.7 291.3 320 325.6 320 352c0 87.8 70.3 159.8 160 159.8c88.7 0 160-72 160-159.8c0-20.2-9.6-50.9-24.2-79c-14.8-28.5-35.7-58.5-60.4-81.1c-5.6-5.1-14.4-5.2-20 0c-9.6 8.8-18.6 19.6-26.5 29.5c-17.3-20.7-35.8-39.9-55.5-57.7zM530 432.9c-15 10-31 15-49 15c-45 0-81-29-81-78c0-24 15-45 45-82c4 5 62 79 62 79l36-42c3 4 5 8 7 12c18 33 10 75-20 96z"/></svg>