<svg xmlns="http://www.w3.org/2000/svg" viewBox="0 0 640 512"><!--! Font Awesome Pro 6.4.0 by @fontawesome - https://fontawesome.com License - https://fontawesome.com/license (Commercial License) Copyright 2023 Fonticons, Inc. --><path d="M472.1 344.7c15.2-26 23.9-56.3 23.9-88.7V216c0-13.3-10.7-24-24-24s-24 10.7-24 24v40c0 21.2-5.1 41.1-14.2 58.7L408 294.5c5.2-11.8 8-24.8 8-38.5V96c0-53-43-96-96-96s-96 43-96 96v54.3L38.8 5.1C28.4-3.1 13.3-1.2 5.1 9.2S-1.2 34.7 9.2 42.9l592 464c10.4 8.2 25.5 6.3 33.7-4.1s6.3-25.5-4.1-33.7L472.1 344.7zM272 187.9V96c0-26.5 21.5-48 48-48s48 21.5 48 48H336c-8.8 0-16 7.2-16 16s7.2 16 16 16h32v32H336c-8.8 0-16 7.2-16 16s7.2 16 16 16h32v64c0 2.3-.2 4.6-.5 6.8L272 187.9zm86.2 190.3C346.1 382 333.3 384 320 384c-70.7 0-128-57.3-128-128v-8.7L144.7 210c-.5 1.9-.7 3.9-.7 6v40c0 89.1 66.2 162.7 152 174.4V464H248c-13.3 0-24 10.7-24 24s10.7 24 24 24h72 72c13.3 0 24-10.7 24-24s-10.7-24-24-24H344V430.4c20.4-2.8 39.7-9.1 57.3-18.2l-43.1-33.9z"/></svg>