<svg xmlns="http://www.w3.org/2000/svg" viewBox="0 0 384 512"><!--! Font Awesome Pro 6.4.0 by @fontawesome - https://fontawesome.com License - https://fontawesome.com/license (Commercial License) Copyright 2023 Fonticons, Inc. --><path d="M256 48V64c0 8.8-7.2 16-16 16H144c-8.8 0-16-7.2-16-16V48H96C78.3 48 64 62.3 64 80V432c0 17.7 14.3 32 32 32H288c17.7 0 32-14.3 32-32V80c0-17.7-14.3-32-32-32H256zM16 80C16 35.8 51.8 0 96 0H288c44.2 0 80 35.8 80 80V432c0 44.2-35.8 80-80 80H96c-44.2 0-80-35.8-80-80V80z"/></svg>