<svg xmlns="http://www.w3.org/2000/svg" viewBox="0 0 512 512"><!--! Font Awesome Pro 6.4.0 by @fontawesome - https://fontawesome.com License - https://fontawesome.com/license (Commercial License) Copyright 2023 Fonticons, Inc. --><path d="M176 0c-8.8 0-16 7.2-16 16c0 44.2 35.8 80 80 80c8.8 0 16-7.2 16-16c0-44.2-35.8-80-80-80zM56 16C42.7 16 32 26.7 32 40s10.7 24 24 24h48c13.3 0 24-10.7 24-24s-10.7-24-24-24H56zM24 88C10.7 88 0 98.7 0 112s10.7 24 24 24H136c13.3 0 24-10.7 24-24s-10.7-24-24-24H24zm8 96c0 13.3 10.7 24 24 24h48c13.3 0 24-10.7 24-24s-10.7-24-24-24H56c-13.3 0-24 10.7-24 24zM272 16c0 44.2 35.8 80 80 80c8.8 0 16-7.2 16-16c0-44.2-35.8-80-80-80c-8.8 0-16 7.2-16 16zM400 0c-8.8 0-16 7.2-16 16c0 44.2 35.8 80 80 80c8.8 0 16-7.2 16-16c0-44.2-35.8-80-80-80zm80 144c0-8.8-7.2-16-16-16c-44.2 0-80 35.8-80 80c0 8.8 7.2 16 16 16c44.2 0 80-35.8 80-80zM352 128c-44.2 0-80 35.8-80 80c0 8.8 7.2 16 16 16c44.2 0 80-35.8 80-80c0-8.8-7.2-16-16-16zm-96 16c0-8.8-7.2-16-16-16c-44.2 0-80 35.8-80 80c0 8.8 7.2 16 16 16c44.2 0 80-35.8 80-80zM48 359.5c28.9-3.6 51.9-26.6 55.5-55.5h305c3.6 29 26.6 51.9 55.5 55.5v49c-29 3.6-51.9 26.6-55.5 55.5h-305c-3.6-29-26.6-51.9-55.5-55.5v-49zM48 256c-26.5 0-48 21.5-48 48V464c0 26.5 21.5 48 48 48H464c26.5 0 48-21.5 48-48V304c0-26.5-21.5-48-48-48H48zM256 448a64 64 0 1 0 0-128 64 64 0 1 0 0 128z"/></svg>