<svg xmlns="http://www.w3.org/2000/svg" viewBox="0 0 512 512"><!--! Font Awesome Pro 6.4.0 by @fontawesome - https://fontawesome.com License - https://fontawesome.com/license (Commercial License) Copyright 2023 Fonticons, Inc. --><path d="M320 24c0 13.3 10.7 24 24 24h54.1L286.7 159.3 191.6 77.8c-9-7.7-22.4-7.7-31.3 .1l-120 104c-10 8.7-11.1 23.8-2.4 33.9s23.8 11.1 33.9 2.4l104.4-90.5 96.3 82.5c9.5 8.2 23.7 7.6 32.6-1.3l127-127V136c0 13.3 10.7 24 24 24s24-10.7 24-24V24c0-13.3-10.7-24-24-24H344c-13.3 0-24 10.7-24 24zM103.5 304h305c3.6 29 26.6 51.9 55.5 55.5v49c-29 3.6-51.9 26.6-55.5 55.5h-305c-3.6-29-26.6-51.9-55.5-55.5v-49c28.9-3.6 51.9-26.6 55.5-55.5zM48 256c-26.5 0-48 21.5-48 48V464c0 26.5 21.5 48 48 48H464c26.5 0 48-21.5 48-48V304c0-26.5-21.5-48-48-48H48zM256 448a64 64 0 1 0 0-128 64 64 0 1 0 0 128z"/></svg>