<svg xmlns="http://www.w3.org/2000/svg" viewBox="0 0 384 512"><!--! Font Awesome Pro 6.4.0 by @fontawesome - https://fontawesome.com License - https://fontawesome.com/license (Commercial License) Copyright 2023 Fonticons, Inc. --><path d="M175 7c9.4-9.4 24.6-9.4 33.9 0l80 80c3.8 3.8 6.2 8.7 6.8 14l41.4 331H288.8L249.2 115.1 192 57.9l-57.2 57.2L95.2 432H46.8L88.2 101c.7-5.3 3.1-10.2 6.8-14L175 7zM42.8 464H91.2 292.8h48.4H360c13.3 0 24 10.7 24 24s-10.7 24-24 24H320 64 24c-13.3 0-24-10.7-24-24s10.7-24 24-24H42.8zM144 312c0-13.3 10.7-24 24-24h48c13.3 0 24 10.7 24 24s-10.7 24-24 24H168c-13.3 0-24-10.7-24-24z"/></svg>