<svg xmlns="http://www.w3.org/2000/svg" viewBox="0 0 640 512"><!--! Font Awesome Pro 6.4.0 by @fontawesome - https://fontawesome.com License - https://fontawesome.com/license (Commercial License) Copyright 2023 Fonticons, Inc. --><path d="M344 48c-4.4 0-8 3.6-8 8V219.7l-48-79.6V56c0-30.9 25.1-56 56-56H456c30.9 0 56 25.1 56 56V192h32V120c0-13.3 10.7-24 24-24s24 10.7 24 24v72.6c27.1 3.9 48 27.2 48 55.4V480c0 13.3-10.7 24-24 24s-24-10.7-24-24V248c0-4.4-3.6-8-8-8H568 488c-13.3 0-24-10.7-24-24V56c0-4.4-3.6-8-8-8H344zm27.3 230.2c2.9-3.8 7.5-6.2 12.7-6.2h32c8.8 0 16 7.2 16 16v32c0 8.8-7.2 16-16 16h-9.8l-34.9-57.8zM384 80h32c8.8 0 16 7.2 16 16v32c0 8.8-7.2 16-16 16H384c-8.8 0-16-7.2-16-16V96c0-8.8 7.2-16 16-16zM368 192c0-8.8 7.2-16 16-16h32c8.8 0 16 7.2 16 16v32c0 8.8-7.2 16-16 16H384c-8.8 0-16-7.2-16-16V192zm128 96c0-8.8 7.2-16 16-16h32c8.8 0 16 7.2 16 16v32c0 8.8-7.2 16-16 16H512c-8.8 0-16-7.2-16-16V288zm16 80h32c8.8 0 16 7.2 16 16v32c0 8.8-7.2 16-16 16H512c-8.8 0-16-7.2-16-16V384c0-8.8 7.2-16 16-16zM224 188.9L154.5 304.1l21.3 30.8 28-37.3c4.5-6 11.6-9.6 19.2-9.6h60.8L224 188.9zM58 464H390L312.8 336H235l-40.8 54.4c-4.6 6.2-11.9 9.7-19.7 9.6s-14.9-4-19.3-10.4l-28-40.5L58 464zM253.4 144.7L442.9 458.9c6.5 10.8 6.7 24.3 .7 35.3s-17.6 17.8-30.1 17.8H34.5c-12.5 0-24-6.8-30.1-17.8s-5.8-24.5 .7-35.3L194.6 144.7C200.9 134.3 212 128 224 128s23.1 6.3 29.4 16.7z"/></svg>