<svg xmlns="http://www.w3.org/2000/svg" viewBox="0 0 512 512"><!--! Font Awesome Pro 6.4.0 by @fontawesome - https://fontawesome.com License - https://fontawesome.com/license (Commercial License) Copyright 2023 Fonticons, Inc. --><path d="M393.4 50.8C397.9 49 402.8 48 408 48c22.1 0 40 17.9 40 40c0 8.1-2.4 15.6-6.5 21.9c-10.4-5.3-21.7-9.1-33.6-11.4c-.9-17.4-6.1-33.7-14.5-47.8zm86.2 88.4C489.9 124.8 496 107.1 496 88c0-48.6-39.4-88-88-88c-18.4 0-35.5 5.7-49.6 15.3C342.5 5.6 323.9 0 304 0C246.6 0 200 46.6 200 104v3.2c0 21.2 6.4 41.3 17.7 58.1C143.2 184.4 88 252 88 332.6c0 12.7 2.8 24.7 7.9 35.4H72c-39.8 0-72 32.2-72 72s32.2 72 72 72H456c13.3 0 24-10.7 24-24s-10.7-24-24-24H72c-13.3 0-24-10.7-24-24s10.7-24 24-24h99.4H344h48c13.3 0 24-10.7 24-24s-10.7-24-24-24H344.2l32-80H456c30.9 0 56-25.1 56-56v-7.7c0-32.6-12.2-62.4-32.4-85.1zM292.6 368H171.4c-19.6 0-35.4-15.9-35.4-35.4C136 263.8 191.8 208 260.6 208H280c11.4 0 21.2-8 23.5-19.2s-3.6-22.4-14.1-26.9l-7.5-3.2c-20.6-8.8-33.9-29.1-33.9-51.5V104c0-30.9 25.1-56 56-56s56 25.1 56 56v16c0 12.5 9.7 23 22.2 23.9l8 .6c41.7 3.2 73.9 38 73.9 79.8V232c0 4.4-3.6 8-8 8H360c-9.8 0-18.6 6-22.3 15.1L292.6 368zM396 216a20 20 0 1 0 0-40 20 20 0 1 0 0 40z"/></svg>