<svg xmlns="http://www.w3.org/2000/svg" viewBox="0 0 640 512"><!--! Font Awesome Pro 6.4.0 by @fontawesome - https://fontawesome.com License - https://fontawesome.com/license (Commercial License) Copyright 2023 Fonticons, Inc. --><path d="M144 80H432V288c0 26.5-21.5 48-48 48H192c-26.5 0-48-21.5-48-48V80zM128 32c-17.7 0-32 14.3-32 32V288c0 53 43 96 96 96H384c53 0 96-43 96-96h32c70.7 0 128-57.3 128-128s-57.3-128-128-128H448 128zM512 240H480V80h32c44.2 0 80 35.8 80 80s-35.8 80-80 80zM24 432c-13.3 0-24 10.7-24 24s10.7 24 24 24H552c13.3 0 24-10.7 24-24s-10.7-24-24-24H24z"/></svg>