<svg xmlns="http://www.w3.org/2000/svg" viewBox="0 0 384 512"><!--! Font Awesome Pro 6.4.0 by @fontawesome - https://fontawesome.com License - https://fontawesome.com/license (Commercial License) Copyright 2023 Fonticons, Inc. --><path d="M384 31.1C384 13.9 370.1 0 352.9 0c-2.7 0-5.3 .3-7.9 1L193.9 40.8C183.3 43.6 176 53.1 176 64V366.3c-18.1-9-40.2-14.3-64-14.3C50.1 352 0 387.8 0 432s50.1 80 112 80s112-35.8 112-80V195.4l141.9-36.1C376.6 156.6 384 147 384 136V31.1zM176 432c0 2.6-1.4 9.4-12.7 17.5c-11.2 8-29.2 14.5-51.3 14.5s-40.1-6.5-51.3-14.5C49.4 441.4 48 434.6 48 432s1.4-9.4 12.7-17.5c11.2-8 29.2-14.5 51.3-14.5s40.1 6.5 51.3 14.5c11.3 8.1 12.7 14.9 12.7 17.5zM336 117.3L224 145.8V82.5L336 53v64.3z"/></svg>