<svg xmlns="http://www.w3.org/2000/svg" viewBox="0 0 448 512"><!--! Font Awesome Pro 6.4.0 by @fontawesome - https://fontawesome.com License - https://fontawesome.com/license (Commercial License) Copyright 2023 Fonticons, Inc. --><path d="M107.8 42.5C101.9 33.8 91 30 80.9 33.1S64 45.5 64 56V256H24c-13.3 0-24 10.7-24 24s10.7 24 24 24H64V456c0 13.3 10.7 24 24 24s24-10.7 24-24V304H227.6L340.2 469.5c5.9 8.7 16.8 12.5 26.9 9.4s16.9-12.4 16.9-22.9V304h40c13.3 0 24-10.7 24-24s-10.7-24-24-24H384V56c0-13.3-10.7-24-24-24s-24 10.7-24 24V256H253L107.8 42.5zM285.7 304H336v74l-50.3-74zM195 256H112V134l83 122z"/></svg>