<svg xmlns="http://www.w3.org/2000/svg" viewBox="0 0 640 512"><!--! Font Awesome Pro 6.4.0 by @fontawesome - https://fontawesome.com License - https://fontawesome.com/license (Commercial License) Copyright 2023 Fonticons, Inc. --><path d="M384 80H64c-8.8 0-16 7.2-16 16V416c0 8.8 7.2 16 16 16H333.7c20.2 20.6 46 35.8 74.8 43.1c-7.6 3.2-15.9 4.9-24.6 4.9H64c-35.3 0-64-28.7-64-64V96C0 60.7 28.7 32 64 32H384c35.3 0 64 28.7 64 64v64c-16.7 0-32.8 2.6-48 7.3V96c0-8.8-7.2-16-16-16zm-16 72v29.4c-18.7 10.8-35.1 25.4-48 42.6V160H248v54.4c14.3 8.3 24 23.8 24 41.6c0 26.5-21.5 48-48 48s-48-21.5-48-48c0-17.8 9.7-33.3 24-41.6V152c0-22.1 17.9-40 40-40h88c22.1 0 40 17.9 40 40zM309.4 400H120c-22.1 0-40-17.9-40-40V152c0-22.1 17.9-40 40-40h16c13.3 0 24 10.7 24 24s-10.7 24-24 24h-8V352H291.2c3.5 17.2 9.7 33.3 18.2 48zm138.6 .2a80 80 0 1 0 0-160 80 80 0 1 0 0 160zm0 48c-70.7 0-128-57.3-128-128s57.3-128 128-128s128 57.3 128 128c0 26.7-8.2 51.4-22.1 71.9L633 471.2c9.4 9.4 9.4 24.6 0 33.9s-24.6 9.4-33.9 0L519.9 426c-20.5 14-45.3 22.1-71.9 22.1z"/></svg>