<svg xmlns="http://www.w3.org/2000/svg" viewBox="0 0 448 512"><!--! Font Awesome Pro 6.4.0 by @fontawesome - https://fontawesome.com License - https://fontawesome.com/license (Commercial License) Copyright 2023 Fonticons, Inc. --><path d="M384 80c8.8 0 16 7.2 16 16V320H320c-17.7 0-32 14.3-32 32v80H64c-8.8 0-16-7.2-16-16V96c0-8.8 7.2-16 16-16H384zM64 480H288h5.5c17 0 33.3-6.7 45.3-18.7l90.5-90.5c12-12 18.7-28.3 18.7-45.3V320 96c0-35.3-28.7-64-64-64H64C28.7 32 0 60.7 0 96V416c0 35.3 28.7 64 64 64zM192 144v48H144c-8.8 0-16 7.2-16 16v32c0 8.8 7.2 16 16 16h48v48c0 8.8 7.2 16 16 16h32c8.8 0 16-7.2 16-16V256h48c8.8 0 16-7.2 16-16V208c0-8.8-7.2-16-16-16H256V144c0-8.8-7.2-16-16-16H208c-8.8 0-16 7.2-16 16z"/></svg>