<svg xmlns="http://www.w3.org/2000/svg" viewBox="0 0 512 512"><!--! Font Awesome Pro 6.4.0 by @fontawesome - https://fontawesome.com License - https://fontawesome.com/license (Commercial License) Copyright 2023 Fonticons, Inc. --><path d="M96 48H64c-8.8 0-16 7.2-16 16V96H0V64C0 28.7 28.7 0 64 0H96V48zm32 0V0h96V48H128zM0 128H48v96H0V128zm352 32v48 48 32c0 35.3-28.7 64-64 64H224 208 160V304 256 224c0-35.3 28.7-64 64-64h64 16 48zM160 416h48v32c0 8.8 7.2 16 16 16h32v48H224c-35.3 0-64-28.7-64-64V416zM352 64V96H304V64c0-8.8-7.2-16-16-16H256V0h32c35.3 0 64 28.7 64 64zm64 144V160h32c35.3 0 64 28.7 64 64v32H464V224c0-8.8-7.2-16-16-16H416zM96 304v48H64c-35.3 0-64-28.7-64-64V256H48v32c0 8.8 7.2 16 16 16H96zM288 464h96v48H288V464zm160 48H416V464h32c8.8 0 16-7.2 16-16V416h48v32c0 35.3-28.7 64-64 64zm64-128H464V288h48v96zM304 208H224c-8.8 0-16 7.2-16 16v80h80c8.8 0 16-7.2 16-16V208z"/></svg>