<svg xmlns="http://www.w3.org/2000/svg" viewBox="0 0 512 512"><!--! Font Awesome Pro 6.4.0 by @fontawesome - https://fontawesome.com License - https://fontawesome.com/license (Commercial License) Copyright 2023 Fonticons, Inc. --><path d="M64 48l32 0V0H64C28.7 0 0 28.7 0 64V96H48l0-32c0-8.8 7.2-16 16-16zm160 0V0H128V48l96 0zM48 128H0v96H48l0-96zm0 128H0v32c0 35.3 28.7 64 64 64H96l0-48H64c-8.8 0-16-7.2-16-16l0-32zm80 96h32l48 0h16V304l-96 0v48zm32 32l0 64c0 35.3 28.7 64 64 64l224 0c35.3 0 64-28.7 64-64V224c0-35.3-28.7-64-64-64l-64 0v48l64 0c8.8 0 16 7.2 16 16l0 224c0 8.8-7.2 16-16 16l-224 0c-8.8 0-16-7.2-16-16l0-64H160zM352 208l0-48V128H304l0 96h48V208zm0-144c0-35.3-28.7-64-64-64H256V48l32 0c8.8 0 16 7.2 16 16V96h48V64zM256 304v48h32c35.3 0 64-28.7 64-64V256H304v32c0 8.8-7.2 16-16 16H256z"/></svg>