<svg xmlns="http://www.w3.org/2000/svg" viewBox="0 0 512 512"><!--! Font Awesome Pro 6.4.0 by @fontawesome - https://fontawesome.com License - https://fontawesome.com/license (Commercial License) Copyright 2023 Fonticons, Inc. --><path d="M174.5 55.1c4.5-4.5 10.6-7 17-7h129c6.4 0 12.5 2.5 17 7L456.9 174.5c4.5 4.5 7 10.6 7 17v129c0 6.4-2.5 12.5-7 17L337.5 456.9c-4.5 4.5-10.6 7-17 7h-129c-6.4 0-12.5-2.5-17-7L55.1 337.5 21.2 371.4l33.9-33.9c-4.5-4.5-7-10.6-7-17v-129c0-6.4 2.5-12.5 7-17L174.5 55.1zM.1 320.5c0 19.1 7.6 37.4 21.1 50.9L140.6 490.8c13.5 13.5 31.8 21.1 50.9 21.1h129c19.1 0 37.4-7.6 50.9-21.1L490.8 371.4c13.5-13.5 21.1-31.8 21.1-50.9v-129c0-19.1-7.6-37.4-21.1-50.9L371.4 21.2C357.9 7.7 339.6 .1 320.5 .1h-129c-19.1 0-37.4 7.6-50.9 21.1L21.2 140.6C7.7 154.1 .1 172.4 .1 191.5v129z"/></svg>