<svg xmlns="http://www.w3.org/2000/svg" viewBox="0 0 576 512"><!--! Font Awesome Pro 6.4.0 by @fontawesome - https://fontawesome.com License - https://fontawesome.com/license (Commercial License) Copyright 2023 Fonticons, Inc. --><path d="M482 73.7c-4.6-17.1-22.1-27.2-39.2-22.6l58 216.4c17.1-4.6 27.2-22.1 22.6-39.2L482 73.7zm-51.6-69c42.7-11.4 86.5 13.9 98 56.6l41.4 154.5c11.4 42.7-13.9 86.5-56.6 98l-15.5 4.1c-17.1 4.6-34.6-5.6-39.2-22.6L431.3 193.6 96 280.5V464h44.1L198 294.3l55.6-14.4L229.1 352h85.9l-27.6-80.8 46.6-12.1 70 204.9H552c13.3 0 24 10.7 24 24s-10.7 24-24 24H24c-13.3 0-24-10.7-24-24s10.7-24 24-24H48V184c0-13.3 10.7-24 24-24s24 10.7 24 24v46.9l135.7-35.2 17.6-51.5c3.3-9.7 12.4-16.2 22.7-16.2s19.4 6.5 22.7 16.2l11 32.3 113.1-29.3L392.3 48c-4.6-17.1 5.6-34.6 22.6-39.2l15.5-4.1zM353.2 464l-21.9-64H212.7l-21.9 64H353.2z"/></svg>