<svg xmlns="http://www.w3.org/2000/svg" viewBox="0 0 640 512"><!--! Font Awesome Pro 6.4.0 by @fontawesome - https://fontawesome.com License - https://fontawesome.com/license (Commercial License) Copyright 2023 Fonticons, Inc. --><path d="M328 112c13.3 0 24-10.7 24-24s-10.7-24-24-24H184c-13.3 0-24 10.7-24 24s10.7 24 24 24h48v48H147.2 144 96 48c-26.5 0-48 21.5-48 48v64.8c0 19 11.2 36.2 28.5 43.9l67.5 30V368c0 26.5 21.5 48 48 48H403.1c18.4 0 35.8-7.9 48-21.7L615 208.6l1.4-1.6 7.6-8.6 9.4-10.6c12.3-13.9-.3-35.4-18.4-31.5l-13.9 3-11.3 2.4-2.1 .4L448 192l-50.5-25.2c-8.9-4.4-18.7-6.8-28.6-6.8H280V112h48zm97.1 125.8c10.4 5.2 22.3 6.7 33.6 4.3l72.1-15.4L412.7 360.5c-2.4 2.8-5.9 4.3-9.6 4.3H147.2V211.2H368.9c2 0 3.9 .5 5.7 1.4l50.5 25.2zM96 294.1L48 272.8V208H96v3.2 82.9z"/></svg>