<svg xmlns="http://www.w3.org/2000/svg" viewBox="0 0 640 512"><!--! Font Awesome Pro 6.4.0 by @fontawesome - https://fontawesome.com License - https://fontawesome.com/license (Commercial License) Copyright 2023 Fonticons, Inc. --><path d="M172.1 120.4c-4.6-5.3-11.2-8.4-18.2-8.4H24C10.7 112 0 101.3 0 88S10.7 64 24 64H153.9c21 0 41 9.2 54.7 25.1L467.9 391.6c4.6 5.3 11.2 8.4 18.2 8.4H616c13.3 0 24 10.7 24 24s-10.7 24-24 24H486.1c-21 0-41-9.2-54.7-25.1L172.1 120.4zM616 64c13.3 0 24 10.7 24 24s-10.7 24-24 24H440c-13.3 0-24-10.7-24-24s10.7-24 24-24H616z"/></svg>