<svg xmlns="http://www.w3.org/2000/svg" viewBox="0 0 448 512"><!--! Font Awesome Pro 6.4.0 by @fontawesome - https://fontawesome.com License - https://fontawesome.com/license (Commercial License) Copyright 2023 Fonticons, Inc. --><path d="M0 64C0 50.7 10.7 40 24 40H424c13.3 0 24 10.7 24 24s-10.7 24-24 24H24C10.7 88 0 77.3 0 64zM192 192c0-13.3 10.7-24 24-24H424c13.3 0 24 10.7 24 24s-10.7 24-24 24H216c-13.3 0-24-10.7-24-24zm24 104H424c13.3 0 24 10.7 24 24s-10.7 24-24 24H216c-13.3 0-24-10.7-24-24s10.7-24 24-24zM0 448c0-13.3 10.7-24 24-24H424c13.3 0 24 10.7 24 24s-10.7 24-24 24H24c-13.3 0-24-10.7-24-24zM7 268.4C-.8 262-.8 250 7 243.6l94.8-78.1c10.4-8.6 26.2-1.2 26.2 12.4V334.1c0 13.5-15.7 20.9-26.2 12.4L7 268.4z"/></svg>