<svg xmlns="http://www.w3.org/2000/svg" viewBox="0 0 448 512"><!--! Font Awesome Pro 6.4.0 by @fontawesome - https://fontawesome.com License - https://fontawesome.com/license (Commercial License) Copyright 2023 Fonticons, Inc. --><path d="M64 80c-8.8 0-16 7.2-16 16V416c0 8.8 7.2 16 16 16H384c8.8 0 16-7.2 16-16V96c0-8.8-7.2-16-16-16H64zM0 96C0 60.7 28.7 32 64 32H384c35.3 0 64 28.7 64 64V416c0 35.3-28.7 64-64 64H64c-35.3 0-64-28.7-64-64V96zM80 256c0-52.3 26.5-85.2 43.6-100.9c8.6-8 20.2-11.1 31.9-11.1h137c11.7 0 23.3 3.1 31.9 11.1c17 15.8 43.6 48.7 43.6 100.9s-26.5 85.2-43.6 100.9c-8.6 8-20.2 11.1-31.9 11.1h-137c-11.7 0-23.3-3.1-31.9-11.1C106.5 341.2 80 308.3 80 256zm96-48c0-8.8-7.2-16-16-16s-16 7.2-16 16v48c0 8.8 7.2 16 16 16s16-7.2 16-16V208zm128 0c0-8.8-7.2-16-16-16s-16 7.2-16 16v48c0 8.8 7.2 16 16 16s16-7.2 16-16V208zM200 296v16c0 4.4 3.6 8 8 8h32c4.4 0 8-3.6 8-8V296c0-13.3-10.7-24-24-24s-24 10.7-24 24z"/></svg>