<svg xmlns="http://www.w3.org/2000/svg" viewBox="0 0 448 512"><!--! Font Awesome Pro 6.4.0 by @fontawesome - https://fontawesome.com License - https://fontawesome.com/license (Commercial License) Copyright 2023 Fonticons, Inc. --><path d="M352 48c26.5 0 48 21.5 48 48v64H48V96c0-26.5 21.5-48 48-48H352zm48 160V448c0 8.8-7.2 16-16 16H64c-8.8 0-16-7.2-16-16V208H400zM96 0C43 0 0 43 0 96V448c0 35.3 28.7 64 64 64H384c35.3 0 64-28.7 64-64V96c0-53-43-96-96-96H96zm32 104a24 24 0 1 0 -48 0 24 24 0 1 0 48 0zm56 24a24 24 0 1 0 0-48 24 24 0 1 0 0 48zm104-24a24 24 0 1 0 -48 0 24 24 0 1 0 48 0zm56 24a24 24 0 1 0 0-48 24 24 0 1 0 0 48zM112 240c-17.7 0-32 14.3-32 32V400c0 17.7 14.3 32 32 32H336c17.7 0 32-14.3 32-32V272c0-17.7-14.3-32-32-32H112zm32 48H304c8.8 0 16 7.2 16 16s-7.2 16-16 16H144c-8.8 0-16-7.2-16-16s7.2-16 16-16z"/></svg>