<svg xmlns="http://www.w3.org/2000/svg" viewBox="0 0 384 512"><!--! Font Awesome Pro 6.4.0 by @fontawesome - https://fontawesome.com License - https://fontawesome.com/license (Commercial License) Copyright 2023 Fonticons, Inc. --><path d="M48 448c0 8.8 7.2 16 16 16H320c8.8 0 16-7.2 16-16V138.5c0-4.2-1.7-8.3-4.7-11.3L256.8 52.7c-3-3-7.1-4.7-11.3-4.7H64c-8.8 0-16 7.2-16 16V448zm272 64H64c-35.3 0-64-28.7-64-64V64C0 28.7 28.7 0 64 0H245.5c17 0 33.3 6.7 45.3 18.7l74.5 74.5c12 12 18.7 28.3 18.7 45.3V448c0 35.3-28.7 64-64 64zM192 192c4.5 0 8.8 1.9 11.8 5.2l75.7 82.6c14.1 15.4 3.2 40.2-17.7 40.2H122.2c-20.9 0-31.8-24.8-17.7-40.2l75.7-82.6c3-3.3 7.3-5.2 11.8-5.2z"/></svg>