<svg xmlns="http://www.w3.org/2000/svg" viewBox="0 0 512 512"><!--! Font Awesome Pro 6.4.0 by @fontawesome - https://fontawesome.com License - https://fontawesome.com/license (Commercial License) Copyright 2023 Fonticons, Inc. --><path d="M352 48H64c-8.8 0-16 7.2-16 16v64c0 8.8 7.2 16 16 16H352c8.8 0 16-7.2 16-16V64c0-8.8-7.2-16-16-16zM64 0H352c35.3 0 64 28.7 64 64v8 48 8c0 35.3-28.7 64-64 64H64c-35.3 0-64-28.7-64-64V64C0 28.7 28.7 0 64 0zm96 352c0-17.7 14.3-32 32-32h8V304c0-39.8 32.2-72 72-72H424c22.1 0 40-17.9 40-40V144c0-10.4-6.7-19.3-16-22.6V72.4c36 4 64 34.5 64 71.6v48c0 48.6-39.4 88-88 88H272c-13.3 0-24 10.7-24 24v16h8c17.7 0 32 14.3 32 32V480c0 17.7-14.3 32-32 32H192c-17.7 0-32-14.3-32-32V352z"/></svg>