<svg xmlns="http://www.w3.org/2000/svg" viewBox="0 0 576 512"><!-- Font Awesome Pro 6.0.0-alpha2 by @fontawesome - https://fontawesome.com License - https://fontawesome.com/license (Commercial License) --><path d="M553.367 22.426C538.777 7.961 519.385 0 498.75 0C478.113 0 458.727 7.963 444.16 22.422L194.248 270.498C147.099 267.735 117.514 295.084 109.229 303.367C85.516 327.051 73.598 359.842 76.541 393.328C77.143 400.186 75.209 406.268 70.949 410.918C65.588 416.771 56.807 419.996 46.225 419.996C20.736 419.996 0 440.631 0 465.998C0 491.363 20.736 512 46.225 512H96.959C154.047 512 230.551 503.555 270.812 463.326C292.576 441.559 304.021 411.486 302.832 379.846L553.363 131.154C567.963 116.654 576 97.348 576 76.787C576 56.229 567.963 36.922 553.367 22.426ZM143.168 337.311C167.547 312.935 193.827 318.563 206.273 320.211L253.562 367.5C255.808 389.263 256.257 409.996 236.885 429.373C214.861 451.379 163.859 464 96.959 464H73.316C86.23 459.967 97.529 452.963 106.344 443.342C119.744 428.713 126.141 409.461 124.357 389.127C122.66 369.83 129.512 350.949 143.168 337.311ZM519.547 97.088L322.219 292.969L281.133 251.883L477.977 56.488C483.49 51.014 490.869 48 498.75 48C506.641 48 514.031 51.02 519.541 56.48C524.996 61.898 528 69.111 528 76.787C528 84.465 524.996 91.678 519.547 97.088Z"/></svg>