<svg xmlns="http://www.w3.org/2000/svg" viewBox="0 0 512 512"><!-- Font Awesome Pro 6.0.0-alpha2 by @fontawesome - https://fontawesome.com License - https://fontawesome.com/license (Commercial License) --><path d="M496.318 21.857C484.215 7.997 466.995 0 448.002 0C432.697 0 417.863 5.662 406.232 15.945L213.787 185.609C179.026 216.601 181.078 251.24 178.822 270.924C151.568 273.342 127.262 284.58 108.533 303.426C84.975 327.102 73.135 359.873 76.057 393.332C77.564 410.582 63.618 420.004 46.033 420.004C20.65 420.004 0 440.639 0 466.002S20.65 512 46.033 512H96.447C153.209 512 229.273 503.551 269.311 463.297C278.204 454.348 309.626 421.007 298.889 360.221C327.064 353.57 349.146 340.129 364.891 315.229L502.152 98.135C517.17 74.387 514.771 43.02 496.318 21.857ZM235.277 429.447C213.438 451.406 162.836 464 96.447 464H73.043C85.85 459.98 97.066 453.012 105.83 443.451C119.246 428.814 125.654 409.531 123.875 389.156C122.186 369.82 128.996 350.912 142.58 337.262C161.543 318.179 180.908 318.928 207.316 316.584L248.219 349.312C257 399.013 251.928 412.693 235.277 429.447ZM461.582 72.482L324.32 289.574C312.346 308.514 296.119 311.554 282.018 314.883L227.02 270.877C228.32 256.672 227.262 237.91 245.529 221.613L438.025 51.906C440.875 49.387 444.418 48 448.002 48L449.346 48.057C453.658 48.34 457.297 50.146 460.141 53.402C464.678 58.605 465.283 66.629 461.582 72.482Z"/></svg>