<svg xmlns="http://www.w3.org/2000/svg" viewBox="0 0 640 512"><!--! Font Awesome Pro 6.4.0 by @fontawesome - https://fontawesome.com License - https://fontawesome.com/license (Commercial License) Copyright 2023 Fonticons, Inc. --><path d="M384 80H64c-8.8 0-16 7.2-16 16V416c0 8.8 7.2 16 16 16H306.1c8.1 17.5 18.8 33.7 31.5 48H64c-35.3 0-64-28.7-64-64V96C0 60.7 28.7 32 64 32H384c35.3 0 64 28.7 64 64v32.2c-12.6-1.2-25.5 2.7-35.5 11.7c-4.2 3.8-8.4 7.6-12.5 11.5V96c0-8.8-7.2-16-16-16zM293.8 311.3c-1.8 .5-3.8 .7-5.8 .7c-13.3 0-24-10.7-24-24s10.7-24 24-24c8.2 0 15.5 4.1 19.8 10.4c-5.8 12.1-10.6 24.5-14 36.9zM96 160c0-17.7 14.3-32 32-32H320c17.7 0 32 14.3 32 32v32c0 17.7-14.3 32-32 32H128c-17.7 0-32-14.3-32-32V160zm32 104a24 24 0 1 1 0 48 24 24 0 1 1 0-48zm56 24a24 24 0 1 1 48 0 24 24 0 1 1 -48 0zM453.5 163.6c19.7 17.8 38.2 37 55.5 57.7c7.9-9.9 16.8-20.7 26.5-29.5c5.6-5.1 14.4-5.1 20 0c24.7 22.7 45.6 52.7 60.4 81.1c14.5 28 24.2 58.8 24.2 79c0 87.8-71.3 159.8-160 159.8c-89.7 0-160-72.1-160-159.8c0-26.4 12.7-60.7 32.4-92.6c20-32.4 48.1-66.1 81.4-95.8c2.8-2.5 6.4-3.8 10-3.7c3.5 0 7 1.3 9.8 3.8zM530 432.9c30-21 38-63 20-96c-2-4-4-8-7-12l-36 42s-58-74-62-79c-30 37-45 58-45 82c0 49 36 78 81 78c18 0 34-5 49-15z"/></svg>