<svg xmlns="http://www.w3.org/2000/svg" viewBox="0 0 448 512"><!--! Font Awesome Pro 6.4.0 by @fontawesome - https://fontawesome.com License - https://fontawesome.com/license (Commercial License) Copyright 2023 Fonticons, Inc. --><path d="M352 48H96c-8.8 0-16 7.2-16 16V432H32V64C32 28.7 60.7 0 96 0H352c35.3 0 64 28.7 64 64V432H368V64c0-8.8-7.2-16-16-16zM24 464H424c13.3 0 24 10.7 24 24s-10.7 24-24 24H24c-13.3 0-24-10.7-24-24s10.7-24 24-24zm96-352a24 24 0 1 1 48 0 24 24 0 1 1 -48 0zM304 88a24 24 0 1 1 0 48 24 24 0 1 1 0-48z"/></svg>