<svg xmlns="http://www.w3.org/2000/svg" viewBox="0 0 640 512"><!--! Font Awesome Pro 6.4.0 by @fontawesome - https://fontawesome.com License - https://fontawesome.com/license (Commercial License) Copyright 2023 Fonticons, Inc. --><path d="M160 96a48 48 0 1 0 0-96 48 48 0 1 0 0 96zm-13.7 80h27.5c.8 0 1.5 0 2.3 .1V304H144V176.1c.7 0 1.5-.1 2.3-.1zM144 488V352h32V488c0 13.3 10.7 24 24 24s24-10.7 24-24V223.6l43.1 76.2c6.5 11.5 21.2 15.6 32.7 9.1s15.6-21.2 9.1-32.7L250.3 172.7c-15.6-27.6-44.9-44.7-76.6-44.7H146.3c-31.7 0-61 17.1-76.6 44.7L11.1 276.2c-6.5 11.5-2.5 26.2 9.1 32.7s26.2 2.5 32.7-9.1L96 223.6V488c0 13.3 10.7 24 24 24s24-10.7 24-24zM480 96a48 48 0 1 0 0-96 48 48 0 1 0 0 96zm-13.7 80h27.5c.8 0 1.5 0 2.3 .1V304H464V176.1c.7 0 1.5-.1 2.3-.1zM464 488V352h32V488c0 13.3 10.7 24 24 24s24-10.7 24-24V223.6l43.1 76.2c6.5 11.5 21.2 15.6 32.7 9.1s15.6-21.2 9.1-32.7L570.3 172.7c-15.6-27.6-44.9-44.7-76.6-44.7H466.3c-31.7 0-61 17.1-76.6 44.7L331.1 276.2c-6.5 11.5-2.5 26.2 9.1 32.7s26.2 2.5 32.7-9.1L416 223.6V488c0 13.3 10.7 24 24 24s24-10.7 24-24z"/></svg>