<svg xmlns="http://www.w3.org/2000/svg" viewBox="0 0 640 512"><!--! Font Awesome Pro 6.4.0 by @fontawesome - https://fontawesome.com License - https://fontawesome.com/license (Commercial License) Copyright 2023 Fonticons, Inc. --><path d="M160 0a48 48 0 1 1 0 96 48 48 0 1 1 0-96zM267.1 299.8l-47.9-84.6 46.3 148c3.2 10.3-4.5 20.8-15.3 20.8H224V488c0 13.3-10.7 24-24 24s-24-10.7-24-24V384H144V488c0 13.3-10.7 24-24 24s-24-10.7-24-24V384H69.8c-10.8 0-18.5-10.5-15.3-20.8l46.3-148L52.9 299.8c-6.5 11.5-21.2 15.6-32.7 9.1s-15.6-21.2-9.1-32.7l51.8-91.5c19.8-35 56.9-56.6 97.1-56.6s77.3 21.6 97.1 56.6l51.8 91.5c6.5 11.5 2.5 26.2-9.1 32.7s-26.2 2.5-32.7-9.1zM206.7 336L160 186.5 113.3 336h93.4zM480 0a48 48 0 1 1 0 96 48 48 0 1 1 0-96zM587.1 299.8l-47.9-84.6 46.3 148c3.2 10.3-4.5 20.8-15.3 20.8H544V488c0 13.3-10.7 24-24 24s-24-10.7-24-24V384H464V488c0 13.3-10.7 24-24 24s-24-10.7-24-24V384H389.8c-10.8 0-18.5-10.5-15.3-20.8l46.3-148-47.9 84.6c-6.5 11.5-21.2 15.6-32.7 9.1s-15.6-21.2-9.1-32.7l51.8-91.5c19.8-35 56.9-56.6 97.1-56.6s77.3 21.6 97.1 56.6l51.8 91.5c6.5 11.5 2.5 26.2-9.1 32.7s-26.2 2.5-32.7-9.1zM526.7 336L480 186.5 433.3 336h93.4z"/></svg>