<svg xmlns="http://www.w3.org/2000/svg" viewBox="0 0 512 512"><!--! Font Awesome Pro 6.4.0 by @fontawesome - https://fontawesome.com License - https://fontawesome.com/license (Commercial License) Copyright 2023 Fonticons, Inc. --><path d="M128 0a64 64 0 1 1 0 128A64 64 0 1 1 128 0zM73.7 237.3l-4.1 49.3C68.8 296 76.2 304 85.6 304H88h80 2.4c9.4 0 16.7-8 15.9-17.3l-4.1-49.3C180.9 220.8 167 208 150.4 208H105.6c-16.6 0-30.5 12.8-31.9 29.3zm160.5 45.3c2.5 29.8-15.7 56.1-42.2 65.6V488c0 13.3-10.7 24-24 24s-24-10.7-24-24V352H112V488c0 13.3-10.7 24-24 24s-24-10.7-24-24V348.3c-26.5-9.5-44.7-35.8-42.2-65.6l4.1-49.3C29.3 191.9 64 160 105.6 160h44.8c41.6 0 76.3 31.9 79.7 73.4l4.1 49.3zM384 0a64 64 0 1 1 0 128A64 64 0 1 1 384 0zM329.7 237.3l-4.1 49.3c-.8 9.3 6.6 17.3 15.9 17.3H344h80 2.4c9.4 0 16.7-8 15.9-17.3l-4.1-49.3C436.9 220.8 423 208 406.4 208H361.6c-16.6 0-30.5 12.8-31.9 29.3zm160.5 45.3c2.5 29.8-15.7 56.1-42.2 65.6V488c0 13.3-10.7 24-24 24s-24-10.7-24-24V352H368V488c0 13.3-10.7 24-24 24s-24-10.7-24-24V348.3c-26.5-9.5-44.7-35.8-42.2-65.6l4.1-49.3c3.5-41.5 38.1-73.4 79.7-73.4h44.8c41.6 0 76.3 31.9 79.7 73.4l4.1 49.3z"/></svg>