<svg xmlns="http://www.w3.org/2000/svg" viewBox="0 0 640 512"><!--! Font Awesome Pro 6.4.0 by @fontawesome - https://fontawesome.com License - https://fontawesome.com/license (Commercial License) Copyright 2023 Fonticons, Inc. --><path d="M128 128a48 48 0 1 0 0-96 48 48 0 1 0 0 96zm-16 32C50.1 160 0 210.1 0 272c0 44.7 26.2 83.2 64 101.2V416c0 17.7 14.3 32 32 32h64c17.7 0 32-14.3 32-32V384c0-13.3-10.7-24-24-24s-24 10.7-24 24v16H112l0-16V336l0-128h32c12.6 0 24.3 3.6 34.2 9.9c7.9-14.2 18.1-26.9 30.2-37.6C190.2 167.5 168 160 144 160H112zM64 229.7v84.7C54 303.1 48 288.2 48 272s6-31.1 16-42.3zM496 208h32V336v48 16H496V384c0-13.3-10.7-24-24-24s-24 10.7-24 24v32c0 17.7 14.3 32 32 32h64c17.7 0 32-14.3 32-32V373.2c37.8-18 64-56.5 64-101.2c0-61.9-50.1-112-112-112H496c-24 0-46.2 7.5-64.4 20.3c12 10.7 22.3 23.4 30.2 37.6c9.9-6.3 21.6-9.9 34.2-9.9zm96 64c0 16.2-6 31.1-16 42.3V229.7c10 11.3 16 26.1 16 42.3zM560 80a48 48 0 1 0 -96 0 48 48 0 1 0 96 0zM320 144a56 56 0 1 0 0-112 56 56 0 1 0 0 112zm-16 32c-61.9 0-112 50.1-112 112c0 44.7 26.2 83.2 64 101.2V448c0 17.7 14.3 32 32 32h64c17.7 0 32-14.3 32-32V389.2c37.8-18 64-56.5 64-101.2c0-61.9-50.1-112-112-112H304zm0 224V352 224h32l0 128v48 32H304V400zm-48-69.7c-10-11.3-16-26.1-16-42.3s6-31.1 16-42.3v84.7zm128 0V245.7c10 11.3 16 26.1 16 42.3s-6 31.1-16 42.3z"/></svg>