<svg xmlns="http://www.w3.org/2000/svg" viewBox="0 0 448 512"><!--! Font Awesome Pro 6.4.0 by @fontawesome - https://fontawesome.com License - https://fontawesome.com/license (Commercial License) Copyright 2023 Fonticons, Inc. --><path d="M176 48a48 48 0 1 1 96 0 48 48 0 1 1 -96 0zM128 209.5L76.9 299.8c-6.5 11.5-21.2 15.6-32.7 9.1s-15.6-21.2-9.1-32.7L93.7 172.7c15.6-27.6 44.9-44.7 76.6-44.7h35c26 0 50.6 11.5 67.3 31.4l81.7 97.2c8.5 10.1 7.2 25.3-2.9 33.8s-25.3 7.2-33.8-2.9L256 214.2V488c0 13.3-10.7 24-24 24s-24-10.7-24-24V352H176V488c0 13.3-10.7 24-24 24s-24-10.7-24-24V209.5zm80-33.4c-.9-.1-1.8-.1-2.7-.1H176V304h32V176.1zM352 376v8c0 13.3-10.7 24-24 24s-24-10.7-24-24v-8c0-30.9 25.1-56 56-56s56 25.1 56 56V488c0 13.3-10.7 24-24 24s-24-10.7-24-24V376c0-4.4-3.6-8-8-8s-8 3.6-8 8z"/></svg>