<svg xmlns="http://www.w3.org/2000/svg" viewBox="0 0 512 512"><!--! Font Awesome Pro 6.4.0 by @fontawesome - https://fontawesome.com License - https://fontawesome.com/license (Commercial License) Copyright 2023 Fonticons, Inc. --><path d="M176 32a48 48 0 1 1 0 96 48 48 0 1 1 0-96zm16.9 189.6l16.9 76.2c.8 3.7 4.1 6.3 7.8 6.3h16.4l-19.4-87.3c-1.1-5.1-5.7-8.7-10.9-8.7c-7.1 0-12.4 6.6-10.9 13.6zm68.6-15.2l.4 1.7H328c13.3 0 24 10.7 24 24s-10.7 24-24 24H272.6l10.7 48h35.5c30 0 56.9 18.6 67.4 46.7l28.5 76.1 34.7-9.9c12.7-3.6 26 3.7 29.7 16.5s-3.7 26-16.5 29.7l-56 16c-12 3.4-24.7-2.9-29.1-14.6l-36.3-96.9c-3.5-9.4-12.5-15.6-22.5-15.6H264.5c-.3 0-.7 0-1 0H217.7c-26.2 0-49-18.2-54.7-43.9L146.1 232c-8.2-36.9 19.9-72 57.7-72c27.7 0 51.7 19.3 57.7 46.3zM79.6 147.8l34 192.7c6.1 34.4 36 59.5 70.9 59.5H280c13.3 0 24 10.7 24 24s-10.7 24-24 24H184.5c-58.2 0-108.1-41.8-118.2-99.1l-34-192.7c-2.3-13.1 6.4-25.5 19.5-27.8s25.5 6.4 27.8 19.5z"/></svg>