<svg xmlns="http://www.w3.org/2000/svg" viewBox="0 0 320 512"><!--! Font Awesome Pro 6.4.0 by @fontawesome - https://fontawesome.com License - https://fontawesome.com/license (Commercial License) Copyright 2023 Fonticons, Inc. --><path d="M154 .4A48 48 0 1 1 166 95.6 48 48 0 1 1 154 .4zM176 352V304h0V176.1l0 0V128c30.8 .8 59.1 17.7 74.3 44.6l58.5 103.5c6.5 11.5 2.5 26.2-9.1 32.7s-26.2 2.5-32.7-9.1L224 223.6V488c0 13.3-10.7 24-24 24s-24-10.7-24-24V352h0zM62.9 184.6c17.1-30.3 47.2-50.6 81.1-55.5V237.7L113.3 336H144v48h0V488c0 13.3-10.7 24-24 24s-24-10.7-24-24V384H69.8c-10.8 0-18.5-10.5-15.3-20.8l46.3-148L52.9 299.8c-6.5 11.5-21.2 15.6-32.7 9.1s-15.6-21.2-9.1-32.7l51.8-91.5z"/></svg>