<svg xmlns="http://www.w3.org/2000/svg" viewBox="0 0 384 512"><!--! Font Awesome Pro 6.4.0 by @fontawesome - https://fontawesome.com License - https://fontawesome.com/license (Commercial License) Copyright 2023 Fonticons, Inc. --><path d="M240 48a48 48 0 1 0 -96 0 48 48 0 1 0 96 0zM96 352c0 17.7 14.3 32 32 32V488c0 13.3 10.7 24 24 24s24-10.7 24-24V384h16 16V488c0 13.3 10.7 24 24 24s24-10.7 24-24V384h48 16c17.7 0 32-14.3 32-32V320c0-46.8-33.4-85.7-77.7-94.3l-6.1-32.5c-6.8-36.1-37.1-62.7-73.3-65.1c-1-.1-1.9-.2-2.9-.2h-2.4H176h-4.7c-32.5 0-62.3 17.9-77.6 46.5L34.8 284.7c-6.2 11.7-1.8 26.2 9.9 32.5s26.2 1.8 32.5-9.9L96 272.1V352zm80-176h13.6c15.4 0 28.6 11 31.5 26.1l6.1 32.5c3.6 19.4 18.7 34.5 38.1 38.3c22.1 4.3 38.8 23.8 38.8 47.1v16H192 144V208c0-17.7 14.3-32 32-32z"/></svg>