<svg xmlns="http://www.w3.org/2000/svg" viewBox="0 0 640 512"><!--! Font Awesome Pro 6.4.0 by @fontawesome - https://fontawesome.com License - https://fontawesome.com/license (Commercial License) Copyright 2023 Fonticons, Inc. --><path d="M393 286.7c11.3-13.8 30.3-18.5 46.7-11.4l112 48c17.6 7.5 27.4 26.5 23.4 45.1l-24 112c-4 18.4-20.3 31.6-39.1 31.6l0 0c-6.1 0-12.2-.1-18.2-.4l-.1 0 0 0c-10-.4-19.8-1.1-29.6-2.2C239.2 485.6 64 295.2 64 64v0c0-18.9 13.2-35.2 31.6-39.1l112-24c18.7-4 37.6 5.8 45.1 23.4l48 112c7 16.4 2.4 35.4-11.4 46.7l-40.6 33.2c26.7 46 65.1 84.4 111.1 111.1L393 286.7zm133.8 78.1l-100.4-43L397 357.6c-14.9 18.2-40.8 22.9-61.2 11.1c-53.3-30.9-97.7-75.3-128.6-128.6c-11.8-20.4-7.1-46.3 11.1-61.2l35.9-29.4-43-100.4L112.1 70.5C115.5 286.2 289.8 460.5 505.5 464l21.3-99.2zM407 7c9.4-9.4 24.6-9.4 33.9 0l47 47L535 7c9.4-9.4 24.6-9.4 33.9 0s9.4 24.6 0 33.9l-47 47 47 47c9.4 9.4 9.4 24.6 0 33.9s-24.6 9.4-33.9 0l-47-47-47 47c-9.4 9.4-24.6 9.4-33.9 0s-9.4-24.6 0-33.9l47-47L407 41c-9.4-9.4-9.4-24.6 0-33.9z"/></svg>