<svg xmlns="http://www.w3.org/2000/svg" viewBox="0 0 512 512"><!--! Font Awesome Pro 6.4.0 by @fontawesome - https://fontawesome.com License - https://fontawesome.com/license (Commercial License) Copyright 2023 Fonticons, Inc. --><path d="M112 80c8.8 0 16 7.2 16 16V416c0 8.8-7.2 16-16 16H64c-8.8 0-16-7.2-16-16V96c0-8.8 7.2-16 16-16h48zm0 400c15.1 0 29-5.3 40-14c11 8.8 24.9 14 40 14H448c35.3 0 64-28.7 64-64V96c0-35.3-28.7-64-64-64H192c-15.1 0-29 5.3-40 14c-11-8.8-24.9-14-40-14H64C28.7 32 0 60.7 0 96V416c0 35.3 28.7 64 64 64h48zm64-64V96c0-8.8 7.2-16 16-16H448c8.8 0 16 7.2 16 16V416c0 8.8-7.2 16-16 16H192c-8.8 0-16-7.2-16-16zm80-32a48 48 0 1 0 0-96 48 48 0 1 0 0 96zm80-80c0 8.8 7.2 16 16 16h64c8.8 0 16-7.2 16-16s-7.2-16-16-16H352c-8.8 0-16 7.2-16 16zm0 64c0 8.8 7.2 16 16 16h64c8.8 0 16-7.2 16-16s-7.2-16-16-16H352c-8.8 0-16 7.2-16 16zM240 112c-17.7 0-32 14.3-32 32v64c0 17.7 14.3 32 32 32H400c17.7 0 32-14.3 32-32V144c0-17.7-14.3-32-32-32H240z"/></svg>