<svg xmlns="http://www.w3.org/2000/svg" viewBox="0 0 640 512"><!--! Font Awesome Pro 6.4.0 by @fontawesome - https://fontawesome.com License - https://fontawesome.com/license (Commercial License) Copyright 2023 Fonticons, Inc. --><path d="M576 48H256c-8.8 0-16 7.2-16 16V256c0 8.7 6.9 15.8 15.6 16l69.1-94.2c4.5-6.2 11.7-9.8 19.4-9.8s14.8 3.6 19.4 9.8L380 200.4l56-85.6c4.4-6.8 12-10.9 20.1-10.9s15.7 4.1 20.1 10.9l30.5 46.7L406.3 195c-22.9 7.6-38.3 29-38.3 53.1V320H256c-35.3 0-64-28.7-64-64V64c0-35.3 28.7-64 64-64H576c35.3 0 64 28.7 64 64v69.6c-12.9-6.1-27.9-7.1-41.7-2.5l-6.3 2.1V64c0-8.8-7.2-16-16-16zM289.9 448H160 136 112 64c-35.3 0-64-28.7-64-64V176c0-35.3 28.7-64 64-64h48 24 24v48 72 88 8 72H326.3c-2.3 1.4-4.6 3-6.7 4.6c-13.8 10.3-25.2 25.2-29.6 43.4zM304 80a32 32 0 1 1 0 64 32 32 0 1 1 0-64zM112 208V160H64c-8.8 0-16 7.2-16 16v32h64zm0 144H48v32c0 8.8 7.2 16 16 16h48V352zm0-48V256H48v48h64zM630 164.5c6.3 4.5 10 11.8 10 19.5v48V392c0 1.2-.1 2.4-.3 3.6c.2 1.5 .3 2.9 .3 4.4c0 26.5-28.7 48-64 48s-64-21.5-64-48s28.7-48 64-48c5.5 0 10.9 .5 16 1.5V265.3l-144 48V464c0 26.5-28.7 48-64 48s-64-21.5-64-48s28.7-48 64-48c5.5 0 10.9 .5 16 1.5V296 248c0-10.3 6.6-19.5 16.4-22.8l192-64c7.3-2.4 15.4-1.2 21.6 3.3z"/></svg>