<svg xmlns="http://www.w3.org/2000/svg" viewBox="0 0 640 512"><!--! Font Awesome Pro 6.4.0 by @fontawesome - https://fontawesome.com License - https://fontawesome.com/license (Commercial License) Copyright 2023 Fonticons, Inc. --><path d="M256 48c-8.8 0-16 7.2-16 16V288c0 8.7 6.9 15.8 15.6 16l69.1-94.2c4.5-6.2 11.7-9.8 19.4-9.8s14.8 3.6 19.4 9.8L380 232.4l56-85.6c4.4-6.8 12-10.9 20.1-10.9s15.7 4.1 20.1 10.9L578.7 303.8c7.6-1.3 13.3-7.9 13.3-15.8V64c0-8.8-7.2-16-16-16H256zM192 64c0-35.3 28.7-64 64-64H576c35.3 0 64 28.7 64 64V288c0 35.3-28.7 64-64 64H256c-35.3 0-64-28.7-64-64V64zm-56 64h24v48 88V376v8 80H352V384h48v80h48c8.8 0 16-7.2 16-16V384h48v64c0 35.3-28.7 64-64 64H400 376 352 160 136 112 64c-35.3 0-64-28.7-64-64V192c0-35.3 28.7-64 64-64h48 24zm-24 48H64c-8.8 0-16 7.2-16 16v48h64V176zm0 288V400H48v48c0 8.8 7.2 16 16 16h48zM48 352h64V288H48v64zM304 80a32 32 0 1 1 0 64 32 32 0 1 1 0-64z"/></svg>