<svg xmlns="http://www.w3.org/2000/svg" viewBox="0 0 512 512"><!--! Font Awesome Pro 6.4.0 by @fontawesome - https://fontawesome.com License - https://fontawesome.com/license (Commercial License) Copyright 2023 Fonticons, Inc. --><path d="M432 384v32c0 8.8-7.2 16-16 16s-16-7.2-16-16V384H368v32c0 8.8-7.2 16-16 16s-16-7.2-16-16V384H240v32c0 8.8-7.2 16-16 16s-16-7.2-16-16V384H176v32c0 8.8-7.2 16-16 16s-16-7.2-16-16V384H112v32c0 8.8-7.2 16-16 16s-16-7.2-16-16V384H48v64c0 8.8 7.2 16 16 16H448c8.8 0 16-7.2 16-16V384H432zM48 336H464v-8.4c0-6.1-3.4-11.6-8.8-14.3L396.8 284c-37.2-18.6-60.8-56.7-60.8-98.3C336 109.7 274.3 48 198.3 48H192C112.5 48 48 112.5 48 192V336zm464-8.4V336v24 24 64c0 35.3-28.7 64-64 64H64c-35.3 0-64-28.7-64-64V384 360 336 192C0 86 86 0 192 0h6.3C300.8 0 384 83.2 384 185.7c0 23.5 13.2 44.9 34.2 55.4l58.4 29.2c21.7 10.8 35.4 33 35.4 57.2z"/></svg>