<svg xmlns="http://www.w3.org/2000/svg" viewBox="0 0 576 512"><!--! Font Awesome Pro 6.4.0 by @fontawesome - https://fontawesome.com License - https://fontawesome.com/license (Commercial License) Copyright 2023 Fonticons, Inc. --><path d="M528 224V384c0 8.8-7.2 16-16 16H432V315.7c9.6-5.5 16-15.9 16-27.7V224h80zM400 400H304V315.7c9.6-5.5 16-15.9 16-27.7V224h64v64c0 11.8 6.4 22.2 16 27.7V400zm-128 0H176V315.7c9.6-5.5 16-15.9 16-27.7V224h64v64c0 11.8 6.4 22.2 16 27.7V400zm-128 0H64c-8.8 0-16-7.2-16-16V224h80v64c0 11.8 6.4 22.2 16 27.7V400zM528 176H416 288 160 48V128c0-8.8 7.2-16 16-16H512c8.8 0 16 7.2 16 16v48zm48 0V128c0-35.3-28.7-64-64-64H64C28.7 64 0 92.7 0 128v48 24 24V384c0 35.3 28.7 64 64 64H512c35.3 0 64-28.7 64-64V224 200 176z"/></svg>