<svg xmlns="http://www.w3.org/2000/svg" viewBox="0 0 640 512"><!--! Font Awesome Pro 6.4.0 by @fontawesome - https://fontawesome.com License - https://fontawesome.com/license (Commercial License) Copyright 2023 Fonticons, Inc. --><path d="M475 32c-4 0-7.9 .5-11.8 1.5L417.1 45c-21.1 5.3-38.6 18-50.2 35H240C162.6 80 98 135 83.2 208H47.4c-8.5 0-15.4-6.9-15.4-15.4c0-7.1 4.8-13.3 11.7-15l8.2-2c8.6-2.1 13.8-10.8 11.6-19.4s-10.8-13.8-19.4-11.6l-8.2 2C14.8 151.8 0 170.8 0 192.6C0 218.8 21.2 240 47.4 240H80v16c0 55.8 31.8 104.2 78.1 128.1l22.3 68.3c5.4 16.5 20.7 27.6 38 27.6H264c22.1 0 40-17.9 40-40V416h16 32v24c0 22.1 17.9 40 40 40h45.5c17.3 0 32.7-11.1 38-27.6l13.7-42.1c26.1-7.5 49.6-22.2 67.8-42.4H592c26.5 0 48-21.5 48-48V240c0-26.5-21.5-48-48-48h-8.7c-6.7-4.7-12.5-10.5-17.2-17.3l0 0c21-14.9 33.9-39.3 33.9-65.6C600 93 587 80 570.9 80H552v29.1c0 12.2-6.9 23.4-17.8 28.9c-4.1-3.8-8.4-7.4-12.7-10.8c4.2-10.3 6.5-21.5 6.5-33.2V82.3C528 54.5 505.5 32 477.7 32H475zm-.1 48l.1 0 0 0h2.6c1.3 0 2.3 1 2.3 2.3V94c0 9.4-3.3 18.2-8.9 25.1c-4.3 5.3-6.1 12.2-5 19s5.1 12.7 10.9 16.4c19.3 12.2 36.3 28.2 49.7 47.6c8.8 12.8 20.1 23.6 33.1 31.9c6.7 4.3 14.1 6 20.9 6H592v80H553.8c-12.8 0-23.8 6.1-31.1 14.5c-14.5 16.7-34.3 28.1-56.3 32c-8.7 1.6-15.8 7.8-18.6 16.2L431.7 432H400V392c0-13.3-10.7-24-24-24H320 280c-13.3 0-24 10.7-24 24v40H224.3l-23.7-72.7c-2.2-6.6-7.1-12-13.6-14.7c-34.7-14.5-59-48.8-59-88.6V240c0-61.9 50.1-112 112-112H381c9.6 0 18.3-5.7 22.1-14.5c4.6-10.7 13.9-19 25.7-21.9L474.9 80zM468 256a20 20 0 1 0 0-40 20 20 0 1 0 0 40z"/></svg>