<svg xmlns="http://www.w3.org/2000/svg" viewBox="0 0 576 512"><!--! Font Awesome Pro 6.4.0 by @fontawesome - https://fontawesome.com License - https://fontawesome.com/license (Commercial License) Copyright 2023 Fonticons, Inc. --><path d="M277.1 48c23 0 42.5 14.7 49.8 35.2c4.4 12.5 18.1 19 30.6 14.6s19-18.1 14.6-30.6C358.3 28.1 321 0 277.1 0S195.8 28.1 182 67.2c-4.4 12.5 2.1 26.2 14.6 30.6s26.2-2.1 30.6-14.6C234.5 62.7 254.1 48 277.1 48zM66.7 197.5c11.9-5.9 16.7-20.3 10.7-32.2s-20.3-16.7-32.2-10.7l-4.7 2.3C15.7 169.3 0 194.7 0 222.6c0 37.4 28 68.3 64.2 72.9C66.4 344.7 91 388.2 128 416v48c0 26.5 21.5 48 48 48h48c26.5 0 48-21.5 48-48V448h48v16c0 26.5 21.5 48 48 48h48c26.5 0 48-21.5 48-48V426.6c18.7-10.8 35.1-25.4 48-42.6h32c17.7 0 32-14.3 32-32V256c0-17.7-14.3-32-32-32H530.7c-8.2-18.8-19.9-35.7-34.2-49.8l11.3-36.8-22.9-7 22.9 7c6.3-20.6-9.1-41.4-30.6-41.4H456c-31.5 0-60.2 12.2-81.6 32H224c-74.4 0-137 50.8-154.9 119.6c-12-2-21.1-12.5-21.1-25.1c0-9.6 5.4-18.4 14.1-22.8l4.7-2.3zM424 288a24 24 0 1 0 0-48 24 24 0 1 0 0 48zM402.3 168c13.1-14.7 32.1-23.9 53.2-24L446 174.8c-2.9 9.4 .2 19.6 7.9 25.8c17.4 13.9 30.4 32.8 37.1 54.5c3.1 10.1 12.4 17 22.9 17h14v64H499.4c-8.3 0-16 4.3-20.3 11.3c-11.7 18.7-28.7 33.7-48.9 42.8C421.5 394 416 402.5 416 412v52H368V424c0-13.3-10.7-24-24-24H248c-13.3 0-24 10.7-24 24v40H176V403.4c0-8.3-4.3-16-11.3-20.3c-31.7-19.8-52.7-55-52.7-95c0-61.9 50.1-112 112-112H384h0l.4 0c6.8 0 13.4-2.9 17.9-8z"/></svg>