<svg xmlns="http://www.w3.org/2000/svg" viewBox="0 0 640 512"><!--! Font Awesome Pro 6.4.0 by @fontawesome - https://fontawesome.com License - https://fontawesome.com/license (Commercial License) Copyright 2023 Fonticons, Inc. --><path d="M586.8 48c-36.4 0-70.1 19-89 50.2L412.1 239.8c13 16 14.6 39.3 2.4 57.2L318.7 438.3c-31.3 46.1-83.3 73.7-139 73.7H168C75.2 512 0 436.8 0 344V232c0-30.9 25.1-56 56-56H216c30.9 0 56 25.1 56 56v9.4l23-29.9c12.3-16 32.9-22.2 51.4-16.9l111.2-138C486.4 20.8 529.9 0 575.9 0h10.9H616c13.3 0 24 10.7 24 24s-10.7 24-24 24H586.8zM56 224c-4.4 0-8 3.6-8 8V344c0 66.3 53.7 120 120 120h11.7c39.8 0 77-19.7 99.3-52.6l95.9-141.3L333 240.8l-66 85.8c-6.3 8.1-17 11.4-26.8 8.1s-16.3-12.4-16.3-22.7V232c0-4.4-3.6-8-8-8H56z"/></svg>