<svg xmlns="http://www.w3.org/2000/svg" viewBox="0 0 512 512"><!--! Font Awesome Pro 6.4.0 by @fontawesome - https://fontawesome.com License - https://fontawesome.com/license (Commercial License) Copyright 2023 Fonticons, Inc. --><path d="M.8 39L61.5 308.8l-15.5 4.3C18.8 320.5 0 345.2 0 373.4c0 26 16.1 49.3 40.4 58.5l196.1 74.4c10 3.8 20.5 5.7 31.2 5.7H488c13.3 0 24-10.7 24-24s-10.7-24-24-24H267.7c-4.8 0-9.7-.9-14.2-2.6L57.4 387c-5.7-2.1-9.4-7.6-9.4-13.6c0-6.6 4.4-12.3 10.7-14.1L254 305.4c3.5-1 7-1.4 10.6-1.4H488c13.3 0 24-10.7 24-24s-10.7-24-24-24H384L154.9 19.5C142.8 7 126.2 0 108.9 0H32C11.5 0-3.7 19 .8 39zM216 352c-13.3 0-24 10.7-24 24s10.7 24 24 24H360c13.3 0 24-10.7 24-24s-10.7-24-24-24H216z"/></svg>