<svg xmlns="http://www.w3.org/2000/svg" viewBox="0 0 576 512"><!--! Font Awesome Pro 6.4.0 by @fontawesome - https://fontawesome.com License - https://fontawesome.com/license (Commercial License) Copyright 2023 Fonticons, Inc. --><path d="M267.3 176h49.5L299.1 48H284.9L267.3 176zM344.7 27.6l5 36.4c.7-.1 1.5-.1 2.2-.1h16V48c0-8.8 7.2-16 16-16s16 7.2 16 16V80c8.8 0 16 7.2 16 16s-7.2 16-16 16v32c0 8.8-7.2 16-16 16s-16-7.2-16-16V128h-9.4l6.6 48h93.1c21 0 48.1 6.2 70.4 17.4C549.4 203.8 576 223.9 576 256c0 32.5-26.4 52.6-47.4 63c-22.5 11.1-49.5 17-70.3 17H365.2l-6.6 48H368V368c0-8.8 7.2-16 16-16s16 7.2 16 16v32c8.8 0 16 7.2 16 16s-7.2 16-16 16v32c0 8.8-7.2 16-16 16s-16-7.2-16-16V448H352c-.8 0-1.5 0-2.2-.1l-5 36.4C342.5 500.2 329 512 313 512H271c-16 0-29.5-11.8-31.7-27.6l-5-36.4H224c-17.7 0-32-14.3-32-32s14.3-32 32-32h1.4l-7.2-52.4-75.7-9.1-5.8 34.3C134.3 372.4 120.8 384 105 384H71c-15.9 0-29.4-11.7-31.7-27.4L28.7 287.8C12.6 286.2 0 272.5 0 256s12.6-30.2 28.7-31.8l10.7-68.7C41.6 139.7 55.1 128 71 128h34c15.8 0 29.3 11.6 31.6 27.2l5.8 34.3 75.7-9.1 7.2-52.4H224c-17.7 0-32-14.3-32-32s14.3-32 32-32h10.3l5-36.4C241.5 11.8 255 0 271 0H313c16 0 29.5 11.8 31.7 27.6zM267.3 336l17.7 128h14.2l17.7-128H267.3zm191.1-48c13.4 0 33.1-4.1 49-12c17.4-8.6 20.7-16.5 20.7-20c0-2.9-3.2-10.8-20.8-19.7c-15.9-8-35.7-12.3-48.9-12.3H257.4L125.5 239.8c-12.7 1.5-24.4-7.2-26.5-19.8l-7.5-44H84.7L72.3 256l12.4 80h6.8L99 292c2.2-12.6 13.8-21.3 26.5-19.8L257.4 288H458.3z"/></svg>