<svg xmlns="http://www.w3.org/2000/svg" viewBox="0 0 512 512"><!--! Font Awesome Pro 6.4.0 by @fontawesome - https://fontawesome.com License - https://fontawesome.com/license (Commercial License) Copyright 2023 Fonticons, Inc. --><path d="M464 31.1a.9 .9 0 1 0 -1.6 .5 .9 .9 0 1 0 1.6-.5zm-5.2 22.1c-11.9 4.4-27 11.5-45 21.9c-13.4-11.8-27.9-21.8-43-30c63.8-40.5 113.9-56.2 133.1-37c22.1 22.1-2.3 85.6-57.6 163.7C457.7 197.6 464 226 464 256c0 114.9-93.1 208-208 208c-30 0-58.4-6.3-84.2-17.7C93.7 501.6 30.3 526 8.1 503.9c-19.2-19.2-3.4-69.3 37-133.1c8.3 15.1 18.3 29.6 30 43c-10.4 18-17.6 33-21.9 45c12.6-4.6 28.7-12.3 48.1-23.8c8.2-4.8 16.7-10.2 25.4-16C78.8 380.9 48 322 48 256C48 141.1 141.1 48 256 48c66 0 124.9 30.8 163 78.8c5.8-8.8 11.2-17.3 16-25.4c11.4-19.4 19.2-35.5 23.8-48.1zM389.6 167.9C361 124.6 311.8 96 256 96C167.6 96 96 167.6 96 256c0 55.8 28.6 105 71.9 133.6c37.1-28.2 77.4-63.4 117.8-103.8s75.6-80.8 103.8-117.8zM217.9 411.4c12.2 3 25 4.6 38.1 4.6c88.4 0 160-71.6 160-160c0-13.1-1.6-25.9-4.6-38.1c-26.5 33-57.4 67.5-91.7 101.8s-68.8 65.2-101.8 91.7zM31.1 464a.9 .9 0 1 0 .5-1.6 .9 .9 0 1 0 -.5 1.6zm16.8 16a1.1 1.1 0 1 0 1.8 1.1A1.1 1.1 0 1 0 47.9 480zM480 47.9a1.1 1.1 0 1 0 1.1 1.8A1.1 1.1 0 1 0 480 47.9z"/></svg>