<svg xmlns="http://www.w3.org/2000/svg" viewBox="0 0 576 512"><!--! Font Awesome Pro 6.4.0 by @fontawesome - https://fontawesome.com License - https://fontawesome.com/license (Commercial License) Copyright 2023 Fonticons, Inc. --><path d="M128 24c0-13.3-10.7-24-24-24S80 10.7 80 24v88h48V24zm176 0c0-13.3-10.7-24-24-24s-24 10.7-24 24v88h48V24zM24 144c-13.3 0-24 10.7-24 24s10.7 24 24 24h8v64c0 80.2 59 146.6 136 158.2V488c0 13.3 10.7 24 24 24s24-10.7 24-24V414.2c15.2-2.3 29.7-6.7 43.1-12.9c-2.1-10.8-3.1-21.9-3.1-33.3c0-7.1 .4-14.1 1.2-20.9C238.9 360.2 216.3 368 192 368c-61.9 0-112-50.1-112-112V192H304v55.2c13.8-14.6 30-26.8 48-36V192h8c13.3 0 24-10.7 24-24s-10.7-24-24-24h-8H304 80 32 24zM432 512a144 144 0 1 0 0-288 144 144 0 1 0 0 288zm47.9-225c4.3 3.7 5.4 9.9 2.6 14.9L452.4 356H488c5.2 0 9.8 3.3 11.4 8.2s-.1 10.3-4.2 13.4l-96 72c-4.5 3.4-10.8 3.2-15.1-.6s-5.4-9.9-2.6-14.9L411.6 380H376c-5.2 0-9.8-3.3-11.4-8.2s.1-10.3 4.2-13.4l96-72c4.5-3.4 10.8-3.2 15.1 .6z"/></svg>