<svg xmlns="http://www.w3.org/2000/svg" viewBox="0 0 576 512"><!--! Font Awesome Pro 6.4.0 by @fontawesome - https://fontawesome.com License - https://fontawesome.com/license (Commercial License) Copyright 2023 Fonticons, Inc. --><path d="M128 24c0-13.3-10.7-24-24-24S80 10.7 80 24v88h48V24zm176 0c0-13.3-10.7-24-24-24s-24 10.7-24 24v88h48V24zM24 144c-13.3 0-24 10.7-24 24s10.7 24 24 24h8v64c0 80.2 59 146.6 136 158.2V488c0 13.3 10.7 24 24 24s24-10.7 24-24V414.2c15.2-2.3 29.7-6.7 43.1-12.9c-2.1-10.8-3.1-21.9-3.1-33.3c0-7.1 .4-14.1 1.2-20.9C238.9 360.2 216.3 368 192 368c-61.9 0-112-50.1-112-112V192H304v55.2c13.8-14.6 30-26.8 48-36V192h8c13.3 0 24-10.7 24-24s-10.7-24-24-24h-8H304 80 32 24zM432 512a144 144 0 1 0 0-288 144 144 0 1 0 0 288zm59.3-180.7L454.6 368l36.7 36.7c6.2 6.2 6.2 16.4 0 22.6s-16.4 6.2-22.6 0L432 390.6l-36.7 36.7c-6.2 6.2-16.4 6.2-22.6 0s-6.2-16.4 0-22.6L409.4 368l-36.7-36.7c-6.2-6.2-6.2-16.4 0-22.6s16.4-6.2 22.6 0L432 345.4l36.7-36.7c6.2-6.2 16.4-6.2 22.6 0s6.2 16.4 0 22.6z"/></svg>