<svg xmlns="http://www.w3.org/2000/svg" viewBox="0 0 448 512"><!--! Font Awesome Pro 6.4.0 by @fontawesome - https://fontawesome.com License - https://fontawesome.com/license (Commercial License) Copyright 2023 Fonticons, Inc. --><path d="M168 72c-22.1 0-40 17.9-40 40v32H424c13.3 0 24 10.7 24 24s-10.7 24-24 24H24c-13.3 0-24-10.7-24-24s10.7-24 24-24H80V112c0-48.6 39.4-88 88-88h14.4C190.7 9.7 206.2 0 224 0h64c26.5 0 48 21.5 48 48s-21.5 48-48 48H224c-17.8 0-33.3-9.7-41.6-24H168zM73.5 455.2L47.3 224H95.6l25.7 225.8c.9 8.1 7.8 14.2 15.9 14.2H310.9c8.1 0 15-6.1 15.9-14.2L352.4 224h48.3L374.5 455.2c-3.7 32.3-31 56.8-63.6 56.8H137.1c-32.6 0-59.9-24.4-63.6-56.8z"/></svg>