<svg xmlns="http://www.w3.org/2000/svg" viewBox="0 0 448 512"><!--! Font Awesome Pro 6.4.0 by @fontawesome - https://fontawesome.com License - https://fontawesome.com/license (Commercial License) Copyright 2023 Fonticons, Inc. --><path d="M182.4 72c8.3 14.3 23.8 24 41.6 24h64c26.5 0 48-21.5 48-48s-21.5-48-48-48H224c-17.8 0-33.3 9.7-41.6 24H168c-48.6 0-88 39.4-88 88v32H24c-13.3 0-24 10.7-24 24s10.7 24 24 24H424c13.3 0 24-10.7 24-24s-10.7-24-24-24H128V112c0-22.1 17.9-40 40-40h14.4zM47.3 224L73.5 455.2c3.7 32.3 31 56.8 63.6 56.8H310.9c32.6 0 59.9-24.4 63.6-56.8L400.7 224H352.4L326.8 449.8c-.9 8.1-7.8 14.2-15.9 14.2H137.1c-8.1 0-15-6.1-15.9-14.2L95.6 224H47.3zm201.5 77.7l-18.2-41.3c-2.6-5.8-10.5-5.8-13.1 0l-18.2 41.3c-1.1 2.4-3.2 4-5.7 4.3l-43.2 5.4c-6.1 .8-8.6 8.7-4 13l31.9 30.9c1.8 1.8 2.7 4.4 2.2 7L171.9 407c-1.2 6.3 5.2 11.2 10.6 8.1l37.9-22.2c2.2-1.3 4.9-1.3 7 0L265.5 415c5.4 3.1 11.8-1.7 10.6-8.1l-8.5-44.6c-.5-2.6 .3-5.2 2.2-7l31.9-30.9c4.5-4.4 2.1-12.3-4-13L254.5 306c-2.5-.3-4.6-2-5.7-4.3z"/></svg>