<svg xmlns="http://www.w3.org/2000/svg" viewBox="0 0 512 512"><!--! Font Awesome Pro 6.4.0 by @fontawesome - https://fontawesome.com License - https://fontawesome.com/license (Commercial License) Copyright 2023 Fonticons, Inc. --><path d="M224 24V0c-9.7 0-18.5 5.8-22.2 14.8s-1.7 19.3 5.2 26.2l17-17zM358.6 132.8l-23.7 3.6c1.3 8.6 7.2 15.9 15.3 18.9l8.4-22.5zm46.6 91.8l-23.1-6.5c-1.9 6.7-.8 13.9 3 19.7s10 9.7 16.9 10.6l3.2-23.8zm41.1 113.1l-17.8-16.2c-5 5.4-7.1 12.9-5.9 20.1s5.7 13.6 12.2 17.1l11.5-21.1zm-380.6 0l11.5 21.1c6.5-3.5 10.9-9.8 12.2-17.1s-1-14.7-5.9-20.1L65.7 337.8zm41.1-113.1l3.2 23.8c6.9-.9 13-4.8 16.9-10.6s4.9-13 3-19.7l-23.1 6.5zm57.7-95l4.9 23.5c.4-.1 .8-.2 1.2-.3l-6-23.2zm66.9-98.1l17-17v0l-17 17zM232 0h-8V48h8V0zM382.3 129.2C371.3 56.1 308.2 0 232 0V48c52.1 0 95.3 38.3 102.8 88.3l47.5-7.2zM432 204c0-43-27.1-79.6-65-93.7l-16.8 45C370 162.6 384 181.7 384 204h48zm-3.7 27.1c2.4-8.6 3.7-17.7 3.7-27.1H384c0 4.9-.7 9.7-1.9 14.1l46.2 13zM488 292c0-46.6-34.7-85.1-79.6-91.2L402 248.4c21.5 2.9 38 21.3 38 43.6h48zm-23.9 61.9C478.9 337.6 488 315.8 488 292H440c0 11.4-4.3 21.8-11.4 29.6l35.5 32.3zM512 408c0-39.4-21.9-73.7-54.2-91.3l-23 42.1c17.4 9.5 29.2 28 29.2 49.2h48zM408 512c57.4 0 104-46.6 104-104H464c0 30.9-25.1 56-56 56v48zm-304 0H408V464H104v48zM0 408c0 57.4 46.6 104 104 104V464c-30.9 0-56-25.1-56-56H0zm54.2-91.3C22 334.3 0 368.6 0 408H48c0-21.2 11.7-39.7 29.2-49.2l-23-42.1zM24 292c0 23.8 9.1 45.6 23.9 61.9l35.5-32.3C76.3 313.8 72 303.4 72 292H24zm79.6-91.2C58.7 206.9 24 245.4 24 292H72c0-22.3 16.6-40.7 38-43.6l-6.4-47.6zM80 204c0 9.4 1.3 18.5 3.7 27.1l46.2-13c-1.3-4.5-1.9-9.2-1.9-14.1H80zm79.7-97.9C114.2 115.5 80 155.7 80 204h48c0-25.1 17.8-46 41.4-50.9l-9.7-47zm17.2-2.1c-6.3 0-12.5 .8-18.4 2.4l12.1 46.4c2-.5 4.1-.8 6.3-.8V104zm3.1 0h-3.1v48H180V104zm14.7 0H180v48h14.7V104zM224 74.7c0 16.2-13.1 29.3-29.3 29.3v48c42.7 0 77.3-34.6 77.3-77.3H224zm0-3.2v3.2h48V71.4H224zm-9.5-23c6.1 6.1 9.5 14.4 9.5 23h48c0-21.4-8.5-41.9-23.6-57L214.5 48.4zM207 41l7.4 7.4 33.9-33.9L241 7 207 41z"/></svg>