<svg xmlns="http://www.w3.org/2000/svg" viewBox="0 0 640 512"><!--! Font Awesome Pro 6.4.0 by @fontawesome - https://fontawesome.com License - https://fontawesome.com/license (Commercial License) Copyright 2023 Fonticons, Inc. --><path d="M112 24c0 26.5 10.5 38.7 25.9 56.1l.4 .4C154.8 99 176 122.9 176 168c0 13.3-10.7 24-24 24s-24-10.7-24-24c0-26.5-10.5-38.7-25.9-56.1l-.4-.4C85.2 93 64 69.1 64 24C64 10.7 74.7 0 88 0s24 10.7 24 24zm112 0c0 26.5 10.5 38.7 25.9 56.1l.4 .4C266.8 99 288 122.9 288 168c0 13.3-10.7 24-24 24s-24-10.7-24-24c0-26.5-10.5-38.7-25.9-56.1l-.4-.4C197.2 93 176 69.1 176 24c0-13.3 10.7-24 24-24s24 10.7 24 24zm208 88c50.7 0 93.6 33.7 107.4 80H324.6c13.8-46.3 56.6-80 107.4-80zM16 280c0-13.3 10.7-24 24-24H66.7c6.6-18.6 24.4-32 45.3-32H528c20.9 0 38.7 13.4 45.3 32H600c13.3 0 24 10.7 24 24s-10.7 24-24 24H573.7c-11 76.9-61.1 141.2-129.5 172.2c-8.1 21-28.4 35.8-52.3 35.8H248c-23.8 0-44.2-14.9-52.3-35.8C127.3 445.2 77.3 380.9 66.3 304H40c-13.3 0-24-10.7-24-24zM240.5 458.9c1.2 3.1 4.2 5.1 7.5 5.1H392c3.3 0 6.3-2 7.5-5.1c4.5-11.7 13.5-21.2 25-26.4C485.6 404.8 528 343.3 528 272H112c0 71.3 42.4 132.8 103.5 160.5c11.5 5.2 20.4 14.7 25 26.4z"/></svg>