<svg xmlns="http://www.w3.org/2000/svg" viewBox="0 0 640 512"><!--! Font Awesome Pro 6.4.0 by @fontawesome - https://fontawesome.com License - https://fontawesome.com/license (Commercial License) Copyright 2023 Fonticons, Inc. --><path d="M176 160H128V64c0-35.3 28.7-64 64-64H421.5c17 0 33.3 6.7 45.3 18.7l26.5 26.5c12 12 18.7 28.3 18.7 45.3V160H464V90.5c0-4.2-1.7-8.3-4.7-11.3L432.8 52.7c-3-3-7.1-4.7-11.3-4.7H192c-8.8 0-16 7.2-16 16v96zm16 208v96H378.2c21.1 10.2 44.8 16 69.8 16c16.7 0 32.8-2.6 48-7.3V480c0 17.7-14.3 32-32 32H176c-17.7 0-32-14.3-32-32V400H96c-17.7 0-32-14.3-32-32V256c0-35.3 28.7-64 64-64H352c-17.2 12.9-31.7 29.3-42.6 48H128c-8.8 0-16 7.2-16 16v96h32c0-17.7 14.3-32 32-32H288c0 16.7 2.6 32.8 7.3 48H192zm256 32.2a80 80 0 1 0 0-160 80 80 0 1 0 0 160zm0 48c-70.7 0-128-57.3-128-128s57.3-128 128-128s128 57.3 128 128c0 26.7-8.2 51.4-22.1 71.9L633 471.2c9.4 9.4 9.4 24.6 0 33.9s-24.6 9.4-33.9 0L519.9 426c-20.5 14-45.3 22.1-71.9 22.1z"/></svg>