<svg xmlns="http://www.w3.org/2000/svg" viewBox="0 0 448 512"><!--! Font Awesome Pro 6.4.0 by @fontawesome - https://fontawesome.com License - https://fontawesome.com/license (Commercial License) Copyright 2023 Fonticons, Inc. --><path d="M168 0h48c25.4 0 46.8 16.9 53.7 40h46.4c19.1 0 37.4 7.6 50.9 21.1L409 103c9.4 9.4 9.4 24.6 0 33.9s-24.6 9.4-33.9 0L333.1 95c-4.5-4.5-10.6-7-17-7H272v40H224V56c0-4.4-3.6-8-8-8H168c-4.4 0-8 3.6-8 8v72H112V56c0-30.9 25.1-56 56-56zM101.5 222.7l-18.7 224C82.1 456 89.4 464 98.8 464H285.2c9.4 0 16.7-8 15.9-17.3l-18.7-224c-.7-8.3-7.6-14.7-15.9-14.7H117.4c-8.3 0-15.3 6.4-15.9 14.7zm-47.8-4c2.8-33.2 30.5-58.7 63.8-58.7H266.6c33.3 0 61 25.5 63.8 58.7l18.7 224c3.1 37.3-26.3 69.3-63.8 69.3H98.8c-37.4 0-66.9-32-63.8-69.3l18.7-224zM216 296v16h16c13.3 0 24 10.7 24 24s-10.7 24-24 24H216v16c0 13.3-10.7 24-24 24s-24-10.7-24-24V360H152c-13.3 0-24-10.7-24-24s10.7-24 24-24h16V296c0-13.3 10.7-24 24-24s24 10.7 24 24z"/></svg>