<svg xmlns="http://www.w3.org/2000/svg" viewBox="0 0 640 512"><!-- Font Awesome Pro 6.0.0-alpha2 by @fontawesome - https://fontawesome.com License - https://fontawesome.com/license (Commercial License) --><path d="M512.018 319.762C459.155 319.762 416.038 362.76 416.038 415.508S459.155 511.254 512.018 511.254C564.883 511.254 607.998 468.256 607.998 415.508S564.883 319.762 512.018 319.762ZM512.018 463.506C485.524 463.506 464.028 442.007 464.028 415.633C464.028 389.259 485.524 367.76 512.018 367.76C538.512 367.76 560.008 389.259 560.008 415.633C560.008 442.007 538.387 463.506 512.018 463.506ZM634.904 9.24C626.732 -1.197 611.654 -3.103 601.217 5.115L368.073 187.252L328.681 137.77C323.808 131.77 314.685 131.77 309.81 137.895L252.197 211.017C221.079 211.767 148.218 217.641 100.228 255.765C38.242 305.013 0 511.254 0 511.254C15.121 512.004 212.331 518.754 272.193 471.256C319.808 433.257 342.179 363.76 349.927 333.637L434.159 294.138C441.159 290.763 443.282 281.764 438.534 275.764L397.966 224.805L630.779 42.926C641.217 34.77 643.076 19.677 634.904 9.24ZM242.198 433.757C225.702 446.882 167.964 462.256 59.488 463.881C64.236 444.757 69.611 425.758 75.234 407.508L120.599 371.51C125.599 367.635 121.724 359.635 115.601 360.885L89.482 366.385C102.853 331.137 117.226 303.388 130.222 293.013C157.216 271.514 201.458 262.015 239.825 259.515L299.687 334.511C290.314 365.76 271.693 410.383 242.198 433.757ZM365.675 273.264L330.181 289.763L290.439 239.89L314.685 209.142C317.06 206.142 321.683 206.017 324.058 209.142L367.798 264.014C370.173 267.014 369.173 271.514 365.675 273.264Z"/></svg>