<svg xmlns="http://www.w3.org/2000/svg" viewBox="0 0 512 512"><!-- Font Awesome Pro 6.0.0-alpha2 by @fontawesome - https://fontawesome.com License - https://fontawesome.com/license (Commercial License) --><path d="M112 256C88.16 256 66.16 263.57 48 276.268V184C48 126.656 94.656 80 152 80H168C181.25 80 192 69.25 192 56S181.25 32 168 32H152C68.188 32 0 100.188 0 184V368C0 429.855 50.145 480 112 480S224 429.855 224 368S173.855 256 112 256ZM112 432C76.711 432 48 403.289 48 368S76.711 304 112 304S176 332.711 176 368S147.289 432 112 432ZM400 256C376.16 256 354.16 263.57 336 276.268V184C336 126.656 382.656 80 440 80H456C469.25 80 480 69.25 480 56S469.25 32 456 32H440C356.188 32 288 100.188 288 184V368C288 429.855 338.145 480 400 480S512 429.855 512 368S461.855 256 400 256ZM400 432C364.711 432 336 403.289 336 368S364.711 304 400 304S464 332.711 464 368S435.289 432 400 432Z"/></svg>