<svg xmlns="http://www.w3.org/2000/svg" viewBox="0 0 448 512"><!--! Font Awesome Pro 6.4.0 by @fontawesome - https://fontawesome.com License - https://fontawesome.com/license (Commercial License) Copyright 2023 Fonticons, Inc. --><path d="M448 296c0 66.3-53.7 120-120 120H312c-13.3 0-24-10.7-24-24s10.7-24 24-24h16c39.8 0 72-32.2 72-72V286c-5.1 1.3-10.5 2-16 2H320c-35.3 0-64-28.7-64-64V160c0-35.3 28.7-64 64-64h64c35.3 0 64 28.7 64 64v32 32 72zm-48-72V192 160c0-8.8-7.2-16-16-16H320c-8.8 0-16 7.2-16 16v64c0 8.8 7.2 16 16 16h64c8.8 0 16-7.2 16-16zM64 240h64c8.8 0 16-7.2 16-16V192 160c0-8.8-7.2-16-16-16H64c-8.8 0-16 7.2-16 16v64c0 8.8 7.2 16 16 16zm128-48v32 72c0 66.3-53.7 120-120 120H56c-13.3 0-24-10.7-24-24s10.7-24 24-24H72c39.8 0 72-32.2 72-72V286c-5.1 1.3-10.5 2-16 2H64c-35.3 0-64-28.7-64-64V160c0-35.3 28.7-64 64-64h64c35.3 0 64 28.7 64 64v32z"/></svg>