<svg xmlns="http://www.w3.org/2000/svg" viewBox="0 0 320 512"><!--! Font Awesome Pro 6.4.0 by @fontawesome - https://fontawesome.com License - https://fontawesome.com/license (Commercial License) Copyright 2023 Fonticons, Inc. --><path d="M56 32C25.1 32 0 57.1 0 88V280 456c0 13.3 10.7 24 24 24s24-10.7 24-24V304H157.9L276.5 469.9c7.7 10.8 22.7 13.3 33.5 5.6s13.3-22.7 5.6-33.5L214.5 300.6C274.9 286.7 320 232.6 320 168c0-75.1-60.9-136-136-136H56zM176 256H48V88c0-4.4 3.6-8 8-8H184c48.6 0 88 39.4 88 88s-39.4 88-88 88h-8z"/></svg>