<svg xmlns="http://www.w3.org/2000/svg" viewBox="0 0 448 512"><!--! Font Awesome Pro 6.4.0 by @fontawesome - https://fontawesome.com License - https://fontawesome.com/license (Commercial License) Copyright 2023 Fonticons, Inc. --><path d="M96 48H352c8.8 0 16 7.2 16 16V312.4l48 88V64c0-35.3-28.7-64-64-64H96C60.7 0 32 28.7 32 64V400.4l48-88V64c0-8.8 7.2-16 16-16zm67 240c-20.5 0-39.3 11.2-49.2 29.2l-74 135.7C25.3 479.5 44.6 512 75 512H373c30.4 0 49.7-32.5 35.1-59.2l-74-135.7c-9.8-18-28.7-29.2-49.2-29.2H163zm-7 52.2c1.4-2.6 4.1-4.2 7-4.2H285c2.9 0 5.6 1.6 7 4.2L359.6 464H88.4L156 340.2z"/></svg>