<svg xmlns="http://www.w3.org/2000/svg" viewBox="0 0 576 512"><!--! Font Awesome Pro 6.4.0 by @fontawesome - https://fontawesome.com License - https://fontawesome.com/license (Commercial License) Copyright 2023 Fonticons, Inc. --><path d="M120 208h31c22.6 0 41-18.3 41-41c0-10.9-4.3-21.3-12-29L113 71c-4.5-4.5-10.6-7-17-7s-12.5 2.5-17 7l-67 67c-7.7 7.7-12 18.1-12 29c0 22.6 18.3 41 41 41H72V328c0 48.6 39.4 88 88 88H296c13.3 0 24-10.7 24-24s-10.7-24-24-24H160c-22.1 0-40-17.9-40-40V208zM96 121.9L134.1 160l-76.1 0L96 121.9zM504 304V184c0-48.6-39.4-88-88-88H280c-13.3 0-24 10.7-24 24s10.7 24 24 24H416c22.1 0 40 17.9 40 40V304H425c-22.6 0-41 18.3-41 41c0 10.9 4.3 21.3 12 29l67 67c4.5 4.5 10.6 7 17 7s12.5-2.5 17-7l67-67c7.7-7.7 12-18.1 12-29c0-22.6-18.3-41-41-41H504zm-24 86.1L441.9 352h76.1L480 390.1z"/></svg>