<svg xmlns="http://www.w3.org/2000/svg" viewBox="0 0 512 512"><!--! Font Awesome Pro 6.4.0 by @fontawesome - https://fontawesome.com License - https://fontawesome.com/license (Commercial License) Copyright 2023 Fonticons, Inc. --><path d="M336 215c0 22.6 18.3 41 41 41c10.9 0 21.3-4.3 29-12l99-99c4.5-4.5 7-10.6 7-17s-2.5-12.5-7-17l-99-99c-7.7-7.7-18.1-12-29-12c-22.6 0-41 18.3-41 41v63H24c-13.3 0-24 10.7-24 24s10.7 24 24 24H336v63zm118.1-87L384 198.1V57.9L454.1 128zM135 256c-10.9 0-21.3 4.3-29 12L7 367c-4.5 4.5-7 10.6-7 17s2.5 12.5 7 17l99 99c7.7 7.7 18.1 12 29 12c22.6 0 41-18.3 41-41V408H488c13.3 0 24-10.7 24-24s-10.7-24-24-24H176V297c0-22.6-18.3-41-41-41zm-7 198.1L57.9 384 128 313.9V454.1z"/></svg>