<svg xmlns="http://www.w3.org/2000/svg" viewBox="0 0 640 512"><!--! Font Awesome Pro 6.4.0 by @fontawesome - https://fontawesome.com License - https://fontawesome.com/license (Commercial License) Copyright 2023 Fonticons, Inc. --><path d="M217.7 32c-30.4 0-57.5 19-67.7 47.6L40.6 383.6C23.7 430.5 58.4 480 108.3 480H384V432H344V408c0-13.3-10.7-24-24-24s-24 10.7-24 24v24H108.3c-16.6 0-28.2-16.5-22.6-32.1l109.4-304c3.4-9.5 12.5-15.9 22.6-15.9H296v24c0 13.3 10.7 24 24 24s24-10.7 24-24V80h78.3c10.1 0 19.2 6.3 22.6 15.9l28.3 78.5c13.8-7.8 29.4-12.7 46-14L490 79.6C479.7 51 452.6 32 422.3 32H217.7zM344 216c0-13.3-10.7-24-24-24s-24 10.7-24 24v80c0 13.3 10.7 24 24 24s24-10.7 24-24V216zm184 24c17.7 0 32 14.3 32 32v48H496V272c0-17.7 14.3-32 32-32zm-80 32v48c-17.7 0-32 14.3-32 32V480c0 17.7 14.3 32 32 32H608c17.7 0 32-14.3 32-32V352c0-17.7-14.3-32-32-32V272c0-44.2-35.8-80-80-80s-80 35.8-80 80z"/></svg>