<svg xmlns="http://www.w3.org/2000/svg" viewBox="0 0 640 512"><!--! Font Awesome Pro 6.4.0 by @fontawesome - https://fontawesome.com License - https://fontawesome.com/license (Commercial License) Copyright 2023 Fonticons, Inc. --><path d="M192 352H112 64V304 150.5v-5.8V127.5 116.8c0-15.8 20.5-22 29.3-8.9l5.9 8.9 9.6 14.3L112 136l80 120V150.5v-5.8V127.5 116.8c0-15.8 20.5-22 29.3-8.9l5.9 8.9 9.6 14.3L240 136l80 120V150.5v-5.8V127.5 116.8c0-15.8 20.5-22 29.3-8.9l5.9 8.9 9.6 14.3L368 136l80 120V150.5v-5.8V127.5 116.8c0-15.8 20.5-22 29.3-8.9l5.9 8.9 9.6 14.3L496 136 606.8 302.2c14.2 21.3-1.1 49.7-26.6 49.7H512 496 454.3 448 384 368 326.3 320 256 240 198.3 192zm-25.7-48L112 222.5V304h54.3zM0 424c0-13.3 10.7-24 24-24H616c13.3 0 24 10.7 24 24s-10.7 24-24 24H24c-13.3 0-24-10.7-24-24zM240 222.5V304h54.3L240 222.5zM422.3 304L368 222.5V304h54.3zM496 222.5V304h54.3L496 222.5z"/></svg>