<svg xmlns="http://www.w3.org/2000/svg" viewBox="0 0 640 512"><!--! Font Awesome Pro 6.4.0 by @fontawesome - https://fontawesome.com License - https://fontawesome.com/license (Commercial License) Copyright 2023 Fonticons, Inc. --><path d="M48 184c0-40.1 22.7-74.9 56-92.3V456c0 13.3 10.7 24 24 24s24-10.7 24-24V80h5.1c15 0 29.6 3.2 42.9 9.3V456c0 13.3 10.7 24 24 24s24-10.7 24-24V132.6l48 69.1V456c0 13.3 10.7 24 24 24s24-10.7 24-24V270.9l14.9 21.5c9.4 13.6 20.6 25.6 33.1 35.8V456c0 13.3 10.7 24 24 24s24-10.7 24-24V356.1c15.3 5.9 31.4 9.7 48 11.2V456c0 13.3 10.7 24 24 24s24-10.7 24-24V365.8c20.9-4 40-13 56-25.8V456c0 13.3 10.7 24 24 24s24-10.7 24-24V240v-8c0-75.1-60.9-136-136-136h-8.1c-30.4 0-60.3 8.3-86.4 23.9L358 150.8l58 83.5V172l18.1-10.9c14.1-8.4 29.7-13.9 45.9-16V264c0 13.3 10.7 24 24 24s24-10.7 24-24V147.3c36.9 10.4 64 44.4 64 84.7v8c0 44.2-35.8 80-80 80h-8.5c-41.9 0-81.2-20.5-105.1-55L281.9 97.3C253.5 56.4 206.9 32 157.1 32H152C68.1 32 0 100.1 0 184V456c0 13.3 10.7 24 24 24s24-10.7 24-24V184z"/></svg>