<svg xmlns="http://www.w3.org/2000/svg" viewBox="0 0 512 512"><!--! Font Awesome Pro 6.4.0 by @fontawesome - https://fontawesome.com License - https://fontawesome.com/license (Commercial License) Copyright 2023 Fonticons, Inc. --><path d="M416.5 176c-23.6-25.7-42.6-46.5-63.3-62.8C326.4 92.1 298.2 80 256 80c-77.8 0-145.9 50.4-169.3 119.7c-4.2 12.6-17.9 19.3-30.4 15.1s-19.3-17.9-15.1-30.4C71.3 95.5 157.7 32 256 32c53.9 0 92.3 16.3 126.9 43.5c21.9 17.2 42.9 39.5 65.1 63.8V104c0-13.3 10.7-24 24-24s24 10.7 24 24v96c0 13.3-10.7 24-24 24H376c-13.3 0-24-10.7-24-24s10.7-24 24-24h40.5zM280 152V264c0 13.3-10.7 24-24 24s-24-10.7-24-24V152c0-13.3 10.7-24 24-24s24 10.7 24 24zM256 320a32 32 0 1 1 0 64 32 32 0 1 1 0-64zM40 432c-13.3 0-24-10.7-24-24V312c0-13.3 10.7-24 24-24h96c13.3 0 24 10.7 24 24s-10.7 24-24 24H97.9l3 3.3 0 0 0 0c22 24.3 39.8 43.9 59.4 59.6c26.1 21 53.6 33.1 95.8 33.1c77.8 0 145.9-50.4 169.3-119.7c4.2-12.6 17.9-19.3 30.4-15.1s19.3 17.9 15.1 30.4C440.7 416.5 354.3 480 256 480c-53.9 0-91.9-16.4-125.8-43.6c-22.1-17.7-43.4-41-66.2-66.2V408c0 13.3-10.7 24-24 24z"/></svg>