<svg xmlns="http://www.w3.org/2000/svg" viewBox="0 0 512 512"><!-- Font Awesome Pro 6.0.0-alpha2 by @fontawesome - https://fontawesome.com License - https://fontawesome.com/license (Commercial License) --><path d="M496 72V200C496 213.25 485.25 224 472 224H344C334.281 224 325.531 218.156 321.812 209.188C318.125 200.219 320.156 189.906 327.031 183.031L379.176 130.887C346.926 99.289 303.076 80 256 80C158.969 80 80 158.969 80 256S158.969 432 256 432C297.094 432 337.094 417.531 368.625 391.25C378.812 382.75 393.906 384.094 402.437 394.312C410.937 404.5 409.562 419.625 399.375 428.125C359.219 461.562 308.312 480 256 480C132.5 480 32 379.5 32 256S132.5 32 256 32C316.031 32 371.967 56.652 413.035 97.027L455.031 55.031C461.906 48.156 472.219 46.156 481.187 49.813C490.156 53.531 496 62.281 496 72Z"/></svg>