<svg xmlns="http://www.w3.org/2000/svg" viewBox="0 0 640 512"><!--! Font Awesome Pro 6.4.0 by @fontawesome - https://fontawesome.com License - https://fontawesome.com/license (Commercial License) Copyright 2023 Fonticons, Inc. --><path d="M48 320c0 8.8 7.2 16 16 16l512 0c8.8 0 16-7.2 16-16V192c0-8.8-7.2-16-16-16l-48 0v48c0 8.8-7.2 16-16 16s-16-7.2-16-16V176l-64 0v48c0 8.8-7.2 16-16 16s-16-7.2-16-16V176l-64 0v48c0 8.8-7.2 16-16 16s-16-7.2-16-16V176l-64 0v48c0 8.8-7.2 16-16 16s-16-7.2-16-16V176l-64 0v48c0 8.8-7.2 16-16 16s-16-7.2-16-16V176l-48 0c-8.8 0-16 7.2-16 16l0 128zm16 64c-35.3 0-64-28.7-64-64V192c0-35.3 28.7-64 64-64H576c35.3 0 64 28.7 64 64V320c0 35.3-28.7 64-64 64L64 384z"/></svg>