<svg xmlns="http://www.w3.org/2000/svg" viewBox="0 0 512 512"><!--! Font Awesome Pro 6.4.0 by @fontawesome - https://fontawesome.com License - https://fontawesome.com/license (Commercial License) Copyright 2023 Fonticons, Inc. --><path d="M192 288V272 224l-64 0c-8.8 0-16-7.2-16-16s7.2-16 16-16h64V128l-64 0c-8.8 0-16-7.2-16-16s7.2-16 16-16l64 0 0-32c0-8.8-7.2-16-16-16L64 48c-8.8 0-16 7.2-16 16l0 272 0 112c0 .6 0 1.2 .1 1.7c.8 8 7.7 14.3 15.9 14.3H176l272 0c8.8 0 16-7.2 16-16l0-112c0-8.8-7.2-16-16-16H416v64c0 8.8-7.2 16-16 16s-16-7.2-16-16V320H320v64c0 8.8-7.2 16-16 16s-16-7.2-16-16V320H240 224v64c0 8.8-7.2 16-16 16s-16-7.2-16-16V320H128c-8.8 0-16-7.2-16-16s7.2-16 16-16h64zm96-16H448c35.3 0 64 28.7 64 64V448c0 35.3-28.7 64-64 64l-272 0H64C30.9 512 3.6 486.8 .3 454.5c-.2-2.2-.3-4.3-.3-6.5V336 64C0 28.7 28.7 0 64 0H176c35.3 0 64 28.7 64 64l0 160 0 48h48z"/></svg>