<svg xmlns="http://www.w3.org/2000/svg" viewBox="0 0 512 512"><!--! Font Awesome Pro 6.4.0 by @fontawesome - https://fontawesome.com License - https://fontawesome.com/license (Commercial License) Copyright 2023 Fonticons, Inc. --><path d="M200 288c-6.2 0-11.9-3.6-14.5-9.3s-1.7-12.3 2.3-17.1L200 247.2l5.6-6.7 .4-.5L387.4 25.1C400.8 9.2 420.6 0 441.4 0c39 0 70.6 31.6 70.6 70.6v4c0 17.6-6.2 34.6-17.6 48.1l-36.7-31c4-4.8 6.3-10.9 6.3-17.1v-4C464 58.1 453.9 48 441.4 48c-6.7 0-13 2.9-17.3 8L268.9 240h63.8L457.7 91.7l36.7 31L369.3 271c-9.1 10.8-22.5 17-36.7 17H228.4h-.7H219 200zm-35.3 36.7l4.7-4.7H176h96 16v16c0 74.9-65.5 118.6-126.1 142.9C100.1 503.6 34.1 512 16 512c-6.5 0-12.3-3.9-14.8-9.9s-1.1-12.9 3.5-17.4l160-160z"/></svg>