<svg xmlns="http://www.w3.org/2000/svg" viewBox="0 0 640 512"><!--! Font Awesome Pro 6.4.0 by @fontawesome - https://fontawesome.com License - https://fontawesome.com/license (Commercial License) Copyright 2023 Fonticons, Inc. --><path d="M333.3 4c-8.1-5.4-18.6-5.4-26.6 0l-138 92H72C32.2 96 0 128.2 0 168V440c0 39.8 32.2 72 72 72H256 384h10.8C349.5 480.1 320 427.5 320 368c0-16.5 2.3-32.5 6.5-47.7c-2.1-.2-4.3-.3-6.5-.3c-35.3 0-64 28.7-64 64v80H72c-13.3 0-24-10.7-24-24V168c0-13.3 10.7-24 24-24H176c4.7 0 9.4-1.4 13.3-4L320 52.8 450.7 140c3.9 2.6 8.6 4 13.3 4H568c13.3 0 24 10.7 24 24v52.5c18.8 12.3 35.1 28 48 46.3V168c0-39.8-32.2-72-72-72H471.3L333.3 4zm20.2 260.6c10.9-15 24.1-28.2 39.1-39.1c4.7-10.2 7.3-21.5 7.3-33.5c0-44.2-35.8-80-80-80s-80 35.8-80 80s35.8 80 80 80c12 0 23.3-2.6 33.5-7.3zM96 208v64c0 8.8 7.2 16 16 16h32c8.8 0 16-7.2 16-16V208c0-8.8-7.2-16-16-16H112c-8.8 0-16 7.2-16 16zm16 112c-8.8 0-16 7.2-16 16v64c0 8.8 7.2 16 16 16h32c8.8 0 16-7.2 16-16V336c0-8.8-7.2-16-16-16H112zM320 144c8.8 0 16 7.2 16 16v16h8c8.8 0 16 7.2 16 16s-7.2 16-16 16H320c-8.8 0-16-7.2-16-16V160c0-8.8 7.2-16 16-16zM496 512a144 144 0 1 0 0-288 144 144 0 1 0 0 288zm22.6-144l36.7 36.7c6.2 6.2 6.2 16.4 0 22.6s-16.4 6.2-22.6 0L496 390.6l-36.7 36.7c-6.2 6.2-16.4 6.2-22.6 0s-6.2-16.4 0-22.6L473.4 368l-36.7-36.7c-6.2-6.2-6.2-16.4 0-22.6s16.4-6.2 22.6 0L496 345.4l36.7-36.7c6.2-6.2 16.4-6.2 22.6 0s6.2 16.4 0 22.6L518.6 368z"/></svg>