<svg xmlns="http://www.w3.org/2000/svg" viewBox="0 0 640 512"><!--! Font Awesome Pro 6.4.0 by @fontawesome - https://fontawesome.com License - https://fontawesome.com/license (Commercial License) Copyright 2023 Fonticons, Inc. --><path d="M306.7 4c8.1-5.4 18.6-5.4 26.6 0l138 92H568c39.8 0 72 32.2 72 72V272c0-38.1-19-71.7-48-91.9V168c0-13.3-10.7-24-24-24H464c-4.7 0-9.4-1.4-13.3-4L320 52.8 189.3 140c-3.9 2.6-8.6 4-13.3 4H72c-13.3 0-24 10.7-24 24V440c0 13.3 10.7 24 24 24H256V384c0-35.3 28.7-64 64-64s64 28.7 64 64v80 16c0 11.7 3.1 22.6 8.6 32H384 256 72c-39.8 0-72-32.2-72-72V168c0-39.8 32.2-72 72-72h96.7l138-92zM112 192h32c8.8 0 16 7.2 16 16v64c0 8.8-7.2 16-16 16H112c-8.8 0-16-7.2-16-16V208c0-8.8 7.2-16 16-16zm0 128h32c8.8 0 16 7.2 16 16v64c0 8.8-7.2 16-16 16H112c-8.8 0-16-7.2-16-16V336c0-8.8 7.2-16 16-16zM240 192a80 80 0 1 1 160 0 80 80 0 1 1 -160 0zm80-48c-8.8 0-16 7.2-16 16v32c0 8.8 7.2 16 16 16h24c8.8 0 16-7.2 16-16s-7.2-16-16-16h-8V160c0-8.8-7.2-16-16-16zm208 96c-17.7 0-32 14.3-32 32v48h64V272c0-17.7-14.3-32-32-32zm-80 32c0-44.2 35.8-80 80-80s80 35.8 80 80v48c17.7 0 32 14.3 32 32V480c0 17.7-14.3 32-32 32H448c-17.7 0-32-14.3-32-32V352c0-17.7 14.3-32 32-32V272z"/></svg>