<svg xmlns="http://www.w3.org/2000/svg" viewBox="0 0 576 512"><!--! Font Awesome Pro 6.4.0 by @fontawesome - https://fontawesome.com License - https://fontawesome.com/license (Commercial License) Copyright 2023 Fonticons, Inc. --><path d="M288 0H400c8.8 0 16 7.2 16 16V80c0 8.8-7.2 16-16 16H318.1l89.6 64H504c39.8 0 72 32.2 72 72V440c0 39.8-32.2 72-72 72H336 240 72c-39.8 0-72-32.2-72-72V232c0-39.8 32.2-72 72-72h96.3L264 91.6V24c0-13.3 10.7-24 24-24zM504 464c13.3 0 24-10.7 24-24V232c0-13.3-10.7-24-24-24H400c-5 0-9.9-1.6-13.9-4.5l-98.1-70-98.1 70c-4.1 2.9-8.9 4.5-13.9 4.5H72c-13.3 0-24 10.7-24 24V440c0 13.3 10.7 24 24 24H240V400c0-26.5 21.5-48 48-48s48 21.5 48 48v64H504zM240 240a48 48 0 1 1 96 0 48 48 0 1 1 -96 0zM112 256h32c8.8 0 16 7.2 16 16v32c0 8.8-7.2 16-16 16H112c-8.8 0-16-7.2-16-16V272c0-8.8 7.2-16 16-16zm304 16c0-8.8 7.2-16 16-16h32c8.8 0 16 7.2 16 16v32c0 8.8-7.2 16-16 16H432c-8.8 0-16-7.2-16-16V272zM112 352h32c8.8 0 16 7.2 16 16v32c0 8.8-7.2 16-16 16H112c-8.8 0-16-7.2-16-16V368c0-8.8 7.2-16 16-16zm320 0h32c8.8 0 16 7.2 16 16v32c0 8.8-7.2 16-16 16H432c-8.8 0-16-7.2-16-16V368c0-8.8 7.2-16 16-16z"/></svg>