<svg xmlns="http://www.w3.org/2000/svg" viewBox="0 0 640 512"><!--! Font Awesome Pro 6.4.0 by @fontawesome - https://fontawesome.com License - https://fontawesome.com/license (Commercial License) Copyright 2023 Fonticons, Inc. --><path d="M80 48C62.3 48 48 62.3 48 80V432c0 17.7 14.3 32 32 32s32-14.3 32-32V416 96 80c0-17.7-14.3-32-32-32zm73.3 416C141 492.3 112.8 512 80 512c-44.2 0-80-35.8-80-80V80C0 35.8 35.8 0 80 0c32.8 0 61 19.7 73.3 48H160 480h6.7C499 19.7 527.2 0 560 0c44.2 0 80 35.8 80 80V432c0 44.2-35.8 80-80 80c-32.8 0-61-19.7-73.3-48H480 160h-6.7zm6.7-48H480V96H160V416zm368 16c0 17.7 14.3 32 32 32s32-14.3 32-32V80c0-17.7-14.3-32-32-32s-32 14.3-32 32V96 416v16zM196 313.7c0-3.2 .9-6.4 2.5-9.2L226.7 256l-28.3-48.5c-1.6-2.8-2.5-6-2.5-9.2c0-10.1 8.2-18.3 18.3-18.3H271l31.4-53.9c3.6-6.3 10.3-10.1 17.6-10.1s13.9 3.8 17.6 10.1L369 180h56.7c10.1 0 18.3 8.2 18.3 18.3c0 3.2-.9 6.4-2.5 9.2L413.3 256l28.3 48.5c1.6 2.8 2.5 6 2.5 9.2c0 10.1-8.2 18.3-18.3 18.3H369l-31.4 53.9c-3.6 6.3-10.3 10.1-17.6 10.1s-13.9-3.8-17.6-10.1L271 332H214.3c-10.1 0-18.3-8.2-18.3-18.3zm124 54.7L341.2 332H298.8L320 368.4zM254.5 256l30.3 52h70.4l30.3-52-30.3-52H284.8l-30.3 52zm144.9 23.8L383 308h32.8l-16.4-28.2zM415.8 204H383l16.4 28.2L415.8 204zM320 143.6L298.8 180h42.4L320 143.6zM224.2 204l16.4 28.2L257 204H224.2zM257 308l-16.4-28.2L224.2 308H257z"/></svg>