<svg xmlns="http://www.w3.org/2000/svg" viewBox="0 0 512 512"><!--! Font Awesome Pro 6.4.0 by @fontawesome - https://fontawesome.com License - https://fontawesome.com/license (Commercial License) Copyright 2023 Fonticons, Inc. --><path d="M176 112c12.7 0 24.9-5.1 33.9-14.1L256 51.9l46.1 46.1c9 9 21.2 14.1 33.9 14.1h64v64c0 12.7 5.1 24.9 14.1 33.9l45.6 45.6-45.6 45.6c-9 9-14.1 21.2-14.1 33.9V400H335.1c-12.7 0-24.9 5.1-33.9 14.1L256 459.2l-45.1-45.1c-9-9-21.2-14.1-33.9-14.1H112V335.1c0-12.7-5.1-24.9-14.1-33.9L52.4 255.5l45.6-45.6c9-9 14.1-21.2 14.1-33.9V112h64zM289.9 17.9c-18.7-18.7-49.1-18.7-67.9 0L176 64H112c-26.5 0-48 21.5-48 48v64L18.4 221.6c-18.7 18.7-18.7 49.1 0 67.9L64 335.1V400c0 26.5 21.5 48 48 48h64.9l45.1 45.1c18.7 18.7 49.1 18.7 67.9 0L335.1 448H400c26.5 0 48-21.5 48-48V335.1l45.6-45.6c18.7-18.7 18.7-49.1 0-67.9L448 176V112c0-26.5-21.5-48-48-48H336L289.9 17.9zM256 128c-13.3 0-24 10.7-24 24V264c0 13.3 10.7 24 24 24s24-10.7 24-24V152c0-13.3-10.7-24-24-24zm32 224a32 32 0 1 0 -64 0 32 32 0 1 0 64 0z"/></svg>