<svg xmlns="http://www.w3.org/2000/svg" viewBox="0 0 512 512"><!--! Font Awesome Pro 6.4.0 by @fontawesome - https://fontawesome.com License - https://fontawesome.com/license (Commercial License) Copyright 2023 Fonticons, Inc. --><path d="M176 112c12.7 0 24.9-5.1 33.9-14.1L256 51.9l46.1 46.1c9 9 21.2 14.1 33.9 14.1h64v64c0 12.7 5.1 24.9 14.1 33.9l45.6 45.6-45.6 45.6c-9 9-14.1 21.2-14.1 33.9V400H335.1c-12.7 0-24.9 5.1-33.9 14.1L256 459.2l-45.1-45.1c-9-9-21.2-14.1-33.9-14.1H112V335.1c0-12.7-5.1-24.9-14.1-33.9L52.4 255.5l45.6-45.6c9-9 14.1-21.2 14.1-33.9V112h64zM289.9 17.9c-18.7-18.7-49.1-18.7-67.9 0L176 64H112c-26.5 0-48 21.5-48 48v64L18.4 221.6c-18.7 18.7-18.7 49.1 0 67.9L64 335.1V400c0 26.5 21.5 48 48 48h64.9l45.1 45.1c18.7 18.7 49.1 18.7 67.9 0L335.1 448H400c26.5 0 48-21.5 48-48V335.1l45.6-45.6c18.7-18.7 18.7-49.1 0-67.9L448 176V112c0-26.5-21.5-48-48-48H336L289.9 17.9zM169.8 165.3l-.4 1.2c-4.4 12.5 2.1 26.2 14.6 30.6s26.2-2.1 30.6-14.6l.4-1.2c1.1-3.2 4.2-5.3 7.5-5.3h58.3c8.4 0 15.1 6.8 15.1 15.1c0 5.4-2.9 10.4-7.6 13.1l-44.3 25.4c-7.5 4.3-12.1 12.2-12.1 20.8V264c0 13.3 10.7 24 24 24c13.1 0 23.8-10.5 24-23.6l32.3-18.5c19.6-11.3 31.7-32.2 31.7-54.8c0-34.9-28.3-63.1-63.1-63.1H222.6c-23.7 0-44.8 14.9-52.8 37.3zM288 352a32 32 0 1 0 -64 0 32 32 0 1 0 64 0z"/></svg>