<svg xmlns="http://www.w3.org/2000/svg" viewBox="0 0 640 512"><!--! Font Awesome Pro 6.4.0 by @fontawesome - https://fontawesome.com License - https://fontawesome.com/license (Commercial License) Copyright 2023 Fonticons, Inc. --><path d="M64 80H384c8.8 0 16 7.2 16 16v49.9c13.1-11.4 30.1-17.9 48-17.9V96c0-35.3-28.7-64-64-64H64C28.7 32 0 60.7 0 96V416c0 35.3 28.7 64 64 64H225c-.6-4-1-8.1-1-12.3c0-12.5 3-24.7 8.9-35.7H64c-8.8 0-16-7.2-16-16V96c0-8.8 7.2-16 16-16zm80 72c0-13.3-10.7-24-24-24s-24 10.7-24 24V264c0 13.3 10.7 24 24 24s24-10.7 24-24V152zm96 0c0-13.3-10.7-24-24-24s-24 10.7-24 24V264c0 13.3 10.7 24 24 24s24-10.7 24-24V152zm21.8 293.8c-3.8 6.7-5.8 14.2-5.8 21.9c0 24.5 19.8 44.3 44.3 44.3H595.7c24.5 0 44.3-19.8 44.3-44.3c0-7.7-2-15.2-5.8-21.9l-150.4-265C476.5 168 462.8 160 448 160s-28.5 8-35.8 20.9l-150.4 265zM464 272v88c0 8.8-7.2 16-16 16s-16-7.2-16-16V272c0-8.8 7.2-16 16-16s16 7.2 16 16zM448 408a24 24 0 1 1 0 48 24 24 0 1 1 0-48z"/></svg>