<svg xmlns="http://www.w3.org/2000/svg" viewBox="0 0 512 512"><!--! Font Awesome Pro 6.4.0 by @fontawesome - https://fontawesome.com License - https://fontawesome.com/license (Commercial License) Copyright 2023 Fonticons, Inc. --><path d="M164.6 175.5l96-160C266.3 5.9 276.8 0 288 0s21.7 5.9 27.4 15.5l96 160c5.9 9.9 6.1 22.2 .4 32.2s-16.3 16.2-27.8 16.2H192c-11.5 0-22.2-6.2-27.8-16.2s-5.5-22.3 .4-32.2zM288 63.1L220.3 176H355.7L288 63.1zM464 320H336V448H464V320zM328 272H472c22.1 0 40 17.9 40 40V456c0 22.1-17.9 40-40 40H328c-22.1 0-40-17.9-40-40V312c0-22.1 17.9-40 40-40zM208 384A80 80 0 1 0 48 384a80 80 0 1 0 160 0zM0 384a128 128 0 1 1 256 0A128 128 0 1 1 0 384z"/></svg>