<svg xmlns="http://www.w3.org/2000/svg" viewBox="0 0 640 512"><!--! Font Awesome Pro 6.4.0 by @fontawesome - https://fontawesome.com License - https://fontawesome.com/license (Commercial License) Copyright 2023 Fonticons, Inc. --><path d="M104.3 73.7l-21-11.6 0 0 21 11.6zM37.9 194.5l21 11.6-21-11.6zM122 240.7l21 11.6 0 0-21-11.6zM184 128h24c0-11-7.4-20.5-18-23.2s-21.7 2.1-27 11.7L184 128zm272 0l21-11.6c-5.3-9.6-16.4-14.4-27-11.7s-18 12.3-18 23.2h24zm62 112.8l21-11.6 0 0-21 11.6zm84.1-46.3l-21 11.6v0l21-11.6zM535.7 73.7l21-11.6v0l-21 11.6zM441.5 24.1L439.3 48c1.1 .1 2.3 .1 3.4 .1l-1.2-24zm-43 15.8l23.5 4.7v0l-23.5-4.7zm-156.8 0l23.5-4.7v0l-23.5 4.7zm-43-15.8l-1.2 24c1.1 .1 2.3 0 3.4-.1l-2.2-23.9zM125.3 85.3c12.7-23 36.8-37.3 63.1-37.3V0C144.6 0 104.3 23.8 83.2 62.2l42.1 23.1zM58.9 206L125.3 85.3 83.2 62.2 16.8 182.9 58.9 206zM48 248.4c0-14.8 3.7-29.4 10.9-42.4L16.8 182.9C5.8 203 0 225.5 0 248.4H48zM48 392V248.4H0V392H48zm8 8c-4.4 0-8-3.6-8-8H0c0 30.9 25.1 56 56 56V400zm32 0H56v48H88V400zm8-8c0 4.4-3.6 8-8 8v48c30.9 0 56-25.1 56-56H96zm0-143.6V392h48V248.4H96zm5-19.3c-3.2 5.9-5 12.5-5 19.3h48c0 1.3-.3 2.7-1 3.9L101 229.2zm62-112.8L101 229.2 143 252.3l62-112.8L163 116.4zM208 448V128H160V448h48zm16 16c-8.8 0-16-7.2-16-16H160c0 35.3 28.7 64 64 64V464zm192 0H224v48H416V464zm16-16c0 8.8-7.2 16-16 16v48c35.3 0 64-28.7 64-64H432zm0-320V448h48V128H432zM539 229.2L477 116.4 435 139.5l62 112.8L539 229.2zm5 19.3c0-6.7-1.7-13.4-5-19.3L497 252.3c-.6-1.2-1-2.5-1-3.9h48zM544 392V248.4H496V392h48zm8 8c-4.4 0-8-3.6-8-8H496c0 30.9 25.1 56 56 56V400zm32 0H552v48h32V400zm8-8c0 4.4-3.6 8-8 8v48c30.9 0 56-25.1 56-56H592zm0-143.6V392h48V248.4H592zM581.1 206c7.1 13 10.9 27.6 10.9 42.4h48c0-22.9-5.8-45.5-16.8-65.5L581.1 206zM514.7 85.3L581.1 206l42.1-23.1L556.8 62.2 514.7 85.3zM451.6 48c26.3 0 50.4 14.3 63.1 37.3l42.1-23.1C535.7 23.8 495.4 0 451.6 0V48zM444 48h7.6V0H444V48zm-1.3 0c.4 0 .9 0 1.3 0V0c-1.3 0-2.5 0-3.8 .1L442.7 48zM440 48c-.2 0-.5 0-.7 0L443.6 .2c-1.2-.1-2.4-.2-3.6-.2V48zm-24 0h24V0H416V48zm5.9-3.4c-.1 .3-.3 .9-.9 1.5c-.8 .8-2.6 1.8-5 1.8V0c-23 0-37.7 18.2-41.1 35.2l47.1 9.5zM320 128c50.4 0 92.4-35.8 101.9-83.4l-47.1-9.5C369.7 60.7 347.1 80 320 80v48zM218.1 44.6C227.6 92.2 269.6 128 320 128V80c-27.1 0-49.7-19.3-54.9-44.8l-47.1 9.5zM224 48c-2.4 0-4.2-1.1-5-1.8c-.7-.7-.9-1.2-.9-1.5l47.1-9.5C261.7 18.2 247 0 224 0V48zm-24 0h24V0H200V48zm.7 0c-.2 0-.5 0-.7 0V0c-1.2 0-2.4 .1-3.6 .2L200.7 48zM196 48c.4 0 .9 0 1.3 0L199.8 .1C198.5 0 197.3 0 196 0V48zm-7.6 0H196V0h-7.6V48z"/></svg>