<svg xmlns="http://www.w3.org/2000/svg" viewBox="0 0 512 512"><!--! Font Awesome Pro 6.4.0 by @fontawesome - https://fontawesome.com License - https://fontawesome.com/license (Commercial License) Copyright 2023 Fonticons, Inc. --><path d="M232 24c0-13.3 10.7-24 24-24s24 10.7 24 24v8H440.3c4.9 0 9.5 2.2 12.5 6L504 102c4.7 5.8 4.7 14.1 0 20l-51.2 64c-3 3.8-7.6 6-12.5 6H280v32H448c17.7 0 32 14.3 32 32v96c0 17.7-14.3 32-32 32H280V488c0 13.3-10.7 24-24 24s-24-10.7-24-24V384H71.7c-4.9 0-9.5-2.2-12.5-6L8 314c-4.7-5.8-4.7-14.1 0-20l51.2-64c3-3.8 7.6-6 12.5-6H232V192H64c-17.7 0-32-14.3-32-32V64c0-17.7 14.3-32 32-32H232V24zM80 80v64H424.9l25.6-32L424.9 80H80zM432 336V272H87.1L61.5 304l25.6 32H432z"/></svg>