<svg xmlns="http://www.w3.org/2000/svg" viewBox="0 0 576 512"><!--! Font Awesome Pro 6.4.0 by @fontawesome - https://fontawesome.com License - https://fontawesome.com/license (Commercial License) Copyright 2023 Fonticons, Inc. --><path d="M528 448V64c0-8.8-7.2-16-16-16s-16 7.2-16 16V448c0 8.8 7.2 16 16 16s16-7.2 16-16zM448 64c0-35.3 28.7-64 64-64s64 28.7 64 64V448c0 35.3-28.7 64-64 64s-64-28.7-64-64V64zM376 448V192c0-8.8-7.2-16-16-16s-16 7.2-16 16V448c0 8.8 7.2 16 16 16s16-7.2 16-16zM296 192c0-35.3 28.7-64 64-64s64 28.7 64 64V448c0 35.3-28.7 64-64 64s-64-28.7-64-64V192zM208 464c8.8 0 16-7.2 16-16V320c0-8.8-7.2-16-16-16s-16 7.2-16 16V448c0 8.8 7.2 16 16 16zm0-208c35.3 0 64 28.7 64 64V448c0 35.3-28.7 64-64 64s-64-28.7-64-64V320c0-35.3 28.7-64 64-64zM64 464a16 16 0 1 0 0-32 16 16 0 1 0 0 32zm64-16A64 64 0 1 1 0 448a64 64 0 1 1 128 0z"/></svg>