<svg xmlns="http://www.w3.org/2000/svg" viewBox="0 0 640 512"><!--! Font Awesome Pro 6.4.0 by @fontawesome - https://fontawesome.com License - https://fontawesome.com/license (Commercial License) Copyright 2023 Fonticons, Inc. --><path d="M38.8 5.1C28.4-3.1 13.3-1.2 5.1 9.2S-1.2 34.7 9.2 42.9l592 464c10.4 8.2 25.5 6.3 33.7-4.1s6.3-25.5-4.1-33.7l-54.8-43V64c0-35.3-28.7-64-64-64s-64 28.7-64 64V325.8L424 307V192c0-35.3-28.7-64-64-64s-64 28.7-64 64v14.7L38.8 5.1zM344 244.3V192c0-8.8 7.2-16 16-16s16 7.2 16 16v77.4l-32-25.1zM496 363.5V64c0-8.8 7.2-16 16-16s16 7.2 16 16V388.5l-32-25.1zM376 392.2V448c0 8.8-7.2 16-16 16s-16-7.2-16-16V367l-48-37.8V448c0 35.3 28.7 64 64 64s64-28.7 64-64V430.1l-48-37.8zM203.3 256.2C170.1 258.6 144 286.2 144 320V448c0 35.3 28.7 64 64 64s64-28.7 64-64V320c0-3.5-.3-7-.8-10.4l-67.9-53.5zM448 449c.3 23.3 13.1 43.5 32 54.5V474.2L448 449zm-224-1c0 8.8-7.2 16-16 16s-16-7.2-16-16V320c0-8.8 7.2-16 16-16s16 7.2 16 16V448zM80 448a16 16 0 1 1 -32 0 16 16 0 1 1 32 0zM64 384a64 64 0 1 0 0 128 64 64 0 1 0 0-128z"/></svg>