<svg xmlns="http://www.w3.org/2000/svg" viewBox="0 0 512 512"><!--! Font Awesome Pro 6.4.0 by @fontawesome - https://fontawesome.com License - https://fontawesome.com/license (Commercial License) Copyright 2023 Fonticons, Inc. --><path d="M280 88c0-22.1 17.9-40 40-40s40 17.9 40 40v24c0 13.3 10.7 24 24 24s24-10.7 24-24V88c0-48.6-39.4-88-88-88s-88 39.4-88 88V288H160V264c0-30.9-25.1-56-56-56H56c-13.3 0-24 10.7-24 24s10.7 24 24 24h48c4.4 0 8 3.6 8 8v24H24c-13.3 0-24 10.7-24 24s10.7 24 24 24H256 488c13.3 0 24-10.7 24-24s-10.7-24-24-24H400V264c0-4.4 3.6-8 8-8h56c13.3 0 24-10.7 24-24s-10.7-24-24-24H408c-30.9 0-56 25.1-56 56v24H280V88zM32 368v24c0 66.3 53.7 120 120 120H360c66.3 0 120-53.7 120-120V368H432v24c0 39.8-32.2 72-72 72H152c-39.8 0-72-32.2-72-72V368H32z"/></svg>