<svg xmlns="http://www.w3.org/2000/svg" viewBox="0 0 640 512"><!--! Font Awesome Pro 6.4.0 by @fontawesome - https://fontawesome.com License - https://fontawesome.com/license (Commercial License) Copyright 2023 Fonticons, Inc. --><path d="M69.3 36l48 32c11 7.4 14 22.3 6.7 33.3s-22.3 14-33.3 6.7l-48-32c-11-7.4-14-22.3-6.7-33.3s22.3-14 33.3-6.7zM597.3 76l-48 32c-11 7.4-25.9 4.4-33.3-6.7s-4.4-25.9 6.7-33.3l48-32c11-7.4 25.9-4.4 33.3 6.7s4.4 25.9-6.7 33.3zM24 192H88c13.3 0 24 10.7 24 24s-10.7 24-24 24H24c-13.3 0-24-10.7-24-24s10.7-24 24-24zm528 0h64c13.3 0 24 10.7 24 24s-10.7 24-24 24H552c-13.3 0-24-10.7-24-24s10.7-24 24-24zM490 304H441.6L423.4 158c-1-8-7.8-14-15.9-14h-175c-8.1 0-14.9 6-15.9 14L198.4 304H150l19-151.9c4-32 31.2-56.1 63.5-56.1h175c32.3 0 59.5 24 63.5 56.1L490 304zm-246.1 0l12.2-98c1.1-8.8 9.1-15 17.9-13.9s15 9.1 13.9 17.9l-11.8 94H243.9zM496 384H144v48H496V384zM144 336H496c26.5 0 48 21.5 48 48v48c0 26.5-21.5 48-48 48H144c-26.5 0-48-21.5-48-48V384c0-26.5 21.5-48 48-48z"/></svg>