<svg xmlns="http://www.w3.org/2000/svg" viewBox="0 0 448 512"><!--! Font Awesome Pro 6.4.0 by @fontawesome - https://fontawesome.com License - https://fontawesome.com/license (Commercial License) Copyright 2023 Fonticons, Inc. --><path d="M345.6 304H394L375 152.1C371 120 343.8 96 311.5 96h-175C104.2 96 77 120 73 152.1L54 304h48.4l18.2-146c1-8 7.8-14 15.9-14h175c8.1 0 14.9 6 15.9 14l18.2 146zm-165.5 0l11.8-94c1.1-8.8-5.1-16.8-13.9-17.9s-16.8 5.1-17.9 13.9l-12.2 98h32.2zM48 384H400v48H48l0-48zM0 384v48c0 26.5 21.5 48 48 48H400c26.5 0 48-21.5 48-48V384c0-26.5-21.5-48-48-48H48c-26.5 0-48 21.5-48 48z"/></svg>