<svg xmlns="http://www.w3.org/2000/svg" viewBox="0 0 640 512"><!--! Font Awesome Pro 6.4.0 by @fontawesome - https://fontawesome.com License - https://fontawesome.com/license (Commercial License) Copyright 2023 Fonticons, Inc. --><path d="M400 416H112v32c0 8.8 7.2 16 16 16H384c8.8 0 16-7.2 16-16V416zm48 32c0 5.5-.7 10.9-2 16h82c22.1 0 40-17.9 40-40V217.6c-14.3-8.3-24-23.8-24-41.6c0-26.5 21.5-48 48-48s48 21.5 48 48c0 17.8-9.7 33.3-24 41.6V424c0 48.6-39.4 88-88 88H384 128c-35.3 0-64-28.7-64-64V416c-35.3 0-64-28.7-64-64V160c0-35.3 28.7-64 64-64V64C64 28.7 92.7 0 128 0H384c35.3 0 64 28.7 64 64V96c35.3 0 64 28.7 64 64V352c0 35.3-28.7 64-64 64l0 32zM400 96V64c0-8.8-7.2-16-16-16L128 48c-8.8 0-16 7.2-16 16l0 32H400zm48 48H64c-8.8 0-16 7.2-16 16V352c0 8.8 7.2 16 16 16H448c8.8 0 16-7.2 16-16V160c0-8.8-7.2-16-16-16zM112 176h56c7.8 0 15.1 3.8 19.6 10.2s5.6 14.5 3 21.9l-40 112c-4.5 12.5-18.2 19-30.7 14.5s-19-18.2-14.5-30.7L133.9 224H112c-13.3 0-24-10.7-24-24s10.7-24 24-24zm96 24c0-13.3 10.7-24 24-24h56c7.8 0 15.1 3.8 19.6 10.2s5.6 14.5 3 21.9l-40 112c-4.5 12.5-18.2 19-30.7 14.5s-19-18.2-14.5-30.7L253.9 224H232c-13.3 0-24-10.7-24-24zm144-24h56c7.8 0 15.1 3.8 19.6 10.2s5.6 14.5 3 21.9l-40 112c-4.5 12.5-18.2 19-30.7 14.5s-19-18.2-14.5-30.7L373.9 224H352c-13.3 0-24-10.7-24-24s10.7-24 24-24z"/></svg>