<svg xmlns="http://www.w3.org/2000/svg" viewBox="0 0 448 512"><!--! Font Awesome Pro 6.4.0 by @fontawesome - https://fontawesome.com License - https://fontawesome.com/license (Commercial License) Copyright 2023 Fonticons, Inc. --><path d="M184 0c-13.3 0-24 10.7-24 24s10.7 24 24 24h59.1l-77.2 88.2c-6.2 7.1-7.7 17.1-3.8 25.7S174.6 176 184 176H296c13.3 0 24-10.7 24-24s-10.7-24-24-24H236.9l77.2-88.2c6.2-7.1 7.7-17.1 3.8-25.7S305.4 0 296 0H184zM312 224c-13.3 0-24 10.7-24 24s10.7 24 24 24h62.9L293.1 377.3c-5.6 7.2-6.6 17-2.6 25.3s12.4 13.5 21.6 13.5H424c13.3 0 24-10.7 24-24s-10.7-24-24-24H361.1l81.9-105.3c5.6-7.2 6.6-17 2.6-25.3s-12.4-13.5-21.6-13.5H312zM24 224c-13.3 0-24 10.7-24 24s10.7 24 24 24H152.6L4.6 473.8c-5.3 7.3-6.1 17-2.1 25S15 512 24 512H200c13.3 0 24-10.7 24-24s-10.7-24-24-24H71.4l148-201.8c5.3-7.3 6.1-17 2.1-25S209 224 200 224H24z"/></svg>