<svg xmlns="http://www.w3.org/2000/svg" viewBox="0 0 512 512"><!--! Font Awesome Pro 6.4.0 by @fontawesome - https://fontawesome.com License - https://fontawesome.com/license (Commercial License) Copyright 2023 Fonticons, Inc. --><path d="M208 0a48 48 0 1 1 0 96 48 48 0 1 1 0-96zM96 192H209.1c2.5 17.7 9.2 34 18.9 48H96c-26.5 0-48 21.5-48 48V416c0 26.5 21.5 48 48 48H416c26.5 0 48-21.5 48-48V288c0-26.5-21.5-48-48-48h-4.1c9.6-13.7 16.1-29.6 18.8-46.9c46 7.1 81.3 46.9 81.3 94.9V416c0 53-43 96-96 96H96c-53 0-96-43-96-96V288c0-53 43-96 96-96zm224 96h32c35.3 0 64 28.7 64 64s-28.7 64-64 64H160c-35.3 0-64-28.7-64-64s28.7-64 64-64H320zM128 352c0 17.7 14.3 32 32 32H352c17.7 0 32-14.3 32-32s-14.3-32-32-32H160c-17.7 0-32 14.3-32 32zM320 208a32 32 0 1 0 0-64 32 32 0 1 0 0 64zm0-112a80 80 0 1 1 0 160 80 80 0 1 1 0-160zM384 0a32 32 0 1 1 0 64 32 32 0 1 1 0-64z"/></svg>