<svg xmlns="http://www.w3.org/2000/svg" viewBox="0 0 384 512"><!--! Font Awesome Pro 6.4.0 by @fontawesome - https://fontawesome.com License - https://fontawesome.com/license (Commercial License) Copyright 2023 Fonticons, Inc. --><path d="M192 0c-8.9 0-17 4.9-21.2 12.7s-3.7 17.3 1.2 24.6l10.8 16.3c.7 1.1 1.1 2.4 1.1 3.7c0 3.7-3 6.7-6.7 6.7H140c-42 0-76 34-76 76c0 5.4 .6 10.7 1.7 15.8C27.7 167.2 0 202.3 0 244c0 34.9 19.4 65.2 48 80.8V352c0 17.7 14.3 32 32 32h1.8l11.1 99.5c1.8 16.2 15.5 28.5 31.8 28.5H259.4c16.3 0 30-12.3 31.8-28.5L302.2 384H304c17.7 0 32-14.3 32-32V324.8c28.6-15.6 48-45.9 48-80.8c0-41.9-28.1-77.3-66.4-88.4c1.6-6.3 2.4-12.8 2.4-19.6v-8C320 57.3 262.7 0 192 0zM292 288H92c-24.3 0-44-19.7-44-44s19.7-44 44-44h4 6.5H112c13.3 0 24-10.7 24-24c0-12.3-9.3-22.5-21.2-23.8c-1.8-3.7-2.8-7.8-2.8-12.2c0-15.5 12.5-28 28-28h37.3c29.7 0 53.9-23.7 54.7-53.3c23.9 13.8 40 39.7 40 69.3v8c0 5.8-1.5 11.3-4.3 16H216c-13.3 0-24 10.7-24 24s10.7 24 24 24h63.2H288h4c24.3 0 44 19.7 44 44s-19.7 44-44 44z"/></svg>