<svg xmlns="http://www.w3.org/2000/svg" viewBox="0 0 448 512"><!--! Font Awesome Pro 6.4.0 by @fontawesome - https://fontawesome.com License - https://fontawesome.com/license (Commercial License) Copyright 2023 Fonticons, Inc. --><path d="M64 80c-8.8 0-16 7.2-16 16V416c0 8.8 7.2 16 16 16H384c8.8 0 16-7.2 16-16V96c0-8.8-7.2-16-16-16H64zM0 96C0 60.7 28.7 32 64 32H384c35.3 0 64 28.7 64 64V416c0 35.3-28.7 64-64 64H64c-35.3 0-64-28.7-64-64V96zM120 352H328c13.3 0 24 10.7 24 24s-10.7 24-24 24H120c-13.3 0-24-10.7-24-24s10.7-24 24-24zM328 192V296c0 13.3-10.7 24-24 24s-24-10.7-24-24V192H254.5c-8 0-14.5-6.5-14.5-14.5c0-3.5 1.3-7 3.7-9.6L286.2 120c4.5-5.1 11-8 17.8-8s13.2 2.9 17.8 8l42.6 47.9c2.4 2.7 3.7 6.1 3.7 9.6c0 8-6.5 14.5-14.5 14.5H328zM80 177.5c0-3.5 1.3-7 3.7-9.6L126.2 120c4.5-5.1 11-8 17.8-8s13.2 2.9 17.8 8l42.6 47.9c2.4 2.7 3.7 6.1 3.7 9.6c0 8-6.5 14.5-14.5 14.5H168V296c0 13.3-10.7 24-24 24s-24-10.7-24-24V192H94.5c-8 0-14.5-6.5-14.5-14.5z"/></svg>