<svg xmlns="http://www.w3.org/2000/svg" viewBox="0 0 448 512"><!--! Font Awesome Pro 6.4.0 by @fontawesome - https://fontawesome.com License - https://fontawesome.com/license (Commercial License) Copyright 2023 Fonticons, Inc. --><path d="M52.7 84.7L224 256 395.3 84.7c-2.9-2.9-6.9-4.7-11.3-4.7H64c-4.4 0-8.4 1.8-11.3 4.7zm0 342.6c2.9 2.9 6.9 4.7 11.3 4.7H384c4.4 0 8.4-1.8 11.3-4.7L224 256 52.7 427.3zM0 96C0 60.7 28.7 32 64 32H384c35.3 0 64 28.7 64 64V416c0 35.3-28.7 64-64 64H64c-35.3 0-64-28.7-64-64V96z"/></svg>