<svg xmlns="http://www.w3.org/2000/svg" viewBox="0 0 576 512"><!--! Font Awesome Pro 6.4.0 by @fontawesome - https://fontawesome.com License - https://fontawesome.com/license (Commercial License) Copyright 2023 Fonticons, Inc. --><path d="M64 80H384c8.8 0 16 7.2 16 16v84.1c14-9.8 30.3-16.4 48-18.9V96c0-35.3-28.7-64-64-64H64C28.7 32 0 60.7 0 96V416c0 35.3 28.7 64 64 64H320V432H64c-8.8 0-16-7.2-16-16V96c0-8.8 7.2-16 16-16zm181.8 61.9c-3.9-8.5-12.4-13.9-21.8-13.9s-17.9 5.4-21.8 13.9l-96 208c-5.6 12-.3 26.3 11.7 31.8s26.3 .3 31.8-11.7l12-26.1H286.2l12 26.1c4 8.8 12.7 13.9 21.8 13.9V352c0-11.4 3-22.1 8.2-31.4L245.8 141.9zM224 209.3L264 296H184l40-86.7zM464 240c17.7 0 32 14.3 32 32v48H432V272c0-17.7 14.3-32 32-32zm-80 32v48c-17.7 0-32 14.3-32 32V480c0 17.7 14.3 32 32 32H544c17.7 0 32-14.3 32-32V352c0-17.7-14.3-32-32-32V272c0-44.2-35.8-80-80-80s-80 35.8-80 80z"/></svg>