<svg xmlns="http://www.w3.org/2000/svg" viewBox="0 0 448 512"><!--! Font Awesome Pro 6.4.0 by @fontawesome - https://fontawesome.com License - https://fontawesome.com/license (Commercial License) Copyright 2023 Fonticons, Inc. --><path d="M88 32h16c13.3 0 24 10.7 24 24s-10.7 24-24 24H88c-22.1 0-40 17.9-40 40v16c0 13.3-10.7 24-24 24s-24-10.7-24-24V120C0 71.4 39.4 32 88 32zM24 192c13.3 0 24 10.7 24 24v80c0 13.3-10.7 24-24 24s-24-10.7-24-24V216c0-13.3 10.7-24 24-24zm400 0c13.3 0 24 10.7 24 24v80c0 13.3-10.7 24-24 24s-24-10.7-24-24V216c0-13.3 10.7-24 24-24zm0-32c-13.3 0-24-10.7-24-24V120c0-22.1-17.9-40-40-40H344c-13.3 0-24-10.7-24-24s10.7-24 24-24h16c48.6 0 88 39.4 88 88v16c0 13.3-10.7 24-24 24zm24 216v16c0 48.6-39.4 88-88 88H344c-13.3 0-24-10.7-24-24s10.7-24 24-24h16c22.1 0 40-17.9 40-40V376c0-13.3 10.7-24 24-24s24 10.7 24 24zM48 376v16c0 22.1 17.9 40 40 40h16c13.3 0 24 10.7 24 24s-10.7 24-24 24H88c-48.6 0-88-39.4-88-88V376c0-13.3 10.7-24 24-24s24 10.7 24 24zM184 480c-13.3 0-24-10.7-24-24s10.7-24 24-24h80c13.3 0 24 10.7 24 24s-10.7 24-24 24H184zM160 56c0-13.3 10.7-24 24-24h80c13.3 0 24 10.7 24 24s-10.7 24-24 24H184c-13.3 0-24-10.7-24-24z"/></svg>