<svg xmlns="http://www.w3.org/2000/svg" viewBox="0 0 448 512"><!--! Font Awesome Pro 6.4.0 by @fontawesome - https://fontawesome.com License - https://fontawesome.com/license (Commercial License) Copyright 2023 Fonticons, Inc. --><path d="M64 80c-8.8 0-16 7.2-16 16V416c0 8.8 7.2 16 16 16H384c8.8 0 16-7.2 16-16V96c0-8.8-7.2-16-16-16H64zM0 96C0 60.7 28.7 32 64 32H384c35.3 0 64 28.7 64 64V416c0 35.3-28.7 64-64 64H64c-35.3 0-64-28.7-64-64V96zm138.1 56.3L224 251.4l85.9-99.1c8.7-10 23.8-11.1 33.9-2.4s11.1 23.8 2.4 33.9L248 297v79c0 13.3-10.7 24-24 24s-24-10.7-24-24V297L101.9 183.7c-8.7-10-7.6-25.2 2.4-33.9s25.2-7.6 33.9 2.4z"/></svg>