<svg xmlns="http://www.w3.org/2000/svg" viewBox="0 0 448 512"><!--! Font Awesome Pro 6.4.0 by @fontawesome - https://fontawesome.com License - https://fontawesome.com/license (Commercial License) Copyright 2023 Fonticons, Inc. --><path d="M384 80c8.8 0 16 7.2 16 16V416c0 8.8-7.2 16-16 16h-1c-7.9-63.1-61.7-112-127-112H192c-65.3 0-119.1 48.9-127 112H64c-8.8 0-16-7.2-16-16V96c0-8.8 7.2-16 16-16H384zM334.4 432H113.6c7.4-36.5 39.7-64 78.4-64h64c38.7 0 71 27.5 78.4 64zM64 32C28.7 32 0 60.7 0 96V416c0 35.3 28.7 64 64 64H384c35.3 0 64-28.7 64-64V96c0-35.3-28.7-64-64-64H64zM224 240a40 40 0 1 1 0-80 40 40 0 1 1 0 80zm-88-40a88 88 0 1 0 176 0 88 88 0 1 0 -176 0z"/></svg>