<svg xmlns="http://www.w3.org/2000/svg" viewBox="0 0 640 512"><!--! Font Awesome Pro 6.4.0 by @fontawesome - https://fontawesome.com License - https://fontawesome.com/license (Commercial License) Copyright 2023 Fonticons, Inc. --><path d="M38.8 5.1C28.4-3.1 13.3-1.2 5.1 9.2S-1.2 34.7 9.2 42.9l592 464c10.4 8.2 25.5 6.3 33.7-4.1s6.3-25.5-4.1-33.7l-86.8-68V96c0-35.3-28.7-64-64-64H160c-21.6 0-40.7 10.7-52.3 27.1L38.8 5.1zM145.7 88.9c2.6-5.3 8.1-8.9 14.3-8.9H480c8.8 0 16 7.2 16 16V363.5L408.6 295c19.3-17.6 31.4-42.9 31.4-71c0-53-43-96-96-96H264c-16.5 0-30.2 12.6-31.8 28.7L145.7 88.9zM369.8 264.5L280 194.2V176h64c26.5 0 48 21.5 48 48c0 17-8.9 32-22.2 40.5zM232 278.8V296v64c0 13.3 10.7 24 24 24s24-10.7 24-24v-8V320v-3.4l-48-37.8zm-88-69.3L96 171.6V416c0 35.3 28.7 64 64 64H480c2.3 0 4.6-.1 6.9-.4L426.5 432H160c-8.8 0-16-7.2-16-16V209.5z"/></svg>