<svg xmlns="http://www.w3.org/2000/svg" viewBox="0 0 576 512"><!--! Font Awesome Pro 6.4.0 by @fontawesome - https://fontawesome.com License - https://fontawesome.com/license (Commercial License) Copyright 2023 Fonticons, Inc. --><path d="M384 56c0-13.3 10.7-24 24-24H552c13.3 0 24 10.7 24 24s-10.7 24-24 24H432V200c0 13.3-10.7 24-24 24H304V328c0 13.3-10.7 24-24 24H176V456c0 13.3-10.7 24-24 24H24c-13.3 0-24-10.7-24-24s10.7-24 24-24H128V328c0-13.3 10.7-24 24-24H256V200c0-13.3 10.7-24 24-24H384V56z"/></svg>