<svg xmlns="http://www.w3.org/2000/svg" viewBox="0 0 512 512"><!--! Font Awesome Pro 6.4.0 by @fontawesome - https://fontawesome.com License - https://fontawesome.com/license (Commercial License) Copyright 2023 Fonticons, Inc. --><path d="M299.3 116.7c3-6.2 4.7-13.2 4.7-20.7c0-26.5-21.5-48-48-48s-48 21.5-48 48c0 7.5 1.7 14.5 4.7 20.7l.3 .6c7 14.6 19 39.6 19 68.7c0 65.2-52.8 118-118 118H96c-26.5 0-48 21.5-48 48v8c0 4.4 3.6 8 8 8H456c4.4 0 8-3.6 8-8v-8c0-26.5-21.5-48-48-48H398c-65.2 0-118-52.8-118-118c0-29 12-54.1 19-68.6l0 0 .3-.6zm43.3 20.8C335.2 152.9 328 168.9 328 186c0 38.7 31.4 70 70 70h18c53 0 96 43 96 96v8c0 30.9-25.1 56-56 56H56c-30.9 0-56-25.1-56-56v-8c0-53 43-96 96-96h18c38.7 0 70-31.3 70-70c0-17.1-7.2-33.1-14.6-48.5c-6-12.6-9.4-26.6-9.4-41.5c0-53 43-96 96-96s96 43 96 96c0 14.9-3.4 28.9-9.4 41.5zM32 480c0-17.7 14.3-32 32-32H448c17.7 0 32 14.3 32 32s-14.3 32-32 32H64c-17.7 0-32-14.3-32-32z"/></svg>