<svg xmlns="http://www.w3.org/2000/svg" viewBox="0 0 640 512"><!--! Font Awesome Pro 6.4.0 by @fontawesome - https://fontawesome.com License - https://fontawesome.com/license (Commercial License) Copyright 2023 Fonticons, Inc. --><path d="M254.4 35C256.9 15 274 0 294.1 0h51.8c20.2 0 37.2 15 39.7 35l25.8 206.4c4.1-.9 8.3-1.4 12.6-1.4h32c30.9 0 56 25.1 56 56v56h56V168c-13.3 0-24-10.7-24-24s10.7-24 24-24V96c0-13.3 10.7-24 24-24s24 10.7 24 24v24c13.3 0 24 10.7 24 24s-10.7 24-24 24V448c0 13.3-10.7 24-24 24s-24-10.7-24-24v-2.7l-88 29.3V480c0 17.7-14.3 32-32 32s-32-14.3-32-32v-.6c-8.8-1.3-17-4.6-24-9.5c-9.1 6.3-20.1 10-32 10H280c-11.9 0-22.9-3.7-32-10c-7 4.9-15.2 8.2-24 9.5v.6c0 17.7-14.3 32-32 32s-32-14.3-32-32v-5.3L72 445.3V448c0 13.3-10.7 24-24 24s-24-10.7-24-24V168c-13.3 0-24-10.7-24-24s10.7-24 24-24V96c0-13.3 10.7-24 24-24s24 10.7 24 24v24c13.3 0 24 10.7 24 24s-10.7 24-24 24V352h56V296c0-30.9 25.1-56 56-56h32c4.3 0 8.6 .5 12.6 1.4L254.4 35zM368 424V296 281.5L338.8 48H301.2L272 281.5V296 424c0 4.4 3.6 8 8 8h80c4.4 0 8-3.6 8-8zm48-128V424c0 4.4 3.6 8 8 8h32c4.4 0 8-3.6 8-8V296c0-4.4-3.6-8-8-8H424c-4.4 0-8 3.6-8 8zm-200-8H184c-4.4 0-8 3.6-8 8V424c0 4.4 3.6 8 8 8h32c4.4 0 8-3.6 8-8V296c0-4.4-3.6-8-8-8zm104-64c17.7 0 32 14.3 32 32v48c0 8.8-7.2 16-16 16H304c-8.8 0-16-7.2-16-16V256c0-17.7 14.3-32 32-32z"/></svg>