<svg xmlns="http://www.w3.org/2000/svg" viewBox="0 0 640 512"><!--! Font Awesome Pro 6.4.0 by @fontawesome - https://fontawesome.com License - https://fontawesome.com/license (Commercial License) Copyright 2023 Fonticons, Inc. --><path d="M118.5 7.6c9-9.7 24.2-10.2 33.9-1.2s10.2 24.2 1.2 33.9L50.2 151.2c-1.4 1.5-2.2 3.4-2.2 5.5V195l137.9-26.3C214.4 124.9 263.8 96 320 96s105.6 28.9 134.1 72.7L592 195V156.6c0-2-.8-4-2.2-5.5L486.5 40.4c-9-9.7-8.5-24.9 1.2-33.9s24.9-8.5 33.9 1.2L624.9 118.4c9.7 10.4 15.1 24 15.1 38.2v47.5V224v64 19.9 47.5c0 14.2-5.4 27.8-15.1 38.2L521.5 504.4c-9 9.7-24.2 10.2-33.9 1.2s-10.2-24.2-1.2-33.9L589.8 360.8c1.4-1.5 2.2-3.4 2.2-5.5V317L454.1 343.3C425.6 387.1 376.2 416 320 416s-105.6-28.9-134.1-72.7L48 317v38.4c0 2 .8 4 2.2 5.5L153.5 471.6c9 9.7 8.5 24.9-1.2 33.9s-24.9 8.5-33.9-1.2L15.1 393.6C5.4 383.2 0 369.6 0 355.4V307.9 288 224 204.1 156.6c0-14.2 5.4-27.8 15.1-38.2L118.5 7.6zM48 268.1l115.7 22c-2.4-11-3.7-22.4-3.7-34.2s1.3-23.2 3.7-34.2L48 243.9v24.3zm428.3-46.3c2.4 11 3.7 22.4 3.7 34.2s-1.3 23.2-3.7 34.2l115.7-22V243.9l-115.7-22zM304 334.4c-10.2-2.1-19.7-6.1-28.1-11.7l-23 23c14.7 11 32.1 18.4 51.1 21.2V334.4zm-50.7-34.3c-5.6-8.4-9.6-17.9-11.7-28.1H209.1c2.7 19 10.2 36.4 21.2 51.1l23-23zM241.6 240c2.1-10.2 6.1-19.7 11.7-28.1l-23-23c-11 14.7-18.5 32.1-21.2 51.1h32.5zm34.3-50.7c8.4-5.6 17.9-9.6 28.1-11.7V145.1c-19 2.7-36.4 10.2-51.1 21.2l23 23zM336 366.9c19-2.7 36.4-10.2 51.1-21.2l-23-23c-8.4 5.6-17.9 9.6-28.1 11.7v32.5zM430.9 272H398.4c-2.1 10.2-6.1 19.7-11.7 28.1l23 23c11-14.7 18.4-32.1 21.2-51.1zm-32.5-32h32.5c-2.7-19-10.2-36.4-21.2-51.1l-23 23c5.6 8.4 9.6 17.9 11.7 28.1zM336 145.1v32.5c10.2 2.1 19.7 6.1 28.1 11.7l23-23c-14.7-11-32.1-18.4-51.1-21.2zM352 256c0-8.8-3.5-16.7-9.2-22.5l-.3-.3c-5.7-5.7-13.6-9.2-22.2-9.2h-.5c-8.7 .1-16.5 3.6-22.2 9.2l-.3 .3c-5.7 5.8-9.2 13.7-9.2 22.5c0 17.7 14.3 32 32 32s32-14.3 32-32z"/></svg>