<svg xmlns="http://www.w3.org/2000/svg" viewBox="0 0 512 512"><!--! Font Awesome Pro 6.4.0 by @fontawesome - https://fontawesome.com License - https://fontawesome.com/license (Commercial License) Copyright 2023 Fonticons, Inc. --><path d="M464 416c0 8.8-7.2 16-16 16H128V192H0V416c0 35.3 28.7 64 64 64H448c35.3 0 64-28.7 64-64V96c0-35.3-28.7-64-64-64H160V160H464V416zM64 32C28.7 32 0 60.7 0 96v64H128V32H64zM414.8 246.1c2.5-6 1.1-12.9-3.5-17.4l-32-32c-6.2-6.2-16.4-6.2-22.6 0l-32 32c-4.6 4.6-5.9 11.5-3.5 17.4s8.3 9.9 14.8 9.9h16v48c0 8.8-7.2 16-16 16H288V304c0-6.5-3.9-12.3-9.9-14.8s-12.9-1.1-17.4 3.5l-32 32c-6.2 6.2-6.2 16.4 0 22.6l32 32c4.6 4.6 11.5 5.9 17.4 3.5s9.9-8.3 9.9-14.8V352h48c26.5 0 48-21.5 48-48V256h16c6.5 0 12.3-3.9 14.8-9.9z"/></svg>