<svg xmlns="http://www.w3.org/2000/svg" viewBox="0 0 512 512"><!--! Font Awesome Pro 6.4.0 by @fontawesome - https://fontawesome.com License - https://fontawesome.com/license (Commercial License) Copyright 2023 Fonticons, Inc. --><path d="M280 80V232H464V96c0-8.8-7.2-16-16-16H280zm-48 0H64c-8.8 0-16 7.2-16 16V232H232V80zM48 280V416c0 8.8 7.2 16 16 16H232V280H48zM280 432H448c8.8 0 16-7.2 16-16V280H280V432zM0 96C0 60.7 28.7 32 64 32H448c35.3 0 64 28.7 64 64V416c0 35.3-28.7 64-64 64H64c-35.3 0-64-28.7-64-64V96z"/></svg>