<svg xmlns="http://www.w3.org/2000/svg" viewBox="0 0 448 512"><!--! Font Awesome Pro 6.4.0 by @fontawesome - https://fontawesome.com License - https://fontawesome.com/license (Commercial License) Copyright 2023 Fonticons, Inc. --><path d="M352 48c8.8 0 16 7.2 16 16V448c0 8.8-7.2 16-16 16H96c-8.8 0-16-7.2-16-16V64c0-8.8 7.2-16 16-16H352zM96 0C66.6 0 41.8 19.8 34.3 46.8L8.8 59.6C3.4 62.3 0 67.8 0 73.9v76.2c0 6.1 3.4 11.6 8.8 14.3L32 176v16L8.8 203.6C3.4 206.3 0 211.8 0 217.9v76.2c0 6.1 3.4 11.6 8.8 14.3L32 320v16L8.8 347.6C3.4 350.3 0 355.8 0 361.9v76.2c0 6.1 3.4 11.6 8.8 14.3l25.5 12.7C41.8 492.2 66.6 512 96 512H352c29.4 0 54.2-19.8 61.7-46.8l25.5-12.7c5.4-2.7 8.8-8.2 8.8-14.3V361.9c0-6.1-3.4-11.6-8.8-14.3L416 336V320l23.2-11.6c5.4-2.7 8.8-8.3 8.8-14.3V217.9c0-6.1-3.4-11.6-8.8-14.3L416 192V176l23.2-11.6c5.4-2.7 8.8-8.3 8.8-14.3V73.9c0-6.1-3.4-11.6-8.8-14.3L413.7 46.8C406.2 19.8 381.4 0 352 0H96z"/></svg>