<svg xmlns="http://www.w3.org/2000/svg" viewBox="0 0 512 512"><!--! Font Awesome Pro 6.4.0 by @fontawesome - https://fontawesome.com License - https://fontawesome.com/license (Commercial License) Copyright 2023 Fonticons, Inc. --><path d="M192 80v88H464V96c0-8.8-7.2-16-16-16H192zm-48 0H64c-8.8 0-16 7.2-16 16v72h96V80zM48 216v80h96V216H48zm0 128v72c0 8.8 7.2 16 16 16h80V344H48zm144 88H448c8.8 0 16-7.2 16-16V344H192v88zM464 296V216H192v80H464zM0 96C0 60.7 28.7 32 64 32H448c35.3 0 64 28.7 64 64V416c0 35.3-28.7 64-64 64H64c-35.3 0-64-28.7-64-64V96z"/></svg>