<svg xmlns="http://www.w3.org/2000/svg" viewBox="0 0 640 512"><!--! Font Awesome Pro 6.4.0 by @fontawesome - https://fontawesome.com License - https://fontawesome.com/license (Commercial License) Copyright 2023 Fonticons, Inc. --><path d="M128 40c13.3 0 24 10.7 24 24V286.7L232 260V64c0-13.3 10.7-24 24-24s24 10.7 24 24V244l80-26.7V64c0-13.3 10.7-24 24-24s24 10.7 24 24V201.4l80-26.7V64c0-13.3 10.7-24 24-24s24 10.7 24 24v94.7l64.4-21.5c12.6-4.2 26.2 2.6 30.4 15.2s-2.6 26.2-15.2 30.4L536 209.3V448c0 13.3-10.7 24-24 24s-24-10.7-24-24V225.3L408 252V448c0 13.3-10.7 24-24 24s-24-10.7-24-24V268l-80 26.7V448c0 13.3-10.7 24-24 24s-24-10.7-24-24V310.6l-80 26.7V448c0 13.3-10.7 24-24 24s-24-10.7-24-24V353.3L39.6 374.8C27 379 13.4 372.2 9.2 359.6S11.8 333.4 24.4 329.2L104 302.7V64c0-13.3 10.7-24 24-24z"/></svg>