<svg xmlns="http://www.w3.org/2000/svg" viewBox="0 0 320 512"><!--! Font Awesome Pro 6.4.0 by @fontawesome - https://fontawesome.com License - https://fontawesome.com/license (Commercial License) Copyright 2023 Fonticons, Inc. --><path d="M319.6 69.3L296.4 208l-.4 0H247.8L270.7 70.3c-6.4-4.6-14.9-8.8-25.4-12.1L229.2 208H197.1L213.8 51.3c-12.5-1.8-25.3-2.7-37.8-3V208H160 144V48.2c-12.5 .4-25.4 1.3-37.8 3L122.9 208H90.8L74.7 58.2c-10.6 3.4-19 7.5-25.4 12.1L72.2 208H24l-.4 0L.4 69.3c-1.7-10.2 1.7-20.6 9-27.9C46 5 112.3 0 160 0s114 5 150.6 41.3c7.3 7.3 10.7 17.7 9 27.9zM296 304l.4 0 23.1 138.7c1.7 10.2-1.7 20.6-9 27.9C274 507 207.7 512 160 512s-114-5-150.6-41.3c-7.3-7.3-10.7-17.7-9-27.9L23.6 304l.4 0H66.7c-3.7 10.5-3.6 22 .1 32.3L49.3 441.7c6.4 4.6 14.9 8.8 25.4 12.1l10.1-94.3c9.5 6.5 20.6 9.2 31.3 8.3l-10 92.9c12.5 1.8 25.3 2.6 37.8 3v-108c2.3-2.1 4.5-4.4 6.4-7L160 336l9.6 12.8c1.9 2.6 4.1 4.9 6.4 7v108c12.5-.4 25.4-1.3 37.8-3l-10-92.9c10.7 .9 21.8-1.7 31.3-8.3l10.1 94.3c10.6-3.4 19-7.5 25.4-12.1L253.2 336.3c3.7-10.3 3.8-21.7 .1-32.3H296zM24 240H160 296c8.8 0 16 7.2 16 16s-7.2 16-16 16H192l28.8 38.4c5.3 7.1 3.9 17.1-3.2 22.4s-17.1 3.9-22.4-3.2L160 282.7l-35.2 46.9c-5.3 7.1-15.3 8.5-22.4 3.2s-8.5-15.3-3.2-22.4L128 272H24c-8.8 0-16-7.2-16-16s7.2-16 16-16z"/></svg>