<svg xmlns="http://www.w3.org/2000/svg" viewBox="0 0 640 512"><!--! Font Awesome Pro 6.4.0 by @fontawesome - https://fontawesome.com License - https://fontawesome.com/license (Commercial License) Copyright 2023 Fonticons, Inc. --><path d="M192 48c71.5 0 110.1 17.3 129.4 32H192 64.5C86.2 64.8 126.6 48 192 48zM48 208V128H168v80H48zm0 144V256H192h47.2l13.7-48H216V128H328.6c3.6-25.4 24.3-45.2 50-47.7c-4-12.2-10.8-24-22-33.6C327.8 22.1 276.9 0 192 0C111.5 0 58.6 22.7 28.8 46.8C4.6 66.3 0 96.2 0 118.2V352c0 25 12.7 47 32 59.9V456c0 13.3 10.7 24 24 24s24-10.7 24-24V424H192V376H72c-13.3 0-24-10.7-24-24zm80-40a24 24 0 1 0 -48 0 24 24 0 1 0 48 0zM368 144v16h-6.2c-30.4 0-57.6 19.1-67.8 47.8l-28.6 80.1c-.2 .5-.3 .9-.5 1.4C240.2 306.7 224 335.5 224 368v32 16 32 40c0 13.3 10.7 24 24 24s24-10.7 24-24V448H592v40c0 13.3 10.7 24 24 24s24-10.7 24-24V448 416 400 368c0-32.5-16.2-61.3-40.9-78.7c-.1-.5-.3-.9-.5-1.4L570 207.8c-10.2-28.7-37.4-47.8-67.8-47.8H496V144c0-17.7-14.3-32-32-32H400c-17.7 0-32 14.3-32 32zm-6.2 64H400h64 38.2c10.1 0 19.2 6.4 22.6 15.9L541.9 272H322.1l17.2-48.1c3.4-9.6 12.5-15.9 22.6-15.9zM320 320H544c26.5 0 48 21.5 48 48v32H272V368c0-26.5 21.5-48 48-48zm40 40a24 24 0 1 0 -48 0 24 24 0 1 0 48 0zm168 24a24 24 0 1 0 0-48 24 24 0 1 0 0 48z"/></svg>