<svg xmlns="http://www.w3.org/2000/svg" viewBox="0 0 512 512"><!--! Font Awesome Pro 6.4.0 by @fontawesome - https://fontawesome.com License - https://fontawesome.com/license (Commercial License) Copyright 2023 Fonticons, Inc. --><path d="M192 0c-17.7 0-32 14.3-32 32V64c0 .1 0 .1 0 .2c-35.2 2.2-65.9 25.2-77.7 58.8L48.1 220.8C19.3 237.4 0 268.4 0 304v80 48 56c0 13.3 10.7 24 24 24s24-10.7 24-24V432H464v56c0 13.3 10.7 24 24 24s24-10.7 24-24V432 384 304c0-35.6-19.4-66.6-48.1-83.2l-34.3-97.9C417.9 89.3 387.2 66.3 352 64.2c0-.1 0-.1 0-.2V32c0-17.7-14.3-32-32-32H192zM165.4 112H346.6c17 0 32.1 10.7 37.8 26.8L408.6 208H103.4l24.2-69.2c5.6-16 20.8-26.8 37.8-26.8zM96 256H416c26.5 0 48 21.5 48 48v80H48V304c0-26.5 21.5-48 48-48zm48 64a32 32 0 1 0 -64 0 32 32 0 1 0 64 0zm256 32a32 32 0 1 0 0-64 32 32 0 1 0 0 64z"/></svg>