<svg xmlns="http://www.w3.org/2000/svg" viewBox="0 0 576 512"><!--! Font Awesome Pro 6.4.0 by @fontawesome - https://fontawesome.com License - https://fontawesome.com/license (Commercial License) Copyright 2023 Fonticons, Inc. --><path d="M274.4 4.2c8.2-5.7 19-5.7 27.3 0L521.5 155.9c13.5 9.3 22.2 24 23.9 40.2l26.7 254c3.5 33.1-22.4 61.9-55.7 61.9H440 264 59.5C26.3 512 .4 483.2 3.9 450.1l26.7-254c1.7-16.3 10.4-31 23.9-40.2L274.4 4.2zM516.5 464c4.7 0 8.5-4.1 8-8.8l-26.7-254c-.2-2.3-1.5-4.4-3.4-5.7L312 69.7V279.3L413.6 464H516.5zM264 69.7L81.7 195.4c-1.9 1.3-3.2 3.4-3.4 5.7l-26.7 254c-.5 4.7 3.2 8.8 8 8.8H264l0-136 0-136 0-122.3z"/></svg>