<svg xmlns="http://www.w3.org/2000/svg" viewBox="0 0 640 512"><!--! Font Awesome Pro 6.4.0 by @fontawesome - https://fontawesome.com License - https://fontawesome.com/license (Commercial License) Copyright 2023 Fonticons, Inc. --><path d="M48 128V80H168l0 352H120c-13.3 0-24 10.7-24 24s10.7 24 24 24H264c13.3 0 24-10.7 24-24s-10.7-24-24-24H216l0-352H336v48c0 13.3 10.7 24 24 24s24-10.7 24-24V72c0-22.1-17.9-40-40-40H40C17.9 32 0 49.9 0 72v56c0 13.3 10.7 24 24 24s24-10.7 24-24zM360 296V272h96l0 160H424c-13.3 0-24 10.7-24 24s10.7 24 24 24H536c13.3 0 24-10.7 24-24s-10.7-24-24-24H504l0-160h88v24c0 13.3 10.7 24 24 24s24-10.7 24-24V264c0-22.1-17.9-40-40-40H352c-22.1 0-40 17.9-40 40v32c0 13.3 10.7 24 24 24s24-10.7 24-24z"/></svg>