<svg xmlns="http://www.w3.org/2000/svg" viewBox="0 0 576 512"><!--! Font Awesome Pro 6.4.0 by @fontawesome - https://fontawesome.com License - https://fontawesome.com/license (Commercial License) Copyright 2023 Fonticons, Inc. --><path d="M48 128V80h88l0 352H88c-13.3 0-24 10.7-24 24s10.7 24 24 24H232c13.3 0 24-10.7 24-24s-10.7-24-24-24H184l0-352h88v48c0 13.3 10.7 24 24 24s24-10.7 24-24V72c0-22.1-17.9-40-40-40H40C17.9 32 0 49.9 0 72v56c0 13.3 10.7 24 24 24s24-10.7 24-24zM497 39c-9.4-9.4-24.6-9.4-33.9 0l-64 64c-9.4 9.4-9.4 24.6 0 33.9s24.6 9.4 33.9 0l23-23V398.1l-23-23c-9.4-9.4-24.6-9.4-33.9 0s-9.4 24.6 0 33.9l64 64c9.4 9.4 24.6 9.4 33.9 0l64-64c9.4-9.4 9.4-24.6 0-33.9s-24.6-9.4-33.9 0l-23 23V113.9l23 23c9.4 9.4 24.6 9.4 33.9 0s9.4-24.6 0-33.9L497 39z"/></svg>