<svg xmlns="http://www.w3.org/2000/svg" viewBox="0 0 384 512"><!--! Font Awesome Pro 6.4.0 by @fontawesome - https://fontawesome.com License - https://fontawesome.com/license (Commercial License) Copyright 2023 Fonticons, Inc. --><path d="M134.6 51.7L123.8 192.6c-1.1 14.6-8.8 27.8-20.9 36C79 244.8 61.1 269.4 53.8 298.9L52.5 304H168V216c0-13.3 10.7-24 24-24s24 10.7 24 24v88H331.5l-1.3-5.1c-7.4-29.5-25.2-54.1-49.1-70.2c-12.1-8.2-19.8-21.5-20.9-36L249.4 51.7c-.1-1.2-.1-2.5-.1-3.7H134.8c0 1.2 0 2.5-.1 3.7zM168 352H32c-9.9 0-19.2-4.5-25.2-12.3S-1.4 321.8 1 312.2l6.2-25c10.3-41.3 35.4-75.7 68.7-98.3L83.1 96l3.7-48H56c-4.4 0-8.6-1.2-12.2-3.3C36.8 40.5 32 32.8 32 24C32 10.7 42.7 0 56 0H86.8 297.2 328c13.3 0 24 10.7 24 24c0 8.8-4.8 16.5-11.8 20.7c-3.6 2.1-7.7 3.3-12.2 3.3H297.2l3.7 48 7.1 92.9c33.3 22.6 58.4 57.1 68.7 98.3l6.2 25c2.4 9.6 .2 19.7-5.8 27.5s-15.4 12.3-25.2 12.3H216V488c0 13.3-10.7 24-24 24s-24-10.7-24-24V352z"/></svg>