<svg xmlns="http://www.w3.org/2000/svg" viewBox="0 0 128 512"><!--! Font Awesome Pro 6.4.0 by @fontawesome - https://fontawesome.com License - https://fontawesome.com/license (Commercial License) Copyright 2023 Fonticons, Inc. --><path d="M40 104c0-13.3 10.7-24 24-24s24 10.7 24 24v1.9c0 1.4-.1 2.8-.4 4.3c0 0 0 0 0 0L64 252 40.4 110.1c-.2-1.4-.4-2.8-.4-4.3V104zm95 14c.7-4 1-8.1 1-12.1V104c0-39.8-32.2-72-72-72S-8 64.2-8 104v1.9c0 4.1 .3 8.1 1 12.1L17.4 264.5C21.2 287.3 40.9 304 64 304s42.8-16.7 46.6-39.5L135 118z"/></svg>