<svg xmlns="http://www.w3.org/2000/svg" viewBox="0 0 576 512"><!--! Font Awesome Pro 6.4.0 by @fontawesome - https://fontawesome.com License - https://fontawesome.com/license (Commercial License) Copyright 2023 Fonticons, Inc. --><path d="M72 48H184c13.3 0 24 10.7 24 24V96H48V72c0-13.3 10.7-24 24-24zM48 432V144H208v80H184c-13.3 0-24 10.7-24 24v48c0 13.3 10.7 24 24 24h24V432H48zm0 56v-8H208v8c0 13.3 10.7 24 24 24s24-10.7 24-24V72c0-39.8-32.2-72-72-72H72C32.2 0 0 32.2 0 72V488c0 13.3 10.7 24 24 24s24-10.7 24-24zM392 48H504c13.3 0 24 10.7 24 24V96H368V72c0-13.3 10.7-24 24-24zM368 432V144H528v80H504c-13.3 0-24 10.7-24 24v48c0 13.3 10.7 24 24 24h24V432H368zm0 56v-8H528v8c0 13.3 10.7 24 24 24s24-10.7 24-24V72c0-39.8-32.2-72-72-72H392c-39.8 0-72 32.2-72 72V488c0 13.3 10.7 24 24 24s24-10.7 24-24z"/></svg>