<svg xmlns="http://www.w3.org/2000/svg" viewBox="0 0 448 512"><!--! Font Awesome Pro 6.4.0 by @fontawesome - https://fontawesome.com License - https://fontawesome.com/license (Commercial License) Copyright 2023 Fonticons, Inc. --><path d="M0 24C0 37.3 10.7 48 24 48H56 392h32c13.3 0 24-10.7 24-24s-10.7-24-24-24H392 56 24C10.7 0 0 10.7 0 24zM81.6 182.9l-1.6 .5V80H32V207.1l-.4 .4C17.5 219.4 8 235.7 8 256c0 72.7 33.4 120.2 78.4 148.3c1.7 1.1 3.5 2.1 5.2 3.2L69.3 448.2c-3.5 6.3-5.3 13.5-5.3 20.7c0 23.8 19.3 43.1 43.1 43.1H340.9c23.8 0 43.1-19.3 43.1-43.1c0-7.2-1.8-14.4-5.3-20.7l-22.3-40.7c1.8-1 3.5-2.1 5.2-3.2c45-28.1 78.4-75.6 78.4-148.3c0-20.3-9.5-36.6-23.6-48.5l-.4-.4V80H368V183.4l-1.6-.5C328.4 172 277.7 168 224 168s-104.4 4-142.4 14.9zM373.8 326.8c-9.8 15.7-22.9 27.6-37.6 36.9C303 384.4 259.9 392 224 392s-79-7.6-112.2-28.3c-14.7-9.2-27.8-21.2-37.6-36.9c2.4 .8 4.9 1.5 7.4 2.3C119.6 340 170.3 344 224 344s104.4-4 142.4-14.9c2.5-.7 4.9-1.5 7.4-2.3zM56 256c0-3.7 1.2-7.4 6.6-12c6.1-5.1 16.5-10.4 32.3-15C126.3 220 171.6 216 224 216s97.7 4 129.1 13.1c15.8 4.5 26.2 9.8 32.2 15c5.4 4.6 6.6 8.2 6.6 12s-1.2 7.4-6.6 12c-6.1 5.1-16.5 10.4-32.2 15C321.7 292 276.4 296 224 296s-97.7-4-129.1-13.1c-15.8-4.5-26.2-9.8-32.3-15c-5.4-4.6-6.6-8.2-6.6-12zM312.3 426.8L332.6 464H115.4l20.4-37.2c30.5 9.7 61.8 13.2 88.3 13.2s57.7-3.5 88.3-13.2zM128 80c-8.8 0-16 7.2-16 16s7.2 16 16 16h48c8.8 0 16-7.2 16-16s-7.2-16-16-16H128z"/></svg>