<svg xmlns="http://www.w3.org/2000/svg" viewBox="0 0 448 512"><!--! Font Awesome Pro 6.4.0 by @fontawesome - https://fontawesome.com License - https://fontawesome.com/license (Commercial License) Copyright 2023 Fonticons, Inc. --><path d="M368 432V192c0-79.5-64.5-144-144-144S80 112.5 80 192V432H32V192C32 86 118 0 224 0S416 86 416 192V432H368zM0 488c0-13.3 10.7-24 24-24H424c13.3 0 24 10.7 24 24s-10.7 24-24 24H24c-13.3 0-24-10.7-24-24zM248 152v40h48c13.3 0 24 10.7 24 24s-10.7 24-24 24H248V360c0 13.3-10.7 24-24 24s-24-10.7-24-24V240H152c-13.3 0-24-10.7-24-24s10.7-24 24-24h48V152c0-13.3 10.7-24 24-24s24 10.7 24 24z"/></svg>