<svg xmlns="http://www.w3.org/2000/svg" viewBox="0 0 512 512"><!--! Font Awesome Pro 6.4.0 by @fontawesome - https://fontawesome.com License - https://fontawesome.com/license (Commercial License) Copyright 2023 Fonticons, Inc. --><path d="M184 80H328c4.4 0 8 3.6 8 8v40H176V88c0-4.4 3.6-8 8-8zm-56 8v40H99.9c-12.7 0-24.9 5.1-33.9 14.1L14.1 193.9c-9 9-14.1 21.2-14.1 33.9V320v96c0 35.3 28.7 64 64 64H448c35.3 0 64-28.7 64-64V320 227.9c0-12.7-5.1-24.9-14.1-33.9l-51.9-51.9c-9-9-21.2-14.1-33.9-14.1H384V88c0-30.9-25.1-56-56-56H184c-30.9 0-56 25.1-56 56zM464 296H368V280c0-13.3-10.7-24-24-24s-24 10.7-24 24v16H192V280c0-13.3-10.7-24-24-24s-24 10.7-24 24v16H48V227.9L99.9 176H412.1L464 227.9V296zM48 344h96v16c0 13.3 10.7 24 24 24s24-10.7 24-24V344H320v16c0 13.3 10.7 24 24 24s24-10.7 24-24V344h96v72c0 8.8-7.2 16-16 16H64c-8.8 0-16-7.2-16-16V344z"/></svg>