<svg xmlns="http://www.w3.org/2000/svg" viewBox="0 0 576 512"><!--! Font Awesome Pro 6.4.0 by @fontawesome - https://fontawesome.com License - https://fontawesome.com/license (Commercial License) Copyright 2023 Fonticons, Inc. --><path d="M222.6 64.1c4.5-12.5-2-26.2-14.5-30.7s-26.2 2-30.7 14.5L160.1 96H112c-13.3 0-24 10.7-24 24s10.7 24 24 24h30.8L114 224H72c-13.3 0-24 10.7-24 24s10.7 24 24 24H96.7L67.9 352H32c-13.3 0-24 10.7-24 24s10.7 24 24 24H50.7L33.4 447.9c-4.5 12.5 2 26.2 14.5 30.7s26.2-2 30.7-14.5L101.7 400H474.3l23.1 64.1c4.5 12.5 18.2 18.9 30.7 14.5s18.9-18.2 14.5-30.7L525.3 400H544c13.3 0 24-10.7 24-24s-10.7-24-24-24H508.1l-28.8-80H504c13.3 0 24-10.7 24-24s-10.7-24-24-24H462l-28.8-80H464c13.3 0 24-10.7 24-24s-10.7-24-24-24H415.9L398.6 47.9c-4.5-12.5-18.2-18.9-30.7-14.5s-18.9 18.2-14.5 30.7L364.9 96H211.1l11.5-31.9zM193.8 144H382.2L411 224H165l28.8-80zM457.1 352H118.9l28.8-80H428.3l28.8 80z"/></svg>