<svg xmlns="http://www.w3.org/2000/svg" viewBox="0 0 640 512"><!--! Font Awesome Pro 6.4.0 by @fontawesome - https://fontawesome.com License - https://fontawesome.com/license (Commercial License) Copyright 2023 Fonticons, Inc. --><path d="M64 80H496c8.8 0 16 7.2 16 16V336H275.2c-16.6-28.7-47.6-48-83.2-48s-66.6 19.3-83.2 48H64c-8.8 0-16-7.2-16-16V96c0-8.8 7.2-16 16-16zM288 384H616c13.3 0 24-10.7 24-24s-10.7-24-24-24H560V96c0-35.3-28.7-64-64-64H64C28.7 32 0 60.7 0 96V320c0 35.3 28.7 64 64 64H96c0 53 43 96 96 96s96-43 96-96zM136 112c-13.3 0-24 10.7-24 24v96c0 13.3 10.7 24 24 24s24-10.7 24-24V136c0-13.3-10.7-24-24-24zm96 0c-13.3 0-24 10.7-24 24v96c0 13.3 10.7 24 24 24s24-10.7 24-24V136c0-13.3-10.7-24-24-24zm96 0c-13.3 0-24 10.7-24 24V280c0 13.3 10.7 24 24 24s24-10.7 24-24V136c0-13.3-10.7-24-24-24zm96 0c-13.3 0-24 10.7-24 24V280c0 13.3 10.7 24 24 24s24-10.7 24-24V136c0-13.3-10.7-24-24-24zM144 384a48 48 0 1 1 96 0 48 48 0 1 1 -96 0z"/></svg>