<svg xmlns="http://www.w3.org/2000/svg" viewBox="0 0 512 512"><!--! Font Awesome Pro 6.4.0 by @fontawesome - https://fontawesome.com License - https://fontawesome.com/license (Commercial License) Copyright 2023 Fonticons, Inc. --><path d="M256 48C141.1 48 48 141.1 48 256V488c0 13.3-10.7 24-24 24s-24-10.7-24-24V256C0 114.6 114.6 0 256 0S512 114.6 512 256V488c0 13.3-10.7 24-24 24s-24-10.7-24-24V256c0-114.9-93.1-208-208-208zm24 128l0 80h72V208c0-17.7-14.3-32-32-32H280zm-48 0H192c-17.7 0-32 14.3-32 32v48h72l0-80zM160 304v64c0 17.7 14.3 32 32 32H320c17.7 0 32-14.3 32-32V304H160zm-48-96c0-44.2 35.8-80 80-80H320c44.2 0 80 35.8 80 80V368c0 27.7-14.1 52.2-35.5 66.5L401 471c9.4 9.4 9.4 24.6 0 33.9s-24.6 9.4-33.9 0l-57-57H201.9l-57 57c-9.4 9.4-24.6 9.4-33.9 0s-9.4-24.6 0-33.9l36.5-36.5C126.1 420.2 112 395.7 112 368V208zm64 144a24 24 0 1 1 48 0 24 24 0 1 1 -48 0zm136-24a24 24 0 1 1 0 48 24 24 0 1 1 0-48z"/></svg>