<svg xmlns="http://www.w3.org/2000/svg" viewBox="0 0 448 512"><!--! Font Awesome Pro 6.4.0 by @fontawesome - https://fontawesome.com License - https://fontawesome.com/license (Commercial License) Copyright 2023 Fonticons, Inc. --><path d="M352 48c26.5 0 48 21.5 48 48v96H48V96c0-26.5 21.5-48 48-48H352zM48 352V240H400V352c0 26.5-21.5 48-48 48H96c-26.5 0-48-21.5-48-48zM96 0C43 0 0 43 0 96V352c0 42.8 28 79 66.6 91.4L39 471c-9.4 9.4-9.4 24.6 0 33.9s24.6 9.4 33.9 0l57-57H318.1l57 57c9.4 9.4 24.6 9.4 33.9 0s9.4-24.6 0-33.9l-27.6-27.6C420 431 448 394.8 448 352V96c0-53-43-96-96-96H96zM224 360a40 40 0 1 0 0-80 40 40 0 1 0 0 80z"/></svg>