<svg xmlns="http://www.w3.org/2000/svg" viewBox="0 0 512 512"><!--! Font Awesome Pro 6.4.0 by @fontawesome - https://fontawesome.com License - https://fontawesome.com/license (Commercial License) Copyright 2023 Fonticons, Inc. --><path d="M64 32l25.4 7.3C93.3 40.4 96 43.9 96 48s-2.7 7.6-6.6 8.7L64 64 56.7 89.4C55.6 93.3 52.1 96 48 96s-7.6-2.7-8.7-6.6L32 64 6.6 56.7C2.7 55.6 0 52.1 0 48s2.7-7.6 6.6-8.7L32 32 39.3 6.6C40.4 2.7 43.9 0 48 0s7.6 2.7 8.7 6.6L64 32zM480 352l25.4 7.3c3.9 1.1 6.6 4.7 6.6 8.7s-2.7 7.6-6.6 8.7L480 384l-7.3 25.4c-1.1 3.9-4.7 6.6-8.7 6.6s-7.6-2.7-8.7-6.6L448 384l-25.4-7.3c-3.9-1.1-6.6-4.7-6.6-8.7s2.7-7.6 6.6-8.7L448 352l7.3-25.4c1.1-3.9 4.7-6.6 8.7-6.6s7.6 2.7 8.7 6.6L480 352zM120 464H392c13.3 0 24 10.7 24 24s-10.7 24-24 24H120c-13.3 0-24-10.7-24-24s10.7-24 24-24zM256 0a48 48 0 1 1 0 96 48 48 0 1 1 0-96zM180.4 224H120.2l46.4-61.2c16.6-21.9 42.6-34.8 70.1-34.8h38.6c27.5 0 53.5 12.9 70.1 34.8L391.8 224H331.6 320 272V176H240v48H192 180.4zM112 256H400c8.8 0 16 7.2 16 16s-7.2 16-16 16H112c-8.8 0-16-7.2-16-16s7.2-16 16-16zm64 64H336c8.8 0 16 7.2 16 16s-7.2 16-16 16H176c-8.8 0-16-7.2-16-16s7.2-16 16-16zm0 64H336c8.8 0 16 7.2 16 16s-7.2 16-16 16H176c-8.8 0-16-7.2-16-16s7.2-16 16-16z"/></svg>