<svg xmlns="http://www.w3.org/2000/svg" viewBox="0 0 640 512"><!--! Font Awesome Pro 6.4.0 by @fontawesome - https://fontawesome.com License - https://fontawesome.com/license (Commercial License) Copyright 2023 Fonticons, Inc. --><path d="M38.8 5.1C28.4-3.1 13.3-1.2 5.1 9.2S-1.2 34.7 9.2 42.9l592 464c10.4 8.2 25.5 6.3 33.7-4.1s6.3-25.5-4.1-33.7L491.3 359.8 508.4 128H520c13.3 0 24-10.7 24-24s-10.7-24-24-24h-8H463.9 450.2L413.5 24.9C403.1 9.4 385.6 0 366.9 0H273.1c-18.7 0-36.2 9.4-46.6 24.9L189.8 80H176.1 134.4L38.8 5.1zM195.6 128H460.3L445.8 324.1 195.6 128zm77.5-80h93.7c2.7 0 5.2 1.3 6.7 3.6l19 28.4h-145l19-28.4c1.5-2.2 4-3.6 6.7-3.6zM155.6 452.7c2.5 33.4 30.3 59.3 63.8 59.3H420.6c26.1 0 48.8-15.7 58.7-38.4l-42.1-33.1-.6 8.7c-.6 8.4-7.6 14.8-16 14.8H219.4c-8.4 0-15.3-6.5-16-14.8L188.3 244.4l-51.1-40.3 18.4 248.6z"/></svg>