<svg xmlns="http://www.w3.org/2000/svg" viewBox="0 0 448 512"><!--! Font Awesome Pro 6.4.0 by @fontawesome - https://fontawesome.com License - https://fontawesome.com/license (Commercial License) Copyright 2023 Fonticons, Inc. --><path d="M177.1 48h93.7c2.7 0 5.2 1.3 6.7 3.6l19 28.4h-145l19-28.4c1.5-2.2 4-3.6 6.7-3.6zM354.2 80L317.5 24.9C307.1 9.4 289.6 0 270.9 0H177.1c-18.7 0-36.2 9.4-46.6 24.9L93.8 80H80.1 32 24C10.7 80 0 90.7 0 104s10.7 24 24 24H35.6L59.6 452.7c2.5 33.4 30.3 59.3 63.8 59.3H324.6c33.5 0 61.3-25.9 63.8-59.3L412.4 128H424c13.3 0 24-10.7 24-24s-10.7-24-24-24h-8H367.9 354.2zm10.1 48L340.5 449.2c-.6 8.4-7.6 14.8-16 14.8H123.4c-8.4 0-15.3-6.5-16-14.8L83.7 128H364.3zM222.9 194.7c-7.3-8.3-20-9-28.2-1.7l-72 64c-4.3 3.8-6.7 9.2-6.7 14.9s2.4 11.2 6.7 14.9l72 64c8.3 7.3 20.9 6.6 28.2-1.7s6.6-20.9-1.7-28.2L188.6 292H240c24.3 0 44 19.7 44 44v24c0 11 9 20 20 20s20-9 20-20V336c0-46.4-37.6-84-84-84H188.6l32.7-29.1c8.3-7.3 9-20 1.7-28.2z"/></svg>