<svg xmlns="http://www.w3.org/2000/svg" viewBox="0 0 640 512"><!--! Font Awesome Pro 6.4.0 by @fontawesome - https://fontawesome.com License - https://fontawesome.com/license (Commercial License) Copyright 2023 Fonticons, Inc. --><path d="M177.4 15.1c16-19 45.2-19 61.2 0L354.4 152.5c6 7.1 7.3 17.1 3.4 25.6s-12.4 13.9-21.8 13.9H321.9l64.8 81c5.8 7.2 6.9 17.1 2.9 25.4s-12.4 13.6-21.6 13.6H342.3l62.1 88H408V216c0-13.3 10.7-24 24-24s24 10.7 24 24V400H569.7l-69.3-98.2c-5.2-7.3-5.8-16.9-1.7-24.9s12.3-13 21.3-13h22.1l-64.8-81c-5.8-7.2-6.9-17.1-2.9-25.4s12.4-13.6 21.6-13.6h12.4L432 53.3l-59.9 71.1L339.9 88.1l61.5-73c16-19 45.2-19 61.2 0L578.4 152.5c6 7.1 7.3 17.1 3.4 25.6s-12.4 13.9-21.8 13.9H545.9l64.8 81c5.8 7.2 6.9 17.1 2.9 25.4s-12.4 13.6-21.6 13.6H566.3l69.3 98.2c5.2 7.3 5.8 16.9 1.7 24.9s-12.3 13-21.3 13H456v40c0 13.3-10.7 24-24 24s-24-10.7-24-24V448H392 368 256 232v40c0 13.3-10.7 24-24 24s-24-10.7-24-24V448H144 24c-9 0-17.2-5-21.3-13s-3.5-17.6 1.7-24.9L73.7 312H48c-9.2 0-17.6-5.3-21.6-13.6s-2.9-18.2 2.9-25.4l64.8-81H80c-9.3 0-17.8-5.4-21.8-13.9s-2.6-18.4 3.4-25.6L177.4 15.1zM256 400h89.7l-69.3-98.2c-5.2-7.3-5.8-16.9-1.7-24.9s12.3-13 21.3-13h22.1l-64.8-81c-5.8-7.2-6.9-17.1-2.9-25.4s12.4-13.6 21.6-13.6h12.4L208 53.3 131.6 144H144c9.2 0 17.6 5.3 21.6 13.6s2.9 18.2-2.9 25.4L97.9 264H120c9 0 17.2 5 21.3 13s3.5 17.6-1.7 24.9L70.3 400H144h40V216c0-13.3 10.7-24 24-24s24 10.7 24 24V400h24z"/></svg>