<svg xmlns="http://www.w3.org/2000/svg" viewBox="0 0 448 512"><!--! Font Awesome Pro 6.4.0 by @fontawesome - https://fontawesome.com License - https://fontawesome.com/license (Commercial License) Copyright 2023 Fonticons, Inc. --><path d="M224 0c7.4 0 14.4 3.4 18.9 9.3L381.2 186.9c5.6 7.2 6.6 17 2.6 25.3s-12.4 13.5-21.6 13.5H345.7l67.2 100.6c4.9 7.4 5.4 16.8 1.2 24.6s-12.3 12.7-21.2 12.7H369l74.9 111.1c5 7.4 5.5 16.9 1.3 24.7S432.9 512 424 512H24c-8.9 0-17-4.9-21.2-12.7s-3.7-17.3 1.3-24.7L79 363.5H55c-8.9 0-17-4.9-21.2-12.7s-3.7-17.3 1.2-24.6l67.2-100.6H85.8c-9.2 0-17.5-5.2-21.6-13.5s-3-18 2.6-25.3L205.1 9.3C209.6 3.4 216.6 0 224 0zM134.9 177.6h12.3c8.9 0 17 4.9 21.2 12.7s3.7 17.3-1.2 24.6L99.9 315.5h24.2c8.9 0 17 4.9 21.2 12.7s3.7 17.3-1.3 24.7L69.1 464H378.9L303.9 352.9c-5-7.4-5.5-16.9-1.3-24.7s12.3-12.7 21.2-12.7h24.2L280.8 214.9c-4.9-7.4-5.4-16.8-1.2-24.6s12.3-12.7 21.2-12.7h12.3L224 63.1 134.9 177.6z"/></svg>