<svg xmlns="http://www.w3.org/2000/svg" viewBox="0 0 640 512"><!--! Font Awesome Pro 6.4.0 by @fontawesome - https://fontawesome.com License - https://fontawesome.com/license (Commercial License) Copyright 2023 Fonticons, Inc. --><path d="M184 80h86.1c2.8 0 5.4 1.5 6.8 3.8L343 192H176V88c0-4.4 3.6-8 8-8zM398.6 192c-.6-1.5-1.3-3.1-2.2-4.5L317.8 58.8C307.7 42.2 289.6 32 270.1 32H184c-30.9 0-56 25.1-56 56V192H56c-30.9 0-56 25.1-56 56v96c0 19.4 13.7 35.5 32 39.2l0 .8c0 53 43 96 96 96s96-43 96-96h48c0 53 43 96 96 96s96-43 96-96h54.1l.1 .1 80 88c8.9 9.8 24.1 10.5 33.9 1.6s10.5-24.1 1.6-33.9L560 358.7V217.3l73.8-81.1c8.9-9.8 8.2-25-1.6-33.9s-25-8.2-33.9 1.6l-80 88c-4 4.4-6.2 10.2-6.2 16.1V336H480V248c0-30.9-25.1-56-56-56H398.6zM432 312.4c-17-15.2-39.4-24.4-64-24.4c-35.5 0-66.6 19.3-83.2 48H211.2c-16.6-28.7-47.6-48-83.2-48c-33.4 0-62.8 17-80 42.9V248c0-4.4 3.6-8 8-8H424c4.4 0 8 3.6 8 8v64.4zM80 384a48 48 0 1 1 96 0 48 48 0 1 1 -96 0zm288-48a48 48 0 1 1 0 96 48 48 0 1 1 0-96z"/></svg>