<svg xmlns="http://www.w3.org/2000/svg" viewBox="0 0 512 512"><!--! Font Awesome Pro 6.4.0 by @fontawesome - https://fontawesome.com License - https://fontawesome.com/license (Commercial License) Copyright 2023 Fonticons, Inc. --><path d="M80 48C62.3 48 48 62.3 48 80V232c4.2-3.2 8.7-6.1 13.3-8.7l40-85.8C113.2 112.2 138.6 96 166.6 96H345.4c28 0 53.4 16.2 65.2 41.6l40 85.8c4.6 2.6 9.1 5.5 13.3 8.7V80c0-17.7-14.3-32-32-32H80zM48 328v40c0 17.7 14.3 32 32 32H432c17.7 0 32-14.3 32-32V328c0-39.8-32.2-72-72-72H120c-39.8 0-72 32.2-72 72zM0 328V80C0 35.8 35.8 0 80 0H432c44.2 0 80 35.8 80 80V328v40c0 26.2-12.6 49.4-32 64v56c0 13.3-10.7 24-24 24s-24-10.7-24-24V448H80v40c0 13.3-10.7 24-24 24s-24-10.7-24-24V432C12.6 417.4 0 394.2 0 368V328zM121.4 208H390.6l-23.4-50.1c-3.9-8.4-12.4-13.9-21.7-13.9H166.6c-9.3 0-17.8 5.4-21.7 13.9L121.4 208zM96 320a32 32 0 1 1 64 0 32 32 0 1 1 -64 0zm288-32a32 32 0 1 1 0 64 32 32 0 1 1 0-64z"/></svg>