<svg xmlns="http://www.w3.org/2000/svg" viewBox="0 0 640 512"><!--! Font Awesome Pro 6.4.0 by @fontawesome - https://fontawesome.com License - https://fontawesome.com/license (Commercial License) Copyright 2023 Fonticons, Inc. --><path d="M272 88v88H446.9L374.7 83.1c-1.5-1.9-3.8-3.1-6.3-3.1H280c-4.4 0-8 3.6-8 8zM412.6 53.6L507.7 176H552c30.9 0 56 25.1 56 56v88h8c13.3 0 24 10.7 24 24s-10.7 24-24 24h-8H560h-1.3c.9 5.2 1.3 10.5 1.3 16c0 53-43 96-96 96s-96-43-96-96c0-5.5 .5-10.8 1.3-16H270.7c.9 5.2 1.3 10.5 1.3 16c0 53-43 96-96 96s-96-43-96-96c0-5.5 .5-10.8 1.3-16H80 32 24c-13.3 0-24-10.7-24-24s10.7-24 24-24h8V232c0-30.9 25.1-56 56-56H224V88c0-30.9 25.1-56 56-56h88.3c17.3 0 33.6 8 44.2 21.6zM96 320h8.4c17.6-19.6 43.1-32 71.6-32s54 12.4 71.6 32H256 384h8.4c17.6-19.6 43.1-32 71.6-32s54 12.4 71.6 32H544h16V232c0-4.4-3.6-8-8-8H496.2h-.5H248 88c-4.4 0-8 3.6-8 8v88H96zm128 64a48 48 0 1 0 -96 0 48 48 0 1 0 96 0zm240 48a48 48 0 1 0 0-96 48 48 0 1 0 0 96z"/></svg>