<svg xmlns="http://www.w3.org/2000/svg" viewBox="0 0 640 512"><!--! Font Awesome Pro 6.4.0 by @fontawesome - https://fontawesome.com License - https://fontawesome.com/license (Commercial License) Copyright 2023 Fonticons, Inc. --><path d="M336 80c8.8 0 16 7.2 16 16v8V224v96 16H243.2c-16.6-28.7-47.6-48-83.2-48s-66.6 19.3-83.2 48H64V288 128 96c0-8.8 7.2-16 16-16H336zM16 283.7V336v1.4C6.7 340.7 0 349.5 0 360s6.7 19.3 16 22.6V384h8H64c0 53 43 96 96 96s96-43 96-96h96 32c0 53 43 96 96 96s96-43 96-96h32 8c13.3 0 24-10.7 24-24s-10.7-24-24-24h-8V288c0-35.3-28.7-64-64-64h-5l-.3-.7L486.4 112.2c-9.2-19.6-29-32.2-50.7-32.2H398c-7.1-27.6-32.2-48-62-48H80C44.7 32 16 60.7 16 96v36.3C6.4 137.8 0 148.2 0 160v96c0 11.8 6.4 22.2 16 27.7zM160 336a48 48 0 1 1 0 96 48 48 0 1 1 0-96zM485.9 224H400V128h35.7c3.1 0 5.9 1.8 7.2 4.6l43 91.4zM528 384a48 48 0 1 1 -96 0 48 48 0 1 1 96 0z"/></svg>