<svg xmlns="http://www.w3.org/2000/svg" viewBox="0 0 640 512"><!--! Font Awesome Pro 6.4.0 by @fontawesome - https://fontawesome.com License - https://fontawesome.com/license (Commercial License) Copyright 2023 Fonticons, Inc. --><path d="M352 48c8.8 0 16 7.2 16 16V352c0 8.8-7.2 16-16 16H320 243.2c-16.6-28.7-47.6-48-83.2-48s-66.6 19.3-83.2 48H64c-8.8 0-16-7.2-16-16V64c0-8.8 7.2-16 16-16H352zm32 368c0 53 43 96 96 96s96-43 96-96h40c13.3 0 24-10.7 24-24s-10.7-24-24-24h-8V245.3c0-14.9-5.9-29.1-16.4-39.6l-93.3-93.3C487.8 101.9 473.6 96 458.7 96H416V64c0-35.3-28.7-64-64-64H64C28.7 0 0 28.7 0 64V352c0 35.3 28.7 64 64 64c0 53 43 96 96 96s96-43 96-96h64 32 24 8zM557.7 239.6c.1 .1 .3 .3 .4 .4H416V144h42.7c2.1 0 4.2 .8 5.7 2.3l93.3 93.3zM112 416a48 48 0 1 1 96 0 48 48 0 1 1 -96 0zm368-48a48 48 0 1 1 0 96 48 48 0 1 1 0-96z"/></svg>