<svg xmlns="http://www.w3.org/2000/svg" viewBox="0 0 512 512"><!--! Font Awesome Pro 6.4.0 by @fontawesome - https://fontawesome.com License - https://fontawesome.com/license (Commercial License) Copyright 2023 Fonticons, Inc. --><path d="M370 188.8v25.9l76.6 16.9 15.8-53.4c3.3-11.2-.3-17.4-2.5-19.4C421 123.4 349.4 80 256 80s-165 43.4-203.9 78.6c-2.2 2-5.8 8.2-2.5 19.4l15.8 53.4L142 214.6V188.8c0-19.5 11.8-37.1 29.9-44.5c53.9-21.9 114.2-21.9 168.1 0c18.1 7.4 29.9 24.9 29.9 44.5zm-48 25.9V188.8c-42.3-17.2-89.7-17.2-132 0v25.9c0 22.5-15.7 42-37.7 46.9L75.7 278.4c-24.6 5.4-49.2-9.1-56.4-33.3L3.5 191.7c-7.2-24.5-2.6-51.4 16.3-68.6C64.9 82.2 147.6 32 256 32s191.1 50.2 236.2 91.1c18.9 17.2 23.5 44.1 16.3 68.6l-15.8 53.4c-7.1 24.2-31.8 38.7-56.4 33.3l-76.6-16.9c-22-4.8-37.7-24.3-37.7-46.9zM32 336c0-8.8 7.2-16 16-16H80c8.8 0 16 7.2 16 16v32c0 8.8-7.2 16-16 16H48c-8.8 0-16-7.2-16-16V336zm0 96c0-8.8 7.2-16 16-16H80c8.8 0 16 7.2 16 16v32c0 8.8-7.2 16-16 16H48c-8.8 0-16-7.2-16-16V432zM144 320h32c8.8 0 16 7.2 16 16v32c0 8.8-7.2 16-16 16H144c-8.8 0-16-7.2-16-16V336c0-8.8 7.2-16 16-16zm80 16c0-8.8 7.2-16 16-16h32c8.8 0 16 7.2 16 16v32c0 8.8-7.2 16-16 16H240c-8.8 0-16-7.2-16-16V336zm112-16h32c8.8 0 16 7.2 16 16v32c0 8.8-7.2 16-16 16H336c-8.8 0-16-7.2-16-16V336c0-8.8 7.2-16 16-16zm80 16c0-8.8 7.2-16 16-16h32c8.8 0 16 7.2 16 16v32c0 8.8-7.2 16-16 16H432c-8.8 0-16-7.2-16-16V336zm16 80h32c8.8 0 16 7.2 16 16v32c0 8.8-7.2 16-16 16H432c-8.8 0-16-7.2-16-16V432c0-8.8 7.2-16 16-16zM128 432c0-8.8 7.2-16 16-16H368c8.8 0 16 7.2 16 16v32c0 8.8-7.2 16-16 16H144c-8.8 0-16-7.2-16-16V432z"/></svg>