<svg xmlns="http://www.w3.org/2000/svg" viewBox="0 0 384 512"><!--! Font Awesome Pro 6.4.0 by @fontawesome - https://fontawesome.com License - https://fontawesome.com/license (Commercial License) Copyright 2023 Fonticons, Inc. --><path d="M175.6 505.5c9.2 8.7 23.7 8.7 32.9 0l129-121.4c9.3-8.8 14.6-21 14.6-33.7c0-25.6-20.7-46.3-46.3-46.3H264V160C264 71.6 192.4 0 104 0H56C25.1 0 0 25.1 0 56V88c0 30.9 25.1 56 56 56h56c4.4 0 8 3.6 8 8V304H78.3C52.7 304 32 324.7 32 350.3c0 12.8 5.3 25 14.6 33.7l129 121.4zM82.5 352H144c13.3 0 24-10.7 24-24V152c0-30.9-25.1-56-56-56H56c-4.4 0-8-3.6-8-8V56c0-4.4 3.6-8 8-8h48c61.9 0 112 50.1 112 112V328c0 13.3 10.7 24 24 24h61.5L192 455 82.5 352z"/></svg>