<svg xmlns="http://www.w3.org/2000/svg" viewBox="0 0 576 512"><!--! Font Awesome Pro 6.4.0 by @fontawesome - https://fontawesome.com License - https://fontawesome.com/license (Commercial License) Copyright 2023 Fonticons, Inc. --><path d="M512 80c8.8 0 16 7.2 16 16V416c0 8.8-7.2 16-16 16H64c-8.8 0-16-7.2-16-16V96c0-8.8 7.2-16 16-16H512zM64 32C28.7 32 0 60.7 0 96V416c0 35.3 28.7 64 64 64H512c35.3 0 64-28.7 64-64V96c0-35.3-28.7-64-64-64H64zM224 400a144 144 0 1 0 0-288 144 144 0 1 0 0 288zm0-176a32 32 0 1 1 0 64 32 32 0 1 1 0-64zm272-88c0-13.3-10.7-24-24-24s-24 10.7-24 24V271.7c0 6.7-1.7 13.3-4.9 19.2l-40.2 73.7c-6.3 11.6-2.1 26.2 9.6 32.6s26.2 2.1 32.6-9.6l40.2-73.7c7-12.9 10.7-27.4 10.7-42.1V136z"/></svg>