<svg xmlns="http://www.w3.org/2000/svg" viewBox="0 0 576 512"><!--! Font Awesome Pro 6.4.0 by @fontawesome - https://fontawesome.com License - https://fontawesome.com/license (Commercial License) Copyright 2023 Fonticons, Inc. --><path d="M336 240V208c0-70.7-57.3-128-128-128S80 137.3 80 208v32H336zm48-32v41.2c0 21.4-17.4 38.8-38.8 38.8H70.8C49.4 288 32 270.6 32 249.2V208c0-97.2 78.8-176 176-176s176 78.8 176 176zm96 80c-8.3 0-16.3-1.6-23.6-4.5C440.3 328 400.4 361 352 367v1 72c0 22.1-17.9 40-40 40H264c-22.1 0-40-17.9-40-40V368H192v72c0 22.1-17.9 40-40 40H104c-22.1 0-40-17.9-40-40V368H24c-13.3 0-24-10.7-24-24s10.7-24 24-24H64h48 32 48 32 48 32 32c44.2 0 80-35.8 80-80V224 192 176c0-35.3 28.7-64 64-64c53 0 96 43 96 96v16c0 35.3-28.7 64-64 64H480zM272 368v64h32V368H272zm-160 0v64h32V368H112zM496 224a16 16 0 1 0 0-32 16 16 0 1 0 0 32z"/></svg>