<svg xmlns="http://www.w3.org/2000/svg" viewBox="0 0 512 512"><!--! Font Awesome Pro 6.4.0 by @fontawesome - https://fontawesome.com License - https://fontawesome.com/license (Commercial License) Copyright 2023 Fonticons, Inc. --><path d="M128 64c0-8.8 7.2-16 16-16H335.4c4.2 0 8.3 1.7 11.3 4.7l32.6 32.6c3 3 4.7 7.1 4.7 11.3V160h48V96.6c0-17-6.7-33.3-18.7-45.3L380.7 18.7C368.7 6.7 352.4 0 335.4 0H144C108.7 0 80 28.7 80 64v96h48V64zM0 224v32c0 17.7 14.3 32 32 32V448c0 35.3 28.7 64 64 64H416c35.3 0 64-28.7 64-64V288c17.7 0 32-14.3 32-32V224c0-17.7-14.3-32-32-32H365.3c-8.5 0-16.6 3.4-22.6 9.4l-13.3 13.3c-6 6-14.1 9.4-22.6 9.4H205.3c-8.5 0-16.6-3.4-22.6-9.4l-13.3-13.3c-6-6-14.1-9.4-22.6-9.4H32c-17.7 0-32 14.3-32 32zm80 64H432V448c0 8.8-7.2 16-16 16H96c-8.8 0-16-7.2-16-16V288zm48 112v16c0 8.8 7.2 16 16 16H368c8.8 0 16-7.2 16-16V400c0-8.8-7.2-16-16-16H144c-8.8 0-16 7.2-16 16zm40-60a20 20 0 1 0 -40 0 20 20 0 1 0 40 0zm52 20a20 20 0 1 0 0-40 20 20 0 1 0 0 40zm92-20a20 20 0 1 0 -40 0 20 20 0 1 0 40 0zm52 20a20 20 0 1 0 0-40 20 20 0 1 0 0 40z"/></svg>