<svg xmlns="http://www.w3.org/2000/svg" viewBox="0 0 640 512"><!--! Font Awesome Pro 6.4.0 by @fontawesome - https://fontawesome.com License - https://fontawesome.com/license (Commercial License) Copyright 2023 Fonticons, Inc. --><path d="M188.4 48c-26.3 0-50.4 14.3-63.1 37.3L58.9 206C51.7 219 48 233.6 48 248.4V392c0 4.4 3.6 8 8 8H88c4.4 0 8-3.6 8-8V248.4c0-6.7 1.7-13.4 5-19.3l62-112.8c5.3-9.6 16.4-14.4 27-11.7s18 12.3 18 23.2V288H160V221.4l-16 29.1V392c0 30.9-25.1 56-56 56H56c-30.9 0-56-25.1-56-56V248.4c0-22.9 5.8-45.5 16.8-65.5L83.2 62.2C104.3 23.8 144.6 0 188.4 0h.1 .1 .1 .1 .1 .1 .1 .1 .1 .1 .1 .1 .1 .1 .1 .1 .1 .1 .1 .1 .1 .1 .1 .1 .1 .1 .1 .1 .1 .1 .1 .1 .1 .1 .1 .1 .1 .1 .1 .1 .1 .1 .1 .1 .1 .1 .1 .1 .1 .1 .1 .1 .1 .1 .1 .1 .1 .1 .1 .1 .1 .1 .1 .1 .1 .1 .1 .1 .1 .1 .1 .1 .1 .1 .1 .1 .1 .1 .1 .1 .1 .1 .1 .1 .1 .1 .1 .1 .1 .1 .1 .1 .1 .1 .1 .1 .1 .1 .1 .1 .1 .1 .1 .1 .1 .1 .1 .1 .1 .1 .1 .1 .1 .1 .1 .1 .1 .1 .1 .1 .1 .1 .1 .1 .1 .1 .1 .1 .1 .1 .1 .1 .1 .1 .1 .1 .1 .1 .1 .1 .1 .1 .1 .1 .1 .1 .1 .1 .1 .1 .1 .1 .1 .1 .1 .1 .1 .1 .1 .1 .1 .1 .1 .1 .1 .1 .1 .1 .1 .1 .1 .1 .1 .1 .1 .1 .1 .1 .1 .1 .1 .1 .1 .1 .1 .1 .1 .1 .1 .1 .1 .1 .1 .1 .1 .1 .1 .1 .1 .1 .1 .1 .1 .1 .1 .1 .1 .1 .1 .1 .1 .1 .1 .1 .1 .1 .1 .1 .1 .1 .1 .1 .1 .1 .1 .1 .1 .1 .1 .1 .1 .1 .1 .1 .1 .1 .1 .1 .1 .1 .1 .1 .1 .1 .1 .1 .1 .1 .1 .1 .1 .1 .1 .1 .1 .1 .1 .1 .1 .1 .1 .1 .1 .1 .1 .1 .1 .1 .1 .1 .1 .1 .1 .1 .1 .1 .1 .1 .1 .1 .1 .1 .1 .1 .1 .1 .1 .1 .1 .1 .1 .1 .1 .1 .1 .1 .1 .1 .1 .1 .1 .1 .1 .1 .1 .1 .1 .1 .1 .1 .1 .1 .1 .1 .1 .1 .1 .1 .1 .1 .1 .1 .1 .1 .1 .1 .1 .1 .1 .1 .1 .1 .1 .1 .1 .1 .1 .1 .1 .1 .1 .1 .1 .1 .1 .1 .1 .1 .1 .1 .1 .1 .1 .1 .1 .1 .1 .1 .1 .1 .1 .1 .1 .1 .1 .1 .1 .1 .1 .1 .1 .1 .1 .1 .1 .1 .1 .1 .1 .1 .1 .1 .1 .1 .1 .1 .1 .1 .1 .1 .1 .1 .1 .1 .1 .1 .1 .1 .1 .1 .1 .1 .1 .1 .1 .1 .1 .1 .1 .1 .1 .1 .1 .1 .1 .1 .1 .1 .1 .1 .1 .1 .1 .1 .1 .1 .1 .1 .1 .1 .1 .1 .1 .1 .1 .1 .1 .1 .1 .1 .1 .1 .1 .1 .1 .1 .1 .1 .1 .1 .1 .1 .1 .1 .1 .1 .1 .1 .1 .1 .1 .1 .1 .1 .1 .1 .1 .1 .1 .1 .1 .1 .1 .1 .1 .1 .1 .1 .1 .1 .1 .1 .1 .1 .1 .1 .1 .1 .1 .1 .1 .1 .1 .1 .1 .1 .1 .1 .1 .1 .1 .1 .1 .1 .1 .1 .1 .1 .1 .1 .1 .1c9 0 17.2 5 21.3 13L320 127.1 378.7 13C382.8 5 391 0 400 0h.1 .1 .1 .1 .1 .1 .1 .1 .1 .1 .1 .1 .1 .1 .1 .1 .1 .1 .1 .1 .1 .1 .1 .1 .1 .1 .1 .1 .1 .1 .1 .1 .1 .1 .1 .1 .1 .1 .1 .1 .1 .1 .1 .1 .1 .1 .1 .1 .1 .1 .1 .1 .1 .1 .1 .1 .1 .1 .1 .1 .1 .1 .1 .1 .1 .1 .1 .1 .1 .1 .1 .1 .1 .1 .1 .1 .1 .1 .1 .1 .1 .1 .1 .1 .1 .1 .1 .1 .1 .1 .1 .1 .1 .1 .1 .1 .1 .1 .1 .1 .1 .1 .1 .1 .1 .1 .1 .1 .1 .1 .1 .1 .1 .1 .1 .1 .1 .1 .1 .1 .1 .1 .1 .1 .1 .1 .1 .1 .1 .1 .1 .1 .1 .1 .1 .1 .1 .1 .1 .1 .1 .1 .1 .1 .1 .1 .1 .1 .1 .1 .1 .1 .1 .1 .1 .1 .1 .1 .1 .1 .1 .1 .1 .1 .1 .1 .1 .1 .1 .1 .1 .1 .1 .1 .1 .1 .1 .1 .1 .1 .1 .1 .1 .1 .1 .1 .1 .1 .1 .1 .1 .1 .1 .1 .1 .1 .1 .1 .1 .1 .1 .1 .1 .1 .1 .1 .1 .1 .1 .1 .1 .1 .1 .1 .1 .1 .1 .1 .1 .1 .1 .1 .1 .1 .1 .1 .1 .1 .1 .1 .1 .1 .1 .1 .1 .1 .1 .1 .1 .1 .1 .1 .1 .1 .1 .1 .1 .1 .1 .1 .1 .1 .1 .1 .1 .1 .1 .1 .1 .1 .1 .1 .1 .1 .1 .1 .1 .1 .1 .1 .1 .1 .1 .1 .1 .1 .1 .1 .1 .1 .1 .1 .1 .1 .1 .1 .1 .1 .1 .1 .1 .1 .1 .1 .1 .1 .1 .1 .1 .1 .1 .1 .1 .1 .1 .1 .1 .1 .1 .1 .1 .1 .1 .1 .1 .1 .1 .1 .1 .1 .1 .1 .1 .1 .1 .1 .1 .1 .1 .1 .1 .1 .1 .1 .1 .1 .1 .1 .1 .1 .1 .1 .1 .1 .1 .1 .1 .1 .1 .1 .1 .1 .1 .1 .1 .1 .1 .1 .1 .1 .1 .1 .1 .1 .1 .1 .1 .1 .1 .1 .1 .1 .1 .1 .1 .1 .1 .1 .1 .1 .1 .1 .1 .1 .1 .1 .1 .1 .1 .1 .1 .1 .1 .1 .1 .1 .1 .1 .1 .1 .1 .1 .1 .1 .1 .1 .1 .1 .1 .1 .1 .1 .1 .1 .1 .1 .1 .1 .1 .1 .1 .1 .1 .1 .1 .1 .1 .1 .1 .1 .1 .1 .1 .1 .1 .1 .1 .1 .1 .1 .1 .1 .1 .1 .1 .1 .1 .1 .1 .1 .1 .1 .1 .1 .1 .1 .1 .1 .1 .1 .1 .1 .1 .1 .1 .1 .1 .1 .1 .1 .1 .1 .1 .1 .1 .1 .1 .1 .1 .1 .1 .1 .1 .1 .1 .1 .1 .1 .1 .1 .1 .1 .1 .1 .1 .1 .1 .1 .1 .1 .1 .1 .1 .1 .1 .1 .1 .1 .1 .1 .1 .1c43.8 0 84.1 23.8 105.1 62.2l66.4 120.7c11 20.1 16.8 42.6 16.8 65.5V392c0 30.9-25.1 56-56 56H552c-30.9 0-56-25.1-56-56V250.5l-16-29.1V288H432V128c0-11 7.4-20.5 18-23.2s21.7 2.1 27 11.7l62 112.8-21 11.6 21-11.6c3.2 5.9 5 12.5 5 19.3V392c0 4.4 3.6 8 8 8h32c4.4 0 8-3.6 8-8V248.4c0-14.8-3.7-29.4-10.9-42.4L514.7 85.3C502.1 62.3 477.9 48 451.6 48h-.1-.1-.1-.1-.1-.1-.1H451 451h-.1-.1-.1-.1-.1-.1-.1-.1-.1-.1-.1-.1H450h-.1-.1-.1-.1-.1-.1-.1-.1-.1-.1-.1-.1H449h-.1-.1-.1-.1-.1-.1-.1-.1-.1-.1-.1H448h-.1-.1-.1-.1-.1-.1-.1-.1-.1-.1H447h-.1-.1-.1-.1-.1-.1-.1-.1-.1-.1H446h-.1-.1-.1-.1-.1-.1-.1-.1-.1-.1H445h-.1-.1-.1-.1-.1-.1-.1-.1-.1H444 444h-.1-.1-.1-.1-.1-.1-.1-.1-.1H443h-.1-.1-.1-.1-.1-.1-.1-.1-.1H442h-.1-.1-.1-.1-.1-.1-.1-.1H441h-.1-.1-.1-.1-.1-.1-.1-.1-.1H440h-.1-.1-.1-.1-.1-.1-.1-.1-.1-.1-.1-.1-.1-.1-.1-.1-.1-.1H438h-.1-.1-.1-.1-.1-.1-.1-.1H437h-.1-.1-.1-.1-.1-.1-.1-.1H436h-.1-.1-.1-.1-.1-.1-.1-.1H435h-.1-.1-.1-.1-.1-.1-.1-.1H434h-.1-.1-.1-.1-.1-.1-.1-.1H433h-.1-.1-.1-.1-.1-.1-.1-.1-.1-.1-.1-.1-.1-.1-.1-.1H431h-.1-.1-.1-.1-.1-.1-.1-.1H430h-.1-.1-.1-.1-.1-.1-.1-.1H429h-.1-.1-.1-.1-.1-.1-.1H428h-.1-.1-.1-.1-.1-.1-.1-.1H427h-.1-.1-.1-.1-.1-.1-.1H426h-.1-.1-.1-.1-.1-.1-.1-.1H425h-.1-.1-.1-.1-.1-.1-.1-.1-.1-.1-.1-.1-.1-.1-.1-.1H423h-.1-.1-.1-.1-.1-.1-.1-.1H422h-.1-.1-.1-.1-.1-.1-.1-.1-.1-.1-.1-.1-.1-.1-.1-.1H420h-.1-.1-.1-.1-.1-.1-.1-.1H419h-.1-.1-.1-.1-.1-.1-.1-.1H418h-.1-.1-.1-.1-.1-.1-.1-.1H417h-.1-.1-.1-.1-.1-.1-.1-.1-.1-.1-.1-.1-.1-.1-.1-.1-.1H415h-.1-.1-.1L341.3 190.5 291.2 288h-54L293 179.6 225.4 48h-.1-.1H225h-.1-.1-.1-.1-.1-.1-.1-.1-.1-.1-.1-.1-.1-.1-.1-.1-.1H223h-.1-.1-.1-.1-.1-.1-.1-.1H222h-.1-.1-.1-.1-.1-.1-.1-.1H221h-.1-.1-.1-.1-.1-.1-.1-.1H220h-.1-.1-.1-.1-.1-.1-.1-.1-.1-.1-.1-.1-.1-.1-.1-.1H218h-.1-.1-.1-.1-.1-.1-.1-.1H217h-.1-.1-.1-.1-.1-.1-.1-.1-.1-.1-.1-.1-.1-.1-.1-.1H215h-.1-.1-.1-.1-.1-.1-.1-.1H214h-.1-.1-.1-.1-.1-.1-.1H213h-.1-.1-.1-.1-.1-.1-.1-.1H212h-.1-.1-.1-.1-.1-.1-.1-.1-.1-.1-.1-.1-.1-.1-.1-.1H210h-.1-.1-.1-.1-.1-.1-.1-.1H209h-.1-.1-.1-.1-.1-.1-.1-.1-.1-.1-.1-.1-.1-.1-.1-.1H207h-.1-.1-.1-.1-.1-.1-.1-.1H206h-.1-.1-.1-.1-.1-.1-.1-.1H205h-.1-.1-.1-.1-.1-.1-.1-.1H204h-.1-.1-.1-.1-.1-.1-.1-.1H203h-.1-.1-.1-.1-.1-.1-.1-.1H202h-.1-.1-.1-.1-.1-.1-.1-.1-.1-.1-.1-.1-.1-.1-.1-.1-.1-.1H200h-.1-.1-.1-.1-.1-.1-.1-.1-.1H199h-.1-.1-.1-.1-.1-.1-.1-.1H198h-.1-.1-.1-.1-.1-.1-.1-.1-.1H197h-.1-.1-.1-.1-.1-.1-.1-.1-.1H196 196h-.1-.1-.1-.1-.1-.1-.1-.1-.1H195h-.1-.1-.1-.1-.1-.1-.1-.1-.1-.1H194h-.1-.1-.1-.1-.1-.1-.1-.1-.1-.1H193h-.1-.1-.1-.1-.1-.1-.1-.1-.1-.1H192h-.1-.1-.1-.1-.1-.1-.1-.1-.1-.1-.1H191h-.1-.1-.1-.1-.1-.1-.1-.1-.1-.1-.1-.1H190h-.1-.1-.1-.1-.1-.1-.1-.1-.1-.1-.1-.1H189h-.1-.1-.1-.1-.1-.1-.1-.1-.1zM160 384h48v64c0 8.8 7.2 16 16 16H416c8.8 0 16-7.2 16-16V384h48v64c0 35.3-28.7 64-64 64H224c-35.3 0-64-28.7-64-64V384zm16-64H320 464h16v32H464 349.9l47.4 71.1c4.9 7.4 2.9 17.3-4.4 22.2s-17.3 2.9-22.2-4.4l-50.7-76-50.7 76c-4.9 7.4-14.8 9.3-22.2 4.4s-9.3-14.8-4.4-22.2L290.1 352H176 160V320h16z"/></svg>