<svg xmlns="http://www.w3.org/2000/svg" viewBox="0 0 448 512"><!--! Font Awesome Pro 6.4.0 by @fontawesome - https://fontawesome.com License - https://fontawesome.com/license (Commercial License) Copyright 2023 Fonticons, Inc. --><path d="M224 48c-44.2 0-80 35.8-80 80v64H384c35.3 0 64 28.7 64 64V448c0 35.3-28.7 64-64 64H64c-35.3 0-64-28.7-64-64V256c0-35.3 28.7-64 64-64H96V128C96 57.3 153.3 0 224 0c57 0 105.2 37.2 121.8 88.6c4.1 12.6-2.8 26.1-15.5 30.2s-26.1-2.8-30.2-15.5C289.8 71.2 259.6 48 224 48zM64 240c-8.8 0-16 7.2-16 16V448c0 8.8 7.2 16 16 16H384c8.8 0 16-7.2 16-16V256c0-8.8-7.2-16-16-16H64zM256 376H192c-13.3 0-24-10.7-24-24s10.7-24 24-24h64c13.3 0 24 10.7 24 24s-10.7 24-24 24z"/></svg>