<svg xmlns="http://www.w3.org/2000/svg" viewBox="0 0 448 512"><!--! Font Awesome Pro 6.4.0 by @fontawesome - https://fontawesome.com License - https://fontawesome.com/license (Commercial License) Copyright 2023 Fonticons, Inc. --><path d="M114.2 160L224 50 333.8 160H280c-13.3 0-24 10.7-24 24l0 120-64 0V184c0-13.3-10.7-24-24-24l-53.8 0zM224 0c-11.5 0-22.5 4.6-30.6 12.7L77.6 128.8C68.9 137.5 64 149.3 64 161.6c0 25.6 20.8 46.4 46.4 46.4l33.6 0v96c0 26.5 21.5 48 48 48l64 0c26.5 0 48-21.5 48-48l0-96h33.6c25.6 0 46.4-20.8 46.4-46.4c0-12.3-4.9-24.1-13.6-32.8L254.6 12.7C246.5 4.6 235.5 0 224 0zM48 344c0-13.3-10.7-24-24-24s-24 10.7-24 24l0 80c0 48.6 39.4 88 88 88l272 0c48.6 0 88-39.4 88-88V344c0-13.3-10.7-24-24-24s-24 10.7-24 24v80c0 22.1-17.9 40-40 40L88 464c-22.1 0-40-17.9-40-40l0-80z"/></svg>