<svg xmlns="http://www.w3.org/2000/svg" viewBox="0 0 320 512"><!--! Font Awesome Pro 6.4.0 by @fontawesome - https://fontawesome.com License - https://fontawesome.com/license (Commercial License) Copyright 2023 Fonticons, Inc. --><path d="M143.6 6.5c9.2-8.7 23.7-8.7 32.9 0l129 121.4c9.3 8.8 14.6 21 14.6 33.7c0 25.6-20.7 46.3-46.3 46.3H240V456c0 30.9-25.1 56-56 56H136c-30.9 0-56-25.1-56-56V208H46.3C20.7 208 0 187.3 0 161.7c0-12.8 5.3-25 14.6-33.7L143.6 6.5zM50.5 160H104c13.3 0 24 10.7 24 24V456c0 4.4 3.6 8 8 8h48c4.4 0 8-3.6 8-8V184c0-13.3 10.7-24 24-24h53.5L160 57 50.5 160z"/></svg>