<svg xmlns="http://www.w3.org/2000/svg" viewBox="0 0 640 512"><!--! Font Awesome Pro 6.4.0 by @fontawesome - https://fontawesome.com License - https://fontawesome.com/license (Commercial License) Copyright 2023 Fonticons, Inc. --><path d="M144 144c0 44.2 35.8 80 80 80s80-35.8 80-80V128H144v16zm-.1-124.9l.1 .1c10.2 7.5 23.8 8.3 34.9 2L209.1 4c4.6-2.6 9.7-4 14.9-4s10.4 1.4 14.9 4l30.2 17.2c11 6.3 24.7 5.5 34.9-2l.1-.1c.3-.2 .6-.4 .8-.6l3-2.4L323.6 3.5c2.8-2.3 6.4-3.5 10-3.5H336c8.8 0 16 7.2 16 16V39v3.2 .1V144c0 70.7-57.3 128-128 128s-128-57.3-128-128V42.3v-.1V39 16c0-8.8 7.2-16 16-16h2.4c3.6 0 7.2 1.2 10 3.5L140 16l3 2.4c.3 .2 .6 .4 .8 .6zM48.3 464H399.7c-4.1-62.5-56.2-112-119.7-112H168c-63.6 0-115.6 49.5-119.7 112zM0 472c0-92.8 75.2-168 168-168H280c92.8 0 168 75.2 168 168v8c0 17.7-14.3 32-32 32H32c-17.7 0-32-14.3-32-32v-8zM432 256c-27.7 0-53-10.1-72.6-26.7c.5-.8 1-1.5 1.4-2.3c12.1-19.9 20-42.6 22.4-67c.5-5.3 .8-10.6 .8-16V42.8C398.5 35.9 414.8 32 432 32c61.9 0 112 50.1 112 112s-50.1 112-112 112zM609.3 512H471.4c5.4-9.4 8.6-20.3 8.6-32v-8c0-60.7-27.1-115.2-69.8-151.8c2.4-.1 4.7-.2 7.1-.2h61.4C567.8 320 640 392.2 640 481.3c0 17-13.8 30.7-30.7 30.7z"/></svg>