<svg xmlns="http://www.w3.org/2000/svg" viewBox="0 0 640 512"><!--! Font Awesome Pro 6.4.0 by @fontawesome - https://fontawesome.com License - https://fontawesome.com/license (Commercial License) Copyright 2023 Fonticons, Inc. --><path d="M144 0a80 80 0 1 1 0 160A80 80 0 1 1 144 0zM512 0a80 80 0 1 1 0 160A80 80 0 1 1 512 0zM0 298.7C0 239.8 47.8 192 106.7 192h42.7c15.9 0 31 3.5 44.6 9.7c-1.3 7.2-1.9 14.7-1.9 22.3c0 38.2 16.8 72.5 43.3 96c-.2 0-.4 0-.7 0H21.3C9.6 320 0 310.4 0 298.7zM405.3 320c-.2 0-.4 0-.7 0c26.6-23.5 43.3-57.8 43.3-96c0-7.6-.7-15-1.9-22.3c13.6-6.3 28.7-9.7 44.6-9.7h42.7C592.2 192 640 239.8 640 298.7c0 11.8-9.6 21.3-21.3 21.3H605.3c-6.6-18.6-24.4-32-45.3-32H528c-20.9 0-38.7 13.4-45.3 32H405.3zm-26.7 32c19.3 0 37.6 4.1 54.2 11.5C422.5 372.3 416 385.4 416 400v8.6c-11.3-5.5-23.9-8.6-37.3-8.6H261.3c-39.8 0-73.2 27.2-82.6 64H428.2c8.8 9.8 21.6 16 35.8 16h16v16c0 5.6 1 11 2.7 16H154.7c-14.7 0-26.7-11.9-26.7-26.7C128 411.7 187.7 352 261.3 352H378.7zM320 272a48 48 0 1 0 0-96 48 48 0 1 0 0 96zm0-144a96 96 0 1 1 0 192 96 96 0 1 1 0-192zM512 336c0-8.8 7.2-16 16-16h32c8.8 0 16 7.2 16 16v48h48c8.8 0 16 7.2 16 16v32c0 8.8-7.2 16-16 16H576v48c0 8.8-7.2 16-16 16H528c-8.8 0-16-7.2-16-16V448H464c-8.8 0-16-7.2-16-16V400c0-8.8 7.2-16 16-16h48V336z"/></svg>