<svg xmlns="http://www.w3.org/2000/svg" viewBox="0 0 640 512"><!--! Font Awesome Pro 6.4.0 by @fontawesome - https://fontawesome.com License - https://fontawesome.com/license (Commercial License) Copyright 2023 Fonticons, Inc. --><path d="M224 208a80 80 0 1 0 0-160 80 80 0 1 0 0 160zM224 0a128 128 0 1 1 0 256A128 128 0 1 1 224 0zM49.3 464H348.5c12.3 18.8 28 35.1 46.3 48H29.7C13.3 512 0 498.7 0 482.3C0 383.8 79.8 304 178.3 304H224h45.7c20.6 0 40.4 3.5 58.8 9.9c-4.9 15.3-7.8 31.4-8.4 48.2c-15.5-6.5-32.5-10.1-50.4-10.1H178.3c-65.7 0-120.1 48.7-129 112zM352 368a144 144 0 1 1 288 0 144 144 0 1 1 -288 0zm144-80c-8.8 0-16 7.2-16 16v64c0 8.8 7.2 16 16 16h48c8.8 0 16-7.2 16-16s-7.2-16-16-16H512V304c0-8.8-7.2-16-16-16z"/></svg>