<svg xmlns="http://www.w3.org/2000/svg" viewBox="0 0 640 512"><!--! Font Awesome Pro 6.4.0 by @fontawesome - https://fontawesome.com License - https://fontawesome.com/license (Commercial License) Copyright 2023 Fonticons, Inc. --><path d="M224 208a80 80 0 1 0 0-160 80 80 0 1 0 0 160zM224 0a128 128 0 1 1 0 256A128 128 0 1 1 224 0zM49.3 464H384v16c0 11.7 3.1 22.6 8.6 32H29.7C13.3 512 0 498.7 0 482.3C0 383.8 79.8 304 178.3 304H224h45.7c43.6 0 83.6 15.7 114.6 41.7c-.2 2.1-.3 4.2-.3 6.3v67.7C361.9 379.3 319 352 269.7 352H178.3c-65.7 0-120.1 48.7-129 112zM496 272v48h16 48 48c17.7 0 32 14.3 32 32V480c0 17.7-14.3 32-32 32H448c-17.7 0-32-14.3-32-32V352c0-17.7 14.3-32 32-32V272c0-44.2 35.8-80 80-80s80 35.8 80 80H560c0-17.7-14.3-32-32-32s-32 14.3-32 32z"/></svg>