<svg xmlns="http://www.w3.org/2000/svg" viewBox="0 0 640 512"><!--! Font Awesome Pro 6.4.0 by @fontawesome - https://fontawesome.com License - https://fontawesome.com/license (Commercial License) Copyright 2023 Fonticons, Inc. --><path d="M144 128a80 80 0 1 0 160 0 80 80 0 1 0 -160 0zm80 128A128 128 0 1 1 224 0a128 128 0 1 1 0 256zm-48 96c-5.4 0-10.8 .3-16 1v49.3c23.1 6.9 40 28.3 40 53.7c0 30.9-25.1 56-56 56s-56-25.1-56-56c0-25.4 16.9-46.8 40-53.7v-41c-46.9 19-80 65-80 118.7v8c0 13.3-10.7 24-24 24s-24-10.7-24-24v-8c0-97.2 78.8-176 176-176h96c97.2 0 176 78.8 176 176v8c0 13.3-10.7 24-24 24s-24-10.7-24-24v-8c0-53.7-33.1-99.7-80-118.7V402c27.6 7.1 48 32.2 48 62v32c0 8.8-7.2 16-16 16H328c-8.8 0-16-7.2-16-16s7.2-16 16-16h8V464c0-17.7-14.3-32-32-32s-32 14.3-32 32v16h8c8.8 0 16 7.2 16 16s-7.2 16-16 16H256c-8.8 0-16-7.2-16-16V464c0-29.8 20.4-54.9 48-62V353c-5.2-.7-10.6-1-16-1H176zm-8 104a24 24 0 1 0 -48 0 24 24 0 1 0 48 0zM432 0H592c26.5 0 48 21.5 48 48V176c0 26.5-21.5 48-48 48H544l-83.2 62.4c-2.4 1.8-5.7 2.1-8.4 .8s-4.4-4.1-4.4-7.2V224H432c-26.5 0-48-21.5-48-48V48c0-26.5 21.5-48 48-48z"/></svg>