<svg xmlns="http://www.w3.org/2000/svg" viewBox="0 0 640 512"><!--! Font Awesome Pro 6.4.0 by @fontawesome - https://fontawesome.com License - https://fontawesome.com/license (Commercial License) Copyright 2023 Fonticons, Inc. --><path d="M144 128a80 80 0 1 1 160 0 80 80 0 1 1 -160 0zm208 0A128 128 0 1 0 96 128a128 128 0 1 0 256 0zM269.7 352c65.7 0 120.1 48.7 129 112H49.3c8.9-63.3 63.3-112 129-112h91.4zm-91.4-48C79.8 304 0 383.8 0 482.3C0 498.7 13.3 512 29.7 512H418.3c16.4 0 29.7-13.3 29.7-29.7C448 383.8 368.2 304 269.7 304H224 178.3zM625 177c9.4-9.4 9.4-24.6 0-33.9s-24.6-9.4-33.9 0l-111 111-47-47c-9.4-9.4-24.6-9.4-33.9 0s-9.4 24.6 0 33.9l64 64c9.4 9.4 24.6 9.4 33.9 0L625 177z"/></svg>