<svg xmlns="http://www.w3.org/2000/svg" viewBox="0 0 640 512"><!--! Font Awesome Pro 6.4.0 by @fontawesome - https://fontawesome.com License - https://fontawesome.com/license (Commercial License) Copyright 2023 Fonticons, Inc. --><path d="M5.1 9.2C13.3-1.2 28.4-3.1 38.8 5.1l76.5 59.9 4.9-43.7C121.6 8.2 133.5-1.3 146.7 .1s22.7 13.3 21.2 26.5l-8.1 73.2L200 131.5V24c0-13.3 10.7-24 24-24s24 10.7 24 24V168c0 .4 0 .7 0 1.1L291.2 203c3-5.6 4.8-12.1 4.8-19V169.3L280.1 26.7c-1.5-13.2 8-25 21.2-26.5s25 8 26.5 21.2l16 144 .1 1.3V168v16c0 18-5.4 34.8-14.7 48.8L384 275.7V176C384 32 496 0 512 0c17.7 0 32 14.3 32 32V248v56 48 49.1l86.8 68c10.4 8.2 12.3 23.3 4.1 33.7s-23.3 12.3-33.7 4.1L9.2 42.9C-1.2 34.7-3.1 19.6 5.1 9.2zM104 184v-6.1L248 291.4V488c0 13.3-10.7 24-24 24s-24-10.7-24-24V272h-8c-48.6 0-88-39.4-88-88zM519.7 512h.6l-.3 0-.3 0zM432 176V288c0 8.8 7.2 16 16 16h48V248 55.1c-7.1 3.6-14.9 8.5-22.6 15.2C453.7 87.4 432 118.3 432 176z"/></svg>