<svg xmlns="http://www.w3.org/2000/svg" viewBox="0 0 448 512"><!--! Font Awesome Pro 6.4.0 by @fontawesome - https://fontawesome.com License - https://fontawesome.com/license (Commercial License) Copyright 2023 Fonticons, Inc. --><path d="M360 72h48v48H360V72zm-8-40c-17.7 0-32 14.3-32 32v8H128V64c0-17.7-14.3-32-32-32H32C14.3 32 0 46.3 0 64v64c0 17.7 14.3 32 32 32h8l0 192H32c-17.7 0-32 14.3-32 32v64c0 17.7 14.3 32 32 32H96c17.7 0 32-14.3 32-32v-8H320v8c0 17.7 14.3 32 32 32h64c17.7 0 32-14.3 32-32V384c0-17.7-14.3-32-32-32H373.6l-27.4-45.6c3.7-5.2 5.8-11.5 5.8-18.4V224c0-6.8-2.1-13.2-5.8-18.4L373.6 160H416c17.7 0 32-14.3 32-32V64c0-17.7-14.3-32-32-32H352zM298.4 320l27.4 45.6c-3.7 5.2-5.8 11.5-5.8 18.4v8H128v-8c0-17.7-14.3-32-32-32H88l0-192h8c17.7 0 32-14.3 32-32v-8H320v8c0 6.8 2.1 13.2 5.8 18.4L298.4 192H256c-17.7 0-32 14.3-32 32v64c0 17.7 14.3 32 32 32h42.4zM40 440V392H88v48H40zm320 0V392h48v48H360zM40 120V72H88v48H40zM264 232h48v48H264V232z"/></svg>