<svg xmlns="http://www.w3.org/2000/svg" viewBox="0 0 448 512"><!--! Font Awesome Pro 6.4.0 by @fontawesome - https://fontawesome.com License - https://fontawesome.com/license (Commercial License) Copyright 2023 Fonticons, Inc. --><path d="M104 0h8.3 5c19.4 0 35.2 10 45.5 19.2C172.3 27.6 191.4 40 224 40s51.7-12.4 61.2-20.8C295.5 10 311.3 0 330.7 0h5H344c1.9 0 3.8 .1 5.7 .3C378 3.2 400 27 400 56v72 58.7c0 4.4 1.2 8.6 3.4 12.3l34.3 57.2c6.7 11.2 10.3 24 10.3 37V456c0 30.9-25.1 56-56 56H264c-30.9 0-56-25.1-56-56V295.1c0-7.1 1-14.1 3.1-20.9L269.5 81.5c-13 4-28.1 6.5-45.5 6.5s-32.5-2.6-45.5-6.5l28.8 95-25.1 82.8L119.9 53.7c-1-3.4-4.1-5.7-7.7-5.7H104c-4.4 0-8 3.6-8 8v72 58.7c0 13-3.5 25.9-10.3 37L51.4 280.9c-2.2 3.7-3.4 8-3.4 12.3V398.1l55-55c9.4-9.4 24.6-9.4 33.9 0s9.4 24.6 0 33.9L51.4 462.5c1.3 .9 2.9 1.5 4.6 1.5H176.4c1.6 17.6 8.4 33.8 18.8 46.9c-3.6 .7-7.4 1.1-11.2 1.1H56c-30.9 0-56-25.1-56-56V293.3c0-13 3.5-25.9 10.3-37l34.3-57.2c2.2-3.7 3.4-8 3.4-12.3V128 56C48 25.1 73.1 0 104 0zM352 56c0-4.4-3.6-8-8-8h0-8.3c-3.5 0-6.6 2.3-7.7 5.7L257 288.2c-.7 2.3-1 4.6-1 7V456c0 4.4 3.6 8 8 8H392c1.7 0 3.3-.5 4.6-1.5L311 377c-9.4-9.4-9.4-24.6 0-33.9s24.6-9.4 33.9 0l55 55V293.3c0-4.4-1.2-8.6-3.4-12.3l-34.3-57.2c-6.7-11.2-10.3-24-10.3-37V128 56z"/></svg>