<svg xmlns="http://www.w3.org/2000/svg" viewBox="0 0 448 512"><!--! Font Awesome Pro 6.4.0 by @fontawesome - https://fontawesome.com License - https://fontawesome.com/license (Commercial License) Copyright 2023 Fonticons, Inc. --><path d="M178.5 81.5l28.8 95-25.1 82.8-64-211.2c-.3 0-.6-.1-.9-.1H104c-4.4 0-8 3.6-8 8v72 58.7c0 13-3.5 25.9-10.3 37L51.4 280.9c-2.2 3.7-3.4 8-3.4 12.3V456c0 4.4 3.6 8 8 8H176.4c1.6 17.6 8.4 33.8 18.8 46.9c-3.6 .7-7.4 1.1-11.2 1.1H56c-30.9 0-56-25.1-56-56V293.3c0-13 3.5-25.9 10.3-37l34.3-57.2c2.2-3.7 3.4-8 3.4-12.3V128 56C48 25.1 73.1 0 104 0h13.3 6.8c10.1 0 19.5 3.8 26.7 10.2c4.6 2.8 8.6 6 12 9C172.3 27.6 191.4 40 224 40s51.7-12.4 61.2-20.8c3.4-3.1 7.5-6.2 12-9C304.4 3.8 313.8 0 323.9 0h6.8H344c30.9 0 56 25.1 56 56v72 58.7c0 4.4 1.2 8.6 3.4 12.3l34.3 57.2c6.7 11.2 10.3 24 10.3 37V456c0 30.9-25.1 56-56 56H264c-30.9 0-56-25.1-56-56V295.1c0-7.1 1-14.1 3.1-20.9L269.5 81.5c-13 4-28.1 6.5-45.5 6.5s-32.5-2.6-45.5-6.5zM329.8 48.1L257 288.2c-.7 2.3-1 4.6-1 7V456c0 4.4 3.6 8 8 8H392c4.4 0 8-3.6 8-8V293.3c0-4.4-1.2-8.6-3.4-12.3l-34.3-57.2c-6.7-11.2-10.3-24-10.3-37V128 56c0-3.9-2.7-7.1-6.4-7.8c-.5-.1-1.1-.2-1.6-.2H330.7c-.3 0-.6 0-.9 .1zM288 288v-8c0-13.3 10.7-24 24-24s24 10.7 24 24v8h8c13.3 0 24 10.7 24 24s-10.7 24-24 24h-8H304c-8.8 0-16-7.2-16-16V288zM84.7 260.7c6.2-6.2 16.4-6.2 22.6 0L120 273.4l12.7-12.7c6.2-6.2 16.4-6.2 22.6 0s6.2 16.4 0 22.6L142.6 296l12.7 12.7c6.2 6.2 6.2 16.4 0 22.6s-16.4 6.2-22.6 0L120 318.6l-12.7 12.7c-6.2 6.2-16.4 6.2-22.6 0s-6.2-16.4 0-22.6L97.4 296 84.7 283.3c-6.2-6.2-6.2-16.4 0-22.6zM112 360a40 40 0 1 1 0 80 40 40 0 1 1 0-80z"/></svg>