<svg xmlns="http://www.w3.org/2000/svg" viewBox="0 0 640 512"><!--! Font Awesome Pro 6.4.0 by @fontawesome - https://fontawesome.com License - https://fontawesome.com/license (Commercial License) Copyright 2023 Fonticons, Inc. --><path d="M5.1 9.2C13.3-1.2 28.4-3.1 38.8 5.1L113.9 64H352c35.3 0 64 28.7 64 64v33V288v12.8L560 413.6V363.4 352 288 148.6L448 199V146.4L552.3 99.5c5.1-2.3 10.6-3.5 16.2-3.5c21.8 0 39.5 17.7 39.5 39.5V352v24.5 74.8l22.8 17.9c10.4 8.2 12.3 23.3 4.1 33.7s-23.3 12.3-33.7 4.1L9.2 42.9C-1.2 34.7-3.1 19.6 5.1 9.2zM368 263.1V128c0-8.8-7.2-16-16-16H175.2L368 263.1zM32 128c0-2.2 .1-4.4 .3-6.5L80 159V384c0 8.8 7.2 16 16 16H352c8.2 0 15-6.2 15.9-14.1L407 416.7c-11.2 18.7-31.6 31.3-55 31.3H96c-35.3 0-64-28.7-64-64V128z"/></svg>