<svg xmlns="http://www.w3.org/2000/svg" viewBox="0 0 384 512"><!--! Font Awesome Pro 6.4.0 by @fontawesome - https://fontawesome.com License - https://fontawesome.com/license (Commercial License) Copyright 2023 Fonticons, Inc. --><path d="M112.3 0C85.6 0 64 21.6 64 48.3V65.6C27.5 73 0 105.3 0 144V368c0 38.7 27.5 71 64 78.4V464c0 26.5 21.5 48 48 48H272c26.5 0 48-21.5 48-48V446.4c36.5-7.4 64-39.7 64-78.4V144c0-38.7-27.5-71-64-78.4V48.3C320 21.6 298.4 0 271.7 0H112.3zM304 112c17.7 0 32 14.3 32 32V368c0 17.7-14.3 32-32 32H80c-17.7 0-32-14.3-32-32V144c0-17.7 14.3-32 32-32H304zM192 288a32 32 0 1 0 0-64 32 32 0 1 0 0 64zm64 40a24 24 0 1 0 -48 0 24 24 0 1 0 48 0zM152 352a24 24 0 1 0 0-48 24 24 0 1 0 0 48zM256 184a24 24 0 1 0 -48 0 24 24 0 1 0 48 0zM152 208a24 24 0 1 0 0-48 24 24 0 1 0 0 48zm-8 48a24 24 0 1 0 -48 0 24 24 0 1 0 48 0zm120 24a24 24 0 1 0 0-48 24 24 0 1 0 0 48z"/></svg>