<svg xmlns="http://www.w3.org/2000/svg" viewBox="0 0 384 512"><!--! Font Awesome Pro 6.4.0 by @fontawesome - https://fontawesome.com License - https://fontawesome.com/license (Commercial License) Copyright 2023 Fonticons, Inc. --><path d="M64 48.3C64 21.6 85.6 0 112.3 0H271.7C298.4 0 320 21.6 320 48.3V65.6c36.5 7.4 64 39.7 64 78.4V368c0 38.7-27.5 71-64 78.4V464c0 26.5-21.5 48-48 48H112c-26.5 0-48-21.5-48-48V446.4C27.5 439 0 406.7 0 368V144c0-38.7 27.5-71 64-78.4V48.3zM80 112c-17.7 0-32 14.3-32 32V368c0 17.7 14.3 32 32 32H304c17.7 0 32-14.3 32-32V144c0-17.7-14.3-32-32-32H80zm136 72v60.8l39.4 32.8c10.2 8.5 11.6 23.6 3.1 33.8s-23.6 11.6-33.8 3.1l-48-40c-5.5-4.6-8.6-11.3-8.6-18.4V184c0-13.3 10.7-24 24-24s24 10.7 24 24z"/></svg>