<svg xmlns="http://www.w3.org/2000/svg" viewBox="0 0 384 512"><!--! Font Awesome Pro 6.4.0 by @fontawesome - https://fontawesome.com License - https://fontawesome.com/license (Commercial License) Copyright 2023 Fonticons, Inc. --><path d="M112.3 0C85.6 0 64 21.6 64 48.3V65.6C27.5 73 0 105.3 0 144V368c0 38.7 27.5 71 64 78.4V464c0 26.5 21.5 48 48 48H272c26.5 0 48-21.5 48-48V446.4c36.5-7.4 64-39.7 64-78.4V144c0-38.7-27.5-71-64-78.4V48.3C320 21.6 298.4 0 271.7 0H112.3zM304 112c17.7 0 32 14.3 32 32V368c0 17.7-14.3 32-32 32H80c-17.7 0-32-14.3-32-32V144c0-17.7 14.3-32 32-32H304zM93.7 226.8c0 14.4 5.8 28.3 16.2 38.4l70.9 69c6.2 6 16.1 6 22.3 0l70.9-69c10.4-10.1 16.2-23.9 16.2-38.4c0-29.5-23.9-53.5-53.5-53.5h-1.5c-14.3 0-28.1 5.6-38.4 15.6l-4.9 4.8-4.9-4.8c-10.3-10-24-15.6-38.4-15.6h-1.5c-29.5 0-53.5 23.9-53.5 53.5z"/></svg>