<svg xmlns="http://www.w3.org/2000/svg" viewBox="0 0 640 512"><!--! Font Awesome Pro 6.4.0 by @fontawesome - https://fontawesome.com License - https://fontawesome.com/license (Commercial License) Copyright 2023 Fonticons, Inc. --><path d="M320 0c13.3 0 24 10.7 24 24V488c0 13.3-10.7 24-24 24s-24-10.7-24-24V24c0-13.3 10.7-24 24-24zM520 64c13.3 0 24 10.7 24 24V424c0 13.3-10.7 24-24 24s-24-10.7-24-24V88c0-13.3 10.7-24 24-24zM216 96c13.3 0 24 10.7 24 24V392c0 13.3-10.7 24-24 24s-24-10.7-24-24V120c0-13.3 10.7-24 24-24zm208 32c13.3 0 24 10.7 24 24V360c0 13.3-10.7 24-24 24s-24-10.7-24-24V152c0-13.3 10.7-24 24-24zM120 192c13.3 0 24 10.7 24 24v80c0 13.3-10.7 24-24 24s-24-10.7-24-24V216c0-13.3 10.7-24 24-24zM24 224c13.3 0 24 10.7 24 24v16c0 13.3-10.7 24-24 24s-24-10.7-24-24V248c0-13.3 10.7-24 24-24zm592 0c13.3 0 24 10.7 24 24v16c0 13.3-10.7 24-24 24s-24-10.7-24-24V248c0-13.3 10.7-24 24-24z"/></svg>