<svg xmlns="http://www.w3.org/2000/svg" viewBox="0 0 512 512"><!--! Font Awesome Pro 6.4.0 by @fontawesome - https://fontawesome.com License - https://fontawesome.com/license (Commercial License) Copyright 2023 Fonticons, Inc. --><path d="M128 176a128 128 0 1 1 256 0 128 128 0 1 1 -256 0zm304 0c0-22.6-4.3-44.2-12-64h28c8.8 0 16 7.2 16 16V448c0 8.8-7.2 16-16 16H64c-8.8 0-16-7.2-16-16V128c0-8.8 7.2-16 16-16H92c-7.7 19.8-12 41.4-12 64c0 97.2 78.8 176 176 176s176-78.8 176-176zM391.8 64C359.5 24.9 310.7 0 256 0S152.5 24.9 120.2 64H64C28.7 64 0 92.7 0 128V448c0 35.3 28.7 64 64 64H448c35.3 0 64-28.7 64-64V128c0-35.3-28.7-64-64-64H391.8zM296 224c0-10.6-4.1-20.2-10.9-27.4l33.6-78.3c3.5-8.1-.3-17.5-8.4-21s-17.5 .3-21 8.4L255.7 184c-22 .1-39.7 18-39.7 40c0 22.1 17.9 40 40 40s40-17.9 40-40z"/></svg>