<svg xmlns="http://www.w3.org/2000/svg" viewBox="0 0 640 512"><!--! Font Awesome Pro 6.4.0 by @fontawesome - https://fontawesome.com License - https://fontawesome.com/license (Commercial License) Copyright 2023 Fonticons, Inc. --><path d="M119 95.2C107.8 76.5 87.4 64 64 64C28.7 64 0 92.7 0 128c0 28.4 18.5 52.5 44.1 60.8C36.3 209.7 32 232.4 32 256c0 106 86 192 192 192c64.7 0 121.9-32 156.7-81L529 444.4c4.6 2.4 9.6 3.6 14.8 3.6h2c9 0 17.6-3.8 23.7-10.5l63.4-69.7c4.6-5 7.1-11.6 7.1-18.4c0-8.5-3.9-16.5-10.6-21.6L353.5 114.3C319.4 83.1 273.9 64 224 64c-38.8 0-74.8 11.5-105 31.2zM68.5 143.4c-1.4 .4-2.9 .6-4.5 .6c-8.8 0-16-7.2-16-16s7.2-16 16-16s16 7.2 16 16c0 .3 0 .7 0 1c-4 4.6-7.9 9.4-11.5 14.3zM402.9 324.4c-21.3-11.1-47.5-4.8-61.4 14.8C315.4 376.1 272.5 400 224 400c-79.5 0-144-64.5-144-144s64.5-144 144-144c37.5 0 71.5 14.2 97.1 37.7c1 .9 2 1.7 3 2.5L391 204l-10.2 13.6c-8 10.6-5.8 25.6 4.8 33.6s25.6 5.8 33.6-4.8l9.8-13L582.3 352.1l-40.7 44.7L402.9 324.4zM224 304a48 48 0 1 0 0-96 48 48 0 1 0 0 96z"/></svg>