<svg xmlns="http://www.w3.org/2000/svg" viewBox="0 0 640 512"><!--! Font Awesome Pro 6.4.0 by @fontawesome - https://fontawesome.com License - https://fontawesome.com/license (Commercial License) Copyright 2023 Fonticons, Inc. --><path d="M344 56V312c0 13.3-10.7 24-24 24s-24-10.7-24-24V56c0-13.3 10.7-24 24-24s24 10.7 24 24zM8.2 149.6C79.1 87.2 169 45.7 268.1 34.8C265.5 41.4 264 48.5 264 56V83.7c-85.3 11.2-162.6 47.8-224.1 102c-9.9 8.8-25.1 7.8-33.9-2.2s-7.8-25.1 2.2-33.9zM119.9 285.9c39.6-36.3 89.1-62 144.1-72.6v49.1c-42.4 9.8-80.6 30.4-111.6 58.9c-9.8 9-24.9 8.3-33.9-1.5s-8.3-24.9 1.5-33.9zM376 213.3c54.9 10.5 104.5 36.2 144.1 72.6c9.8 9 10.4 24.1 1.5 33.9s-24.1 10.4-33.9 1.5c-31-28.4-69.2-49.1-111.6-58.9V213.3zM376 424a56 56 0 1 1 -112 0 56 56 0 1 1 112 0zm0-368c0-7.5-1.5-14.6-4.1-21.2c99.1 10.8 189 52.4 259.9 114.8c9.9 8.8 10.9 23.9 2.2 33.9s-23.9 10.9-33.9 2.2C538.6 131.5 461.3 94.9 376 83.7V56z"/></svg>