<svg xmlns="http://www.w3.org/2000/svg" viewBox="0 0 512 512"><!--! Font Awesome Pro 6.4.0 by @fontawesome - https://fontawesome.com License - https://fontawesome.com/license (Commercial License) Copyright 2023 Fonticons, Inc. --><path d="M0 96C0 60.7 28.7 32 64 32H448c35.3 0 64 28.7 64 64v64 48 16V416c0 35.3-28.7 64-64 64L64 480c-35.3 0-64-28.7-64-64V224 208 160 96zM464 224H48l0 192c0 8.8 7.2 16 16 16l384 0c8.8 0 16-7.2 16-16l0-192zM96 160a32 32 0 1 0 0-64 32 32 0 1 0 0 64zm128-32a32 32 0 1 0 -64 0 32 32 0 1 0 64 0zm64 32a32 32 0 1 0 0-64 32 32 0 1 0 0 64z"/></svg>