<svg xmlns="http://www.w3.org/2000/svg" viewBox="0 0 512 512"><!--! Font Awesome Pro 6.4.0 by @fontawesome - https://fontawesome.com License - https://fontawesome.com/license (Commercial License) Copyright 2023 Fonticons, Inc. --><path d="M71.1 49.5C67.5 36.8 54.3 29.3 41.5 32.9S21.3 49.7 24.9 62.5L79.1 256H24c-13.3 0-24 10.7-24 24s10.7 24 24 24H92.5l44.4 158.5c2.9 10.5 12.6 17.7 23.6 17.5s20.3-7.8 22.9-18.4L221.2 304h69.7l37.8 157.6c2.6 10.6 12 18.2 22.9 18.4s20.6-7 23.6-17.5L419.5 304H488c13.3 0 24-10.7 24-24s-10.7-24-24-24H432.9L487.1 62.5c3.6-12.8-3.9-26-16.6-29.6s-26 3.9-29.6 16.6L383.1 256H328.7L279.3 50.4C276.7 39.6 267.1 32 256 32s-20.7 7.6-23.3 18.4L183.3 256H128.9L71.1 49.5zM142.4 304h29.4l-13.6 56.6L142.4 304zm90.3-48L256 158.8 279.3 256H232.7zm107.5 48h29.4l-15.9 56.6L340.2 304z"/></svg>