<svg xmlns="http://www.w3.org/2000/svg" viewBox="0 0 320 512"><!--! Font Awesome Pro 6.4.0 by @fontawesome - https://fontawesome.com License - https://fontawesome.com/license (Commercial License) Copyright 2023 Fonticons, Inc. --><path d="M43.8 42.5c-7.5-11-22.4-13.8-33.3-6.4S-3.3 58.5 4.2 69.5L109.2 224H40c-13.3 0-24 10.7-24 24s10.7 24 24 24h96v48H40c-13.3 0-24 10.7-24 24s10.7 24 24 24h96v88c0 13.3 10.7 24 24 24s24-10.7 24-24V368h96c13.3 0 24-10.7 24-24s-10.7-24-24-24H184V272h96c13.3 0 24-10.7 24-24s-10.7-24-24-24H210.8L315.8 69.5c7.5-11 4.6-25.9-6.4-33.3s-25.9-4.6-33.3 6.4L160 213.3 43.8 42.5z"/></svg>